<?xml version="1.0" encoding="UTF-8"?>
<svg id="Layer_2" xmlns="http://www.w3.org/2000/svg" xmlns:xlink="http://www.w3.org/1999/xlink" viewBox="0 0 50 50">
  <defs>
    <style>
      .cls-1 {
        fill: #f2622a;
      }

      .cls-2 {
        fill: none;
      }

      .cls-3 {
        clip-path: url(#clippath);
      }
    </style>
    <clipPath id="clippath">
      <rect class="cls-2" width="50" height="50"/>
    </clipPath>
  </defs>
  <g id="Layer_1-2" data-name="Layer_1">
    <g class="cls-3">
      <path class="cls-1" d="M37.97,45.02c-.46,0-.83-.37-.83-.83s.37-.83.83-.83h7.75c.72,0,1.37-.3,1.84-.77.47-.47.77-1.12.77-1.84v-4.72h-15.49l-.17.76c-.21.94-.62,1.81-1.25,2.44-.59.59-1.37.97-2.32.97h-8.22c-.95,0-1.72-.37-2.32-.97l-.05-.05c-.6-.62-1-1.48-1.2-2.39l-.17-.76H1.67v4.72c0,.72.3,1.37.77,1.84.47.47,1.12.77,1.84.77h30.54c.46,0,.83.37.83.83s-.37.83-.83.83H4.27c-1.18,0-2.24-.48-3.02-1.25-.77-.77-1.25-1.84-1.25-3.02v-5.55c0-.46.37-.83.83-.83h1.49v-16.6c0-.46.37-.83.83-.83s.83.37.83.83v16.6h13.83c.38,0,.72.27.81.65l.31,1.41c.14.62.39,1.19.77,1.58l.04.04c.3.3.67.48,1.14.48h8.22c.46,0,.84-.18,1.14-.48.39-.39.66-.98.8-1.62l.3-1.34c.05-.41.4-.73.83-.73h13.83V8.3c0-.45-.19-.87-.49-1.17-.3-.3-.71-.49-1.17-.49H5.65c-.45,0-.87.19-1.17.49-.3.3-.49.71-.49,1.17v3c0,.46-.37.83-.83.83s-.83-.37-.83-.83v-3c0-.91.37-1.74.97-2.35.6-.6,1.43-.97,2.35-.97h38.71c.91,0,1.74.37,2.35.97.6.6.97,1.43.97,2.35v26.06h1.49c.46,0,.83.37.83.83v5.55c0,1.18-.48,2.24-1.25,3.02-.77.77-1.84,1.25-3.02,1.25h-7.75ZM30.46,16.87c-.39-.23-.52-.75-.29-1.14s.75-.52,1.14-.29l7.16,4.3c.39.23.52.75.29,1.14-.07.12-.17.22-.29.29l-7.16,4.3c-.39.23-.9.11-1.14-.29-.23-.39-.11-.9.29-1.14l5.97-3.59-5.97-3.59ZM24.04,26.64c-.13.44-.59.69-1.03.56-.44-.13-.69-.59-.56-1.03l3.52-11.88c.13-.44.59-.69,1.03-.56.44.13.69.59.56,1.03l-3.52,11.88ZM18.69,15.45c.39-.23.9-.11,1.14.29s.11.9-.29,1.14l-5.97,3.59,5.97,3.59c.39.23.52.75.29,1.14s-.75.52-1.14.29l-7.16-4.3c-.12-.07-.21-.16-.29-.29-.23-.39-.11-.9.29-1.14l7.16-4.3ZM3.99,14.59c0,.46-.37.83-.83.83s-.83-.37-.83-.83v-.13c0-.46.37-.83.83-.83s.83.37.83.83v.13Z"/>
    </g>
  </g>
</svg>