<?xml version="1.0" encoding="UTF-8"?>
<svg id="Layer_2" xmlns="http://www.w3.org/2000/svg" xmlns:xlink="http://www.w3.org/1999/xlink" viewBox="0 0 50 50">
  <defs>
    <style>
      .cls-1 {
        fill: none;
      }

      .cls-2 {
        fill: #f2622a;
        fill-rule: evenodd;
      }

      .cls-3 {
        clip-path: url(#clippath);
      }
    </style>
    <clipPath id="clippath">
      <rect class="cls-1" width="50" height="50"/>
    </clipPath>
  </defs>
  <g id="Layer_1-2" data-name="Layer_1">
    <g class="cls-3">
      <path class="cls-2" d="M3.88,11.69l.91.49c.55.3,1.25.08,1.55-.47L10.96,3.2h0c.3-.54.09-1.24-.46-1.55l-.94-.51c-.55-.3-1.25-.08-1.55.47L3.38,10.13c-.3.54-.09,1.24.46,1.54l.04.02ZM22.58,29.81l-2.46,4.75c-.42.81-1.62.59-1.75-.29l-.22-1.5-1.11.58c-.81.42-1.66-.45-1.26-1.25l2.16-4.25c-.04-.49.07-.99.34-1.42.14-.23.16-.49.06-.73h0l-.04-.09h0c-.1-.25-.29-.41-.56-.48-1.62-.38-2.34-2.34-1.28-3.68.32-.4.77-.7,1.28-.82.3-.07.46-.24.58-.52.11-.27.13-.51-.04-.78-.89-1.44.03-3.31,1.7-3.51.51-.06,1.03.05,1.48.33.24.14.48.16.74.05h0s.09-.04.09-.04h0c.25-.11.41-.29.48-.56.24-1.03,1.18-1.78,2.25-1.78h0c1.08,0,2.01.75,2.25,1.78.07.3.24.46.52.58.27.11.51.13.78-.04.91-.56,2.11-.42,2.85.33h0c.76.76.89,1.94.33,2.85-.14.23-.16.48-.05.74h0l.04.09h0c.1.25.29.41.56.48,1.62.38,2.34,2.34,1.28,3.68-.33.41-.77.7-1.3.82-.29.07-.45.25-.56.52-.11.27-.13.51.04.77.27.43.38.94.34,1.42l2.16,4.25c.09.18.12.38.09.57-.1.61-.77.98-1.35.67l-1.11-.58-.22,1.5c-.13.89-1.33,1.1-1.75.29l-2.46-4.75c-.26.26-.14.95-.99,1.62-1.34,1.06-3.3.34-3.68-1.28-.04-.13-.09-.24-.17-.34h0ZM18.45,29.1l-1.64,3.22.98-.51c.57-.3,1.26.05,1.35.69l.2,1.35,2.23-4.3s-.08.04-.12.06c-.98.61-2.27.4-3-.51h0ZM27.42,28.62c.56-.23,1.15-.19,1.66.13.8.49,1.85-.01,1.96-.95.09-.75-.39-.86-.45-1.65-.02-.31.03-.59.16-.88.24-.59.66-.97,1.28-1.12,1.34-.34,1.3-2.21,0-2.51-.58-.14-1.04-.53-1.27-1.09l-.03-.08h0c-.24-.56-.19-1.15.13-1.66.31-.5.24-1.16-.19-1.59h0c-.43-.43-1.09-.5-1.59-.19-.54.34-1.12.36-1.7.11-.57-.22-.98-.68-1.12-1.28-.14-.58-.65-1-1.26-1h0c-.61,0-1.12.41-1.26,1-.14.58-.53,1.04-1.09,1.27h0s-.08.03-.08.03h0c-.56.23-1.15.19-1.66-.13-.8-.49-1.85.01-1.96.95-.09.75.39.86.45,1.65.02.31-.03.59-.16.88-.24.58-.66.98-1.28,1.12-1.32.31-1.32,2.2,0,2.51.58.14,1.04.53,1.27,1.09h0l.03.07h0c.24.56.19,1.15-.13,1.66-.49.8.02,1.85.95,1.96.75.09.86-.39,1.65-.45.57-.04,1.25.24,1.62.67.52.6.26,1.02.84,1.48.73.57,1.84.21,2.06-.72.14-.58.53-1.04,1.09-1.27h0s.07-.03.07-.03h0ZM28.43,29.55l2.23,4.3c.02-.11.2-1.35.2-1.35.09-.64.78-.99,1.35-.69l.98.51-1.64-3.22c-.74.9-2.02,1.12-3.01.51-.04-.03-.08-.05-.12-.06h0ZM22.36,22.86l1.52,1.83c.19.23.54.24.75.04l2.98-2.95c.2-.2.2-.52,0-.72-.2-.2-.52-.2-.72,0l-2.59,2.56-1.17-1.4c-.18-.21-.5-.25-.71-.06-.22.18-.25.5-.07.71h0ZM25,17.92c-2.74,0-4.96,2.22-4.96,4.96s2.22,4.96,4.96,4.96,4.96-2.22,4.96-4.96-2.22-4.96-4.96-4.96ZM27.79,20.1c-1.54-1.54-4.04-1.54-5.57,0-1.54,1.54-1.54,4.04,0,5.57,1.54,1.54,4.04,1.54,5.57,0,1.54-1.54,1.54-4.04,0-5.57ZM30.76,20.54s0,0,0,0h0ZM42.13,38.97l-5.95-3.37c-.69-.39-1.43-.42-2.18-.17-2.6.85-5.98,2.15-8.25,2.56h0c-1,.21-1.75,1.05-1.1,1.86.36.44.99.7,1.85.74,2.27.12,3.78-.43,6.2-1.26.64-.22.97.75.33.96-2.9,1-4.43,1.53-7.28,1.25-2.04-.2-6.53-1.95-8.3-2.87-1.3-.67-2.26-1.24-2.99-1.67-1.51-.89-1.86-1.1-2.4-.41-1.83,2.58,11.48,8.3,11.85,8.46,1.63.53,4.13.2,8.06-.33,1.32-.18,2.8-.38,4.35-.56.54-.06,1.03-.04,1.52.26l.97.61,3.3-6.07ZM23.56,40.02c-1.83-.56-4.25-1.52-5.64-2.23-1.27-.65-2.21-1.21-2.94-1.64-2.15-1.27-2.64-1.56-3.73-.15-.02.02-.03.04-.04.07-2.45,3.66,12.27,9.93,12.31,9.95.02.01.05.02.08.03,1.85.61,4.44.26,8.52-.29,1.26-.17,2.67-.36,4.34-.56.3-.04.61-.05.86.11l1.02.64-.2.37c-.57,1.05-.15,2.37.87,2.92l.95.51c1.05.56,2.35.16,2.92-.88l4.63-8.51h0c.57-1.05.15-2.37-.87-2.92l-.95-.51c-1.05-.56-2.35-.16-2.92.88l-.15.27-5.94-3.36c-.95-.54-1.97-.59-3-.25-2.62.86-5.9,2.11-8.12,2.53-.02,0-.04,0-.06.01-.97.24-1.6.75-1.9,1.35-.27.53-.28,1.13-.04,1.66h0ZM46.12,38.3l.04.02c.55.3.76,1,.46,1.54l-4.62,8.51c-.3.55-1,.77-1.55.47l-.94-.51c-.55-.3-.76-1-.46-1.54l4.62-8.51c.3-.55,1-.77,1.55-.47l.91.49ZM7.87,11.02l3.3-6.08.97.61c.48.3.98.32,1.52.26,1.56-.18,3.04-.38,4.35-.56,3.93-.53,6.44-.87,8.06-.33.37.16,13.68,5.88,11.85,8.46-.54.69-.89.48-2.4-.41-.73-.43-1.69-1-2.99-1.67-1.76-.92-6.26-2.67-8.3-2.87-2.85-.27-4.37.26-7.28,1.25-.64.22-.3,1.18.33.96,2.42-.83,3.93-1.38,6.2-1.26.86.05,1.5.3,1.85.74.65.81-.09,1.65-1.1,1.86h0c-2.27.41-5.65,1.71-8.25,2.56-.75.25-1.49.22-2.18-.17l-5.95-3.37ZM26.44,9.97c.24.54.24,1.14-.04,1.67-.3.6-.93,1.1-1.9,1.35-.02,0-.04.01-.06.01-2.23.42-5.5,1.67-8.12,2.53-1.03.34-2.05.28-3-.25l-5.94-3.36-.15.27c-.57,1.04-1.87,1.44-2.92.88l-.95-.51c-1.03-.55-1.44-1.87-.87-2.92L7.12,1.14c.57-1.04,1.87-1.44,2.92-.88l.95.51c1.03.55,1.44,1.87.87,2.92l-.2.37,1.02.64c.25.16.56.15.86.11,1.67-.2,3.08-.39,4.34-.56,4.07-.55,6.67-.9,8.52-.29.03,0,.05.01.08.03.04.02,14.77,6.29,12.31,9.95-.01.02-.03.05-.04.07-1.09,1.41-1.59,1.12-3.73-.15-.72-.43-1.67-.99-2.94-1.64-1.39-.71-3.81-1.67-5.64-2.24h0Z"/>
    </g>
  </g>
</svg>