<svg width="235" height="103" viewBox="0 0 235 103" fill="none" xmlns="http://www.w3.org/2000/svg">
<g clip-path="url(#clip0_75_5)">
<path d="M192 0C194 4 194 4 194.816 5.97656C196.248 8.42405 197.609 9.24451 200.062 10.625C203.903 12.8056 203.903 12.8056 205 15C205.134 17.6724 205.043 20.3225 205 23C205.66 23.33 206.32 23.66 207 24C208.42 32.653 208.032 41.3326 207 50C208.65 50 210.3 50 212 50C211.67 62.21 211.34 74.42 211 87C212.65 87.66 214.3 88.32 216 89C222.963 92.6806 229.234 96.6274 235 102C231.246 103.251 230.62 102.594 227.125 100.938C213.092 94.914 198.472 91.672 183.438 89.25C182.209 89.0515 180.981 88.853 179.716 88.6484C175.816 88.0505 171.912 87.507 168 87C167.29 86.9057 166.579 86.8114 165.848 86.7143C150.135 84.6925 134.447 84.6427 118.625 84.6875C117.281 84.6894 115.936 84.6913 114.592 84.693C95.5843 84.7292 76.8052 84.958 58 88C56.8824 88.1769 55.7648 88.3538 54.6133 88.5361C37.7211 91.299 20.3874 94.6829 4.94751 102.326C3 103 3 103 0 102C0.715349 101.671 1.4307 101.342 2.16772 101.004C5.60413 98.9596 7.63606 97.2553 10 94C11.74 87.0924 10.8888 79.607 10.5625 72.5625C10.4748 69.6419 10.4013 66.7211 10.3301 63.8C10.2808 61.9898 10.2193 60.1798 10.1432 58.3705C9.92692 52.7924 10.1877 47.5297 11 42C12.6005 40.3995 14.2885 40.8727 16.5039 40.8706C17.9404 40.8659 17.9404 40.8659 19.406 40.8611C20.4476 40.8631 21.4893 40.8651 22.5625 40.8672C23.6241 40.8662 24.6857 40.8653 25.7795 40.8643C28.0291 40.8636 30.2787 40.8655 32.5283 40.8696C35.9851 40.875 39.4417 40.8697 42.8984 40.8633C45.0781 40.8639 47.2578 40.8652 49.4375 40.8672C51 40.8642 51 40.8642 52.594 40.8611C53.5517 40.8642 54.5094 40.8674 55.4961 40.8706C56.3436 40.8714 57.191 40.8722 58.0642 40.873C60 41 60 41 61 42C63.0738 52.415 61.6455 63.4889 61 74C61.99 74 62.98 74 64 74C64.1455 70.1081 64.2877 66.2161 64.4272 62.324C64.4981 60.3663 64.5713 58.4087 64.6445 56.4512C64.935 48.2965 65.0622 40.1597 65 32C65.66 32 66.32 32 67 32C66.01 30.02 66.01 30.02 65 28C66.32 27.01 67.64 26.02 69 25C71.8816 28.212 72.3335 30.1489 72.1562 34.4219C71.9869 41.0544 72.2105 47.6233 72.5 54.25C72.5715 55.9574 72.5715 55.9574 72.6445 57.6992C72.7608 60.4662 72.8793 63.2332 73 66C75.64 66.33 78.28 66.66 81 67C80.9843 66.1017 80.9686 65.2034 80.9524 64.2778C80.9013 60.9493 80.8637 57.6212 80.8352 54.2925C80.8201 52.851 80.7996 51.4096 80.7737 49.9683C80.7373 47.898 80.7203 45.8283 80.707 43.7578C80.6913 42.5115 80.6756 41.2651 80.6594 39.981C80.7718 38.9972 80.8842 38.0135 81 37C81.99 36.34 82.98 35.68 84 35C86.147 38.5105 86.303 41.4419 86.4141 45.5156C86.4527 46.766 86.4914 48.0164 86.5312 49.3047C86.5622 50.6066 86.5931 51.9086 86.625 53.25C86.6637 54.5674 86.7023 55.8848 86.7422 57.2422C86.8365 60.4947 86.9221 63.7471 87 67C87.99 67 88.98 67 90 67C90 59.08 90 51.16 90 43C90.66 43 91.32 43 92 43C92 44.32 92 45.64 92 47C93.32 47 94.64 47 96 47C96 45.35 96 43.7 96 42C96.66 42 97.32 42 98 42C98.3713 41.0719 98.3713 41.0719 98.75 40.125C100.206 37.6493 101.378 37.0487 104 36C104.557 36.6806 105.114 37.3612 105.688 38.0625C106.451 38.7019 107.214 39.3413 108 40C109.673 39.6973 111.338 39.356 113 39C116.438 39.0069 119.859 39.0725 123.293 39.2148C127.43 39.353 127.43 39.353 130.992 37.4922C131.491 36.7536 131.491 36.7536 132 36C133.938 36.75 133.938 36.75 136 38C136.75 40.125 136.75 40.125 137 42C137.66 42 138.32 42 139 42C139 43.65 139 45.3 139 47C140.32 47 141.64 47 143 47C143 45.68 143 44.36 143 43C143.66 43 144.32 43 145 43C145 50.92 145 58.84 145 67C146.32 67 147.64 67 149 67C148.83 65.9146 148.66 64.8292 148.484 63.7109C147.815 58.3278 148.014 53.033 148.25 47.625C148.291 46.1303 148.291 46.1303 148.332 44.6055C148.372 43.6554 148.412 42.7054 148.453 41.7266C148.486 40.8663 148.518 40.006 148.552 39.1196C149 37 149 37 152 35C154.147 38.5105 154.303 41.4419 154.414 45.5156C154.453 46.766 154.491 48.0164 154.531 49.3047C154.578 51.2576 154.578 51.2576 154.625 53.25C154.664 54.5674 154.702 55.8848 154.742 57.2422C154.836 60.4947 154.922 63.7471 155 67C157.64 67 160.28 67 163 67C162.979 65.8343 162.958 64.6686 162.937 63.4675C162.864 59.1459 162.818 54.8243 162.78 50.5022C162.76 48.631 162.733 46.7599 162.698 44.8889C162.65 42.2005 162.627 39.513 162.609 36.8242C162.589 35.9866 162.568 35.149 162.547 34.2861C162.545 28.4615 162.545 28.4615 165.024 25.9485C165.676 25.6355 166.328 25.3225 167 25C169.297 27.4318 169.976 28.7311 170.275 32.1116C170.236 33.3135 170.197 34.5155 170.156 35.7539C170.127 37.1017 170.099 38.4495 170.074 39.7974C170.059 40.491 170.043 41.1846 170.027 41.8992C169.95 47.9128 170.28 53.9293 170.5 59.9375C170.548 61.3144 170.597 62.6914 170.645 64.0684C170.761 67.379 170.879 70.6895 171 74C172.32 74 173.64 74 175 74C175 67.4 175 60.8 175 54C174.34 54 173.68 54 173 54C173 52.68 173 51.36 173 50C174.65 50 176.3 50 178 50C177.916 49.1286 177.832 48.2572 177.746 47.3594C177.067 39.4195 177.058 31.913 178 24C178.66 24 179.32 24 180 24C179.954 23.3967 179.907 22.7934 179.859 22.1719C179.564 15.6281 179.564 15.6281 181.562 12.75C182.948 11.7554 184.348 10.7795 185.789 9.86719C190.011 7.21542 190.011 7.21542 191.938 2.6875C191.958 1.80063 191.979 0.91375 192 0ZM190 12C191 14 191 14 191 14L190 12ZM189 14C189 17.3 189 20.6 189 24C189.33 24 189.66 24 190 24C190 20.7 190 17.4 190 14C189.67 14 189.34 14 189 14ZM195 14C195 17.3 195 20.6 195 24C195.33 24 195.66 24 196 24C196 20.7 196 17.4 196 14C195.67 14 195.34 14 195 14ZM185 15C186 17 186 17 186 17L185 15ZM199 15C200 17 200 17 200 17L199 15ZM185 21C186 24 186 24 186 24L185 21ZM199 21C200 24 200 24 200 24L199 21ZM185 34C183.824 37.6741 183.926 41.1693 184 45C184.99 45 185.98 45 187 45C187.244 39.2026 187.244 39.2026 185 34ZM199 34C197.824 37.6741 197.926 41.1693 198 45C198.99 45 199.98 45 201 45C201.244 39.2026 201.244 39.2026 199 34ZM180 36C180 38.97 180 41.94 180 45C180.66 45 181.32 45 182 45C182 42.03 182 39.06 182 36C181.34 36 180.68 36 180 36ZM190 36C190 38.97 190 41.94 190 45C190.66 45 191.32 45 192 45C192.167 41.5834 192.167 41.5834 192 38C191.34 37.34 190.68 36.68 190 36ZM195 36C193.522 38.9566 193.94 41.7423 194 45C194.66 45 195.32 45 196 45C196 42.03 196 39.06 196 36C195.67 36 195.34 36 195 36ZM203 36C203 38.97 203 41.94 203 45C203.66 45 204.32 45 205 45C205 42.03 205 39.06 205 36C204.34 36 203.68 36 203 36ZM98 44C99 47 99 47 99 47L98 44ZM101 45C102 47 102 47 102 47L101 45ZM103 45C104 47 104 47 104 47L103 45ZM106 45C107 47 107 47 107 47L106 45ZM131 45C132 47 132 47 132 47L131 45ZM136 45C137 47 137 47 137 47L136 45ZM180 46C180 46.99 180 47.98 180 49C182.31 49 184.62 49 187 49C187 48.01 187 47.02 187 46C184.69 46 182.38 46 180 46ZM190 46C190 46.99 190 47.98 190 49C191.98 49 193.96 49 196 49C196 48.01 196 47.02 196 46C194.02 46 192.04 46 190 46ZM198 46C198 46.99 198 47.98 198 49C200.31 49 202.62 49 205 49C205 48.01 205 47.02 205 46C202.69 46 200.38 46 198 46ZM28 52C27.56 54.7884 27.4091 56.9405 27.5117 59.707C27.5188 60.4324 27.5259 61.1578 27.5332 61.9052C27.561 64.2087 27.6237 66.5097 27.6875 68.8125C27.7126 70.3795 27.7354 71.9466 27.7559 73.5137C27.8108 77.3434 27.897 81.1713 28 85C30.3138 84.1909 32.626 83.3779 34.9375 82.5625C35.5969 82.3324 36.2562 82.1023 36.9355 81.8652C40.2233 80.8804 40.2233 80.8804 43 79C43.3105 74.4029 43.2785 69.7938 43.3125 65.1875C43.356 63.2413 43.356 63.2413 43.4004 61.2559C43.4088 60.01 43.4171 58.7641 43.4258 57.4805C43.4404 56.3347 43.4549 55.189 43.47 54.0085C42.8994 50.356 41.9157 49.2035 39 47C33.4834 45.9436 31.3789 47.7437 28 52ZM111 47C111 49.31 111 51.62 111 54C112.33 52.9481 112.33 52.9481 113.688 51.875C117 50 117 50 119.75 50.6875C120.493 51.1206 121.235 51.5538 122 52C122.66 52.33 123.32 52.66 124 53C124 51.02 124 49.04 124 47C119.71 47 115.42 47 111 47ZM93 51C92.67 53.31 92.34 55.62 92 58C92.99 58 93.98 58 95 58C94.67 55.69 94.34 53.38 94 51C93.67 51 93.34 51 93 51ZM101 51C99.6438 52.1253 99.6438 52.1253 99.9375 55.0625C99.9581 56.0319 99.9787 57.0013 100 58C100.33 57.01 100.66 56.02 101 55C101.66 55 102.32 55 103 55C103.33 55.99 103.66 56.98 104 58C104 56.02 104 54.04 104 52C103.01 51.67 102.02 51.34 101 51ZM141 51C141 53.31 141 55.62 141 58C141.66 58 142.32 58 143 58C143 56.02 143 54.04 143 52C142.34 51.67 141.68 51.34 141 51ZM133 51C132.01 51.495 132.01 51.495 131 52C131 53.98 131 55.96 131 58C131.33 57.01 131.66 56.02 132 55C133.32 55.99 134.64 56.98 136 58C136.25 55.5838 136.25 55.5838 136 53C135.01 52.34 134.02 51.68 133 51ZM117 55C117 55.99 117 56.98 117 58C117.66 58 118.32 58 119 58C118.67 57.01 118.34 56.02 118 55C117.67 55 117.34 55 117 55ZM177 56C177 57.32 177 58.64 177 60C179.64 60 182.28 60 185 60C185 58.68 185 57.36 185 56C182.36 56 179.72 56 177 56ZM189 56C189 57.32 189 58.64 189 60C191.64 60 194.28 60 197 60C197 58.68 197 57.36 197 56C194.36 56 191.72 56 189 56ZM200 56C200 57.32 200 58.64 200 60C202.64 60 205.28 60 208 60C208 58.68 208 57.36 208 56C205.36 56 202.72 56 200 56ZM14 58C14 58.33 14 58.66 14 59C16.64 59 19.28 59 22 59C22 58.67 22 58.34 22 58C19.36 58 16.72 58 14 58ZM57 54C57 55.32 57 56.64 57 58C54.69 58 52.38 58 50 58C50 58.33 50 58.66 50 59C52.64 59 55.28 59 58 59C58 57.35 58 55.7 58 54C57.67 54 57.34 54 57 54ZM93 61C91.7037 62.0665 91.7037 62.0665 91.9375 64.5625C91.9581 65.3669 91.9787 66.1712 92 67C92.99 67 93.98 67 95 67C95 65.35 95 63.7 95 62C94.34 61.67 93.68 61.34 93 61ZM100 61C100 62.98 100 64.96 100 67C100.33 66.01 100.66 65.02 101 64C101.66 64 102.32 64 103 64C103.33 64.99 103.66 65.98 104 67C104 65.35 104 63.7 104 62C102.68 61.67 101.36 61.34 100 61ZM132 61C130.704 62.0665 130.704 62.0665 130.938 64.5625C130.958 65.3669 130.979 66.1712 131 67C131.99 66.34 132.98 65.68 134 65C134.66 65.66 135.32 66.32 136 67C135.67 65.02 135.34 63.04 135 61C134.01 61 133.02 61 132 61ZM141 61C141 62.98 141 64.96 141 67C141.66 67 142.32 67 143 67C143 65.35 143 63.7 143 62C142.34 61.67 141.68 61.34 141 61ZM14 62C14 66.62 14 71.24 14 76C16.64 76 19.28 76 22 76C22 71.38 22 66.76 22 62C19.36 62 16.72 62 14 62ZM50 62C50 66.62 50 71.24 50 76C52.64 75.67 55.28 75.34 58 75C58 70.71 58 66.42 58 62C55.36 62 52.72 62 50 62ZM117 63C117 64.32 117 65.64 117 67C117.66 67 118.32 67 119 67C119 65.68 119 64.36 119 63C118.34 63 117.68 63 117 63ZM180 64C177.155 67.7197 176.677 70.3739 177 75C179.64 75.66 182.28 76.32 185 77C185.379 70.0063 185.379 70.0063 182 64C181.34 64 180.68 64 180 64ZM192 64C188.511 68.2939 188.731 71.7187 189 77C191.64 77 194.28 77 197 77C197.379 70.0063 197.379 70.0063 194 64C193.34 64 192.68 64 192 64ZM203 64C199.511 68.2939 199.731 71.7187 200 77C202.64 77 205.28 77 208 77C208.379 70.0063 208.379 70.0063 205 64C204.34 64 203.68 64 203 64ZM14 78C14 82.62 14 87.24 14 92C16.64 90.68 19.28 89.36 22 88C22 84.7 22 81.4 22 78C19.36 78 16.72 78 14 78Z" fill="#FF6926"/>
<path d="M26 19C32.6 19 39.2 19 46 19C46 19.66 46 20.32 46 21C48.64 21 51.28 21 54 21C54 23.64 54 26.28 54 29C54.99 29 55.98 29 57 29C57 30.65 57 32.3 57 34C57.66 34 58.32 34 59 34C59.3822 35.6561 59.714 37.3246 60 39C59 40 59 40 57.0954 40.1203C56.2627 40.118 55.43 40.1158 54.572 40.1135C53.6311 40.1134 52.6902 40.1134 51.7208 40.1133C50.6979 40.1081 49.675 40.103 48.6211 40.0977C47.5793 40.0962 46.5375 40.0948 45.4641 40.0934C42.1219 40.0878 38.7797 40.0752 35.4375 40.0625C33.1777 40.0575 30.918 40.0529 28.6582 40.0488C23.1054 40.0378 17.5527 40.0205 12 40C12.66 36.37 13.32 32.74 14 29C15.32 29 16.64 29 18 29C18 26.36 18 23.72 18 21C20.64 21 23.28 21 26 21C26 20.34 26 19.68 26 19ZM29 23C29 24.32 29 25.64 29 27C33.62 27 38.24 27 43 27C43 25.68 43 24.36 43 23C38.38 23 33.76 23 29 23ZM24 24C24.33 24.99 24.66 25.98 25 27C25.66 26.34 26.32 25.68 27 25C26.01 24.67 25.02 24.34 24 24ZM45 24C45 24.99 45 25.98 45 27C45.99 26.67 46.98 26.34 48 26C47.67 25.34 47.34 24.68 47 24C46.34 24 45.68 24 45 24Z" fill="#FF6926"/>
<path d="M117 14C119 16 119 16 119.188 18.8125C120.237 22.9286 121.845 23.5155 125.27 25.7188C127.988 27.7312 129.005 29.8171 130 33C129.059 35.6875 129.059 35.6875 128 38C124.521 38.0289 121.042 38.0468 117.562 38.0625C116.073 38.0751 116.073 38.0751 114.553 38.0879C113.608 38.0911 112.664 38.0943 111.691 38.0977C110.38 38.1055 110.38 38.1055 109.041 38.1135C107 38 107 38 106 37C105.5 34.4375 105.5 34.4375 106 31C108.429 27.5153 111.153 23.9236 115 22C115.685 20.1124 115.685 20.1124 116.125 17.9375C116.293 17.204 116.46 16.4705 116.633 15.7148C116.754 15.1489 116.875 14.583 117 14Z" fill="#FF6926"/>
<path d="M35.0703 14.8555C40.7778 15.7778 40.7778 15.7778 43 18C38.38 18 33.76 18 29 18C33 15 33 15 35.0703 14.8555Z" fill="#FF6926"/>
</g>
<defs>
<clipPath id="clip0_75_5">
<rect width="235" height="103" fill="white"/>
</clipPath>
</defs>
</svg>
