<svg width="234" height="144" viewBox="0 0 234 144" fill="none" xmlns="http://www.w3.org/2000/svg">
<g clip-path="url(#clip0_75_12)">
<path d="M109 0C108.722 0.835312 108.722 0.835312 108.438 1.6875C107.924 4.39913 108.336 6.34371 109 9C108.34 9 107.68 9 107 9C107.704 11.1542 108.439 13.2983 109.188 15.4375C109.594 16.6325 110 17.8274 110.418 19.0586C111.696 22.2356 111.696 22.2356 114.676 22.9102C115.443 22.9398 116.21 22.9695 117 23C116.505 21.02 116.505 21.02 116 19C116.99 19.66 117.98 20.32 119 21C119 21.66 119 22.32 119 23C119.66 23 120.32 23 121 23C121.495 21.515 121.495 21.515 122 20C122.495 21.485 122.495 21.485 123 23C125.015 23.7332 125.015 23.7332 127 24C126.505 24.495 126.505 24.495 126 25C127.98 25.99 127.98 25.99 130 27C129.01 27.33 128.02 27.66 127 28C126.67 30.64 126.34 33.28 126 36C126.598 36.2269 127.196 36.4537 127.812 36.6875C130 38 130 38 131.5 40.625C131.995 41.4087 132.49 42.1925 133 43C134.32 43 135.64 43 137 43C139.143 49.4287 138.682 56.7988 136 63C134.68 63 133.36 63 132 63C132.159 63.8666 132.318 64.7331 132.482 65.626C132.967 68.7825 133.185 71.7954 133.281 74.9844C133.337 76.6337 133.337 76.6337 133.395 78.3164C133.465 80.6211 133.536 82.9258 133.605 85.2305C133.662 86.8721 133.662 86.8721 133.719 88.5469C133.749 89.5456 133.779 90.5443 133.811 91.5732C133.848 94.0087 133.848 94.0087 135 96C146.77 83.894 155.749 67.8999 156.316 50.7031C156.358 49.4979 156.4 48.2926 156.443 47.0508C156.483 45.7965 156.522 44.5423 156.562 43.25C156.606 41.9803 156.649 40.7105 156.693 39.4023C156.799 36.2683 156.901 33.1343 157 30C157.99 30 158.98 30 160 30C160 34.29 160 38.58 160 43C163.63 43 167.26 43 171 43C171 38.71 171 34.42 171 30C171.99 30 172.98 30 174 30C174 49.14 174 68.28 174 88C176.64 87.67 179.28 87.34 182 87C185 87.9375 185 87.9375 187 89C187.33 91.97 187.66 94.94 188 98C189.299 98.2681 190.599 98.5362 191.938 98.8125C194.152 99.2695 194.152 99.2695 196 100C196.33 100.99 196.66 101.98 197 103C198.32 102.67 199.64 102.34 201 102C201.208 102.615 201.415 103.23 201.629 103.863C203.354 108.69 203.354 108.69 206.824 112.266C208.937 113.182 208.937 113.182 212 114C212 118.95 212 123.9 212 129C214.97 129.99 214.97 129.99 218 131C220.309 132.406 222.49 133.817 224.688 135.375C225.255 135.762 225.823 136.148 226.408 136.547C229.521 138.722 231.934 140.802 234 144C229.713 142.591 225.434 141.177 221.203 139.605C198.665 131.402 174.793 128.055 151 126C150.25 125.929 149.5 125.859 148.728 125.786C103.292 121.588 50.4211 123.25 8.21729 141.497C7.43015 141.836 6.64302 142.174 5.83203 142.523C5.13827 142.832 4.44452 143.141 3.72974 143.458C2 144 2 144 0 143C8.98511 133.808 21.2219 127.837 33 123C33.0142 122.169 33.0284 121.337 33.043 120.48C33.0907 119.394 33.1384 118.307 33.1875 117.188C33.2223 116.109 33.2571 115.03 33.293 113.918C34 111 34 111 36.3633 109.113C39 108 39 108 42 108C42 106.35 42 104.7 42 103C42.6342 102.765 43.2684 102.531 43.9219 102.289C46.1825 101.177 46.1825 101.177 46.8281 98.8359C46.9673 98.0238 47.1066 97.2117 47.25 96.375C47.3995 95.5577 47.5491 94.7405 47.7031 93.8984C47.8011 93.272 47.8991 92.6455 48 92C49.32 92 50.64 92 52 92C52 94.64 52 97.28 52 100C52.99 100 53.98 100 55 100C55 94.06 55 88.12 55 82C55.66 82 56.32 82 57 82C57.495 80.515 57.495 80.515 58 79C58.66 79 59.32 79 60 79C60.33 76.03 60.66 73.06 61 70C61.99 70 62.98 70 64 70C64.99 74.455 64.99 74.455 66 79C66.33 62.83 66.66 46.66 67 30C67.99 30 68.98 30 70 30C70 34.29 70 38.58 70 43C73.96 43 77.92 43 82 43C82 38.71 82 34.42 82 30C82.99 30 83.98 30 85 30C84.9989 30.7539 84.9977 31.5079 84.9966 32.2847C85.0876 58.2943 88.6815 76.7299 107 96C110.122 94.691 110.122 94.691 112 92C112.452 86.2276 112.031 80.633 111.062 74.9375C110.151 69.4997 109.636 64.123 109.312 58.625C109.264 57.876 109.216 57.1269 109.166 56.3552C108.978 52.7775 109.046 49.69 109.574 46.1172C110.336 42.9682 110.336 42.9682 108.5 40.5C107 38 107 38 107.5 34.875C108.322 28.5059 105.975 22.8666 103.938 16.875C102.666 12.9772 101.838 9.01005 101 5C101.66 5 102.32 5 103 5C103 3.68 103 2.36 103 1C105 0 105 0 109 0ZM112 23C112 23.99 112 24.98 112 26C113.32 25.67 114.64 25.34 116 25C114.68 24.34 113.36 23.68 112 23ZM114 29C114.33 29.99 114.66 30.98 115 32C115.66 31.67 116.32 31.34 117 31C116.67 30.34 116.34 29.68 116 29C115.34 29 114.68 29 114 29ZM70 46C69.6004 53.8919 70.1227 59.1208 74 66C74.4202 66.7709 74.8405 67.5417 75.2734 68.3359C76.9563 71.2962 76.9563 71.2962 79 74C79.99 74 80.98 74 82 74C82 64.76 82 55.52 82 46C78.04 46 74.08 46 70 46ZM160 46C160 55.24 160 64.48 160 74C164.236 71.882 164.941 70.9954 167.188 67.0625C167.951 65.7496 167.951 65.7496 168.73 64.4102C170.946 60.204 171.109 57.0122 171.062 52.3125C171.053 51.133 171.044 49.9535 171.035 48.7383C171.024 47.8346 171.012 46.931 171 46C167.37 46 163.74 46 160 46ZM70 64C70 67.3 70 70.6 70 74C70.99 74 71.98 74 73 74C73.2504 70.6254 73.2504 70.6254 73 67C72.01 66.01 71.02 65.02 70 64ZM170 65C168.522 67.9566 168.94 70.7423 169 74C169.66 74 170.32 74 171 74C171 71.03 171 68.06 171 65C170.67 65 170.34 65 170 65ZM156 66C153.559 71.644 153.807 76.9775 154 83C154.99 82.34 155.98 81.68 157 81C157.221 78.373 157.282 75.9911 157.188 73.375C157.174 72.6686 157.16 71.9622 157.146 71.2344C157.111 69.4893 157.057 67.7445 157 66C156.67 66 156.34 66 156 66ZM85 67C85 71.62 85 76.24 85 81C85.99 81.495 85.99 81.495 87 82C87.0541 80.0628 87.0928 78.1252 87.125 76.1875C87.1482 75.1086 87.1714 74.0296 87.1953 72.918C87.2302 69.806 87.2302 69.806 85 67ZM75 72C76 74 76 74 76 74L75 72ZM166 72C165.67 72.66 165.34 73.32 165 74C165.66 74 166.32 74 167 74C166.67 73.34 166.34 72.68 166 72ZM70 77C70 88.88 70 100.76 70 113C70.99 113 71.98 113 73 113C73 101.12 73 89.24 73 77C72.01 77 71.02 77 70 77ZM75 77C75 88.55 75 100.1 75 112C75.66 112 76.32 112 77 112C77 100.45 77 88.9 77 77C76.34 77 75.68 77 75 77ZM165 77C165 88.88 165 100.76 165 113C165.66 113 166.32 113 167 113C167 101.12 167 89.24 167 77C166.34 77 165.68 77 165 77ZM169 77C169 89.21 169 101.42 169 114C169.66 114 170.32 114 171 114C171 101.79 171 89.58 171 77C170.34 77 169.68 77 169 77ZM79 78C79 88.89 79 99.78 79 111C79.99 111 80.98 111 82 111C82.0741 106.622 82.1286 102.244 82.1648 97.8652C82.1799 96.3753 82.2004 94.8853 82.2263 93.3955C82.2626 91.2557 82.2797 89.1166 82.293 86.9766C82.3165 85.0442 82.3165 85.0442 82.3406 83.0728C82.2282 82.0587 82.1158 81.0447 82 80C81.01 79.34 80.02 78.68 79 78ZM90 79C90 81.64 90 84.28 90 87C90.99 87.495 90.99 87.495 92 88C92 85.36 92 82.72 92 80C91.34 79.67 90.68 79.34 90 79ZM151 79C149.584 80.1842 149.584 80.1842 149.938 83.5625C149.958 84.6969 149.979 85.8312 150 87C150.66 86.67 151.32 86.34 152 86C152 83.69 152 81.38 152 79C151.67 79 151.34 79 151 79ZM161 79C159.649 80.1243 159.649 80.1243 159.886 83.051C159.887 84.3999 159.892 85.7488 159.902 87.0977C159.904 87.8065 159.905 88.5154 159.907 89.2457C159.912 91.518 159.925 93.7902 159.938 96.0625C159.943 97.5996 159.947 99.1367 159.951 100.674C159.962 104.449 159.979 108.225 160 112C160.66 112 161.32 112 162 112C162 101.11 162 90.22 162 79C161.67 79 161.34 79 161 79ZM85 85C85 93.58 85 102.16 85 111C85.66 110.67 86.32 110.34 87 110C87 102.08 87 94.16 87 86C86.34 85.67 85.68 85.34 85 85ZM94 85C94 86.98 94 88.96 94 91C94.66 91 95.32 91 96 91C95.67 89.02 95.34 87.04 95 85C94.67 85 94.34 85 94 85ZM147 85C146.67 86.98 146.34 88.96 146 91C146.66 90.67 147.32 90.34 148 90C148 88.35 148 86.7 148 85C147.67 85 147.34 85 147 85ZM156 85C153.756 86.8183 153.756 86.8183 153.773 89.4302C153.783 90.4252 153.794 91.4202 153.805 92.4453C153.811 93.5217 153.818 94.598 153.824 95.707C153.841 96.835 153.858 97.9629 153.875 99.125C153.884 100.261 153.893 101.396 153.902 102.566C153.926 105.378 153.959 108.189 154 111C154.99 111.33 155.98 111.66 157 112C157 103.09 157 94.18 157 85C156.67 85 156.34 85 156 85ZM90 90C90 96.6 90 103.2 90 110C90.66 110 91.32 110 92 110C92 103.73 92 97.46 92 91C91.34 90.67 90.68 90.34 90 90ZM151 90C149.784 90.9948 149.784 90.9948 149.886 92.9495C149.892 93.7821 149.897 94.6148 149.902 95.4727C149.906 96.3718 149.909 97.2709 149.912 98.1973C149.92 99.1428 149.929 100.088 149.938 101.062C149.942 102.012 149.947 102.961 149.951 103.939C149.963 106.293 149.979 108.646 150 111C150.66 111 151.32 111 152 111C152 104.07 152 97.14 152 90C151.67 90 151.34 90 151 90ZM98 91C98.33 92.32 98.66 93.64 99 95C99.33 94.01 99.66 93.02 100 92C99.34 91.67 98.68 91.34 98 91ZM143 91C142.67 92.32 142.34 93.64 142 95C142.66 94.67 143.32 94.34 144 94C143.67 93.01 143.34 92.02 143 91ZM94 94C94 99.28 94 104.56 94 110C94.66 110 95.32 110 96 110C96 105.05 96 100.1 96 95C95.34 94.67 94.68 94.34 94 94ZM147 94C145.608 95.1628 145.608 95.1628 145.902 98.3789C145.909 99.7735 145.921 101.168 145.938 102.562C145.942 103.273 145.947 103.984 145.951 104.717C145.963 106.478 145.981 108.239 146 110C146.66 110 147.32 110 148 110C148 104.72 148 99.44 148 94C147.67 94 147.34 94 147 94ZM102 96C102.33 96.99 102.66 97.98 103 99C103 98.01 103 97.02 103 96C102.67 96 102.34 96 102 96ZM98 97C98 100.96 98 104.92 98 109C98.66 109 99.32 109 100 109C100 105.37 100 101.74 100 98C99.34 97.67 98.68 97.34 98 97ZM143 97C141.687 98.0855 141.687 98.0855 141.902 100.723C141.914 101.825 141.926 102.927 141.938 104.062C141.947 105.167 141.956 106.272 141.965 107.41C141.976 108.265 141.988 109.119 142 110C142.66 110 143.32 110 144 110C144 105.71 144 101.42 144 97C143.67 97 143.34 97 143 97ZM102 102C102 104.31 102 106.62 102 109C102.33 109 102.66 109 103 109C103 106.69 103 104.38 103 102C102.67 102 102.34 102 102 102Z" fill="#FF6926"/>
</g>
<defs>
<clipPath id="clip0_75_12">
<rect width="234" height="144" fill="white"/>
</clipPath>
</defs>
</svg>
