<svg xmlns="http://www.w3.org/2000/svg" xmlns:xlink="http://www.w3.org/1999/xlink" viewBox="0 0 63.22 60"><defs><style>.cls-1{fill:none;}.cls-2{clip-path:url(#clip-path);}</style><clipPath id="clip-path" transform="translate(-17.39 0)"><rect class="cls-1" width="98" height="60"/></clipPath></defs><title>graphic</title><g id="Layer_2" data-name="Layer 2"><g id="Layer_2-2" data-name="Layer 2"><g class="cls-2"><path d="M21.3,28.77a1,1,0,0,0-.61-.46,1,1,0,0,0-.78.1,1,1,0,0,0-.49.63,1,1,0,0,0,.1.79,1,1,0,0,0,.63.48,1,1,0,0,0,.79-.1,1.07,1.07,0,0,0,.48-.63A1.42,1.42,0,0,0,21.3,28.77ZM58.08,52l8.66-5a17.79,17.79,0,0,1,.79-14.07L49.69,25.46l6.38,11a3.88,3.88,0,0,1,4.75,4.74A3.85,3.85,0,0,1,59,43.59a3.87,3.87,0,0,1-5.67-4.35,3.85,3.85,0,0,1,1-1.74L48,26.45,45.5,45.62A17.81,17.81,0,0,1,58.08,52Zm10.68-5.28,4.78,2.47a1,1,0,0,1,0,1.78L58.06,59.87A1,1,0,0,1,56.58,59l.24-5.38a15.83,15.83,0,0,0-12.45-6,1,1,0,0,1-1-1.13l3-23.17a1,1,0,0,1,1.37-.79l21.57,9a1,1,0,0,1,.46,1.45,15.84,15.84,0,0,0-1,13.75ZM68,48.54l-9.2,5.31-.15,3.39L71,50.1l-3-1.56ZM57.57,38.43a1.87,1.87,0,0,0-2.12,2.75,1.88,1.88,0,0,0,3.44-.45,1.9,1.9,0,0,0-.18-1.43A1.86,1.86,0,0,0,57.57,38.43Zm15.1-16A22.62,22.62,0,0,0,55.14,14a20.71,20.71,0,0,0-4.59.44,23.47,23.47,0,0,0-3.56,1,3.89,3.89,0,0,1-1.87,4.06,3.83,3.83,0,0,1-2.94.39,4,4,0,0,1-1.52-.8A24.78,24.78,0,0,0,38,21.68a22.87,22.87,0,0,0-2.68,3.76,22.67,22.67,0,0,0-1.43,19.42l1.4-.81a1,1,0,0,1,1.36.37l2.87,5a1,1,0,0,1-.37,1.36l-5,2.87a1,1,0,0,1-1.36-.37l-2.87-5a1,1,0,0,1,.37-1.36l1.83-1.05a24.65,24.65,0,0,1,1.44-21.42,26.25,26.25,0,0,1,1.68-2.56L23.39,28.74a2.92,2.92,0,0,1-.05,1.35,3,3,0,0,1-3.7,2.15,3,3,0,0,1-2.15-3.71A3.11,3.11,0,0,1,19,26.63a3.06,3.06,0,0,1,2.19-.24,3,3,0,0,1,1.2.63l17-9.84a3.88,3.88,0,0,1,1.8-4.36,3.86,3.86,0,0,1,4.68.62L63,3.6A2.92,2.92,0,0,1,63,2.25,3,3,0,0,1,64.43.41,3,3,0,1,1,65.16,6,3,3,0,0,1,64,5.32L52.08,12.18A24.1,24.1,0,0,1,55.15,12a24.69,24.69,0,0,1,19.27,9.45l1.83-1.05a1,1,0,0,1,1.35.36l2.87,5a1,1,0,0,1-.36,1.36l-5,2.87a1,1,0,0,1-1.36-.36l-2.87-5a1,1,0,0,1,.36-1.36Zm3.71.16L73.13,24.5,75,27.75l3.24-1.88Zm-41,23.64-3.25,1.88,1.88,3.25,3.25-1.88ZM66.21,2a1,1,0,0,0-1.27.73A1.06,1.06,0,0,0,65,3.5a1,1,0,0,0,.65.53A1.09,1.09,0,0,0,66.42,4a1,1,0,0,0,.52-.65,1,1,0,0,0-.1-.79A1,1,0,0,0,66.21,2ZM41.58,17.16a1.92,1.92,0,0,0,1.11.82,1.88,1.88,0,0,0,1.5-.22,1.83,1.83,0,0,0,.8-1.1,1.86,1.86,0,0,0-1.32-2.3,1.86,1.86,0,0,0-2.3,1.32,1.87,1.87,0,0,0,.21,1.48Z" transform="translate(-17.39 0)"/></g></g></g></svg>