<svg xmlns="http://www.w3.org/2000/svg" xmlns:xlink="http://www.w3.org/1999/xlink" viewBox="0 0 87.12 60"><defs><style>.cls-1{fill:none;}.cls-2{clip-path:url(#clip-path);}</style><clipPath id="clip-path" transform="translate(-5.44)"><rect class="cls-1" width="98" height="60"/></clipPath></defs><title>illustration</title><g id="Layer_2" data-name="Layer 2"><g id="Layer_5" data-name="Layer 5"><g class="cls-2"><path d="M49.33.12,92.56,15.83,72.63,23.08l19.93,7.25L72.63,37.58l19.93,7.25L52.72,59.32a10.52,10.52,0,0,1-7.44,0L5.44,44.83l19.93-7.25L5.44,30.33l19.93-7.25L5.44,15.84,49,0Zm20.44,38.5-17,6.21a10.52,10.52,0,0,1-7.44,0L28.22,38.62,11.14,44.84,46,57.5a8.59,8.59,0,0,0,6.1,0L86.86,44.84Zm0-14.5-17,6.2A10.7,10.7,0,0,1,49,31a10.93,10.93,0,0,1-3.72-.68l-17.06-6.2L11.14,30.34,46,43a8.59,8.59,0,0,0,6.1,0L86.86,30.34ZM69,9.35,49,2.07,11.14,15.84,46,28.5a8.59,8.59,0,0,0,6.1,0L86.86,15.84,69,9.35Z" transform="translate(-5.44)"/></g></g></g></svg>