<svg xmlns="http://www.w3.org/2000/svg" xmlns:xlink="http://www.w3.org/1999/xlink" viewBox="0 0 60 60"><defs><style>.cls-1{fill:none;}.cls-2{clip-path:url(#clip-path);}</style><clipPath id="clip-path" transform="translate(-19)"><rect class="cls-1" width="98" height="60"/></clipPath></defs><title>packaging</title><g id="Layer_2" data-name="Layer 2"><g id="Layer_6" data-name="Layer 6"><g class="cls-2"><path d="M74.42,19.35H59.83V4.57L56.45,0H41.72L38.36,4.57V15.31h-12l-3.14,4.21L19,22.73V37.45l4.21,3.14,3.19,4.1h7.91v7.93l4.22,3.13L41.73,60H56.44l3.15-4.2,4.1-3.19V40.83H74.42L79,37.45V22.72Zm-51.92,19-2.09-1.57V23.42l2.09-1.58ZM42.43,1.41H55.74l1.65,2.23H40.78ZM34.3,43.29H27.08l-1.91-2.47H34.3Zm4.05,10.58-2.64-2V38.59l2.64-2Zm0-19-4,3.06v1.53H24l-.07-.06V20.78l0,0h14.4ZM25.12,19.35l2-2.64H40.41l2,2.64ZM55.75,58.59H42.43l-1.58-2.1H57.32ZM58.43,55l-.07.08H39.79l0,0V40.82H58.43Zm0-15.6H39.76V20.75H58.43Zm0-20.06H44.17L41.11,15.3H39.76V5.05H58.43Zm3.87,32.56-2.46,1.92V36.72l2.46,1.87ZM74,39.42H63.7V37.89L59.84,35V20.75H74Zm3.64-2.68-2.23,1.65V21.77l2.23,1.65Z" transform="translate(-19)"/></g></g></g></svg>