<svg xmlns="http://www.w3.org/2000/svg" xmlns:xlink="http://www.w3.org/1999/xlink" viewBox="0 0 73.76 60"><defs><style>.cls-1{fill:none;}.cls-2{clip-path:url(#clip-path);}</style><clipPath id="clip-path" transform="translate(-13)"><rect class="cls-1" width="98" height="60"/></clipPath></defs><title>website-design</title><g id="Layer_2" data-name="Layer 2"><g id="Layer_4" data-name="Layer 4"><g class="cls-2"><path d="M86.53,47.71,78,39.2v-32A4.65,4.65,0,0,0,73.36,2.6H71.62a2,2,0,0,0-.68-1.07A10,10,0,0,0,68.52.14,1.89,1.89,0,0,0,66.16,1a1.45,1.45,0,0,1-1.24.72A1.44,1.44,0,0,1,63.68,1,1.9,1.9,0,0,0,61.31.14a9.67,9.67,0,0,0-2.41,1.4,1.8,1.8,0,0,0-.68,1.06H17.65A4.65,4.65,0,0,0,13,7.24V43.69a4.66,4.66,0,0,0,4.65,4.65H41.54v3.73H33.62a14,14,0,0,0-11.9,6.71A.81.81,0,0,0,22.41,60H68.6a.81.81,0,0,0,.69-1.22,14,14,0,0,0-11.9-6.71H49.47V48.34H73.36a4.57,4.57,0,0,0,2.54-.77L81.28,53a.81.81,0,0,0,.57.24.8.8,0,0,0,.57-.24l4.11-4.1A.81.81,0,0,0,86.53,47.71ZM59.81,3.19a.31.31,0,0,1,.08-.4,8.1,8.1,0,0,1,2-1.16.29.29,0,0,1,.38.13,3,3,0,0,0,5.26,0,.28.28,0,0,1,.37-.13,8.16,8.16,0,0,1,2,1.16.31.31,0,0,1,.07.4,3,3,0,0,0,2.63,4.55h0A.3.3,0,0,1,73,8h0a7.91,7.91,0,0,1,0,2.33.29.29,0,0,1-.3.26h0A3,3,0,0,0,70,15.16a.3.3,0,0,1-.07.39,8.51,8.51,0,0,1-2,1.17.31.31,0,0,1-.38-.13,3,3,0,0,0-5.26,0,.31.31,0,0,1-.38.14,8.13,8.13,0,0,1-2-1.17.29.29,0,0,1-.08-.39,3,3,0,0,0-2.62-4.56h0a.29.29,0,0,1-.3-.26,8.34,8.34,0,0,1,0-2.34.3.3,0,0,1,.3-.26h0a3,3,0,0,0,2.62-4.55Zm-42.16,1H58.52a1.45,1.45,0,0,1-.09,1.22,1.43,1.43,0,0,1-1.24.72h0a1.91,1.91,0,0,0-1.89,1.63,10.1,10.1,0,0,0,0,2.8,1.9,1.9,0,0,0,1.89,1.64h0a1.42,1.42,0,0,1,1.23,2.14,1.89,1.89,0,0,0,.48,2.46,9.73,9.73,0,0,0,2.42,1.4,1.9,1.9,0,0,0,2.36-.83,1.44,1.44,0,0,1,2.48,0,1.87,1.87,0,0,0,1.64,1,1.81,1.81,0,0,0,.72-.14,9.4,9.4,0,0,0,2.42-1.39,1.89,1.89,0,0,0,.47-2.46,1.46,1.46,0,0,1,0-1.43,1.44,1.44,0,0,1,1.24-.71h0a1.89,1.89,0,0,0,1.89-1.64,9.73,9.73,0,0,0,0-2.8,1.9,1.9,0,0,0-1.89-1.63h0A1.42,1.42,0,0,1,71.32,4.2h2.05a3,3,0,0,1,3,3V37.59l-11.1-11.1A.73.73,0,0,0,65,26.3l-6-1.87a.81.81,0,0,0-.81.2.79.79,0,0,0-.2.8l1.87,6a.83.83,0,0,0,.2.32l8.05,8.06H14.6V7.24A3,3,0,0,1,17.65,4.2Zm31,49.47H57.4a12.38,12.38,0,0,1,9.67,4.73H23.94a12.39,12.39,0,0,1,9.68-4.73h8.72a.8.8,0,0,0,.8-.8V48.34h4.73v4.53A.8.8,0,0,0,48.67,53.67Zm24.69-6.94H17.65a3,3,0,0,1-3-3v-2.3H69.72l5,5A3,3,0,0,1,73.36,46.73Zm8.49,4.52L61.34,30.74,60,26.42l4.32,1.35L84.83,48.28ZM23.55,36H50.79a3.47,3.47,0,0,0,3.46-3.47V13.44A3.47,3.47,0,0,0,50.79,10H23.55a3.47,3.47,0,0,0-3.46,3.47V32.56A3.47,3.47,0,0,0,23.55,36ZM21.69,13.44a1.86,1.86,0,0,1,1.86-1.86H50.79a1.86,1.86,0,0,1,1.86,1.86V32.56a1.86,1.86,0,0,1-1.86,1.86H23.55a1.86,1.86,0,0,1-1.86-1.86Zm2.92,3.7a.81.81,0,0,1,.81-.81H48.93a.81.81,0,0,1,0,1.61H25.41A.8.8,0,0,1,24.61,17.14ZM64.92,13a3.81,3.81,0,0,0,1.92-.51,3.88,3.88,0,0,0,1.79-2.33A3.85,3.85,0,1,0,64.92,13ZM63.8,7.24a2.2,2.2,0,0,1,1.11-.3A2.38,2.38,0,0,1,65.5,7a2.27,2.27,0,0,1,1.35,1,2.24,2.24,0,1,1-3-.81Z" transform="translate(-13)"/></g></g></g></svg>