<?xml version="1.0" encoding="UTF-8"?>
<svg xmlns="http://www.w3.org/2000/svg" version="1.1" xmlns:xlink="http://www.w3.org/1999/xlink" viewBox="0 0 196 120">
  <defs>
    <style>
      .cls-1 {
        clip-path: url(#clippath-6);
      }

      .cls-2 {
        clip-path: url(#clippath-7);
      }

      .cls-3 {
        clip-path: url(#clippath-4);
      }

      .cls-4 {
        clip-path: url(#clippath-9);
      }

      .cls-5 {
        clip-path: url(#clippath-10);
      }

      .cls-6 {
        clip-path: url(#clippath-11);
      }

      .cls-7 {
        fill: none;
      }

      .cls-8 {
        clip-path: url(#clippath-1);
      }

      .cls-9, .cls-10 {
        fill: #f15d22;
      }

      .cls-11 {
        clip-path: url(#clippath-5);
      }

      .cls-12 {
        clip-path: url(#clippath-8);
      }

      .cls-10 {
        fill-rule: evenodd;
      }

      .cls-13 {
        clip-path: url(#clippath-3);
      }

      .cls-14 {
        clip-path: url(#clippath-12);
      }

      .cls-15 {
        display: none;
      }

      .cls-16 {
        clip-path: url(#clippath-2);
      }

      .cls-17 {
        clip-path: url(#clippath);
      }
    </style>
    <clipPath id="clippath">
      <rect class="cls-7" width="196" height="120"/>
    </clipPath>
    <clipPath id="clippath-1">
      <rect class="cls-7" width="196" height="120"/>
    </clipPath>
    <clipPath id="clippath-2">
      <rect class="cls-7" width="196" height="120"/>
    </clipPath>
    <clipPath id="clippath-3">
      <rect class="cls-7" width="196" height="120"/>
    </clipPath>
    <clipPath id="clippath-4">
      <rect class="cls-7" width="196" height="120"/>
    </clipPath>
    <clipPath id="clippath-5">
      <rect class="cls-7" width="196" height="120"/>
    </clipPath>
    <clipPath id="clippath-6">
      <rect class="cls-7" width="196" height="120"/>
    </clipPath>
    <clipPath id="clippath-7">
      <rect class="cls-7" width="196" height="120"/>
    </clipPath>
    <clipPath id="clippath-8">
      <rect class="cls-7" width="196" height="120"/>
    </clipPath>
    <clipPath id="clippath-9">
      <rect class="cls-7" width="196" height="120"/>
    </clipPath>
    <clipPath id="clippath-10">
      <rect class="cls-7" width="196" height="120"/>
    </clipPath>
    <clipPath id="clippath-11">
      <rect class="cls-7" width="196" height="120"/>
    </clipPath>
    <clipPath id="clippath-12">
      <rect class="cls-7" width="196" height="120"/>
    </clipPath>
  </defs>
  <!-- Generator: Adobe Illustrator 28.6.0, SVG Export Plug-In . SVG Version: 1.2.0 Build 709)  -->
  <g>
    <g id="Layer_1">
      <g class="cls-15">
        <g class="cls-17">
          <path class="cls-9" d="M105.5,120c-2.3,0-4.1-1.9-4.1-4.1v-48.5c0-2.3,1.9-4.1,4.1-4.1h16.7c2.3,0,4.1,1.9,4.1,4.1v48.5c0,2.3-1.9,4.1-4.1,4.1h-16.7ZM105.5,66.7c-.4,0-.7.3-.7.7v48.5c0,.4.3.7.7.7h16.7c.4,0,.7-.3.7-.7v-48.5c0-.4-.3-.7-.7-.7h-16.7ZM137.1,120c-2.3,0-4.1-1.9-4.1-4.1V33.6c0-2.3,1.9-4.1,4.1-4.1h16.7c2.3,0,4.1,1.9,4.1,4.1v82.3c0,2.3-1.9,4.1-4.1,4.1h-16.7ZM137.1,32.8c-.4,0-.7.3-.7.7v82.3c0,.4.3.7.7.7h16.7c.4,0,.7-.3.7-.7V33.6c0-.4-.3-.7-.7-.7h-16.7ZM73.8,120c-2.3,0-4.1-1.9-4.1-4.1v-60.1c0-2.3,1.9-4.1,4.1-4.1h16.7c2.3,0,4.1,1.9,4.1,4.1v60.1c0,2.3-1.9,4.1-4.1,4.1h-16.7ZM73.8,55c-.4,0-.7.3-.7.7v60.1c0,.4.3.7.7.7h16.7c.4,0,.7-.3.7-.7v-60.1c0-.4-.3-.7-.7-.7h-16.7ZM42.2,120c-2.3,0-4.1-1.9-4.1-4.1v-30.3c0-2.3,1.9-4.1,4.1-4.1h16.7c2.3,0,4.1,1.9,4.1,4.1v30.3c0,2.3-1.9,4.1-4.1,4.1h-16.7ZM42.2,84.8c-.4,0-.7.3-.7.7v30.3c0,.4.3.7.7.7h16.7c.4,0,.7-.3.7-.7v-.5h0v-29.8c0-.4-.3-.7-.7-.7h-16.7ZM50.5,70.9c-5.1,0-9.3-4.2-9.3-9.3,0-5.1,4.2-9.3,9.3-9.3s3.6.6,5.2,1.6l18.8-19.2c-1.1-1.6-1.7-3.4-1.7-5.3,0-5.1,4.2-9.3,9.3-9.3s9.3,4.2,9.3,9.3,0,1-.1,1.6l14.5,5.3c1.7-2.8,4.7-4.5,8-4.5s3.7.6,5.3,1.6l18.8-18.7c-1.1-1.6-1.6-3.4-1.6-5.3,0-5.1,4.2-9.3,9.3-9.3s9.3,4.2,9.3,9.3-4.2,9.3-9.3,9.3-3.7-.6-5.3-1.6l-18.7,18.7c1.1,1.6,1.6,3.4,1.6,5.3,0,5.1-4.2,9.3-9.3,9.3s-9.3-4.2-9.3-9.3,0-1,.1-1.6l-14.5-5.3c-1.7,2.8-4.7,4.5-8,4.5s-3.6-.6-5.2-1.6l-18.9,19.2c1.1,1.6,1.7,3.4,1.7,5.3,0,5.1-4.2,9.3-9.3,9.3ZM50.5,55.7c-3.3,0-5.9,2.6-5.9,5.9s2.6,5.9,5.9,5.9,5.9-2.6,5.9-5.9-2.6-5.9-5.9-5.9ZM113.8,35.1c-3.2,0-5.9,2.6-5.9,5.9,0,3.2,2.6,5.9,5.9,5.9s5.9-2.6,5.9-5.9-2.6-5.9-5.9-5.9ZM82.2,23.4c-3.3,0-5.9,2.6-5.9,5.9s2.6,5.9,5.9,5.9,5.9-2.6,5.9-5.9-2.6-5.9-5.9-5.9ZM145.5,3.4c-3.2,0-5.9,2.6-5.9,5.9,0,3.2,2.6,5.9,5.9,5.9s5.9-2.6,5.9-5.9-2.6-5.9-5.9-5.9Z"/>
        </g>
      </g>
      <g class="cls-15">
        <g class="cls-8">
          <path class="cls-9" d="M98,120c-9.5,0-17.6-7.3-18.6-16.7h-19.4c-3.2,0-6.1-1.8-7.6-4.6-1.1-2-1.3-4.4-.6-6.5.7-2.2,2.2-4,4.2-5,9.4-7.7,8.7-23.9,8.1-36.8-.1-3.1-.3-6.1-.3-8.8,0-13.8,11.1-25.9,26.5-29.1v-5.8c0-3.7,3.5-6.7,7.8-6.7s7.8,3,7.8,6.7v5.8c15.4,3.1,26.5,15.3,26.5,29.1s-.1,5.7-.3,8.8c-.6,13-1.3,29.1,8.1,36.9,2.8,1.5,4.5,4.4,4.5,7.6,0,4.7-3.9,8.6-8.6,8.6h-19.4c-1,8.9-8.1,15.8-17,16.6-.5,0-1.1,0-1.6,0ZM83.5,103.3c1,7.2,7.2,12.5,14.5,12.5,7.3,0,13.4-5.4,14.5-12.5h-28.9ZM57.6,91c-1.3.8-2.1,2.2-2.1,3.8,0,2.4,2,4.4,4.4,4.4h76.3c1.6,0,3.1-1,3.8-2.4.5-1.1.6-2.3.2-3.4s-1.2-2-2.2-2.6c0,0-.2,0-.3-.2,0,0-.1,0-.2-.1-11.2-9-10.4-26.4-9.7-40.4.1-3.1.3-6,.3-8.6,0-14.2-13.5-25.7-30.2-25.7s-15.6,2.7-21.3,7.6c-5.7,4.9-8.8,11.3-8.8,18.1,0,2.6.1,5.5.3,8.6.6,12.1,1.3,27.1-6.1,36.7h22.9c1.1,0,2,.9,2,2,0,1.1-.9,2.1-2,2.1h-27.3ZM98,4.2c-1.9,0-3.7,1.2-3.7,2.5v5.1c1.2-.1,2.4-.2,3.7-.2s2.4,0,3.7.2v-5.1c0-1.3-1.7-2.5-3.7-2.5ZM74.8,72.8c-.2,0-.5,0-.7-.1-.5-.2-.9-.6-1.2-1.1-.2-.5-.3-1.1,0-1.6.6-1.7,1-3.5,1.1-5.3,0-1.1,1-1.9,2.1-1.9s.1,0,.2,0c1.1,0,2,1.1,1.9,2.2h0s0,0,0,0c-.2,2.2-.6,4.3-1.4,6.4-.3.8-1.1,1.4-2,1.4ZM76.1,61.2c-1.1,0-2-.9-2.1-2-.1-2.7-.4-5.4-.8-8-.6-4.9-1.2-9.5-.2-14,.2-1,1.1-1.6,2-1.6s.3,0,.4,0c.5.1,1,.4,1.3.9.3.5.4,1,.3,1.6-.8,3.8-.3,8,.3,12.5.3,2.7.7,5.5.8,8.4,0,1.1-.9,2.1-2,2.2h0Z"/>
        </g>
      </g>
      <g class="cls-15">
        <g class="cls-16">
          <g>
            <path class="cls-9" d="M40.5,64.7c-.6,0-1.2-.2-1.6-.6-.5-.4-.7-.9-.9-1.4v-.5c0-.7.2-1.4.8-2l33-33c2.4-2.5,5.7-3.8,9.1-3.8s3.7.4,5.4,1.2c1.3.6,2.6,1.5,3.9,2.8l13,13c1.4,1.4,3.3,2.2,5.3,2.2s3.9-.8,5.3-2.2L148.7,5.4h-27.4c-.8,0-1.5-.3-2-.9-.5-.6-.8-1.3-.7-2.1.1-1.4,1.5-2.4,3.1-2.4h25.1c6.2,0,11.2,5,11.2,11.2v25.1c0,1.5-1.1,2.9-2.4,3.1,0,0-.2,0-.3,0-.7,0-1.3-.2-1.8-.7-.6-.5-.9-1.3-.9-2V9.2l-34.8,34.8c-2.4,2.4-5.7,3.8-9.1,3.8s-3.7-.4-5.4-1.1c-1.3-.6-2.6-1.5-3.9-2.8l-13-13c-1.4-1.4-3.3-2.2-5.3-2.2s-3.9.8-5.3,2.2l-32.7,32.7c-.6.6-1.6,1-2.4,1Z"/>
            <path class="cls-9" d="M66.1,120c-10.8,0-19.7-8.8-19.7-19.7v-6.4c0-.8.3-1.5.9-2,.5-.5,1.1-.7,1.8-.7h.3c1.4.1,2.4,1.5,2.4,3.1v6c0,7.9,6.4,14.3,14.3,14.3h63.6c7.9,0,14.3-6.4,14.3-14.3v-29.3c0-1.5,1.1-2.9,2.4-3.1.1,0,.2,0,.3,0,.7,0,1.3.2,1.8.7.6.5.9,1.2.9,2v29.7c0,5.3-2,10.2-5.8,13.9-3.7,3.7-8.7,5.8-13.9,5.8h-63.6Z"/>
          </g>
        </g>
      </g>
      <g class="cls-15">
        <g class="cls-13">
          <path class="cls-10" d="M87.8,120c-.9,0-1.8-.6-2-1.6l-4.4-13.4c-5.1-1.9-9.9-4.6-14.1-8.2l-14,3c-.1,0-.3,0-.4,0-.8,0-1.5-.5-1.9-1.2l-10.1-17.5c-.4-.8-.3-1.7.3-2.4l9.5-10.6c-.9-5.4-.9-10.9,0-16.3l-9.5-10.6c-.6-.7-.7-1.8-.2-2.6l10.2-17.7h0c.4-.5,1-.8,1.6-.8s.3,0,.4,0l14,3c4.2-3.5,9-6.3,14.1-8.2l4.4-13.6c.3-.9,1.1-1.4,2-1.4h20.4c.9,0,1.8.6,2,1.6l4.4,13.4c5.1,1.9,9.9,4.6,14.1,8.2l14-3c.1,0,.3,0,.4,0,.8,0,1.5.5,1.9,1.2l10,17.3v.2c.6.8.5,1.7-.1,2.4l-9.6,10.6c.9,5.3.9,10.8,0,16.3l9.5,10.6c.6.7.7,1.8.2,2.6l-10.1,17.6c-.4.6-1,1-1.8,1s-.3,0-.4,0l-14-3c-4.2,3.5-9,6.3-14.1,8.2l-4.4,13.6c-.3.9-1.1,1.4-2,1.4h-20.4s0,0,0,0ZM106.7,115.8l4.3-13.4h0c.2-.5.7-.9,1.2-1,5.4-1.8,10.2-4.7,14.5-8.4.4-.3.9-.5,1.4-.5s.3,0,.4,0l13.5,2.9,8.7-15-9.4-10.4h0c-.3-.5-.5-1.1-.4-1.6,1.1-5.5,1.1-11.2,0-16.7-.1-.6,0-1.3.5-1.8l9.2-10.2-8.7-15-13.4,2.9c-.2,0-.3,0-.5,0-.5,0-1-.2-1.4-.5-4.3-3.7-9.1-6.5-14.5-8.4-.6-.2-1.1-.7-1.3-1.3l-4.3-13.1h-17.4l-4.2,13c-.2.6-.7,1.2-1.3,1.4-5.3,1.8-10.2,4.7-14.5,8.4-.4.3-.9.5-1.4.5s-.3,0-.4,0l-13.5-2.9-8.7,15,9.4,10.4h0c.3.5.5,1.1.4,1.6-1.1,5.5-1.1,11.2,0,16.7h0c.1.7,0,1.3-.5,1.8l-9.2,10.2,8.7,15,13.4-2.9c.2,0,.3,0,.5,0,.5,0,1,.2,1.4.5,4.3,3.7,9.1,6.5,14.5,8.4.6.2,1.1.7,1.3,1.3l4.3,13.1h17.4ZM98,89.6c-7.9,0-15.3-3.1-20.9-8.7s-8.7-13-8.7-20.9,3.1-15.3,8.7-20.9c5.6-5.6,13-8.7,20.9-8.7s15.3,3.1,20.9,8.7c5.6,5.6,8.7,13,8.7,20.9s-3.1,15.3-8.7,20.9c-5.6,5.6-13,8.7-20.9,8.7ZM78.3,76c4.9,6,12,9.4,19.7,9.4s14.9-3.4,19.7-9.4c-2.3-5-6.5-8.9-11.6-11-2.6-1-5.3-1.6-8.1-1.6s-5.5.5-8.1,1.6c-5.2,2.1-9.3,6-11.6,11ZM98,34.6c-6,0-11.8,2.1-16.4,6-4.6,3.9-7.7,9.3-8.7,15.2-1,5.6,0,11.4,2.7,16.4,3.2-5.5,8.5-9.7,14.5-11.6-3.5-3.1-4.9-8.1-3.4-12.6,1.6-4.8,6.1-8.1,11.2-8.1s9.6,3.3,11.2,8.1c1.5,4.5.1,9.5-3.4,12.6,6.1,1.9,11.3,6.1,14.5,11.6,2.7-5,3.7-10.8,2.7-16.4-1-5.9-4.1-11.3-8.7-15.2-4.6-3.9-10.4-6-16.4-6ZM98,44c-3.1,0-5.9,1.9-7.1,4.7-1.2,2.9-.5,6.2,1.7,8.4s3.4,2.2,5.4,2.2,2-.2,2.9-.6c2.9-1.2,4.7-4,4.7-7.1,0-2.1-.8-4-2.2-5.4-1.4-1.4-3.4-2.2-5.4-2.2Z"/>
        </g>
      </g>
      <g class="cls-15">
        <path class="cls-9" d="M43.5,79.1c-.1,0-.3,0-.4,0h-.2c-1.1,0-2.1-.7-2.4-1.8-5.4-18.1-1.9-37.9,9.3-53.1C61.1,9.1,79.1,0,98,0h.1c12.1,0,24.2,3.8,34.2,10.8l.3.2,1.5,1.1c.6.5,1.3,1,2.1,1.6l1.3,1.1v-7.5c0-1.4,1.1-2.5,2.5-2.5s2.5,1.1,2.5,2.5v13.3c0,.7-.3,1.3-.7,1.8-.5.5-1.1.7-1.8.7h-13.3c-1.4,0-2.5-1.1-2.5-2.5s1.1-2.5,2.5-2.5h7.1s-2.6-2.1-2.6-2.1c-9.4-7.2-21.1-11.1-33-11.1h-.2c-17.3,0-33.9,8.4-44.2,22.3-10.3,13.9-13.5,32.2-8.4,48.8.2.6.1,1.3-.2,1.9-.3.6-.8,1-1.4,1.2,0,0-.2,0-.3,0Z"/>
        <path class="cls-9" d="M97.8,120c-12.1,0-24.2-3.8-34.1-10.8l-.3-.2-1.5-1.1c-.6-.5-1.3-1-2.1-1.6l-1.3-1.1v7.5c0,1.4-1.1,2.5-2.5,2.5s-2.5-1.1-2.5-2.5v-13.1c0-1.4,1.1-2.5,2.5-2.5h13.3c1.4,0,2.5,1.1,2.5,2.5s-1.1,2.5-2.5,2.5h-7.5l3.1,2c9.4,7.1,21.1,11.1,32.9,11.1h.2c17.3,0,33.8-8.3,44.1-22.2,10.3-13.9,13.5-32.1,8.6-48.7-.2-.6-.1-1.3.2-1.9.3-.6.8-1,1.5-1.2.2,0,.5-.1.7-.1,1.1,0,2,.7,2.4,1.7,5.4,18.1,1.9,37.9-9.3,53.1-11.3,15.2-29.3,24.2-48.1,24.3h-.2Z"/>
      </g>
      <g class="cls-15">
        <g class="cls-3">
          <g>
            <path class="cls-9" d="M63.2,39.2c-.7,0-1.3,0-2,0-10.9,0-19.8,8.1-20.8,19-1.1,11.5,7.4,21.7,18.9,22.8.6,0,1.2,0,2,0,5.6,0,10.8-2.2,14.8-6.1,4-4,6.1-9.2,6.1-14.8,0-10.9-8.2-19.8-19-20.8ZM61.3,76.8c-.5,0-1.1,0-1.6,0-4.5-.4-8.5-2.6-11.4-6-2.9-3.5-4.2-7.8-3.8-12.3.8-8.7,8-15.2,16.7-15.2s1.1,0,1.6,0c9.2.9,16,9.1,15.2,18.3-.8,8.7-8,15.2-16.7,15.2Z"/>
            <path class="cls-9" d="M63.2,39.2c-.7,0-1.3,0-2,0-10.9,0-19.8,8.1-20.8,19-1.1,11.5,7.4,21.7,18.9,22.8.6,0,1.2,0,2,0,5.6,0,10.8-2.2,14.8-6.1,4-4,6.1-9.2,6.1-14.8,0-10.9-8.2-19.8-19-20.8ZM61.3,76.8c-.5,0-1.1,0-1.6,0-4.5-.4-8.5-2.6-11.4-6-2.9-3.5-4.2-7.8-3.8-12.3.8-8.7,8-15.2,16.7-15.2s1.1,0,1.6,0c9.2.9,16,9.1,15.2,18.3-.8,8.7-8,15.2-16.7,15.2Z"/>
            <path class="cls-9" d="M63.2,39.2c-.7,0-1.3,0-2,0-10.9,0-19.8,8.1-20.8,19-1.1,11.5,7.4,21.7,18.9,22.8.6,0,1.2,0,2,0,5.6,0,10.8-2.2,14.8-6.1,4-4,6.1-9.2,6.1-14.8,0-10.9-8.2-19.8-19-20.8ZM61.3,76.8c-.5,0-1.1,0-1.6,0-4.5-.4-8.5-2.6-11.4-6-2.9-3.5-4.2-7.8-3.8-12.3.8-8.7,8-15.2,16.7-15.2s1.1,0,1.6,0c9.2.9,16,9.1,15.2,18.3-.8,8.7-8,15.2-16.7,15.2Z"/>
            <path class="cls-9" d="M63.2,39.2c-.7,0-1.3,0-2,0-10.9,0-19.8,8.1-20.8,19-1.1,11.5,7.4,21.7,18.9,22.8.6,0,1.2,0,2,0,5.6,0,10.8-2.2,14.8-6.1,4-4,6.1-9.2,6.1-14.8,0-10.9-8.2-19.8-19-20.8ZM61.3,76.8c-.5,0-1.1,0-1.6,0-4.5-.4-8.5-2.6-11.4-6-2.9-3.5-4.2-7.8-3.8-12.3.8-8.7,8-15.2,16.7-15.2s1.1,0,1.6,0c9.2.9,16,9.1,15.2,18.3-.8,8.7-8,15.2-16.7,15.2Z"/>
            <path class="cls-9" d="M63.2,39.2c-.7,0-1.3,0-2,0-10.9,0-19.8,8.1-20.8,19-1.1,11.5,7.4,21.7,18.9,22.8.6,0,1.2,0,2,0,5.6,0,10.8-2.2,14.8-6.1,4-4,6.1-9.2,6.1-14.8,0-10.9-8.2-19.8-19-20.8ZM61.3,76.8c-.5,0-1.1,0-1.6,0-4.5-.4-8.5-2.6-11.4-6-2.9-3.5-4.2-7.8-3.8-12.3.8-8.7,8-15.2,16.7-15.2s1.1,0,1.6,0c9.2.9,16,9.1,15.2,18.3-.8,8.7-8,15.2-16.7,15.2Z"/>
            <path class="cls-9" d="M63.2,39.2c-.7,0-1.3,0-2,0-10.9,0-19.8,8.1-20.8,19-1.1,11.5,7.4,21.7,18.9,22.8.6,0,1.2,0,2,0,5.6,0,10.8-2.2,14.8-6.1,4-4,6.1-9.2,6.1-14.8,0-10.9-8.2-19.8-19-20.8ZM61.3,76.8c-.5,0-1.1,0-1.6,0-4.5-.4-8.5-2.6-11.4-6-2.9-3.5-4.2-7.8-3.8-12.3.8-8.7,8-15.2,16.7-15.2s1.1,0,1.6,0c9.2.9,16,9.1,15.2,18.3-.8,8.7-8,15.2-16.7,15.2Z"/>
            <path class="cls-9" d="M63.2,39.2c-.7,0-1.3,0-2,0-10.9,0-19.8,8.1-20.8,19-1.1,11.5,7.4,21.7,18.9,22.8.6,0,1.2,0,2,0,5.6,0,10.8-2.2,14.8-6.1,4-4,6.1-9.2,6.1-14.8,0-10.9-8.2-19.8-19-20.8ZM61.3,76.8c-.5,0-1.1,0-1.6,0-4.5-.4-8.5-2.6-11.4-6-2.9-3.5-4.2-7.8-3.8-12.3.8-8.7,8-15.2,16.7-15.2s1.1,0,1.6,0c9.2.9,16,9.1,15.2,18.3-.8,8.7-8,15.2-16.7,15.2Z"/>
            <path class="cls-9" d="M63.2,39.2c-.7,0-1.3,0-2,0-10.9,0-19.8,8.1-20.8,19-1.1,11.5,7.4,21.7,18.9,22.8.6,0,1.2,0,2,0,5.6,0,10.8-2.2,14.8-6.1,4-4,6.1-9.2,6.1-14.8,0-10.9-8.2-19.8-19-20.8ZM61.3,76.8c-.5,0-1.1,0-1.6,0-4.5-.4-8.5-2.6-11.4-6-2.9-3.5-4.2-7.8-3.8-12.3.8-8.7,8-15.2,16.7-15.2s1.1,0,1.6,0c9.2.9,16,9.1,15.2,18.3-.8,8.7-8,15.2-16.7,15.2Z"/>
            <path class="cls-9" d="M181.9,101.3c-1.6-6.9-7.7-11.7-14.8-11.7s-2.3.1-3.5.4c-5.7,1.3-10,5.7-11.3,11.3l-.3,1.4h-20.3c-1.5,0-2.7-1.2-2.7-2.7v-38h22.9l.3,1.4c.8,3.4,2.7,6.3,5.3,8.5,2.7,2.1,6,3.3,9.5,3.3s2.3-.1,3.5-.4c4-.9,7.3-3.3,9.5-6.8,2.1-3.5,2.8-7.6,1.9-11.5-1.6-6.9-7.7-11.7-14.8-11.7s-2.4.1-3.5.4c-5.7,1.3-10,5.7-11.3,11.3l-.3,1.4h-22.9V20c0-1.5,1.2-2.6,2.7-2.7h20.2l.3,1.4c1.6,6.9,7.7,11.7,14.8,11.7s2.4-.1,3.5-.4c8.2-1.9,13.3-10.1,11.3-18.3-1.6-6.9-7.7-11.7-14.8-11.7s-2.3.1-3.5.4c-5.7,1.3-10,5.7-11.3,11.3l-.3,1.4h-20.2c-3.8,0-6.8,3.1-6.8,6.8v38h-16.1v-5.5c0-1-.7-1.8-1.7-2l-10.1-2.2-.3-1c-.5-1.3-1-2.6-1.6-3.9l-.5-.9,5.5-8.8c.5-.8.4-1.9-.3-2.6l-10.3-10.1c-.4-.4-.9-.6-1.5-.6s-.8.1-1.1.3l-8.7,5.6-.9-.4c-1.2-.6-2.5-1.1-3.9-1.6l-1-.3-2.3-10.1c-.2-1-1-1.6-2-1.6h-14.4c-1,.1-1.8.8-2,1.7l-2.2,10.1-1,.3c-1.3.5-2.6,1-3.9,1.6l-.9.5-8.8-5.5c-.3-.2-.7-.3-1.1-.3s-1.1.2-1.5.6l-10.1,10.2c-.7.7-.8,1.8-.3,2.6l5.6,8.7-.4.9c-.6,1.4-1.2,2.7-1.6,3.9l-.3,1-10.1,2.3c-.9.2-1.6,1-1.6,2v14.4c.1,1,.8,1.8,1.7,2l10.1,2.2.3,1c.5,1.3,1,2.6,1.6,3.9l.5.9-5.5,8.8c-.5.8-.4,1.9.3,2.6l10.3,10.1c.4.4.9.6,1.4.6s.8-.1,1.1-.3l8.7-5.6.9.4c1.3.6,2.6,1.1,3.9,1.6l1,.3,2.3,10.1c.2,1,1,1.6,2,1.6h14.4c.9-.1,1.8-.8,2-1.7l2.2-10.1,1-.3c1.3-.5,2.6-1,3.8-1.6l.9-.5,8.8,5.5c.3.2.7.3,1.1.3s1.1-.2,1.5-.6l10.1-10.3c.7-.7.8-1.8.3-2.6l-5.6-8.7.4-.9c.6-1.3,1.1-2.6,1.6-3.9l.3-1,10.1-2.3c.9-.2,1.6-1,1.6-2v-4.8s16,0,16,0v38c0,3.8,3,6.8,6.8,6.8h20.2l.3,1.4c1.6,6.9,7.7,11.8,14.8,11.8s2.3-.1,3.5-.4c4-.9,7.3-3.3,9.5-6.8,2.1-3.4,2.8-7.5,1.9-11.5ZM159.2,52.2c2.1-2.1,4.9-3.3,7.8-3.3,6.1,0,11.1,5,11.1,11.1s-5,11.1-11.1,11.1-11.1-5-11.1-11.1,1.1-5.7,3.2-7.8ZM159.2,7.4c2.1-2.1,4.9-3.2,7.8-3.2,6.1,0,11.1,5,11.1,11.1s-5,11.1-11.1,11.1-11.1-5-11.1-11.1,1.1-5.7,3.2-7.9ZM95.1,67.5c-.7.2-1.3.7-1.5,1.5-.7,2.5-1.7,4.9-2.9,7.2-.4.7-.3,1.5,0,2.1l5.4,8.3-7.8,7.9-8.4-5.3c-.3-.2-.7-.3-1.1-.3s-.7,0-1,.3c-2.2,1.3-4.6,2.3-7.1,3-.7.2-1.3.8-1.4,1.6l-2.1,9.7h-11.1c0,0-2.2-9.6-2.2-9.6-.2-.7-.7-1.3-1.5-1.5-2.5-.7-4.9-1.7-7.2-2.9-.3-.2-.6-.3-1-.3s-.8.1-1.1.3l-8.3,5.4-7.9-7.8,5.3-8.4c.4-.6.4-1.4,0-2.1-1.3-2.2-2.3-4.6-3-7.1-.2-.7-.8-1.3-1.6-1.4l-9.7-2.1v-11.1c0,0,9.6-2.2,9.6-2.2.7-.2,1.3-.7,1.5-1.5.7-2.5,1.7-4.9,2.9-7.2.4-.7.3-1.5,0-2.1l-5.4-8.3,7.8-7.9,8.4,5.3c.3.2.7.3,1.1.3s.7,0,1-.3c2.2-1.3,4.6-2.3,7.1-3,.7-.2,1.3-.8,1.4-1.6l2.1-9.7h11.1c0,0,2.2,9.6,2.2,9.6.2.7.7,1.3,1.5,1.5,2.5.7,4.9,1.7,7.2,2.9.3.2.6.3,1,.3s.8-.1,1.1-.3l8.3-5.4,7.9,7.8-5.3,8.4c-.4.6-.4,1.5,0,2.1,1.3,2.3,2.3,4.7,3,7.1.2.7.8,1.3,1.5,1.4l9.7,2.1v11.1c0,0-9.6,2.2-9.6,2.2ZM167.1,115.9c-6.1,0-11.1-5-11.1-11.1s1.1-5.7,3.2-7.8c2.1-2.1,4.9-3.3,7.8-3.3,6.1,0,11.1,5,11.1,11.1s-5,11.1-11.1,11.1Z"/>
            <path class="cls-9" d="M181.9,101.3c-1.6-6.9-7.7-11.7-14.8-11.7s-2.3.1-3.5.4c-5.7,1.3-10,5.7-11.3,11.3l-.3,1.4h-20.3c-1.5,0-2.7-1.2-2.7-2.7v-38h22.9l.3,1.4c.8,3.4,2.7,6.3,5.3,8.5,2.7,2.1,6,3.3,9.5,3.3s2.3-.1,3.5-.4c4-.9,7.3-3.3,9.5-6.8,2.1-3.5,2.8-7.6,1.9-11.5-1.6-6.9-7.7-11.7-14.8-11.7s-2.4.1-3.5.4c-5.7,1.3-10,5.7-11.3,11.3l-.3,1.4h-22.9V20c0-1.5,1.2-2.6,2.7-2.7h20.2l.3,1.4c1.6,6.9,7.7,11.7,14.8,11.7s2.4-.1,3.5-.4c8.2-1.9,13.3-10.1,11.3-18.3-1.6-6.9-7.7-11.7-14.8-11.7s-2.3.1-3.5.4c-5.7,1.3-10,5.7-11.3,11.3l-.3,1.4h-20.2c-3.8,0-6.8,3.1-6.8,6.8v38h-16.1v-5.5c0-1-.7-1.8-1.7-2l-10.1-2.2-.3-1c-.5-1.3-1-2.6-1.6-3.9l-.5-.9,5.5-8.8c.5-.8.4-1.9-.3-2.6l-10.3-10.1c-.4-.4-.9-.6-1.5-.6s-.8.1-1.1.3l-8.7,5.6-.9-.4c-1.2-.6-2.5-1.1-3.9-1.6l-1-.3-2.3-10.1c-.2-1-1-1.6-2-1.6h-14.4c-1,.1-1.8.8-2,1.7l-2.2,10.1-1,.3c-1.3.5-2.6,1-3.9,1.6l-.9.5-8.8-5.5c-.3-.2-.7-.3-1.1-.3s-1.1.2-1.5.6l-10.1,10.2c-.7.7-.8,1.8-.3,2.6l5.6,8.7-.4.9c-.6,1.4-1.2,2.7-1.6,3.9l-.3,1-10.1,2.3c-.9.2-1.6,1-1.6,2v14.4c.1,1,.8,1.8,1.7,2l10.1,2.2.3,1c.5,1.3,1,2.6,1.6,3.9l.5.9-5.5,8.8c-.5.8-.4,1.9.3,2.6l10.3,10.1c.4.4.9.6,1.4.6s.8-.1,1.1-.3l8.7-5.6.9.4c1.3.6,2.6,1.1,3.9,1.6l1,.3,2.3,10.1c.2,1,1,1.6,2,1.6h14.4c.9-.1,1.8-.8,2-1.7l2.2-10.1,1-.3c1.3-.5,2.6-1,3.8-1.6l.9-.5,8.8,5.5c.3.2.7.3,1.1.3s1.1-.2,1.5-.6l10.1-10.3c.7-.7.8-1.8.3-2.6l-5.6-8.7.4-.9c.6-1.3,1.1-2.6,1.6-3.9l.3-1,10.1-2.3c.9-.2,1.6-1,1.6-2v-4.8s16,0,16,0v38c0,3.8,3,6.8,6.8,6.8h20.2l.3,1.4c1.6,6.9,7.7,11.8,14.8,11.8s2.3-.1,3.5-.4c4-.9,7.3-3.3,9.5-6.8,2.1-3.4,2.8-7.5,1.9-11.5ZM159.2,52.2c2.1-2.1,4.9-3.3,7.8-3.3,6.1,0,11.1,5,11.1,11.1s-5,11.1-11.1,11.1-11.1-5-11.1-11.1,1.1-5.7,3.2-7.8ZM159.2,7.4c2.1-2.1,4.9-3.2,7.8-3.2,6.1,0,11.1,5,11.1,11.1s-5,11.1-11.1,11.1-11.1-5-11.1-11.1,1.1-5.7,3.2-7.9ZM95.1,67.5c-.7.2-1.3.7-1.5,1.5-.7,2.5-1.7,4.9-2.9,7.2-.4.7-.3,1.5,0,2.1l5.4,8.3-7.8,7.9-8.4-5.3c-.3-.2-.7-.3-1.1-.3s-.7,0-1,.3c-2.2,1.3-4.6,2.3-7.1,3-.7.2-1.3.8-1.4,1.6l-2.1,9.7h-11.1c0,0-2.2-9.6-2.2-9.6-.2-.7-.7-1.3-1.5-1.5-2.5-.7-4.9-1.7-7.2-2.9-.3-.2-.6-.3-1-.3s-.8.1-1.1.3l-8.3,5.4-7.9-7.8,5.3-8.4c.4-.6.4-1.4,0-2.1-1.3-2.2-2.3-4.6-3-7.1-.2-.7-.8-1.3-1.6-1.4l-9.7-2.1v-11.1c0,0,9.6-2.2,9.6-2.2.7-.2,1.3-.7,1.5-1.5.7-2.5,1.7-4.9,2.9-7.2.4-.7.3-1.5,0-2.1l-5.4-8.3,7.8-7.9,8.4,5.3c.3.2.7.3,1.1.3s.7,0,1-.3c2.2-1.3,4.6-2.3,7.1-3,.7-.2,1.3-.8,1.4-1.6l2.1-9.7h11.1c0,0,2.2,9.6,2.2,9.6.2.7.7,1.3,1.5,1.5,2.5.7,4.9,1.7,7.2,2.9.3.2.6.3,1,.3s.8-.1,1.1-.3l8.3-5.4,7.9,7.8-5.3,8.4c-.4.6-.4,1.5,0,2.1,1.3,2.3,2.3,4.7,3,7.1.2.7.8,1.3,1.5,1.4l9.7,2.1v11.1c0,0-9.6,2.2-9.6,2.2ZM167.1,115.9c-6.1,0-11.1-5-11.1-11.1s1.1-5.7,3.2-7.8c2.1-2.1,4.9-3.3,7.8-3.3,6.1,0,11.1,5,11.1,11.1s-5,11.1-11.1,11.1Z"/>
            <path class="cls-9" d="M181.9,101.3c-1.6-6.9-7.7-11.7-14.8-11.7s-2.3.1-3.5.4c-5.7,1.3-10,5.7-11.3,11.3l-.3,1.4h-20.3c-1.5,0-2.7-1.2-2.7-2.7v-38h22.9l.3,1.4c.8,3.4,2.7,6.3,5.3,8.5,2.7,2.1,6,3.3,9.5,3.3s2.3-.1,3.5-.4c4-.9,7.3-3.3,9.5-6.8,2.1-3.5,2.8-7.6,1.9-11.5-1.6-6.9-7.7-11.7-14.8-11.7s-2.4.1-3.5.4c-5.7,1.3-10,5.7-11.3,11.3l-.3,1.4h-22.9V20c0-1.5,1.2-2.6,2.7-2.7h20.2l.3,1.4c1.6,6.9,7.7,11.7,14.8,11.7s2.4-.1,3.5-.4c8.2-1.9,13.3-10.1,11.3-18.3-1.6-6.9-7.7-11.7-14.8-11.7s-2.3.1-3.5.4c-5.7,1.3-10,5.7-11.3,11.3l-.3,1.4h-20.2c-3.8,0-6.8,3.1-6.8,6.8v38h-16.1v-5.5c0-1-.7-1.8-1.7-2l-10.1-2.2-.3-1c-.5-1.3-1-2.6-1.6-3.9l-.5-.9,5.5-8.8c.5-.8.4-1.9-.3-2.6l-10.3-10.1c-.4-.4-.9-.6-1.5-.6s-.8.1-1.1.3l-8.7,5.6-.9-.4c-1.2-.6-2.5-1.1-3.9-1.6l-1-.3-2.3-10.1c-.2-1-1-1.6-2-1.6h-14.4c-1,.1-1.8.8-2,1.7l-2.2,10.1-1,.3c-1.3.5-2.6,1-3.9,1.6l-.9.5-8.8-5.5c-.3-.2-.7-.3-1.1-.3s-1.1.2-1.5.6l-10.1,10.2c-.7.7-.8,1.8-.3,2.6l5.6,8.7-.4.9c-.6,1.4-1.2,2.7-1.6,3.9l-.3,1-10.1,2.3c-.9.2-1.6,1-1.6,2v14.4c.1,1,.8,1.8,1.7,2l10.1,2.2.3,1c.5,1.3,1,2.6,1.6,3.9l.5.9-5.5,8.8c-.5.8-.4,1.9.3,2.6l10.3,10.1c.4.4.9.6,1.4.6s.8-.1,1.1-.3l8.7-5.6.9.4c1.3.6,2.6,1.1,3.9,1.6l1,.3,2.3,10.1c.2,1,1,1.6,2,1.6h14.4c.9-.1,1.8-.8,2-1.7l2.2-10.1,1-.3c1.3-.5,2.6-1,3.8-1.6l.9-.5,8.8,5.5c.3.2.7.3,1.1.3s1.1-.2,1.5-.6l10.1-10.3c.7-.7.8-1.8.3-2.6l-5.6-8.7.4-.9c.6-1.3,1.1-2.6,1.6-3.9l.3-1,10.1-2.3c.9-.2,1.6-1,1.6-2v-4.8s16,0,16,0v38c0,3.8,3,6.8,6.8,6.8h20.2l.3,1.4c1.6,6.9,7.7,11.8,14.8,11.8s2.3-.1,3.5-.4c4-.9,7.3-3.3,9.5-6.8,2.1-3.4,2.8-7.5,1.9-11.5ZM159.2,52.2c2.1-2.1,4.9-3.3,7.8-3.3,6.1,0,11.1,5,11.1,11.1s-5,11.1-11.1,11.1-11.1-5-11.1-11.1,1.1-5.7,3.2-7.8ZM159.2,7.4c2.1-2.1,4.9-3.2,7.8-3.2,6.1,0,11.1,5,11.1,11.1s-5,11.1-11.1,11.1-11.1-5-11.1-11.1,1.1-5.7,3.2-7.9ZM95.1,67.5c-.7.2-1.3.7-1.5,1.5-.7,2.5-1.7,4.9-2.9,7.2-.4.7-.3,1.5,0,2.1l5.4,8.3-7.8,7.9-8.4-5.3c-.3-.2-.7-.3-1.1-.3s-.7,0-1,.3c-2.2,1.3-4.6,2.3-7.1,3-.7.2-1.3.8-1.4,1.6l-2.1,9.7h-11.1c0,0-2.2-9.6-2.2-9.6-.2-.7-.7-1.3-1.5-1.5-2.5-.7-4.9-1.7-7.2-2.9-.3-.2-.6-.3-1-.3s-.8.1-1.1.3l-8.3,5.4-7.9-7.8,5.3-8.4c.4-.6.4-1.4,0-2.1-1.3-2.2-2.3-4.6-3-7.1-.2-.7-.8-1.3-1.6-1.4l-9.7-2.1v-11.1c0,0,9.6-2.2,9.6-2.2.7-.2,1.3-.7,1.5-1.5.7-2.5,1.7-4.9,2.9-7.2.4-.7.3-1.5,0-2.1l-5.4-8.3,7.8-7.9,8.4,5.3c.3.2.7.3,1.1.3s.7,0,1-.3c2.2-1.3,4.6-2.3,7.1-3,.7-.2,1.3-.8,1.4-1.6l2.1-9.7h11.1c0,0,2.2,9.6,2.2,9.6.2.7.7,1.3,1.5,1.5,2.5.7,4.9,1.7,7.2,2.9.3.2.6.3,1,.3s.8-.1,1.1-.3l8.3-5.4,7.9,7.8-5.3,8.4c-.4.6-.4,1.5,0,2.1,1.3,2.3,2.3,4.7,3,7.1.2.7.8,1.3,1.5,1.4l9.7,2.1v11.1c0,0-9.6,2.2-9.6,2.2ZM167.1,115.9c-6.1,0-11.1-5-11.1-11.1s1.1-5.7,3.2-7.8c2.1-2.1,4.9-3.3,7.8-3.3,6.1,0,11.1,5,11.1,11.1s-5,11.1-11.1,11.1Z"/>
            <path class="cls-9" d="M181.9,101.3c-1.6-6.9-7.7-11.7-14.8-11.7s-2.3.1-3.5.4c-5.7,1.3-10,5.7-11.3,11.3l-.3,1.4h-20.3c-1.5,0-2.7-1.2-2.7-2.7v-38h22.9l.3,1.4c.8,3.4,2.7,6.3,5.3,8.5,2.7,2.1,6,3.3,9.5,3.3s2.3-.1,3.5-.4c4-.9,7.3-3.3,9.5-6.8,2.1-3.5,2.8-7.6,1.9-11.5-1.6-6.9-7.7-11.7-14.8-11.7s-2.4.1-3.5.4c-5.7,1.3-10,5.7-11.3,11.3l-.3,1.4h-22.9V20c0-1.5,1.2-2.6,2.7-2.7h20.2l.3,1.4c1.6,6.9,7.7,11.7,14.8,11.7s2.4-.1,3.5-.4c8.2-1.9,13.3-10.1,11.3-18.3-1.6-6.9-7.7-11.7-14.8-11.7s-2.3.1-3.5.4c-5.7,1.3-10,5.7-11.3,11.3l-.3,1.4h-20.2c-3.8,0-6.8,3.1-6.8,6.8v38h-16.1v-5.5c0-1-.7-1.8-1.7-2l-10.1-2.2-.3-1c-.5-1.3-1-2.6-1.6-3.9l-.5-.9,5.5-8.8c.5-.8.4-1.9-.3-2.6l-10.3-10.1c-.4-.4-.9-.6-1.5-.6s-.8.1-1.1.3l-8.7,5.6-.9-.4c-1.2-.6-2.5-1.1-3.9-1.6l-1-.3-2.3-10.1c-.2-1-1-1.6-2-1.6h-14.4c-1,.1-1.8.8-2,1.7l-2.2,10.1-1,.3c-1.3.5-2.6,1-3.9,1.6l-.9.5-8.8-5.5c-.3-.2-.7-.3-1.1-.3s-1.1.2-1.5.6l-10.1,10.2c-.7.7-.8,1.8-.3,2.6l5.6,8.7-.4.9c-.6,1.4-1.2,2.7-1.6,3.9l-.3,1-10.1,2.3c-.9.2-1.6,1-1.6,2v14.4c.1,1,.8,1.8,1.7,2l10.1,2.2.3,1c.5,1.3,1,2.6,1.6,3.9l.5.9-5.5,8.8c-.5.8-.4,1.9.3,2.6l10.3,10.1c.4.4.9.6,1.4.6s.8-.1,1.1-.3l8.7-5.6.9.4c1.3.6,2.6,1.1,3.9,1.6l1,.3,2.3,10.1c.2,1,1,1.6,2,1.6h14.4c.9-.1,1.8-.8,2-1.7l2.2-10.1,1-.3c1.3-.5,2.6-1,3.8-1.6l.9-.5,8.8,5.5c.3.2.7.3,1.1.3s1.1-.2,1.5-.6l10.1-10.3c.7-.7.8-1.8.3-2.6l-5.6-8.7.4-.9c.6-1.3,1.1-2.6,1.6-3.9l.3-1,10.1-2.3c.9-.2,1.6-1,1.6-2v-4.8s16,0,16,0v38c0,3.8,3,6.8,6.8,6.8h20.2l.3,1.4c1.6,6.9,7.7,11.8,14.8,11.8s2.3-.1,3.5-.4c4-.9,7.3-3.3,9.5-6.8,2.1-3.4,2.8-7.5,1.9-11.5ZM159.2,52.2c2.1-2.1,4.9-3.3,7.8-3.3,6.1,0,11.1,5,11.1,11.1s-5,11.1-11.1,11.1-11.1-5-11.1-11.1,1.1-5.7,3.2-7.8ZM159.2,7.4c2.1-2.1,4.9-3.2,7.8-3.2,6.1,0,11.1,5,11.1,11.1s-5,11.1-11.1,11.1-11.1-5-11.1-11.1,1.1-5.7,3.2-7.9ZM95.1,67.5c-.7.2-1.3.7-1.5,1.5-.7,2.5-1.7,4.9-2.9,7.2-.4.7-.3,1.5,0,2.1l5.4,8.3-7.8,7.9-8.4-5.3c-.3-.2-.7-.3-1.1-.3s-.7,0-1,.3c-2.2,1.3-4.6,2.3-7.1,3-.7.2-1.3.8-1.4,1.6l-2.1,9.7h-11.1c0,0-2.2-9.6-2.2-9.6-.2-.7-.7-1.3-1.5-1.5-2.5-.7-4.9-1.7-7.2-2.9-.3-.2-.6-.3-1-.3s-.8.1-1.1.3l-8.3,5.4-7.9-7.8,5.3-8.4c.4-.6.4-1.4,0-2.1-1.3-2.2-2.3-4.6-3-7.1-.2-.7-.8-1.3-1.6-1.4l-9.7-2.1v-11.1c0,0,9.6-2.2,9.6-2.2.7-.2,1.3-.7,1.5-1.5.7-2.5,1.7-4.9,2.9-7.2.4-.7.3-1.5,0-2.1l-5.4-8.3,7.8-7.9,8.4,5.3c.3.2.7.3,1.1.3s.7,0,1-.3c2.2-1.3,4.6-2.3,7.1-3,.7-.2,1.3-.8,1.4-1.6l2.1-9.7h11.1c0,0,2.2,9.6,2.2,9.6.2.7.7,1.3,1.5,1.5,2.5.7,4.9,1.7,7.2,2.9.3.2.6.3,1,.3s.8-.1,1.1-.3l8.3-5.4,7.9,7.8-5.3,8.4c-.4.6-.4,1.5,0,2.1,1.3,2.3,2.3,4.7,3,7.1.2.7.8,1.3,1.5,1.4l9.7,2.1v11.1c0,0-9.6,2.2-9.6,2.2ZM167.1,115.9c-6.1,0-11.1-5-11.1-11.1s1.1-5.7,3.2-7.8c2.1-2.1,4.9-3.3,7.8-3.3,6.1,0,11.1,5,11.1,11.1s-5,11.1-11.1,11.1Z"/>
            <path class="cls-9" d="M63.2,39.2c-.7,0-1.3,0-2,0-10.9,0-19.8,8.1-20.8,19-1.1,11.5,7.4,21.7,18.9,22.8.6,0,1.2,0,2,0,5.6,0,10.8-2.2,14.8-6.1,4-4,6.1-9.2,6.1-14.8,0-10.9-8.2-19.8-19-20.8ZM61.3,76.8c-.5,0-1.1,0-1.6,0-4.5-.4-8.5-2.6-11.4-6-2.9-3.5-4.2-7.8-3.8-12.3.8-8.7,8-15.2,16.7-15.2s1.1,0,1.6,0c9.2.9,16,9.1,15.2,18.3-.8,8.7-8,15.2-16.7,15.2Z"/>
            <path class="cls-9" d="M63.2,39.2c-.7,0-1.3,0-2,0-10.9,0-19.8,8.1-20.8,19-1.1,11.5,7.4,21.7,18.9,22.8.6,0,1.2,0,2,0,5.6,0,10.8-2.2,14.8-6.1,4-4,6.1-9.2,6.1-14.8,0-10.9-8.2-19.8-19-20.8ZM61.3,76.8c-.5,0-1.1,0-1.6,0-4.5-.4-8.5-2.6-11.4-6-2.9-3.5-4.2-7.8-3.8-12.3.8-8.7,8-15.2,16.7-15.2s1.1,0,1.6,0c9.2.9,16,9.1,15.2,18.3-.8,8.7-8,15.2-16.7,15.2Z"/>
            <path class="cls-9" d="M63.2,39.2c-.7,0-1.3,0-2,0-10.9,0-19.8,8.1-20.8,19-1.1,11.5,7.4,21.7,18.9,22.8.6,0,1.2,0,2,0,5.6,0,10.8-2.2,14.8-6.1,4-4,6.1-9.2,6.1-14.8,0-10.9-8.2-19.8-19-20.8ZM61.3,76.8c-.5,0-1.1,0-1.6,0-4.5-.4-8.5-2.6-11.4-6-2.9-3.5-4.2-7.8-3.8-12.3.8-8.7,8-15.2,16.7-15.2s1.1,0,1.6,0c9.2.9,16,9.1,15.2,18.3-.8,8.7-8,15.2-16.7,15.2Z"/>
            <path class="cls-9" d="M63.2,39.2c-.7,0-1.3,0-2,0-10.9,0-19.8,8.1-20.8,19-1.1,11.5,7.4,21.7,18.9,22.8.6,0,1.2,0,2,0,5.6,0,10.8-2.2,14.8-6.1,4-4,6.1-9.2,6.1-14.8,0-10.9-8.2-19.8-19-20.8ZM61.3,76.8c-.5,0-1.1,0-1.6,0-4.5-.4-8.5-2.6-11.4-6-2.9-3.5-4.2-7.8-3.8-12.3.8-8.7,8-15.2,16.7-15.2s1.1,0,1.6,0c9.2.9,16,9.1,15.2,18.3-.8,8.7-8,15.2-16.7,15.2Z"/>
          </g>
        </g>
      </g>
      <g class="cls-15">
        <g class="cls-11">
          <path class="cls-9" d="M42.1,120c-4.1,0-7.4-3.3-7.4-7.4V7.4c0-4.1,3.3-7.4,7.4-7.4h77.5c4.1,0,7.4,3.3,7.4,7.4v27.6c0,.9-.6,1.8-1.5,1.9s-2.2-.7-2.2-1.8V9.3c0-3.1-2.5-5.5-5.5-5.5H43.9c-3.1,0-5.5,2.5-5.5,5.5v101.5c0,3.1,2.5,5.5,5.5,5.5h61.5c1.5,0,2.9-.6,3.9-1.6l12.3-12.3c1-1,1.6-2.4,1.6-3.9v-19c0-.9.6-1.8,1.5-1.9s2.2.7,2.2,1.8v19.9c0,2-.8,3.8-2.2,5.2l-13.4,13.4c-1.4,1.4-3.3,2.2-5.2,2.2H42.1ZM53.2,86.8c-1.1,0-2-1-1.8-2.2s1-1.5,1.9-1.5h44.1c.9,0,1.8.6,1.9,1.5s-.7,2.2-1.8,2.2h-44.3ZM108.5,81.2c-.4,0-.8-.1-1.1-.4-.6-.4-.8-1.1-.7-1.8l2.2-12.2c0-.3.2-.5.3-.8l39.9-53.2c.4-.5.9-.7,1.5-.7s.8.1,1.1.4l8.9,6.6c.4.3.7.7.7,1.2h0c0,.6-.1,1-.4,1.4l-39.9,53.2c-.2.2-.4.4-.7.6l-11.1,5.5c-.3.1-.5.2-.8.2ZM112.4,68.4l-.7,4c-.3,1.5,1.3,2.7,2.7,2l3.6-1.8c.3-.1.5-.3.7-.6l37.1-49.5c.6-.8.5-2-.4-2.6l-2.9-2.2c-.8-.6-2-.5-2.6.4l-37.1,49.5c-.2.2-.3.5-.3.8ZM53.2,68.3c-1.1,0-2-1-1.8-2.2s1-1.5,1.9-1.5h44.1c.9,0,1.8.6,1.9,1.5s-.7,2.2-1.8,2.2h-44.3ZM53.2,49.9c-1.1,0-2-1-1.8-2.2s1-1.5,1.9-1.5h55.2c.9,0,1.8.6,1.9,1.5s-.7,2.2-1.8,2.2h-55.4ZM53.2,31.4c-1.1,0-2-1-1.8-2.2s1-1.5,1.9-1.5h55.2c.9,0,1.8.6,1.9,1.5s-.7,2.2-1.8,2.2h-55.4Z"/>
          <rect class="cls-7" width="196" height="120"/>
        </g>
      </g>
      <g class="cls-15">
        <g class="cls-1">
          <path class="cls-9" d="M41.5,120c-2,0-3.5-1.6-3.5-3.5v-2.7c0-2,1.6-3.5,3.5-3.5h2.3c.8-3.3,2.6-6.3,5.1-8.6,2.9-2.6,6.7-4.1,10.6-4.1,3.9,0,7.7,1.5,10.6,4.1,2.5,2.3,4.4,5.3,5.1,8.6h7c.8-3.3,2.6-6.3,5.1-8.6,2.9-2.6,6.7-4.1,10.6-4.1,3.9,0,7.7,1.5,10.6,4.1,2.5,2.3,4.4,5.3,5.1,8.6h7c.8-3.3,2.6-6.3,5.1-8.6,2.9-2.6,6.7-4.1,10.6-4.1,3.9,0,7.7,1.5,10.6,4.1,2.5,2.3,4.4,5.3,5.1,8.6h2.3c2,0,3.5,1.6,3.6,3.5v2.7c0,2-1.6,3.5-3.5,3.5H41.5ZM41.5,113.2c-.3,0-.5.2-.5.5v2.7c0,.3.2.5.5.5h112.9c.3,0,.5-.2.5-.5v-2.7c0-.3-.2-.5-.5-.5H41.5ZM149,110.2c-1.6-5.6-6.7-9.6-12.6-9.7-5.8,0-11,4-12.6,9.7h25.2ZM110.6,110.2c-1.6-5.6-6.7-9.6-12.6-9.7-5.8,0-11,4-12.6,9.7h25.2ZM72.1,110.2c-1.6-5.6-6.7-9.6-12.6-9.7-5.8,0-11,4-12.6,9.7h25.2ZM136.4,96.4c-4.6,0-8.3-3.7-8.3-8.3s3.7-8.3,8.3-8.3,8.3,3.7,8.3,8.3-3.7,8.3-8.3,8.3ZM136.4,82.8c-2.9,0-5.3,2.4-5.3,5.3s2.4,5.3,5.3,5.3,5.3-2.4,5.3-5.3-2.4-5.3-5.3-5.3ZM98,96.4c-4.6,0-8.3-3.7-8.3-8.3s3.7-8.3,8.3-8.3,8.3,3.7,8.3,8.3-3.7,8.3-8.3,8.3ZM98,82.8c-2.9,0-5.3,2.4-5.3,5.3s2.4,5.3,5.3,5.3,5.3-2.4,5.3-5.3-2.4-5.3-5.3-5.3ZM59.6,96.4c-4.6,0-8.3-3.7-8.3-8.3s3.7-8.3,8.3-8.3,8.3,3.7,8.3,8.3-3.7,8.3-8.3,8.3ZM59.6,82.8c-2.9,0-5.3,2.4-5.3,5.3s2.4,5.3,5.3,5.3,5.3-2.4,5.3-5.3-2.4-5.3-5.3-5.3ZM48.5,75.5c-2,0-3.7-1.6-3.7-3.7v-2.9c0-2,1.6-3.6,3.5-3.7V4.7c0-2.6,2.1-4.7,4.7-4.7h89.8c2.6,0,4.7,2.1,4.7,4.7v60.6c2,0,3.5,1.7,3.5,3.7v2.9c0,2-1.6,3.7-3.7,3.7H48.5ZM48.5,68.3c-.4,0-.6.3-.6.6v2.9c0,.4.3.6.6.6h99c.4,0,.6-.3.6-.6v-2.9c0-.4-.3-.6-.6-.6H48.5ZM144.6,65.3V4.7c0-.9-.8-1.7-1.7-1.7H53.1c-.9,0-1.7.8-1.7,1.7v60.5h93.3ZM56.8,62.4c-1.4,0-2.6-1.2-2.6-2.6V8.5c0-1.4,1.2-2.6,2.6-2.6h82.3c1.4,0,2.6,1.2,2.6,2.6v51.3c0,1.4-1.2,2.6-2.6,2.6H56.8ZM138.7,59.4V8.9s-81.4,0-81.4,0v50.4h81.4ZM79.6,42.8c-.8,0-1.5-.7-1.5-1.5s.7-1.5,1.5-1.5h18.4c.8,0,1.5.7,1.5,1.5s-.7,1.5-1.5,1.5h-18.4ZM64.5,42.8c-.8,0-1.5-.7-1.5-1.5s.7-1.5,1.5-1.5h9.1c.8,0,1.5.7,1.5,1.5s-.7,1.5-1.5,1.5h-9.1ZM113.9,33.6c-.8,0-1.5-.7-1.5-1.5s.7-1.5,1.5-1.5h17.5c.8,0,1.5.7,1.5,1.5s-.7,1.5-1.5,1.5h-17.5ZM91.4,33.6c-.8,0-1.5-.7-1.5-1.5s.7-1.5,1.5-1.5h16.6c.8,0,1.5.7,1.5,1.5s-.7,1.5-1.5,1.5h-16.6ZM64.5,33.6c-.8,0-1.5-.7-1.5-1.5s.7-1.5,1.5-1.5h21c.8,0,1.5.7,1.5,1.5s-.7,1.5-1.5,1.5h-21ZM121.2,24.4c-.8,0-1.5-.7-1.5-1.5s.7-1.5,1.5-1.5h10.2c.8,0,1.5.7,1.5,1.5s-.7,1.5-1.5,1.5h-10.2ZM83.6,24.4c-.8,0-1.5-.7-1.5-1.5s.7-1.5,1.5-1.5h31.7c.8,0,1.5.7,1.5,1.5s-.7,1.5-1.5,1.5h-31.7ZM64.5,24.4c-.8,0-1.5-.7-1.5-1.5s.7-1.5,1.5-1.5h13.2c.8,0,1.5.7,1.5,1.5s-.7,1.5-1.5,1.5h-13.2Z"/>
        </g>
      </g>
      <g class="cls-15">
        <g class="cls-2">
          <path class="cls-9" d="M83.3,86.5c-5.1-5-11.9-7.7-19.8-7.7s-14.7,2.7-19.8,7.7c-4.8,4.8-7.8,11.6-8.3,19.2-.1,2,.6,3.8,2.1,5.1,6.4,5.6,16.6,9.2,25.9,9.2s19.5-3.6,25.9-9.2c1.5-1.3,2.2-3.1,2.1-5.1-.5-7.6-3.4-14.4-8.3-19.2h0ZM87.7,108.9c-5.9,5.1-15.6,8.6-24.2,8.6s-18.4-3.5-24.2-8.6c-.9-.8-1.3-1.8-1.2-3,1-14.7,11.2-24.5,25.5-24.5s24.5,9.9,25.5,24.5c0,1.2-.4,2.2-1.2,3h0ZM63.5,76.5c7.3,0,13.2-5.9,13.2-13.2s-5.9-13.2-13.2-13.2-13.2,5.9-13.2,13.2,5.9,13.2,13.2,13.2ZM63.5,52.7c5.8,0,10.6,4.8,10.6,10.6s-4.8,10.6-10.6,10.6-10.6-4.8-10.6-10.6,4.8-10.6,10.6-10.6ZM160.5,105.7c-.5-7.6-3.4-14.4-8.3-19.2-5.1-5-11.9-7.7-19.8-7.7s-14.7,2.7-19.8,7.7c-4.8,4.8-7.8,11.6-8.3,19.2-.1,2,.6,3.8,2.1,5.1,6.4,5.6,16.6,9.2,25.9,9.2s19.5-3.6,25.9-9.2c1.5-1.3,2.2-3.1,2.1-5.1h0ZM156.7,108.9c-5.9,5.1-15.6,8.6-24.2,8.6s-18.4-3.5-24.2-8.6c-.9-.8-1.3-1.8-1.2-3,1-14.7,11.2-24.5,25.5-24.5s24.5,9.9,25.5,24.5c0,1.2-.3,2.2-1.2,3h0ZM119.3,63.3c0,7.3,5.9,13.2,13.2,13.2s13.2-5.9,13.2-13.2-5.9-13.2-13.2-13.2-13.2,5.9-13.2,13.2ZM132.5,52.7c5.8,0,10.6,4.8,10.6,10.6s-4.8,10.6-10.6,10.6-10.6-4.8-10.6-10.6,4.8-10.6,10.6-10.6ZM111.6,48.7c.5,0,1,0,1.4-.3,1.5-.6,2.4-2,2.4-3.5v-6h2.6c3.3,0,6-2.7,6-6V12.4c0-3.3-2.7-6-6-6h-3.2v-.3C114.8,2.7,112.1,0,108.8,0h-35.9c-3.3,0-6,2.7-6,6v20.5c0,3.3,2.7,6,6,6h2.6v6c0,1.6.9,3,2.4,3.5.5.2.9.3,1.4.3,1,0,2-.4,2.8-1.2l2.2-2.3h16.5l8.2,8.6c.7.8,1.7,1.2,2.8,1.2h0ZM80.2,39.4c-.4.4-.9.5-1.4.3-.5-.2-.8-.6-.8-1.2v-7.3c0-.7-.6-1.3-1.3-1.3h-3.8c-1.9,0-3.5-1.6-3.5-3.5V6c0-1.9,1.6-3.5,3.5-3.5h35.9c1.9,0,3.5,1.6,3.5,3.5v20.5c0,1.9-1.6,3.5-3.5,3.5h-19.1c-.4,0-.7.1-.9.4l-8.6,9ZM101.2,36.3h-14.6l3.6-3.8h18.6c3.3,0,6-2.7,6-6V8.9h3.2c1.9,0,3.5,1.6,3.5,3.5v20.5c0,1.9-1.6,3.5-3.5,3.5h-3.8c-.7,0-1.3.6-1.3,1.3v7.3c0,.5-.3,1-.8,1.2-.5.2-1,0-1.4-.3l-8.6-9c-.2-.3-.6-.4-.9-.4h0ZM93.6,21.5h-15c-.7,0-1.3-.6-1.3-1.3s.6-1.3,1.3-1.3h15c.7,0,1.3.6,1.3,1.3s-.6,1.3-1.3,1.3ZM77.3,12.4c0-.7.6-1.3,1.3-1.3h24.5c.7,0,1.3.6,1.3,1.3s-.6,1.3-1.3,1.3h-24.5c-.7,0-1.3-.6-1.3-1.3h0Z"/>
        </g>
      </g>
      <g class="cls-15">
        <g class="cls-12">
          <path class="cls-10" d="M135.9,15.1c-1.1-1.1-2.6-1.7-4.2-1.7s-3.1.7-4.2,1.7c-1.1,1.1-1.7,2.6-1.7,4.2s.7,3.1,1.7,4.2c1.1,1.1,2.6,1.7,4.2,1.7s3.1-.7,4.2-1.7c1.1-1.1,1.7-2.6,1.7-4.2s-.7-3.1-1.7-4.2ZM131.7,10.6c2.4,0,4.6,1,6.2,2.6,1.6,1.6,2.6,3.8,2.6,6.2s-1,4.6-2.6,6.2-3.8,2.6-6.2,2.6-4.6-1-6.2-2.6-2.6-3.8-2.6-6.2,1-4.6,2.6-6.2c1.6-1.6,3.8-2.6,6.2-2.6ZM123.3,34.4v27.8c0,1.3-.5,2.5-1.4,3.3-.9.9-2,1.4-3.3,1.4h-39.5c-1.3,0-2.5-.5-3.3-1.4-.9-.9-1.4-2-1.4-3.3V22.7c0-1.3.5-2.5,1.4-3.3.9-.9,2-1.4,3.3-1.4h33.2v-1.5c0-.7.5-1.2,1.1-1.3l2.7-.9c.1-.4.3-.8.4-1.2,0,0,0,0,0,0,.2-.4.3-.8.5-1.1l-1.4-2.6c-.3-.5-.2-1.2.2-1.6h0s4-4,4-4c.5-.5,1.2-.5,1.7-.2l2.6,1.3c.4-.2.8-.4,1.2-.5.4-.2.8-.3,1.2-.5l.9-2.8c.2-.6.7-1,1.3-1h0S134.5,0,134.5,0C135.2,0,135.7.5,135.9,1.1l.9,2.7c.4.1.8.3,1.2.4.4.2.8.3,1.2.5l2.6-1.4c.5-.3,1.2-.2,1.6.2h0s4,4,4,4c.5.5.5,1.2.2,1.7l-1.3,2.6c.2.4.4.8.5,1.2.2.4.3.8.4,1.2l2.8.9c.6.2,1,.7,1,1.3h0v5.7c0,.7-.5,1.2-1.1,1.3l-2.7.9c-.1.4-.3.8-.4,1.2-.2.4-.3.8-.5,1.2l1.4,2.6c.3.5.2,1.2-.2,1.6h0s-4,4-4,4c-.5.5-1.2.5-1.7.2l-2.6-1.3c-.4.2-.8.4-1.2.5-.4.2-.8.3-1.2.4l-.9,2.8c-.2.6-.7,1-1.3,1h0s-5.7,0-5.7,0c-.7,0-1.2-.5-1.3-1.1l-.9-2.7c-.4-.1-.8-.3-1.2-.4h0c-.4-.2-.8-.3-1.2-.5l-1,.5h0ZM121.3,32.4l-2.6-2.6,1.2-2.4c.2-.4.2-.9,0-1.3-.3-.5-.5-1-.8-1.5h0c-.2-.5-.4-1.1-.6-1.6-.1-.5-.5-.8-.9-.9l-2.6-.8v-3.7l2.6-.8c.5-.2.8-.5.9-1,.1-.5.3-1,.5-1.6h0c.2-.6.5-1,.7-1.5.3-.4.2-1,0-1.4l-1.2-2.3,2.6-2.6,2.4,1.2c.4.2.9.2,1.3,0,.5-.3,1-.5,1.5-.8h0c.5-.2,1.1-.4,1.6-.6.5-.1.8-.5.9-.9l.8-2.6h3.7l.8,2.6c.2.5.5.8,1,.9.5.1,1,.3,1.6.5.5.2,1,.5,1.5.8.4.3,1,.2,1.4,0l2.3-1.2,2.6,2.6-1.2,2.4c-.2.4-.2.9,0,1.3.3.5.5,1,.8,1.5.2.5.4,1.1.6,1.6.1.5.5.8.9.9l2.6.8v3.7l-2.6.8c-.5.2-.8.5-.9,1-.1.5-.3,1-.5,1.6-.2.5-.5,1-.8,1.5-.3.4-.2,1,0,1.4l1.2,2.3-2.6,2.6-2.4-1.2c-.4-.2-.9-.2-1.3,0-.5.3-1,.5-1.5.8-.5.2-1.1.4-1.6.6-.5.1-.8.5-.9.9l-.8,2.6h-3.7l-.8-2.6c-.2-.5-.5-.8-1-.9-.5-.1-1-.3-1.6-.5-.5-.2-1-.5-1.5-.8-.4-.3-1-.2-1.4,0l-2.2,1.1s0,0-.1,0h0ZM94.8,20.7v12.5l3-3.5c0,0,0-.1.2-.2.6-.5,1.4-.4,1.9.1l3,3.5v-12.5h-8.2,0ZM105.7,20.7v16.2c0,.8-.6,1.4-1.4,1.4s-.9-.2-1.1-.6l-4.4-5-4.4,5.1c-.5.6-1.4.6-1.9.1-.3-.3-.5-.7-.5-1h0v-16.2h-12.9c-.5,0-1,.2-1.4.6-.4.4-.6.8-.6,1.4v39.5c0,.5.2,1,.6,1.4.4.4.8.6,1.4.6h39.5c.5,0,1-.2,1.4-.6.4-.4.6-.8.6-1.4v-26.8c-.2,0-.4-.2-.5-.3h0s-4-4-4-4c-.5-.5-.5-1.2-.2-1.7l1.3-2.6c-.2-.4-.4-.8-.5-1.2-.2-.4-.3-.8-.4-1.2l-2.8-.9c-.6-.2-1-.7-1-1.3h0v-1.5h-6.7ZM81.3,58.8h7.9c.8,0,1.4-.6,1.4-1.4s-.6-1.4-1.4-1.4h-7.9c-.8,0-1.4.6-1.4,1.4s.6,1.4,1.4,1.4ZM81.3,54.4h7.9c.8,0,1.4-.6,1.4-1.4s-.6-1.4-1.4-1.4h-7.9c-.8,0-1.4.6-1.4,1.4s.6,1.4,1.4,1.4ZM111.4,82c0,.4,0,.8-.2,1.3,0,0,0,.1,0,.3-.5,1.5-1.5,2.7-2.8,3.5,3,.7,6.3.7,11-1.6l14.8-7.9c0-.2,0-.3,0-.5,0-.4-.2-.7-.4-1-.5-.7-1.2-1.2-2.1-1.4-1-.2-2.1,0-3.2.3l-17.1,7h0ZM65.1,79.9l14.6-7.4c.7-.4,1.4-.6,2.1-.6.7,0,1.5,0,2.3.2l21.5,5.8h0c0,0,.2,0,.2,0,1,.3,1.9,1,2.3,1.8.5.8.6,1.7.4,2.7v.2c-.4,1-1.1,1.8-2.1,2.3-1,.5-2.2.6-3.3.4,0,0,0,0-.1,0l-11-2.9c-.7-.2-1.5.2-1.7,1-.2.7.2,1.5,1,1.7l10.9,2.9c.5.2.7.3.9.4,4.7,1.8,9.2,3.5,17.3-.3h0s15.5-8.3,15.5-8.3c0,0,.1,0,.2,0l3.6-1.9c.9-.5,1.9-.6,2.8-.3.9.2,1.7.7,2.2,1.5h0c.4.8.5,1.6.3,2.3-.2.8-.8,1.5-1.6,2h-.1c0,0-31.8,18.8-31.8,18.8-.8.4-1.6.7-2.4.8-.8,0-1.7,0-2.6-.2l-9.1-2.7-.9-.3c-4.2-1.3-6.9-2.1-11.1.3l-6.3,3.6-14.2-23.6h0ZM66.1,119.3l-21-34.7c-.4-.7-.2-1.5.5-1.9l14.4-8.7c.7-.4,1.5-.2,1.9.5l1.8,3.1,14.8-7.4c1-.5,2-.8,3.1-.9,1.1-.1,2.2,0,3.3.3l21.5,5.8c0,0,.2,0,.3,0,1.7.5,3.1,1.7,3.9,3.1.1.2.3.5.4.8l16.5-6.7c1.6-.6,3.3-.8,4.8-.5,1.5.3,2.9,1.2,3.8,2.5.4.5.6,1.1.8,1.7l1.8-.9c1.5-.8,3.2-1,4.8-.6,1.6.4,3,1.3,3.9,2.7,0,0,0,0,0,.2.8,1.4,1,3,.5,4.4-.4,1.4-1.4,2.7-2.7,3.5,0,0-.1,0-.2.1l-31.8,18.7c-1.1.6-2.3,1-3.4,1.2-1.2.1-2.4,0-3.6-.3l-9.1-2.7c-.7-.2-.8-.2-.9-.3-3.6-1.1-5.8-1.7-9,0l-6.2,3.5,2.1,3.4c.4.7.2,1.5-.5,1.9l-14.4,8.7c-.7.4-1.5.2-1.9-.5h0ZM48.2,84.3l19.6,32.4,12-7.3-19.6-32.4-12,7.3Z"/>
        </g>
      </g>
      <g class="cls-15">
        <g class="cls-4">
          <g>
            <path class="cls-9" d="M130.7,55.5l-30.5-13.6c-.2,0-.4-.1-.6-.1s-.4,0-.6.1l-30.5,13.6c-.5.2-.8.7-.8,1.3,0,.5.3,1,.9,1.3l4.8,2v16c0,.4.2.7.4,1,.2.2.6.4,1,.4.6,0,1.4,0,2.2,0,3.4,0,14.8.3,19.4,4.6,1.2,1.1,1.8,2.4,1.8,4s.6,1.4,1.4,1.4,1.4-.6,1.4-1.4c0-1.5.6-2.8,1.8-4,.7-.7,1.6-1.3,2.8-1.8l1.5-.7v4.3l-4.8,11.7c-.2.4-.1.9.1,1.3.3.4.7.6,1.2.6h9.1c.4,0,.8-.3,1-.6.3-.4.3-.8.2-1.3l-4-11.7v-5.2l.8-.2c4.7-1,9.7-1.1,11.6-1.1s1.6,0,2.3,0c.4,0,.7-.2,1-.4.3-.3.4-.6.4-1v-16l4.8-2c.5-.2.8-.7.9-1.3,0-.6-.3-1.1-.8-1.3ZM106.3,76.9c-2.3.8-4.2,1.9-5.5,3.1-.2.2-.3.3-.5.5l-.8.8-.7-.8c-.2-.2-.3-.3-.5-.5-5.1-4.9-16.5-5.4-21.2-5.4h-1v-13.4l22.9,9.7c.1,0,.3,0,.4.1h.1c.2,0,.4,0,.5-.1l6.8-2.9v8.6l-.7.2ZM110.5,94.7h-5l2.7-6.6,2.3,6.6ZM123.1,73.6v1h-1.1c-2.7,0-6.9.2-11,1l-1.2.2v-9l13.3-5.6v12.3ZM123.7,57.2c-.3.2-.5.4-.6.7l-.2.4-13,5.5-.3-1.2c0-.3-.2-.5-.3-.6l-8.8-9.5c-.3-.3-.6-.4-1-.4s-.7.1-.9.4c-.3.3-.4.6-.4,1,0,.4.1.7.4,1l8.4,9.1v1.6l-7.4,3.1-23.4-9.8-.2-.4c-.1-.3-.3-.5-.6-.7l-1.7-1,25.8-11.5,25.8,11.5-1.7,1Z"/>
            <path class="cls-9" d="M130.7,55.5l-30.5-13.6c-.2,0-.4-.1-.6-.1s-.4,0-.6.1l-30.5,13.6c-.5.2-.8.7-.8,1.3,0,.5.3,1,.9,1.3l4.8,2v16c0,.4.2.7.4,1,.2.2.6.4,1,.4.6,0,1.4,0,2.2,0,3.4,0,14.8.3,19.4,4.6,1.2,1.1,1.8,2.4,1.8,4s.6,1.4,1.4,1.4,1.4-.6,1.4-1.4c0-1.5.6-2.8,1.8-4,.7-.7,1.6-1.3,2.8-1.8l1.5-.7v4.3l-4.8,11.7c-.2.4-.1.9.1,1.3.3.4.7.6,1.2.6h9.1c.4,0,.8-.3,1-.6.3-.4.3-.8.2-1.3l-4-11.7v-5.2l.8-.2c4.7-1,9.7-1.1,11.6-1.1s1.6,0,2.3,0c.4,0,.7-.2,1-.4.3-.3.4-.6.4-1v-16l4.8-2c.5-.2.8-.7.9-1.3,0-.6-.3-1.1-.8-1.3ZM106.3,76.9c-2.3.8-4.2,1.9-5.5,3.1-.2.2-.3.3-.5.5l-.8.8-.7-.8c-.2-.2-.3-.3-.5-.5-5.1-4.9-16.5-5.4-21.2-5.4h-1v-13.4l22.9,9.7c.1,0,.3,0,.4.1h.1c.2,0,.4,0,.5-.1l6.8-2.9v8.6l-.7.2ZM110.5,94.7h-5l2.7-6.6,2.3,6.6ZM123.1,73.6v1h-1.1c-2.7,0-6.9.2-11,1l-1.2.2v-9l13.3-5.6v12.3ZM123.7,57.2c-.3.2-.5.4-.6.7l-.2.4-13,5.5-.3-1.2c0-.3-.2-.5-.3-.6l-8.8-9.5c-.3-.3-.6-.4-1-.4s-.7.1-.9.4c-.3.3-.4.6-.4,1,0,.4.1.7.4,1l8.4,9.1v1.6l-7.4,3.1-23.4-9.8-.2-.4c-.1-.3-.3-.5-.6-.7l-1.7-1,25.8-11.5,25.8,11.5-1.7,1Z"/>
            <path class="cls-9" d="M143.8,25.3c0-.1,0-.2,0-.3,0-.1-.1-.2-.1-.2h0c0-.1,0-.1,0-.1L126.3.7h0c0-.2-.2-.3-.3-.4,0,0-.2-.1-.4-.2-.1,0-.3,0-.4,0H53.5c-.8,0-1.4.6-1.4,1.4v117.2c0,.8.6,1.4,1.4,1.4h88.9c.8,0,1.4-.6,1.4-1.4V25.3ZM126.5,5.7l13.2,18.4h-13.2V5.7ZM141.1,117.2H54.9V2.8h68.8v22.6c0,.8.6,1.4,1.4,1.4h15.9v90.4Z"/>
            <path class="cls-9" d="M143.8,25.3c0-.1,0-.2,0-.3,0-.1-.1-.2-.1-.2h0c0-.1,0-.1,0-.1L126.3.7h0c0-.2-.2-.3-.3-.4,0,0-.2-.1-.4-.2-.1,0-.3,0-.4,0H53.5c-.8,0-1.4.6-1.4,1.4v117.2c0,.8.6,1.4,1.4,1.4h88.9c.8,0,1.4-.6,1.4-1.4V25.3ZM127.7,7.3l11.3,15.7c.3.4,0,1-.5,1h-11.3c-.4,0-.7-.3-.7-.7V7.7c0-.6.8-.9,1.2-.4ZM137.1,117.2H58.9c-2.2,0-4-1.8-4-4V6.8c0-2.2,1.8-4,4-4h60.8c2.2,0,4,1.8,4,4v18.6c0,.8.6,1.4,1.4,1.4h14.4c.8,0,1.5.7,1.5,1.5v84.9c0,2.2-1.8,4-4,4Z"/>
            <path class="cls-9" d="M90.7,15.8c0,.8-.6,1.4-1.4,1.4h-21.7c-.8,0-1.4-.6-1.4-1.4s.6-1.4,1.4-1.4h21.7c.8,0,1.4.6,1.4,1.4Z"/>
            <path class="cls-9" d="M90.7,15.8c0,.8-.6,1.4-1.4,1.4h-21.7c-.8,0-1.4-.6-1.4-1.4s.6-1.4,1.4-1.4h21.7c.8,0,1.4.6,1.4,1.4Z"/>
            <path class="cls-9" d="M112.4,30.2c0,.8-.6,1.4-1.4,1.4h-43.3c-.8,0-1.4-.6-1.4-1.4s.6-1.4,1.4-1.4h43.3c.8,0,1.4.6,1.4,1.4Z"/>
            <path class="cls-9" d="M112.4,30.2c0,.8-.6,1.4-1.4,1.4h-43.3c-.8,0-1.4-.6-1.4-1.4s.6-1.4,1.4-1.4h43.3c.8,0,1.4.6,1.4,1.4Z"/>
            <path class="cls-9" d="M125.1,106.3c0,.8-.6,1.4-1.4,1.4h-57.1c-.8,0-1.4-.6-1.4-1.4s.6-1.4,1.4-1.4h57.1c.8,0,1.4.6,1.4,1.4Z"/>
            <path class="cls-9" d="M125.1,106.3c0,.8-.6,1.4-1.4,1.4h-57.1c-.8,0-1.4-.6-1.4-1.4s.6-1.4,1.4-1.4h57.1c.8,0,1.4.6,1.4,1.4Z"/>
          </g>
        </g>
      </g>
      <g class="cls-15">
        <g class="cls-5">
          <path class="cls-9" d="M115.5,120c-4.1,0-7.4-3.3-7.4-7.4v-35c0-4.1,3.3-7.4,7.4-7.4h35c4.1,0,7.4,3.3,7.4,7.4v35c0,4.1-3.3,7.4-7.4,7.4h-35ZM115.5,73.3c-2.3,0-4.2,1.9-4.2,4.2v35c0,2.3,1.9,4.2,4.2,4.2h35c2.3,0,4.2-1.9,4.2-4.2v-35c0-2.3-1.9-4.2-4.2-4.2h-35ZM86.3,120c-.9,0-1.6-.7-1.6-1.6,0-5.6-4.5-10.1-10.1-10.1h-23.4c-5.6,0-10.1,4.5-10.1,10.1s-.7,1.6-1.6,1.6-1.6-.7-1.6-1.6c0-7.3,6-13.3,13.3-13.3h23.4c7.3,0,13.3,6,13.3,13.3s-.7,1.6-1.6,1.6ZM129.1,104.4c-.4,0-.8-.2-1.1-.5l-7.8-7.8c-.3-.3-.5-.7-.5-1.1s.2-.8.5-1.1c.3-.3.7-.5,1.1-.5s.8.2,1.1.5l6.7,6.7,14.4-14.4c.3-.3.7-.5,1.1-.5s.8.2,1.1.5c.3.3.5.7.5,1.1s-.2.8-.5,1.1l-15.6,15.6c-.3.3-.7.5-1.1.5ZM63,96.6c-7.3,0-13.3-6-13.3-13.3s6-13.3,13.3-13.3,13.3,6,13.3,13.3-6,13.3-13.3,13.3ZM63,73.3c-5.6,0-10.1,4.5-10.1,10.1s4.5,10.1,10.1,10.1,10.1-4.5,10.1-10.1-4.5-10.1-10.1-10.1ZM115.5,49.9c-4.1,0-7.4-3.3-7.4-7.4V7.4c0-4.1,3.3-7.4,7.4-7.4h35c4.1,0,7.4,3.3,7.4,7.4v35c0,4.1-3.3,7.4-7.4,7.4h-35ZM115.5,3.2c-2.3,0-4.2,1.9-4.2,4.2v35c0,2.3,1.9,4.2,4.2,4.2h35c2.3,0,4.2-1.9,4.2-4.2V7.4c0-2.3-1.9-4.2-4.2-4.2h-35ZM86.3,49.9c-.9,0-1.6-.7-1.6-1.6,0-5.6-4.5-10.1-10.1-10.1h-23.4c-5.6,0-10.1,4.5-10.1,10.1s-.7,1.6-1.6,1.6-1.6-.7-1.6-1.6c0-7.3,6-13.3,13.3-13.3h23.4c7.3,0,13.3,6,13.3,13.3s-.7,1.6-1.6,1.6ZM129.1,34.3c-.4,0-.8-.2-1.1-.5l-7.8-7.8c-.3-.3-.5-.7-.5-1.1s.2-.8.5-1.1c.3-.3.7-.5,1.1-.5s.8.2,1.1.5l6.7,6.7,14.4-14.4c.3-.3.7-.5,1.1-.5s.8.2,1.1.5c.3.3.5.7.5,1.1s-.2.8-.5,1.1l-15.6,15.6c-.3.3-.7.5-1.1.5ZM63,26.6c-7.3,0-13.3-6-13.3-13.3S55.6,0,63,0s13.3,6,13.3,13.3-6,13.3-13.3,13.3ZM63,3.2c-5.6,0-10.1,4.5-10.1,10.1s4.5,10.1,10.1,10.1,10.1-4.5,10.1-10.1-4.5-10.1-10.1-10.1Z"/>
        </g>
      </g>
      <g class="cls-15">
        <g class="cls-6">
          <g>
            <path class="cls-10" d="M107.9,21.7h-48.9c-.9,0-1.6.7-1.6,1.6s.7,1.6,1.6,1.6h48.9c.9,0,1.6-.7,1.6-1.6s-.7-1.6-1.6-1.6ZM100.5,39.7h-41.5c-.9,0-1.6.7-1.6,1.6s.7,1.6,1.6,1.6h41.5c.9,0,1.6-.7,1.6-1.6s-.7-1.6-1.6-1.6ZM136.7,42h-4.4c-.8,0-1.6-.3-2.1-.9-.6-.6-.9-1.4-.9-2.2s.3-1.6.9-2.2c.6-.6,1.3-.9,2.2-.9h6.5c.9,0,1.6-.7,1.6-1.6s-.7-1.6-1.6-1.6h-2.8v-2c0-.9-.7-1.6-1.6-1.6s-1.6.7-1.6,1.6v2h-.5c-1.7,0-3.2.6-4.4,1.8-1.2,1.2-1.9,2.7-1.9,4.4s.7,3.2,1.9,4.4c1.2,1.2,2.7,1.8,4.4,1.8h4.4c1.6,0,3,1.3,3,2.9s-1.3,2.9-3,2.9h-7.5c-.9,0-1.6.7-1.6,1.6s.7,1.6,1.6,1.6h3.6v2c0,.9.7,1.6,1.6,1.6s1.6-.7,1.6-1.6v-2h.7c3.4,0,6.1-2.7,6.1-6.1s-2.8-6.1-6.1-6.1ZM103.8,57.8h-44.7c-.9,0-1.6.7-1.6,1.6s.7,1.6,1.6,1.6h44.7c.9,0,1.6-.7,1.6-1.6s-.7-1.6-1.6-1.6ZM136.7,42h-4.4c-.8,0-1.6-.3-2.1-.9-.6-.6-.9-1.4-.9-2.2s.3-1.6.9-2.2c.6-.6,1.3-.9,2.2-.9h6.5c.9,0,1.6-.7,1.6-1.6s-.7-1.6-1.6-1.6h-2.8v-2c0-.9-.7-1.6-1.6-1.6s-1.6.7-1.6,1.6v2h-.5c-1.7,0-3.2.6-4.4,1.8-1.2,1.2-1.9,2.7-1.9,4.4s.7,3.2,1.9,4.4c1.2,1.2,2.7,1.8,4.4,1.8h4.4c1.6,0,3,1.3,3,2.9s-1.3,2.9-3,2.9h-7.5c-.9,0-1.6.7-1.6,1.6s.7,1.6,1.6,1.6h3.6v2c0,.9.7,1.6,1.6,1.6s1.6-.7,1.6-1.6v-2h.7c3.4,0,6.1-2.7,6.1-6.1s-2.8-6.1-6.1-6.1ZM117.6,75.9h-58.6c-.9,0-1.6.7-1.6,1.6s.7,1.6,1.6,1.6h58.6c.9,0,1.6-.7,1.6-1.6s-.7-1.6-1.6-1.6ZM117.6,75.9h-58.6c-.9,0-1.6.7-1.6,1.6s.7,1.6,1.6,1.6h58.6c.9,0,1.6-.7,1.6-1.6s-.7-1.6-1.6-1.6ZM107.9,21.7h-48.9c-.9,0-1.6.7-1.6,1.6s.7,1.6,1.6,1.6h48.9c.9,0,1.6-.7,1.6-1.6s-.7-1.6-1.6-1.6ZM103.8,57.8h-44.7c-.9,0-1.6.7-1.6,1.6s.7,1.6,1.6,1.6h44.7c.9,0,1.6-.7,1.6-1.6s-.7-1.6-1.6-1.6ZM100.5,39.7h-41.5c-.9,0-1.6.7-1.6,1.6s.7,1.6,1.6,1.6h41.5c.9,0,1.6-.7,1.6-1.6s-.7-1.6-1.6-1.6ZM100.5,39.7h-41.5c-.9,0-1.6.7-1.6,1.6s.7,1.6,1.6,1.6h41.5c.9,0,1.6-.7,1.6-1.6s-.7-1.6-1.6-1.6ZM103.8,57.8h-44.7c-.9,0-1.6.7-1.6,1.6s.7,1.6,1.6,1.6h44.7c.9,0,1.6-.7,1.6-1.6s-.7-1.6-1.6-1.6ZM107.9,21.7h-48.9c-.9,0-1.6.7-1.6,1.6s.7,1.6,1.6,1.6h48.9c.9,0,1.6-.7,1.6-1.6s-.7-1.6-1.6-1.6ZM117.6,75.9h-58.6c-.9,0-1.6.7-1.6,1.6s.7,1.6,1.6,1.6h58.6c.9,0,1.6-.7,1.6-1.6s-.7-1.6-1.6-1.6ZM136.7,42h-4.4c-.8,0-1.6-.3-2.1-.9-.6-.6-.9-1.4-.9-2.2s.3-1.6.9-2.2c.6-.6,1.3-.9,2.2-.9h6.5c.9,0,1.6-.7,1.6-1.6s-.7-1.6-1.6-1.6h-2.8v-2c0-.9-.7-1.6-1.6-1.6s-1.6.7-1.6,1.6v2h-.5c-1.7,0-3.2.6-4.4,1.8-1.2,1.2-1.9,2.7-1.9,4.4s.7,3.2,1.9,4.4c1.2,1.2,2.7,1.8,4.4,1.8h4.4c1.6,0,3,1.3,3,2.9s-1.3,2.9-3,2.9h-7.5c-.9,0-1.6.7-1.6,1.6s.7,1.6,1.6,1.6h3.6v2c0,.9.7,1.6,1.6,1.6s1.6-.7,1.6-1.6v-2h.7c3.4,0,6.1-2.7,6.1-6.1s-2.8-6.1-6.1-6.1ZM117.6,75.9h-58.6c-.9,0-1.6.7-1.6,1.6s.7,1.6,1.6,1.6h58.6c.9,0,1.6-.7,1.6-1.6s-.7-1.6-1.6-1.6ZM107.9,21.7h-48.9c-.9,0-1.6.7-1.6,1.6s.7,1.6,1.6,1.6h48.9c.9,0,1.6-.7,1.6-1.6s-.7-1.6-1.6-1.6ZM103.8,57.8h-44.7c-.9,0-1.6.7-1.6,1.6s.7,1.6,1.6,1.6h44.7c.9,0,1.6-.7,1.6-1.6s-.7-1.6-1.6-1.6ZM100.5,39.7h-41.5c-.9,0-1.6.7-1.6,1.6s.7,1.6,1.6,1.6h41.5c.9,0,1.6-.7,1.6-1.6s-.7-1.6-1.6-1.6ZM136.7,42h-4.4c-.8,0-1.6-.3-2.1-.9-.6-.6-.9-1.4-.9-2.2s.3-1.6.9-2.2c.6-.6,1.3-.9,2.2-.9h6.5c.9,0,1.6-.7,1.6-1.6s-.7-1.6-1.6-1.6h-2.8v-2c0-.9-.7-1.6-1.6-1.6s-1.6.7-1.6,1.6v2h-.5c-1.7,0-3.2.6-4.4,1.8-1.2,1.2-1.9,2.7-1.9,4.4s.7,3.2,1.9,4.4c1.2,1.2,2.7,1.8,4.4,1.8h4.4c1.6,0,3,1.3,3,2.9s-1.3,2.9-3,2.9h-7.5c-.9,0-1.6.7-1.6,1.6s.7,1.6,1.6,1.6h3.6v2c0,.9.7,1.6,1.6,1.6s1.6-.7,1.6-1.6v-2h.7c3.4,0,6.1-2.7,6.1-6.1s-2.8-6.1-6.1-6.1ZM100.5,39.7h-41.5c-.9,0-1.6.7-1.6,1.6s.7,1.6,1.6,1.6h41.5c.9,0,1.6-.7,1.6-1.6s-.7-1.6-1.6-1.6ZM103.8,57.8h-44.7c-.9,0-1.6.7-1.6,1.6s.7,1.6,1.6,1.6h44.7c.9,0,1.6-.7,1.6-1.6s-.7-1.6-1.6-1.6ZM107.9,21.7h-48.9c-.9,0-1.6.7-1.6,1.6s.7,1.6,1.6,1.6h48.9c.9,0,1.6-.7,1.6-1.6s-.7-1.6-1.6-1.6ZM117.6,75.9h-58.6c-.9,0-1.6.7-1.6,1.6s.7,1.6,1.6,1.6h58.6c.9,0,1.6-.7,1.6-1.6s-.7-1.6-1.6-1.6ZM136.7,42h-4.4c-.8,0-1.6-.3-2.1-.9-.6-.6-.9-1.4-.9-2.2s.3-1.6.9-2.2c.6-.6,1.3-.9,2.2-.9h6.5c.9,0,1.6-.7,1.6-1.6s-.7-1.6-1.6-1.6h-2.8v-2c0-.9-.7-1.6-1.6-1.6s-1.6.7-1.6,1.6v2h-.5c-1.7,0-3.2.6-4.4,1.8-1.2,1.2-1.9,2.7-1.9,4.4s.7,3.2,1.9,4.4c1.2,1.2,2.7,1.8,4.4,1.8h4.4c1.6,0,3,1.3,3,2.9s-1.3,2.9-3,2.9h-7.5c-.9,0-1.6.7-1.6,1.6s.7,1.6,1.6,1.6h3.6v2c0,.9.7,1.6,1.6,1.6s1.6-.7,1.6-1.6v-2h.7c3.4,0,6.1-2.7,6.1-6.1s-2.8-6.1-6.1-6.1ZM136.7,42h-4.4c-.8,0-1.6-.3-2.1-.9-.6-.6-.9-1.4-.9-2.2s.3-1.6.9-2.2c.6-.6,1.3-.9,2.2-.9h6.5c.9,0,1.6-.7,1.6-1.6s-.7-1.6-1.6-1.6h-2.8v-2c0-.9-.7-1.6-1.6-1.6s-1.6.7-1.6,1.6v2h-.5c-1.7,0-3.2.6-4.4,1.8-1.2,1.2-1.9,2.7-1.9,4.4s.7,3.2,1.9,4.4c1.2,1.2,2.7,1.8,4.4,1.8h4.4c1.6,0,3,1.3,3,2.9s-1.3,2.9-3,2.9h-7.5c-.9,0-1.6.7-1.6,1.6s.7,1.6,1.6,1.6h3.6v2c0,.9.7,1.6,1.6,1.6s1.6-.7,1.6-1.6v-2h.7c3.4,0,6.1-2.7,6.1-6.1s-2.8-6.1-6.1-6.1ZM117.6,75.9h-58.6c-.9,0-1.6.7-1.6,1.6s.7,1.6,1.6,1.6h58.6c.9,0,1.6-.7,1.6-1.6s-.7-1.6-1.6-1.6ZM107.9,21.7h-48.9c-.9,0-1.6.7-1.6,1.6s.7,1.6,1.6,1.6h48.9c.9,0,1.6-.7,1.6-1.6s-.7-1.6-1.6-1.6ZM103.8,57.8h-44.7c-.9,0-1.6.7-1.6,1.6s.7,1.6,1.6,1.6h44.7c.9,0,1.6-.7,1.6-1.6s-.7-1.6-1.6-1.6ZM100.5,39.7h-41.5c-.9,0-1.6.7-1.6,1.6s.7,1.6,1.6,1.6h41.5c.9,0,1.6-.7,1.6-1.6s-.7-1.6-1.6-1.6ZM100.5,39.7h-41.5c-.9,0-1.6.7-1.6,1.6s.7,1.6,1.6,1.6h41.5c.9,0,1.6-.7,1.6-1.6s-.7-1.6-1.6-1.6ZM103.8,57.8h-44.7c-.9,0-1.6.7-1.6,1.6s.7,1.6,1.6,1.6h44.7c.9,0,1.6-.7,1.6-1.6s-.7-1.6-1.6-1.6ZM107.9,21.7h-48.9c-.9,0-1.6.7-1.6,1.6s.7,1.6,1.6,1.6h48.9c.9,0,1.6-.7,1.6-1.6s-.7-1.6-1.6-1.6ZM117.6,75.9h-58.6c-.9,0-1.6.7-1.6,1.6s.7,1.6,1.6,1.6h58.6c.9,0,1.6-.7,1.6-1.6s-.7-1.6-1.6-1.6ZM136.7,42h-4.4c-.8,0-1.6-.3-2.1-.9-.6-.6-.9-1.4-.9-2.2s.3-1.6.9-2.2c.6-.6,1.3-.9,2.2-.9h6.5c.9,0,1.6-.7,1.6-1.6s-.7-1.6-1.6-1.6h-2.8v-2c0-.9-.7-1.6-1.6-1.6s-1.6.7-1.6,1.6v2h-.5c-1.7,0-3.2.6-4.4,1.8-1.2,1.2-1.9,2.7-1.9,4.4s.7,3.2,1.9,4.4c1.2,1.2,2.7,1.8,4.4,1.8h4.4c1.6,0,3,1.3,3,2.9s-1.3,2.9-3,2.9h-7.5c-.9,0-1.6.7-1.6,1.6s.7,1.6,1.6,1.6h3.6v2c0,.9.7,1.6,1.6,1.6s1.6-.7,1.6-1.6v-2h.7c3.4,0,6.1-2.7,6.1-6.1s-2.8-6.1-6.1-6.1ZM136.7,42h-4.4c-.8,0-1.6-.3-2.1-.9-.6-.6-.9-1.4-.9-2.2s.3-1.6.9-2.2c.6-.6,1.3-.9,2.2-.9h6.5c.9,0,1.6-.7,1.6-1.6s-.7-1.6-1.6-1.6h-2.8v-2c0-.9-.7-1.6-1.6-1.6s-1.6.7-1.6,1.6v2h-.5c-1.7,0-3.2.6-4.4,1.8-1.2,1.2-1.9,2.7-1.9,4.4s.7,3.2,1.9,4.4c1.2,1.2,2.7,1.8,4.4,1.8h4.4c1.6,0,3,1.3,3,2.9s-1.3,2.9-3,2.9h-7.5c-.9,0-1.6.7-1.6,1.6s.7,1.6,1.6,1.6h3.6v2c0,.9.7,1.6,1.6,1.6s1.6-.7,1.6-1.6v-2h.7c3.4,0,6.1-2.7,6.1-6.1s-2.8-6.1-6.1-6.1ZM117.6,75.9h-58.6c-.9,0-1.6.7-1.6,1.6s.7,1.6,1.6,1.6h58.6c.9,0,1.6-.7,1.6-1.6s-.7-1.6-1.6-1.6ZM107.9,21.7h-48.9c-.9,0-1.6.7-1.6,1.6s.7,1.6,1.6,1.6h48.9c.9,0,1.6-.7,1.6-1.6s-.7-1.6-1.6-1.6ZM103.8,57.8h-44.7c-.9,0-1.6.7-1.6,1.6s.7,1.6,1.6,1.6h44.7c.9,0,1.6-.7,1.6-1.6s-.7-1.6-1.6-1.6ZM100.5,39.7h-41.5c-.9,0-1.6.7-1.6,1.6s.7,1.6,1.6,1.6h41.5c.9,0,1.6-.7,1.6-1.6s-.7-1.6-1.6-1.6ZM100.5,39.7h-41.5c-.9,0-1.6.7-1.6,1.6s.7,1.6,1.6,1.6h41.5c.9,0,1.6-.7,1.6-1.6s-.7-1.6-1.6-1.6ZM103.8,57.8h-44.7c-.9,0-1.6.7-1.6,1.6s.7,1.6,1.6,1.6h44.7c.9,0,1.6-.7,1.6-1.6s-.7-1.6-1.6-1.6ZM107.9,21.7h-48.9c-.9,0-1.6.7-1.6,1.6s.7,1.6,1.6,1.6h48.9c.9,0,1.6-.7,1.6-1.6s-.7-1.6-1.6-1.6ZM117.6,75.9h-58.6c-.9,0-1.6.7-1.6,1.6s.7,1.6,1.6,1.6h58.6c.9,0,1.6-.7,1.6-1.6s-.7-1.6-1.6-1.6ZM136.7,42h-4.4c-.8,0-1.6-.3-2.1-.9-.6-.6-.9-1.4-.9-2.2s.3-1.6.9-2.2c.6-.6,1.3-.9,2.2-.9h6.5c.9,0,1.6-.7,1.6-1.6s-.7-1.6-1.6-1.6h-2.8v-2c0-.9-.7-1.6-1.6-1.6s-1.6.7-1.6,1.6v2h-.5c-1.7,0-3.2.6-4.4,1.8-1.2,1.2-1.9,2.7-1.9,4.4s.7,3.2,1.9,4.4c1.2,1.2,2.7,1.8,4.4,1.8h4.4c1.6,0,3,1.3,3,2.9s-1.3,2.9-3,2.9h-7.5c-.9,0-1.6.7-1.6,1.6s.7,1.6,1.6,1.6h3.6v2c0,.9.7,1.6,1.6,1.6s1.6-.7,1.6-1.6v-2h.7c3.4,0,6.1-2.7,6.1-6.1s-2.8-6.1-6.1-6.1ZM136.7,42h-4.4c-.8,0-1.6-.3-2.1-.9-.6-.6-.9-1.4-.9-2.2s.3-1.6.9-2.2c.6-.6,1.3-.9,2.2-.9h6.5c.9,0,1.6-.7,1.6-1.6s-.7-1.6-1.6-1.6h-2.8v-2c0-.9-.7-1.6-1.6-1.6s-1.6.7-1.6,1.6v2h-.5c-1.7,0-3.2.6-4.4,1.8-1.2,1.2-1.9,2.7-1.9,4.4s.7,3.2,1.9,4.4c1.2,1.2,2.7,1.8,4.4,1.8h4.4c1.6,0,3,1.3,3,2.9s-1.3,2.9-3,2.9h-7.5c-.9,0-1.6.7-1.6,1.6s.7,1.6,1.6,1.6h3.6v2c0,.9.7,1.6,1.6,1.6s1.6-.7,1.6-1.6v-2h.7c3.4,0,6.1-2.7,6.1-6.1s-2.8-6.1-6.1-6.1ZM117.6,75.9h-58.6c-.9,0-1.6.7-1.6,1.6s.7,1.6,1.6,1.6h58.6c.9,0,1.6-.7,1.6-1.6s-.7-1.6-1.6-1.6ZM59,24.9h48.9c.9,0,1.6-.7,1.6-1.6s-.7-1.6-1.6-1.6h-48.9c-.9,0-1.6.7-1.6,1.6s.7,1.6,1.6,1.6ZM59,61h44.7c.9,0,1.6-.7,1.6-1.6s-.7-1.6-1.6-1.6h-44.7c-.9,0-1.6.7-1.6,1.6s.7,1.6,1.6,1.6ZM59,42.9h41.5c.9,0,1.6-.7,1.6-1.6s-.7-1.6-1.6-1.6h-41.5c-.9,0-1.6.7-1.6,1.6s.7,1.6,1.6,1.6ZM136.5,65.5c11.3-1,20.1-10.7,20.1-22.1s-8.8-21-20.1-22.1h-.5V1.6c0-.9-.7-1.6-1.6-1.6H40.9c-.9,0-1.6.7-1.6,1.6v103.7c0,8.1,6.6,14.7,14.7,14.7h79.1c8.1,0,14.7-6.6,14.7-14.7v-7.9c0-.9-.7-1.6-1.6-1.6h-10.2v-30.3h.5ZM55.5,116.8h-1.5c-6.4,0-11.6-5.2-11.6-11.6V3.2h90.4v18.2h-.5c-11.3,1.1-20.1,10.8-20.1,22.1s8.8,21,20.1,22.1h.5v30.3h-64.2c-.9,0-1.6.7-1.6,1.6v7.9c0,6.4-5.2,11.6-11.6,11.6ZM144.7,99v6.3c0,6.4-5.2,11.6-11.6,11.6h-68.5l.9-.9c3-2.8,4.6-6.6,4.6-10.7v-6.3h74.5ZM134.5,62.4c-10.5,0-19-8.5-19-19s8.5-19,19-19,19,8.5,19,19-8.5,19-19,19ZM136.7,42h-4.4c-.8,0-1.6-.3-2.1-.9-.6-.6-.9-1.4-.9-2.2s.3-1.6.9-2.2c.6-.6,1.3-.9,2.2-.9h6.5c.9,0,1.6-.7,1.6-1.6s-.7-1.6-1.6-1.6h-2.8v-2c0-.9-.7-1.6-1.6-1.6s-1.6.7-1.6,1.6v2h-.5c-1.7,0-3.2.6-4.4,1.8-1.2,1.2-1.9,2.7-1.9,4.4s.7,3.2,1.9,4.4c1.2,1.2,2.7,1.8,4.4,1.8h4.4c1.6,0,3,1.3,3,2.9s-1.3,2.9-3,2.9h-7.5c-.9,0-1.6.7-1.6,1.6s.7,1.6,1.6,1.6h3.6v2c0,.9.7,1.6,1.6,1.6s1.6-.7,1.6-1.6v-2h.7c3.4,0,6.1-2.7,6.1-6.1s-2.8-6.1-6.1-6.1ZM119.2,77.4c0-.9-.7-1.6-1.6-1.6h-58.6c-.9,0-1.6.7-1.6,1.6s.7,1.6,1.6,1.6h58.6c.9,0,1.6-.7,1.6-1.6ZM59,24.9h48.9c.9,0,1.6-.7,1.6-1.6s-.7-1.6-1.6-1.6h-48.9c-.9,0-1.6.7-1.6,1.6s.7,1.6,1.6,1.6ZM59,61h44.7c.9,0,1.6-.7,1.6-1.6s-.7-1.6-1.6-1.6h-44.7c-.9,0-1.6.7-1.6,1.6s.7,1.6,1.6,1.6ZM59,42.9h41.5c.9,0,1.6-.7,1.6-1.6s-.7-1.6-1.6-1.6h-41.5c-.9,0-1.6.7-1.6,1.6s.7,1.6,1.6,1.6ZM100.5,39.7h-41.5c-.9,0-1.6.7-1.6,1.6s.7,1.6,1.6,1.6h41.5c.9,0,1.6-.7,1.6-1.6s-.7-1.6-1.6-1.6ZM103.8,57.8h-44.7c-.9,0-1.6.7-1.6,1.6s.7,1.6,1.6,1.6h44.7c.9,0,1.6-.7,1.6-1.6s-.7-1.6-1.6-1.6ZM107.9,21.7h-48.9c-.9,0-1.6.7-1.6,1.6s.7,1.6,1.6,1.6h48.9c.9,0,1.6-.7,1.6-1.6s-.7-1.6-1.6-1.6ZM117.6,75.9h-58.6c-.9,0-1.6.7-1.6,1.6s.7,1.6,1.6,1.6h58.6c.9,0,1.6-.7,1.6-1.6s-.7-1.6-1.6-1.6ZM136.7,42h-4.4c-.8,0-1.6-.3-2.1-.9-.6-.6-.9-1.4-.9-2.2s.3-1.6.9-2.2c.6-.6,1.3-.9,2.2-.9h6.5c.9,0,1.6-.7,1.6-1.6s-.7-1.6-1.6-1.6h-2.8v-2c0-.9-.7-1.6-1.6-1.6s-1.6.7-1.6,1.6v2h-.5c-1.7,0-3.2.6-4.4,1.8-1.2,1.2-1.9,2.7-1.9,4.4s.7,3.2,1.9,4.4c1.2,1.2,2.7,1.8,4.4,1.8h4.4c1.6,0,3,1.3,3,2.9s-1.3,2.9-3,2.9h-7.5c-.9,0-1.6.7-1.6,1.6s.7,1.6,1.6,1.6h3.6v2c0,.9.7,1.6,1.6,1.6s1.6-.7,1.6-1.6v-2h.7c3.4,0,6.1-2.7,6.1-6.1s-2.8-6.1-6.1-6.1ZM136.7,42h-4.4c-.8,0-1.6-.3-2.1-.9-.6-.6-.9-1.4-.9-2.2s.3-1.6.9-2.2c.6-.6,1.3-.9,2.2-.9h6.5c.9,0,1.6-.7,1.6-1.6s-.7-1.6-1.6-1.6h-2.8v-2c0-.9-.7-1.6-1.6-1.6s-1.6.7-1.6,1.6v2h-.5c-1.7,0-3.2.6-4.4,1.8-1.2,1.2-1.9,2.7-1.9,4.4s.7,3.2,1.9,4.4c1.2,1.2,2.7,1.8,4.4,1.8h4.4c1.6,0,3,1.3,3,2.9s-1.3,2.9-3,2.9h-7.5c-.9,0-1.6.7-1.6,1.6s.7,1.6,1.6,1.6h3.6v2c0,.9.7,1.6,1.6,1.6s1.6-.7,1.6-1.6v-2h.7c3.4,0,6.1-2.7,6.1-6.1s-2.8-6.1-6.1-6.1ZM117.6,75.9h-58.6c-.9,0-1.6.7-1.6,1.6s.7,1.6,1.6,1.6h58.6c.9,0,1.6-.7,1.6-1.6s-.7-1.6-1.6-1.6ZM107.9,21.7h-48.9c-.9,0-1.6.7-1.6,1.6s.7,1.6,1.6,1.6h48.9c.9,0,1.6-.7,1.6-1.6s-.7-1.6-1.6-1.6ZM103.8,57.8h-44.7c-.9,0-1.6.7-1.6,1.6s.7,1.6,1.6,1.6h44.7c.9,0,1.6-.7,1.6-1.6s-.7-1.6-1.6-1.6ZM100.5,39.7h-41.5c-.9,0-1.6.7-1.6,1.6s.7,1.6,1.6,1.6h41.5c.9,0,1.6-.7,1.6-1.6s-.7-1.6-1.6-1.6ZM100.5,39.7h-41.5c-.9,0-1.6.7-1.6,1.6s.7,1.6,1.6,1.6h41.5c.9,0,1.6-.7,1.6-1.6s-.7-1.6-1.6-1.6ZM103.8,57.8h-44.7c-.9,0-1.6.7-1.6,1.6s.7,1.6,1.6,1.6h44.7c.9,0,1.6-.7,1.6-1.6s-.7-1.6-1.6-1.6ZM107.9,21.7h-48.9c-.9,0-1.6.7-1.6,1.6s.7,1.6,1.6,1.6h48.9c.9,0,1.6-.7,1.6-1.6s-.7-1.6-1.6-1.6ZM117.6,75.9h-58.6c-.9,0-1.6.7-1.6,1.6s.7,1.6,1.6,1.6h58.6c.9,0,1.6-.7,1.6-1.6s-.7-1.6-1.6-1.6ZM136.7,42h-4.4c-.8,0-1.6-.3-2.1-.9-.6-.6-.9-1.4-.9-2.2s.3-1.6.9-2.2c.6-.6,1.3-.9,2.2-.9h6.5c.9,0,1.6-.7,1.6-1.6s-.7-1.6-1.6-1.6h-2.8v-2c0-.9-.7-1.6-1.6-1.6s-1.6.7-1.6,1.6v2h-.5c-1.7,0-3.2.6-4.4,1.8-1.2,1.2-1.9,2.7-1.9,4.4s.7,3.2,1.9,4.4c1.2,1.2,2.7,1.8,4.4,1.8h4.4c1.6,0,3,1.3,3,2.9s-1.3,2.9-3,2.9h-7.5c-.9,0-1.6.7-1.6,1.6s.7,1.6,1.6,1.6h3.6v2c0,.9.7,1.6,1.6,1.6s1.6-.7,1.6-1.6v-2h.7c3.4,0,6.1-2.7,6.1-6.1s-2.8-6.1-6.1-6.1ZM136.7,42h-4.4c-.8,0-1.6-.3-2.1-.9-.6-.6-.9-1.4-.9-2.2s.3-1.6.9-2.2c.6-.6,1.3-.9,2.2-.9h6.5c.9,0,1.6-.7,1.6-1.6s-.7-1.6-1.6-1.6h-2.8v-2c0-.9-.7-1.6-1.6-1.6s-1.6.7-1.6,1.6v2h-.5c-1.7,0-3.2.6-4.4,1.8-1.2,1.2-1.9,2.7-1.9,4.4s.7,3.2,1.9,4.4c1.2,1.2,2.7,1.8,4.4,1.8h4.4c1.6,0,3,1.3,3,2.9s-1.3,2.9-3,2.9h-7.5c-.9,0-1.6.7-1.6,1.6s.7,1.6,1.6,1.6h3.6v2c0,.9.7,1.6,1.6,1.6s1.6-.7,1.6-1.6v-2h.7c3.4,0,6.1-2.7,6.1-6.1s-2.8-6.1-6.1-6.1ZM117.6,75.9h-58.6c-.9,0-1.6.7-1.6,1.6s.7,1.6,1.6,1.6h58.6c.9,0,1.6-.7,1.6-1.6s-.7-1.6-1.6-1.6ZM107.9,21.7h-48.9c-.9,0-1.6.7-1.6,1.6s.7,1.6,1.6,1.6h48.9c.9,0,1.6-.7,1.6-1.6s-.7-1.6-1.6-1.6ZM103.8,57.8h-44.7c-.9,0-1.6.7-1.6,1.6s.7,1.6,1.6,1.6h44.7c.9,0,1.6-.7,1.6-1.6s-.7-1.6-1.6-1.6ZM100.5,39.7h-41.5c-.9,0-1.6.7-1.6,1.6s.7,1.6,1.6,1.6h41.5c.9,0,1.6-.7,1.6-1.6s-.7-1.6-1.6-1.6ZM100.5,39.7h-41.5c-.9,0-1.6.7-1.6,1.6s.7,1.6,1.6,1.6h41.5c.9,0,1.6-.7,1.6-1.6s-.7-1.6-1.6-1.6ZM103.8,57.8h-44.7c-.9,0-1.6.7-1.6,1.6s.7,1.6,1.6,1.6h44.7c.9,0,1.6-.7,1.6-1.6s-.7-1.6-1.6-1.6ZM107.9,21.7h-48.9c-.9,0-1.6.7-1.6,1.6s.7,1.6,1.6,1.6h48.9c.9,0,1.6-.7,1.6-1.6s-.7-1.6-1.6-1.6ZM117.6,75.9h-58.6c-.9,0-1.6.7-1.6,1.6s.7,1.6,1.6,1.6h58.6c.9,0,1.6-.7,1.6-1.6s-.7-1.6-1.6-1.6ZM136.7,42h-4.4c-.8,0-1.6-.3-2.1-.9-.6-.6-.9-1.4-.9-2.2s.3-1.6.9-2.2c.6-.6,1.3-.9,2.2-.9h6.5c.9,0,1.6-.7,1.6-1.6s-.7-1.6-1.6-1.6h-2.8v-2c0-.9-.7-1.6-1.6-1.6s-1.6.7-1.6,1.6v2h-.5c-1.7,0-3.2.6-4.4,1.8-1.2,1.2-1.9,2.7-1.9,4.4s.7,3.2,1.9,4.4c1.2,1.2,2.7,1.8,4.4,1.8h4.4c1.6,0,3,1.3,3,2.9s-1.3,2.9-3,2.9h-7.5c-.9,0-1.6.7-1.6,1.6s.7,1.6,1.6,1.6h3.6v2c0,.9.7,1.6,1.6,1.6s1.6-.7,1.6-1.6v-2h.7c3.4,0,6.1-2.7,6.1-6.1s-2.8-6.1-6.1-6.1ZM136.7,42h-4.4c-.8,0-1.6-.3-2.1-.9-.6-.6-.9-1.4-.9-2.2s.3-1.6.9-2.2c.6-.6,1.3-.9,2.2-.9h6.5c.9,0,1.6-.7,1.6-1.6s-.7-1.6-1.6-1.6h-2.8v-2c0-.9-.7-1.6-1.6-1.6s-1.6.7-1.6,1.6v2h-.5c-1.7,0-3.2.6-4.4,1.8-1.2,1.2-1.9,2.7-1.9,4.4s.7,3.2,1.9,4.4c1.2,1.2,2.7,1.8,4.4,1.8h4.4c1.6,0,3,1.3,3,2.9s-1.3,2.9-3,2.9h-7.5c-.9,0-1.6.7-1.6,1.6s.7,1.6,1.6,1.6h3.6v2c0,.9.7,1.6,1.6,1.6s1.6-.7,1.6-1.6v-2h.7c3.4,0,6.1-2.7,6.1-6.1s-2.8-6.1-6.1-6.1ZM117.6,75.9h-58.6c-.9,0-1.6.7-1.6,1.6s.7,1.6,1.6,1.6h58.6c.9,0,1.6-.7,1.6-1.6s-.7-1.6-1.6-1.6ZM107.9,21.7h-48.9c-.9,0-1.6.7-1.6,1.6s.7,1.6,1.6,1.6h48.9c.9,0,1.6-.7,1.6-1.6s-.7-1.6-1.6-1.6ZM103.8,57.8h-44.7c-.9,0-1.6.7-1.6,1.6s.7,1.6,1.6,1.6h44.7c.9,0,1.6-.7,1.6-1.6s-.7-1.6-1.6-1.6ZM100.5,39.7h-41.5c-.9,0-1.6.7-1.6,1.6s.7,1.6,1.6,1.6h41.5c.9,0,1.6-.7,1.6-1.6s-.7-1.6-1.6-1.6ZM100.5,39.7h-41.5c-.9,0-1.6.7-1.6,1.6s.7,1.6,1.6,1.6h41.5c.9,0,1.6-.7,1.6-1.6s-.7-1.6-1.6-1.6ZM103.8,57.8h-44.7c-.9,0-1.6.7-1.6,1.6s.7,1.6,1.6,1.6h44.7c.9,0,1.6-.7,1.6-1.6s-.7-1.6-1.6-1.6ZM107.9,21.7h-48.9c-.9,0-1.6.7-1.6,1.6s.7,1.6,1.6,1.6h48.9c.9,0,1.6-.7,1.6-1.6s-.7-1.6-1.6-1.6ZM117.6,75.9h-58.6c-.9,0-1.6.7-1.6,1.6s.7,1.6,1.6,1.6h58.6c.9,0,1.6-.7,1.6-1.6s-.7-1.6-1.6-1.6ZM136.7,42h-4.4c-.8,0-1.6-.3-2.1-.9-.6-.6-.9-1.4-.9-2.2s.3-1.6.9-2.2c.6-.6,1.3-.9,2.2-.9h6.5c.9,0,1.6-.7,1.6-1.6s-.7-1.6-1.6-1.6h-2.8v-2c0-.9-.7-1.6-1.6-1.6s-1.6.7-1.6,1.6v2h-.5c-1.7,0-3.2.6-4.4,1.8-1.2,1.2-1.9,2.7-1.9,4.4s.7,3.2,1.9,4.4c1.2,1.2,2.7,1.8,4.4,1.8h4.4c1.6,0,3,1.3,3,2.9s-1.3,2.9-3,2.9h-7.5c-.9,0-1.6.7-1.6,1.6s.7,1.6,1.6,1.6h3.6v2c0,.9.7,1.6,1.6,1.6s1.6-.7,1.6-1.6v-2h.7c3.4,0,6.1-2.7,6.1-6.1s-2.8-6.1-6.1-6.1ZM136.7,42h-4.4c-.8,0-1.6-.3-2.1-.9-.6-.6-.9-1.4-.9-2.2s.3-1.6.9-2.2c.6-.6,1.3-.9,2.2-.9h6.5c.9,0,1.6-.7,1.6-1.6s-.7-1.6-1.6-1.6h-2.8v-2c0-.9-.7-1.6-1.6-1.6s-1.6.7-1.6,1.6v2h-.5c-1.7,0-3.2.6-4.4,1.8-1.2,1.2-1.9,2.7-1.9,4.4s.7,3.2,1.9,4.4c1.2,1.2,2.7,1.8,4.4,1.8h4.4c1.6,0,3,1.3,3,2.9s-1.3,2.9-3,2.9h-7.5c-.9,0-1.6.7-1.6,1.6s.7,1.6,1.6,1.6h3.6v2c0,.9.7,1.6,1.6,1.6s1.6-.7,1.6-1.6v-2h.7c3.4,0,6.1-2.7,6.1-6.1s-2.8-6.1-6.1-6.1ZM117.6,75.9h-58.6c-.9,0-1.6.7-1.6,1.6s.7,1.6,1.6,1.6h58.6c.9,0,1.6-.7,1.6-1.6s-.7-1.6-1.6-1.6ZM107.9,21.7h-48.9c-.9,0-1.6.7-1.6,1.6s.7,1.6,1.6,1.6h48.9c.9,0,1.6-.7,1.6-1.6s-.7-1.6-1.6-1.6ZM103.8,57.8h-44.7c-.9,0-1.6.7-1.6,1.6s.7,1.6,1.6,1.6h44.7c.9,0,1.6-.7,1.6-1.6s-.7-1.6-1.6-1.6ZM100.5,39.7h-41.5c-.9,0-1.6.7-1.6,1.6s.7,1.6,1.6,1.6h41.5c.9,0,1.6-.7,1.6-1.6s-.7-1.6-1.6-1.6Z"/>
            <path class="cls-10" d="M107.9,21.7h-48.9c-.9,0-1.6.7-1.6,1.6s.7,1.6,1.6,1.6h48.9c.9,0,1.6-.7,1.6-1.6s-.7-1.6-1.6-1.6ZM100.5,39.7h-41.5c-.9,0-1.6.7-1.6,1.6s.7,1.6,1.6,1.6h41.5c.9,0,1.6-.7,1.6-1.6s-.7-1.6-1.6-1.6ZM136.7,42h-4.4c-.8,0-1.6-.3-2.1-.9-.6-.6-.9-1.4-.9-2.2s.3-1.6.9-2.2c.6-.6,1.3-.9,2.2-.9h6.5c.9,0,1.6-.7,1.6-1.6s-.7-1.6-1.6-1.6h-2.8v-2c0-.9-.7-1.6-1.6-1.6s-1.6.7-1.6,1.6v2h-.5c-1.7,0-3.2.6-4.4,1.8-1.2,1.2-1.9,2.7-1.9,4.4s.7,3.2,1.9,4.4c1.2,1.2,2.7,1.8,4.4,1.8h4.4c1.6,0,3,1.3,3,2.9s-1.3,2.9-3,2.9h-7.5c-.9,0-1.6.7-1.6,1.6s.7,1.6,1.6,1.6h3.6v2c0,.9.7,1.6,1.6,1.6s1.6-.7,1.6-1.6v-2h.7c3.4,0,6.1-2.7,6.1-6.1s-2.8-6.1-6.1-6.1ZM103.8,57.8h-44.7c-.9,0-1.6.7-1.6,1.6s.7,1.6,1.6,1.6h44.7c.9,0,1.6-.7,1.6-1.6s-.7-1.6-1.6-1.6ZM117.6,75.9h-58.6c-.9,0-1.6.7-1.6,1.6s.7,1.6,1.6,1.6h58.6c.9,0,1.6-.7,1.6-1.6s-.7-1.6-1.6-1.6ZM136.7,42h-4.4c-.8,0-1.6-.3-2.1-.9-.6-.6-.9-1.4-.9-2.2s.3-1.6.9-2.2c.6-.6,1.3-.9,2.2-.9h6.5c.9,0,1.6-.7,1.6-1.6s-.7-1.6-1.6-1.6h-2.8v-2c0-.9-.7-1.6-1.6-1.6s-1.6.7-1.6,1.6v2h-.5c-1.7,0-3.2.6-4.4,1.8-1.2,1.2-1.9,2.7-1.9,4.4s.7,3.2,1.9,4.4c1.2,1.2,2.7,1.8,4.4,1.8h4.4c1.6,0,3,1.3,3,2.9s-1.3,2.9-3,2.9h-7.5c-.9,0-1.6.7-1.6,1.6s.7,1.6,1.6,1.6h3.6v2c0,.9.7,1.6,1.6,1.6s1.6-.7,1.6-1.6v-2h.7c3.4,0,6.1-2.7,6.1-6.1s-2.8-6.1-6.1-6.1ZM117.6,75.9h-58.6c-.9,0-1.6.7-1.6,1.6s.7,1.6,1.6,1.6h58.6c.9,0,1.6-.7,1.6-1.6s-.7-1.6-1.6-1.6ZM107.9,21.7h-48.9c-.9,0-1.6.7-1.6,1.6s.7,1.6,1.6,1.6h48.9c.9,0,1.6-.7,1.6-1.6s-.7-1.6-1.6-1.6ZM103.8,57.8h-44.7c-.9,0-1.6.7-1.6,1.6s.7,1.6,1.6,1.6h44.7c.9,0,1.6-.7,1.6-1.6s-.7-1.6-1.6-1.6ZM100.5,39.7h-41.5c-.9,0-1.6.7-1.6,1.6s.7,1.6,1.6,1.6h41.5c.9,0,1.6-.7,1.6-1.6s-.7-1.6-1.6-1.6ZM100.5,39.7h-41.5c-.9,0-1.6.7-1.6,1.6s.7,1.6,1.6,1.6h41.5c.9,0,1.6-.7,1.6-1.6s-.7-1.6-1.6-1.6ZM103.8,57.8h-44.7c-.9,0-1.6.7-1.6,1.6s.7,1.6,1.6,1.6h44.7c.9,0,1.6-.7,1.6-1.6s-.7-1.6-1.6-1.6ZM107.9,21.7h-48.9c-.9,0-1.6.7-1.6,1.6s.7,1.6,1.6,1.6h48.9c.9,0,1.6-.7,1.6-1.6s-.7-1.6-1.6-1.6ZM117.6,75.9h-58.6c-.9,0-1.6.7-1.6,1.6s.7,1.6,1.6,1.6h58.6c.9,0,1.6-.7,1.6-1.6s-.7-1.6-1.6-1.6ZM136.7,42h-4.4c-.8,0-1.6-.3-2.1-.9-.6-.6-.9-1.4-.9-2.2s.3-1.6.9-2.2c.6-.6,1.3-.9,2.2-.9h6.5c.9,0,1.6-.7,1.6-1.6s-.7-1.6-1.6-1.6h-2.8v-2c0-.9-.7-1.6-1.6-1.6s-1.6.7-1.6,1.6v2h-.5c-1.7,0-3.2.6-4.4,1.8-1.2,1.2-1.9,2.7-1.9,4.4s.7,3.2,1.9,4.4c1.2,1.2,2.7,1.8,4.4,1.8h4.4c1.6,0,3,1.3,3,2.9s-1.3,2.9-3,2.9h-7.5c-.9,0-1.6.7-1.6,1.6s.7,1.6,1.6,1.6h3.6v2c0,.9.7,1.6,1.6,1.6s1.6-.7,1.6-1.6v-2h.7c3.4,0,6.1-2.7,6.1-6.1s-2.8-6.1-6.1-6.1ZM136.7,42h-4.4c-.8,0-1.6-.3-2.1-.9-.6-.6-.9-1.4-.9-2.2s.3-1.6.9-2.2c.6-.6,1.3-.9,2.2-.9h6.5c.9,0,1.6-.7,1.6-1.6s-.7-1.6-1.6-1.6h-2.8v-2c0-.9-.7-1.6-1.6-1.6s-1.6.7-1.6,1.6v2h-.5c-1.7,0-3.2.6-4.4,1.8-1.2,1.2-1.9,2.7-1.9,4.4s.7,3.2,1.9,4.4c1.2,1.2,2.7,1.8,4.4,1.8h4.4c1.6,0,3,1.3,3,2.9s-1.3,2.9-3,2.9h-7.5c-.9,0-1.6.7-1.6,1.6s.7,1.6,1.6,1.6h3.6v2c0,.9.7,1.6,1.6,1.6s1.6-.7,1.6-1.6v-2h.7c3.4,0,6.1-2.7,6.1-6.1s-2.8-6.1-6.1-6.1ZM117.6,75.9h-58.6c-.9,0-1.6.7-1.6,1.6s.7,1.6,1.6,1.6h58.6c.9,0,1.6-.7,1.6-1.6s-.7-1.6-1.6-1.6ZM107.9,21.7h-48.9c-.9,0-1.6.7-1.6,1.6s.7,1.6,1.6,1.6h48.9c.9,0,1.6-.7,1.6-1.6s-.7-1.6-1.6-1.6ZM103.8,57.8h-44.7c-.9,0-1.6.7-1.6,1.6s.7,1.6,1.6,1.6h44.7c.9,0,1.6-.7,1.6-1.6s-.7-1.6-1.6-1.6ZM100.5,39.7h-41.5c-.9,0-1.6.7-1.6,1.6s.7,1.6,1.6,1.6h41.5c.9,0,1.6-.7,1.6-1.6s-.7-1.6-1.6-1.6ZM100.5,39.7h-41.5c-.9,0-1.6.7-1.6,1.6s.7,1.6,1.6,1.6h41.5c.9,0,1.6-.7,1.6-1.6s-.7-1.6-1.6-1.6ZM103.8,57.8h-44.7c-.9,0-1.6.7-1.6,1.6s.7,1.6,1.6,1.6h44.7c.9,0,1.6-.7,1.6-1.6s-.7-1.6-1.6-1.6ZM107.9,21.7h-48.9c-.9,0-1.6.7-1.6,1.6s.7,1.6,1.6,1.6h48.9c.9,0,1.6-.7,1.6-1.6s-.7-1.6-1.6-1.6ZM117.6,75.9h-58.6c-.9,0-1.6.7-1.6,1.6s.7,1.6,1.6,1.6h58.6c.9,0,1.6-.7,1.6-1.6s-.7-1.6-1.6-1.6ZM136.7,42h-4.4c-.8,0-1.6-.3-2.1-.9-.6-.6-.9-1.4-.9-2.2s.3-1.6.9-2.2c.6-.6,1.3-.9,2.2-.9h6.5c.9,0,1.6-.7,1.6-1.6s-.7-1.6-1.6-1.6h-2.8v-2c0-.9-.7-1.6-1.6-1.6s-1.6.7-1.6,1.6v2h-.5c-1.7,0-3.2.6-4.4,1.8-1.2,1.2-1.9,2.7-1.9,4.4s.7,3.2,1.9,4.4c1.2,1.2,2.7,1.8,4.4,1.8h4.4c1.6,0,3,1.3,3,2.9s-1.3,2.9-3,2.9h-7.5c-.9,0-1.6.7-1.6,1.6s.7,1.6,1.6,1.6h3.6v2c0,.9.7,1.6,1.6,1.6s1.6-.7,1.6-1.6v-2h.7c3.4,0,6.1-2.7,6.1-6.1s-2.8-6.1-6.1-6.1ZM136.7,42h-4.4c-.8,0-1.6-.3-2.1-.9-.6-.6-.9-1.4-.9-2.2s.3-1.6.9-2.2c.6-.6,1.3-.9,2.2-.9h6.5c.9,0,1.6-.7,1.6-1.6s-.7-1.6-1.6-1.6h-2.8v-2c0-.9-.7-1.6-1.6-1.6s-1.6.7-1.6,1.6v2h-.5c-1.7,0-3.2.6-4.4,1.8-1.2,1.2-1.9,2.7-1.9,4.4s.7,3.2,1.9,4.4c1.2,1.2,2.7,1.8,4.4,1.8h4.4c1.6,0,3,1.3,3,2.9s-1.3,2.9-3,2.9h-7.5c-.9,0-1.6.7-1.6,1.6s.7,1.6,1.6,1.6h3.6v2c0,.9.7,1.6,1.6,1.6s1.6-.7,1.6-1.6v-2h.7c3.4,0,6.1-2.7,6.1-6.1s-2.8-6.1-6.1-6.1ZM117.6,75.9h-58.6c-.9,0-1.6.7-1.6,1.6s.7,1.6,1.6,1.6h58.6c.9,0,1.6-.7,1.6-1.6s-.7-1.6-1.6-1.6ZM107.9,21.7h-48.9c-.9,0-1.6.7-1.6,1.6s.7,1.6,1.6,1.6h48.9c.9,0,1.6-.7,1.6-1.6s-.7-1.6-1.6-1.6ZM103.8,57.8h-44.7c-.9,0-1.6.7-1.6,1.6s.7,1.6,1.6,1.6h44.7c.9,0,1.6-.7,1.6-1.6s-.7-1.6-1.6-1.6ZM100.5,39.7h-41.5c-.9,0-1.6.7-1.6,1.6s.7,1.6,1.6,1.6h41.5c.9,0,1.6-.7,1.6-1.6s-.7-1.6-1.6-1.6ZM100.5,39.7h-41.5c-.9,0-1.6.7-1.6,1.6s.7,1.6,1.6,1.6h41.5c.9,0,1.6-.7,1.6-1.6s-.7-1.6-1.6-1.6ZM103.8,57.8h-44.7c-.9,0-1.6.7-1.6,1.6s.7,1.6,1.6,1.6h44.7c.9,0,1.6-.7,1.6-1.6s-.7-1.6-1.6-1.6ZM107.9,21.7h-48.9c-.9,0-1.6.7-1.6,1.6s.7,1.6,1.6,1.6h48.9c.9,0,1.6-.7,1.6-1.6s-.7-1.6-1.6-1.6ZM117.6,75.9h-58.6c-.9,0-1.6.7-1.6,1.6s.7,1.6,1.6,1.6h58.6c.9,0,1.6-.7,1.6-1.6s-.7-1.6-1.6-1.6ZM136.7,42h-4.4c-.8,0-1.6-.3-2.1-.9-.6-.6-.9-1.4-.9-2.2s.3-1.6.9-2.2c.6-.6,1.3-.9,2.2-.9h6.5c.9,0,1.6-.7,1.6-1.6s-.7-1.6-1.6-1.6h-2.8v-2c0-.9-.7-1.6-1.6-1.6s-1.6.7-1.6,1.6v2h-.5c-1.7,0-3.2.6-4.4,1.8-1.2,1.2-1.9,2.7-1.9,4.4s.7,3.2,1.9,4.4c1.2,1.2,2.7,1.8,4.4,1.8h4.4c1.6,0,3,1.3,3,2.9s-1.3,2.9-3,2.9h-7.5c-.9,0-1.6.7-1.6,1.6s.7,1.6,1.6,1.6h3.6v2c0,.9.7,1.6,1.6,1.6s1.6-.7,1.6-1.6v-2h.7c3.4,0,6.1-2.7,6.1-6.1s-2.8-6.1-6.1-6.1ZM136.7,42h-4.4c-.8,0-1.6-.3-2.1-.9-.6-.6-.9-1.4-.9-2.2s.3-1.6.9-2.2c.6-.6,1.3-.9,2.2-.9h6.5c.9,0,1.6-.7,1.6-1.6s-.7-1.6-1.6-1.6h-2.8v-2c0-.9-.7-1.6-1.6-1.6s-1.6.7-1.6,1.6v2h-.5c-1.7,0-3.2.6-4.4,1.8-1.2,1.2-1.9,2.7-1.9,4.4s.7,3.2,1.9,4.4c1.2,1.2,2.7,1.8,4.4,1.8h4.4c1.6,0,3,1.3,3,2.9s-1.3,2.9-3,2.9h-7.5c-.9,0-1.6.7-1.6,1.6s.7,1.6,1.6,1.6h3.6v2c0,.9.7,1.6,1.6,1.6s1.6-.7,1.6-1.6v-2h.7c3.4,0,6.1-2.7,6.1-6.1s-2.8-6.1-6.1-6.1ZM117.6,75.9h-58.6c-.9,0-1.6.7-1.6,1.6s.7,1.6,1.6,1.6h58.6c.9,0,1.6-.7,1.6-1.6s-.7-1.6-1.6-1.6ZM107.9,21.7h-48.9c-.9,0-1.6.7-1.6,1.6s.7,1.6,1.6,1.6h48.9c.9,0,1.6-.7,1.6-1.6s-.7-1.6-1.6-1.6ZM103.8,57.8h-44.7c-.9,0-1.6.7-1.6,1.6s.7,1.6,1.6,1.6h44.7c.9,0,1.6-.7,1.6-1.6s-.7-1.6-1.6-1.6ZM100.5,39.7h-41.5c-.9,0-1.6.7-1.6,1.6s.7,1.6,1.6,1.6h41.5c.9,0,1.6-.7,1.6-1.6s-.7-1.6-1.6-1.6ZM100.5,39.7h-41.5c-.9,0-1.6.7-1.6,1.6s.7,1.6,1.6,1.6h41.5c.9,0,1.6-.7,1.6-1.6s-.7-1.6-1.6-1.6ZM103.8,57.8h-44.7c-.9,0-1.6.7-1.6,1.6s.7,1.6,1.6,1.6h44.7c.9,0,1.6-.7,1.6-1.6s-.7-1.6-1.6-1.6ZM107.9,21.7h-48.9c-.9,0-1.6.7-1.6,1.6s.7,1.6,1.6,1.6h48.9c.9,0,1.6-.7,1.6-1.6s-.7-1.6-1.6-1.6ZM117.6,75.9h-58.6c-.9,0-1.6.7-1.6,1.6s.7,1.6,1.6,1.6h58.6c.9,0,1.6-.7,1.6-1.6s-.7-1.6-1.6-1.6ZM136.7,42h-4.4c-.8,0-1.6-.3-2.1-.9-.6-.6-.9-1.4-.9-2.2s.3-1.6.9-2.2c.6-.6,1.3-.9,2.2-.9h6.5c.9,0,1.6-.7,1.6-1.6s-.7-1.6-1.6-1.6h-2.8v-2c0-.9-.7-1.6-1.6-1.6s-1.6.7-1.6,1.6v2h-.5c-1.7,0-3.2.6-4.4,1.8-1.2,1.2-1.9,2.7-1.9,4.4s.7,3.2,1.9,4.4c1.2,1.2,2.7,1.8,4.4,1.8h4.4c1.6,0,3,1.3,3,2.9s-1.3,2.9-3,2.9h-7.5c-.9,0-1.6.7-1.6,1.6s.7,1.6,1.6,1.6h3.6v2c0,.9.7,1.6,1.6,1.6s1.6-.7,1.6-1.6v-2h.7c3.4,0,6.1-2.7,6.1-6.1s-2.8-6.1-6.1-6.1ZM136.7,42h-4.4c-.8,0-1.6-.3-2.1-.9-.6-.6-.9-1.4-.9-2.2s.3-1.6.9-2.2c.6-.6,1.3-.9,2.2-.9h6.5c.9,0,1.6-.7,1.6-1.6s-.7-1.6-1.6-1.6h-2.8v-2c0-.9-.7-1.6-1.6-1.6s-1.6.7-1.6,1.6v2h-.5c-1.7,0-3.2.6-4.4,1.8-1.2,1.2-1.9,2.7-1.9,4.4s.7,3.2,1.9,4.4c1.2,1.2,2.7,1.8,4.4,1.8h4.4c1.6,0,3,1.3,3,2.9s-1.3,2.9-3,2.9h-7.5c-.9,0-1.6.7-1.6,1.6s.7,1.6,1.6,1.6h3.6v2c0,.9.7,1.6,1.6,1.6s1.6-.7,1.6-1.6v-2h.7c3.4,0,6.1-2.7,6.1-6.1s-2.8-6.1-6.1-6.1ZM117.6,75.9h-58.6c-.9,0-1.6.7-1.6,1.6s.7,1.6,1.6,1.6h58.6c.9,0,1.6-.7,1.6-1.6s-.7-1.6-1.6-1.6ZM59,24.9h48.9c.9,0,1.6-.7,1.6-1.6s-.7-1.6-1.6-1.6h-48.9c-.9,0-1.6.7-1.6,1.6s.7,1.6,1.6,1.6ZM59,61h44.7c.9,0,1.6-.7,1.6-1.6s-.7-1.6-1.6-1.6h-44.7c-.9,0-1.6.7-1.6,1.6s.7,1.6,1.6,1.6ZM59,42.9h41.5c.9,0,1.6-.7,1.6-1.6s-.7-1.6-1.6-1.6h-41.5c-.9,0-1.6.7-1.6,1.6s.7,1.6,1.6,1.6ZM136.5,65.5c11.3-1,20.1-10.7,20.1-22.1s-8.8-21-20.1-22.1h-.5V1.6c0-.9-.7-1.6-1.6-1.6H40.9c-.9,0-1.6.7-1.6,1.6v103.7c0,8.1,6.6,14.7,14.7,14.7h79.1c8.1,0,14.7-6.6,14.7-14.7v-7.9c0-.9-.7-1.6-1.6-1.6h-10.2v-30.3h.5ZM55.5,116.8h-1.5c-6.4,0-11.6-5.2-11.6-11.6V3.2h90.4v18.2h-.5c-11.3,1.1-20.1,10.8-20.1,22.1s8.8,21,20.1,22.1h.5v30.3h-64.2c-.9,0-1.6.7-1.6,1.6v7.9c0,6.4-5.2,11.6-11.6,11.6ZM144.7,99v6.3c0,6.4-5.2,11.6-11.6,11.6h-68.5l.9-.9c3-2.8,4.6-6.6,4.6-10.7v-6.3h74.5ZM134.5,62.4c-10.5,0-19-8.5-19-19s8.5-19,19-19,19,8.5,19,19-8.5,19-19,19ZM136.7,42h-4.4c-.8,0-1.6-.3-2.1-.9-.6-.6-.9-1.4-.9-2.2s.3-1.6.9-2.2c.6-.6,1.3-.9,2.2-.9h6.5c.9,0,1.6-.7,1.6-1.6s-.7-1.6-1.6-1.6h-2.8v-2c0-.9-.7-1.6-1.6-1.6s-1.6.7-1.6,1.6v2h-.5c-1.7,0-3.2.6-4.4,1.8-1.2,1.2-1.9,2.7-1.9,4.4s.7,3.2,1.9,4.4c1.2,1.2,2.7,1.8,4.4,1.8h4.4c1.6,0,3,1.3,3,2.9s-1.3,2.9-3,2.9h-7.5c-.9,0-1.6.7-1.6,1.6s.7,1.6,1.6,1.6h3.6v2c0,.9.7,1.6,1.6,1.6s1.6-.7,1.6-1.6v-2h.7c3.4,0,6.1-2.7,6.1-6.1s-2.8-6.1-6.1-6.1ZM119.2,77.4c0-.9-.7-1.6-1.6-1.6h-58.6c-.9,0-1.6.7-1.6,1.6s.7,1.6,1.6,1.6h58.6c.9,0,1.6-.7,1.6-1.6ZM59,24.9h48.9c.9,0,1.6-.7,1.6-1.6s-.7-1.6-1.6-1.6h-48.9c-.9,0-1.6.7-1.6,1.6s.7,1.6,1.6,1.6ZM59,61h44.7c.9,0,1.6-.7,1.6-1.6s-.7-1.6-1.6-1.6h-44.7c-.9,0-1.6.7-1.6,1.6s.7,1.6,1.6,1.6ZM59,42.9h41.5c.9,0,1.6-.7,1.6-1.6s-.7-1.6-1.6-1.6h-41.5c-.9,0-1.6.7-1.6,1.6s.7,1.6,1.6,1.6ZM100.5,39.7h-41.5c-.9,0-1.6.7-1.6,1.6s.7,1.6,1.6,1.6h41.5c.9,0,1.6-.7,1.6-1.6s-.7-1.6-1.6-1.6ZM103.8,57.8h-44.7c-.9,0-1.6.7-1.6,1.6s.7,1.6,1.6,1.6h44.7c.9,0,1.6-.7,1.6-1.6s-.7-1.6-1.6-1.6ZM107.9,21.7h-48.9c-.9,0-1.6.7-1.6,1.6s.7,1.6,1.6,1.6h48.9c.9,0,1.6-.7,1.6-1.6s-.7-1.6-1.6-1.6ZM117.6,75.9h-58.6c-.9,0-1.6.7-1.6,1.6s.7,1.6,1.6,1.6h58.6c.9,0,1.6-.7,1.6-1.6s-.7-1.6-1.6-1.6ZM136.7,42h-4.4c-.8,0-1.6-.3-2.1-.9-.6-.6-.9-1.4-.9-2.2s.3-1.6.9-2.2c.6-.6,1.3-.9,2.2-.9h6.5c.9,0,1.6-.7,1.6-1.6s-.7-1.6-1.6-1.6h-2.8v-2c0-.9-.7-1.6-1.6-1.6s-1.6.7-1.6,1.6v2h-.5c-1.7,0-3.2.6-4.4,1.8-1.2,1.2-1.9,2.7-1.9,4.4s.7,3.2,1.9,4.4c1.2,1.2,2.7,1.8,4.4,1.8h4.4c1.6,0,3,1.3,3,2.9s-1.3,2.9-3,2.9h-7.5c-.9,0-1.6.7-1.6,1.6s.7,1.6,1.6,1.6h3.6v2c0,.9.7,1.6,1.6,1.6s1.6-.7,1.6-1.6v-2h.7c3.4,0,6.1-2.7,6.1-6.1s-2.8-6.1-6.1-6.1ZM136.7,42h-4.4c-.8,0-1.6-.3-2.1-.9-.6-.6-.9-1.4-.9-2.2s.3-1.6.9-2.2c.6-.6,1.3-.9,2.2-.9h6.5c.9,0,1.6-.7,1.6-1.6s-.7-1.6-1.6-1.6h-2.8v-2c0-.9-.7-1.6-1.6-1.6s-1.6.7-1.6,1.6v2h-.5c-1.7,0-3.2.6-4.4,1.8-1.2,1.2-1.9,2.7-1.9,4.4s.7,3.2,1.9,4.4c1.2,1.2,2.7,1.8,4.4,1.8h4.4c1.6,0,3,1.3,3,2.9s-1.3,2.9-3,2.9h-7.5c-.9,0-1.6.7-1.6,1.6s.7,1.6,1.6,1.6h3.6v2c0,.9.7,1.6,1.6,1.6s1.6-.7,1.6-1.6v-2h.7c3.4,0,6.1-2.7,6.1-6.1s-2.8-6.1-6.1-6.1ZM117.6,75.9h-58.6c-.9,0-1.6.7-1.6,1.6s.7,1.6,1.6,1.6h58.6c.9,0,1.6-.7,1.6-1.6s-.7-1.6-1.6-1.6ZM107.9,21.7h-48.9c-.9,0-1.6.7-1.6,1.6s.7,1.6,1.6,1.6h48.9c.9,0,1.6-.7,1.6-1.6s-.7-1.6-1.6-1.6ZM103.8,57.8h-44.7c-.9,0-1.6.7-1.6,1.6s.7,1.6,1.6,1.6h44.7c.9,0,1.6-.7,1.6-1.6s-.7-1.6-1.6-1.6ZM100.5,39.7h-41.5c-.9,0-1.6.7-1.6,1.6s.7,1.6,1.6,1.6h41.5c.9,0,1.6-.7,1.6-1.6s-.7-1.6-1.6-1.6ZM100.5,39.7h-41.5c-.9,0-1.6.7-1.6,1.6s.7,1.6,1.6,1.6h41.5c.9,0,1.6-.7,1.6-1.6s-.7-1.6-1.6-1.6ZM103.8,57.8h-44.7c-.9,0-1.6.7-1.6,1.6s.7,1.6,1.6,1.6h44.7c.9,0,1.6-.7,1.6-1.6s-.7-1.6-1.6-1.6ZM107.9,21.7h-48.9c-.9,0-1.6.7-1.6,1.6s.7,1.6,1.6,1.6h48.9c.9,0,1.6-.7,1.6-1.6s-.7-1.6-1.6-1.6ZM117.6,75.9h-58.6c-.9,0-1.6.7-1.6,1.6s.7,1.6,1.6,1.6h58.6c.9,0,1.6-.7,1.6-1.6s-.7-1.6-1.6-1.6ZM136.7,42h-4.4c-.8,0-1.6-.3-2.1-.9-.6-.6-.9-1.4-.9-2.2s.3-1.6.9-2.2c.6-.6,1.3-.9,2.2-.9h6.5c.9,0,1.6-.7,1.6-1.6s-.7-1.6-1.6-1.6h-2.8v-2c0-.9-.7-1.6-1.6-1.6s-1.6.7-1.6,1.6v2h-.5c-1.7,0-3.2.6-4.4,1.8-1.2,1.2-1.9,2.7-1.9,4.4s.7,3.2,1.9,4.4c1.2,1.2,2.7,1.8,4.4,1.8h4.4c1.6,0,3,1.3,3,2.9s-1.3,2.9-3,2.9h-7.5c-.9,0-1.6.7-1.6,1.6s.7,1.6,1.6,1.6h3.6v2c0,.9.7,1.6,1.6,1.6s1.6-.7,1.6-1.6v-2h.7c3.4,0,6.1-2.7,6.1-6.1s-2.8-6.1-6.1-6.1ZM136.7,42h-4.4c-.8,0-1.6-.3-2.1-.9-.6-.6-.9-1.4-.9-2.2s.3-1.6.9-2.2c.6-.6,1.3-.9,2.2-.9h6.5c.9,0,1.6-.7,1.6-1.6s-.7-1.6-1.6-1.6h-2.8v-2c0-.9-.7-1.6-1.6-1.6s-1.6.7-1.6,1.6v2h-.5c-1.7,0-3.2.6-4.4,1.8-1.2,1.2-1.9,2.7-1.9,4.4s.7,3.2,1.9,4.4c1.2,1.2,2.7,1.8,4.4,1.8h4.4c1.6,0,3,1.3,3,2.9s-1.3,2.9-3,2.9h-7.5c-.9,0-1.6.7-1.6,1.6s.7,1.6,1.6,1.6h3.6v2c0,.9.7,1.6,1.6,1.6s1.6-.7,1.6-1.6v-2h.7c3.4,0,6.1-2.7,6.1-6.1s-2.8-6.1-6.1-6.1ZM117.6,75.9h-58.6c-.9,0-1.6.7-1.6,1.6s.7,1.6,1.6,1.6h58.6c.9,0,1.6-.7,1.6-1.6s-.7-1.6-1.6-1.6ZM107.9,21.7h-48.9c-.9,0-1.6.7-1.6,1.6s.7,1.6,1.6,1.6h48.9c.9,0,1.6-.7,1.6-1.6s-.7-1.6-1.6-1.6ZM103.8,57.8h-44.7c-.9,0-1.6.7-1.6,1.6s.7,1.6,1.6,1.6h44.7c.9,0,1.6-.7,1.6-1.6s-.7-1.6-1.6-1.6ZM100.5,39.7h-41.5c-.9,0-1.6.7-1.6,1.6s.7,1.6,1.6,1.6h41.5c.9,0,1.6-.7,1.6-1.6s-.7-1.6-1.6-1.6ZM100.5,39.7h-41.5c-.9,0-1.6.7-1.6,1.6s.7,1.6,1.6,1.6h41.5c.9,0,1.6-.7,1.6-1.6s-.7-1.6-1.6-1.6ZM103.8,57.8h-44.7c-.9,0-1.6.7-1.6,1.6s.7,1.6,1.6,1.6h44.7c.9,0,1.6-.7,1.6-1.6s-.7-1.6-1.6-1.6ZM107.9,21.7h-48.9c-.9,0-1.6.7-1.6,1.6s.7,1.6,1.6,1.6h48.9c.9,0,1.6-.7,1.6-1.6s-.7-1.6-1.6-1.6ZM117.6,75.9h-58.6c-.9,0-1.6.7-1.6,1.6s.7,1.6,1.6,1.6h58.6c.9,0,1.6-.7,1.6-1.6s-.7-1.6-1.6-1.6ZM136.7,42h-4.4c-.8,0-1.6-.3-2.1-.9-.6-.6-.9-1.4-.9-2.2s.3-1.6.9-2.2c.6-.6,1.3-.9,2.2-.9h6.5c.9,0,1.6-.7,1.6-1.6s-.7-1.6-1.6-1.6h-2.8v-2c0-.9-.7-1.6-1.6-1.6s-1.6.7-1.6,1.6v2h-.5c-1.7,0-3.2.6-4.4,1.8-1.2,1.2-1.9,2.7-1.9,4.4s.7,3.2,1.9,4.4c1.2,1.2,2.7,1.8,4.4,1.8h4.4c1.6,0,3,1.3,3,2.9s-1.3,2.9-3,2.9h-7.5c-.9,0-1.6.7-1.6,1.6s.7,1.6,1.6,1.6h3.6v2c0,.9.7,1.6,1.6,1.6s1.6-.7,1.6-1.6v-2h.7c3.4,0,6.1-2.7,6.1-6.1s-2.8-6.1-6.1-6.1ZM136.7,42h-4.4c-.8,0-1.6-.3-2.1-.9-.6-.6-.9-1.4-.9-2.2s.3-1.6.9-2.2c.6-.6,1.3-.9,2.2-.9h6.5c.9,0,1.6-.7,1.6-1.6s-.7-1.6-1.6-1.6h-2.8v-2c0-.9-.7-1.6-1.6-1.6s-1.6.7-1.6,1.6v2h-.5c-1.7,0-3.2.6-4.4,1.8-1.2,1.2-1.9,2.7-1.9,4.4s.7,3.2,1.9,4.4c1.2,1.2,2.7,1.8,4.4,1.8h4.4c1.6,0,3,1.3,3,2.9s-1.3,2.9-3,2.9h-7.5c-.9,0-1.6.7-1.6,1.6s.7,1.6,1.6,1.6h3.6v2c0,.9.7,1.6,1.6,1.6s1.6-.7,1.6-1.6v-2h.7c3.4,0,6.1-2.7,6.1-6.1s-2.8-6.1-6.1-6.1ZM117.6,75.9h-58.6c-.9,0-1.6.7-1.6,1.6s.7,1.6,1.6,1.6h58.6c.9,0,1.6-.7,1.6-1.6s-.7-1.6-1.6-1.6ZM107.9,21.7h-48.9c-.9,0-1.6.7-1.6,1.6s.7,1.6,1.6,1.6h48.9c.9,0,1.6-.7,1.6-1.6s-.7-1.6-1.6-1.6ZM103.8,57.8h-44.7c-.9,0-1.6.7-1.6,1.6s.7,1.6,1.6,1.6h44.7c.9,0,1.6-.7,1.6-1.6s-.7-1.6-1.6-1.6ZM100.5,39.7h-41.5c-.9,0-1.6.7-1.6,1.6s.7,1.6,1.6,1.6h41.5c.9,0,1.6-.7,1.6-1.6s-.7-1.6-1.6-1.6ZM100.5,39.7h-41.5c-.9,0-1.6.7-1.6,1.6s.7,1.6,1.6,1.6h41.5c.9,0,1.6-.7,1.6-1.6s-.7-1.6-1.6-1.6ZM103.8,57.8h-44.7c-.9,0-1.6.7-1.6,1.6s.7,1.6,1.6,1.6h44.7c.9,0,1.6-.7,1.6-1.6s-.7-1.6-1.6-1.6ZM107.9,21.7h-48.9c-.9,0-1.6.7-1.6,1.6s.7,1.6,1.6,1.6h48.9c.9,0,1.6-.7,1.6-1.6s-.7-1.6-1.6-1.6ZM117.6,75.9h-58.6c-.9,0-1.6.7-1.6,1.6s.7,1.6,1.6,1.6h58.6c.9,0,1.6-.7,1.6-1.6s-.7-1.6-1.6-1.6ZM136.7,42h-4.4c-.8,0-1.6-.3-2.1-.9-.6-.6-.9-1.4-.9-2.2s.3-1.6.9-2.2c.6-.6,1.3-.9,2.2-.9h6.5c.9,0,1.6-.7,1.6-1.6s-.7-1.6-1.6-1.6h-2.8v-2c0-.9-.7-1.6-1.6-1.6s-1.6.7-1.6,1.6v2h-.5c-1.7,0-3.2.6-4.4,1.8-1.2,1.2-1.9,2.7-1.9,4.4s.7,3.2,1.9,4.4c1.2,1.2,2.7,1.8,4.4,1.8h4.4c1.6,0,3,1.3,3,2.9s-1.3,2.9-3,2.9h-7.5c-.9,0-1.6.7-1.6,1.6s.7,1.6,1.6,1.6h3.6v2c0,.9.7,1.6,1.6,1.6s1.6-.7,1.6-1.6v-2h.7c3.4,0,6.1-2.7,6.1-6.1s-2.8-6.1-6.1-6.1ZM136.7,42h-4.4c-.8,0-1.6-.3-2.1-.9-.6-.6-.9-1.4-.9-2.2s.3-1.6.9-2.2c.6-.6,1.3-.9,2.2-.9h6.5c.9,0,1.6-.7,1.6-1.6s-.7-1.6-1.6-1.6h-2.8v-2c0-.9-.7-1.6-1.6-1.6s-1.6.7-1.6,1.6v2h-.5c-1.7,0-3.2.6-4.4,1.8-1.2,1.2-1.9,2.7-1.9,4.4s.7,3.2,1.9,4.4c1.2,1.2,2.7,1.8,4.4,1.8h4.4c1.6,0,3,1.3,3,2.9s-1.3,2.9-3,2.9h-7.5c-.9,0-1.6.7-1.6,1.6s.7,1.6,1.6,1.6h3.6v2c0,.9.7,1.6,1.6,1.6s1.6-.7,1.6-1.6v-2h.7c3.4,0,6.1-2.7,6.1-6.1s-2.8-6.1-6.1-6.1ZM117.6,75.9h-58.6c-.9,0-1.6.7-1.6,1.6s.7,1.6,1.6,1.6h58.6c.9,0,1.6-.7,1.6-1.6s-.7-1.6-1.6-1.6ZM107.9,21.7h-48.9c-.9,0-1.6.7-1.6,1.6s.7,1.6,1.6,1.6h48.9c.9,0,1.6-.7,1.6-1.6s-.7-1.6-1.6-1.6ZM103.8,57.8h-44.7c-.9,0-1.6.7-1.6,1.6s.7,1.6,1.6,1.6h44.7c.9,0,1.6-.7,1.6-1.6s-.7-1.6-1.6-1.6ZM100.5,39.7h-41.5c-.9,0-1.6.7-1.6,1.6s.7,1.6,1.6,1.6h41.5c.9,0,1.6-.7,1.6-1.6s-.7-1.6-1.6-1.6Z"/>
          </g>
        </g>
      </g>
      <g class="cls-14">
        <path class="cls-9" d="M70.2,69.8h9.7c2.2,0,4.1-1.8,4.1-4.1V25.3c0-2.2-1.8-4.1-4.1-4.1h-9.7c-2.2,0-4.1,1.8-4.1,4.1v40.4c0,2.2,1.8,4.1,4.1,4.1ZM69.1,25.3c0-.6.5-1,1-1h9.7c.6,0,1,.5,1,1v40.4c0,.6-.5,1-1,1h-9.7c-.6,0-1-.5-1-1V25.3ZM47.7,69.8h9.7c2.2,0,4.1-1.8,4.1-4.1v-19.1c0-2.2-1.8-4.1-4.1-4.1h-9.7c-2.2,0-4.1,1.8-4.1,4.1v19.1c0,2.3,1.8,4.1,4.1,4.1h0ZM46.6,46.6c0-.6.5-1,1-1h9.7c.6,0,1,.5,1,1v19.1c0,.6-.5,1-1,1h-9.7c-.6,0-1-.5-1-1v-19.1ZM125.3,49.8c-12.7,0-23.1,10.4-23.1,23.1s10.4,23.1,23.1,23.1,23.1-10.4,23.1-23.1c0-12.8-10.4-23.1-23.1-23.1ZM125.3,93c-11.1,0-20.1-9-20.1-20.1s9-20.1,20.1-20.1,20.1,9,20.1,20.1c0,11.1-9,20.1-20.1,20.1ZM170.4,108.5l-11.1-11.1c-.7-.7-1.7-1.1-2.7-1.1s-.8,0-1.1.2l-6.9-6.9c3.4-4.7,5.4-10.5,5.4-16.7s-1.9-11.7-5.1-16.3V6.6c0-3.7-3-6.6-6.6-6.6H30.3c-3.7,0-6.6,3-6.6,6.6v81.7c0,3.7,3,6.6,6.6,6.6h39.6v12.8h-6.4c-3.4,0-6.1,2.7-6.1,6.1s2.7,6.1,6.1,6.1h45.8c3.4,0,6.1-2.7,6.1-6.1s-2.7-6.1-6.1-6.1h-6.4v-12.8h4.1c5,4.2,11.4,6.7,18.4,6.7s12-2,16.7-5.4l6.9,6.9c-.4,1.3,0,2.8.9,3.8l11.1,11.1c1.3,1.3,3,2,4.8,2s3.4-.7,4.8-2c1.3-1.3,2-3,2-4.8,0-1.8-.7-3.5-1.9-4.7h0ZM30.3,3h112c2,0,3.6,1.6,3.6,3.6v46.3c-4.4-4.6-10.3-7.6-16.9-8.5V15.1c0-2.2-1.8-4.1-4.1-4.1h-9.7c-2.2,0-4.1,1.8-4.1,4.1v32.8c-1.6.9-3.2,2-4.6,3.3v-18.2c0-2.2-1.8-4.1-4.1-4.1h-9.7c-2.2,0-4.1,1.8-4.1,4.1v32.8c0,2.2,1.8,4.1,4.1,4.1h4c-.1,1-.2,2.1-.2,3.1,0,1.7.2,3.3.5,4.9H26.7V6.6c0-2,1.6-3.6,3.6-3.6h0ZM125.9,44.2c-.2,0-.5,0-.7,0-3.9,0-7.7.8-11.1,2.2V15.1c0-.6.5-1,1-1h9.7c.6,0,1,.5,1,1v29.1ZM97.2,66.7h-4.5c-.6,0-1-.5-1-1v-32.8c0-.6.5-1,1-1h9.7c.6,0,1,.5,1,1v21.3c-3,3.6-5.2,7.8-6.3,12.6h0ZM26.7,88.3v-7.5h70.9c1.2,4.2,3.3,7.9,6.1,11.1H30.3c-2,0-3.6-1.6-3.6-3.6h0ZM112.3,113.9c0,1.7-1.4,3.1-3.1,3.1h-45.8c-1.7,0-3.1-1.4-3.1-3.1s1.4-3.1,3.1-3.1h45.8c1.7,0,3.1,1.4,3.1,3.1h0ZM99.7,107.7h-26.8v-12.8h26.8v12.8ZM99.5,72.9c0-14.2,11.5-25.7,25.7-25.7s25.7,11.5,25.7,25.7-11.5,25.7-25.7,25.7-25.7-11.5-25.7-25.7ZM146.7,92l6.3,6.3-2.3,2.3-6.3-6.3c.8-.7,1.6-1.5,2.3-2.3ZM168.3,115.9c-1.4,1.4-3.8,1.4-5.2,0l-11.1-11.1c-.2-.2-.2-.4-.2-.5s0-.3.2-.5l4.1-4.1c.2-.2.4-.2.5-.2s.3,0,.5.2l11.1,11.1c.7.7,1.1,1.6,1.1,2.6,0,1-.3,1.9-1,2.6h0Z"/>
      </g>
    </g>
  </g>
</svg>