<?xml version="1.0" encoding="UTF-8"?>
<svg id="Layer_2" xmlns="http://www.w3.org/2000/svg" xmlns:xlink="http://www.w3.org/1999/xlink" viewBox="0 0 50 31">
  <defs>
    <style>
      .cls-1 {
        fill: #fff;
      }

      .cls-2 {
        fill: none;
      }

      .cls-3 {
        clip-path: url(#clippath);
      }
    </style>
    <clipPath id="clippath">
      <rect class="cls-2" width="50" height="31"/>
    </clipPath>
  </defs>
  <g id="Layer_1-2" data-name="Layer_1">
    <g class="cls-3">
      <path class="cls-1" d="M32.14,19.8h-4.14v-2.09c.06-2.02-1.26-3.05-1.84-3.41-.83-.51-1.75-.64-2.29-.34-.31.17-.49.48-.49.84,0,.17,0,.36,0,.56.02,1.4.05,3.51-.89,4.47-.28.29-.64.46-1.09.52-.22-.44-.68-.73-1.2-.73h-4.28c-.41,0-.81.19-1.08.5-.23.27-.32.6-.27.93l1.46,8.68c.13.76.67,1.27,1.34,1.27h2.82c.59,0,1.09-.38,1.28-.91.02.01.04.02.06.03.78.47,1.45.88,2.58.88h7.31c.96,0,1.75-.78,1.75-1.75,0-.37-.1-.71-.28-.99.59-.28,1-.88,1-1.58,0-.51-.22-.96-.56-1.29.34-.32.56-.78.56-1.28s-.21-.97-.55-1.29c.34-.32.55-.77.55-1.28,0-.97-.78-1.75-1.75-1.75h0ZM20.21,30.06h-2.82c-.33,0-.41-.44-.42-.49l-1.46-8.68c0-.06,0-.11.06-.17.08-.1.23-.17.36-.17h4.28c.23,0,.42.19.42.42v8.35h0v.33c0,.23-.19.42-.42.42h0ZM32.17,22.37s0,0-.02,0,0,0-.02,0h-3.25c-.26,0-.47.21-.47.47s.21.47.47.47h3.25s0,0,.02,0,0,0,.02,0c.46,0,.79.34.79.82s-.37.82-.82.82h-3.48c-.26,0-.47.21-.47.47s.21.47.47.47h3.48c.45,0,.82.37.82.82s-.37.82-.82.82h-3.2c-.26,0-.47.21-.47.47s.21.47.47.47h2.56c.42,0,.74.35.74.82s-.37.82-.82.82h-7.31c-.87,0-1.38-.31-2.1-.74-.15-.09-.3-.18-.46-.27v-7.77c.64-.09,1.18-.35,1.61-.78,1.21-1.24,1.18-3.58,1.15-5.14,0-.2,0-.38,0-.55,0,0,0-.02,0-.02.07-.06.45-.11,1,.13.88.38,1.79,1.31,1.74,2.77v2.58c.01.26.22.47.48.47h4.61c.45,0,.82.37.82.82s-.36.82-.79.82h0ZM18.53,21.78v1.56c0,.26-.21.47-.47.47s-.47-.21-.47-.47v-1.56c0-.26.21-.47.47-.47s.47.21.47.47ZM19.39,5.06l2.82,2.03-1.07,3.3c-.1.29,0,.6.25.78.12.09.26.13.41.13s.29-.05.41-.13l2.8-2.06,2.82,2.04c.25.17.57.17.82,0,.25-.18.35-.49.25-.78l-1.09-3.3,2.81-2.05s0,0,0,0c.24-.18.34-.49.25-.78-.09-.29-.36-.48-.67-.48l-3.47.02-1.08-3.3c-.1-.29-.36-.48-.66-.48s-.57.2-.66.49l-1.06,3.31h-3.47c-.3,0-.57.2-.66.49-.09.29,0,.6.25.78h0ZM23.44,4.73c.31,0,.57-.2.66-.48l.88-2.77.9,2.77c.1.29.36.48.67.48l2.91-.02-2.36,1.72c-.24.18-.34.49-.25.78l.92,2.77-2.36-1.71c-.24-.18-.57-.18-.82,0l-2.34,1.72.9-2.77c.09-.29-.01-.6-.26-.78l-2.37-1.7h2.91s0,0,0,0ZM41.41,9.89s0,0,0,0c-.15-.26-.45-.39-.75-.33l-3.4.73-1.73-3.01c-.15-.26-.45-.4-.75-.34-.29.06-.52.31-.55.61l-.35,3.45-3.4.72c-.3.06-.52.31-.55.61,0,0,0,0,0,0-.03.3.14.58.41.71l3.18,1.41-.37,3.46c-.03.3.14.58.41.7,0,0,0,0,0,0,.09.04.19.06.28.06.2,0,.38-.08.52-.23l2.32-2.59,3.18,1.42c.28.12.6.05.8-.17.2-.23.24-.56.08-.82l-1.74-3,2.33-2.58c.2-.22.24-.55.09-.81h0ZM38.18,12.78c-.2.22-.24.55-.08.82l1.46,2.52-2.66-1.19c-.28-.12-.6-.06-.8.17l-1.94,2.17.31-2.9c.03-.3-.14-.58-.41-.71l-2.66-1.18,2.85-.6c.29-.06.52-.31.55-.61l.3-2.9,1.45,2.53c.15.26.45.39.75.33l2.84-.61-1.95,2.16ZM16.17,18.66c.09,0,.19-.02.28-.06,0,0,0,0,0,0,.28-.12.44-.41.41-.71l-.37-3.45,3.18-1.41c.28-.12.44-.41.41-.71-.03-.3-.25-.55-.55-.61l-3.4-.72-.36-3.46c-.03-.3-.25-.55-.55-.61-.29-.06-.59.07-.75.33l-1.73,3.01-3.4-.73c-.29-.06-.59.07-.75.33-.15.26-.12.59.09.82l2.33,2.58-1.74,3c-.15.26-.12.59.08.82.2.22.52.29.8.17,0,0,0,0,0,0l3.17-1.42,2.32,2.59c.13.15.33.23.52.23h0ZM13.39,14.86c-.1,0-.19.02-.28.06l-2.66,1.19,1.46-2.52c.15-.26.12-.59-.09-.82l-1.95-2.16,2.85.61c.29.06.6-.07.75-.33l1.45-2.52.3,2.89c.03.3.25.55.55.61l2.85.6-2.66,1.18c-.28.12-.44.41-.41.71l.31,2.89-1.94-2.17c-.14-.15-.33-.23-.52-.23h0Z"/>
    </g>
  </g>
</svg>