<?xml version="1.0" encoding="UTF-8"?>
<svg id="Layer_2" xmlns="http://www.w3.org/2000/svg" xmlns:xlink="http://www.w3.org/1999/xlink" viewBox="0 0 50 31">
  <defs>
    <style>
      .cls-1 {
        fill: #fff;
      }

      .cls-2 {
        fill: none;
      }

      .cls-3 {
        clip-path: url(#clippath);
      }
    </style>
    <clipPath id="clippath">
      <rect class="cls-2" width="50" height="31"/>
    </clipPath>
  </defs>
  <g id="Layer_1-2" data-name="Layer_1">
    <g class="cls-3">
      <path class="cls-1" d="M35.35,16.71h-9.29c-.22,0-.39.17-.39.39v6.64c0,.22.17.39.39.39h9.29c.22,0,.39-.17.39-.39v-6.64c0-.22-.17-.39-.39-.39ZM34.96,23.34h-8.5v-5.85h8.5v5.85ZM41.21,12.19c0-.07-.03-.13-.06-.19l-2.62-4.42c.06-.03.02-1.43.03-1.51.26.03.59-.07.58-.39V1.59c0-.87-.71-1.59-1.59-1.59H12.66c-.87,0-1.59.71-1.59,1.59v4.09c0,.32.3.42.58.39v1.19l-2.81,4.74c-.02.06-.06.12-.06.19v.95c0,1.42,1.09,2.59,2.49,2.72v14.75c0,.22.17.39.39.39h26.64c.22,0,.39-.17.39-.39v-14.75c1.39-.13,2.48-1.3,2.48-2.72v-.95h.02ZM37.93,26.3h-13.59v-9.2c0-.22-.17-.39-.39-.39h-9.33c-.22,0-.39.17-.39.39v9.2h-2.14v-10.42c1.01.02,1.9-.53,2.39-1.35,1.01,1.84,4.25,1.85,5.27,0,1.01,1.84,4.25,1.85,5.27,0,1.01,1.85,4.25,1.84,5.27,0,1.01,1.84,4.25,1.85,5.27,0,.49.82,1.38,1.37,2.39,1.35v10.42ZM23.55,26.69v3.51h-8.55v-12.71h8.55v9.2ZM20.66,7.81l-1.1,3.99h-4.45l2.02-3.99h3.53ZM28.55,7.81l1.1,3.99h-4.25v-3.99h3.14ZM32.89,7.81l2.02,3.99h-4.45l-1.1-3.99h3.53ZM20.13,12.59h4.48v.54c0,1.08-.88,1.96-1.96,1.96h-.57c-1.08,0-1.96-.88-1.96-1.96v-.54ZM25.4,12.59h4.48v.54c0,1.08-.88,1.96-1.96,1.96h-.57c-1.08,0-1.96-.88-1.96-1.96v-.54ZM24.61,11.8h-4.25l1.1-3.99h3.14v3.99ZM14.86,12.59h4.48v.54c0,1.08-.88,1.96-1.96,1.96h-.57c-1.08,0-1.96-.88-1.96-1.96v-.54ZM33.19,15.1h-.57c-1.08,0-1.96-.88-1.96-1.96v-.54h4.48v.54c0,1.08-.88,1.96-1.96,1.96ZM38.33,11.8h-2.55l-2.02-3.99h3.99l2.36,3.99h-1.79,0ZM11.87,1.58c0-.44.36-.8.8-.8h24.91c.44,0,.8.36.8.8v3.7H11.87V1.58ZM37.79,6.06v.96H12.45v-.96h25.34ZM12.25,7.82h3.99l-2.02,3.99h-4.34l2.36-3.99h0ZM9.59,13.14v-.54h4.48v.54c0,1.08-.88,1.96-1.96,1.96-.06,0-.42,0-.47,0-1.11.05-2.05-.84-2.05-1.96ZM12.08,27.09h2.14v3.12h-2.14v-3.12ZM24.34,30.21v-3.12h13.59v3.12h-13.59ZM40.43,13.14c0,1.12-.94,2-2.05,1.96-.06,0-.41,0-.47,0-1.08,0-1.96-.88-1.96-1.96v-.54h4.48v.54Z"/>
    </g>
  </g>
</svg>