<?xml version="1.0" encoding="UTF-8"?>
<svg id="Layer_2" xmlns="http://www.w3.org/2000/svg" xmlns:xlink="http://www.w3.org/1999/xlink" viewBox="0 0 50 31">
  <defs>
    <style>
      .cls-1 {
        fill: #fff;
      }

      .cls-2 {
        fill: none;
      }

      .cls-3 {
        clip-path: url(#clippath);
      }
    </style>
    <clipPath id="clippath">
      <rect class="cls-2" width="50" height="31"/>
    </clipPath>
  </defs>
  <g id="Layer_1-2" data-name="Layer_1">
    <g class="cls-3">
      <path class="cls-1" d="M16.28,18.27c1.54,0,2.8-1.26,2.8-2.8s-1.26-2.8-2.8-2.8-2.8,1.26-2.8,2.8,1.26,2.8,2.8,2.8ZM16.28,13.68c.99,0,1.79.81,1.79,1.79s-.81,1.79-1.79,1.79-1.79-.81-1.79-1.79.81-1.79,1.79-1.79ZM18.17,24.96c0,.28-.22.5-.5.5h-5.38c-.97,0-1.75-.79-1.75-1.75v-1.5c0-.58.29-1.13.77-1.45.04-.03.09-.04.14-.06.02-.01.03-.03.04-.04.2-.12,4.85-2.86,9.57,0,.24.14.31.45.17.69-.09.16-.26.24-.43.24-.09,0-.18-.02-.26-.07-4.21-2.55-8.49-.03-8.53,0-.03.02-.07.03-.11.04-.01,0-.02.02-.03.03-.21.14-.33.37-.33.62v1.5c0,.41.34.75.75.75h5.38c.28,0,.5.22.5.5h0ZM33.72,12.67c-1.54,0-2.8,1.26-2.8,2.8s1.26,2.8,2.8,2.8,2.8-1.26,2.8-2.8-1.26-2.8-2.8-2.8ZM33.72,17.27c-.99,0-1.79-.81-1.79-1.79s.81-1.79,1.79-1.79,1.79.81,1.79,1.79-.81,1.79-1.79,1.79ZM39.46,22.21v1.5c0,.97-.79,1.75-1.75,1.75h-5.42c-.28,0-.5-.22-.5-.5s.22-.5.5-.5h5.42c.41,0,.75-.34.75-.75v-1.5c0-.23-.11-.45-.29-.59-.02-.01-.02-.03-.04-.05-.05-.01-.1-.03-.15-.06-4.21-2.55-8.49-.03-8.53,0-.24.14-.55.07-.69-.17-.14-.24-.07-.55.17-.69.2-.12,4.85-2.86,9.57,0,.03.02.06.05.09.08.07.02.14.04.19.09.43.34.68.84.68,1.39ZM25,15.84c-1.8,0-3.26,1.46-3.26,3.26s1.46,3.26,3.26,3.26,3.26-1.46,3.26-3.26-1.46-3.26-3.26-3.26ZM25,21.35c-1.24,0-2.26-1.01-2.26-2.26s1.01-2.26,2.26-2.26,2.26,1.01,2.26,2.26-1.01,2.26-2.26,2.26ZM31.02,25.61c-.06-.05-.14-.08-.21-.09-.03-.04-.07-.08-.11-.1-5.62-3.4-11.16-.14-11.39,0-.02.01-.03.03-.05.05-.06.01-.11.03-.17.07-.55.37-.88,1-.88,1.66v1.8c0,1.11.9,2.01,2.01,2.01h9.58c1.11,0,2.01-.9,2.01-2.01v-1.8c0-.62-.28-1.2-.78-1.58h0ZM30.8,28.99c0,.55-.45,1-1,1h-9.58c-.55,0-1-.45-1-1v-1.8c0-.33.17-.65.44-.83.02-.01.03-.03.04-.04.05-.01.09-.02.13-.05.05-.03,5.26-3.09,10.35,0,.05.03.11.05.17.06.02.02.03.05.06.07.25.19.39.48.39.79,0,0,0,1.8,0,1.8ZM13.79,11.21v-1.68c0-.28.22-.5.5-.5h1.43c.24-1.01.63-1.97,1.18-2.85l-1.01-1.01c-.2-.2-.2-.51,0-.71l2.37-2.37c.09-.09.22-.15.35-.15s.26.05.35.15l1.01,1.01c.88-.55,1.83-.94,2.85-1.18V.5c0-.28.22-.5.5-.5h3.35c.28,0,.5.22.5.5v1.43c1.01.24,1.97.63,2.85,1.18l1.01-1.01c.2-.2.51-.2.71,0l2.37,2.37c.2.2.2.51,0,.71l-1.01,1.01c.55.88.94,1.83,1.18,2.85h1.43c.28,0,.5.22.5.5v1.68c0,.28-.22.5-.5.5s-.5-.22-.5-.5v-1.17h-1.33c-.24,0-.45-.17-.49-.41-.22-1.17-.67-2.25-1.33-3.22-.14-.2-.11-.47.06-.64l.94-.94-1.66-1.66-.94.94c-.17.17-.44.2-.64.06-.97-.66-2.06-1.11-3.22-1.33-.24-.04-.41-.25-.41-.49v-1.33h-2.35v1.33c0,.24-.17.45-.41.49-1.17.22-2.25.67-3.22,1.33-.2.14-.47.11-.64-.06l-.94-.94-1.66,1.66.94.94c.17.17.2.44.06.64-.66.97-1.11,2.06-1.33,3.22-.04.24-.25.41-.49.41h-1.33v1.17c0,.28-.22.5-.5.5s-.5-.22-.5-.5h0ZM28.97,11.21c0-2.19-1.78-3.97-3.97-3.97s-3.97,1.78-3.97,3.97c0,.28-.22.5-.5.5s-.5-.22-.5-.5c0-2.74,2.23-4.97,4.97-4.97s4.97,2.23,4.97,4.97c0,.28-.22.5-.5.5s-.5-.22-.5-.5Z"/>
    </g>
  </g>
</svg>