<?xml version="1.0" encoding="UTF-8"?>
<svg id="Layer_2" xmlns="http://www.w3.org/2000/svg" xmlns:xlink="http://www.w3.org/1999/xlink" viewBox="0 0 50 31">
  <defs>
    <style>
      .cls-1 {
        fill: #fff;
      }

      .cls-2 {
        fill: none;
      }

      .cls-3 {
        clip-path: url(#clippath);
      }
    </style>
    <clipPath id="clippath">
      <rect class="cls-2" width="50" height="31"/>
    </clipPath>
  </defs>
  <g id="Layer_1-2" data-name="Layer_1">
    <g class="cls-3">
      <path class="cls-1" d="M36.64,20.87c-.79-.57-1.44-1.33-1.89-2.19-.45-.87-.68-1.85-.68-2.83v-3.54c0-3.64-2.17-6.92-5.52-8.35-.43-.18-.71-.59-.71-1.05v-.09c0-.76-.3-1.47-.83-2-.65-.65-1.55-.94-2.46-.79-1.35.22-2.38,1.46-2.38,2.89,0,.45-.27.86-.69,1.04-1.08.46-2.05,1.11-2.89,1.94-1.71,1.72-2.65,3.99-2.65,6.41v3.54c0,1.99-.97,3.87-2.58,5.03-.36.25-.65.6-.85.99-.2.4-.31.83-.31,1.27,0,1.46,1.19,2.65,2.65,2.65h4.41c.29,2.92,2.76,5.21,5.76,5.21s5.47-2.29,5.76-5.21h4.41c1.46,0,2.65-1.19,2.65-2.65v-.03c0-.87-.44-1.71-1.18-2.24h0ZM25,29.84c-2.35,0-4.3-1.77-4.59-4.05h9.18c-.29,2.28-2.24,4.05-4.59,4.05ZM36.65,23.15c0,.82-.66,1.48-1.48,1.48h-4.94s-.01,0-.02,0h-10.42s-.01,0-.02,0h-4.94c-.82,0-1.48-.66-1.48-1.48,0-.26.06-.51.18-.74.12-.23.28-.43.49-.58,1.92-1.38,3.07-3.61,3.07-5.97v-3.54c0-2.11.82-4.1,2.31-5.59.73-.73,1.58-1.3,2.52-1.7.85-.36,1.4-1.18,1.4-2.11,0-.87.6-1.61,1.4-1.74.09-.01.18-.02.28-.02.44,0,.86.17,1.18.49.32.31.49.73.49,1.18v.09c0,.92.56,1.75,1.42,2.12,2.92,1.24,4.81,4.1,4.81,7.28v3.54c0,1.16.28,2.33.81,3.36.53,1.03,1.3,1.93,2.24,2.6.44.32.69.79.69,1.3v.04Z"/>
    </g>
  </g>
</svg>