<?xml version="1.0" encoding="UTF-8"?>
<svg id="Layer_2" xmlns="http://www.w3.org/2000/svg" xmlns:xlink="http://www.w3.org/1999/xlink" viewBox="0 0 50 31">
  <defs>
    <style>
      .cls-1 {
        fill: #fff;
      }

      .cls-2 {
        fill: none;
      }

      .cls-3 {
        clip-path: url(#clippath);
      }
    </style>
    <clipPath id="clippath">
      <rect class="cls-2" width="50" height="31"/>
    </clipPath>
  </defs>
  <g id="Layer_1-2" data-name="Layer_1">
    <g class="cls-3">
      <path class="cls-1" d="M15.25,2.82v-1.6c0-.32.13-.63.35-.86C15.84.13,16.14,0,16.47,0h20.4c.32,0,.63.13.86.35.23.23.35.54.35.86v25.76c0,.67-.54,1.21-1.21,1.21h-2.12v1.6c0,.67-.54,1.21-1.21,1.21H13.13c-.32,0-.63-.13-.86-.35-.23-.23-.35-.54-.35-.86V4.03c0-.67.54-1.21,1.21-1.21h2.12ZM14.75,12.72c-.23,0-.42-.19-.42-.43s.19-.42.42-.42h6.49c.23,0,.42.19.42.42s-.19.43-.42.43h-6.49ZM14.75,10.3c-.23,0-.42-.19-.42-.42s.19-.43.42-.43h6.49c.23,0,.42.19.42.43s-.19.42-.42.42h-6.49ZM14.75,7.89c-.23,0-.42-.19-.42-.42s.19-.43.42-.43h6.49c.23,0,.42.19.42.43s-.19.42-.42.42h-6.49ZM31.62,10.3h-3.67c-.11,0-.22-.04-.3-.12s-.12-.19-.12-.3v-3.67c-1.41.16-2.6,1.12-3.06,2.46-.47,1.34-.13,2.82.88,3.83,1,1,2.49,1.34,3.83.88,1.34-.47,2.29-1.66,2.46-3.06h0ZM28.38,6.21v3.24h3.24,0c-.2-1.7-1.54-3.05-3.24-3.24h0ZM27.95,5.33c1.41,0,2.74.66,3.6,1.78.86,1.12,1.15,2.58.78,3.94-.37,1.36-1.34,2.48-2.65,3.02-1.3.54-2.79.44-4.01-.26-1.22-.71-2.05-1.94-2.23-3.34-.18-1.4.29-2.81,1.29-3.8.85-.85,2.01-1.33,3.22-1.33h0ZM31.59,17.55h-2.41v10.02h2.41v-10.02ZM28.76,16.7h3.26,0c.23,0,.42.19.43.42v10.87c0,.11-.05.22-.13.3-.08.08-.19.12-.3.12h-3.26c-.23,0-.42-.19-.42-.42v-10.87c0-.23.19-.42.42-.42h0ZM24.06,20.06h3.26c.23,0,.42.19.42.43v7.51c0,.11-.04.22-.12.3-.08.08-.19.12-.3.12h-3.26c-.11,0-.22-.04-.3-.12-.08-.08-.13-.19-.13-.3v-7.51c0-.24.19-.43.43-.43h0ZM26.89,20.91h-2.41v6.66h2.41v-6.66ZM22.19,18.93h-2.41v8.64h2.41v-8.64ZM19.36,18.08h3.26c.23,0,.42.19.43.42v9.5c0,.11-.05.22-.13.3-.08.08-.19.12-.3.12h-3.26c-.11,0-.22-.04-.3-.12-.08-.08-.13-.19-.12-.3v-9.5c0-.11.04-.22.12-.3s.19-.12.3-.12h0ZM14.65,21.9h3.26c.11,0,.22.04.3.12.08.08.13.19.13.3v5.67c0,.11-.05.22-.13.3-.08.08-.19.13-.3.12h-3.26c-.11,0-.22-.04-.3-.12-.08-.08-.12-.19-.12-.3v-5.67c0-.24.19-.43.42-.43h0ZM17.48,22.76h-2.4v4.81h2.41v-4.81ZM34.75,27.33h2.12c.1,0,.19-.04.26-.11.07-.07.11-.16.11-.25V1.21c0-.2-.16-.36-.36-.36h-20.4c-.2,0-.36.16-.36.36v1.6h17.43c.67,0,1.21.54,1.21,1.21v23.3ZM33.53,3.67H13.13c-.1,0-.19.04-.26.11-.07.07-.11.16-.11.26v25.76c0,.2.16.36.36.36h20.4c.2,0,.36-.16.36-.36V4.03c0-.1-.04-.19-.11-.25-.07-.07-.16-.11-.26-.11h0Z"/>
    </g>
  </g>
</svg>