<?xml version="1.0" encoding="UTF-8"?>
<svg id="Layer_2" xmlns="http://www.w3.org/2000/svg" xmlns:xlink="http://www.w3.org/1999/xlink" viewBox="0 0 50 31">
  <defs>
    <style>
      .cls-1 {
        fill: #fff;
      }

      .cls-2 {
        fill: none;
      }

      .cls-3 {
        clip-path: url(#clippath);
      }
    </style>
    <clipPath id="clippath">
      <rect class="cls-2" width="50" height="31"/>
    </clipPath>
  </defs>
  <g id="Layer_1-2" data-name="Layer_1">
    <g class="cls-3">
      <path class="cls-1" d="M9.7,30.9c-1.13,0-2.05-.92-2.05-2.05V2.15C7.65,1.02,8.57.1,9.7.1h30.6c1.13,0,2.05.92,2.05,2.05v26.7c0,1.13-.92,2.05-2.05,2.05H9.7ZM8.43,28.85c0,.7.57,1.27,1.27,1.27h30.6c.7,0,1.27-.57,1.27-1.27V7.09H8.43v21.76ZM9.7.88c-.7,0-1.27.57-1.27,1.27v4.15h33.14V2.15c0-.7-.57-1.27-1.27-1.27H9.7ZM19.66,29.03c-.88,0-1.59-.71-1.59-1.59,0-.35.11-.68.32-.96l.04-.06-1.84-2.51-.07.02c-.17.06-.35.09-.53.09s-.36-.03-.53-.09l-.07-.03-1.84,2.51.04.06c.21.28.32.61.32.96,0,.88-.71,1.59-1.59,1.59s-1.59-.71-1.59-1.59.71-1.59,1.59-1.59c.18,0,.36.03.53.09l.07.03,1.84-2.51-.04-.06c-.21-.28-.32-.61-.32-.96,0-.88.71-1.59,1.59-1.59s1.59.71,1.59,1.59c0,.35-.11.68-.32.96l-.04.06,1.84,2.51.07-.03c.17-.06.34-.09.53-.09s.36.03.53.09l.07.02,1.84-2.51-.04-.06c-.21-.28-.32-.61-.32-.96,0-.88.71-1.59,1.59-1.59s1.59.71,1.59,1.59-.71,1.59-1.59,1.59c-.18,0-.36-.03-.53-.09l-.07-.03-1.84,2.51.04.06c.21.28.32.61.32.96,0,.88-.71,1.59-1.59,1.59ZM19.66,26.63c-.45,0-.81.36-.81.81s.36.81.81.81.81-.36.81-.81-.36-.81-.81-.81ZM12.33,26.63c-.45,0-.81.36-.81.81s.36.81.81.81c.22,0,.42-.08.58-.24s.24-.36.24-.57c0-.45-.36-.81-.81-.81ZM23.32,21.63c-.45,0-.81.36-.81.81s.36.81.81.81.81-.36.81-.81-.36-.81-.81-.81ZM16,21.63c-.45,0-.81.36-.81.81s.36.81.81.81.81-.36.81-.81-.36-.81-.81-.81ZM32.52,28.42c-.21,0-.39-.17-.39-.39s.18-.39.39-.39h7.42c.21,0,.39.18.39.39s-.18.39-.39.39h-7.42ZM28.63,28.42c-.21,0-.39-.17-.39-.39s.18-.39.39-.39h1.56c.21,0,.39.18.39.39s-.18.39-.39.39h-1.56ZM32.52,25.84c-.21,0-.39-.18-.39-.39s.18-.39.39-.39h7.42c.21,0,.39.18.39.39s-.18.39-.39.39h-7.42ZM28.63,25.84c-.21,0-.39-.18-.39-.39s.18-.39.39-.39h1.56c.21,0,.39.18.39.39s-.18.39-.39.39h-1.56ZM32.52,23.26c-.21,0-.39-.18-.39-.39s.18-.39.39-.39h7.42c.22,0,.39.18.39.39s-.18.39-.39.39h-7.42ZM28.63,23.26c-.21,0-.39-.18-.39-.39s.18-.39.39-.39h1.56c.21,0,.39.18.39.39s-.18.39-.39.39h-1.56ZM32.52,20.69c-.21,0-.39-.18-.39-.39s.18-.39.39-.39h7.42c.21,0,.39.17.39.39s-.18.39-.39.39h-7.42ZM28.63,20.69c-.21,0-.39-.18-.39-.39s.18-.39.39-.39h1.56c.21,0,.39.17.39.39s-.18.39-.39.39h-1.56ZM9.55,18.88c-.21,0-.39-.17-.39-.39s.18-.39.39-.39h.33v-2.48c0-.21.18-.39.39-.39h2.65c.21,0,.39.18.39.39v2.48h.72v-4.83c0-.21.18-.39.39-.39h2.65c.21,0,.39.18.39.39v4.83s.72,0,.72,0v-7.19c0-.21.18-.39.39-.39h2.65c.21,0,.39.18.39.39v7.19s.72,0,.72,0v-9.54c0-.21.18-.39.39-.39h2.65c.21,0,.39.17.39.39v9.54h.33c.21,0,.39.17.39.39s-.18.39-.39.39H9.55ZM23.13,18.1h1.87v-9.15h-1.87v9.15ZM14.81,18.1h1.87v-4.44h-1.87v4.44ZM10.66,18.1h1.87v-2.08h-1.87v2.08ZM18.97,18.1h1.87v-6.79h-1.87v6.79ZM34.28,18.21c-2.69,0-4.87-2.19-4.87-4.87s2.19-4.87,4.87-4.87,4.87,2.19,4.87,4.87-2.19,4.87-4.87,4.87ZM30.22,13.83c.25,2.05,2,3.59,4.06,3.59,1.29,0,2.48-.59,3.27-1.63l.07-.09-3.42-1.97h-4s.01.1.01.1ZM34.67,13.05l3.33,1.98.04-.1c.22-.51.33-1.04.33-1.6,0-2.07-1.54-3.81-3.59-4.06h-.11s0,3.78,0,3.78ZM33.78,9.27c-1.87.23-3.33,1.69-3.56,3.56v.11s3.67,0,3.67,0v-3.69h-.11ZM20.42,5.16c-.86,0-1.57-.7-1.57-1.57s.7-1.57,1.57-1.57,1.57.7,1.57,1.57-.7,1.57-1.57,1.57ZM20.42,2.81c-.43,0-.79.35-.79.79s.35.79.79.79.79-.35.79-.79-.35-.79-.79-.79ZM15.93,5.16c-.86,0-1.57-.7-1.57-1.57s.7-1.57,1.57-1.57,1.57.7,1.57,1.57-.7,1.57-1.57,1.57ZM15.93,2.81c-.43,0-.79.35-.79.79s.35.79.79.79.79-.35.79-.79-.35-.79-.79-.79ZM11.43,5.16c-.86,0-1.57-.7-1.57-1.57s.7-1.57,1.57-1.57,1.57.7,1.57,1.57-.7,1.57-1.57,1.57ZM11.43,2.81c-.43,0-.79.35-.79.79s.35.79.79.79.79-.35.79-.79-.35-.79-.79-.79Z"/>
    </g>
  </g>
</svg>