<?xml version="1.0" encoding="UTF-8"?>
<svg id="Layer_2" xmlns="http://www.w3.org/2000/svg" xmlns:xlink="http://www.w3.org/1999/xlink" viewBox="0 0 50 31">
  <defs>
    <style>
      .cls-1 {
        fill: #fff;
      }

      .cls-2 {
        fill: none;
      }

      .cls-3 {
        clip-path: url(#clippath);
      }
    </style>
    <clipPath id="clippath">
      <rect class="cls-2" width="50" height="31"/>
    </clipPath>
  </defs>
  <g id="Layer_1-2" data-name="Layer_1">
    <g class="cls-3">
      <g>
        <path class="cls-1" d="M14.32,15.89c-.26-.33-.65-.53-1.07-.53s-.81.2-1.06.53l-.08.1-.08-.1c-.26-.33-.65-.53-1.07-.53-.31,0-.6.1-.84.29-.28.23-.46.55-.51.91-.04.36.06.71.28,1,.26.33.65.52,1.07.52.3,0,.59-.1.83-.29.09-.07.17-.15.24-.23l.08-.1.08.1c.25.33.64.52,1.06.52.31,0,.6-.1.84-.29.28-.23.46-.55.51-.91.04-.36-.06-.71-.28-.99ZM10.96,17.3c-.32,0-.57-.26-.57-.58s.25-.57.57-.57.58.25.58.57-.26.58-.58.58ZM13.25,17.3c-.31,0-.57-.26-.57-.58,0-.15.06-.3.17-.41.1-.1.25-.16.4-.16.32,0,.58.25.58.57s-.26.58-.58.58Z"/>
        <path class="cls-1" d="M14.32,15.89c-.26-.33-.65-.53-1.07-.53s-.81.2-1.06.53l-.08.1-.08-.1c-.26-.33-.65-.53-1.07-.53-.31,0-.6.1-.84.29-.28.23-.46.55-.51.91-.04.36.06.71.28,1,.26.33.65.52,1.07.52.3,0,.59-.1.83-.29.09-.07.17-.15.24-.23l.08-.1.08.1c.25.33.64.52,1.06.52.31,0,.6-.1.84-.29.28-.23.46-.55.51-.91.04-.36-.06-.71-.28-.99ZM10.96,17.3c-.32,0-.57-.26-.57-.58s.25-.57.57-.57.58.25.58.57-.26.58-.58.58ZM13.25,17.3c-.31,0-.57-.26-.57-.58,0-.15.06-.3.17-.41.1-.1.25-.16.4-.16.32,0,.58.25.58.57s-.26.58-.58.58Z"/>
        <path class="cls-1" d="M42.01,6.38l-1.32-.13-.02-.07c-.14-.5-.35-.98-.61-1.43l-.03-.07.83-1c.13-.16.12-.39-.02-.53l-1.5-1.51c-.07-.08-.17-.12-.28-.12-.09,0-.18.03-.25.09l-1.01.84-.06-.04c-.45-.26-.93-.46-1.44-.6l-.06-.02-.13-1.33c-.02-.2-.19-.36-.39-.36h-2.15c-.2,0-.37.16-.39.36l-.13,1.32-.06.02c-.51.14-.99.35-1.44.61l-.06.03-1.01-.83c-.07-.06-.16-.09-.25-.09-.11,0-.2.04-.28.11l-1.52,1.52c-.14.14-.15.37-.02.53l.84,1.01-.04.06c-.11.2-.21.41-.31.62l-.02.06H12.61c-1.32,0-2.38,1.07-2.38,2.39v.9h-.89c-.94.01-1.7.79-1.7,1.73v7.61c0,.93.76,1.69,1.7,1.69h.89v4.13c-.01,1.31,1.05,2.38,2.38,2.39h7.37v3.84h-2.37c-.21,0-.39.18-.39.4s.18.39.39.39h14.64c.22,0,.39-.18.39-.39s-.17-.4-.39-.4h-2.37v-3.84h7.38c1.31,0,2.37-1.07,2.37-2.39l.03-10.18,1.18-1.17c.15-.14.16-.37.03-.53l-.83-1.01.03-.06c.27-.45.47-.93.61-1.44l.02-.06,1.31-.13c.2-.02.35-.19.35-.39v-2.14c0-.21-.15-.38-.35-.39ZM8.42,10.45c0-.51.41-.93.92-.94h12.05c.5,0,.9.42.9.94v.59h-13.87v-.59ZM8.42,11.82h13.87v1.6h-13.87v-1.6ZM9.33,18.96c-.5,0-.91-.4-.91-.9v-3.85h13.87v3.85c0,.24-.09.46-.26.64-.16.17-.39.26-.64.26h-12.06ZM29.1,30.11h-8.34v-3.84h8.34v3.84ZM38.85,23.87c0,.43-.16.83-.45,1.13-.3.31-.7.48-1.14.49H12.61c-.43,0-.83-.17-1.13-.47-.3-.3-.47-.7-.47-1.14v-2.1h27.84v2.09ZM38.85,21H11.01v-1.25h10.38c.93,0,1.68-.76,1.69-1.69v-7.61c0-.95-.76-1.73-1.69-1.73h-10.38v-.9c-.01-.88.7-1.6,1.6-1.61h14.52l.04.19c-.15.06-.25.2-.25.37v2.14c0,.2.15.37.35.39l1.32.13.02.07c.14.5.34.98.6,1.43l.04.06-.84,1.01c-.13.16-.12.38.02.53l1.52,1.51c.08.08.17.12.28.12.09,0,.18-.04.25-.09l1.01-.84.06.03c.45.26.94.47,1.44.61l.06.02.13,1.3c.02.2.18.35.39.35h2.16c.2,0,.36-.15.38-.35l.13-1.31.06-.02c.51-.13.99-.34,1.44-.6l.06-.03,1,.83.05.05v6.89ZM41.58,8.56l-1.23.12c-.16.01-.3.14-.34.3-.15.65-.41,1.27-.77,1.83-.1.14-.09.33.02.46l.79.96-1.01,1.01-.96-.79c-.07-.06-.15-.09-.25-.09-.07,0-.15.02-.21.06-.56.37-1.17.63-1.83.77-.16.03-.29.17-.3.33l-.12,1.24h-1.45l-.12-1.23c0-.17-.13-.31-.3-.35-.66-.14-1.27-.4-1.83-.76-.06-.04-.14-.07-.21-.07-.09,0-.18.04-.25.1l-.96.79-1.01-1.01.79-.96c.11-.13.12-.32.02-.46-.37-.56-.63-1.17-.77-1.83-.03-.16-.17-.29-.34-.3l-1.24-.12v-1.44l1.24-.12c.17-.02.31-.14.34-.3.15-.66.41-1.27.78-1.83.09-.15.08-.33-.03-.47l-.79-.95,1.01-1.01.96.79c.07.06.16.09.25.09.07,0,.15-.02.21-.06.56-.37,1.17-.63,1.83-.77.16-.04.29-.19.31-.36l.11-1.25h1.45l.12,1.25c.01.17.14.31.3.35.66.15,1.27.41,1.83.78.07.04.14.06.22.06.09,0,.17-.03.24-.09l.96-.79,1,1.01-.8.95c-.11.14-.12.33-.02.47.37.56.63,1.17.77,1.82.04.17.18.29.35.31l1.24.12v1.44Z"/>
        <path class="cls-1" d="M42.01,6.38l-1.32-.13-.02-.07c-.14-.5-.35-.98-.61-1.43l-.03-.07.83-1c.13-.16.12-.39-.02-.53l-1.5-1.51c-.07-.08-.17-.12-.28-.12-.09,0-.18.03-.25.09l-1.01.84-.06-.04c-.45-.26-.93-.46-1.44-.6l-.06-.02-.13-1.33c-.02-.2-.19-.36-.39-.36h-2.15c-.2,0-.37.16-.39.36l-.13,1.32-.06.02c-.51.14-.99.35-1.44.61l-.06.03-1.01-.83c-.07-.06-.16-.09-.25-.09-.11,0-.2.04-.28.11l-1.52,1.52c-.14.14-.15.37-.02.53l.84,1.01-.04.06c-.11.2-.21.41-.31.62l-.02.06H12.61c-1.32,0-2.38,1.07-2.38,2.39v.9h-.89c-.94.01-1.7.79-1.7,1.73v7.61c0,.93.76,1.69,1.7,1.69h.89v4.13c-.01,1.31,1.05,2.38,2.38,2.39h7.37v3.84h-2.37c-.21,0-.39.18-.39.4s.18.39.39.39h14.64c.22,0,.39-.18.39-.39s-.17-.4-.39-.4h-2.37v-3.84h7.38c1.31,0,2.37-1.07,2.37-2.39l.03-10.18,1.18-1.17c.15-.14.16-.37.03-.53l-.83-1.01.03-.06c.27-.45.47-.93.61-1.44l.02-.06,1.31-.13c.2-.02.35-.19.35-.39v-2.14c0-.21-.15-.38-.35-.39ZM8.42,10.45c0-.51.41-.93.92-.94h12.05c.5,0,.9.42.9.94v.59h-13.87v-.59ZM8.42,11.82h13.87v1.6h-13.87v-1.6ZM9.33,18.96c-.5,0-.91-.4-.91-.9v-3.85h13.87v3.85c0,.24-.09.46-.26.64-.16.17-.39.26-.64.26h-12.06ZM29.1,30.11h-8.34v-3.84h8.34v3.84ZM38.85,23.87c0,.43-.16.83-.45,1.13-.3.31-.7.48-1.14.49H12.61c-.43,0-.83-.17-1.13-.47-.3-.3-.47-.7-.47-1.14v-2.1h27.84v2.09ZM38.85,21H11.01v-1.25h10.38c.93,0,1.68-.76,1.69-1.69v-7.61c0-.95-.76-1.73-1.69-1.73h-10.38v-.9c-.01-.88.7-1.6,1.6-1.61h14.52l.04.19c-.15.06-.25.2-.25.37v2.14c0,.2.15.37.35.39l1.32.13.02.07c.14.5.34.98.6,1.43l.04.06-.84,1.01c-.13.16-.12.38.02.53l1.52,1.51c.08.08.17.12.28.12.09,0,.18-.04.25-.09l1.01-.84.06.03c.45.26.94.47,1.44.61l.06.02.13,1.3c.02.2.18.35.39.35h2.16c.2,0,.36-.15.38-.35l.13-1.31.06-.02c.51-.13.99-.34,1.44-.6l.06-.03,1,.83.05.05v6.89ZM41.58,8.56l-1.23.12c-.16.01-.3.14-.34.3-.15.65-.41,1.27-.77,1.83-.1.14-.09.33.02.46l.79.96-1.01,1.01-.96-.79c-.07-.06-.15-.09-.25-.09-.07,0-.15.02-.21.06-.56.37-1.17.63-1.83.77-.16.03-.29.17-.3.33l-.12,1.24h-1.45l-.12-1.23c0-.17-.13-.31-.3-.35-.66-.14-1.27-.4-1.83-.76-.06-.04-.14-.07-.21-.07-.09,0-.18.04-.25.1l-.96.79-1.01-1.01.79-.96c.11-.13.12-.32.02-.46-.37-.56-.63-1.17-.77-1.83-.03-.16-.17-.29-.34-.3l-1.24-.12v-1.44l1.24-.12c.17-.02.31-.14.34-.3.15-.66.41-1.27.78-1.83.09-.15.08-.33-.03-.47l-.79-.95,1.01-1.01.96.79c.07.06.16.09.25.09.07,0,.15-.02.21-.06.56-.37,1.17-.63,1.83-.77.16-.04.29-.19.31-.36l.11-1.25h1.45l.12,1.25c.01.17.14.31.3.35.66.15,1.27.41,1.83.78.07.04.14.06.22.06.09,0,.17-.03.24-.09l.96-.79,1,1.01-.8.95c-.11.14-.12.33-.02.47.37.56.63,1.17.77,1.82.04.17.18.29.35.31l1.24.12v1.44Z"/>
        <path class="cls-1" d="M34.64,3.61c-1.13,0-2.2.44-2.99,1.24-.8.8-1.24,1.86-1.24,2.99,0,2.34,1.9,4.23,4.23,4.23h.01c2.33,0,4.23-1.9,4.23-4.23-.01-2.33-1.91-4.23-4.24-4.23ZM34.64,11.29c-.92,0-1.79-.36-2.44-1.02-.65-.65-1.01-1.51-1.01-2.44,0-1.9,1.55-3.44,3.45-3.44h.01c1.9,0,3.45,1.55,3.45,3.45-.01,1.9-1.56,3.45-3.46,3.45Z"/>
        <path class="cls-1" d="M34.64,3.61c-1.13,0-2.2.44-2.99,1.24-.8.8-1.24,1.86-1.24,2.99,0,2.34,1.9,4.23,4.23,4.23h.01c2.33,0,4.23-1.9,4.23-4.23-.01-2.33-1.91-4.23-4.24-4.23ZM34.64,11.29c-.92,0-1.79-.36-2.44-1.02-.65-.65-1.01-1.51-1.01-2.44,0-1.9,1.55-3.44,3.45-3.44h.01c1.9,0,3.45,1.55,3.45,3.45-.01,1.9-1.56,3.45-3.46,3.45Z"/>
      </g>
    </g>
  </g>
</svg>