<?xml version="1.0" encoding="UTF-8"?>
<svg id="Layer_2" xmlns="http://www.w3.org/2000/svg" xmlns:xlink="http://www.w3.org/1999/xlink" viewBox="0 0 50 31">
  <defs>
    <style>
      .cls-1 {
        fill: #fff;
      }

      .cls-2 {
        fill: none;
      }

      .cls-3 {
        clip-path: url(#clippath);
      }
    </style>
    <clipPath id="clippath">
      <rect class="cls-2" width="50" height="31"/>
    </clipPath>
  </defs>
  <g id="Layer_1-2" data-name="Layer_1">
    <g class="cls-3">
      <path class="cls-1" d="M31.64,30.59c-.25-.25-6.24-6.18-6.76-10.06v-.09h-13.9V.12h21.35v12.85h.09c3.69.27,6.58,3.37,6.58,7.07,0,3.8-6.52,10.28-6.79,10.56l-.29.29-.29-.29ZM31.93,13.78c-3.45,0-6.26,2.81-6.26,6.26,0,3.17,5.55,8.96,6.19,9.61l.07.07.07-.07c.63-.65,6.19-6.43,6.19-9.61,0-3.45-2.81-6.26-6.26-6.26ZM11.81,19.62h13.05v-.09c.25-3.49,3.07-6.3,6.56-6.55h.09V.95h-6.36v7.77l-3.49-3.49-3.49,3.49V.95h-6.36v18.67ZM24.33,6.72V.95h-5.33v5.77l2.67-2.67,2.67,2.67ZM31.93,24.55c-2.49,0-4.52-2.03-4.52-4.52s2.03-4.52,4.52-4.52,4.52,2.03,4.52,4.52-2.03,4.52-4.52,4.52ZM31.93,16.34c-2.04,0-3.69,1.66-3.69,3.69s1.66,3.69,3.69,3.69,3.69-1.66,3.69-3.69-1.66-3.69-3.69-3.69ZM14.07,17.88v-.83h2.88v.83h-2.88ZM14.07,15.83v-.83h2.88v.83h-2.88Z"/>
    </g>
  </g>
</svg>