<?xml version="1.0" encoding="UTF-8"?>
<svg id="Layer_2" xmlns="http://www.w3.org/2000/svg" xmlns:xlink="http://www.w3.org/1999/xlink" viewBox="0 0 50 31">
  <defs>
    <style>
      .cls-1 {
        fill: #fff;
      }

      .cls-2 {
        fill: none;
      }

      .cls-3 {
        clip-path: url(#clippath);
      }
    </style>
    <clipPath id="clippath">
      <rect class="cls-2" width="50" height="31"/>
    </clipPath>
  </defs>
  <g id="Layer_1-2" data-name="Layer_1">
    <g class="cls-3">
      <path class="cls-1" d="M41.76,14.69c-.04-.22-.23-.38-.45-.38h-.96c-.17-.62-.41-1.21-.73-1.77l.68-.68c.16-.16.18-.41.05-.59-.57-.82-1.28-1.53-2.1-2.11-.18-.13-.43-.11-.59.05l-.68.68c-.56-.33-1.15-.57-1.77-.73v-.96c0-.22-.16-.42-.38-.45-.98-.17-1.99-.17-2.98,0-.22.04-.38.23-.38.45v.96c-.17.04-.33.09-.5.15V.46c0-.25-.2-.46-.46-.46h-14.61c-.25,0-.46.21-.46.46v14.58h-6.84c-.25,0-.46.2-.46.46v15.04c0,.25.21.46.46.46h29.22c.25,0,.46-.21.46-.46v-7.36c.81-.57,1.51-1.27,2.07-2.08.13-.18.11-.43-.05-.59l-.68-.68c.32-.56.57-1.15.73-1.77h.96c.22,0,.42-.16.45-.38.09-.48.13-.98.13-1.49s-.04-1-.13-1.49h0ZM21.49.92h3.39v4.96l-1.43-1.01c-.16-.11-.37-.11-.53,0l-1.43,1.01V.92ZM16.34.92h4.23v5.85c0,.17.1.33.25.41s.34.07.48-.03l1.89-1.34,1.89,1.34c.08.06.17.08.27.08.07,0,.15-.02.21-.05.15-.08.25-.24.25-.41V.92h4.23v8.78c-.12.06-.23.12-.35.19l-.68-.68c-.16-.16-.41-.18-.59-.05-.82.58-1.53,1.29-2.1,2.1-.13.18-.11.43.05.59l.68.68c-.32.56-.57,1.15-.73,1.77h-.96c-.22,0-.42.16-.45.38-.02.12-.04.23-.05.35h-8.49V.92ZM14.19,15.96h3.39v4.96l-1.43-1.01c-.16-.11-.37-.11-.53,0l-1.42,1.01v-4.96ZM9.04,15.96h4.23v5.85c0,.17.1.33.25.41s.34.07.48-.03l1.89-1.34,1.89,1.34c.08.06.17.08.27.08.07,0,.15-.02.21-.05.15-.08.25-.24.25-.41v-5.85h4.23v14.11h-13.69v-14.11ZM23.65,30.08v-14.11h1.11c0,.07,0,.15,0,.22,0,.5.04,1,.13,1.49.04.22.23.38.45.38h.96c.17.62.41,1.21.73,1.77l-.68.68c-.16.16-.18.41-.05.59.58.82,1.29,1.53,2.11,2.1.18.13.43.11.59-.05l.68-.68c.56.32,1.15.57,1.77.73v.96c0,.22.16.42.38.45.49.08.99.13,1.49.13s1-.04,1.49-.13c.22-.04.38-.23.38-.45v-.96c.62-.17,1.21-.41,1.77-.73l.38.38v7.23h-13.69ZM40.9,17.13h-.93c-.22,0-.41.15-.45.37-.16.77-.46,1.49-.89,2.14-.12.18-.09.42.06.58l.66.66c-.39.5-.84.95-1.34,1.34l-.66-.66c-.15-.15-.4-.18-.58-.06-.66.43-1.38.73-2.14.89-.21.04-.37.23-.37.45v.93c-.62.08-1.27.08-1.89,0v-.93c0-.22-.15-.41-.37-.45-.77-.16-1.49-.46-2.14-.89-.18-.12-.42-.09-.58.06l-.66.66c-.5-.39-.95-.84-1.34-1.34l.66-.66c.15-.15.18-.4.06-.58-.43-.66-.73-1.38-.89-2.14-.04-.21-.23-.37-.45-.37h-.93c-.04-.31-.06-.63-.06-.95,0-.21,0-.42.03-.63,0,0,0,0,0-.01,0-.1.02-.2.03-.31h.93c.22,0,.41-.15.45-.37.16-.77.46-1.49.89-2.14.12-.18.09-.42-.06-.58l-.66-.66c.39-.5.84-.95,1.34-1.34l.66.66c.15.16.4.18.58.06.66-.43,1.38-.73,2.14-.89.21-.04.37-.23.37-.45v-.93c.63-.08,1.27-.08,1.89,0v.93c0,.22.15.41.37.45.76.16,1.48.46,2.14.89.18.12.42.09.58-.06l.66-.66c.5.39.95.84,1.34,1.34l-.66.66c-.15.15-.18.4-.06.58.43.65.73,1.38.89,2.14.04.21.23.37.45.37h.93c.04.31.06.63.06.95,0,.32-.02.63-.06.95h0ZM33.32,11.67c-2.49,0-4.51,2.02-4.51,4.51s2.02,4.51,4.51,4.51,4.51-2.02,4.51-4.51-2.02-4.51-4.51-4.51ZM33.32,19.77c-1.98,0-3.59-1.61-3.59-3.59s1.61-3.59,3.59-3.59,3.59,1.61,3.59,3.59-1.61,3.59-3.59,3.59Z"/>
    </g>
  </g>
</svg>