<?xml version="1.0" encoding="UTF-8"?>
<svg id="Layer_2" xmlns="http://www.w3.org/2000/svg" xmlns:xlink="http://www.w3.org/1999/xlink" viewBox="0 0 50 31">
  <defs>
    <style>
      .cls-1 {
        fill: #fff;
        fill-rule: evenodd;
      }

      .cls-2 {
        fill: none;
      }

      .cls-3 {
        clip-path: url(#clippath);
      }
    </style>
    <clipPath id="clippath">
      <rect class="cls-2" width="50" height="31"/>
    </clipPath>
  </defs>
  <g id="Layer_1-2" data-name="Layer_1">
    <g class="cls-3">
      <path class="cls-1" d="M22.23,31c-.18,0-.35-.04-.53-.12-.3-.14-.57-.41-.74-.74l-3.29-6.3-.17.06c-.17.06-.35.1-.53.1-.13,0-.26-.02-.39-.05-.37-.1-.67-.34-.84-.67l-.58-1.1-2.6,1.35c-.16.08-.33.13-.51.13-.11,0-.22-.02-.32-.05-.28-.09-.51-.28-.65-.54l-2.19-4.2c-.14-.26-.16-.56-.07-.83.09-.28.28-.51.54-.64l2.6-1.36-.57-1.1c-.17-.33-.2-.71-.07-1.07.12-.35.38-.65.72-.82l6.79-3.55c.99-.59,1.89-1.46,2.74-2.61.87-1.18,1.68-2.66,2.41-4.4.11-.25.28-.47.5-.63.22-.16.49-.25.76-.28h.12c.23,0,.46.05.66.16.24.13.44.32.56.57l2.34,4.48.17-.07c.48-.2.98-.31,1.5-.31.39,0,.77.06,1.14.17.97.3,1.77.97,2.24,1.88.47.9.56,1.94.26,2.91-.27.87-.85,1.61-1.62,2.09l-.16.1,2.34,4.48c.13.25.18.52.15.78-.03.26-.14.52-.32.74-.18.22-.41.38-.66.47-.16.06-.32.09-.49.09-.1,0-.21-.01-.31-.03-1.69-.36-3.25-.54-4.62-.54h-.39c-1.44.04-2.66.28-3.64.73l-2.57,1.34,3.29,6.31c.17.33.24.69.18,1.03-.06.38-.27.67-.57.83l-2.14,1.12c-.15.08-.31.12-.48.12ZM18.38,23.46l3.29,6.31c.09.17.22.31.37.38l.04.02.14.03s.07,0,.1-.02l2.15-1.12c.1-.06.13-.15.14-.24.03-.17,0-.35-.09-.52l-3.29-6.31-2.84,1.48ZM12.4,13.76c-.15.08-.27.21-.32.37-.05.15-.04.3.02.43l4.36,8.35c.07.13.19.23.34.27.05.01.11.02.17.02.11,0,.22-.03.32-.08l5.07-2.65-4.89-9.36-5.07,2.65ZM9.66,18.15l-.06.13c-.02.08-.02.16.02.22l2.23,4.27.12.06s.08,0,.11,0c.06,0,.09-.01.12-.03l2.59-1.35-2.45-4.7-2.67,1.39ZM23.87,4.63c-.53,1.03-1.08,1.95-1.66,2.73-.91,1.25-1.89,2.19-2.91,2.79l-.09.05-1.02.53,4.89,9.36,1.13-.59c1.07-.48,2.39-.74,3.91-.78h.4c.87,0,1.82.06,2.81.2l.39.05-7.68-14.7-.18.35ZM25.3,2.39c-.13.01-.25.05-.35.12-.1.07-.18.17-.23.28l-.24.55,8.25,15.8.61.12h.12c.08,0,.15,0,.23-.03.11-.04.22-.11.3-.21.08-.09.13-.2.14-.32.01-.11,0-.22-.06-.31L25.86,2.68c-.05-.09-.13-.17-.22-.22-.08-.04-.18-.07-.29-.07h-.05ZM30.58,7.21c-.37,0-.74.07-1.08.2l-.21.08,2.78,5.33.19-.13c.56-.38.98-.94,1.19-1.59.24-.77.17-1.58-.2-2.29s-1-1.23-1.76-1.47c-.3-.09-.6-.14-.91-.14ZM17.55,20.55c-.15,0-.29-.08-.36-.22-.1-.2-.03-.44.17-.55l1.66-.87c.06-.03.12-.05.19-.05.15,0,.29.08.36.22.1.2.03.44-.17.55l-1.66.87c-.06.03-.12.05-.19.05ZM16.27,18.1c-.15,0-.29-.08-.36-.22-.1-.2-.03-.44.17-.55l1.66-.87c.06-.03.12-.05.19-.05.15,0,.29.08.36.22.1.2.03.44-.17.55l-1.66.87c-.06.03-.12.05-.19.05ZM14.99,15.64c-.15,0-.29-.08-.36-.22-.1-.2-.03-.44.17-.55l1.66-.87c.06-.03.12-.05.19-.05.15,0,.29.08.36.22.1.2.03.44-.17.55l-1.66.86c-.06.03-.12.05-.19.05ZM40.74,13.09l-3.54-.74c-.11-.02-.2-.08-.26-.18-.06-.09-.08-.2-.06-.3.04-.19.21-.32.4-.32l3.63.75c.11.02.2.08.26.17.06.09.08.2.06.31-.04.19-.21.32-.4.32-.03,0-.06,0-.08,0ZM36.71,7.42c-.15,0-.29-.08-.36-.22-.1-.2-.03-.44.17-.55l2.83-1.48c.06-.03.12-.05.19-.05.15,0,.29.08.36.22.1.2.03.44-.17.55l-2.83,1.48c-.06.03-.12.05-.19.05ZM32.98,4.14c-.05,0-.11-.01-.16-.03-.1-.04-.18-.12-.22-.22-.04-.1-.04-.21,0-.31l1.42-3.33c.06-.15.21-.25.38-.25.05,0,.11.01.16.03.21.09.3.33.22.54l-1.42,3.33c-.06.15-.21.25-.38.25Z"/>
    </g>
  </g>
</svg>