<?xml version="1.0" encoding="UTF-8"?>
<svg id="Layer_2" xmlns="http://www.w3.org/2000/svg" xmlns:xlink="http://www.w3.org/1999/xlink" viewBox="0 0 50 31">
  <defs>
    <style>
      .cls-1 {
        fill: #fff;
        fill-rule: evenodd;
      }

      .cls-2 {
        fill: none;
      }

      .cls-3 {
        clip-path: url(#clippath);
      }
    </style>
    <clipPath id="clippath">
      <rect class="cls-2" width="50" height="31"/>
    </clipPath>
  </defs>
  <g id="Layer_1-2" data-name="Layer_1">
    <g class="cls-3">
      <path class="cls-1" d="M32.44,4.34c1.42,0,2.72.82,3.34,2.1.62,1.28.44,2.81-.44,3.92,2.02.7,3.53,2.4,3.99,4.48h1.12c.1,0,.19.04.26.11.07.07.11.16.11.26v1.45c0,.1-.04.19-.11.26l-1.81,1.81c-.07.07-.16.11-.26.11h-2.98c-.15.45-.34.89-.55,1.32l2.11,2.11c.07.07.11.16.11.26v2.57h0c0,.1-.04.19-.11.26l-2.05,2.05c-.07.07-.16.11-.26.11h-2.57c-.1,0-.19-.04-.26-.11l-2.11-2.11c-.43.21-.87.39-1.32.55v2.98c0,.1-.04.19-.11.26l-1.81,1.81c-.07.07-.16.11-.26.1h-2.9c-.1,0-.19-.04-.26-.11l-1.81-1.81c-.07-.07-.11-.16-.11-.26v-2.98c-.45-.15-.89-.34-1.32-.55l-2.11,2.11c-.07.07-.16.11-.26.11h-2.57c-.1,0-.19-.04-.26-.11l-2.05-2.05c-.07-.07-.11-.16-.11-.26v-2.57c0-.1.04-.19.11-.26l2.11-2.11c-.21-.43-.39-.87-.55-1.32h-2.98c-.1,0-.19-.04-.26-.11l-1.81-1.81c-.07-.07-.11-.16-.11-.26v-1.45c0-.1.04-.19.11-.26.07-.07.16-.11.26-.11h1.12c.47-2.08,1.98-3.77,3.99-4.48-.67-.84-.95-1.92-.76-2.97.19-1.05.82-1.97,1.74-2.52.92-.55,2.03-.68,3.05-.35,1.02.33,1.84,1.08,2.27,2.06.36-.22.74-.4,1.14-.55-.89-1.11-1.07-2.64-.45-3.92C22.27.82,23.57,0,25,0c1.42,0,2.73.81,3.34,2.1.62,1.28.45,2.81-.44,3.92.4.15.78.33,1.14.55.59-1.35,1.92-2.23,3.4-2.23h0ZM31.91,15.56c-.12,2.38-1.47,4.53-3.56,5.69-2.09,1.16-4.62,1.16-6.71,0-2.09-1.16-3.43-3.31-3.55-5.69h-8.16v.94l1.6,1.6h3.09,0c.16,0,.3.1.35.25.09.29.2.58.31.86.12.28.24.55.37.81h0c.09.14.07.33-.05.45l-2.19,2.19v2.27l1.84,1.84h2.27l2.19-2.19h0c.11-.11.28-.14.42-.06.54.28,1.1.51,1.68.7.16.04.27.19.27.35v3.09l1.6,1.6h2.61l1.6-1.6v-3.09c0-.16.1-.3.25-.34.29-.09.58-.2.86-.31.28-.12.55-.24.81-.37.14-.09.33-.07.45.05l2.19,2.19h2.27l1.84-1.84v-2.27s-2.19-2.19-2.19-2.19c-.11-.11-.14-.28-.06-.42.28-.54.51-1.1.7-1.68.04-.16.19-.27.35-.27h3.09l1.6-1.6v-.94s-8.17,0-8.17,0ZM18.81,15.56c.12,2.12,1.33,4.04,3.19,5.06,1.86,1.03,4.12,1.03,5.99,0,1.86-1.03,3.07-2.94,3.19-5.06h-12.37ZM38.58,14.84c-.49-1.97-1.94-3.31-3.81-3.92-1.36,1.1-3.3,1.1-4.66,0-1.88.62-3.32,1.96-3.82,3.91h12.28ZM25.55,14.84h0c.18-.82.53-1.6,1.03-2.28h-3.15c.5.68.84,1.46,1.02,2.28h1.1ZM23.71,14.84h0c-.21-.87-.64-1.66-1.24-2.32-.7-.74-1.59-1.29-2.57-1.6-1.36,1.1-3.3,1.1-4.66,0-1.87.61-3.32,1.95-3.82,3.91h12.29ZM27.21,11.84c.67-.65,1.46-1.15,2.33-1.47-.7-.87-.97-2-.74-3.09-.46-.29-.96-.52-1.47-.69-1.36,1.1-3.3,1.1-4.66,0-.52.17-1.02.4-1.48.7.22,1.08-.04,2.21-.73,3.07.87.33,1.67.83,2.34,1.48h4.41ZM27.11,1.6c-.85-.85-2.14-1.11-3.25-.65-1.11.46-1.84,1.55-1.84,2.76s.73,2.3,1.84,2.76c1.12.46,2.4.21,3.25-.65.56-.56.87-1.32.87-2.11s-.31-1.55-.87-2.11ZM19.67,5.93c-.85-.85-2.14-1.11-3.25-.65-1.12.46-1.84,1.55-1.84,2.76s.73,2.3,1.84,2.76c1.11.46,2.4.21,3.25-.65,1.16-1.16,1.16-3.05,0-4.22h0ZM34.54,5.93h0c-.85-.85-2.14-1.11-3.25-.65-1.11.46-1.84,1.55-1.84,2.76s.73,2.3,1.84,2.76c1.11.46,2.4.21,3.25-.65,1.16-1.16,1.16-3.05,0-4.22h0Z"/>
    </g>
  </g>
</svg>