<svg xmlns="http://www.w3.org/2000/svg" xmlns:xlink="http://www.w3.org/1999/xlink" viewBox="0 0 72 60"><defs><style>.cls-1{fill:none;}.cls-2{clip-path:url(#clip-path);}</style><clipPath id="clip-path" transform="translate(-13)"><rect class="cls-1" width="98" height="60"/></clipPath></defs><title>development</title><g id="Layer_2" data-name="Layer 2"><g id="development"><g class="cls-2"><path d="M25.74,14.27A4.55,4.55,0,1,0,21.2,9.72,4.55,4.55,0,0,0,25.74,14.27Zm0-6.7A2.15,2.15,0,1,1,23.6,9.72,2.15,2.15,0,0,1,25.74,7.57Z" transform="translate(-13)"/><path d="M38.68,14.27a4.55,4.55,0,1,0-4.55-4.55A4.55,4.55,0,0,0,38.68,14.27Zm0-6.7a2.15,2.15,0,1,1-2.15,2.15A2.15,2.15,0,0,1,38.68,7.57Z" transform="translate(-13)"/><path d="M76.6,0H21.4A8.41,8.41,0,0,0,13,8.4V51.6A8.41,8.41,0,0,0,21.4,60H76.6A8.41,8.41,0,0,0,85,51.6V8.4A8.41,8.41,0,0,0,76.6,0ZM21.4,2.4H76.6a6,6,0,0,1,6,6V17H15.4V8.4A6,6,0,0,1,21.4,2.4ZM76.6,57.6H21.4a6,6,0,0,1-6-6V19.43H82.6V51.6A6,6,0,0,1,76.6,57.6Z" transform="translate(-13)"/><path d="M41.75,31a1.2,1.2,0,0,0-1.69.18l-5.35,6.57a1.2,1.2,0,0,0,0,1.52l5.35,6.57a1.23,1.23,0,0,0,.94.45,1.21,1.21,0,0,0,.93-2L37.2,38.52l4.73-5.82A1.21,1.21,0,0,0,41.75,31Z" transform="translate(-13)"/><path d="M57.94,31.18a1.2,1.2,0,1,0-1.87,1.51l4.73,5.82-4.73,5.82a1.19,1.19,0,0,0,.93,2,1.22,1.22,0,0,0,.94-.44l5.35-6.58a1.19,1.19,0,0,0,0-1.51Z" transform="translate(-13)"/><path d="M52.84,27.07a1.21,1.21,0,0,0-1.52.76L44.4,48.43A1.22,1.22,0,0,0,45.16,50a1.26,1.26,0,0,0,.38.06,1.19,1.19,0,0,0,1.14-.82L53.6,28.6A1.23,1.23,0,0,0,52.84,27.07Z" transform="translate(-13)"/></g></g></g></svg>