<svg xmlns="http://www.w3.org/2000/svg" xmlns:xlink="http://www.w3.org/1999/xlink" viewBox="0 0 58.27 60"><defs><style>.cls-1{fill:none;}.cls-2{clip-path:url(#clip-path);}</style><clipPath id="clip-path" transform="translate(-19.86)"><rect class="cls-1" width="98" height="60"/></clipPath></defs><title>Ongoing-Support</title><g id="Layer_2" data-name="Layer 2"><g id="Layer_5" data-name="Layer 5"><g class="cls-2"><path d="M66.13,60a4,4,0,0,0,4-3.92l.07-7.27A3.92,3.92,0,0,0,69,46a4,4,0,0,0-1.46-1l0-.17a5.84,5.84,0,0,1,1.63-3.24L74.89,36a8.89,8.89,0,0,0,2.57-5.37l.6-5.7a3.41,3.41,0,0,0,.07-.65h0v0s0-.07,0-.11l-.3-9.19a2.65,2.65,0,0,0-.78-1.8,2.68,2.68,0,0,0-2-.78,4.76,4.76,0,0,0-4.6,4.9l.14,4.38-.74,3a3.44,3.44,0,0,0-2.47,1l-4.86,4.87-1.69.29a5.46,5.46,0,0,0-2.9,1.5l-3.35,3.35A5.36,5.36,0,0,0,53,39.32l-.13,5.56a4,4,0,0,0-2.72,3.71l-.07,7.28a4,4,0,0,0,3.92,4L66.09,60ZM56,37.05l3.35-3.36a3.43,3.43,0,0,1,1.83-.94l2-.34.2-.06h0a1,1,0,0,0,.32-.21h0L68.82,27a1.47,1.47,0,1,1,2.08,2.07L65.05,35a1,1,0,0,0,0,1.41,1,1,0,0,0,.71.3,1,1,0,0,0,.71-.3l5.85-5.84a3.48,3.48,0,0,0,0-4.91,3.42,3.42,0,0,0-.52-.42L72.6,22v0s0-.07,0-.1v-.1s0,0,0,0l-.15-4.51a2.77,2.77,0,0,1,2.66-2.85.68.68,0,0,1,.7.66l.29,9.12-.06.64a.15.15,0,0,0,0,.07l-.59,5.58a6.94,6.94,0,0,1-2,4.17l-5.67,5.66a7.78,7.78,0,0,0-2.19,4.36l0,.21-10.68-.12L55,39.37A3.37,3.37,0,0,1,56,37.05ZM52.67,57.28a2,2,0,0,1-.57-1.39l.08-7.27a2,2,0,0,1,2-1.95h0l12.06.13a2,2,0,0,1,1.38.6,1.91,1.91,0,0,1,.56,1.39l-.08,7.27a1.92,1.92,0,0,1-.59,1.38,2,2,0,0,1-1.39.56l-12.06-.13A2,2,0,0,1,52.67,57.28Z" transform="translate(-19.86)"/><circle cx="45.92" cy="49.7" r="1.71"/><path d="M19.87,24.24h0a2.84,2.84,0,0,0,.07.66l.6,5.69A8.89,8.89,0,0,0,23.11,36l5.66,5.66a5.81,5.81,0,0,1,1.63,3.24l0,.17A4,4,0,0,0,29,46a3.88,3.88,0,0,0-1.13,2.81l.07,7.27a4,4,0,0,0,4,3.92h.05L44,59.87a4,4,0,0,0,3.92-4l-.07-7.28a4,4,0,0,0-2.72-3.71L45,39.32a5.36,5.36,0,0,0-1.58-3.69L40,32.28a5.46,5.46,0,0,0-2.9-1.5l-1.69-.29-4.86-4.87a3.45,3.45,0,0,0-2.48-1l-.73-3,.14-4.38a4.77,4.77,0,0,0-4.61-4.9,2.69,2.69,0,0,0-2,.78,2.66,2.66,0,0,0-.78,1.81l-.3,9.19S19.87,24.2,19.87,24.24ZM45.81,48.62l.08,7.27a1.93,1.93,0,0,1-.56,1.39,2,2,0,0,1-1.38.59L31.89,58a2,2,0,0,1-2-1.94l-.08-7.27a2,2,0,0,1,.57-1.39,1.93,1.93,0,0,1,1.38-.6l12.06-.13h0A2,2,0,0,1,45.81,48.62ZM22.35,14.53a.77.77,0,0,1,.5-.2,2.77,2.77,0,0,1,2.67,2.85l-.15,4.51v0s0,.07,0,.11,0,.07,0,.1a0,0,0,0,1,0,0l.8,3.24a3.42,3.42,0,0,0-.52.42,3.48,3.48,0,0,0,0,4.91l5.85,5.84a1,1,0,0,0,1.41,0,1,1,0,0,0,0-1.41L27.1,29.11A1.46,1.46,0,0,1,29.17,27l5.09,5.09h0a1,1,0,0,0,.31.21h0a1.17,1.17,0,0,0,.2.06l2,.34a3.35,3.35,0,0,1,1.82,1L42,37.05a3.37,3.37,0,0,1,1,2.32l.12,5.31-10.68.12,0-.21a7.73,7.73,0,0,0-2.2-4.36l-5.66-5.66a6.91,6.91,0,0,1-2-4.17l-.59-5.58s0-.05,0-.07l-.07-.64L22.15,15A.73.73,0,0,1,22.35,14.53Z" transform="translate(-19.86)"/><circle cx="12.36" cy="49.7" r="1.71"/><path d="M49,21.56a6,6,0,1,0-6-6A6,6,0,0,0,49,21.56Zm0-10a4,4,0,1,1-4,4A4,4,0,0,1,49,11.56Z" transform="translate(-19.86)"/><path d="M47.42,31.12h3.16a2.24,2.24,0,0,0,2.24-2.25V26.76a11.61,11.61,0,0,0,4-2.29l1.83,1.06a2.21,2.21,0,0,0,1.12.3,2.32,2.32,0,0,0,.58-.08,2.19,2.19,0,0,0,1.36-1L63.26,22a2.25,2.25,0,0,0-.82-3.07l-1.83-1a11.52,11.52,0,0,0,0-4.58l1.83-1.06a2.24,2.24,0,0,0,.82-3.06L61.68,6.41a2.24,2.24,0,0,0-3.06-.82l-1.83,1a11.94,11.94,0,0,0-4-2.29V2.24A2.24,2.24,0,0,0,50.58,0H47.42a2.25,2.25,0,0,0-2.25,2.24V4.35a12,12,0,0,0-4,2.29l-1.83-1a2.25,2.25,0,0,0-3.07.82L34.73,9.15a2.24,2.24,0,0,0,.82,3.06l1.83,1.06a12,12,0,0,0,0,4.58l-1.83,1A2.25,2.25,0,0,0,34.73,22l1.58,2.74a2.21,2.21,0,0,0,1.37,1,1.93,1.93,0,0,0,.58.08,2.24,2.24,0,0,0,1.12-.3l1.83-1.06a11.66,11.66,0,0,0,4,2.29v2.11A2.25,2.25,0,0,0,47.42,31.12Zm-9-7.32a.24.24,0,0,1-.33-.09L36.47,21a.24.24,0,0,1,.08-.33l2.25-1.3.32-.21h0l0-.05a1,1,0,0,0,.33-.6v0a1.09,1.09,0,0,0,0-.18s0,0,0,0a.77.77,0,0,0,0-.15h0a10,10,0,0,1,0-5,.82.82,0,0,0,0-.35A1,1,0,0,0,39.1,12l-.3-.19-2.25-1.3a.26.26,0,0,1-.09-.33L38,7.41a.27.27,0,0,1,.34-.09l2.25,1.3a2.49,2.49,0,0,0,.33.16l.07,0a1.07,1.07,0,0,0,.31.06h0a1,1,0,0,0,.34-.07h0a.85.85,0,0,0,.32-.21,9.85,9.85,0,0,1,4.35-2.51l.07,0,.06,0a.87.87,0,0,0,.26-.16l0,0a1,1,0,0,0,.2-.25l0,0a1.15,1.15,0,0,0,.1-.33h0c0-.12,0-.25,0-.38V2.24A.25.25,0,0,1,47.42,2h3.16a.24.24,0,0,1,.24.24v2.6a2.43,2.43,0,0,0,0,.38h0a.5.5,0,0,0,0,.13s0,.05,0,.07,0,0,0,.08l0,.1,0,0a.5.5,0,0,0,.08.12l.05,0,.09.1.06,0,.11.06,0,0,.13,0h0a9.79,9.79,0,0,1,4.35,2.51h0a1.15,1.15,0,0,0,.33.21h0a1,1,0,0,0,.35.07h0A1.13,1.13,0,0,0,57,8.81l.07,0,.33-.17,2.25-1.3a.25.25,0,0,1,.33.09l1.58,2.74a.23.23,0,0,1-.09.33l-2.25,1.3-.28.19a1,1,0,0,0-.43.7,1.18,1.18,0,0,0,0,.42,9.73,9.73,0,0,1,.32,2.47,9.55,9.55,0,0,1-.33,2.51h0l0,.15v.05a1,1,0,0,0,0,.17v0a.93.93,0,0,0,.33.6.12.12,0,0,0,0,.05h0l.31.21,2.25,1.3a.23.23,0,0,1,.09.33L60,23.71a.22.22,0,0,1-.15.11.24.24,0,0,1-.18,0l-2.25-1.3L57,22.33h0a1,1,0,0,0-1.08.22h0a9.75,9.75,0,0,1-4.35,2.51h0l-.08,0a1,1,0,0,0-.6.61.08.08,0,0,1,0,0,.8.8,0,0,0,0,.15h0a2.34,2.34,0,0,0,0,.38v2.6a.24.24,0,0,1-.24.24H47.42a.25.25,0,0,1-.25-.24v-2.6c0-.13,0-.25,0-.38h0l0-.11a.31.31,0,0,0,0-.08s0,0,0-.06a1,1,0,0,0-.47-.51h0l-.18-.06h0a9.7,9.7,0,0,1-4.35-2.51h0A1,1,0,0,0,41,22.32h0l-.34.17Z" transform="translate(-19.86)"/></g></g></g></svg>