<svg xmlns="http://www.w3.org/2000/svg" xmlns:xlink="http://www.w3.org/1999/xlink" viewBox="0 0 60 60"><defs><style>.cls-1{fill:none;}.cls-2{clip-path:url(#clip-path);}</style><clipPath id="clip-path" transform="translate(-19)"><rect class="cls-1" width="98" height="60"/></clipPath></defs><title>page-speed-optimization</title><g id="Layer_2" data-name="Layer 2"><g id="Layer_4" data-name="Layer 4"><g class="cls-2"><path d="M49,49.16a19.15,19.15,0,0,1-17.66-11.7A19.25,19.25,0,0,1,29.84,30,19.17,19.17,0,1,1,62.56,43.55,19.11,19.11,0,0,1,49,49.16Zm0-36.45A17.29,17.29,0,1,0,66.31,30,17.32,17.32,0,0,0,49,12.71Z" transform="translate(-19)"/><path d="M52.05,60H46a1.89,1.89,0,0,1-1.89-1.89V53.73h0a24,24,0,0,1-8.36-3.46h0l-3.1,3.09a1.88,1.88,0,0,1-2.65,0l-4.29-4.3a1.86,1.86,0,0,1,0-2.66l3.09-3.1h0a24,24,0,0,1-3.47-8.36v0H20.89A1.89,1.89,0,0,1,19,33V27a1.89,1.89,0,0,1,1.89-1.89h4.38v0a24.07,24.07,0,0,1,3.46-8.36h0l-3.09-3.09a1.9,1.9,0,0,1,0-2.67l4.3-4.3a1.88,1.88,0,0,1,2.65,0l3.09,3.1h0A24.09,24.09,0,0,1,44,6.25h0V1.89A1.89,1.89,0,0,1,46,0h6.1a1.89,1.89,0,0,1,1.89,1.89V6.27h0a24.07,24.07,0,0,1,8.36,3.46h0l3.09-3.09a1.88,1.88,0,0,1,2.65,0l4.3,4.3a1.88,1.88,0,0,1,0,2.66l-3.09,3.1h0a24,24,0,0,1,3.46,8.36v0h4.38A1.89,1.89,0,0,1,79,27v6.08a1.89,1.89,0,0,1-1.89,1.89H72.73v0a24.07,24.07,0,0,1-3.46,8.36h0l3.09,3.09a1.9,1.9,0,0,1,0,2.67l-4.3,4.3a1.88,1.88,0,0,1-2.65,0l-3.09-3.1h0A24.09,24.09,0,0,1,54,53.75h0v4.38A1.91,1.91,0,0,1,52.05,60ZM35.71,48.4a1.76,1.76,0,0,1,1,.31,22.42,22.42,0,0,0,7.71,3.2A1.88,1.88,0,0,1,46,53.75v4.38H52V53.75a1.89,1.89,0,0,1,1.5-1.84,21.93,21.93,0,0,0,7.72-3.2,1.88,1.88,0,0,1,2.36.24L66.7,52h0L71,47.73h0l-3.09-3.09a1.88,1.88,0,0,1-.25-2.36,22.29,22.29,0,0,0,3.21-7.72h0a1.88,1.88,0,0,1,1.84-1.49h4.39V27H72.73a1.86,1.86,0,0,1-1.83-1.5,22,22,0,0,0-3.21-7.71,1.88,1.88,0,0,1,.24-2.36L71,12.32h0L66.71,8h0L63.62,11.1a1.88,1.88,0,0,1-2.36.24,22.42,22.42,0,0,0-7.71-3.2,1.88,1.88,0,0,1-1.5-1.84V1.89H46V6.27a1.87,1.87,0,0,1-1.5,1.83,22,22,0,0,0-7.72,3.21,1.88,1.88,0,0,1-2.36-.24L31.3,8h0L27,12.29h0l3.09,3.09a1.88,1.88,0,0,1,.25,2.36,22.24,22.24,0,0,0-3.21,7.71A1.88,1.88,0,0,1,25.28,27H20.89V33h4.38a1.87,1.87,0,0,1,1.83,1.5,22,22,0,0,0,3.21,7.72,1.88,1.88,0,0,1-.24,2.36L27,47.7h0L31.29,52h0l3.09-3.09A1.94,1.94,0,0,1,35.71,48.4Z" transform="translate(-19)"/><path d="M36,36.21a.89.89,0,0,1-.36-.07.93.93,0,0,1-.51-.5A15,15,0,0,1,38.3,19.37,15,15,0,0,1,54.72,16a14.79,14.79,0,0,1,4.8,3.18,15,15,0,0,1,3.34,4.94,1,1,0,0,1,0,.72.93.93,0,0,1-.51.5L58.4,27a.94.94,0,0,1-1.22-.51,8.84,8.84,0,0,0-16.34,6.77.94.94,0,0,1-.51,1.22l-4,1.65a.82.82,0,0,1-.35.08ZM49,16.73A13.15,13.15,0,0,0,36.56,34l2.24-.93A10.71,10.71,0,0,1,44.91,20a10.72,10.72,0,0,1,13.6,4.94L60.76,24A13.09,13.09,0,0,0,54,17.74,13.32,13.32,0,0,0,49,16.73Z" transform="translate(-19)"/><path d="M45.25,21.79a.89.89,0,0,1-.86-.59l-1.65-4a.94.94,0,1,1,1.73-.71l1.64,4a.94.94,0,0,1-.5,1.22A.9.9,0,0,1,45.25,21.79Z" transform="translate(-19)"/><path d="M52.73,21.77a.86.86,0,0,1-.35-.06.94.94,0,0,1-.51-1.22l1.65-4a.93.93,0,1,1,1.72.71l-1.64,4A.92.92,0,0,1,52.73,21.77Z" transform="translate(-19)"/><path d="M40,27.08A1,1,0,0,1,39.6,27l-4-1.64a.93.93,0,1,1,.72-1.72l4,1.64a.93.93,0,0,1,.5,1.22A.91.91,0,0,1,40,27.08Z" transform="translate(-19)"/><path d="M62,36.19a.94.94,0,0,1-.36-.06l-4-1.65a.93.93,0,0,1-.5-1.22,8.92,8.92,0,0,0,0-6.77.94.94,0,0,1,.5-1.22,1,1,0,0,1,1.22.51,10.61,10.61,0,0,1,.33,7.32l2.24.93a13,13,0,0,0-.34-9.18.94.94,0,0,1,1.73-.72,15,15,0,0,1,0,11.48.94.94,0,0,1-.5.5A1,1,0,0,1,62,36.19Z" transform="translate(-19)"/><path d="M48.65,35a2.25,2.25,0,0,1-1.42-.51,2.19,2.19,0,0,1-.76-1.71,2.49,2.49,0,0,1,.93-1.89l5.33-4.31a1,1,0,0,1,1.19,0,.92.92,0,0,1,.21,1.17l-3.36,6a2.46,2.46,0,0,1-1.71,1.22,2.59,2.59,0,0,1-.41,0Zm1.43-3.88L48.59,32.3a.57.57,0,0,0-.23.44.35.35,0,0,0,.09.26.34.34,0,0,0,.28.07.72.72,0,0,0,.41-.3h0Z" transform="translate(-19)"/></g></g></g></svg>