<svg xmlns="http://www.w3.org/2000/svg" xmlns:xlink="http://www.w3.org/1999/xlink" viewBox="0 0 64.66 60"><defs><style>.cls-1{fill:none;}.cls-2{clip-path:url(#clip-path);}</style><clipPath id="clip-path" transform="translate(-16.67 0)"><rect class="cls-1" width="98" height="60"/></clipPath></defs><title>third-party-integration</title><g id="Layer_2" data-name="Layer 2"><g id="third_party_integration" data-name="third party integration"><g class="cls-2"><path d="M29.81,39a4.35,4.35,0,1,0,4.35,4.35A4.35,4.35,0,0,0,29.81,39Zm0,6.36a2,2,0,1,1,2-2A2,2,0,0,1,29.81,45.4Zm38.3-11.83a13.2,13.2,0,0,0-10.36,5l-7.17-4.14V26.37a13.21,13.21,0,1,0-2.34,0v8.08L40.44,39a13.13,13.13,0,1,0,1.22,2l7.75-4.47,7.05,4.07a13.2,13.2,0,1,0,11.65-7Zm-46,20.91a10.9,10.9,0,0,1,7.67-3.15h0a10.87,10.87,0,0,1,7.65,3.15,10.85,10.85,0,0,1-15.35,0ZM39,52.65A13.21,13.21,0,0,0,29.84,49h0a13.24,13.24,0,0,0-9.14,3.66,10.87,10.87,0,1,1,18.29,0ZM49.41,24.09a10.85,10.85,0,0,1-7.68-3.18,10.86,10.86,0,0,1,7.68-3.14h0a10.89,10.89,0,0,1,7.65,3.14A10.81,10.81,0,0,1,49.41,24.09Zm0-21.75a10.86,10.86,0,0,1,9.14,16.74,13.2,13.2,0,0,0-9.11-3.65h0a13.19,13.19,0,0,0-9.15,3.65A10.87,10.87,0,0,1,49.41,2.34Zm18.7,33.57a10.86,10.86,0,0,1,9.15,16.74A13.24,13.24,0,0,0,68.14,49h0A13.28,13.28,0,0,0,59,52.65a10.87,10.87,0,0,1,9.15-16.74ZM60.44,54.48a10.9,10.9,0,0,1,7.67-3.15h0a10.87,10.87,0,0,1,7.65,3.15,10.85,10.85,0,0,1-15.35,0Zm7.67-6.74a4.35,4.35,0,1,0-4.35-4.35A4.35,4.35,0,0,0,68.11,47.74Zm0-6.36a2,2,0,1,1-2,2h0A2,2,0,0,1,68.11,41.38ZM49.41,14.17a4.35,4.35,0,1,0-4.35-4.35h0A4.35,4.35,0,0,0,49.41,14.17Zm0-6.36a2,2,0,1,1-2,2h0A2,2,0,0,1,49.41,7.81Z" transform="translate(-16.67 0)"/></g></g></g></svg>