<svg xmlns="http://www.w3.org/2000/svg" xmlns:xlink="http://www.w3.org/1999/xlink" viewBox="0 0 45.37 60"><defs><style>.cls-1{fill:none;}.cls-2{clip-path:url(#clip-path);}</style><clipPath id="clip-path" transform="translate(-26.31)"><rect class="cls-1" width="98" height="60"/></clipPath></defs><title>wordpress-upgradation</title><g id="Layer_2" data-name="Layer 2"><g id="wordpress-upgradation"><g class="cls-2"><path d="M66.79,36.57h-3a14.76,14.76,0,0,0-1.14-2.72l2.12-2.12a1.1,1.1,0,0,0,0-1.56l-4.84-4.84a1.1,1.1,0,0,0-1.57,0l-2.11,2.11a14.81,14.81,0,0,0-2.73-1.13v-3a1.12,1.12,0,0,0-1.11-1.12H45.58a1.12,1.12,0,0,0-1.11,1.12v3a14.72,14.72,0,0,0-2.72,1.13l-2.12-2.11a1.09,1.09,0,0,0-1.56,0l-4.84,4.84a1.1,1.1,0,0,0,0,1.56l2.11,2.12a15.44,15.44,0,0,0-1.13,2.72h-3a1.11,1.11,0,0,0-1.11,1.11v6.84a1.11,1.11,0,0,0,1.11,1.11h3a15.54,15.54,0,0,0,1.13,2.73l-2.11,2.11a1.12,1.12,0,0,0,0,1.57l4.84,4.84a1.09,1.09,0,0,0,.79.32,1.16,1.16,0,0,0,.79-.32l2.11-2.12a15.05,15.05,0,0,0,2.72,1.14v3A1.11,1.11,0,0,0,45.59,60h6.84a1.12,1.12,0,0,0,1.12-1.11v-3a15.05,15.05,0,0,0,2.72-1.14l2.11,2.12a1.11,1.11,0,0,0,.79.32,1.14,1.14,0,0,0,.79-.32L64.8,52a1.12,1.12,0,0,0,0-1.57l-2.11-2.11a15.54,15.54,0,0,0,1.13-2.73h3a1.11,1.11,0,0,0,1.11-1.11V37.68a1.11,1.11,0,0,0-1.11-1.11Zm-1.11,6.85H63l-.09,0a.63.63,0,0,0-.22.05l-.19.06-.18.13a1,1,0,0,0-.15.14A.82.82,0,0,0,62,44l-.1.2s0,.05,0,.08A12.93,12.93,0,0,1,60.34,48a.94.94,0,0,0,0,.09.76.76,0,0,0-.08.21c0,.07,0,.13,0,.21v.2a.65.65,0,0,0,0,.21,1,1,0,0,0,.08.18.76.76,0,0,0,.13.2s0,.06,0,.07l1.93,1.92-3.27,3.27-1.92-1.92-.07,0a1,1,0,0,0-.2-.13.71.71,0,0,0-.18-.08l-.21,0h-.21a.65.65,0,0,0-.2,0,1,1,0,0,0-.21.08l-.09,0A12.9,12.9,0,0,1,52.13,54s-.05,0-.07,0a.63.63,0,0,0-.2.1.56.56,0,0,0-.17.11,1.14,1.14,0,0,0-.15.16l-.12.17c0,.07-.05.13-.07.19a1.85,1.85,0,0,0,0,.23s0,0,0,.09v2.72H46.67V55.09a.81.81,0,0,0,0-.09.93.93,0,0,0,0-.23,1.46,1.46,0,0,1-.07-.19,1,1,0,0,0-.12-.17,1.14,1.14,0,0,0-.15-.16l-.16-.11-.2-.1s-.06,0-.08,0a13,13,0,0,1-3.72-1.54l-.08,0-.22-.08-.2,0H41.4a.71.71,0,0,0-.21,0c-.07,0-.12.06-.18.08l-.2.13s-.05,0-.06,0l-1.93,1.92-3.27-3.27,1.93-1.92,0-.07a1.43,1.43,0,0,0,.14-.2.56.56,0,0,0,.07-.18.72.72,0,0,0,.05-.21,1.34,1.34,0,0,0,0-.2.58.58,0,0,0-.05-.21,1.72,1.72,0,0,0-.07-.21s0-.06,0-.09a12.93,12.93,0,0,1-1.53-3.71s0-.06,0-.08A.93.93,0,0,0,36,44a.75.75,0,0,0-.13-.18.45.45,0,0,0-.15-.13,1.18,1.18,0,0,0-.18-.13.6.6,0,0,0-.19-.06.87.87,0,0,0-.22-.05l-.09,0H32.28V38.81H35a1.29,1.29,0,0,0,.4-.08.75.75,0,0,0,.12-.07,1.18,1.18,0,0,0,.22-.14l.1-.11a1.86,1.86,0,0,0,.14-.2l.06-.15a.23.23,0,0,0,.05-.1,12.81,12.81,0,0,1,1.53-3.71l0-.09a1.72,1.72,0,0,0,.07-.21.79.79,0,0,0,0-.22v-.2a.54.54,0,0,0,0-.21.87.87,0,0,0-.07-.17.9.9,0,0,0-.14-.2s0-.06,0-.07L35.56,31l3.27-3.27,1.93,1.92a1,1,0,0,0,.33.22l.08,0a1.17,1.17,0,0,0,.38.07,1.1,1.1,0,0,0,.36-.07l.1-.05.12,0a12.84,12.84,0,0,1,3.71-1.54s.06,0,.08,0a.75.75,0,0,0,.2-.1.64.64,0,0,0,.16-.11,1.14,1.14,0,0,0,.15-.16.81.81,0,0,0,.12-.18.62.62,0,0,0,.07-.19,1.43,1.43,0,0,0,0-.22s0-.05,0-.09V24.44H51.3v2.72a.81.81,0,0,0,0,.09.54.54,0,0,0,0,.22c0,.07,0,.14.06.19a.83.83,0,0,0,.13.18.7.7,0,0,0,.14.16l.17.11.2.1s0,0,.07,0a12.9,12.9,0,0,1,3.72,1.54l.11,0,.1.05a1.16,1.16,0,0,0,.37.07,1.21,1.21,0,0,0,.37-.07s.06,0,.08,0a1,1,0,0,0,.34-.22l1.92-1.92L62.42,31,60.5,32.88a.25.25,0,0,0,0,.07,1,1,0,0,0-.13.2.38.38,0,0,0-.08.17,1.91,1.91,0,0,0,0,.21.67.67,0,0,0,0,.2.93.93,0,0,0,0,.22,1.11,1.11,0,0,0,.08.21.47.47,0,0,0,0,.09A13.12,13.12,0,0,1,61.89,38s0,.07,0,.1a.69.69,0,0,0,.07.15,1.37,1.37,0,0,0,.13.2l.1.11a1.64,1.64,0,0,0,.22.14l.12.07a1.36,1.36,0,0,0,.41.08H65.7v4.61Z" transform="translate(-26.31)"/><path d="M49,32.88a8.23,8.23,0,1,0,8.23,8.23A8.24,8.24,0,0,0,49,32.88Zm0,14.23a6,6,0,1,1,6-6A6,6,0,0,1,49,47.11Z" transform="translate(-26.31)"/><path d="M41.88,13.31h2.67v5.56a1.11,1.11,0,1,0,2.22,0V12.2a1.12,1.12,0,0,0-1.11-1.12H43.92L49,3.13l5.08,8H52.33a1.12,1.12,0,0,0-1.11,1.12v6.67a1.12,1.12,0,0,0,2.23,0V13.31h2.66a1.1,1.1,0,0,0,1-.58,1.09,1.09,0,0,0,0-1.13L49.93.48a1.15,1.15,0,0,0-1.87,0L41,11.6a1.09,1.09,0,0,0-.05,1.13A1.12,1.12,0,0,0,41.88,13.31Z" transform="translate(-26.31)"/><path d="M30.09,27.44a1.12,1.12,0,0,0,2.23,0V20a1.11,1.11,0,0,0-1.11-1.11H29.46l5.08-8,5.08,8H37.88A1.11,1.11,0,0,0,36.77,20v1.78a1.11,1.11,0,0,0,2.22,0v-.67h2.67a1.12,1.12,0,0,0,1-.58,1.07,1.07,0,0,0,0-1.13L35.48,8.26a1.16,1.16,0,0,0-1.87,0L26.49,19.38a1.12,1.12,0,0,0,0,1.13,1.1,1.1,0,0,0,1,.58h2.66Z" transform="translate(-26.31)"/><path d="M71.5,19.38,64.39,8.26a1.16,1.16,0,0,0-1.87,0L55.4,19.38a1.11,1.11,0,0,0,.94,1.71H59v.67a1.11,1.11,0,0,0,2.22,0V20a1.11,1.11,0,0,0-1.11-1.11H58.37l5.08-8,5.09,8H66.79A1.11,1.11,0,0,0,65.68,20v7.46a1.11,1.11,0,1,0,2.22,0V21.09h2.67a1.12,1.12,0,0,0,1-.58,1.07,1.07,0,0,0,0-1.13Z" transform="translate(-26.31)"/></g></g></g></svg>