<?xml version="1.0" encoding="UTF-8"?>
<svg id="Layer_2" xmlns="http://www.w3.org/2000/svg" viewBox="0 0 50 50">
  <defs>
    <style>
      .cls-1 {
        fill: #f16027;
      }
    </style>
  </defs>
  <g id="Layer_1-2" data-name="Layer_1">
    <path class="cls-1" d="M47.42,15.91c-1.52-1.64-3.54-2.71-5.74-3.03,0-2.52-.95-4.88-2.69-6.73-1.87-1.98-4.4-3.07-7.13-3.07-2.06,0-4.06.65-5.73,1.84-1.96-3.06-5.35-4.93-9.01-4.93-3.43,0-6.56,1.58-8.59,4.34-1.92,2.6-2.56,5.82-1.8,8.91-1.85.59-3.45,1.67-4.64,3.15-1.37,1.7-2.09,3.81-2.09,6.11,0,2.58,1.02,5.01,2.86,6.86,1.85,1.85,4.28,2.86,6.86,2.86h3.78c.61.98,1.35,1.88,2.22,2.7,1.09,1.02,1.63,2.3,1.63,3.78v2.75c0,2.47,1.65,4.56,3.9,5.23.24,1.86,1.82,3.3,3.75,3.3s3.51-1.44,3.75-3.3c2.25-.67,3.9-2.76,3.9-5.23v-2.75c0-1.49.55-2.76,1.63-3.78.87-.82,1.6-1.72,2.22-2.7h3.76c2.58,0,4.99-1,6.83-2.8,1.87-1.84,2.89-4.3,2.89-6.93,0-2.45-.92-4.8-2.58-6.6h0ZM25.01,36.11c1.21,0,2.05.69,2.05,1.67v2.27h-4.11v-2.27c0-.98.84-1.67,2.05-1.67ZM31.44,41.27v.2c0,.5-.09.97-.25,1.41h-12.37c-.16-.44-.25-.91-.25-1.41v-.2h12.87ZM25.01,48.78c-1.17,0-2.14-.79-2.45-1.87.09,0,.17.01.26.01h4.39c.09,0,.17-.01.26-.01-.3,1.08-1.28,1.87-2.45,1.87h0ZM27.2,45.71h-4.39c-1.34,0-2.54-.63-3.32-1.61h11.02c-.78.98-1.97,1.61-3.32,1.61h0ZM33.46,34.05c-1.34,1.26-2.02,2.83-2.02,4.67v1.33h-3.16v-2.27c0-.94-.43-1.74-1.16-2.25l1.53-5.71c.09-.32-.11-.66-.43-.75-.32-.09-.66.11-.75.43l-1.48,5.52c-.31-.08-.64-.12-1-.12s-.68.04-1,.12l-1.48-5.52c-.09-.32-.42-.52-.75-.43-.32.09-.52.42-.43.75l1.53,5.71c-.72.52-1.16,1.31-1.16,2.25v2.27h-3.16v-1.33c0-1.84-.68-3.41-2.02-4.67-2.49-2.35-3.86-5.53-3.86-8.95,0-6.79,5.52-12.31,12.31-12.31s12.31,5.52,12.31,12.31c0,3.42-1.37,6.6-3.86,8.95h0ZM46.24,28.56c-1.63,1.61-3.8,2.48-6.1,2.45h-2.96c.89-1.82,1.35-3.83,1.35-5.92,0-7.46-6.07-13.53-13.53-13.53-7.46,0-13.53,6.07-13.53,13.53,0,2.09.47,4.1,1.35,5.92h-3.11c-4.69,0-8.51-3.82-8.51-8.51,0-4.02,2.52-7.26,6.41-8.25l.62-.16-.2-.61c-.89-2.9-.37-5.97,1.45-8.43,1.8-2.44,4.58-3.84,7.61-3.84,3.45,0,6.64,1.88,8.31,4.91l.35.64.57-.47c1.54-1.29,3.5-2,5.5-2,2.39,0,4.6.95,6.24,2.69s2.47,4.01,2.34,6.39l-.03.59.59.05c4.36.37,7.78,4.09,7.78,8.48,0,2.29-.9,4.44-2.54,6.06h0ZM35.28,25.1c0,.34-.28.61-.61.61s-.61-.28-.61-.61c0-2.42-.94-4.69-2.65-6.4-.24-.24-.24-.62,0-.86.24-.24.62-.24.86,0,1.94,1.94,3,4.52,3,7.27h0ZM29.49,16.51c-.1.23-.32.36-.56.36-.08,0-.17-.02-.25-.05-1.16-.52-2.4-.78-3.67-.78-.34,0-.61-.28-.61-.61s.28-.61.61-.61c1.45,0,2.85.3,4.17.88.3.13.44.49.3.8h0Z"/>
  </g>
</svg>