<?xml version="1.0" encoding="UTF-8"?>
<svg id="Layer_2" xmlns="http://www.w3.org/2000/svg" viewBox="0 0 49.91 50">
  <defs>
    <style>
      .cls-1 {
        fill: #f16027;
      }
    </style>
  </defs>
  <g id="Layer_1-2" data-name="Layer_1">
    <g>
      <path class="cls-1" d="M40.99,39.75c-.58-.64-1.38-1-2.24-1.04-.58-.02-1.15.12-1.65.39l-3.9-4.23c2.27-1.91,3.87-4.6,4.4-7.64l4.27,1.36c-.2,1.86.93,3.69,2.78,4.27.4.13.82.19,1.23.19,1.71,0,3.3-1.1,3.84-2.81.33-1.02.23-2.12-.26-3.07-.49-.96-1.33-1.67-2.35-1.99-1.85-.6-3.82.23-4.74,1.86l-4.58-1.46c0-.2.03-.4.03-.6,0-3.46-1.37-6.59-3.6-8.91l5.87-5.33c.48.31,1.02.5,1.6.53h.16c.81,0,1.56-.3,2.17-.84,1.31-1.19,1.41-3.24.22-4.56-1.19-1.31-3.24-1.41-4.56-.22-1.11,1.01-1.34,2.61-.68,3.89l-5.97,5.43c-2.22-1.81-5.05-2.89-8.12-2.89-1.04,0-2.05.14-3.02.37l-2.14-5.01c1.68-1.02,2.4-3.15,1.61-5.01-.87-2.05-3.24-3-5.29-2.13-2.05.87-3,3.25-2.13,5.29.65,1.53,2.15,2.45,3.71,2.45.19,0,.38-.03.57-.06l2.11,4.94c-4.2,1.6-7.35,5.32-8.13,9.85l-5.9.21c-.16-.55-.45-1.05-.88-1.45-.63-.59-1.46-.9-2.31-.86-.86.03-1.66.4-2.25,1.02S-.03,23.17,0,24.03c.06,1.74,1.49,3.11,3.23,3.11h.11c.86-.03,1.66-.4,2.25-1.02.4-.43.65-.94.77-1.5l5.68-.2c0,.19-.03.39-.03.58,0,4.24,2.06,8,5.23,10.35l-4.53,6.87c-.73-.3-1.52-.37-2.31-.21-1.06.22-1.96.83-2.56,1.73s-.8,1.98-.59,3.03.83,1.96,1.73,2.56c.67.44,1.44.67,2.21.67.27,0,.55-.02.81-.08,1.06-.22,1.96-.83,2.56-1.73s.8-1.98.59-3.03c-.16-.79-.54-1.49-1.1-2.04l4.54-6.88c1.87,1.06,4.02,1.67,6.32,1.67,2.57,0,4.97-.77,6.98-2.07l4.02,4.36c-.77,1.2-.69,2.82.33,3.93h0c.58.64,1.38,1,2.24,1.04h.14c.81,0,1.58-.3,2.19-.85,1.31-1.2,1.4-3.25.19-4.56h-.02ZM43.57,28.3c.4-1.27,1.77-1.98,3.04-1.56.61.19,1.12.62,1.41,1.19.3.57.35,1.23.15,1.85-.4,1.27-1.77,1.98-3.04,1.56-1.27-.4-1.98-1.77-1.56-3.04ZM40.75,6.87c.31-.28.69-.42,1.08-.42.44,0,.88.18,1.19.52.6.66.55,1.68-.11,2.28-.32.29-.73.44-1.16.42-.43-.02-.83-.21-1.11-.52-.6-.66-.55-1.68.11-2.28ZM18.59,6.26c-1.23.52-2.65-.05-3.18-1.27-.52-1.23.05-2.65,1.27-3.18.31-.13.63-.19.94-.19.94,0,1.84.55,2.23,1.47.52,1.23-.05,2.65-1.27,3.18h0ZM4.4,25.02c-.29.31-.69.5-1.12.51-.9,0-1.64-.67-1.67-1.56-.02-.43.14-.84.44-1.15.3-.31.69-.5,1.12-.51.44,0,.84.14,1.15.44s.5.69.51,1.12c.02.43-.14.84-.44,1.15h0ZM13.22,47.3c-.35.54-.9.91-1.53,1.04-.63.13-1.27,0-1.81-.35s-.91-.9-1.04-1.53,0-1.27.35-1.81.9-.91,1.53-1.04c.16-.03.33-.05.49-.05.47,0,.93.14,1.33.4.54.35.91.9,1.04,1.53s0,1.27-.35,1.81h0ZM24.91,36.29c-6.23,0-11.29-5.06-11.29-11.29s5.06-11.29,11.29-11.29,11.29,5.06,11.29,11.29-5.06,11.29-11.29,11.29ZM39.71,43.12c-.31.29-.73.44-1.16.43-.43-.02-.83-.2-1.12-.52-.6-.65-.56-1.68.1-2.28.31-.29.73-.44,1.16-.43.43.02.83.2,1.12.52.6.65.56,1.68-.1,2.28Z"/>
      <path class="cls-1" d="M32.19,26l-.35-.2c.03-.27.05-.54.05-.81s-.02-.54-.05-.81l.36-.2c.36-.2.62-.53.73-.93.1-.4.05-.8-.16-1.15l-1.17-1.94c-.42-.7-1.35-.94-2.07-.54l-.4.23c-.47-.34-.98-.62-1.51-.84v-.39c0-.83-.69-1.5-1.53-1.5h-2.34c-.85,0-1.53.68-1.53,1.5v.39c-.53.22-1.04.5-1.48.85l-.43-.23c-.73-.4-1.65-.15-2.07.55l-1.17,1.94c-.21.35-.27.75-.16,1.15s.36.73.73.93l.35.2c-.03.27-.05.54-.05.81s.02.54.05.81l-.36.2c-.36.2-.62.53-.73.93-.1.4-.05.8.16,1.15l1.17,1.94c.42.7,1.35.94,2.07.54l.4-.23c.47.34.98.62,1.51.84v.39c0,.83.69,1.5,1.53,1.5h2.34c.85,0,1.53-.68,1.53-1.5v-.39c.53-.22,1.04-.5,1.48-.85l.43.23c.72.4,1.65.15,2.07-.55l1.17-1.94c.21-.35.27-.75.16-1.15-.1-.4-.36-.73-.73-.93ZM30.27,25c0,.23-.02.45-.05.69-.09.6.23,1.2.77,1.5l.32.18-1.06,1.76-.38-.21c-.53-.29-1.19-.24-1.69.12-.37.27-.77.49-1.19.66-.6.24-.98.79-.98,1.4v.35h-2.19v-.35c0-.61-.39-1.16-.98-1.4-.42-.17-.82-.39-1.19-.66-.5-.37-1.17-.41-1.69-.12l-.38.21-1.06-1.76.32-.18c.55-.3.85-.9.77-1.5-.03-.23-.05-.46-.05-.69s.02-.45.05-.69c.09-.6-.23-1.2-.77-1.5l-.32-.18,1.06-1.76.38.21c.53.29,1.2.24,1.69-.12.37-.27.77-.49,1.19-.66.6-.24.98-.79.98-1.4v-.35h2.19v.35c0,.61.39,1.16.98,1.4.42.17.82.39,1.19.66.5.37,1.17.42,1.69.12l.38-.21,1.06,1.76-.32.18c-.55.3-.85.9-.77,1.5.03.23.05.46.05.69Z"/>
      <path class="cls-1" d="M24.91,21.37c-2,0-3.63,1.63-3.63,3.63s1.63,3.63,3.63,3.63,3.63-1.63,3.63-3.63-1.63-3.63-3.63-3.63ZM24.91,27.02c-1.11,0-2.02-.9-2.02-2.02s.9-2.02,2.02-2.02,2.02.9,2.02,2.02-.9,2.02-2.02,2.02Z"/>
    </g>
  </g>
</svg>