<?xml version="1.0" encoding="UTF-8"?>
<svg id="Layer_2" xmlns="http://www.w3.org/2000/svg" xmlns:xlink="http://www.w3.org/1999/xlink" viewBox="0 0 40 40">
  <defs>
    <style>
      .cls-1 {
        fill: #f16129;
      }

      .cls-2 {
        fill: none;
      }

      .cls-3 {
        clip-path: url(#clippath);
      }
    </style>
    <clipPath id="clippath">
      <rect class="cls-2" width="40" height="40"/>
    </clipPath>
  </defs>
  <g id="Layer_1-2" data-name="Layer_1">
    <g class="cls-3">
      <path class="cls-1" d="M4.77,34.33c-.51,0-1.01-.1-1.48-.3-.93-.4-1.65-1.13-2.02-2.06s-.36-1.96.03-2.89c.59-1.39,1.96-2.29,3.47-2.29.51,0,1.01.1,1.48.3l.15.06,5.77-7.93-.12-.12c-.67-.7-1.03-1.62-1.03-2.58,0-2.05,1.68-3.71,3.73-3.71,2.07,0,3.73,1.69,3.73,3.74,0,.63-.17,1.24-.48,1.79l-.08.15,5.39,4.43.13-.11c.65-.57,1.49-.88,2.36-.88.43,0,.86.08,1.26.23l.16.06,5.75-9.9-.13-.11c-.83-.71-1.31-1.74-1.31-2.84,0-2.04,1.67-3.69,3.71-3.69s3.75,1.67,3.75,3.73c0,.99-.39,1.93-1.09,2.63s-1.64,1.09-2.63,1.09h0c-.42,0-.84-.08-1.25-.23l-.16-.06-5.75,9.89.13.11c.84.71,1.31,1.76,1.31,2.86-.01,2.04-1.68,3.7-3.73,3.7-2.08-.01-3.74-1.7-3.73-3.75,0-.62.17-1.24.48-1.79l.08-.15-5.39-4.43-.13.11c-.66.57-1.5.89-2.37.89-.55,0-1.11-.13-1.6-.37l-.15-.08-5.74,7.89.13.12c1.12,1.08,1.47,2.77.86,4.2-.59,1.39-1.96,2.29-3.47,2.29ZM4.82,27.83c-1.49,0-2.7,1.21-2.7,2.7s1.21,2.7,2.7,2.7c1.49,0,2.7-1.21,2.7-2.7,0-1.49-1.21-2.7-2.7-2.7ZM25.83,22.94c-1.49,0-2.7,1.21-2.7,2.7s1.21,2.7,2.7,2.7c1.49,0,2.7-1.21,2.7-2.7,0-1.49-1.21-2.7-2.7-2.7ZM14.76,13.85c-1.49,0-2.7,1.21-2.7,2.7,0,1.49,1.21,2.7,2.7,2.7,1.49,0,2.7-1.21,2.7-2.7,0-.72-.28-1.4-.79-1.91-.51-.51-1.19-.79-1.91-.79h0ZM35.27,6.69c-1.49,0-2.7,1.21-2.7,2.7s1.21,2.7,2.7,2.7c1.49,0,2.7-1.21,2.7-2.7,0-1.49-1.21-2.7-2.7-2.7Z"/>
    </g>
  </g>
</svg>