<?xml version="1.0" encoding="UTF-8"?>
<svg id="Layer_2" xmlns="http://www.w3.org/2000/svg" xmlns:xlink="http://www.w3.org/1999/xlink" viewBox="0 0 40 40">
  <defs>
    <style>
      .cls-1 {
        fill: #f16129;
      }

      .cls-2 {
        fill: none;
      }

      .cls-3 {
        clip-path: url(#clippath);
      }
    </style>
    <clipPath id="clippath">
      <rect class="cls-2" width="40" height="40"/>
    </clipPath>
  </defs>
  <g id="Layer_1-2" data-name="Layer_1">
    <g class="cls-3">
      <g>
        <path class="cls-1" d="M10.73,34.48v-3.18c0-.79.65-1.44,1.44-1.44h3.78v-2.34H1.74c-.79,0-1.44-.65-1.44-1.44V3.48c0-.79.65-1.44,1.44-1.44h36.52c.79,0,1.44.65,1.44,1.44v22.61c0,.79-.65,1.44-1.44,1.44h-1.44v-1.14h1.74V3.18H1.44v23.21h20.87v1.14h-5.22v2.34h5.22v1.14h-10.43v2.34h10.43v1.14h-11.57Z"/>
        <path class="cls-1" d="M26.09,37.96c-.79,0-1.44-.65-1.44-1.44v-13.91c0-.79.65-1.44,1.44-1.44h6.96c.79,0,1.44.65,1.44,1.44v13.91c0,.79-.65,1.44-1.44,1.44h-6.96ZM25.79,36.82h7.56v-1.47h-7.56v1.47ZM25.79,34.21h7.56v-8.43h-7.56v8.43ZM25.79,24.65h7.56v-2.34h-7.56v2.34Z"/>
      </g>
    </g>
  </g>
</svg>