<?xml version="1.0" encoding="UTF-8"?>
<svg id="Layer_2" xmlns="http://www.w3.org/2000/svg" viewBox="0 0 40 40">
  <defs>
    <style>
      .cls-1 {
        fill: #f16129;
      }
    </style>
  </defs>
  <g id="Layer_1-2" data-name="Layer_1">
    <g>
      <path class="cls-1" d="M35.96,40c-.9,0-1.75-.35-2.39-.99l-8.3-8.31-.34.2c-2.53,1.48-5.41,2.26-8.34,2.26C7.44,33.16,0,25.72,0,16.58S7.44,0,16.58,0s16.58,7.44,16.58,16.58c0,2.92-.78,5.81-2.26,8.34l-.2.34,8.31,8.31c.64.64.99,1.49.99,2.39s-.36,1.76-.99,2.39l-.67.67c-.63.63-1.5.99-2.39.99ZM29.64,26.78c-.83,1.06-1.79,2.03-2.86,2.86l-.46.36,8.13,8.13c.4.4.94.62,1.5.62s1.1-.22,1.5-.62l.67-.67c.4-.4.62-.94.62-1.5s-.22-1.1-.62-1.5l-8.13-8.13-.36.46ZM16.58,1.25C8.13,1.25,1.25,8.13,1.25,16.58s6.88,15.33,15.33,15.33,15.33-6.88,15.33-15.33S25.03,1.25,16.58,1.25Z"/>
      <path class="cls-1" d="M7.46,21.77c-.17,0-.32-.07-.44-.18-.24-.24-.24-.64,0-.89l5.7-5.7c.12-.12.28-.18.44-.18s.32.07.44.18l4.12,4.12,6.46-6.46h-3.05c-.17,0-.33-.07-.44-.18s-.18-.28-.18-.44c0-.35.28-.63.63-.63h4.56c.35,0,.63.28.63.63v4.56c0,.17-.07.33-.18.44-.12.12-.28.18-.44.18s-.32-.07-.44-.18c-.12-.12-.19-.28-.19-.44v-3.05l-6.91,6.91c-.12.12-.28.18-.44.18s-.33-.07-.44-.18l-4.11-4.11-5.26,5.25c-.12.12-.28.18-.44.18Z"/>
    </g>
  </g>
</svg>