<?xml version="1.0" encoding="UTF-8"?>
<svg id="Layer_2" xmlns="http://www.w3.org/2000/svg" xmlns:xlink="http://www.w3.org/1999/xlink" viewBox="0 0 40 40">
  <defs>
    <style>
      .cls-1 {
        fill: #f16129;
      }

      .cls-2 {
        fill: none;
      }

      .cls-3 {
        clip-path: url(#clippath);
      }
    </style>
    <clipPath id="clippath">
      <rect class="cls-2" width="40" height="40"/>
    </clipPath>
  </defs>
  <g id="Layer_1-2" data-name="Layer_1">
    <g class="cls-3">
      <path class="cls-1" d="M19.73,40c-.15,0-.23,0-.34-.05l-2.02-.87c-7.88-3.48-12.97-11.27-12.97-19.85v-10.39c0-.34.18-.63.48-.8L19.36.11c.15-.07.32-.11.48-.11.14,0,.27.03.37.1l14.94,7.94c.29.16.47.48.44.78v10.21c0,8.71-5.21,16.53-13.26,19.93l-2.25.98c-.12.04-.24.06-.35.06ZM6.23,9.39v9.84c0,7.89,4.67,15.03,11.89,18.18l1.65.7,1.94-.82c7.37-3.11,12.13-10.27,12.13-18.26v-9.64L19.81,1.94l-13.58,7.46ZM17.69,24.71c-.16,0-.47-.04-.66-.3l-3.94-4.6c-.15-.18-.23-.41-.23-.7.03-.24.13-.43.32-.58.17-.14.39-.22.61-.22.27,0,.51.11.68.31l3.35,3.91,8.45-6.82c.16-.14.34-.2.54-.2.04,0,.09,0,.13,0,.18.03.43.1.62.32.16.19.22.41.19.67-.03.18-.1.43-.32.62l-9.16,7.4c-.16.13-.35.19-.58.19Z"/>
    </g>
  </g>
</svg>