<?xml version="1.0" encoding="UTF-8"?>
<svg id="Layer_2" xmlns="http://www.w3.org/2000/svg" xmlns:xlink="http://www.w3.org/1999/xlink" viewBox="0 0 60 37">
  <defs>
    <style>
      .cls-1 {
        fill: none;
      }

      .cls-2 {
        fill: #f15f26;
        fill-rule: evenodd;
      }

      .cls-3 {
        clip-path: url(#clippath);
      }
    </style>
    <clipPath id="clippath">
      <rect class="cls-1" width="60" height="37"/>
    </clipPath>
  </defs>
  <g id="Layer_2-2" data-name="Layer_2">
    <g class="cls-3">
      <path class="cls-2" d="M44.17,26.93h-2.67v-2.67h2.67v2.67h0ZM44.43,23.15h-3.18c-.48,0-.86.39-.86.86v3.18c0,.47.39.86.86.86h3.18c.47,0,.86-.39.86-.86v-3.18c0-.48-.39-.86-.86-.86h0ZM37.72,27.49c0,.31-.25.56-.56.56h-6.15c-.31,0-.56-.25-.56-.56s.25-.56.56-.56h6.15c.31,0,.56.25.56.56h0ZM37.72,23.71c0,.31-.25.56-.56.56h-6.15c-.31,0-.56-.25-.56-.56s.25-.56.56-.56h6.15c.31,0,.56.25.56.56h0ZM45.29,19.92c0,.31-.25.56-.56.56h-13.72c-.31,0-.56-.25-.56-.56s.25-.56.56-.56h13.72c.31,0,.56.25.56.56h0ZM24.3,28.11c0,.21-.17.39-.39.39h-7.69c-.21,0-.39-.17-.39-.39v-4.45c0-2.33,1.9-4.23,4.23-4.23s4.23,1.9,4.23,4.23v4.45h0ZM20.06,14.65c1.01,0,1.83.82,1.83,1.83s-.82,1.83-1.83,1.83-1.83-.82-1.83-1.83.82-1.83,1.83-1.83h0ZM22.02,18.69c.61-.54.99-1.33.99-2.2,0-1.63-1.32-2.95-2.95-2.95s-2.95,1.32-2.95,2.95c0,.88.38,1.66.99,2.2-1.99.78-3.4,2.72-3.4,4.98v4.45c0,.83.68,1.51,1.51,1.51h7.69c.83,0,1.51-.68,1.51-1.51v-4.45c0-2.26-1.41-4.2-3.4-4.98h0ZM46.71,31.19c1.05,0,1.9-.85,1.9-1.9V11.96h-6.45v4.47c0,.5-.6.75-.95.4l-2.68-2.68-2.68,2.68c-.35.35-.95.1-.95-.4v-4.47H11.39v17.33c0,1.05.85,1.9,1.9,1.9h33.41ZM13.29,5.81h21.59v5.03H11.39v-3.13c0-1.05.85-1.9,1.9-1.9h0ZM41.04,5.81v9.28l-2.12-2.12c-.22-.22-.57-.22-.79,0l-2.12,2.12V5.81h5.03ZM48.61,7.71v3.13h-6.45v-5.03h4.55c1.05,0,1.9.85,1.9,1.9h0ZM46.71,4.69H13.29c-1.66,0-3.02,1.35-3.02,3.02v21.58c0,1.66,1.35,3.02,3.02,3.02h33.41c1.66,0,3.02-1.35,3.02-3.02V7.71c0-1.67-1.35-3.02-3.02-3.02Z"/>
    </g>
  </g>
</svg>