<?xml version="1.0" encoding="UTF-8"?>
<svg id="Layer_2" xmlns="http://www.w3.org/2000/svg" xmlns:xlink="http://www.w3.org/1999/xlink" viewBox="0 0 60 37">
  <defs>
    <style>
      .cls-1 {
        fill: none;
      }

      .cls-2 {
        fill: #f15f26;
      }

      .cls-3 {
        clip-path: url(#clippath);
      }
    </style>
    <clipPath id="clippath">
      <rect class="cls-1" width="60" height="37"/>
    </clipPath>
  </defs>
  <g id="Layer_2-2" data-name="Layer_2">
    <g class="cls-3">
      <g>
        <path class="cls-2" d="M39.87,36.25c-.4,0-.73-.33-.73-.73s.33-.73.73-.73h7.4c.4,0,.73.33.73.73s-.33.73-.73.73h-7.4Z"/>
        <path class="cls-2" d="M38.59,28.28c-.26,0-.51-.13-.64-.34-.11-.17-.14-.36-.09-.56.04-.19.16-.35.33-.45l3.23-2c.12-.07.25-.11.38-.11.25,0,.49.13.63.35.1.16.13.36.09.55-.04.19-.16.35-.33.45l-3.23,2c-.11.07-.24.1-.37.1h0Z"/>
        <path class="cls-2" d="M21.41,28.28c-.13,0-.26-.04-.37-.1l-3.23-2c-.17-.1-.28-.26-.32-.45-.04-.19-.01-.39.09-.55.1-.17.26-.28.45-.33.05,0,.11-.02.17-.02.14,0,.27.04.38.11l3.3,2.04c.13.1.22.24.26.41.04.19.01.39-.09.55-.13.21-.37.34-.64.34Z"/>
        <path class="cls-2" d="M12.73,36.25c-.4,0-.73-.33-.73-.73s.33-.73.73-.73h7.4c.4,0,.73.33.73.73s-.33.73-.73.73h-7.4Z"/>
        <path class="cls-2" d="M30,25.76c-.05,0-.1,0-.15-.02-.32-.06-.58-.41-.58-.79v-7.83h-2.34c-1.42,0-2.69-.95-3.08-2.32l-2.16-7.55h-2.8c-1.76,0-3.2-1.44-3.2-3.2V.98c0-.21.1-.43.27-.56.14-.11.3-.17.47-.17.06,0,.1,0,.14.01l.08.02c.29.1.51.42.51.77v3.01c0,.96.78,1.73,1.73,1.73h22.2c.96,0,1.73-.78,1.73-1.73V1.05c0-.38.25-.73.58-.79.04,0,.1-.01.15-.01.18,0,.34.06.47.17.17.14.27.35.27.56v3.08c0,1.76-1.44,3.2-3.2,3.2h-2.79l-2.16,7.55c-.39,1.37-1.65,2.32-3.08,2.32h-2.34v7.9c0,.21-.1.42-.27.56-.14.11-.3.17-.47.17ZM25.26,14.41c.21.74.9,1.26,1.67,1.26h6.15c.77,0,1.46-.52,1.67-1.26l2.04-7.14h-13.56l2.04,7.14Z"/>
        <path class="cls-2" d="M31.23,35.52c0,1.65-2.47,1.65-2.47,0s2.47-1.65,2.47,0"/>
      </g>
    </g>
  </g>
</svg>