<?xml version="1.0" encoding="UTF-8"?>
<svg id="Layer_2" xmlns="http://www.w3.org/2000/svg" xmlns:xlink="http://www.w3.org/1999/xlink" viewBox="0 0 60 37">
  <defs>
    <style>
      .cls-1 {
        fill: none;
      }

      .cls-2 {
        fill: #f15f26;
        fill-rule: evenodd;
      }

      .cls-3 {
        clip-path: url(#clippath);
      }
    </style>
    <clipPath id="clippath">
      <rect class="cls-1" width="60" height="37"/>
    </clipPath>
  </defs>
  <g id="Layer_2-2" data-name="Layer_2">
    <g class="cls-3">
      <path class="cls-2" d="M19.44,24.53v-2.41c0-.21.03-.42.08-.62h-2.37c-.83,0-1.51.68-1.51,1.51s.42,1.51,1.27,1.51h2.53ZM36.72,24.18v9.31c0,.6.49,1.09,1.09,1.09h2.22c.6,0,1.09-.49,1.09-1.09v-9.31c0-.6-.49-1.09-1.09-1.09h-2.22c-.6,0-1.09.49-1.09,1.09ZM18.55,32.28h1.42c1.33,0,2.03-1.62,1.07-2.58-.27-.27-.65-.44-1.07-.44h-3.07c-1.33,0-2.03,1.62-1.07,2.58.27.27.65.44,1.07.44h1.65ZM19.98,33.13h-1.42c-1.33,0-2.03,1.62-1.07,2.58.27.27.65.44,1.07.44h2.78c1.33,0,2.03-1.62,1.07-2.58-.27-.27-.65-.44-1.07-.44h-1.35ZM20.97,28.52c1.53.58,3.19-.57,3.19-2.21v-3.07h1.06c.52,1.89,2.05,3.34,3.99,3.73.23.04.45-.1.5-.33s-.1-.45-.33-.5c-1.71-.34-3.06-1.69-3.41-3.41-.04-.2-.22-.34-.41-.34h0s-1.82,0-1.82,0c-.23,0-.42.19-.42.42v3.49c0,.42-.17.79-.44,1.07-.96.96-2.58.26-2.58-1.07v-4.19c0-.83.68-1.51,1.51-1.51h4.16c1.23.21,2.6.75,3.9,1.46,1.38.76,2.67,1.71,3.6,2.67.08.09.19.13.3.13h0s2.12,0,2.12,0v7.93h-2.12c-.13,0-.25.06-.32.15-.64.66-1.59,1.47-2.6,2.05-.74.42-1.5.71-2.17.71h-5.22c.72-1.41-.14-3.11-1.68-3.39,1.06-1.21.62-3.07-.83-3.71.02-.03.03-.06.04-.09h0ZM19.93,28.41c.15-.05.27-.18.31-.33-.49-.44-.8-1.07-.8-1.77v-.93h-2.53c-.42,0-.79.17-1.07.44-.96.96-.27,2.58,1.07,2.58h3.02,0ZM27.07.85h-13.98c-.38,0-.7.31-.7.7v8.45c0,.38.31.7.7.7h13.98c.38,0,.7-.31.7-.7V1.55c0-.38-.31-.7-.7-.7ZM20.94,11.54h-1.72v9.12h.72c.26-.33.6-.58,1-.74v-8.39ZM13.09,0h13.98c.85,0,1.54.69,1.54,1.54v8.45c0,.85-.69,1.54-1.54,1.54h-5.29v8.23h4.19s.07,0,.1.01c1.33.23,2.8.8,4.18,1.55,1.39.76,2.69,1.71,3.67,2.69h1.95c.08-1,.92-1.78,1.93-1.78h2.22c1.06,0,1.93.87,1.93,1.93v9.31c0,1.06-.87,1.93-1.93,1.93h-2.22c-1.01,0-1.85-.78-1.93-1.78h-1.95c-1.21,1.21-3.4,2.91-5.28,2.91h-5.94c-.39.28-.87.45-1.38.45h-2.78c-1.99,0-3.1-2.34-1.81-3.88-1.23-.08-2.2-1.11-2.2-2.35,0-.79.4-1.5,1.02-1.94-1.37-.96-1.35-2.98.04-3.9-.54-.45-.81-1.15-.81-1.91,0-1.3,1.06-2.36,2.36-2.36h1.23v-9.12h-5.29c-.85,0-1.54-.69-1.54-1.54V1.55C11.55.7,12.24,0,13.09,0h0ZM34.83,1.23c-.23,0-.42.19-.42.42v13.2c0,.23.19.42.42.42h13.2c.23,0,.42-.19.42-.42V1.65c0-.23-.19-.42-.42-.42h-13.2ZM40.08,2.07v3.23l1.05-1c.16-.15.42-.16.58,0l1.05,1v-3.23h-2.69ZM43.62,2.07v4.21c0,.36-.45.58-.74.29l-1.45-1.38-1.48,1.4c-.27.26-.71.06-.71-.31h0V2.08h-3.99v12.35h12.35V2.07h-3.99,0ZM21.96,4.31c0,.23-.19.42-.42.42s-.42-.19-.42-.42c0-.92-1.11-1.38-1.76-.73s-.19,1.76.73,1.76c1.67,0,2.51,2.03,1.33,3.21-.24.24-.56.42-.91.5v.51c0,.23-.19.42-.42.42s-.42-.19-.42-.42v-.51c-.84-.19-1.46-.95-1.46-1.83,0-.23.19-.42.42-.42s.42.19.42.42c0,.92,1.11,1.38,1.76.73s.19-1.76-.73-1.76c-1.67,0-2.51-2.03-1.33-3.21.24-.24.56-.42.91-.5v-.51c0-.23.19-.42.42-.42s.42.19.42.42v.51c.84.19,1.46.95,1.46,1.83Z"/>
    </g>
  </g>
</svg>