<?xml version="1.0" encoding="UTF-8"?>
<svg id="Layer_2" xmlns="http://www.w3.org/2000/svg" xmlns:xlink="http://www.w3.org/1999/xlink" viewBox="0 0 60 37">
  <defs>
    <style>
      .cls-1 {
        fill: none;
      }

      .cls-2 {
        fill: #f15f26;
      }

      .cls-3 {
        clip-path: url(#clippath);
      }
    </style>
    <clipPath id="clippath">
      <rect class="cls-1" width="60" height="37"/>
    </clipPath>
  </defs>
  <g id="Layer_2-2" data-name="Layer_2">
    <g class="cls-3">
      <path class="cls-2" d="M50.66,33.31L32.13,1.21c-.86-1.62-3.39-1.62-4.26,0L9.34,33.31c-.44.77-.44,1.69,0,2.46s1.24,1.23,2.13,1.23h37.06c1.83.06,3.1-2.13,2.13-3.69h0ZM49.53,35.12c-.21.36-.58.58-1,.58H11.47c-.86.03-1.45-1-1-1.72L29,1.87c.21-.36.58-.58,1-.58s.79.21,1,.58l18.53,32.1c.21.36.21.79,0,1.15h0ZM29.82,23.99c1.17.13,2.27-.69,2.27-1.91v-11.68c0-1.05-.86-1.91-1.91-1.91-1.17-.13-2.27.69-2.27,1.91v11.68c0,1.05.86,1.91,1.91,1.91ZM29.22,10.4c0-.33.27-.6.6-.6h.35c.33,0,.6.27.6.6v11.68c0,.33-.27.6-.6.6h-.35c-.33,0-.6-.27-.6-.6v-11.68ZM30,25.88c-1.55,0-2.8,1.26-2.8,2.8.13,3.71,5.48,3.71,5.61,0,0-1.55-1.26-2.8-2.8-2.8h0ZM30,30.18c-1.98-.06-1.98-2.93,0-2.99,1.98.06,1.98,2.93,0,2.99Z"/>
    </g>
  </g>
</svg>