<?xml version="1.0" encoding="UTF-8"?>
<svg id="Layer_2" xmlns="http://www.w3.org/2000/svg" xmlns:xlink="http://www.w3.org/1999/xlink" viewBox="0 0 60 37">
  <defs>
    <style>
      .cls-1 {
        fill: none;
      }

      .cls-2 {
        fill: #f15f26;
      }

      .cls-3 {
        clip-path: url(#clippath);
      }
    </style>
    <clipPath id="clippath">
      <rect class="cls-1" width="60" height="37"/>
    </clipPath>
  </defs>
  <g id="Layer_2-2" data-name="Layer_2">
    <g class="cls-3">
      <g>
        <path class="cls-2" d="M18.82,10.05s0,0,0,0c.02,0,.03.01.05.01,0,0,0,0,.01,0,.02,0,.03,0,.05,0s.03,0,.05,0c0,0,0,0,.01,0,.02,0,.03,0,.05-.01,0,0,0,0,0,0,0,0,.02,0,.03-.01l4.11-2.37c.09-.05.14-.15.14-.25V2.66s0-.02,0-.03c0,0,0,0,0,0,0-.02,0-.03-.01-.05,0,0,0,0,0-.01-.01-.03-.03-.06-.05-.09,0,0,0,0,0-.01-.01-.01-.02-.02-.04-.03,0,0,0,0,0,0,0,0-.02-.01-.02-.02L19.09.04c-.09-.05-.2-.05-.29,0l-4.11,2.38s-.02.01-.02.02c0,0,0,0,0,0-.01.01-.03.02-.04.03,0,0,0,0,0,0-.02.03-.04.06-.05.09,0,0,0,0,0,.01,0,.02,0,.03-.01.05,0,0,0,0,0,0,0,.01,0,.02,0,.03v4.75c0,.1.06.2.14.25l4.11,2.37s.02,0,.03.01ZM20.97,1.79l-3.68,2.12s0,0,0,0c0,0-.01,0-.02,0,0,0-.01,0-.02.01,0,0,0,0-.01.01,0,0,0,0-.01.01,0,0,0,0-.01.02,0,0,0,.01-.01.02,0,0,0,.01-.01.02,0,0,0,0,0,0,0,0,0,0,0,0,0,0,0,.01,0,.02,0,0,0,.01,0,.02,0,0,0,.01,0,.02,0,0,0,.01,0,.02,0,0,0,.01,0,.02,0,0,0,.01,0,.02,0,0,0,.01,0,.02,0,0,0,0,0,0v.74l-.43-.25v-.91l3.82-2.21.43.25ZM22.48,2.66l-3.54,2.04-.93-.54,3.54-2.04.93.54ZM19.23,9.29v-4.08l3.54-2.04v4.08l-3.54,2.04ZM16.42,3.25l-1.01-.59,3.54-2.04,1.01.58-3.54,2.04ZM15.12,3.16l1.01.59v1.07c0,.1.06.2.14.25l1.01.58s.09.04.14.04.1-.01.14-.04c.09-.05.14-.15.14-.25v-.74l.93.54v4.08l-3.54-2.04V3.16h0Z"/>
        <path class="cls-2" d="M25.74,7.66l4.11,2.37s.02,0,.03.01c0,0,0,0,0,0,.02,0,.03.01.05.01,0,0,0,0,.01,0,.02,0,.03,0,.05,0s.03,0,.05,0c0,0,0,0,.01,0,.02,0,.03,0,.05-.01,0,0,0,0,0,0,0,0,.02,0,.03-.01l4.11-2.37c.09-.05.14-.15.14-.25V2.66s0-.02,0-.03c0,0,0,0,0,0,0-.02,0-.03-.01-.05,0,0,0,0,0-.01-.01-.03-.03-.06-.05-.09,0,0,0,0,0,0-.01-.01-.02-.02-.04-.03,0,0,0,0,0,0,0,0-.02-.01-.02-.02L30.14.04c-.09-.05-.2-.05-.29,0l-4.11,2.38s-.02.01-.02.02c0,0,0,0,0,0-.01.01-.03.02-.04.03,0,0,0,0,0,0-.02.03-.04.06-.05.09,0,0,0,0,0,.01,0,.02,0,.03-.01.05,0,0,0,0,0,0,0,.01,0,.02,0,.03v4.75c0,.1.06.2.14.25ZM26.18,3.16l1.01.59v1.07c0,.1.06.2.14.25l1.01.58s.09.04.14.04.1-.01.14-.04c.09-.05.14-.15.14-.25v-.74l.93.54v4.08l-3.54-2.04V3.16ZM32.03,1.79l-3.68,2.12s0,0,0,0c0,0-.01,0-.02,0,0,0-.01,0-.02.01,0,0,0,0-.01.01,0,0,0,0-.01.01,0,0,0,0-.01.02s0,.01-.01.02c0,0,0,.01,0,.02,0,0,0,0,0,0,0,0,0,0,0,0,0,0,0,.01,0,.02,0,0,0,.01,0,.02,0,0,0,.01,0,.02,0,0,0,.01,0,.02,0,0,0,.01,0,.02,0,0,0,.01,0,.02,0,0,0,.01,0,.02,0,0,0,0,0,0v.74l-.43-.25v-.91l3.82-2.21.43.25ZM33.54,2.66l-3.54,2.04-.93-.54,3.54-2.04.93.54ZM30.29,9.29v-4.08l3.54-2.04v4.08l-3.54,2.04ZM27.48,3.25l-1.01-.59,3.54-2.04,1.01.59-3.54,2.04Z"/>
        <path class="cls-2" d="M45.46,2.63s0-.03-.01-.05c0,0,0,0,0-.01-.01-.03-.03-.06-.05-.09,0,0,0,0,0,0-.01-.01-.02-.02-.04-.03,0,0,0,0,0,0,0,0-.02-.01-.02-.02L41.2.04c-.09-.05-.2-.05-.29,0l-4.11,2.38s-.02.01-.02.02c0,0,0,0,0,0-.01.01-.02.02-.04.03,0,0,0,0,0,.01-.02.03-.04.06-.05.09,0,0,0,0,0,.01,0,.02,0,.03-.01.05,0,0,0,0,0,0,0,.01,0,.02,0,.03v4.75c0,.1.06.2.14.25l4.11,2.37s.02,0,.03.01c0,0,0,0,0,0,.02,0,.03.01.05.01,0,0,0,0,.01,0,.02,0,.03,0,.05,0s.03,0,.05,0c0,0,0,0,.01,0,.02,0,.03,0,.05-.01,0,0,0,0,0,0,0,0,.02,0,.03-.01l4.11-2.37c.09-.05.14-.15.14-.25V2.66s0-.02,0-.03c0,0,0,0,0,0ZM43.08,1.79l-3.68,2.12s0,0,0,0c0,0-.01,0-.02,0,0,0-.01,0-.02.01,0,0,0,0-.01.01,0,0,0,0-.01.01,0,0,0,0-.01.02s0,.01-.01.02c0,0,0,.01-.01.02,0,0,0,0,0,0,0,0,0,0,0,0,0,0,0,.01,0,.02,0,0,0,.01,0,.02,0,0,0,.01,0,.02,0,0,0,.01,0,.02,0,0,0,.01,0,.02,0,0,0,.01,0,.02,0,0,0,.01,0,.02,0,0,0,0,0,0v.74l-.43-.25v-.91l3.82-2.21.43.25ZM44.59,2.66l-3.54,2.04-.93-.54,3.54-2.04.93.54ZM38.54,3.25l-1.01-.59,3.54-2.04,1.01.58-3.54,2.04ZM37.23,3.16l1.01.59v1.07c0,.1.06.2.14.25l1.01.58s.09.04.14.04.1-.01.14-.04c.09-.05.14-.15.14-.25v-.74l.93.54v4.08l-3.54-2.04V3.16ZM41.35,9.29v-4.08l3.54-2.04v4.08l-3.54,2.04Z"/>
        <path class="cls-2" d="M42.06,20.56l-8.7-5.02c-.07-.04-.14-.05-.22-.03l-1.8.47v-2.76c0-.74-.61-1.35-1.35-1.35s-1.35.61-1.35,1.35v2.76l-1.8-.47c-.07-.02-.15,0-.22.03l-8.7,5.02c-.1.06-.16.17-.14.29s.1.21.21.24l2.84.74-2.18,3.54c-.04.07-.05.15-.03.22s.07.14.14.18l2.24,1.29v4.63c0,.1.06.2.14.25l8.7,5.02s.02,0,.03.01c0,0,0,0,0,0,.02,0,.03.01.05.01,0,0,0,0,.01,0,.02,0,.03,0,.05,0s.03,0,.05,0c0,0,0,0,.01,0,.02,0,.03,0,.05-.01,0,0,0,0,0,0,0,0,.02,0,.03-.01l8.7-5.02c.09-.05.14-.15.14-.25v-4.63l2.24-1.29c.07-.04.12-.1.14-.18.02-.08,0-.16-.03-.22l-2.18-3.54,2.84-.74c.11-.03.2-.12.21-.24.02-.12-.04-.23-.14-.29ZM30,12.45c.43,0,.77.35.77.77v4.73c0,.16.13.29.29.29h1.17l-2.23,3.63-2.23-3.63h1.17c.16,0,.29-.13.29-.29v-4.73c0-.43.35-.77.77-.77ZM30,26.34l-8.12-4.69,5.4-3.12,2.47,4.04c.05.09.15.14.25.14s.19-.05.25-.14l2.47-4.04,5.4,3.12-8.12,4.69ZM28.65,17.07l-1.01.58h-.39c-.1,0-.2.06-.25.15-.04.07-.05.16-.02.23l-5.72,3.3-2.42-.63,7.98-4.61,1.83.48v.5h0ZM21.4,22.04l8.2,4.73-2.08,3.38-8.2-4.73,2.08-3.38ZM21.59,27.4l5.88,3.4s.1.04.14.04c.1,0,.19-.05.25-.14l1.85-3v8.52l-8.12-4.69v-4.13h0ZM30.29,36.21v-8.52l1.85,3c.05.09.15.14.25.14.05,0,.1-.01.14-.04l5.88-3.4v4.13l-8.12,4.69ZM32.48,30.15l-2.08-3.38,8.2-4.73,2.08,3.38-8.2,4.73ZM38.74,21.34l-5.72-3.3c.03-.08.02-.16-.02-.23-.05-.09-.15-.15-.25-.15h-.39l-1.01-.58v-.5l1.83-.48,7.98,4.61-2.42.63Z"/>
      </g>
    </g>
  </g>
</svg>