<?xml version="1.0" encoding="UTF-8"?>
<svg id="Layer_2" xmlns="http://www.w3.org/2000/svg" xmlns:xlink="http://www.w3.org/1999/xlink" viewBox="0 0 60 37">
  <defs>
    <style>
      .cls-1 {
        fill: none;
      }

      .cls-2 {
        fill: #f15f26;
      }

      .cls-3 {
        clip-path: url(#clippath);
      }
    </style>
    <clipPath id="clippath">
      <rect class="cls-1" width="60" height="37"/>
    </clipPath>
  </defs>
  <g id="Layer_2-2" data-name="Layer_2">
    <g class="cls-3">
      <path class="cls-2" d="M23.12,9.58c0-.23.19-.42.42-.42h11.12c.23,0,.42.2.41.44,0,.22-.19.4-.41.41h-11.12c-.23,0-.42-.19-.42-.42ZM23.54,12.65h11.12c.23,0,.42-.2.41-.44,0-.22-.19-.4-.41-.41h-11.12c-.23,0-.43.18-.44.41s.18.43.41.44c0,0,.02,0,.03,0ZM15.6,11.15c0-1.63,1.32-2.95,2.94-2.95.73,0,1.44.27,1.99.77l.47-.51c.15-.18.41-.21.59-.06.18.15.21.41.06.59-.01.01-.02.03-.03.04l-.55.6c.84,1.4.39,3.21-1.01,4.04-1.4.84-3.21.39-4.04-1.01-.28-.46-.42-.98-.42-1.52h0ZM16.45,11.15c0,1.16.94,2.1,2.1,2.1,1.16,0,2.1-.94,2.1-2.1,0-.3-.06-.59-.18-.86l-1.49,1.62c-.14.15-.36.18-.54.07l-1.14-.72c-.2-.12-.27-.38-.15-.58s.38-.27.58-.15c0,0,.01,0,.02.01l.84.53,1.37-1.49c-.86-.78-2.19-.72-2.97.14-.35.39-.55.89-.55,1.41h0ZM47.24,25.33v5.82c0,1.13-.92,2.05-2.05,2.05h-.53s0,.06,0,.09c-.04,2.01-1.7,3.6-3.71,3.55-1.95-.04-3.51-1.61-3.55-3.55v-.09h-11.64s0,.06,0,.09c.04,2.01-1.55,3.67-3.55,3.71-2.01.04-3.67-1.55-3.71-3.55,0-.05,0-.1,0-.15v-.09h-2.45c-.23,0-.42-.19-.42-.42v-1.16h-1.53c-.74,0-1.34-.6-1.34-1.34V4.84h0s0-.04,0-.07h0s0-.05.02-.07h0s.02-.05.03-.07h0s.02-.04.04-.06h0L16.49.15C16.58.06,16.7,0,16.82,0h19.76c.74,0,1.34.6,1.34,1.34v15.8h2.82c1.27-.01,2.46.65,3.13,1.73l2.81,4.5c.37.58.57,1.26.56,1.95ZM46.4,28.67h-.86c-.1,0-.19.08-.19.19v.9c0,.1.08.19.19.19h.86v-1.28ZM14.08,4.41h1.94c.27,0,.5-.22.5-.5V1.47l-2.43,2.95ZM14.1,30.77h1.53v-4.48c0-.23.19-.42.42-.42h.6v-8.47c0-.48.39-.87.87-.87h8.44c.16,0,.31.04.45.12.13-.08.29-.12.45-.12h8.44c.38,0,.71.25.83.61h.96V1.34c0-.27-.22-.5-.5-.5h-19.23v3.07c0,.74-.6,1.34-1.34,1.34h-2.41v25.02c0,.27.22.5.5.5ZM35.32,30.72v-4h-18.85v4h3.09c1.41-1.41,3.7-1.41,5.12,0h10.64ZM21.06,17.38v2.45l.35-.42c.15-.18.42-.21.59-.06.02.02.04.04.06.06l.35.42v-2.45h-1.35ZM20.22,21v-3.62h-2.7s-.02.01-.02.02v8.47h8.49v-8.47s-.01-.02-.02-.02h-2.7v3.63s0,.02,0,.03c0,0,0,.02,0,.02v.02s0,.02,0,.03h0s0,.03,0,.04c0,0,0,.01,0,.02s0,.01,0,.02v.02s-.02.01-.02.02,0,.01-.01.02v.02s-.02.01-.02.02l-.02.02s0,0-.01.01c-.03.03-.06.05-.09.07h0s-.04.02-.06.03h-.01s-.04.02-.06.02h-.01s-.04,0-.06,0h0s-.03,0-.04,0h0s-.02,0-.04,0h-.01s-.03,0-.03,0h-.01s-.02-.01-.03-.02h-.02s-.02-.02-.02-.02c0,0-.01,0-.02-.01h-.02s-.02-.03-.02-.03l-.02-.02s0,0-.01-.01c0,0-.02-.02-.03-.03h0s-.77-.94-.77-.94l-.77.94h0s-.01.02-.02.03-.01,0-.02.01,0,0-.02.01h-.02s-.02.02-.02.02h-.02s-.02.02-.02.02h-.02s-.01.01-.02.02h-.01s-.03.01-.03.01h-.01s-.03,0-.03,0h-.01s-.02,0-.03,0h-.1s-.01,0-.02,0c0,0-.01,0-.02,0,0,0-.01,0-.02,0s-.01,0-.02,0h-.02s-.01-.01-.02-.02-.01,0-.02,0-.02-.01-.03-.02h0s-.05-.04-.06-.06c0,0,0,0-.01-.01l-.02-.02v-.02s-.02-.01-.02-.02,0-.01-.01-.02,0-.01,0-.02,0-.01,0-.02,0-.01,0-.02,0-.01,0-.02,0-.02,0-.02h0s0-.03,0-.04c0,0,0-.01,0-.02s0-.02,0-.02,0-.02,0-.03h0ZM30.4,17.38v2.45l.35-.42c.15-.18.42-.21.6-.06.02.02.04.04.06.06l.35.42v-2.45h-1.35ZM29.55,21v-3.62h-2.7s-.02.01-.02.02v8.47h8.49v-8.3c.01-.05.01-.11,0-.16,0-.01-.01-.02-.02-.02h-2.7v3.62h0s0,.03,0,.04c0,0,0,.01,0,.02s0,.01,0,.02,0,.02,0,.02v.02s-.01.02-.01.02v.02s-.01.01-.02.02,0,.01,0,.02v.02s-.02.01-.02.02h0s-.01.03-.01.03h-.01s0,.03-.02.03-.02.01-.02.02h0s-.02.02-.03.03h-.01s-.02.02-.02.02h-.02s-.02.02-.02.02h-.02s-.02.01-.02.01c0,0-.01,0-.02,0h-.02s-.03,0-.03,0h-.01s-.03,0-.04,0h-.04s-.01,0-.02,0h-.02s-.02,0-.02,0h-.02s-.02-.01-.02-.01h-.02s-.02-.01-.02-.01h-.02s-.01-.02-.01-.02h-.02s-.01-.02-.01-.02c0,0-.01-.01-.02-.02,0,0,0,0-.01-.01,0,0-.01-.01-.02-.02s-.01-.01-.02-.02h0s-.77-.94-.77-.94l-.77.93h0s-.02.02-.03.03h-.01s-.01.02-.02.03h-.02s-.02.03-.02.03h-.02s-.02.02-.02.02h-.02s-.02.02-.03.02h-.01s-.02.01-.03.01h-.01s-.02,0-.04,0h0s-.03,0-.04,0h0s-.04,0-.06,0h-.01s-.04,0-.06-.02h-.01s-.04-.02-.06-.03h0s-.06-.05-.09-.07c0,0,0,0-.01-.01l-.02-.02v-.02s-.02-.01-.02-.02,0-.01-.01-.02v-.02s-.02-.01-.02-.02,0-.01,0-.02,0-.01,0-.02,0-.02,0-.02h0s0-.03,0-.04c0,0,0-.01,0-.02s0-.02,0-.02,0-.02,0-.03h0ZM18.61,32.36c.07-.28.18-.55.32-.8h-2.46v.8h2.14ZM24.91,33.29c0-1.54-1.25-2.79-2.79-2.79s-2.79,1.25-2.79,2.79c0,1.54,1.25,2.79,2.79,2.79,1.54,0,2.78-1.25,2.79-2.79ZM25.63,32.36h9.68v-.8h-10c.14.25.24.52.32.8ZM43.81,33.29c0-1.54-1.25-2.79-2.79-2.79s-2.79,1.25-2.79,2.79,1.25,2.79,2.79,2.79c1.54,0,2.78-1.25,2.79-2.79ZM46.4,31.15v-.36h-.86c-.57,0-1.03-.46-1.03-1.03v-.9c0-.57.46-1.03,1.03-1.03h.86v-2.49c0-.53-.14-1.06-.43-1.5l-2.81-4.5c-.51-.84-1.43-1.35-2.41-1.34h-4.59v14.37h1.36c.52-1.94,2.5-3.09,4.44-2.58,1.26.33,2.24,1.32,2.58,2.58h.65c.67,0,1.21-.54,1.21-1.21h0ZM44.96,25.45h-7.38c-.23,0-.42-.19-.42-.42v-5.63c0-.23.19-.42.42-.42h3.17c.64-.02,1.24.32,1.57.87l2.81,4.5c.12.18.2.38.24.59.05.23-.1.45-.33.5-.03,0-.06,0-.08,0h0ZM44.29,24.61l-2.69-4.31c-.17-.31-.5-.49-.85-.47h-2.75v4.78h6.29ZM23.79,33.29c0,.92-.75,1.67-1.67,1.67-.92,0-1.67-.75-1.67-1.67,0-.92.75-1.67,1.67-1.67.92,0,1.67.75,1.67,1.67ZM22.95,33.29c0-.45-.37-.82-.82-.82s-.82.37-.82.82c0,.45.37.82.82.82.45,0,.82-.37.82-.82ZM42.7,33.29c0,.92-.75,1.67-1.67,1.67s-1.67-.75-1.67-1.67.75-1.67,1.67-1.67c.92,0,1.67.75,1.67,1.67ZM41.85,33.29c0-.45-.37-.82-.82-.82s-.82.37-.82.82.37.82.82.82h0c.45,0,.82-.37.82-.82ZM38.92,26.52h-.98c-.23,0-.43.18-.44.41,0,.23.18.43.41.44,0,0,.02,0,.03,0h.98c.23,0,.43-.18.44-.41,0-.23-.18-.43-.41-.44,0,0-.02,0-.03,0Z"/>
    </g>
  </g>
</svg>