<svg id="Layer_1" data-name="Layer 1" xmlns="http://www.w3.org/2000/svg" viewBox="0 0 98 60"><defs><style>.cls-1{fill:#fff;}</style></defs><path class="cls-1" d="M85.81,52.47a3.79,3.79,0,0,0-.45.38,1.71,1.71,0,0,1-2.07.4c-.12,0-.25-.09-.37-.15A1.88,1.88,0,0,0,81.36,53a.94.94,0,0,1-.57.1c-.87-.4-1.71.17-2.58,0a1.27,1.27,0,0,0-1.11.51c-.21.22-.39.46-.62.66a.59.59,0,0,1-.92-.14.7.7,0,0,1-.11-.23,5.32,5.32,0,0,1,0-2.6A4.14,4.14,0,0,1,77.29,49a13.85,13.85,0,0,1,2.53-1.25c.71-.28,1.41-.56,2.11-.86a5.11,5.11,0,0,0,1.83-1.18.86.86,0,0,1,.14-.13.44.44,0,0,1,.68,0,12.53,12.53,0,0,1,.85,1.25c.62,1.1,1.2,2.21,1.8,3.31a2.85,2.85,0,0,0,.33.52.35.35,0,0,0,.27.06c.06,0,.15-.12.14-.18a2.35,2.35,0,0,0-.17-.74,20.39,20.39,0,0,0-3.92-6.08c-.58-.59-1.12-1.21-1.74-1.77a21.23,21.23,0,0,0-7-4,19.51,19.51,0,0,0-8.57-1.06,37.9,37.9,0,0,0-7.81,1.54c-1.5.46-3,.91-4.49,1.39a4,4,0,0,1-2.29,0l-2.51-.69c-1.29-.36-2.58-.69-3.92-.93a9.76,9.76,0,0,0-6,.86c-1,.47-1.89,1-2.83,1.51l-.58.34a14.29,14.29,0,0,1-4.77,1.85,5.29,5.29,0,0,0-.69.15,7.7,7.7,0,0,0-1.18.49c-1.16.66-1,1.3-.24,1.93a11.83,11.83,0,0,0,2.31,1.37c.42.2.84.38,1.24.59s.33.43,0,.61-.42.19-.63.28a39.74,39.74,0,0,1-9.89,2.55c-2.38.32-4.78.54-7.17.84-.83.1-1.66.27-2.48.45-1.31.29-2.61.64-3.92.91a12.5,12.5,0,0,1-4.95.18,9.09,9.09,0,0,1-1.61-.5,1.85,1.85,0,0,1-.92-.77C.93,51.25.56,50.61.22,50a1.68,1.68,0,0,1,0-1.64,7,7,0,0,0,.57-1.8,27.21,27.21,0,0,1,1-3.62,18.3,18.3,0,0,1,3.09-5,51.44,51.44,0,0,1,7.11-7c1.4-1.15,2.81-2.29,4.3-3.36a64.91,64.91,0,0,1,6.34-4.11l8.12-4.53c.82-.45,1.67-.86,2.5-1.3l.26-.13a3.9,3.9,0,0,0,2.2-2.33c.26-.76.54-1.51.78-2.28s.46-1.58.7-2.38A34.75,34.75,0,0,1,39.33,5a10.75,10.75,0,0,1,2-2.82A6.83,6.83,0,0,1,45.62,0a5.54,5.54,0,0,1,.91,0c.6,0,.9.37.82.87a3.86,3.86,0,0,1-.17.58,29.52,29.52,0,0,0-1.07,4.21A18.72,18.72,0,0,0,46,10.22a5.65,5.65,0,0,0,.9,2.49,3.8,3.8,0,0,0,2.44,1.68c.46.11.92.2,1.39.27a95.7,95.7,0,0,1,10.3,2c1.68.44,3.34,1,5,1.52a44.16,44.16,0,0,1,9,4.14,31.44,31.44,0,0,1,8.36,7.44,43.78,43.78,0,0,1,5.78,9.76c.83,1.94,1.56,3.91,2.28,5.87A2.74,2.74,0,0,0,92.67,47a15.79,15.79,0,0,1,3,2.37A7.18,7.18,0,0,1,98,54a10.05,10.05,0,0,1-.69,4.74,6,6,0,0,1-.5.93,1.13,1.13,0,0,1-.46.31.43.43,0,0,1-.57-.2,2.83,2.83,0,0,1-.13-.5,2.5,2.5,0,0,0-1-1.55c-.56-.49-1.1-1-1.65-1.49a3.4,3.4,0,0,0-1.41-.8l-2.13-.58c-.36-.1-.72-.19-1.07-.3a3.1,3.1,0,0,1-2-1.56A.75.75,0,0,0,85.81,52.47Zm-5-12.94c0-.25,0-.34-.08-.4a6.64,6.64,0,0,0-1.43-1.42,13.63,13.63,0,0,0-2.71-1.48,23,23,0,0,0-3.31-1.11,4.13,4.13,0,0,1-.75-.25.5.5,0,0,1-.34-.64c.07-.26.31-.36.59-.39a2.8,2.8,0,0,1,.71,0,16.59,16.59,0,0,1,2,.28,18.31,18.31,0,0,1,6.61,3.06c.48.36,1,.73,1.43,1.08a.26.26,0,0,0,.36,0s0-.06,0-.08a13,13,0,0,0-5.12-5,21.41,21.41,0,0,0-9.5-2.75,14.82,14.82,0,0,0-4.15.24,15.89,15.89,0,0,0-4.84,1.91c-1.18.72-2.31,1.49-3.41,2.28a41.68,41.68,0,0,1-5.49,3.62c-.1.05-.15.17-.23.26a2.93,2.93,0,0,0,2.73.14c1.49-.62,3-1.14,4.58-1.63A36.41,36.41,0,0,1,65,35.71a20.24,20.24,0,0,1,5,0A24,24,0,0,1,77.79,38c.75.38,1.49.79,2.24,1.17C80.22,39.28,80.43,39.36,80.78,39.53Zm15,17.07a1.73,1.73,0,0,0,.17-.53c0-.56,0-1.12-.1-1.68a7.57,7.57,0,0,0-3.48-5.54,35.69,35.69,0,0,0-3.23-1.92,3.74,3.74,0,0,0-.83-.31c-.31-.09-.55.07-.52.34a2.09,2.09,0,0,0,.13.49c.2.48.4,1,.62,1.43a6.16,6.16,0,0,1,.56,1.8c.12,1-.62,1.29-1.6,1a1.53,1.53,0,0,1-.57-.33,3.7,3.7,0,0,1-.59-.79c-.54-1-1.06-2.07-1.59-3.1-.21-.42-.51-.5-1-.29-.15.06-.28.16-.42.23-.69.37-1.37.74-2.06,1.09-.87.45-1.76.86-2.61,1.32a14.11,14.11,0,0,0-1.43.94,1.15,1.15,0,0,0-.49,1,.49.49,0,0,0,.63.4,3,3,0,0,0,.89-.38,1.54,1.54,0,0,1,1-.26,11.79,11.79,0,0,1,1.19.19,12.42,12.42,0,0,0,2.91.38,3.26,3.26,0,0,0,1.88-.56c.23-.16.49-.28.72-.41.62.33.65.32.89.91a2.4,2.4,0,0,0,1.56,1.36c.25.08.52.14.78.2,1.16.31,2.34.59,3.49.93a3.33,3.33,0,0,1,2.39,1.7A.63.63,0,0,0,95.81,56.6ZM3.27,52.11s.07.12.12.14a1.64,1.64,0,0,0,.38.1,13.85,13.85,0,0,0,3.75-.09c1.06-.2,2.11-.43,3.16-.66.88-.19,1.76-.44,2.65-.58,2-.31,3.94-.61,5.92-.85,2.25-.28,4.5-.57,6.71-1,1.24-.26,2.46-.62,3.69-.94.26-.07.53-.13.62-.38s-.27-.4-.5-.51a11.11,11.11,0,0,1-2.51-1.71c-1-.84-1.25-.87-2.43-.21l-2.6,1.48a14.71,14.71,0,0,1-3.94,1.55,37.27,37.27,0,0,1-3.68.67,14.5,14.5,0,0,0-5.42,1.6,8.16,8.16,0,0,1-3.31,1l-1.82.15C3.77,51.87,3.44,51.85,3.27,52.11ZM27.09,37.23a9.81,9.81,0,0,0-7.22,2.94,4.62,4.62,0,0,0-1.31,2.35c-.1.58.2.94.9,1a3,3,0,0,0,.9,0c1.78-.37,3.56-.72,5.32-1.13a5.14,5.14,0,0,0,2.93-1.84,9.56,9.56,0,0,1,1.59-1.85.37.37,0,0,0,.12-.13c.29-.4.18-.7-.34-.88A8.47,8.47,0,0,0,27.09,37.23Zm-9.5,8.41a3.37,3.37,0,0,0,1.84-.53.33.33,0,0,0,.17-.45.61.61,0,0,0-.37-.25,2.58,2.58,0,0,0-1.89.46,1.14,1.14,0,0,0-.27.35c-.08.16.05.35.27.38Z" transform="translate(0 0)"/><path class="cls-1" d="M46.14,49.12a30.9,30.9,0,0,1-8.26-.86,30,30,0,0,1-7.06-2.78,5.5,5.5,0,0,1-.79-.54A.52.52,0,0,1,30.1,44a4.81,4.81,0,0,1,1-.44,7.66,7.66,0,0,1,1.28-.28,11.19,11.19,0,0,0,4.06-1.49c1.22-.68,2.41-1.37,3.65-2a9.79,9.79,0,0,1,2.41-.89,9.14,9.14,0,0,1,4.32.18c2.47.63,4.92,1.29,7.37,2,2,.54,3.91,1.13,5.87,1.7a7.55,7.55,0,0,1,.84.29c.6.26.72.54.41,1a5.34,5.34,0,0,1-.76.89,12.72,12.72,0,0,1-4.2,2.49,23.44,23.44,0,0,1-8.26,1.67Z" transform="translate(0 0)"/><path class="cls-1" d="M10.16,31.38a5.64,5.64,0,0,1-.1-.66A9,9,0,0,1,11.61,26a10,10,0,0,1,3.54-3.43c.4-.21.82-.4,1.24-.58a2.81,2.81,0,0,1,.59-.13.72.72,0,0,1,.75.33,3.19,3.19,0,0,1,.28.63,5.85,5.85,0,0,0,.77,1.83c.17.24.1.42-.14.6s-.32.21-.48.31a52.47,52.47,0,0,0-6.94,5.19A2.39,2.39,0,0,1,10.16,31.38Z" transform="translate(0 0)"/></svg>