<svg id="Layer_1" data-name="Layer 1" xmlns="http://www.w3.org/2000/svg" xmlns:xlink="http://www.w3.org/1999/xlink" viewBox="0 0 42.71 60"><defs><style>.cls-1{fill:none;}.cls-2{clip-path:url(#clip-path);}.cls-3{fill:#fff;}</style><clipPath id="clip-path" transform="translate(-27.65 0)"><rect class="cls-1" width="98" height="60"/></clipPath></defs><g class="cls-2"><path class="cls-3" d="M64.73,47.81H58.34a.17.17,0,0,0-.16.17,2.44,2.44,0,0,0,0,.27v2.93h0v3c0,.28,0,.31.3.32h4.32c.25,0,.5,0,.74,0a1.37,1.37,0,0,0,1.35-1.26,3.75,3.75,0,0,0,0-.58V48.19a1.47,1.47,0,0,0,0-.21A.17.17,0,0,0,64.73,47.81Z" transform="translate(-27.65 0)"/><path class="cls-3" d="M63.45,45.78a.18.18,0,0,0,.18-.16c0-.12,0-.25,0-.37V42.37h0V39.81c0-.2,0-.39,0-.59a.15.15,0,0,0-.13-.15H57.66a2.3,2.3,0,0,0-.37,0,.28.28,0,0,0-.27.28,4.78,4.78,0,0,0,0,.53v5.39c0,.1,0,.21,0,.32a.17.17,0,0,0,.16.17h6.29Z" transform="translate(-27.65 0)"/><path class="cls-3" d="M55.7,46.6H49.9c-.32,0-.35,0-.4.39a4.55,4.55,0,0,0,0,.52v5.33a1.62,1.62,0,0,0,0,.32.16.16,0,0,0,.17.16,1.77,1.77,0,0,0,.33,0c.8,0,1.62,0,2.44,0h3.31c.13,0,.28,0,.38-.08a.19.19,0,0,0,0-.2c0-.1,0-.18,0-.27v-5.7C56.17,46.64,56.2,46.6,55.7,46.6Z" transform="translate(-27.65 0)"/><path class="cls-3" d="M69.18,45.55c.14-.49.31-1,.45-1.47a2.93,2.93,0,0,0,.18-.83.4.4,0,0,0,.08-.35,1.06,1.06,0,0,0,.09-.25c.11-.72.24-1.43.32-2.15,0-.41,0-.82,0-1.23a.17.17,0,0,0-.18-.2H65.91a.18.18,0,0,0-.19.21,1.47,1.47,0,0,0,0,.21v5.86a2.25,2.25,0,0,0,0,.26.17.17,0,0,0,.17.17h3A.28.28,0,0,0,69.18,45.55Z" transform="translate(-27.65 0)"/><path class="cls-3" d="M67.59,48.25c-.09,0-.18,0-.23.09v.11c0,1.07,0,2.14,0,3.21,0,.24,0,.49,0,.73,0,0,.07,0,.1,0h-.1v.21h0c0,.09,0,.18,0,.26s-.07.28.11.3.14-.13.2-.21l0-.1a.22.22,0,0,1,.1-.13h0c.06-.06.13-.12.19-.19a20.31,20.31,0,0,0,1.71-2.65,3.49,3.49,0,0,0,.35-.76c0-.06,0-.09.08-.14a.08.08,0,0,0,0-.08.28.28,0,0,0,.11-.24h0l.07-.11a.13.13,0,0,0,0-.1c0-.18,0-.22-.15-.22Z" transform="translate(-27.65 0)"/><path class="cls-3" d="M56.15,58.15c0-.85,0-1.7,0-2.55,0-.25-.06-.3-.32-.29-.82.07-1.64,0-2.44,0H50.15c-.69,0-.6,0-.69.63v.17c0,1.19,0,2.37,0,3.56,0,.1,0,.18.08.23a.42.42,0,0,0,.33,0,2.87,2.87,0,0,0,.92-.08h.07a1.69,1.69,0,0,0,.5,0,.93.93,0,0,0,.57-.08l.28,0a.76.76,0,0,0,.27-.06.13.13,0,0,0,.08,0,.55.55,0,0,1,.19,0,.47.47,0,0,0,.35-.08,11.08,11.08,0,0,0,2.52-.69,1,1,0,0,0,.22-.08h.07a.23.23,0,0,0,.21-.1.4.4,0,0,0,.07-.25A1.43,1.43,0,0,0,56.15,58.15Z" transform="translate(-27.65 0)"/><path class="cls-3" d="M63.39,57a1.83,1.83,0,0,0-.32,0c-1.39,0-2.79,0-4.2,0-.23,0-.26.05-.26.28v2.24c0,.59,0,.62.55.34a1.78,1.78,0,0,0,.52-.29.23.23,0,0,0,.2-.1.21.21,0,0,0,.21-.12.22.22,0,0,0,.2-.1h0a.18.18,0,0,1,.15-.1.07.07,0,0,0,.07,0,.17.17,0,0,1,.13-.07,2.24,2.24,0,0,0,.37-.2c.68-.41,1.37-.87,2-1.35.13-.12.26-.22.4-.33a.13.13,0,0,0,0-.11A.08.08,0,0,0,63.39,57Zm-3.83,2.36,0,0h0Zm.3-.32h0S59.88,59,59.86,59Z" transform="translate(-27.65 0)"/><path class="cls-3" d="M68.44,35a23.13,23.13,0,0,0-.94-4.05,35.56,35.56,0,0,0-2-4.91,3.3,3.3,0,0,0-.47-.82v0a.16.16,0,0,1-.08-.13l-.14-.3c-.4-.69-.78-1.39-1.2-2.08-1.37-2.24-2.87-4.39-4.45-6.48S55.9,12,54.36,9.91C53,8,51.72,6.07,50.53,4.08c-.68-1.19-1.37-2.36-2-3.6a2.08,2.08,0,0,0-.3-.43C48.19,0,48.09,0,48,.06a.58.58,0,0,0-.1.12C47.61.8,47.24,1.39,47,2a.12.12,0,0,0-.08.13c0,.09-.1.15-.15.24-1.22,2.14-2.51,4.23-3.91,6.25-.16.22-.29.44-.44.67l-.08.1a.12.12,0,0,0,0,.08.14.14,0,0,0-.1.14,2.15,2.15,0,0,0-.23.28c-1.12,1.49-2.24,3-3.38,4.45-1.87,2.44-3.69,4.91-5.33,7.5a43.53,43.53,0,0,0-3.28,6,29.67,29.67,0,0,0-1.67,4.86,6.6,6.6,0,0,0-.3,1.57.22.22,0,0,0,0,.1,1,1,0,0,0-.07.2,19.93,19.93,0,0,0-.15,5,18.76,18.76,0,0,0,1.12,5.13,11.53,11.53,0,0,0,.84,1.89.12.12,0,0,0,0,.09s0,0,.05.06a.16.16,0,0,1,0,.09,0,0,0,0,0,0,.06l.05.07a.12.12,0,0,1,0,.09.06.06,0,0,0,0,.06.64.64,0,0,1,.08.14,3.6,3.6,0,0,0,.49.93,18,18,0,0,0,2.17,3,.41.41,0,0,1,.12.11c0,.07,0,.1.1.12a9,9,0,0,0,1.47,1.49.19.19,0,0,1,.13.1.09.09,0,0,0,.1.1,6.58,6.58,0,0,0,1,.87.19.19,0,0,1,.08,0s.05,0,.05.07l.12.08a.07.07,0,0,0,0,0,.14.14,0,0,1,.15.1l.12.1s.06,0,.1.08a.06.06,0,0,0,.06,0,.13.13,0,0,1,.09,0,.09.09,0,0,1,.06.06.28.28,0,0,1,.1.09s0,0,.07,0a.31.31,0,0,1,.15.1A.65.65,0,0,0,37,55s0,0,0,0,.05,0,.08,0a.13.13,0,0,1,.07.06s.07,0,.12.09,0,0,.06,0,0,0,0,0h0a.13.13,0,0,1,.06.07,2.2,2.2,0,0,0,.54.32,13.06,13.06,0,0,0,2.12,1,14.91,14.91,0,0,0,2.51.87,3.61,3.61,0,0,0,1,.23,7.84,7.84,0,0,0,1.44.3,5,5,0,0,0,1.23.12l.25,0a7,7,0,0,0,1,0h0a.78.78,0,0,0,.43,0s.08-.06.1-.11V46.32a3.7,3.7,0,0,1,0-.47c0-.37.13-.48.48-.5a5.72,5.72,0,0,1,.59,0h6.22c.16,0,.23-.09.23-.24,0-.65,0-1.32-.07-2s0-1.5,0-2.26c0-.41,0-.83,0-1.25a8.69,8.69,0,0,0,0-1.35.75.75,0,0,0,.1-.36.16.16,0,0,0,.08,0,6.46,6.46,0,0,1,1.07-.06H68.17c.47,0,.47,0,.47-.47v-.22A18.64,18.64,0,0,0,68.44,35ZM29.92,46.64l0,0h0Zm4.8,4.79h0Zm.55,1.83a0,0,0,0,1,0,0h0Zm3.88-34.67c-.34.55-.65,1.08-1,1.64l-.89,1.58q-.4.78-.78,1.56t-.72,1.5c-.22.49-.44,1-.64,1.46s-.4,1-.57,1.42-.35.92-.5,1.38-.3.89-.43,1.34-.25.85-.35,1.29-.22.84-.3,1.27-.17.8-.25,1.2-.14.79-.19,1.19-.1.75-.13,1.14-.07.72-.09,1.08,0,.72,0,1.07v1c0,.32,0,.66,0,1s0,.64.08,1,.09.6.14.9a6.31,6.31,0,0,0,.15.85c.05.28.12.55.18.84s.14.53.2.78.15.5.24.75.16.49.25.72a6.55,6.55,0,0,0,.27.69c.1.22.18.43.28.63s.2.42.3.62a3.46,3.46,0,0,0,.3.57c.1.18.2.35.3.54s.2.33.32.5l.3.47L36,51l.3.4.3.35a3.1,3.1,0,0,0,.27.34,3.65,3.65,0,0,0,.27.3c.07.08.15.18.23.26l.22.24c.07,0,.13.12.2.18a1.36,1.36,0,0,0,.17.17l.13.13c.12.12.37.32.24.51s-.27,0-.37-.06l-.2-.13c-.42-.28-.82-.58-1.21-.88s-.75-.61-1.1-.92-.69-.61-1-.94-.62-.62-.91-.94-.55-.63-.81-1-.49-.65-.71-1-.43-.65-.63-1-.37-.66-.54-1-.31-.67-.47-1-.26-.68-.38-1l-.3-1c-.08-.36-.17-.69-.23-1a9.78,9.78,0,0,1-.17-1c-.05-.35-.09-.7-.12-1l0-1.06c0-.33,0-.68,0-1s0-.68.05-1,.06-.69.11-1,.11-.67.16-1,.13-.66.2-1,.15-.67.23-1,.18-.66.27-1,.2-.66.3-1,.22-.62.33-.94l.35-.9c.12-.3.25-.6.37-.91s.27-.56.4-.85.25-.57.4-.85l.41-.8c.15-.27.28-.54.41-.79l.44-.75.42-.72c.13-.22.26-.45.4-.67s.28-.43.41-.63.26-.4.39-.61.25-.38.38-.56l.35-.5c.12-.17.24-.32.36-.47s.2-.29.3-.42l.28-.39c.08-.1.17-.2.25-.31l.2-.25a2.15,2.15,0,0,1,.19-.22l.11-.15s0-.07.09-.1,1.55.48,1.55.48S39.15,18.59,39.15,18.59Zm1.12,37.89,0,0h0ZM44,10.18a6,6,0,0,0-.34.53l-.45.76c-.26.43-.51.88-.78,1.32l-.8,1.38L41,15.43c-.16.28-.35.58-.52.88a2.71,2.71,0,0,1-.18.34l-1.37-.42s4.38-5.85,4.83-6.29c.07-.06.19-.18.29-.16S44.08,10.08,44,10.18Zm2.64,47.46a0,0,0,0,1,0,0h0Zm15.61-21.4-.05-.07.09,0S62.3,36.24,62.28,36.24Z" transform="translate(-27.65 0)"/></g></svg>