<?xml version="1.0" encoding="UTF-8"?>
<svg id="Layer_2" xmlns="http://www.w3.org/2000/svg" xmlns:xlink="http://www.w3.org/1999/xlink" viewBox="0 0 60 37">
  <defs>
    <style>
      .cls-1 {
        fill: #f16129;
      }

      .cls-2 {
        fill: none;
      }

      .cls-3 {
        clip-path: url(#clippath);
      }
    </style>
    <clipPath id="clippath">
      <rect class="cls-2" width="60" height="37"/>
    </clipPath>
  </defs>
  <g id="Layer_1-2" data-name="Layer_1">
    <g class="cls-3">
      <g>
        <path class="cls-1" d="M30.01,25.77c4.01,0,7.27-3.26,7.27-7.26s-3.26-7.27-7.27-7.27-7.27,3.27-7.27,7.27,3.26,7.26,7.27,7.26ZM30.01,12.43c3.35,0,6.07,2.73,6.07,6.08s-2.72,6.07-6.07,6.07-6.08-2.72-6.08-6.07c0-3.36,2.73-6.08,6.08-6.08Z"/>
        <path class="cls-1" d="M22.29,29.77l2.63-1.62c.61.32,1.23.58,1.86.77l.71,3c.06.27.3.46.58.46h3.87c.28,0,.52-.19.58-.46l.71-3c.64-.19,1.26-.45,1.86-.77l2.62,1.62c.24.14.54.11.74-.09l2.74-2.74c.2-.2.23-.5.09-.74l-1.62-2.63c.32-.61.58-1.23.77-1.86l3-.71c.27-.06.46-.3.46-.58v-3.87c0-.28-.19-.52-.46-.58l-3-.71c-.19-.63-.44-1.24-.77-1.86l1.62-2.63c.14-.24.11-.54-.09-.74l-2.74-2.74c-.2-.2-.5-.23-.74-.09l-2.63,1.62c-.62-.33-1.23-.58-1.86-.77l-.71-3c-.06-.27-.3-.46-.58-.46h-3.87c-.28,0-.52.19-.58.46l-.71,3c-.63.19-1.24.44-1.86.77l-2.63-1.62c-.24-.14-.54-.11-.74.09l-2.74,2.74c-.2.2-.23.5-.09.74l1.62,2.63c-.33.62-.58,1.23-.77,1.86l-3,.71c-.27.06-.46.3-.46.58v3.87c0,.28.19.52.46.58l3,.71c.19.64.45,1.26.77,1.86l-1.62,2.62c-.14.24-.11.54.09.74l2.74,2.74c.19.2.49.24.73.09h0ZM21.55,23.92c.11-.18.12-.42.01-.61-.41-.72-.72-1.47-.92-2.24-.06-.21-.23-.38-.44-.43l-2.88-.68v-2.92l2.88-.68c.21-.05.38-.21.44-.43.2-.76.51-1.49.92-2.24.11-.19.1-.42-.01-.6l-1.56-2.52,2.07-2.07,2.52,1.56c.18.11.42.12.61.01.75-.42,1.48-.72,2.24-.92.21-.06.38-.23.43-.44l.68-2.88h2.92l.68,2.88c.05.21.21.38.43.44.76.2,1.49.51,2.24.92.19.11.42.1.61-.01l2.52-1.56,2.07,2.07-1.56,2.52c-.11.18-.12.42-.01.61.42.75.72,1.48.92,2.24.06.21.23.38.44.43l2.88.68v2.92l-2.88.68c-.21.05-.38.21-.44.43-.2.76-.51,1.49-.92,2.24-.11.19-.1.42.01.61l1.56,2.52-2.07,2.07-2.52-1.56c-.18-.11-.42-.12-.61-.01-.72.41-1.47.72-2.24.92-.21.06-.38.23-.43.44l-.68,2.88h-2.92l-.68-2.88c-.05-.21-.21-.38-.43-.44-.76-.2-1.49-.51-2.24-.92-.19-.11-.42-.1-.61.01l-2.52,1.56-2.07-2.07,1.55-2.53Z"/>
        <path class="cls-1" d="M19.97,6.72c1.65,0,2.99-1.34,2.99-2.98,0-.32-.05-.63-.15-.92,2.26-1.04,4.68-1.57,7.2-1.57,3.02,0,5.94.78,8.54,2.27l-1.81.48c-.32.09-.51.41-.42.73.07.27.31.44.58.44.05,0,.1,0,.15-.02l3.15-.83s0,0,.01,0c.06-.02.12-.05.18-.09,0,0,.02-.01.03-.02.05-.04.09-.08.12-.13,0,0,0-.02.02-.03h0s0-.03.02-.04c0-.02.02-.04.02-.06,0-.02.01-.03.02-.05,0-.02.01-.04.01-.06,0-.02,0-.04,0-.05,0-.02,0-.04,0-.06,0-.02,0-.04,0-.05,0-.02,0-.04,0-.06,0,0,0-.01,0-.02l-.85-3.15c-.09-.32-.41-.51-.73-.42-.32.09-.51.42-.42.73l.45,1.69C36.3.88,33.19.05,29.99.05c-2.73,0-5.35.59-7.79,1.73-.55-.63-1.35-1.02-2.24-1.02-1.64,0-2.98,1.34-2.98,2.98.01,1.64,1.35,2.98,2.99,2.98h0ZM19.97,1.96c.99,0,1.79.8,1.79,1.78s-.81,1.78-1.79,1.78-1.78-.8-1.78-1.78.8-1.78,1.78-1.78Z"/>
        <path class="cls-1" d="M40.03,30.28c-1.65,0-2.99,1.34-2.99,2.98,0,.32.05.63.14.92-2.26,1.04-4.67,1.57-7.18,1.57-3.02,0-5.95-.78-8.55-2.27l1.81-.48c.32-.09.51-.41.42-.73-.09-.32-.41-.51-.73-.42l-3.15.83s0,0-.02,0c-.07.02-.13.05-.18.09,0,0-.02.01-.02.02-.05.04-.09.08-.12.13,0,0,0,.02-.02.03h0s0,.03-.02.04c0,.02-.02.04-.02.06,0,.02-.01.03-.02.05s-.01.04-.01.06c0,.02,0,.04,0,.05,0,.02,0,.04,0,.06,0,.02,0,.04,0,.05,0,.02,0,.04.01.06,0,0,0,.01,0,.02l.85,3.15c.07.27.31.44.58.44.05,0,.1,0,.16-.02.32-.09.51-.42.42-.73l-.45-1.69c2.76,1.56,5.86,2.39,9.07,2.39,2.72,0,5.33-.59,7.78-1.73.55.63,1.35,1.03,2.25,1.03,1.64,0,2.98-1.34,2.98-2.99-.01-1.64-1.35-2.98-2.99-2.98h0ZM40.03,35.05c-.64,0-1.19-.34-1.51-.84,0,0,0-.01,0-.02,0,0-.01-.02-.02-.03-.16-.27-.25-.58-.25-.91,0-.98.81-1.78,1.79-1.78s1.78.8,1.78,1.78-.8,1.79-1.78,1.79h0Z"/>
        <path class="cls-1" d="M15.24,25.55c-.32,0-.63.05-.91.14-1.04-2.26-1.58-4.68-1.58-7.19,0-3.02.78-5.95,2.27-8.55l.48,1.81c.07.27.31.44.58.44.05,0,.1,0,.15-.02.32-.09.51-.41.42-.73l-.83-3.15s0,0,0-.01c-.02-.07-.05-.13-.09-.18,0,0-.01-.01-.02-.02-.04-.05-.08-.09-.13-.12,0,0-.02,0-.03-.02,0,0,0,0,0,0-.01,0-.02-.01-.04-.02-.02,0-.03-.02-.05-.02-.02,0-.04-.01-.05-.02-.02,0-.04-.01-.06-.01-.02,0-.04,0-.05,0-.02,0-.04,0-.06,0-.02,0-.04,0-.06,0-.02,0-.04,0-.06,0,0,0-.02,0-.02,0l-3.15.85c-.32.09-.51.42-.42.73.09.32.42.51.73.42l1.69-.45c-1.56,2.76-2.39,5.86-2.39,9.07,0,2.73.59,5.34,1.73,7.78-.63.55-1.03,1.35-1.03,2.24,0,1.64,1.34,2.98,2.99,2.98s2.98-1.34,2.98-2.98c0-1.65-1.33-2.99-2.97-2.99ZM15.24,30.31c-.99,0-1.79-.8-1.79-1.78s.81-1.78,1.79-1.78,1.78.8,1.78,1.78c0,.98-.8,1.78-1.78,1.78Z"/>
        <path class="cls-1" d="M48.49,27.53c-.09-.32-.41-.51-.73-.42l-1.69.45c1.56-2.76,2.39-5.86,2.39-9.06,0-2.73-.59-5.35-1.73-7.79.63-.55,1.03-1.35,1.03-2.25,0-1.64-1.34-2.98-2.99-2.98s-2.98,1.34-2.98,2.98,1.34,2.99,2.98,2.99c.32,0,.63-.05.92-.14,1.04,2.26,1.57,4.67,1.57,7.2,0,3.02-.78,5.94-2.27,8.54l-.48-1.81c-.09-.32-.41-.51-.73-.42-.32.09-.51.41-.42.73l.83,3.15s0,0,0,.01c.02.07.05.13.09.18,0,0,.01.01.02.02.04.05.08.09.13.12,0,0,.02,0,.02.01h.01s.06.04.08.05c.02,0,.03.02.05.02.05.01.09.02.14.02,0,0,.02,0,.02,0,.05,0,.1,0,.15-.02h0l3.15-.85c.33-.07.51-.4.43-.72h0ZM42.98,8.46c0-.98.8-1.78,1.78-1.78s1.79.8,1.79,1.78c0,.64-.34,1.19-.84,1.51,0,0-.01,0-.02,0-.01,0-.02.01-.03.02-.27.16-.58.25-.91.25-.98,0-1.78-.81-1.78-1.8h0Z"/>
        <path class="cls-1" d="M28.8,20.82c.11.11.26.18.42.18s.31-.06.42-.18l3.8-3.8c.24-.24.24-.61,0-.85-.24-.24-.61-.24-.85,0l-3.38,3.38-1.83-1.83c-.24-.24-.61-.24-.85,0-.24.24-.24.61,0,.85l2.26,2.25Z"/>
      </g>
    </g>
  </g>
</svg>