<?xml version="1.0" encoding="UTF-8"?>
<svg id="Layer_2" xmlns="http://www.w3.org/2000/svg" xmlns:xlink="http://www.w3.org/1999/xlink" viewBox="0 0 60 37">
  <defs>
    <style>
      .cls-1 {
        fill: #f16129;
      }

      .cls-2 {
        fill: none;
      }

      .cls-3 {
        clip-path: url(#clippath);
      }
    </style>
    <clipPath id="clippath">
      <rect class="cls-2" width="60" height="37"/>
    </clipPath>
  </defs>
  <g id="Layer_1-2" data-name="Layer_1">
    <g class="cls-3">
      <g>
        <path class="cls-1" d="M17.17,28.22c-2.42,0-4.39,1.97-4.39,4.39s1.97,4.39,4.39,4.39,4.39-1.97,4.39-4.39-1.97-4.39-4.39-4.39ZM17.17,35.92c-1.82,0-3.31-1.49-3.31-3.31s1.48-3.31,3.31-3.31,3.31,1.49,3.31,3.31-1.48,3.31-3.31,3.31Z"/>
        <path class="cls-1" d="M42.83,28.22c-2.42,0-4.39,1.97-4.39,4.39s1.97,4.39,4.39,4.39,4.39-1.97,4.39-4.39-1.97-4.39-4.39-4.39ZM42.83,35.92c-1.83,0-3.31-1.49-3.31-3.31s1.49-3.31,3.31-3.31,3.31,1.49,3.31,3.31-1.49,3.31-3.31,3.31Z"/>
        <path class="cls-1" d="M18.45,31.22c-.15,0-.28.06-.38.16l-1.33,1.33-.47-.47c-.1-.1-.24-.16-.38-.16s-.28.06-.38.16c-.1.1-.16.24-.16.38s.06.28.16.38l.85.86c.1.1.24.16.38.16s.28-.06.38-.16l1.71-1.71c.1-.1.16-.24.16-.38s-.06-.28-.16-.38c-.1-.1-.24-.16-.38-.16Z"/>
        <path class="cls-1" d="M44.65,31.33c0-.14-.06-.28-.16-.38s-.24-.16-.38-.16-.28.06-.38.16l-.9.9-.9-.9c-.1-.1-.24-.16-.38-.16s-.28.06-.38.16c-.1.1-.16.24-.16.38s.06.28.16.38l.9.9-.9.9c-.1.1-.16.24-.16.38s.06.28.16.38c.1.1.24.16.38.16s.28-.06.38-.16l.9-.9.9.9c.1.1.24.16.38.16s.28-.06.38-.16c.1-.1.16-.24.16-.38s-.06-.28-.16-.38l-.9-.9.9-.9c.1-.1.16-.24.16-.38Z"/>
        <path class="cls-1" d="M13.25,27.62c.04-.14.02-.28-.05-.41-.4-.69-.61-1.49-.61-2.3,0-1.64.88-3.16,2.3-3.98.12-.07.21-.19.25-.33.04-.14.02-.28-.06-.41-.1-.17-.27-.27-.47-.27-.09,0-.19.03-.27.07-1.75,1.01-2.83,2.89-2.83,4.91,0,1,.26,1.98.76,2.84.1.17.28.27.47.27.09,0,.19-.03.27-.07.13-.07.21-.19.25-.33Z"/>
        <path class="cls-1" d="M45.66,20c-.08-.05-.17-.07-.27-.07-.19,0-.37.1-.47.27-.07.12-.09.27-.05.41.04.14.13.26.25.33,1.42.82,2.3,2.34,2.3,3.98,0,.81-.21,1.6-.61,2.3-.07.12-.09.27-.05.41.04.14.13.26.25.33.08.05.17.07.27.07.19,0,.37-.1.47-.27.5-.86.76-1.84.76-2.84,0-2.02-1.09-3.9-2.84-4.91Z"/>
        <path class="cls-1" d="M43.74,24.74V7.13c0-.2-.12-.39-.3-.48L30.24.06c-.07-.04-.16-.06-.24-.06s-.17.02-.24.06l-1.83.92c-.27.13-.37.46-.24.73.09.18.28.3.48.3.09,0,.17-.02.24-.06l1.55-.82,2.79,1.39-11.51,6.24-3.24-1.62,5.81-2.9c.27-.13.37-.46.24-.72-.09-.18-.28-.3-.48-.3-.08,0-.16.02-.24.06l-6.77,3.39c-.18.09-.3.28-.3.48v17.6c0,.21.11.39.3.48l13.2,6.59c.07.04.16.06.24.06s.17-.02.24-.06l13.2-6.59c.18-.09.3-.28.3-.48ZM41.99,7.14l-11.95,6.02-3.27-1.63,11.6-6.19,3.62,1.81ZM25.06,18.44l-1.31-2.12c-.08-.13-.21-.22-.35-.25h-.1c-.12,0-.23.03-.32.09l-1.23.9v-6.86l3.32,1.66v6.57ZM21.52,18.56l1.62-1.18,2,3.24c.1.16.27.25.46.25.05,0,.1,0,.15-.02.23-.07.39-.28.39-.52v-7.93l3.32,1.66v16.39l-12.12-6.05V8.01l3.32,1.66v8.46c0,.2.11.39.29.48.08.04.16.06.24.06.11,0,.22-.04.32-.1ZM22.38,9.32l11.55-6.21,3.26,1.63-11.56,6.21-3.26-1.63ZM30.54,30.46V14.07l12.12-6.06v16.39l-12.12,6.05Z"/>
        <path class="cls-1" d="M40.58,21.44c-.08,0-.16.02-.24.06l-2.2,1.1c-.27.13-.37.46-.24.72.09.18.28.3.48.3.09,0,.17-.02.24-.06l2.2-1.1c.27-.13.37-.46.24-.72-.09-.18-.28-.3-.48-.3Z"/>
        <path class="cls-1" d="M25.87,3.34c.41,0,.74-.33.74-.74s-.33-.74-.74-.74-.74.33-.74.74.33.74.74.74Z"/>
      </g>
    </g>
  </g>
</svg>