<?xml version="1.0" encoding="UTF-8"?>
<svg id="Layer_2" xmlns="http://www.w3.org/2000/svg" xmlns:xlink="http://www.w3.org/1999/xlink" viewBox="0 0 60 37">
  <defs>
    <style>
      .cls-1 {
        fill: #f16129;
      }

      .cls-2 {
        fill: none;
      }

      .cls-3 {
        clip-path: url(#clippath);
      }
    </style>
    <clipPath id="clippath">
      <rect class="cls-2" width="60" height="37"/>
    </clipPath>
  </defs>
  <g id="Layer_1-2" data-name="Layer_1">
    <g class="cls-3">
      <g>
        <path class="cls-1" d="M32.79,27.79c-.29.17-.39.55-.22.84.11.19.31.31.53.31.11,0,.21-.03.31-.08l4.93-2.85c.14-.08.25-.22.29-.38.04-.16.02-.32-.06-.46-.11-.19-.31-.31-.53-.31-.11,0-.21.03-.31.08l-4.94,2.85Z"/>
        <path class="cls-1" d="M45.8,9.02L30.31.09c-.1-.06-.2-.09-.32-.09s-.21.03-.31.08l-15.44,8.92c-.21.1-.35.32-.35.56v17.88c0,.22.12.42.31.53l15.45,8.92c.1.07.22.11.35.11s.24-.04.33-.1l15.42-8.9c.21-.1.35-.32.35-.56V9.56c0-.22-.12-.42-.31-.53ZM44.25,9.56l-14.26,8.23-4.94-2.85,14.28-8.22,4.91,2.84ZM20.53,22.98c.08.04.17.06.27.06.14,0,.28-.05.38-.13l.88-.64,1.22,2.17c.1.21.32.35.55.35l.14-.02c.28-.06.48-.31.48-.6v-8.17l4.93,2.85v16.46l-14.25-8.23V10.63l5.05,2.92v8.89c0,.24.14.45.35.56ZM23.2,21.83l-.4-.7v-.03s-.04-.06-.04-.06c-.04-.06-.09-.12-.15-.16l-.11.16.09-.18-.05-.05h-.06l-.07-.03-.13-.02s-.1,0-.15,0l-.13.06h-.06l-.53.38v-6.96s1.8,1.04,1.8,1.04v6.53ZM20.54,12.33l-4.8-2.77L30,1.33l4.82,2.78s-14.27,8.21-14.28,8.22ZM21.77,13.04l14.28-8.22,2.06,1.19-14.28,8.22-2.06-1.19ZM30.62,18.85l14.25-8.23v16.46l-14.25,8.23v-16.46Z"/>
        <path class="cls-1" d="M38.86,26.91c-.1,0-.2.03-.3.08l-6.16,3.56c-.15.08-.26.22-.3.37-.05.16-.02.34.06.48.08.14.22.25.39.29.05.01.1.02.15.02.11,0,.23-.03.32-.09l6.17-3.56c.28-.18.38-.54.21-.83-.11-.19-.31-.31-.53-.31Z"/>
        <path class="cls-1" d="M32.45,26.21l5.11-2.95c.21-.1.34-.32.34-.56v-5.97c0-.23-.13-.44-.33-.54-.09-.05-.19-.07-.29-.07-.12,0-.24.04-.33.1l-5.1,2.95c-.12.06-.22.15-.28.27l-.07-.04v6.29c0,.23.13.44.33.54.09.05.19.07.29.07.12,0,.24-.04.33-.1ZM32.74,24.63v-4.54l3.93-2.27v4.54s-3.93,2.27-3.93,2.27Z"/>
      </g>
    </g>
  </g>
</svg>