<?xml version="1.0" encoding="UTF-8"?>
<svg id="Layer_2" xmlns="http://www.w3.org/2000/svg" xmlns:xlink="http://www.w3.org/1999/xlink" viewBox="0 0 60 37">
  <defs>
    <style>
      .cls-1 {
        fill: #f16129;
      }

      .cls-2 {
        fill: none;
      }

      .cls-3 {
        clip-path: url(#clippath);
      }
    </style>
    <clipPath id="clippath">
      <rect class="cls-2" width="60" height="37"/>
    </clipPath>
  </defs>
  <g id="Layer_1-2" data-name="Layer_1">
    <g class="cls-3">
      <g>
        <path class="cls-1" d="M20.36,12.36c.97.44,2.25.69,3.6.69s2.62-.24,3.6-.69c.86-.39,1.42-.91,1.61-1.51h9.16c1.47,0,2.85.58,3.89,1.62,1.04,1.05,1.62,2.43,1.62,3.89s-.58,2.85-1.62,3.89c-1.05,1.04-2.43,1.62-3.89,1.62h-8.91c-.26,0-.47.21-.47.47s.21.47.47.47h8.91c1.72,0,3.34-.67,4.57-1.9,1.22-1.23,1.9-2.85,1.9-4.56s-.67-3.34-1.9-4.57c-1.22-1.22-2.85-1.9-4.57-1.9h-9.16c-.13-.39-.41-.75-.85-1.07-.39-.28-.9-.53-1.48-.71,1.89-2.8,2.09-5.28.53-6.84-.81-.81-2.05-1.28-3.4-1.28-1.34,0-2.59.48-3.41,1.3-1.57,1.56-1.4,4.05.46,6.84-.57.19-1.07.43-1.44.71-.59.44-.9.97-.9,1.53,0,.78.6,1.49,1.69,1.99ZM20.15,9.61c.36-.27.86-.49,1.46-.66.55.72,1.22,1.48,1.97,2.24.09.09.21.14.34.14s.24-.05.33-.14c.76-.76,1.43-1.51,2-2.25.62.16,1.14.39,1.51.66.35.25.53.52.53.78,0,.39-.41.79-1.13,1.12-.85.39-1.98.6-3.2.6s-2.35-.21-3.2-.6c-.72-.33-1.13-.74-1.13-1.12,0-.25.18-.52.52-.77ZM23.99.85v.1c1.09,0,2.08.37,2.71,1,1.3,1.3.93,3.54-1.04,6.2-.49.65-1.08,1.33-1.75,2.03-.66-.69-1.24-1.37-1.76-2.07-1.9-2.59-2.23-4.83-.92-6.14.65-.65,1.65-1.02,2.74-1.02v-.1h.01Z"/>
        <path class="cls-1" d="M22.44,2.38c-.41.41-.63.95-.63,1.52s.22,1.11.63,1.52c.41.41.95.63,1.52.63s1.11-.22,1.52-.63c.41-.41.63-.95.63-1.52s-.22-1.11-.63-1.52c-.41-.41-.95-.63-1.52-.63s-1.11.22-1.52.63ZM24.81,3.05c.23.23.35.53.35.85s-.12.62-.35.85-.53.35-.85.35-.62-.12-.85-.35c-.23-.23-.35-.53-.35-.85s.12-.62.35-.85.53-.35.85-.35.62.12.85.35Z"/>
        <path class="cls-1" d="M47.5,32.78c-.39-.28-.9-.53-1.48-.71,1.89-2.8,2.09-5.28.53-6.84-.81-.81-2.05-1.28-3.4-1.28-1.34,0-2.58.47-3.41,1.29-1.57,1.56-1.4,4.05.45,6.84-.57.19-1.07.43-1.45.71-.42.31-.7.67-.83,1.06h-12.22c-1.32,0-2.59-.48-3.6-1.34-1.01-.87-1.67-2.07-1.86-3.37-.03-.23-.23-.4-.53-.4h-.01c-.26.04-.44.28-.4.54.22,1.53,1,2.93,2.18,3.95,1.17,1.02,2.67,1.58,4.22,1.58h12.22c.2.6.75,1.12,1.61,1.51.97.44,2.25.69,3.6.69s2.63-.24,3.6-.69c1.09-.5,1.69-1.2,1.69-1.99,0-.57-.32-1.1-.92-1.55ZM43.17,24.8v.1c1.08,0,2.07.37,2.71,1,1.3,1.3.93,3.54-1.04,6.2-.48.64-1.07,1.32-1.75,2.03-.66-.69-1.24-1.37-1.76-2.07-1.9-2.59-2.23-4.83-.92-6.14.65-.65,1.65-1.02,2.74-1.02v-.1h.01ZM39.32,33.56c.36-.27.86-.49,1.46-.66.56.73,1.22,1.48,1.97,2.23.09.09.21.14.34.14s.24-.05.33-.14c.77-.77,1.45-1.53,2-2.25.62.17,1.14.39,1.51.66.35.25.53.52.53.78,0,.39-.41.79-1.13,1.12-.84.39-1.98.6-3.2.6s-2.36-.21-3.2-.6c-.72-.33-1.13-.74-1.13-1.12,0-.25.18-.52.52-.77Z"/>
        <path class="cls-1" d="M14.72,21.78c.18,0,.35-.04.51-.11l.4.38c.09.1.22.16.35.16h2.62c.26,0,.48-.21.48-.47s-.21-.47-.48-.47l-2.41.03-.31-.3c.06-.15.09-.31.09-.47,0-.34-.13-.66-.37-.89-.24-.24-.56-.37-.89-.37s-.66.13-.89.37c-.24.24-.37.56-.37.89s.13.66.37.89c.24.24.56.37.89.37ZM14.5,20.29c.06-.06.14-.09.22-.09s.16.03.22.09c.06.06.09.14.09.22s-.03.16-.09.22c-.06.06-.14.09-.22.09s-.16-.03-.22-.09c-.06-.06-.09-.14-.09-.22s.03-.16.09-.22Z"/>
        <path class="cls-1" d="M19.08,26.17c0-.26-.21-.47-.48-.47h-2.62c-.13,0-.26.06-.35.15l-.4.39c-.16-.07-.34-.11-.51-.11-.34,0-.65.13-.89.37-.24.24-.37.56-.37.89s.13.66.37.89c.24.24.55.37.89.37s.65-.13.89-.37c.24-.24.37-.56.37-.9,0-.17-.03-.33-.09-.48l.24-.27h2.47c.26,0,.48-.21.48-.47ZM14.4,27.39c0-.08.03-.16.09-.22.06-.06.14-.09.22-.09s.16.03.22.09c.06.06.09.14.09.22s-.03.17-.09.22c-.06.06-.14.09-.22.09s-.16-.03-.22-.09c-.06-.06-.09-.14-.09-.22Z"/>
        <path class="cls-1" d="M20.42,28.32c.09,0,.18-.02.24-.07l.72-.43c.08.04.16.07.24.11.05.02.11.04.15.04.02,0,.03,0,.04-.02l.28.9c.06.2.25.34.45.34h1.48c.22,0,.41-.15.46-.36l.21-.81c.08-.03.17-.06.24-.09.08-.03.16-.07.15-.11l.83.44c.07.03.14.05.22.05.13,0,.25-.05.34-.14l1.04-1.04c.16-.16.19-.4.07-.58l-.42-.72c.04-.08.07-.16.11-.24.03-.08.06-.16.03-.18l.9-.28c.2-.06.34-.24.34-.45v-1.48c0-.22-.15-.41-.36-.46l-.81-.21c-.03-.08-.06-.16-.09-.24-.03-.07-.06-.15-.1-.15,0,0,0,0,0,0l.44-.83c.1-.18.06-.41-.08-.56l-1.04-1.04c-.09-.09-.21-.14-.34-.14-.09,0-.17.02-.24.07l-.72.43c-.08-.04-.16-.07-.24-.11-.05-.02-.11-.04-.14-.04-.02,0-.03,0-.04.02l-.28-.9c-.06-.2-.25-.34-.45-.34h-1.48c-.22,0-.41.15-.46.36l-.21.81c-.08.03-.16.06-.24.09-.08.03-.16.07-.15.11l-.83-.44c-.07-.04-.14-.05-.22-.05-.12,0-.25.05-.33.14l-1.05,1.05c-.16.16-.18.4-.07.58l.42.72c-.04.08-.07.16-.11.24-.03.08-.06.16-.03.18l-.9.28c-.2.06-.34.24-.34.45v1.48c0,.22.16.41.36.46l.81.21c.03.08.06.17.09.24.03.07.06.15.1.15,0,0,0,0,0,0l-.44.83c-.1.18-.06.41.08.55l1.05,1.05c.09.09.21.14.34.14ZM20.04,23.01c.03-.11.07-.23.12-.34.05-.11.1-.22.16-.33.08-.14.08-.31,0-.45l-.37-.69.55-.55.68.36c.07.04.15.06.24.06s.16-.02.23-.06c.11-.06.22-.11.33-.16.11-.05.22-.09.33-.12.16-.04.29-.16.34-.32l.23-.75h.78s.23.75.23.75c.05.15.17.27.32.32.11.03.23.07.34.12.11.05.22.1.33.16.07.04.15.06.23.06s.15-.02.22-.05l.69-.37.55.55-.36.68c-.08.14-.08.32,0,.46.06.11.11.22.16.33.05.11.08.22.12.33.04.16.16.29.32.34l.75.23v.78l-.75.23c-.15.05-.27.17-.32.32-.03.11-.07.23-.12.35-.05.11-.1.22-.16.33-.08.14-.08.31,0,.45l.37.69-.55.55-.68-.36c-.07-.04-.15-.06-.24-.06s-.16.02-.23.06c-.11.06-.22.11-.33.16-.11.05-.22.09-.33.12-.16.04-.29.16-.34.32l-.23.75h-.78l-.23-.75c-.05-.15-.17-.27-.32-.32-.11-.03-.23-.07-.35-.12-.11-.05-.22-.1-.33-.16-.07-.04-.15-.06-.23-.06s-.15.02-.22.05l-.69.37-.55-.55.36-.68c.08-.14.08-.32,0-.46-.06-.11-.11-.22-.16-.33-.05-.11-.09-.22-.12-.33-.04-.16-.16-.29-.32-.34l-.75-.23v-.78l.75-.23c.15-.05.27-.17.32-.32Z"/>
        <path class="cls-1" d="M23.27,26.57c.7,0,1.36-.27,1.85-.77.49-.5.77-1.15.77-1.85s-.27-1.36-.77-1.85c-.49-.49-1.15-.77-1.85-.77-.7,0-1.35.27-1.85.77-.49.49-.77,1.15-.77,1.85s.27,1.36.77,1.85c.49.49,1.15.77,1.85.77ZM22.09,22.78c.31-.31.73-.49,1.18-.49s.86.17,1.18.49c.31.31.49.73.49,1.18s-.17.86-.49,1.18-.73.49-1.18.49-.86-.17-1.18-.49-.49-.73-.49-1.18.17-.86.49-1.18Z"/>
        <path class="cls-1" d="M41.62,26.33c-.41.41-.63.95-.63,1.52s.22,1.11.63,1.52c.41.41.95.63,1.52.63s1.11-.22,1.52-.63c.41-.41.63-.94.63-1.52s-.22-1.11-.63-1.52c-.41-.41-.95-.63-1.52-.63s-1.11.22-1.52.63ZM43.98,28.69c-.23.23-.53.35-.85.35s-.62-.13-.85-.35c-.23-.23-.35-.53-.35-.85s.13-.62.35-.85c.23-.23.53-.35.85-.35s.62.13.85.35c.23.23.35.53.35.85s-.13.62-.35.85Z"/>
        <path class="cls-1" d="M14.02,24.43h3.37c.26,0,.48-.21.48-.47s-.21-.47-.48-.47h-3.37c-.06-.16-.16-.3-.28-.42-.24-.24-.56-.37-.89-.37s-.66.13-.89.37c-.24.24-.37.56-.37.89s.13.65.37.89c.24.24.56.37.89.37s.66-.13.89-.37c.12-.12.21-.26.28-.42ZM12.53,23.95c0-.08.03-.16.09-.22.06-.06.14-.09.22-.09h0c.08,0,.16.03.22.09.06.06.09.14.09.22s-.03.16-.09.22c-.06.06-.14.09-.22.09s-.16-.03-.22-.09c-.06-.06-.09-.14-.09-.22Z"/>
      </g>
    </g>
  </g>
</svg>