<svg xmlns="http://www.w3.org/2000/svg" xmlns:xlink="http://www.w3.org/1999/xlink" width="1920" height="754" viewBox="0 0 1920 754">
  <defs>
    <linearGradient id="linear-gradient" x1="-0.029" y1="1.025" x2="1.017" gradientUnits="objectBoundingBox">
      <stop offset="0" stop-color="#ff4d53"/>
      <stop offset="1" stop-color="#ffbabd"/>
    </linearGradient>
    <clipPath id="clip-path">
      <rect id="Rectangle_34843" data-name="Rectangle 34843" width="1920" height="754" transform="translate(-9651 -21622)" fill="#fff" stroke="#707070" stroke-width="1"/>
    </clipPath>
  </defs>
  <g id="Group_144543" data-name="Group 144543" transform="translate(9651 21622)">
    <g id="_1._Dating_App_banner_" data-name="1. Dating App banner " transform="translate(-9651 -21688)">
      <path id="Path_152557" data-name="Path 152557" d="M0,0H1920V754H0Z" transform="translate(0 66)" fill="url(#linear-gradient)"/>
    </g>
    <g id="Mask_Group_417" data-name="Mask Group 417" clip-path="url(#clip-path)">
      <g id="Group_144542" data-name="Group 144542" transform="translate(-9665.575 -21582.656)" opacity="0.75">
        <path id="Path_156747" data-name="Path 156747" d="M49,1.159,72.28,0l-49,827.1L0,828.264Z" transform="translate(222.539 -69.569) rotate(16)" fill="#fff" opacity="0.05"/>
        <path id="Path_156748" data-name="Path 156748" d="M49,1.159,72.28,0l-49,827.1L0,828.264Z" transform="translate(1079.746 -69.569) rotate(16)" fill="#fff" opacity="0.05"/>
        <path id="Path_156749" data-name="Path 156749" d="M49,1.159,72.28,0l-49,827.1L0,828.264Z" transform="translate(648.821 -69.569) rotate(16)" fill="#fff" opacity="0.05"/>
        <path id="Path_156750" data-name="Path 156750" d="M49,1.159,72.28,0l-49,827.1L0,828.264Z" transform="translate(1506.028 -69.569) rotate(16)" fill="#fff" opacity="0.05"/>
        <path id="Path_156751" data-name="Path 156751" d="M49,1.159,72.28,0l-49,827.1L0,828.264Z" transform="translate(439.309 -69.569) rotate(16)" fill="#fff" opacity="0.05"/>
        <path id="Path_156752" data-name="Path 156752" d="M49,1.159,72.28,0l-49,827.1L0,828.264Z" transform="translate(1290.142 -69.569) rotate(16)" fill="#fff" opacity="0.05"/>
        <path id="Path_156753" data-name="Path 156753" d="M49,1.159,72.28,0l-49,827.1L0,828.264Z" transform="translate(859.217 -69.569) rotate(16)" fill="#fff" opacity="0.05"/>
        <path id="Path_156754" data-name="Path 156754" d="M49,1.159,72.28,0l-49,827.1L0,828.264Z" transform="translate(1708.283 -69.569) rotate(16)" fill="#fff" opacity="0.05"/>
        <path id="Path_156755" data-name="Path 156755" d="M49,1.159,72.28,0l-49,827.1L0,828.264Z" transform="translate(334.143 -69.569) rotate(16)" fill="#fff" opacity="0.05"/>
        <path id="Path_156756" data-name="Path 156756" d="M49,1.159,72.28,0l-49,827.1L0,828.264Z" transform="translate(1188.069 -69.569) rotate(16)" fill="#fff" opacity="0.05"/>
        <path id="Path_156757" data-name="Path 156757" d="M49,1.159,72.28,0l-49,827.1L0,828.264Z" transform="translate(757.143 -69.569) rotate(16)" fill="#fff" opacity="0.05"/>
        <path id="Path_156758" data-name="Path 156758" d="M49,1.159,72.28,0l-49,827.1L0,828.264Z" transform="translate(1614.351 -69.569) rotate(16)" fill="#fff" opacity="0.05"/>
        <path id="Path_156759" data-name="Path 156759" d="M49,1.159,72.28,0l-49,827.1L0,828.264Z" transform="translate(541.257 -69.569) rotate(16)" fill="#fff" opacity="0.05"/>
        <path id="Path_156760" data-name="Path 156760" d="M49,1.159,72.28,0l-49,827.1L0,828.264Z" transform="translate(1398.465 -69.569) rotate(16)" fill="#fff" opacity="0.05"/>
        <path id="Path_156761" data-name="Path 156761" d="M49,1.159,72.28,0l-49,827.1L0,828.264Z" transform="translate(967.539 -69.569) rotate(16)" fill="#fff" opacity="0.05"/>
        <path id="Path_156762" data-name="Path 156762" d="M49,1.159,72.28,0l-49,827.1L0,828.264Z" transform="translate(1819.887 -69.569) rotate(16)" fill="#fff" opacity="0.05"/>
        <path id="Path_156763" data-name="Path 156763" d="M49,1.159,72.28,0l-49,827.1L0,828.264Z" transform="translate(1932.565 -69.569) rotate(16)" fill="#fff" opacity="0.05"/>
        <path id="Path_156764" data-name="Path 156764" d="M49,1.159,72.28,0l-49,827.1L0,828.264Z" transform="translate(275.122 -69.569) rotate(16)" fill="#fff" opacity="0.05"/>
        <path id="Path_156765" data-name="Path 156765" d="M49,1.159,72.28,0l-49,827.1L0,828.264Z" transform="translate(1130.782 -69.569) rotate(16)" fill="#fff" opacity="0.05"/>
        <path id="Path_156766" data-name="Path 156766" d="M49,1.159,72.28,0l-49,827.1L0,828.264Z" transform="translate(699.857 -69.569) rotate(16)" fill="#fff" opacity="0.05"/>
        <path id="Path_156767" data-name="Path 156767" d="M49,1.159,72.28,0l-49,827.1L0,828.264Z" transform="translate(1557.065 -69.569) rotate(16)" fill="#fff" opacity="0.05"/>
        <path id="Path_156768" data-name="Path 156768" d="M49,1.159,72.28,0l-49,827.1L0,828.264Z" transform="translate(491.892 -69.569) rotate(16)" fill="#fff" opacity="0.05"/>
        <path id="Path_156769" data-name="Path 156769" d="M49,1.159,72.28,0l-49,827.1L0,828.264Z" transform="translate(1341.179 -69.569) rotate(16)" fill="#fff" opacity="0.05"/>
        <path id="Path_156770" data-name="Path 156770" d="M49,1.159,72.28,0l-49,827.1L0,828.264Z" transform="translate(910.253 -69.569) rotate(16)" fill="#fff" opacity="0.05"/>
        <path id="Path_156771" data-name="Path 156771" d="M49,1.159,72.28,0l-49,827.1L0,828.264Z" transform="translate(1760.866 -69.569) rotate(16)" fill="#fff" opacity="0.05"/>
        <path id="Path_156772" data-name="Path 156772" d="M49,1.159,72.28,0l-49,827.1L0,828.264Z" transform="translate(386.726 -69.569) rotate(16)" fill="#fff" opacity="0.05"/>
        <path id="Path_156773" data-name="Path 156773" d="M49,1.159,72.28,0l-49,827.1L0,828.264Z" transform="translate(1239.105 -69.569) rotate(16)" fill="#fff" opacity="0.05"/>
        <path id="Path_156774" data-name="Path 156774" d="M49,1.159,72.28,0l-49,827.1L0,828.264Z" transform="translate(808.18 -69.569) rotate(16)" fill="#fff" opacity="0.05"/>
        <path id="Path_156775" data-name="Path 156775" d="M49,1.159,72.28,0l-49,827.1L0,828.264Z" transform="translate(1665.387 -69.569) rotate(16)" fill="#fff" opacity="0.05"/>
        <path id="Path_156776" data-name="Path 156776" d="M49,1.159,72.28,0l-49,827.1L0,828.264Z" transform="translate(592.294 -69.569) rotate(16)" fill="#fff" opacity="0.05"/>
        <path id="Path_156777" data-name="Path 156777" d="M49,1.159,72.28,0l-49,827.1L0,828.264Z" transform="translate(1449.501 -69.569) rotate(16)" fill="#fff" opacity="0.05"/>
        <path id="Path_156778" data-name="Path 156778" d="M49,1.159,72.28,0l-49,827.1L0,828.264Z" transform="translate(1018.576 -69.569) rotate(16)" fill="#fff" opacity="0.05"/>
        <path id="Path_156779" data-name="Path 156779" d="M49,1.159,72.28,0l-49,827.1L0,828.264Z" transform="translate(1872.47 -69.569) rotate(16)" fill="#fff" opacity="0.05"/>
        <path id="Path_156780" data-name="Path 156780" d="M49,1.159,72.28,0l-49,827.1L0,828.264Z" transform="translate(1985.148 -69.569) rotate(16)" fill="#fff" opacity="0.05"/>
      </g>
    </g>
  </g>
</svg>
