<?xml version="1.0" encoding="UTF-8"?>
<svg id="Layer_2" xmlns="http://www.w3.org/2000/svg" xmlns:xlink="http://www.w3.org/1999/xlink" viewBox="0 0 50 31">
  <defs>
    <style>
      .cls-1 {
        fill: #fff;
        fill-rule: evenodd;
      }

      .cls-2 {
        fill: none;
      }

      .cls-3 {
        clip-path: url(#clippath);
      }
    </style>
    <clipPath id="clippath">
      <rect class="cls-2" width="50" height="31"/>
    </clipPath>
  </defs>
  <g id="Layer_1-2" data-name="Layer_1">
    <g class="cls-3">
      <path class="cls-1" d="M42.87,7.51H7.13v19.76c0,.94.76,1.69,1.7,1.7h32.34c.94,0,1.69-.76,1.7-1.7V7.51ZM7.13,6.65h35.73v-2.93c0-.94-.76-1.69-1.7-1.7H8.83c-.94,0-1.69.76-1.7,1.7v2.93ZM6.27,3.73c0-1.41,1.15-2.55,2.56-2.56h32.34c1.41,0,2.55,1.15,2.56,2.56v23.54c0,1.41-1.15,2.55-2.56,2.56H8.83c-1.41,0-2.55-1.15-2.56-2.56V3.73ZM13.59,3.83c.17.17.24.41.2.65-.05.24-.21.43-.43.52-.22.09-.47.07-.68-.07s-.32-.36-.32-.6c0-.29.18-.55.44-.66.27-.11.58-.05.78.15h0ZM13.08,2.76h0c.64,0,1.21.38,1.46.97.24.59.11,1.27-.34,1.72-.45.45-1.13.59-1.72.34-.59-.24-.97-.82-.97-1.46,0-.87.71-1.57,1.58-1.58h0ZM18.3,3.83h0c.17.17.24.41.2.65-.05.24-.21.43-.43.52-.22.09-.47.07-.67-.07-.2-.13-.32-.36-.32-.6,0-.29.18-.55.44-.66.27-.11.58-.05.78.16h0ZM17.79,2.76h0c.64,0,1.21.38,1.46.97.24.59.11,1.27-.34,1.72-.45.45-1.13.59-1.72.34-.59-.24-.97-.82-.97-1.46,0-.87.71-1.57,1.58-1.58h0ZM24.33,4.77c-.23,0-.41-.2-.41-.43s.18-.42.41-.43h5.34c.12,0,.23.04.31.12.08.08.13.19.13.31s-.05.23-.13.31c-.08.08-.2.13-.31.12h-5.34ZM32.44,4.77c-.23,0-.42-.2-.42-.43s.19-.42.42-.43h5.34c.23,0,.42.2.42.43s-.18.42-.42.43h-5.34ZM23.06,26.89v-10.32h3.33v10.32h-3.33ZM22.2,21.41v-5.27c0-.24.19-.43.43-.43h4.19c.11,0,.22.05.3.13.08.08.13.19.13.3v11.18c0,.11-.05.22-.13.3-.08.08-.19.13-.3.13H10.05c-.11,0-.22-.05-.3-.13-.08-.08-.13-.19-.13-.3v-4.24c0-.24.19-.43.43-.43h3.76v-3.5h0c0-.24.19-.43.43-.43h4.19c.24,0,.43.19.43.43v2.25h3.34ZM18.87,26.89v-4.62h3.33v4.62h-3.33ZM14.67,26.89v-7.3h3.33v7.3h-3.33ZM10.48,26.89v-3.38h3.33v3.38h-3.33ZM10.35,19.11c-.17.16-.44.15-.61-.02s-.15-.44.02-.6l4.19-3.93h0c.14-.13.35-.15.51-.05l4.36,2.62,5.6-5.58h0c.08-.08.19-.13.3-.13.12,0,.23.04.31.13s.13.19.13.31c0,.12-.05.22-.13.3l-5.83,5.82c-.14.14-.35.16-.52.06l-4.37-2.63-3.96,3.71h0ZM34.68,12.47l-2.17-1.31c.73-.89,1.89-1.31,3.02-1.07l-.86,2.38ZM35.52,12.67l1.29-3.58c1.38.66,2.33,1.98,2.51,3.5l-3.8.08h0ZM37.96,13.47h0c-.1.89-.59,1.69-1.33,2.2-.74.5-1.67.66-2.53.43-.87-.23-1.59-.83-1.98-1.63-.39-.81-.41-1.74-.06-2.57l2.61,1.58h0c.08.05.17.07.26.06l3.02-.06h0ZM39.79,13.43l-.96.02h0c-.14,1.64-1.29,3.01-2.88,3.45-1.59.44-3.28-.16-4.24-1.5-.96-1.34-.99-3.13-.07-4.49.92-1.37,2.59-2.02,4.19-1.63l.33-.9c.08-.22.33-.34.55-.26,2.06.74,3.46,2.68,3.51,4.88,0,.24-.18.43-.42.44h0ZM17.99,9.64v2.01h-9.08v-2.01h9.08ZM8.49,8.78h9.93c.24,0,.43.19.43.43v2.87h0c0,.24-.19.43-.43.43h-9.93c-.11,0-.22-.04-.3-.13-.08-.08-.13-.19-.13-.3v-2.87c0-.24.19-.43.43-.43h0ZM34.25,20.5c-.12,0-.23-.04-.31-.12-.08-.08-.13-.19-.13-.31s.05-.23.13-.31c.08-.08.2-.13.31-.12h6.99c.12,0,.23.04.31.12.08.08.13.19.13.31s-.05.23-.13.31c-.08.08-.2.12-.31.12h-6.99ZM29.85,20.5c-.12,0-.23-.04-.31-.12-.08-.08-.13-.19-.13-.31s.05-.23.13-.31c.08-.08.2-.13.31-.12h1.99,0c.12,0,.23.04.31.12.08.08.13.19.13.31s-.05.23-.13.31c-.08.08-.2.12-.31.12h-1.99ZM39.31,23.7c-.23,0-.42-.2-.42-.43s.19-.42.42-.43h1.93c.12,0,.23.04.31.12.08.08.13.19.13.31s-.05.23-.13.31c-.08.08-.2.12-.31.12h-1.93ZM29.85,23.7c-.12,0-.23-.04-.31-.12-.08-.08-.13-.19-.13-.31s.05-.23.13-.31c.08-.08.2-.13.31-.12h7.05c.12,0,.23.04.31.12.08.08.13.19.13.31s-.05.23-.13.31c-.08.08-.2.12-.31.12h-7.05ZM35.77,26.89h0c-.12,0-.23-.04-.31-.12-.08-.08-.13-.19-.13-.31s.05-.23.13-.31c.08-.08.2-.12.31-.12h5.48c.12,0,.23.04.31.12s.13.19.13.31-.05.23-.13.31-.2.13-.31.12h-5.48ZM29.85,26.89c-.12,0-.23-.04-.31-.12-.08-.08-.13-.19-.13-.31s.05-.23.13-.31c.08-.08.2-.12.31-.12h3.5c.23,0,.42.2.42.43s-.19.42-.42.43h-3.5Z"/>
    </g>
  </g>
</svg>