<?xml version="1.0" encoding="UTF-8"?>
<svg id="Layer_2" xmlns="http://www.w3.org/2000/svg" xmlns:xlink="http://www.w3.org/1999/xlink" viewBox="0 0 50 31">
  <defs>
    <style>
      .cls-1 {
        fill: #fff;
      }

      .cls-2 {
        fill: none;
      }

      .cls-3 {
        clip-path: url(#clippath);
      }
    </style>
    <clipPath id="clippath">
      <rect class="cls-2" width="50" height="31"/>
    </clipPath>
  </defs>
  <g id="Layer_1-2" data-name="Layer_1">
    <g class="cls-3">
      <path class="cls-1" d="M34.25,17.45h.36c.16,0,.29-.13.29-.29v-3.33c0-.16-.13-.29-.29-.29h-.36c-.73-.04-1.38-.5-1.66-1.18-.28-.68-.15-1.46.34-2.01l.25-.26h0c.11-.11.11-.3,0-.41l-2.35-2.35c-.05-.06-.13-.09-.21-.09s-.15.03-.21.09l-.18.18c-.54.54-1.36.71-2.07.41l-.12-.05c-.66-.27-1.1-.91-1.09-1.62v-.36c0-.16-.13-.29-.29-.29h-3.33c-.16,0-.29.13-.29.29v.36c0,.71-.42,1.35-1.08,1.62l-.21.09c-.66.27-1.41.11-1.91-.39l-.26-.25h0c-.05-.06-.13-.09-.21-.09s-.15.03-.21.09l-2.35,2.35c-.11.11-.11.3,0,.42l.25.26c.5.55.64,1.34.35,2.03-.28.69-.94,1.15-1.68,1.19h-.36c-.16,0-.29.13-.29.29v3.33c0,.16.13.29.29.29h.36c.73.04,1.38.5,1.66,1.18.28.68.15,1.46-.34,2.01l-.25.26h0c-.11.11-.11.3,0,.42l2.35,2.35c.05.06.13.09.21.09s.15-.03.21-.09l.26-.25c.55-.49,1.34-.62,2.02-.34.68.28,1.14.93,1.19,1.67v.36c0,.16.13.29.29.29h3.33c.16,0,.29-.13.29-.29v-.36c.04-.73.5-1.38,1.18-1.66.68-.28,1.46-.15,2.01.34l.26.25h0c.05.06.13.09.21.09s.15-.03.21-.09l2.35-2.35c.11-.11.11-.3,0-.42l-.25-.26c-.49-.55-.62-1.34-.34-2.02.28-.68.93-1.14,1.67-1.19h0ZM32.51,21.07l.05.05-1.96,1.96-.05-.05h0c-.72-.65-1.75-.83-2.65-.46-.9.37-1.5,1.23-1.55,2.2v.07h-2.74v-.07h0c-.05-.97-.65-1.83-1.55-2.2-.9-.37-1.93-.19-2.65.46l-.05.05-1.96-1.96.05-.05h0c.65-.72.83-1.75.46-2.65-.37-.9-1.23-1.5-2.2-1.55h-.07v-2.74h.07c.97-.04,1.83-.65,2.2-1.55.37-.9.19-1.93-.46-2.65l-.05-.05,1.96-1.96.05.05h0c.67.67,1.68.87,2.55.5l.21-.09h0c.87-.36,1.44-1.21,1.44-2.16v-.07h2.74v.07h0c0,.94.57,1.79,1.44,2.16l.12.05c.92.38,1.98.18,2.69-.51l1.96,1.96-.05.05h0c-.65.72-.83,1.75-.46,2.65.37.9,1.23,1.5,2.2,1.55h.07v2.74h-.07c-.97.05-1.83.65-2.2,1.55-.37.9-.19,1.93.46,2.65h0ZM39.99,13.45c-.4-.33-.96-.38-1.42-.14-.46.24-.73.73-.69,1.25.3,3.74-1.07,7.43-3.75,10.07-2.42,2.42-5.71,3.77-9.13,3.77s-6.71-1.36-9.13-3.77c-.16-.16-.32-.33-.49-.53l.71-.54h0c.27-.2.39-.54.32-.87-.07-.33-.32-.59-.65-.66l-3.35-.81c-.25-.06-.51,0-.72.15-.21.16-.34.4-.34.67l-.09,3.44c0,.33.18.63.48.78.3.16.66.12.92-.09l.65-.5c.26.3.49.55.72.78,3,3,7.11,4.65,11.36,4.54s8.27-1.95,11.12-5.1c2.85-3.15,4.29-7.33,3.97-11.57-.04-.35-.22-.67-.5-.88h0ZM35.55,26.06c-2.8,2.8-6.6,4.37-10.56,4.37s-7.76-1.57-10.56-4.37c-.27-.27-.54-.57-.86-.96-.06-.07-.14-.11-.23-.11-.06,0-.13.02-.18.06l-.88.67c-.09.06-.2.07-.3.03-.1-.05-.16-.15-.16-.26l.09-3.44c0-.09.04-.16.11-.22.07-.05.16-.07.24-.05l3.34.8c.11.03.19.11.21.22.02.11-.02.22-.1.28l-.96.73c-.06.05-.11.12-.11.2,0,.08.02.16.07.22.27.31.5.56.72.78h0c2.61,2.62,6.18,4.05,9.87,3.97,3.7-.09,7.19-1.68,9.68-4.42,2.49-2.74,3.74-6.37,3.47-10.06-.04-.38.23-.72.61-.78.2-.03.4.03.56.15.15.12.25.3.26.49.34,4.34-1.24,8.61-4.33,11.68h0ZM12.11,16.43c-.3-3.74,1.07-7.43,3.75-10.07,2.42-2.42,5.71-3.77,9.13-3.77s6.71,1.36,9.13,3.77c.16.16.32.33.49.53l-.71.54c-.27.2-.39.54-.32.87.07.33.32.59.65.66l3.35.81c.26.06.52,0,.73-.16.21-.16.33-.4.34-.67l.09-3.44h0c0-.33-.18-.64-.48-.79-.3-.15-.66-.12-.92.08l-.65.52c-.26-.3-.49-.55-.72-.78h0C32.96,1.54,28.85-.1,24.61,0c-4.25.1-8.27,1.95-11.12,5.1-2.85,3.15-4.29,7.33-3.97,11.57.02.36.2.69.48.91.23.19.52.29.82.29.06,0,.12,0,.18,0,.7-.1,1.19-.73,1.11-1.44h0ZM10.91,17.24c-.2.03-.4-.03-.56-.15-.15-.12-.25-.3-.26-.49-.31-4.08,1.08-8.11,3.82-11.14,2.75-3.03,6.62-4.8,10.71-4.9s8.04,1.49,10.93,4.38c.27.27.54.57.86.96.1.11.27.13.39.04l.88-.67c.09-.06.2-.07.3-.03.1.05.16.15.16.26l-.09,3.44c0,.09-.04.16-.11.22-.07.05-.16.07-.24.05l-3.33-.8c-.11-.03-.19-.11-.21-.22-.02-.11.02-.22.1-.28l.96-.73c.06-.05.11-.12.11-.2,0-.08-.02-.16-.07-.22-.27-.31-.5-.56-.72-.78h0c-2.61-2.62-6.18-4.05-9.87-3.97-3.7.09-7.19,1.68-9.68,4.42-2.49,2.74-3.74,6.37-3.47,10.06.03.38-.24.71-.62.76h0ZM24.99,9.47c-1.6,0-3.13.64-4.26,1.76s-1.76,2.66-1.76,4.26.64,3.13,1.76,4.26,2.66,1.76,4.26,1.76,3.13-.64,4.26-1.76,1.76-2.66,1.76-4.26c0-1.6-.64-3.13-1.77-4.26-1.13-1.13-2.66-1.76-4.26-1.77h0ZM24.99,20.93h0c-1.44,0-2.83-.57-3.84-1.59-1.02-1.02-1.59-2.4-1.59-3.84s.57-2.83,1.59-3.84c1.02-1.02,2.4-1.59,3.84-1.59s2.83.57,3.84,1.59c1.02,1.02,1.59,2.4,1.59,3.84,0,1.44-.58,2.82-1.6,3.84-1.02,1.02-2.4,1.59-3.84,1.6h0ZM27.17,14.28v-.03c0-.27-.1-.52-.29-.71-.19-.19-.44-.29-.71-.29h-2.41c-.5.03-.88.44-.88.94s.39.91.88.94h2.47c.81.04,1.45.71,1.45,1.53s-.64,1.49-1.45,1.53h-.94v1.14c0,.16-.13.29-.29.29s-.29-.13-.29-.29v-1.14h-.88c-.87,0-1.57-.7-1.58-1.57,0-.16.13-.29.29-.29s.29.13.29.29c.01.54.45.98,1,.98h2.41c.5-.03.88-.44.88-.94s-.39-.91-.88-.94h-2.48c-.81-.04-1.45-.71-1.45-1.53s.64-1.49,1.45-1.53h.94v-.99c0-.16.13-.29.29-.29s.29.13.29.29v.99h.88c.88,0,1.58.71,1.58,1.59,0,.17-.13.3-.29.31-.07,0-.15-.03-.2-.08-.05-.05-.09-.12-.09-.2h0Z"/>
    </g>
  </g>
</svg>