<?xml version="1.0" encoding="UTF-8"?>
<svg id="Layer_2" xmlns="http://www.w3.org/2000/svg" xmlns:xlink="http://www.w3.org/1999/xlink" viewBox="0 0 50 31">
  <defs>
    <style>
      .cls-1 {
        fill: #fff;
        fill-rule: evenodd;
      }

      .cls-2 {
        fill: none;
      }

      .cls-3 {
        clip-path: url(#clippath);
      }
    </style>
    <clipPath id="clippath">
      <rect class="cls-2" width="50" height="31"/>
    </clipPath>
  </defs>
  <g id="Layer_1-2" data-name="Layer_1">
    <g class="cls-3">
      <path class="cls-1" d="M22.02,25.8c-.21-.06-.34-.28-.28-.49.06-.21.28-.34.49-.28,2.33.65,4.52,1.1,6.17,1.19.84.05,1.53,0,2.02-.17.38-.13.61-.32.65-.59h0s0-.02,0-.03c0-.06,0-.14,0-.22-.38-.94-2.97-1.68-5.29-2.34-1.45-.41-2.82-.8-3.59-1.24,0,0-.02-.01-.03-.02-.36-.25-.69-.47-.98-.67-2.49-1.74-2.98-2.08-8,0l.02,7.18c.85.1,1.63.21,2.37.37.86.19,1.67.44,2.46.84.6.3,1.15.49,1.72.61.58.13,1.17.18,1.86.23.73.05,1.48.05,2.2.04.82-.02,1.61-.07,2.28-.14,2.48-.35,4.68-.74,6.81-1.48,2.12-.73,4.16-1.79,6.32-3.49.76-.6,1.19-1.08,1.32-1.41.02-.06.03-.1.03-.1,0-.01-.06-.03-.15-.04-.43-.07-1.21.09-2.35.52-1.35.52-2.59.82-4.18,1.21-.63.16-1.32.32-2.09.53-.15.48-.54.81-1.14,1.01-.58.19-1.37.25-2.31.2-1.72-.09-3.97-.55-6.35-1.22h0ZM30.1,20.76c.19.11.26.35.14.54-.11.19-.35.26-.54.14l-2.18-1.26c-.19-.11-.26-.35-.14-.54.04-.07.1-.12.17-.16l1.07-.62h0s1.09-.63,1.09-.63c.19-.11.43-.05.54.14.11.19.05.43-.14.54l-.88.51c2.24-.1,4.26-1.05,5.75-2.54,1.57-1.57,2.55-3.75,2.55-6.15,0-.6-.06-1.18-.17-1.73-.12-.57-.29-1.13-.51-1.66-.22-.51-.49-1.01-.8-1.47-.31-.47-.67-.9-1.07-1.3-.41-.41-.85-.78-1.33-1.1-.45-.3-.93-.56-1.43-.76-.2-.08-.3-.31-.22-.52.08-.2.31-.3.52-.22.56.22,1.09.51,1.58.84.52.35,1.01.76,1.45,1.2.43.43.82.9,1.16,1.41.34.5.63,1.04.87,1.61.24.58.43,1.18.56,1.81.12.62.19,1.25.19,1.89,0,2.62-1.06,5-2.78,6.72-1.63,1.63-3.86,2.67-6.33,2.77l.9.52ZM27.52.74c-.19-.11-.26-.35-.14-.54.11-.19.35-.26.54-.14l2.18,1.26c.19.11.26.35.14.54-.04.06-.09.11-.15.15l-1.09.63s-.02,0-.02.01l-1.07.62c-.19.11-.43.04-.54-.15s-.04-.43.15-.54l.88-.51c-2.24.1-4.26,1.05-5.75,2.54-1.57,1.57-2.55,3.75-2.55,6.15,0,.6.06,1.18.17,1.73.12.57.29,1.13.51,1.66.22.51.49,1.01.8,1.47.31.47.67.9,1.07,1.3.4.4.83.75,1.3,1.07.46.31.96.58,1.47.8.2.08.3.32.21.52-.08.2-.32.3-.52.21-.57-.24-1.11-.53-1.61-.87-.51-.34-.98-.73-1.41-1.16-.43-.43-.82-.9-1.16-1.41-.34-.5-.63-1.04-.87-1.61-.24-.58-.43-1.18-.56-1.81-.12-.62-.19-1.25-.19-1.89,0-2.62,1.06-5,2.78-6.72,1.63-1.63,3.86-2.67,6.32-2.77l-.9-.52ZM28.81,11.15c.22,0,.4-.18.4-.4v-3.42c0-.22-.18-.4-.4-.4s-.4.18-.4.4v3.02h-1.89c-.22,0-.4.18-.4.4s.18.4.4.4h2.29ZM23.68,10.35c.22,0,.4.18.4.4s-.18.4-.4.4h-1.01c.1,1.54.76,2.92,1.79,3.95s2.41,1.69,3.95,1.79v-1.01c0-.22.18-.4.4-.4s.4.18.4.4v1.01c1.54-.1,2.92-.76,3.95-1.79s1.69-2.41,1.79-3.95h-1.01c-.22,0-.4-.18-.4-.4s.18-.4.4-.4h1.01c-.1-1.54-.76-2.92-1.79-3.95s-2.41-1.69-3.95-1.79v1.01c0,.22-.18.4-.4.4s-.4-.18-.4-.4v-1.01c-1.54.1-2.92.76-3.95,1.79s-1.69,2.41-1.79,3.95h1.01ZM28.81,3.81c-1.92,0-3.65.78-4.91,2.03-1.26,1.26-2.03,2.99-2.03,4.91s.78,3.65,2.03,4.91c1.26,1.26,2.99,2.03,4.91,2.03s3.65-.78,4.91-2.03c1.26-1.26,2.03-2.99,2.03-4.91s-.78-3.65-2.03-4.91c-1.26-1.26-2.99-2.03-4.91-2.03ZM11.94,20.95c.12.29.11.59,0,.86-.11.27-.33.49-.61.61-.29.12-.59.11-.86,0-.27-.11-.49-.32-.61-.61-.12-.29-.11-.59,0-.86.11-.27.32-.49.61-.61.29-.12.59-.11.86,0,.27.11.49.33.61.61ZM11.2,21.5c.03-.08.04-.17,0-.25-.03-.08-.1-.15-.17-.18s-.17-.04-.25,0c-.08.03-.15.1-.18.17-.03.08-.04.17,0,.25.03.08.1.15.17.18s.17.04.25,0c.09-.03.15-.1.18-.17h0ZM12.39,20.7s0-.04,0-.05v-.42c0-.17-.08-.33-.19-.45-.12-.12-.28-.19-.45-.19h-1.68c-.17,0-.33.08-.45.2s-.19.28-.19.45l.03,8.74c0,.17.07.33.19.45.12.12.28.19.45.19h1.68c.17,0,.33-.08.45-.2s.19-.28.19-.45v-.47s0-.04,0-.05l-.03-7.74ZM13.17,20.08c5.15-2.1,5.72-1.71,8.47.21.29.2.61.43.96.66.69.39,2,.76,3.39,1.15,2.52.72,5.32,1.51,5.83,2.84,0,.01,0,.02.01.03.69-.18,1.3-.33,1.88-.47,1.56-.38,2.78-.68,4.09-1.19,1.27-.49,2.2-.65,2.76-.56.33.05.56.19.7.41.14.22.16.49.04.8-.17.46-.69,1.07-1.57,1.76-2.25,1.76-4.36,2.86-6.55,3.62-2.18.75-4.43,1.15-6.96,1.51h-.02c-.68.07-1.5.12-2.36.14-.75.02-1.53,0-2.26-.04-.73-.05-1.36-.11-1.98-.24-.63-.14-1.24-.35-1.91-.68-.73-.36-1.48-.6-2.27-.77-.69-.15-1.42-.25-2.2-.34v.05c0,.4-.16.75-.42,1.02-.26.26-.62.42-1.02.42h-1.68c-.39,0-.75-.15-1.02-.41-.26-.26-.42-.62-.42-1.02l-.03-8.74c0-.4.16-.75.42-1.02.26-.26.62-.42,1.02-.42h1.68c.39,0,.75.15,1.02.41.23.23.38.53.42.87h0Z"/>
    </g>
  </g>
</svg>