<?xml version="1.0" encoding="UTF-8"?>
<svg id="Layer_2" xmlns="http://www.w3.org/2000/svg" xmlns:xlink="http://www.w3.org/1999/xlink" viewBox="0 0 50 31">
  <defs>
    <style>
      .cls-1 {
        fill: #fff;
      }

      .cls-2 {
        fill: none;
      }

      .cls-3 {
        clip-path: url(#clippath);
      }
    </style>
    <clipPath id="clippath">
      <rect class="cls-2" width="50" height="31"/>
    </clipPath>
  </defs>
  <g id="Layer_1-2" data-name="Layer_1">
    <g class="cls-3">
      <g>
        <path class="cls-1" d="M20.67.3h-7.91c-1.63,0-2.96,1.33-2.96,2.96v7.91c0,1.64,1.33,2.97,2.96,2.97h7.91c1.64,0,2.97-1.33,2.97-2.97V3.26c0-1.63-1.33-2.96-2.97-2.96ZM22.6,11.17c0,1.07-.86,1.93-1.93,1.93h-7.91c-1.07,0-1.93-.86-1.93-1.93V3.26c0-1.06.86-1.93,1.93-1.93h7.91c1.07,0,1.93.87,1.93,1.93v7.91ZM20.67,16.86h-7.91c-1.63,0-2.96,1.33-2.96,2.96v7.92c0,1.63,1.33,2.96,2.96,2.96h7.91c1.64,0,2.97-1.33,2.97-2.96v-7.92c0-1.63-1.33-2.96-2.97-2.96ZM22.6,27.73c0,1.07-.86,1.93-1.93,1.93h-7.91c-1.07,0-1.93-.86-1.93-1.93v-7.91c0-1.06.86-1.93,1.93-1.93h7.91c1.07,0,1.93.87,1.93,1.93v7.91ZM37.23,16.86h-7.91c-1.63,0-2.96,1.33-2.96,2.96v7.92c0,1.63,1.33,2.96,2.96,2.96h7.91c1.64,0,2.97-1.33,2.97-2.96v-7.92c0-1.63-1.33-2.96-2.97-2.96ZM39.17,27.74c0,1.06-.87,1.93-1.94,1.93h-7.91c-1.06,0-1.93-.87-1.93-1.93v-7.92c0-1.06.87-1.93,1.93-1.93h7.91c1.07,0,1.94.87,1.94,1.93v7.92ZM39.57,2.32l-1.39-1.38c-.41-.41-.94-.63-1.52-.63s-1.11.22-1.52.63l-7.07,7.04c-.08.08-.13.18-.14.29l-.58,4.29c-.02.16.03.33.15.44.1.1.23.15.38.15h.05l4.27-.59c.11-.02.22-.07.3-.15l7.07-7.05c.4-.41.63-.94.63-1.52s-.23-1.11-.63-1.52ZM38.84,4.63l-6.95,6.92-3.43.48.46-3.44,6.96-6.93c.21-.21.49-.32.78-.32s.57.11.79.32l1.39,1.39c.43.43.43,1.14,0,1.58Z"/>
        <path class="cls-1" d="M37.23,16.86h-7.91c-1.63,0-2.96,1.33-2.96,2.96v7.92c0,1.63,1.33,2.96,2.96,2.96h7.91c1.64,0,2.97-1.33,2.97-2.96v-7.92c0-1.63-1.33-2.96-2.97-2.96ZM39.17,27.74c0,1.06-.87,1.93-1.94,1.93h-7.91c-1.06,0-1.93-.87-1.93-1.93v-7.92c0-1.06.87-1.93,1.93-1.93h7.91c1.07,0,1.94.87,1.94,1.93v7.92ZM20.67,16.86h-7.91c-1.63,0-2.96,1.33-2.96,2.96v7.92c0,1.63,1.33,2.96,2.96,2.96h7.91c1.64,0,2.97-1.33,2.97-2.96v-7.92c0-1.63-1.33-2.96-2.97-2.96ZM22.6,27.73c0,1.07-.86,1.93-1.93,1.93h-7.91c-1.07,0-1.93-.86-1.93-1.93v-7.91c0-1.06.86-1.93,1.93-1.93h7.91c1.07,0,1.93.87,1.93,1.93v7.91ZM20.67.3h-7.91c-1.63,0-2.96,1.33-2.96,2.96v7.91c0,1.64,1.33,2.97,2.96,2.97h7.91c1.64,0,2.97-1.33,2.97-2.97V3.26c0-1.63-1.33-2.96-2.97-2.96ZM22.6,11.17c0,1.07-.86,1.93-1.93,1.93h-7.91c-1.07,0-1.93-.86-1.93-1.93V3.26c0-1.06.86-1.93,1.93-1.93h7.91c1.07,0,1.93.87,1.93,1.93v7.91ZM39.57,2.32l-1.39-1.38c-.41-.41-.94-.63-1.52-.63s-1.11.22-1.52.63l-7.07,7.04c-.08.08-.13.18-.14.29l-.58,4.29c-.02.16.03.33.15.44.1.1.23.15.38.15h.05l4.27-.59c.11-.02.22-.07.3-.15l7.07-7.05c.4-.41.63-.94.63-1.52s-.23-1.11-.63-1.52ZM38.84,4.63l-6.95,6.92-3.43.48.46-3.44,6.96-6.93c.21-.21.49-.32.78-.32s.57.11.79.32l1.39,1.39c.43.43.43,1.14,0,1.58Z"/>
      </g>
    </g>
  </g>
</svg>