<?xml version="1.0" encoding="UTF-8"?>
<svg id="Layer_2" xmlns="http://www.w3.org/2000/svg" viewBox="0 0 60 60">
  <defs>
    <style>
      .cls-1 {
        fill: #fff;
      }

      .cls-2 {
        fill: #092f5c;
      }
    </style>
  </defs>
  <g id="Layer_1-2" data-name="Layer_1">
    <circle class="cls-2" cx="30" cy="30" r="30"/>
    <path class="cls-1" d="M44.52,18.43l-6.82-5.82c-.08-.07-.18-.1-.28-.1h-19.14c-1.63,0-2.95,1.32-2.96,2.96v29.09c0,1.63,1.32,2.95,2.96,2.96h23.43c1.63,0,2.95-1.32,2.96-2.96v-25.79c0-.13-.06-.25-.15-.33ZM37.85,13.87l5.21,4.45h-5.21v-4.45ZM41.72,46.63h-23.43c-1.15,0-2.09-.94-2.09-2.09V15.46c0-1.15.94-2.09,2.09-2.09h18.7v5.39c0,.24.19.43.43.43h6.39v25.35c0,1.15-.94,2.09-2.09,2.09ZM27.64,20.58c0-.24.19-.43.43-.43h5.21c.24,0,.43.21.42.45,0,.23-.19.41-.42.42h-5.21c-.24,0-.43-.19-.43-.43ZM40.33,23.43c0,.24-.19.43-.43.43h-11.82c-.24,0-.44-.18-.45-.42s.18-.44.42-.45c0,0,.02,0,.03,0h11.82c.24,0,.43.19.43.43h0ZM25.41,20.73l-2.39-.37-1.06-2.13c-.07-.15-.22-.24-.39-.24h0c-.16,0-.31.09-.39.24l-1.09,2.16-2.36.35c-.24.04-.4.26-.37.49.01.09.06.18.12.24l1.71,1.7-.4,2.35c-.04.24.12.46.35.5.09.02.19,0,.27-.04l2.15-1.1,2.11,1.1c.21.11.47.03.59-.18.04-.08.06-.18.04-.27l-.39-2.38,1.7-1.67c.17-.17.17-.44,0-.61-.07-.07-.15-.11-.24-.13ZM23.17,22.67c-.1.1-.15.24-.12.38l.28,1.75-1.54-.81c-.12-.07-.27-.07-.4,0l-1.58.81.29-1.72c.02-.14-.02-.28-.12-.38l-1.26-1.25,1.72-.26c.14-.02.26-.11.32-.23l.8-1.58.78,1.56c.06.13.18.21.32.23l1.75.27-1.24,1.22ZM27.64,29.39c0-.24.19-.43.43-.43h5.21c.24,0,.43.19.43.43s-.19.43-.43.43h-5.21c-.24,0-.43-.19-.43-.43ZM40.33,32.24c0,.24-.19.43-.43.43h-11.82c-.24,0-.44-.18-.45-.42s.18-.44.42-.45c0,0,.02,0,.03,0h11.82c.24,0,.43.19.43.43h0ZM25.4,29.54l-2.39-.37-1.06-2.13c-.07-.15-.22-.24-.39-.24h0c-.16,0-.31.09-.39.24l-1.09,2.15-2.36.35c-.24.03-.4.26-.37.49.01.09.06.18.12.24l1.71,1.7-.39,2.35c-.04.24.12.46.36.5.09.02.19,0,.27-.04l2.15-1.1,2.11,1.1c.21.11.47.03.59-.18.04-.08.06-.18.04-.27l-.39-2.38,1.7-1.67c.17-.17.17-.44,0-.61-.07-.07-.15-.11-.24-.13h0ZM23.17,31.49c-.1.1-.15.24-.12.38l.28,1.75-1.54-.81c-.13-.06-.27-.06-.4,0l-1.58.81.29-1.72c.02-.14-.02-.28-.12-.38l-1.26-1.25,1.72-.26c.14-.02.26-.11.32-.23l.8-1.58.78,1.56c.06.13.18.21.32.23l1.75.27-1.24,1.22ZM27.64,38.21c0-.24.19-.43.43-.43h5.21c.24,0,.43.2.43.43,0,.24-.19.43-.43.43h-5.21c-.24,0-.43-.19-.43-.43,0,0,0,0,0,0h0ZM40.33,41.06c0,.24-.19.43-.43.43h-11.82c-.24,0-.44-.18-.45-.42,0-.24.18-.44.42-.45,0,0,.02,0,.03,0h11.82c.24,0,.43.19.43.43h0ZM25.4,38.36l-2.39-.37-1.06-2.14c-.07-.15-.22-.24-.39-.24h0c-.16,0-.31.09-.39.24l-1.09,2.16-2.36.35c-.24.03-.4.26-.37.49.01.09.06.18.12.24l1.71,1.7-.4,2.35c-.04.24.12.46.35.5.09.02.19,0,.27-.04l2.15-1.1,2.11,1.1c.21.11.47.03.59-.18.04-.08.06-.18.04-.27l-.39-2.38,1.7-1.67c.17-.17.17-.44,0-.61-.07-.07-.15-.11-.24-.13h0ZM23.17,40.3c-.1.1-.15.24-.12.38l.28,1.75-1.54-.81c-.13-.06-.27-.06-.4,0l-1.58.81.29-1.72c.02-.14-.02-.28-.12-.38l-1.26-1.25,1.72-.26c.14-.02.26-.11.32-.23l.8-1.58.78,1.56c.06.13.18.21.32.23l1.75.27-1.24,1.22Z"/>
  </g>
</svg>