<?xml version="1.0" encoding="UTF-8"?>
<svg id="Layer_2" xmlns="http://www.w3.org/2000/svg" viewBox="0 0 60 60">
  <defs>
    <style>
      .cls-1 {
        fill: #092f5c;
      }

      .cls-2 {
        fill: #fff;
        fill-rule: evenodd;
      }
    </style>
  </defs>
  <g id="Layer_1-2" data-name="Layer_1">
    <circle class="cls-1" cx="30" cy="30" r="30"/>
    <path class="cls-2" d="M21.59,15.71h-2.38c-.19,0-.35.16-.35.35v1c-.71.17-1.39.44-2.01.83l-.7-.7c-.14-.14-.36-.14-.5,0l-1.68,1.68c-.14.14-.14.36,0,.5l.7.7c-.38.62-.66,1.3-.83,2.01h-.99c-.19,0-.35.16-.35.35v2.38c0,.19.16.35.35.35h.99c.17.71.45,1.39.83,2.01l-.7.7c-.14.14-.14.36,0,.5l1.68,1.68c.14.14.36.14.5,0l.7-.7c.62.38,1.3.66,2.01.83v1c0,.19.16.35.35.35h2.38c.19,0,.35-.16.35-.35v-1c.71-.17,1.39-.44,2.01-.83l.7.7c.14.14.36.14.49,0l1.68-1.68c.14-.14.14-.36,0-.5l-.7-.7c.38-.62.66-1.3.83-2.01h.99c.19,0,.35-.16.35-.35v-2.38c0-.19-.16-.35-.35-.35h-.99c-.17-.71-.45-1.39-.83-2.01l.7-.7c.14-.14.14-.36,0-.5l-1.68-1.68c-.14-.14-.36-.14-.49,0l-.7.7c-.62-.38-1.3-.66-2.01-.83v-.99c0-.19-.16-.35-.35-.35ZM19.56,16.41h1.68v.92c0,.17.12.31.28.34.81.15,1.59.48,2.27.94.14.09.33.08.44-.04l.65-.65,1.19,1.19-.65.65c-.12.12-.14.31-.04.44.47.69.79,1.46.94,2.27.03.17.18.28.34.28h.92v1.68h-.93c-.17,0-.31.12-.34.29-.15.81-.47,1.59-.94,2.27-.09.14-.08.33.04.44l.65.65-1.19,1.19-.65-.65c-.12-.12-.3-.14-.44-.04-.69.47-1.46.78-2.27.94-.17.03-.29.18-.29.34v.93h-1.68v-.93c0-.17-.12-.31-.29-.34-.81-.15-1.59-.47-2.27-.94-.14-.09-.33-.08-.44.04l-.65.65-1.19-1.19.65-.65c.12-.12.14-.31.04-.44-.47-.69-.78-1.46-.94-2.27-.03-.17-.18-.29-.34-.29h-.93v-1.68h.93c.17,0,.31-.12.34-.29.15-.81.47-1.59.94-2.27.09-.14.08-.33-.04-.44l-.65-.65,1.19-1.19.65.65c.12.12.3.14.44.04.69-.47,1.46-.78,2.27-.94.17-.03.29-.18.29-.34v-.93ZM20.4,19.96c-2.01,0-3.65,1.64-3.65,3.65s1.64,3.65,3.65,3.65,3.65-1.64,3.65-3.65-1.64-3.65-3.65-3.65ZM20.4,20.66c1.63,0,2.95,1.32,2.95,2.95s-1.32,2.95-2.95,2.95-2.95-1.32-2.95-2.95,1.32-2.95,2.95-2.95ZM35.23,23c-.19,0-.35.16-.35.35v1.46c-1.02.23-2,.63-2.89,1.19l-1.03-1.03c-.14-.14-.36-.14-.49,0l-2.3,2.29c-.14.14-.14.36,0,.5h0s1.03,1.03,1.03,1.03c-.56.89-.96,1.86-1.19,2.89h-1.46c-.19,0-.35.16-.35.35v3.25c0,.19.16.35.35.35h1.46c.23,1.02.63,2,1.19,2.89l-1.03,1.03c-.14.14-.14.36,0,.5l2.3,2.29c.14.14.36.14.49,0l1.03-1.03c.89.56,1.86.96,2.89,1.19v1.46c0,.19.16.35.35.35h3.25c.19,0,.35-.16.35-.35v-1.46c1.02-.23,2-.63,2.89-1.19l1.03,1.03c.14.14.36.14.5,0l2.3-2.29c.14-.14.14-.36,0-.5l-1.03-1.03c.56-.89.96-1.86,1.19-2.89h1.46c.19,0,.35-.16.35-.35v-3.25c0-.19-.16-.35-.35-.35h-1.45c-.23-1.02-.63-2-1.19-2.89l1.03-1.03c.14-.14.14-.36,0-.5,0,0,0,0,0,0l-2.3-2.29c-.14-.14-.36-.14-.5,0l-1.03,1.03c-.89-.56-1.86-.97-2.89-1.2v-1.45c0-.19-.16-.35-.35-.35h-3.25ZM35.58,23.7h2.55v1.39c0,.17.12.31.28.34,1.13.21,2.2.66,3.15,1.3.14.09.33.08.44-.04l.98-.98,1.8,1.8-.98.98c-.12.12-.14.31-.04.44.65.95,1.09,2.02,1.3,3.15.03.17.18.28.34.28h1.39v2.55h-1.39c-.17,0-.31.12-.34.29-.21,1.13-.65,2.2-1.3,3.15-.09.14-.08.33.04.44l.98.98-1.8,1.8-.98-.98c-.12-.12-.3-.14-.44-.04-.95.64-2.02,1.09-3.15,1.3-.17.03-.29.18-.29.34v1.39h-2.55v-1.39c0-.17-.12-.31-.29-.34-1.13-.21-2.2-.65-3.15-1.3-.14-.09-.33-.08-.44.04l-.98.98-1.8-1.8.98-.98c.12-.12.14-.31.04-.44-.64-.95-1.09-2.02-1.3-3.15-.03-.17-.18-.29-.34-.29h-1.39v-2.55h1.39c.17,0,.31-.12.34-.29.21-1.13.65-2.2,1.3-3.15.09-.14.08-.33-.04-.44l-.98-.98,1.8-1.8.98.98c.12.12.3.14.44.04.95-.64,2.02-1.09,3.15-1.3.17-.03.29-.18.29-.34v-1.39ZM36.85,27.36c-1.67,0-3.27.66-4.44,1.84s-1.84,2.78-1.84,4.44.66,3.27,1.84,4.44c1.18,1.18,2.78,1.84,4.44,1.84s3.27-.66,4.44-1.84c1.18-1.18,1.84-2.78,1.84-4.44s-.66-3.27-1.84-4.44-2.78-1.84-4.44-1.84ZM36.85,28.06c1.48,0,2.9.59,3.95,1.64,1.05,1.05,1.64,2.47,1.64,3.95s-.59,2.9-1.64,3.95-2.47,1.64-3.95,1.64-2.9-.59-3.95-1.64c-1.05-1.05-1.64-2.47-1.64-3.95s.59-2.9,1.64-3.95c1.05-1.05,2.47-1.64,3.95-1.64ZM37.41,31.1s-.03,0-.04,0c-.14.02-.25.12-.29.26l-1.12,4.39c-.05.19.07.38.25.43.19.05.38-.07.43-.25,0,0,0,0,0,0l1.12-4.39c.05-.19-.07-.38-.25-.43,0,0,0,0,0,0-.03,0-.06-.01-.09-.01h0ZM35.04,31.56c-.07,0-.14.03-.2.08l-2.05,1.74c-.15.12-.17.35-.04.49.01.01.03.03.04.04l2.05,1.74c.15.12.37.11.49-.04,0,0,0,0,0,0,.12-.15.11-.37-.04-.49,0,0,0,0,0,0l-1.74-1.47,1.74-1.47c.15-.12.17-.35.04-.49h0c-.06-.07-.15-.12-.24-.12-.02,0-.04,0-.06,0h0ZM38.67,31.56s-.04,0-.05,0c-.09,0-.18.05-.24.12-.12.15-.11.37.04.49h0s1.74,1.47,1.74,1.47l-1.74,1.47c-.15.12-.17.35-.04.49,0,0,0,0,0,0,.12.15.35.17.49.04,0,0,0,0,0,0l2.05-1.74c.15-.12.17-.35.04-.49-.01-.01-.03-.03-.04-.04l-2.05-1.74c-.06-.05-.13-.08-.2-.08h0Z"/>
  </g>
</svg>