<?xml version="1.0" encoding="UTF-8"?>
<svg id="Layer_2" xmlns="http://www.w3.org/2000/svg" viewBox="0 0 60 60">
  <defs>
    <style>
      .cls-1 {
        fill: #fff;
      }

      .cls-2 {
        fill: #092f5c;
      }
    </style>
  </defs>
  <g id="Layer_1-2" data-name="Layer_1">
    <circle class="cls-2" cx="30" cy="30" r="30"/>
    <path class="cls-1" d="M43.92,16.75c-1.97,0-3.57,1.58-3.58,3.55,0,1.05.45,2.05,1.26,2.73l-5.09,8.75c-1.19-.45-2.53-.21-3.49.63l-4.68-3.84c.3-.52.46-1.12.46-1.72,0-1.98-1.59-3.59-3.57-3.59-1.98,0-3.59,1.59-3.59,3.57,0,.92.35,1.81.99,2.48l-5.08,6.98c-1.84-.79-3.97.07-4.76,1.91-.79,1.84.07,3.97,1.91,4.76s3.97-.07,4.76-1.91c.59-1.39.26-2.99-.82-4.04l5.05-6.94c1.26.62,2.77.43,3.83-.49l4.68,3.84c-.3.52-.46,1.12-.46,1.72-.01,1.98,1.58,3.59,3.56,3.6,1.98.01,3.59-1.58,3.6-3.56,0-1.06-.45-2.06-1.26-2.75l5.09-8.75c.38.14.79.22,1.2.22,1.98,0,3.58-1.6,3.58-3.58s-1.6-3.58-3.58-3.58h0,0ZM16.17,41.87c-1.26,0-2.27-1.02-2.27-2.27,0-1.26,1.02-2.27,2.27-2.27s2.27,1.02,2.27,2.27h0c0,1.26-1.02,2.27-2.27,2.27ZM22.95,26.85c0-1.26,1.02-2.27,2.28-2.27s2.27,1.02,2.27,2.28c0,1.26-1.02,2.27-2.27,2.27-1.26,0-2.27-1.02-2.27-2.28h0ZM35.31,37.42c-1.26,0-2.27-1.02-2.27-2.27s1.02-2.27,2.27-2.27,2.27,1.02,2.27,2.27c0,1.26-1.02,2.27-2.27,2.28h0ZM43.92,22.61c-1.26,0-2.27-1.02-2.27-2.27s1.02-2.27,2.27-2.27c1.26,0,2.27,1.02,2.27,2.27,0,1.26-1.02,2.27-2.27,2.28Z"/>
  </g>
</svg>