<?xml version="1.0" encoding="UTF-8"?>
<svg id="Layer_2" xmlns="http://www.w3.org/2000/svg" viewBox="0 0 60 60">
  <defs>
    <style>
      .cls-1 {
        fill: #fff;
      }

      .cls-2 {
        fill: #092f5c;
      }
    </style>
  </defs>
  <g id="Layer_1-2" data-name="Layer_1">
    <circle class="cls-2" cx="30" cy="30" r="30"/>
    <path class="cls-1" d="M17.83,34.56c0-.08,0-.17-.01-.25-.03-.21-.09-.42-.19-.61-.12-.24-.23-.48-.33-.72-.1-.24-.2-.49-.28-.75-.18-.57-.63-1.02-1.21-1.19l-.26-.08h0c-.68-.22-1.14-.85-1.14-1.57v-2.11c0-.72.46-1.35,1.14-1.57l.26-.09c.57-.18,1.02-.62,1.21-1.19.09-.25.18-.5.28-.75.1-.24.21-.48.33-.72h0c.28-.53.27-1.17-.01-1.7l-.12-.25c-.33-.64-.21-1.41.3-1.91l1.49-1.49c.5-.51,1.28-.63,1.91-.3l.25.12h0c.53.29,1.17.29,1.7.01.24-.12.48-.23.72-.33.24-.1.49-.2.75-.28h0c.57-.18,1.02-.63,1.19-1.21l.09-.26c.22-.68.85-1.14,1.57-1.14h2.11c.72,0,1.35.46,1.57,1.14l.09.26c.17.58.62,1.03,1.19,1.21.25.09.5.18.74.28.24.1.49.21.73.33h0c.53.28,1.17.27,1.7-.01l.25-.12c.64-.33,1.41-.21,1.91.3l1.49,1.49c.51.5.63,1.28.3,1.91l-.13.25c-.14.26-.21.55-.22.85,0,.3.07.59.21.85.12.24.23.48.33.72s.19.49.28.75c.18.57.63,1.02,1.21,1.19l.26.09c.07.02.13.05.19.08.02.01.05.02.07.03h.32c.62,0,1.2.33,1.52.87.33.53.34,1.2.04,1.75l-.7,1.29h.07c.55,0,1,.45,1,1.01v1.08h0c0,.13-.03.26-.08.38,2.17,1.53,3.5,3.99,3.58,6.64.09,2.65-1.08,5.19-3.14,6.86-.07.06-.17.09-.26.09h0s-10.12,0-10.12,0c-.1,0-.21-.04-.28-.11-1.28-1.04-2.23-2.44-2.73-4.01-.11.18-.26.33-.43.46-.28.21-.62.31-.97.31h-2.11c-.71,0-1.35-.46-1.57-1.14l-.09-.26c-.17-.57-.62-1.03-1.19-1.21-.25-.09-.5-.18-.75-.28-.24-.1-.48-.21-.72-.33h0c-.17-.08-.34-.14-.53-.18-.04,0-.08-.01-.12-.02.17,1.51-.36,3.02-1.44,4.09-1.47,1.47-3.7,1.88-5.6,1.03-.21-.09-.3-.34-.21-.54.02-.05.05-.09.09-.12l2.14-2.14s.02-.03.02-.05c0-.02,0-.04-.02-.05l-1.62-1.62s-.03-.02-.05-.02c-.02,0-.04,0-.05.02l-2.14,2.13c-.08.08-.18.12-.29.12s-.22-.04-.29-.12c-.04-.04-.08-.1-.1-.15-.4-.92-.52-1.94-.34-2.93.46-2.5,2.72-4.26,5.25-4.1h0ZM41.97,29.72l.92-1.68h0c.16-.29.16-.65-.01-.94-.17-.29-.48-.46-.82-.45h-6.06c-.33,0-.65.17-.81.46-.18.28-.19.64-.02.93l.92,1.68h5.88ZM35.15,29.72l-.7-1.29c-.28-.5-.29-1.11-.04-1.63.25-.52.74-.88,1.31-.96-.88-2.55-3.04-4.44-5.68-4.98s-5.37.35-7.18,2.35c-1.81,2-2.43,4.8-1.63,7.38.18.57.42,1.12.73,1.64l1.05-1.05c.55-.52.8-1.28.68-2.03-.11-.77-.04-1.56.21-2.3.58-1.73,2.05-3.01,3.85-3.34,1-.18,2.03-.06,2.96.35.1.04.18.13.22.23.04.1.04.22,0,.32-.02.05-.05.09-.08.12l-2.13,2.13s-.02.03-.02.05c0,.02,0,.04.02.05l1.62,1.62s.03.02.05.02c.02,0,.04,0,.05-.02l2.13-2.13h0c.08-.08.18-.12.29-.12s.21.04.29.12c.05.04.08.1.1.15.73,1.67.51,3.6-.6,5.05-1.1,1.45-2.9,2.19-4.71,1.93-.75-.12-1.51.13-2.03.68l-.99.99h0c1.58.84,3.41,1.1,5.16.73.46-.1.92-.24,1.36-.42.06-.12.12-.23.18-.35h0c.62-1.12,1.49-2.09,2.54-2.83-.05-.12-.08-.25-.08-.38v-1.08h0c0-.55.45-1,1.01-1h.07ZM34.77,32.76c-1.01.68-1.84,1.59-2.43,2.66-1.18,2.16-1.26,4.75-.21,6.97.47.99,1.15,1.86,1.99,2.56h9.82c1.73-1.45,2.73-3.59,2.73-5.85,0-1.29-.32-2.56-.95-3.69-.59-1.07-1.42-1.98-2.43-2.66-.1.03-.21.05-.31.05h-7.89c-.11,0-.21-.02-.31-.05h0ZM42.98,30.55h-7.89s-.09.02-.12.05c-.03.03-.05.08-.05.12v1.08h0c0,.1.08.18.18.18h7.89c.1,0,.18-.08.18-.18v-1.08h0c0-.1-.08-.18-.18-.18ZM39.45,41.96c0,.23-.18.41-.41.41s-.41-.19-.41-.41v-.37h0c-.24-.07-.45-.2-.63-.37-.28-.28-.43-.65-.43-1.04,0-.11.04-.22.12-.3s.19-.12.3-.12.22.04.3.12c.08.08.12.19.12.3,0,.26.16.5.4.6.24.1.52.04.71-.14.19-.19.24-.46.14-.7-.1-.24-.33-.4-.6-.4-.73,0-1.36-.54-1.46-1.27-.1-.73.34-1.42,1.05-1.62v-.37c0-.23.19-.41.41-.41s.41.18.41.41v.37c.63.18,1.06.76,1.06,1.42,0,.11-.04.22-.12.3-.08.08-.19.12-.3.12s-.22-.04-.3-.12-.12-.19-.12-.3c0-.26-.16-.5-.4-.6-.24-.1-.52-.04-.71.14-.19.19-.24.46-.14.71.1.24.34.4.6.4.73,0,1.36.54,1.46,1.27.1.73-.34,1.42-1.05,1.62v.37ZM39.03,34.16c2.36,0,4.39,1.67,4.85,3.98.46,2.31-.78,4.63-2.96,5.54-2.18.9-4.7.14-6.01-1.82-1.31-1.96-1.05-4.58.62-6.25.93-.93,2.19-1.45,3.5-1.45h0ZM41.95,36.19c-1.39-1.39-3.57-1.61-5.21-.52-1.64,1.09-2.27,3.19-1.52,5.01.75,1.82,2.68,2.85,4.61,2.47,1.93-.38,3.32-2.08,3.32-4.04,0-1.09-.43-2.14-1.21-2.92h0ZM31.01,36.4c-.25.08-.5.14-.76.2h0c-1.35.28-2.75.23-4.07-.15-.65-.19-1.28-.45-1.86-.79l-1.16,1.16c-.27.26-.47.58-.59.93-.05.14-.08.29-.1.43.1,0,.2.02.3.04.26.05.51.13.75.25.22.11.44.21.68.31.23.1.46.18.69.26h0c.82.27,1.46.91,1.71,1.74l.09.26c.05.17.15.31.3.41.14.1.31.15.48.15h2.11c.17,0,.34-.05.49-.15.14-.1.25-.25.3-.41l.09-.26h0c.04-.11.08-.22.13-.33.03-.06.06-.11.09-.17-.18-1.3-.05-2.63.36-3.87h0ZM39.95,25.82s-.04-.04-.06-.06h0c-.3-.3-.53-.66-.66-1.07-.08-.23-.17-.47-.26-.7s-.2-.46-.31-.68h0c-.39-.77-.39-1.68.01-2.44l.13-.25h0c.08-.15.11-.33.08-.5-.03-.17-.11-.33-.24-.45l-1.49-1.49c-.12-.12-.28-.21-.45-.24s-.35,0-.5.08l-.25.13c-.76.4-1.67.4-2.44.01-.22-.11-.44-.21-.68-.31-.23-.1-.46-.18-.69-.26-.82-.27-1.46-.91-1.71-1.73l-.08-.26c-.05-.17-.16-.31-.3-.41-.14-.1-.31-.15-.49-.15h-2.11c-.17,0-.34.05-.48.15-.14.1-.25.25-.3.41l-.09.26c-.26.82-.89,1.47-1.71,1.73-.23.08-.46.17-.69.26-.23.1-.46.2-.68.31-.77.39-1.68.39-2.44-.02l-.25-.12c-.32-.17-.7-.11-.95.15l-1.49,1.49c-.12.12-.21.28-.24.45-.02.17,0,.35.09.5l.12.25c.4.76.4,1.67.01,2.44-.11.22-.21.44-.31.68s-.18.46-.26.7c-.27.82-.91,1.46-1.74,1.71l-.26.08h0c-.34.11-.57.43-.57.78v2.11h0c0,.36.23.68.57.78l.26.08h0c.82.26,1.47.9,1.74,1.71.08.23.17.46.26.69s.2.46.31.68c.14.28.23.57.27.88.02.14.03.28.02.42.23,0,.45-.04.67-.11.35-.12.67-.32.93-.59l1.1-1.1h0c-1.29-2.06-1.63-4.58-.94-6.91.69-2.33,2.36-4.25,4.57-5.26s4.75-1.03,6.97-.04c2.22.99,3.91,2.89,4.63,5.21h3.36ZM22.57,36.23l2.76-2.76c.35-.36.78-.63,1.26-.78.48-.16.98-.2,1.48-.13,1.31.19,2.63-.25,3.56-1.18,1.07-1.07,1.48-2.64,1.07-4.1l-1.68,1.68c-.17.17-.4.26-.64.26s-.47-.09-.64-.26l-1.62-1.62h0c-.35-.35-.35-.92,0-1.28l1.68-1.68c-1.46-.41-3.03,0-4.1,1.07-.46.46-.81,1.02-1.01,1.63-.21.62-.27,1.28-.17,1.92.07.49.03,1-.12,1.47-.16.47-.43.9-.78,1.26l-2.76,2.76c-.71.72-1.73,1.06-2.73.91-1.31-.19-2.63.25-3.56,1.18-.6.6-1,1.36-1.16,2.2-.12.63-.09,1.28.09,1.9l1.68-1.68c.17-.17.4-.26.64-.26s.47.09.64.26l1.62,1.62c.17.17.26.4.26.64,0,.24-.09.47-.26.64l-1.68,1.68c1.36.39,2.83.06,3.9-.88,1.07-.93,1.59-2.35,1.38-3.75-.15-1,.19-2.02.91-2.73h0Z"/>
  </g>
</svg>