<?xml version="1.0" encoding="UTF-8"?>
<svg id="Layer_2" xmlns="http://www.w3.org/2000/svg" viewBox="0 0 60 60">
  <defs>
    <style>
      .cls-1 {
        fill: #fff;
      }

      .cls-2 {
        fill: #092f5c;
      }
    </style>
  </defs>
  <g id="Layer_1-2" data-name="Layer_1">
    <circle class="cls-2" cx="30" cy="30" r="30"/>
    <g>
      <path class="cls-1" d="M40.05,26.23c.46-.38.79-.89.96-1.47.23-.78.14-1.6-.25-2.31-.39-.71-1.03-1.23-1.81-1.46-.58-.17-1.19-.16-1.76.01l-2.71-4.96c-.59-1.08-1.73-1.76-2.96-1.76-.56,0-1.12.14-1.62.41-1.42.78-2.06,2.44-1.61,3.93l-3.69,5.04-9.07,4.96c-.51.28-.88.74-1.05,1.31-.17.56-.1,1.15.18,1.67l.15.27-1.35.74c-.94.51-1.23,1.79-.66,2.85l1.97,3.61c.27.5.69.87,1.2,1.07.23.09.47.14.71.14.3,0,.59-.07.85-.21l1.35-.74.04.07c.28.51.74.88,1.31,1.05.21.06.41.09.62.09.36,0,.72-.09,1.04-.27l.84-.46,1.95,3.56c.06.11.16.2.27.26l4.5,2.08c.08.04.16.05.25.05.1,0,.2-.03.29-.07l2.79-1.53c.14-.08.24-.2.29-.36s.03-.32-.05-.45l-1.22-2.24c-.07-.13-.18-.22-.32-.27l-2.21-.83-.43-.79.52-.29c.22-.12.34-.36.3-.61l-.31-2.13,1.6-.87,6.39-.15c.63.75,1.57,1.19,2.57,1.19.56,0,1.12-.14,1.62-.41.79-.43,1.37-1.15,1.62-2.01.25-.87.15-1.78-.28-2.57l-2.81-5.14ZM38.62,22.14c.47.14.86.45,1.1.88.24.43.29.93.15,1.4-.08.27-.23.51-.41.72l-1.66-3.04c.27-.05.55-.04.83.04h0ZM16.95,39.02c-.21.12-.44.06-.56.01-.23-.09-.44-.28-.58-.53l-1.97-3.61c-.26-.47-.17-1.04.18-1.23l1.35-.74,2.93,5.35-1.35.74ZM30.85,41.88l.83,1.52-2.01,1.1-4.05-1.87-1.85-3.39,2.85-1.56,1.69,3.1c.07.13.18.22.32.27l2.21.83ZM27.67,37.11l.56-.3.18,1.28-.16.09-.58-1.06ZM30.63,34.13l-9.32,5.09c-.23.13-.5.15-.76.08-.26-.07-.47-.24-.59-.48l-4.26-7.79c-.13-.23-.15-.5-.08-.76.07-.26.24-.47.48-.59l9.31-5.08,3.47-4.74,7.72,14.13-5.97.14ZM41.99,33.6c-.16.56-.54,1.02-1.05,1.3-.32.18-.68.27-1.04.27-.8,0-1.53-.44-1.92-1.14l-8.37-15.32c-.58-1.05-.19-2.38.87-2.96.32-.18.68-.27,1.04-.27.8,0,1.53.44,1.92,1.14l8.37,15.32c.28.51.34,1.1.18,1.66h0Z"/>
      <path class="cls-1" d="M20.01,34.15l3.01-1.65.57,1.05-3.01,1.65-.57-1.05Z"/>
      <path class="cls-1" d="M21.63,37.12l-.57-1.05,3.01-1.65.57,1.05-3.01,1.65Z"/>
      <path class="cls-1" d="M37.63,17.01l.02,1.19h.05c1.75,0,3.67,1.37,4.8,3.42,1.11,2.03,1.23,4.38.31,5.85l1.01.63c1.16-1.86,1.05-4.62-.28-7.05-1.36-2.49-3.69-4.07-5.92-4.04h0Z"/>
      <path class="cls-1" d="M46.03,19.73c-1.83-3.35-4.92-5.49-7.91-5.49h-.1l.02,1.19c2.54-.05,5.32,1.92,6.94,4.87,1.6,2.93,1.77,6.21.42,8.35l1.01.63c1.57-2.51,1.41-6.26-.39-9.56h0Z"/>
    </g>
  </g>
</svg>