<?xml version="1.0" encoding="UTF-8"?>
<svg id="Layer_2" xmlns="http://www.w3.org/2000/svg" viewBox="0 0 60 60">
  <defs>
    <style>
      .cls-1 {
        fill: #fff;
      }

      .cls-2 {
        fill: #092f5c;
      }
    </style>
  </defs>
  <g id="Layer_1-2" data-name="Layer_1">
    <circle class="cls-2" cx="30" cy="30" r="30"/>
    <path class="cls-1" d="M29.59,12.5c1.84,0,3.08,1.95,4.36,2.49,1.29.54,3.48.05,4.7,1.26,1.22,1.22.72,3.41,1.26,4.7.54,1.28,2.49,2.52,2.49,4.36s-1.95,3.08-2.49,4.36c-.51,1.2-.11,3.22-1.05,4.46l4.54,8.64c.14.26.04.58-.22.71-.11.06-.23.07-.35.05l-4.79-.91-2.24,4.34c-.13.26-.45.36-.71.23-.12-.06-.22-.18-.26-.31l-3.47-9.34c-.7.51-1.58.69-2.43.49l-3.57,9.13c-.11.27-.41.41-.68.3-.12-.05-.23-.14-.28-.26l-2.42-4.21-4.76,1.13c-.29.07-.57-.11-.64-.39-.03-.13,0-.28.06-.39l4.25-8.69c-1.64-1.13-1.01-3.58-1.6-4.98-.54-1.28-2.49-2.52-2.49-4.36s1.95-3.08,2.49-4.36c.54-1.29.05-3.48,1.26-4.7s3.41-.72,4.7-1.26,2.52-2.49,4.36-2.49h0ZM27.94,37.61c-.92-.57-1.9-1.63-2.71-1.97-.87-.37-2.31-.27-3.4-.56l-3.79,7.76,4.05-.96c.23-.05.46.05.58.25l2.09,3.62,3.19-8.14ZM38.02,34.82c-1.23.63-3,.36-4.07.81-.63.34-1.21.76-1.73,1.25l3.17,8.54,1.87-3.62c.11-.21.34-.33.57-.29l4.12.78-3.93-7.47ZM26.12,26.12c-.22-.2-.23-.53-.04-.75.2-.22.53-.23.75-.04,0,0,0,0,.01.01l1.74,1.62,4.75-4.42c.21-.2.55-.19.75.03.2.21.19.55-.03.75l-5.12,4.75c-.2.19-.52.19-.72,0l-2.1-1.96ZM29.59,17.42c4.36,0,7.89,3.53,7.89,7.89s-3.53,7.89-7.89,7.89-7.89-3.53-7.89-7.89c0-4.36,3.53-7.89,7.89-7.89ZM34.42,20.48c-2.67-2.67-6.99-2.67-9.66,0-2.67,2.67-2.67,6.99,0,9.66,2.67,2.67,6.99,2.67,9.66,0h0c2.67-2.67,2.67-6.99,0-9.66ZM31.83,14.79c-.73-.61-1.47-1.23-2.23-1.23-1.32,0-2.5,1.79-3.95,2.4-1.44.61-3.51.19-4.36,1.04-.85.85-.43,2.92-1.04,4.36-.61,1.45-2.4,2.63-2.4,3.95s1.79,2.5,2.4,3.95c.61,1.44.19,3.51,1.04,4.36s2.92.43,4.36,1.04c1.45.61,2.63,2.4,3.95,2.4s2.5-1.79,3.95-2.4c1.44-.61,3.51-.19,4.36-1.04s.43-2.92,1.04-4.36c.61-1.45,2.4-2.63,2.4-3.95s-1.79-2.5-2.4-3.95c-.61-1.44-.19-3.51-1.04-4.36s-2.92-.43-4.36-1.04c-.63-.31-1.2-.7-1.72-1.18Z"/>
  </g>
</svg>