<?xml version="1.0" encoding="UTF-8"?>
<svg id="Layer_2" xmlns="http://www.w3.org/2000/svg" viewBox="0 0 60 60">
  <defs>
    <style>
      .cls-1 {
        fill: #fff;
      }

      .cls-2 {
        fill: #092f5c;
      }
    </style>
  </defs>
  <g id="Layer_1-2" data-name="Layer_1">
    <circle class="cls-2" cx="30" cy="30" r="30"/>
    <g>
      <path class="cls-1" d="M37.56,29.07l9.18-9.18c.49-.5.76-1.14.76-1.84s-.27-1.34-.76-1.83l-2.95-2.95c-.5-.49-1.14-.76-1.83-.76s-1.35.27-1.84.76l-9.18,9.18-9.73-9.73c-.13-.13-.32-.21-.52-.21s-.37.08-.52.21l-7.46,7.46c-.13.14-.21.32-.21.52s.08.37.21.52l9.73,9.73-5.98,5.98-.18.27-3.73,9.32c-.09.23-.06.48.07.68.14.2.36.32.61.32.09,0,.18-.02.27-.05l9.28-3.71.28-.18,6.01-6.01,9.73,9.74c.14.13.32.21.52.21s.37-.08.52-.21l7.46-7.46c.13-.14.21-.32.21-.52s-.08-.38-.21-.52l-9.73-9.73ZM41.15,14.29c.21-.21.51-.33.81-.33s.59.12.8.33l2.95,2.95c.21.21.33.5.33.8s-.12.6-.33.81l-2.67,2.66-4.55-4.55,2.66-2.67ZM14.26,20.68l6.42-6.42,2.7,2.7-3.22,3.21c-.3.3-.24.62-.17.77.12.29.4.5.7.5.18,0,.35-.08.51-.23l3.22-3.22,2.69,2.7-1.35,1.35c-.3.3-.24.62-.18.77.12.29.41.5.71.5.18,0,.35-.08.51-.23l1.35-1.35,1.76,1.76-6.42,6.42-9.22-9.22ZM14.54,45.46l2.68-6.71,4.03,4.03-6.71,2.68ZM22.55,42.01l-4.55-4.55,19.46-19.47,4.56,4.56-19.47,19.46ZM39.32,45.74l-9.22-9.22,6.42-6.42,1.76,1.76-3.21,3.22c-.3.3-.24.61-.18.77.12.28.41.49.7.49.19,0,.35-.07.52-.23l3.21-3.21,2.7,2.7-1.36,1.35c-.3.3-.24.61-.17.77.12.28.4.49.7.49.18,0,.35-.07.51-.22l1.35-1.36,2.7,2.7-6.42,6.42Z"/>
      <path class="cls-1" d="M37.56,29.07l9.18-9.18c.49-.5.76-1.14.76-1.84s-.27-1.34-.76-1.83l-2.95-2.95c-.5-.49-1.14-.76-1.83-.76s-1.35.27-1.84.76l-9.18,9.18-9.73-9.73c-.13-.13-.32-.21-.52-.21s-.37.08-.52.21l-7.46,7.46c-.13.14-.21.32-.21.52s.08.37.21.52l9.73,9.73-5.98,5.98-.18.27-3.73,9.32c-.09.23-.06.48.07.68.14.2.36.32.61.32.09,0,.18-.02.27-.05l9.28-3.71.28-.18,6.01-6.01,9.73,9.74c.14.13.32.21.52.21s.37-.08.52-.21l7.46-7.46c.13-.14.21-.32.21-.52s-.08-.38-.21-.52l-9.73-9.73ZM41.15,14.29c.21-.21.51-.33.81-.33s.59.12.8.33l2.95,2.95c.21.21.33.5.33.8s-.12.6-.33.81l-2.67,2.66-4.55-4.55,2.66-2.67ZM14.26,20.68l6.42-6.42,2.7,2.7-3.22,3.21c-.3.3-.24.62-.17.77.12.29.4.5.7.5.18,0,.35-.08.51-.23l3.22-3.22,2.69,2.7-1.35,1.35c-.3.3-.24.62-.18.77.12.29.41.5.71.5.18,0,.35-.08.51-.23l1.35-1.35,1.76,1.76-6.42,6.42-9.22-9.22ZM14.54,45.46l2.68-6.71,4.03,4.03-6.71,2.68ZM22.55,42.01l-4.55-4.55,19.46-19.47,4.56,4.56-19.47,19.46ZM39.32,45.74l-9.22-9.22,6.42-6.42,1.76,1.76-3.21,3.22c-.3.3-.24.61-.18.77.12.28.41.49.7.49.19,0,.35-.07.52-.23l3.21-3.21,2.7,2.7-1.36,1.35c-.3.3-.24.61-.17.77.12.28.4.49.7.49.18,0,.35-.07.51-.22l1.35-1.36,2.7,2.7-6.42,6.42Z"/>
    </g>
  </g>
</svg>