<svg id="api_development" data-name="api development" xmlns="http://www.w3.org/2000/svg" xmlns:xlink="http://www.w3.org/1999/xlink" viewBox="0 0 150.45 120"><defs><style>.cls-1{fill:none;}.cls-2{clip-path:url(#clip-path);}.cls-3{fill:#3b82f6;}</style><clipPath id="clip-path" transform="translate(-22.77)"><rect class="cls-1" width="196" height="120"/></clipPath></defs><g class="cls-2"><path class="cls-3" d="M164.61,41.05a27.41,27.41,0,0,0-19-7.63h0a40.35,40.35,0,0,0-77.67-6.87A19.45,19.45,0,0,0,43.77,48a20.39,20.39,0,1,0-.61,40.78H65.3c0,.77.08,1.54.18,2.31a4.22,4.22,0,0,0,3.38,3.66c2.14.42,3.66,1.43,4.25,2.86s.25,3.22-1,5a4.19,4.19,0,0,0,.18,5,32,32,0,0,0,5.36,5.36,4.22,4.22,0,0,0,5,.2c1.81-1.22,3.61-1.58,5-1s2.45,2.1,2.86,4.26a4.2,4.2,0,0,0,3.66,3.4,34.4,34.4,0,0,0,7.59,0,4.21,4.21,0,0,0,3.66-3.4c.41-2.16,1.44-3.68,2.86-4.26s3.22-.25,5,1a4.19,4.19,0,0,0,5-.2,33.2,33.2,0,0,0,5.37-5.36,4.19,4.19,0,0,0,.18-5c-1.23-1.81-1.59-3.61-1-5s2.09-2.44,4.25-2.86A4.22,4.22,0,0,0,130.52,91c.08-.77.13-1.54.18-2.31h14.86a27.63,27.63,0,0,0,19.05-47.68ZM127.45,90.68a1.15,1.15,0,0,1-.92,1C123.35,92.3,121,94,120,96.37s-.53,5.23,1.29,7.93a1.08,1.08,0,0,1,0,1.36,30.6,30.6,0,0,1-4.85,4.87,1.11,1.11,0,0,1-1.35,0c-2.7-1.83-5.53-2.29-7.94-1.29s-4.08,3.32-4.7,6.54a1.1,1.1,0,0,1-1,.91,29.24,29.24,0,0,1-6.87,0,1.1,1.1,0,0,1-1-.91c-.62-3.21-2.29-5.52-4.71-6.54a7,7,0,0,0-2.63-.52,9.5,9.5,0,0,0-5.3,1.8,1.1,1.1,0,0,1-1.35,0,29.46,29.46,0,0,1-4.85-4.88,1.08,1.08,0,0,1,0-1.35c1.83-2.7,2.28-5.53,1.29-7.93s-3.31-4.07-6.49-4.7a1.08,1.08,0,0,1-.92-1,29.83,29.83,0,0,1,0-6.81,1.13,1.13,0,0,1,.92-1c3.18-.62,5.49-2.29,6.49-4.7s.53-5.23-1.29-7.93a1.07,1.07,0,0,1,0-1.35A30.66,30.66,0,0,1,79.59,64,1.11,1.11,0,0,1,80.94,64c2.7,1.84,5.53,2.29,7.94,1.29s4.08-3.32,4.7-6.54a1.11,1.11,0,0,1,1-.91,30.35,30.35,0,0,1,6.87,0,1.1,1.1,0,0,1,1,.91c.62,3.21,2.29,5.53,4.71,6.54s5.23.54,7.93-1.29a1.11,1.11,0,0,1,1.36.05,29.85,29.85,0,0,1,4.85,4.88,1.1,1.1,0,0,1,0,1.35c-1.83,2.7-2.29,5.53-1.29,7.93s3.3,4.07,6.49,4.7a1.08,1.08,0,0,1,.91,1,29.91,29.91,0,0,1,0,6.82Zm18.08-5H130.65c0-.7-.09-1.42-.17-2.13a4.22,4.22,0,0,0-3.38-3.66c-2.14-.42-3.66-1.43-4.26-2.86s-.24-3.22,1-5a4.2,4.2,0,0,0-.18-5,32,32,0,0,0-5.37-5.36,4.2,4.2,0,0,0-5-.2c-1.82,1.22-3.62,1.58-5,1s-2.45-2.1-2.86-4.26a4.18,4.18,0,0,0-3.66-3.4,33.13,33.13,0,0,0-7.58,0,4.19,4.19,0,0,0-3.66,3.4c-.41,2.16-1.44,3.68-2.86,4.26s-3.22.25-5-1a4.19,4.19,0,0,0-5,.2A33.14,33.14,0,0,0,72.26,67a4.17,4.17,0,0,0-.18,5c1.23,1.81,1.58,3.61,1,5s-2.1,2.44-4.26,2.86a4.23,4.23,0,0,0-3.38,3.66c-.08.71-.13,1.43-.17,2.13H43.16a17.32,17.32,0,1,1,2.28-34.5,1.58,1.58,0,0,0,1.34-.49,1.52,1.52,0,0,0,.34-1.4A16.42,16.42,0,0,1,68.36,29.88a1.56,1.56,0,0,0,1.18-.08,1.5,1.5,0,0,0,.77-.9,37.27,37.27,0,0,1,72.39,6.28,1.53,1.53,0,0,0,1.6,1.32,24.59,24.59,0,1,1,1.23,49.16ZM98,72.69a14.6,14.6,0,1,0,14.6,14.6A14.61,14.61,0,0,0,98,72.69ZM98,98.8a11.53,11.53,0,1,1,11.52-11.52A11.53,11.53,0,0,1,98,98.8Z" transform="translate(-22.77)"/></g></svg>