<?xml version="1.0" encoding="UTF-8"?>
<svg xmlns="http://www.w3.org/2000/svg" version="1.1" xmlns:xlink="http://www.w3.org/1999/xlink" viewBox="0 0 196 120">
  <defs>
    <style>
      .cls-1 {
        clip-path: url(#clippath-4);
      }

      .cls-2 {
        fill: #f15e24;
      }

      .cls-3 {
        fill: none;
      }

      .cls-4 {
        clip-path: url(#clippath-1);
      }

      .cls-5 {
        clip-path: url(#clippath-3);
      }

      .cls-6 {
        display: none;
      }

      .cls-7 {
        clip-path: url(#clippath-2);
      }

      .cls-8 {
        clip-path: url(#clippath);
      }
    </style>
    <clipPath id="clippath">
      <rect class="cls-3" width="196" height="120"/>
    </clipPath>
    <clipPath id="clippath-1">
      <rect class="cls-3" width="196" height="120"/>
    </clipPath>
    <clipPath id="clippath-2">
      <rect class="cls-3" width="196" height="120"/>
    </clipPath>
    <clipPath id="clippath-3">
      <rect class="cls-3" width="196" height="120"/>
    </clipPath>
    <clipPath id="clippath-4">
      <rect class="cls-3" width="196" height="120"/>
    </clipPath>
  </defs>
  <!-- Generator: Adobe Illustrator 28.6.0, SVG Export Plug-In . SVG Version: 1.2.0 Build 709)  -->
  <g>
    <g id="Layer_1">
      <g class="cls-6">
        <g class="cls-8">
          <path class="cls-2" d="M124.9,49.3h13.7c7.4,0,13.4-6.1,13.4-13.4,0-6.9-5.2-12.7-12-13.4-.3-4-2-7.6-4.9-10.5-3.1-3.1-7.3-4.8-11.7-4.8h0c-3.2,0-6.3.9-9,2.6-2-3.6-5.1-6.5-9-8.2-9-3.9-19.3-.2-23.9,8.2-2.7-1.7-5.8-2.6-9-2.6-8.7,0-15.8,6.8-16.4,15.3-6.8.7-12.1,6.4-12.1,13.4s6,13.5,13.5,13.5h12.8c.2,0,.3,0,.5,0s.3,0,.5,0h10.2v18.7l-13.2,13.2c-1.6-1.2-3.7-1.9-5.9-1.9-5.4,0-9.9,4.4-9.9,9.9s4.4,9.9,9.9,9.9,9.9-4.4,9.9-9.9-.7-4.2-1.9-5.8l13.6-13.6c.3-.3.4-.6.4-1v-19.3h7.8v42.6c-7.1.7-12.6,6.7-12.6,14s6.3,14.1,14.1,14.1,14.1-6.3,14.1-14.1-5.5-13.3-12.6-14v-42.6h8.5v27c0,.4.2.8.4,1l5.9,5.9c-1.2,1.6-1.9,3.7-1.9,5.9,0,5.4,4.4,9.9,9.9,9.9s9.9-4.4,9.9-9.9-4.4-9.9-9.9-9.9-4.2.7-5.9,1.9l-5.5-5.5v-26.4h8.7v7.7c0,.4.2.8.4,1l8.9,8.9c-1.2,1.6-1.9,3.7-1.9,5.9,0,5.4,4.4,9.9,9.9,9.9s9.9-4.4,9.9-9.9-4.4-9.9-9.9-9.9-4.2.7-5.8,1.9l-8.4-8.4v-7.1h6.7,0ZM62.5,96c-3.8,0-6.9-3.1-6.9-6.9s3.1-6.9,6.9-6.9,6.9,3.1,6.9,6.9-3.1,6.9-6.9,6.9ZM113.1,84.2s0,0,0,0c0,0,0,0,0,0,1.2-1.2,3-2,4.9-2,3.8,0,6.9,3.1,6.9,6.9s-3.1,6.9-6.9,6.9-6.9-3.1-6.9-6.9.8-3.6,2-4.9h0ZM132.5,65.8c3.8,0,6.9,3.1,6.9,6.9s-3.1,6.9-6.9,6.9-6.9-3.1-6.9-6.9,3.1-6.9,6.9-6.9ZM61.3,40.4c.1,2.3,1.1,4.4,2.6,6h-6.5c-5.8,0-10.5-4.7-10.5-10.5s4.7-10.5,10.5-10.5.8-.2,1-.4.4-.6.4-1c0-7.5,6.1-13.7,13.6-13.7h0c3.1,0,6.1,1.1,8.6,3,.4.3.8.4,1.3.3.4-.1.8-.4,1-.8,3.5-8,12.8-11.7,20.8-8.3,3.7,1.6,6.7,4.5,8.3,8.3.2.4.6.7,1,.8.4.1.9,0,1.3-.3,2.4-1.9,5.4-3,8.5-3h.2c7.5,0,13.7,6.1,13.7,13.6h0c0,.9.6,1.6,1.5,1.6,5.8,0,10.5,4.8,10.5,10.6,0,5.8-4.7,10.5-10.5,10.5h-6.9c1.6-1.7,2.6-4,2.6-6.5h0c0-4.8-3.6-8.7-8.1-9.3-.7-5.7-5.6-10.2-11.4-10.2h0c-2,0-3.9.5-5.6,1.5-1.4-2.3-3.5-4.1-6-5.2-3.2-1.4-6.7-1.4-9.9-.1-2.7,1.1-4.9,2.9-6.3,5.4-1.7-1-3.6-1.5-5.6-1.5h0c-5.8,0-10.7,4.4-11.4,10-5,.5-8.8,4.9-8.5,9.9h0ZM104.9,105.9c0,6.2-5,11.2-11.2,11.2s-11.2-5-11.2-11.2,5-11.2,11.2-11.2,11.2,5,11.2,11.2ZM71.2,46.3h-.9c-3.2-.2-5.9-2.8-6.1-6.1-.2-3.6,2.5-6.7,6.1-6.9.1,0,.3,0,.4,0s.3,0,.4,0c.4,0,.8-.1,1.1-.4.3-.3.5-.7.5-1.1,0-4.7,3.9-8.6,8.6-8.6h0c1.9,0,3.8.7,5.3,1.8.4.3.8.4,1.3.3.4-.1.8-.4,1-.8,1.1-2.5,3-4.4,5.5-5.3,2.5-1,5.2-1,7.7.1,2.4,1,4.2,2.9,5.2,5.2.2.4.6.7,1,.8.4.1.9,0,1.3-.3,1.5-1.2,3.4-1.9,5.3-1.9h0c4.7,0,8.6,3.9,8.6,8.6s.2.8.4,1c.3.3.6.4,1,.4h0c3.6,0,6.5,2.9,6.5,6.4h0c0,3.6-2.9,6.5-6.4,6.6h-53.7ZM85.2,105.9c0,4.7,3.9,8.6,8.6,8.6s8.6-3.9,8.6-8.6-3.9-8.6-8.6-8.6-8.6,3.9-8.6,8.6ZM99.4,105.9c0,3.1-2.5,5.6-5.6,5.6s-5.7-2.5-5.7-5.6,2.5-5.7,5.7-5.7,5.6,2.5,5.6,5.7Z"/>
        </g>
      </g>
      <g class="cls-4">
        <g>
          <path class="cls-2" d="M139.4,0h-70.2c-4.6,0-8.5,3.7-8.5,8.5v4.1h-4.6c-4.4,0-8.1,3.7-8.1,8.3v90.6c0,4.6,3.7,8.5,8.5,8.5h70c4.6,0,8.5-3.7,8.5-8.5v-4.1h4.6c4.6,0,8.5-3.7,8.5-8.5V8.5C147.7,3.7,144,0,139.4,0h0ZM131,111.5c0,2.6-2,4.8-4.8,4.8H56.3c-2.6,0-4.8-2-4.8-4.8V20.9c0-2.6,2-4.8,4.8-4.8h70.2c2.6,0,4.8,2,4.8,4.6v90.8h-.2ZM144,99.1c0,2.6-2,4.8-4.8,4.8h-4.4V20.9c0-4.6-3.7-8.5-8.5-8.5h-61.7v-3.9c0-2.6,2-4.8,4.8-4.8h70c2.6,0,4.8,2,4.8,4.8v90.6h-.2Z"/>
          <path class="cls-2" d="M119.2,21c-3.7,0-6.6,3-6.6,6.6s.4,2.2.9,3.1l-9.4,9.2c-.9-.6-2-.9-3.3-.9s-2.4.4-3.5.9l-8.5-7.8c.4-.9.7-1.8.7-3,0-3.7-3-6.6-6.6-6.6s-6.6,3-6.6,6.6.4,2.2.7,3.1l-10.2,9.6c-.9-.6-2-.9-3.3-.9-3.7,0-6.6,3-6.6,6.6s3,6.6,6.6,6.6,6.6-3,6.6-6.6-.4-2.2-.7-3.1l10-9.6c.9.6,2.2.9,3.3.9s2.6-.4,3.5-1.1l8.3,7.8c-.4.9-.7,1.8-.7,3,0,3.7,3,6.6,6.6,6.6s6.6-3,6.6-6.6-.4-2.2-.9-3.1l9.4-9.2c.9.6,2,.9,3.3.9,3.7,0,6.6-3,6.6-6.6.4-3.3-2.6-6.5-6.3-6.5h0ZM63.5,51.1c-1.7,0-3-1.3-3-3s1.3-3,3-3,3,1.3,3,3-1.3,3-3,3ZM79.7,29.7c0-1.7,1.3-3,3-3s3,1.3,3,3-1.3,3-3,3-3-1.3-3-3ZM100.8,48.9c-1.7,0-3-1.3-3-3s1.3-3,3-3,3,1.3,3,3-1.3,3-3,3ZM119.2,30.8c-1.7,0-3-1.3-3-3s1.3-3,3-3,3,1.3,3,3-1.3,3-3,3Z"/>
          <path class="cls-2" d="M122.4,64.4h-62c-1.1,0-1.8.7-1.8,1.8s.7,1.8,1.8,1.8h62c1.1,0,1.8-.7,1.8-1.8s-.9-1.8-1.8-1.8Z"/>
          <path class="cls-2" d="M122.4,77.5h-26.6c-1.1,0-1.8.7-1.8,1.8s.7,1.8,1.8,1.8h26.4c1.1,0,1.8-.7,1.8-1.8s-.7-1.8-1.7-1.8Z"/>
          <path class="cls-2" d="M122.4,90.5h-26.6c-1.1,0-1.8.7-1.8,1.8s.7,1.8,1.8,1.8h26.4c1.1,0,1.8-.7,1.8-1.8.2-.9-.7-1.8-1.7-1.8Z"/>
          <path class="cls-2" d="M122.4,103.6h-26.6c-1.1,0-1.8.7-1.8,1.8s.7,1.8,1.8,1.8h26.4c1.1,0,1.8-.7,1.8-1.8.2-.9-.7-1.8-1.7-1.8Z"/>
          <path class="cls-2" d="M74.2,76.8c-8.7,0-15.7,7-15.7,15.7s7,15.7,15.7,15.7,15.3-6.8,15.7-15.1c.6-8.1-6.5-16.2-15.7-16.2ZM86,90.8h-10v-10.3c5.2.9,9.2,5.2,10,10.3ZM72.3,80.5v11.4l-7.8,7.8c-1.5-2-2.4-4.6-2.4-7.2,0-6.1,4.4-11.1,10.2-12ZM74.2,104.3c-2.6,0-4.8-.7-6.8-2.2l7.6-7.6h10.9c-.9,5.5-5.9,9.8-11.6,9.8Z"/>
        </g>
      </g>
      <g class="cls-6">
        <g class="cls-7">
          <path class="cls-2" d="M144.5,77.7l-12.7-60.8c0-3-2.6-5.4-5.6-5.4h-5.3V3.7c0-2-1.7-3.7-3.7-3.7h-4.1c-2,0-3.7,1.7-3.7,3.7v7.8h-11.3V3.7c0-2-1.7-3.7-3.7-3.7h-4.1c-2,0-3.7,1.7-3.7,3.7v7.8h-11.3V3.7c0-2-1.7-3.7-3.7-3.7h-4.1c-2,0-3.7,1.7-3.7,3.7v7.8h-5.3c-3.1,0-5.6,2.5-5.6,5.6v61.8c0,3.1,2.5,5.6,5.6,5.6h.1c0,.1,0,.3,0,.5,0,5.1,4.2,9.3,9.3,9.3s9.3-4.2,9.3-9.3,0-.3,0-.5h4.2c.7,5.4,5.4,9.6,11,9.6s10.2-4.2,11-9.6h4.2c0,.1,0,.3,0,.5,0,5.1,4.2,9.3,9.3,9.3s9.3-4.2,9.3-9.3,0-.3,0-.5h12.9c1.7,0,3.3-.7,4.4-2.1,1.1-1.3,1.5-3,1.2-4.7h0ZM112.5,3.7c0-.4.3-.7.7-.7h4.1c.4,0,.7.3.7.7v14.9c0,.4-.3.7-.7.7h-4.1c-.4,0-.7-.3-.7-.7V3.7ZM89.7,3.7c0-.4.3-.7.7-.7h4.1c.4,0,.7.3.7.7v14.9c0,.4-.3.7-.7.7h-4.1c-.4,0-.7-.3-.7-.7V3.7ZM66.9,3.7c0-.4.3-.7.7-.7h4.1c.4,0,.7.3.7.7v14.9c0,.4-.3.7-.7.7h-4.1c-.4,0-.7-.3-.7-.7V3.7ZM58.6,14.5h5.3v4.1c0,2,1.7,3.7,3.7,3.7h4.1c2,0,3.7-1.7,3.7-3.7v-4.1h11.3v4.1c0,2,1.7,3.7,3.7,3.7h4.1c2,0,3.7-1.7,3.7-3.7v-4.1h11.3v4.1c0,2,1.7,3.7,3.7,3.7h4.1c2,0,3.7-1.7,3.7-3.7v-4.1h5.3c1.4,0,2.6,1.2,2.6,2.6v10.1H56v-10.1c0-1.4,1.2-2.6,2.6-2.6h0ZM68,91.2c-3.5,0-6.3-2.8-6.3-6.3s2.8-6.3,6.3-6.3,6.3,2.8,6.3,6.3-2.8,6.3-6.3,6.3ZM92.5,91.1c-4.5,0-8.1-3.6-8.1-8.1s3.6-8.1,8.1-8.1,8.1,3.6,8.1,8.1c0,4.5-3.6,8.1-8.1,8.1h0ZM116.9,91.2c-3.5,0-6.3-2.8-6.3-6.3s2.8-6.3,6.3-6.3,6.3,2.8,6.3,6.3-2.8,6.3-6.3,6.3ZM125.5,81.5c-1.4-3.4-4.7-5.8-8.6-5.8s-7.2,2.4-8.6,5.8h-4.9c-.7-5.4-5.4-9.6-11-9.6s-10.2,4.2-11,9.6h-4.9c-1.4-3.4-4.7-5.8-8.6-5.8s-7.2,2.4-8.6,5.8h-.8c-1.4,0-2.6-1.2-2.6-2.6V30.3h72.8v48.6c0,1.4-1.2,2.6-2.6,2.6h-.8,0ZM141.1,80.5c-.5.6-1.2,1-2,1h-7.8c.4-.8.6-1.7.6-2.6V31.6l9.7,46.7c.2.8,0,1.6-.5,2.2ZM106.9,38.6c-1.6-1.4-4-1.5-5.7-.3-2.6-1.8-5.7-2.8-8.8-2.8-8.6,0-15.5,7-15.5,15.5s7,15.5,15.5,15.5,15.5-7,15.5-15.5-.3-3.7-1-5.4l.4-.5c1.7-1.9,1.5-4.9-.5-6.6h0ZM104.9,40.9c.7.6.8,1.6.2,2.3l-10.9,12.5c-.4.4-.8.6-1.4.6-.6,0-1-.2-1.4-.6l-4.2-4.6c-.3-.3-.4-.7-.4-1.2s.2-.8.5-1.1c.7-.6,1.8-.6,2.4.1l1.9,2.1c.3.3.7.5,1.1.5h0c.4,0,.8-.2,1.1-.5l8.7-10.1c.6-.7,1.6-.8,2.3-.2h0ZM104.9,51.1c0,6.9-5.6,12.5-12.5,12.5s-12.5-5.6-12.5-12.5,5.6-12.5,12.5-12.5,4.7.7,6.7,2l-6.4,7.4-.8-.8c-1.7-1.9-4.7-2-6.6-.3-.9.8-1.5,2-1.5,3.2s.4,2.4,1.2,3.3l4.2,4.6c.9,1,2.2,1.6,3.6,1.6h0c1.4,0,2.7-.6,3.6-1.7l8.1-9.4c.2.9.3,1.8.3,2.8h0ZM118.2,95.2h-2.5c-4,0-7.9,1.6-10.7,4.4-3.1-2.2-6.9-3.6-10.9-3.6h-3.1c-4.1,0-7.9,1.3-10.9,3.6-2.9-2.8-6.7-4.4-10.7-4.4h-2.5c-8.5,0-15.4,6.9-15.4,15.4v3.1c0,.8.7,1.5,1.5,1.5h19.4v3.3c0,.8.7,1.5,1.5,1.5h37.4c.8,0,1.5-.7,1.5-1.5v-3.3h19.4c.8,0,1.5-.7,1.5-1.5v-3.1c0-8.5-6.9-15.4-15.4-15.4h0ZM54.3,110.6c0-6.8,5.6-12.4,12.4-12.4h2.5c3.1,0,6.2,1.2,8.4,3.3-2.8,2.8-4.7,6.6-5.3,10.7h-18.1v-1.6ZM109.6,117h-34.4v-2.3c0-8.6,7-15.7,15.7-15.7h3.1c8.6,0,15.7,7,15.7,15.7v2.3h0ZM130.6,112.2h-18.1c-.5-4.1-2.4-7.9-5.3-10.7,2.3-2.1,5.3-3.3,8.4-3.3h2.5c6.8,0,12.4,5.6,12.4,12.4v1.6Z"/>
        </g>
      </g>
      <g class="cls-6">
        <g class="cls-5">
          <g>
            <path class="cls-2" d="M101.7,48.7c-6.3,0-11.3,5.1-11.3,11.3s5.1,11.3,11.3,11.3,11.3-5.1,11.3-11.3-5.1-11.3-11.3-11.3ZM101.7,68.3c-2.2,0-4.3-.9-5.9-2.4-3.2-3.2-3.2-8.5,0-11.7,1.6-1.6,3.7-2.4,5.9-2.4s4.3.9,5.9,2.4c3.2,3.2,3.2,8.5,0,11.7-1.6,1.6-3.7,2.4-5.9,2.4Z"/>
            <path class="cls-2" d="M100.9,89.2c-16.1,0-29.2-13.1-29.2-29.2s13.1-29.2,29.2-29.2,1.5-.7,1.5-1.5V1.5c0-.8-.7-1.5-1.5-1.5h-10.1s-.3,0-.3,0c-.8,0-1.4.6-1.5,1.4l-1.8,19c-1.6.5-3.1,1.2-4.6,1.9l-14.6-12c-.3-.3-.7-.4-1.1-.4s-.8.2-1.1.4l-14.7,14.7-.2.2h0c-.4.6-.3,1.3,0,1.8l12.1,14.7c-.7,1.5-1.4,3-1.9,4.6l-18.9,1.8c-.8,0-1.5.7-1.5,1.5v20.7c0,.8.6,1.4,1.4,1.5l19,1.8c.5,1.6,1.2,3.1,1.9,4.6l-12,14.6c-.6.6-.6,1.5,0,2.1l14.6,14.7.2.2h0c.2.1.5.2.8.2s.7-.1,1-.3l14.7-12.1c1.5.7,3,1.4,4.6,1.9l1.8,18.9c0,.8.7,1.5,1.5,1.5h10.5s0,0,0,0c.3,0,.6-.2.9-.4.3-.3.4-.7.4-1.1v-27.8c0-.8-.7-1.5-1.5-1.5ZM66.1,79.5c.4-.5.5-1.1.2-1.7-1-1.9-1.9-4-2.5-6-.2-.6-.7-1-1.3-1.1l-18.6-1.8v-18l18.6-1.8c.6,0,1.2-.5,1.3-1.1.5-1.8,1.6-4.3,2.5-5.9.3-.6.2-1.3-.2-1.7l-11.8-14.4,12.7-12.7,14.4,11.9c.3.2.6.3,1,.3s.5,0,.7-.2c1.9-1,4-1.9,6-2.5.6-.2,1-.7,1.1-1.3l1.8-18.6h7.5v24.8c-17.2.8-30.7,14.9-30.7,32.2s13.4,31.4,30.7,32.2v24.8h-7.5l-1.8-18.6c0-.6-.5-1.2-1.1-1.3-1.8-.5-4.3-1.6-5.9-2.5-.2-.1-.5-.2-.7-.2-.4,0-.7.1-1,.4l-14.4,11.8-12.7-12.7,11.9-14.4Z"/>
            <path class="cls-2" d="M148.1,81.6c-1.1,0-2.3.3-3.3.9l-6.2-7.1c-.3-.4-.7-.6-1.2-.6h-17.3c3.1-3.8,4.9-8.4,5.2-13.3h9.2c.7,3.2,3.5,5.5,6.8,5.5s5.3-1.7,6.4-4.3c1.1-2.7.5-5.6-1.5-7.6-1.3-1.3-3.1-2-4.9-2-3.3,0-6.2,2.3-6.9,5.5h-9.2c-.3-4.9-2.1-9.5-5.2-13.3h17.3c.5,0,.9-.2,1.2-.6l6.2-7.1c1,.6,2.2.8,3.3.8,1.9,0,3.6-.7,4.9-2,2-2,2.6-4.9,1.5-7.6-1.1-2.7-3.6-4.3-6.4-4.3s-5.1,1.5-6.3,3.9c-1.1,2.4-.9,5.1.7,7.2l-5.8,6.6h-19.6c-2.1-1.8-4.5-3.2-7-4.2v-10.6l9.9-5.7c1.3,1.3,3,1.9,4.8,1.9s3.6-.7,4.9-2c2-2,2.6-4.9,1.5-7.6-1.1-2.7-3.6-4.3-6.4-4.3s-4.5,1.2-5.8,3.1c-1.2,1.9-1.5,4.3-.7,6.4l-10.3,6c-.5.3-.9.8-.9,1.4v10.6c-1.8-.4-3.6-.6-5.4-.6-13,0-23.6,10.6-23.6,23.6s10.6,23.6,23.6,23.6,3.6-.2,5.4-.6v10.6c0,.6.3,1.1.9,1.4l10.4,6c-.3.8-.5,1.7-.5,2.5,0,1.9.7,3.6,2,4.9,1.3,1.3,3.1,2,4.9,2h0c1.8,0,3.6-.7,4.9-1.9,1.4-1.3,2.2-3.1,2.2-5.1,0-4.3-3.7-7-7-7s-3.4.7-4.8,1.9l-9.9-5.7v-10.6c2.6-1,4.9-2.4,7-4.2h19.6l5.8,6.6c-2,2.8-1.8,6.6.7,9.1,1.3,1.3,3.1,2,4.9,2,3.5,0,7-2.6,7-7s-3.1-7-7-7ZM150.9,91.4c-1,1-2,1.2-2.7,1.2-2,0-4-1.5-4-4s1.8-3.9,4-3.9,3,.9,3.6,2.4.3,3.2-.9,4.3ZM87.2,74.5c-3.9-3.9-6-9.1-6-14.5s2.1-10.7,6-14.5c3.9-3.9,9.1-6,14.5-6s10.7,2.1,14.5,6c3.9,3.9,6,9.1,6,14.5s-2.1,10.7-6,14.5c-3.9,3.9-9.1,6-14.5,6s-10.7-2.1-14.5-6ZM138.5,57.2c.7-.7,1.7-1.2,2.8-1.2s2,.4,2.8,1.2c1.1,1.1,1.5,2.8.8,4.3-.6,1.5-2,2.4-3.6,2.4-1.6,0-3-.9-3.6-2.4-.6-1.5-.3-3.1.9-4.3ZM151.8,29.9c.6,1.5.3,3.2-.9,4.3-1,1-2,1.2-2.8,1.2-2,0-4-1.5-4-4s1.8-3.9,4-3.9,3,.9,3.6,2.4ZM128.5,15.1c.6,1.5.3,3.2-.9,4.3-1,1-2,1.2-2.8,1.2-2,0-4-1.5-4-4s1.8-3.9,3.9-3.9,3,.9,3.6,2.4ZM128.5,104.9c-.6,1.5-2,2.4-3.6,2.4s-3-.9-3.6-2.4c-.6-1.5-.3-3.2.8-4.3.7-.7,1.7-1.2,2.8-1.2s2,.4,2.8,1.2c1.1,1.1,1.5,2.8.8,4.3Z"/>
          </g>
        </g>
      </g>
      <g class="cls-6">
        <g class="cls-1">
          <g>
            <path class="cls-2" d="M55.2,76.2c-6.6,0-12,5.8-12,13s5.4,13,12,13,12-5.8,12-13-5.4-13-12-13ZM55.2,97.8c-4.2,0-7.6-3.9-7.6-8.7s3.4-8.7,7.6-8.7,7.6,3.9,7.6,8.7-3.4,8.7-7.6,8.7Z"/>
            <path class="cls-2" d="M62.9,104.3h-15.5c-7.1,0-12.8,5.7-12.8,12.8v.7c0,1.2,1,2.2,2.2,2.2s2.2-1,2.2-2.2v-.7c0-4.7,3.8-8.5,8.5-8.5h15.5c4.7,0,8.5,3.8,8.5,8.5v.7c0,1.2,1,2.2,2.2,2.2s2.2-1,2.2-2.2v-.7c0-7.1-5.7-12.8-12.8-12.8Z"/>
            <path class="cls-2" d="M98,76.2c-6.6,0-12,5.8-12,13s5.4,13,12,13,12-5.8,12-13-5.4-13-12-13ZM98,97.8c-4.2,0-7.6-3.9-7.6-8.7s3.4-8.7,7.6-8.7,7.6,3.9,7.6,8.7-3.4,8.7-7.6,8.7Z"/>
            <path class="cls-2" d="M89.6,38.5c6.6,0,12-5.8,12-13s-5.4-13-12-13-12,5.8-12,13,5.4,13,12,13ZM89.6,16.8c4.2,0,7.6,3.9,7.6,8.7s-3.4,8.7-7.6,8.7-7.6-3.9-7.6-8.7,3.4-8.7,7.6-8.7Z"/>
            <path class="cls-2" d="M105.7,104.3h-15.5c-7.1,0-12.8,5.7-12.8,12.8v.7c0,1.2,1,2.2,2.2,2.2s2.2-1,2.2-2.2v-.7c0-4.7,3.8-8.5,8.5-8.5h15.5c4.7,0,8.5,3.8,8.5,8.5v.7c0,1.2,1,2.2,2.2,2.2s2.2-1,2.2-2.2v-.7c0-7.1-5.7-12.8-12.8-12.8Z"/>
            <path class="cls-2" d="M140.8,102.1c6.6,0,12-5.8,12-13s-5.4-13-12-13-12,5.8-12,13,5.4,13,12,13ZM140.8,80.5c4.2,0,7.6,3.9,7.6,8.7s-3.4,8.7-7.6,8.7-7.6-3.9-7.6-8.7,3.4-8.7,7.6-8.7Z"/>
            <path class="cls-2" d="M148.5,104.3h-15.5c-7.1,0-12.8,5.7-12.8,12.8v.7c0,1.2,1,2.2,2.2,2.2s2.2-1,2.2-2.2v-.7c0-4.7,3.8-8.5,8.5-8.5h15.5c4.7,0,8.5,3.8,8.5,8.5v.7c0,1.2,1,2.2,2.2,2.2s2.2-1,2.2-2.2v-.7c0-7.1-5.7-12.8-12.8-12.8Z"/>
            <path class="cls-2" d="M133.9,54.5c0-4.1-3.1-7.5-7.1-8l7.7-23.4c.4-1.1-.2-2.3-1.4-2.7-1.1-.4-2.3.2-2.7,1.4l-8.1,24.6h-44.3c-8.8,0-15.9,7.1-15.9,15.9v4.6c0,1.2,1,2.2,2.2,2.2s2.2-1,2.2-2.2v-4.6c0-6.4,5.2-11.6,11.6-11.6h45.8s0,0,0,0h0s2,0,2,0c2.1,0,3.8,1.7,3.8,3.8s-1.7,3.8-3.8,3.8h-16.8c-3.6,0-6.6,3-6.6,6.6v2.1c0,1.2,1,2.2,2.2,2.2h0c1.2,0,2.2-1,2.2-2.2v-2.1c0-1.3,1-2.3,2.3-2.3h16.8c4.5,0,8.1-3.6,8.1-8.1Z"/>
            <path class="cls-2" d="M75,59.6c-1.2,0-2.2,1-2.2,2.2v5.2c0,1.2,1,2.2,2.2,2.2s2.2-1,2.2-2.2v-5.2c0-1.2-1-2.2-2.2-2.2Z"/>
            <path class="cls-2" d="M40.5,69.1c1.2,0,2.2-1,2.2-2.2V9.7c0-3,2.4-5.4,5.4-5.4h100c3,0,5.4,2.4,5.4,5.4v57.2c0,1.2,1,2.2,2.2,2.2s2.2-1,2.2-2.2V9.7c0-5.4-4.4-9.7-9.7-9.7H48.1c-5.4,0-9.7,4.4-9.7,9.7v57.2c0,1.2,1,2.2,2.2,2.2Z"/>
          </g>
        </g>
      </g>
    </g>
  </g>
</svg>