<svg id="design_integration" data-name="design integration" xmlns="http://www.w3.org/2000/svg" viewBox="0 0 40 40"><defs><style>.cls-1{fill:#3b82f6;}</style></defs><path class="cls-1" d="M9.7,26.21a4.08,4.08,0,1,0,4.08,4.08A4.08,4.08,0,0,0,9.7,26.21Zm0,7.35A3.27,3.27,0,1,1,13,30.29,3.27,3.27,0,0,1,9.7,33.56ZM30.3,5.62A4.08,4.08,0,1,0,34.38,9.7,4.09,4.09,0,0,0,30.3,5.62Zm0,7.35A3.27,3.27,0,1,1,33.56,9.7,3.26,3.26,0,0,1,30.3,13ZM18.06,28l-1.34-.11a.5.5,0,0,1-.35-.82l.86-1a1.4,1.4,0,0,0,0-1.8,9.42,9.42,0,0,0-1.49-1.47,1.39,1.39,0,0,0-1.79,0l-1,.87a.49.49,0,0,1-.51.08.48.48,0,0,1-.3-.42L12,21.92a1.4,1.4,0,0,0-1.26-1.28,10.53,10.53,0,0,0-2.1,0,1.41,1.41,0,0,0-1.25,1.29l-.12,1.35a.48.48,0,0,1-.3.42.52.52,0,0,1-.52-.08l-1-.86a1.39,1.39,0,0,0-1.8,0,9.86,9.86,0,0,0-1.48,1.48,1.42,1.42,0,0,0,0,1.8l.87,1a.5.5,0,0,1,.08.51.49.49,0,0,1-.42.31L1.33,28A1.39,1.39,0,0,0,.05,29.28a9.83,9.83,0,0,0,0,2.1,1.41,1.41,0,0,0,1.29,1.25l1.35.12a.5.5,0,0,1,.42.3.52.52,0,0,1-.08.52l-.86,1a1.4,1.4,0,0,0,0,1.8,9.86,9.86,0,0,0,1.49,1.47,1.4,1.4,0,0,0,1.8,0l1-.87A.49.49,0,0,1,7,36.91a.51.51,0,0,1,.31.41l.12,1.35A1.4,1.4,0,0,0,8.69,40c.34,0,.68,0,1,0a9.82,9.82,0,0,0,1.09-.06,1.42,1.42,0,0,0,1.26-1.29l.11-1.35a.49.49,0,0,1,.31-.42A.5.5,0,0,1,13,37l1,.86a1.4,1.4,0,0,0,1.8,0,9.42,9.42,0,0,0,1.47-1.49,1.4,1.4,0,0,0,0-1.8l-.87-1a.49.49,0,0,1-.08-.51.48.48,0,0,1,.42-.3l1.34-.13a1.39,1.39,0,0,0,1.28-1.26,9.83,9.83,0,0,0,0-2.1A1.4,1.4,0,0,0,18.06,28Zm.49,3.27a.6.6,0,0,1-.54.54l-1.35.12a1.34,1.34,0,0,0-1.1.81A1.3,1.3,0,0,0,15.78,34l.86,1a.58.58,0,0,1,0,.76A8.68,8.68,0,0,1,15.3,37.2a.6.6,0,0,1-.76,0l-1-.86a1.31,1.31,0,0,0-2.16.89l-.12,1.35a.59.59,0,0,1-.53.55,8.8,8.8,0,0,1-1.92,0,.6.6,0,0,1-.54-.54l-.12-1.34a1.34,1.34,0,0,0-.81-1.1,1.51,1.51,0,0,0-.5-.09,1.27,1.27,0,0,0-.85.31l-1,.87a.59.59,0,0,1-.76,0,8.75,8.75,0,0,1-1.37-1.35.59.59,0,0,1,0-.76l.86-1a1.32,1.32,0,0,0,.2-1.35,1.34,1.34,0,0,0-1.1-.81l-1.35-.11a.59.59,0,0,1-.54-.53,9.48,9.48,0,0,1,0-1.92.6.6,0,0,1,.54-.54l1.35-.12a1.32,1.32,0,0,0,.88-2.17l-.86-1a.58.58,0,0,1,0-.76,8.75,8.75,0,0,1,1.35-1.37.59.59,0,0,1,.76,0l1,.86a1.32,1.32,0,0,0,1.35.2,1.34,1.34,0,0,0,.81-1.1L8.18,22a.6.6,0,0,1,.53-.54,9.58,9.58,0,0,1,1.93,0,.59.59,0,0,1,.53.54l.13,1.35a1.3,1.3,0,0,0,.81,1.1,1.33,1.33,0,0,0,1.35-.22l1-.87a.59.59,0,0,1,.76,0,8.75,8.75,0,0,1,1.37,1.35.59.59,0,0,1,0,.76l-.86,1a1.32,1.32,0,0,0,.9,2.16l1.35.11a.59.59,0,0,1,.54.53,8.8,8.8,0,0,1,0,1.92ZM39.94,8.62a1.41,1.41,0,0,0-1.29-1.25L37.3,7.25a.49.49,0,0,1-.42-.31A.5.5,0,0,1,37,6.43l.86-1a1.4,1.4,0,0,0,0-1.8,9.86,9.86,0,0,0-1.49-1.47,1.4,1.4,0,0,0-1.8,0l-1,.87a.51.51,0,0,1-.52.08.5.5,0,0,1-.3-.42l-.12-1.34A1.42,1.42,0,0,0,31.3.05a9.74,9.74,0,0,0-2.09,0A1.42,1.42,0,0,0,28,1.35l-.11,1.34A.51.51,0,0,1,27,3l-1-.86a1.38,1.38,0,0,0-1.79,0A10.35,10.35,0,0,0,22.7,3.65a1.42,1.42,0,0,0,0,1.8l.87,1a.5.5,0,0,1,.08.51.49.49,0,0,1-.42.31l-1.35.12a1.41,1.41,0,0,0-1.27,1.27,9.13,9.13,0,0,0,0,2.09A1.39,1.39,0,0,0,21.94,12l1.34.12a.48.48,0,0,1,.42.3.49.49,0,0,1-.07.52l-.86,1a1.38,1.38,0,0,0,0,1.79,9.86,9.86,0,0,0,1.48,1.48,1.4,1.4,0,0,0,1.8,0l1-.86a.5.5,0,0,1,.52-.09.52.52,0,0,1,.31.42L28,18.07a1.4,1.4,0,0,0,1.26,1.28c.34,0,.67,0,1,0a9.82,9.82,0,0,0,1.09-.06,1.4,1.4,0,0,0,1.26-1.29l.11-1.35a.5.5,0,0,1,.82-.34l1,.86a1.4,1.4,0,0,0,1.8,0,9.48,9.48,0,0,0,1.48-1.49,1.39,1.39,0,0,0,0-1.79l-.87-1a.49.49,0,0,1,.34-.81L38.68,12A1.38,1.38,0,0,0,40,10.71a10.43,10.43,0,0,0,0-2.09Zm-.81,2a.6.6,0,0,1-.54.54l-1.34.12a1.34,1.34,0,0,0-1.1.81,1.3,1.3,0,0,0,.21,1.35l.87,1a.59.59,0,0,1,0,.76,9.14,9.14,0,0,1-1.35,1.36.6.6,0,0,1-.76,0l-1-.87a1.32,1.32,0,0,0-1.35-.2,1.3,1.3,0,0,0-.81,1.1L31.82,18a.61.61,0,0,1-.54.55,9.48,9.48,0,0,1-1.92,0,.6.6,0,0,1-.54-.54l-.12-1.35a1.34,1.34,0,0,0-.81-1.1,1.27,1.27,0,0,0-.5-.1,1.33,1.33,0,0,0-.85.31l-1,.87a.59.59,0,0,1-.76,0,9.21,9.21,0,0,1-1.37-1.35.59.59,0,0,1,0-.76l.86-1a1.32,1.32,0,0,0-.9-2.16L22,11.23a.61.61,0,0,1-.54-.54,9.47,9.47,0,0,1,0-1.92A.58.58,0,0,1,22,8.24l1.35-.13A1.31,1.31,0,0,0,24.22,6l-.87-1a.6.6,0,0,1,0-.77A9.13,9.13,0,0,1,24.7,2.79a.59.59,0,0,1,.76,0l1,.86a1.32,1.32,0,0,0,2.16-.9l.11-1.35a.6.6,0,0,1,.54-.54,8.22,8.22,0,0,1,1.92,0,.6.6,0,0,1,.54.54l.12,1.34a1.32,1.32,0,0,0,.81,1.1,1.3,1.3,0,0,0,1.35-.22l1-.86a.59.59,0,0,1,.77,0A8.68,8.68,0,0,1,37.21,4.1a.59.59,0,0,1,0,.76l-.86,1a1.32,1.32,0,0,0-.2,1.35,1.34,1.34,0,0,0,1.1.81l1.35.11a.6.6,0,0,1,.54.53,8.89,8.89,0,0,1,0,1.93Zm-6.28,9.82a2.22,2.22,0,0,0-1,4.19,12.74,12.74,0,0,1-10.37,8l.78-1.08a.4.4,0,0,0-.09-.57.4.4,0,0,0-.57.09l-1.34,1.85a.42.42,0,0,0,.09.58l1.85,1.34a.46.46,0,0,0,.24.08.44.44,0,0,0,.34-.17.41.41,0,0,0-.09-.57l-1-.75a13.6,13.6,0,0,0,11-8.55l.23,0a2.22,2.22,0,0,0,0-4.44Zm0,3.63a1.41,1.41,0,1,1,1.4-1.4A1.4,1.4,0,0,1,32.85,24.08ZM19.68,6.51,17.82,5.17a.41.41,0,0,0-.48.66l1,.75a13.57,13.57,0,0,0-11,8.54H7.16a2.21,2.21,0,1,0,1,.24,12.75,12.75,0,0,1,10.37-8l-.78,1.08a.4.4,0,0,0,.09.57.41.41,0,0,0,.57-.09l1.34-1.86a.4.4,0,0,0-.08-.57ZM7.17,18.73a1.4,1.4,0,1,1,1.4-1.4A1.4,1.4,0,0,1,7.17,18.73Z" transform="translate(0)"/></svg>