<svg id="update" xmlns="http://www.w3.org/2000/svg" xmlns:xlink="http://www.w3.org/1999/xlink" viewBox="0 0 40 32.01"><defs><style>.cls-1{fill:none;}.cls-2{clip-path:url(#clip-path);}.cls-3{fill:#3b82f6;}</style><clipPath id="clip-path" transform="translate(0 -3.99)"><rect class="cls-1" width="40" height="40"/></clipPath></defs><g class="cls-2"><path class="cls-3" d="M25.72,32.71a13.32,13.32,0,0,1-5.85,1.36A13.59,13.59,0,0,1,12.63,32,13.89,13.89,0,0,1,7.49,26a14.21,14.21,0,0,1-1.32-5.89l1.93,2c1,1,2.7-.21,2.7-.21L4.93,15.87,0,22.75s1.87.94,2.7-.21l1.58-2.21a16.38,16.38,0,0,0,1.49,6.51h0a15.81,15.81,0,0,0,5.86,6.75A15.33,15.33,0,0,0,19.87,36a15.12,15.12,0,0,0,6.65-1.55,15.51,15.51,0,0,0,5.38-4.3l-1.46-1.23a13.62,13.62,0,0,1-4.72,3.78Z" transform="translate(0 -3.99)"/><path class="cls-3" d="M37.31,19.69l-1.94,1.79A14.72,14.72,0,0,0,35.45,20,16.24,16.24,0,0,0,34,13.16a15.81,15.81,0,0,0-5.86-6.75A15.33,15.33,0,0,0,19.85,4,15.12,15.12,0,0,0,13.2,5.54a15.6,15.6,0,0,0-6.47,5.84l1.59,1A13.77,13.77,0,0,1,14,7.29a13.31,13.31,0,0,1,5.84-1.36,13.56,13.56,0,0,1,7.24,2.12A13.85,13.85,0,0,1,32.24,14a14.43,14.43,0,0,1,1.32,6c0,.46,0,.91-.07,1.36h0S32.7,20.16,32,19s-2.69-.36-2.69-.36l4.55,7.15L40,20.05s-1.65-1.31-2.69-.36Z" transform="translate(0 -3.99)"/></g></svg>