<svg id="ai_powered_feature" data-name="ai powered feature" xmlns="http://www.w3.org/2000/svg" xmlns:xlink="http://www.w3.org/1999/xlink" viewBox="0 0 97.49 120"><defs><style>.cls-1{fill:none;}.cls-2{clip-path:url(#clip-path);}.cls-3{fill:#3b82f6;}</style><clipPath id="clip-path" transform="translate(-49.25)"><rect class="cls-1" width="196" height="120"/></clipPath></defs><g class="cls-2"><path class="cls-3" d="M94.39,20.57h10.35V34H91.3V23.66Zm21,50V67.26a1.81,1.81,0,0,0-1.81-1.8H82.46a1.81,1.81,0,0,0-1.81,1.8V70.6a1.82,1.82,0,0,0,1.81,1.81h31.08A1.82,1.82,0,0,0,115.35,70.6Zm0-13.93a1.81,1.81,0,0,0-1.81-1.8H82.46a1.81,1.81,0,0,0-1.81,1.8V60a1.81,1.81,0,0,0,1.81,1.8h31.08a1.81,1.81,0,0,0,1.81-1.8ZM59.28,29.13a1.82,1.82,0,1,0,0-3.63H51.07a1.82,1.82,0,1,0,0,3.63Zm4.29,16-7.11,4.11a1.81,1.81,0,1,0,1.8,3.14l7.11-4.11A1.8,1.8,0,0,0,66,45.77,1.82,1.82,0,0,0,63.57,45.1ZM56.45,5.42l7.11,4.11a1.81,1.81,0,1,0,1.82-3.14L58.27,2.28a1.81,1.81,0,0,0-1.82,3.14ZM125.88,89,107,99.86a8.17,8.17,0,0,1-4.41,3l-9.53,2.55a12.41,12.41,0,0,1-6.43,0,1.82,1.82,0,1,1,.94-3.51,8.51,8.51,0,0,0,4.56,0l9.52-2.55a4.57,4.57,0,1,0-2.36-8.82l-6.52,1.75A12.17,12.17,0,0,1,83.27,91l-8.69-5c-2.11-1.23-4.74-.24-8.17,1.05-1.44.54-3,1.13-4.73,1.64l6.74,25.15c6-.74,10.3.49,15.71,2,3.46,1,6,2.09,9.42.13,12-6.92,24-13.78,36-20.76A3.62,3.62,0,1,0,125.88,89ZM98.37,87a9.17,9.17,0,0,1,1.45-.25V81.07a10.78,10.78,0,0,0,7.48-5H88.71a10.78,10.78,0,0,0,7.48,5v6.52Zm-41-.26A1.13,1.13,0,0,0,56,85.93l-4.57,1.23a1.14,1.14,0,0,0-.81,1.39l8.2,30.61a1.14,1.14,0,0,0,1.39.8l4.58-1.22a1.15,1.15,0,0,0,.81-1.4ZM132.44,9.53l7.11-4.11a1.81,1.81,0,1,0-1.82-3.14l-7.11,4.11a1.81,1.81,0,1,0,1.82,3.14Zm7.11,39.68-7.11-4.11a1.81,1.81,0,0,0-1.82,3.14l7.11,4.11a1.81,1.81,0,1,0,1.82-3.14Zm-59.27.18c-6.31-7.15-9.6-15.21-9.6-23.34C70.68,11.78,82.88.19,98,0c15.12.19,27.31,11.77,27.31,26.05,0,8.13-3.29,16.19-9.6,23.34-.58.66-1.1,1.28-1.56,1.88a6,6,0,0,0-.61,0H82.46a6,6,0,0,0-.61,0C81.39,50.67,80.87,50.06,80.28,49.39ZM94.1,42.61l1.42-2.15H91.18l-.41.62a1.78,1.78,0,0,0-.29,1v2.64a1.81,1.81,0,1,0,3.62,0Zm13.45-5.79v-19H88.49V36.82Zm-7.71,3.64H96.2v4.25a1.82,1.82,0,0,0,3.64,0Zm5.73,4.25V42.07a1.78,1.78,0,0,0-.29-1l-.41-.62h-4.34l1.42,2.14v2.11a1.82,1.82,0,0,0,3.63,0Zm5.06,0V42.07a1.84,1.84,0,0,0-.22-.87l-.46-.83a1.79,1.79,0,0,1-.57.09h-3.51L107,42.53v2.18a1.82,1.82,0,0,0,3.64,0Zm6.62-17.41a1.82,1.82,0,0,0-1.82-1.82h-4.25v3.63h4.25A1.82,1.82,0,0,0,117.25,27.3Zm-1.82,3.92h-2.09l-2.16-1.42v4.34l.62.4a1.83,1.83,0,0,0,1,.3h2.63a1.81,1.81,0,0,0,0-3.62Zm1.82-9.66a1.83,1.83,0,0,0-1.82-1.82H112.8a1.83,1.83,0,0,0-1,.3l-.62.41v4.33l2.15-1.41h2.1A1.82,1.82,0,0,0,117.25,21.56Zm-6.16-6.19a1.85,1.85,0,0,1,.09.58v3.51l2.07-1.14h2.18a1.82,1.82,0,1,0,0-3.63H112.8a1.85,1.85,0,0,0-.88.22Zm0,23.85.83.46a1.84,1.84,0,0,0,.87.22h2.64a1.82,1.82,0,1,0,0-3.63h-2.18l-2.07-1.14v3.51A1.85,1.85,0,0,1,111.09,39.22Zm-5.24-25.09h3.51a1.81,1.81,0,0,1,.58.09l.46-.83a1.81,1.81,0,0,0,.22-.87V9.88a1.82,1.82,0,0,0-3.64,0v2.18Zm-5.33,0h4.34l.41-.62a1.78,1.78,0,0,0,.29-1V9.89a1.82,1.82,0,1,0-3.63,0V12Zm-4.32,0h3.64V9.89a1.82,1.82,0,0,0-3.64,0ZM90.47,9.89v2.63a1.79,1.79,0,0,0,.3,1l.41.62h4.33L94.1,12V9.89a1.82,1.82,0,1,0-3.63,0Zm-5.06,0v2.63a1.8,1.8,0,0,0,.23.87l.45.84a1.91,1.91,0,0,1,.58-.1h3.51l-1.13-2.07V9.89a1.82,1.82,0,1,0-3.64,0Zm0,34.82a1.82,1.82,0,0,0,3.64,0V42.53l1.13-2.07H86.67a1.79,1.79,0,0,1-.57-.09l-.46.83a1.74,1.74,0,0,0-.23.87v2.64Zm-6.62-28.2a1.82,1.82,0,0,0,1.82,1.81h2.17l2.07,1.14V16a1.86,1.86,0,0,1,.1-.58l-.83-.45a1.75,1.75,0,0,0-.88-.23H80.61A1.82,1.82,0,0,0,78.79,16.51Zm5.45,3.54a1.83,1.83,0,0,0-1-.3H80.61a1.81,1.81,0,0,0,0,3.62H82.7l2.16,1.42V20.46ZM78.79,27.3a1.82,1.82,0,0,0,1.82,1.81h4.24V25.48H80.61A1.82,1.82,0,0,0,78.79,27.3Zm0,5.73a1.83,1.83,0,0,0,1.82,1.82h2.63a1.85,1.85,0,0,0,1-.3l.61-.4V29.8l-2.14,1.41h-2.1A1.83,1.83,0,0,0,78.79,33Zm1.82,6.87h2.63a1.85,1.85,0,0,0,.88-.22l.83-.46a1.85,1.85,0,0,1-.09-.58V35.13l-2.07,1.14H80.61a1.82,1.82,0,1,0,0,3.63Zm64.32-14.4h-8.21a1.82,1.82,0,1,0,0,3.63h8.21a1.82,1.82,0,1,0,0-3.63Z" transform="translate(-49.25)"/></g></svg>