<svg id="appointment" xmlns="http://www.w3.org/2000/svg" xmlns:xlink="http://www.w3.org/1999/xlink" viewBox="0 0 131.64 120"><defs><style>.cls-1{fill:none;}.cls-2{clip-path:url(#clip-path);}.cls-3{fill:#3b82f6;}</style><clipPath id="clip-path" transform="translate(-32.18)"><rect class="cls-1" width="196" height="120"/></clipPath></defs><g class="cls-2"><path class="cls-3" d="M163.82,52.31a6.14,6.14,0,0,0-6.12-6.16H38.3a6.14,6.14,0,0,0-6.12,6.16v56.92A10.74,10.74,0,0,0,42.9,120H153.1a10.74,10.74,0,0,0,10.72-10.77ZM116.55,74.54,96.14,95.06a4.58,4.58,0,0,1-6.49,0h0L79.45,84.8a4.6,4.6,0,0,1,6.47-6.55l0,0,7,7L110.06,68a4.57,4.57,0,0,1,6.49,0A4.62,4.62,0,0,1,116.55,74.54Z" transform="translate(-32.18)"/><path class="cls-3" d="M163.82,23.08A10.75,10.75,0,0,0,153.1,12.31h-1.53V4.62a4.59,4.59,0,1,0-9.18,0v7.69H127.08V4.62a4.59,4.59,0,1,0-9.18,0v7.69H102.59V4.62a4.59,4.59,0,1,0-9.18,0v7.69H78.1V4.62a4.59,4.59,0,1,0-9.18,0v7.69H53.61V4.62a4.59,4.59,0,1,0-9.18,0v7.69H42.9A10.75,10.75,0,0,0,32.18,23.08v12.3A4.61,4.61,0,0,0,36.77,40H159.23a4.61,4.61,0,0,0,4.59-4.62Z" transform="translate(-32.18)"/></g></svg>