<svg id="filter" xmlns="http://www.w3.org/2000/svg" xmlns:xlink="http://www.w3.org/1999/xlink" viewBox="0 0 111.81 120"><defs><style>.cls-1{fill:none;}.cls-2{clip-path:url(#clip-path);}.cls-3{fill:#3b82f6;}</style><clipPath id="clip-path" transform="translate(-42.09)"><rect class="cls-1" width="196" height="120"/></clipPath></defs><g class="cls-2"><path class="cls-3" d="M53.71,0h88.58a11.57,11.57,0,0,1,9.16,18.71L117.92,61.85V104.2a3.68,3.68,0,0,1-2.72,3.56l-32.14,12a3.68,3.68,0,0,1-4.74-2.17,3.61,3.61,0,0,1-.23-1.28l0-54.47L44.56,18.71a11.48,11.48,0,0,1-2.41-5.93,11.59,11.59,0,0,1,1.14-6.27l.18-.34A11.4,11.4,0,0,1,53.7,0Z" transform="translate(-42.09)"/></g></svg>