<svg id="Layer_9" data-name="Layer 9" xmlns="http://www.w3.org/2000/svg" xmlns:xlink="http://www.w3.org/1999/xlink" viewBox="0 0 142.73 120"><defs><style>.cls-1{fill:none;}.cls-2{clip-path:url(#clip-path);}.cls-3{fill:#3b82f6;}</style><clipPath id="clip-path" transform="translate(-26.64)"><rect class="cls-1" width="196" height="120"/></clipPath></defs><g class="cls-2"><path class="cls-3" d="M31.93,119.53a8.17,8.17,0,0,0,2.73.47,7.87,7.87,0,0,0,6.14-2.94l13.29-16.31a8.64,8.64,0,0,1,6.69-3.18h94.6a14,14,0,0,0,14-14V14a14,14,0,0,0-14-14H40.62a14,14,0,0,0-14,14v98a7.93,7.93,0,0,0,5.29,7.53ZM56.11,25.79h83.78a2.68,2.68,0,1,1,0,5.35H56.11a2.68,2.68,0,1,1,0-5.35Zm0,20.16h83.78a2.68,2.68,0,1,1,0,5.36H56.11a2.68,2.68,0,1,1,0-5.36Zm0,20.17h83.78a2.68,2.68,0,1,1,0,5.35H56.11a2.68,2.68,0,1,1,0-5.35Z" transform="translate(-26.64)"/></g></svg>