<svg id="multilingual" xmlns="http://www.w3.org/2000/svg" xmlns:xlink="http://www.w3.org/1999/xlink" viewBox="0 0 124.12 120"><defs><style>.cls-1{fill:none;}.cls-2{clip-path:url(#clip-path);}.cls-3{fill:#3b82f6;}</style><clipPath id="clip-path" transform="translate(-35.94)"><rect class="cls-1" width="196" height="120"/></clipPath></defs><g class="cls-2"><path class="cls-3" d="M78.32,54.49V53H39a3,3,0,0,0-3,3v51.47a3,3,0,0,0,3,3H49.56a3,3,0,0,1,3,3V120l9-8.66a3.07,3.07,0,0,1,2.11-.85H108.6a3,3,0,0,0,3-3V63.57H87.4A9.08,9.08,0,0,1,78.32,54.49Zm15.14,46.56a3.09,3.09,0,0,1-1.51.36,3,3,0,0,1-2.67-1.51L82.71,87.79H64.85L58.28,99.9a3,3,0,0,1-2.66,1.51,3.1,3.1,0,0,1-1.52-.36A3,3,0,0,1,52.89,97v0l18.17-33.3.13-.18.19-.29.24-.22a1.07,1.07,0,0,1,.18-.19,1.9,1.9,0,0,1,.33-.22l.14-.11h0c.13-.07.27-.12.41-.18h.13l.47-.11h.62l.5.08h.15l.26.11.3.13h0l.19.14.28.2.22.19.19.21c.07.1.14.19.2.29l.13.18L94.49,97A3,3,0,0,1,93.46,101.05Z" transform="translate(-35.94)"/><polygon class="cls-3" points="32.21 81.74 43.47 81.74 37.84 71.41 32.21 81.74"/><path class="cls-3" d="M157,0H87.4a3,3,0,0,0-3,3V54.49a3,3,0,0,0,3,3h44.94a3,3,0,0,1,2.11.85l9,8.65V60.54a3,3,0,0,1,3-3H157a3,3,0,0,0,3-3V3a3,3,0,0,0-3-3ZM140.38,22.7h-9a35.55,35.55,0,0,1-5.33,12.11,29.8,29.8,0,0,0,13.62,7.74,3,3,0,0,1-1.63,5.84,35.94,35.94,0,0,1-15.85-9,35.63,35.63,0,0,1-15.82,8.93,3,3,0,1,1-1.63-5.84,29.9,29.9,0,0,0,13.62-7.69,31.53,31.53,0,0,1-1.91-3,34.32,34.32,0,0,1-3.4-9.08h-9a3,3,0,0,1,0-6.06h15.14V12.09a3,3,0,0,1,6.06,0v4.54h15.13a3,3,0,0,1,0,6.06Z" transform="translate(-35.94)"/><path class="cls-3" d="M122.22,29.73a28.67,28.67,0,0,0,3-7.06h-6.06A27.93,27.93,0,0,0,122.22,29.73Z" transform="translate(-35.94)"/></g></svg>