<svg id="patient_info." data-name="patient info." xmlns="http://www.w3.org/2000/svg" xmlns:xlink="http://www.w3.org/1999/xlink" viewBox="0 0 80.31 120"><defs><style>.cls-1{fill:none;}.cls-2{clip-path:url(#clip-path);}.cls-3{fill:#3b82f6;}</style><clipPath id="clip-path" transform="translate(-57.84)"><rect class="cls-1" width="196" height="120"/></clipPath></defs><g class="cls-2"><path class="cls-3" d="M64.76,18.67a6.92,6.92,0,0,0-6.92,6.92v87.5A6.92,6.92,0,0,0,64.76,120h66.48a6.92,6.92,0,0,0,6.92-6.91V25.59a6.92,6.92,0,0,0-6.92-6.92h-8.79v2.66a6.34,6.34,0,0,1-6.33,6.33H79.86a6.34,6.34,0,0,1-6.33-6.33V18.67H64.76Zm19.09,89.74H70a2.43,2.43,0,1,1,0-4.86H83.85a2.43,2.43,0,1,1,0,4.86ZM126,92.27H70a2.43,2.43,0,1,1,0-4.86H126a2.43,2.43,0,0,1,0,4.86Zm0-16.14H70a2.44,2.44,0,1,1,0-4.87H126a2.44,2.44,0,0,1,0,4.87ZM80.19,39H115.8a2.44,2.44,0,0,1,0,4.87H80.19a2.44,2.44,0,0,1,0-4.87ZM126,55.11A2.43,2.43,0,0,1,126,60H70a2.43,2.43,0,1,1,0-4.86Z" transform="translate(-57.84)"/><path class="cls-3" d="M78.41,13.92v7.42a1.41,1.41,0,0,0,.42,1,1.47,1.47,0,0,0,1,.45h36.24a1.49,1.49,0,0,0,1.15-.58,1.42,1.42,0,0,0,.32-.89V13.91a1.52,1.52,0,0,0-.11-.57.89.89,0,0,0-.16-.22,1.41,1.41,0,0,0-1.2-.68h-5.8a6.65,6.65,0,0,1-4.73-2A6.07,6.07,0,0,1,104,7.35s0-.08,0-.12A5,5,0,0,1,103.84,6a7.17,7.17,0,0,0-.09-1.13,5.49,5.49,0,0,0-.13-.66A5.92,5.92,0,0,0,99.1.1a5.71,5.71,0,0,0-4,.72,7.24,7.24,0,0,0-.82.54,5.81,5.81,0,0,0-1.67,2.36,5.7,5.7,0,0,0-.43,2.13,6.67,6.67,0,0,1-1.89,4.76,6.21,6.21,0,0,1-4.42,1.83h-6a1.47,1.47,0,0,0-1.45,1.47Z" transform="translate(-57.84)"/></g></svg>