<svg id="nitification_alert" data-name="nitification &amp; alert" xmlns="http://www.w3.org/2000/svg" xmlns:xlink="http://www.w3.org/1999/xlink" viewBox="0 0 136.13 120"><defs><style>.cls-1{fill:none;}.cls-2{clip-path:url(#clip-path);}.cls-3{fill:#3b82f6;fill-rule:evenodd;}</style><clipPath id="clip-path" transform="translate(-29.94 0)"><rect class="cls-1" width="196" height="120"/></clipPath></defs><g class="cls-2"><path class="cls-3" d="M85.68,16.67A32.84,32.84,0,0,0,63.91,32c-4.09,8.29-10.4,18-15.14,26.22-1.4,2.43-2.5,3-4.71,4.49L36,67c-6.46,3.37-4.85,11.71.87,15l15.81,9.13.1.06.1.06,47.68,27.52c-.69,1.18,13.91,4.13,13.44-6.75l-.4-9.14a11.17,11.17,0,0,1,1.53-6.31l15.07-26.12a32.8,32.8,0,0,0,2.48-26.65c-6.17-19.21-27-31.39-46.94-27.09h0Zm32.84,56.69a2,2,0,0,1-3.38-2c5.84-10.1,9.4-16.69,3.9-28.19a2,2,0,0,1,3.52-1.68C128.68,54.32,125.06,62,118.52,73.36Z" transform="translate(-29.94 0)"/><path class="cls-3" d="M80.85,111.89,52.57,95.56a16.44,16.44,0,0,0,28.28,16.33Z" transform="translate(-29.94 0)"/><path class="cls-3" d="M124.19,23.83a11.21,11.21,0,0,0,1.31-1.08,10.85,10.85,0,1,0-18-10.43,9.79,9.79,0,0,0-.27,1.68,45.91,45.91,0,0,1,17,9.83Z" transform="translate(-29.94 0)"/><path class="cls-3" d="M162.16,64.6a2,2,0,0,1,3.9,0c.18,14.16-6.92,27.12-19.39,34a2,2,0,0,1-1.88-3.43A33.86,33.86,0,0,0,162.16,64.6Z" transform="translate(-29.94 0)"/><path class="cls-3" d="M147.35,65.12a2,2,0,0,1,3.9-.17c.38,9-4.26,16.41-11.95,20.8a2,2,0,0,1-1.93-3.39C143.8,78.69,147.67,72.62,147.35,65.12Z" transform="translate(-29.94 0)"/><path class="cls-3" d="M49.71.27a2,2,0,0,1,1.91,3.41C40.52,9.9,33.61,21.2,33.84,34a2,2,0,0,1-3.9.06A37.8,37.8,0,0,1,49.71.27Z" transform="translate(-29.94 0)"/><path class="cls-3" d="M56.78,13.3a2,2,0,0,1,1.8,3.47c-6.65,3.47-10,9.86-9.94,17.26a2,2,0,0,1-3.9,0c-.05-8.87,4.08-16.6,12-20.75Z" transform="translate(-29.94 0)"/></g></svg>