<svg width="1000" height="1000" viewBox="0 0 1000 1000" fill="none" xmlns="http://www.w3.org/2000/svg">
<g clip-path="url(#clip0_38_216)">
<path d="M999 1001.3H625.2V372.2C625.2 363.8 632 356.9 640.4 356.9H983.9C992.3 356.9 999.1 363.7 999.1 372.2V1001.3H999Z" fill="#740603"/>
<path d="M735.5 1002.4H394.4V526.4C394.4 504.1 412.5 486 434.8 486H695C717.3 486 735.4 504.1 735.4 526.4L735.5 1002.4Z" fill="#0D1521"/>
<path d="M499.7 1002.4H199.7V643.3C199.7 634.9 206.5 628.1 214.9 628.1H484.6C493 628.1 499.8 634.9 499.8 643.3V1002.4H499.7Z" fill="#740603"/>
<path d="M275.3 1001.7H1V765.1C1 742.8 19.1 724.7 41.4 724.7H234.8C257.1 724.7 275.2 742.8 275.2 765.1V1001.7H275.3Z" fill="#0D1521"/>
<path d="M106.8 723.1C106.8 722.8 106.8 722.6 106.7 722.3C102.7 706.3 82.5998 696.3 82.5998 696.3L77.4998 696.7C75.7998 696.8 74.2998 698 73.7998 699.7C70.0998 712.5 70.7998 720.4 71.4998 723.9C78.0998 724.4 91.5998 724.8 106.8 723.1Z" fill="#021530"/>
<path d="M71.5 723.8C71.9 725.1 72.8 726.1 74 726.3C83.3 728.3 98.1 726.7 104.4 725.9C105.8 725.7 106.8 724.5 106.8 723C91.6 724.8 78.1 724.4 71.5 723.8Z" fill="url(#paint0_linear_38_216)"/>
<path d="M79.0004 682.1L74.9004 701.2C75.2004 702.6 76.3004 703.7 77.6004 703.8C79.2004 703.9 81.5004 704 83.8004 703.7C85.9004 703.4 87.3004 701.3 86.9004 699.1L92.2004 682.1H79.0004Z" fill="url(#paint1_linear_38_216)"/>
<path d="M218.5 638.2C210.6 638 206.6 637.1 204.5 636.2C204.5 637 204.5 637.8 204.5 638.6C204.5 639.5 205.2 640.2 206 640.2L249.1 639.9C250.5 639.9 251.3 638.3 250.7 637C245 637.5 230.6 638.6 218.5 638.2Z" fill="url(#paint2_linear_38_216)"/>
<path d="M250.7 637C247.1 631.7 237.4 620.8 217.9 616.2L210.7 616C209.4 616 208.2 616.7 207.7 617.9C206.5 620.9 204.5 627.1 204.5 636.2C206.6 637.1 210.7 638 218.5 638.2C230.6 638.6 245 637.5 250.7 637Z" fill="#021530"/>
<path d="M212.6 602.9C212.5 603.6 210.9 614 210.3 618C210.2 619 210.6 619.9 211.4 620.2C212.9 620.8 215.2 621.6 217.5 621.8C218.7 621.9 219.9 621 220.2 619.7L224.6 604L212.6 602.9Z" fill="url(#paint3_linear_38_216)"/>
<path d="M123.9 496C123.9 496 113.6 511.4 110.2 533.7C107 554.2 80.1997 669.4 75.8997 687.7C75.5997 689.1 76.4997 690.5 77.7997 690.8C80.3997 691.4 84.6997 692.2 88.0997 692C89.8997 691.9 91.5997 690.8 92.2997 689.1L156.4 540.6C156.4 540.6 199.1 532.4 214.7 550.9C224.1 562 217.9 581.6 209.6 609.2C209.6 609.2 219.9 614.3 226.8 610.9C226.8 610.9 258.8 560.9 245.7 530.3C239.6 516.1 213.4 502.1 187.4 499.4L123.9 496Z" fill="#021530"/>
<path d="M123.9 496L139.3 358.8C139.3 358.8 206.2 358.8 249.1 382.8L193.6 498.6C190.6 504.8 184.4 508.8 177.5 508.8C165.7 508.7 146.1 506.6 123.9 496Z" fill="#740603"/>
<path d="M304.9 345.9C304.9 345.9 300.6 389.6 249.2 382.8C249.2 382.8 229.4 404.6 229 423.7C229 423.7 322.9 448 314.3 350.2L304.9 345.9Z" fill="#740603"/>
<path d="M117 480.6C117 480.6 123.9 468.6 134.2 470.3C144.5 472 149.6 482.3 149.6 482.3C149.6 482.3 139.3 487.4 132.4 490.9C125.6 494.3 113.6 490.8 117 480.6Z" fill="url(#paint4_linear_38_216)"/>
<path d="M137.6 401.6C137.6 401.6 50.1004 441.1 117 480.5L118.4 489.1C118.4 489.1 65.2004 496.8 62.9004 435.1C61.2004 388.8 139.2 358.8 139.2 358.8L137.6 401.6Z" fill="#740603"/>
<path d="M193.9 338.2L181.3 365.2C181.3 365.2 195.3 375.5 209.6 371.5L213.3 333.2L193.9 338.2Z" fill="url(#paint5_linear_38_216)"/>
<path d="M224.9 308.8C225.2 309.3 230.5 345.3 230.5 345.3L209.9 347.9L199.8 314.5C199.7 314.5 220.6 300.7 224.9 308.8Z" fill="url(#paint6_linear_38_216)"/>
<path d="M207.3 317.9C206.7 318.6 206.5 319.6 206.7 320.5L210.6 338.2C210.7 338.5 210.8 338.7 210.9 339C211.6 340.3 214.3 344.4 218.4 341.5C221.9 339 225.1 336.7 227.9 336.3C229.5 336 231.1 337.2 231.3 338.8C231.8 342.2 232.6 349 232.5 355.2C232.5 356.7 231.2 358 229.7 358.1C225.6 358.3 217.6 358.6 211 357.3C209.9 357.1 209 356.3 208.7 355.3C207.2 350.7 203.1 337.7 201.4 334.2C199.8 331 195 330.4 192.8 330.3C192 330.3 191.2 329.9 190.6 329.2C189 327.3 186.4 323 191.4 318.9C192.6 317.9 192.8 316 191.8 314.8C190 312.5 188.5 308.9 192.4 305.1C196.3 301.3 200.8 302.3 203.5 303.6C204.7 304.2 206.3 304 207.2 302.9C207.6 302.4 208.2 302.1 209 302.2C210.6 302.4 212.1 301.3 212.3 299.7C212.7 296.9 214.2 293.6 219.1 292.8C228.2 291.2 232.6 300.3 232.3 306.7C232.1 313.1 222.1 314.3 216.5 313.1C212.6 312.4 209 316 207.3 317.9Z" fill="#021530"/>
<path d="M202.9 340.8C202.9 340.8 202.9 329.7 198.4 328.6C193.9 327.5 189 330.7 192.8 337.4C197.4 345.7 202.9 340.8 202.9 340.8Z" fill="url(#paint7_linear_38_216)"/>
<path d="M234.5 318.5L376.9 296.2L375.2 340.8L234.5 328.7V318.5Z" fill="black"/>
<path d="M372 294.6C371.2 303.4 372 331.2 372.4 340.4C372.5 342.1 373.8 343.4 375.5 343.4H377.9C379.8 343.4 381.4 342 381.7 340.2C384.4 323.8 385.7 308.4 384.8 294.6C384.7 293.1 383.4 291.9 381.9 291.9H375C373.4 291.9 372.1 293 372 294.6Z" fill="url(#paint8_linear_38_216)"/>
<path d="M237.3 315.9H233C232.3 315.9 231.8 316.4 231.6 317C230.7 321.2 231.4 327.5 231.7 330.1C231.8 330.8 232.4 331.3 233.1 331.3H235.8C236.5 331.3 237.1 330.8 237.2 330L238.6 317.4C238.7 316.6 238.1 315.9 237.3 315.9Z" fill="url(#paint9_linear_38_216)"/>
<path d="M304.9 345.9C304.9 345.9 305.7 336 307 334.9C308.3 333.9 318.6 323.6 320.3 323.6C322 323.6 323.7 327 320.3 328.7C316.9 330.4 316 335.7 316 335.7L325.3 336.5C325.3 336.5 318.6 349.3 315.1 351C311.7 352.8 304.9 345.9 304.9 345.9Z" fill="url(#paint10_linear_38_216)"/>
<path d="M823.7 253.8C806.4 253.8 790.2 258.6 776.4 267V271.5H871V267C857.2 258.6 841 253.8 823.7 253.8Z" fill="#FED100"/>
<path d="M883.6 271.5H763.9V346.3H883.6V271.5Z" fill="#97512C"/>
<path d="M891.801 346.3H755.601V357.6H891.801V346.3Z" fill="#7C3E25"/>
<path d="M833.1 180.4C830.2 181.5 827 182.1 823.6 182.1C820.3 182.1 817.1 181.5 814.2 180.4C814.2 174.9 811.5 169.1 806.2 165L806.1 164.9C787.5 152.4 772.5 135 763 114.5C746.5 79.0001 737.2 39.4001 737.2 -2.3999H910.2C910.2 39.4001 900.9 79.0001 884.3 114.5C874.8 135 859.8 152.4 841.2 164.9L841.1 165C835.8 169 833.1 174.8 833.1 180.4Z" fill="#FED100"/>
<path d="M831.701 180.8C831.701 186 834.001 190.4 837.701 193.6C839.001 194.8 839.801 196.4 839.801 198.3C839.801 201.8 836.901 204.7 833.401 204.7C833.301 204.7 833.301 204.7 833.201 204.7H814.201C814.101 204.7 814.101 204.7 814.001 204.7C810.501 204.7 807.601 201.8 807.601 198.3C807.601 196.4 808.401 194.8 809.701 193.6C813.401 190.4 815.701 186 815.701 180.8H831.701Z" fill="#FED100"/>
<path d="M839.801 259.3C834.701 260.8 829.301 261.6 823.701 261.6C818.101 261.6 812.701 260.8 807.601 259.3V259.1V248.5C811.601 239 813.801 228.6 813.801 217.7C813.801 213.2 813.401 208.8 812.701 204.5H834.601C833.901 208.8 833.501 213.2 833.501 217.7C833.501 228.6 835.701 239 839.701 248.5V259.1L839.801 259.3Z" fill="#FFDB31"/>
<path d="M762.6 162.8C758.2 162.8 753.9 161.2 750.6 158.4C747.9 156.1 747.6 152 749.9 149.3C752.2 146.6 756.3 146.3 759 148.6C759.7 149.2 760.9 149.9 762.6 149.9C765.7 149.9 768.2 147.4 768.2 144.3C768.2 143.9 768.1 143.4 768.1 143C767.2 139.9 765.6 137.1 763.3 134.8C762.7 134.3 762.2 133.8 761.9 133.5L705.5 80.6C686.8 63.1 673.1 35.6 684.6 13.8C689.5 4.5 699.3 -1.6 709.8 -2C710 -2 710.1 -2 710.3 -2H710.8C711 -2 711.1 -2 711.3 -2C726.9 -1.5 739.4 11.4 739.4 27.1C739.4 34.4 736.7 41.4 731.7 46.8C729.3 49.4 725.2 49.6 722.6 47.2C720 44.8 719.8 40.7 722.2 38.1C725 35.1 726.5 31.2 726.5 27.1C726.5 18.2 719.4 11 710.5 10.9C704.5 11 698.8 14.5 696 19.8C687.7 35.5 699.7 57.5 714.3 71.2L770.9 124.3C771.1 124.5 771.2 124.6 771.3 124.7C771.4 124.8 771.6 124.9 771.7 125.1C775.9 129.1 778.9 134.1 780.5 139.6C780.5 139.7 780.5 139.7 780.5 139.8C780.9 141.3 781.1 142.8 781.1 144.3C781 154.5 772.7 162.8 762.6 162.8Z" fill="#FED100"/>
<path d="M866.301 144.3C866.301 142.8 866.501 141.3 866.901 139.8C866.901 139.7 866.901 139.7 866.901 139.6C868.401 134.1 871.501 129 875.701 125.1C875.801 125 876.001 124.8 876.101 124.7C876.201 124.6 876.301 124.4 876.501 124.3L933.101 71.2C947.701 57.5 959.701 35.5 951.401 19.8C948.601 14.5 942.901 11 936.901 10.9C928.101 11 920.901 18.3 920.901 27.1C920.901 31.2 922.401 35.1 925.201 38.1C927.601 40.7 927.401 44.8 924.801 47.2C922.201 49.6 918.101 49.4 915.701 46.8C910.801 41.4 908.001 34.4 908.001 27.1C908.001 11.4 920.501 -1.5 936.101 -2C936.301 -2 936.401 -2 936.601 -2H937.101C937.301 -2 937.401 -2 937.601 -2C948.101 -1.6 957.901 4.5 962.801 13.8C974.301 35.6 960.601 63.1 941.901 80.6L885.501 133.5C885.201 133.8 884.801 134.3 884.101 134.8C881.801 137.1 880.201 139.9 879.301 143C879.201 143.4 879.201 143.9 879.201 144.3C879.201 147.4 881.701 149.9 884.801 149.9C886.501 149.9 887.701 149.2 888.401 148.6C891.101 146.3 895.201 146.6 897.501 149.3C899.801 152 899.501 156.1 896.801 158.4C893.501 161.3 889.201 162.8 884.801 162.8C874.601 162.8 866.301 154.5 866.301 144.3Z" fill="#FED100"/>
<path d="M773.901 5.5H744.601C744.601 35.3 750.401 63.8 761.001 89.9C759.401 81.9 758.601 73.7 758.601 65.3C758.601 43.6 764.201 23.2 773.901 5.5Z" fill="#FFDF5A"/>
<path d="M763.9 346.3H883.6V271.5C883.5 271.5 843.5 346.3 763.9 346.3Z" fill="#8D492B"/>
<path d="M867.401 288.8H780.101V331.5H867.401V288.8Z" fill="#FED100"/>
<path d="M689.4 22.3C694.6 12.4 705.1 5.9 716.2 5.5C716.4 5.5 716.5 5.5 716.7 5.5H717.2C717.4 5.5 717.5 5.5 717.7 5.5C721.1 5.6 724.3 6.3 727.3 7.4C722.8 3.3 717 0.7 710.5 0.5C710.4 0.5 710.2 0.5 710.1 0.5H709.6C709.5 0.5 709.3 0.5 709.2 0.5C699.8 0.8 691 6.3 686.6 14.6C681.9 23.6 681.9 33.6 684.9 43.4C684.6 36.2 685.9 29 689.4 22.3Z" fill="#FFDF5A"/>
<path d="M781 142.5C788.3 151.1 796.8 158.6 806.2 165L806.3 165.1C811.6 169.2 814.3 174.9 814.3 180.5C817.2 181.6 820.4 182.2 823.7 182.2C827 182.2 830.2 181.6 833.2 180.5C833.2 175 835.9 169.2 841.2 165.1L841.3 165C859.9 152.5 874.9 135.1 884.4 114.6C900.9 79.0001 910.2 39.4001 910.2 -2.3999C872 149 781.4 142.5 781 142.5Z" fill="#FCC200"/>
<path d="M863.515 86.8285C867.081 64.8586 852.161 44.1579 830.191 40.5924C808.221 37.0268 787.521 51.9465 783.955 73.9164C780.389 95.8864 795.309 116.587 817.279 120.153C839.249 123.718 859.95 108.798 863.515 86.8285Z" fill="#FED100"/>
</g>
<defs>
<linearGradient id="paint0_linear_38_216" x1="160.743" y1="667.928" x2="30.2129" y2="770.421" gradientUnits="userSpaceOnUse">
<stop stop-color="#4F52FF"/>
<stop offset="1" stop-color="#4042E2"/>
</linearGradient>
<linearGradient id="paint1_linear_38_216" x1="86.8852" y1="662.547" x2="78.4526" y2="736.139" gradientUnits="userSpaceOnUse">
<stop stop-color="#FEBBBA"/>
<stop offset="1" stop-color="#FF928E"/>
</linearGradient>
<linearGradient id="paint2_linear_38_216" x1="256.698" y1="614.806" x2="139.961" y2="706.468" gradientUnits="userSpaceOnUse">
<stop stop-color="#4F52FF"/>
<stop offset="1" stop-color="#4042E2"/>
</linearGradient>
<linearGradient id="paint3_linear_38_216" x1="221.605" y1="598.59" x2="201.266" y2="648.442" gradientUnits="userSpaceOnUse">
<stop stop-color="#FEBBBA"/>
<stop offset="1" stop-color="#FF928E"/>
</linearGradient>
<linearGradient id="paint4_linear_38_216" x1="148.716" y1="465.163" x2="79.2464" y2="536.348" gradientUnits="userSpaceOnUse">
<stop stop-color="#FEBBBA"/>
<stop offset="1" stop-color="#FF928E"/>
</linearGradient>
<linearGradient id="paint5_linear_38_216" x1="219.775" y1="326.561" x2="147.362" y2="440.208" gradientUnits="userSpaceOnUse">
<stop stop-color="#FEBBBA"/>
<stop offset="1" stop-color="#FF928E"/>
</linearGradient>
<linearGradient id="paint6_linear_38_216" x1="217.829" y1="312.918" x2="207.035" y2="381.334" gradientUnits="userSpaceOnUse">
<stop stop-color="#FEBBBA"/>
<stop offset="1" stop-color="#FF928E"/>
</linearGradient>
<linearGradient id="paint7_linear_38_216" x1="184.493" y1="380.342" x2="197.838" y2="334.24" gradientUnits="userSpaceOnUse">
<stop stop-color="#FEBBBA"/>
<stop offset="1" stop-color="#FF928E"/>
</linearGradient>
<linearGradient id="paint8_linear_38_216" x1="494.672" y1="210.875" x2="433.967" y2="265.759" gradientUnits="userSpaceOnUse">
<stop stop-color="#09005D"/>
<stop offset="1" stop-color="#1A0F91"/>
</linearGradient>
<linearGradient id="paint9_linear_38_216" x1="240.856" y1="314.075" x2="206.55" y2="364.677" gradientUnits="userSpaceOnUse">
<stop stop-color="#4F52FF"/>
<stop offset="1" stop-color="#4042E2"/>
</linearGradient>
<linearGradient id="paint10_linear_38_216" x1="304.865" y1="337.45" x2="325.328" y2="337.45" gradientUnits="userSpaceOnUse">
<stop stop-color="#FEBBBA"/>
<stop offset="1" stop-color="#FF928E"/>
</linearGradient>
<clipPath id="clip0_38_216">
<rect width="1000" height="1000" fill="white"/>
</clipPath>
</defs>
</svg>
