<?xml version="1.0" encoding="UTF-8"?>
<svg id="Layer_2" xmlns="http://www.w3.org/2000/svg" xmlns:xlink="http://www.w3.org/1999/xlink" viewBox="0 0 50 31">
  <defs>
    <style>
      .cls-1 {
        fill: #fff;
      }

      .cls-2 {
        fill: none;
      }

      .cls-3 {
        clip-path: url(#clippath);
      }
    </style>
    <clipPath id="clippath">
      <rect class="cls-2" width="50" height="31"/>
    </clipPath>
  </defs>
  <g id="Layer_1-2" data-name="Layer_1">
    <g class="cls-3">
      <path class="cls-1" d="M8.35,0h33.31c.76,0,1.45.31,1.95.81.5.5.81,1.19.81,1.95v25.49c0,.76-.31,1.45-.81,1.95-.5.5-1.19.81-1.95.81H8.35c-.76,0-1.45-.31-1.95-.81-.5-.5-.81-1.19-.81-1.95V2.76c0-.76.31-1.45.81-1.95C6.9.31,7.59,0,8.35,0ZM8.8,14.42c-.35,0-.63-.28-.63-.63s.28-.63.63-.63h4.76c.35,0,.63.28.63.63s-.28.63-.63.63h-4.76ZM8.8,11.84c-.35,0-.63-.28-.63-.63s.28-.63.63-.63h7.04c.35,0,.63.28.63.63s-.28.63-.63.63h-7.04ZM8.8,9.26c-.35,0-.63-.28-.63-.63s.28-.63.63-.63h8.21c.35,0,.63.28.63.63s-.28.63-.63.63h-8.21ZM30.91,10.98l4.65-1.83c0-.06,0-.11,0-.17,0-.59.24-1.13.63-1.51.39-.39.92-.63,1.51-.63s1.12.24,1.51.63h0c.39.39.63.93.63,1.51s-.24,1.13-.63,1.51l-.04.04c-.38.37-.9.59-1.47.59s-1.13-.24-1.51-.63c-.06-.06-.11-.12-.16-.18l-4.64,1.83c0,.06,0,.11,0,.17,0,.59-.24,1.13-.63,1.51l-.04.04c-.38.37-.9.59-1.47.59s-1.13-.24-1.51-.63c-.06-.06-.11-.12-.16-.18l-4.64,1.83c0,.06,0,.11,0,.17,0,.59-.24,1.13-.63,1.51-.39.39-.92.63-1.51.63s-1.12-.24-1.51-.63h0c-.06-.06-.11-.12-.16-.18l-4.65,1.83c0,.06,0,.11,0,.17,0,.59-.24,1.13-.63,1.51-.39.39-.92.63-1.51.63s-1.12-.24-1.51-.63h0c-.39-.39-.63-.93-.63-1.51s.24-1.13.63-1.51l.04-.04c.38-.37.9-.59,1.47-.59s1.13.24,1.51.63c.06.06.11.12.16.18l4.64-1.83c0-.06,0-.11,0-.17,0-.59.24-1.12.63-1.51h0c.39-.39.92-.63,1.51-.63s1.13.24,1.51.63l.04.04s.08.09.12.14l4.65-1.83c0-.06,0-.11,0-.17,0-.59.24-1.13.63-1.51.39-.39.92-.63,1.51-.63s1.12.24,1.51.63h0c.06.06.11.12.16.18h0ZM12.94,18.33c-.16-.16-.38-.26-.63-.26s-.45.09-.6.23l-.02.03c-.16.16-.26.38-.26.63s.1.47.26.63c.16.16.38.26.63.26s.47-.1.63-.26c.16-.16.26-.38.26-.63s-.1-.47-.26-.63ZM21.4,15.01c-.16-.16-.38-.26-.63-.26s-.47.1-.63.26c-.16.16-.26.38-.26.63s.1.47.26.63c.16.16.38.26.63.26s.47-.1.63-.26c.16-.16.26-.38.26-.63,0-.23-.09-.45-.23-.6l-.03-.02ZM29.86,11.68c-.16-.16-.38-.26-.63-.26s-.47.1-.63.26c-.16.16-.26.38-.26.63s.1.47.26.63c.16.16.38.26.63.26s.45-.09.6-.23l.02-.03c.16-.16.26-.38.26-.63,0-.11-.02-.22-.06-.31h0s0-.01,0-.01h0c-.05-.12-.11-.22-.2-.3h0ZM38.32,8.36c-.16-.16-.38-.26-.63-.26s-.47.1-.63.26c-.16.16-.26.38-.26.63s.1.47.26.63c.16.16.38.26.63.26s.45-.09.6-.23l.02-.03c.16-.16.26-.38.26-.63s-.1-.47-.26-.63h0ZM35.41,14.02h4.55c.35,0,.63.28.63.63v12.95c0,.35-.28.63-.63.63h-4.55c-.35,0-.63-.28-.63-.63v-12.95c0-.35.28-.63.63-.63ZM39.34,15.27h-3.3v11.7h3.3v-11.7ZM26.96,17.29h4.55c.35,0,.63.28.63.63v9.68c0,.35-.28.63-.63.63h-4.55c-.35,0-.63-.28-.63-.63v-9.68c0-.35.28-.63.63-.63ZM30.88,18.54h-3.3v8.43h3.3v-8.43ZM18.5,19.91h4.55c.35,0,.63.28.63.63v7.06c0,.35-.28.63-.63.63h-4.55c-.35,0-.63-.28-.63-.63v-7.06c0-.35.28-.63.63-.63ZM22.42,21.17h-3.3v5.81h3.3v-5.81ZM10.04,22.25h4.55c.35,0,.63.28.63.63v4.72c0,.35-.28.63-.63.63h-4.55c-.35,0-.63-.28-.63-.63v-4.72c0-.35.28-.63.63-.63ZM13.97,23.5h-3.3v3.47h3.3v-3.47ZM23.16,3.74c-.35,0-.63-.28-.63-.63s.28-.63.63-.63h3.56c.35,0,.63.28.63.63s-.28.63-.63.63h-3.56ZM16.16,3.74c-.35,0-.63-.28-.63-.63s.28-.63.63-.63h3.56c.35,0,.63.28.63.63s-.28.63-.63.63h-3.56ZM9.16,3.74c-.35,0-.63-.28-.63-.63s.28-.63.63-.63h3.56c.35,0,.63.28.63.63s-.28.63-.63.63h-3.56ZM6.85,4.85h36.31v-2.09c0-.41-.17-.79-.44-1.06-.27-.27-.65-.44-1.06-.44H8.35c-.41,0-.79.17-1.06.44-.27.27-.44.65-.44,1.06v2.09h0ZM43.16,6.1H6.85v22.14c0,.41.17.79.44,1.06.27.27.65.44,1.06.44h33.31c.41,0,.79-.17,1.06-.44.27-.27.44-.65.44-1.06V6.1h0Z"/>
    </g>
  </g>
</svg>