<?xml version="1.0" encoding="UTF-8"?>
<svg id="Layer_2" xmlns="http://www.w3.org/2000/svg" xmlns:xlink="http://www.w3.org/1999/xlink" viewBox="0 0 50 31">
  <defs>
    <style>
      .cls-1 {
        fill: #fff;
      }

      .cls-2 {
        fill: none;
      }

      .cls-3 {
        clip-path: url(#clippath);
      }
    </style>
    <clipPath id="clippath">
      <rect class="cls-2" width="50" height="31"/>
    </clipPath>
  </defs>
  <g id="Layer_1-2" data-name="Layer_1">
    <g class="cls-3">
      <path class="cls-1" d="M14.3,31c-.22,0-.42-.08-.57-.24-.15-.15-.24-.36-.24-.57,0-2.77.74-5.49,2.14-7.87,1.4-2.39,3.41-4.36,5.83-5.71.12-.07.26-.11.4-.11.15,0,.3.04.43.12.25.15.41.43.41.73,0,.3-.17.57-.43.71-1.97,1.1-3.65,2.68-4.88,4.57-1.23,1.89-1.99,4.07-2.2,6.31l-.05.49h27.85l-.04-.49c-.29-3.19-1.69-6.19-3.94-8.47-.2-.21-.28-.51-.2-.78.08-.28.3-.5.58-.57.07-.02.14-.03.2-.03.22,0,.43.09.58.24,1.42,1.44,2.53,3.12,3.3,4.99.77,1.87,1.16,3.85,1.16,5.87,0,.21-.08.42-.23.57-.15.15-.35.24-.56.24H14.3ZM6.2,26.71c-.22,0-.42-.08-.58-.24-.15-.15-.24-.36-.24-.57,0-2.38.64-4.73,1.85-6.79,1.21-2.06,2.95-3.76,5.03-4.93.13-.07.27-.11.41-.11s.29.04.41.11c.25.15.41.42.41.71,0,.29-.16.56-.41.71-1.63.91-3.04,2.22-4.07,3.78-1.03,1.56-1.69,3.37-1.9,5.23l-.06.5h4.21c.29,0,.56.15.7.4.14.25.14.56,0,.81-.14.25-.41.4-.7.4h-.04s-5.01,0-5.01,0ZM36.59,18.36c-.14,0-.27-.04-.38-.11h-.01s-.34-.19-.34-.19c-.18-.11-.31-.27-.37-.47-.06-.2-.04-.41.06-.6.1-.18.27-.31.47-.37.07-.02.15-.03.22-.03.13,0,.26.03.37.09l.39.22c.2.12.34.33.38.56.04.24-.03.47-.18.66-.09.1-.2.18-.33.23h-.29ZM28.43,16.28c-1.93-.15-3.72-.98-5.11-2.37-1.54-1.54-2.38-3.59-2.38-5.77,0-2.18.85-4.22,2.39-5.76,1.54-1.54,3.59-2.39,5.76-2.39,2.18,0,4.23.85,5.77,2.39,1.54,1.54,2.39,3.59,2.39,5.76-.01,2.18-.87,4.22-2.42,5.76-1.54,1.53-3.58,2.37-5.76,2.37h-.65ZM27.89,1.73c-1.29.24-2.48.86-3.43,1.81-1.23,1.24-1.91,2.88-1.91,4.62,0,1.75.68,3.39,1.92,4.62,1.23,1.23,2.88,1.91,4.62,1.91,1.75,0,3.39-.68,4.62-1.92,1.23-1.23,1.91-2.88,1.91-4.62,0-1.73-.7-3.43-1.92-4.65-1.24-1.23-2.88-1.91-4.62-1.91h-1.36s.17.13.17.13ZM18.85,14.15c-1.27-.04-2.52-.42-3.59-1.1-1.07-.68-1.95-1.65-2.52-2.79-.57-1.14-.83-2.41-.74-3.68.09-1.27.52-2.5,1.25-3.54.73-1.05,1.73-1.88,2.89-2.4C17.06.22,18.04,0,19.06,0c.26,0,.52.01.78.04.29.04.53.23.64.5.11.27.07.58-.11.81-.16.2-.39.32-.65.32-.04,0-.08,0-.11,0h-.02s-.02,0-.02,0c-.13,0-.26-.01-.39-.01-1.82,0-3.51.9-4.53,2.41-1.09,1.61-1.24,3.71-.39,5.46.85,1.75,2.59,2.93,4.53,3.06h.02s.02,0,.02,0c.29,0,.56.15.7.4.14.25.14.56,0,.81-.1.17-.26.3-.44.36h-.25Z"/>
    </g>
  </g>
</svg>