<?xml version="1.0" encoding="UTF-8"?>
<svg id="Layer_2" xmlns="http://www.w3.org/2000/svg" xmlns:xlink="http://www.w3.org/1999/xlink" viewBox="0 0 50 31">
  <defs>
    <style>
      .cls-1 {
        fill: #fff;
      }

      .cls-2 {
        fill: none;
      }

      .cls-3 {
        clip-path: url(#clippath);
      }
    </style>
    <clipPath id="clippath">
      <rect class="cls-2" width="50" height="31"/>
    </clipPath>
  </defs>
  <g id="Layer_1-2" data-name="Layer_1">
    <g class="cls-3">
      <path class="cls-1" d="M12.83,13.69h2.12c.21,0,.38-.17.38-.38v-.49c.61-.45.98-1.18.98-1.93,0-1.33-1.08-2.41-2.41-2.41s-2.41,1.08-2.41,2.41c0,.76.37,1.48.98,1.93v.49c0,.21.17.38.38.38h0ZM12.23,10.89c0-.92.74-1.66,1.66-1.66s1.66.75,1.66,1.66c0,.57-.31,1.11-.8,1.41-.11.07-.18.19-.18.32v.31h-.31v-1.04h.07c.21,0,.38-.17.38-.38s-.17-.38-.38-.38h-.89c-.21,0-.38.17-.38.38s.17.38.38.38h.07v1.04h-.31v-.31c0-.13-.07-.25-.18-.32-.49-.3-.79-.84-.79-1.41ZM13.51,7.59v-.62c0-.21.17-.38.38-.38s.38.17.38.38v.62c0,.21-.17.38-.38.38s-.38-.17-.38-.38ZM10.5,11.35h-.62c-.21,0-.38-.17-.38-.38s.17-.38.38-.38h.63c.21,0,.38.17.38.38s-.17.38-.38.38h0ZM16.99,8.41l-.45.44c-.07.07-.17.11-.26.11s-.19-.04-.27-.11c-.15-.15-.14-.39,0-.53l.45-.44c.15-.15.39-.14.53,0,.15.15.14.38,0,.53h0ZM10.79,8.4c-.15-.15-.15-.38,0-.53s.38-.15.53,0l.44.44c.15.15.15.38,0,.53-.07.07-.17.11-.27.11s-.19-.04-.27-.11l-.44-.44ZM16.55,13.11l.45.44c.15.15.15.38,0,.53-.07.08-.17.11-.27.11s-.19-.04-.26-.11l-.45-.44c-.15-.15-.15-.38,0-.53.14-.15.38-.15.53,0h0ZM11.76,13.11c.15.15.15.38,0,.53l-.44.44c-.07.07-.17.11-.27.11s-.19-.04-.27-.11c-.15-.15-.15-.38,0-.53l.44-.44c.15-.15.38-.15.53,0h0ZM17.28,11.35c-.21,0-.38-.17-.38-.38s.17-.38.38-.38h.62c.21,0,.38.17.38.38s-.17.38-.38.38h-.62ZM12.54,14.36c0-.21.17-.38.38-.38h1.95c.21,0,.38.17.38.38s-.17.38-.38.38h-1.95c-.21,0-.38-.17-.38-.38ZM14.28,15.03c.21,0,.38.17.38.38s-.17.38-.38.38h-.78c-.21,0-.38-.17-.38-.38s.17-.38.38-.38h.78ZM36.39,9.36c-1.15,0-2.08.93-2.08,2.08s.93,2.09,2.08,2.09,2.08-.94,2.08-2.09-.93-2.08-2.08-2.08ZM36.39,12.78c-.73,0-1.33-.6-1.33-1.34s.6-1.33,1.33-1.33,1.33.6,1.33,1.33-.59,1.34-1.33,1.34ZM40.12,10.46h-.5c-.06-.21-.15-.41-.25-.61l.35-.35c.15-.15.15-.38,0-.53l-.86-.86c-.07-.07-.17-.11-.27-.11h0c-.1,0-.2.04-.27.11l-.35.35c-.19-.1-.4-.19-.61-.26v-.49c0-.21-.17-.38-.38-.38h-1.22c-.21,0-.38.17-.38.38v.49c-.21.06-.41.15-.61.26l-.35-.35c-.07-.07-.17-.11-.27-.11h0c-.1,0-.2.04-.27.11l-.86.86c-.15.15-.15.38,0,.53l.34.34c-.1.2-.19.4-.25.61h-.5c-.21,0-.38.17-.38.38v1.21c0,.21.17.38.38.38h.5c.06.21.15.42.25.61l-.34.34c-.15.15-.15.38,0,.53l.86.86c.07.07.17.11.27.11h0c.1,0,.2-.04.27-.11l.35-.35c.19.1.4.19.61.26v.49c0,.21.17.38.38.38h1.22c.21,0,.38-.17.38-.38v-.49c.21-.07.41-.15.61-.26l.35.35c.07.07.17.11.27.11h0c.1,0,.2-.04.27-.11l.86-.86c.15-.15.15-.38,0-.53l-.35-.35c.11-.2.19-.4.25-.61h.5c.21,0,.38-.17.38-.38v-1.21c0-.21-.17-.38-.38-.38h0ZM39.75,11.68h-.41c-.18,0-.33.13-.37.3-.06.31-.19.63-.38.92-.1.15-.08.34.05.47l.29.29-.33.33-.29-.29c-.13-.13-.33-.15-.47-.05-.28.18-.58.31-.91.38-.17.04-.3.19-.3.37v.41h-.47v-.41c0-.18-.12-.33-.3-.37-.33-.07-.64-.2-.91-.38-.15-.1-.35-.08-.47.05l-.29.29-.33-.33.29-.29c.13-.13.15-.33.05-.47-.18-.27-.31-.59-.38-.91-.03-.18-.19-.3-.37-.3h-.41v-.46h.41c.18,0,.33-.13.37-.3.06-.32.19-.64.38-.91.1-.15.08-.35-.05-.47l-.29-.29.33-.33.29.29c.13.13.33.15.47.05.28-.18.58-.31.91-.38.17-.04.3-.19.3-.37v-.4h.47v.4c0,.18.12.33.3.37.33.07.64.2.91.38.15.1.35.08.47-.05l.29-.29.33.33-.29.29c-.13.13-.15.32-.05.47.19.29.32.61.38.92.03.18.19.3.37.3h.41v.46ZM25,6.78c1.86,0,3.38-1.52,3.38-3.39,0-.73-.24-1.41-.63-1.97l.18-.23c.13-.17.1-.4-.07-.53-.16-.13-.4-.1-.53.07l-.09.12c-.6-.53-1.38-.85-2.24-.85-1.87,0-3.39,1.52-3.39,3.39s1.52,3.39,3.39,3.39h0ZM25,.75c.69,0,1.31.27,1.78.7l-1.7,2.21-.77-.89c-.14-.16-.37-.17-.53-.04-.16.14-.17.37-.04.53l1.07,1.24c.07.08.17.13.28.13h.01c.11,0,.22-.06.29-.15l1.87-2.43c.23.39.37.85.37,1.34,0,1.45-1.18,2.64-2.63,2.64s-2.64-1.18-2.64-2.64,1.18-2.64,2.64-2.64h0ZM28.61,3.93c.07-.2.28-.3.48-.23,1.93.67,3.67,1.81,5.06,3.3.14.15.13.39-.02.53-.07.07-.16.1-.26.1-.1,0-.2-.04-.28-.12-1.3-1.4-2.94-2.47-4.75-3.1-.2-.07-.3-.28-.23-.48h0ZM15.43,8.06c-.16-.13-.18-.37-.05-.53,1.46-1.77,3.38-3.09,5.53-3.84.2-.07.41.04.48.23.07.2-.04.41-.23.48-2.02.7-3.82,1.94-5.19,3.61-.07.09-.18.14-.29.14-.08,0-.17-.03-.24-.09h0ZM14.79,22.69c-1.3-1.85-2.08-4.01-2.24-6.25-.01-.21.14-.39.35-.4.21-.02.39.14.4.35.15,2.1.88,4.13,2.11,5.87.12.17.08.4-.09.52-.07.05-.14.07-.22.07-.12,0-.23-.05-.31-.16h0ZM37.46,16.21c-.13,2.34-.91,4.58-2.26,6.49-.07.1-.19.16-.31.16-.08,0-.15-.02-.22-.07-.17-.12-.21-.36-.09-.52,1.27-1.79,2-3.89,2.12-6.09.01-.21.19-.36.4-.36.21,0,.37.19.36.39h0ZM25,8.38c-2.87,0-5.2,2.33-5.2,5.2s2.33,5.19,5.2,5.19,5.19-2.33,5.19-5.19-2.33-5.2-5.19-5.2ZM25,18.02c-2.45,0-4.45-1.99-4.45-4.44s2-4.45,4.45-4.45,4.44,2,4.44,4.45-1.99,4.44-4.44,4.44ZM34.85,24.46c-.57-2.59-2.74-4.52-5.53-4.91-.09-.01-.18,0-.26.06-1.21.81-2.61,1.24-4.05,1.24s-2.85-.43-4.06-1.24c-.08-.05-.17-.07-.26-.06-2.79.39-4.96,2.32-5.52,4.91l-1.04,4.68c-.1.48.02.92.35,1.3.33.36.76.56,1.26.56h18.54c.5,0,.94-.19,1.27-.56.32-.37.44-.82.34-1.3l-1.03-4.68ZM34.97,29.94c-.18.2-.42.31-.7.31H15.73c-.28,0-.52-.1-.7-.3-.17-.2-.23-.41-.18-.65l1.03-4.68c.49-2.24,2.35-3.92,4.76-4.31,1.31.84,2.81,1.29,4.36,1.29s3.05-.44,4.35-1.28c2.41.39,4.27,2.07,4.76,4.31l1.03,4.67c.05.24,0,.45-.17.65h0Z"/>
    </g>
  </g>
</svg>