<?xml version="1.0" encoding="UTF-8"?>
<svg id="Layer_2" xmlns="http://www.w3.org/2000/svg" xmlns:xlink="http://www.w3.org/1999/xlink" viewBox="0 0 50 31">
  <defs>
    <style>
      .cls-1 {
        fill: #fff;
        fill-rule: evenodd;
      }

      .cls-2 {
        fill: none;
      }

      .cls-3 {
        clip-path: url(#clippath);
      }
    </style>
    <clipPath id="clippath">
      <rect class="cls-2" width="50" height="31"/>
    </clipPath>
  </defs>
  <g id="Layer_1-2" data-name="Layer_1">
    <g class="cls-3">
      <path class="cls-1" d="M27.19,10.98c2.76,0,5-2.24,5-5S29.95.97,27.19.97s-5,2.24-5,5,2.24,5,5.01,5h0ZM39.17,15.54c.27,0,.48.22.48.48s-.22.48-.48.48h-.74c-.27,0-.48-.22-.48-.48s.22-.48.48-.48h.74ZM36.89,12.55c.13-.23.43-.31.66-.18s.31.43.18.66l-.37.64c-.13.23-.43.31-.66.18-.23-.13-.31-.43-.18-.66l.37-.64ZM38.81,13.52l-1.16.67c-.23.13-.31.43-.18.66.13.23.43.31.66.18l1.16-.67c.23-.13.31-.43.18-.66s-.43-.31-.66-.18ZM17.86,12.32c-.27,0-.48-.22-.48-.48s.22-.48.48-.48h.74c.27,0,.48.22.48.48s-.22.48-.48.48h-.74ZM19.31,8.84c-.13-.23-.06-.53.18-.66.23-.13.53-.06.66.18l.37.64c.13.23.06.53-.18.66s-.53.06-.66-.18l-.37-.64ZM17.74,10.17l1.16.67c.23.13.53.06.66-.18.13-.23.06-.53-.18-.66l-1.16-.67c-.23-.13-.53-.06-.66.18-.13.23-.06.53.18.66ZM19.93,15.53v-4.07c0-.27.22-.48.48-.48h3.51c-3.17-2.07-3.65-6.54-.96-9.23,2.33-2.33,6.12-2.33,8.45,0,2.69,2.69,2.21,7.16-.96,9.23h3.51c.27,0,.48.22.48.48v3.58h2.05c.27,0,.48.22.48.48v4.07c0,.27-.22.48-.48.48h-2.05v1.82c1.45.17,2.32,2.5.82,3.19l-11.57,5.38c-1.34.62-2.73.7-4.14.21l-4.97-1.71h-3.76c-.27,0-.48-.22-.48-.48s.22-.48.48-.48h3.84c.07,0,.14.02.2.04l5.01,1.73c1.17.4,2.3.34,3.42-.18l11.57-5.38c.41-.19.17-.81-.08-1.1-.17-.19-.4-.31-.63-.24l-7.37,2.48c-.29.32-.69.52-1.22.52h-5.46c-.27,0-.48-.22-.48-.48s.22-.48.48-.48h5.46c1.01,0,1-1.88,0-1.88h-2.87c-.09,0-.18-.03-.25-.07l-3.84-1.94c-.66-.34-1.38-.3-2.01.09l-1.75,1.1c-.08.05-.17.07-.26.07h-3.75c-.27,0-.48-.21-.48-.48s.22-.48.48-.48h3.62l1.63-1.02c.91-.57,1.99-.62,2.95-.14l.9.45v-1.03c0-.27.22-.48.48-.48h2.05v-3.1h-2.05c-.27,0-.48-.22-.48-.48h0ZM23.43,16.01v3.1h12.58v-3.1h-12.58ZM20.9,11.95v3.1h12.58v-3.1h-12.58ZM33.48,22.08v-2h-12.58v1.03l1.9.96h2.76c1.2,0,1.79,1.08,1.71,2.11l6.22-2.1h0ZM26.74,3.26v-.64h.97v.65c.52.14.98.5,1.17,1.09l-.92.3c-.24-.74-1.56-.6-1.56.18,0,1.17,2.56.11,2.56,2.3,0,.8-.55,1.37-1.25,1.56v.64h-.97v-.62c-.56-.13-1.04-.5-1.24-1.12l.92-.29c.23.75,1.56.61,1.56-.17,0-1.17-2.56-.11-2.56-2.3,0-.83.58-1.4,1.31-1.57h0Z"/>
    </g>
  </g>
</svg>