<?xml version="1.0" encoding="UTF-8"?>
<svg id="Layer_2" xmlns="http://www.w3.org/2000/svg" xmlns:xlink="http://www.w3.org/1999/xlink" viewBox="0 0 50 31">
  <defs>
    <style>
      .cls-1 {
        fill: #fff;
      }

      .cls-2 {
        fill: none;
      }

      .cls-3 {
        clip-path: url(#clippath);
      }
    </style>
    <clipPath id="clippath">
      <rect class="cls-2" width="50" height="31"/>
    </clipPath>
  </defs>
  <g id="Layer_1-2" data-name="Layer_1">
    <g class="cls-3">
      <path class="cls-1" d="M38.36,13.07c0-1.37-.63-2.62-1.64-3.52h0c-.58-.51-1.29-.92-2.08-1.17.76-.57,1.25-1.48,1.25-2.5,0-1.73-1.41-3.13-3.13-3.13s-3.13,1.41-3.13,3.13c0,1.02.49,1.93,1.25,2.5h0c-.25.08-.5.18-.73.29,0,0,0,0,0,0-.11-.11-.23-.22-.35-.33-.75-.67-1.68-1.18-2.72-1.48,1-.67,1.67-1.82,1.67-3.11,0-2.06-1.68-3.74-3.74-3.74s-3.74,1.68-3.74,3.74c0,1.3.66,2.44,1.67,3.11-1.2.34-2.26.98-3.06,1.81-.23-.11-.48-.21-.73-.28,0,0,0,0,0,0,0,0,0,0,0,0,.76-.57,1.25-1.48,1.25-2.5,0-1.73-1.41-3.13-3.13-3.13s-3.13,1.41-3.13,3.13c0,1.02.49,1.93,1.25,2.5,0,0,0,0,0,0,0,0,0,0,0,0-2.17.69-3.73,2.53-3.73,4.69v2.09s0,0,0,0v4.9c0,.25.21.46.46.46h2.94c.21.73.5,1.43.87,2.09l-2.09,2.08c-.09.09-.13.2-.13.33s.05.24.13.33l3.45,3.45c.09.09.2.13.33.13s.24-.05.33-.13l2.08-2.08c.66.37,1.36.66,2.09.87v2.95c0,.25.21.46.46.46h4.88c.25,0,.46-.21.46-.46v-2.95c.73-.21,1.43-.5,2.09-.87l2.08,2.08c.09.09.2.13.33.13s.24-.05.33-.13l3.45-3.45c.09-.09.13-.2.13-.33s-.05-.24-.13-.33l-2.08-2.08c.37-.66.66-1.36.87-2.09h2.94c.25,0,.46-.21.46-.46v-4.86s0-.02,0-.03v-2.12ZM27.56,17.57c0,1.41-1.15,2.56-2.56,2.56s-2.56-1.15-2.56-2.56c0-.74.31-1.43.86-1.91h3.4c.55.49.86,1.17.86,1.91ZM20.07,15.66h2.02c-.37.56-.57,1.22-.57,1.91,0,1.92,1.56,3.48,3.48,3.48s3.48-1.56,3.48-3.48c0-.69-.2-1.35-.57-1.91h2.01c.25.63.38,1.29.38,1.98,0,2.93-2.38,5.31-5.31,5.31h0c-2.93,0-5.31-2.38-5.31-5.31,0-.69.13-1.35.38-1.98ZM30.54,5.88c0-1.22.99-2.21,2.21-2.21s2.21.99,2.21,2.21-.99,2.21-2.2,2.21c0,0,0,0,0,0s0,0,0,0c-1.22,0-2.2-.99-2.2-2.21ZM32.74,9.01s0,0,.01,0c0,0,.01,0,.02,0,2.58,0,4.67,1.83,4.67,4.06v1.66h-5.66v-2.15c0-1.17-.38-2.26-1.03-3.19h0s0,0,0,0c0,0,0,0,0,0,.6-.25,1.28-.39,1.99-.39ZM22.18,3.74c0-1.56,1.27-2.82,2.82-2.82s2.82,1.27,2.82,2.82-1.27,2.82-2.82,2.82-2.82-1.27-2.82-2.82ZM24.99,7.49s0,0,0,0c0,0,0,0,.01,0,1.7,0,3.24.64,4.31,1.65.23.21.43.45.62.69h0s0,0,0,0c.59.79.93,1.74.93,2.76v2.15h-3.72s-.28,0-.28,0h-7.1s0,0,0,0h-.64v-2.15c0-1.01.34-1.96.93-2.76,0,0,0,0,0,0,0,0,0,0,0,0,0,0,0,0,0,0,.18-.25.39-.48.62-.69,0,0,0,0,0,0,0,0,0,0,0,0,1.07-1.01,2.6-1.65,4.31-1.65ZM15.03,5.88c0-1.22.99-2.21,2.21-2.21s2.21.99,2.21,2.21-.99,2.21-2.21,2.21h0s0,0,0,0c-1.22,0-2.21-.99-2.21-2.21ZM12.56,13.07c0-2.24,2.1-4.06,4.69-4.06.72,0,1.4.14,2,.39,0,0,0,0,0,0-.65.92-1.03,2.02-1.03,3.19v2.15h-5.66v-1.66ZM34.61,19.62c-.21,0-.39.14-.45.35-.22.88-.57,1.72-1.04,2.5-.11.18-.08.41.07.56l2.01,2.01-2.8,2.8-2.01-2.01c-.15-.15-.38-.18-.56-.07-.78.47-1.62.82-2.5,1.04-.2.05-.35.24-.35.45v2.84h-3.96v-2.84c0-.21-.14-.39-.35-.45-.88-.22-1.72-.57-2.5-1.04-.18-.11-.41-.08-.56.07l-2.01,2.01-2.8-2.8,2.01-2.01c.15-.15.18-.38.07-.56-.47-.78-.82-1.62-1.04-2.5-.05-.2-.23-.35-.45-.35h-2.84v-3.96h6.54c-.21.63-.32,1.3-.32,1.98,0,3.44,2.8,6.23,6.23,6.23s6.23-2.79,6.23-6.23c0-.68-.11-1.35-.32-1.98h.42s0,0,0,0h6.12v3.96h-2.83Z"/>
    </g>
  </g>
</svg>