<?xml version="1.0" encoding="UTF-8"?>
<svg id="Layer_2" xmlns="http://www.w3.org/2000/svg" xmlns:xlink="http://www.w3.org/1999/xlink" viewBox="0 0 50 31">
  <defs>
    <style>
      .cls-1 {
        fill: #fff;
      }

      .cls-2 {
        fill: none;
      }

      .cls-3 {
        clip-path: url(#clippath);
      }
    </style>
    <clipPath id="clippath">
      <rect class="cls-2" width="50" height="31"/>
    </clipPath>
  </defs>
  <g id="Layer_1-2" data-name="Layer_1">
    <g class="cls-3">
      <path class="cls-1" d="M9.91,18.42h1.92c.05.24.11.47.18.71-.5.54-.81,1.26-.81,2.06,0,1.67,1.36,3.03,3.03,3.03s3.03-1.36,3.03-3.03-1.36-3.03-3.03-3.03c-.55,0-1.07.15-1.52.41-.05-.21-.1-.42-.14-.63-.04-.19-.21-.33-.4-.33h-1.84v-4.21h1.84c.2,0,.36-.14.4-.33.32-1.67.97-3.23,1.92-4.64.11-.16.09-.38-.05-.52l-1.31-1.31,2.98-2.98,1.31,1.31c.14.14.35.16.52.05,1.41-.95,2.97-1.6,4.64-1.92.19-.04.33-.21.33-.4V.82h4.21v1.84c0,.2.14.36.33.4,1.67.32,3.23.97,4.64,1.92.16.11.38.09.52-.05l1.31-1.31,2.98,2.98-1.31,1.31c-.14.14-.16.35-.05.52.95,1.41,1.6,2.97,1.92,4.64.04.19.21.33.4.33h1.84v4.21h-1.84c-.2,0-.36.14-.4.33-.04.21-.09.42-.14.63-.45-.26-.97-.41-1.52-.41-1.67,0-3.03,1.36-3.03,3.03s1.36,3.03,3.03,3.03,3.03-1.36,3.03-3.03c0-.79-.31-1.52-.81-2.06.06-.23.12-.47.18-.71h1.92c.23,0,.41-.18.41-.41v-5.03c0-.23-.18-.41-.41-.41h-1.92c-.34-1.54-.94-2.99-1.79-4.33l1.36-1.36c.08-.08.12-.18.12-.29s-.04-.21-.12-.29l-3.55-3.55c-.08-.08-.18-.12-.29-.12s-.21.04-.29.12l-1.36,1.36c-1.33-.85-2.79-1.45-4.33-1.79V.41c0-.23-.18-.41-.41-.41h-5.03c-.23,0-.41.18-.41.41v1.92c-1.54.34-2.99.94-4.33,1.79l-1.36-1.36c-.08-.08-.18-.12-.29-.12s-.21.04-.29.12l-3.55,3.55c-.08.08-.12.18-.12.29s.04.21.12.29l1.36,1.36c-.85,1.33-1.45,2.78-1.79,4.33h-1.92c-.23,0-.41.18-.41.41v5.03c0,.23.18.41.41.41ZM16.43,21.18c0,1.22-.99,2.21-2.21,2.21s-2.21-.99-2.21-2.21.99-2.21,2.21-2.21,2.21.99,2.21,2.21ZM35.78,23.39c-1.22,0-2.21-.99-2.21-2.21s.99-2.21,2.21-2.21,2.21.99,2.21,2.21-.99,2.21-2.21,2.21ZM25,13.92c-1.67,0-3.03,1.36-3.03,3.03s1.36,3.03,3.03,3.03,3.03-1.36,3.03-3.03-1.36-3.03-3.03-3.03ZM25,19.15c-1.22,0-2.21-.99-2.21-2.21s.99-2.21,2.21-2.21,2.21.99,2.21,2.21-.99,2.21-2.21,2.21ZM38.18,24.69h-4.8c-1.23,0-2.25.88-2.48,2.03-1.09.57-2.25.98-3.46,1.22-.19.04-.33.21-.33.4v1.84h-4.21v-1.84c0-.2-.14-.36-.33-.4-1.21-.24-2.37-.65-3.46-1.22-.23-1.16-1.26-2.04-2.48-2.04h-4.8c-1.4,0-2.53,1.13-2.53,2.53v3.13c0,.23.18.41.41.41h9.04c.23,0,.41-.18.41-.41v-2.69c.93.45,1.91.79,2.93,1.01v1.92c0,.23.18.41.41.41h5.03c.23,0,.41-.18.41-.41v-1.92c1.01-.22,1.99-.56,2.93-1.01v2.69c0,.23.18.41.41.41h9.04c.23,0,.41-.18.41-.41v-3.13c0-1.4-1.14-2.53-2.53-2.53ZM18.34,29.94h-8.23v-2.72c0-.95.77-1.71,1.71-1.71h4.8c.95,0,1.71.77,1.71,1.71,0,0,0,2.72,0,2.72ZM39.89,29.94h-8.23v-2.72c0-.95.77-1.71,1.71-1.71h4.8c.95,0,1.71.77,1.71,1.71,0,0,0,2.72,0,2.72ZM33.31,15.5c0-4.58-3.73-8.31-8.31-8.31s-8.31,3.73-8.31,8.31c0,2.7,1.3,5.2,3.48,6.77-.07.23-.1.46-.1.71v3.13c0,.23.18.41.41.41h9.04c.23,0,.41-.18.41-.41v-3.13c0-.25-.04-.48-.1-.71,2.19-1.56,3.48-4.07,3.48-6.77ZM29.11,25.7h-8.23v-2.72c0-.95.77-1.71,1.71-1.71h4.8c.95,0,1.71.77,1.71,1.71v2.72h0ZM29.47,21.52c-.46-.65-1.21-1.07-2.07-1.07h-4.8c-.85,0-1.61.43-2.07,1.07-1.9-1.41-3.03-3.63-3.03-6.02,0-4.13,3.36-7.5,7.5-7.5s7.5,3.36,7.5,7.5c0,2.39-1.12,4.61-3.03,6.02Z"/>
    </g>
  </g>
</svg>