<?xml version="1.0" encoding="UTF-8"?>
<svg id="Layer_2" xmlns="http://www.w3.org/2000/svg" xmlns:xlink="http://www.w3.org/1999/xlink" viewBox="0 0 225 150">
  <defs>
    <style>
      .cls-1 {
        fill: #fafafa;
      }

      .cls-2 {
        fill: #8a503f;
      }

      .cls-3 {
        fill: #ff735d;
      }

      .cls-4 {
        opacity: .3;
      }

      .cls-5 {
        fill: #fff;
      }

      .cls-6 {
        opacity: .4;
      }

      .cls-7 {
        fill: #375a64;
      }

      .cls-8 {
        fill: none;
      }

      .cls-9 {
        fill: #1a2e35;
      }

      .cls-10 {
        opacity: .2;
      }

      .cls-11 {
        fill: #ececec;
      }

      .cls-12 {
        fill: #f5f5f5;
      }

      .cls-13 {
        clip-path: url(#clippath);
      }

      .cls-14 {
        fill: #c07f68;
      }

      .cls-15 {
        fill: #e1e1e1;
      }
    </style>
    <clipPath id="clippath">
      <rect class="cls-8" width="225" height="150"/>
    </clipPath>
  </defs>
  <g id="Layer_1-2" data-name="Layer_1">
    <g class="cls-13">
      <g>
        <polygon class="cls-11" points="69 127.53 68.48 128.09 52.7 146.89 87.68 146.91 97.29 127.63 69 127.53"/>
        <g>
          <polygon class="cls-1" points="62.25 128.41 61.72 128.99 44.15 148.43 78.23 148.45 90.54 128.51 62.25 128.41"/>
          <path class="cls-15" d="M62.25,128.41s.04,0,.13,0c.09,0,.22,0,.39,0,.35,0,.85,0,1.51,0,1.33,0,3.27,0,5.74,0,4.96.01,12.03.02,20.52.04h.14s-.07.12-.07.12c-3.63,5.88-7.82,12.68-12.3,19.95l-.03.04h-.05c-1.49,0-3.07,0-4.67,0-10.82-.01-20.92-.02-29.41-.03h-.17s.11-.12.11-.12c5.45-6.01,9.98-11.01,13.15-14.51,1.59-1.74,2.83-3.11,3.69-4.05.43-.46.75-.82.98-1.06.22-.24.34-.36.34-.36,0,0-.11.13-.32.38-.22.25-.54.61-.96,1.07-.85.94-2.08,2.32-3.65,4.07-3.16,3.51-7.68,8.52-13.11,14.55l-.06-.12c8.49,0,18.59,0,29.41,0,1.6,0,3.18,0,4.67,0l-.07.04c4.49-7.26,8.69-14.06,12.32-19.93l.06.12c-8.48-.05-15.55-.08-20.5-.11-2.47-.02-4.42-.03-5.75-.04-.66,0-1.17-.01-1.52-.02-.17,0-.3,0-.39,0-.09,0-.13,0-.13,0Z"/>
        </g>
        <path class="cls-15" d="M75.24,144.85s-.08.01-.24.02c-.17,0-.4,0-.69.01-.62,0-1.48,0-2.53,0-2.16-.01-5.1-.03-8.35-.05-3.25-.04-6.2-.08-8.36-.1-1.05-.02-1.91-.04-2.53-.05-.28,0-.51-.02-.69-.02-.16,0-.24-.01-.24-.02s.08-.01.24-.02c.17,0,.4,0,.69-.01.62,0,1.48,0,2.53,0,2.16.01,5.1.03,8.36.05,3.25.04,6.2.08,8.35.1,1.05.02,1.91.04,2.53.05.28,0,.51.02.69.02.16,0,.24.01.24.02Z"/>
        <path class="cls-15" d="M76.25,142.77s-.08.01-.23.02c-.17,0-.39,0-.67.01-.6,0-1.44,0-2.47,0-2.1-.01-4.98-.03-8.15-.05-3.17-.04-6.05-.07-8.15-.1-1.03-.02-1.87-.04-2.47-.05-.28,0-.5-.02-.67-.02-.15,0-.23-.01-.23-.02s.08-.01.23-.02c.17,0,.39,0,.67-.01.6,0,1.44,0,2.47,0,2.1.01,4.98.03,8.15.05,3.17.04,6.05.07,8.15.1,1.03.02,1.87.04,2.47.05.28,0,.5.02.67.02.15,0,.23.01.23.02Z"/>
        <path class="cls-15" d="M77.77,140.66s-.08.01-.23.02c-.17,0-.39,0-.66.01-.59,0-1.42,0-2.43,0-2.07-.01-4.89-.03-8-.05-3.12-.04-5.94-.07-8-.1-1.01-.02-1.83-.04-2.43-.05-.27,0-.49-.02-.66-.02-.15,0-.23-.01-.23-.02s.08-.01.23-.02c.17,0,.39,0,.66-.01.59,0,1.42,0,2.43,0,2.07.01,4.89.03,8,.05,3.12.04,5.94.07,8,.1,1.01.02,1.83.04,2.43.05.27,0,.49.02.66.02.15,0,.23.01.23.02Z"/>
        <path class="cls-15" d="M79.53,138.71s-.08.01-.23.02c-.17,0-.38,0-.65.01-.58,0-1.39,0-2.38,0-2.02-.01-4.79-.03-7.84-.05-3.05-.04-5.81-.07-7.84-.1-.99-.02-1.79-.04-2.38-.05-.27,0-.48-.02-.65-.02-.15,0-.23-.01-.23-.02s.08-.01.23-.02c.17,0,.38,0,.65-.01.58,0,1.39,0,2.38,0,2.02.01,4.79.03,7.84.05,3.05.04,5.81.07,7.84.1.99.02,1.79.04,2.38.05.27,0,.48.02.65.02.15,0,.23.01.22.02Z"/>
        <path class="cls-15" d="M80.83,136.67s-.08.01-.23.02c-.17,0-.38,0-.65.01-.58,0-1.39,0-2.38,0-2.02-.01-4.79-.03-7.84-.05-3.05-.04-5.81-.07-7.84-.1-.99-.02-1.79-.04-2.38-.05-.27,0-.48-.02-.65-.02-.15,0-.23-.01-.23-.02s.08-.01.23-.02c.17,0,.38,0,.65-.01.58,0,1.39,0,2.38,0,2.02.01,4.79.03,7.84.05,3.05.04,5.81.07,7.84.1.99.02,1.79.04,2.38.05.27,0,.48.02.65.02.15,0,.23.01.23.02Z"/>
        <path class="cls-15" d="M82.75,134.63s-.08.01-.23.02c-.17,0-.38,0-.65.01-.58,0-1.39,0-2.38,0-2.02-.01-4.79-.03-7.84-.05-3.05-.04-5.81-.07-7.84-.1-.99-.02-1.79-.04-2.38-.05-.27,0-.48-.02-.65-.02-.15,0-.23-.01-.23-.02s.08-.01.23-.02c.17,0,.38,0,.65-.01.58,0,1.39,0,2.38,0,2.02.01,4.79.03,7.84.05,3.05.04,5.81.07,7.84.1.99.02,1.79.04,2.38.05.27,0,.48.02.65.02.15,0,.23.01.23.02Z"/>
        <path class="cls-15" d="M84.16,132.65s-.08.01-.23.01c-.17,0-.38,0-.65,0-.58,0-1.39,0-2.38,0-2.02-.02-4.79-.05-7.84-.08-3.05-.05-5.81-.1-7.84-.13-.99-.02-1.79-.05-2.38-.06-.27-.01-.48-.02-.65-.03-.15,0-.23-.01-.23-.02,0,0,.08-.01.23-.01.17,0,.38,0,.65,0,.58,0,1.39,0,2.38,0,2.02.02,4.79.05,7.84.08,3.05.05,5.81.1,7.84.13.99.02,1.79.05,2.38.06.27.01.48.02.65.03.15,0,.23.01.22.02Z"/>
        <path class="cls-15" d="M86.32,130.75s-.08.01-.23.01c-.17,0-.38,0-.65,0-.58,0-1.39,0-2.38,0-2.02-.02-4.79-.05-7.84-.08-3.05-.05-5.81-.1-7.84-.13-.99-.02-1.79-.05-2.38-.06-.27-.01-.48-.02-.65-.03-.15,0-.23-.01-.23-.02,0,0,.08-.01.23-.01.17,0,.38,0,.65,0,.58,0,1.39,0,2.38,0,2.02.02,4.79.05,7.84.08,3.05.05,5.81.1,7.84.13.99.02,1.79.05,2.38.06.27.01.48.02.65.03.15,0,.23.01.22.02Z"/>
      </g>
      <path class="cls-11" d="M52.5,67.74c0-2.37,1.43-3.87,3.45-3.87s3.43,1.48,3.43,3.87-1.41,3.87-3.43,3.87-3.45-1.51-3.45-3.87ZM57.39,67.74c0-1.5-.57-2.23-1.45-2.23s-1.45.74-1.45,2.23.59,2.23,1.45,2.23,1.45-.72,1.45-2.23ZM64.2,64.03h2.36l-9.46,14.05h-2.36l9.46-14.05ZM61.92,74.37c0-2.37,1.43-3.87,3.43-3.87s3.45,1.51,3.45,3.87-1.43,3.87-3.45,3.87-3.43-1.51-3.43-3.87ZM66.79,74.37c0-1.49-.57-2.23-1.45-2.23s-1.45.72-1.45,2.23.59,2.23,1.45,2.23,1.45-.74,1.45-2.23Z"/>
      <g>
        <g>
          <path class="cls-12" d="M171.28,19.07c1.26,8.39-4.53,16.22-12.94,17.48-8.41,1.27-16.25-4.51-17.51-12.9-1.26-8.39,4.53-16.22,12.94-17.48,8.41-1.27,16.25,4.51,17.51,12.89Z"/>
          <path class="cls-11" d="M167.65,19.62c.96,6.39-3.45,12.36-9.86,13.32-6.41.97-12.38-3.43-13.35-9.83-.96-6.39,3.45-12.36,9.86-13.32,6.41-.97,12.38,3.43,13.35,9.83Z"/>
          <path class="cls-15" d="M167.6,19.25c-.07.01-.2-.49-.52-1.35-.32-.85-.87-2.08-1.87-3.35-.5-.63-1.12-1.28-1.85-1.88-.74-.59-1.6-1.14-2.57-1.57-.49-.22-1-.41-1.53-.56-.53-.15-1.09-.28-1.66-.34-.57-.07-1.16-.11-1.76-.09-.6.02-1.2.08-1.8.18-.6.11-1.19.27-1.75.47-.56.19-1.1.44-1.61.71-.51.27-.99.58-1.43.91-.45.33-.86.69-1.24,1.06-.76.75-1.36,1.57-1.85,2.38-.48.82-.82,1.64-1.07,2.41-.49,1.55-.56,2.89-.56,3.8,0,.92.06,1.43,0,1.44-.05.01-.23-.48-.34-1.42-.11-.93-.13-2.34.3-4,.22-.83.55-1.71,1.03-2.6.49-.88,1.11-1.78,1.91-2.6.4-.41.83-.81,1.31-1.17.48-.36.98-.71,1.53-1,.55-.3,1.12-.57,1.73-.78.61-.21,1.24-.38,1.89-.51.65-.11,1.3-.18,1.94-.19.64-.02,1.28.03,1.89.11.62.08,1.21.22,1.79.39.57.17,1.12.39,1.64.63,1.03.48,1.94,1.1,2.7,1.75.76.66,1.39,1.37,1.88,2.07,1,1.4,1.47,2.72,1.7,3.63.23.92.23,1.44.18,1.45Z"/>
        </g>
        <path class="cls-15" d="M158.41,28.09l.33,2.02-1.8.3-.32-1.96c-1.8.19-3.6-.09-4.72-.7l.63-2.36c1.01.52,2.39.79,3.7.7l-.5-3.01c-2.08-.15-4.42-.45-4.85-3.03-.32-1.91.8-3.78,3.59-4.57l-.33-2,1.8-.3.32,1.96c1.37-.12,2.74.03,3.84.49l-.53,2.36c-1-.37-1.99-.52-2.91-.48l.51,3.06c2.08.14,4.38.44,4.8,2.98.31,1.87-.79,3.72-3.56,4.53ZM155.29,20.43l-.42-2.56c-.92.37-1.21.96-1.11,1.55.1.63.7.88,1.54,1ZM159.11,24.25c-.1-.63-.68-.89-1.5-1.03l.41,2.48c.87-.35,1.19-.88,1.09-1.46Z"/>
      </g>
      <g>
        <g>
          <path class="cls-12" d="M182.54,102.93c-2.32,6.38-9.39,9.68-15.79,7.35-6.4-2.33-9.71-9.39-7.39-15.77,2.32-6.38,9.39-9.68,15.79-7.35,6.4,2.33,9.71,9.39,7.39,15.77Z"/>
          <path class="cls-11" d="M179.78,101.93c-1.77,4.87-7.15,7.37-12.03,5.6-4.88-1.77-7.4-7.15-5.63-12.02,1.77-4.87,7.15-7.37,12.03-5.6,4.88,1.77,7.4,7.15,5.63,12.02Z"/>
          <path class="cls-15" d="M179.88,101.65c-.05-.02.05-.42.15-1.15.1-.73.18-1.79-.04-3.08-.11-.64-.3-1.33-.59-2.03-.3-.7-.69-1.42-1.21-2.09-.26-.34-.54-.67-.86-.98-.32-.31-.66-.61-1.04-.88-.38-.27-.77-.52-1.2-.74-.43-.22-.87-.4-1.34-.56-.47-.15-.94-.26-1.41-.34-.47-.08-.94-.11-1.4-.12-.46,0-.92.03-1.36.09-.44.06-.87.16-1.28.28-.82.23-1.56.58-2.21.97-.65.39-1.21.84-1.67,1.29-.94.9-1.5,1.81-1.85,2.46-.35.65-.5,1.03-.56,1.01-.04-.01.02-.43.3-1.13.28-.7.8-1.69,1.74-2.69.47-.5,1.04-.99,1.72-1.44.68-.44,1.46-.83,2.34-1.1.44-.14.89-.25,1.37-.32.47-.07.96-.12,1.46-.12.5,0,1.01.03,1.52.12.51.08,1.02.2,1.52.37.5.17.98.37,1.44.61.46.23.89.51,1.29.81.4.29.77.62,1.11.96.34.34.64.7.91,1.07.54.74.94,1.51,1.23,2.27.28.76.45,1.5.53,2.18.17,1.36,0,2.47-.19,3.2-.19.73-.39,1.11-.43,1.09Z"/>
        </g>
        <path class="cls-15" d="M170.04,104.35l-.54,1.55-1.38-.48.52-1.5c-1.34-.56-2.5-1.44-3.05-2.3l1.34-1.42c.51.75,1.38,1.47,2.34,1.91l.8-2.31c-1.4-.9-2.94-2.01-2.25-3.98.51-1.46,2.01-2.35,4.27-1.84l.53-1.53,1.38.48-.52,1.5c1.01.44,1.92,1.07,2.51,1.81l-1.28,1.46c-.57-.64-1.2-1.13-1.86-1.45l-.81,2.35c1.41.89,2.91,1.99,2.24,3.93-.5,1.44-1.98,2.31-4.24,1.82ZM170.78,97.77l.68-1.96c-.79-.09-1.22.21-1.38.67-.17.48.16.89.7,1.29ZM172,101.92c.17-.48-.14-.88-.66-1.3l-.66,1.91c.74.09,1.17-.17,1.32-.61Z"/>
      </g>
      <path class="cls-9" d="M181.01,124.2s-32,.09-71.46.09-71.47-.04-71.47-.09,31.99-.09,71.47-.09,71.46.04,71.46.09Z"/>
      <g>
        <polygon class="cls-12" points="173.95 145.82 143.98 146.79 120.75 125.23 149.87 125.23 173.95 145.82"/>
        <polygon class="cls-12" points="163.22 149.03 133.26 150 110.02 128.44 139.14 128.44 163.22 149.03"/>
        <polygon class="cls-15" points="168.27 146.89 138.3 147.86 115.07 126.3 144.18 126.3 168.27 146.89"/>
        <g>
          <polygon class="cls-12" points="140.47 125.23 111.36 125.23 134.59 146.79 165.51 145.79 140.47 125.23"/>
          <path class="cls-9" d="M140.47,125.23s.04.03.12.09c.08.06.2.16.35.28.31.25.76.62,1.35,1.09,1.18.97,2.91,2.38,5.11,4.17,4.4,3.6,10.67,8.73,18.17,14.87l.16.13h-.2c-8.69.29-18.85.62-29.66.98-.43.01-.85.03-1.27.04h-.04s-.03-.02-.03-.02c-8.55-7.94-16.52-15.34-23.22-21.57l-.14-.13h.19c8.77.01,16.05.02,21.14.03,2.54,0,4.53.02,5.9.02.68,0,1.19,0,1.55.01.35,0,.53.01.53.01,0,0-.18,0-.54.01-.36,0-.88,0-1.56.01-1.37,0-3.36.01-5.9.02-5.09,0-12.36.02-21.12.03l.05-.13c6.71,6.22,14.68,13.61,23.24,21.55l-.06-.02c.42-.01.84-.03,1.27-.04,10.8-.35,20.96-.67,29.66-.95l-.05.14c-7.47-6.15-13.72-11.3-18.11-14.91-2.19-1.81-3.91-3.23-5.09-4.2-.58-.49-1.03-.86-1.34-1.12-.15-.13-.26-.22-.34-.29-.08-.07-.11-.1-.11-.1Z"/>
        </g>
        <g>
          <path class="cls-9" d="M150.91,137.66s-4.64.23-10.37.41c-5.73.18-10.38.29-10.38.24,0-.05,4.64-.23,10.37-.41,5.73-.18,10.38-.29,10.38-.24Z"/>
          <path class="cls-9" d="M153.39,139.5s-4.72.23-10.54.41c-5.82.18-10.54.28-10.54.24,0-.05,4.72-.23,10.54-.41,5.82-.18,10.54-.28,10.54-.24Z"/>
          <path class="cls-9" d="M156,141.35s-4.75.24-10.61.43c-5.86.19-10.62.3-10.62.26,0-.05,4.75-.24,10.61-.43,5.86-.19,10.62-.3,10.62-.26Z"/>
          <path class="cls-9" d="M149.48,136s-4.78.24-10.67.43c-5.9.19-10.68.3-10.68.25,0-.05,4.78-.24,10.68-.43,5.9-.19,10.68-.3,10.68-.25Z"/>
        </g>
        <g>
          <path class="cls-9" d="M139.6,129.1s-4.43.17-9.9.28c-5.47.1-9.91.15-9.91.1,0-.05,4.43-.17,9.91-.28,5.47-.1,9.91-.15,9.91-.1Z"/>
          <path class="cls-9" d="M142.08,130.94s-4.57.18-10.21.28c-5.64.11-10.21.16-10.21.11,0-.05,4.57-.18,10.21-.28,5.64-.11,10.21-.16,10.21-.11Z"/>
          <path class="cls-9" d="M144.56,132.78s-4.8.18-10.71.29c-5.92.11-10.72.17-10.72.12,0-.05,4.79-.18,10.71-.29,5.92-.11,10.71-.17,10.72-.12Z"/>
          <path class="cls-9" d="M147.03,134.62s-4.8.18-10.71.29c-5.92.11-10.72.17-10.72.12,0-.05,4.79-.18,10.71-.29,5.92-.11,10.71-.17,10.72-.12Z"/>
          <path class="cls-9" d="M138.17,127.44s-.07.01-.21.02c-.15,0-.35.01-.6.03-.54.01-1.28.03-2.19.06-1.87.03-4.41.08-7.22.13-2.81.03-5.36.06-7.23.08-.91,0-1.65,0-2.19,0-.24,0-.44,0-.6,0-.14,0-.21,0-.21-.01s.07-.01.21-.02c.15,0,.35-.01.6-.03.54-.01,1.28-.03,2.19-.06,1.87-.03,4.41-.08,7.22-.13,2.81-.03,5.35-.06,7.22-.08.91,0,1.65,0,2.19,0,.24,0,.44,0,.6,0,.14,0,.21,0,.21.01Z"/>
        </g>
      </g>
      <g>
        <polygon class="cls-7" points="128.83 132.69 121.19 125.7 147.64 124.65 155.42 128.95 128.83 132.69"/>
        <g>
          <g>
            <polygon class="cls-9" points="124.28 126.67 125.76 127.95 125.75 127.04 124.18 125.87 124.28 126.67"/>
            <polygon class="cls-3" points="125.74 127.1 127.88 127.03 126.16 125.78 124.18 125.87 125.74 127.1"/>
            <polygon class="cls-9" points="125.74 127.1 125.76 127.95 127.85 127.81 127.88 127.03 125.74 127.1"/>
            <path class="cls-9" d="M127.88,127.03s-.8-.46-1.72-1.11c-.03-.02-.07-.05-.1-.07l.05.02c-1.07.05-1.92.05-1.93,0s.84-.13,1.92-.18h.03s.02.02.02.02c.03.02.07.05.1.07.92.65,1.65,1.21,1.62,1.25Z"/>
            <path class="cls-7" d="M125.75,127.95s-.09-.19-.1-.42c0-.23.03-.42.08-.42.05,0,.09.19.1.42,0,.23-.03.42-.08.42Z"/>
          </g>
          <g>
            <polygon class="cls-9" points="127.86 126.61 129.35 127.88 129.34 126.97 127.77 125.8 127.86 126.61"/>
            <polygon class="cls-15" points="129.32 127.03 131.47 126.96 129.74 125.71 127.77 125.8 129.32 127.03"/>
            <polygon class="cls-9" points="129.32 127.03 129.35 127.88 131.44 127.75 131.47 126.96 129.32 127.03"/>
            <path class="cls-9" d="M131.47,126.96s-.8-.46-1.72-1.11c-.03-.02-.07-.05-.1-.07l.05.02c-1.07.05-1.92.05-1.93,0,0-.05.84-.13,1.92-.18h.03s.02.02.02.02c.03.02.07.05.1.07.92.65,1.65,1.21,1.62,1.25Z"/>
            <path class="cls-7" d="M129.34,127.88s-.09-.19-.1-.42c0-.23.03-.42.08-.42.05,0,.09.19.1.42,0,.23-.03.42-.08.42Z"/>
          </g>
          <g>
            <polygon class="cls-9" points="131.29 126.56 132.78 127.84 132.77 126.93 131.2 125.75 131.29 126.56"/>
            <polygon class="cls-7" points="132.76 126.99 134.9 126.91 133.18 125.66 131.2 125.75 132.76 126.99"/>
            <polygon class="cls-9" points="132.76 126.99 132.78 127.84 134.87 127.7 134.9 126.91 132.76 126.99"/>
            <path class="cls-9" d="M134.9,126.91s-.8-.46-1.72-1.11c-.03-.02-.07-.05-.1-.07l.05.02c-1.07.05-1.92.05-1.93,0,0-.05.84-.13,1.92-.18h.03s.02.02.02.02c.03.02.07.05.1.07.92.65,1.65,1.21,1.62,1.25Z"/>
            <path class="cls-7" d="M132.77,127.84s-.09-.19-.1-.42c0-.23.03-.42.08-.42.05,0,.09.19.1.42,0,.23-.03.42-.08.42Z"/>
          </g>
          <g>
            <polygon class="cls-9" points="134.87 126.46 136.35 127.73 136.35 126.83 134.77 125.65 134.87 126.46"/>
            <polygon class="cls-7" points="136.33 126.88 138.47 126.81 136.75 125.56 134.77 125.65 136.33 126.88"/>
            <polygon class="cls-9" points="136.33 126.88 136.35 127.73 138.45 127.6 138.47 126.81 136.33 126.88"/>
            <path class="cls-9" d="M138.47,126.81s-.8-.46-1.72-1.11c-.03-.02-.07-.05-.1-.07l.05.02c-1.07.05-1.92.05-1.93,0,0-.05.84-.13,1.92-.18h.03s.02.02.02.02c.03.02.07.05.1.07.92.65,1.65,1.21,1.62,1.25Z"/>
            <path class="cls-7" d="M136.35,127.73s-.09-.19-.1-.42c0-.23.03-.42.08-.42.05,0,.09.19.1.42,0,.23-.03.42-.08.42Z"/>
          </g>
          <g>
            <polygon class="cls-9" points="138.49 126.37 139.98 127.64 139.97 126.74 138.4 125.56 138.49 126.37"/>
            <polygon class="cls-7" points="139.96 126.79 142.1 126.72 140.37 125.47 138.4 125.56 139.96 126.79"/>
            <polygon class="cls-9" points="139.96 126.79 139.98 127.64 142.07 127.51 142.1 126.72 139.96 126.79"/>
            <path class="cls-9" d="M142.1,126.72s-.8-.46-1.72-1.11c-.03-.02-.07-.05-.1-.07l.05.02c-1.07.05-1.92.05-1.93,0,0-.05.84-.13,1.92-.18h.03s.02.02.02.02c.03.02.07.05.1.07.92.65,1.65,1.21,1.62,1.25Z"/>
            <path class="cls-7" d="M139.97,127.64s-.09-.19-.1-.42c0-.23.03-.42.08-.42.05,0,.09.19.1.42,0,.23-.03.42-.08.42Z"/>
          </g>
          <g>
            <polygon class="cls-9" points="141.95 126.21 143.44 127.48 143.43 126.57 141.86 125.4 141.95 126.21"/>
            <polygon class="cls-7" points="143.42 126.63 145.56 126.56 143.84 125.31 141.86 125.4 143.42 126.63"/>
            <polygon class="cls-9" points="143.42 126.63 143.44 127.48 145.53 127.35 145.56 126.56 143.42 126.63"/>
            <path class="cls-9" d="M145.56,126.56s-.8-.46-1.72-1.11c-.03-.02-.07-.05-.1-.07l.05.02c-1.07.05-1.92.05-1.93,0,0-.05.84-.13,1.92-.18h.03s.02.02.02.02c.03.02.07.05.1.07.92.65,1.65,1.21,1.62,1.25Z"/>
            <path class="cls-7" d="M143.43,127.48s-.09-.19-.1-.42c0-.23.03-.42.08-.42.05,0,.09.19.1.42,0,.23-.03.42-.08.42Z"/>
          </g>
          <g>
            <polygon class="cls-9" points="145.34 126.01 146.82 127.29 146.82 126.38 145.25 125.2 145.34 126.01"/>
            <polygon class="cls-7" points="146.8 126.44 148.94 126.36 147.22 125.11 145.25 125.2 146.8 126.44"/>
            <polygon class="cls-9" points="146.8 126.44 146.82 127.29 148.92 127.15 148.94 126.36 146.8 126.44"/>
            <path class="cls-9" d="M148.94,126.36s-.8-.46-1.72-1.11c-.03-.02-.07-.05-.1-.07l.05.02c-1.07.05-1.92.05-1.93,0,0-.05.84-.13,1.92-.18h.03s.02.02.02.02c.03.02.07.05.1.07.92.65,1.65,1.21,1.62,1.25Z"/>
            <path class="cls-7" d="M146.82,127.29s-.09-.19-.1-.42c0-.23.03-.42.08-.42.05,0,.09.19.1.42,0,.23-.03.42-.08.42Z"/>
          </g>
        </g>
        <g>
          <g>
            <polygon class="cls-9" points="126.67 129.07 128.15 130.34 128.15 129.43 126.57 128.26 126.67 129.07"/>
            <polygon class="cls-7" points="128.13 129.49 130.27 129.42 128.55 128.17 126.57 128.26 128.13 129.49"/>
            <polygon class="cls-9" points="128.13 129.49 128.15 130.34 130.25 130.2 130.27 129.42 128.13 129.49"/>
            <path class="cls-9" d="M130.27,129.42s-.8-.46-1.72-1.11c-.03-.02-.07-.05-.1-.07l.05.02c-1.07.05-1.92.05-1.93,0,0-.05.84-.13,1.92-.18h.03s.02.02.02.02c.03.02.07.05.1.07.92.65,1.65,1.21,1.62,1.25Z"/>
            <path class="cls-7" d="M128.15,130.34s-.09-.19-.1-.42c0-.23.03-.42.08-.42.05,0,.09.19.1.42,0,.23-.03.42-.08.42Z"/>
          </g>
          <g>
            <polygon class="cls-9" points="130.25 129 131.74 130.27 131.73 129.36 130.16 128.19 130.25 129"/>
            <polygon class="cls-7" points="131.72 129.42 133.86 129.35 132.13 128.1 130.16 128.19 131.72 129.42"/>
            <polygon class="cls-9" points="131.72 129.42 131.74 130.27 133.83 130.14 133.86 129.35 131.72 129.42"/>
            <path class="cls-9" d="M133.86,129.35s-.8-.46-1.72-1.11c-.03-.02-.07-.05-.1-.07l.05.02c-1.07.05-1.92.05-1.93,0,0-.05.84-.13,1.92-.18h.03s.02.02.02.02c.03.02.07.05.1.07.92.65,1.65,1.21,1.62,1.25Z"/>
            <path class="cls-7" d="M131.73,130.27s-.09-.19-.1-.42c0-.23.03-.42.08-.42.05,0,.09.19.1.42,0,.23-.03.42-.08.42Z"/>
          </g>
          <g>
            <polygon class="cls-9" points="133.68 128.95 135.17 130.23 135.16 129.32 133.59 128.14 133.68 128.95"/>
            <polygon class="cls-7" points="135.15 129.38 137.29 129.3 135.57 128.05 133.59 128.14 135.15 129.38"/>
            <polygon class="cls-9" points="135.15 129.38 135.17 130.23 137.26 130.09 137.29 129.3 135.15 129.38"/>
            <path class="cls-9" d="M137.29,129.3s-.8-.46-1.72-1.11c-.03-.02-.07-.05-.1-.07l.05.02c-1.07.05-1.92.05-1.93,0,0-.05.84-.13,1.92-.18h.03s.02.02.02.02c.03.02.07.05.1.07.92.65,1.65,1.21,1.62,1.25Z"/>
            <path class="cls-7" d="M135.16,130.23s-.09-.19-.1-.42c0-.23.03-.42.08-.42.05,0,.09.19.1.42,0,.23-.03.42-.08.42Z"/>
          </g>
          <g>
            <polygon class="cls-9" points="137.26 128.85 138.74 130.13 138.74 129.22 137.17 128.04 137.26 128.85"/>
            <polygon class="cls-7" points="138.72 129.28 140.87 129.2 139.14 127.95 137.17 128.04 138.72 129.28"/>
            <polygon class="cls-9" points="138.72 129.28 138.74 130.13 140.84 129.99 140.87 129.2 138.72 129.28"/>
            <path class="cls-9" d="M140.87,129.2s-.8-.46-1.72-1.11c-.03-.02-.07-.05-.1-.07l.05.02c-1.07.05-1.92.05-1.93,0,0-.05.84-.13,1.92-.18h.03s.02.02.02.02c.03.02.07.05.1.07.92.65,1.65,1.21,1.62,1.25Z"/>
            <path class="cls-7" d="M138.74,130.13s-.09-.19-.1-.42c0-.23.03-.42.08-.42.05,0,.09.19.1.42,0,.23-.03.42-.08.42Z"/>
          </g>
          <g>
            <polygon class="cls-9" points="140.88 128.76 142.37 130.04 142.36 129.13 140.79 127.95 140.88 128.76"/>
            <polygon class="cls-7" points="142.35 129.19 144.49 129.11 142.77 127.86 140.79 127.95 142.35 129.19"/>
            <polygon class="cls-9" points="142.35 129.19 142.37 130.04 144.46 129.9 144.49 129.11 142.35 129.19"/>
            <path class="cls-9" d="M144.49,129.11s-.8-.46-1.72-1.11c-.03-.02-.07-.05-.1-.07l.05.02c-1.07.05-1.92.05-1.93,0,0-.05.84-.13,1.92-.18h.03s.02.02.02.02c.03.02.07.05.1.07.92.65,1.65,1.21,1.62,1.25Z"/>
            <path class="cls-7" d="M142.36,130.04s-.09-.19-.1-.42c0-.23.03-.42.08-.42.05,0,.09.19.1.42,0,.23-.03.42-.08.42Z"/>
          </g>
          <g>
            <polygon class="cls-9" points="144.35 128.6 145.83 129.87 145.82 128.97 144.25 127.79 144.35 128.6"/>
            <polygon class="cls-7" points="145.81 129.02 147.95 128.95 146.23 127.7 144.25 127.79 145.81 129.02"/>
            <polygon class="cls-9" points="145.81 129.02 145.83 129.87 147.92 129.74 147.95 128.95 145.81 129.02"/>
            <path class="cls-9" d="M147.95,128.95s-.8-.46-1.72-1.11c-.03-.02-.07-.05-.1-.07l.05.02c-1.07.05-1.92.05-1.93,0s.84-.13,1.92-.18h.03s.02.02.02.02c.03.02.07.05.1.07.92.65,1.65,1.21,1.62,1.25Z"/>
            <path class="cls-7" d="M145.82,129.87s-.09-.19-.1-.42c0-.23.03-.42.08-.42.05,0,.09.19.1.42,0,.23-.03.42-.08.42Z"/>
          </g>
          <g>
            <polygon class="cls-9" points="147.73 128.4 149.21 129.68 149.21 128.77 147.64 127.6 147.73 128.4"/>
            <polygon class="cls-7" points="149.19 128.83 151.34 128.76 149.61 127.5 147.64 127.6 149.19 128.83"/>
            <polygon class="cls-9" points="149.19 128.83 149.21 129.68 151.31 129.54 151.34 128.76 149.19 128.83"/>
            <path class="cls-9" d="M151.34,128.76s-.8-.46-1.72-1.11c-.03-.02-.07-.05-.1-.07l.05.02c-1.07.05-1.92.05-1.93,0,0-.05.84-.13,1.92-.18h.03s.02.02.02.02c.03.02.07.05.1.07.92.65,1.65,1.21,1.62,1.25Z"/>
            <path class="cls-7" d="M149.21,129.68s-.09-.19-.1-.42c0-.23.03-.42.08-.42.05,0,.09.19.1.42,0,.23-.03.42-.08.42Z"/>
          </g>
        </g>
        <g>
          <polygon class="cls-9" points="162.85 127.03 132.85 128.66 128.87 132.43 121.19 125.7 121.19 127.65 129.14 135.27 133.53 131 163.31 129.23 162.85 127.03"/>
          <polygon class="cls-9" points="129.14 135.27 156.25 133.69 163.31 129.23 132.82 130.42 129.14 135.27"/>
          <path class="cls-7" d="M163.31,129.23s-.03,0-.09.01c-.07,0-.16.01-.27.02-.25.02-.6.05-1.04.08-.92.06-2.23.15-3.84.26-3.26.2-7.74.48-12.68.78-4.55.26-8.71.5-11.83.68l.04-.02c-1.35,1.3-2.46,2.36-3.23,3.1-.38.36-.67.64-.89.84-.1.09-.17.16-.23.21-.05.05-.08.07-.08.07,0,0,.02-.03.07-.08.06-.06.13-.13.22-.23.21-.21.5-.5.86-.86.76-.75,1.85-1.82,3.19-3.14l.02-.02h.02c3.13-.19,7.28-.45,11.83-.73,4.95-.29,9.43-.54,12.69-.73,1.61-.08,2.92-.15,3.85-.2.44-.02.79-.03,1.05-.05.11,0,.2,0,.27,0,.06,0,.09,0,.09,0Z"/>
          <path class="cls-7" d="M133.53,131s-.24-.5-.43-1.15c-.19-.65-.3-1.18-.26-1.2.05-.01.24.5.43,1.15.19.65.3,1.18.26,1.2Z"/>
        </g>
      </g>
      <g>
        <path class="cls-7" d="M188.64,81.9l-26.92-5.15c-.82-.16-1.36-.95-1.21-1.78l8.66-45.26c.22-1.17,1.35-1.94,2.52-1.71l25.67,4.91c1.17.22,1.94,1.35,1.71,2.52l-8.66,45.26c-.16.82-.95,1.36-1.78,1.21Z"/>
        <g class="cls-6">
          <path d="M188.62,81.89l-26.92-5.15c-.82-.16-1.36-.95-1.21-1.78l8.66-45.26c.22-1.17,1.35-1.94,2.52-1.71l25.67,4.91c1.17.22,1.94,1.35,1.71,2.52l-8.66,45.26c-.16.82-.95,1.36-1.78,1.21Z"/>
        </g>
        <g>
          <path class="cls-7" d="M186.3,81.44l-26.92-5.15c-.82-.16-1.36-.95-1.21-1.78l8.66-45.26c.22-1.17,1.35-1.94,2.52-1.71l25.67,4.91c1.17.22,1.94,1.35,1.71,2.52l-8.66,45.26c-.16.82-.95,1.36-1.78,1.21Z"/>
          <rect class="cls-7" x="163.56" y="66.73" width="10.27" height="4.54" rx="2.2" ry="2.2" transform="translate(15.98 -30.48) rotate(10.84)"/>
          <g class="cls-10">
            <rect x="163.56" y="66.73" width="10.27" height="4.54" rx="2.2" ry="2.2" transform="translate(15.98 -30.48) rotate(10.84)"/>
          </g>
          <g>
            <rect class="cls-1" x="175.37" y="26.89" width="10.21" height="26.03" transform="translate(107.35 209.66) rotate(-79.16)"/>
            <path class="cls-9" d="M192.3,47.37s0-.06.03-.18c.02-.12.05-.29.1-.52.09-.46.21-1.13.37-1.99.33-1.73.8-4.23,1.39-7.34l.02.04c-6.43-1.23-15.51-2.96-25.57-4.88h0s.05-.04.05-.04c-.67,3.51-1.32,6.9-1.92,10.03l-.03-.05c7.4,1.42,13.78,2.65,18.32,3.53,2.27.44,4.08.79,5.32,1.03.62.12,1.1.21,1.42.28.16.03.28.06.37.07.08.02.13.03.13.03,0,0-.04,0-.12-.02-.08-.02-.21-.04-.36-.07-.32-.06-.8-.15-1.42-.27-1.24-.23-3.05-.58-5.31-1.01-4.55-.87-10.94-2.08-18.35-3.49h-.04s0-.05,0-.05c.6-3.13,1.25-6.52,1.92-10.03v-.04s.05,0,.05,0h0c10.05,1.93,19.13,3.67,25.56,4.91h.03s0,.04,0,.04c-.6,3.11-1.09,5.62-1.42,7.35-.17.86-.3,1.53-.39,1.98-.04.22-.08.4-.1.51-.02.12-.04.17-.04.17Z"/>
          </g>
          <g>
            <rect class="cls-7" x="166.94" y="47.13" width="4.42" height="4.42" rx="2.08" ry="2.08" transform="translate(12.29 -30.92) rotate(10.84)"/>
            <g class="cls-10">
              <rect x="166.94" y="47.13" width="4.42" height="4.42" rx="2.08" ry="2.08" transform="translate(12.29 -30.92) rotate(10.84)"/>
            </g>
            <rect class="cls-9" x="166.27" y="47" width="4.42" height="4.42" rx="2.08" ry="2.08" transform="translate(12.26 -30.8) rotate(10.84)"/>
            <path class="cls-5" d="M168.96,48.34l-.35,1.81-.42-.08.28-1.47-.36-.07.06-.34.78.15Z"/>
          </g>
          <g>
            <rect class="cls-7" x="173" y="48.29" width="4.42" height="4.42" rx="2.08" ry="2.08" transform="translate(12.62 -32.04) rotate(10.84)"/>
            <g class="cls-10">
              <rect x="173" y="48.29" width="4.42" height="4.42" rx="2.08" ry="2.08" transform="translate(12.62 -32.04) rotate(10.84)"/>
            </g>
            <rect class="cls-9" x="172.33" y="48.16" width="4.42" height="4.42" rx="2.08" ry="2.08" transform="translate(12.58 -31.92) rotate(10.84)"/>
            <path class="cls-5" d="M175.4,51.1l-.07.34-1.37-.26.05-.27.83-.53c.19-.12.24-.21.25-.3.03-.14-.06-.24-.25-.28-.16-.03-.3,0-.41.11l-.27-.26c.18-.18.46-.26.78-.2.4.08.63.34.57.66-.03.18-.11.33-.41.51l-.49.31.78.15Z"/>
          </g>
          <g>
            <rect class="cls-7" x="179.28" y="49.49" width="4.42" height="4.42" rx="2.08" ry="2.08" transform="translate(12.96 -33.2) rotate(10.84)"/>
            <g class="cls-10">
              <rect x="179.28" y="49.49" width="4.42" height="4.42" rx="2.08" ry="2.08" transform="translate(12.96 -33.2) rotate(10.84)"/>
            </g>
            <rect class="cls-9" x="178.61" y="49.36" width="4.42" height="4.42" rx="2.08" ry="2.08" transform="translate(12.92 -33.07) rotate(10.84)"/>
            <path class="cls-5" d="M181.7,52.08c-.06.31-.35.54-.86.44-.25-.05-.5-.17-.65-.33l.22-.29c.12.13.3.23.49.26.21.04.36-.02.38-.17.03-.14-.06-.24-.3-.29l-.19-.04.05-.28.45-.35-.77-.15.06-.34,1.27.24-.05.27-.5.39c.32.11.44.35.39.61Z"/>
          </g>
          <g>
            <rect class="cls-7" x="185.56" y="50.69" width="4.42" height="4.42" rx="2.08" ry="2.08" transform="translate(13.29 -34.36) rotate(10.84)"/>
            <g class="cls-10">
              <rect x="185.56" y="50.69" width="4.42" height="4.42" rx="2.08" ry="2.08" transform="translate(13.29 -34.36) rotate(10.84)"/>
            </g>
            <rect class="cls-9" x="184.91" y="50.56" width="4.42" height="4.42" rx="2.08" ry="2.08" transform="translate(13.26 -34.24) rotate(10.84)"/>
            <g>
              <rect class="cls-5" x="187.02" y="51.71" width=".17" height="1.98" transform="translate(100.17 226.56) rotate(-79.16)"/>
              <path class="cls-5" d="M187.58,51.92c-.03.17-.2.29-.37.25-.17-.03-.29-.2-.25-.37.03-.17.2-.29.37-.25.17.03.29.2.25.37Z"/>
              <path class="cls-5" d="M187.26,53.61c-.03.17-.2.29-.37.25-.17-.03-.29-.2-.25-.37.03-.17.2-.29.37-.25.17.03.29.2.25.37Z"/>
            </g>
          </g>
          <g>
            <g class="cls-10">
              <path d="M169.24,58.21l-3.44-.66c-.25-.05-.41-.29-.37-.54l.66-3.44c.05-.25.29-.41.54-.37l3.44.66c.27.07.43.3.37.54l-.66,3.44c-.05.25-.29.41-.54.37Z"/>
            </g>
            <rect class="cls-9" x="165.05" y="53.36" width="4.42" height="4.42" rx="2.08" ry="2.08" transform="translate(13.43 -30.45) rotate(10.84)"/>
            <path class="cls-5" d="M168,56.24l-.3-.06-.07.38-.41-.08.07-.38-.98-.19.05-.28,1.07-.99.44.08-1,.94.49.09.06-.34.4.08-.06.34.3.06-.07.34Z"/>
          </g>
          <g>
            <rect class="cls-7" x="171.78" y="54.65" width="4.42" height="4.42" rx="2.08" ry="2.08" transform="translate(13.79 -31.7) rotate(10.84)"/>
            <g class="cls-10">
              <rect x="171.78" y="54.65" width="4.42" height="4.42" rx="2.08" ry="2.08" transform="translate(13.79 -31.7) rotate(10.84)"/>
            </g>
            <rect class="cls-9" x="171.11" y="54.52" width="4.42" height="4.42" rx="2.08" ry="2.08" transform="translate(13.76 -31.57) rotate(10.84)"/>
            <path class="cls-5" d="M174.02,57.2c-.06.32-.35.56-.87.46-.25-.05-.5-.17-.65-.33l.23-.29c.12.13.29.23.48.26.21.04.36-.02.38-.17.03-.14-.05-.25-.38-.32l-.46-.09.29-1,1.1.21-.06.34-.76-.14-.09.34.15.03c.54.1.7.38.64.7Z"/>
          </g>
          <g>
            <rect class="cls-7" x="178.06" y="55.85" width="4.42" height="4.42" rx="2.08" ry="2.08" transform="translate(14.13 -32.86) rotate(10.84)"/>
            <g class="cls-10">
              <rect x="178.06" y="55.85" width="4.42" height="4.42" rx="2.08" ry="2.08" transform="translate(14.13 -32.86) rotate(10.84)"/>
            </g>
            <rect class="cls-9" x="177.39" y="55.73" width="4.42" height="4.42" rx="2.08" ry="2.08" transform="translate(14.09 -32.73) rotate(10.84)"/>
            <path class="cls-5" d="M180.43,58.42c-.07.37-.42.54-.8.47-.5-.1-.75-.47-.64-1.05.12-.63.56-.9,1.11-.8.19.04.37.12.48.22l-.21.28c-.09-.09-.2-.13-.32-.16-.3-.06-.53.08-.61.43.13-.09.29-.11.48-.07.35.07.58.34.52.68ZM180.02,58.36c.03-.17-.07-.29-.26-.33-.18-.04-.33.05-.37.21-.03.16.07.29.27.33.18.03.32-.05.35-.21Z"/>
          </g>
          <g>
            <rect class="cls-7" x="184.34" y="57.06" width="4.42" height="4.42" rx="2.08" ry="2.08" transform="translate(14.47 -34.01) rotate(10.84)"/>
            <g class="cls-10">
              <rect x="184.34" y="57.06" width="4.42" height="4.42" rx="2.08" ry="2.08" transform="translate(14.47 -34.01) rotate(10.84)"/>
            </g>
            <rect class="cls-9" x="183.67" y="56.93" width="4.42" height="4.42" rx="2.08" ry="2.08" transform="translate(14.43 -33.89) rotate(10.84)"/>
            <g>
              <rect class="cls-5" x="184.9" y="59.06" width="1.98" height=".17" transform="translate(-1.95 111.77) rotate(-33.3)"/>
              <rect class="cls-5" x="185.8" y="58.15" width=".17" height="1.98" transform="translate(-1.13 114.61) rotate(-34.17)"/>
            </g>
          </g>
          <g>
            <rect class="cls-7" x="164.51" y="59.81" width="4.42" height="4.42" rx="2.08" ry="2.08" transform="translate(14.63 -30.24) rotate(10.84)"/>
            <g class="cls-10">
              <rect x="164.51" y="59.81" width="4.42" height="4.42" rx="2.08" ry="2.08" transform="translate(14.63 -30.24) rotate(10.84)"/>
            </g>
            <rect class="cls-9" x="163.84" y="59.68" width="4.42" height="4.42" rx="2.08" ry="2.08" transform="translate(14.59 -30.11) rotate(10.84)"/>
            <path class="cls-5" d="M166.82,61.08l-.05.27-.97,1.41-.46-.09.93-1.35-.6-.11-.06.29-.37-.07.12-.64,1.45.28Z"/>
          </g>
          <g>
            <rect class="cls-7" x="170.57" y="60.97" width="4.42" height="4.42" rx="2.08" ry="2.08" transform="translate(14.96 -31.36) rotate(10.84)"/>
            <g class="cls-10">
              <rect x="170.57" y="60.97" width="4.42" height="4.42" rx="2.08" ry="2.08" transform="translate(14.96 -31.36) rotate(10.84)"/>
            </g>
            <rect class="cls-9" x="169.9" y="60.84" width="4.42" height="4.42" rx="2.08" ry="2.08" transform="translate(14.92 -31.23) rotate(10.84)"/>
            <path class="cls-5" d="M172.95,63.58c-.07.34-.41.5-.87.41-.46-.09-.72-.36-.65-.7.04-.19.17-.32.36-.37-.12-.11-.17-.25-.14-.41.06-.32.38-.46.8-.38.42.08.66.33.6.65-.03.16-.13.27-.28.33.16.12.23.29.19.48ZM172.53,63.49c.03-.16-.08-.28-.29-.32-.21-.04-.36.03-.39.19-.03.16.08.29.29.33.21.04.36-.04.39-.2ZM172.06,62.6c-.03.14.07.24.24.28.17.03.3-.03.33-.17.03-.14-.07-.25-.24-.28-.17-.03-.3.03-.32.17Z"/>
          </g>
          <g>
            <rect class="cls-7" x="176.85" y="62.17" width="4.42" height="4.42" rx="2.08" ry="2.08" transform="translate(15.3 -32.52) rotate(10.84)"/>
            <g class="cls-10">
              <rect x="176.85" y="62.17" width="4.42" height="4.42" rx="2.08" ry="2.08" transform="translate(15.3 -32.52) rotate(10.84)"/>
            </g>
            <rect class="cls-9" x="176.18" y="62.04" width="4.42" height="4.42" rx="2.08" ry="2.08" transform="translate(15.26 -32.39) rotate(10.84)"/>
            <path class="cls-5" d="M179.24,64.35c-.12.63-.56.9-1.11.8-.19-.04-.37-.12-.48-.22l.21-.28c.09.09.2.13.32.16.3.06.53-.08.61-.43-.13.09-.29.11-.48.08-.35-.07-.58-.34-.52-.68.07-.37.42-.54.8-.47.5.1.75.47.64,1.05ZM178.84,63.95c.03-.16-.06-.29-.26-.33-.18-.03-.32.05-.35.21-.03.17.07.3.26.33.18.04.33-.05.36-.21Z"/>
          </g>
          <g>
            <rect class="cls-7" x="183.14" y="63.37" width="4.42" height="4.42" rx="2.08" ry="2.08" transform="translate(15.63 -33.68) rotate(10.84)"/>
            <g class="cls-10">
              <rect x="183.14" y="63.37" width="4.42" height="4.42" rx="2.08" ry="2.08" transform="translate(15.63 -33.68) rotate(10.84)"/>
            </g>
            <rect class="cls-9" x="182.46" y="63.24" width="4.42" height="4.42" rx="2.08" ry="2.08" transform="translate(15.6 -33.55) rotate(10.84)"/>
            <rect class="cls-5" x="184.59" y="64.47" width=".17" height="1.98" transform="translate(85.68 234.54) rotate(-79.17)"/>
          </g>
          <g>
            <rect class="cls-7" x="175.63" y="68.54" width="4.42" height="4.42" rx="2.08" ry="2.08" transform="translate(16.47 -32.17) rotate(10.84)"/>
            <g class="cls-10">
              <rect x="175.63" y="68.54" width="4.42" height="4.42" rx="2.08" ry="2.08" transform="translate(16.47 -32.17) rotate(10.84)"/>
            </g>
            <rect class="cls-9" x="174.96" y="68.41" width="4.42" height="4.42" rx="2.08" ry="2.08" transform="translate(16.44 -32.05) rotate(10.84)"/>
          </g>
          <g>
            <rect class="cls-3" x="181.92" y="69.74" width="4.42" height="4.42" rx="2.08" ry="2.08" transform="translate(16.81 -33.33) rotate(10.84)"/>
            <g class="cls-6">
              <rect x="181.92" y="69.74" width="4.42" height="4.42" rx="2.08" ry="2.08" transform="translate(16.81 -33.33) rotate(10.84)"/>
            </g>
            <rect class="cls-3" x="181.25" y="69.61" width="4.42" height="4.42" rx="2.08" ry="2.08" transform="translate(16.77 -33.21) rotate(10.84)"/>
            <g>
              <rect class="cls-5" x="183.42" y="70.6" width=".17" height="1.98" transform="translate(78.71 238.37) rotate(-79.17)"/>
              <rect class="cls-5" x="183.28" y="71.34" width=".17" height="1.98" transform="translate(77.87 238.83) rotate(-79.17)"/>
            </g>
          </g>
          <rect class="cls-9" x="162.34" y="66.54" width="10.68" height="4.54" rx="2.2" ry="2.2" transform="translate(15.92 -30.3) rotate(10.84)"/>
          <path class="cls-5" d="M167.3,68.64c.11-.6.51-.87.96-.79.45.09.71.49.6,1.09-.11.6-.51.87-.96.79-.44-.09-.71-.49-.6-1.08ZM168.43,68.86c.08-.41-.03-.61-.24-.65-.21-.04-.38.1-.46.51-.08.41.03.61.24.65.21.04.39-.1.47-.51Z"/>
          <g>
            <rect class="cls-5" x="176.19" y="70.54" width="1.98" height=".17" transform="translate(72.12 229.81) rotate(-78.31)"/>
            <rect class="cls-5" x="177.09" y="69.63" width=".17" height="1.98" transform="translate(74.51 231.37) rotate(-79.17)"/>
          </g>
          <g>
            <path class="cls-9" d="M177.97,39.48l-.52,2.71-.13-.02.5-2.59-.68-.13.02-.12.81.15Z"/>
            <path class="cls-9" d="M179.97,42.55l-.02.12-1.83-.35.02-.09,1.38-.95c.4-.27.5-.45.55-.67.07-.36-.14-.64-.61-.73-.36-.07-.64-.01-.87.17l-.07-.1c.25-.19.58-.26.97-.19.52.1.8.43.71.87-.05.26-.17.46-.6.75l-1.26.86,1.64.31Z"/>
            <path class="cls-9" d="M182.17,42.31c-.09.45-.46.71-1.06.59-.41-.08-.74-.3-.87-.56l.09-.08c.12.23.41.44.8.51.52.1.84-.1.91-.5.08-.39-.14-.7-.71-.81l-.15-.03.02-.09,1.05-.94-1.49-.29.02-.12,1.66.32-.02.09-1.06.94c.63.12.89.49.8.94Z"/>
            <path class="cls-9" d="M184.84,42.79l-.59-.11-.15.78-.13-.02.15-.78-1.56-.3.02-.09,1.85-1.55.15.03-1.82,1.53,1.38.26.13-.69.13.02-.13.69.59.11-.02.12Z"/>
            <path class="cls-9" d="M185.35,43.58c0,.05-.03.08-.05.14l-.24.49-.1-.02.22-.51c-.06-.02-.1-.08-.09-.15.01-.07.08-.12.15-.1.08.01.12.09.1.15Z"/>
            <path class="cls-9" d="M188.09,43.41l-.59-.11-.15.78-.13-.02.15-.78-1.55-.3.02-.09,1.85-1.55.15.03-1.82,1.53,1.38.27.13-.69.13.02-.13.69.59.11-.02.12Z"/>
            <path class="cls-9" d="M190.1,43.81c-.08.44-.46.72-1.07.61-.4-.08-.73-.3-.86-.55l.09-.08c.12.23.41.44.8.51.53.1.84-.13.92-.51.08-.42-.12-.71-.89-.86l-.53-.1.39-1.25,1.4.27-.02.12-1.29-.25-.31,1.01.42.08c.83.16,1.07.52.98,1Z"/>
          </g>
        </g>
      </g>
      <g>
        <rect class="cls-12" x="25.34" y="9.93" width="76.36" height="49.76"/>
        <rect class="cls-11" x="21.57" y="7.24" width="76.36" height="49.65"/>
        <g>
          <rect class="cls-1" x="12.22" y="3.11" width="74.9" height="49.95"/>
          <rect class="cls-3" x="26.12" y="20.98" width="12.32" height="4.94"/>
          <rect class="cls-3" x="63.09" y="20.98" width="12.32" height="4.94"/>
          <rect class="cls-3" x="63.09" y="30.8" width="12.32" height="4.94"/>
          <rect class="cls-3" x="63.09" y="35.71" width="12.32" height="4.94"/>
          <rect class="cls-7" x="38.44" y="30.89" width="12.32" height="4.94"/>
          <rect class="cls-7" x="50.75" y="35.89" width="12.32" height="4.94"/>
          <rect class="cls-11" x="38.44" y="45.7" width="12.32" height="5.14"/>
          <rect class="cls-3" x="63.09" y="45.77" width="12.32" height="4.94"/>
          <rect class="cls-15" x="18.31" y="16.15" width="66.53" height="4.83"/>
          <g>
            <rect class="cls-15" x="14.46" y="16.15" width="11.66" height="34.79"/>
            <path class="cls-15" d="M26.29,51.11h-12V15.99h12v35.13ZM14.63,50.78h11.33V16.32h-11.33v34.46Z"/>
          </g>
          <rect class="cls-3" x="12.22" y="3.11" width="74.9" height="5.67"/>
          <rect class="cls-11" x="14.59" y="10.85" width="11.53" height="3.24"/>
          <rect class="cls-11" x="27.47" y="10.85" width="11.12" height="3.24"/>
          <rect class="cls-11" x="39.67" y="10.85" width="11.12" height="3.24"/>
          <rect class="cls-11" x="51.87" y="10.85" width="11.12" height="3.24"/>
          <rect class="cls-11" x="64.06" y="10.85" width="11.12" height="3.24"/>
          <rect class="cls-11" x="76.26" y="10.85" width="9.14" height="3.24"/>
          <path class="cls-9" d="M14.46,50.84s.12,0,.34,0c.23,0,.56,0,1.01,0,.89,0,2.19,0,3.89-.01,3.39,0,8.35-.01,14.58-.02,12.46,0,30.04-.02,50.57-.04l-.08.08c0-10.73,0-22.46,0-34.68h0s.09.08.09.08c-27.19,0-51.97-.02-70.39-.02l.06-.06c-.01,10.69-.03,19.36-.03,25.35,0,3-.01,5.33-.02,6.92,0,.79,0,1.39,0,1.8,0,.41,0,.62,0,.62,0,0,0-.2,0-.61,0-.41,0-1.01,0-1.79,0-1.58,0-3.91-.02-6.9,0-6-.02-14.68-.03-25.39v-.06s.06,0,.06,0c18.42,0,43.19-.01,70.39-.02h.09v.09h0c0,12.23,0,23.96,0,34.69v.08h-.08c-20.55-.02-38.15-.03-50.62-.04-6.23,0-11.17-.02-14.56-.02-1.69,0-2.99,0-3.87-.01-.44,0-.77,0-1,0-.22,0-.33,0-.33,0Z"/>
          <path class="cls-9" d="M84.98,20.98s-15.76.09-35.19.09-35.19-.04-35.19-.09,15.75-.09,35.19-.09,35.19.04,35.19.09Z"/>
          <path class="cls-9" d="M84.98,25.93s-15.76.09-35.19.09-35.19-.04-35.19-.09,15.75-.09,35.19-.09,35.19.04,35.19.09Z"/>
          <path class="cls-9" d="M84.98,30.87s-15.76.09-35.19.09-35.19-.04-35.19-.09,15.75-.09,35.19-.09,35.19.04,35.19.09Z"/>
          <path class="cls-9" d="M84.98,35.81s-15.76.09-35.19.09-35.19-.04-35.19-.09,15.75-.09,35.19-.09,35.19.04,35.19.09Z"/>
          <path class="cls-9" d="M84.98,40.76s-15.76.09-35.19.09-35.19-.04-35.19-.09,15.75-.09,35.19-.09,35.19.04,35.19.09Z"/>
          <path class="cls-9" d="M84.98,45.7s-15.76.09-35.19.09-35.19-.04-35.19-.09,15.75-.09,35.19-.09,35.19.04,35.19.09Z"/>
          <path class="cls-9" d="M26.12,50.95s-.09-7.75-.09-17.3.04-17.3.09-17.3.09,7.74.09,17.3-.04,17.3-.09,17.3Z"/>
          <path class="cls-9" d="M38.44,50.84s-.09-7.72-.09-17.25.04-17.25.09-17.25.09,7.72.09,17.25-.04,17.25-.09,17.25Z"/>
          <path class="cls-9" d="M50.77,50.95s-.09-7.75-.09-17.3.04-17.3.09-17.3.09,7.74.09,17.3-.04,17.3-.09,17.3Z"/>
          <path class="cls-9" d="M63.09,50.95s-.09-7.75-.09-17.3.04-17.3.09-17.3.09,7.74.09,17.3-.04,17.3-.09,17.3Z"/>
          <path class="cls-9" d="M75.41,50.95s-.09-7.75-.09-17.3.04-17.3.09-17.3.09,7.74.09,17.3-.04,17.3-.09,17.3Z"/>
          <path class="cls-5" d="M16.6,5.95c0,.41-.32.74-.71.74s-.71-.33-.71-.74.32-.74.71-.74.71.33.71.74Z"/>
          <path class="cls-5" d="M19.03,5.95c0,.41-.32.74-.71.74s-.71-.33-.71-.74.32-.74.71-.74.71.33.71.74Z"/>
          <path class="cls-5" d="M21.46,5.95c0,.41-.32.74-.71.74s-.71-.33-.71-.74.32-.74.71-.74.71.33.71.74Z"/>
          <path class="cls-9" d="M87.12,53.06c0-.57-.03-19.52-.07-49.95l.07.07c-20.62,0-46.66.01-74.89.02h0l.09-.09c0,17.79,0,34.7,0,49.95l-.08-.08c22.05.02,40.76.03,53.97.04,6.61,0,11.83.02,15.41.02,1.79,0,3.17,0,4.1,0,.46,0,.82,0,1.06,0,.24,0,.36,0,.36,0,0,0-.12,0-.35,0-.24,0-.59,0-1.05,0-.93,0-2.3,0-4.08,0-3.57,0-8.8.01-15.4.02-13.22,0-31.95.02-54.02.04h-.08s0-.08,0-.08c0-15.24,0-32.16,0-49.95v-.09h.09c28.23,0,54.27.01,74.89.02h.07s0,.07,0,.07c-.04,30.43-.07,49.38-.07,49.95Z"/>
        </g>
      </g>
      <g>
        <g>
          <path class="cls-3" d="M107.44,63.46l-3.88,4.83-16.2,4.51,2.42,26.17c.75,10.26,1.8,12.77,2.52,19.59v5.56h46.01l6.42-53.12-15.87-3.65-3.41-3.88h-18.01Z"/>
          <polygon class="cls-5" points="106.75 72.81 108.73 99.01 110.85 112.31 126.41 68.9 113.86 83.77 106.75 72.81"/>
          <path class="cls-9" d="M110.63,114.18s.02-.04.06-.13c.05-.09.11-.21.19-.36.18-.33.44-.8.76-1.4.67-1.22,1.64-2.96,2.84-5.12,2.41-4.32,5.74-10.27,9.41-16.84,1.82-3.24,3.56-6.34,5.13-9.14l.02.1c-.77-.65-1.52-1.28-2.23-1.89l-.08-.07.09-.05c1.13-.66,2.19-1.29,3.18-1.88l-.03.07c-.35-3.1-.63-5.63-.83-7.39-.09-.87-.17-1.55-.22-2.03-.02-.23-.04-.4-.05-.53-.01-.12-.01-.18-.01-.18,0,0,.01.06.03.18.02.13.04.3.07.53.06.47.14,1.15.25,2.02.21,1.76.52,4.29.89,7.39v.04s-.03.02-.03.02c-.99.59-2.05,1.22-3.17,1.89v-.12c.73.6,1.48,1.23,2.25,1.88l.05.04-.03.06c-1.57,2.81-3.3,5.9-5.12,9.15-3.69,6.56-7.03,12.51-9.46,16.82-1.21,2.14-2.2,3.88-2.88,5.09-.34.59-.61,1.06-.79,1.38-.09.15-.16.27-.21.36-.05.08-.07.12-.08.12Z"/>
          <path class="cls-9" d="M110.63,114.18s-.02-.04-.04-.12c-.03-.09-.07-.21-.11-.37-.1-.33-.24-.81-.42-1.41-.36-1.24-.88-3.01-1.52-5.2-.63-2.2-1.41-4.81-2.22-7.73-.75-2.93-1.46-6.18-2.22-9.59-1.03-4.68-1.95-9.05-2.72-12.76v-.06s.05-.02.05-.02c.74-.26,1.44-.51,2.12-.74v.13c-.94-.49-1.8-.95-2.59-1.37l-.05-.03.02-.05c.81-2.04,1.46-3.68,1.92-4.82.23-.56.4-.99.53-1.3.06-.14.11-.25.14-.34.03-.08.05-.11.05-.11,0,0,0,.04-.04.12-.03.08-.07.2-.12.34-.12.31-.28.75-.5,1.31-.44,1.15-1.08,2.8-1.87,4.84l-.03-.08c.8.42,1.66.86,2.59,1.35l.14.07-.15.05c-.67.24-1.38.49-2.12.75l.05-.09c.79,3.7,1.72,8.08,2.75,12.75.76,3.41,1.47,6.66,2.21,9.59.79,2.91,1.57,5.53,2.18,7.73.62,2.2,1.12,3.98,1.47,5.22.17.61.3,1.09.39,1.42.04.16.07.28.1.37.02.08.03.13.03.13Z"/>
          <path class="cls-3" d="M87.36,72.8s-3.56,1.73-6.07,9.72c-1.82,5.8-9.24,25.79-9.24,25.79l-8.21-2.4s-6.05,7.53-4.68,10.15c1.37,2.62,11.38,8.05,11.38,8.05h11.72c1.6-1.24,2.77-2.94,3.35-4.88l6.7-22.57-4.94-23.87Z"/>
          <path class="cls-3" d="M144.73,70.99s3.11,1.66,5.16,5.3c2.05,3.64,18.38,30.22,19.73,36.52,2.02,9.41-2.02,11.29-2.02,11.29h-5.64l-13.97-.08-1.76-10.93,6.21-1.33-11.51-12.77-.76,1.3-2.25-18.22,6.82-11.09Z"/>
          <path class="cls-9" d="M88.84,83.77s.46,4.52.93,10.1c.47,5.58.8,10.11.76,10.11-.05,0-.46-4.52-.93-10.1-.47-5.58-.8-10.11-.76-10.11Z"/>
          <path class="cls-9" d="M143.91,78.71s-.6,5.65-1.44,12.6c-.84,6.95-1.56,12.58-1.61,12.58-.05,0,.6-5.64,1.44-12.6.84-6.95,1.56-12.58,1.61-12.57Z"/>
          <path class="cls-9" d="M148.16,124.11s.05-.07.16-.2c.1-.13.25-.33.42-.6.34-.54.76-1.36,1.08-2.45.16-.54.3-1.15.39-1.81.09-.66.17-1.37.09-2.11-.08-.73-.34-1.49-.78-2.16-.44-.67-1.05-1.28-1.77-1.73-.05-.03-.1-.06-.15-.09l-.19-.1.2-.06c3.3-.97,6.39-1.43,8.63-1.61,1.12-.1,2.02-.14,2.65-.16.31-.01.56-.01.72-.01.16,0,.25,0,.25,0,0,0-.09.02-.25.03-.18.01-.42.03-.72.05-.62.04-1.53.1-2.64.21-2.23.21-5.3.69-8.59,1.66l.02-.16c.05.03.11.06.16.09.75.47,1.36,1.09,1.82,1.79.46.7.71,1.48.79,2.24.08.76,0,1.48-.11,2.15-.1.67-.24,1.28-.41,1.82-.34,1.1-.79,1.92-1.14,2.45-.18.27-.34.46-.45.58-.11.12-.18.18-.19.18Z"/>
          <path class="cls-9" d="M110.67,124.11s-.09-2.25-.09-5.03.04-5.03.09-5.03.09,2.25.09,5.03-.04,5.03-.09,5.03Z"/>
          <path class="cls-9" d="M136.88,101.82s0-.08-.01-.24c0-.16,0-.39-.01-.67,0-.59-.02-1.43-.03-2.5l.05.05c-3.14,0-8.2.02-13.92.04.04-.04-.09.09.09-.09h0v.44s0,.43,0,.43c0,.29,0,.57,0,.86,0,.57,0,1.13,0,1.68l-.09-.09c3.95.02,7.42.03,9.91.04,1.24.01,2.23.02,2.93.02.34,0,.6,0,.8.01.08,0,.15,0,.21,0,.05,0,.07,0,.07,0,0,0-.09,0-.26.01-.19,0-.45,0-.78.01-.7,0-1.69.01-2.91.02-2.51,0-5.99.02-9.97.04h-.09s0-.09,0-.09c0-.55,0-1.11,0-1.68,0-.28,0-.57,0-.86v-.43s0-.22,0-.22v-.19h0v-.02h0c.18-.18.05-.05.09-.09,5.72.01,10.78.03,13.92.04h.05s0,.05,0,.05c-.01,1.07-.02,1.93-.03,2.53,0,.28,0,.5-.01.66,0,.15,0,.22-.01.22Z"/>
          <path class="cls-9" d="M88.84,82.27s-.5-1.93-1.02-4.34c-.52-2.41-.9-4.36-.85-4.37.05-.01.5,1.93,1.02,4.34.52,2.41.9,4.36.85,4.37Z"/>
          <g class="cls-4">
            <polygon points="111.4 112.81 131.27 82.33 128.4 79.56 130.04 77.47 126.86 79.35 129.1 81.24 111.4 112.81"/>
          </g>
          <g class="cls-4">
            <polygon points="62.32 113.83 62.32 115.52 84.87 115.59 84.87 113.83 62.32 113.83"/>
          </g>
        </g>
        <g>
          <path class="cls-9" d="M89.8,51.57c1.2.16,2.46-.4,3.14-1.4-.81.12-1.68.24-2.41-.13-.73-.37-1.14-1.45-.57-2.03.45-.46,1.18-.38,1.82-.43,1.49-.11,2.86-1.16,3.35-2.57.54-1.55.05-3.24-.15-4.87-.56-4.73,1.69-9.69,5.62-12.39l10.21-5.9c3.7,4.74,4.86,11.13,4.09,17.1-.77,5.97-3.3,11.58-6.34,16.77-.89,1.51-1.83,3.01-3.08,4.24-1.25,1.23-2.85,2.17-4.59,2.35-.46-1.43-.17-3.09.76-4.27-2.76.18-5.58-.83-7.6-2.72.73-.56,1.46-1.12,2.19-1.68-2.31.31-4.74-.47-6.43-2.06Z"/>
          <g>
            <g>
              <path class="cls-14" d="M129.13,34.91c-.18-4.27-2.84-7.84-6.95-9.01l-12.8-3.66c-5.56-.76-9.47,5.99-10,11.57-.58,6.2-1.02,12.76-.43,17.42,1.19,9.37,8.31,10.78,8.31,10.78,0-.01-.24,8.45-.31,11.17l6.51,13.62,12.62-17.42,3.08-34.35c0-.16-.02.1-.03-.11Z"/>
              <path class="cls-9" d="M101.85,41.54c-.04.63.46,1.19,1.12,1.24.66.06,1.22-.41,1.27-1.04.04-.63-.46-1.19-1.11-1.24-.66-.06-1.23.41-1.27,1.04Z"/>
              <path class="cls-9" d="M100.68,37.51c.14.16,1.07-.48,2.36-.44,1.29.02,2.21.72,2.35.56.07-.07-.07-.35-.47-.67-.4-.31-1.08-.62-1.88-.64-.8-.02-1.49.25-1.88.54-.41.29-.55.57-.48.64Z"/>
              <path class="cls-9" d="M112.73,41.54c-.04.63.46,1.19,1.12,1.24.66.06,1.22-.41,1.27-1.04.04-.63-.46-1.19-1.12-1.24-.66-.06-1.23.41-1.27,1.04Z"/>
              <path class="cls-9" d="M112.91,37.86c.14.16,1.07-.48,2.36-.44,1.29.02,2.21.72,2.35.56.07-.07-.07-.35-.47-.67-.4-.31-1.08-.62-1.88-.64-.8-.02-1.49.25-1.88.54-.4.29-.55.57-.48.64Z"/>
              <path class="cls-9" d="M108.59,47.85c0-.07-.79-.24-2.08-.44-.33-.04-.64-.12-.68-.34-.07-.24.08-.59.25-.97.33-.79.68-1.61,1.05-2.47,1.46-3.52,2.53-6.42,2.38-6.48-.14-.06-1.44,2.75-2.9,6.27-.35.87-.69,1.7-1.01,2.49-.14.37-.36.79-.21,1.28.08.25.32.43.53.5.21.07.39.08.56.09,1.3.11,2.11.14,2.12.07Z"/>
              <path class="cls-2" d="M119.73,59.04s-3.22,6.32-12.53,5.16l.06-2.19s6.13.58,12.47-2.97Z"/>
              <path class="cls-9" d="M113.44,33.7c.12.35,1.41.23,2.91.46,1.51.2,2.71.68,2.92.37.09-.15-.11-.48-.59-.84-.48-.35-1.25-.7-2.15-.83-.9-.13-1.74,0-2.29.2-.56.21-.85.47-.8.64Z"/>
              <path class="cls-9" d="M101.21,33.58c.22.3,1.11.02,2.18.04,1.07-.02,1.96.26,2.18-.04.1-.15-.04-.44-.42-.73-.38-.29-1.02-.53-1.76-.53-.73,0-1.38.25-1.76.53-.39.29-.52.59-.42.73Z"/>
            </g>
            <path class="cls-2" d="M113.42,50.36c-.15-.77-.92-1.38-1.7-1.32-.57.04-1.1.41-1.38.92-.27.51-.3,1.13-.12,1.68l.02.12c.51.6,1.42.83,2.14.52.72-.31,1.19-1.14,1.04-1.92Z"/>
            <path class="cls-9" d="M109.31,51.76c0-.2,1.3-.1,2.31-1.14,1.01-1.04.98-2.43,1.16-2.43.08-.01.23.33.2.91-.03.58-.28,1.4-.89,2.03-.62.63-1.4.87-1.93.87-.55,0-.86-.16-.84-.25Z"/>
          </g>
          <path class="cls-9" d="M124.83,20.06c-1.44-2.29-4.84-4.68-7.51-5.14-3.04-.53-4.87-.01-6.86,1.81,0,0-1.55,1.5-3.01,1.78-1.46.28-2.67.04-4.41.93-2.37,1.21-3.41,4.39-4.51,6.82-1.37,3.02-3.31,5.79-4.2,8.98s-.42,7.11,2.27,9.05c-.46-2.44-.84-5.13.16-7.35-.12.89-.09,1.78.16,2.65.5-1.44,1.03-2.92,2.08-4.03.98-1.05,2.34-1.67,3.36-2.69,1.49-1.49,2.17-3.77,3.98-4.85,1.88-1.13,4.26-.57,6.45-.55,3.68.02,7.33-1.74,9.61-4.63l-.55-.05c.99-.68,1.98-1.56,2.98-2.73Z"/>
          <path class="cls-9" d="M138.55,42.87c-.84-2.74-2.31-5.25-3.23-7.97-.9-2.65-1.27-5.47-2.45-8-1.6-3.4-4.59-7.8-9.25-7.56l-.32.28c-1.58-.18-3.21-.01-4.7.56l-.07,3.63-.89.79c.37.72.73,1.42,1.07,2.1.3,1.36.65,2.71,1.19,4,.53,1.26,1.26,2.45,2.24,3.4,8.03,19.22.75,20.43,4.36,31.44l2.27-6.31c1.94-1.12,3.53-2.83,4.5-4.85.13.67.27,1.33.4,2,1.83-1.93,2.96-4.5,3.14-7.16.35.64.7,1.28,1.04,1.92,1.65-2.34,1.54-5.53.7-8.28Z"/>
          <g>
            <g>
              <path class="cls-14" d="M124.85,42.17c.12-.31,5.93-2.22,5.83,3.88-.1,5.93-6.05,4.59-6.05,4.42,0-.17.22-8.31.22-8.31Z"/>
              <path class="cls-2" d="M126.5,48.27s.1.07.28.16c.17.08.46.14.77.03.63-.22,1.18-1.2,1.23-2.27.03-.54-.08-1.06-.26-1.48-.17-.44-.45-.75-.76-.81-.31-.08-.54.11-.62.27-.08.16-.05.28-.08.29-.02.01-.13-.1-.07-.35.03-.12.1-.26.24-.37.14-.11.35-.17.57-.14.46.04.86.47,1.06.94.23.47.36,1.05.33,1.66-.06,1.19-.69,2.3-1.56,2.53-.42.1-.77-.03-.94-.18-.18-.15-.21-.28-.19-.29Z"/>
            </g>
            <g>
              <path class="cls-5" d="M127.14,49.33c.58-.09,1.19.33,1.32.9.13.57-.25,1.21-.82,1.38-.56.16-1.23-.18-1.42-.73-.2-.55.1-1.23.64-1.47"/>
              <path class="cls-9" d="M126.87,49.41s-.39.19-.56.78c-.08.28-.05.66.21.94.24.28.69.46,1.1.35.41-.12.69-.51.74-.88.07-.37-.11-.71-.32-.9-.45-.41-.89-.32-.89-.37,0-.01.09-.06.28-.06.18,0,.46.06.73.28.26.2.51.61.45,1.08-.06.45-.38.94-.92,1.1-.54.15-1.07-.09-1.36-.45-.31-.36-.31-.84-.2-1.15.11-.32.32-.53.47-.63.16-.1.26-.11.27-.1Z"/>
            </g>
          </g>
          <path class="cls-7" d="M118.11,26.08c.12.05.67-1.96,2.32-3.83,1.63-1.89,3.54-2.7,3.48-2.81-.02-.04-.52.1-1.25.5-.73.4-1.68,1.09-2.53,2.06-.84.97-1.4,2-1.7,2.78-.3.78-.37,1.3-.33,1.31Z"/>
        </g>
        <g>
          <path class="cls-14" d="M64.92,115.52l-4.43-5.2s-3.11,0-4.66-1.48-4.43-2.87-3.26-5.51c0,0-1.4-1.63-.27-3.42l.04-.47s-3.49-1.48-2.49-3.26,2.95-1.01,2.95-1.01c0,0-3.82-2.58-4.5-3.29-1.84-1.89.14-3.16,2.18-2.03,3.38,1.87,14.82,7.26,15.6,11.14v1.69s3.18,3.9,3.18,4.13-.23,6.29-4.35,8.7Z"/>
          <g>
            <g>
              <path class="cls-5" d="M42.54,76.3c-.14-.18,17.37,28.05,17.37,28.05l.79,9.47h27.33l-2.54-10.78s-4.72-12.66-4.67-12.81c.1-.29-8.84-14.36-8.84-14.36l-29.45.43Z"/>
              <path class="cls-9" d="M42.54,76.3s.18,0,.54-.02c.36,0,.88-.02,1.56-.03,1.37-.02,3.37-.06,5.93-.11,5.12-.08,12.48-.2,21.42-.34h.04s.02.03.02.03c2.34,3.69,4.92,7.74,7.58,12.11.33.55.66,1.1.99,1.67.08.14.16.28.23.44.02.04.04.07.05.12,0,0,.01.02,0,.06,0,.04,0,.03,0,.03,0,0,0,0,0,0v.03s.08.23.08.23c.11.31.21.62.32.93.45,1.24.91,2.5,1.37,3.77.94,2.54,1.91,5.14,2.89,7.8h0s0,.01,0,.01c.77,3.27,1.58,6.7,2.4,10.19.05.2.09.4.14.59l.03.11h-.11c-9.73,0-18.98,0-27.33,0h-.07s0-.07,0-.07c-.28-3.31-.54-6.47-.79-9.47v.03c-5.21-8.45-9.55-15.46-12.58-20.37-1.51-2.45-2.69-4.38-3.5-5.7-.4-.66-.7-1.16-.91-1.5-.1-.17-.18-.3-.23-.39-.05-.09-.08-.13-.07-.13.33.53,6.96,11.18,17.44,28.01v.02s.01.02.01.02c.25,3,.52,6.16.8,9.47l-.08-.07c8.35,0,17.6,0,27.33,0l-.09.11c-.05-.19-.09-.39-.14-.59-.82-3.49-1.63-6.92-2.4-10.19h0c-.98-2.65-1.95-5.25-2.89-7.79-.46-1.27-.92-2.53-1.37-3.77-.11-.31-.22-.62-.32-.93l-.07-.24v-.03s-.02-.04-.02-.06v-.03c-.06-.03.09.02.05,0-.02,0-.03,0-.05,0-.02,0,0,.01-.01.01h0s-.03-.08-.04-.11c-.07-.14-.15-.28-.23-.43-.32-.56-.65-1.12-.98-1.66-2.66-4.37-5.23-8.42-7.56-12.11l.06.03c-8.95.12-16.32.21-21.45.28-2.56.03-4.56.05-5.92.07-.68,0-1.2.01-1.55.01-.35,0-.53,0-.53,0Z"/>
            </g>
            <path class="cls-9" d="M78.39,90.94s-.08,0-.24.01c-.18,0-.41,0-.7,0-.63-.01-1.5-.03-2.57-.05-2.17-.05-5.17-.13-8.48-.19-3.31-.05-6.31-.05-8.48.02-1.08.03-1.96.07-2.57.11-.29.02-.52.03-.7.04-.16,0-.24,0-.24,0,0,0,.08-.02.24-.04.18-.02.41-.04.7-.07.6-.06,1.48-.12,2.57-.16,2.17-.1,5.17-.12,8.49-.07,3.31.05,6.31.16,8.48.24,1.07.04,1.94.08,2.57.1.29.01.52.03.7.04.16.01.24.02.24.02Z"/>
            <path class="cls-9" d="M81.75,103.51s-3.87-.37-8.63-.94c-4.76-.57-8.62-1.07-8.61-1.12,0-.05,3.87.37,8.63.94,4.76.57,8.62,1.07,8.61,1.12Z"/>
          </g>
          <g>
            <path class="cls-14" d="M56.57,105.42c1.7-.11,3.41-.22,5.11-.33.54-.03,1.13-.09,1.5-.48.47-.48.24-1.58-.35-1.9l-5.86-1.41"/>
            <path class="cls-2" d="M56.97,101.3s.16.02.45.08c.32.07.73.16,1.24.27,1.08.25,2.53.59,4.19.98h.01s0,0,0,0c.22.13.39.34.49.57.1.23.16.49.15.75,0,.27-.1.56-.3.75-.2.19-.44.3-.69.36-.49.12-.96.11-1.41.14-.88.05-1.69.09-2.37.13-.65.03-1.19.06-1.6.07-.38.01-.59.02-.59,0,0-.01.21-.04.58-.07.41-.03.94-.08,1.59-.13.68-.05,1.48-.11,2.37-.17.44-.04.92-.03,1.37-.15.23-.06.44-.16.61-.32.16-.15.24-.39.25-.63.01-.46-.19-.94-.55-1.16h.02c-1.65-.4-3.1-.76-4.17-1.03-.5-.13-.91-.24-1.23-.32-.29-.08-.44-.13-.44-.14Z"/>
          </g>
          <g>
            <path class="cls-14" d="M58.94,99.47c1.57.28,3.05.72,4.54,1.28.57.22.73.66.67,1.17-.03.25-.12.49-.34.63-.21.13-.47.17-.72.2-1.47.14-2.88-.06-4.35-.26s-3.49,0-4.34.45"/>
            <path class="cls-2" d="M54.41,102.92s.05-.04.14-.09c.1-.05.25-.11.45-.17.4-.12,1-.24,1.75-.3.37-.03.78-.04,1.22-.03.44.01.91.08,1.4.14.97.13,2.05.26,3.18.21.28-.02.56-.03.82-.08.26-.05.5-.16.6-.38.19-.44.13-1.04-.27-1.29-.19-.13-.43-.19-.64-.28-.22-.08-.43-.15-.64-.23-.41-.14-.8-.27-1.16-.37-.71-.21-1.3-.36-1.7-.45-.41-.09-.63-.14-.63-.16,0,0,.06,0,.17.01.11.01.27.04.47.08.41.07,1,.2,1.72.4.36.1.75.22,1.17.35.21.07.42.15.64.22.22.09.45.14.68.29.22.14.39.4.43.67.04.27.03.55-.1.82-.06.13-.17.26-.31.33-.13.07-.27.12-.41.15-.28.05-.56.06-.85.08-1.15.05-2.23-.09-3.21-.23-.49-.07-.95-.14-1.38-.16-.43-.02-.84-.02-1.21,0-.74.04-1.33.14-1.73.24-.4.1-.61.21-.61.2Z"/>
          </g>
          <g>
            <path class="cls-14" d="M53.07,95.23c1.34.75,2.69,1.5,4.03,2.25.61.34,1.24.7,1.61,1.3s.33,1.49-.25,1.87c-.46.3-1.06.19-1.59.05-1.5-.38-2.99-.85-4.43-1.41"/>
            <path class="cls-2" d="M52.43,99.29s.21.05.57.18c.36.12.88.3,1.53.5.65.2,1.43.43,2.3.64.43.1.91.22,1.35.08.22-.07.4-.22.52-.42.12-.2.16-.45.15-.69-.01-.5-.29-.94-.65-1.25-.35-.32-.77-.55-1.16-.77-.78-.44-1.48-.84-2.08-1.18-.57-.33-1.04-.61-1.4-.81-.33-.19-.51-.31-.5-.32s.2.08.53.26c.36.19.84.45,1.42.76.61.33,1.32.72,2.1,1.15.39.22.82.45,1.19.79.19.17.36.37.49.6.13.23.2.5.22.77.01.27-.04.55-.18.79-.14.24-.36.42-.62.5-.51.16-1.01.03-1.44-.08-.87-.23-1.65-.47-2.3-.68-.65-.22-1.17-.41-1.52-.55-.18-.07-.31-.13-.41-.17-.09-.04-.14-.07-.14-.07Z"/>
          </g>
        </g>
        <path class="cls-14" d="M148.88,123.16l-1.92-.54-6.09-.57-1.7-2.26,1.19-4.88,7.61-1.81c3.51,2.5,2.56,6.66.91,10.07Z"/>
        <g>
          <g>
            <path class="cls-14" d="M131.17,110.9c-.62-.06-1.56-.06-2.14.17-.89.36-1.57,1.26-1.69,2.22-.2,1.57-.26,2.84-.37,4.29-.03.37.14.76.4,1.03.48.49,1.35.33,1.84-.15.49-.47.72-1.15.96-1.8.24-.64.49-2.18.86-2.31,1.06-.38,2.5,1.44,3.3.55l1.45-3.53c-2.24-.22-2.36-.26-4.6-.48Z"/>
            <path class="cls-2" d="M131.17,110.9s.03,0,.08,0c.06,0,.14,0,.24.01.23.02.53.04.92.08.81.08,1.96.19,3.37.32h.09s-.03.09-.03.09c-.42,1.03-.9,2.22-1.43,3.53h0s0,.02,0,.02c-.17.19-.44.3-.69.27-.25-.02-.49-.11-.72-.22-.45-.2-.88-.47-1.36-.59l-.18-.03h-.18c-.06,0-.11.03-.17.04-.06.01-.08.04-.12.08-.14.18-.22.44-.3.69-.16.5-.26,1.03-.45,1.56-.17.47-.34.95-.62,1.37-.14.21-.31.4-.52.55-.21.15-.44.24-.69.29-.25.04-.5.03-.74-.06-.24-.1-.42-.28-.55-.49-.13-.2-.21-.44-.22-.67,0-.25.03-.45.04-.67.06-.87.12-1.69.2-2.46.04-.39.08-.76.12-1.12.04-.36.12-.71.26-1.01.29-.61.74-1.06,1.21-1.31.47-.27.94-.3,1.31-.32.37-.02.66,0,.85.02.1,0,.17.02.22.02.05,0,.07.01.07.02,0,0-.1,0-.3,0-.19,0-.48-.01-.84.02-.36.03-.82.08-1.26.34-.44.25-.88.69-1.14,1.28-.14.29-.21.62-.24.98-.04.36-.08.73-.11,1.11-.07.77-.12,1.59-.18,2.46-.01.21-.04.45-.04.65.01.21.09.41.2.6.12.18.27.34.47.42.2.08.42.09.64.05.45-.08.84-.37,1.09-.77.27-.39.43-.86.6-1.33.18-.5.29-1.04.45-1.55.08-.26.16-.51.33-.75.03-.03.05-.06.09-.08.04-.03.08-.05.11-.05.07-.01.14-.04.21-.04.07,0,.14,0,.21,0l.2.03c.52.13.95.41,1.39.61.22.1.44.19.66.2.22.02.42-.06.56-.21v.02c.53-1.31,1.02-2.5,1.45-3.52l.05.09c-1.42-.15-2.57-.29-3.37-.38-.38-.05-.69-.08-.91-.11-.1-.01-.17-.02-.24-.03-.05,0-.08-.01-.08-.02Z"/>
          </g>
          <g>
            <g>
              <path class="cls-14" d="M144.01,111.35s-.75-.24-1.78.51c0,0-.38-1.68-1.72-2.01-.97-.24-2.21.76-2.21.76,0,0-.84-1.68-3.08-.98-1.85.58-5.74,12.07-6.07,12.84-.38.88,1.19,1.99,2.06,1.1.91-.93,3.96-6.04,3.96-6.04l-2.03,7.16c-.06.23-.05.48.02.71.22.73,1.65,1.58,2.66.21,1.26-1.71,2.54-5.23,2.54-5.23l1.24-2.7s-2.31,7.15-1.47,7.81c.84.65,1.92.4,2.69-1.28.77-1.68,3.57-7,3.57-7l1.33-.7-.49,1.68s-2.55,1.33-1.97,2.52,1.77.84,2.95.28c1.18-.56,2.21-3.32,2.84-4.46.56-1.02.62-4.01-1.8-4.12-.52-.02-1.02.19-1.38.55l-.12.12s-.4-1.49-1.73-1.73Z"/>
              <path class="cls-2" d="M144.01,111.35s.05,0,.16.03c.05,0,.12.03.19.06.08.02.16.07.26.12.38.2.88.69,1.15,1.51h-.05c.28-.32.7-.63,1.24-.69.53-.04,1.15.08,1.64.5.49.43.75,1.12.8,1.84.02.36,0,.74-.07,1.13-.04.19-.09.38-.18.57-.08.19-.18.35-.27.54-.36.73-.7,1.52-1.14,2.31-.22.39-.46.79-.77,1.16-.15.18-.33.35-.53.5-.21.14-.44.23-.66.32-.46.18-.95.36-1.49.31-.26-.03-.53-.14-.73-.32-.1-.09-.18-.2-.26-.31l-.1-.18c-.02-.07-.05-.13-.07-.2-.06-.28.02-.57.16-.81.14-.25.33-.44.53-.64.41-.38.87-.69,1.37-.97l-.04.04c.15-.52.32-1.09.49-1.68l.11.09c-.41.22-.87.46-1.33.7l.03-.03c-.66,1.28-1.35,2.61-2.06,3.97-.35.69-.7,1.39-1.05,2.09-.17.36-.35.72-.52,1.08-.18.36-.4.72-.7,1.02-.29.29-.71.52-1.16.5-.22,0-.43-.08-.63-.18-.1-.05-.18-.11-.27-.18-.1-.1-.14-.21-.16-.32-.08-.44-.03-.86.02-1.28.06-.42.13-.84.22-1.26.36-1.67.84-3.34,1.37-5.03l.16.06c-.39.85-.81,1.77-1.24,2.7h0c-.28.75-.61,1.55-.97,2.35-.27.59-.55,1.17-.86,1.73-.16.28-.32.55-.49.82-.18.26-.36.54-.62.75-.26.21-.58.35-.92.36-.34,0-.66-.1-.93-.28-.27-.18-.51-.44-.6-.77-.04-.16-.05-.33-.04-.49.01-.17.07-.32.11-.46.67-2.37,1.33-4.68,1.96-6.91l.15.07c-.78,1.29-1.55,2.54-2.34,3.75-.39.6-.79,1.2-1.2,1.76-.22.27-.41.58-.75.76-.33.18-.73.14-1.06,0-.33-.14-.61-.38-.78-.71-.08-.16-.11-.35-.08-.53.05-.19.11-.32.17-.48.23-.62.45-1.23.67-1.84.44-1.2.89-2.36,1.33-3.47.44-1.11.89-2.17,1.34-3.17.46-1,.92-1.94,1.45-2.79.27-.42.54-.83.92-1.13.09-.08.21-.13.32-.17.11-.03.23-.06.34-.09.23-.04.45-.07.68-.07.91-.02,1.71.5,2.09,1.18h-.07c.47-.37.96-.63,1.47-.76.25-.06.51-.08.74-.02.23.06.45.14.63.27.37.24.61.58.79.88.17.31.29.62.36.89h-.04c.54-.4,1.02-.52,1.33-.54.31-.02.46.04.46.04,0,0-.04,0-.11-.02-.08,0-.19-.02-.34,0-.31.03-.78.16-1.31.54l-.03.02v-.03c-.08-.27-.2-.57-.37-.88-.18-.3-.42-.62-.78-.85-.17-.12-.38-.2-.61-.26-.22-.05-.47-.03-.71.03-.48.12-.97.39-1.43.74l-.04.03-.03-.05c-.36-.64-1.14-1.14-2.01-1.12-.22,0-.44.03-.66.07-.11.03-.22.06-.33.09-.1.04-.2.08-.29.16-.36.28-.63.69-.89,1.1-.52.84-.98,1.78-1.43,2.78-.45,1-.89,2.06-1.33,3.17-.44,1.11-.88,2.27-1.32,3.47-.22.6-.44,1.22-.67,1.84-.05.15-.13.32-.16.46-.02.15,0,.3.07.44.14.28.4.51.7.63.3.12.65.15.93,0,.28-.15.48-.45.7-.72.41-.56.81-1.15,1.2-1.76.78-1.21,1.55-2.46,2.33-3.75l.32-.54-.17.6c-.63,2.23-1.28,4.54-1.96,6.91-.04.15-.09.29-.1.44-.01.14,0,.29.04.43.07.27.28.51.52.67.25.16.54.26.83.25.29,0,.58-.13.81-.32.24-.18.4-.45.59-.71.17-.26.33-.53.49-.81.31-.56.59-1.13.85-1.71.36-.79.69-1.59.97-2.35h0s0,0,0,0c.43-.93.85-1.85,1.24-2.7l.16.06c-.53,1.68-1.01,3.35-1.37,5.01-.09.41-.16.83-.22,1.24-.05.41-.1.84-.03,1.22.02.09.05.18.11.23.07.06.16.12.24.16.17.09.36.15.55.16.39.01.76-.18,1.03-.45.57-.55.82-1.35,1.19-2.05.36-.71.71-1.41,1.06-2.09.71-1.37,1.4-2.69,2.07-3.97v-.02s.03-.01.03-.01c.46-.24.92-.48,1.33-.7l.15-.08-.05.17c-.17.59-.34,1.16-.49,1.68v.03s-.04.01-.04.01c-.49.27-.95.58-1.34.94-.19.19-.38.38-.51.6-.13.22-.2.47-.15.71.13.48.55.88,1.04.92.49.05.98-.12,1.42-.29.22-.1.45-.19.64-.31.19-.13.36-.3.51-.47.3-.35.54-.75.76-1.13.44-.78.79-1.57,1.15-2.3.09-.18.2-.36.27-.54.08-.17.13-.36.17-.55.08-.37.1-.74.08-1.1-.05-.71-.3-1.38-.76-1.79-.46-.41-1.07-.52-1.58-.5-.52.06-.93.34-1.21.65l-.03.03v-.05c-.27-.81-.76-1.29-1.12-1.5-.38-.21-.61-.22-.6-.23Z"/>
            </g>
            <path class="cls-2" d="M140.86,114.18c.05,0-.16,1.04-.64,2.24-.23.6-.46,1.13-.63,1.52-.17.38-.28.62-.3.61-.05-.02.3-1,.77-2.19.23-.6.43-1.14.56-1.54.14-.4.21-.64.24-.64Z"/>
            <path class="cls-2" d="M136.88,113.46s-.38.96-.85,2.14c-.46,1.18-.88,2.14-.93,2.12-.02,0,.06-.26.19-.65.14-.39.33-.94.57-1.53.24-.59.48-1.12.67-1.49.19-.37.32-.6.34-.59Z"/>
          </g>
        </g>
      </g>
    </g>
  </g>
</svg>