<?xml version="1.0" encoding="UTF-8"?>
<svg xmlns="http://www.w3.org/2000/svg" version="1.1" xmlns:xlink="http://www.w3.org/1999/xlink" viewBox="0 0 91 120">
  <defs>
    <style>
      .cls-1 {
        fill: #ce3544;
      }

      .cls-2 {
        fill: none;
      }

      .cls-3 {
        clip-path: url(#clippath);
      }
    </style>
    <clipPath id="clippath">
      <rect class="cls-2" x="-178.4" y="-62.5" width="196" height="120"/>
    </clipPath>
  </defs>
  <!-- Generator: Adobe Illustrator 28.6.0, SVG Export Plug-In . SVG Version: 1.2.0 Build 709)  -->
  <g>
    <g id="Venue_recommendation">
      <g class="cls-3">
        <path class="cls-1" d="M-80.4-62.5c-25.1,0-45.5,20.4-45.5,45.5,0,33.6,42.3,72.3,44.1,73.9.8.7,2,.7,2.8,0,1.8-1.6,44.1-40.3,44.1-73.9,0-25.1-20.4-45.5-45.5-45.5ZM-80.4,52.6c-7.4-7-41.4-41.1-41.4-69.6s18.5-41.4,41.4-41.4,41.4,18.5,41.4,41.4-34,62.5-41.4,69.6Z"/>
        <path class="cls-1" d="M-80.4-45.9c-16,0-29,13-29,29s13,29,29,29S-51.4-.9-51.4-16.9s-13-29-29-29ZM-80.4,7.9c-13.7,0-24.8-11.1-24.8-24.8,0-13.7,11.1-24.8,24.8-24.8,13.7,0,24.8,11.1,24.8,24.8,0,13.7-11.1,24.8-24.8,24.8Z"/>
      </g>
    </g>
  </g>
</svg>