<svg xmlns="http://www.w3.org/2000/svg" xmlns:xlink="http://www.w3.org/1999/xlink" viewBox="0 0 126.03 44"><defs><style>.cls-1{fill:none;}.cls-2{fill:#092f5c;}.cls-3{fill:#fefefd;}.cls-4{clip-path:url(#clip-path);}.cls-5{fill:#fff;}</style><clipPath id="clip-path"><rect class="cls-1" x="59.61" y="10" width="24" height="24"/></clipPath></defs><title>architecture</title><g id="Layer_2" data-name="Layer 2"><g id="Layer_3" data-name="Layer 3"><g id="layer"><path class="cls-2" d="M22,0h82a22,22,0,0,1,22,22h0a22,22,0,0,1-22,22H22A22,22,0,0,1,0,22H0A22,22,0,0,1,22,0Z"/><g id="mean_stack" data-name="mean stack"><path class="cls-3" d="M36.13,9.74C35,12.38,33.81,15,32.64,17.58h1.12A.26.26,0,0,0,34,17.4c.18-.47.36-.94.55-1.39,0-.07.14-.18.21-.18h2.8c.21.52.41,1,.63,1.56,0,.06.09.18.13.18h1.26Zm-1,5c.33-.79.66-1.56,1-2.38.35.82.67,1.59,1,2.38Z"/><path class="cls-3" d="M36.13,4l-10,10,10,10,10-10Zm5.48,7.25-.33,2.91c-.14,1.15-.27,2.29-.42,3.44a.4.4,0,0,1-.19.28c-.71.41-1.43.8-2.14,1.19l-2.36,1.34h-.06l-.35-.21-4.14-2.3a.35.35,0,0,1-.22-.3c-.09-.91-.2-1.81-.31-2.71-.16-1.41-.33-2.81-.5-4.22,0-.18,0-.26.2-.32l2.79-1,2.53-.93h.06l.1.06,4.87,1.73c.17.07.43.08.51.2s0,.39,0,.58A2.34,2.34,0,0,0,41.61,11.25Z"/><path class="cls-3" d="M19.27,23.29c-.21,0-.43-1-.43-1.34a44.1,44.1,0,0,1,.16-4.6C19.11,17.35,19.27,23.29,19.27,23.29Z"/><path class="cls-3" d="M18.92,8.76l-10,10,10,10,10-10Zm1,14.57h0a2.5,2.5,0,0,1-.47.39v-.11a14.09,14.09,0,0,0-.3,1.82h-.27q-.07-.81-.18-1.59h0A6.7,6.7,0,0,1,16,18.46v-.1a7.46,7.46,0,0,1,2.64-5.56h0a.81.81,0,0,0,.29-.62h0a4.32,4.32,0,0,0,.4.77h0a9,9,0,0,1,2.54,4.5h0A8.52,8.52,0,0,1,22,18.68v.08a6.29,6.29,0,0,1-2.09,4.57Z"/><path class="cls-3" d="M47.16,14.75l-10,10,10,10,10-10Zm5.17,13.6-4.69,2.74a1,1,0,0,1-1,0l-1.3-.77a.38.38,0,0,1-.15-.53v0a.4.4,0,0,1,.55-.14h0l1.29.76a.22.22,0,0,0,.16,0l4.69-2.74A.21.21,0,0,0,52,27.5V22a.14.14,0,0,0-.09-.14l-4.68-2.75a.15.15,0,0,0-.16,0l-4.69,2.75a.14.14,0,0,0-.08.14v5.5a.18.18,0,0,0,.08.15l1.45.84a.29.29,0,0,1,.11.11l.14.08a.57.57,0,0,0,.54,0,.55.55,0,0,0,.27-.47V22.36a.41.41,0,0,1,.34-.47.42.42,0,0,1,.47.34.29.29,0,0,1,0,.13V28.2a1.38,1.38,0,0,1-1.38,1.36,1.38,1.38,0,0,1-.66-.17l-.29-.16a.25.25,0,0,1-.13-.14h0L42,28.35a1,1,0,0,1-.48-.85V22a1,1,0,0,1,.48-.84l4.7-2.75a.91.91,0,0,1,1,0l4.69,2.75a1,1,0,0,1,.49.84v5.5A1,1,0,0,1,52.33,28.35Zm-3.55-3.11-.39-.09L48,25.06c-.86-.19-2-.45-2-1.51S47.3,22,48.53,22s2.52.42,2.52,1.6a.41.41,0,0,1-.34.47.42.42,0,0,1-.47-.34.29.29,0,0,1,0-.13c0-.62-1.08-.79-1.71-.79s-1.72.17-1.72.79c0,.37.61.54,1.4.71l.41.1.39.09c1.05.25,2,.49,2,1.5,0,1.61-1.7,1.61-2.52,1.61C47.26,27.56,46,27.13,46,26a.41.41,0,0,1,.34-.47.42.42,0,0,1,.47.34.29.29,0,0,1,0,.13c0,.62,1.08.79,1.72.79,1.13,0,1.71-.13,1.71-.79C50.2,25.61,49.78,25.49,48.78,25.24Z"/><path class="cls-3" d="M28.57,29.42H24.29a2.21,2.21,0,0,1,2.22-2.15h0A2.14,2.14,0,0,1,28.57,29.42Z"/><path class="cls-3" d="M30.17,20l-10,10,10,10,10-10ZM28.1,33.27h0a3.31,3.31,0,0,1-3.89-.49h0a3.54,3.54,0,0,1-.87-2.05h0a.67.67,0,0,0,0-.2h0v-.84h0l.19-.94a3.26,3.26,0,0,1,2.1-2.23,3,3,0,0,1,2.78.49,3.52,3.52,0,0,1,1.21,3.15v.23H24.26a2.52,2.52,0,0,0,.91,2,2.28,2.28,0,0,0,2.16.24,1.76,1.76,0,0,0,1.12-1.25h0a.6.6,0,0,1,.7-.5.48.48,0,0,1,.17.05l.19.06v.19A2.87,2.87,0,0,1,28.1,33.27Zm7,.28a1,1,0,0,1-.87-.52l-1.76-2.42L30.69,33a1,1,0,0,1-1.17.44l-.3-.1,2.64-3.54-2.47-3.21.3-.11a1,1,0,0,1,1.22.42L32.49,29l1.58-2a.94.94,0,0,1,1.16-.43l.29.11-1.11,1.47-1.28,1.66a.1.1,0,0,0,0,.14h0L35.47,33l1.62-.16-1.64.62A1.06,1.06,0,0,1,35.1,33.55Z"/><polygon class="cls-3" points="35.35 32.46 35.19 32.65 35.78 33.47 36.5 33.27 36.92 33.03 37.34 32.7 37.24 32.33 36.39 32.2 35.35 32.46"/></g><g id="plus"><g class="cls-4"><path class="cls-5" d="M71.61,13a1,1,0,0,0-1,1v7h-7a1,1,0,0,0,0,1.94h7V30a1,1,0,0,0,2,0V23h7a1,1,0,0,0,.49-1.94,1,1,0,0,0-.49,0h-7V14A1,1,0,0,0,71.61,13Z"/></g></g><path class="cls-5" d="M105.14,22a3.83,3.83,0,1,0-3.83,3.83A3.82,3.82,0,0,0,105.14,22Zm4.68-.95V23a.31.31,0,0,1-.28.31l-.67.06a.66.66,0,0,0-.57.49,6.65,6.65,0,0,1-.77,1.85.65.65,0,0,0,.06.75L108,27a.31.31,0,0,1,0,.42l-1.34,1.35a.33.33,0,0,1-.42,0l-.52-.43a.63.63,0,0,0-.74-.06,7.38,7.38,0,0,1-1.86.77.63.63,0,0,0-.48.57l-.07.67a.3.3,0,0,1-.31.28h-1.9a.31.31,0,0,1-.31-.28l-.06-.67a.63.63,0,0,0-.48-.57,7.38,7.38,0,0,1-1.86-.77.63.63,0,0,0-.74.06l-.52.43a.33.33,0,0,1-.42,0l-1.34-1.35a.31.31,0,0,1,0-.42l.43-.51a.66.66,0,0,0,.06-.75,7,7,0,0,1-.78-1.85.64.64,0,0,0-.56-.49l-.67-.06a.31.31,0,0,1-.28-.31V21.1a.31.31,0,0,1,.28-.31l.67-.06a.64.64,0,0,0,.56-.49,7.06,7.06,0,0,1,.78-1.86.65.65,0,0,0-.06-.74l-.43-.52a.3.3,0,0,1,0-.41L96,15.31a.33.33,0,0,1,.42,0l.52.43a.63.63,0,0,0,.74.06,7.27,7.27,0,0,1,1.83-.8.63.63,0,0,0,.48-.57l.06-.67a.31.31,0,0,1,.31-.28h1.9a.3.3,0,0,1,.31.28l.07.67a.63.63,0,0,0,.48.57,7.38,7.38,0,0,1,1.86.77.63.63,0,0,0,.74-.06l.52-.43a.33.33,0,0,1,.42,0L108,16.66a.3.3,0,0,1,0,.41l-.43.52a.63.63,0,0,0-.06.74,7.38,7.38,0,0,1,.77,1.86.66.66,0,0,0,.57.49l.67.06a.31.31,0,0,1,.28.31Zm6.05-1-1.14,2,1.14,2L117,22Zm-.52,4.18-1.2-2.08a.3.3,0,0,1,0-.29l1.2-2.07h-2.13L111.93,22l1.29,2.22Zm-16-16.77,2,1.13,2-1.13-2-1.14Zm4.19.51-2.08,1.2a.26.26,0,0,1-.29,0L99.09,8v2.1l2.22,1.28,2.23-1.28V8ZM86.76,24l1.13-2-1.13-2-1.13,2Zm.52-4.18,1.2,2.08a.3.3,0,0,1,0,.29l-1.19,2.07h2.13L90.7,22l-1.29-2.22Zm16,16.77-2-1.13-2,1.13,2,1.14ZM99.09,36l2.08-1.2a.3.3,0,0,1,.29,0l2.08,1.2V33.9l-2.22-1.28L99.09,33.9ZM111,8.26l.86,3.24,3.24.87-.87-3.24Zm3.91,4.65L111.5,12a.33.33,0,0,1-.2-.2l-.9-3.35-2.24,2.24.94,3.51,3.52,1Zm-27.28-.54,3.23-.87.87-3.24-3.23.87Zm4.65-3.92-.9,3.36a.28.28,0,0,1-.21.2l-3.35.9L90,15.15l3.52-.94.94-3.51Zm-.55,27.29-.87-3.24-3.23-.87.87,3.24Zm-3.91-4.65,3.35.9a.28.28,0,0,1,.21.2l.9,3.35,2.24-2.24-.94-3.51L90,28.84Zm27.28.54-3.24.87L111,35.74l3.23-.87Zm-4.65,3.92.9-3.36a.28.28,0,0,1,.21-.2l3.35-.9-2.24-2.24-3.52.94-.94,3.51Z"/></g></g></g></svg>