<svg xmlns="http://www.w3.org/2000/svg" xmlns:xlink="http://www.w3.org/1999/xlink" viewBox="0 0 186.96 44"><defs><style>.cls-1{fill:none;}.cls-2{fill:#092f5c;}.cls-3{clip-path:url(#clip-path);}.cls-4{fill:#fff;}.cls-5{clip-path:url(#clip-path-2);}.cls-6{clip-path:url(#clip-path-3);}.cls-7{clip-path:url(#clip-path-4);}.cls-8{fill:#fefefd;}</style><clipPath id="clip-path"><rect class="cls-1" x="56.61" y="10" width="24" height="24"/></clipPath><clipPath id="clip-path-2"><rect class="cls-1" x="116.32" y="10" width="24" height="24"/></clipPath><clipPath id="clip-path-3"><rect class="cls-1" x="82.46" y="6" width="32" height="32"/></clipPath><clipPath id="clip-path-4"><rect class="cls-1" x="143.18" y="6" width="32" height="32"/></clipPath></defs><title>docker-kubernetes</title><g id="Layer_2" data-name="Layer 2"><g id="Layer_1-2" data-name="Layer 1"><g id="layer"><path class="cls-2" d="M22,0H165a22,22,0,0,1,22,22h0a22,22,0,0,1-22,22H22A22,22,0,0,1,0,22H0A22,22,0,0,1,22,0Z"/><g id="plus"><g class="cls-3"><path class="cls-4" d="M68.61,13a1,1,0,0,0-1,1v7h-7a1,1,0,0,0,0,1.94h7V30a1,1,0,0,0,2,0V23h7a1,1,0,0,0,.49-1.94,1,1,0,0,0-.49,0h-7V14A1,1,0,0,0,68.61,13Z"/></g></g><g id="plus-2"><g class="cls-5"><path class="cls-4" d="M128.32,13a1,1,0,0,0-1,1v7h-7.06a1,1,0,0,0-.49,1.94,1,1,0,0,0,.49,0h7.06V30a1,1,0,0,0,1.94,0V23h7.06a1,1,0,0,0,0-1.94h-7.06V14A1,1,0,0,0,128.32,13Z"/></g></g><g id="docker"><g class="cls-6"><g id="icons_Q2" data-name="icons Q2"><rect class="cls-4" x="89.7" y="19.23" width="2.74" height="2.77"/><rect class="cls-4" x="86.34" y="19.23" width="2.74" height="2.77"/><path class="cls-4" d="M111.77,20.72a3.93,3.93,0,0,0-3.24-.37,4.14,4.14,0,0,0-1.81-2.75l-.31-.31-.31.38a3.82,3.82,0,0,0-.69,2.62A3.51,3.51,0,0,0,106,22l-.93.44a6.66,6.66,0,0,1-1.87.31H84.84v.37a7.56,7.56,0,0,0,.62,4.06l.25.49h0c1.75,2.87,4.8,4.12,8.11,4.12,6.42,0,11.65-2.74,14.15-8.73a3.89,3.89,0,0,0,4-1.87l.12-.31ZM90.2,28.08a1.44,1.44,0,1,1,1.43-1.45h0a1.43,1.43,0,0,1-1.42,1.44Z"/><rect class="cls-4" x="89.7" y="15.73" width="2.74" height="2.77"/><rect class="cls-4" x="99.99" y="19.23" width="2.74" height="2.77"/><rect class="cls-4" x="96.62" y="12.18" width="2.74" height="2.77"/><rect class="cls-4" x="96.62" y="19.23" width="2.74" height="2.77"/><rect class="cls-4" x="93.19" y="15.73" width="2.74" height="2.77"/><rect class="cls-4" x="96.62" y="15.73" width="2.74" height="2.77"/><rect class="cls-4" x="93.19" y="19.23" width="2.74" height="2.77"/></g></g></g><g id="kubernetes"><g class="cls-7"><path class="cls-4" d="M156.45,24.39l-3.1.53A6.17,6.17,0,0,0,155.76,28L157,25.1a.42.42,0,0,0,0-.31.5.5,0,0,0-.53-.4Zm1.19-4a.51.51,0,0,0,.53-.49h0l.15-3.13-.62.12a6.2,6.2,0,0,0-2.91,1.6l2.59,1.84a1.1,1.1,0,0,0,.26.06Zm-1.38,2a.51.51,0,0,0,0-.71h0l-2.32-2.07a6.62,6.62,0,0,0-.9,3.82l3-.88a.33.33,0,0,0,.25-.15Zm2,1.09.85.41.84-.41.22-.91-.6-.75h-.93l-.6.75Zm1.85-3.34a.51.51,0,0,0,.68.12l2.57-1.81a5.87,5.87,0,0,0-3.54-1.69L160,20a.3.3,0,0,0,.1.22Z"/><path class="cls-4" d="M172.83,24.89l-2.38-10.23a2,2,0,0,0-1-1.15l-9.53-4.57a1.75,1.75,0,0,0-.78-.15,3.42,3.42,0,0,0-.78.06l-9.54,4.59a1.69,1.69,0,0,0-.94,1.16l-2.34,10.29a2,2,0,0,0,.34,1.5l6.6,8.16a2.26,2.26,0,0,0,1.43.65h10.51a1.57,1.57,0,0,0,1.44-.65l6.6-8.16A2.16,2.16,0,0,0,172.83,24.89Zm-3.91.68h-.34a1.58,1.58,0,0,1-.35-.16.3.3,0,0,1-.18-.06h0a5.7,5.7,0,0,0-1-.28h0a.38.38,0,0,0-.25.09h-.25a7.75,7.75,0,0,1-3.37,4.26l.09.25h0a.34.34,0,0,0,0,.31,3.45,3.45,0,0,0,.5.9V31a.44.44,0,0,1,.12.15,1,1,0,0,1,.22.32s.06.06.06.09h0a.94.94,0,0,1,0,.47.52.52,0,0,1-.29.34.63.63,0,0,1-.85-.26l0-.06h0a.11.11,0,0,0-.06-.09,1.14,1.14,0,0,1-.13-.35l-.06-.19h0a5.13,5.13,0,0,0-.41-1,.47.47,0,0,0-.25-.19h0L162,30a8.73,8.73,0,0,1-1,.28,6,6,0,0,1-1.68.22,7.66,7.66,0,0,1-2.72-.5l-.13.25h0a.47.47,0,0,0-.25.19,5.13,5.13,0,0,0-.41,1l-.06.18c0,.13-.09.22-.12.35s-.06.06-.06.09h0a.7.7,0,0,1-.59.38.57.57,0,0,1-.22-.07.64.64,0,0,1-.25-.84h0a.13.13,0,0,1,.06-.1c.06,0,.16-.25.22-.31a.47.47,0,0,0,.13-.15h0a6.07,6.07,0,0,0,.5-.9.44.44,0,0,0,0-.32h0l.15-.22a4.24,4.24,0,0,1-.84-.56,7.54,7.54,0,0,1-2.57-3.66h-.28a.38.38,0,0,0-.25-.09h0a5.7,5.7,0,0,0-1,.28h0a.44.44,0,0,0-.19.07,2.36,2.36,0,0,0-.34.12c-.12,0-.13,0-.13,0h0a.22.22,0,0,1-.16,0,.57.57,0,0,1-.62-.43.61.61,0,0,1,.46-.72h.58a.31.31,0,0,1,.19,0,5.48,5.48,0,0,0,1.06-.19c.09-.06.19-.12.22-.22h0l.25-.06A7.46,7.46,0,0,1,153,18.9c0-.06.07-.09.1-.15l-.18-.18h0a.35.35,0,0,0-.1-.26,3.88,3.88,0,0,0-.88-.62l-.18-.1a2.31,2.31,0,0,1-.35-.18l-.09-.07h0a.68.68,0,0,1-.13-.88.51.51,0,0,1,.44-.21.71.71,0,0,1,.44.15h0a.1.1,0,0,1,.09.07,3.33,3.33,0,0,1,.25.28.41.41,0,0,1,.13.12,6.66,6.66,0,0,0,.78.72.42.42,0,0,0,.19.06h.12l.19.13a7.36,7.36,0,0,1,3.85-2.19c.37-.06.72-.13,1.06-.16v-.31a.42.42,0,0,0,.16-.25,6.28,6.28,0,0,0-.06-1.06h0a.31.31,0,0,0,0-.19,2.32,2.32,0,0,1-.06-.38v-.15a.66.66,0,0,1,1-.52.59.59,0,0,1,.22.52V13a.8.8,0,0,1-.06.37c-.06.12,0,.13,0,.19h0a5.4,5.4,0,0,0-.07,1.06.42.42,0,0,0,.16.25h0v.25a8,8,0,0,1,4.07,1.63l.78.75.25-.16h0a.24.24,0,0,0,.12,0,.42.42,0,0,0,.19-.06,4.28,4.28,0,0,0,.78-.69.41.41,0,0,0,.13-.12,1.74,1.74,0,0,1,.25-.29.11.11,0,0,0,.09-.06h0a.79.79,0,0,1,.44-.16.63.63,0,0,1,.44.22.61.61,0,0,1-.12.87h0v.06c0,.06-.06,0-.09.06s-.22.13-.35.19l-.18.1a5.37,5.37,0,0,0-.88.62.47.47,0,0,0-.09.28h0l-.19.19a7.84,7.84,0,0,1,1.22,5.31l.25.07a.4.4,0,0,0,.22.22,6.35,6.35,0,0,0,1.06.18h0a.31.31,0,0,0,.19,0,1.15,1.15,0,0,1,.37,0h.19a.72.72,0,0,1,.56.66.65.65,0,0,1-.62.43Z"/><path class="cls-4" d="M159.29,25.73a.47.47,0,0,0-.62.13l-1.53,2.78a6.79,6.79,0,0,0,2,.31,6,6,0,0,0,1.34-.15,3.87,3.87,0,0,1,.59-.13L159.54,26a1.31,1.31,0,0,0-.25-.22Zm5-6.1L162,21.76a.48.48,0,0,0-.12.22.49.49,0,0,0,.35.61h0l3,.85a5.84,5.84,0,0,0-.13-2,6.58,6.58,0,0,0-.74-1.85Zm-2.85,4.79a.49.49,0,0,0-.28.59l1.23,3a6.18,6.18,0,0,0,1.87-1.87,5.32,5.32,0,0,0,.6-1.19l-3.13-.53a.67.67,0,0,0-.28.06Z"/></g></g><path class="cls-8" d="M35.79,11.1c-1,2.35-2.07,4.65-3.11,7h1a.24.24,0,0,0,.25-.17c.16-.42.32-.83.49-1.23,0-.07.12-.16.18-.16h2.49l.56,1.38c0,.06.08.16.12.16h1.12Zm-.88,4.43.88-2.12c.31.73.59,1.42.89,2.12Z"/><path class="cls-8" d="M35.79,6l-8.88,8.89,8.88,8.88,8.89-8.88Zm4.87,6.44L40.36,15c-.12,1-.24,2-.37,3.06a.39.39,0,0,1-.17.25l-1.9,1.06-2.1,1.19h0l-.31-.19-3.68-2a.32.32,0,0,1-.2-.27c-.08-.81-.18-1.61-.27-2.41l-.45-3.75c0-.16,0-.23.18-.29.83-.28,1.65-.58,2.48-.87l2.2-.78h0l.09.05,4.33,1.54c.15.06.38.07.45.18s0,.34,0,.51S40.67,12.37,40.66,12.44Z"/><path class="cls-8" d="M20.8,23.15c-.19,0-.38-.87-.38-1.19a40,40,0,0,1,.14-4.1C20.66,17.86,20.8,23.15,20.8,23.15Z"/><path class="cls-8" d="M20.49,10.23l-8.88,8.89L20.49,28l8.89-8.88Zm.86,13h0a2.86,2.86,0,0,1-.43.35v-.1a15.85,15.85,0,0,0-.27,1.61h-.23c-.05-.47-.1-.94-.17-1.41h0a6,6,0,0,1-2.4-4.79V18.8a6.62,6.62,0,0,1,2.34-5h0a.73.73,0,0,0,.25-.55h0a4,4,0,0,0,.36.68h0a8,8,0,0,1,2.25,4h0a7,7,0,0,1,.1,1v.07a5.61,5.61,0,0,1-1.8,4.12Z"/><path class="cls-8" d="M45.59,15.56,36.7,24.45l8.89,8.88,8.88-8.88Zm4.6,12.08L46,30.08a.88.88,0,0,1-.86,0L44,29.4a.36.36,0,0,1-.14-.48h0a.36.36,0,0,1,.49-.13l1.15.68a.17.17,0,0,0,.14,0L49.83,27a.17.17,0,0,0,.07-.13V22a.13.13,0,0,0-.08-.13l-4.16-2.44a.12.12,0,0,0-.14,0l-4.17,2.44a.15.15,0,0,0-.07.13v4.88a.17.17,0,0,0,.07.13l1.29.75a.47.47,0,0,1,.1.1l.12.07a.46.46,0,0,0,.48,0,.49.49,0,0,0,.24-.42V22.32a.36.36,0,1,1,.72,0h0v5.19a1.19,1.19,0,0,1-.6,1,1.21,1.21,0,0,1-.61.16,1.19,1.19,0,0,1-.58-.15l-.26-.14a.25.25,0,0,1-.12-.13h0L41,27.64a.89.89,0,0,1-.43-.75V22a.85.85,0,0,1,.43-.75l4.17-2.44a.83.83,0,0,1,.86,0l4.17,2.44a.86.86,0,0,1,.43.75v4.88A.89.89,0,0,1,50.19,27.64ZM47,24.88l-.35-.08-.34-.08c-.77-.17-1.82-.4-1.82-1.34S45.68,22,46.77,22,49,22.33,49,23.38a.36.36,0,0,1-.72,0c0-.55-1-.7-1.52-.7s-1.53.15-1.53.7c0,.33.55.48,1.25.63l.36.09.35.08c.93.22,1.81.43,1.81,1.33,0,1.43-1.51,1.43-2.24,1.43-1.09,0-2.25-.38-2.25-1.43a.36.36,0,0,1,.72,0c0,.55,1,.7,1.53.7,1,0,1.52-.11,1.52-.7C48.29,25.21,47.92,25.1,47,24.88Z"/><path class="cls-8" d="M29.07,28.6H25.26a2,2,0,0,1,2-1.91h0A1.89,1.89,0,0,1,29.07,28.6Z"/><path class="cls-8" d="M30.5,20.21l-8.9,8.9L30.49,38l8.89-8.89ZM28.65,32h0a3,3,0,0,1-3.46-.44h0a3.1,3.1,0,0,1-.77-1.82h0a.54.54,0,0,0,0-.18h0V29.5h0v-.7h0l.17-.83a2.85,2.85,0,0,1,1.87-2,2.63,2.63,0,0,1,2.46.43A3.09,3.09,0,0,1,30,29.2v.2H25.24a2.22,2.22,0,0,0,.8,1.8,2.05,2.05,0,0,0,1.92.22,1.57,1.57,0,0,0,1-1.12h0a.54.54,0,0,1,.62-.45l.15,0,.17.05v.18A2.59,2.59,0,0,1,28.65,32Zm6.22.24a.9.9,0,0,1-.78-.45l-1.56-2.16L31,31.81a.86.86,0,0,1-1,.4l-.27-.1L32,29l-2.2-2.88.27-.1a.9.9,0,0,1,1.07.37l1.41,1.9L34,26.4a.86.86,0,0,1,1-.4l.26.1-1,1.31-1.14,1.47a.09.09,0,0,0,0,.12h0l2.08,2.8,1.44-.15-1.46.56a.81.81,0,0,1-.31,0Z"/><polygon class="cls-8" points="35.09 31.3 34.95 31.47 35.48 32.19 36.11 32.02 36.49 31.8 36.86 31.51 36.78 31.18 36.02 31.07 35.09 31.3"/></g></g></g></svg>