<svg xmlns="http://www.w3.org/2000/svg" xmlns:xlink="http://www.w3.org/1999/xlink" viewBox="0 0 126 44"><defs><style>.cls-1{fill:none;}.cls-2{fill:#092f5c;}.cls-3{fill:#fefefd;}.cls-4{clip-path:url(#clip-path);}.cls-5{fill:#fff;}.cls-6{clip-path:url(#clip-path-2);}</style><clipPath id="clip-path"><rect class="cls-1" x="59.61" y="10" width="24" height="24"/></clipPath><clipPath id="clip-path-2"><rect class="cls-1" x="85.69" y="6" width="32" height="32"/></clipPath></defs><title>jwt</title><g id="Layer_2" data-name="Layer 2"><g id="Layer_2-2" data-name="Layer 2"><g id="layer"><path class="cls-2" d="M22,0h82a22,22,0,0,1,22,22h0a22,22,0,0,1-22,22H22A22,22,0,0,1,0,22H0A22,22,0,0,1,22,0Z"/><g id="mean_stack" data-name="mean stack"><path class="cls-3" d="M36.13,9.74C35,12.38,33.81,15,32.64,17.58h1.12A.26.26,0,0,0,34,17.4c.18-.47.36-.94.55-1.39,0-.07.14-.18.21-.18h2.8c.21.52.41,1,.63,1.56,0,.06.09.18.13.18h1.26Zm-1,5c.33-.79.66-1.56,1-2.38.35.82.67,1.59,1,2.38Z"/><path class="cls-3" d="M36.13,4l-10,10,10,10,10-10Zm5.48,7.25-.33,2.91c-.14,1.15-.27,2.29-.42,3.44a.4.4,0,0,1-.19.28c-.71.41-1.43.8-2.14,1.19l-2.36,1.34h-.06l-.35-.21-4.14-2.3a.35.35,0,0,1-.22-.3c-.09-.91-.2-1.81-.31-2.71-.16-1.41-.33-2.81-.5-4.22,0-.18,0-.26.2-.32l2.79-1,2.53-.93h.06l.1.06,4.87,1.73c.17.07.43.08.51.2s0,.39,0,.58A2.34,2.34,0,0,0,41.61,11.25Z"/><path class="cls-3" d="M19.27,23.29c-.21,0-.43-1-.43-1.34a44.1,44.1,0,0,1,.16-4.6C19.11,17.35,19.27,23.29,19.27,23.29Z"/><path class="cls-3" d="M18.92,8.76l-10,10,10,10,10-10Zm1,14.57h0a2.5,2.5,0,0,1-.47.39v-.11a14.09,14.09,0,0,0-.3,1.82h-.27q-.07-.81-.18-1.59h0A6.7,6.7,0,0,1,16,18.46v-.1a7.46,7.46,0,0,1,2.64-5.56h0a.81.81,0,0,0,.29-.62h0a4.32,4.32,0,0,0,.4.77h0a9,9,0,0,1,2.54,4.5h0A8.52,8.52,0,0,1,22,18.68v.08a6.29,6.29,0,0,1-2.09,4.57Z"/><path class="cls-3" d="M47.16,14.75l-10,10,10,10,10-10Zm5.17,13.6-4.69,2.74a1,1,0,0,1-1,0l-1.3-.77a.38.38,0,0,1-.15-.53v0a.4.4,0,0,1,.55-.14h0l1.29.76a.22.22,0,0,0,.16,0l4.69-2.74A.21.21,0,0,0,52,27.5V22a.14.14,0,0,0-.09-.14l-4.68-2.75a.15.15,0,0,0-.16,0l-4.69,2.75a.14.14,0,0,0-.08.14v5.5a.18.18,0,0,0,.08.15l1.45.84a.29.29,0,0,1,.11.11l.14.08a.57.57,0,0,0,.54,0,.55.55,0,0,0,.27-.47V22.36a.41.41,0,0,1,.34-.47.42.42,0,0,1,.47.34.29.29,0,0,1,0,.13V28.2a1.38,1.38,0,0,1-1.38,1.36,1.38,1.38,0,0,1-.66-.17l-.29-.16a.25.25,0,0,1-.13-.14h0L42,28.35a1,1,0,0,1-.48-.85V22a1,1,0,0,1,.48-.84l4.7-2.75a.91.91,0,0,1,1,0l4.69,2.75a1,1,0,0,1,.49.84v5.5A1,1,0,0,1,52.33,28.35Zm-3.55-3.11-.39-.09L48,25.06c-.86-.19-2-.45-2-1.51S47.3,22,48.53,22s2.52.42,2.52,1.6a.41.41,0,0,1-.34.47.42.42,0,0,1-.47-.34.29.29,0,0,1,0-.13c0-.62-1.08-.79-1.71-.79s-1.72.17-1.72.79c0,.37.61.54,1.4.71l.41.1.39.09c1.05.25,2,.49,2,1.5,0,1.61-1.7,1.61-2.52,1.61C47.26,27.56,46,27.13,46,26a.41.41,0,0,1,.34-.47.42.42,0,0,1,.47.34.29.29,0,0,1,0,.13c0,.62,1.08.79,1.72.79,1.13,0,1.71-.13,1.71-.79C50.2,25.61,49.78,25.49,48.78,25.24Z"/><path class="cls-3" d="M28.57,29.42H24.29a2.21,2.21,0,0,1,2.22-2.15h0A2.14,2.14,0,0,1,28.57,29.42Z"/><path class="cls-3" d="M30.17,20l-10,10,10,10,10-10ZM28.1,33.27h0a3.31,3.31,0,0,1-3.89-.49h0a3.54,3.54,0,0,1-.87-2.05h0a.67.67,0,0,0,0-.2h0v-.84h0l.19-.94a3.26,3.26,0,0,1,2.1-2.23,3,3,0,0,1,2.78.49,3.52,3.52,0,0,1,1.21,3.15v.23H24.26a2.52,2.52,0,0,0,.91,2,2.28,2.28,0,0,0,2.16.24,1.76,1.76,0,0,0,1.12-1.25h0a.6.6,0,0,1,.7-.5.48.48,0,0,1,.17.05l.19.06v.19A2.87,2.87,0,0,1,28.1,33.27Zm7,.28a1,1,0,0,1-.87-.52l-1.76-2.42L30.69,33a1,1,0,0,1-1.17.44l-.3-.1,2.64-3.54-2.47-3.21.3-.11a1,1,0,0,1,1.22.42L32.49,29l1.58-2a.94.94,0,0,1,1.16-.43l.29.11-1.11,1.47-1.28,1.66a.1.1,0,0,0,0,.14h0L35.47,33l1.62-.16-1.64.62A1.06,1.06,0,0,1,35.1,33.55Z"/><polygon class="cls-3" points="35.35 32.46 35.19 32.65 35.78 33.47 36.5 33.27 36.92 33.03 37.34 32.7 37.24 32.33 36.39 32.2 35.35 32.46"/></g><g id="plus"><g class="cls-4"><path class="cls-5" d="M71.61,13a1,1,0,0,0-1,1v7h-7a1,1,0,0,0,0,1.94h7V30a1,1,0,0,0,2,0V23h7a1,1,0,0,0,.49-1.94,1,1,0,0,0-.49,0h-7V14A1,1,0,0,0,71.61,13Z"/></g></g><g class="cls-6"><path class="cls-5" d="M98.29,35.62a4.18,4.18,0,0,1-.56-.28h0a10.26,10.26,0,0,1-2.4-1.8h0a11.13,11.13,0,0,1-2.63-4.73v-.08A17.73,17.73,0,0,1,92.12,25h0v-.91a14.35,14.35,0,0,1,.09-1.61v.07a10.9,10.9,0,0,1,1.35-4.27v.05A8.26,8.26,0,0,1,95.64,16h0a7.32,7.32,0,0,1,1.87-1h0a6.08,6.08,0,0,1,2.15-.37,6.81,6.81,0,0,1,2,.33h.07L102,15a7.48,7.48,0,0,1,.86.51h0a7.48,7.48,0,0,1,2.45,2.9v.05a8.61,8.61,0,0,1,.75,3.46h0v.2a8.41,8.41,0,0,1-.79,3.56v-.06a7.7,7.7,0,0,1-3.07,3.32h0l.32.09a4.45,4.45,0,0,0,.81.08h0A6.62,6.62,0,0,0,108,27.17h0a5.68,5.68,0,0,0,.63-.67h0a10.91,10.91,0,0,0,.7-.94h0a9.59,9.59,0,0,0,.7-1.3V24.2a8.53,8.53,0,0,0,.59-1.9v-.06a13.59,13.59,0,0,0,.22-2.47V18.68a13.28,13.28,0,0,0-2.2-6.79h0A10.77,10.77,0,0,0,108,11h0a10.81,10.81,0,0,0-1.23-1.21h0a9.6,9.6,0,0,0-1.55-1h0a12.12,12.12,0,0,0-2-.74h-.44a2.69,2.69,0,0,1-.74-.07H100.8a13.23,13.23,0,0,0-2.58.42h.09A14.64,14.64,0,0,0,89.1,15.7v.08a13.78,13.78,0,0,0-1.37,8.14v-.07a12.46,12.46,0,0,0,1,3.59v-.09a13.83,13.83,0,0,0,1,2v-.06a14.33,14.33,0,0,0,5.23,5H95a15.51,15.51,0,0,0,2.43,1.08h.11c.26.08.53.17.81.24Zm3.45.47a12.76,12.76,0,0,0,1.75-.12h-.07a13.85,13.85,0,0,0,3.8-1h-.09a14.84,14.84,0,0,0,4.46-3h0a14.14,14.14,0,0,0,2.84-4v-.08a13.58,13.58,0,0,0,1.19-4v-.07a14.56,14.56,0,0,0,.12-1.87,15.15,15.15,0,0,0-.19-2.33v.08a14.2,14.2,0,0,0-1-3.37v.09a12.88,12.88,0,0,0-1-2v.06a14.63,14.63,0,0,0-5.59-5h-.08a14.15,14.15,0,0,0-2.45-1h-.11c.14.07.27.15.4.23l.42.27A10.49,10.49,0,0,1,108,10.57h0a11.39,11.39,0,0,1,2.59,4.67v.08a15.61,15.61,0,0,1,.59,3.52h0v1a16,16,0,0,1-.09,1.69v-.07a10.21,10.21,0,0,1-1.47,4.28h0a9,9,0,0,1-2.22,2.43h0a6.44,6.44,0,0,1-4,1.42,7.3,7.3,0,0,1-1.23-.11h0a4.88,4.88,0,0,1-.91-.31h0a5.37,5.37,0,0,1-.93-.54h0a7.13,7.13,0,0,1-1.45-1.29h0a7.61,7.61,0,0,1-1.22-2h0a8.55,8.55,0,0,1-.58-3h0V22a8.33,8.33,0,0,1,1-4v0A7.61,7.61,0,0,1,100,15.81h0a6.9,6.9,0,0,1,.79-.54h0A6.33,6.33,0,0,0,99.72,15h-.37a6.26,6.26,0,0,0-1.49.3h0a6.16,6.16,0,0,0-1.23.55h0a7.5,7.5,0,0,0-.88.59h0c-.25.21-.5.42-.73.65a9.23,9.23,0,0,0-2.37,5V22a16.74,16.74,0,0,0-.15,2.24,11.13,11.13,0,0,0,0,1.29v-.06a14.68,14.68,0,0,0,1.15,4.88v-.1a10,10,0,0,0,1.6,2.58h0A9.62,9.62,0,0,0,99,35.46h.06a9.4,9.4,0,0,0,2.45.63h.23Z"/></g></g></g></g></svg>