<svg xmlns="http://www.w3.org/2000/svg" xmlns:xlink="http://www.w3.org/1999/xlink" viewBox="0 0 126.03 44"><defs><style>.cls-1{fill:none;}.cls-2{fill:#092f5c;}.cls-3{fill:#fefefd;}.cls-4{clip-path:url(#clip-path);}.cls-5{fill:#fff;}</style><clipPath id="clip-path"><rect class="cls-1" x="59.61" y="10" width="24" height="24"/></clipPath></defs><title>reactjs</title><g id="Layer_2" data-name="Layer 2"><g id="Layer_1-2" data-name="Layer 1"><g id="layer"><path class="cls-2" d="M22,0h82a22,22,0,0,1,22,22h0a22,22,0,0,1-22,22H22A22,22,0,0,1,0,22H0A22,22,0,0,1,22,0Z"/><g id="mean_stack" data-name="mean stack"><path class="cls-3" d="M36.13,9.74C35,12.38,33.81,15,32.64,17.58h1.12A.26.26,0,0,0,34,17.4c.18-.47.36-.94.55-1.39,0-.07.14-.18.21-.18h2.8c.21.52.41,1,.63,1.56,0,.06.09.18.13.18h1.26Zm-1,5c.33-.79.66-1.56,1-2.38.35.82.67,1.59,1,2.38Z"/><path class="cls-3" d="M36.13,4l-10,10,10,10,10-10Zm5.48,7.25-.33,2.91c-.14,1.15-.27,2.29-.42,3.44a.4.4,0,0,1-.19.28c-.71.41-1.43.8-2.14,1.19l-2.36,1.34h-.06l-.35-.21-4.14-2.3a.35.35,0,0,1-.22-.3c-.09-.91-.2-1.81-.31-2.71-.16-1.41-.33-2.81-.5-4.22,0-.18,0-.26.2-.32l2.79-1,2.53-.93h.06l.1.06,4.87,1.73c.17.07.43.08.51.2s0,.39,0,.58A2.34,2.34,0,0,0,41.61,11.25Z"/><path class="cls-3" d="M19.27,23.29c-.21,0-.43-1-.43-1.34a44.1,44.1,0,0,1,.16-4.6C19.11,17.35,19.27,23.29,19.27,23.29Z"/><path class="cls-3" d="M18.92,8.76l-10,10,10,10,10-10Zm1,14.57h0a2.5,2.5,0,0,1-.47.39v-.11a14.09,14.09,0,0,0-.3,1.82h-.27q-.07-.81-.18-1.59h0A6.7,6.7,0,0,1,16,18.46v-.1a7.46,7.46,0,0,1,2.64-5.56h0a.81.81,0,0,0,.29-.62h0a4.32,4.32,0,0,0,.4.77h0a9,9,0,0,1,2.54,4.5h0A8.52,8.52,0,0,1,22,18.68v.08a6.29,6.29,0,0,1-2.09,4.57Z"/><path class="cls-3" d="M47.16,14.75l-10,10,10,10,10-10Zm5.17,13.6-4.69,2.74a1,1,0,0,1-1,0l-1.3-.77a.38.38,0,0,1-.15-.53v0a.4.4,0,0,1,.55-.14h0l1.29.76a.22.22,0,0,0,.16,0l4.69-2.74A.21.21,0,0,0,52,27.5V22a.14.14,0,0,0-.09-.14l-4.68-2.75a.15.15,0,0,0-.16,0l-4.69,2.75a.14.14,0,0,0-.08.14v5.5a.18.18,0,0,0,.08.15l1.45.84a.29.29,0,0,1,.11.11l.14.08a.57.57,0,0,0,.54,0,.55.55,0,0,0,.27-.47V22.36a.41.41,0,0,1,.34-.47.42.42,0,0,1,.47.34.29.29,0,0,1,0,.13V28.2a1.38,1.38,0,0,1-1.38,1.36,1.38,1.38,0,0,1-.66-.17l-.29-.16a.25.25,0,0,1-.13-.14h0L42,28.35a1,1,0,0,1-.48-.85V22a1,1,0,0,1,.48-.84l4.7-2.75a.91.91,0,0,1,1,0l4.69,2.75a1,1,0,0,1,.49.84v5.5A1,1,0,0,1,52.33,28.35Zm-3.55-3.11-.39-.09L48,25.06c-.86-.19-2-.45-2-1.51S47.3,22,48.53,22s2.52.42,2.52,1.6a.41.41,0,0,1-.34.47.42.42,0,0,1-.47-.34.29.29,0,0,1,0-.13c0-.62-1.08-.79-1.71-.79s-1.72.17-1.72.79c0,.37.61.54,1.4.71l.41.1.39.09c1.05.25,2,.49,2,1.5,0,1.61-1.7,1.61-2.52,1.61C47.26,27.56,46,27.13,46,26a.41.41,0,0,1,.34-.47.42.42,0,0,1,.47.34.29.29,0,0,1,0,.13c0,.62,1.08.79,1.72.79,1.13,0,1.71-.13,1.71-.79C50.2,25.61,49.78,25.49,48.78,25.24Z"/><path class="cls-3" d="M28.57,29.42H24.29a2.21,2.21,0,0,1,2.22-2.15h0A2.14,2.14,0,0,1,28.57,29.42Z"/><path class="cls-3" d="M30.17,20l-10,10,10,10,10-10ZM28.1,33.27h0a3.31,3.31,0,0,1-3.89-.49h0a3.54,3.54,0,0,1-.87-2.05h0a.67.67,0,0,0,0-.2h0v-.84h0l.19-.94a3.26,3.26,0,0,1,2.1-2.23,3,3,0,0,1,2.78.49,3.52,3.52,0,0,1,1.21,3.15v.23H24.26a2.52,2.52,0,0,0,.91,2,2.28,2.28,0,0,0,2.16.24,1.76,1.76,0,0,0,1.12-1.25h0a.6.6,0,0,1,.7-.5.48.48,0,0,1,.17.05l.19.06v.19A2.87,2.87,0,0,1,28.1,33.27Zm7,.28a1,1,0,0,1-.87-.52l-1.76-2.42L30.69,33a1,1,0,0,1-1.17.44l-.3-.1,2.64-3.54-2.47-3.21.3-.11a1,1,0,0,1,1.22.42L32.49,29l1.58-2a.94.94,0,0,1,1.16-.43l.29.11-1.11,1.47-1.28,1.66a.1.1,0,0,0,0,.14h0L35.47,33l1.62-.16-1.64.62A1.06,1.06,0,0,1,35.1,33.55Z"/><polygon class="cls-3" points="35.35 32.46 35.19 32.65 35.78 33.47 36.5 33.27 36.92 33.03 37.34 32.7 37.24 32.33 36.39 32.2 35.35 32.46"/></g><g id="plus"><g class="cls-4"><path class="cls-5" d="M71.61,13a1,1,0,0,0-1,1v7h-7a1,1,0,0,0,0,1.94h7V30a1,1,0,0,0,2,0V23h7a1,1,0,0,0,.49-1.94,1,1,0,0,0-.49,0h-7V14A1,1,0,0,0,71.61,13Z"/></g></g><path class="cls-5" d="M101.31,25.33A3.33,3.33,0,1,0,98,22v0A3.33,3.33,0,0,0,101.31,25.33Z"/><path id="react" class="cls-5" d="M117,22c0-2.08-2.6-4-6.6-5.27.92-4.07.51-7.31-1.29-8.35A2.86,2.86,0,0,0,107.68,8h0c-1.76,0-4.06,1.25-6.39,3.43C99,9.25,96.66,8,94.9,8h0a2.81,2.81,0,0,0-1.45.36c-1.8,1-2.2,4.26-1.27,8.32-4,1.23-6.57,3.19-6.57,5.27s2.6,4.05,6.59,5.27c-.92,4.07-.51,7.31,1.3,8.35a2.9,2.9,0,0,0,1.44.35c1.76,0,4.06-1.25,6.39-3.43,2.33,2.17,4.63,3.41,6.39,3.41a2.81,2.81,0,0,0,1.45-.36c1.8-1,2.2-4.27,1.27-8.33C114.41,26,117,24,117,22ZM107.68,9.41h0a1.43,1.43,0,0,1,.73.17c.87.5,1.24,2.4,1,4.84-.07.6-.19,1.23-.33,1.88a31,31,0,0,0-4.06-.7,33.93,33.93,0,0,0-2.66-3.2C104.39,10.48,106.35,9.42,107.68,9.41ZM95.63,25.24q.45.78.93,1.5c-.91-.13-1.79-.3-2.63-.5.24-.83.53-1.68.87-2.53C95.06,24.22,95.33,24.73,95.63,25.24ZM93.91,17.7q1.26-.3,2.64-.51c-.31.5-.63,1-.92,1.52s-.57,1-.83,1.54C94.45,19.39,94.16,18.53,93.91,17.7ZM95.54,22c.4-.86.85-1.72,1.33-2.56s1-1.68,1.54-2.44c1-.08,1.92-.13,2.89-.13s1.94.05,2.88.12c.53.76,1,1.58,1.55,2.43A20.06,20.06,0,0,1,107.06,22c-.4.86-.84,1.72-1.32,2.55s-1,1.69-1.54,2.45c-1,.08-1.92.13-2.9.13s-1.93-.1-2.88-.1c-.53-.77-1-1.58-1.54-2.44S96,22.84,95.54,22ZM107,25.22c.3-.51.57-1,.83-1.54.35.86.64,1.72.89,2.55-.84.2-1.72.38-2.64.51C106.37,26.25,106.68,25.74,107,25.22Zm0-6.53c-.3-.51-.61-1-.92-1.5.9.14,1.78.31,2.62.51-.24.83-.53,1.68-.87,2.53C107.54,19.72,107.27,19.2,107,18.69Zm-3.91-3.22H99.55a25.68,25.68,0,0,1,1.76-2,23.85,23.85,0,0,1,1.75,2Zm-8.9-5.86a1.46,1.46,0,0,1,.74-.16h0c1.32,0,3.29,1.05,5.37,3a31,31,0,0,0-2.64,3.19,29.62,29.62,0,0,0-4.07.71,14.47,14.47,0,0,1-.33-1.86c-.33-2.49,0-4.37.9-4.88ZM92.55,25.86c-.63-.2-1.24-.42-1.79-.65C88.49,24.24,87,23,87,22s1.46-2.28,3.73-3.24c.55-.24,1.15-.45,1.77-.65A33.24,33.24,0,0,0,94,22,29.38,29.38,0,0,0,92.55,25.86Zm2.37,8.66a1.39,1.39,0,0,1-.72-.17c-.87-.5-1.25-2.4-1-4.84.07-.61.18-1.24.32-1.89a29.59,29.59,0,0,0,4.07.7,29.12,29.12,0,0,0,2.66,3.2C98.21,33.46,96.26,34.52,94.92,34.52Zm6.4-4a24.9,24.9,0,0,1-1.78-2.05c.57,0,1.16.05,1.76.05s1.19,0,1.78-.05a26.26,26.26,0,0,1-1.76,2Zm7.12,3.81a1.43,1.43,0,0,1-.73.17c-1.33,0-3.29-1-5.38-3A31.2,31.2,0,0,0,105,28.32a29.62,29.62,0,0,0,4.07-.71c.14.65.26,1.27.33,1.86.28,2.45-.09,4.35-1,4.85Zm3.4-9.11c-.55.23-1.15.44-1.77.64A29.33,29.33,0,0,0,108.63,22a31.6,31.6,0,0,0,1.42-3.88c.63.2,1.24.41,1.8.65,2.26,1,3.73,2.23,3.73,3.24s-1.47,2.24-3.74,3.2Z"/></g></g></g></svg>