<?xml version="1.0" encoding="UTF-8"?>
<svg id="Layer_2" xmlns="http://www.w3.org/2000/svg" xmlns:xlink="http://www.w3.org/1999/xlink" viewBox="0 0 60 37">
  <defs>
    <style>
      .cls-1 {
        fill: #f55b14;
      }

      .cls-2 {
        fill: none;
      }

      .cls-3 {
        clip-path: url(#clippath);
      }
    </style>
    <clipPath id="clippath">
      <rect class="cls-2" width="60" height="37"/>
    </clipPath>
  </defs>
  <g id="Layer_1-2" data-name="Layer_1">
    <g class="cls-3">
      <path class="cls-1" d="M47.34,10.98h-4.62v-6.94c0-2.23-1.82-4.05-4.05-4.05h-17.34c-2.23,0-4.05,1.82-4.05,4.05v6.94h-4.62c-.64,0-1.16.52-1.16,1.16v11.56c0,.64.52,1.16,1.16,1.16h4.62v8.09c0,2.23,1.82,4.05,4.05,4.05h17.34c2.23,0,4.05-1.82,4.05-4.05v-8.09h4.62c.64,0,1.16-.52,1.16-1.16v-11.56c0-.64-.52-1.16-1.16-1.16ZM17.28,23.7h-4.62v-11.56h4.62v11.56ZM41.56,32.95c0,1.59-1.3,2.89-2.89,2.89h-17.34c-1.59,0-2.89-1.3-2.89-2.89V4.05c0-1.59,1.3-2.89,2.89-2.89h17.34c1.59,0,2.89,1.3,2.89,2.89v28.91ZM47.34,23.7h-4.62v-11.56h4.62v11.56ZM21.91,12.14v11.56c0,.96.78,1.73,1.73,1.73h12.72c.96,0,1.73-.78,1.73-1.73v-11.56c0-.96-.78-1.73-1.73-1.73h-12.72c-.96,0-1.73.78-1.73,1.73ZM36.94,12.14v11.56c0,.32-.26.58-.58.58h-12.72c-.32,0-.58-.26-.58-.58v-11.56c0-.32.26-.58.58-.58h12.72c.32,0,.58.26.58.58ZM24.8,13.88h4.05c.32,0,.58-.26.58-.58s-.26-.58-.58-.58h-4.05c-.32,0-.58.26-.58.58s.26.58.58.58ZM24.8,16.19h5.78c.32,0,.58-.26.58-.58s-.26-.58-.58-.58h-5.78c-.32,0-.58.26-.58.58s.26.58.58.58ZM23.64,26.59h-2.31c-.32,0-.58-.26-.58-.58v-2.31c0-.32-.26-.58-.58-.58s-.58.26-.58.58v2.31c0,.96.78,1.73,1.73,1.73h2.31c.32,0,.58-.26.58-.58s-.26-.58-.58-.58ZM20.17,12.72c.32,0,.58-.26.58-.58v-2.31c0-.32.26-.58.58-.58h2.31c.32,0,.58-.26.58-.58s-.26-.58-.58-.58h-2.31c-.96,0-1.73.78-1.73,1.73v2.31c0,.32.26.58.58.58ZM39.83,23.12c-.32,0-.58.26-.58.58v2.31c0,.32-.26.58-.58.58h-2.31c-.32,0-.58.26-.58.58s.26.58.58.58h2.31c.96,0,1.73-.78,1.73-1.73v-2.31c0-.32-.26-.58-.58-.58ZM38.67,8.09h-2.31c-.32,0-.58.26-.58.58s.26.58.58.58h2.31c.32,0,.58.26.58.58v2.31c0,.32.26.58.58.58s.58-.26.58-.58v-2.31c0-.96-.78-1.73-1.73-1.73ZM24.8,23.12h10.41c.32,0,.58-.26.58-.58v-3.47c0-.32-.26-.58-.58-.58h-10.41c-.32,0-.58.26-.58.58v3.47c0,.32.26.58.58.58ZM25.38,19.66h9.25v2.31h-9.25v-2.31ZM31.16,29.48h-2.31c-1.27,0-2.31,1.04-2.31,2.31s1.04,2.31,2.31,2.31h2.31c1.28,0,2.31-1.04,2.31-2.31s-1.04-2.31-2.31-2.31ZM31.16,32.95h-2.31c-.64,0-1.16-.52-1.16-1.16s.52-1.16,1.16-1.16h2.31c.64,0,1.16.52,1.16,1.16s-.52,1.16-1.16,1.16ZM23.64,6.36h12.72c.96,0,1.73-.78,1.73-1.73s-.78-1.73-1.73-1.73h-12.72c-.96,0-1.73.78-1.73,1.73s.78,1.73,1.73,1.73ZM23.64,4.05h12.72c.32,0,.58.26.58.58s-.26.58-.58.58h-12.72c-.32,0-.58-.26-.58-.58s.26-.58.58-.58Z"/>
    </g>
  </g>
</svg>