<?xml version="1.0" encoding="UTF-8"?>
<svg id="Layer_2" xmlns="http://www.w3.org/2000/svg" xmlns:xlink="http://www.w3.org/1999/xlink" viewBox="0 0 60 37">
  <defs>
    <style>
      .cls-1 {
        fill: #f55b14;
      }

      .cls-2 {
        fill: none;
      }

      .cls-3 {
        clip-path: url(#clippath);
      }
    </style>
    <clipPath id="clippath">
      <rect class="cls-2" width="60" height="37"/>
    </clipPath>
  </defs>
  <g id="Layer_1-2" data-name="Layer_1">
    <g class="cls-3">
      <path class="cls-1" d="M38.6,2.12c.29.15.4.51.25.8-.15.29-.51.4-.8.25-3.31-1.74-7.06-2.33-10.67-1.78-3.52.53-6.91,2.16-9.62,4.87-3.38,3.38-5.07,7.81-5.07,12.24s1.69,8.86,5.07,12.23c.23.23.23.61,0,.85-.23.23-.61.23-.84,0-3.61-3.61-5.42-8.35-5.42-13.08s1.81-9.47,5.42-13.08C19.82,2.52,23.44.78,27.2.21c3.86-.59,7.87.05,11.4,1.91h0ZM30.6,25.31v3.8c0,.33-.27.6-.6.6s-.6-.27-.6-.6v-3.8c-1.89-.15-3.6-.98-4.87-2.25l-.03-.04c-1.38-1.4-2.24-3.32-2.24-5.43,0-.33.27-.6.6-.6s.6.27.6.6c0,1.79.72,3.41,1.89,4.59l.03.03c1.19,1.19,2.82,1.92,4.62,1.92s3.44-.74,4.62-1.92c1.19-1.19,1.92-2.82,1.92-4.62,0-.33.27-.6.6-.6s.6.27.6.6c0,2.13-.87,4.06-2.27,5.46-1.27,1.27-2.97,2.1-4.87,2.25h0ZM32.62,9.54c-.23-.23-.24-.61-.01-.84.23-.23.61-.24.84-.01l.06.06c.23.23.24.61.01.84-.23.23-.61.24-.84.01l-.06-.06ZM33.65,11.26c-.09-.32.1-.64.41-.73.32-.09.64.1.73.41.06.21.11.44.14.66.03.23.05.45.05.67v5.32c0,1.37-.56,2.62-1.46,3.52-.9.9-2.15,1.46-3.52,1.46s-2.62-.56-3.52-1.46c-.9-.9-1.46-2.15-1.46-3.52v-5.32c0-1.37.56-2.61,1.46-3.52h0c.9-.9,2.15-1.47,3.52-1.47.19,0,.4.01.61.04.2.02.41.06.61.11.32.08.51.4.43.72-.08.32-.4.51-.72.43-.15-.04-.3-.07-.46-.09-.14-.02-.3-.03-.47-.03-1.04,0-1.99.43-2.68,1.11-.69.69-1.11,1.63-1.11,2.68v5.32c0,1.04.43,1.99,1.11,2.68s1.63,1.11,2.68,1.11,1.99-.43,2.68-1.11,1.11-1.63,1.11-2.67v-5.32c0-.18-.01-.35-.03-.51-.02-.17-.06-.34-.1-.5h0ZM23.17,5.51c-.29.15-.65.04-.8-.25-.15-.29-.04-.65.25-.8,3.03-1.59,6.47-2.14,9.78-1.64,3.23.49,6.33,1.98,8.82,4.46,3.1,3.1,4.65,7.16,4.65,11.22s-1.55,8.12-4.65,11.22c-.23.23-.61.23-.84,0-.23-.23-.23-.61,0-.84,2.86-2.87,4.3-6.62,4.3-10.37s-1.43-7.51-4.3-10.37c-2.3-2.3-5.17-3.68-8.15-4.13-3.06-.47-6.24.04-9.05,1.51h0ZM36.83,31.49c.29-.15.65-.04.8.25.15.29.04.65-.25.8-3.03,1.59-6.47,2.14-9.78,1.64-3.23-.49-6.33-1.98-8.82-4.46-3.1-3.1-4.65-7.16-4.65-11.22s1.55-8.12,4.65-11.22c.23-.23.61-.23.84,0,.23.23.23.61,0,.84-2.86,2.86-4.3,6.62-4.3,10.37s1.43,7.51,4.3,10.37c2.3,2.3,5.17,3.68,8.15,4.13,3.06.47,6.24-.04,9.05-1.51h0ZM21.4,34.88c-.29-.15-.4-.51-.25-.8.15-.29.51-.4.8-.25,3.31,1.74,7.06,2.33,10.67,1.78,3.52-.53,6.91-2.16,9.62-4.87,3.38-3.38,5.07-7.81,5.07-12.24s-1.69-8.86-5.07-12.23c-.23-.23-.23-.61,0-.85.23-.23.61-.23.84,0,3.61,3.61,5.42,8.35,5.42,13.08s-1.81,9.47-5.42,13.08c-2.9,2.9-6.52,4.64-10.28,5.21-3.86.59-7.87-.05-11.4-1.91h0Z"/>
    </g>
  </g>
</svg>