<?xml version="1.0" encoding="UTF-8"?>
<svg id="Layer_2" xmlns="http://www.w3.org/2000/svg" xmlns:xlink="http://www.w3.org/1999/xlink" viewBox="0 0 30 30">
  <defs>
    <style>
      .cls-1 {
        fill: none;
      }

      .cls-2 {
        fill: #f16129;
        fill-rule: evenodd;
      }

      .cls-3 {
        clip-path: url(#clippath);
      }
    </style>
    <clipPath id="clippath">
      <rect class="cls-1" width="30" height="30"/>
    </clipPath>
  </defs>
  <g id="Layer_1-2" data-name="Layer_1">
    <g class="cls-3">
      <path class="cls-2" d="M11.25,23.44c0,.25-.22.45-.47.44-.24,0-.44-.2-.44-.44v-.37c-.89-.21-1.51-1-1.51-1.92,0-.25.19-.46.44-.47.25,0,.46.19.47.44,0,0,0,.02,0,.02,0,.55.43,1.01.98,1.06.03,0,.05,0,.08,0,.03,0,.05,0,.08,0,.55-.04.98-.5.98-1.06,0-.25-.1-.5-.28-.68-.22-.21-.51-.35-.82-.39-.01,0-.02,0-.04,0-.51-.07-.99-.3-1.36-.66-.35-.34-.54-.82-.53-1.31,0-.91.63-1.7,1.51-1.92v-.37c0-.25.19-.46.44-.47s.46.19.47.44c0,0,0,.02,0,.02v.37c.89.21,1.51,1,1.51,1.92,0,.25-.2.45-.45.45s-.45-.2-.45-.45c0-.55-.43-1.01-.98-1.06-.03,0-.05,0-.08,0-.03,0-.05,0-.08,0-.55.04-.98.5-.98,1.06,0,.25.09.49.27.66.24.22.55.36.87.4h.01c.5.07.97.29,1.33.64.35.35.55.82.55,1.32,0,.91-.63,1.7-1.51,1.92v.37h0ZM13.32,8.73h-5.29c-.36,0-.65.29-.65.65,0,.36.29.65.65.65h5.29c.36,0,.65-.29.65-.65s-.29-.65-.65-.65h0ZM8.03,7.82h5.29c.15,0,.3.02.45.07.66-.95,1.22-1.95,1.68-3.01.37-.87.57-1.54.45-1.71-.08-.08-.17-.14-.28-.18-.26-.11-.52-.19-.79-.25-.08-.02-.06.2-.22.39-.34.41-.71.85-1.2.79-.45-.05-.7-.5-.96-.95-.1-.19-.21-.38-.33-.55-.24-.01-.56.24-.89.5-.43.34-.86.68-1.4.7-.5.02-.91-.33-1.31-.66-.25-.21-.5-.42-.58-.41-.55.06-1.1.17-1.63.33-.22.05-.43.15-.6.31-.11.16.08.81.43,1.66.46,1.05,1.01,2.06,1.66,3,.08-.01.16-.02.24-.02h0ZM24.59,21.02l.98-.98-.57-.57h0c-.15-.15-.18-.38-.07-.56.23-.38.41-.8.52-1.23.04-.22.23-.38.45-.38h.81v-1.39h-.81c-.21,0-.39-.14-.44-.35-.05-.22-.13-.44-.21-.65-.08-.2-.18-.4-.3-.58-.13-.18-.11-.43.05-.58l.57-.57-.98-.98-.57.57h0c-.15.15-.38.18-.56.07-.2-.12-.4-.22-.61-.31h0c-.2-.08-.41-.15-.62-.2-.22-.04-.38-.23-.38-.45v-.82h-1.39v.81h0c0,.21-.14.39-.35.44-.22.05-.44.13-.65.21h0c-.2.08-.4.18-.58.3-.18.13-.43.11-.58-.05l-.58-.57-.98.98.57.57h0c.15.15.18.38.07.56-.12.19-.22.39-.3.59,0,0,0,.01,0,.02-.08.2-.15.41-.2.62-.04.22-.23.38-.45.38h-.81v1.39h.81c.21,0,.39.14.44.35.05.22.13.44.21.65h0c.08.2.18.4.3.58.13.18.11.43-.05.58l-.57.58.98.98.57-.57h0c.15-.15.38-.18.56-.07.38.23.8.41,1.23.52.22.04.38.23.38.45v.81h1.39v-.81h0c0-.21.14-.39.35-.44.22-.05.43-.12.63-.2h.02c.2-.09.4-.19.59-.3.18-.13.43-.11.58.05l.57.57h0ZM20.63,23.06h-.27c-.22,0-.43-.09-.58-.24h0c-.16-.15-.24-.37-.24-.58v-.55c-.15-.05-.29-.1-.44-.16s-.29-.13-.42-.2l-.39.39s-.02.02-.04.03c-.33.29-.82.28-1.13-.03l-1.1-1.1s-.02-.02-.03-.04c-.29-.33-.28-.82.03-1.13h0l.39-.39c-.07-.14-.14-.28-.2-.42h0c-.06-.14-.11-.29-.16-.44h-.55c-.22,0-.43-.09-.58-.24h0c-.16-.15-.24-.37-.24-.58v-1.56c0-.22.09-.43.24-.58.01-.01.02-.02.04-.03.15-.13.35-.21.55-.21h.55c.05-.15.1-.3.16-.44,0,0,0-.02.01-.02.06-.14.12-.27.19-.4l-.39-.39c-.26-.26-.32-.65-.15-.97-.31-.36-.62-.7-.94-1.03-.32-.34-.64-.66-.96-.96-.21.1-.43.15-.66.15h-5.29c-.16,0-.33-.03-.49-.08-2.13,2.05-4.61,5.11-5.86,8.07-.63,1.5-.94,2.97-.71,4.25.22,1.24.97,2.31,2.45,3.09,1.57.82,3.95,1.31,7.36,1.31s5.8-.49,7.37-1.32c1.52-.8,2.27-1.92,2.47-3.21ZM26.27,20.62c.32-.32.32-.85,0-1.17l-.39-.39c.07-.14.14-.28.2-.42.06-.14.11-.29.16-.44h.55c.46,0,.83-.37.83-.83v-1.56c0-.22-.09-.43-.24-.58h0c-.15-.16-.36-.24-.58-.24h-.55c-.05-.15-.1-.29-.16-.44s-.12-.28-.2-.42l.39-.39c.32-.32.32-.85,0-1.17l-1.1-1.1c-.32-.32-.85-.32-1.17,0l-.39.39c-.14-.07-.28-.14-.42-.2h0c-.14-.06-.29-.11-.44-.16v-.55c0-.22-.09-.43-.24-.58h0c-.15-.16-.36-.24-.58-.24h-1.56c-.22,0-.43.09-.58.24h0c-.16.15-.24.36-.24.58v.55c-.15.05-.3.1-.44.16h0c-.14.06-.29.13-.42.2l-.39-.39h0c-.31-.31-.81-.33-1.13-.03-.01.01-.02.02-.04.03l-.63.63c-.3-.34-.6-.67-.9-.98-.32-.33-.63-.65-.94-.94.34-.56.29-1.27-.13-1.78.69-.99,1.28-2.05,1.76-3.16.49-1.15.67-2.13.37-2.57-.17-.22-.39-.39-.65-.5-.31-.14-.64-.24-.97-.31-.46-.1-.78.28-1.12.69-.19.23-.39.47-.41.47,0,0-.13-.24-.28-.5-.28-.49-.56-.99-1.08-1.01-.58-.03-1.03.33-1.49.69-.24.24-.54.42-.87.51-.15,0-.42-.23-.69-.45-.41-.34-.8-.67-1.27-.61-.61.07-1.21.19-1.8.36-.42.1-.8.33-1.08.66-.3.44-.12,1.4.35,2.52.46,1.07,1.02,2.09,1.68,3.05-.01.01-.03.02-.04.04-.55.55-.61,1.42-.14,2.04-2.18,2.12-4.67,5.23-5.94,8.26-.69,1.65-1.03,3.29-.76,4.76.27,1.51,1.17,2.81,2.92,3.73,1.7.89,4.21,1.42,7.78,1.42s6.09-.53,7.79-1.42c1.87-.98,2.75-2.39,2.96-4.01h.37c.2,0,.4-.07.55-.21.01-.01.02-.02.04-.03.16-.15.24-.37.24-.58v-.55c.14-.04.28-.09.41-.15,0,0,.02,0,.02,0,.14-.06.28-.13.42-.2l.39.39c.31.31.8.32,1.13.03.01-.01.03-.02.04-.03,0,0,1.1-1.1,1.1-1.1ZM22.74,14.99c.88.88.88,2.31,0,3.19-.88.88-2.31.88-3.19,0-.88-.88-.88-2.31,0-3.19.42-.42,1-.66,1.6-.66.6,0,1.17.24,1.6.66h0ZM21.15,13.42c1.75,0,3.17,1.42,3.17,3.17s-1.42,3.17-3.17,3.17-3.17-1.42-3.17-3.17c0-.84.33-1.65.93-2.24.59-.59,1.4-.93,2.24-.93ZM25.44,24.72c.24.07.38.31.32.56-.07.24-.31.38-.56.32l-1.81-.5c-.24-.06-.39-.3-.34-.55,0,0,0-.02,0-.03l.5-1.81c.06-.24.31-.39.55-.33s.39.31.33.55c0,0,0,.01,0,.02l-.27.99c4.06-1.67,5.99-6.32,4.32-10.38-1.46-3.54-5.24-5.54-8.99-4.75-.54.11-1.07.28-1.57.51-.23.1-.5,0-.6-.23-.1-.23,0-.5.23-.6h0c4.47-1.98,9.7.03,11.68,4.5,1.3,2.93.92,6.33-1.01,8.9-.86,1.15-1.99,2.07-3.28,2.69l.49.13Z"/>
    </g>
  </g>
</svg>