<?xml version="1.0" encoding="UTF-8"?>
<svg id="Layer_2" xmlns="http://www.w3.org/2000/svg" xmlns:xlink="http://www.w3.org/1999/xlink" viewBox="0 0 30 30">
  <defs>
    <style>
      .cls-1 {
        fill: #f16129;
      }

      .cls-2 {
        fill: none;
      }

      .cls-3 {
        clip-path: url(#clippath);
      }
    </style>
    <clipPath id="clippath">
      <rect class="cls-2" width="30" height="30"/>
    </clipPath>
  </defs>
  <g id="Layer_1-2" data-name="Layer_1">
    <g class="cls-3">
      <path class="cls-1" d="M1.5,30c-.71,0-1.28-.57-1.28-1.28v-12.88c0-.71.57-1.28,1.28-1.28h2.84c.71,0,1.28.57,1.28,1.28v12.88c0,.71-.57,1.28-1.28,1.28H1.5ZM1.5,15.27c-.31,0-.56.25-.56.56v12.88c0,.31.25.56.56.56h2.84c.31,0,.56-.25.56-.56v-12.88c0-.31-.25-.56-.56-.56H1.5ZM25.66,29.78c-.71,0-1.28-.57-1.28-1.28V11.44c0-.71.57-1.28,1.28-1.28h2.84c.71,0,1.28.57,1.28,1.28v17.06c0,.71-.57,1.28-1.28,1.28h-2.84ZM25.66,10.88c-.31,0-.56.25-.56.56v17.06c0,.31.25.56.56.56h2.84c.31,0,.56-.25.56-.56V11.44c0-.31-.25-.56-.56-.56h-2.84ZM17.79,29.78c-.71,0-1.28-.57-1.28-1.28v-12c0-.71.57-1.28,1.28-1.28h2.84c.71,0,1.28.57,1.28,1.28v12c0,.71-.57,1.28-1.28,1.28h-2.84ZM17.79,15.94c-.31,0-.56.25-.56.56v12c0,.31.25.56.56.56h2.84c.31,0,.56-.25.56-.56v-12c0-.31-.25-.56-.56-.56h-2.84ZM9.64,29.78c-.71,0-1.28-.57-1.28-1.28v-8.07c0-.71.57-1.28,1.28-1.28h2.84c.71,0,1.28.57,1.28,1.28v8.07c0,.71-.57,1.28-1.28,1.28h-2.84ZM9.64,19.87c-.31,0-.56.25-.56.56v8.07c0,.31.25.56.56.56h2.84c.31,0,.56-.25.56-.56v-8.07c0-.31-.25-.56-.56-.56h-2.84ZM11.06,12.81c-1.02,0-1.84-.83-1.84-1.84,0-.13.02-.27.05-.41l.03-.14-5-2.93-.11.11c-.34.33-.8.51-1.27.51-1.02,0-1.84-.83-1.84-1.84s.83-1.84,1.84-1.84,1.84.83,1.84,1.84c0,.15-.02.31-.06.46l-.04.15,4.98,2.92.11-.11c.35-.35.81-.55,1.31-.55s1.01.22,1.36.6l.1.11,4.94-2.45-.04-.16c-.04-.16-.07-.32-.07-.47,0-1.02.83-1.84,1.84-1.84.47,0,.92.18,1.26.5l.11.11,4.77-3-.04-.15c-.05-.17-.08-.35-.08-.52,0-1.02.83-1.84,1.84-1.84s1.84.83,1.84,1.84-.83,1.84-1.84,1.84c-.45,0-.89-.17-1.23-.47l-.11-.1-4.79,3.01.04.14c.04.16.06.32.06.47,0,1.02-.83,1.84-1.84,1.84-.47,0-.91-.18-1.26-.5l-.1-.1-5,2.48.03.15c.02.11.03.22.03.34,0,1.02-.83,1.84-1.84,1.84ZM11.06,9.83c-.62,0-1.13.51-1.13,1.13s.51,1.13,1.13,1.13,1.13-.51,1.13-1.13-.51-1.13-1.13-1.13ZM19.21,5.62c-.62,0-1.13.51-1.13,1.13s.51,1.13,1.13,1.13,1.13-.51,1.13-1.13-.51-1.13-1.13-1.13ZM2.92,5.11c-.62,0-1.13.51-1.13,1.13s.51,1.13,1.13,1.13,1.13-.51,1.13-1.13-.51-1.13-1.13-1.13ZM27.08.72c-.62,0-1.13.51-1.13,1.13s.51,1.13,1.13,1.13,1.13-.51,1.13-1.13-.51-1.13-1.13-1.13Z"/>
    </g>
  </g>
</svg>