<?xml version="1.0" encoding="UTF-8"?>
<svg id="Layer_2" xmlns="http://www.w3.org/2000/svg" xmlns:xlink="http://www.w3.org/1999/xlink" viewBox="0 0 30 30">
  <defs>
    <style>
      .cls-1 {
        fill: #f16129;
      }

      .cls-2 {
        fill: none;
      }

      .cls-3 {
        clip-path: url(#clippath);
      }
    </style>
    <clipPath id="clippath">
      <rect class="cls-2" width="30" height="30"/>
    </clipPath>
  </defs>
  <g id="Layer_1-2" data-name="Layer_1">
    <g class="cls-3">
      <g>
        <path class="cls-1" d="M19.31,6.74h0c0-1.02-.82-1.84-1.84-1.84s-1.84.82-1.84,1.84.82,1.84,1.84,1.84c1.01,0,1.84-.82,1.84-1.84ZM16.29,6.74c0-.65.53-1.18,1.19-1.18.65,0,1.18.53,1.18,1.18h0c0,.65-.53,1.19-1.19,1.18-.65,0-1.18-.53-1.18-1.19Z"/>
        <path class="cls-1" d="M6.61,19.45c0-1.01-.82-1.84-1.84-1.84s-1.84.82-1.84,1.84.82,1.84,1.84,1.84c1.01,0,1.84-.82,1.84-1.84ZM3.58,19.45c0-.65.53-1.18,1.18-1.18.65,0,1.18.53,1.18,1.18,0,.65-.53,1.18-1.18,1.18s-1.18-.53-1.18-1.18Z"/>
        <path class="cls-1" d="M27.07,19.45c0-1.01-.82-1.84-1.84-1.84-1.01,0-1.84.82-1.84,1.84s.82,1.84,1.84,1.84c1.01,0,1.84-.82,1.84-1.84ZM24.05,19.45c0-.65.53-1.18,1.18-1.18.65,0,1.18.53,1.18,1.18,0,.65-.53,1.18-1.18,1.18-.65,0-1.18-.53-1.18-1.18Z"/>
        <path class="cls-1" d="M27.8,22.67c.59-.99,1.07-2.13,1.07-3.22h0c0-2.01-1.63-3.64-3.64-3.64s-3.64,1.63-3.64,3.64c0,1.1.47,2.23,1.07,3.22-1.38.41-2.2,1.12-2.2,1.94,0,.03.02.06.02.09l-10.99-.4c-.09-.33-.31-.64-.66-.91l6.48-9.43c.64.15,1.37.24,2.16.24,2.72,0,4.77-.98,4.77-2.29,0-.82-.82-1.52-2.2-1.93.59-.99,1.07-2.13,1.07-3.22h0c0-2.01-1.63-3.64-3.64-3.64s-3.64,1.63-3.64,3.64c0,1.1.47,2.23,1.07,3.23-1.38.41-2.2,1.11-2.2,1.93s.75,1.45,1.94,1.86l-6.37,9.28c-.27-.14-.58-.26-.94-.37.59-.99,1.07-2.13,1.07-3.22,0-2.01-1.63-3.64-3.64-3.64-2.01,0-3.64,1.63-3.64,3.64,0,1.1.47,2.23,1.07,3.22-1.38.41-2.2,1.12-2.2,1.94,0,1.3,2.05,2.29,4.77,2.29,2.48,0,4.38-.82,4.7-1.95l11.26.41c.62.91,2.34,1.54,4.5,1.54,2.72,0,4.77-.98,4.77-2.29,0-.82-.82-1.53-2.2-1.94ZM17.47,3.76c1.65,0,2.99,1.34,2.99,2.99,0,2.2-2.26,4.71-2.99,5.47-.73-.76-2.99-3.27-2.99-5.47,0-1.65,1.34-2.99,2.99-2.99ZM13.36,11.91c0-.52.76-1.05,1.91-1.36.9,1.33,1.9,2.3,1.98,2.37.06.06.14.09.22.09.08,0,.16-.03.22-.09.08-.07,1.08-1.04,1.98-2.37,1.15.31,1.91.84,1.91,1.36,0,.77-1.69,1.64-4.12,1.64s-4.12-.86-4.12-1.64ZM4.77,16.46c1.65,0,2.99,1.34,2.99,2.99,0,2.2-2.26,4.71-2.99,5.47-.73-.76-2.99-3.27-2.99-5.47,0-1.65,1.34-2.99,2.99-2.99ZM4.77,26.25c-2.43,0-4.12-.86-4.12-1.64,0-.52.76-1.05,1.91-1.36.9,1.33,1.91,2.3,1.98,2.37.06.06.14.09.22.09.08,0,.16-.03.22-.09.08-.07,1.08-1.04,1.98-2.37,1.15.31,1.91.84,1.91,1.36,0,.77-1.69,1.64-4.12,1.64ZM25.23,16.46c1.65,0,2.99,1.34,2.99,2.99,0,2.2-2.26,4.71-2.99,5.47-.73-.76-2.99-3.27-2.99-5.47,0-1.65,1.34-2.99,2.99-2.99ZM25.23,26.25c-2.43,0-4.12-.86-4.12-1.64,0-.52.76-1.05,1.91-1.36.9,1.33,1.91,2.3,1.98,2.37.06.06.14.09.22.09.08,0,.16-.03.22-.09.08-.07,1.08-1.04,1.98-2.37,1.15.31,1.91.84,1.91,1.36,0,.77-1.69,1.64-4.12,1.64Z"/>
      </g>
    </g>
  </g>
</svg>