<?xml version="1.0" encoding="UTF-8"?>
<svg id="Layer_2" xmlns="http://www.w3.org/2000/svg" xmlns:xlink="http://www.w3.org/1999/xlink" viewBox="0 0 30 30">
  <defs>
    <style>
      .cls-1 {
        fill: #f16129;
      }

      .cls-2 {
        fill: none;
      }

      .cls-3 {
        clip-path: url(#clippath);
      }
    </style>
    <clipPath id="clippath">
      <rect class="cls-2" width="30" height="30"/>
    </clipPath>
  </defs>
  <g id="Layer_1-2" data-name="Layer_1">
    <g class="cls-3">
      <path class="cls-1" d="M11.47,21.35c-1.22-1.21-2.86-1.85-4.74-1.85s-3.52.64-4.74,1.85C.83,22.5.12,24.14,0,25.96c-.03.47.15.91.51,1.22,1.53,1.34,3.98,2.21,6.21,2.21s4.68-.87,6.21-2.21c.36-.31.54-.75.51-1.22-.12-1.82-.83-3.45-1.98-4.6h0ZM12.54,26.72c-1.4,1.23-3.74,2.06-5.81,2.06s-4.41-.83-5.81-2.06c-.21-.19-.32-.43-.3-.72.23-3.52,2.69-5.89,6.11-5.89s5.88,2.36,6.11,5.89c.02.28-.09.53-.3.72h0ZM6.72,18.95c1.74,0,3.16-1.42,3.16-3.16s-1.42-3.16-3.16-3.16-3.16,1.42-3.16,3.16,1.42,3.16,3.16,3.16ZM6.72,13.25c1.4,0,2.54,1.14,2.54,2.54s-1.14,2.54-2.54,2.54-2.54-1.14-2.54-2.54,1.14-2.54,2.54-2.54ZM30,25.96c-.12-1.82-.82-3.45-1.98-4.6-1.22-1.21-2.86-1.85-4.74-1.85s-3.52.64-4.74,1.85c-1.15,1.15-1.86,2.79-1.98,4.6-.03.47.15.91.51,1.22,1.53,1.34,3.98,2.21,6.21,2.21s4.68-.87,6.21-2.21c.36-.31.54-.74.51-1.22h0ZM29.09,26.72c-1.4,1.23-3.74,2.06-5.81,2.06s-4.41-.83-5.81-2.06c-.21-.19-.32-.43-.3-.72.23-3.52,2.69-5.89,6.11-5.89s5.88,2.36,6.11,5.89c.02.28-.08.53-.3.72h0ZM20.12,15.79c0,1.74,1.42,3.16,3.16,3.16s3.16-1.42,3.16-3.16-1.42-3.16-3.16-3.16-3.16,1.42-3.16,3.16ZM23.28,13.25c1.4,0,2.54,1.14,2.54,2.54s-1.14,2.54-2.54,2.54-2.54-1.14-2.54-2.54,1.14-2.54,2.54-2.54ZM18.27,12.29c.11,0,.23-.02.34-.06.35-.14.57-.47.57-.85v-1.44h.62c.8,0,1.44-.65,1.44-1.44V3.57c0-.8-.65-1.44-1.44-1.44h-.77v-.07c0-.8-.65-1.44-1.44-1.44h-8.6c-.8,0-1.44.65-1.44,1.44v4.92c0,.8.65,1.44,1.44,1.44h.62v1.44c0,.37.23.71.57.85.11.05.23.06.34.06.24,0,.48-.1.66-.28l.52-.55h3.95l1.96,2.07c.18.18.42.28.66.28h0ZM10.73,10.07c-.09.09-.21.12-.33.07-.12-.05-.19-.15-.19-.28v-1.75c0-.17-.14-.31-.31-.31h-.92c-.46,0-.83-.37-.83-.83V2.06c0-.46.37-.83.83-.83h8.61c.46,0,.83.37.83.83v4.92c0,.46-.37.83-.83.83h-4.58c-.09,0-.16.04-.22.09l-2.05,2.17ZM15.78,9.33h-3.5l.86-.9h4.45c.8,0,1.44-.65,1.44-1.44V2.74h.77c.46,0,.83.37.83.83v4.92c0,.46-.37.83-.83.83h-.92c-.17,0-.31.14-.31.31v1.75c0,.13-.07.23-.19.28-.12.05-.24.02-.33-.07l-2.05-2.17c-.06-.07-.14-.1-.22-.1h0ZM13.94,5.77h-3.59c-.17,0-.31-.14-.31-.31s.14-.31.31-.31h3.59c.17,0,.31.14.31.31s-.14.31-.31.31ZM10.04,3.57c0-.17.14-.31.31-.31h5.86c.17,0,.31.14.31.31s-.14.31-.31.31h-5.87c-.17,0-.3-.14-.3-.31h0Z"/>
    </g>
  </g>
</svg>