<?xml version="1.0" encoding="UTF-8"?>
<svg id="Layer_2" xmlns="http://www.w3.org/2000/svg" xmlns:xlink="http://www.w3.org/1999/xlink" viewBox="0 0 30 30">
  <defs>
    <style>
      .cls-1 {
        fill: #f16129;
      }

      .cls-2 {
        fill: none;
      }

      .cls-3 {
        clip-path: url(#clippath);
      }
    </style>
    <clipPath id="clippath">
      <rect class="cls-2" width="30" height="30"/>
    </clipPath>
  </defs>
  <g id="Layer_1-2" data-name="Layer_1">
    <g class="cls-3">
      <path class="cls-1" d="M26.48,3.13h-6.39v-.65c0-1.37-1.11-2.48-2.48-2.48H4.04C2.68,0,1.57,1.11,1.57,2.48v25.04c0,1.37,1.11,2.48,2.48,2.48h13.57c1.37,0,2.48-1.11,2.48-2.48v-9h6.39c1.08,0,1.96-.88,1.96-1.96V5.09c0-1.08-.88-1.96-1.96-1.96h0ZM19.3,27.52c0,.94-.76,1.7-1.7,1.7H4.04c-.94,0-1.7-.76-1.7-1.7v-1.7h16.96v1.7ZM19.3,25.04H2.35V2.48c0-.94.76-1.7,1.7-1.7h13.57c.94,0,1.7.76,1.7,1.7v.65h-9.52c-1.08,0-1.96.88-1.96,1.96v11.48c0,1.08.88,1.96,1.96,1.96h9.52v6.52ZM27.65,16.57c0,.65-.53,1.17-1.17,1.17H9.78c-.65,0-1.17-.53-1.17-1.17V5.09c0-.65.53-1.17,1.17-1.17h16.7c.65,0,1.17.53,1.17,1.17v11.48ZM23.36,13.64c.04.21-.1.42-.31.46-.02,0-.05,0-.07,0-.19,0-.35-.13-.38-.32-.59-3.22-3.15-5.78-6.37-6.37-.21-.04-.35-.24-.31-.46.04-.21.24-.35.46-.31,3.53.65,6.35,3.46,7,7h0ZM20.27,14.09c.04.21-.09.42-.3.46-.03,0-.05,0-.08,0-.18,0-.34-.13-.38-.31-.39-1.89-1.86-3.36-3.75-3.75-.21-.04-.35-.25-.3-.46.04-.21.25-.35.46-.3,2.19.45,3.9,2.16,4.35,4.35h0ZM17.15,14.52c.06.21-.06.43-.26.49-.04.01-.07.02-.11.02-.17,0-.32-.11-.38-.28-.16-.54-.6-.98-1.14-1.14-.21-.06-.32-.28-.26-.49.06-.21.28-.32.49-.26.79.23,1.43.87,1.67,1.67h0Z"/>
    </g>
  </g>
</svg>