<svg id="Layer_1" data-name="Layer 1" xmlns="http://www.w3.org/2000/svg" viewBox="0 0 723.83 723.36"><defs><style>.cls-1{fill:#ce3544;}</style></defs><path class="cls-1" d="M379,879.66c2.68-5.17,5.42-10.31,8-15.53a8.3,8.3,0,0,0,.42-3.44c.22-16.85,0-33.7.73-50.52a175.43,175.43,0,0,1,13.2-58.95,187.69,187.69,0,0,1,24.07-42.17,8.91,8.91,0,0,0,1.57-5.17c-.35-13.29-1.39-26.59-1.29-39.88.16-19.19,18.95-38.49,38.17-38.78,35.57-.53,71.15-.35,106.72-.46,2.36,0,4.71,0,7.07,0,8.74,0,13.65-4,14.78-12.9.72-5.7.55-11.51.69-17.27.09-4-.21-8,.07-12,.22-3.16-1.15-4.93-3.61-6.59a117.07,117.07,0,0,1-35.92-37.85A122.26,122.26,0,0,1,538,494.22c-.19-1.26-.51-2.51-.83-4-4.1,0-8.08-.1-12.06,0-18.07.53-35.43-13.77-35.39-34,0-14.13-.16-28.27.1-42.4.22-12.07,6.48-20.89,16.32-27.29a4.91,4.91,0,0,0,2.65-4.76c0-15.9,0-31.8.23-47.7.61-46.61,34.06-81.34,69-92.83a99.87,99.87,0,0,1,31.28-4.77c37.23-.06,74.45,0,111.68,0,17.74,0,31.15,7.81,40.7,22.52,3.8,5.86,5.46,12.47,6.08,19.33.46,5.1.34,5.11,5.29,5.43C794,285,811,299.44,815.29,320a64.31,64.31,0,0,1,1.1,12.64c.14,16.49.13,33,.07,49.47a4.34,4.34,0,0,0,2.33,4.21c10.65,7,16.81,16.59,16.82,29.61q0,38.88,0,77.75c0,19.22-9.27,32.81-26.37,40.69-5.35,2.46-11.81,2.83-17.84,3.42-5.36.52-10.83-.15-16.24.06a6,6,0,0,0-4.27,2.18c-9.46,15.17-22.11,27.13-36.66,37.27a4.8,4.8,0,0,0-1.78,3.42c-.11,9.54-.11,19.08.09,28.62a22.1,22.1,0,0,0,1.45,7.22c2.24,6,6.19,8.31,13.09,8.29q51.07-.08,102.14-.12c7.75,0,15.47.06,23,2.88,15.52,5.85,27.57,21.79,27.62,38.42,0,12.23-1.15,24.46-1.49,36.7a12.16,12.16,0,0,0,2.09,7.08c18.67,25.16,30.85,53.09,35,84.13,1.86,13.84,2,27.93,2.56,41.92.35,8.35,0,16.72.21,25.08a10.88,10.88,0,0,0,1.79,5.5c6.9,10.39,8.54,21.38,3.42,32.83-5.32,11.92-14.86,18.52-27.82,20a70.85,70.85,0,0,1-8.12.24q-242.79,0-485.58-.11c-6.43,0-13.07-.16-19.24-1.71-11.34-2.86-18.3-11-22.21-21.79-.43-1.19-1-2.34-1.45-3.52Zm244-27.23c-1.53-4.91-2.71-9.32-4.27-13.59-3.2-8.78-9.33-15.74-14.91-23-16.27-21.14-20.47-44.55-12.62-69.91,5.64-18.21,17.35-31.82,33.65-41.57,5.63-3.37,11.32-3.68,17-.18,5.37,3.31,7.78,8.27,7.78,14.53q0,22.78.08,45.58c0,4.91.88,5.7,5.79,5.76q6.88.08,13.78,0c5.56,0,6.35-.82,6.37-6.34.05-15.19.45-30.4,0-45.58-.37-12,13.26-20.57,25-13.8C738.32,726.21,749.53,777,724,812.31c-4,5.53-8.3,10.85-12.2,16.45-4.88,7-7.47,15-9.2,23.64h166a12.22,12.22,0,0,0,.35-1.56q1.71-30.51,3.4-61,2-37.22,4-74.44,1.23-22.92,2.39-45.86a22.5,22.5,0,0,0-5.5-16.31c-5.34-6.26-12.43-7.36-20.11-7.35q-143.29.09-286.58.07c-32.28,0-64.55.17-96.83,0-14.41-.08-23.83,10.94-23.12,23.7q2.18,39,4.16,78c.44,8.47,1,16.94,1,25.41a9.77,9.77,0,0,1-9.82,10c-5.57.17-10-3.63-10.8-9.41-.34-2.44-.46-4.92-.6-7.38-.44-7.64-.85-15.28-1.3-23.57-20.18,34.74-21.91,72-20.37,109.82h26.08c0-1.12,0-1.93,0-2.73-.44-8.82-1-17.64-1.3-26.47-.2-6.7,4.15-11.64,10-11.9,5.58-.24,10.36,4.32,11,10.68.36,3.51.53,7,.74,10.56.41,6.55.79,13.11,1.19,19.85ZM767.89,435.88c-10-.13-17.11-3.93-21.82-11.91-2.76-4.68-2.72-9.9-2.76-15.09-.12-13.66.12-27.33-.42-41-.42-10.64-8.13-19.64-18.41-22.59-8.28-2.38-16.42-.59-24.32,1.76a131.62,131.62,0,0,1-58.33,3.78c-8.68-1.35-17.11-4.38-25.79-5.71-5.2-.8-11-.94-16,.61-12.05,3.8-17.7,12.88-17.87,26.59s-.06,27.56-.28,41.34a20.49,20.49,0,0,1-11,18.51c-3.87,2.14-8.42,3.07-13.13,4.7a5.45,5.45,0,0,0-.15,1.3c.18,15,0,29.93.66,44.86.7,16.91,6.12,32.46,15.14,46.79,9.25,14.69,21.89,25.62,36.85,34.21a104.75,104.75,0,0,0,48.32,13.85c21.83,1,41.86-4.9,60.44-16.11,3.25-2,6.31-4.22,9.45-6.35l-.35-1.06c-4.42,0-8.86.29-13.26,0-16.72-1.26-28.24-13.9-27.68-30.11.55-15.51,13.24-27.38,29.6-27.6,7.19-.09,14.38.11,21.56-.07,9.25-.23,17.75,1.49,24.92,9.05C770.25,482.34,767,459.12,767.89,435.88Zm-207.3-21.06c.1-1.82.2-3,.21-4.14,0-12.49,0-25,.08-37.46,0-7.34.66-14.63,3.91-21.35,11-22.79,32.21-32.91,57-27.35,9.17,2.06,18.31,4.49,27.59,5.82,16.09,2.29,31.9,0,47.49-4.3,9.15-2.5,18.5-3.85,27.95-2.25,21.26,3.6,39.27,22.13,39.51,46.2.13,12.6.12,25.2.21,37.81,0,2.19.21,4.38.34,7,6.52-2.29,12.58-4.51,18.69-6.55,10.9-3.65,11.17-3.95,11.42-15.29,0-.24,0-.47,0-.71.07-21.2.28-42.4.13-63.6-.06-8.27-4-14.81-10.77-19.65-5-3.52-10.6-4.12-16.4-4.54-11.32-.82-19.43-8.68-20.81-19.92-.34-2.8-.35-5.69-1.1-8.38-3.18-11.55-12.07-18.54-24-18.57q-57.24-.14-114.49.07a74.88,74.88,0,0,0-11.94,1.09c-36,5.91-64.45,38.12-65.33,74.65-.5,20.71-.15,41.45-.13,62.18,0,7.29,1.69,9.48,8.63,11.79l3.34,1.14ZM662.78,898.08h206c15,0,29.91,0,44.87-.14,8.5-.1,14-9.43,10.2-17.05a11.65,11.65,0,0,0-11-7q-24.37-.13-48.75-.11-115.36,0-230.71.1-107.4,0-214.81-.06a52.61,52.61,0,0,0-8.79.51c-5.07.86-8.48,4.75-9.41,10.13-.72,4.18,1.58,9.87,5.56,11.74a21.37,21.37,0,0,0,8.82,1.78Q538.77,898.14,662.78,898.08ZM628.44,728.41l-.82-.56c-2.52,2.71-5.3,5.22-7.51,8.16-15.75,21-15.5,47.57,1.2,67.77,11.41,13.8,20.05,28.69,22.62,46.63.36,2.49,2.12,2.12,3.7,2.13,9.3.05,18.6.05,27.9.1,5.29,0,5.44.09,6.34-5.15,2.86-16.64,11.09-30.47,21.77-43.24,12.84-15.34,16-32.92,10.21-52-2.92-9.6-8.49-17.61-16.74-24.49-.09,1.68-.2,2.8-.21,3.91-.12,11.89,0,23.79-.38,35.67-.33,10.11-5.54,18.1-14.75,21.38a56,56,0,0,1-38.37-.1c-10.63-3.91-14.8-13.24-14.93-24.24C628.33,752.42,628.44,740.41,628.44,728.41ZM610.85,624.53H714.4c-5-11.21-2.54-22.8-3.56-34.58-32.33,12.37-64.31,12.51-96.42-.18C613.87,601.53,615.79,613.2,610.85,624.53ZM896.07,742.32c-2,37.17-4,73.47-5.92,110.11h26.4C918.1,814.43,915.94,777.22,896.07,742.32ZM511.7,411.08a16.21,16.21,0,0,0-.59,2.84q-.21,20.81-.33,41.6a12.83,12.83,0,0,0,.55,3.47c1.31,4.81,4.37,8.43,9.16,9.3,5.09.92,10.4.63,15.85.87,0-13.08,0-25.42,0-37.75,0-2.25-1.16-3-3-3.59-6-1.9-11.65-4.49-15.91-9.33C515.46,416.25,513.76,413.77,511.7,411.08Zm302.31.26a37.93,37.93,0,0,1-21.23,16.29c-3.21,1-3.85,2.5-3.8,5.49.15,9.65,0,19.31,0,29V469c4,0,7.51.05,11,0,8.86-.14,14.23-5.5,14.3-14.36q.17-17.83.13-35.67C814.47,416.43,814.17,413.89,814,411.34Zm-31.44,105c26.5,3.9,34.65-14.17,31.29-27.54-6.53.48-12.9,1.12-19.29,1.35-6.17.23-6.15.05-7.46,6C785.63,502.86,784.09,509.58,782.57,516.31ZM729,517.8v.09c-4.11,0-8.23,0-12.34,0-4.73,0-8.24,3.26-8.3,7.64s3,7.59,7.86,7.69q13,.27,26.08,0a7.8,7.8,0,0,0,8-8.1c0-4.15-3.42-7.25-8.24-7.35C737.7,517.73,733.36,517.8,729,517.8Z" transform="translate(-378.99 -196.16)"/><path class="cls-1" d="M1062.49,196.16c3.08.64,6.17,1.21,9.22,1.94,17.33,4.09,31,20.86,31.07,39.83,0,6.59,0,13.19,0,19.78,0,6.16-4.94,11.25-10.77,11.29-5.5,0-10.21-4.69-10.41-10.81-.19-5.65-.07-11.31-.06-17,0-15.56-8.08-23.72-23.74-23.73q-45.22,0-90.45.08c-26.38,0-52.77-.05-79.15,0a48,48,0,0,0-10.84,1.09A19.06,19.06,0,0,0,863,235.57c-.18,1.87-.34,3.76-.34,5.64q0,42.21,0,84.44c0,8,2.88,14.72,9.91,18.7,3.31,1.88,7.48,2.68,11.34,3,11.12,1,19.56,6.09,24.42,16.07a32.05,32.05,0,0,1,2.89,12.89c.36,13.15.13,26.31.13,39.47l1,.35c2.39-3.89,4.83-7.75,7.18-11.66,8.65-14.42,17.15-28.93,26-43.26,5.66-9.21,14.13-13.79,25-13.79q34.8,0,69.61-.07c6.47,0,12.95,0,19.43,0,13.16-.05,21.43-8,21.85-21.15.18-5.65,0-11.3.08-17,.11-6.9,4.78-11.75,11.06-11.61,5.69.12,10.23,5.25,10.18,11.77-.06,7.76.42,15.62-.6,23.27a41.29,41.29,0,0,1-40.89,35.78q-44.16.28-88.33,0c-5.36,0-8.46,2-11.05,6.42-12.3,20.74-24.66,41.45-37.31,62a30,30,0,0,1-9.1,9.47c-8.52,5.34-20.58.63-23.67-9a36.45,36.45,0,0,1-1.55-10.75c-.11-15.55,0-31.09.11-46.64,0-9.06-1.74-11-10.65-11.61C860.11,367.14,843.17,350.71,842,331c-.7-11.51-.49-23.07-.48-34.61,0-20.49-.35-41,.43-61.46.76-19.84,16.18-35.46,35.91-38,1.26-.16,2.49-.55,3.73-.83Z" transform="translate(-378.99 -196.16)"/><path class="cls-1" d="M972.33,298.6q35.85,0,71.69,0a11,11,0,0,1,11.2,10.35c.21,5.66-4.57,10.52-10.8,10.74-4.7.17-9.41.08-14.12.08l-124.3,0c-2.24,0-4.48.07-6.71-.07A10.83,10.83,0,0,1,889,308.82a10.52,10.52,0,0,1,10.57-10.17c9.18-.14,18.36-.09,27.54-.1h45.2Z" transform="translate(-378.99 -196.16)"/><path class="cls-1" d="M998.59,269.88c-15.55,0-31.1.17-46.65-.06a10.31,10.31,0,0,1-9.21-15c1.75-3.37,4.45-5.75,8.6-5.79,5.65-.07,11.3-.24,17-.25q36.75,0,73.5.05a20.85,20.85,0,0,1,6.93.93,10.15,10.15,0,0,1,6.24,11.41,10.35,10.35,0,0,1-10.08,8.66c-15.43.07-30.86,0-46.29,0Z" transform="translate(-378.99 -196.16)"/><path class="cls-1" d="M905.15,269.79c-2.23,0-4.47.14-6.69,0a10.26,10.26,0,0,1-9.37-10.1c-.15-5.43,3.39-10,8.77-10.52a82.22,82.22,0,0,1,14.38,0,10.5,10.5,0,0,1,9.3,10.62,10.86,10.86,0,0,1-10,10C909.38,269.9,907.26,269.79,905.15,269.79Z" transform="translate(-378.99 -196.16)"/></svg>