<svg id="svg31911" xmlns="http://www.w3.org/2000/svg" xmlns:xlink="http://www.w3.org/1999/xlink" viewBox="0 0 86.63 60"><defs><style>.cls-1{fill:none;}.cls-2{clip-path:url(#clip-path);}.cls-3{fill:#da3544;}.cls-4{fill:#ca0000;}</style><clipPath id="clip-path" transform="translate(-5.68)"><rect class="cls-1" width="98" height="60"/></clipPath></defs><g class="cls-2"><path class="cls-3" d="M87.17,60H10.83a5.15,5.15,0,0,1-5.15-5.14V5.14A5.15,5.15,0,0,1,10.83,0H87.17a5.15,5.15,0,0,1,5.15,5.14V54.86A5.15,5.15,0,0,1,87.17,60ZM10.83,2.2A3,3,0,0,0,7.88,5.14V54.86a3,3,0,0,0,3,2.94H87.17a3,3,0,0,0,3-2.94V5.14a3,3,0,0,0-3-2.94Z" transform="translate(-5.68)"/><path class="cls-3" d="M87.17,60H10.83a5.15,5.15,0,0,1-5.15-5.14V48.54a1.2,1.2,0,0,1,1.19-1.19H92.32v7.51A5.15,5.15,0,0,1,87.17,60ZM7.88,49.55v5.31a3,3,0,0,0,3,2.94H87.17a3,3,0,0,0,3-2.94V49.55Z" transform="translate(-5.68)"/><circle class="cls-4" cx="43.32" cy="54.07" r="1.15"/><path class="cls-3" d="M42.68,26.19a5,5,0,0,1-2-2.18,7.66,7.66,0,0,1-.7-3.43V9.67h2.4v11a4.11,4.11,0,0,0,.94,2.89,3.43,3.43,0,0,0,2.65,1,3.47,3.47,0,0,0,2.68-1,4.14,4.14,0,0,0,.94-2.89v-11h2.4V20.58A7.66,7.66,0,0,1,51.23,24a4.86,4.86,0,0,1-2,2.18,7.51,7.51,0,0,1-6.5,0Z" transform="translate(-5.68)"/><path class="cls-3" d="M58.08,26.76H55.69V9.67h2.39Z" transform="translate(-5.68)"/><path class="cls-3" d="M73.68,36.35h-50a1.1,1.1,0,1,1,0-2.2h50a1.1,1.1,0,0,1,0,2.2Z" transform="translate(-5.68)"/><path class="cls-3" d="M73.68,41.6h-50a1.1,1.1,0,1,1,0-2.2h50a1.1,1.1,0,0,1,0,2.2Z" transform="translate(-5.68)"/></g></svg>