<svg id="svg31911" xmlns="http://www.w3.org/2000/svg" xmlns:xlink="http://www.w3.org/1999/xlink" viewBox="0 0 60 60"><defs><style>.cls-1{fill:none;}.cls-2{clip-path:url(#clip-path);}.cls-3{fill:#da3544;}</style><clipPath id="clip-path" transform="translate(-19 0)"><rect class="cls-1" width="98" height="60"/></clipPath></defs><g class="cls-2"><g id="layer1"><path id="path13423" class="cls-3" d="M30,0a3,3,0,0,0-3,3V35a1,1,0,0,0,2,0V10H69V35a1,1,0,1,0,2,0V3a3,3,0,0,0-3-3Zm0,2H68a1,1,0,0,1,1,1V8H29V3A1,1,0,0,1,30,2Zm2,2a1,1,0,1,0,1,1A1,1,0,0,0,32,4Zm4,0a1,1,0,1,0,1,1A1,1,0,0,0,36,4Zm4,0a1,1,0,1,0,1,1A1,1,0,0,0,40,4ZM54,4a1,1,0,0,0,0,2H66a1,1,0,0,0,0-2ZM22,6a3,3,0,0,0-3,3V45a3,3,0,0,0,3,3H76a3,3,0,0,0,3-3V9a3,3,0,0,0-3-3H74a1,1,0,1,0,0,2h2a1,1,0,0,1,1,1V38H21V9a1,1,0,0,1,1-1h2a1,1,0,1,0,0-2Zm30,8a1,1,0,0,0-1,.71l-6,18a1,1,0,0,0,1.9.64l6-18A1,1,0,0,0,52,14Zm4.35,5.79L61.44,24l-5.08,4.23a1,1,0,1,0,1.28,1.54l6-5a1,1,0,0,0,0-1.54l-6-5A1,1,0,0,0,57,18a1,1,0,0,0-.59,1.78ZM41,18a1,1,0,0,0-.61.24l-6,5a1,1,0,0,0,0,1.54l6,5a1,1,0,1,0,1.28-1.54L36.56,24l5.08-4.23A1,1,0,0,0,41,18ZM21,40H77v5a1,1,0,0,1-1,1H22a1,1,0,0,1-1-1Zm30.05,2H47a1,1,0,0,0,0,2h4a1,1,0,1,0,0-2Zm-7.66,7.92a1,1,0,0,0-.93.59A10.41,10.41,0,0,1,39.62,54H38a3,3,0,0,0-3,3v2a1,1,0,0,0,1,1H62a1,1,0,0,0,1-1V57a3,3,0,0,0-3-3H58.38a10.41,10.41,0,0,1-2.84-3.49,1,1,0,0,0-1-.59,1,1,0,0,0-.85,1.44A11.52,11.52,0,0,0,55.52,54h-13a11.52,11.52,0,0,0,1.79-2.64A1,1,0,0,0,43.39,49.92ZM38,56H60a1,1,0,0,1,1,1v1H37V57a1,1,0,0,1,1-1Z" transform="translate(-19 0)"/></g></g></svg>