<svg id="svg31911" xmlns="http://www.w3.org/2000/svg" xmlns:xlink="http://www.w3.org/1999/xlink" viewBox="0 0 60.03 60"><defs><style>.cls-1{fill:none;}.cls-2{clip-path:url(#clip-path);}.cls-3{fill:#ce3544;}</style><clipPath id="clip-path" transform="translate(-18.98)"><rect class="cls-1" width="98" height="60"/></clipPath></defs><g class="cls-2"><path class="cls-3" d="M19,56.69c.23-.43.45-.85.67-1.29a.65.65,0,0,0,0-.28c0-1.4,0-2.8.06-4.19A14.43,14.43,0,0,1,20.84,46a15.73,15.73,0,0,1,2-3.5.71.71,0,0,0,.14-.43c0-1.1-.12-2.2-.11-3.3A3.46,3.46,0,0,1,26,35.59c2.95,0,5.9,0,8.85,0h.59a1.09,1.09,0,0,0,1.23-1.07,13.57,13.57,0,0,0,.05-1.43c0-.33,0-.66,0-1a.55.55,0,0,0-.3-.54,9.72,9.72,0,0,1-3-3.14,10.32,10.32,0,0,1-1.3-3.64,2.58,2.58,0,0,0-.07-.34h-1a2.83,2.83,0,0,1-2.93-2.82c0-1.17,0-2.34,0-3.51a2.66,2.66,0,0,1,1.35-2.27.4.4,0,0,0,.22-.39c0-1.32,0-2.64,0-4a8.37,8.37,0,0,1,5.72-7.7,8.2,8.2,0,0,1,2.6-.39c3.08,0,6.17,0,9.26,0a3.81,3.81,0,0,1,3.37,1.87,3.36,3.36,0,0,1,.51,1.6c0,.42,0,.42.44.45a3.76,3.76,0,0,1,3.5,3,5.16,5.16,0,0,1,.09,1c0,1.37,0,2.74,0,4.11a.35.35,0,0,0,.19.35,2.8,2.8,0,0,1,1.39,2.45v6.45a3.5,3.5,0,0,1-2.18,3.38,4.86,4.86,0,0,1-1.48.28c-.45,0-.9,0-1.35,0a.52.52,0,0,0-.35.18,11,11,0,0,1-3,3.1.39.39,0,0,0-.15.28c0,.79,0,1.58,0,2.37a1.53,1.53,0,0,0,.12.6,1,1,0,0,0,1.08.69H58a5.15,5.15,0,0,1,1.91.24A3.56,3.56,0,0,1,62.18,39c0,1-.09,2-.12,3.05a1,1,0,0,0,.17.59,14.8,14.8,0,0,1,2.9,7c.16,1.15.17,2.32.22,3.48,0,.69,0,1.39,0,2.08a1,1,0,0,0,.15.46,2.67,2.67,0,0,1,.29,2.72A2.71,2.71,0,0,1,63.49,60c-.22,0-.45,0-.67,0H22.54A6.49,6.49,0,0,1,21,59.85,2.64,2.64,0,0,1,19.11,58c0-.1-.09-.19-.13-.29Zm20.24-2.26c-.13-.4-.22-.77-.35-1.12a7.55,7.55,0,0,0-1.24-1.91,6.21,6.21,0,0,1,1.75-9.25,1.25,1.25,0,0,1,1.4,0,1.3,1.3,0,0,1,.65,1.2c0,1.26,0,2.52,0,3.78,0,.41.07.48.48.48h1.14c.46,0,.53-.07.53-.52,0-1.26,0-2.53,0-3.78a1.36,1.36,0,0,1,2.07-1.15,6.23,6.23,0,0,1,1.94,9c-.33.46-.69.9-1,1.36a5.16,5.16,0,0,0-.77,2H59.59l0-.13c.09-1.68.19-3.37.28-5.06l.33-6.17c.07-1.27.14-2.54.2-3.8A1.87,1.87,0,0,0,60,37.91a2,2,0,0,0-1.67-.61H26.51a1.84,1.84,0,0,0-1.92,2c.12,2.15.24,4.31.35,6.46,0,.71.08,1.41.08,2.11a.81.81,0,0,1-.79.83h0a.86.86,0,0,1-.89-.78c0-.2,0-.41,0-.61,0-.64-.07-1.27-.11-2-1.67,2.88-1.82,6-1.69,9.11h2.17v-.22c0-.74-.09-1.47-.11-2.2a.89.89,0,0,1,.83-1,.92.92,0,0,1,.91.89c0,.29,0,.58.06.87,0,.55.07,1.09.1,1.65Zm12-34.54a2,2,0,0,1-1.81-1,2.35,2.35,0,0,1-.23-1.25c0-1.14,0-2.27,0-3.4a2.07,2.07,0,0,0-1.52-1.88,3.57,3.57,0,0,0-2,.15,10.85,10.85,0,0,1-4.84.31c-.72-.11-1.42-.36-2.14-.47a2.94,2.94,0,0,0-1.32.05,2.08,2.08,0,0,0-1.48,2.21c0,1.13,0,2.28,0,3.42a1.7,1.7,0,0,1-.91,1.54,7.3,7.3,0,0,1-1.09.39.37.37,0,0,0,0,.11c0,1.24,0,2.48.05,3.72a7.83,7.83,0,0,0,1.26,3.88,8.57,8.57,0,0,0,3,2.84,8.84,8.84,0,0,0,9-.19L48,29.8l0-.09c-.37,0-.73,0-1.1,0a2.38,2.38,0,0,1-2.3-2.49A2.41,2.41,0,0,1,47,24.93c.6,0,1.19,0,1.79,0a2.52,2.52,0,0,1,2.06.75C51.43,23.74,51.16,21.81,51.24,19.89ZM34.05,18.14c0-.15,0-.25,0-.34,0-1,0-2.08,0-3.11a4,4,0,0,1,5-4c.76.17,1.52.37,2.29.48a9.73,9.73,0,0,0,3.94-.35,5.36,5.36,0,0,1,2.32-.19,3.94,3.94,0,0,1,3.27,3.83c0,1.05,0,2.09,0,3.14,0,.18,0,.36,0,.58.54-.19,1-.38,1.55-.54.9-.31.93-.33,1-1.27v-.06c0-1.76,0-3.52,0-5.28a2,2,0,0,0-.9-1.63A2.51,2.51,0,0,0,51.24,9a1.81,1.81,0,0,1-1.72-1.66,5.21,5.21,0,0,0-.09-.69,2,2,0,0,0-2-1.54c-3.17,0-6.33,0-9.5,0a5.52,5.52,0,0,0-1,.09,6.56,6.56,0,0,0-5.42,6.19c0,1.71,0,3.44,0,5.15,0,.61.14.79.72,1l.27.1Zm8.47,40.08H63.33a1,1,0,0,0,.84-1.42,1,1,0,0,0-.91-.58h-41a4.41,4.41,0,0,0-.73,0,1,1,0,0,0-.32,1.81,1.55,1.55,0,0,0,.73.15ZM39.67,44.15l-.07,0c-.2.23-.43.43-.62.68a4.43,4.43,0,0,0,.1,5.62A7.77,7.77,0,0,1,41,54.27c0,.2.17.17.3.17h2.32c.44,0,.45,0,.52-.43a7.54,7.54,0,0,1,1.81-3.58,4.39,4.39,0,0,0,.85-4.31,4.33,4.33,0,0,0-1.39-2c0,.14,0,.24,0,.33,0,1,0,2,0,3a1.84,1.84,0,0,1-1.22,1.77,4.66,4.66,0,0,1-3.19,0,2,2,0,0,1-1.23-2C39.66,46.14,39.67,45.14,39.67,44.15Zm-1.46-8.62H46.8a8.38,8.38,0,0,1-.29-2.87,10.65,10.65,0,0,1-8,0A7.78,7.78,0,0,1,38.21,35.53ZM61.87,45.3c-.17,3.08-.33,6.1-.49,9.13h2.19C63.7,51.28,63.52,48.2,61.87,45.3ZM30,17.83a2,2,0,0,0,0,.24l0,3.45a1.37,1.37,0,0,0,.05.28,1,1,0,0,0,.76.77,9.31,9.31,0,0,0,1.31.08V19.52c0-.19-.09-.25-.24-.3a2.74,2.74,0,0,1-1.32-.78C30.3,18.26,30.16,18.05,30,17.83Zm25.07,0A3.13,3.13,0,0,1,53.3,19.2a.39.39,0,0,0-.31.46c0,.8,0,1.6,0,2.4v.57c.33,0,.62,0,.91,0a1.11,1.11,0,0,0,1.19-1.19c0-1,0-2,0-3,0-.21,0-.42,0-.63Zm-2.6,8.71c2.19.32,2.87-1.18,2.59-2.28-.54,0-1.07.09-1.6.11s-.51,0-.62.5-.25,1.11-.37,1.67ZM48,26.68H47a.65.65,0,0,0-.69.63A.62.62,0,0,0,47,28h2.17a.65.65,0,0,0,.66-.63v0a.63.63,0,0,0-.68-.61Z" transform="translate(-18.98)"/><path class="cls-3" d="M75.67,0l.77.17A3.45,3.45,0,0,1,79,3.47V5.11a.94.94,0,0,1-.89.94.89.89,0,0,1-.86-.9c0-.47,0-.94,0-1.41a1.76,1.76,0,0,0-2-2h-7.5c-2.19,0-4.38,0-6.56,0a3.36,3.36,0,0,0-.9.09,1.56,1.56,0,0,0-1.19,1.4,3.83,3.83,0,0,0,0,.47v7a1.67,1.67,0,0,0,.82,1.56,2.29,2.29,0,0,0,.94.24,2.36,2.36,0,0,1,2,1.34A2.78,2.78,0,0,1,63.13,15c0,1.09,0,2.18,0,3.27l.08,0,.6-1c.71-1.19,1.42-2.4,2.15-3.59A2.3,2.3,0,0,1,68,12.55h7.39a1.67,1.67,0,0,0,1.81-1.75c0-.47,0-.94,0-1.41a.88.88,0,1,1,1.76,0A15.45,15.45,0,0,1,79,11.32a3.43,3.43,0,0,1-3.39,3q-3.66,0-7.33,0a1,1,0,0,0-.91.53Q65.8,17.4,64.23,20a2.54,2.54,0,0,1-.75.78,1.37,1.37,0,0,1-2-.75,2.94,2.94,0,0,1-.12-.89c0-1.29,0-2.58,0-3.87,0-.75-.14-.91-.88-1a3.39,3.39,0,0,1-3.13-3.09c-.05-1,0-1.92,0-2.87,0-1.7,0-3.4,0-5.1a3.33,3.33,0,0,1,3-3.15c.1,0,.21,0,.31-.07Z" transform="translate(-18.98)"/><path class="cls-3" d="M68.19,8.5h6a.91.91,0,0,1,.93.86.89.89,0,0,1-.9.89h-12a.9.9,0,0,1-.86-.9.87.87,0,0,1,.88-.84c.76,0,1.52,0,2.28,0Z" transform="translate(-18.98)"/><path class="cls-3" d="M70.37,6.12c-1.29,0-2.58,0-3.87,0a.84.84,0,0,1-.85-.85.89.89,0,0,1,.09-.39.78.78,0,0,1,.71-.48l1.41,0H74a1.83,1.83,0,0,1,.57.08.86.86,0,0,1-.32,1.66H70.37Z" transform="translate(-18.98)"/><path class="cls-3" d="M62.62,6.11h-.55a.86.86,0,0,1-.78-.84A.81.81,0,0,1,62,4.4a7.88,7.88,0,0,1,1.19,0,.86.86,0,0,1,.77.88.88.88,0,0,1-.83.83Z" transform="translate(-18.98)"/></g></svg>