<svg xmlns="http://www.w3.org/2000/svg" width="90" height="90" viewBox="0 0 1024 1024"><path fill-rule="evenodd" clip-rule="evenodd" fill="#FBD178" d="M891.367 933.628h-44.86V596.846s-.759-8.235-10.619-8.994l-44.374-.758s-11.627-89.859-65.232-104.676H578.75l-1.518-49.304s69.404-36.03 91.781-127.432c0 0 27.686-7.585 31.857-42.477 0 0 .138-21.618-13.895-34.892l-.139-91.402S664.84 14.031 442.214 19.341c0 0-64.095 10.999-48.545 63.337 0 0-54.613-7.585-61.44 71.301l3.792 76.61s-37.926 46.27 21.239 75.852c0 0 6.827 66.75 88.367 124.776l2.6 50.221-150.262.8s-52.711 2.88-66.619 104.097l-41.502 1.408s-11.703 1.301-13.003 22.105l.65 323.779-44.861.65v15.604l46.812 54.613 666.413 1.301 46.161-55.264-.649-16.903z"/><path fill-rule="evenodd" clip-rule="evenodd" fill="#DFDFDF" d="M434.387 482.418l8.778 104.676 142.222.568 12.326-104.974z"/><path fill-rule="evenodd" clip-rule="evenodd" fill="#EEC06E" d="M514.275 532.859s42.352 4.534 63.243-50.204l-71.835-.119-59.971-.1c.983 4.449 11.546 45.403 68.563 50.423z"/><path fill-rule="evenodd" clip-rule="evenodd" fill="#545554" d="M686.8 141.2c-13.2-68.601-91.8-98-91.8-98-56-25.6-147.8-24.4-147.8-24.4-70.4 11.6-53.8 63.6-53.8 63.6C323 83.4 333 177 333 177l3.6 53.4c21.2-27.2 44-2 44-2l10.4-55.6c13.8-50 53.8-34.8 53.8-34.8 31.4 12.2 154 15 154 15 49.601 4.4 44 77 44 77 25-28.8 44.2-2.6 44.2-2.6-.8-16.6-.2-86.2-.2-86.2z"/><path fill-rule="evenodd" clip-rule="evenodd" fill="#CCCBCB" d="M891.921 932.961h-44.914V596.846s-.759-8.235-10.619-8.994l-44.374-.758-561.065-.759-41.502 1.408s-11.703 1.301-13.003 22.105l.65 323.208-45.146.05v16.775l47.097 56.03 668.563.134 44.411-55.514-.098-17.57z"/><path fill-rule="evenodd" clip-rule="evenodd" fill="#919191" d="M846.984 1006.046h.622l44.412-55.514-.096-17.473h-44.938zM131.947 933.106v16.776l45.77 54.451v-71.274h-2.394z"/><circle fill-rule="evenodd" clip-rule="evenodd" fill="#919191" cx="514.893" cy="795.24" r="59.781"/><path fill-rule="evenodd" clip-rule="evenodd" fill="#F06562" d="M791.894 587.024l-10.951-51.36c-11.965-50.753-59.022-53.707-59.022-53.707l-143.929.051c12.516 30.72-10.81 104.947-10.81 104.947l224.712.069zM444.103 482.008l-143.929-.051s-45.258 1.754-59.022 53.707l-10.951 51.36 224.711-.069s-23.325-74.227-10.809-104.947z"/><path fill-rule="evenodd" clip-rule="evenodd" fill="#EF4C4A" d="M599.609 481.986l-22.188.069s4.67 27.74 2.457 52.922c-2.335 26.551-11.559 52.116-11.559 52.116l56.889-.569 39.254-30.151-64.853-74.387zM441.846 540.098c-3.348-25.057 1.883-57.992 1.883-57.992l-19.907.081-64.854 74.187 39.253 30.151 56.889.569c.001 0-9.792-21.015-13.264-46.996z"/></svg>