<?xml version="1.0" encoding="UTF-8"?>
<svg id="Layer_2" data-name="Layer 2" xmlns="http://www.w3.org/2000/svg" viewBox="0 0 1682.48 837.29">
  <defs>
    <style>
      .cls-1 {
        fill: #fff;
      }

      .cls-2 {
        fill: #ffa42c;
      }
    </style>
  </defs>
  <g id="Layer_1-2" data-name="Layer 1">
    <g>
      <g>
        <g>
          <path class="cls-1" d="m667.94,181.11v20.6c-219.92,42.15-487.02,35.39-606.21,17.15v-37.73s.02-.02.02-.02h0c48.99,0,88.7-39.71,88.7-88.7V0s126.92,85.35,126.92,85.35v95.76h0c50.6,0,91.62-41.02,91.62-91.62V0s125.98,84.72,125.98,84.72l1.14.75v95.63h171.83Z"/>
          <path class="cls-1" d="m667.94,239.78v67.98l-171.83.22v83.91c-.1,1.73-.16,3.49-.16,5.26s.06,3.53.16,5.26c1.31,22.6,10.99,42.95,26.02,57.96,16.17,16.17,38.51,26.19,63.21,26.19h1.02v130.18c-32.2-.08-62.76-7.16-90.25-19.76-23.76-10.89-45.24-25.92-63.47-44.16-37.12-37.12-60.94-87.6-63.65-143.58v-83.12c0-10.02-8.12-18.14-18.14-18.14h-55.33c-10.02,0-18.14,8.12-18.14,18.14v70.01c0,83.83,33.98,159.72,88.9,214.66.9.9,1.79,1.79,2.71,2.67,35.18,34.31,78.65,60.15,127.13,74.22,26.92,7.83,55.39,12.01,84.82,12.01h5.43v132.9c-30.94,0-61.13-3.22-90.25-9.36-45.36-9.52-88.13-26.11-127.13-48.52-33.45-19.27-64.12-42.83-91.25-69.96-.12-.12-.24-.24-.37-.37-73.95-74.12-121.39-174.69-126.92-286.27v-110.14H61.75s-.02-.02-.02-.04v-45.2c143.69,28.49,432.52,12.38,606.21-22.97Z"/>
        </g>
        <g>
          <g>
            <path class="cls-2" d="m1088.49,68.77c-13.46,2.01-29.93,5.66-50.23,11.64-1.32.34-2.65.83-3.99,1.33-4.48,1.33-9.32,2.83-14.12,4.33-2.68.83-5.16,1.82-7.82,2.66,0,0-19.63,5.32-46.23,6.15-17.14.67-37.25-.5-56.87-6.48-49.57-14.8-79.66-47.73-143.35-11.81l110.94,72.2,21.29-7.76-17.05,10.52.07.04c-.82.5-1.83,1.07-2.74,1.6l-.55.35h-.04c-14.93,8.74-39.26,21.5-39.42,21.66-2.99,1.49-34.6,17.13-73.67,3.33-40.07-14.63-53.54,1.83-53.54,1.83l46.73,30.92,9.32,6.33h0s11.56,7.31,11.56,7.31c16.73-5.8,31.93-11.87,45.14-17.62h.17c35.41-12.81,85.8-30.94,134.19-48.23,27.6-9.98,54.55-19.62,77.67-27.78.5-.16,1-.34,1.49-.5,17.46-6.31,32.58-11.64,44.23-15.8,12.97-4.66,21.29-7.49,22.46-7.81,36.58-10.15,53.71-48.4-15.63-38.42Z"/>
            <path class="cls-2" d="m968.73,209.7s25.45-8.35,29.21-42.98c.67-6.45,2.12-12.66,3.97-18.52-.25.05-.37.1-.64.19l-74.46,33.92,24.29,15.88,17.62,11.52Z"/>
          </g>
          <g>
            <path class="cls-2" d="m90.81,252.37c-5.49-.44-10.96-1.34-16.28-2.68l.99-3.96c5.1,1.28,10.35,2.14,15.61,2.57l-.33,4.07Z"/>
            <path class="cls-2" d="m59.9,244.36c-5.03-2.2-9.91-4.84-14.52-7.85l2.23-3.42c4.42,2.88,9.11,5.42,13.92,7.53l-1.64,3.74Z"/>
            <path class="cls-2" d="m32.36,226.39c-4.05-3.72-7.81-7.79-11.19-12.12l3.21-2.51c3.24,4.15,6.86,8.06,10.74,11.62l-2.76,3Z"/>
            <path class="cls-2" d="m12.11,200.48c-2.63-4.83-4.87-9.9-6.66-15.08l3.86-1.33c1.72,4.97,3.86,9.84,6.38,14.47l-3.58,1.95Z"/>
            <path class="cls-2" d="m1.38,169.41c-.9-5.39-1.37-10.92-1.38-16.44h4.08c.01,5.29.46,10.59,1.33,15.76l-4.02.68Z"/>
            <path class="cls-2" d="m5.34,137.19l-4.03-.66c.89-5.42,2.23-10.81,4-16.01l3.86,1.31c-1.7,4.98-2.99,10.15-3.84,15.35Z"/>
            <path class="cls-2" d="m15.5,107.34l-3.59-1.94c2.61-4.83,5.63-9.48,9-13.83l3.22,2.5c-3.23,4.17-6.14,8.63-8.64,13.26Z"/>
            <path class="cls-2" d="m34.83,82.4l-2.77-2.99c4.03-3.73,8.4-7.16,12.98-10.17l2.24,3.41c-4.39,2.9-8.59,6.18-12.46,9.76Z"/>
            <path class="cls-2" d="m61.17,65.07l-1.65-3.73c5.02-2.22,10.27-4.04,15.59-5.4l1.01,3.95c-5.1,1.3-10.13,3.05-14.95,5.18Z"/>
            <path class="cls-2" d="m138.15,64.82c-4.83-2.1-9.87-3.81-14.99-5.09l.99-3.96c5.33,1.33,10.59,3.11,15.63,5.31l-1.63,3.74Z"/>
            <path class="cls-2" d="m91.72,57.25l-.34-4.07c5.44-.46,11.03-.48,16.49-.05l-.32,4.07c-5.24-.41-10.61-.39-15.83.05Z"/>
            <path class="cls-2" d="m231.62,257.51h-.22c-5.45,0-10.78-.02-15.98-.05l.03-4.08c5.19.03,10.52.05,15.95.05h.22v4.08Z"/>
            <path class="cls-2" d="m247.82,257.46l-.03-4.08c5.29-.03,10.69-.09,16.17-.16l.05,4.08c-5.5.07-10.9.13-16.2.16Z"/>
            <path class="cls-2" d="m199.22,257.3c-5.57-.07-10.98-.17-16.2-.27l.08-4.08c5.22.11,10.61.2,16.17.27l-.05,4.08Z"/>
            <path class="cls-2" d="m280.22,257.03l-.08-4.08c5.31-.1,10.7-.23,16.17-.37l.11,4.08c-5.48.14-10.88.27-16.2.37Z"/>
            <path class="cls-2" d="m166.82,256.64c-5.66-.15-11.06-.32-16.19-.5l.14-4.08c5.12.18,10.52.35,16.17.5l-.11,4.08Z"/>
            <path class="cls-2" d="m312.61,256.18l-.13-4.08c5.32-.17,10.71-.37,16.17-.58l.16,4.08c-5.46.21-10.86.41-16.19.58Z"/>
            <path class="cls-2" d="m134.36,255.51c-8.49-.25-16.29-.51-23.35-.76l.3-4.07c7.04.25,14.82.51,23.29.76l-.25,4.08Z"/>
            <path class="cls-2" d="m344.99,254.91l-.19-4.08c5.33-.24,10.72-.51,16.16-.79l.21,4.07c-5.45.29-10.84.55-16.18.8Z"/>
            <path class="cls-2" d="m377.35,253.21l-.24-4.07c5.34-.32,10.72-.65,16.14-1.01l.27,4.07c-5.43.36-10.82.7-16.17,1.01Z"/>
            <path class="cls-2" d="m409.68,251.07l-.3-4.07c5.34-.39,10.71-.8,16.13-1.23l.33,4.07c-5.42.44-10.81.85-16.16,1.24Z"/>
            <path class="cls-2" d="m441.98,248.48l-.35-4.06c5.34-.47,10.71-.95,16.11-1.46l.38,4.06c-5.41.51-10.79,1-16.14,1.47Z"/>
            <path class="cls-2" d="m474.24,245.43l-.41-4.06c5.34-.54,10.7-1.11,16.08-1.7l.44,4.06c-5.4.59-10.77,1.16-16.11,1.7Z"/>
            <path class="cls-2" d="m506.45,241.89l-.48-4.05c5.33-.63,10.68-1.27,16.05-1.95l.51,4.05c-5.38.67-10.74,1.32-16.08,1.95Z"/>
            <path class="cls-2" d="m537.62,238.86l-.54-4.04c5.32-.71,10.66-1.44,16.02-2.2l.57,4.04c-5.37.76-10.72,1.49-16.05,2.21Z"/>
            <path class="cls-2" d="m569.71,234.31l-.61-4.03c5.31-.8,10.64-1.62,15.98-2.47l.64,4.03c-5.35.85-10.69,1.67-16.01,2.47Z"/>
            <path class="cls-2" d="m601.71,229.23l-.68-4.02c5.3-.89,10.62-1.8,15.93-2.74l.71,4.02c-5.33.94-10.65,1.86-15.97,2.75Z"/>
            <path class="cls-2" d="m633.59,223.59l-.75-4.01c5.28-.98,10.56-1.99,15.85-3.03l.78,4c-5.3,1.04-10.59,2.05-15.88,3.03Z"/>
            <path class="cls-2" d="m665.33,217.37l-.82-4c5.26-1.08,10.53-2.19,15.79-3.33l.86,3.99c-5.28,1.14-10.56,2.26-15.83,3.34Z"/>
            <path class="cls-2" d="m696.96,210.53l-.9-3.98c5.24-1.19,10.49-2.41,15.73-3.65l.94,3.97c-5.25,1.25-10.51,2.47-15.77,3.66Z"/>
            <path class="cls-2" d="m728.47,203.04l-.99-3.96c5.22-1.3,10.44-2.63,15.66-3.99l1.03,3.95c-5.23,1.36-10.46,2.7-15.7,4Z"/>
          </g>
        </g>
      </g>
      <g>
        <g>
          <path class="cls-1" d="m656.13,473.74c1.67-8.61,2.72-14.64,3.14-18.11.42-3.47,1.17-8.72,2.24-15.78,16.25-3.82,30.6-6.51,43.03-8.07,12.43-1.55,24.44-2.33,36.04-2.33,13.15,0,25.22,1.52,36.22,4.57,11,3.05,19.6,7.92,25.82,14.61,6.21,6.7,9.32,16.31,9.32,28.87,0,6.81-.95,24.18-2.85,52.08-1.9,27.91-3.03,56.74-3.38,86.51-9.09-.24-17.47-.36-25.12-.36s-15.85.12-25.66.36c1.57-14.46,2.84-31.2,3.81-50.2l2.36-44.64c-4.55,2.99-8.01,5.08-10.41,6.27-2.39,1.2-5.08,2.3-8.08,3.32-2.99,1.02-8.25,2.57-15.79,4.66-7.54,2.09-13.58,3.92-18.12,5.47-4.55,1.55-8.65,3.32-12.29,5.29-3.65,1.97-6.73,4.19-9.24,6.63-2.51,2.45-4.34,5.02-5.47,7.71-1.14,2.69-1.7,5.59-1.7,8.7,0,5.02,1.46,9.35,4.39,13,2.93,3.65,6.6,6.18,11.03,7.62,4.42,1.43,9.62,2.15,15.6,2.15,3.82,0,7.86-.3,12.1-.9,4.24-.6,9.95-2.09,17.12-4.48-2.51,6.81-5.44,16.97-8.78,30.48-8.49,1.43-15.24,2.33-20.26,2.69-5.02.36-9.68.54-13.98.54-15.06,0-27.43-2.03-37.11-6.1-9.68-4.06-16.82-10.52-21.42-19.36-4.6-8.84-6.9-17.75-6.9-26.71,0-5.14.9-10.22,2.69-15.24,1.79-5.02,4.43-9.62,7.89-13.81,3.47-4.18,7.95-8.22,13.45-12.1,5.5-3.88,13.45-7.65,23.86-11.29,10.4-3.64,24.16-7.32,41.26-11.03,4.54-.95,9.27-2.12,14.17-3.5,4.9-1.37,8.82-2.72,11.75-4.03,2.93-1.31,5.47-3.02,7.62-5.11,2.15-2.09,3.74-4.27,4.75-6.54,1.02-2.27,1.53-4.6,1.53-6.99,0-4.66-1.53-8.61-4.57-11.83-3.05-3.23-7-5.47-11.84-6.72-4.85-1.25-10.2-1.88-16.06-1.88-21.77,0-45.81,5.2-72.13,15.6Z"/>
          <path class="cls-1" d="m857.64,616.09l2.15-29.58,5.38-116.54h-22.24c.36-3.59.75-9.41,1.17-17.48.42-8.07.69-13.95.81-17.66h24.38v-7.17c0-12.79.54-22.56,1.62-29.31,1.08-6.75,3.08-12.28,6.01-16.58,2.93-4.3,7.05-8.04,12.37-11.21,5.32-3.17,11.14-5.32,17.48-6.45,6.33-1.13,12.85-1.7,19.54-1.7,13.63,0,28.03,1.91,43.21,5.74.36,13.39,1.01,24.86,1.97,34.42-11.47-4.06-21.93-6.1-31.37-6.1-3.71,0-7.11.45-10.22,1.34-3.11.9-5.65,2.12-7.62,3.68-1.97,1.55-3.62,3.59-4.93,6.1-1.32,2.51-2.21,5.47-2.69,8.87-.48,3.41-.72,7.32-.72,11.74v6.63h45.72c-.72,8.25-1.43,19.96-2.15,35.14h-43.01c-2.32,47.57-4.08,96.28-5.3,146.12-10.86-.24-19.51-.36-25.95-.36s-15.1.12-25.6.36Z"/>
          <path class="cls-1" d="m1002.49,616.09l5.19-85.16,1.43-49.48c.24-10.16.36-20.38.36-30.66,0-1.79-.12-7.47-.36-17.03,11.12.24,19.31.36,24.57.36,6.1,0,14.17-.12,24.21-.36l-.9,25.28c4.54-6.45,8.43-11.26,11.65-14.43,3.23-3.17,6.84-5.89,10.85-8.16,4-2.27,8.45-4,13.36-5.2,4.9-1.19,9.92-1.79,15.06-1.79,4.78,0,9.68.6,14.7,1.79,0,11.12.54,25.22,1.61,42.31-7.05-1.91-13.45-2.87-19.19-2.87-6.93,0-13.06,1.05-18.38,3.14-5.32,2.09-10.1,5.26-14.34,9.5-4.24,4.24-7.74,9.47-10.49,15.69-2.27,5.02-3.94,11.54-5.02,19.54-.93,6.22-1.71,16.85-2.36,31.91-.64,15.06-.96,29.88-.96,44.46,0,5.62.18,12.67.54,21.16-9.1-.24-17.42-.36-24.96-.36s-16.28.12-26.57.36Z"/>
          <path class="cls-1" d="m1155.23,616.09c1.82-17.93,3.1-32.93,3.82-45,1.22-19.12,2.28-41.17,3.19-66.16.91-24.98,1.55-48.7,1.91-71.18,11.64.24,20.37.36,26.2.36,5.34,0,14.01-.12,26.02-.36-1.62,20.8-2.92,40.64-3.9,59.52-.98,18.89-1.7,40.52-2.16,64.9-.46,24.38-.69,43.69-.69,57.91-10.89-.24-19.63-.36-26.21-.36-6.22,0-15.61.12-28.18.36Zm9.82-213.53c.48-12.31.72-21.75.72-28.33v-5.74c10.87.24,19.72.36,26.53.36,9.32,0,17.99-.12,26-.36-.36,2.99-.6,6.4-.72,10.22l-.9,23.84c-9.09-.24-17.45-.36-25.1-.36s-16.49.12-26.53.36Z"/>
        </g>
        <g>
          <path class="cls-1" d="m631.57,832.85l5.36-87.88,1.48-51.06c.25-10.48.37-21.03.37-31.64,0-1.85-.13-7.71-.37-17.58,11.47.25,19.92.37,25.35.37,6.29,0,14.62-.12,24.98-.37l-.93,26.09c4.69-6.66,8.7-11.62,12.03-14.89,3.33-3.27,7.06-6.07,11.19-8.42,4.13-2.34,8.72-4.13,13.78-5.37,5.06-1.23,10.24-1.85,15.54-1.85,4.93,0,9.99.62,15.17,1.85,0,11.47.55,26.03,1.67,43.66-7.28-1.97-13.88-2.96-19.8-2.96-7.16,0-13.48,1.08-18.97,3.24-5.49,2.16-10.42,5.43-14.8,9.81-4.38,4.38-7.99,9.78-10.82,16.19-2.34,5.18-4.07,11.9-5.18,20.17-.96,6.41-1.77,17.39-2.43,32.93-.66,15.54-.99,30.84-.99,45.88,0,5.8.19,13.08.56,21.83-9.39-.25-17.97-.37-25.75-.37s-16.8.12-27.42.37Z"/>
          <path class="cls-1" d="m809.71,685.95c1.73-8.88,2.8-15.11,3.24-18.69.43-3.58,1.2-9,2.31-16.28,16.77-3.95,31.57-6.72,44.4-8.33,12.83-1.6,25.22-2.4,37.19-2.4,13.57,0,26.02,1.57,37.37,4.72,11.35,3.15,20.23,8.17,26.64,15.08,6.41,6.91,9.62,16.84,9.62,29.79,0,7.03-.98,24.95-2.94,53.75-1.96,28.8-3.12,58.56-3.49,89.27-9.38-.25-18.02-.37-25.92-.37s-16.36.12-26.48.37c1.62-14.92,2.93-32.19,3.93-51.8l2.43-46.07c-4.69,3.08-8.27,5.24-10.74,6.48-2.47,1.23-5.25,2.38-8.33,3.42-3.09,1.05-8.52,2.65-16.29,4.81-7.78,2.16-14.01,4.04-18.7,5.64-4.69,1.6-8.92,3.42-12.69,5.46-3.77,2.04-6.95,4.32-9.54,6.85-2.59,2.53-4.48,5.18-5.65,7.96-1.17,2.77-1.76,5.77-1.76,8.97,0,5.18,1.51,9.65,4.53,13.41,3.02,3.76,6.81,6.38,11.38,7.86,4.56,1.48,9.93,2.22,16.1,2.22,3.95,0,8.11-.31,12.49-.93,4.38-.62,10.27-2.16,17.67-4.63-2.59,7.03-5.61,17.52-9.07,31.45-8.76,1.48-15.73,2.41-20.91,2.78-5.18.37-9.99.56-14.43.56-15.54,0-28.31-2.1-38.3-6.29-9.99-4.19-17.36-10.85-22.11-19.98-4.75-9.13-7.12-18.32-7.12-27.57,0-5.3.93-10.55,2.78-15.73,1.85-5.18,4.57-9.93,8.15-14.25,3.58-4.32,8.21-8.48,13.88-12.49,5.68-4.01,13.88-7.89,24.62-11.66,10.74-3.76,24.93-7.55,42.58-11.38,4.69-.99,9.57-2.19,14.62-3.61,5.06-1.42,9.1-2.8,12.13-4.16,3.02-1.36,5.65-3.11,7.87-5.27,2.22-2.16,3.86-4.41,4.91-6.75,1.05-2.34,1.57-4.75,1.57-7.22,0-4.81-1.57-8.88-4.72-12.21-3.15-3.33-7.22-5.64-12.22-6.94-5-1.29-10.53-1.94-16.57-1.94-22.46,0-47.27,5.37-74.43,16.1Z"/>
          <path class="cls-1" d="m1063.58,832.85c-8.15-26.02-30.06-88.74-65.74-188.16,10.86.25,20.25.37,28.15.37,8.39,0,16.97-.12,25.74-.37l43.28,141.28,5.93-16.11,41.7-105.73c1.98-4.94,4.45-11.42,7.41-19.44,10.09.25,19.06.37,26.94.37s17.1-.12,27.31-.37l-30.13,65.31-43.63,98.98-9.8,23.87c-11.1-.25-20.42-.37-27.94-.37-7.9,0-17.64.12-29.24.37Z"/>
          <path class="cls-1" d="m1404.84,790.85c-1.6,7.28-3.89,20.35-6.85,39.22-13.32,2.84-24.55,4.75-33.67,5.74-9.13.99-18.32,1.48-27.57,1.48-16.16,0-30.62-1.6-43.39-4.8-12.77-3.2-23.96-9.09-33.58-17.65-9.62-8.56-16.71-19.07-21.28-31.51-4.56-12.44-6.85-25.51-6.85-39.19,0-15.15,2.65-29.85,7.96-44.08,5.3-14.23,12.73-25.88,22.29-34.94,9.56-9.06,20.44-15.47,32.65-19.22,12.21-3.76,24.98-5.64,38.3-5.64,12.58,0,24.54,1.57,35.89,4.71,11.35,3.14,20.87,8.28,28.58,15.42,7.71,7.14,13.63,15.73,17.76,25.76,4.13,10.03,6.2,21.21,6.2,33.52,0,5.79-.62,11.76-1.85,17.91l-135.61.19c-.25,4.56-.37,8.2-.37,10.92,0,8.26,1.42,15.85,4.26,22.76,2.84,6.91,6.97,12.77,12.4,17.58,5.43,4.81,11.9,8.36,19.43,10.64,7.52,2.28,14.92,3.42,22.2,3.42,8.51,0,17.73-.93,27.66-2.78,9.93-1.85,21.74-5,35.43-9.44Zm-119.52-74.75l86.59.18c0-5.9-.19-10.26-.55-13.08-.37-2.82-1.2-6.05-2.5-9.67-1.3-3.62-3.05-6.82-5.27-9.58-2.22-2.76-4.81-5.06-7.77-6.91-2.96-1.84-6.38-3.26-10.27-4.24-3.89-.98-8.05-1.47-12.49-1.47-5.18,0-10.21.8-15.08,2.4-4.87,1.6-9.34,3.93-13.41,7-4.07,3.07-7.37,6.51-9.9,10.32-2.53,3.81-4.41,7.46-5.64,10.97-1.23,3.5-2.47,8.2-3.7,14.09Z"/>
          <path class="cls-1" d="m1448.66,832.85c1.84-20.84,4.08-58.31,6.72-112.4,2.64-54.08,4.27-100.8,4.88-140.15,12.84.25,21.98.37,27.41.37,7.28,0,16.17-.12,26.67-.37l-4.42,67.53-6.44,150.6-.74,34.41c-10.12-.25-18.71-.37-25.74-.37-2.35,0-11.79.12-28.34.37Z"/>
          <path class="cls-1" d="m1545.76,829.33l-4.07-40.7c12.09,4.93,22.32,8.36,30.71,10.27,8.39,1.91,16.1,2.87,23.13,2.87s12.95-.83,17.76-2.5c4.81-1.66,8.39-4.13,10.73-7.4,2.34-3.27,3.52-6.69,3.52-10.27,0-1.6-.16-3.08-.46-4.44-.31-1.36-.86-2.78-1.66-4.26-.8-1.48-1.73-2.87-2.78-4.16-1.05-1.3-2.5-2.78-4.35-4.44-1.85-1.67-4.5-3.79-7.96-6.38l-9.99-7.96c-9.62-7.52-16.96-13.44-22.02-17.76-5.06-4.32-9.31-8.72-12.76-13.23-3.45-4.5-6.08-9.25-7.86-14.25-1.79-5-2.68-10.08-2.68-15.26,0-9,2.74-17.58,8.23-25.72,5.49-8.14,13.47-14.09,23.96-17.85,10.48-3.76,22.82-5.64,37-5.64,16.16,0,34.78,1.91,55.87,5.74l2.41,38.67c-14.31-5.8-28.06-8.7-41.26-8.7-7.16,0-13.41.71-18.78,2.13-5.37,1.42-9.22,3.58-11.56,6.48-2.34,2.9-3.51,6.14-3.51,9.71,0,2.1.37,4.16,1.11,6.2.74,2.04,2.04,4.16,3.89,6.38,1.85,2.22,3.98,4.32,6.38,6.29,2.41,1.97,7.43,5.86,15.08,11.66,7.65,5.8,14.34,11.04,20.07,15.73,5.74,4.69,10.45,9.41,14.15,14.15,3.7,4.75,6.54,9.84,8.51,15.26,1.97,5.43,2.96,10.92,2.96,16.47,0,9.25-2.84,17.83-8.51,25.72-5.68,7.89-14.25,14.06-25.72,18.5-11.47,4.44-24.3,6.66-38.48,6.66-7.4,0-16.4-.59-27.01-1.76-10.61-1.17-21.96-3.24-34.04-6.2Z"/>
        </g>
      </g>
    </g>
  </g>
</svg>