<svg id="svg31911" xmlns="http://www.w3.org/2000/svg" xmlns:xlink="http://www.w3.org/1999/xlink" viewBox="0 0 60 60"><defs><style>.cls-1{fill:none;}.cls-2{clip-path:url(#clip-path);}.cls-3{fill:#da3544;}</style><clipPath id="clip-path" transform="translate(-19 0)"><rect class="cls-1" width="98" height="60"/></clipPath></defs><g class="cls-2"><path class="cls-3" d="M22.84,30a26.14,26.14,0,0,0,21,25.66c1.72.34,3.5.37,5.25.55a1.9,1.9,0,1,1-.19,3.8,27.79,27.79,0,0,1-10.21-1.84C29,54.36,22.57,47.45,20,37.34A30,30,0,1,1,78.41,24.05,48.36,48.36,0,0,1,79,29.83a1.9,1.9,0,1,1-3.8.14,25.69,25.69,0,0,0-1.56-8.77c-3.87-9.85-11-15.8-21.55-17.11A25.85,25.85,0,0,0,23.7,23.45c-.56,2.12-.72,4.34-1.07,6.52Z" transform="translate(-19 0)"/><path class="cls-3" d="M47.11,30.67V10.09c0-1.52.69-2.4,1.88-2.42s1.93.89,1.93,2.44V32.05c0,1.79-.64,2.42-2.41,2.42H36.73a3.57,3.57,0,0,1-1.12-.12A1.88,1.88,0,0,1,34.44,32a1.91,1.91,0,0,1,1.82-1.28H47.11Z" transform="translate(-19 0)"/><path class="cls-3" d="M62.62,48l5-6.67c.35-.47.69-.94,1.06-1.38a1.9,1.9,0,0,1,2.68-.38,1.86,1.86,0,0,1,.42,2.59l-.06.09q-3.6,4.83-7.26,9.6a1.84,1.84,0,0,1-2.68.35c-1.94-1.43-3.86-2.89-5.76-4.36a1.88,1.88,0,0,1-.46-2.71,1.93,1.93,0,0,1,2.79-.31C59.79,45.87,61.17,46.93,62.62,48Z" transform="translate(-19 0)"/></g></svg>