<svg id="svg31911" xmlns="http://www.w3.org/2000/svg" xmlns:xlink="http://www.w3.org/1999/xlink" viewBox="0 0 62.26 60"><defs><style>.cls-1{fill:none;}.cls-2{clip-path:url(#clip-path);}.cls-3{fill:#da3544;}</style><clipPath id="clip-path" transform="translate(-17.87)"><rect class="cls-1" width="98" height="60"/></clipPath></defs><g class="cls-2"><path class="cls-3" d="M53.77,53.27a17.58,17.58,0,0,1-9.57,0L43,55.38,40.76,59.2c-.59,1-1.35,1.07-2.1.14s-1.52-1.81-2.23-2.76a.93.93,0,0,0-1-.38c-1.45.24-2.91.45-4.35.7a1.13,1.13,0,0,1-1.3-.42,1.21,1.21,0,0,1,.07-1.38C31.41,52.39,33,49.66,34.56,47a.83.83,0,0,0,0-1A17.13,17.13,0,1,1,66,34.69,16.85,16.85,0,0,1,63.44,46a.77.77,0,0,0,0,.94c1.58,2.69,3.13,5.4,4.69,8.09a1.25,1.25,0,0,1,.11,1.49,1.23,1.23,0,0,1-1.39.37c-1.4-.24-2.81-.43-4.21-.68a1,1,0,0,0-1.08.42c-.71.94-1.47,1.84-2.22,2.75s-1.49.83-2.07-.15Q55.6,56.4,54,53.56C53.91,53.46,53.84,53.38,53.77,53.27ZM49,21.79a15,15,0,1,0,15,15h0a15,15,0,0,0-14.91-15ZM39.54,57.05l2.61-4.53a18.2,18.2,0,0,1-5.89-4.24l-3.59,6.21c1.21-.19,2.26-.33,3.31-.53a1.42,1.42,0,0,1,1.52.57c.63.82,1.3,1.62,2,2.52Zm16.3-4.53,2.61,4.53c.69-.84,1.36-1.61,2-2.42A1.53,1.53,0,0,1,62.15,54c1,.21,2,.32,3.17.5l-3.57-6.22a17.88,17.88,0,0,1-5.92,4.26Z" transform="translate(-17.87)"/><path class="cls-3" d="M67.36,25.7a1.08,1.08,0,0,1-1.17-1.32c.21-1.25.43-2.5.68-3.75a1.09,1.09,0,0,0-.37-1.17c-.9-.8-1.74-1.66-2.62-2.48a1.13,1.13,0,0,1,.67-2.07c1.21-.16,2.42-.33,3.64-.48a1,1,0,0,0,.89-.65c.48-1.07,1-2.12,1.53-3.19.23-.51.5-.95,1.15-.95s.89.48,1.13,1c.51,1.07,1,2.11,1.52,3.19a1,1,0,0,0,1,.66c1.24.13,2.47.33,3.71.49a1.09,1.09,0,0,1,.62,1.95c-1,.91-1.92,1.81-2.83,2.74a1.07,1.07,0,0,0-.25.8c.19,1.28.44,2.54.68,3.81.1.5,0,1-.43,1.22a1.74,1.74,0,0,1-1.23,0c-1.13-.54-2.21-1.15-3.29-1.76a1,1,0,0,0-1.16,0c-1,.61-2.14,1.18-3.22,1.75A6.5,6.5,0,0,1,67.36,25.7Zm-.42-8.93c.57.63,1.08,1.23,1.66,1.79a1.54,1.54,0,0,1,.51,1.61c-.19.78-.29,1.59-.44,2.49.77-.41,1.46-.72,2.09-1.13a1.68,1.68,0,0,1,2,0c.63.4,1.32.71,2.08,1.12-.16-.93-.27-1.77-.46-2.59a1.46,1.46,0,0,1,.5-1.49c.58-.57,1.11-1.19,1.67-1.8-.7-.1-1.44-.25-2.18-.3a1.62,1.62,0,0,1-1.56-1.13c-.3-.72-.66-1.37-1-2.18-.44.9-.84,1.66-1.2,2.45a1.36,1.36,0,0,1-1.18.83C68.56,16.55,67.75,16.67,66.94,16.77Z" transform="translate(-17.87)"/><path class="cls-3" d="M44.57,16.06a1.08,1.08,0,0,1-1.18-1.32c.21-1.25.43-2.5.68-3.75a1.09,1.09,0,0,0-.37-1.17C42.81,9,42,8.16,41.08,7.33a1.12,1.12,0,0,1,.67-2.06l3.64-.48a1,1,0,0,0,.89-.65c.48-1.07,1-2.12,1.53-3.19.24-.51.5-1,1.15-.95s.89.48,1.13,1c.51,1.07,1,2.11,1.52,3.19a1,1,0,0,0,1,.65c1.24.14,2.47.34,3.7.5a1.08,1.08,0,0,1,1,.76,1.1,1.1,0,0,1-.38,1.19C56,8.18,55,9.07,54.07,10a1.06,1.06,0,0,0-.25.8c.2,1.27.45,2.54.68,3.81.1.5.06,1-.42,1.22a1.76,1.76,0,0,1-1.24,0c-1.13-.54-2.21-1.15-3.29-1.77a1,1,0,0,0-1.15,0c-1.06.61-2.15,1.17-3.23,1.74A5.18,5.18,0,0,1,44.57,16.06Zm-.43-8.93c.57.62,1.09,1.23,1.66,1.79a1.5,1.5,0,0,1,.51,1.6c-.19.79-.28,1.6-.44,2.49.77-.4,1.46-.71,2.1-1.12a1.68,1.68,0,0,1,2,0c.64.4,1.32.72,2.08,1.13-.16-.94-.27-1.77-.46-2.59A1.48,1.48,0,0,1,52.07,9c.58-.57,1.11-1.19,1.68-1.81-.71-.1-1.44-.25-2.19-.29A1.66,1.66,0,0,1,50,5.72c-.3-.72-.66-1.38-1-2.18-.44.89-.84,1.66-1.2,2.44a1.35,1.35,0,0,1-1.18.84l-2.44.32Z" transform="translate(-17.87)"/><path class="cls-3" d="M31.85,24.54a1.07,1.07,0,0,1-1.65,1c-1.13-.58-2.25-1.18-3.35-1.8a1,1,0,0,0-1.15,0c-1.07.62-2.19,1.18-3.28,1.78a1.16,1.16,0,0,1-1.32,0,1.13,1.13,0,0,1-.38-1.25c.24-1.26.49-2.53.67-3.8a1.14,1.14,0,0,0-.3-.85c-.89-.91-1.81-1.78-2.73-2.65a1.13,1.13,0,0,1-.44-1.24A1.11,1.11,0,0,1,19,14.94c1.21-.16,2.42-.34,3.64-.49a1.07,1.07,0,0,0,1-.7c.49-1.12,1.06-2.2,1.58-3.31a1.11,1.11,0,0,1,1.05-.79,1.15,1.15,0,0,1,1.05.79c.55,1.14,1.12,2.27,1.64,3.43a1,1,0,0,0,.86.6c1.25.14,2.51.34,3.76.5.49.06.94.26,1,.75a1.74,1.74,0,0,1-.36,1.18c-.86.92-1.79,1.79-2.74,2.64a1,1,0,0,0-.32,1.06C31.38,21.93,31.61,23.26,31.85,24.54Zm-2.54-1.87c-.14-.85-.21-1.6-.4-2.31a1.74,1.74,0,0,1,.63-1.95c.55-.48,1-1.07,1.53-1.62a16.11,16.11,0,0,0-2-.28,1.83,1.83,0,0,1-1.83-1.36c-.25-.64-.59-1.25-.95-2-.41.85-.77,1.54-1.08,2.25a1.58,1.58,0,0,1-1.47,1.06c-.76.05-1.52.2-2.18.29.57.63,1.12,1.29,1.72,1.91A1.35,1.35,0,0,1,23.65,20c-.18.85-.31,1.7-.47,2.65.85-.45,1.61-.84,2.37-1.27a1.32,1.32,0,0,1,1.38,0C27.68,21.81,28.45,22.2,29.31,22.67Z" transform="translate(-17.87)"/><path class="cls-3" d="M59.55,36.81A10.54,10.54,0,1,1,49,26.24,10.54,10.54,0,0,1,59.55,36.81ZM49,28.39a8.4,8.4,0,1,0,8.39,8.4h0A8.42,8.42,0,0,0,49,28.39Z" transform="translate(-17.87)"/><path class="cls-3" d="M47.29,38.92l4.6-4.6a4.16,4.16,0,0,1,.48-.46,1,1,0,0,1,1.49,1.46,6.78,6.78,0,0,1-.69.73L48,41.2c-.8.8-1.47.71-2-.26s-1.23-2.12-1.83-3.19c-.42-.73-.3-1.34.3-1.66s1.13-.1,1.54.6S46.83,38.12,47.29,38.92Z" transform="translate(-17.87)"/></g></svg>