<svg id="svg31911" xmlns="http://www.w3.org/2000/svg" xmlns:xlink="http://www.w3.org/1999/xlink" viewBox="0 0 52.52 60"><defs><style>.cls-1{fill:none;}.cls-2{clip-path:url(#clip-path);}.cls-3{fill:#da3544;}</style><clipPath id="clip-path" transform="translate(-22.74)"><rect class="cls-1" width="98" height="60"/></clipPath></defs><g class="cls-2"><path class="cls-3" d="M52.25,51.16a6.9,6.9,0,0,0-1.7-3.49L39.84,35.47c-1-1.16-.83-2.13.53-2.87a4.32,4.32,0,0,1,4.76.18c1.28.84,2.59,1.64,3.89,2.45.17.11.36.2.59.33.74-5.81-.41-11.42-.87-17.18h-6.2a2.73,2.73,0,0,1-3-2.94V2.91A2.72,2.72,0,0,1,42.45,0H55a2.69,2.69,0,0,1,2.87,2.83q0,6.33,0,12.66a2.74,2.74,0,0,1-2.83,2.89h-.51c.09.54.16,1,.24,1.53s.17,1,.27,1.51c2.57-.82,3.46-.62,4.44,1,1.69-.64,3.34-1,4.45.92.65-.15,1.25-.34,1.88-.44a2.28,2.28,0,0,1,2.68,1.82c.74,4.25,1.62,8.49,1.5,12.85a16,16,0,0,1-1.23,5.58,24.31,24.31,0,0,0-1.09,3.32,8.13,8.13,0,0,0,0,2c.11.07.15.11.18.1,1.44-.17,1.83.47,2,1.7.29,1.89.62,3.78.93,5.66.13.82,0,1.05-.82,1.18L59.85,58.8,53.3,59.9c-1.26.22-1.38.15-1.59-1.09-.31-1.78-.6-3.57-.91-5.35C50.55,52,50.8,51.55,52.25,51.16Zm14-2.3a9.31,9.31,0,0,1,0-2.06,38.72,38.72,0,0,1,1.24-4.14,15.62,15.62,0,0,0,1.11-4.5c.25-4.46-.72-8.77-1.45-13.11,0-.27-.37-.69-.57-.69a4.5,4.5,0,0,0-1.83.27c-.55.24-.42.85-.34,1.36.17,1,.33,2,.47,3a.59.59,0,0,1-.55.72.61.61,0,0,1-.74-.44.64.64,0,0,0,0-.07c0-.21-.08-.42-.12-.63-.22-1.37-.44-2.73-.68-4.1-.19-1.07-.58-1.3-1.85-1.07-.89.16-1.17.61-1,1.57.21,1.24.42,2.48.6,3.72.1.63-.31,1-.82.83a1,1,0,0,1-.49-.65c-.33-1.8-.61-3.6-.92-5.41-.17-1-.61-1.26-1.77-1.05-1,.18-1.25.59-1.08,1.57.26,1.49.49,3,.75,4.47.09.49,0,.89-.53,1s-.73-.27-.81-.76c-.36-2.22-.75-4.45-1.12-6.67l-1.05-6.3c-.14-.83-.54-1.1-1.4-1a4.62,4.62,0,0,0-.63.11A1,1,0,0,0,49.83,16c.26,2.56.55,5.13.8,7.69a53.69,53.69,0,0,1,.56,8.21c0,1.06-.09,2.13-.11,3.19a1.61,1.61,0,0,1-2.64,1.41c-1.42-.91-2.84-1.8-4.27-2.69a2.91,2.91,0,0,0-3.62.35c.11.14.21.29.33.43,2.75,3.14,5.54,6.26,8.25,9.43,1.8,2.09,4.06,3.91,4.46,7ZM48.56,17c0-.3,0-.53-.05-.76-.14-1.7.64-2.6,2.56-2.92a2.4,2.4,0,0,1,3,2c.11.54.2,1.08.3,1.59,1.71.18,2.22-.29,2.22-1.89V3.23c0-1.39-.45-1.85-1.82-1.85h-12c-1.44,0-1.86.42-1.86,1.86V15.13c0,.22,0,.43,0,.64A1.26,1.26,0,0,0,42.22,17C44.3,17,46.39,17,48.56,17ZM68.42,49.88,52.05,52.63c.34,2,.66,3.94,1,5.92L69.41,55.8C69.08,53.81,68.76,51.89,68.42,49.88Z" transform="translate(-22.74)"/><path class="cls-3" d="M75.25,11.78v4.28a2.09,2.09,0,0,1-2.34,2.32H64.29a2.09,2.09,0,0,1-2.3-2.3c0-2.9,0-5.79,0-8.69A2.1,2.1,0,0,1,64.3,5.1h8.63a2.1,2.1,0,0,1,2.32,2.34C75.26,8.89,75.25,10.34,75.25,11.78Zm-1.36,0V7.39c0-.72-.19-.9-.92-.9H64.28c-.7,0-.91.2-.91.91v8.69c0,.7.21.91.93.91H73c.73,0,.9-.18.91-.92V11.8Z" transform="translate(-22.74)"/><path class="cls-3" d="M36,18.54V23a2,2,0,0,1-2.22,2.22H25A2,2,0,0,1,22.75,23q0-4.44,0-8.88A2.06,2.06,0,0,1,25,11.91h8.88A2,2,0,0,1,36,14.13C36,15.6,36,17.08,36,18.54Zm-11.89,0V22.8c0,.81.17,1,.95,1H33.7c.77,0,.94-.17.94-.95V14.23c0-.76-.2-1-1-1H25.06c-.73,0-.94.22-.94,1C24.11,15.66,24.12,17.09,24.12,18.52Z" transform="translate(-22.74)"/><path class="cls-3" d="M47.88,10l4.61-4.62c.15-.15.3-.37.47-.4a1.06,1.06,0,0,1,.8.09,1.1,1.1,0,0,1,.11.8c0,.16-.23.29-.37.43L48.66,11.1c-.64.64-.87.64-1.52,0-.85-.85-1.71-1.72-2.58-2.57-.34-.35-.53-.71-.12-1.1s.77-.19,1.11.15C46.3,8.36,47.06,9.13,47.88,10Z" transform="translate(-22.74)"/><path class="cls-3" d="M66.28,11.76A2.36,2.36,0,0,1,68.6,9.37a2.38,2.38,0,1,1-2.32,2.45v-.06Zm3.35,0a1,1,0,0,0-1-1,1,1,0,0,0,0,2,1,1,0,0,0,1-1Z" transform="translate(-22.74)"/><path class="cls-3" d="M27,18.54a2.33,2.33,0,0,1,2.31-2.36h0a2.37,2.37,0,0,1,2.36,2.34,2.4,2.4,0,0,1-2.39,2.41A2.37,2.37,0,0,1,27,18.54Zm3.34,0a1,1,0,0,0-2-.11v.07a1,1,0,0,0,2,.11Z" transform="translate(-22.74)"/></g></svg>