<svg id="svg31911" xmlns="http://www.w3.org/2000/svg" xmlns:xlink="http://www.w3.org/1999/xlink" viewBox="0 0 52.37 60"><defs><style>.cls-1{fill:none;}.cls-2{clip-path:url(#clip-path);}.cls-3{fill:#da3544;}</style><clipPath id="clip-path" transform="translate(-22.81 0)"><rect class="cls-1" width="98" height="60"/></clipPath></defs><g class="cls-2"><path class="cls-3" d="M56,53.52c-.53.22-1,.45-1.52.62a.64.64,0,0,0-.52.73c0,1.36,0,2.72,0,4.08,0,.88-.18,1-1.05,1H45.06c-.8,0-1-.18-1-1,0-1.4,0-2.8,0-4.19a.56.56,0,0,0-.45-.64c-.52-.18-1-.42-1.58-.65l-3.21,3.21c-.68.68-.88.68-1.57,0L31.85,51.3c-.68-.68-.68-.87,0-1.56l3.19-3.16c-.25-.63-.46-1.23-.74-1.8a.74.74,0,0,0-.57-.26c-1.4,0-2.79,0-4.19,0-.76,0-1-.2-1-.95v-8c0-.7.2-.9.89-.91,1.42,0,2.84,0,4.25,0,.38,0,.62-.09.68-.48a.51.51,0,0,1,.07-.17c.78-1.06.36-1.82-.55-2.56a30.29,30.29,0,0,1-2.21-2.18c-.49-.5-.49-.78,0-1.28q2.85-2.87,5.72-5.72c.48-.48.78-.47,1.27,0,1,1,2,2,3,3a.53.53,0,0,0,.73.13c.51-.26,1.26-.34,1.51-.74s.09-1.16.09-1.75V20c0-.66.24-.89.91-.9h8c.72,0,.94.22.94.93,0,1.42,0,2.84,0,4.26,0,.34.08.57.45.65a2.92,2.92,0,0,1,.56.21c1,.43,1,.43,1.86-.39l2.5-2.5c.52-.51.81-.51,1.32,0,1.89,1.89,3.79,3.78,5.67,5.68.51.5.5.8,0,1.32-1,1-2,2-3,3-.25.24-.34.46-.13.77a.86.86,0,0,1,.15.32c.18,1.09.84,1.37,1.89,1.28a30.08,30.08,0,0,1,3.29,0c.76,0,1,.22,1,1v8c0,.72-.23,1-1,1-1.42,0-2.84,0-4.26,0a.53.53,0,0,0-.6.42c-.18.56-.63,1.16-.53,1.64s.74.84,1.15,1.25c.69.7,1.39,1.38,2.07,2.08.48.49.48.79,0,1.28-1.88,1.89-3.78,3.78-5.67,5.67-.53.53-.81.52-1.36,0C58.19,55.72,57.09,54.61,56,53.52Zm-22.88-3.1,5,5.07c1-1,2.05-2,3.08-3.09a.91.91,0,0,1,1.27-.21,8.61,8.61,0,0,0,1.19.56c1.74.71,1.74.71,1.74,2.57v3.29h7.15c0-1.52,0-3,0-4.47a1,1,0,0,1,.76-1,19.27,19.27,0,0,0,2.2-.92.92.92,0,0,1,1.23.18c.43.47.91.9,1.35,1.36l1.68,1.79,5.13-5.1c-1-1-2-2-3.09-3.08a.92.92,0,0,1-.23-1.22,24.44,24.44,0,0,0,1-2.31.87.87,0,0,1,.93-.67h4.56V36h-4.5a.9.9,0,0,1-1-.68q-.45-1.2-1-2.37a.83.83,0,0,1,.18-1.07c.49-.47,1-1,1.45-1.44s1.24-1.16,1.81-1.7l-5.16-5.13c-1,1-2.08,2.08-3.12,3.16a.9.9,0,0,1-1.22.18,17.46,17.46,0,0,0-2.15-.9,1,1,0,0,1-.82-1.13c0-1.45,0-2.91,0-4.4H45.44v.68c0,1.24,0,2.48,0,3.71a1,1,0,0,1-.86,1.16,6.48,6.48,0,0,0-1.23.46c-1.62.7-1.61.7-2.85-.53l-2.36-2.37-5.08,5.05c1,1,2.09,2.09,3.16,3.13A.91.91,0,0,1,36.42,33a20.61,20.61,0,0,0-.94,2.28,1,1,0,0,1-1.06.75c-1.27,0-2.55,0-3.83,0L30,36v7.11h4.46a1,1,0,0,1,1.06.75A17.24,17.24,0,0,0,36.32,46c.37.81.38.89-.24,1.51Z" transform="translate(-22.81 0)"/><path class="cls-3" d="M32.9,9.52v13.7c0,1-.19,1.15-1.16,1.15H27c-1,0-1.16-.16-1.16-1.19V9.52c-.76,0-1.47,0-2.18,0a1.13,1.13,0,0,1-.81-.42c-.11-.18,0-.62.18-.85Q25.83,4.34,28.67.49c.47-.66.92-.65,1.41,0q2.81,3.84,5.59,7.7a1.11,1.11,0,0,1,.19.91c-.1.23-.53.37-.83.4C34.35,9.56,33.65,9.52,32.9,9.52ZM24.77,8.14h.8c1.64,0,1.64,0,1.64,1.67V22.94h4.3V9.18c0-.83.2-1,1-1H34l-4.59-6.3Z" transform="translate(-22.81 0)"/><path class="cls-3" d="M65.15,9.52c-.78,0-1.47,0-2.16,0a1.2,1.2,0,0,1-.84-.4,1,1,0,0,1,.17-.85C64.19,5.64,66.09,3.05,68,.46c.44-.61.91-.61,1.34,0,1.91,2.61,3.82,5.22,5.7,7.85a1,1,0,0,1,.12.86,1,1,0,0,1-.74.35c-.71.05-1.43,0-2.22,0V23.08c0,1.18-.11,1.29-1.31,1.29H66.13c-.78,0-1-.21-1-1V9.52ZM70.8,23V9.17c0-.82.19-1,1-1h1.42l-4.59-6.3-4.59,6.3h1.36c.91,0,1.07.16,1.07,1.1V23Z" transform="translate(-22.81 0)"/><path class="cls-3" d="M40.82,11.43a7.58,7.58,0,0,1-1.26,0,1.08,1.08,0,0,1-.73-.38.91.91,0,0,1,.11-.8c1.28-1.79,2.57-3.56,3.87-5.33.4-.54.85-.54,1.26,0,1.3,1.77,2.59,3.54,3.86,5.33A.93.93,0,0,1,48,11a1.1,1.1,0,0,1-.73.37,7.44,7.44,0,0,1-1.25,0v5.18c0,.73-.22.94-.92.94H41.73c-.67,0-.89-.22-.89-.9C40.82,14.94,40.82,13.23,40.82,11.43Zm3.83,4.75c0-.16,0-.26,0-.36V11c0-.68.21-.89.88-.93l.53-.06L43.43,6.34,40.79,10a1.5,1.5,0,0,0,.29.06c1,.07,1.1.14,1.1,1.19v4.31c0,.21,0,.42,0,.64Z" transform="translate(-22.81 0)"/><path class="cls-3" d="M52,11.43c-.52,0-.94,0-1.35,0-.67,0-1-.59-.58-1.14q2-2.74,4-5.46a.64.64,0,0,1,1.11,0q2,2.73,4,5.52c.37.51.06,1.05-.58,1.09-.43,0-.87,0-1.36,0,0,1.48,0,2.9,0,4.31,0,2-.06,1.84-1.85,1.82H53c-.8,0-1-.2-1-1V11.43Zm3.85,4.75V11.59c0-1.39,0-1.39,1.41-1.62L54.6,6.34c-.92,1.25-1.77,2.43-2.67,3.65a2.47,2.47,0,0,0,.34,0c.95,0,1.07.16,1.07,1.09v5Z" transform="translate(-22.81 0)"/><path class="cls-3" d="M49,28.52A11.05,11.05,0,1,1,38,39.56v-.07A11.05,11.05,0,0,1,49,28.52Zm-9.68,11a9.62,9.62,0,1,0,0-.07Z" transform="translate(-22.81 0)"/><path class="cls-3" d="M43.05,39.57l2,1.34c.17.11.34.22.5.34a.64.64,0,0,1,.18.94.61.61,0,0,1-.83.23l-.06,0c-1.16-.75-2.32-1.49-3.45-2.27a.64.64,0,0,1-.24-.87.59.59,0,0,1,.24-.23c1.13-.78,2.29-1.53,3.45-2.27a.6.6,0,0,1,.85.12.35.35,0,0,1,.07.12.65.65,0,0,1-.25.93C44.74,38.46,43.92,39,43.05,39.57Z" transform="translate(-22.81 0)"/><path class="cls-3" d="M55,39.57c-.84-.56-1.64-1.07-2.41-1.6-.49-.33-.62-.79-.26-1.07a.93.93,0,0,1,.84-.13c1.16.7,2.29,1.45,3.41,2.21a.66.66,0,0,1,0,1.18c-1.1.75-2.22,1.48-3.35,2.19a.68.68,0,1,1-.72-1.14Z" transform="translate(-22.81 0)"/><path class="cls-3" d="M50.25,42.61a3.36,3.36,0,0,1-.57-.55c-.85-1.42-1.67-2.85-2.49-4.29-.23-.4-.23-.78.21-1s.75,0,1,.37c.81,1.41,1.64,2.82,2.43,4.24a1.13,1.13,0,0,1,0,.83C50.8,42.34,50.51,42.44,50.25,42.61Z" transform="translate(-22.81 0)"/></g></svg>