<svg id="svg31911" xmlns="http://www.w3.org/2000/svg" xmlns:xlink="http://www.w3.org/1999/xlink" viewBox="0 0 60 60"><defs><style>.cls-1{fill:none;}.cls-2{clip-path:url(#clip-path);}.cls-3{fill:#da3544;}</style><clipPath id="clip-path" transform="translate(-19)"><rect class="cls-1" width="98" height="60"/></clipPath></defs><g class="cls-2"><path class="cls-3" d="M79,30.35a35.39,35.39,0,0,1-7,9.12,34.17,34.17,0,0,1-17.89,8.82c-13.35,2.3-28.1-4.63-35-17.75,0-.06-.08-.12-.12-.19v-.7a35,35,0,0,1,7-9.12,34.2,34.2,0,0,1,17.83-8.81C57.34,9.37,72.12,16.5,78.92,29.57a.6.6,0,0,0,.08.08ZM49,13.74A16.26,16.26,0,1,0,65.25,30,16.29,16.29,0,0,0,49,13.74ZM62.52,43l.24-.08A32.35,32.35,0,0,0,76.11,30.29a.79.79,0,0,0-.06-.71,31.28,31.28,0,0,0-8.45-9.44C66,19,64.37,18,62.74,16.94l-.14.16A18.75,18.75,0,0,1,62.51,43Zm-27-26A32.43,32.43,0,0,0,21.86,29.75a.7.7,0,0,0,.06.61,32.27,32.27,0,0,0,10.69,11c.88.56,1.8,1.06,2.7,1.58a19,19,0,0,1,.17-26Z" transform="translate(-19)"/><path class="cls-3" d="M49.35,0a1.6,1.6,0,0,1,.92,1.66c0,1.42,0,2.85,0,4.27a2.32,2.32,0,0,1-.23,1,1.1,1.1,0,0,1-1.2.55c-.49-.08-1-.36-1-.86-.05-1.92-.05-3.85,0-5.77,0-.29.51-.57.78-.85Z" transform="translate(-19)"/><path class="cls-3" d="M48.66,60a1.6,1.6,0,0,1-.92-1.66c0-1.48,0-3,0-4.44a1.26,1.26,0,0,1,1.77-1.28,1.18,1.18,0,0,1,.73,1.1c0,1.68,0,3.35,0,5a1.42,1.42,0,0,1-.9,1.25Z" transform="translate(-19)"/><path class="cls-3" d="M69.17,8.42a1.28,1.28,0,0,1,1.3.74,1.17,1.17,0,0,1-.23,1.36c-.68.7-1.37,1.38-2.06,2.08L66.77,14a1.27,1.27,0,0,1-1.87.08,1.25,1.25,0,0,1,.1-1.83c1.12-1.14,2.24-2.28,3.39-3.38A2.61,2.61,0,0,1,69.17,8.42Z" transform="translate(-19)"/><path class="cls-3" d="M28.85,8.42a3.21,3.21,0,0,1,.77.46C30.76,10,31.87,11.1,33,12.22a1.26,1.26,0,0,1,.07,1.88A1.24,1.24,0,0,1,31.22,14c-1.14-1.12-2.27-2.26-3.4-3.39a1.23,1.23,0,0,1-.29-1.45A1.27,1.27,0,0,1,28.85,8.42Z" transform="translate(-19)"/><path class="cls-3" d="M58,9.24A1.26,1.26,0,0,1,56.77,7.5c.29-.8.64-1.58.95-2.38s.57-1.44.88-2.16a1.25,1.25,0,1,1,2.32.91c-.6,1.54-1.23,3.06-1.86,4.59A1.24,1.24,0,0,1,58,9.24Z" transform="translate(-19)"/><path class="cls-3" d="M41.31,7.82a1.27,1.27,0,0,1-.92,1.32,1.23,1.23,0,0,1-1.45-.71c-.34-.76-.64-1.55-.95-2.32S37.41,4.7,37.13,4a1.26,1.26,0,1,1,2.3-1c.59,1.42,1.16,2.85,1.73,4.28A4.91,4.91,0,0,1,41.31,7.82Z" transform="translate(-19)"/><path class="cls-3" d="M33.44,47a2.69,2.69,0,0,1-.41.74c-1.12,1.16-2.27,2.3-3.43,3.43a1.24,1.24,0,0,1-1.82.07,1.26,1.26,0,0,1,.06-1.83q1.71-1.72,3.44-3.43a1.22,1.22,0,0,1,1.45-.29A1.26,1.26,0,0,1,33.44,47Z" transform="translate(-19)"/><path class="cls-3" d="M66,45.56a3.61,3.61,0,0,1,.78.46c1.14,1.09,2.25,2.22,3.36,3.35a1.26,1.26,0,0,1,.08,1.87,1.24,1.24,0,0,1-1.83-.1C67.25,50,66.12,48.88,65,47.75a1.21,1.21,0,0,1-.29-1.45C64.89,45.83,65.27,45.59,66,45.56Z" transform="translate(-19)"/><path class="cls-3" d="M41.36,52a5.26,5.26,0,0,1-.15.53q-.89,2.19-1.78,4.37A1.25,1.25,0,1,1,37.12,56c.6-1.5,1.2-3,1.82-4.49a1.22,1.22,0,0,1,1.46-.78A1.3,1.3,0,0,1,41.36,52Z" transform="translate(-19)"/><path class="cls-3" d="M58.08,50.73a1.16,1.16,0,0,1,1,.78c.64,1.55,1.27,3.1,1.87,4.66a1.2,1.2,0,0,1-.62,1.6l-.06,0a1.22,1.22,0,0,1-1.62-.72q-1-2.3-1.86-4.6A1.25,1.25,0,0,1,58.08,50.73Z" transform="translate(-19)"/><path class="cls-3" d="M47.57,32.3c.64-.66,1.25-1.29,1.87-1.91l4.21-4.22A1.27,1.27,0,0,1,55.3,26a1.22,1.22,0,0,1,.47,1.44,1.79,1.79,0,0,1-.42.62c-2.25,2.26-4.49,4.51-6.75,6.75a1.27,1.27,0,0,1-2.08,0c-1.13-1.13-2.27-2.25-3.39-3.39a1.24,1.24,0,0,1,1.3-2.06,2.55,2.55,0,0,1,.65.48C45.9,30.61,46.71,31.42,47.57,32.3Z" transform="translate(-19)"/></g></svg>