<svg id="Layer_6" data-name="Layer 6" xmlns="http://www.w3.org/2000/svg" xmlns:xlink="http://www.w3.org/1999/xlink" viewBox="0 0 121.12 120"><defs><style>.cls-1{fill:none;}.cls-2{clip-path:url(#clip-path);}.cls-3{fill:#3b82f6;}</style><clipPath id="clip-path" transform="translate(-37.44 0)"><rect class="cls-1" width="196" height="120"/></clipPath></defs><g class="cls-2"><path class="cls-3" d="M157.33,50.88l-7.66-1.42L146,38.18l5.36-5.65a1.5,1.5,0,0,0,.12-1.93l-9-12.37a1.47,1.47,0,0,0-1.87-.47l-7,3.36-9.59-7,1-7.72a1.53,1.53,0,0,0-1-1.63L109.45.08a1.51,1.51,0,0,0-1.8.71l-3.72,6.84H92.08L88.35.79a1.5,1.5,0,0,0-1.8-.71L72,4.8a1.49,1.49,0,0,0-1,1.63l1,7.72-9.6,7-7-3.36a1.52,1.52,0,0,0-1.88.47l-9,12.37a1.51,1.51,0,0,0,.12,1.93L50,38.18,46.34,49.46l-7.66,1.42a1.53,1.53,0,0,0-1.24,1.48V67.64a1.49,1.49,0,0,0,1.24,1.48l7.66,1.42L50,81.82l-5.35,5.65a1.49,1.49,0,0,0-.12,1.93l9,12.37a1.51,1.51,0,0,0,1.88.47l7-3.36,9.6,7-1,7.72a1.51,1.51,0,0,0,1,1.63l14.53,4.72A1.55,1.55,0,0,0,87,120a1.51,1.51,0,0,0,1.33-.79l3.72-6.84h11.85l3.73,6.84a1.5,1.5,0,0,0,1.8.71L124,115.2a1.49,1.49,0,0,0,1-1.63l-1-7.72,9.6-7,7,3.36a1.52,1.52,0,0,0,1.88-.47l9-12.37a1.51,1.51,0,0,0-.12-1.93L146,81.82l3.66-11.28,7.66-1.42a1.53,1.53,0,0,0,1.24-1.48V52.36a1.49,1.49,0,0,0-1.24-1.48Zm-1.79,15.5-7.31,1.36a1.53,1.53,0,0,0-1.16,1l-4.22,13a1.5,1.5,0,0,0,.35,1.52l5.11,5.38L140.8,99l-6.7-3.19a1.54,1.54,0,0,0-1.55.14l-11.05,8a1.49,1.49,0,0,0-.6,1.42l1,7.38-12.14,4-3.54-6.54a1.5,1.5,0,0,0-1.33-.79H91.21a1.51,1.51,0,0,0-1.33.79l-3.54,6.54-12.14-4,1-7.38a1.55,1.55,0,0,0-.6-1.42l-11-8A1.52,1.52,0,0,0,62,95.77L55.27,99,47.76,88.64l5.12-5.38a1.57,1.57,0,0,0,.34-1.52L49,68.76a1.49,1.49,0,0,0-1.16-1l-7.31-1.36V53.62l7.31-1.36a1.5,1.5,0,0,0,1.16-1l4.22-13a1.5,1.5,0,0,0-.34-1.51l-5.12-5.39L55.27,21,62,24.23a1.52,1.52,0,0,0,1.55-.13l11-8a1.5,1.5,0,0,0,.6-1.43l-1-7.37L86.34,3.33l3.54,6.54a1.52,1.52,0,0,0,1.33.78h13.65a1.52,1.52,0,0,0,1.33-.78l3.54-6.54,12.14,4-1,7.37a1.57,1.57,0,0,0,.6,1.43l11.05,8a1.5,1.5,0,0,0,1.55.13L140.8,21l7.51,10.32-5.11,5.39a1.53,1.53,0,0,0-.35,1.51l4.22,13a1.47,1.47,0,0,0,1.16,1l7.31,1.36Z" transform="translate(-37.44 0)"/><path class="cls-3" d="M112.16,30.66a32.63,32.63,0,0,0-28.27,0A32.57,32.57,0,0,0,72.57,80.33a1.5,1.5,0,0,0,1.18.57,1.44,1.44,0,0,0,.94-.33L82,74.74a1.52,1.52,0,0,0,.24-2.13,20.6,20.6,0,0,1-3.9-8.1,20.06,20.06,0,0,1-.52-4.5,21.2,21.2,0,0,1,.52-4.49,20.22,20.22,0,0,1,35.5-8.1,20.6,20.6,0,0,1,3.9,8.1,20,20,0,0,1,.51,4.49,21.27,21.27,0,0,1-.51,4.5,20.26,20.26,0,0,1-3.9,8.1,1.45,1.45,0,0,0-.32,1.11,1.5,1.5,0,0,0,.56,1l7.31,5.83a1.42,1.42,0,0,0,.94.33,1.52,1.52,0,0,0,1.18-.57,32.61,32.61,0,0,0-11.32-49.67ZM68.48,60a31.05,31.05,0,0,1,.44-5.09l1.44.33,4.73,1.08a22.72,22.72,0,0,0,0,7.36l-4.73,1.07-1.44.33A29,29,0,0,1,68.48,60ZM79,73.27l-5,4a29.92,29.92,0,0,1-4.42-9.17l6.17-1.41A23.23,23.23,0,0,0,79,73.27ZM75.78,53.38,69.61,52A29.47,29.47,0,0,1,74,42.8l5,4a23.2,23.2,0,0,0-3.19,6.63Zm5.07-9-4.95-4a30,30,0,0,1,7.94-6.36l2.76,5.72a23.25,23.25,0,0,0-5.75,4.59Zm15.66-7.56a23.16,23.16,0,0,0-7.17,1.65l-2.75-5.72a29.14,29.14,0,0,1,9.92-2.26Zm10.2,1.65a22.54,22.54,0,0,0-7.17-1.65V30.49a29.2,29.2,0,0,1,9.93,2.26l-2.11,4.35-.65,1.36Zm2.73,1.32,2.75-5.72a29.6,29.6,0,0,1,8,6.35l-5,3.95a23.63,23.63,0,0,0-5.75-4.59ZM122,77.22l-5-4a23.22,23.22,0,0,0,3.2-6.63l6.17,1.41A29.69,29.69,0,0,1,122,77.22Zm5.1-22.3a29.17,29.17,0,0,1,.44,5.09,30,30,0,0,1-.44,5.08l-.4-.09L121,63.69a22.72,22.72,0,0,0,0-7.36L126.73,55Zm-.68-3-6.17,1.41a22.94,22.94,0,0,0-3.19-6.63l5-4A29.92,29.92,0,0,1,126.46,52Z" transform="translate(-37.44 0)"/><path class="cls-3" d="M106.64,49.46l-6.36,6a1,1,0,0,1-1,.27A4.42,4.42,0,0,0,93.7,61a1.07,1.07,0,0,1-.32,1l-.23.22A1.79,1.79,0,0,0,92.64,64,2,2,0,0,0,94,65.42a1.4,1.4,0,0,0,.45.06,1.81,1.81,0,0,0,1.32-.59l.2-.22a1.12,1.12,0,0,1,1-.32,4.42,4.42,0,0,0,5.24-5.55,1,1,0,0,1,.27-1l6-6.36a1.37,1.37,0,0,0-1.94-1.94Z" transform="translate(-37.44 0)"/><path class="cls-3" d="M98,21.52A38.49,38.49,0,1,0,136.51,60,38.54,38.54,0,0,0,98,21.52Zm0,74A35.46,35.46,0,1,1,133.49,60,35.51,35.51,0,0,1,98,95.47Z" transform="translate(-37.44 0)"/></g></svg>