<svg id="plug-in_development" data-name="plug-in development" xmlns="http://www.w3.org/2000/svg" xmlns:xlink="http://www.w3.org/1999/xlink" viewBox="0 0 120 120"><defs><style>.cls-1{fill:none;}.cls-2{clip-path:url(#clip-path);}.cls-3{fill:#3b82f6;}</style><clipPath id="clip-path" transform="translate(-38)"><rect class="cls-1" width="196" height="120"/></clipPath></defs><g class="cls-2"><path class="cls-3" d="M107.09,83a18.38,18.38,0,0,0-5.38,1.33h0l-.08,0a18.27,18.27,0,0,0-8.94,8L92,93.61a1.8,1.8,0,0,1-1.59.93H83.79a1.81,1.81,0,0,1-1.6-.94l-.69-1.23a18.29,18.29,0,0,0-8.94-8l-.08,0h0a18.36,18.36,0,0,0-12-.7L59.09,84a1.77,1.77,0,0,1-1.79-.46l-4.67-4.68a1.78,1.78,0,0,1-.46-1.8l.38-1.36a18.49,18.49,0,0,0-.71-12h0l0-.08a18.34,18.34,0,0,0-8-9L42.59,54a1.8,1.8,0,0,1-.93-1.59V45.78a1.8,1.8,0,0,1,.94-1.59l1.23-.69a18.36,18.36,0,0,0,8-8.94l0-.09h0a18.46,18.46,0,0,0,.71-12l-.39-1.37a1.82,1.82,0,0,1,.47-1.8l4.67-4.67a1.81,1.81,0,0,1,1.81-.46l1.35.38a18.42,18.42,0,0,0,12-.71h0l.08,0a18.34,18.34,0,0,0,8.94-8l.69-1.24a1.8,1.8,0,0,1,1.59-.93H90.4a1.8,1.8,0,0,1,1.6.94l.69,1.23a18.34,18.34,0,0,0,8.94,8l.08,0h0a18.46,18.46,0,0,0,12,.71l1.37-.39a1.78,1.78,0,0,1,1.79.47l4.68,4.67A1.83,1.83,0,0,1,122,21.1l-.38,1.35a18.42,18.42,0,0,0,.7,12v0l0,.08a18.27,18.27,0,0,0,8,8.94l1.25.7a1.8,1.8,0,0,1,.93,1.58V52.4a1.89,1.89,0,0,1-.08.53,1.78,1.78,0,0,0-1,1.62,1.87,1.87,0,0,0,1.89,1.81,1.78,1.78,0,0,0,1.71-.72,5.37,5.37,0,0,0,1.06-3.24V45.78a5.45,5.45,0,0,0-2.8-4.77l-1.24-.69a14.63,14.63,0,0,1-6.36-7.11c0-.07,0-.13-.08-.19a14.73,14.73,0,0,1-.54-9.58l.37-1.36a5.45,5.45,0,0,0-1.39-5.36L119.46,12a5.48,5.48,0,0,0-5.36-1.39l-1.37.38a14.8,14.8,0,0,1-9.56-.54l-.21-.08A14.74,14.74,0,0,1,95.85,4l-.68-1.22A5.43,5.43,0,0,0,90.39,0H83.78A5.43,5.43,0,0,0,79,2.8L78.32,4a14.7,14.7,0,0,1-7.11,6.37l-.2.08a14.76,14.76,0,0,1-9.57.54l-1.36-.38A5.48,5.48,0,0,0,54.71,12L50,16.72a5.44,5.44,0,0,0-1.4,5.35L49,23.44A14.83,14.83,0,0,1,48.49,33l-.09.21A14.61,14.61,0,0,1,42,40.32L40.82,41A5.43,5.43,0,0,0,38,45.78V52.4a5.43,5.43,0,0,0,2.8,4.77l1.24.69A14.63,14.63,0,0,1,48.4,65l.09.2A14.79,14.79,0,0,1,49,74.75l-.38,1.35A5.47,5.47,0,0,0,50,81.47l4.67,4.67a5.46,5.46,0,0,0,5.36,1.4l1.37-.38A14.77,14.77,0,0,1,71,87.7l.2.08a14.69,14.69,0,0,1,7.11,6.37L79,95.37a5.44,5.44,0,0,0,4.78,2.82h6.61a5.42,5.42,0,0,0,4.77-2.81l.7-1.23A14.56,14.56,0,0,1,103,87.78l.2-.08a15.17,15.17,0,0,1,4.28-1,1.83,1.83,0,0,0,1.63-2,1.8,1.8,0,0,0-2-1.63Z" transform="translate(-38)"/><path class="cls-3" d="M73.56,31.22a1.81,1.81,0,0,0-2.52.5L60.13,48.09a1.8,1.8,0,0,0,0,2L71,66.46a1.82,1.82,0,0,0,3-2L63.83,49.09,74.06,33.73a1.81,1.81,0,0,0-.5-2.52Z" transform="translate(-38)"/><path class="cls-3" d="M100.63,67a1.79,1.79,0,0,0,1,.31,1.82,1.82,0,0,0,1.51-.81L114.06,50.1a1.8,1.8,0,0,0,0-2L103.15,31.72a1.82,1.82,0,0,0-3,2l10.24,15.35L100.12,64.45a1.82,1.82,0,0,0,.51,2.52Z" transform="translate(-38)"/><path class="cls-3" d="M92.71,32,78.17,64.71a1.81,1.81,0,0,0,.92,2.4,1.76,1.76,0,0,0,.74.16,1.82,1.82,0,0,0,1.66-1.08L96,33.47A1.82,1.82,0,0,0,92.71,32Z" transform="translate(-38)"/><path class="cls-3" d="M150.73,64.77a23.37,23.37,0,0,0-17.34-6.57,23.62,23.62,0,0,0-11.21,43.85,6.12,6.12,0,0,1,3.09,5.22,5.42,5.42,0,0,0,1.82,4v3.23a5.47,5.47,0,0,0,5.46,5.46h3.63a5.46,5.46,0,0,0,5.46-5.46v-3.23a5.45,5.45,0,0,0,1.82-4.06,6.09,6.09,0,0,1,3.08-5.19,23.62,23.62,0,0,0,4.2-37.29ZM138,114.54a1.81,1.81,0,0,1-1.82,1.82h-3.63a1.82,1.82,0,0,1-1.82-1.82v-1.82H138v1.82Zm6.67-15.6a9.69,9.69,0,0,0-4.85,8.33,1.82,1.82,0,0,1-1.82,1.82h-7.27a1.83,1.83,0,0,1-1.82-1.84,9.71,9.71,0,0,0-4.85-8.32,20,20,0,0,1,9.48-37.09c.28,0,.55,0,.83,0a20,20,0,0,1,10.29,37.12Z" transform="translate(-38)"/><path class="cls-3" d="M138.74,69.32a5.7,5.7,0,0,0-8.76,0l-7.31,8.77a4.49,4.49,0,0,0,3.45,7.36h2.78V98.18a1.82,1.82,0,0,0,3.64,0V83.64a1.81,1.81,0,0,0-1.82-1.82h-4.6a.85.85,0,0,1-.85-.86.84.84,0,0,1,.2-.54l7.3-8.77a2.13,2.13,0,0,1,3.17,0l7.31,8.77a.85.85,0,0,1-.65,1.4H138a1.82,1.82,0,0,0-1.82,1.82v9.09a1.82,1.82,0,0,0,3.64,0V85.46h2.79a4.5,4.5,0,0,0,3.45-7.36l-7.31-8.77Z" transform="translate(-38)"/></g></svg>