<svg xmlns="http://www.w3.org/2000/svg" xmlns:xlink="http://www.w3.org/1999/xlink" viewBox="0 0 96 50.8"><defs><style>.cls-1{fill:none;}.cls-2{clip-path:url(#clip-path);}</style><clipPath id="clip-path" transform="translate(-1 -4.6)"><rect class="cls-1" width="98" height="60"/></clipPath></defs><title>b-b</title><g id="Layer_2" data-name="Layer 2"><g id="Layer_4" data-name="Layer 4"><g class="cls-2"><path d="M12.13,21.34H8.74a.84.84,0,0,0-.84.84V26.1a.84.84,0,0,0,.84.84h3.39A.83.83,0,0,0,13,26.1V22.18A.84.84,0,0,0,12.13,21.34Zm-.83,3.93H9.58V23H11.3Z" transform="translate(-1 -4.6)"/><path d="M12.13,30.06H8.74a.84.84,0,0,0-.84.84v3.92a.83.83,0,0,0,.84.84h3.39a.83.83,0,0,0,.84-.84V30.9A.84.84,0,0,0,12.13,30.06ZM11.3,34H9.58V31.74H11.3Z" transform="translate(-1 -4.6)"/><path d="M20.26,21.34h-3.4a.85.85,0,0,0-.84.84V26.1a.85.85,0,0,0,.84.84h3.4a.84.84,0,0,0,.84-.84V22.18A.85.85,0,0,0,20.26,21.34Zm-.84,3.93H17.7V23h1.72Z" transform="translate(-1 -4.6)"/><path d="M20.26,30.06h-3.4a.85.85,0,0,0-.84.84v3.92a.85.85,0,0,0,.84.84h3.4a.84.84,0,0,0,.84-.84V30.9A.85.85,0,0,0,20.26,30.06ZM19.42,34H17.7V31.74h1.72Z" transform="translate(-1 -4.6)"/><path d="M27.16,53.72h-.77V15.49a.85.85,0,0,0-.84-.84H20.82V10.81A.84.84,0,0,0,20,10H15.33V5.44a.84.84,0,1,0-1.68,0V10H9a.85.85,0,0,0-.84.84v3.84H3.45a.85.85,0,0,0-.84.84V53.72H1.84a.84.84,0,0,0,0,1.68H27.16a.84.84,0,0,0,0-1.68ZM9.85,11.65h9.3v3H9.85Zm7.27,42.07H11.88v-9.9h5.24Zm7.59,0H18.79V43a.84.84,0,0,0-.84-.84H11a.85.85,0,0,0-.84.84V53.72H4.29V16.33H24.71Z" transform="translate(-1 -4.6)"/><path d="M12.13,21.34H8.74a.84.84,0,0,0-.84.84V26.1a.84.84,0,0,0,.84.84h3.39A.83.83,0,0,0,13,26.1V22.18A.84.84,0,0,0,12.13,21.34Zm-.83,3.93H9.58V23H11.3Z" transform="translate(-1 -4.6)"/><path d="M12.13,30.06H8.74a.84.84,0,0,0-.84.84v3.92a.83.83,0,0,0,.84.84h3.39a.83.83,0,0,0,.84-.84V30.9A.84.84,0,0,0,12.13,30.06ZM11.3,34H9.58V31.74H11.3Z" transform="translate(-1 -4.6)"/><path d="M20.26,21.34h-3.4a.85.85,0,0,0-.84.84V26.1a.85.85,0,0,0,.84.84h3.4a.84.84,0,0,0,.84-.84V22.18A.85.85,0,0,0,20.26,21.34Zm-.84,3.93H17.7V23h1.72Z" transform="translate(-1 -4.6)"/><path d="M20.26,30.06h-3.4a.85.85,0,0,0-.84.84v3.92a.85.85,0,0,0,.84.84h3.4a.84.84,0,0,0,.84-.84V30.9A.85.85,0,0,0,20.26,30.06ZM19.42,34H17.7V31.74h1.72Z" transform="translate(-1 -4.6)"/><path d="M12.13,21.34H8.74a.84.84,0,0,0-.84.84V26.1a.84.84,0,0,0,.84.84h3.39A.83.83,0,0,0,13,26.1V22.18A.84.84,0,0,0,12.13,21.34Zm-.83,3.93H9.58V23H11.3Z" transform="translate(-1 -4.6)"/><path d="M20.26,21.34h-3.4a.85.85,0,0,0-.84.84V26.1a.85.85,0,0,0,.84.84h3.4a.84.84,0,0,0,.84-.84V22.18A.85.85,0,0,0,20.26,21.34Zm-.84,3.93H17.7V23h1.72Z" transform="translate(-1 -4.6)"/><path d="M12.13,30.06H8.74a.84.84,0,0,0-.84.84v3.92a.83.83,0,0,0,.84.84h3.39a.83.83,0,0,0,.84-.84V30.9A.84.84,0,0,0,12.13,30.06ZM11.3,34H9.58V31.74H11.3Z" transform="translate(-1 -4.6)"/><path d="M20.26,30.06h-3.4a.85.85,0,0,0-.84.84v3.92a.85.85,0,0,0,.84.84h3.4a.84.84,0,0,0,.84-.84V30.9A.85.85,0,0,0,20.26,30.06ZM19.42,34H17.7V31.74h1.72Z" transform="translate(-1 -4.6)"/><path d="M81.14,21.34h-3.4a.85.85,0,0,0-.84.84V26.1a.84.84,0,0,0,.84.84h3.4A.84.84,0,0,0,82,26.1V22.18A.85.85,0,0,0,81.14,21.34Zm-.84,3.93H78.58V23H80.3Z" transform="translate(-1 -4.6)"/><path d="M81.14,30.06h-3.4a.85.85,0,0,0-.84.84v3.92a.84.84,0,0,0,.84.84h3.4a.84.84,0,0,0,.84-.84V30.9A.85.85,0,0,0,81.14,30.06ZM80.3,34H78.58V31.74H80.3Z" transform="translate(-1 -4.6)"/><path d="M89.27,21.34h-3.4a.85.85,0,0,0-.84.84V26.1a.84.84,0,0,0,.84.84h3.4a.84.84,0,0,0,.84-.84V22.18A.85.85,0,0,0,89.27,21.34Zm-.84,3.93H86.71V23h1.72Z" transform="translate(-1 -4.6)"/><path d="M89.27,30.06h-3.4a.85.85,0,0,0-.84.84v3.92a.84.84,0,0,0,.84.84h3.4a.84.84,0,0,0,.84-.84V30.9A.85.85,0,0,0,89.27,30.06ZM88.43,34H86.71V31.74h1.72Z" transform="translate(-1 -4.6)"/><path d="M96.16,53.72h-.77V15.49a.84.84,0,0,0-.84-.84H89.83V10.81A.85.85,0,0,0,89,10H84.34V5.44a.84.84,0,1,0-1.68,0V10H78a.83.83,0,0,0-.84.84v3.83H72.45a.85.85,0,0,0-.84.84V53.72h-.77a.84.84,0,1,0,0,1.68H96.16a.85.85,0,0,0,.84-.84A.83.83,0,0,0,96.16,53.72ZM78.86,11.65h9.29v3H78.86Zm7.26,42.07H80.89v-9.9h5.23Zm7.6,0H87.8V43a.85.85,0,0,0-.84-.84H80.05a.84.84,0,0,0-.84.84V53.72H73.29V16.33H93.72Z" transform="translate(-1 -4.6)"/><path d="M81.14,21.34h-3.4a.85.85,0,0,0-.84.84V26.1a.84.84,0,0,0,.84.84h3.4A.84.84,0,0,0,82,26.1V22.18A.85.85,0,0,0,81.14,21.34Zm-.84,3.93H78.58V23H80.3Z" transform="translate(-1 -4.6)"/><path d="M81.14,30.06h-3.4a.85.85,0,0,0-.84.84v3.92a.84.84,0,0,0,.84.84h3.4a.84.84,0,0,0,.84-.84V30.9A.85.85,0,0,0,81.14,30.06ZM80.3,34H78.58V31.74H80.3Z" transform="translate(-1 -4.6)"/><path d="M89.27,21.34h-3.4a.85.85,0,0,0-.84.84V26.1a.84.84,0,0,0,.84.84h3.4a.84.84,0,0,0,.84-.84V22.18A.85.85,0,0,0,89.27,21.34Zm-.84,3.93H86.71V23h1.72Z" transform="translate(-1 -4.6)"/><path d="M89.27,30.06h-3.4a.85.85,0,0,0-.84.84v3.92a.84.84,0,0,0,.84.84h3.4a.84.84,0,0,0,.84-.84V30.9A.85.85,0,0,0,89.27,30.06ZM88.43,34H86.71V31.74h1.72Z" transform="translate(-1 -4.6)"/><path d="M81.14,21.34h-3.4a.85.85,0,0,0-.84.84V26.1a.84.84,0,0,0,.84.84h3.4A.84.84,0,0,0,82,26.1V22.18A.85.85,0,0,0,81.14,21.34Zm-.84,3.93H78.58V23H80.3Z" transform="translate(-1 -4.6)"/><path d="M89.27,21.34h-3.4a.85.85,0,0,0-.84.84V26.1a.84.84,0,0,0,.84.84h3.4a.84.84,0,0,0,.84-.84V22.18A.85.85,0,0,0,89.27,21.34Zm-.84,3.93H86.71V23h1.72Z" transform="translate(-1 -4.6)"/><path d="M81.14,30.06h-3.4a.85.85,0,0,0-.84.84v3.92a.84.84,0,0,0,.84.84h3.4a.84.84,0,0,0,.84-.84V30.9A.85.85,0,0,0,81.14,30.06ZM80.3,34H78.58V31.74H80.3Z" transform="translate(-1 -4.6)"/><path d="M89.27,30.06h-3.4a.85.85,0,0,0-.84.84v3.92a.84.84,0,0,0,.84.84h3.4a.84.84,0,0,0,.84-.84V30.9A.85.85,0,0,0,89.27,30.06ZM88.43,34H86.71V31.74h1.72Z" transform="translate(-1 -4.6)"/><path d="M53.73,25l-3.49-2a.56.56,0,0,0-.84.48v1.46H44.55a.57.57,0,0,0-.56.56.57.57,0,0,0,.56.56H49.4v1.45a.59.59,0,0,0,.28.49.6.6,0,0,0,.56,0l3.49-2A.56.56,0,0,0,54,25.5.58.58,0,0,0,53.73,25Zm-3.21,1.54v-2.1l1.82,1.05Z" transform="translate(-1 -4.6)"/><path d="M44.27,35l3.49,2a.56.56,0,0,0,.84-.48V35.06h4.85A.57.57,0,0,0,54,34.5a.57.57,0,0,0-.56-.56H48.6V32.49a.59.59,0,0,0-.28-.49.6.6,0,0,0-.56,0l-3.49,2a.56.56,0,0,0-.28.48A.58.58,0,0,0,44.27,35Zm3.21-1.54v2.1l-1.82-1Z" transform="translate(-1 -4.6)"/></g></g></g></svg>