<svg xmlns="http://www.w3.org/2000/svg" xmlns:xlink="http://www.w3.org/1999/xlink" viewBox="0 0 96 50.8"><defs><style>.cls-1{fill:none;}.cls-2{clip-path:url(#clip-path);}</style><clipPath id="clip-path" transform="translate(-1 -4.6)"><rect class="cls-1" width="98" height="60"/></clipPath></defs><title>b-c</title><g id="Layer_2" data-name="Layer 2"><g id="Layer_3" data-name="Layer 3"><g class="cls-2"><path d="M80.89,13.26a6.77,6.77,0,0,0-7,7c0,3.91,3.14,8.63,7,8.63s7-4.72,7-8.63A6.78,6.78,0,0,0,80.89,13.26Zm0,13.9c-2.83,0-5.36-3.88-5.36-6.95a5.36,5.36,0,0,1,10.72,0C86.25,23.28,83.73,27.16,80.89,27.16Z" transform="translate(-1 -4.6)"/><path d="M80.89,29.8a16.12,16.12,0,0,0-16.1,16.06v0a.84.84,0,0,0,.84.84H96.16a.84.84,0,0,0,.6-.25A.85.85,0,0,0,97,45.9,16.12,16.12,0,0,0,80.89,29.8ZM66.49,45.06a14.43,14.43,0,0,1,28.81,0Z" transform="translate(-1 -4.6)"/><path d="M12.13,21.34H8.74a.84.84,0,0,0-.84.84V26.1a.84.84,0,0,0,.84.84h3.39A.83.83,0,0,0,13,26.1V22.18A.84.84,0,0,0,12.13,21.34Zm-.83,3.93H9.58V23H11.3Z" transform="translate(-1 -4.6)"/><path d="M12.13,30.06H8.74a.84.84,0,0,0-.84.84v3.92a.83.83,0,0,0,.84.84h3.39a.83.83,0,0,0,.84-.84V30.9A.84.84,0,0,0,12.13,30.06ZM11.3,34H9.58V31.74H11.3Z" transform="translate(-1 -4.6)"/><path d="M20.26,21.34h-3.4a.85.85,0,0,0-.84.84V26.1a.85.85,0,0,0,.84.84h3.4a.84.84,0,0,0,.84-.84V22.18A.85.85,0,0,0,20.26,21.34Zm-.84,3.93H17.7V23h1.72Z" transform="translate(-1 -4.6)"/><path d="M20.26,30.06h-3.4a.85.85,0,0,0-.84.84v3.92a.85.85,0,0,0,.84.84h3.4a.84.84,0,0,0,.84-.84V30.9A.85.85,0,0,0,20.26,30.06ZM19.42,34H17.7V31.74h1.72Z" transform="translate(-1 -4.6)"/><path d="M27.16,53.72h-.78V15.49a.84.84,0,0,0-.84-.84H20.82V10.82A.84.84,0,0,0,20,10H15.33V5.44a.84.84,0,1,0-1.68,0V10H9a.84.84,0,0,0-.84.84v3.83H3.45a.85.85,0,0,0-.84.84V53.72H1.84a.84.84,0,0,0,0,1.68H27.16a.84.84,0,0,0,0-1.68ZM9.85,11.66h9.3v3H9.85Zm7.27,42.06H11.88v-9.9h5.24Zm7.59,0H18.79V43a.84.84,0,0,0-.84-.84H11a.85.85,0,0,0-.84.84V53.72H4.29V16.33H24.71Z" transform="translate(-1 -4.6)"/><path d="M12.13,21.34H8.74a.84.84,0,0,0-.84.84V26.1a.84.84,0,0,0,.84.84h3.39A.83.83,0,0,0,13,26.1V22.18A.84.84,0,0,0,12.13,21.34Zm-.83,3.93H9.58V23H11.3Z" transform="translate(-1 -4.6)"/><path d="M12.13,30.06H8.74a.84.84,0,0,0-.84.84v3.92a.83.83,0,0,0,.84.84h3.39a.83.83,0,0,0,.84-.84V30.9A.84.84,0,0,0,12.13,30.06ZM11.3,34H9.58V31.74H11.3Z" transform="translate(-1 -4.6)"/><path d="M20.26,21.34h-3.4a.85.85,0,0,0-.84.84V26.1a.85.85,0,0,0,.84.84h3.4a.84.84,0,0,0,.84-.84V22.18A.85.85,0,0,0,20.26,21.34Zm-.84,3.93H17.7V23h1.72Z" transform="translate(-1 -4.6)"/><path d="M20.26,30.06h-3.4a.85.85,0,0,0-.84.84v3.92a.85.85,0,0,0,.84.84h3.4a.84.84,0,0,0,.84-.84V30.9A.85.85,0,0,0,20.26,30.06ZM19.42,34H17.7V31.74h1.72Z" transform="translate(-1 -4.6)"/><path d="M12.13,21.34H8.74a.84.84,0,0,0-.84.84V26.1a.84.84,0,0,0,.84.84h3.39A.83.83,0,0,0,13,26.1V22.18A.84.84,0,0,0,12.13,21.34Zm-.83,3.93H9.58V23H11.3Z" transform="translate(-1 -4.6)"/><path d="M20.26,21.34h-3.4a.85.85,0,0,0-.84.84V26.1a.85.85,0,0,0,.84.84h3.4a.84.84,0,0,0,.84-.84V22.18A.85.85,0,0,0,20.26,21.34Zm-.84,3.93H17.7V23h1.72Z" transform="translate(-1 -4.6)"/><path d="M12.13,30.06H8.74a.84.84,0,0,0-.84.84v3.92a.83.83,0,0,0,.84.84h3.39a.83.83,0,0,0,.84-.84V30.9A.84.84,0,0,0,12.13,30.06ZM11.3,34H9.58V31.74H11.3Z" transform="translate(-1 -4.6)"/><path d="M20.26,30.06h-3.4a.85.85,0,0,0-.84.84v3.92a.85.85,0,0,0,.84.84h3.4a.84.84,0,0,0,.84-.84V30.9A.85.85,0,0,0,20.26,30.06ZM19.42,34H17.7V31.74h1.72Z" transform="translate(-1 -4.6)"/><path d="M53.73,25l-3.49-2a.56.56,0,0,0-.84.48v1.46H44.55a.57.57,0,0,0-.56.56.57.57,0,0,0,.56.56H49.4v1.45a.59.59,0,0,0,.28.49.6.6,0,0,0,.56,0l3.49-2A.56.56,0,0,0,54,25.5.58.58,0,0,0,53.73,25Zm-3.21,1.54v-2.1l1.82,1.05Z" transform="translate(-1 -4.6)"/><path d="M44.27,35l3.49,2a.56.56,0,0,0,.84-.48V35.06h4.85A.57.57,0,0,0,54,34.5a.57.57,0,0,0-.56-.56H48.6V32.49a.59.59,0,0,0-.28-.49.6.6,0,0,0-.56,0l-3.49,2a.56.56,0,0,0-.28.48A.58.58,0,0,0,44.27,35Zm3.21-1.54v2.1l-1.82-1Z" transform="translate(-1 -4.6)"/></g></g></g></svg>