<svg xmlns="http://www.w3.org/2000/svg" xmlns:xlink="http://www.w3.org/1999/xlink" viewBox="0 0 64.23 60"><defs><style>.cls-1{fill:none;}.cls-2{clip-path:url(#clip-path);}</style><clipPath id="clip-path" transform="translate(-16.88)"><rect class="cls-1" width="98" height="60"/></clipPath></defs><title>custom-ecommerce-development</title><g id="Layer_2" data-name="Layer 2"><g id="Layer_1-2" data-name="Layer 1"><g class="cls-2"><path d="M80.9,27.23a4.26,4.26,0,0,0-1.61-2.79l-6.41-5.33A4.52,4.52,0,0,0,70.32,18H70.1a2.25,2.25,0,0,0-1.67.72l-23,27.52,0,0-.31.36-.72.82.25,12.33h0l11.85-2.41.68-.81.14-.16,23-27.64A2.06,2.06,0,0,0,80.9,27.23ZM54.21,56.79l-8.45,1.72-.16-8.3,0,0V48.73l9.61,7.82-1,.22ZM74,34.88l-17.53,21L46,47.32,63.18,26.7h0l.8-.92L74.4,34.38l-.41.49Zm5.65-6.78-4.3,5.15L65,24.57l4.33-5.19.06,0a1.27,1.27,0,0,1,.78-.27l.23,0a3.58,3.58,0,0,1,1.87.85l6.39,5.33a3.27,3.27,0,0,1,1.24,2.05A1.07,1.07,0,0,1,79.65,28.1Z" transform="translate(-16.88)"/><path d="M80.9,27.23a4.26,4.26,0,0,0-1.61-2.79l-6.41-5.33A4.52,4.52,0,0,0,70.32,18H70.1a2.25,2.25,0,0,0-1.67.72l-23,27.52,0,0-.31.36-.72.82.25,12.33h0l11.85-2.41.68-.81.14-.16,23-27.64A2.06,2.06,0,0,0,80.9,27.23ZM54.21,56.79l-8.45,1.72-.16-8.3,0,0V48.73l9.61,7.82-1,.22ZM74,34.88l-17.53,21L46,47.32,63.18,26.7h0l.8-.92L74.4,34.38l-.41.49Zm5.65-6.78-4.3,5.15L65,24.57l4.33-5.19.06,0a1.27,1.27,0,0,1,.78-.27l.23,0a3.58,3.58,0,0,1,1.87.85l6.39,5.33a3.27,3.27,0,0,1,1.24,2.05A1.07,1.07,0,0,1,79.65,28.1Z" transform="translate(-16.88)"/><path d="M44.54,60v-.21l-.25-12.4,1-1.11.09-.15L68.27,18.61a2.48,2.48,0,0,1,1.83-.79h.27A4.83,4.83,0,0,1,73,19l6.4,5.34a4.46,4.46,0,0,1,1.69,2.92,2.26,2.26,0,0,1-.49,1.7l-23,27.63-.87,1L44.76,60Zm1.26-9.79L46,58.27l7.91-1.62.28-.08.58-.12-9-7.3v.93Zm10.64,5.41L73.73,34.89l.11-.15.28-.33L64,26l-.52.61-.12.17L46.26,47.3ZM75.33,33l4.16-5a.87.87,0,0,0,.16-.64,3,3,0,0,0-1.17-1.92L72.1,20.09a3.42,3.42,0,0,0-1.78-.8l-.2,0a1.06,1.06,0,0,0-.66.23l-4.23,5.05Z" transform="translate(-16.88)"/><path d="M80.9,27.23a4.26,4.26,0,0,0-1.61-2.79l-6.41-5.33A4.52,4.52,0,0,0,70.32,18H70.1a2.25,2.25,0,0,0-1.67.72l-23,27.52,0,0-.31.36-.72.82.25,12.33h0l11.85-2.41.68-.81.14-.16,23-27.64A2.06,2.06,0,0,0,80.9,27.23ZM54.21,56.79l-8.45,1.72-.16-8.3,0,0V48.73l9.61,7.82-1,.22ZM74,34.88l-17.53,21L46,47.32,63.18,26.7h0l.8-.92L74.4,34.38l-.41.49Zm5.65-6.78-4.3,5.15L65,24.57l4.33-5.19.06,0a1.27,1.27,0,0,1,.78-.27l.23,0a3.58,3.58,0,0,1,1.87.85l6.39,5.33a3.27,3.27,0,0,1,1.24,2.05A1.07,1.07,0,0,1,79.65,28.1Z" transform="translate(-16.88)"/><path d="M72.9,13.53a9.53,9.53,0,0,0-1.66-.39,3,3,0,0,0-.87-2.08L69.26,10a3,3,0,0,0-4.25,0L61,14a.91.91,0,0,1-.23.15,1,1,0,0,1-.34.08.74.74,0,0,1-.25-.05l-.27-.12A20,20,0,0,0,53,11.23l-.18-.06-.08-.06L52.65,11c0-.06-.1-.13-.16-.19l-.05-.13,0-.1a.27.27,0,0,1,0-.12V4.7a3,3,0,0,0-3-3H47.81a3,3,0,0,0-3,3V10.4a1.54,1.54,0,0,1,0,.19l-.06.15-.06.13-.09.12-.09.07-.14.09a.43.43,0,0,1-.17.07l-.07,0h0a20.45,20.45,0,0,0-6.84,2.83l-.15.07a1.3,1.3,0,0,1-.33.08.87.87,0,0,1-.23-.06A1.23,1.23,0,0,1,36.2,14l-4-4a3,3,0,0,0-2.12-.88,2.94,2.94,0,0,0-2.12.88l-1.12,1.11a3,3,0,0,0,0,4.24l4,4a.87.87,0,0,1,.17.22l0,.07a.81.81,0,0,1,.06.31.83.83,0,0,1-.06.32.46.46,0,0,1-.07.14,20.25,20.25,0,0,0-2.85,6.89v0a1.19,1.19,0,0,1-.08.2,1,1,0,0,1-.18.21.87.87,0,0,1-.26.16,1.33,1.33,0,0,1-.3.05H21.58a3,3,0,0,0-3,3v1.55a3,3,0,0,0,3,3h5.86l.1,0a.38.38,0,0,1,.14.06l.09,0,.05,0,.1.12L28,36a.32.32,0,0,1,.06.16l0,.1A19.91,19.91,0,0,0,31,43.05l.06.12,0,0,0,.05a2.09,2.09,0,0,1,0,.23,1.07,1.07,0,0,1,0,.32l0,.06a.87.87,0,0,1-.16.23l-4,4a3,3,0,0,0,0,4.24l1.11,1.11a3,3,0,0,0,2.13.88,3,3,0,0,0,2.11-.88l4-4a.74.74,0,0,1,.29-.18.85.85,0,0,1,.31-.06,1.18,1.18,0,0,1,.27,0l.11.08h.07l0,0a19.45,19.45,0,0,0,2.32,1.28l0,1.86a22.24,22.24,0,0,1-2.19-1.08l-.5-.29-3.57,3.56a4.68,4.68,0,0,1-6.64,0l-1.1-1.1a4.72,4.72,0,0,1,0-6.64l3.57-3.56-.28-.5a21.72,21.72,0,0,1-2.14-5.15l-.15-.55h-5a4.71,4.71,0,0,1-4.7-4.69V30.94a4.71,4.71,0,0,1,4.7-4.7h5l.15-.55a21.9,21.9,0,0,1,2.14-5.15l.28-.49-3.57-3.58a4.71,4.71,0,0,1,0-6.63l1.11-1.11a4.72,4.72,0,0,1,6.63,0l3.57,3.58.49-.29a21.36,21.36,0,0,1,5.16-2.13l.55-.15v-5A4.71,4.71,0,0,1,47.82,0h1.54a4.72,4.72,0,0,1,4.71,4.7V9.75l.54.15A21.36,21.36,0,0,1,59.77,12l.48.29,3.57-3.57a4.71,4.71,0,0,1,6.64,0l1.11,1.1A4.75,4.75,0,0,1,72.9,13.53Z" transform="translate(-16.88)"/><path d="M72.9,13.53a9.53,9.53,0,0,0-1.66-.39,3,3,0,0,0-.87-2.08L69.26,10a3,3,0,0,0-4.25,0L61,14a.91.91,0,0,1-.23.15,1,1,0,0,1-.34.08.74.74,0,0,1-.25-.05l-.27-.12A20,20,0,0,0,53,11.23l-.18-.06-.08-.06L52.65,11c0-.06-.1-.13-.16-.19l-.05-.13,0-.1a.27.27,0,0,1,0-.12V4.7a3,3,0,0,0-3-3H47.81a3,3,0,0,0-3,3V10.4a1.54,1.54,0,0,1,0,.19l-.06.15-.06.13-.09.12-.09.07-.14.09a.43.43,0,0,1-.17.07l-.07,0h0a20.45,20.45,0,0,0-6.84,2.83l-.15.07a1.3,1.3,0,0,1-.33.08.87.87,0,0,1-.23-.06A1.23,1.23,0,0,1,36.2,14l-4-4a3,3,0,0,0-2.12-.88,2.94,2.94,0,0,0-2.12.88l-1.12,1.11a3,3,0,0,0,0,4.24l4,4a.87.87,0,0,1,.17.22l0,.07a.81.81,0,0,1,.06.31.83.83,0,0,1-.06.32.46.46,0,0,1-.07.14,20.25,20.25,0,0,0-2.85,6.89v0a1.19,1.19,0,0,1-.08.2,1,1,0,0,1-.18.21.87.87,0,0,1-.26.16,1.33,1.33,0,0,1-.3.05H21.58a3,3,0,0,0-3,3v1.55a3,3,0,0,0,3,3h5.86l.1,0a.38.38,0,0,1,.14.06l.09,0,.05,0,.1.12L28,36a.32.32,0,0,1,.06.16l0,.1A19.91,19.91,0,0,0,31,43.05l.06.12,0,0,0,.05a2.09,2.09,0,0,1,0,.23,1.07,1.07,0,0,1,0,.32l0,.06a.87.87,0,0,1-.16.23l-4,4a3,3,0,0,0,0,4.24l1.11,1.11a3,3,0,0,0,2.13.88,3,3,0,0,0,2.11-.88l4-4a.74.74,0,0,1,.29-.18.85.85,0,0,1,.31-.06,1.18,1.18,0,0,1,.27,0l.11.08h.07l0,0a19.45,19.45,0,0,0,2.32,1.28l0,1.86a22.24,22.24,0,0,1-2.19-1.08l-.5-.29-3.57,3.56a4.68,4.68,0,0,1-6.64,0l-1.1-1.1a4.72,4.72,0,0,1,0-6.64l3.57-3.56-.28-.5a21.72,21.72,0,0,1-2.14-5.15l-.15-.55h-5a4.71,4.71,0,0,1-4.7-4.69V30.94a4.71,4.71,0,0,1,4.7-4.7h5l.15-.55a21.9,21.9,0,0,1,2.14-5.15l.28-.49-3.57-3.58a4.71,4.71,0,0,1,0-6.63l1.11-1.11a4.72,4.72,0,0,1,6.63,0l3.57,3.58.49-.29a21.36,21.36,0,0,1,5.16-2.13l.55-.15v-5A4.71,4.71,0,0,1,47.82,0h1.54a4.72,4.72,0,0,1,4.71,4.7V9.75l.54.15A21.36,21.36,0,0,1,59.77,12l.48.29,3.57-3.57a4.71,4.71,0,0,1,6.64,0l1.11,1.1A4.75,4.75,0,0,1,72.9,13.53Z" transform="translate(-16.88)"/><path d="M59,22.34l-1.11,1.32A12.27,12.27,0,1,0,42.33,42.27l-1.09,1.32a14,14,0,0,1-1.55-22.66A14,14,0,0,1,59,22.34Z" transform="translate(-16.88)"/><path d="M59,22.34l-1.11,1.32A12.27,12.27,0,1,0,42.33,42.27l-1.09,1.32a14,14,0,0,1-1.55-22.66A14,14,0,0,1,59,22.34Z" transform="translate(-16.88)"/></g></g></g></svg>