<svg xmlns="http://www.w3.org/2000/svg" xmlns:xlink="http://www.w3.org/1999/xlink" viewBox="0 0 49.69 60"><defs><style>.cls-1{fill:none;}.cls-2{clip-path:url(#clip-path);}</style><clipPath id="clip-path" transform="translate(-24.16)"><rect class="cls-1" width="98" height="60"/></clipPath></defs><title>ecommerce-web-app-development</title><g id="Layer_2" data-name="Layer 2"><g id="ecommerce-web-app-development"><g class="cls-2"><path d="M73.84,24.35a3.94,3.94,0,0,0-1.38-3L72,21l.44-.39a3.94,3.94,0,0,0,1.38-3,4,4,0,0,0-4-4H67.07V5.15A5.15,5.15,0,0,0,61.93,0H43.84a5.15,5.15,0,0,0-5.13,5.15v7.92l-.87-.82a8,8,0,0,0-3.57-1.83,3.2,3.2,0,0,0-.63-.07,2.79,2.79,0,0,0-1.75.62,2.9,2.9,0,0,0-1.09,2.28V31l0,.1c-.53,1.22-3.12,7.57-2.29,13l0,.21-4.22,5.64a.64.64,0,0,0-.12.38v9.07a.61.61,0,0,0,.62.62h18.9a.62.62,0,0,0,.45-.2l4-4.37.17,0c1.54-.22,9.43-1.59,12.75-6.47l.15-.23h.68a5.15,5.15,0,0,0,5.14-5.14V41.92h2.77a4,4,0,0,0,4-4,3.94,3.94,0,0,0-1.38-3L72,34.52l.44-.38a4,4,0,0,0,0-6L72,27.74l.44-.38A4,4,0,0,0,73.84,24.35ZM46.73,1.24H59.05V2.88a1.64,1.64,0,0,1-1.64,1.64h-9a1.64,1.64,0,0,1-1.64-1.64ZM59,49.54c-3.28,3.2-9,4.31-10.69,4.58v0l-.46.06a.76.76,0,0,0-.4.2l-4,4.33h-18V50.5l4.26-5.69a.68.68,0,0,0,.11-.5C28.68,38.69,32,31.42,32,31.36a.66.66,0,0,0,.05-.25V13.22a1.64,1.64,0,0,1,.62-1.29,1.55,1.55,0,0,1,1-.36,2.07,2.07,0,0,1,.35,0c3.08.73,4.71,2.85,4.71,6.18V43.53a5.14,5.14,0,0,0,5.13,5.13h16Zm6.86-6a3.9,3.9,0,0,1-3.89,3.9H43.84A3.9,3.9,0,0,1,40,43.56V5.15a3.91,3.91,0,0,1,3.89-3.91h1.64V2.88a2.9,2.9,0,0,0,2.89,2.89h9a2.89,2.89,0,0,0,2.88-2.89V1.24h1.64a3.91,3.91,0,0,1,3.89,3.91Zm1.25-28.75h2.77a2.77,2.77,0,0,1,0,5.53H67.07Zm5.53,23.1a2.77,2.77,0,0,1-2.76,2.77H67.07V35.15h2.77A2.77,2.77,0,0,1,72.6,37.91Zm0-6.78a2.77,2.77,0,0,1-2.76,2.76H67.07V28.36h2.77A2.77,2.77,0,0,1,72.6,31.13Zm-2.76-4H67.07V21.58h2.77a2.77,2.77,0,0,1,0,5.54Z" transform="translate(-24.16)"/><path d="M73.84,24.35a3.94,3.94,0,0,0-1.38-3L72,21l.44-.39a3.94,3.94,0,0,0,1.38-3,4,4,0,0,0-4-4H67.07V5.15A5.15,5.15,0,0,0,61.93,0H43.84a5.15,5.15,0,0,0-5.13,5.15v7.92l-.87-.82a8,8,0,0,0-3.57-1.83,3.2,3.2,0,0,0-.63-.07,2.79,2.79,0,0,0-1.75.62,2.9,2.9,0,0,0-1.09,2.28V31l0,.1c-.53,1.22-3.12,7.57-2.29,13l0,.21-4.22,5.64a.64.64,0,0,0-.12.38v9.07a.61.61,0,0,0,.62.62h18.9a.62.62,0,0,0,.45-.2l4-4.37.17,0c1.54-.22,9.43-1.59,12.75-6.47l.15-.23h.68a5.15,5.15,0,0,0,5.14-5.14V41.92h2.77a4,4,0,0,0,4-4,3.94,3.94,0,0,0-1.38-3L72,34.52l.44-.38a4,4,0,0,0,0-6L72,27.74l.44-.38A4,4,0,0,0,73.84,24.35ZM46.73,1.24H59.05V2.88a1.64,1.64,0,0,1-1.64,1.64h-9a1.64,1.64,0,0,1-1.64-1.64ZM59,49.54c-3.28,3.2-9,4.31-10.69,4.58v0l-.46.06a.76.76,0,0,0-.4.2l-4,4.33h-18V50.5l4.26-5.69a.68.68,0,0,0,.11-.5C28.68,38.69,32,31.42,32,31.36a.66.66,0,0,0,.05-.25V13.22a1.64,1.64,0,0,1,.62-1.29,1.55,1.55,0,0,1,1-.36,2.07,2.07,0,0,1,.35,0c3.08.73,4.71,2.85,4.71,6.18V43.53a5.14,5.14,0,0,0,5.13,5.13h16Zm6.86-6a3.9,3.9,0,0,1-3.89,3.9H43.84A3.9,3.9,0,0,1,40,43.56V5.15a3.91,3.91,0,0,1,3.89-3.91h1.64V2.88a2.9,2.9,0,0,0,2.89,2.89h9a2.89,2.89,0,0,0,2.88-2.89V1.24h1.64a3.91,3.91,0,0,1,3.89,3.91Zm1.25-28.75h2.77a2.77,2.77,0,0,1,0,5.53H67.07Zm5.53,23.1a2.77,2.77,0,0,1-2.76,2.77H67.07V35.15h2.77A2.77,2.77,0,0,1,72.6,37.91Zm0-6.78a2.77,2.77,0,0,1-2.76,2.76H67.07V28.36h2.77A2.77,2.77,0,0,1,72.6,31.13Zm-2.76-4H67.07V21.58h2.77a2.77,2.77,0,0,1,0,5.54Z" transform="translate(-24.16)"/><path d="M55.41,19.25,51.56,32.06a.62.62,0,0,1-.6.45.52.52,0,0,1-.18,0,.61.61,0,0,1-.41-.77l3.84-12.82a.62.62,0,0,1,.6-.44l.18,0A.62.62,0,0,1,55.41,19.25Z" transform="translate(-24.16)"/><path d="M55.41,19.25,51.56,32.06a.62.62,0,0,1-.6.45.52.52,0,0,1-.18,0,.61.61,0,0,1-.41-.77l3.84-12.82a.62.62,0,0,1,.6-.44l.18,0A.62.62,0,0,1,55.41,19.25Z" transform="translate(-24.16)"/><path d="M47.94,29.31a.62.62,0,0,1-.45,1.05.53.53,0,0,1-.43-.18l-4.27-4.27a.58.58,0,0,1-.19-.44.56.56,0,0,1,.19-.43l4.27-4.27a.54.54,0,0,1,.43-.19.58.58,0,0,1,.44.19.66.66,0,0,1,.2.44.64.64,0,0,1-.19.44l-3.83,3.83Z" transform="translate(-24.16)"/><path d="M47.94,29.31a.62.62,0,0,1-.45,1.05.53.53,0,0,1-.43-.18l-4.27-4.27a.58.58,0,0,1-.19-.44.56.56,0,0,1,.19-.43l4.27-4.27a.54.54,0,0,1,.43-.19.58.58,0,0,1,.44.19.66.66,0,0,1,.2.44.64.64,0,0,1-.19.44l-3.83,3.83Z" transform="translate(-24.16)"/><path d="M63,25.9l-4.27,4.27a.65.65,0,0,1-.45.18.62.62,0,0,1-.43-.18.6.6,0,0,1,0-.87l3.82-3.84-3.82-3.82a.6.6,0,0,1,0-.87.56.56,0,0,1,.43-.19.58.58,0,0,1,.44.19l.35.35,0,0L63,25A.6.6,0,0,1,63,25.9Z" transform="translate(-24.16)"/><path d="M63,25.9l-4.27,4.27a.65.65,0,0,1-.45.18.62.62,0,0,1-.43-.18.6.6,0,0,1,0-.87l3.82-3.84-3.82-3.82a.6.6,0,0,1,0-.87.56.56,0,0,1,.43-.19.58.58,0,0,1,.44.19l.35.35,0,0L63,25A.6.6,0,0,1,63,25.9Z" transform="translate(-24.16)"/></g></g></g></svg>