<svg xmlns="http://www.w3.org/2000/svg" xmlns:xlink="http://www.w3.org/1999/xlink" viewBox="0 0 77.52 60"><defs><style>.cls-1{fill:none;}.cls-2{clip-path:url(#clip-path);}</style><clipPath id="clip-path" transform="translate(-10.24)"><rect class="cls-1" width="98" height="60"/></clipPath></defs><title>multi-vendor-marketplace-development</title><g id="Layer_2" data-name="Layer 2"><g id="multi-vendor-marketplace-development"><g class="cls-2"><path d="M87.58,17,78.87,2.62A5.44,5.44,0,0,0,74.23,0H23.77a5.44,5.44,0,0,0-4.64,2.62L10.42,17l-.18.64v7c0,3.8,3.93,6.9,8.75,6.9.19,0,.36,0,.54,0V54.58A5.42,5.42,0,0,0,25,60h48.1a5.42,5.42,0,0,0,5.42-5.42V31.52c.18,0,.35,0,.54,0,4.82,0,8.75-3.1,8.75-6.9v-7ZM76.73,3.91l7.56,12.52H72.38l-5-13.93h6.9A2.94,2.94,0,0,1,76.73,3.91ZM57.61,16.43,55.93,2.5h8.74l5,13.93Zm-2.52,0H42.91L44.59,2.5h8.82Zm-14.7,0H28.28l5-13.93h8.74Zm-12.65,2.5H40.25v5.72c0,2.38-2.87,4.4-6.25,4.4s-6.26-2-6.26-4.4Zm15,0h12.5v5.72c0,2.38-2.86,4.4-6.25,4.4s-6.25-2-6.25-4.4Zm15,0H70.26v5.72c0,2.38-2.87,4.4-6.26,4.4s-6.25-2-6.25-4.4Zm-36.48-15a2.94,2.94,0,0,1,2.5-1.41h6.9L25.61,16.43H13.71ZM12.74,24.65V18.93h12.5v5.72c0,2-2,3.75-4.7,4.25a7.55,7.55,0,0,1-1.55.15C15.6,29.05,12.74,27,12.74,24.65ZM42.23,57.5H30.56V41.15a1.25,1.25,0,0,1,1.25-1.25H41a1.25,1.25,0,0,1,1.25,1.25Zm30.82,0H44.73V41.15A3.75,3.75,0,0,0,41,37.4H31.81a3.75,3.75,0,0,0-3.75,3.75V57.5H25A2.92,2.92,0,0,1,22,54.58V31.11A8.5,8.5,0,0,0,26.5,28.2,9.45,9.45,0,0,0,34,31.55a9.42,9.42,0,0,0,7.5-3.37A9.4,9.4,0,0,0,49,31.55a9.4,9.4,0,0,0,7.5-3.37,10.05,10.05,0,0,0,15,0A8.5,8.5,0,0,0,76,31.11V54.58A2.92,2.92,0,0,1,73.05,57.5Zm6-28.45a7.89,7.89,0,0,1-1.57-.15c-2.71-.5-4.68-2.29-4.68-4.25V18.93h12.5v5.72C85.26,27,82.4,29.05,79,29.05Z" transform="translate(-10.24)"/><path d="M67.25,37.4H53.45a3.75,3.75,0,0,0-3.75,3.75V46.2A3.75,3.75,0,0,0,53.45,50h13.8A3.76,3.76,0,0,0,71,46.2V41.15A3.76,3.76,0,0,0,67.25,37.4Zm-15,8.8V41.15a1.25,1.25,0,0,1,1.25-1.25H59.1v7.55H53.45A1.25,1.25,0,0,1,52.2,46.2Zm16.3,0a1.25,1.25,0,0,1-1.25,1.25H61.6V39.9h5.65a1.25,1.25,0,0,1,1.25,1.25Z" transform="translate(-10.24)"/></g></g></g></svg>