<svg xmlns="http://www.w3.org/2000/svg" xmlns:xlink="http://www.w3.org/1999/xlink" viewBox="0 0 58.06 60"><defs><style>.cls-1{fill:none;}.cls-2{clip-path:url(#clip-path);}</style><clipPath id="clip-path" transform="translate(-19.97)"><rect class="cls-1" width="98" height="60"/></clipPath></defs><title>branding</title><g id="Layer_2" data-name="Layer 2"><g id="Layer_1-2" data-name="Layer 1"><g class="cls-2"><path d="M49,29.1h2.85l1.67,2.3a1.18,1.18,0,0,0,.95.49h.19a1.19,1.19,0,0,0,.94-.8l.88-2.71,2.71-.88a1.21,1.21,0,0,0,.8-.94,1.17,1.17,0,0,0-.47-1.14l-2.3-1.68V20.88a1.17,1.17,0,0,0-1.87-.95L53,21.61l-2.71-.88a1.18,1.18,0,0,0-1.49,1.49l.88,2.7L48,27.23A1.17,1.17,0,0,0,49,29.1Zm2.19-3.4a1.18,1.18,0,0,0,.16-1.06l-.67-2.06,2.07.67a1.16,1.16,0,0,0,1.05-.17l1.76-1.28V24a1.18,1.18,0,0,0,.49,1l1.76,1.28-2.07.67a1.18,1.18,0,0,0-.76.76l-.67,2.06L53,28a1.16,1.16,0,0,0-1-.49H49.87ZM36.26,13.12,36,20.79a2.58,2.58,0,0,0,.75,1.92L56.18,42.13a2.56,2.56,0,0,0,1.83.75,2.61,2.61,0,0,0,1.83-.75L70.2,31.77a2.61,2.61,0,0,0,0-3.66L50.78,8.69a2.54,2.54,0,0,0-1.91-.76l-5.21.17a10.93,10.93,0,0,0-1.31-3.44A10.19,10.19,0,0,0,38.46.71,4.54,4.54,0,0,0,34,.5C31.46,2,31.2,6.05,33.39,9.83a11,11,0,0,0,2.87,3.29ZM48.92,9.57h0a.85.85,0,0,1,.65.28L69,29.27a.92.92,0,0,1,0,1.32L58.68,41a.94.94,0,0,1-1.32,0L37.93,21.54a.86.86,0,0,1-.28-.69l.33-10a.92.92,0,0,1,.9-.91l3.29-.11a.86.86,0,0,1,0,.16,4.18,4.18,0,0,1-.07.72,2.73,2.73,0,1,0,1.44,1A6.13,6.13,0,0,0,43.82,10V9.74Zm-8.51,3.2a1.1,1.1,0,0,1,.18-.26,1.09,1.09,0,0,1,.77-.31h0a2.33,2.33,0,0,1-.46.37,2.22,2.22,0,0,1-.53.19ZM41.77,14a3,3,0,0,0,.65-.5,1,1,0,0,1-.29.54,1.06,1.06,0,0,1-1.1.26,3.19,3.19,0,0,0,.74-.3Zm-7-12.09a3,3,0,0,1,2.89.24,8.7,8.7,0,0,1,3.24,3.32A9.88,9.88,0,0,1,42,8.15l-3.16.1a2.58,2.58,0,0,0-2.5,2.5V11a9.83,9.83,0,0,1-1.51-2c-1.67-2.88-1.68-6.12,0-7.09ZM77.63,42.25s0,0,0,0c-.59-1-2.57-3-8.19-1l-16,6a4.45,4.45,0,0,0-.59-2.81,6.54,6.54,0,0,0-5.89-3l-12.17,0h0a8.19,8.19,0,0,0-5.51,2.13l-1.11,0a2,2,0,0,0-2-2H22a2,2,0,0,0-2,2V58a2,2,0,0,0,2,2h4.14a2,2,0,0,0,2-2v-.06l19.45.11a15.62,15.62,0,0,0,8-1.72l19.61-9.21a4.77,4.77,0,0,0,2.69-2.65,2.77,2.77,0,0,0-.28-2.22ZM26.46,58a.35.35,0,0,1-.35.35H22a.35.35,0,0,1-.35-.35V43.57a.36.36,0,0,1,.35-.36h4.14a.36.36,0,0,1,.35.36ZM76.33,44a3.34,3.34,0,0,1-1.82,1.66l-19.6,9.2a14.07,14.07,0,0,1-7.34,1.57l-19.46-.12V45.21l1.46,0a.84.84,0,0,0,.56-.24,6.54,6.54,0,0,1,4.59-1.88h0l12.18,0a4.78,4.78,0,0,1,4.46,2.21,2.45,2.45,0,0,1,.17,2.38,1.79,1.79,0,0,1-1.65.73H41.05a.82.82,0,0,0,0,1.64h8.81a4.06,4.06,0,0,0,1.79-.34L70,42.79c3.64-1.34,5.59-.73,6.2.28a1,1,0,0,1,.12.9Z" transform="translate(-19.97)"/></g></g></g></svg>