<svg xmlns="http://www.w3.org/2000/svg" xmlns:xlink="http://www.w3.org/1999/xlink" viewBox="0 0 61.47 60"><defs><style>.cls-1,.cls-3{fill:none;}.cls-2{clip-path:url(#clip-path);}.cls-3{stroke:#000;stroke-miterlimit:10;stroke-width:0.5px;}</style><clipPath id="clip-path" transform="translate(-18.27)"><rect class="cls-1" width="98" height="60"/></clipPath></defs><title>packaging-design</title><g id="Layer_2" data-name="Layer 2"><g id="packaging-design"><g class="cls-2"><path class="cls-3" d="M30.65,14.34V45.63H18.52V14.34Z" transform="translate(-18.27)"/><path class="cls-3" d="M44.41,14.34V45.63H32.28V14.34Z" transform="translate(-18.27)"/><path class="cls-3" d="M58.17,14.34V45.63H46V14.34Z" transform="translate(-18.27)"/><path class="cls-3" d="M71.93,14.34V45.63H59.8V14.34Z" transform="translate(-18.27)"/><path class="cls-3" d="M73.56,45.62a6.25,6.25,0,0,0,5.92-6.24V20.58a6.25,6.25,0,0,0-5.92-6.23Z" transform="translate(-18.27)"/><path class="cls-3" d="M58.6,4.06v9.32H45.9V4.06Z" transform="translate(-18.27)"/><path class="cls-3" d="M58.6,46.56v9.36H45.9V46.56Z" transform="translate(-18.27)"/><path class="cls-3" d="M45.92,3H58.58a3,3,0,0,0-3-2.71H49a3.05,3.05,0,0,0-3,2.71Z" transform="translate(-18.27)"/><path class="cls-3" d="M58.58,57H45.92a3,3,0,0,0,3,2.71h6.6a3.05,3.05,0,0,0,3-2.71Z" transform="translate(-18.27)"/></g></g></g></svg>