<svg xmlns="http://www.w3.org/2000/svg" xmlns:xlink="http://www.w3.org/1999/xlink" viewBox="0 0 57.1 60"><defs><style>.cls-1{fill:none;}.cls-2{clip-path:url(#clip-path);}</style><clipPath id="clip-path" transform="translate(-20.45 0)"><rect class="cls-1" width="98" height="60"/></clipPath></defs><title>print-design</title><g id="Layer_2" data-name="Layer 2"><g id="Layer_5" data-name="Layer 5"><g class="cls-2"><path d="M24.58,27.37l11.61,6.11a.48.48,0,0,0,.71-.42V17.57a.49.49,0,0,0-.26-.43L25,11a.49.49,0,0,0-.71.43V26.94A.48.48,0,0,0,24.58,27.37Zm.71-15.11,10.65,5.6V32.25l-10.65-5.6ZM36.85,38.12a.49.49,0,0,1-.66.2l-7.76-4.08a.49.49,0,0,1,.45-.86l7.76,4.09A.48.48,0,0,1,36.85,38.12Zm0,2.9a.5.5,0,0,1-.66.21L24.58,35.12a.49.49,0,0,1,.45-.86l11.61,6.11A.48.48,0,0,1,36.85,41Zm0,2.91a.49.49,0,0,1-.66.2L24.58,38a.48.48,0,0,1-.2-.66.49.49,0,0,1,.65-.2l11.61,6.11A.5.5,0,0,1,36.85,43.93Zm0,2.9a.49.49,0,0,1-.66.2L24.58,40.92a.48.48,0,0,1,.45-.85l11.61,6.11A.48.48,0,0,1,36.85,46.83Zm0,2.9a.5.5,0,0,1-.66.21L24.58,43.83a.48.48,0,0,1-.2-.66A.47.47,0,0,1,25,43l11.61,6.11A.48.48,0,0,1,36.85,49.73ZM77,9.79,58.64.11h0a1,1,0,0,0-.9,0L39.81,9.55,21.87.11a1,1,0,0,0-.95,0,1,1,0,0,0-.47.83V49.35a1,1,0,0,0,.52.86l18.39,9.68a1,1,0,0,0,.45.11.88.88,0,0,0,.44-.12h0l17.93-9.44,17.94,9.44A1,1,0,0,0,77.55,59V10.65A1,1,0,0,0,77,9.79ZM38.84,57.43,22.39,48.77V2.57l16.45,8.66Zm18.39-8.66L40.77,57.43V11.23L57.23,2.57Zm18.38,8.66L59.16,48.77V2.57l16.45,8.66Zm-2-19.31a.48.48,0,0,1-.65.2l-7.76-4.08a.5.5,0,0,1-.21-.66.5.5,0,0,1,.66-.2l7.76,4.09A.47.47,0,0,1,73.62,38.12ZM61.15,34.46a.48.48,0,0,1,.66-.2l11.61,6.11a.48.48,0,1,1-.45.85L61.36,35.11A.48.48,0,0,1,61.15,34.46Zm0,2.9a.5.5,0,0,1,.66-.2l11.61,6.11a.48.48,0,0,1,.2.66.49.49,0,0,1-.65.2L61.36,38A.5.5,0,0,1,61.15,37.36Zm0,2.91a.5.5,0,0,1,.66-.21l11.61,6.11a.48.48,0,0,1,.2.66A.47.47,0,0,1,73,47L61.36,40.92A.48.48,0,0,1,61.15,40.27Zm12.47,9.46a.48.48,0,0,1-.65.21L61.36,43.83a.5.5,0,0,1-.21-.66.48.48,0,0,1,.66-.2l11.61,6.11A.47.47,0,0,1,73.62,49.73ZM65,13.26a.5.5,0,0,1,.66-.2l7.76,4.08a.48.48,0,0,1,.2.66A.48.48,0,0,1,73,18l-7.76-4.08A.5.5,0,0,1,65,13.26Zm-3.85.88a.48.48,0,0,1,.66-.2l11.61,6.11a.48.48,0,1,1-.45.85L61.36,14.79A.48.48,0,0,1,61.15,14.14Zm0,2.9a.49.49,0,0,1,.66-.2L73.42,23a.47.47,0,0,1,.2.65.48.48,0,0,1-.65.21L61.36,17.69A.48.48,0,0,1,61.15,17Zm0,2.9a.5.5,0,0,1,.66-.2l11.61,6.11a.49.49,0,0,1-.45.86L61.36,20.6A.5.5,0,0,1,61.15,19.94Zm0,2.91a.48.48,0,0,1,.66-.2l11.61,6.11a.47.47,0,0,1,.2.65.48.48,0,0,1-.65.2L61.36,23.5A.48.48,0,0,1,61.15,22.85Zm-5.9,8.8a.47.47,0,0,1-.2.65l-7.76,4.09a.49.49,0,0,1-.45-.86l7.76-4.08A.47.47,0,0,1,55.25,31.65ZM42.77,41a.47.47,0,0,1,.2-.65l11.61-6.11a.5.5,0,0,1,.66.2.5.5,0,0,1-.21.66L43.42,41.23A.48.48,0,0,1,42.77,41Zm0,2.91a.48.48,0,0,1,.2-.66l11.61-6.11a.5.5,0,0,1,.66.2A.5.5,0,0,1,55,38L43.42,44.13A.48.48,0,0,1,42.77,43.93Zm0,2.9a.47.47,0,0,1,.2-.65l11.61-6.11a.48.48,0,1,1,.45.85L43.42,47A.48.48,0,0,1,42.77,46.83Zm12.46-3.66a.47.47,0,0,1-.2.65L43.42,49.93a.48.48,0,0,1-.45-.85L54.58,43A.47.47,0,0,1,55.23,43.17ZM46.64,15.86a.47.47,0,0,1,.2-.65l7.76-4.09a.5.5,0,0,1,.66.21.48.48,0,0,1-.21.65l-7.76,4.08A.47.47,0,0,1,46.64,15.86ZM42.77,20.7a.47.47,0,0,1,.2-.65l11.61-6.11a.48.48,0,1,1,.45.85L43.42,20.9A.47.47,0,0,1,42.77,20.7Zm0,2.9A.47.47,0,0,1,43,23l11.61-6.11a.5.5,0,0,1,.66.2.5.5,0,0,1-.21.66L43.42,23.81A.48.48,0,0,1,42.77,23.6Zm0,2.91a.48.48,0,0,1,.2-.66l11.61-6.11a.5.5,0,0,1,.66.21.49.49,0,0,1-.21.65L43.42,26.71A.49.49,0,0,1,42.77,26.51Zm0,2.9a.47.47,0,0,1,.2-.65l11.61-6.11a.48.48,0,1,1,.45.85L43.42,29.61A.47.47,0,0,1,42.77,29.41Z" transform="translate(-20.45 0)"/></g></g></g></svg>