<svg xmlns="http://www.w3.org/2000/svg" xmlns:xlink="http://www.w3.org/1999/xlink" viewBox="0 0 61.11 60"><defs><style>.cls-1{fill:none;}.cls-2{clip-path:url(#clip-path);}</style><clipPath id="clip-path" transform="translate(-18.44)"><rect class="cls-1" width="98" height="60"/></clipPath></defs><title>ui-ux-design</title><g id="Layer_2" data-name="Layer 2"><g id="Layer_3" data-name="Layer 3"><g class="cls-2"><path d="M51.79,4.41H43.66a.83.83,0,1,0,0,1.65h8.13a.83.83,0,1,0,0-1.65Z" transform="translate(-18.44)"/><path d="M75.27,13H67.35V5.54A5.54,5.54,0,0,0,61.82,0H33.64a5.54,5.54,0,0,0-5.53,5.54V9.62s0,0,0,0v3.23a.83.83,0,0,0,1.66,0v-2.4H65.68v2.57h-15a4.28,4.28,0,0,0-4.28,4.28V41.94a4.28,4.28,0,0,0,4.28,4.28h15v2.36H29.78v-7.1a.83.83,0,0,0-1.66,0v13A5.54,5.54,0,0,0,33.65,60H61.83a5.08,5.08,0,0,0,.92-.08l-.15-.81.3.79a4,4,0,0,0,.52-.13A5.29,5.29,0,0,0,66,58.13c.09-.1.18-.19.27-.31a7.43,7.43,0,0,0,.43-.68l.12-.22a6.58,6.58,0,0,0,.42-1.17c0-.16.06-.31.08-.48v0a2.33,2.33,0,0,0,0-.38.92.92,0,0,0,0-.16h0V49.49s0-.05,0-.08a.25.25,0,0,0,0-.07V46.23h7.93A4.28,4.28,0,0,0,79.56,42V17.32A4.3,4.3,0,0,0,75.27,13ZM29.77,8.81V5.54a3.88,3.88,0,0,1,3.87-3.89H61.82a3.88,3.88,0,0,1,3.87,3.89V8.82H29.77Zm35.9,45.83v.13a.91.91,0,0,1,0,.23s0,0,0,.07a2.08,2.08,0,0,1,0,.3,4.31,4.31,0,0,1-.31.83.47.47,0,0,1,0,.1.47.47,0,0,0,0,.1c-.09.16-.18.29-.27.42l-.15.17a3.73,3.73,0,0,1-1.82,1.18l-.34.09-.16,0a3.8,3.8,0,0,1-.62.05H33.64a3.88,3.88,0,0,1-3.87-3.88V50.22h35.9v4.42ZM77.89,41.93a2.63,2.63,0,0,1-2.62,2.62H50.67a2.63,2.63,0,0,1-2.62-2.62V17.32a2.63,2.63,0,0,1,2.62-2.62h24.6a2.63,2.63,0,0,1,2.62,2.62Z" transform="translate(-18.44)"/><path d="M74.65,17.12H51.28a.82.82,0,0,0-.82.82v6a.82.82,0,0,0,.82.82H74.65a.82.82,0,0,0,.82-.82v-6A.82.82,0,0,0,74.65,17.12Zm-.83,6H52.11V18.77H73.82Z" transform="translate(-18.44)"/><path d="M74.65,26.51H66.52a.84.84,0,0,0-.83.83v6a.84.84,0,0,0,.83.83h8.13a.83.83,0,0,0,.82-.83v-6A.83.83,0,0,0,74.65,26.51Zm-.83,6H67.35V28.17h6.47Z" transform="translate(-18.44)"/><path d="M59.41,26.51H51.28a.83.83,0,0,0-.82.83v6a.83.83,0,0,0,.82.83h8.13a.83.83,0,0,0,.82-.83v-6A.83.83,0,0,0,59.41,26.51Zm-.83,6H52.11V28.17h6.47Z" transform="translate(-18.44)"/><path d="M29.88,32.77h0a5.47,5.47,0,0,0-.07-10.94h-.06A5.47,5.47,0,0,0,26,31.21a5.41,5.41,0,0,0,3.82,1.56ZM26,27.34a3.81,3.81,0,0,1,3.77-3.86h0a3.82,3.82,0,0,1,.05,7.64A3.84,3.84,0,0,1,26,27.34Z" transform="translate(-18.44)"/><path d="M29.15,38.53l1.58,0a2,2,0,0,0,1.85-1.41l.34-1.2A10.86,10.86,0,0,0,34,35.45l1.1.59a2,2,0,0,0,2.3-.37l1.11-1.14a2,2,0,0,0,.31-2.31l-.61-1.09a8.84,8.84,0,0,0,.4-1s0,0,0-.06l1.2-.37a2,2,0,0,0,1.37-1.88l0-1.58a2,2,0,0,0-1.42-1.85L38.53,24s0-.08,0-.11a7.29,7.29,0,0,0-.41-1l.58-1.1a2,2,0,0,0-.35-2.3l-1.12-1.07a2,2,0,0,0-2.32-.3l-1.13.64-1-.4-.38-1.23a2,2,0,0,0-1.87-1.38l-1.59,0A2,2,0,0,0,27,17.25l-.34,1.21a7.06,7.06,0,0,0-1.05.45l-1.1-.59a2,2,0,0,0-2.31.35l-1.1,1.13a2,2,0,0,0-.3,2.32l.6,1.07A9.56,9.56,0,0,0,21,24.26l-1.2.37a2,2,0,0,0-1.37,1.88l0,1.59a2,2,0,0,0,1.41,1.84l1.21.34c.13.36.29.72.45,1.06L21,32.43a2,2,0,0,0,.36,2.31l1.12,1.11a1.92,1.92,0,0,0,2.3.3l1.09-.61a10.77,10.77,0,0,0,1.06.44l.37,1.19a2,2,0,0,0,1.86,1.36Zm-.31-1.85-.49-1.61a.83.83,0,0,0-.57-.55,7.72,7.72,0,0,1-1.57-.64.79.79,0,0,0-.4-.1.83.83,0,0,0-.4.11l-1.48.83a.29.29,0,0,1-.34,0l-1.13-1.1a.29.29,0,0,1-.05-.35l.79-1.48a.9.9,0,0,0,0-.8,6.84,6.84,0,0,1-.68-1.57.81.81,0,0,0-.56-.56l-1.63-.46a.31.31,0,0,1-.21-.27l0-1.59a.29.29,0,0,1,.2-.28l1.62-.5a.83.83,0,0,0,.55-.57,7.18,7.18,0,0,1,.64-1.58.81.81,0,0,0,0-.8l-.83-1.46a.29.29,0,0,1,0-.35l1.1-1.13a.29.29,0,0,1,.35-.05l1.48.8a.81.81,0,0,0,.8,0,8.37,8.37,0,0,1,1.56-.68.8.8,0,0,0,.55-.56l.48-1.63a.29.29,0,0,1,.27-.21l1.59,0a.3.3,0,0,1,.28.21l.49,1.61a.8.8,0,0,0,.48.52l1.76.7a.78.78,0,0,0,.7-.05l1.48-.82a.26.26,0,0,1,.34.05l1.14,1.11a.3.3,0,0,1,0,.34l-.79,1.49a.8.8,0,0,0,0,.79,8.37,8.37,0,0,1,.51,1.1c0,.15.11.31.16.47a.81.81,0,0,0,.56.55l1.63.46a.31.31,0,0,1,.22.28l0,1.58a.3.3,0,0,1-.21.29l-1.61.49-.11,0a.8.8,0,0,0-.45.53c0,.14-.08.26-.12.39a8.24,8.24,0,0,1-.51,1.18.82.82,0,0,0,0,.79L37.34,33a.29.29,0,0,1-.05.34L36.2,34.52a.27.27,0,0,1-.34,0l-1.5-.8a.84.84,0,0,0-.8,0,7.81,7.81,0,0,1-1.55.67.82.82,0,0,0-.56.57L31,36.66a.31.31,0,0,1-.28.21H29.13A.28.28,0,0,1,28.84,36.68Z" transform="translate(-18.44)"/><path d="M59.41,36.06H51.28a.82.82,0,0,0-.82.82.83.83,0,0,0,.82.83h8.13a.83.83,0,0,0,.82-.83A.82.82,0,0,0,59.41,36.06Z" transform="translate(-18.44)"/><path d="M56.78,39.63H51.29a.83.83,0,0,0,0,1.65h5.49a.83.83,0,1,0,0-1.65Z" transform="translate(-18.44)"/><path d="M74.65,36.06H66.52a.83.83,0,0,0-.83.82.84.84,0,0,0,.83.83h8.13a.83.83,0,0,0,.82-.83A.82.82,0,0,0,74.65,36.06Z" transform="translate(-18.44)"/><path d="M72,39.63H66.52a.83.83,0,1,0,0,1.65H72a.83.83,0,0,0,.83-.83A.82.82,0,0,0,72,39.63Z" transform="translate(-18.44)"/><path d="M47.73,51.57a2.72,2.72,0,1,0,2.72,2.71A2.72,2.72,0,0,0,47.73,51.57Zm0,3.78a1.07,1.07,0,0,1-1.06-1.07,1.06,1.06,0,1,1,2.12,0A1.08,1.08,0,0,1,47.73,55.35Z" transform="translate(-18.44)"/></g></g></g></svg>