<svg xmlns="http://www.w3.org/2000/svg" viewBox="0 0 90 34"><defs><style>.cls-1{fill:#092f5c;}.cls-2{fill:#fff;}</style></defs><title>bootstrap-foundation</title><g id="Layer_2" data-name="Layer 2"><g id="Layer_1-2" data-name="Layer 1"><rect class="cls-1" width="90" height="34" rx="17" ry="17"/><polygon class="cls-2" points="50.72 15.54 45.83 15.54 45.83 10.73 44.17 10.73 44.17 15.54 39.28 15.54 39.28 17.09 44.17 17.09 44.17 21.87 45.83 21.87 45.83 17.09 50.72 17.09 50.72 15.54"/></g><g id="foundation"><path class="cls-2" d="M73.9,21.67a.9.9,0,0,1,.24-.77.81.81,0,0,1-.54-.59c-.17-.62-.33-1.25-.5-1.87,0-.12,0-.18.11-.21s.18,0,.22-.11a4.89,4.89,0,0,1-.56-.46,14.51,14.51,0,0,0-1.23-1.25c-.1-.08-.08-.18-.08-.29a3.44,3.44,0,0,1,.52-2.44.84.84,0,0,0-.52.24c0-.34,0-.64,0-.93a.35.35,0,0,1,.28-.41,2.27,2.27,0,0,0,1.62-1.8,1.44,1.44,0,0,0,0-.55,3.9,3.9,0,0,1-1.78.95,3.37,3.37,0,0,1,.69-1.39c-.14-.08-.25,0-.38,0a3.58,3.58,0,0,1,.47-1.58,2.43,2.43,0,0,0-2.2.44,1.37,1.37,0,0,1,.42-1.21,2.64,2.64,0,0,0-1.05,0c-.25.07-.26,0-.24-.23A2.26,2.26,0,0,1,69.82,6a4.82,4.82,0,0,0-3.5,1.65,4,4,0,0,1,.06-1.29,5.08,5.08,0,0,0-2.72,2.89,4.83,4.83,0,0,1-.2-1,6.8,6.8,0,0,0-1,2.64c0,.25-.09.33-.32.22l-.3-.1a4.07,4.07,0,0,1-1.28-.81c0,.09,0,.13,0,.18a2.32,2.32,0,0,0,1.65,2.19c.1,0,.26,0,.27.18,0,.63.09,1.26.14,1.89-.15,0-.23-.14-.37-.08a2.63,2.63,0,0,1,.23.72c0,.19.1.42-.27.35l.15.23c.25.43.22.51-.13.85a1.05,1.05,0,0,1-.75.34c.28.31.28.31,0,.61a11.37,11.37,0,0,0-.91,1.14c.19.06.34-.1.5,0A.21.21,0,0,1,61,19a4.27,4.27,0,0,0-.63,1.49c0,.14,0,.26.17.19a.48.48,0,0,1,.18,0,4.48,4.48,0,0,0-.32,1.13c0,.28-.07.54-.46.64.34.17.3.38.24.64s-.14.69-.2,1c.27-.26.36-.08.46.14a1.94,1.94,0,0,0,1.44,1.19c.15,0,.16.09.14.21s-.09.18-.22.11-.08,0-.1.05c.25.19.16.4,0,.52-.58.34-.52.93-.68,1.49a5.79,5.79,0,0,1,.94-.14c.16,0,.28,0,.24.21,0,.06,0,.13.1.11.47-.08.94.05,1.4,0,.09,0,.21,0,.23-.14s.15-.16.27-.16a4.42,4.42,0,0,1,.63,0c.17,0,.22,0,.24-.2a6.24,6.24,0,0,1,.59-1.88c.1-.19.18-.28.43-.21a4.47,4.47,0,0,0,2.46,0c.19-.05.24,0,.31.16a5.76,5.76,0,0,1,.59,1.9c0,.13,0,.25.2.24s.62-.14.82.21c0,0,.08,0,.12,0A5.33,5.33,0,0,1,72,28c.13,0,.23,0,.21-.16s.07-.18.2-.16l.84.1c-.16-.51-.09-1.06-.59-1.39-.25-.16-.41-.34-.12-.64-.31.05-.29.05-.35-.17s.14-.19.25-.22a1.3,1.3,0,0,0,.88-.45s0-.1.09-.06c.19.22.2-.05.24-.11a1.65,1.65,0,0,0,.22-.69c0-.07,0-.19.06-.19s.15-.18.15-.29A14.6,14.6,0,0,0,73.9,21.67Z"/></g><g id="bootstrap"><path class="cls-2" d="M30.33,6H15.67A3.68,3.68,0,0,0,12,9.67V24.33A3.68,3.68,0,0,0,15.67,28H30.33A3.68,3.68,0,0,0,34,24.33V9.67A3.68,3.68,0,0,0,30.33,6Zm-2,15.45a2.87,2.87,0,0,1-.85,1.13,4.23,4.23,0,0,1-1.47.75,7.12,7.12,0,0,1-2.14.28H18V10.78h6.24a4.44,4.44,0,0,1,2.77.79A2.82,2.82,0,0,1,28,14a2.9,2.9,0,0,1-.47,1.66,3,3,0,0,1-1.36,1.06v0A2.81,2.81,0,0,1,28,17.84a3.72,3.72,0,0,1,.6,2.18,3.6,3.6,0,0,1-.27,1.4l0,0Zm-2.55-3.16a2.21,2.21,0,0,0-1.58-.51h-4v4h4a2.22,2.22,0,0,0,1.58-.53,2,2,0,0,0,.57-1.5,1.83,1.83,0,0,0-.57-1.46Zm-.55-2.59a1.62,1.62,0,0,0,.54-1.32A1.68,1.68,0,0,0,25.29,13a2.18,2.18,0,0,0-1.4-.4H20.22v3.54h3.67a2,2,0,0,0,1.34-.45Z"/></g></g></svg>