<svg xmlns="http://www.w3.org/2000/svg" viewBox="0 0 90 34"><defs><style>.cls-1{fill:#092f5c;}.cls-2{fill:#fff;}.cls-3{fill:#fefefe;}</style></defs><title>bootstrap-sass_1</title><g id="Layer_2" data-name="Layer 2"><g id="Layer_1-2" data-name="Layer 1"><rect class="cls-1" width="90" height="34" rx="17" ry="17"/><polygon class="cls-2" points="50.72 15.54 45.83 15.54 45.83 10.73 44.17 10.73 44.17 15.54 39.28 15.54 39.28 17.09 44.17 17.09 44.17 21.87 45.83 21.87 45.83 17.09 50.72 17.09 50.72 15.54"/></g><g id="sass"><path class="cls-3" d="M65,20.39a2.5,2.5,0,0,1-1.55,3.14c-1.07.35-1-.34-1-.6C62.57,22.2,63.17,21.3,65,20.39Z"/><path class="cls-3" d="M74.74,6H59.34A3.3,3.3,0,0,0,56,9.3V24.7a3.3,3.3,0,0,0,3.3,3.3h15.4A3.3,3.3,0,0,0,78,24.7V9.3A3.3,3.3,0,0,0,74.74,6Zm-1.17,5.8c-.3,4.56-7.26,5.54-8.12,3.4-.17-.48.13-.35.22-.18,1.63,1.55,6.27-.25,6.78-2.92.35-1.76-2.36-2.53-6.18-.6s-4,3.48-4.09,4.08c-.08,1.63,1.85,2.32,3.27,3.83,2.45-.65,4.43.21,4.43,2.06a1.38,1.38,0,0,1-.95,1.24c-.3.09-.6,0-.13-.17s1.16-1.24-.17-2.19A3.7,3.7,0,0,0,65.79,20a3.57,3.57,0,0,1-1.29,4c-.94.6-3.17,1.24-3.26-.82v-.05c0-1.48,1.86-2.62,3.35-3.39-1.16-.9-3.74-2.27-4-4s2.41-4.6,6.54-6C70.18,8.75,73.66,9.39,73.57,11.8Z"/></g><g id="bootstrap"><path class="cls-3" d="M30.33,6H15.67A3.68,3.68,0,0,0,12,9.67V24.33A3.68,3.68,0,0,0,15.67,28H30.33A3.68,3.68,0,0,0,34,24.33V9.67A3.68,3.68,0,0,0,30.33,6Zm-2,15.45a2.87,2.87,0,0,1-.85,1.13,4.23,4.23,0,0,1-1.47.75,7.12,7.12,0,0,1-2.14.28H18V10.78h6.24a4.44,4.44,0,0,1,2.77.79A2.82,2.82,0,0,1,28,14a2.9,2.9,0,0,1-.47,1.66,3,3,0,0,1-1.36,1.06v0A2.81,2.81,0,0,1,28,17.84a3.72,3.72,0,0,1,.6,2.18,3.6,3.6,0,0,1-.27,1.4l0,0Zm-2.55-3.16a2.21,2.21,0,0,0-1.58-.51h-4v4h4a2.22,2.22,0,0,0,1.58-.53,2,2,0,0,0,.57-1.5,1.83,1.83,0,0,0-.57-1.46Zm-.55-2.59a1.62,1.62,0,0,0,.54-1.32A1.68,1.68,0,0,0,25.29,13a2.18,2.18,0,0,0-1.4-.4H20.22v3.54h3.67a2,2,0,0,0,1.34-.45Z"/></g></g></svg>