<svg xmlns="http://www.w3.org/2000/svg" viewBox="0 0 45 34"><defs><style>.cls-1{fill:#092f5c;}.cls-2{fill:#fefefe;}</style></defs><title>creative-suit</title><g id="Layer_2" data-name="Layer 2"><g id="Layer_1-2" data-name="Layer 1"><rect class="cls-1" width="45" height="34" rx="7.72" ry="7.72"/></g><g id="adobe_creartive_suit" data-name="adobe creartive suit"><path class="cls-2" d="M25.05,8.89,24.41,9a7.57,7.57,0,0,0-2.6.76,8.05,8.05,0,0,0-2.25,1.63.13.13,0,0,1-.13,0,8,8,0,0,0-1.38-.06,6.79,6.79,0,0,0-2.68.7,6.91,6.91,0,0,0-3.43,3.76,6.6,6.6,0,0,0-.42,2,.36.36,0,0,1,0,.11v.71c0,.19.05.36.07.55a6.4,6.4,0,0,0,.64,2.13,6.89,6.89,0,0,0,3.47,3.3,6.68,6.68,0,0,0,2.25.54h7.93l.51-.06a7.7,7.7,0,0,0,2.57-.76,8,8,0,0,0,3.34-3,7.42,7.42,0,0,0,1.09-2.83c.05-.32.07-.64.11-.95a.43.43,0,0,1,0-.12v-.73c0-.21,0-.41,0-.61a7.7,7.7,0,0,0-.76-2.57,8.12,8.12,0,0,0-3-3.34A7.54,7.54,0,0,0,26.83,9c-.34-.06-.66-.08-1-.12l-.13,0Zm.34,1.55a6.53,6.53,0,0,1,6.42,5.3,6.35,6.35,0,0,1,.07,2.13,6.57,6.57,0,0,1-1.45,3.3,6.48,6.48,0,0,1-3.66,2.24,6.87,6.87,0,0,1-2.35.1,5.89,5.89,0,0,1-2.75-1.06,4.37,4.37,0,0,1-.61-.53c-1.13-1.1-2.24-2.21-3.36-3.32a.7.7,0,0,1-.17-.85.76.76,0,0,1,.79-.44.81.81,0,0,1,.48.27c1,1,2,2,3,3.05A4.81,4.81,0,0,0,24.66,22a4.89,4.89,0,0,0,4.51-1.64,5,5,0,0,0,1.22-2.58,4.8,4.8,0,0,0-1-3.91,5.06,5.06,0,0,0-6.75-1.16.13.13,0,0,1-.12,0A8.51,8.51,0,0,0,21.22,12l0,0a6.19,6.19,0,0,1,1.15-.76,6,6,0,0,1,2.42-.71c.21,0,.41,0,.62,0Zm-7,2.44a5.16,5.16,0,0,1,3.65,1.5c.78.73,1.5,1.5,2.25,2.26a.72.72,0,0,1-.47,1.23.67.67,0,0,1-.58-.21c-.72-.71-1.43-1.42-2.14-2.15a3.73,3.73,0,0,0-2.08-1.09A3.85,3.85,0,0,0,17.53,22a5.68,5.68,0,0,0,1.37.09.35.35,0,0,1,.29.12l1.38,1.3a.73.73,0,0,0,.09.08H18.42A5.33,5.33,0,0,1,16.8,13.15a6.39,6.39,0,0,1,1.62-.27Z"/></g></g></svg>