<svg xmlns="http://www.w3.org/2000/svg" viewBox="0 0 135 34"><defs><style>.cls-1{fill:#092f5c;}.cls-2{fill:#fff;}.cls-3{fill:#fefefe;}</style></defs><title>figma-sketch-invision</title><g id="Layer_2" data-name="Layer 2"><g id="Layer_1-2" data-name="Layer 1"><rect class="cls-1" width="135" height="34" rx="17" ry="17"/><polygon class="cls-2" points="50.72 15.54 45.83 15.54 45.83 10.73 44.17 10.73 44.17 15.54 39.28 15.54 39.28 17.09 44.17 17.09 44.17 21.87 45.83 21.87 45.83 17.09 50.72 17.09 50.72 15.54"/><polygon class="cls-2" points="96.05 15.54 91.16 15.54 91.16 10.73 89.5 10.73 89.5 15.54 84.62 15.54 84.62 17.09 89.5 17.09 89.5 21.87 91.16 21.87 91.16 17.09 96.05 17.09 96.05 15.54"/></g><g id="figma"><path class="cls-3" d="M29,13.63a4.36,4.36,0,0,0,.4-.35,4.25,4.25,0,0,0,0-6A4.84,4.84,0,0,0,25.91,6H20.09a4.84,4.84,0,0,0-3.52,1.32,4.25,4.25,0,0,0,0,6l.18.17a2.43,2.43,0,0,0,.25.2l-.23.18-.2.19a4.25,4.25,0,0,0,0,6c.13.12.26.24.4.35a4.26,4.26,0,0,0-1.3,1.72,4.33,4.33,0,0,0-.24,2.49,4.21,4.21,0,0,0,1.18,2.2,4.31,4.31,0,0,0,4.69.94,4.29,4.29,0,0,0,1.93-1.59A4.34,4.34,0,0,0,24,23.7V20.58a4.25,4.25,0,0,0,2.39.73A4.31,4.31,0,0,0,29,13.63ZM22,23.7A2.39,2.39,0,0,1,21.63,25a2.34,2.34,0,0,1-1.07.87,2.38,2.38,0,1,1-.91-4.58H22Zm0-4.31H20.09a3,3,0,0,1-2.17-.77,2.32,2.32,0,0,1,0-3.24,3,3,0,0,1,2.17-.77H22Zm0-6.7H20.09a3,3,0,0,1-2.17-.76,2.29,2.29,0,0,1-.66-1.63,2.25,2.25,0,0,1,.66-1.62,3,3,0,0,1,2.17-.77H22Zm4.31,6.69A2.38,2.38,0,1,1,28.73,17,2.39,2.39,0,0,1,26.35,19.38Zm1.73-7.45a3,3,0,0,1-2.17.76H24V7.91h1.95a3,3,0,0,1,2.17.77,2.25,2.25,0,0,1,.66,1.62A2.29,2.29,0,0,1,28.08,11.93Z"/></g><g id="invision"><g id="Page-1"><g id="Dribbble-Light-Preview"><g id="icons"><path id="invision-_166_" data-name="invision-[#166]" class="cls-3" d="M118.34,23c-1.76,0-2.33-1.37-1.88-2.91l.66-2.33c.3-1,0-1.92-1.09-1.92s-1.54.51-1.86,1.8l-1.27,4.92h-2.21l.4-1.44a3.24,3.24,0,0,1-2.67,1.81c-1.72,0-2.25-1.21-1.86-2.88l1-4.1H106l.47-2.2h3.76l-1.49,6.11c-.17.66-.32,1.47.34,1.62a2.44,2.44,0,0,0,2.35-1.66l1-3.87h-1.58l.47-2.2h3.38l-.43,2.21a3.71,3.71,0,0,1,2.94-2.05c1.9,0,2.7,2,2.06,4.12l-.63,2.29c-.39,1.57.74,1.77,1.46-.21l.87.34c-.51,1.8-1.44,2.55-2.61,2.55m-9-12.67A1.32,1.32,0,1,1,108,11.6a1.32,1.32,0,0,1,1.35-1.32M122,6H104a2,2,0,0,0-2,2V26a2,2,0,0,0,2,2h18a2,2,0,0,0,2-2V8a2,2,0,0,0-2-2"/></g></g></g></g><g id="sketch"><path class="cls-3" d="M77.88,14.86l0,0,0,0,0,0v0l0,0v-.13a.15.15,0,0,1,0-.07v-.07h0v-.3l0,0v0l0,0,0,0,0,0,0,0h0L72.7,8.08a.74.74,0,0,0-.55-.26H61.87a.74.74,0,0,0-.55.26L56.18,14h0l0,0,0,0,0,0,0,0v0l0,0v.3h0v.07a.15.15,0,0,1,0,.07v.13l0,0v0l0,0,0,0,0,0,0,0,0,0,0,0,10.27,11,0,0v0l.08.06h0l.07,0h0l.09,0h.44l.09,0h0l.07,0h0L67.5,26v0l0,0,10.27-11,0,0,0,0ZM62,15.16,64.82,22l-6.4-6.85Zm8.41,0L67,23.5,63.6,15.16ZM64,13.7l3-3.94,3,3.94Zm8,1.46H75.6L69.21,22Zm3.66-1.46H71.88L68.5,9.29h3.32ZM62.21,9.29h3.31L62.14,13.7H58.35Z"/></g></g></svg>