<svg xmlns="http://www.w3.org/2000/svg" viewBox="0 0 90 34"><defs><style>.cls-1{fill:#092f5c;}.cls-2{fill:#fff;}</style></defs><title>html-webapi</title><g id="Layer_2" data-name="Layer 2"><g id="Layer_1-2" data-name="Layer 1"><rect class="cls-1" width="90" height="34" rx="17" ry="17"/><polygon class="cls-2" points="50.72 15.54 45.83 15.54 45.83 10.73 44.17 10.73 44.17 15.54 39.28 15.54 39.28 17.09 44.17 17.09 44.17 21.87 45.83 21.87 45.83 17.09 50.72 17.09 50.72 15.54"/></g><g id="web_api" data-name="web api"><path class="cls-2" d="M76.31,16a3.28,3.28,0,0,0-1-.24c0-.3,0-.5,0-1.08A6.2,6.2,0,0,0,75,12.07a8.37,8.37,0,0,0-1.68-2.6,6.76,6.76,0,0,0-4.92-1.89h0a7.49,7.49,0,0,0-6.56,4.08H60.44l-.06,0a6.23,6.23,0,0,0-2.17.85A4.71,4.71,0,0,0,56,16.63,4.73,4.73,0,0,0,58.51,21a6.29,6.29,0,0,0,2.47.7v0h0l1.93,0a2.83,2.83,0,1,0,0-1.19l-1.86,0h0a5.4,5.4,0,0,1-1.92-.59,3.36,3.36,0,0,1-1.9-3.3,3.38,3.38,0,0,1,1.67-3.1,5.18,5.18,0,0,1,1.73-.68h2l.15-.34a6.58,6.58,0,0,1,5.69-3.74,5.41,5.41,0,0,1,4.06,1.55A7.53,7.53,0,0,1,74,12.57a7.51,7.51,0,0,1,.24,2.11c0,.84-.06,1.56-.06,1.56l0,.67.66,0a2.89,2.89,0,0,1,1.08.22,1.55,1.55,0,0,1,1,1.69,1.41,1.41,0,0,1-.76,1.35,2.67,2.67,0,0,1-.83.34l-4.09-.08a5.49,5.49,0,0,0-5.44-4.93h0a5.37,5.37,0,0,0-2.12.45l.58,1.26A4,4,0,0,1,69.77,21,4.06,4.06,0,0,1,65.69,25a4.14,4.14,0,0,1-1.62-.32L63.5,26a5.5,5.5,0,0,0,7.62-4.4l4.19.07h.09a4,4,0,0,0,1.28-.5A2.75,2.75,0,0,0,78,18.78,2.92,2.92,0,0,0,76.31,16Z"/></g><g id="html_5" data-name="html 5"><path class="cls-2" d="M12.19,6.24A.75.75,0,0,1,12.73,6H33.27a.75.75,0,0,1,.54.24.74.74,0,0,1,.19.55l-1.47,17.6A.72.72,0,0,1,32,25L23.23,28a.72.72,0,0,1-.46,0L14,25a.72.72,0,0,1-.5-.64L12,6.79A.79.79,0,0,1,12.19,6.24ZM28.13,10.4H17.87v5.87h8.8V19.4L23,20.63,19.33,19.4V17.73H17.87v2.73L23,22.17l5.13-1.71V14.8h-8.8V11.87h8.8Z"/></g></g></svg>