<svg xmlns="http://www.w3.org/2000/svg" viewBox="0 0 90 34"><defs><style>.cls-1{fill:#092f5c;}.cls-2{fill:#fff;}</style></defs><title>Asset 6</title><g id="Layer_2" data-name="Layer 2"><g id="Layer_1-2" data-name="Layer 1"><rect class="cls-1" width="90" height="34" rx="17" ry="17"/><polygon class="cls-2" points="50.72 15.54 45.83 15.54 45.83 10.73 44.17 10.73 44.17 15.54 39.28 15.54 39.28 17.09 44.17 17.09 44.17 21.87 45.83 21.87 45.83 17.09 50.72 17.09 50.72 15.54"/></g><g id="html_5" data-name="html 5"><path class="cls-2" d="M12.19,6.24A.75.75,0,0,1,12.73,6H33.27a.75.75,0,0,1,.54.24.74.74,0,0,1,.19.55l-1.47,17.6A.72.72,0,0,1,32,25L23.23,28a.72.72,0,0,1-.46,0L14,25a.72.72,0,0,1-.5-.64L12,6.79A.79.79,0,0,1,12.19,6.24ZM28.13,10.4H17.87v5.87h8.8V19.4L23,20.63,19.33,19.4V17.73H17.87v2.73L23,22.17l5.13-1.71V14.8h-8.8V11.87h8.8Z"/></g><g id="css_3" data-name="css 3"><path class="cls-2" d="M56.07,6.24A.75.75,0,0,1,56.61,6H77.26a.76.76,0,0,1,.55.24A.8.8,0,0,1,78,6.8L76.52,24.38A.72.72,0,0,1,76,25L67.17,28a.75.75,0,0,1-.47,0L57.85,25a.75.75,0,0,1-.5-.63L55.88,6.8A.71.71,0,0,1,56.07,6.24Zm16,4.18H61.78V11.9h8.85v2.95h-5.9v1.47h5.9v3.16l-3.69,1.23-3.69-1.23V17.8H61.78v2.74l5.16,1.72,5.16-1.72Z"/></g></g></svg>