<svg xmlns="http://www.w3.org/2000/svg" viewBox="0 0 90 34"><defs><style>.cls-1{fill:#092f5c;}.cls-2{fill:#fff;}.cls-3{fill:#fefefe;}</style></defs><title>js-jquery</title><g id="Layer_2" data-name="Layer 2"><g id="Layer_1-2" data-name="Layer 1"><rect class="cls-1" width="90" height="34" rx="17" ry="17"/><polygon class="cls-2" points="50.72 15.54 45.83 15.54 45.83 10.73 44.17 10.73 44.17 15.54 39.28 15.54 39.28 17.09 44.17 17.09 44.17 21.87 45.83 21.87 45.83 17.09 50.72 17.09 50.72 15.54"/></g><g id="jquery"><path class="cls-3" d="M77.54,15.19A5.35,5.35,0,0,1,70.66,7l.59-.41A5.35,5.35,0,0,0,78,14.75l-.49.47m-1.9,4.34A8,8,0,1,1,65.33,7.27l1-.69A8,8,0,0,0,76.5,18.73l-.86.83m-1.18,5.22A11.24,11.24,0,1,1,60,7.58l1.19-.85a11.22,11.22,0,0,0,14.35,17Z"/></g><g id="java_script" data-name="java script"><path class="cls-3" d="M24,16.11H21.9c0,1.77,0,3.54,0,5.31,0,.25,0,.53,0,.81A8.26,8.26,0,0,1,21.75,24v-.05c-.3.63-1.08.55-1.43.44a1.88,1.88,0,0,1-.76-.77h0a.76.76,0,0,0-.12-.19h0l-1.67,1A3.23,3.23,0,0,0,19,25.8h0a4,4,0,0,0,1.94.49,3.88,3.88,0,0,0,1-.13h0a2.53,2.53,0,0,0,1.65-1.28h0A6.31,6.31,0,0,0,24,22.63a5.73,5.73,0,0,0-.06-.84v0c0-1.88,0-3.76,0-5.66Zm8.23,6.63c-.16-1-.82-1.84-2.75-2.63-.68-.31-1.43-.53-1.65-1a1,1,0,0,1-.07-.39,1.24,1.24,0,0,1,0-.27h0a1,1,0,0,1,1-.68,1.07,1.07,0,0,1,.41.08h0a1.51,1.51,0,0,1,.89.81h0c.95-.62.95-.62,1.61-1a4.37,4.37,0,0,0-.54-.72h0a3.06,3.06,0,0,0-2.24-1l-.37,0h0l-.64.08a3,3,0,0,0-1.57.92h0A2.87,2.87,0,0,0,26.81,21h0c1.25.93,3.08,1.14,3.32,2,.22,1.07-.8,1.41-1.8,1.29a2.44,2.44,0,0,1-1.61-1.21v0L25,24.1a3.82,3.82,0,0,0,.74,1h0c1.6,1.61,5.58,1.53,6.3-.92a3.08,3.08,0,0,0,.13-.89,2.73,2.73,0,0,0-.07-.64v0ZM15.74,6H30.25A3.75,3.75,0,0,1,34,9.74V24.25A3.75,3.75,0,0,1,30.25,28H15.74A3.75,3.75,0,0,1,12,24.25V9.74A3.75,3.75,0,0,1,15.74,6Z"/></g></g></svg>