<?xml version="1.0" encoding="UTF-8"?>
<svg id="Layer_2" xmlns="http://www.w3.org/2000/svg" xmlns:xlink="http://www.w3.org/1999/xlink" viewBox="0 0 60 37">
  <defs>
    <style>
      .cls-1 {
        fill: none;
      }

      .cls-2 {
        fill: #f26128;
      }

      .cls-3 {
        clip-path: url(#clippath);
      }
    </style>
    <clipPath id="clippath">
      <rect class="cls-1" width="60" height="37"/>
    </clipPath>
  </defs>
  <g id="Layer_1-2" data-name="Layer_1">
    <g class="cls-3">
      <g>
        <path class="cls-2" d="M44.54,12.55h-7.27V2.64c0-1.46-1.19-2.64-2.64-2.64h-17.18c-1.46,0-2.64,1.19-2.64,2.64v31.71c0,1.46,1.19,2.64,2.64,2.64h17.18c1.46,0,2.64-1.19,2.64-2.64v-8.59h7.27c.37,0,.66-.3.66-.66v-11.89c0-.36-.3-.66-.66-.66ZM17.45,1.32h17.18c.73,0,1.32.59,1.32,1.32v1.98h-19.82v-1.98c0-.73.59-1.32,1.32-1.32ZM34.62,35.68h-17.18c-.73,0-1.32-.59-1.32-1.32v-1.98h19.82v1.98c0,.73-.59,1.32-1.32,1.32ZM35.95,31.05h-19.82V5.95h19.82v6.61h-9.25v-1.98c0-.36-.3-.66-.66-.66s-.66.3-.66.66v17.18c0,.36.3.66.66.66s.66-.3.66-.66v-1.98h9.25v5.29ZM43.88,24.45h-17.18v-10.57h17.18v10.57Z"/>
        <rect class="cls-2" x="28.68" y="15.2" width="2.64" height="2.64"/>
        <path class="cls-2" d="M28.02,19.82c0,.36.3.66.66.66h13.21c.37,0,.66-.3.66-.66s-.3-.66-.66-.66h-13.21c-.36,0-.66.3-.66.66Z"/>
        <path class="cls-2" d="M41.23,21.47c-.35,0-.65.18-.83.44-.18-.27-.48-.44-.83-.44-.55,0-.99.44-.99.99s.44.99.99.99c.35,0,.65-.18.83-.44.18.27.48.44.83.44.55,0,.99-.44.99-.99s-.44-.99-.99-.99Z"/>
      </g>
    </g>
  </g>
</svg>