<?xml version="1.0" encoding="UTF-8"?>
<svg id="Layer_2" xmlns="http://www.w3.org/2000/svg" xmlns:xlink="http://www.w3.org/1999/xlink" viewBox="0 0 60 37">
  <defs>
    <style>
      .cls-1 {
        fill: none;
      }

      .cls-2 {
        fill: #f26128;
      }

      .cls-3 {
        clip-path: url(#clippath);
      }
    </style>
    <clipPath id="clippath">
      <rect class="cls-1" width="60" height="37"/>
    </clipPath>
  </defs>
  <g id="Layer_1-2" data-name="Layer_1">
    <g class="cls-3">
      <path class="cls-2" d="M36.54,0h-13.07c-2.53,0-4.58,2.06-4.58,4.58v27.84c0,2.53,2.06,4.58,4.58,4.58h13.07c2.53,0,4.58-2.06,4.58-4.58V4.58C41.12,2.05,39.06,0,36.54,0ZM23.47,1.27h13.07c1.83,0,3.31,1.49,3.31,3.31v25.3h-19.69s0-25.3,0-25.3c0-1.82,1.49-3.31,3.31-3.31h0ZM36.54,35.73h-13.07c-1.83,0-3.31-1.49-3.31-3.31v-1.27h19.69v1.27c0,1.82-1.49,3.31-3.31,3.31h0ZM32.47,33.29c0,.35-.29.64-.64.64h-3.67c-.35,0-.64-.29-.64-.64s.29-.64.64-.64h3.67c.35,0,.64.28.64.64ZM27.53,3.66c0-.35.29-.64.64-.64h3.67c.35,0,.64.29.64.64s-.29.64-.64.64h-3.67c-.35,0-.64-.28-.64-.64ZM23.32,3.66c0-.35.29-.64.64-.64h.39c.35,0,.64.29.64.64s-.29.64-.64.64h-.39c-.35,0-.64-.28-.64-.64ZM23.59,20.86v1.6c0,1.23,1,2.22,2.22,2.22h8.38c1.23,0,2.22-1,2.22-2.22v-1.6c.01-2.26-1.19-3.94-3.34-4.73.41-.6.66-1.33.66-2.11,0-2.06-1.67-3.73-3.73-3.73s-3.73,1.67-3.73,3.73c0,.78.24,1.51.66,2.11-2.14.79-3.34,2.46-3.34,4.72h0ZM35.14,20.87v1.6c0,.53-.43.95-.95.95h-8.38c-.53,0-.95-.43-.95-.96v-1.6c0-2.39,1.63-3.34,3.09-3.71.59.39,1.29.61,2.05.61s1.46-.22,2.04-.61c1.48.38,3.11,1.33,3.1,3.71h0ZM30,11.57c1.36,0,2.46,1.1,2.46,2.46s-1.1,2.46-2.46,2.46-2.46-1.1-2.46-2.46,1.1-2.46,2.46-2.46Z"/>
    </g>
  </g>
</svg>