<?xml version="1.0" encoding="UTF-8"?>
<svg id="Layer_2" xmlns="http://www.w3.org/2000/svg" xmlns:xlink="http://www.w3.org/1999/xlink" viewBox="0 0 60 37">
  <defs>
    <style>
      .cls-1 {
        fill: none;
      }

      .cls-2 {
        fill: #f26128;
        fill-rule: evenodd;
      }

      .cls-3 {
        clip-path: url(#clippath);
      }
    </style>
    <clipPath id="clippath">
      <rect class="cls-1" width="60" height="37"/>
    </clipPath>
  </defs>
  <g id="Layer_1-2" data-name="Layer_1">
    <g class="cls-3">
      <path class="cls-2" d="M40.05,9.27c-1.44-2.07-3.49-3.65-5.85-4.52-.24-.07-.43-.25-.5-.49-.52-1.61-2.01-2.7-3.7-2.7s-3.18,1.1-3.7,2.7c-.07.23-.24.41-.47.49-2.37.87-4.42,2.44-5.86,4.5-1.45,2.07-2.24,4.52-2.24,7.05v5.02c.01,1.47-.63,2.87-1.76,3.81-.53.45-.98.73-1.29,1.37h0c-.36.78-.3,1.68.15,2.41.46.73,1.25,1.16,2.11,1.16h26.13c1.38,0,2.5-1.13,2.5-2.5,0-.75-.35-1.47-.94-1.95-.82-.68-1.44-1.2-1.9-2.2-.3-.66-.46-1.38-.45-2.1v-5.01c0-2.52-.78-4.97-2.22-7.02h0ZM34.6,31.57h-9.2c.37,2.25,2.32,3.91,4.6,3.91s4.23-1.65,4.6-3.91h0ZM35.03,3.44c2.58,1.01,4.79,2.78,6.36,5.07,1.56,2.29,2.41,5,2.41,7.76v5.02c-.01,1.03.44,2.01,1.24,2.66l.57.47h0c.93.76,1.48,1.91,1.48,3.12,0,2.22-1.8,4.02-4.02,4.02h-6.93c-.24,2.02-1.47,3.79-3.27,4.73-1.8.95-3.95.95-5.75,0s-3.02-2.72-3.27-4.73h-6.91c-1.38,0-2.66-.71-3.4-1.88-.74-1.17-.82-2.63-.23-3.88.26-.54.64-1.01,1.1-1.39.62-.41,1.13-.98,1.49-1.64.21-.46.31-.96.3-1.47v-5.03c0-2.78.85-5.48,2.41-7.76,1.56-2.29,3.77-4.06,6.36-5.07.8-2.07,2.8-3.44,5.03-3.44s4.23,1.37,5.03,3.44h0ZM19.94,17.47c-.01-.21.06-.42.2-.58.15-.16.35-.24.56-.24s.41.09.56.24.22.36.2.58v2.29c-.03.4-.36.71-.76.71s-.73-.31-.76-.71c0,0,0-2.29,0-2.29ZM26.58,6.82c.39-.15.84.05.98.45.15.39-.05.84-.45.98-2.79,1.02-4.86,3.41-5.47,6.31-.08.42-.49.7-.91.61-.42-.08-.7-.49-.61-.91.72-3.43,3.16-6.25,6.45-7.45h0Z"/>
    </g>
  </g>
</svg>