<?xml version="1.0" encoding="UTF-8"?>
<svg id="Layer_2" xmlns="http://www.w3.org/2000/svg" xmlns:xlink="http://www.w3.org/1999/xlink" viewBox="0 0 60 37">
  <defs>
    <style>
      .cls-1 {
        fill: none;
      }

      .cls-2 {
        fill: #f26128;
      }

      .cls-3 {
        clip-path: url(#clippath);
      }
    </style>
    <clipPath id="clippath">
      <rect class="cls-1" width="60" height="37"/>
    </clipPath>
  </defs>
  <g id="Layer_1-2" data-name="Layer_1">
    <g class="cls-3">
      <g>
        <path class="cls-2" d="M41.95,20.08h-8.65l.08-.71c.2-1.93.13-3.87-.19-5.78-.29-1.69-1.74-2.91-3.45-2.91-.48,0-.92.19-1.26.53-.33.35-.51.8-.49,1.28l.11,3.16c.03.89-.18,1.77-.62,2.55l-2.1,3.74c-.29-.5-.83-.83-1.44-.83h-4.72c-.93,0-1.68.75-1.68,1.68v12.54c0,.93.75,1.68,1.68,1.68h4.72c.65,0,1.21-.38,1.49-.92l.15.13c.6.51,1.36.78,2.14.78h10.3c.68,0,1.32-.27,1.8-.75.48-.48.74-1.12.74-1.79,0-.55-.18-1.07-.48-1.49.45-.11.86-.34,1.2-.68.48-.48.74-1.12.74-1.79,0-.59-.21-1.13-.55-1.57.34-.12.65-.32.92-.59.48-.48.75-1.12.75-1.79,0-.55-.18-1.06-.48-1.48.46-.11.88-.33,1.22-.68.45-.45.71-1.05.74-1.69.03-.67-.22-1.31-.7-1.81-.52-.54-1.22-.84-1.95-.84h0ZM24.48,23.66v11.66c0,.31-.25.56-.56.56h-4.72c-.31,0-.56-.25-.56-.56v-12.54c0-.31.25-.56.56-.56h1.8v9.38c0,.31.25.56.56.56s.56-.25.56-.56v-9.39h1.8c.31,0,.56.25.56.56v.88h0ZM43.06,23.61c-.27.27-.63.41-1,.41h-4.79c-.31,0-.56.25-.56.56s.25.56.56.56h3.31c.78,0,1.41.63,1.41,1.42,0,.38-.15.73-.42,1-.27.27-.62.42-1,.42h-4.77c-.31,0-.56.25-.56.56s.25.56.56.56h3.66c.78,0,1.42.63,1.42,1.42,0,.38-.15.73-.41,1-.27.27-.62.42-1,.42h-4.68c-.31,0-.56.25-.56.56s.25.56.56.56h3.23c.78,0,1.42.63,1.42,1.42,0,.38-.15.73-.41,1-.27.27-.62.42-1,.42h-10.29c-.52,0-1.03-.18-1.43-.51l-.68-.57v-10.97s2.84-5.06,2.84-5.06c.53-.96.8-2.04.76-3.14l-.11-3.16c0-.17.06-.33.18-.46.12-.12.28-.19.45-.19,1.16,0,2.15.83,2.35,1.98.31,1.81.38,3.65.18,5.47l-.13,1.33c-.02.16.03.32.14.43.11.12.26.18.42.18h9.28c.42,0,.83.18,1.13.48.27.28.41.63.39.99-.02.37-.17.71-.41.95h0Z"/>
        <path class="cls-2" d="M26.6,6.03c.08.07.11.18.09.28l-.25,1.48c-.09.54.12,1.08.57,1.4.25.18.55.28.84.28.23,0,.46-.05.67-.17l1.33-.7c.09-.05.2-.05.29,0l1.33.7c.49.26,1.07.22,1.51-.11.45-.32.66-.86.57-1.4l-.25-1.48c-.02-.1.02-.21.09-.28l1.08-1.04c.39-.38.53-.95.36-1.47-.17-.52-.62-.9-1.16-.98l-1.49-.22c-.1-.02-.19-.08-.23-.17l-.66-1.34c-.24-.5-.73-.81-1.28-.81s-1.04.31-1.29.8l-.66,1.34c-.05.09-.13.16-.23.17l-1.49.22c-.55.08-.99.45-1.16.98-.17.52-.03,1.09.36,1.47l1.07,1.06ZM26.23,3.86c.02-.06.08-.19.25-.21l1.49-.22c.47-.07.87-.36,1.08-.79l.66-1.34c.08-.16.22-.18.28-.18s.21.02.28.18l.66,1.34c.21.42.61.72,1.08.79l1.49.22c.18.02.23.16.25.21.02.06.05.2-.08.32l-1.08,1.04c-.34.33-.49.8-.41,1.27l.25,1.48c.03.18-.08.27-.12.31-.05.03-.18.11-.33.02l-1.33-.7c-.42-.22-.92-.22-1.34,0l-1.33.7c-.15.08-.28.01-.33-.02-.05-.03-.15-.13-.12-.31l.25-1.48c.08-.46-.08-.94-.41-1.27l-1.08-1.04c-.13-.12-.1-.27-.08-.32h0Z"/>
        <path class="cls-2" d="M47.41,9.45c.39-.38.53-.95.36-1.48-.17-.52-.62-.9-1.16-.98l-1.49-.22c-.1-.02-.19-.08-.23-.17l-.66-1.34c-.24-.49-.74-.8-1.29-.8s-1.04.31-1.29.8l-.66,1.34c-.05.09-.13.16-.23.17l-1.49.22c-.55.08-.99.45-1.16.98s-.03,1.09.36,1.48l1.08,1.04c.08.07.11.18.09.28l-.25,1.48c-.09.54.12,1.08.57,1.4.45.32,1.02.36,1.51.11l1.33-.7c.09-.05.2-.05.29,0l1.33.7c.21.11.44.17.67.17.3,0,.59-.09.84-.28.45-.32.66-.86.57-1.4l-.25-1.48c-.02-.1.02-.21.09-.28l1.07-1.05ZM45.55,9.69c-.34.33-.49.8-.41,1.27l.25,1.48c.03.18-.08.27-.12.31-.05.03-.18.11-.33.02l-1.33-.7c-.21-.11-.44-.17-.67-.17s-.46.05-.67.17l-1.33.7c-.16.08-.28.01-.33-.02-.05-.03-.15-.13-.12-.31l.25-1.48c.08-.46-.08-.94-.41-1.27l-1.08-1.04c-.13-.12-.1-.27-.08-.32.02-.06.08-.19.25-.21l1.49-.22c.47-.07.87-.36,1.08-.79l.66-1.34c.08-.16.22-.18.28-.18s.21.02.28.18l.66,1.34c.21.42.61.72,1.08.79l1.49.22c.18.02.23.16.25.21.02.06.05.2-.08.32l-1.08,1.04Z"/>
        <path class="cls-2" d="M20.04,13.65c.45-.32.66-.86.57-1.4l-.25-1.48c-.02-.1.02-.21.09-.28l1.08-1.04c.39-.38.53-.95.36-1.48-.17-.52-.62-.9-1.16-.98l-1.49-.22c-.1-.02-.19-.08-.23-.17l-.66-1.34c-.24-.49-.73-.8-1.29-.8s-1.04.31-1.29.8l-.66,1.34c-.05.09-.13.16-.23.17l-1.49.22c-.55.08-.99.45-1.16.98-.17.52-.03,1.09.36,1.48l1.08,1.04c.08.07.11.18.09.28l-.25,1.48c-.09.54.12,1.08.57,1.4.25.18.55.28.84.28.23,0,.46-.05.67-.17l1.33-.7c.09-.05.2-.05.29,0l1.33.7c.48.26,1.06.21,1.51-.11h0ZM16.39,12.07l-1.33.7c-.16.08-.28.01-.33-.02-.05-.03-.15-.13-.12-.31l.25-1.48c.08-.46-.08-.94-.41-1.27l-1.08-1.04c-.13-.12-.1-.27-.08-.32.02-.06.08-.19.25-.21l1.49-.22c.47-.07.87-.36,1.08-.79l.66-1.34c.08-.16.22-.18.28-.18s.21.02.28.18l.66,1.34c.21.42.61.72,1.08.79l1.49.22c.18.02.23.16.25.21.02.06.05.2-.08.32l-1.08,1.04c-.34.33-.49.8-.41,1.27l.25,1.48c.03.18-.08.28-.12.31-.05.03-.18.11-.33.02l-1.33-.7c-.42-.22-.92-.22-1.33,0h0Z"/>
      </g>
    </g>
  </g>
</svg>