<?xml version="1.0" encoding="UTF-8"?>
<svg id="Layer_2" xmlns="http://www.w3.org/2000/svg" xmlns:xlink="http://www.w3.org/1999/xlink" viewBox="0 0 60 37">
  <defs>
    <style>
      .cls-1 {
        fill: none;
      }

      .cls-2 {
        fill: #f26128;
      }

      .cls-3 {
        clip-path: url(#clippath);
      }
    </style>
    <clipPath id="clippath">
      <rect class="cls-1" width="60" height="37"/>
    </clipPath>
  </defs>
  <g id="Layer_1-2" data-name="Layer_1">
    <g class="cls-3">
      <path class="cls-2" d="M45.81,2.77h-1.15v-.95c0-1.2-.92-1.82-1.83-1.82s-1.83.63-1.83,1.82v.95h-5.15v-.95c0-1.2-.92-1.82-1.83-1.82s-1.83.63-1.83,1.82v.95h-5.8v-.95c0-1.2-.92-1.82-1.83-1.82s-1.83.63-1.83,1.82v.95h-1.15c-1.45,0-2.64,1.18-2.64,2.64v10.91c-2.43.23-4.34,2.28-4.34,4.77,0,1,.31,1.93.83,2.7-2.16.12-3.88,1.91-3.88,4.1v4.31c0,.4.32.72.72.72h2.62c.1,1.04.56,2.05,1.37,2.82.88.84,2.01,1.26,3.13,1.26,1.19,0,2.38-.47,3.27-1.39.71-.74,1.14-1.68,1.24-2.69h2.62c.37,0,.68-.29.72-.65h18.57c1.45,0,2.64-1.18,2.64-2.64V5.4c0-1.45-1.19-2.64-2.64-2.64h0ZM41.9,1.82c0-.68.5-.92.93-.92s.93.24.93.92v2.8c0,.68-.5.92-.93.92s-.93-.24-.93-.92V1.82ZM33.09,1.82c0-.68.5-.92.93-.92s.93.24.93.92v2.8c0,.68-.5.92-.93.92s-.93-.24-.93-.92V1.82ZM23.63,1.82c0-.68.5-.92.93-.92s.93.24.93.92v2.8c0,.68-.5.92-.93.92s-.93-.24-.93-.92V1.82ZM21.58,3.67h1.15v.95c0,1.2.92,1.82,1.83,1.82s1.83-.63,1.83-1.82v-.95h5.8v.95c0,1.2.92,1.82,1.83,1.82s1.83-.63,1.83-1.82v-.95h5.15v.95c0,1.2.92,1.82,1.83,1.82s1.83-.63,1.83-1.82v-.95h1.15c.96,0,1.73.78,1.73,1.73v2.54h-27.69v-2.54c0-.96.78-1.73,1.73-1.73h0ZM19.39,17.2c2.15,0,3.89,1.75,3.89,3.89s-1.75,3.89-3.89,3.89-3.89-1.75-3.89-3.89,1.75-3.89,3.89-3.89ZM23.45,18.54h2.02v3.13h-1.32c.02-.19.04-.39.04-.58,0-.94-.27-1.81-.73-2.55h0ZM22.01,34.99c-1.38,1.44-3.68,1.49-5.13.11-1.44-1.38-1.49-3.68-.11-5.13.67-.7,1.57-1.1,2.54-1.12.03,0,.05,0,.08,0,.94,0,1.83.36,2.51,1.01.7.67,1.09,1.57,1.12,2.54.02.97-.34,1.89-1.01,2.58h0ZM26.33,32.02h-2.44c-.11-1.07-.59-2.06-1.37-2.81-.87-.84-2.02-1.28-3.23-1.26-1.21.03-2.34.52-3.17,1.39-.73.76-1.14,1.7-1.23,2.67h-2.44v-4.13c0-1.77,1.44-3.21,3.2-3.21h.57c.85.75,1.95,1.2,3.17,1.2s2.32-.45,3.17-1.2h.57c1.77,0,3.21,1.44,3.21,3.21v4.13h0ZM45.8,31.37h-18.57v-3.48c0-2.19-1.72-3.98-3.88-4.1.25-.37.46-.78.6-1.21h1.97c.25,0,.45-.2.45-.45v-4.03c0-.25-.2-.45-.45-.45h-3.2c-.76-.73-1.76-1.22-2.87-1.32v-7.47h27.7v20.79c0,.96-.78,1.74-1.73,1.74h0ZM25.92,10.78h-4.03c-.25,0-.45.2-.45.45v4.03c0,.25.2.45.45.45h4.03c.25,0,.45-.2.45-.45v-4.03c0-.25-.2-.45-.45-.45ZM25.47,14.81h-3.13v-3.13h3.13v3.13ZM32.44,10.78h-4.03c-.25,0-.45.2-.45.45v4.03c0,.25.2.45.45.45h4.03c.25,0,.45-.2.45-.45v-4.03c0-.25-.2-.45-.45-.45ZM31.99,14.81h-3.13v-3.13h3.13v3.13ZM38.97,10.78h-4.03c-.25,0-.45.2-.45.45v4.03c0,.25.2.45.45.45h4.03c.25,0,.45-.2.45-.45v-4.03c0-.25-.2-.45-.45-.45ZM38.52,14.81h-3.13v-3.13h3.13v3.13ZM45.5,10.78h-4.03c-.25,0-.45.2-.45.45v4.03c0,.25.2.45.45.45h4.03c.25,0,.45-.2.45-.45v-4.03c0-.25-.2-.45-.45-.45ZM45.05,14.81h-3.13v-3.13h3.13v3.13ZM32.45,17.64h-4.03c-.25,0-.45.2-.45.45v4.03c0,.25.2.45.45.45h4.03c.25,0,.45-.2.45-.45v-4.03c0-.25-.2-.45-.45-.45ZM32,21.67h-3.13v-3.13h3.13v3.13ZM38.97,17.64h-4.03c-.25,0-.45.2-.45.45v4.03c0,.25.2.45.45.45h4.03c.25,0,.45-.2.45-.45v-4.03c0-.25-.2-.45-.45-.45ZM38.52,21.67h-3.13v-3.13h3.13v3.13ZM45.5,17.64h-4.03c-.25,0-.45.2-.45.45v4.03c0,.25.2.45.45.45h4.03c.25,0,.45-.2.45-.45v-4.03c0-.25-.2-.45-.45-.45ZM45.05,21.67h-3.13v-3.13h3.13v3.13ZM32.45,24.51h-4.03c-.25,0-.45.2-.45.45v4.03c0,.25.2.45.45.45h4.03c.25,0,.45-.2.45-.45v-4.03c0-.25-.2-.45-.45-.45h0ZM32,28.54h-3.13v-3.13h3.13v3.13ZM38.98,24.51h-4.03c-.25,0-.45.2-.45.45v4.03c0,.25.2.45.45.45h4.03c.25,0,.45-.2.45-.45v-4.03c0-.25-.2-.45-.45-.45ZM38.52,28.54h-3.13v-3.13h3.13v3.13ZM45.5,24.51h-4.03c-.25,0-.45.2-.45.45v4.03c0,.25.2.45.45.45h4.03c.25,0,.45-.2.45-.45v-4.03c0-.25-.2-.45-.45-.45ZM45.05,28.54h-3.13v-3.13h3.13v3.13ZM21.46,30.81c.19.17.2.45.03.64l-2.41,2.66c-.08.09-.2.15-.33.15h0c-.12,0-.24-.05-.32-.14l-1.12-1.14c-.17-.18-.17-.46,0-.64.18-.17.46-.17.64,0l.78.8,2.09-2.3c.17-.19.45-.2.64-.03h0Z"/>
    </g>
  </g>
</svg>