<?xml version="1.0" encoding="UTF-8"?>
<svg id="Layer_2" xmlns="http://www.w3.org/2000/svg" xmlns:xlink="http://www.w3.org/1999/xlink" viewBox="0 0 60 37">
  <defs>
    <style>
      .cls-1 {
        fill: none;
      }

      .cls-2 {
        fill: #f26128;
      }

      .cls-3 {
        clip-path: url(#clippath);
      }
    </style>
    <clipPath id="clippath">
      <rect class="cls-1" width="60" height="37"/>
    </clipPath>
  </defs>
  <g id="Layer_1-2" data-name="Layer_1">
    <g class="cls-3">
      <g>
        <path class="cls-2" d="M43.65,5.41l-4.09-4.13C38.74.47,37.65,0,36.48,0h-16.98c-1.17,0-2.26.47-3.08,1.29-.82.82-1.29,1.91-1.29,3.08v28.31c0,2.38,1.95,4.32,4.32,4.32h21.07c2.38,0,4.32-1.95,4.32-4.32V8.45c.08-1.13-.39-2.22-1.21-3.04ZM42.52,6.54c.39.39.62.86.74,1.36h-5.61c-.35,0-.62-.27-.62-.62V1.67c.51.12.97.35,1.36.74l4.13,4.13ZM40.61,35.4h-21.11c-1.52,0-2.73-1.21-2.73-2.73V4.32c0-.74.27-1.4.82-1.95.51-.51,1.21-.82,1.95-.82h0l15.93.04v5.69c0,1.21,1.01,2.22,2.22,2.22h5.65v23.13c0,1.52-1.25,2.77-2.73,2.77Z"/>
        <path class="cls-2" d="M37.1,21.27h-9.66c-.43,0-.82.35-.82.82,0,.43.35.82.82.82h9.7c.43,0,.82-.35.82-.82-.04-.47-.39-.82-.86-.82Z"/>
        <path class="cls-2" d="M37.1,14.18h-9.66c-.43,0-.82.35-.82.82,0,.43.35.82.82.82h9.7c.43,0,.82-.35.82-.82-.04-.47-.39-.82-.86-.82Z"/>
        <path class="cls-2" d="M37.1,28.31h-9.66c-.43,0-.82.35-.82.82s.35.82.82.82h9.7c.43,0,.82-.35.82-.82s-.39-.82-.86-.82Z"/>
        <path class="cls-2" d="M23.86,13.75h-.86c-.43,0-.82.35-.82.82v.86c0,.43.35.82.82.82h.86c.43,0,.82-.35.82-.82v-.86c-.04-.47-.39-.82-.82-.82Z"/>
        <path class="cls-2" d="M23.86,20.84h-.86c-.43,0-.82.35-.82.82v.86c0,.43.35.82.82.82h.86c.43,0,.82-.35.82-.82v-.9c-.04-.43-.39-.78-.82-.78Z"/>
        <path class="cls-2" d="M23.86,27.89h-.86c-.43,0-.82.35-.82.82v.86c0,.43.35.82.82.82h.86c.43,0,.82-.35.82-.82v-.86c-.04-.47-.39-.82-.82-.82Z"/>
      </g>
    </g>
  </g>
</svg>