<?xml version="1.0" encoding="UTF-8"?>
<svg id="Layer_2" xmlns="http://www.w3.org/2000/svg" xmlns:xlink="http://www.w3.org/1999/xlink" viewBox="0 0 50 50">
  <defs>
    <style>
      .cls-1 {
        fill: #f2632b;
      }

      .cls-2 {
        fill: none;
      }

      .cls-3 {
        clip-path: url(#clippath);
      }
    </style>
    <clipPath id="clippath">
      <rect class="cls-2" width="50" height="50"/>
    </clipPath>
  </defs>
  <g id="Layer_1-2" data-name="Layer_1">
    <g class="cls-3">
      <path class="cls-1" d="M23.04,44.98c0,.47-.39.86-.86.86h-4.95c-.47,0-.86-.39-.86-.86s.39-.86.86-.86h4.95c.47,0,.86.38.86.86ZM17.22,5.81h4.95c.47,0,.86-.39.86-.86s-.39-.86-.86-.86h-4.95c-.47,0-.86.39-.86.86s.39.86.86.86ZM11.54,5.81h.53c.47,0,.86-.39.86-.86s-.39-.86-.86-.86h-.53c-.47,0-.86.39-.86.86s.38.86.86.86ZM45.32,12.89v10.34c0,3.01-1.21,6.03-3.41,8.52-1.95,2.2-4.53,3.76-7.18,4.36v7.7c0,3.41-2.78,6.19-6.19,6.19H10.87c-3.41,0-6.19-2.78-6.19-6.2V6.19c0-3.41,2.78-6.19,6.19-6.19h17.66c3.41,0,6.19,2.78,6.19,6.19v3.77l9.92,2.09c.39.08.68.43.68.84h0ZM6.4,6.19v34.19h26.61v-4.27c-2.65-.59-5.23-2.16-7.18-4.36-2.2-2.48-3.41-5.51-3.41-8.52v-10.34c0-.41.28-.76.68-.84l9.92-2.09v-3.77c0-2.47-2.01-4.47-4.47-4.47H10.87c-2.47,0-4.47,2.01-4.47,4.47h0ZM33,43.81v-1.71H6.4v1.71c0,2.47,2.01,4.47,4.47,4.47h17.66c2.47,0,4.48-2.01,4.48-4.47h0ZM43.6,13.59l-9.74-2.05-9.74,2.05v9.64c0,5.25,4.45,10.39,9.74,11.3,5.29-.9,9.74-6.04,9.74-11.3v-9.64ZM30.18,21.75c-.34-.34-.88-.34-1.21,0-.34.34-.34.88,0,1.21l2.86,2.86c.17.17.39.25.61.25s.44-.08.61-.25l5.72-5.72c.34-.34.34-.88,0-1.21-.34-.34-.88-.34-1.21,0l-5.11,5.11-2.26-2.25Z"/>
    </g>
  </g>
</svg>