<?xml version="1.0" encoding="UTF-8"?>
<svg id="Layer_2" xmlns="http://www.w3.org/2000/svg" viewBox="0 0 50 49.24">
  <defs>
    <style>
      .cls-1 {
        fill: #f2632b;
      }
    </style>
  </defs>
  <g id="Layer_1-2" data-name="Layer_1">
    <g>
      <path class="cls-1" d="M33.41,11.51c-.41-.06-.79.24-.85.66-.05.42.24.79.66.85,8.7,1.08,15.26,8.51,15.26,17.29v17.42h-17.42c-8.77,0-16.2-6.55-17.29-15.25-.05-.42-.43-.71-.85-.66-.42.05-.71.43-.66.85,1.18,9.45,9.26,16.57,18.79,16.57h18.18c.42,0,.76-.34.76-.76v-18.18c0-9.54-7.13-17.62-16.59-18.79h0Z"/>
      <path class="cls-1" d="M29.52,12.18c-.05-.42-.43-.71-.85-.66-8.59,1.08-15.33,7.83-16.4,16.42-.05.42.24.79.66.85.03,0,.06,0,.09,0,.38,0,.7-.28.75-.66.98-7.9,7.19-14.11,15.09-15.1.42-.05.71-.43.66-.85h0Z"/>
      <path class="cls-1" d="M18.94,33.33c1.67,0,3.03-1.36,3.03-3.03s-1.36-3.03-3.03-3.03c-1.41,0-2.58.97-2.92,2.27h-6.17c-1.25,0-2.27-1.02-2.27-2.27v-14.4C7.58,6.61,12.67,1.51,18.94,1.51s11.36,5.1,11.36,11.36v10.61c0,1.25,1.02,2.27,2.27,2.27h3.03c1.25,0,2.27-1.02,2.27-2.27v-6.06c0-1.25-1.02-2.27-2.27-2.27h-3.03c-.27,0-.52.06-.76.14v-2.41C31.82,5.78,26.04,0,18.94,0,11.84,0,6.06,5.77,6.06,12.88v2.41c-.24-.09-.49-.14-.76-.14h-3.03c-1.25,0-2.27,1.02-2.27,2.27v6.06c0,1.25,1.02,2.27,2.27,2.27h3.03c.27,0,.52-.06.76-.14v1.66c0,2.09,1.7,3.79,3.79,3.79h6.17c.34,1.3,1.51,2.27,2.92,2.27h0ZM32.58,16.66h3.03c.42,0,.76.34.76.76v6.06c0,.42-.34.76-.76.76h-3.03c-.42,0-.76-.34-.76-.76v-6.06c0-.42.34-.76.76-.76ZM5.31,24.24h-3.03c-.42,0-.76-.34-.76-.76v-6.06c0-.42.34-.76.76-.76h3.03c.42,0,.76.34.76.76v6.06c0,.42-.34.76-.76.76ZM18.94,28.78c.84,0,1.51.68,1.51,1.51s-.68,1.51-1.51,1.51-1.51-.68-1.51-1.51.68-1.51,1.51-1.51Z"/>
      <path class="cls-1" d="M43.94,27.27h-15.91c-.42,0-.76.34-.76.76s.34.76.76.76h15.91c.42,0,.76-.34.76-.76s-.34-.76-.76-.76Z"/>
      <path class="cls-1" d="M43.94,31.06h-17.42c-.42,0-.76.34-.76.76s.34.76.76.76h17.42c.42,0,.76-.34.76-.76s-.34-.76-.76-.76Z"/>
      <path class="cls-1" d="M43.94,34.85h-24.24c-.42,0-.76.34-.76.76s.34.76.76.76h24.24c.42,0,.76-.34.76-.76s-.34-.76-.76-.76Z"/>
      <path class="cls-1" d="M43.94,38.63h-21.21c-.42,0-.76.34-.76.76s.34.76.76.76h21.21c.42,0,.76-.34.76-.76s-.34-.76-.76-.76Z"/>
      <path class="cls-1" d="M43.94,42.42h-15.91c-.42,0-.76.34-.76.76s.34.76.76.76h15.91c.42,0,.76-.34.76-.76s-.34-.76-.76-.76Z"/>
    </g>
  </g>
</svg>