<?xml version="1.0" encoding="UTF-8"?>
<svg id="Layer_2" xmlns="http://www.w3.org/2000/svg" xmlns:xlink="http://www.w3.org/1999/xlink" viewBox="0 0 50 50">
  <defs>
    <style>
      .cls-1 {
        fill: none;
      }

      .cls-2 {
        fill: #f2632b;
        fill-rule: evenodd;
      }

      .cls-3 {
        clip-path: url(#clippath);
      }
    </style>
    <clipPath id="clippath">
      <rect class="cls-1" width="50" height="50"/>
    </clipPath>
  </defs>
  <g id="Layer_1-2" data-name="Layer_1">
    <g class="cls-3">
      <path class="cls-2" d="M5.81,28.68c0,.34-.27.61-.61.61s-.61-.27-.61-.61V3.25c0-1.79,1.46-3.25,3.25-3.25h34.31c1.79,0,3.25,1.46,3.25,3.25v25.43c0,.34-.27.61-.61.61s-.61-.27-.61-.61V3.25c0-1.12-.92-2.04-2.04-2.04H7.84c-1.12,0-2.04.92-2.04,2.04v25.43h0ZM23.9,24.16v-3.7c0-.34-.27-.61-.61-.61h-.68l2.38-4.34,2.38,4.34h-.68c-.34,0-.61.27-.61.61v3.7c0,.34.27.61.61.61s.61-.27.61-.61v-3.09h1.1c.46,0,.76-.49.53-.9l-3.41-6.21c-.23-.43-.84-.43-1.07,0l-3.39,6.18c-.26.45.07.94.52.94h1.1v3.09c0,.34.27.61.61.61.34,0,.61-.27.61-.61h0ZM23.43,47.13c0,.34-.27.61-.61.61s-.61-.27-.61-.61v-1.57c-.96-.2-1.76-.89-1.79-2.04,0-.34.26-.61.59-.62.34,0,.61.26.62.59.03,1.24,2.37,1.2,2.37.01,0-.57-.59-.92-1.18-.92-2.22-.01-3.19-2.38-1.66-3.68.29-.25.65-.43,1.05-.53v-1.55c0-.34.27-.61.61-.61s.61.27.61.61v1.55c.98.23,1.76,1.02,1.79,2.05,0,.34-.26.61-.59.62s-.61-.26-.62-.59c-.02-.86-1.33-1.25-2.06-.63-.68.58-.19,1.53.87,1.54,1.28,0,2.4.88,2.4,2.13,0,1.15-.82,1.85-1.79,2.05v1.57h0ZM14.64,32.65h-2.43v-.66h2.43c.34,0,.61-.27.61-.61s-.27-.61-.61-.61h-2.12c.4-.98,1.29-2.16,2.37-2.16,1.02,0,1.91.56,2.38,1.44.16.3.53.41.82.25.3-.16.41-.53.25-.82-.68-1.27-1.99-2.09-3.45-2.09-1.79,0-3.14,1.75-3.66,3.38h-.83c-.34,0-.61.27-.61.61s.27.61.61.61h.58v.66h-.58c-.34,0-.61.27-.61.61s.27.61.61.61h.83c.52,1.63,1.88,3.38,3.66,3.38,1.41,0,2.69-.77,3.38-1.98.17-.29.07-.66-.22-.83-.29-.17-.66-.07-.83.22-.48.83-1.36,1.36-2.33,1.36-1.08,0-1.97-1.17-2.37-2.16h2.12c.34,0,.61-.27.61-.61s-.27-.61-.61-.61h0ZM38.28,39.18c.34,0,.61.27.61.61s-.27.61-.61.61h-2.36v2.32c0,.34-.27.61-.61.61s-.61-.27-.61-.61v-2.32h-2.36c-.34,0-.61-.27-.61-.61s.27-.61.61-.61h2.36v-.61h-2.36c-.34,0-.61-.27-.61-.61s.27-.61.61-.61h1.5l-2.73-2.73c-.24-.24-.24-.62,0-.86.24-.24.62-.24.86,0l3.33,3.33,3.33-3.33c.24-.24.62-.24.86,0,.24.24.24.62,0,.86l-2.73,2.73h1.5c.34,0,.61.27.61.61s-.27.61-.61.61h-2.36v.61h2.36ZM14.69,24.3c-4.43,0-8.01,3.59-8.01,8.01s3.79,8.2,8.36,8.01c-1.05,4.99,2.75,9.67,7.84,9.67,3.53,0,6.61-2.31,7.65-5.62,1.34,1,2.99,1.59,4.79,1.59,4.43,0,8.01-3.59,8.01-8.01s-3.59-8.01-8.01-8.01c-3.55,0-6.62,2.32-7.65,5.62-1.46-1.09-3.27-1.66-5.13-1.58,1.05-4.97-2.74-9.67-7.84-9.67h0ZM22.16,35.23c-.98,2.51-3.18,4.39-5.84,4.94-1.19,4.29,2.03,8.61,6.55,8.61,3.2,0,5.94-2.23,6.63-5.3-1.64-1.72-2.47-4.12-2.14-6.59-1.43-1.26-3.29-1.85-5.2-1.66h0ZM19.5,27.51c-2.65-2.65-6.96-2.65-9.61,0s-2.65,6.96,0,9.61,6.96,2.65,9.61,0,2.65-6.96,0-9.61h0ZM40.11,33.15c-2.65-2.65-6.96-2.65-9.61,0-2.65,2.65-2.65,6.96,0,9.61,2.65,2.65,6.96,2.65,9.61,0,2.65-2.65,2.65-6.96,0-9.61h0ZM34.68,11.36h5.88c.34,0,.61-.27.61-.61s-.27-.61-.61-.61h-5.88c-.34,0-.61.27-.61.61s.27.61.61.61h0ZM22.06,11.36h5.88c.34,0,.61-.27.61-.61s-.27-.61-.61-.61h-5.88c-.34,0-.61.27-.61.61s.27.61.61.61h0ZM9.14,2.57c-.66,0-1.21.54-1.21,1.21v2.63c0,.66.54,1.21,1.21,1.21h6.5c.33,0,.63-.14.85-.35h0c.22-.22.36-.52.36-.85v-2.63c0-.66-.54-1.21-1.21-1.21h-6.5ZM15.62,3.79h-6.47v2.6h6.47v-2.6h0ZM9.45,11.36h5.88c.34,0,.61-.27.61-.61s-.27-.61-.61-.61h-5.88c-.34,0-.61.27-.61.61s.27.61.61.61Z"/>
    </g>
  </g>
</svg>