<?xml version="1.0" encoding="UTF-8"?>
<svg id="Layer_2" xmlns="http://www.w3.org/2000/svg" viewBox="0 0 49.99 50">
  <defs>
    <style>
      .cls-1 {
        fill: #f2632b;
      }
    </style>
  </defs>
  <g id="Layer_1-2" data-name="Layer_1">
    <path class="cls-1" d="M38.04,1.71c-2.83,0-5.4,1.15-7.25,3-1.86,1.86-3,4.42-3,7.25,0,2.06.61,3.98,1.66,5.59.35-1.07.91-2.01,1.62-2.82.92-1.05,2.11-1.86,3.47-2.41-.71-.81-1.13-1.88-1.13-3.04,0-1.28.52-2.44,1.36-3.28.84-.84,2-1.36,3.28-1.36s2.44.52,3.28,1.36c.84.84,1.36,2,1.36,3.28,0,1.16-.43,2.22-1.13,3.04,1.36.55,2.55,1.36,3.47,2.41.72.81,1.27,1.76,1.62,2.83,1.05-1.61,1.66-3.53,1.66-5.6,0-2.83-1.15-5.39-3-7.25-1.86-1.86-4.42-3-7.25-3h0ZM35.57,37.58c.33-.33.87-.33,1.21,0,.33.33.33.87,0,1.21l-1.46,1.46h2.37c.7,0,1.34-.29,1.8-.75.46-.46.75-1.11.75-1.8v-9.38c0-.47.38-.85.85-.85s.85.38.85.85v9.38c0,1.17-.48,2.23-1.25,3.01-.77.77-1.84,1.25-3.01,1.25h-2.37l1.46,1.46c.33.33.33.87,0,1.21-.33.33-.87.33-1.21,0l-2.92-2.92c-.33-.33-.33-.87,0-1.21l2.92-2.92h0ZM20.44,6.59c-.33-.33-.33-.87,0-1.21.33-.33.87-.33,1.21,0l2.92,2.92c.33.33.33.87,0,1.21l-2.92,2.92c-.33.33-.87.33-1.21,0-.33-.33-.33-.87,0-1.21l1.46-1.46h-9.59c-.7,0-1.34.29-1.8.75-.46.46-.75,1.11-.75,1.81v3.29c0,.47-.38.85-.85.85s-.85-.38-.85-.85v-3.29c0-1.17.48-2.23,1.25-3.01h0c.77-.77,1.84-1.25,3.01-1.25h9.59l-1.46-1.46h0ZM25.49,44.14c-.24-1.87-1.01-3.51-2.16-4.83l-.04-.04c-1.29-1.46-3.04-2.53-5.04-3.09l-.09-.03c-.77.38-1.65.59-2.57.59s-1.79-.21-2.57-.59l-.09.03c-2.02.56-3.79,1.65-5.08,3.13-1.15,1.32-1.92,2.97-2.16,4.84l.08.08c2.51,2.51,5.98,4.07,9.82,4.07s7.31-1.55,9.82-4.07l.04-.04.05-.05h0ZM19.84,34.91c1.85.7,3.47,1.81,4.73,3.23l.04.05c1.06,1.22,1.85,2.66,2.28,4.29,1.62-2.27,2.58-5.06,2.58-8.06,0-3.84-1.55-7.31-4.06-9.82-2.51-2.51-5.98-4.07-9.82-4.07s-7.31,1.55-9.82,4.07c-2.51,2.51-4.06,5.98-4.06,9.82,0,3.01.96,5.79,2.58,8.06.44-1.62,1.22-3.07,2.28-4.28,1.26-1.45,2.9-2.57,4.77-3.28-1-1.05-1.62-2.48-1.62-4.05s.66-3.09,1.72-4.15c1.06-1.06,2.53-1.72,4.15-1.72s3.09.66,4.15,1.72c1.06,1.06,1.72,2.53,1.72,4.15s-.61,3-1.62,4.05h0ZM15.58,26.69c-1.15,0-2.19.47-2.95,1.22-.75.75-1.22,1.8-1.22,2.95s.47,2.19,1.22,2.95c.75.75,1.8,1.22,2.95,1.22s2.19-.47,2.95-1.22c.75-.75,1.22-1.8,1.22-2.95s-.47-2.19-1.22-2.95c-.75-.75-1.8-1.22-2.95-1.22ZM4.56,23.39c2.82-2.82,6.72-4.57,11.02-4.57s8.19,1.74,11.02,4.56h0c2.82,2.83,4.57,6.72,4.57,11.02s-1.73,8.15-4.52,10.97l-.05.05c-2.82,2.82-6.72,4.57-11.02,4.57s-8.19-1.74-11.02-4.56h0c-2.82-2.83-4.57-6.72-4.57-11.02s1.74-8.2,4.57-11.02h0ZM30.8,19.21c1.86,1.85,4.41,2.99,7.24,2.99s5.39-1.14,7.24-2.99c-.19-1.31-.74-2.44-1.55-3.36-.95-1.07-2.25-1.86-3.74-2.27-.04-.01-.08-.03-.12-.04-.56.24-1.18.38-1.83.38s-1.27-.14-1.83-.38c-.04.02-.08.03-.12.04-1.49.42-2.79,1.2-3.74,2.27-.81.92-1.36,2.05-1.55,3.36h0ZM38.04,6.35c-.81,0-1.54.33-2.07.86-.53.53-.86,1.26-.86,2.07s.33,1.54.86,2.07c.53.53,1.26.86,2.07.86s1.54-.33,2.07-.86c.53-.53.86-1.26.86-2.07s-.33-1.54-.86-2.07c-.53-.53-1.26-.86-2.07-.86ZM29.59,3.5c2.16-2.16,5.15-3.5,8.45-3.5s6.29,1.34,8.45,3.5c2.16,2.16,3.5,5.15,3.5,8.45s-1.32,6.24-3.46,8.4l-.05.05c-2.16,2.16-5.15,3.5-8.45,3.5s-6.29-1.34-8.45-3.5c-2.16-2.16-3.5-5.15-3.5-8.45s1.34-6.29,3.5-8.45h0Z"/>
  </g>
</svg>