<?xml version="1.0" encoding="UTF-8"?>
<svg id="Layer_2" xmlns="http://www.w3.org/2000/svg" viewBox="0 0 48.21 50">
  <defs>
    <style>
      .cls-1 {
        fill: #f2632b;
      }
    </style>
  </defs>
  <g id="Layer_1-2" data-name="Layer_1">
    <path class="cls-1" d="M47.32,10.71h-7.14c-.49,0-.89.4-.89.89s.4.89.89.89h7.14c.49,0,.89-.4.89-.89s-.4-.89-.89-.89ZM25,12.39c-.49,0-.89.4-.89.89v.89c0,.49.4.89.89.89s.89-.4.89-.89v-.89c0-.24-.09-.46-.26-.63s-.4-.26-.63-.26h0ZM42.86,14.29h-4.46c-.49,0-.89.4-.89.89s.4.89.89.89h4.46c.49,0,.89-.4.89-.89s-.4-.89-.89-.89ZM17.32,20.98h-.89c-.49,0-.89.4-.89.89s.4.89.89.89h.89c.49,0,.89-.4.89-.89s-.4-.89-.89-.89ZM33.59,20.98h-.89c-.49,0-.89.4-.89.89s.4.89.89.89h.89c.49,0,.89-.4.89-.89s-.4-.89-.89-.89ZM32.78,24.5c-.45-.2-.97,0-1.18.44-.73,1.58-1.99,2.85-3.57,3.57-.45.21-.64.74-.43,1.19.15.32.46.52.81.52.13,0,.26-.03.38-.08,1.94-.91,3.5-2.46,4.4-4.4.12-.22.14-.47.06-.71-.08-.23-.25-.42-.47-.53h0ZM25,28.66c-.49,0-.89.4-.89.89v.89c0,.49.4.89.89.89s.89-.4.89-.89v-.89c0-.24-.09-.46-.26-.63s-.4-.26-.63-.26h0ZM25,9.82c-3.74,0-7.27,1.74-9.55,4.7-2.28,2.96-3.06,6.82-2.1,10.43.96,3.61,3.54,6.58,6.98,8.03,3.45,1.45,7.37,1.22,10.62-.63.43-.25.58-.79.33-1.22s-.79-.58-1.22-.33c-2.99,1.73-6.66,1.83-9.75.28-3.09-1.55-5.19-4.56-5.58-8-.39-3.43.97-6.84,3.63-9.05,2.66-2.21,6.25-2.94,9.56-1.93,3.31,1.01,5.89,3.61,6.86,6.93.97,3.32.21,6.9-2.03,9.54-.18.17-.28.42-.27.67,0,.25.12.48.31.65.19.16.44.24.69.21.25-.03.47-.16.62-.36,2.02-2.34,3.06-5.36,2.91-8.45-.15-3.08-1.48-6-3.71-8.13-2.23-2.13-5.2-3.33-8.29-3.33h0ZM40.18,17.86c-.49,0-.89.4-.89.89v18.75c0,.49.4.89.89.89s.89-.4.89-.89v-18.75c0-.24-.09-.46-.26-.63s-.4-.26-.63-.26h0ZM44.64,41.07h-25.89c-.49,0-.89.4-.89.89v2.68c0,1.97-1.6,3.57-3.57,3.57s-3.57-1.6-3.57-3.57V5.36c0-1.32-.49-2.59-1.37-3.57h24.58c2.96,0,5.36,2.4,5.36,5.36h-2.68c-.49,0-.89.4-.89.89s.4.89.89.89h8.04c.49,0,.89-.4.89-.89s-.4-.89-.89-.89h-3.57c0-1.9-.75-3.71-2.09-5.05s-3.16-2.09-5.05-2.09H5.36C2.4,0,0,2.4,0,5.36v10.71c0,.95.38,1.85,1.05,2.52s1.58,1.05,2.52,1.05h2.68c.49,0,.89-.4.89-.89s-.4-.89-.89-.89h-2.68c-.99,0-1.79-.8-1.79-1.79V5.36c0-1.97,1.6-3.57,3.57-3.57s3.57,1.6,3.57,3.57v39.29c0,2.96,2.4,5.36,5.36,5.36s5.36-2.4,5.36-5.36v-1.79h24.11v1.79c0,.95-.38,1.85-1.05,2.52s-1.58,1.05-2.52,1.05h-18.75c-.49,0-.89.4-.89.89s.4.89.89.89h18.75c2.96,0,5.36-2.4,5.36-5.36v-2.68c0-.24-.09-.46-.26-.63s-.4-.26-.63-.26h0ZM30.14,17.31l-3.48,4.01c.06.18.09.37.09.55-.05.76-.57,1.41-1.31,1.61-.74.2-1.52-.09-1.95-.72h-2.79c-.49,0-.89-.4-.89-.89s.4-.89.89-.89h2.79c.38-.61,1.08-.94,1.79-.83l3.48-4.01c.15-.19.38-.31.62-.33.24-.02.48.06.66.22.18.16.29.38.31.63.01.24-.07.48-.23.65h.04Z"/>
  </g>
</svg>