<?xml version="1.0" encoding="UTF-8"?>
<svg id="Layer_2" xmlns="http://www.w3.org/2000/svg" xmlns:xlink="http://www.w3.org/1999/xlink" viewBox="0 0 50 50">
  <defs>
    <style>
      .cls-1 {
        fill: #f2632b;
      }

      .cls-2 {
        fill: none;
      }

      .cls-3 {
        clip-path: url(#clippath);
      }
    </style>
    <clipPath id="clippath">
      <rect class="cls-2" width="50" height="50"/>
    </clipPath>
  </defs>
  <g id="Layer_1-2" data-name="Layer_1">
    <g class="cls-3">
      <g>
        <path class="cls-1" d="M44.83,27.16c-.32-1.62-.78-3.21-1.35-4.6-.6-1.46-1.49-2.78-2.34-4.06-1.88-2.81-3.83-5.72-3.09-10.46.17-1.08-.13-1.94-.84-2.42-.36-.24-.81-.37-1.31-.37-.27,0-.55.04-.83.11-.55.14-1.12.41-1.64.79v-2.25c0-1.04-.41-2.02-1.15-2.76-.74-.74-1.72-1.15-2.76-1.15H13.02c-1.04,0-2.02.41-2.76,1.15s-1.15,1.72-1.15,2.76v9.83c-.24-.05-.47-.08-.71-.08-1.01,0-1.96.47-2.67,1.32-.68.82-1.05,1.9-1.05,3.05s.37,2.23,1.05,3.05c.26.31.55.57.87.78-.29.19-.55.43-.77.7-.63.76-.98,1.77-.98,2.84s.35,2.08.98,2.84c.26.31.56.57.88.78-.31.2-.6.45-.85.75-.63.76-.98,1.77-.98,2.84s.35,2.08.98,2.84c.32.39.71.7,1.13.91-.09.09-.17.18-.25.27-.58.71-.9,1.63-.9,2.61s.32,1.91.9,2.61c.61.74,1.43,1.14,2.31,1.14.69,0,1.34-.25,1.89-.72.23.15.48.27.73.36.43.16.89.24,1.35.24h2.83c1.03,2.44,3.09,4.47,5.83,5.74,1.59.74,3.36,1.2,5.11,1.32.33.02.66.04.98.04,1.43,0,2.77-.23,3.97-.67,1.9-.7,3.33-1.92,4.09-3.47.77-.16,1.51-.39,2.2-.67,3.26-1.34,5.46-3.91,6.56-7.65.88-2.99.96-6.68.25-10.37ZM34.91,45.06c-.67,1.43-1.9,2.51-3.59,3.13-1.07.39-2.26.59-3.56.59-.29,0-.59-.01-.89-.03-1.61-.11-3.23-.53-4.68-1.21-2.31-1.07-4.03-2.68-5-4.64h12.33c1.04,0,2.02-.41,2.76-1.15s1.15-1.72,1.15-2.76v-16.27c.5-2.02.28-2.59-.29-4.13-.25-.68-.6-1.62-1-3.09-1.1-4.13.23-6.49,1.16-7.59.11-.13.23-.25.35-.36.53-.5,1.14-.86,1.71-1,.19-.05.37-.07.54-.07.25,0,.47.06.62.16.3.2.41.64.32,1.23-.82,5.21,1.27,8.31,3.28,11.32.82,1.23,1.67,2.5,2.23,3.85.54,1.31.98,2.82,1.28,4.36.68,3.51.6,6.99-.22,9.8-.98,3.37-2.95,5.68-5.85,6.87-.68.28-1.42.5-2.19.65-.21.03-.38.16-.47.35ZM7.68,41.1c-.4-.49-.62-1.14-.62-1.84s.22-1.35.62-1.84c.37-.45.86-.7,1.37-.7s1,.25,1.37.7c.4.49.62,1.14.62,1.84s-.22,1.35-.62,1.84c-.37.45-.86.7-1.37.7s-1-.25-1.37-.7ZM8.41,14.88c.65,0,1.26.31,1.73.88.5.6.77,1.41.77,2.27s-.27,1.67-.77,2.28c-.47.57-1.09.88-1.73.88s-1.26-.31-1.73-.88c-.5-.6-.77-1.41-.77-2.28s.27-1.67.77-2.27c.47-.57,1.09-.88,1.73-.88ZM13.02,1.22h16.5c.71,0,1.39.28,1.9.79.51.51.79,1.18.79,1.9v1.55H10.33v-1.56c0-.71.28-1.39.79-1.9.51-.51,1.18-.79,1.9-.79ZM30.96,15.81c.41,1.52.79,2.54,1.04,3.2.48,1.28.66,1.76.23,3.46-.02.07-.02.14-.02.26v12.05H11.31c.35-.65.53-1.4.53-2.17,0-1.07-.35-2.08-.98-2.84-.18-.21-.37-.4-.53-.48l-.04-.53c.19-.15.37-.33.53-.52.63-.77.98-1.78.98-2.84,0-1.34-.56-2.6-1.47-3.29l-.04-.32c.29-.2.56-.44.79-.73h0c.68-.82,1.05-1.91,1.05-3.05s-.37-2.23-1.05-3.05c-.23-.28-.49-.52-.74-.64v-7.67h21.88l.02.62c-1,1.23-2.49,3.96-1.27,8.52ZM8.33,22.56c.36,0,.71.11,1.09.36.72.5,1.17,1.46,1.17,2.51,0,.78-.25,1.52-.7,2.07-.15.19-.32.34-.51.46-.32.22-.69.33-1.05.33-.58,0-1.13-.28-1.56-.8-.45-.55-.7-1.28-.7-2.07s.25-1.52.7-2.07c.42-.51.98-.8,1.56-.8ZM8.37,29.76c.58,0,1.14.28,1.56.8.45.55.7,1.28.7,2.07s-.25,1.52-.7,2.07c-.06.07-.12.14-.17.19-.07.04-.12.09-.15.13-.37.31-.8.48-1.24.48-.58,0-1.14-.28-1.56-.8-.45-.55-.7-1.28-.7-2.07s.25-1.52.7-2.07c.42-.51.98-.8,1.56-.8ZM12.26,39.26c0-.98-.32-1.91-.9-2.61-.21-.25-.44-.47-.7-.64h21.56v2.98c0,.71-.28,1.39-.79,1.9-.51.51-1.18.79-1.9.79H13.02c-.32,0-.63-.05-.93-.16-.13-.05-.25-.11-.37-.17.35-.62.54-1.34.54-2.08Z"/>
        <path class="cls-1" d="M19.25,39.45h4.04c.34,0,.61-.27.61-.61s-.27-.61-.61-.61h-4.04c-.34,0-.61.27-.61.61s.27.61.61.61Z"/>
        <path class="cls-1" d="M24.88,15.25h3.1v3.08c0,.34.27.61.61.61s.61-.27.61-.61v-3.69c0-.34-.27-.61-.61-.61h-3.71c-.34,0-.61.27-.61.61s.27.61.61.61Z"/>
        <path class="cls-1" d="M27.29,26.86v-10.39c0-.34-.27-.61-.61-.61h-10.83c-.34,0-.61.27-.61.61v10.39c0,.33.27.61.61.61h10.83c.34,0,.61-.27.61-.61ZM16.46,18.77v-1.69h1.81v1.69h-1.81ZM24.26,18.77v-1.69h1.81v1.69h-1.81ZM18.88,19.98c.34,0,.61-.27.61-.61v-2.3h3.56v2.3c0,.34.27.61.61.61h2.42v6.27s-6.58,0-6.58,0v-2.3c0-.34-.27-.61-.61-.61h-2.42v-3.36s2.42,0,2.42,0ZM16.46,26.26v-1.69h1.81v1.69h-1.81Z"/>
        <path class="cls-1" d="M20.21,21.92c.29.23.67.36,1.07.36.13,0,.24.03.32.09l.06-.08-.06.22c-.07.06-.19.09-.32.09-.09,0-.17-.02-.24-.05-.05-.03-.1-.06-.12-.09-.11-.17-.3-.27-.5-.27-.12,0-.24.04-.34.1-.13.09-.23.23-.26.39-.03.16,0,.32.09.46.15.22.36.39.6.51.05.02.1.05.16.06v.08c0,.34.27.61.61.61s.61-.27.61-.6v-.09c.17-.06.33-.15.46-.25.34-.27.52-.63.52-1.02s-.18-.76-.52-1.02c-.29-.23-.67-.36-1.07-.36-.13,0-.24-.03-.32-.09l-.06.08.06-.22c.07-.06.19-.09.32-.09.08,0,.16.02.23.04.05.02.1.05.12.09.12.14.29.22.47.22.14,0,.28-.05.38-.14.12-.1.2-.25.22-.41.02-.16-.03-.32-.14-.44-.15-.18-.35-.33-.59-.43-.03-.01-.06-.03-.1-.04v-.08c0-.34-.27-.61-.61-.61s-.61.27-.61.61v.08c-.17.06-.32.14-.46.25-.34.26-.52.63-.52,1.02s.18.76.52,1.02Z"/>
        <path class="cls-1" d="M28.59,24.94c-.34,0-.61.27-.61.61v2.53h-3.1c-.34,0-.61.27-.61.61s.27.61.61.61h3.71c.33,0,.61-.27.61-.61v-3.14c0-.34-.27-.61-.61-.61Z"/>
        <path class="cls-1" d="M13.95,18.94c.34,0,.61-.27.61-.61v-3.08h3.1c.34,0,.61-.27.61-.61s-.27-.61-.61-.61h-3.71c-.34,0-.61.27-.61.61v3.69c0,.34.27.61.61.61Z"/>
        <path class="cls-1" d="M17.66,28.08h-3.1s0-2.53,0-2.53c0-.34-.27-.61-.61-.61s-.61.27-.61.61v3.14c0,.33.27.61.61.61h3.71c.34,0,.61-.27.61-.61s-.27-.61-.61-.61Z"/>
        <path class="cls-1" d="M23.63,25.96c.34,0,.61-.27.61-.61v-.77l.97-.02c.33,0,.6-.29.59-.62,0-.33-.28-.59-.62-.59l-1.56.03c-.34,0-.61.27-.61.61v1.36c0,.34.27.61.61.61Z"/>
      </g>
    </g>
  </g>
</svg>