<?xml version="1.0" encoding="UTF-8"?>
<svg id="Layer_2" xmlns="http://www.w3.org/2000/svg" xmlns:xlink="http://www.w3.org/1999/xlink" viewBox="0 0 196 120">
  <defs>
    <style>
      .cls-1 {
        fill: #f15e24;
      }

      .cls-2 {
        fill: none;
      }

      .cls-3 {
        clip-path: url(#clippath);
      }
    </style>
    <clipPath id="clippath">
      <rect class="cls-2" width="196" height="120"/>
    </clipPath>
  </defs>
  <g id="Layer_1-2" data-name="Layer_1">
    <g class="cls-3">
      <path class="cls-1" d="M36.99,120h122.04c4.81,0,8.71-3.9,8.71-8.71V8.73c0-4.81-3.9-8.72-8.71-8.73H36.99c-4.82,0-8.73,3.9-8.73,8.73v102.57c0,4.81,3.91,8.71,8.73,8.71ZM60.8,95.22l-4.42-4.44c-.34-.34-.53-.79-.53-1.27s.19-.93.53-1.26l11.5-11.51h0c.71-.7,1.84-.7,2.55,0l4.44,4.46c1.59,1.54,3.98,1.91,5.97.95,1.19-.56,2.4-1.06,3.64-1.49,2.09-.73,3.51-2.7,3.54-4.92v-6.28c0-.99.8-1.79,1.79-1.81h16.3,0c.99.01,1.79.82,1.79,1.81v6.28c.04,2.22,1.45,4.18,3.56,4.92,1.23.43,2.44.93,3.62,1.49,2,.96,4.39.57,5.98-.97l4.42-4.44h0c.71-.7,1.84-.7,2.55,0l11.5,11.51h0c.34.33.54.79.53,1.26,0,.48-.19.94-.54,1.28l-4.36,4.44c-1.59,1.56-1.98,3.97-.97,5.95.59,1.29,1.09,2.48,1.5,3.65h0c.71,2.08,2.65,3.49,4.85,3.54h6.26c1,0,1.81.8,1.82,1.81v6.43h-22.98c-.58-9.47-5.96-17.99-14.28-22.56-8.31-4.58-18.39-4.58-26.7,0-8.31,4.57-13.69,13.09-14.28,22.56h-23.05v-6.43c0-1,.82-1.81,1.82-1.81h6.33c2.23-.02,4.19-1.44,4.92-3.53.43-1.17.9-2.38,1.5-3.64.96-2.01.55-4.41-1.04-5.97h-.05ZM122.22,116.6h-48.44c.54-8.28,5.27-15.71,12.54-19.7,7.27-3.99,16.09-3.99,23.36,0,7.27,3.99,12,11.42,12.54,19.7h0ZM159.03,116.6h-6.96v-6.43c0-2.88-2.34-5.2-5.22-5.2h-6.33c-.78-.01-1.46-.52-1.7-1.26-.46-1.29-.99-2.58-1.7-3.98-.36-.7-.24-1.54.29-2.11l4.42-4.42c.98-.98,1.53-2.3,1.53-3.69s-.55-2.7-1.53-3.68l-11.35-11.5c-1.15-1.15-2.79-1.69-4.4-1.46v-13.96c0-2.35,1.54-4.43,3.79-5.1v1.1c0,2.82,2.29,5.1,5.1,5.1h5.91c2.81,0,5.1-2.28,5.1-5.1v-5.99c0-2.81-2.29-5.1-5.1-5.1h-5.91c-2.81,0-5.1,2.29-5.1,5.1v1.42c-4.13.73-7.15,4.31-7.19,8.5v15.85l-3.98,4.03c-.57.55-1.42.67-2.12.31-1.28-.64-2.6-1.21-3.95-1.7-.74-.24-1.26-.92-1.29-1.7v-6.17c0-2.87-2.32-5.2-5.19-5.2h-6.44v-15.54h1.26c2.82,0,5.1-2.29,5.1-5.1v-5.91c0-2.81-2.28-5.1-5.1-5.1h-5.9c-2.82,0-5.1,2.29-5.1,5.1v5.91c0,2.81,2.28,5.1,5.1,5.1h1.24v15.54h-6.44c-2.87,0-5.19,2.33-5.19,5.2v6.28c-.02.78-.53,1.46-1.28,1.7-1.35.49-2.67,1.07-3.96,1.7-.72.33-1.57.17-2.11-.41l-4-4.01v-15.8c-.04-4.2-3.06-7.77-7.19-8.51v-1.41c0-2.82-2.29-5.1-5.1-5.1h-5.91c-2.81,0-5.1,2.28-5.1,5.1v5.92c0,2.82,2.29,5.1,5.1,5.1h5.91c2.81,0,5.1-2.28,5.1-5.1v-.99c2.25.68,3.8,2.75,3.79,5.1v13.97c-1.61-.22-3.24.32-4.4,1.46l-11.48,11.5c-.99.96-1.54,2.29-1.53,3.67-.01,1.38.54,2.7,1.53,3.67l4.42,4.46h0c.54.57.65,1.41.29,2.1-.63,1.28-1.2,2.6-1.7,3.95-.24.74-.92,1.25-1.7,1.28h-6.19c-2.88,0-5.21,2.33-5.22,5.2v6.43h-6.94c-1.44,0-2.8-.57-3.8-1.59-1-1.02-1.55-2.4-1.52-3.83V24.1h132.68v87.19c0,2.93-2.37,5.31-5.31,5.31h0ZM133.28,51.97v-3.05c0-.94.76-1.7,1.7-1.7h5.91c.45,0,.88.18,1.2.5.32.32.5.75.5,1.2v5.99c0,.45-.18.89-.5,1.21-.32.32-.75.5-1.2.5h-5.91c-.94,0-1.7-.77-1.7-1.7v-2.94ZM98,45.29h-2.94c-.94,0-1.7-.76-1.7-1.7v-5.91c0-.94.76-1.7,1.7-1.7h5.9c.45,0,.89.18,1.21.5s.5.75.5,1.2v5.91c0,.45-.18.88-.5,1.2-.32.32-.75.5-1.21.5h-2.96ZM62.72,51.84v3.06c0,.45-.18.89-.5,1.21-.32.32-.75.5-1.2.5h-5.91c-.94,0-1.7-.77-1.7-1.7v-5.99c0-.94.76-1.7,1.7-1.7h5.91c.45,0,.88.18,1.2.5.32.32.5.75.5,1.2v2.93ZM36.99,3.4h122.04c2.93.01,5.31,2.39,5.31,5.33v11.91H31.66v-11.91c0-2.94,2.39-5.33,5.33-5.33h0ZM43.79,12.05h0c0-.94.77-1.7,1.7-1.7h3.21c.94,0,1.7.76,1.7,1.7s-.77,1.7-1.7,1.7h-3.13c-.45,0-.88-.18-1.2-.5-.32-.32-.5-.75-.5-1.2h-.08ZM54.79,12.05h0c0-.94.76-1.7,1.7-1.7h3.21c.94,0,1.7.76,1.7,1.7s-.76,1.7-1.7,1.7h-3.13c-.45,0-.89-.18-1.21-.5s-.5-.75-.5-1.2h-.08ZM65.76,12.05h0c0-.94.76-1.7,1.7-1.7h3.33c.94,0,1.7.76,1.7,1.7s-.76,1.7-1.7,1.7h-3.25c-.45,0-.89-.18-1.21-.5s-.5-.75-.5-1.2h-.08Z"/>
    </g>
  </g>
</svg>