<?xml version="1.0" encoding="UTF-8"?>
<svg id="Layer_2" xmlns="http://www.w3.org/2000/svg" xmlns:xlink="http://www.w3.org/1999/xlink" viewBox="0 0 196 120">
  <defs>
    <style>
      .cls-1 {
        fill: none;
      }

      .cls-2 {
        fill: #f15f26;
      }

      .cls-3 {
        clip-path: url(#clippath);
      }
    </style>
    <clipPath id="clippath">
      <rect class="cls-1" width="196" height="120"/>
    </clipPath>
  </defs>
  <g id="Layer_1-2" data-name="Layer_1">
    <g id="Layer_1-3" data-name="Layer_1">
      <g class="cls-3">
        <path class="cls-2" d="M90.8,40.4c.9,3.5,4.1,5.9,7.7,5.9h3v8.2c.1,1,1,1.9,2,1.8.4,0,.8-.1,1.1-.4l13.1-9.7h16.2c3.6,0,6.8-2.4,7.7-5.9l8.3-30.2c1.2-4.3-1.3-8.7-5.6-9.9-.6-.2-1.3-.2-2-.2h-52c-4.4,0-8,3.6-8,8,0,.7,0,1.4.3,2.1l8.3,30.2-.1.1ZM86.8,5.4c.8-1.1,2.1-1.7,3.4-1.7h52c2.4,0,4.3,1.9,4.3,4.3,0,.4,0,.8-.2,1.1l-8.3,30.2c-.5,1.9-2.2,3.2-4.2,3.2h-16.8c-.4,0-.8.1-1.1.4l-10.7,7.9v-6.4c-.1-1-.9-1.8-2-1.8h-4.8c-1.9,0-3.7-1.3-4.2-3.2l-8.3-30.2c-.4-1.3-.1-2.7.7-3.7h0l.2-.1ZM99.2,17.4c0-1,.8-1.9,1.9-1.9h15.2c1,0,1.9.8,1.9,1.9,0,1-.8,1.9-1.9,1.9h-15.2c-1,0-1.9-.8-1.9-1.9h0ZM99.2,28c0-1,.8-1.9,1.9-1.9h30.3c1,0,1.9.8,1.9,1.9,0,1-.8,1.9-1.9,1.9h-30.3c-1,0-1.9-.8-1.9-1.9h0ZM164,116.3h-11.5c2.8-2.6,4.5-6.3,4.5-10.2v-12.9c0-6.5-4.5-12.1-10.8-13.6,6.6-5.3,7.7-14.9,2.4-21.5s-14.9-7.7-21.5-2.4c-6.6,5.3-7.7,14.9-2.4,21.5.7.9,1.5,1.7,2.4,2.4-5,1.2-9,5-10.3,10h-30c.1-.7.2-1.5.2-2.2v-14.7c0-7.4-5.3-13.8-12.6-15.3,7.6-5.7,9.1-16.4,3.4-24-5.7-7.6-16.4-9.1-24-3.4-7.6,5.7-9.1,16.4-3.4,24,1,1.3,2.1,2.5,3.4,3.4-7.3,1.4-12.6,7.8-12.6,15.3v14.7c0,.7,0,1.5.2,2.2h-9.4c-1,0-1.9.8-1.9,1.9h0v13.7c0,1,.8,1.9,1.9,1.9h84.4c.3,3.5,1.8,6.8,4.4,9.2h-11.5c-1,0-1.8.9-1.8,1.9s.8,1.8,1.8,1.8h54.9c1,0,1.9-.8,1.9-1.8s-.8-1.9-1.8-1.9h-.3ZM125,67.7c0-6.4,5.2-11.6,11.6-11.6s11.6,5.2,11.6,11.6-5.2,11.6-11.6,11.6-11.6-5.2-11.6-11.6ZM50.7,43.8c0-7.4,6-13.4,13.4-13.4s13.4,6,13.4,13.4-6,13.4-13.4,13.4-13.4-6-13.4-13.4ZM44.9,87.4v-14.7c0-6.5,5.3-11.8,11.8-11.8h14.7c6.5,0,11.8,5.3,11.8,11.8v14.7c0,.7,0,1.5-.2,2.2h-37.8c-.1-.7-.2-1.5-.2-2.2h-.1ZM116.2,103.3H33.8v-10h82.4v10ZM130.1,116.3c-5.6,0-10.2-4.6-10.2-10.2v-12.9c0-5.6,4.6-10.2,10.2-10.2h12.9c5.6,0,10.2,4.6,10.2,10.2v12.9c0,5.6-4.6,10.2-10.2,10.2h-12.9Z"/>
      </g>
    </g>
  </g>
</svg>