<svg xmlns="http://www.w3.org/2000/svg" xmlns:xlink="http://www.w3.org/1999/xlink" viewBox="0 0 70 60"><defs><style>.cls-1{fill:none;}.cls-2{clip-path:url(#clip-path);}</style><clipPath id="clip-path" transform="translate(-14)"><rect class="cls-1" width="98" height="60"/></clipPath></defs><title>blog_1</title><g id="Layer_2" data-name="Layer 2"><g id="blog"><g class="cls-2"><path d="M77.75,0H20.25A6.25,6.25,0,0,0,14,6.25v47.5A6.25,6.25,0,0,0,20.25,60h57.5A6.25,6.25,0,0,0,84,53.75V6.25A6.25,6.25,0,0,0,77.75,0ZM81.5,53.75a3.75,3.75,0,0,1-3.75,3.75H20.25a3.75,3.75,0,0,1-3.75-3.75V14.55H37.75a1.27,1.27,0,0,0,.83-.31l3.39-3H81.5Zm0-45h-40a1.27,1.27,0,0,0-.83.31l-3.39,3H16.5V6.25A3.75,3.75,0,0,1,20.25,2.5h57.5A3.75,3.75,0,0,1,81.5,6.25Z" transform="translate(-14)"/><path d="M22.75,6A1.24,1.24,0,0,0,21.53,7.3a1.22,1.22,0,1,0,2.44,0A1.24,1.24,0,0,0,22.75,6Z" transform="translate(-14)"/><path d="M27.75,6A1.24,1.24,0,0,0,26.53,7.3a1.22,1.22,0,1,0,2.44,0A1.24,1.24,0,0,0,27.75,6Z" transform="translate(-14)"/><path d="M32.75,6A1.25,1.25,0,1,0,34,7.25,1.25,1.25,0,0,0,32.75,6Z" transform="translate(-14)"/><path d="M25.25,21V31a1.25,1.25,0,0,0,1.25,1.25H70.9A1.25,1.25,0,0,0,72.15,31h0V21a1.25,1.25,0,0,0-1.25-1.25H26.5A1.25,1.25,0,0,0,25.25,21Zm2.5,1.25h41.9v7.5H27.75Z" transform="translate(-14)"/><path d="M46.5,36.44h-20a1.25,1.25,0,0,0-1.25,1.25h0v10a1.25,1.25,0,0,0,1.25,1.25h20a1.25,1.25,0,0,0,1.25-1.25h0v-10a1.25,1.25,0,0,0-1.25-1.25Zm-1.25,10H27.75v-7.5h17.5Z" transform="translate(-14)"/><path d="M56.5,36.44a1.25,1.25,0,0,0-1.25,1.25h0V51a1.25,1.25,0,0,0,1.25,1.25h15A1.25,1.25,0,0,0,72.75,51h0V37.69a1.25,1.25,0,0,0-1.25-1.25h-15ZM70.25,49.78H57.75V38.94h12.5Z" transform="translate(-14)"/></g></g></g></svg>