<svg xmlns="http://www.w3.org/2000/svg" xmlns:xlink="http://www.w3.org/1999/xlink" viewBox="0 0 66.41 60"><defs><style>.cls-1{fill:none;}.cls-2{clip-path:url(#clip-path);}</style><clipPath id="clip-path" transform="translate(-15.8)"><rect class="cls-1" width="98" height="60"/></clipPath></defs><title>cms_1</title><g id="Layer_2" data-name="Layer 2"><g id="cms"><g class="cls-2"><path d="M49,17.6a7.6,7.6,0,1,0,7.6,7.6A7.61,7.61,0,0,0,49,17.6Zm0,12.8a5.2,5.2,0,1,1,5.2-5.2A5.21,5.21,0,0,1,49,30.4Zm16.76-9.77-1.92-.35a.17.17,0,0,1-.07-.09,14.13,14.13,0,0,0-.79-1.9.15.15,0,0,1,0-.11l1.1-1.6a2.49,2.49,0,0,0-.28-3.17l-3-3a2.49,2.49,0,0,0-3.17-.29L56,11.21s-.07,0-.12,0a16.11,16.11,0,0,0-1.9-.79.11.11,0,0,1-.09-.07l-.35-1.92a2.48,2.48,0,0,0-2.44-2H46.85a2.48,2.48,0,0,0-2.44,2l-.36,1.92a.11.11,0,0,1-.09.07,17.66,17.66,0,0,0-1.9.79.09.09,0,0,1-.11,0l-1.6-1.1a2.47,2.47,0,0,0-3.17.29l-3,3a2.48,2.48,0,0,0-.29,3.17L35,18.19a.23.23,0,0,1,0,.11,14.35,14.35,0,0,0-.79,1.9c0,.05,0,.08-.07.08l-1.92.36a2.48,2.48,0,0,0-2,2.44v4.26a2.48,2.48,0,0,0,2,2.44l1.92.36a.11.11,0,0,1,.07.08,14.35,14.35,0,0,0,.79,1.9.15.15,0,0,1,0,.11l-1.11,1.6A2.49,2.49,0,0,0,34.17,37l3,3a2.49,2.49,0,0,0,3.17.29L42,39.19s.06,0,.11,0A15.56,15.56,0,0,0,44,40s.09,0,.09.07L44.41,42a2.48,2.48,0,0,0,2.44,2h4.26a2.48,2.48,0,0,0,2.44-2l.35-1.92s0-.06.09-.06a14.35,14.35,0,0,0,1.9-.79.11.11,0,0,1,.12,0l1.6,1.1A2.48,2.48,0,0,0,60.78,40l3-3a2.48,2.48,0,0,0,.28-3.17L63,32.23a.15.15,0,0,1,0-.11,15.56,15.56,0,0,0,.79-1.9.17.17,0,0,1,.07-.09l1.92-.35a2.48,2.48,0,0,0,2-2.44V23.07a2.48,2.48,0,0,0-2-2.44Zm-.36,6.7a.09.09,0,0,1-.06.08l-1.92.36a2.52,2.52,0,0,0-1.92,1.68,11.21,11.21,0,0,1-.66,1.6A2.51,2.51,0,0,0,61,33.6l1.1,1.6a.07.07,0,0,1,0,.1l-3,3a.08.08,0,0,1-.1,0l-1.6-1.1a2.51,2.51,0,0,0-2.55-.16,13.67,13.67,0,0,1-1.59.66,2.5,2.5,0,0,0-1.69,1.92l-.36,1.92a.08.08,0,0,1-.08.06H46.85a.08.08,0,0,1-.08-.06l-.35-1.91a2.5,2.5,0,0,0-1.69-1.92,11.13,11.13,0,0,1-1.59-.67A2.62,2.62,0,0,0,42,36.79a2.53,2.53,0,0,0-1.4.43L39,38.33a.09.09,0,0,1-.1,0l-3-3a.08.08,0,0,1,0-.1l1.1-1.6a2.51,2.51,0,0,0,.17-2.55,14.13,14.13,0,0,1-.66-1.6,2.51,2.51,0,0,0-1.91-1.68l-1.92-.35a.08.08,0,0,1-.06-.09V23.08a.09.09,0,0,1,.06-.08l1.92-.35A2.51,2.51,0,0,0,36.48,21a11.93,11.93,0,0,1,.66-1.6A2.48,2.48,0,0,0,37,16.82l-1.1-1.6a.07.07,0,0,1,0-.1l3-3a.08.08,0,0,1,.1,0l1.6,1.11a2.51,2.51,0,0,0,2.55.16,10.75,10.75,0,0,1,1.6-.66,2.53,2.53,0,0,0,1.68-1.91l.35-1.92a.08.08,0,0,1,.08-.07h4.27a.08.08,0,0,1,.08.07l.35,1.92a2.53,2.53,0,0,0,1.68,1.91,12.5,12.5,0,0,1,1.6.66,2.48,2.48,0,0,0,2.55-.17L59,12.09a.07.07,0,0,1,.1,0l3,3a.09.09,0,0,1,0,.1L61,16.81a2.5,2.5,0,0,0-.16,2.56A12.37,12.37,0,0,1,61.51,21a2.51,2.51,0,0,0,1.91,1.68l1.92.36a.08.08,0,0,1,.06.08v4.25ZM78.73,0H19.27A3.47,3.47,0,0,0,15.8,3.47V45.33a3.47,3.47,0,0,0,3.47,3.47H41.4v8.8H36.2a1.2,1.2,0,1,0,0,2.4H61.8a1.2,1.2,0,1,0,0-2.4H56.6V48.8H78.73a3.47,3.47,0,0,0,3.47-3.47V3.47A3.47,3.47,0,0,0,78.73,0ZM54.2,57.61H43.8v-8.8H54.2Zm24.53-11.2H19.27a1.07,1.07,0,0,1-1.07-1.07V39.21h10a1.2,1.2,0,1,0,0-2.4h-10V3.47A1.07,1.07,0,0,1,19.27,2.4H78.72A1.08,1.08,0,0,1,79.8,3.47V36.81h-10a1.2,1.2,0,1,0,0,2.4h10v6.13a1.08,1.08,0,0,1-1.08,1.07Z" transform="translate(-15.8)"/></g></g></g></svg>