<svg xmlns="http://www.w3.org/2000/svg" xmlns:xlink="http://www.w3.org/1999/xlink" viewBox="0 0 83.53 60"><defs><style>.cls-1{fill:none;}.cls-2{clip-path:url(#clip-path);}</style><clipPath id="clip-path" transform="translate(-7.23)"><rect class="cls-1" width="98" height="60"/></clipPath></defs><title>ecommerce-development</title><g id="Layer_2" data-name="Layer 2"><g id="ecommerce-development"><g class="cls-2"><path d="M89.33,45.64H86.55V5.41A5.41,5.41,0,0,0,81.14,0H16.86a5.41,5.41,0,0,0-5.41,5.41V45.64H8.67a1.44,1.44,0,0,0-1.44,1.43v8.57A4.37,4.37,0,0,0,11.59,60H86.41a4.37,4.37,0,0,0,4.36-4.36V47.07A1.44,1.44,0,0,0,89.33,45.64ZM14.14,5.41a2.72,2.72,0,0,1,2.72-2.72H81.14a2.72,2.72,0,0,1,2.72,2.72V45.64H14.14ZM87.9,55.64a1.49,1.49,0,0,1-1.49,1.49H11.59a1.49,1.49,0,0,1-1.49-1.49V48.5H87.9Z" transform="translate(-7.23)"/><rect x="35.08" y="51.38" width="13.37" height="2.87"/><path d="M34.73,7H28.36V9.87h5l3.39,4.46,7.24,15.72H63.65l8.22-17.87H38.67Zm8.92,15.55h4.27l.46,4.63h-2.6Zm13.14,0-.46,4.63H51.26l-.46-4.63Zm-6.27-2.87-.45-4.63h7.45l-.45,4.63Zm11.3,7.5H59.21l.46-4.63H64Zm3.45-7.5H60l.45-4.63h7ZM47.19,15.05l.45,4.63H42.33L40.2,15.05Z" transform="translate(-7.23)"/><path d="M46.67,32.16a4.63,4.63,0,1,0,4.63,4.63h0A4.63,4.63,0,0,0,46.67,32.16Zm1.76,4.63A1.76,1.76,0,1,1,46.67,35a1.77,1.77,0,0,1,1.76,1.76Z" transform="translate(-7.23)"/><path d="M60.92,32.16a4.63,4.63,0,1,0,4.63,4.63A4.63,4.63,0,0,0,60.92,32.16Zm1.76,4.63A1.76,1.76,0,1,1,60.92,35a1.76,1.76,0,0,1,1.76,1.76Z" transform="translate(-7.23)"/></g></g></g></svg>