<svg xmlns="http://www.w3.org/2000/svg" xmlns:xlink="http://www.w3.org/1999/xlink" viewBox="0 0 59.18 60"><defs><style>.cls-1{fill:none;}.cls-2{clip-path:url(#clip-path);}</style><clipPath id="clip-path" transform="translate(-19.41)"><rect class="cls-1" width="98" height="60"/></clipPath></defs><title>ecommerce-integration</title><g id="Layer_2" data-name="Layer 2"><g id="ecommerce-integration"><g class="cls-2"><path d="M53.89,7.1h9a4.6,4.6,0,0,1,4.79,4.38v8.34L69.48,18a.83.83,0,0,1,1.2,0,.85.85,0,0,1,0,1.2l-3.24,3.24-.06.06,0,0,0,0,0,0,0,0,0,0h0l0,0h-.58l0,0h0l0,0,0,0,0,0,0,0,0,0-.07-.06L63,19.24a.86.86,0,0,1-.25-.6A.87.87,0,0,1,63,18a.86.86,0,0,1,1.21,0L66,19.83V11.49A2.9,2.9,0,0,0,62.9,8.8h-9a.85.85,0,0,1,0-1.7ZM60.75,60H57.69a2.45,2.45,0,0,1-2.32-2.15L54.73,55a15.16,15.16,0,0,1-2.5-1l-2.47,1.56a2.45,2.45,0,0,1-3.16-.12l-2.16-2.16a2.47,2.47,0,0,1-.12-3.17l1.56-2.47a15.06,15.06,0,0,1-1-2.49L42,44.47a2.44,2.44,0,0,1-2.15-2.31V39.1A2.45,2.45,0,0,1,42,36.78l2.84-.64a14.81,14.81,0,0,1,1-2.5l-1.56-2.47A2.45,2.45,0,0,1,44.44,28l2.16-2.16a2.46,2.46,0,0,1,3.16-.12l2.48,1.56a15.06,15.06,0,0,1,2.49-1l.65-2.85a2.43,2.43,0,0,1,2.31-2.14h3.06a2.45,2.45,0,0,1,2.32,2.15l.65,2.84a15.42,15.42,0,0,1,2.49,1l2.47-1.56a2.45,2.45,0,0,1,3.16.12L74,28a2.44,2.44,0,0,1,.12,3.16l-1.56,2.47a15.06,15.06,0,0,1,1,2.49l2.84.65a2.45,2.45,0,0,1,2.15,2.32v3.06a2.44,2.44,0,0,1-2.15,2.31l-2.84.65a15.06,15.06,0,0,1-1,2.49l1.56,2.48A2.46,2.46,0,0,1,74,53.25l-2.16,2.16a2.44,2.44,0,0,1-3.16.11L66.21,54a15,15,0,0,1-2.49,1l-.65,2.85A2.46,2.46,0,0,1,60.75,60Zm0-1.7c.43,0,.6-.58.65-.82l.77-3.34a.82.82,0,0,1,.6-.63,13,13,0,0,0,3-1.27.89.89,0,0,1,.88,0l2.89,1.82c.22.14.75.42,1.06.12l2.15-2.15c.3-.31,0-.84-.12-1l-1.82-2.9a.85.85,0,0,1,0-.87,13.56,13.56,0,0,0,1.27-3,.84.84,0,0,1,.63-.6l3.33-.76c.25-.06.83-.23.83-.66V39.1c0-.43-.57-.6-.82-.66l-3.34-.76a.84.84,0,0,1-.63-.6,13.46,13.46,0,0,0-1.26-3,.87.87,0,0,1,0-.88l1.83-2.89c.1-.17.42-.74.12-1.05l-2.16-2.17c-.3-.3-.84,0-1,.12L66.69,29a.83.83,0,0,1-.87,0,13.09,13.09,0,0,0-3-1.26.85.85,0,0,1-.6-.63l-.76-3.34c-.06-.25-.23-.83-.66-.83H57.69c-.42,0-.6.58-.65.83l-.76,3.34a.88.88,0,0,1-.61.63,13,13,0,0,0-3,1.26.85.85,0,0,1-.87,0l-2.9-1.82c-.22-.14-.75-.42-1-.12l-2.16,2.16c-.31.31,0,.88.12,1.05l1.82,2.9a.81.81,0,0,1,.13.45.88.88,0,0,1-.11.42,13.38,13.38,0,0,0-1.27,3,.84.84,0,0,1-.63.6l-3.33.76c-.25.06-.83.23-.83.66v3.06c0,.42.58.6.83.65l3.34.76a.88.88,0,0,1,.63.61,13,13,0,0,0,1.26,3,.85.85,0,0,1,0,.87L45.77,51c-.14.22-.42.75-.12,1l2.16,2.16c.3.3.84,0,1-.12l2.9-1.82a.85.85,0,0,1,.87,0,13.3,13.3,0,0,0,3,1.27.83.83,0,0,1,.61.63L57,57.47c.06.25.23.83.66.83h3Zm-1.53-8.9A8.77,8.77,0,1,1,68,40.63,8.78,8.78,0,0,1,59.22,49.4Zm0-1.7a7.07,7.07,0,1,0-7.07-7.07A7.08,7.08,0,0,0,59.22,47.7ZM37.08,29.76a2.09,2.09,0,0,1-2.37-1.24l-1-1.88a11.69,11.69,0,0,1-1.86-.24L30.42,28a2.08,2.08,0,0,1-2.61.57l-2-1.17A2.05,2.05,0,0,1,25,24.82l.63-2a11.65,11.65,0,0,1-1.14-1.48l-2.13.08a2.07,2.07,0,0,1-2.25-1.44l-.61-2.26a2.12,2.12,0,0,1-.06-.49,2.16,2.16,0,0,1,1.29-1.88l1.88-1a13.12,13.12,0,0,1,.25-1.87L21.27,11a2.07,2.07,0,0,1-.58-2.61l1.17-2a2.08,2.08,0,0,1,2.55-.81l2,.63a12.51,12.51,0,0,1,1.49-1.14l-.08-2.12A2.08,2.08,0,0,1,29.28.67l2.27-.6A2.06,2.06,0,0,1,33.92,1.3l1,1.88a11.54,11.54,0,0,1,1.86.24l1.45-1.56a2.07,2.07,0,0,1,2.6-.58l2,1.18A2.09,2.09,0,0,1,43.66,5L43,7a12.41,12.41,0,0,1,1.14,1.48l2.12-.08a2.08,2.08,0,0,1,2.26,1.44l.6,2.26a2.06,2.06,0,0,1-1.23,2.37l-1.88,1a10.79,10.79,0,0,1-.25,1.86l1.56,1.44a2.07,2.07,0,0,1,.58,2.61l-1.17,2a2.06,2.06,0,0,1-2.55.81l-2-.63a11.08,11.08,0,0,1-1.49,1.14l.09,2.13a2.08,2.08,0,0,1-1.45,2.25l-2.26.61Zm-.43-1.65,2.26-.6c.15-.05.18-.38.18-.55L39,24.34a.83.83,0,0,1,.42-.76,10.24,10.24,0,0,0,2-1.51.84.84,0,0,1,.85-.21l2.51.77c.16.05.49.11.57,0l1.17-2c.1-.17-.24-.49-.26-.51l-1.92-1.78a.85.85,0,0,1-.24-.84A9.69,9.69,0,0,0,44.37,15a.83.83,0,0,1,.45-.75L47.14,13c.15-.08.43-.27.39-.42l-.61-2.26c0-.16-.37-.19-.55-.19l-2.62.1A.82.82,0,0,1,43,9.82a10.46,10.46,0,0,0-1.51-2A.86.86,0,0,1,41.27,7L42,4.5s.15-.47,0-.57L40,2.76c-.18-.1-.5.24-.51.26L37.69,4.94a.83.83,0,0,1-.83.24,10.86,10.86,0,0,0-2.47-.32.82.82,0,0,1-.74-.45L32.43,2.09s-.23-.44-.43-.38l-2.26.6c-.2.06-.18.53-.18.55l.1,2.62a.87.87,0,0,1-.42.77,10.16,10.16,0,0,0-2,1.5.86.86,0,0,1-.85.21l-2.5-.78s-.48-.14-.58,0l-1.17,2c-.1.17.24.49.26.51l1.92,1.78a.83.83,0,0,1,.25.84,10.18,10.18,0,0,0-.33,2.45.83.83,0,0,1-.45.75L21.5,16.8s-.43.23-.38.43l.6,2.26c0,.16.38.19.55.18l2.62-.1a.85.85,0,0,1,.76.42,10.83,10.83,0,0,0,1.51,2,.86.86,0,0,1,.21.85l-.77,2.5s-.15.47,0,.58l2,1.16c.17.1.5-.24.51-.25L31,24.87a.84.84,0,0,1,.84-.24,9.71,9.71,0,0,0,2.46.32.84.84,0,0,1,.74.45l1.22,2.32s.24.43.43.38Zm-.54-6.51A6.93,6.93,0,1,1,32.53,8.22,6.93,6.93,0,0,1,41,13.12a6.94,6.94,0,0,1-4.89,8.48ZM35.67,20a5.23,5.23,0,0,0,1.26-9.57A5.22,5.22,0,1,0,35.67,20Zm5.71,27.92a.85.85,0,0,0-.85-.85h-9a2.91,2.91,0,0,1-3.09-2.69V36l1.79,1.79a.83.83,0,0,0,1.2,0,.85.85,0,0,0,0-1.2l-3.24-3.24-.06-.06h0l-.06,0h0l-.06,0h0l-.07,0h0l-.16,0h-.34l-.07,0h0l-.07,0h0l-.06,0h0l-.06,0h0l-.05,0h0s-.05,0-.06.05l-3.25,3.25a.86.86,0,0,0-.25.6.87.87,0,0,0,.25.6.86.86,0,0,0,1.21,0L26.73,36v8.34a4.61,4.61,0,0,0,4.79,4.38h9a.85.85,0,0,0,.85-.85Z" transform="translate(-19.41)"/></g></g></g></svg>