<svg xmlns="http://www.w3.org/2000/svg" xmlns:xlink="http://www.w3.org/1999/xlink" viewBox="0 0 71.38 60"><defs><style>.cls-1{fill:none;}.cls-2{clip-path:url(#clip-path);}</style><clipPath id="clip-path" transform="translate(-13.31)"><rect class="cls-1" width="98" height="60"/></clipPath></defs><title>support-maintenance_1</title><g id="Layer_2" data-name="Layer 2"><g id="support-maintenance"><g class="cls-2"><path d="M57,14.51a2.4,2.4,0,0,0,.8.14,2.5,2.5,0,0,0,1.08-.27l.35-.18a2.55,2.55,0,0,1,3,.47l2.11,2.11a2.6,2.6,0,0,1,.47,3l-.18.35a2.31,2.31,0,0,0,0,2.17c.17.35.33.69.47,1s.28.71.4,1.07h0a2.51,2.51,0,0,0,.58.95,2.3,2.3,0,0,0,1,.57l.37.13a2.58,2.58,0,0,1,1.8,2.46v3A2.58,2.58,0,0,1,67.4,34l-.37.12a2.35,2.35,0,0,0-1.54,1.53c-.13.36-.26.72-.41,1.07s-.3.69-.47,1a2.32,2.32,0,0,0,0,2.17l.18.35h0a2.57,2.57,0,0,1-.48,3l-2.11,2.1a2.57,2.57,0,0,1-3,.48l-.35-.18a2.41,2.41,0,0,0-1.08-.28,2.45,2.45,0,0,0-.8.14A9.63,9.63,0,0,1,52.12,60,.85.85,0,0,1,51,59.43a1.26,1.26,0,0,1,0-.28V50.57h0a.07.07,0,0,0-.09-.09H47.06a.1.1,0,0,0-.07,0h0a.13.13,0,0,0,0,.06v8.58h0a.84.84,0,0,1-.84.85.81.81,0,0,1-.31-.06,9.64,9.64,0,0,1-6.44-9.09A9.5,9.5,0,0,1,41,45.49a2.45,2.45,0,0,0-.8-.14,2.38,2.38,0,0,0-1.08.28l-.35.18a2.6,2.6,0,0,1-3-.48l-2.1-2.11a2.53,2.53,0,0,1-.48-3l.18-.35a2.29,2.29,0,0,0,0-2.17l-.47-1c-.14-.35-.28-.71-.4-1.07a2.55,2.55,0,0,0-.58-1,2.41,2.41,0,0,0-1-.57l-.37-.12a2.56,2.56,0,0,1-1.3-.94,2.51,2.51,0,0,1-.49-1.52v-3A2.57,2.57,0,0,1,30.59,26l.37-.12a2.3,2.3,0,0,0,1.55-1.52c.12-.36.25-.72.4-1.07s.3-.69.47-1h0a2.31,2.31,0,0,0,0-2.18l-.18-.34a2.59,2.59,0,0,1,.48-3l2.11-2.1h0a2.57,2.57,0,0,1,3-.47l.35.17h0a2.26,2.26,0,0,0,1.08.28,2.21,2.21,0,0,0,.8-.14A9.62,9.62,0,0,1,45.88.05.84.84,0,0,1,47,.57a.84.84,0,0,1,0,.27V9.42h0a.14.14,0,0,0,0,.07.1.1,0,0,0,.07,0h3.85l.07,0v0a.08.08,0,0,0,0-.05V.84A.84.84,0,0,1,51.87,0a.87.87,0,0,1,.32.06A9.63,9.63,0,0,1,57,14.51ZM17,33a2,2,0,0,0-.77,3.85A2,2,0,1,0,17,33Zm-2.62-.61h0a3.69,3.69,0,0,1,6.21,1.77h5.69a.85.85,0,0,1,0,1.69H20.6a3.69,3.69,0,0,1-5.39,2.38,3.69,3.69,0,0,1-.81-5.84ZM17,23a2,2,0,1,0,1.41.59A2,2,0,0,0,17,23Zm-2.62-.61h0a3.69,3.69,0,0,1,6.21,1.78H26.3a.85.85,0,0,1,.77.84.86.86,0,0,1-.77.85H20.61a3.7,3.7,0,1,1-6.21-3.46ZM24.49,52.83a3.7,3.7,0,0,1-.84-7.31V42a.85.85,0,0,1,.85-.85h6.22a.85.85,0,1,1,0,1.69H25.34v2.7h0a3.69,3.69,0,0,1-.84,7.29Zm-1.42-2.28h0a2,2,0,1,0-.59-1.42,2,2,0,0,0,.59,1.42ZM24.52,8.84a2,2,0,1,0,1.42.59,2,2,0,0,0-1.42-.59ZM21.9,8.23a3.69,3.69,0,1,1,3.46,6.21v2.71h5.38a.85.85,0,0,1,.84.85.84.84,0,0,1-.84.84H24.51a.84.84,0,0,1-.84-.84V14.44a3.68,3.68,0,0,1-1.77-6.2ZM81,31.31a3.69,3.69,0,1,1-3.6,4.53H71.7a.85.85,0,1,1,0-1.69h5.68A3.71,3.71,0,0,1,81,31.31Zm1.42,2.27h0A2,2,0,1,0,83,35a2,2,0,0,0-.59-1.42ZM81,21.34a3.7,3.7,0,1,1-3.6,4.53H71.7a.84.84,0,0,1,0-1.68h5.69A3.69,3.69,0,0,1,81,21.34Zm1.42,2.28A2,2,0,1,0,83,25a2,2,0,0,0-.59-1.42ZM73.48,51.16a2,2,0,1,0-1.43-.58,2,2,0,0,0,1.43.58Zm2.61.61a3.7,3.7,0,1,1-3.45-6.22v-2.7H67.26a.86.86,0,0,1-.65-.22.85.85,0,0,1-.27-.62.84.84,0,0,1,.92-.84h6.22a.85.85,0,0,1,.85.85v3.53a3.7,3.7,0,0,1,1.76,6.22ZM73.5,7.18a3.69,3.69,0,0,1,.84,7.29V18h0a.85.85,0,0,1-.84.85H67.27a.85.85,0,0,1,0-1.69h5.38v-2.7a3.69,3.69,0,0,1,.85-7.29Zm1.42,2.27a2,2,0,0,0-2.88,0,2,2,0,0,0-.59,1.45,2,2,0,0,0,.63,1.43,2,2,0,0,0,2.84-2.84Zm-19,34.7.07,0a4,4,0,0,1,3.68,0l.35.18a.87.87,0,0,0,.55.09.9.9,0,0,0,.5-.26l2.1-2.1h0a.85.85,0,0,0,.17-1l-.18-.35h0a4.07,4.07,0,0,1,0-3.68c.15-.3.29-.62.43-.94s.25-.64.36-1a4.36,4.36,0,0,1,1-1.61,4.2,4.2,0,0,1,1.62-1l.38-.12a.91.91,0,0,0,.45-.32,1,1,0,0,0,.17-.54v-3a1,1,0,0,0-.17-.54.86.86,0,0,0-.45-.32l-.37-.12h0A4,4,0,0,1,63.9,25c-.11-.33-.23-.64-.36-1s-.28-.64-.43-.94h0a4,4,0,0,1,0-3.68l.18-.35a1,1,0,0,0,.09-.56.84.84,0,0,0-.26-.49L61,15.86a.84.84,0,0,0-.49-.26,1,1,0,0,0-.55.09l-.35.18a4.14,4.14,0,0,1-1.84.46A4.06,4.06,0,0,1,56,15.89l-.07,0A9.82,9.82,0,0,1,52.71,18v.33a12.22,12.22,0,0,1,0,23.28V42a9.52,9.52,0,0,1,3.18,2.17Zm-3.17-24V39.86a10.54,10.54,0,0,0,0-19.72Zm-10.61,24A9.62,9.62,0,0,1,45.28,42v-.33a12.22,12.22,0,0,1,0-23.28V18a9.82,9.82,0,0,1-3.19-2.17l-.07,0h0a4.09,4.09,0,0,1-1.85.43,4.23,4.23,0,0,1-1.84-.45L38,15.69a.87.87,0,0,0-.55-.1.9.9,0,0,0-.49.26L34.86,18a.84.84,0,0,0-.26.49.9.9,0,0,0,.09.56l.18.35a4,4,0,0,1,0,3.68c-.15.3-.29.61-.43.93s-.25.64-.36,1h0a4.09,4.09,0,0,1-1,1.61,4,4,0,0,1-1.62,1l-.37.12h0a.93.93,0,0,0-.45.33.9.9,0,0,0-.17.53v3a1,1,0,0,0,.17.54.86.86,0,0,0,.45.32l.38.12a4,4,0,0,1,2.61,2.59c.11.33.23.65.36,1s.28.63.43.94a3.92,3.92,0,0,1,.43,1.84,4.23,4.23,0,0,1-.45,1.84l-.18.35a.87.87,0,0,0,.16,1L37,44.14h0a.84.84,0,0,0,.49.26.9.9,0,0,0,.56-.09l.35-.18a4,4,0,0,1,3.68,0Zm3.19-4.28V20.14h0a10.53,10.53,0,0,0,0,19.72ZM51,42.55V17.45a.86.86,0,0,1,.57-.8A7.94,7.94,0,0,0,52.72,2.13V9.42a1.76,1.76,0,0,1-.46,1.2l-.06.06a1.74,1.74,0,0,1-1.26.52H47.08A1.79,1.79,0,0,1,45.3,9.43V2.13a7.95,7.95,0,0,0,1.08,14.52.84.84,0,0,1,.6.81l0,25.1a.85.85,0,0,1-.57.8,7.93,7.93,0,0,0-1.12,14.52V50.59a1.79,1.79,0,0,1,.46-1.19l.06-.06h0a1.81,1.81,0,0,1,1.26-.52H50.9a1.79,1.79,0,0,1,1.78,1.78v7.3a7.94,7.94,0,0,0-1.07-14.52.85.85,0,0,1-.6-.81Z" transform="translate(-13.31)"/></g></g></g></svg>