<svg xmlns="http://www.w3.org/2000/svg" xmlns:xlink="http://www.w3.org/1999/xlink" viewBox="0 0 68.3 60"><defs><style>.cls-1{fill:none;}.cls-2{clip-path:url(#clip-path);}</style><clipPath id="clip-path" transform="translate(-14.85)"><rect class="cls-1" width="98" height="60"/></clipPath></defs><title>upgradation-migration</title><g id="Layer_2" data-name="Layer 2"><g id="upgradation-migration"><g class="cls-2"><path d="M27.62,20.24a7.65,7.65,0,1,0-7.07-4.73,7.67,7.67,0,0,0,7.07,4.73Zm-4.25-3.4a6,6,0,1,1,6.55,1.31A6,6,0,0,1,23.37,16.84Z" transform="translate(-14.85)"/><path d="M70.38,34.24h0a7.65,7.65,0,1,0-7.07-4.72A7.66,7.66,0,0,0,70.38,34.24Zm-5.56-10a6,6,0,1,1,1.3,6.56A6,6,0,0,1,64.82,24.29Z" transform="translate(-14.85)"/><path d="M74.45,43.41c3.93-5.34,8.7-12.13,8.7-16.64A12.77,12.77,0,0,0,57.91,24a18.85,18.85,0,0,0-8.06-1.87h-.28a19.4,19.4,0,0,0-4.14.47,19,19,0,0,0-10.94,7.2c-.9-.18-1.84-.32-2.8-.42,3.93-5.34,8.7-12.13,8.7-16.65a12.77,12.77,0,0,0-25.54,0c0,4.52,4.77,11.31,8.7,16.65-4.41.47-8.7,1.78-8.7,4.21,0,1,.71,2.31,4.08,3.33A31.43,31.43,0,0,0,27.62,38h0a32.68,32.68,0,0,0,3.43-.16A18.94,18.94,0,0,0,49.71,60h0a18.86,18.86,0,0,0,15.65-8.3,32.41,32.41,0,0,0,5,.34h0A31.48,31.48,0,0,0,79.07,51c3.37-1,4.08-2.37,4.08-3.33C83.15,45.19,78.87,43.88,74.45,43.41ZM70.38,15.63h0A11.15,11.15,0,0,1,81.51,26.76h0c0,4.34-5.59,11.91-9.29,16.91-.66.9-1.29,1.75-1.85,2.53-.55-.78-1.18-1.63-1.84-2.53-3.7-5-9.29-12.57-9.29-16.91A11.15,11.15,0,0,1,70.38,15.63ZM57.25,40.25a39,39,0,0,0-.84-7.92,18.48,18.48,0,0,0,2.31-1.06,51.4,51.4,0,0,0,5.31,9ZM56,51.41a17.5,17.5,0,0,1,4.81,2.89A17.25,17.25,0,0,1,53.13,58a14.13,14.13,0,0,0,2.1-3.88C55.53,53.25,55.8,52.33,56,51.41Zm-6.32,7h0c-1.76,0-3.64-2.84-4.79-7.47a17.08,17.08,0,0,1,9.61,0C53.36,55.53,51.48,58.36,49.71,58.37Zm-5.53-4.22A14.13,14.13,0,0,0,46.28,58a17.47,17.47,0,0,1-7.72-3.72,17.34,17.34,0,0,1,4.82-2.9C43.62,52.33,43.88,53.25,44.18,54.15Zm5.52-5.57a18.89,18.89,0,0,0-5.15.72,41.53,41.53,0,0,1-.74-7.41H55.6a42.68,42.68,0,0,1-.74,7.41A19,19,0,0,0,49.7,48.58Zm-5.89-8.33a41.51,41.51,0,0,1,.74-7.4,18.58,18.58,0,0,0,5.16.71h0a18.63,18.63,0,0,0,5.16-.71,42.56,42.56,0,0,1,.74,7.4ZM49.6,23.79h.21c1.73.11,3.57,2.9,4.7,7.44a17.21,17.21,0,0,1-6.55.6,16.57,16.57,0,0,1-3.06-.6C46,26.69,47.87,23.9,49.6,23.79Zm8.54,5.93a18.55,18.55,0,0,1-2.11,1c-.24-.92-.5-1.84-.8-2.74a13.91,13.91,0,0,0-2.08-3.85,16.84,16.84,0,0,1,4.51,1.59c0,.34,0,.69,0,1A9.8,9.8,0,0,0,58.14,29.72ZM45.8,24.22l.46-.08A13.91,13.91,0,0,0,44.18,28c-.3.9-.56,1.81-.8,2.73a17.05,17.05,0,0,1-4.81-2.87A17.3,17.3,0,0,1,45.8,24.22ZM27.62,1.63h0A11.14,11.14,0,0,1,38.75,12.76c0,4.34-5.59,11.91-9.28,16.91-.66.9-1.3,1.76-1.85,2.53-.55-.77-1.19-1.63-1.85-2.53-3.7-5-9.29-12.57-9.29-16.91A11.15,11.15,0,0,1,27.62,1.63Zm-11.14,32c0-.7,2.48-2.23,8.2-2.68.88,1.2,1.66,2.25,2.27,3.14a.81.81,0,0,0,.67.35h0a.81.81,0,0,0,.67-.35h0c.62-.89,1.39-1.94,2.27-3.13,5.71.44,8.2,2,8.2,2.67s-2.39,2-6.84,2.54h0a36.53,36.53,0,0,1-4.3.25C20.42,36.41,16.48,34.56,16.48,33.62ZM36.31,37h0c3.37-1,4.08-2.37,4.08-3.33,0-1.56-1.75-2.65-4.17-3.36.37-.45.74-.88,1.15-1.29A18.72,18.72,0,0,0,43,32.33a39,39,0,0,0-.85,7.92H32.43a17.19,17.19,0,0,1,.32-2.57A33,33,0,0,0,36.31,37Zm-3.88,4.94h9.73A39.13,39.13,0,0,0,43,49.82a18.88,18.88,0,0,0-5.65,3.37c-.29-.29-.57-.59-.83-.9A17.31,17.31,0,0,1,32.43,41.89ZM62.05,53.18a18.84,18.84,0,0,0-5.64-3.36,39.12,39.12,0,0,0,.84-7.93h8c.37.52.75,1,1.11,1.52-4.41.47-8.7,1.78-8.7,4.21,0,1,.7,2.31,4.08,3.33.63.17,1.26.31,1.89.44A17.59,17.59,0,0,1,62.05,53.18Zm8.33-2.78c-7.21,0-11.14-1.84-11.14-2.78,0-.7,2.48-2.23,8.2-2.68.88,1.2,1.65,2.25,2.26,3.14a.84.84,0,0,0,.68.35h0a.81.81,0,0,0,.67-.35h0c.61-.89,1.39-1.94,2.27-3.13,5.71.44,8.2,2,8.2,2.67C81.52,48.56,77.58,50.4,70.38,50.4Z" transform="translate(-14.85)"/></g></g></g></svg>