<svg xmlns="http://www.w3.org/2000/svg" viewBox="0 0 40 40"><title>consultation</title><g id="Layer_2" data-name="Layer 2"><g id="consultaion"><path d="M31,37.07a.87.87,0,0,1-.1-.31V35.38a18,18,0,0,0-.14-2.32,9.87,9.87,0,0,0-1.94-4.67A.6.6,0,0,1,28.7,28c0-.67.08-1.34.08-2a2.35,2.35,0,0,0-1.53-2.11A3.33,3.33,0,0,0,26,23.71H20.32a.68.68,0,0,1-.72-.46,1.1,1.1,0,0,1-.08-.4V21.27a.26.26,0,0,1,.1-.19,7.17,7.17,0,0,0,2-2.07.37.37,0,0,1,.24-.12h.9a3.39,3.39,0,0,0,1-.18,2.35,2.35,0,0,0,1.46-2.26V12.16a1.85,1.85,0,0,0-.93-1.63.24.24,0,0,1-.13-.24V7.55a2.46,2.46,0,0,0-.06-.66,2.5,2.5,0,0,0-2.33-2c-.27,0-.27,0-.29-.3a2.37,2.37,0,0,0-.34-1.07,2.56,2.56,0,0,0-2.25-1.25h-6.2a5.49,5.49,0,0,0-5.55,5.4v2.66a.27.27,0,0,1-.14.26,1.77,1.77,0,0,0-.9,1.52v2.34A1.89,1.89,0,0,0,8,16.33h.73v.22A6.89,6.89,0,0,0,9.63,19a6.55,6.55,0,0,0,2,2.09.34.34,0,0,1,.2.36v.67a7.53,7.53,0,0,1,0,.95.73.73,0,0,1-.74.72H4.68a2.31,2.31,0,0,0-2.11,2.14c0,.73.06,1.47.08,2.2a.43.43,0,0,1-.1.29,10.56,10.56,0,0,0-1.33,2.33A9.54,9.54,0,0,0,.49,34v2.79a.61.61,0,0,1,0,.19L0,37.83v.71c0,.06.06.12.09.19A1.75,1.75,0,0,0,1.31,39.9a4.19,4.19,0,0,0,1.06.1H29.65A1.86,1.86,0,0,0,31,37.07ZM28.57,30.2a10.88,10.88,0,0,1,1.13,6.09H28.24C28.35,34.27,28.45,32.26,28.57,30.2Zm-8.07-12a.43.43,0,0,1-.44.42H18.65a.43.43,0,0,1-.44-.4h0a.44.44,0,0,1,.45-.42h1.39a.42.42,0,0,1,.45.38v0Zm1.79-.52c.08-.37.17-.74.25-1.11s.07-.32.41-.33L24,16.17c.18.76-.27,1.76-1.73,1.54ZM24,11.89v2.42a.73.73,0,0,1-.68.79H22.6v-2a.28.28,0,0,1,.21-.31h0A2,2,0,0,0,24,11.89ZM8.68,15.09A6.42,6.42,0,0,1,7.81,15a.63.63,0,0,1-.5-.49.61.61,0,0,1,0-.19V12a.43.43,0,0,1,0-.16,4.12,4.12,0,0,0,.32.41,1.88,1.88,0,0,0,.88.52c.1,0,.16.07.16.2ZM9,11.75l-.18-.06c-.38-.13-.48-.25-.48-.67V7.59A4.39,4.39,0,0,1,12,3.47a3.79,3.79,0,0,1,.67-.06H19a1.35,1.35,0,0,1,1.34,1,3.62,3.62,0,0,1,.06.46A1.2,1.2,0,0,0,21.48,6a1.67,1.67,0,0,1,.9.24A1.33,1.33,0,0,1,23,7.34V10.9c0,.63,0,.67-.66.85-.34.1-.67.23-1,.36V9.63A2.63,2.63,0,0,0,19.1,7.07a3.54,3.54,0,0,0-1.55.13,6.28,6.28,0,0,1-2.62.23c-.52-.07-1-.2-1.53-.32A2.66,2.66,0,0,0,10.15,9a2.7,2.7,0,0,0-.09.75v2.3Zm1.74,6.71a5.1,5.1,0,0,1-.84-2.59V13.32a6.34,6.34,0,0,0,.73-.26A1.12,1.12,0,0,0,11.18,12V9.73a1.39,1.39,0,0,1,1-1.48,1.87,1.87,0,0,1,.88,0c.48.07.95.24,1.43.31a7.2,7.2,0,0,0,3.23-.2A2.34,2.34,0,0,1,19,8.23a1.39,1.39,0,0,1,1,1.25v2.27a1.49,1.49,0,0,0,.15.83,1.36,1.36,0,0,0,1.21.67,15.54,15.54,0,0,1-.26,3.85,1.69,1.69,0,0,0-1.38-.5H18.59A1.61,1.61,0,0,0,17,18.13a1.58,1.58,0,0,0,1.51,1.65h.76v.06l-.53.35a5.92,5.92,0,0,1-6,.13,5.78,5.78,0,0,1-2-1.87Zm7.77,5.23H12.79a5.4,5.4,0,0,0,.2-1.92,7.12,7.12,0,0,0,5.33,0A5.63,5.63,0,0,0,18.51,23.69ZM2.74,30.22a8.6,8.6,0,0,0,.07,1.34V32a.57.57,0,0,0,.6.52h0A.54.54,0,0,0,3.94,32h0a11.16,11.16,0,0,0-.06-1.41c-.07-1.43-.15-2.87-.23-4.3a1.22,1.22,0,0,1,1.1-1.33H26.14a1.36,1.36,0,0,1,1.11.41,1.22,1.22,0,0,1,.3.91c0,.84-.08,1.68-.13,2.53l-.22,4.11c-.06,1.13-.13,2.26-.19,3.38v.08H4.26a5.81,5.81,0,0,0-.07-1.1,2.81,2.81,0,0,0,0-.58A.62.62,0,0,0,3.62,34H3.54a.59.59,0,0,0-.56.62H3a10.06,10.06,0,0,0,.07,1.46v.15H1.61A10.83,10.83,0,0,1,2.74,30.22Zm26.8,8.59H2a1,1,0,0,1-.48-.1.66.66,0,0,1-.21-.9l0,0a.62.62,0,0,1,.4-.29h27.8a.66.66,0,0,1,.68.62.65.65,0,0,1-.43.64A.69.69,0,0,1,29.54,38.81Z"/><path d="M37.77,0l.51.11A2.31,2.31,0,0,1,40,2.32V3.41a.63.63,0,0,1-.6.59.6.6,0,0,1-.58-.6V2.5a1.16,1.16,0,0,0-1-1.33h0a1,1,0,0,0-.35,0H28.11a2,2,0,0,0-.6.06,1,1,0,0,0-.79.93,1.61,1.61,0,0,0,0,.31V7.14a1.13,1.13,0,0,0,.55,1,1.46,1.46,0,0,0,.62.16,1.57,1.57,0,0,1,1.34.89,2.11,2.11,0,0,1,.18.78v2.18h.05l.4-.67c.47-.79.95-1.6,1.43-2.39a1.55,1.55,0,0,1,1.36-.76h4.93a1.11,1.11,0,0,0,1.21-1V6.27a.59.59,0,0,1,.51-.66.59.59,0,0,1,.66.51.38.38,0,0,1,0,.15,9.11,9.11,0,0,1,0,1.28,2.28,2.28,0,0,1-2.26,2H32.84a.7.7,0,0,0-.61.36c-.69,1.13-1.39,2.27-2.09,3.43a1.77,1.77,0,0,1-.5.52.91.91,0,0,1-1.25-.32h0a1.42,1.42,0,0,1-.08-.18,1.68,1.68,0,0,1-.08-.59V10.19c0-.5-.1-.61-.59-.67a2.26,2.26,0,0,1-2.09-2.06V2.15a2.22,2.22,0,0,1,2-2.1.38.38,0,0,0,.21,0Z"/><path d="M32.78,5.67h4a.61.61,0,0,1,.62.58.58.58,0,0,1-.59.59h-8a.6.6,0,0,1-.57-.6.58.58,0,0,1,.58-.56h4Z"/><path d="M34.24,4.09H31.65a.56.56,0,0,1-.56-.56h0a.58.58,0,0,1,.06-.26A.51.51,0,0,1,31.62,3h5A1.58,1.58,0,0,1,37,3a.6.6,0,0,1,.3.77.61.61,0,0,1-.52.34H34.24Z"/><path d="M29.07,4.08H28.7a.57.57,0,0,1-.52-.56.54.54,0,0,1,.47-.58,5.34,5.34,0,0,1,.8,0,.58.58,0,0,1,.51.59.6.6,0,0,1-.55.55Z"/><circle cx="15.65" cy="30.94" r="1.54"/></g></g></svg>