<svg xmlns="http://www.w3.org/2000/svg" xmlns:xlink="http://www.w3.org/1999/xlink" viewBox="0 0 73.33 60"><defs><style>.cls-1{fill:none;}.cls-2{clip-path:url(#clip-path);}</style><clipPath id="clip-path" transform="translate(-12.33)"><rect class="cls-1" width="98" height="60"/></clipPath></defs><title>Desktop Design_1</title><g id="Layer_2" data-name="Layer 2"><g id="Desktop_Design" data-name="Desktop Design"><g class="cls-2"><path d="M82.33,0H15.67a3.34,3.34,0,0,0-3.34,3.33V46.67A3.34,3.34,0,0,0,15.67,50H39.78v1.78c0,3.28-2.6,5.08-4.14,5.85A1.25,1.25,0,0,0,36.19,60H61.81a1.25,1.25,0,0,0,1.25-1.24,1.28,1.28,0,0,0-.69-1.13c-1.55-.77-4.15-2.57-4.15-5.85V50H82.33a3.34,3.34,0,0,0,3.34-3.33V3.33A3.34,3.34,0,0,0,82.33,0ZM59.54,58.1H38.46a7.86,7.86,0,0,0,3.23-6.32V50H56.31v1.78A7.86,7.86,0,0,0,59.54,58.1ZM83.76,46.67a1.43,1.43,0,0,1-1.43,1.43H15.67a1.43,1.43,0,0,1-1.43-1.43V3.33A1.43,1.43,0,0,1,15.67,1.9H82.33a1.43,1.43,0,0,1,1.43,1.43Z" transform="translate(-12.33)"/><path d="M49,43.1a1.67,1.67,0,1,0,1.67,1.66h0A1.67,1.67,0,0,0,49,43.1Z" transform="translate(-12.33)"/><path d="M80.91,3.81H17.09a1,1,0,0,0-.95.95V40.48a1,1,0,0,0,.95,1H80.91a1,1,0,0,0,1-1h0V4.76a1,1,0,0,0-1-.95Zm-1,1.9v5.72H18.05V5.71Zm-9,33.81H27.09V35.71H70.91Zm1.9,0V35.36a1.54,1.54,0,0,0-1.54-1.55H26.74a1.56,1.56,0,0,0-1.55,1.55v4.16H18.05V13.33H80V39.52Z" transform="translate(-12.33)"/><path d="M20.9,9.52H32.33a1,1,0,0,0,0-1.9H20.9a1,1,0,0,0,0,1.9Z" transform="translate(-12.33)"/><path d="M73.29,9.52H77.1a1,1,0,0,0,0-1.9H73.29a1,1,0,0,0,0,1.9Z" transform="translate(-12.33)"/><path d="M65.67,9.52h3.81a1,1,0,1,0,0-1.9H65.67a1,1,0,0,0,0,1.9Z" transform="translate(-12.33)"/><path d="M58.05,9.52h3.81a1,1,0,0,0,0-1.9H58.05a1,1,0,0,0,0,1.9Z" transform="translate(-12.33)"/><path d="M50.43,9.52h3.81a1,1,0,0,0,0-1.9H50.43a1,1,0,0,0-.06,1.9Z" transform="translate(-12.33)"/><path d="M52.21,15.24H26.74a1.54,1.54,0,0,0-1.54,1.54V30.36a1.56,1.56,0,0,0,1.54,1.55H52.21a1.56,1.56,0,0,0,1.55-1.55V16.79A1.54,1.54,0,0,0,52.21,15.24ZM51.86,30H27.09V17.14H51.86Z" transform="translate(-12.33)"/><path d="M71.26,15.24H57.21a1.54,1.54,0,0,0-1.54,1.54V30.36a1.56,1.56,0,0,0,1.54,1.55H71.26a1.56,1.56,0,0,0,1.55-1.55V16.79A1.54,1.54,0,0,0,71.26,15.24ZM70.91,30H57.57V17.14H70.91Z" transform="translate(-12.33)"/></g></g></g></svg>