<svg xmlns="http://www.w3.org/2000/svg" xmlns:xlink="http://www.w3.org/1999/xlink" viewBox="0 0 63.04 60"><defs><style>.cls-1{fill:none;}.cls-2{clip-path:url(#clip-path);}</style><clipPath id="clip-path" transform="translate(-17.48)"><rect class="cls-1" width="98" height="60"/></clipPath></defs><title>Mobile App Design</title><g id="Layer_2" data-name="Layer 2"><g id="Mobile_App_Design" data-name="Mobile App Design"><g class="cls-2"><path d="M62.49,4.68h-5a.81.81,0,0,0-.53.2L54.08,7.4H43.67L40.78,4.88h0a.79.79,0,0,0-.48-.2h-5a.79.79,0,0,0-.79.8v49a.79.79,0,0,0,.79.79H62.49a.79.79,0,0,0,.79-.79v-49a.79.79,0,0,0-.23-.56.8.8,0,0,0-.56-.24Zm-.79,49H36.06V6.27H40l2.9,2.51a.77.77,0,0,0,.52.2h11a.74.74,0,0,0,.51-.2l2.9-2.51H61.7ZM80.3,40a.77.77,0,0,0-.49-.6l-2.38-.91a2.19,2.19,0,0,1-1.37-2.5c.18-.85.37-1.77.5-2.46a.79.79,0,0,0-.23-.74,12.88,12.88,0,0,0-4.76-2.85.78.78,0,0,0-.79.14l-1.93,1.58a2.21,2.21,0,0,1-.9.46V5.55A5.55,5.55,0,0,0,62.4,0H35.34a5.56,5.56,0,0,0-5.55,5.55V7.38A2,2,0,0,1,29.2,7l-2-1.59a.78.78,0,0,0-.79-.14,12.93,12.93,0,0,0-4.76,2.85.82.82,0,0,0-.24.74c.14.7.33,1.58.5,2.46a2.19,2.19,0,0,1-1.37,2.5l-2.37.91h0a.8.8,0,0,0-.5.6,12.8,12.8,0,0,0,0,4.7.79.79,0,0,0,.5.59l2.37.91h0A2.18,2.18,0,0,1,21.94,24c-.17.86-.36,1.77-.5,2.46h0a.79.79,0,0,0,.24.73,13,13,0,0,0,4.76,2.86.73.73,0,0,0,.25,0,.78.78,0,0,0,.51-.19l1.93-1.58h0a2,2,0,0,1,.63-.37V54.45A5.54,5.54,0,0,0,35.31,60H62.43A5.55,5.55,0,0,0,68,54.45v-2a2.15,2.15,0,0,1,.89.45l1.93,1.58h0a.78.78,0,0,0,.51.19h.25a13,13,0,0,0,4.76-2.86.78.78,0,0,0,.23-.74c-.13-.69-.32-1.58-.49-2.46a2.17,2.17,0,0,1,1.37-2.5l2.37-.91a.79.79,0,0,0,.5-.59,12.8,12.8,0,0,0,0-4.7ZM68,38.13a4.19,4.19,0,0,1,0,8.33ZM29.79,21.78a4.21,4.21,0,0,1,0-8.26Zm-1.65,5.3-1.59,1.33h0a11.39,11.39,0,0,1-3.48-2.07c.13-.61.27-1.33.41-2h0A3.78,3.78,0,0,0,21.11,20l-1.92-.74h0a10.48,10.48,0,0,1,0-3.26l1.91-.74h0A3.78,3.78,0,0,0,23.48,11c-.14-.68-.28-1.39-.41-2a11.59,11.59,0,0,1,3.48-2.07l1.59,1.33A3.62,3.62,0,0,0,29.79,9V11.9a5.8,5.8,0,0,0,0,11.49v2.88a3.76,3.76,0,0,0-1.65.81ZM66.39,54.4a4,4,0,0,1-4,4H35.34a4,4,0,0,1-4-4V5.55a4,4,0,0,1,4-4H62.43a3.93,3.93,0,0,1,2.8,1.16,4,4,0,0,1,1.16,2.8ZM78.81,43.92l-1.91.75A3.77,3.77,0,0,0,74.52,49c.14.68.28,1.4.41,2h0a11.59,11.59,0,0,1-3.48,2.07l-1.58-1.34h0A3.77,3.77,0,0,0,68,50.87v-2.8a5.8,5.8,0,0,0,0-11.55v-2.8a3.69,3.69,0,0,0,1.91-.85l1.59-1.34h0a11.59,11.59,0,0,1,3.48,2.07c-.13.62-.27,1.33-.41,2h0a3.77,3.77,0,0,0,2.38,4.3l1.91.75h0a10.42,10.42,0,0,1,0,3.25Zm-33.1-25H40.3a2.38,2.38,0,0,0-2.38,2.38v5.43a2.38,2.38,0,0,0,2.38,2.38h5.42a2.39,2.39,0,0,0,2.38-2.38V21.31a2.39,2.39,0,0,0-2.39-2.38Zm.79,7.81a.79.79,0,0,1-.79.79H40.3a.79.79,0,0,1-.8-.79V21.31a.79.79,0,0,1,.8-.79h5.42a.79.79,0,0,1,.79.79Zm5.55-7.81h0a2.39,2.39,0,0,0-2.38,2.38v5.43a2.39,2.39,0,0,0,2.38,2.38h5.43a2.38,2.38,0,0,0,2.38-2.38V21.31a2.38,2.38,0,0,0-2.38-2.38Zm6.23,2.38v5.43a.8.8,0,0,1-.24.56.77.77,0,0,1-.56.23H52.06a.79.79,0,0,1-.79-.79V21.31a.79.79,0,0,1,.79-.79h5.43a.79.79,0,0,1,.79.79ZM45.7,30.82H40.3a2.38,2.38,0,0,0-2.38,2.38v5.43A2.38,2.38,0,0,0,40.3,41h5.42a2.39,2.39,0,0,0,2.38-2.38V33.21a2.37,2.37,0,0,0-2.39-2.38Zm.8,7.81h0a.79.79,0,0,1-.79.79H40.3a.79.79,0,0,1-.8-.79V33.21a.8.8,0,0,1,.8-.8h5.42a.8.8,0,0,1,.56.24.77.77,0,0,1,.23.56Zm11-7.81H52.06a2.39,2.39,0,0,0-2.38,2.38v5.43A2.39,2.39,0,0,0,52.06,41h5.43a2.39,2.39,0,0,0,2.38-2.38V33.21a2.37,2.37,0,0,0-2.38-2.38Zm.8,7.81h0a.8.8,0,0,1-.24.56.77.77,0,0,1-.56.23H52.06a.79.79,0,0,1-.79-.79V33.21a.79.79,0,0,1,.79-.8h5.43a.8.8,0,0,1,.56.24.77.77,0,0,1,.23.56Z" transform="translate(-17.48)"/></g></g></g></svg>