<svg xmlns="http://www.w3.org/2000/svg" xmlns:xlink="http://www.w3.org/1999/xlink" viewBox="0 0 56.84 60"><defs><style>.cls-1{fill:none;}.cls-2{clip-path:url(#clip-path);}</style><clipPath id="clip-path" transform="translate(-20.58)"><rect class="cls-1" width="98" height="60"/></clipPath></defs><title>Ongoing Support and Maintenance</title><g id="Layer_2" data-name="Layer 2"><g id="Ongoing_Support_and_Maintenance" data-name="Ongoing Support and Maintenance"><g class="cls-2"><path d="M45.12,58.44a.78.78,0,0,1,0,1.56H44a.78.78,0,0,1-.77-.85V52.38a23.21,23.21,0,0,1-3.68-1.19,24.81,24.81,0,0,1-3.48-1.78l-3.52,2a.78.78,0,0,1-.93-.13h0l-5.47-5.47a.77.77,0,0,1-.1-1L28,41.34a25.37,25.37,0,0,1-1.78-3.48A24,24,0,0,1,25,34.14L21.15,33a.78.78,0,0,1-.57-.75h0V24.55a.78.78,0,0,1,.62-.76L25,22.71A25.17,25.17,0,0,1,26.23,19,24.81,24.81,0,0,1,28,15.51L26,12a.77.77,0,0,1,.13-.92h0l5.47-5.46a.77.77,0,0,1,1-.1l3.47,1.94a24.28,24.28,0,0,1,3.48-1.78,23.37,23.37,0,0,1,3.72-1.2L44.38.57A.79.79,0,0,1,45.13,0h7.74a.78.78,0,0,1,.76.62l1.08,3.83a25.17,25.17,0,0,1,3.72,1.2,24.81,24.81,0,0,1,3.48,1.78l3.52-2a.78.78,0,0,1,.93.13h0l5.47,5.46a.79.79,0,0,1,.1,1L70,15.5a24.64,24.64,0,0,1,3,7.2l3.88,1.1a.79.79,0,0,1,.57.75h0v7.73a.78.78,0,0,1-.61.77L73,34.13a24,24,0,0,1-1.2,3.72A25.37,25.37,0,0,1,70,41.33l2,3.52a.78.78,0,0,1-.13.93h0l-5.46,5.47a.79.79,0,0,1-1,.09l-3.46-1.93a25.37,25.37,0,0,1-3.48,1.78,26.28,26.28,0,0,1-3.68,1.19v6.84A.78.78,0,0,1,54,60H47.43a.78.78,0,0,1-.78-.78V41.79a2.22,2.22,0,0,1,1.42-2.17,2.44,2.44,0,0,1,.93-.18h0a2.44,2.44,0,0,1,.93.18,2.22,2.22,0,0,1,1.42,2.17h0V58.44H53.2V39.69a.76.76,0,0,1,.48-.72A12.1,12.1,0,0,0,59,34.51a12,12,0,0,0-4.33-17.24v12.1h0a.79.79,0,0,1-.39.68L49.4,32.89a.8.8,0,0,1-.79,0l-4.87-2.82a.77.77,0,0,1-.45-.71V17.27a12,12,0,0,0,1,21.69.76.76,0,0,1,.49.72ZM57.9,10.83a.77.77,0,1,1-.7,1.38A18.17,18.17,0,0,0,39.93,44.16a17.49,17.49,0,0,0,3.32,1.49V40.18a13.59,13.59,0,0,1,.52-24.86.78.78,0,0,1,1.07.72h0V28.93L49,31.33l4.15-2.4V16a.78.78,0,0,1,1.13-.7,13.67,13.67,0,0,1,6,5,13.6,13.6,0,0,1-5.57,19.85v5.46a18.17,18.17,0,0,0,5.8-31.25.78.78,0,0,1-.11-1.1.77.77,0,0,1,1.09-.1,19.71,19.71,0,0,1-6.78,34.08v3.5a22.94,22.94,0,0,0,6.72-2.93.79.79,0,0,1,.8,0l3.41,1.91,4.63-4.64-1.88-3.37a.79.79,0,0,1,0-.84,22.56,22.56,0,0,0,3.13-7.54.78.78,0,0,1,.55-.59l3.75-1.06V25.14l-3.72-1.05a.78.78,0,0,1-.58-.6,23.6,23.6,0,0,0-1.22-3.91A22.51,22.51,0,0,0,68.43,16h0a.77.77,0,0,1,0-.79l1.91-3.41L65.68,7.11,62.31,9a.77.77,0,0,1-.84,0,23.27,23.27,0,0,0-3.63-1.9,23,23,0,0,0-3.91-1.22.8.8,0,0,1-.59-.55L52.28,1.56H45.72l-1,3.72a.79.79,0,0,1-.59.59,23.41,23.41,0,0,0-3.92,1.22A23.18,23.18,0,0,0,36.54,9h0a.79.79,0,0,1-.8,0L32.33,7.1l-4.64,4.64,1.88,3.38a.76.76,0,0,1,0,.83,22.45,22.45,0,0,0-1.9,3.63,22.19,22.19,0,0,0-1.23,3.91.78.78,0,0,1-.55.59l-3.75,1.06V31.7l3.72,1.05a.8.8,0,0,1,.59.6,23.6,23.6,0,0,0,1.22,3.91,23.27,23.27,0,0,0,1.9,3.63.75.75,0,0,1,0,.79l-1.9,3.41,4.64,4.64,3.37-1.88a.76.76,0,0,1,.83,0,23.27,23.27,0,0,0,3.63,1.9,22.85,22.85,0,0,0,3.09,1v-3.5a19.08,19.08,0,0,1-4.1-1.77A19.72,19.72,0,0,1,57.9,10.83ZM48.21,58.44H49.8V41.79h0a.74.74,0,0,0-.43-.73A1,1,0,0,0,49,41h0a1,1,0,0,0-.35.06.73.73,0,0,0-.44.73Z" transform="translate(-20.58)"/></g></g></g></svg>