<svg xmlns="http://www.w3.org/2000/svg" xmlns:xlink="http://www.w3.org/1999/xlink" viewBox="0 0 70.2 60"><defs><style>.cls-1{fill:none;}.cls-2{clip-path:url(#clip-path);}</style><clipPath id="clip-path" transform="translate(-13.9)"><rect class="cls-1" width="98" height="60"/></clipPath></defs><title>UX Audit</title><g id="Layer_2" data-name="Layer 2"><g id="UX_Audit" data-name="UX Audit"><g class="cls-2"><path d="M58.06,0H28.43a1.58,1.58,0,0,0-1.05.44l-13,13.05a1.67,1.67,0,0,0-.44,1.06V55.1a1.49,1.49,0,0,0,1.49,1.49H58.06a1.49,1.49,0,0,0,1.49-1.49V48.27a15.37,15.37,0,0,0,6-1.78L67.87,49a1.43,1.43,0,0,0,.18,1.76l7.17,7.64A5.18,5.18,0,0,0,79,60a5.08,5.08,0,0,0,3.51-1.39,5.14,5.14,0,0,0,.23-7.26l-7.17-7.64a1.46,1.46,0,0,0-1-.47,1.35,1.35,0,0,0-.7.18l-2.34-2.49a15.58,15.58,0,0,0-1.89-18.88,15.64,15.64,0,0,0-10-4.86V1.49A1.5,1.5,0,0,0,58.06,0ZM26.94,5.1v8H19Zm-10,48.5V16.05H28.43a1.5,1.5,0,0,0,1.5-1.5V3H56.57V17.21a15.51,15.51,0,0,0-9.06,4.13c-.19.18-.35.36-.52.54H25.15a1.5,1.5,0,1,0,0,3H44.71a15.53,15.53,0,0,0-2,6.37H25.15a1.5,1.5,0,1,0,0,3H42.67a15.54,15.54,0,0,0,2,6.35H25.15a1.5,1.5,0,1,0,0,3H47a15.65,15.65,0,0,0,9.6,4.68V53.6Zm63.64-.2a2.14,2.14,0,0,1-.1,3,2.18,2.18,0,0,1-3-.1l-6.14-6.54,3.13-2.94Zm-9-8L70,46.87l-1.94-2.06c.28-.23.56-.45.82-.7s.51-.52.75-.78ZM70.8,33.13a12.61,12.61,0,1,1-3.41-9A12.53,12.53,0,0,1,70.8,33.13Z" transform="translate(-13.9)"/><path d="M36.38,9.52H51.2a1.5,1.5,0,0,0,0-3H36.38a1.5,1.5,0,0,0,0,3Z" transform="translate(-13.9)"/><path d="M55.15,32.6a1.5,1.5,0,0,0-2.49,1.66l3,4.48a1.52,1.52,0,0,0,1.23.67h0a1.5,1.5,0,0,0,1.22-.64l6.72-9.62a1.49,1.49,0,1,0-2.45-1.71l-5.47,7.82Z" transform="translate(-13.9)"/></g></g></g></svg>