<svg xmlns="http://www.w3.org/2000/svg" xmlns:xlink="http://www.w3.org/1999/xlink" viewBox="0 0 60 60"><defs><style>.cls-1{fill:none;}.cls-2{clip-path:url(#clip-path);}</style><clipPath id="clip-path" transform="translate(-19)"><rect class="cls-1" width="98" height="60"/></clipPath></defs><title>Web UI-UX Design</title><g id="Layer_2" data-name="Layer 2"><g id="Layer_5" data-name="Layer 5"><g class="cls-2"><path d="M31,11a1,1,0,0,0,1-1V6a4,4,0,0,1,4-4h5.32l1.25,3.11A3,3,0,0,0,45.36,7h7.29a3,3,0,0,0,2.79-1.89L56.69,2H62a4,4,0,0,1,4,4v4a1,1,0,0,0,2,0V6a6,6,0,0,0-6-6H36a6,6,0,0,0-6,6v4a1,1,0,0,0,1,1ZM54.52,2l-1,2.37a1,1,0,0,1-.93.63H45.35a1,1,0,0,1-.93-.63L43.47,2Z" transform="translate(-19)"/><path d="M67,51a1,1,0,0,0-1,1v2a4,4,0,0,1-4,4H36a4,4,0,0,1-4-4V52a1,1,0,0,0-2,0v2a6,6,0,0,0,6,6H62a6,6,0,0,0,6-6V52A1,1,0,0,0,67,51Z" transform="translate(-19)"/><path d="M45,45V17a4,4,0,0,0-4-4H23a4,4,0,0,0-4,4V45a4,4,0,0,0,4,4H41A4,4,0,0,0,45,45ZM21,45V17a2,2,0,0,1,2-2H41a2,2,0,0,1,2,2V45a2,2,0,0,1-2,2H23A2,2,0,0,1,21,45Z" transform="translate(-19)"/><path d="M75,13H57a4,4,0,0,0-4,4V45a4,4,0,0,0,4,4H75a4,4,0,0,0,4-4V17A4,4,0,0,0,75,13Zm2,32a2,2,0,0,1-2,2H57a2,2,0,0,1-2-2V17a2,2,0,0,1,2-2H75a2,2,0,0,1,2,2Z" transform="translate(-19)"/><path d="M39,35H25a1,1,0,0,0,0,2H39a1,1,0,0,0,0-2Z" transform="translate(-19)"/><path d="M39,41H25a1,1,0,0,0,0,2H39a1,1,0,0,0,0-2Z" transform="translate(-19)"/><path d="M32,31a6,6,0,1,0-6-6A6,6,0,0,0,32,31Zm0-10a4,4,0,1,1-4,4A4,4,0,0,1,32,21Z" transform="translate(-19)"/><path d="M63,17H59a2,2,0,0,0-2,2v4a2,2,0,0,0,2,2h4a2,2,0,0,0,2-2V19A2,2,0,0,0,63,17Zm-4,6V19h4v4Z" transform="translate(-19)"/><path d="M73,17H69a2,2,0,0,0-2,2v4a2,2,0,0,0,2,2h4a2,2,0,0,0,2-2V19A2,2,0,0,0,73,17Zm-4,6V19h4v4Z" transform="translate(-19)"/><path d="M63,27H59a2,2,0,0,0-2,2v4a2,2,0,0,0,2,2h4a2,2,0,0,0,2-2V29A2,2,0,0,0,63,27Zm-4,6V29h4v4Z" transform="translate(-19)"/><path d="M73,27H69a2,2,0,0,0-2,2v4a2,2,0,0,0,2,2h4a2,2,0,0,0,2-2V29A2,2,0,0,0,73,27Zm-4,6V29h4v4Z" transform="translate(-19)"/><path d="M63,37H59a2,2,0,0,0-2,2v4a2,2,0,0,0,2,2h4a2,2,0,0,0,2-2V39A2,2,0,0,0,63,37Zm-4,6V39h4v4Z" transform="translate(-19)"/><path d="M73,37H69a2,2,0,0,0-2,2v4a2,2,0,0,0,2,2h4a2,2,0,0,0,2-2V39A2,2,0,0,0,73,37Zm-4,6V39h4v4Z" transform="translate(-19)"/></g></g></g></svg>