<svg xmlns="http://www.w3.org/2000/svg" xmlns:xlink="http://www.w3.org/1999/xlink" viewBox="0 0 473.21 213.95"><defs><style>.cls-1{fill:none;}.cls-2{fill:#24c6ff;}.cls-3{clip-path:url(#clip-path);}.cls-4{fill:#ff914d;}</style><clipPath id="clip-path"><rect class="cls-1" x="186.04" width="17.66" height="60.12"/></clipPath></defs><title>barber-app</title><g id="Layer_2" data-name="Layer 2"><g id="Layer_1-2" data-name="Layer 1"><path class="cls-2" d="M129.1,69.78c2.9.57,7.06,1.94,8.16,2.93,7.57-11.15,6-19.66,1.47-30.93-1.5-3.72-2.07-7.26,3.71-7.43-12.6-2.42-4.69,11.67-4.27,17.37-4.2-12.86-10.35-17.31-23.93-15.56,13.4-1.09,21.64,9.14,22.58,23.24a22.77,22.77,0,0,0-2.59-9c-15.34-28.47-37,10.48-57.07-2.42,7.69,4.54,20.79-1,28.43-7.06C95,42.18,81.16,36.85,68,42.14,55.06,47.3,47.2,57.82,43.81,69.72a28.06,28.06,0,0,1,21.34-5.43A21,21,0,0,0,41.87,84a51.59,51.59,0,0,0,3.48,18.64,55.07,55.07,0,0,0,2.57,5.44A32.81,32.81,0,0,1,59.26,83.66a31.2,31.2,0,0,0-4.63,35.6c.63,1,1.24,2,1.82,3h0c3.26,5.62,7.8,11,7.26,16.82,10-11-4.43-20.66,1.37-30,8-12.95,24.62-11.73,23.9,15.05-.14,5.25-2.89,13.59-7,19.6,2.38,5.85,10.31,14.74,15.34,18.84a49.7,49.7,0,0,1-.16-10.77,20.39,20.39,0,0,0,10.76,17.45c1.52.73,3.07,1.39,4.62,2A49.61,49.61,0,0,1,109.27,160c2,6.73,8.53,12,15.48,13.9a19,19,0,0,1-4.38-8c3.39,8.93,12.84,10.47,20.93,7.59,9-3.19,12-12.48,1.34-31.81-1.66-3-1.68-6.74-.77-10.72a29.17,29.17,0,0,1-10.09-1.14,43.73,43.73,0,0,1,11.82-4.64c1.08-3.15-.1-5.5-2.54-7.24A36.66,36.66,0,0,0,125,126.84c-9.13-12-21.34-9.32-24.53-14.31C96.91,107,98,95.27,103.33,88q5.06-5.27.86-11.86-7.57-9.89-38.8-4.33,27.35-8,40.87.84a52,52,0,0,1,16-3A33.54,33.54,0,0,0,98.64,56.93a33.89,33.89,0,0,1,26.9,12.68,15.86,15.86,0,0,0,.6-19.08c4.49,4.93,5.63,12.37,3,19.25"/><path class="cls-2" d="M141.16,86.84c-7.31,0-14.42-4.32-20.33,1.71a15.8,15.8,0,0,1,7.65-.41l.29,0h0l.28.06h0l.29.06h0l.28.05h0l.28.07h0l.21,0h.16l.11,0h.06l.07,0h0l.1,0c-1-.09-1.82-.15-2.51-.19a1.57,1.57,0,0,0-.43,1.08c0,1.38,2.26,2.41,4.93,2.31s4.78-1.28,4.73-2.66a1.13,1.13,0,0,0,0-.32,13.08,13.08,0,0,0,3.79-2"/><path class="cls-2" d="M61.26,143.16c.67,5.43.75,6.29,1.7,9.22,4.18,13,48.35,14.52,61.76,46.53-5.12-8.67-16.09-14.49-31.18-18.93-7.25-2.13-40-9.57-37-17.56,2.1-8.68,4.76-19.26,4.76-19.26"/><path class="cls-2" d="M108.63,193.29c-2.11-4.46-13-8.87-20-10.86-7.65-2.17-39.92-10.11-35.83-19.11a6.79,6.79,0,0,0-3.57,6.47c.86,13.92,46.84,12.08,59.39,23.5"/><path class="cls-2" d="M70,121.44c-5.3-7.25.8-17,8.61-15.8a2.67,2.67,0,0,1,1.77,3.17c-.67,2.92-14.06,1-10.38,12.63"/><path class="cls-2" d="M198.94,63.68a2,2,0,1,1-.75,2.71,2,2,0,0,1,.75-2.71M150,23h0a13.65,13.65,0,0,0,1,1l41.3,40.64c.86.86,1.66,1.63,2.58,2.53,1.57,1.55,3.43,3.38,5.11,4.85,2.93,2.54,3.13,1.9,5.67,2.88,5.51,2.14,12,4.61,17.4,6.92,2.16.93,4,1.4,5.12,4.54a15.57,15.57,0,0,1,.41,3.27c.95,5.94,7.14,9.4,12.63,8.64,1.21-.16,2.1-.61,3.39-.72,3.78-.3,4.31,2.23,9,1.7,2.09-.23,1.84-1.78,1.15-2.37s-2.13,0-3.18-.16c-2.39-.41-3.94-2.2-4-5-.07-2.43,0-4.37-2-6.75a11.49,11.49,0,0,0-5.39-3.5,12.18,12.18,0,0,0-6.31-.35c-5.15,1-7.31-1.77-11.51-4.94-1.71-1.29-3.45-2.68-5.25-4-3.6-2.68-7.18-5.54-10.69-8.2-14.08-10.65-28.52-22-42.58-32.61-1.41-1.07-7.07-5.57-14.55-10.45C148.89,21.53,149.34,22.3,150,23Zm82.28,69.54c-2.57-3.07-1.77-8.25,2.08-9.26a10.16,10.16,0,0,1,9.48,3.12c2.57,3.11,1.86,8.24-2.08,9.45C238.32,96.9,234.53,95.27,232.25,92.55Z"/><g class="cls-3"><path class="cls-2" d="M192.74,50c.13,1,0,1.66.78,2.26,2.3,1.75,8.22,6.12,9.92,7.6C198.89,41.68,193.58,24,188.87,6c-1.33-5.06-1.59-5.64-2.69-6,1.85,19.44,5.88,45.12,6.56,50"/></g><path class="cls-2" d="M199.1,94.05a17.48,17.48,0,0,1,.17,3.22l-.1.64a8,8,0,0,1-2.15,4.27,11,11,0,0,0-.18,14.11c4.95,6,13.27,3.11,14.08-5.15,1.15-.16,1.74-.16,1.24-1.59-.5-.25-.42-.2-1-.14-.51-1.08,0-3.17-2.67-6.56a8.1,8.1,0,0,0-2.39-2,5.1,5.1,0,0,1-2.29-2.14c-1.55-2.52-1-3.61-.75-5.93.17-1.78.45-3.65.68-5.48l.1-.62,1.31-10.28a12.36,12.36,0,0,0-2.56-.88,10,10,0,0,1-2.42-1.4c-1.65-1.19-3-2.79-4.46-4-.06.56,2.8,19.45,3.38,23.88m9.15,12.89c.93,3,.53,7.34-2.3,9.33-3.48,2.44-7.4-.08-8.79-4-1-2.93-.4-7.5,2.4-9.3C203,100.82,207.08,103.14,208.25,106.94Z"/><path class="cls-2" d="M119,202.4A96.19,96.19,0,1,1,139.51,16.12a1,1,0,0,0,1.28-.56l.08-.18a1,1,0,0,0,0-.81,1,1,0,0,0-.58-.56,103.37,103.37,0,1,0,64.82,115c.5-2.74-3.9-2.77-4.3-1C192,166.54,160.47,197.46,119,202.4"/><path class="cls-2" d="M308.68,78.17a13.46,13.46,0,0,1-1.53,6.28,14.62,14.62,0,0,1-4.16,5,16,16,0,0,1-6.37,2.91,33.42,33.42,0,0,1-7.08.76,32.69,32.69,0,0,1-4.88-.35c-1.59-.23-3.2-.51-4.82-.83-.42-.09-.84-.16-1.28-.21s-.89-.06-1.35-.06a9.6,9.6,0,0,0-1.88.17,10.13,10.13,0,0,1-1.86.17c-.19,0-.28,0-.28-.14a4.19,4.19,0,0,1,.17-1c.12-.41.23-.74.32-1l.52-2.31c.16-.77.29-1.54.38-2.33a41.22,41.22,0,0,0,.31-4.43c0-1.48.05-3,.1-4.51q.13-3.19.21-6.34c0-2.11.07-4.24.07-6.41,0-1.94,0-3.85,0-5.72s0-3.78,0-5.72V49a19.2,19.2,0,0,0-.21-3.09,4.52,4.52,0,0,0-.15-.55.77.77,0,0,0-.4-.41.72.72,0,0,0-.35-.08h-.35a12.18,12.18,0,0,0-2.19.21,12.74,12.74,0,0,0-2.11.56,3.81,3.81,0,0,1-.44.14l-.45.13c-.19,0-.29,0-.29-.14a5.67,5.67,0,0,1,.11-.93,1.36,1.36,0,0,1,.46-.87,5.53,5.53,0,0,1,.65-.2,3.63,3.63,0,0,0,.66-.21c1.15-.33,2.45-.64,3.88-.94s2.87-.58,4.33-.83,2.89-.45,4.32-.59,2.78-.21,4-.21a54.23,54.23,0,0,1,5.54.28,14.38,14.38,0,0,1,5.27,1.6,9.8,9.8,0,0,1,4.26,4,11.37,11.37,0,0,1,1.49,5.68,12,12,0,0,1-.62,3.74A14,14,0,0,1,301,59.81a13.68,13.68,0,0,1-2.66,2.91,11.28,11.28,0,0,1-3.26,1.87,32.94,32.94,0,0,1,3.57,1A20.41,20.41,0,0,1,302,67.15a13.48,13.48,0,0,1,4.85,4.6A11.88,11.88,0,0,1,308.68,78.17ZM283.87,65.69a23.93,23.93,0,0,0,5-.55A9.82,9.82,0,0,0,293.36,63a9.63,9.63,0,0,0,2.8-4.09A14,14,0,0,0,297.1,54a9.73,9.73,0,0,0-.87-4.15,9.88,9.88,0,0,0-2.36-3.23,10.94,10.94,0,0,0-3.46-2.11,11.46,11.46,0,0,0-4.19-.76l-.94,0a10.45,10.45,0,0,0-1.21.14c-.41.07-.81.15-1.18.24a2.75,2.75,0,0,0-.75.28,1,1,0,0,0-.54.52,5.38,5.38,0,0,0-.16.73c-.14,1.76-.22,3.5-.25,5.23s-.08,3.48-.17,5.23-.15,3.21-.17,4.78-.06,3.17-.1,4.78Zm-3.4,18.65a14.56,14.56,0,0,0,.1,1.62,3.18,3.18,0,0,0,.53,1.56,1.71,1.71,0,0,0,.47.46,4.62,4.62,0,0,0,.63.31,15.23,15.23,0,0,0,7.42,1.94,16.64,16.64,0,0,0,4.57-.63,11.42,11.42,0,0,0,3.87-1.87,9.34,9.34,0,0,0,2.68-3.18,9.82,9.82,0,0,0,1-4.58,11.27,11.27,0,0,0-1.15-5.16A11.44,11.44,0,0,0,297.51,71a13.76,13.76,0,0,0-4.43-2.36,17.06,17.06,0,0,0-5.19-.8c-.29,0-.81,0-1.57.07s-1.56.14-2.39.25-1.57.24-2.22.38-1,.29-1,.48c-.1,2.5-.17,5-.22,7.52s-.06,5-.06,7.52Z"/><path class="cls-2" d="M346.17,90.44c0,.23-.3.48-.87.76a14.82,14.82,0,0,1-1.94.76,19.33,19.33,0,0,1-2.11.55,8.64,8.64,0,0,1-1.46.21,5.61,5.61,0,0,1-3.71-1.18,7.41,7.41,0,0,1-2.18-3.25,6,6,0,0,1-.2-.59,1.68,1.68,0,0,0-.28-.59,5.53,5.53,0,0,0-1,.76,38.48,38.48,0,0,1-5.06,3.23,12,12,0,0,1-5.75,1.48,11.72,11.72,0,0,1-2.49-.27,7.17,7.17,0,0,1-2.19-.87,4.67,4.67,0,0,1-1.53-1.59,4.83,4.83,0,0,1-.58-2.47,7.6,7.6,0,0,1,1.7-4.84,16.21,16.21,0,0,1,4.12-3.68,26.23,26.23,0,0,1,5.19-2.52,32,32,0,0,1,5-1.42c.55-.09,1.11-.2,1.66-.31s1.09-.25,1.6-.39a18.51,18.51,0,0,0-.24-3.08,6.81,6.81,0,0,0-.94-2.5A4.55,4.55,0,0,0,331,67a6.88,6.88,0,0,0-3.07-.6,7.7,7.7,0,0,0-1.56.18q-.81.18-1.56.42c-.51.16-1,.3-1.43.41a4.14,4.14,0,0,1-1.07.17c-.23,0-.35-.18-.35-.55a5.71,5.71,0,0,1,.42-1.9,3.85,3.85,0,0,1,1-1.63,4.6,4.6,0,0,1,1.46-.52,14.78,14.78,0,0,1,2.25-.34c.8-.07,1.57-.13,2.31-.17s1.3-.08,1.68-.08a12.29,12.29,0,0,1,4.88.77,5.09,5.09,0,0,1,2.49,2.2,8.61,8.61,0,0,1,.93,3.58c.09,1.41.14,3,.14,4.82,0,1.29,0,2.58-.1,3.87s-.1,2.62-.1,4a18.37,18.37,0,0,0,.2,2.6,7.82,7.82,0,0,0,.8,2.46,5.76,5.76,0,0,0,1.56,1.87,4.6,4.6,0,0,0,2.5.9l1.2.14Q346.17,89.6,346.17,90.44Zm-12.06-14c-1,.19-2,.39-3,.6a17,17,0,0,0-2.85.86A18.18,18.18,0,0,0,325.9,79a16.24,16.24,0,0,0-2.4,1.66,9,9,0,0,0-1.84,2.11,4.84,4.84,0,0,0-.72,2.57A3.13,3.13,0,0,0,322.18,88a4.47,4.47,0,0,0,2.78,1,7.87,7.87,0,0,0,3.22-.69,9.91,9.91,0,0,0,2.75-1.8,8,8,0,0,0,2.31-3.4,18.11,18.11,0,0,0,.8-4c0-.27,0-.7.06-1.28A6.15,6.15,0,0,0,334.11,76.43Z"/><path class="cls-2" d="M362.25,62.51a3.07,3.07,0,0,0,0,.42,2.17,2.17,0,0,1,0,.47,4.07,4.07,0,0,1,0,1.05,8.4,8.4,0,0,0-.06,1V66q0,.42,0,.87a5.13,5.13,0,0,0,.14.83c.07.25.15.38.24.38a1.91,1.91,0,0,0,.49-.38c.27-.26.59-.56.93-.9s.66-.67.94-1l.56-.59a8.94,8.94,0,0,1,2.24-1.8,12.52,12.52,0,0,1,2.61-1.25,4.61,4.61,0,0,1,.72-.24,4.55,4.55,0,0,1,.73-.17c.19,0,.29.17.31.52s0,.56,0,.66c0,.82,0,1.65-.07,2.46s-.08,1.6-.08,2.38a.43.43,0,0,1-.35.46,7.72,7.72,0,0,1-.82.17,4.69,4.69,0,0,1-.91,0l-.61,0a19.31,19.31,0,0,0-2.26.14,6.94,6.94,0,0,0-2.11.59,5,5,0,0,0-1.67,1.24,3.37,3.37,0,0,0-.75,2.12c-.15,1.8-.3,3.6-.46,5.41s-.29,3.57-.38,5.33c0,.55-.06,1.11-.06,1.66s0,1.13-.08,1.73c0,.42-.09.84-.14,1.25s-.06.86-.06,1.32a4.09,4.09,0,0,1,0,.46.64.64,0,0,1-.17.37,7.79,7.79,0,0,1-.84.59c-.46.3-1,.59-1.52.89l-1.53.84a4.53,4.53,0,0,1-.75.38c-.14,0-.21-.1-.21-.32V92a1.58,1.58,0,0,1,.06-.42,1.19,1.19,0,0,0,.08-.41,18.36,18.36,0,0,0,.13-2.22c0-.74,0-1.48.08-2.21.09-1.81.16-3.61.2-5.41s.07-3.63.07-5.47c0-1.11,0-2.23,0-3.37s-.08-2.25-.17-3.36a3.16,3.16,0,0,0-.45-1.45c-.21-.28-.68-.42-1.42-.42a4.61,4.61,0,0,0-1.91.42,4.1,4.1,0,0,1-1.56.41.44.44,0,0,1-.44-.38,2.51,2.51,0,0,1-.11-.59.77.77,0,0,1,.2-.55,2.75,2.75,0,0,1,.43-.35c1.29-.41,2.58-.9,3.87-1.45S358,63.59,359.2,63a2.73,2.73,0,0,1,.4-.23,3.7,3.7,0,0,0,.43-.25,2.29,2.29,0,0,1,.9-.21h.9l.2.07Z"/><path class="cls-2" d="M409,76.16a19.49,19.49,0,0,1-.35,3.68,18.4,18.4,0,0,1-2.87,7,15.73,15.73,0,0,1-2.47,2.8A10.88,10.88,0,0,1,398.52,92a23,23,0,0,1-5.29.63,26.49,26.49,0,0,1-5.62-.6,17.79,17.79,0,0,1-5.2-2,8.67,8.67,0,0,1-.83-.63,1.13,1.13,0,0,1-.41-.9q0-.33,0-.75a5.13,5.13,0,0,1,.11-.76c.09-.93.16-1.84.2-2.74s.1-1.82.14-2.74q.15-6.51.35-12.89t.21-12.82c0-1.07,0-2.15,0-3.23s-.05-2.18-.1-3.29a13.09,13.09,0,0,0-.18-2.18,14,14,0,0,1-.17-2.12.87.87,0,0,1,.69-.9,1.23,1.23,0,0,1,.42-.07,1.23,1.23,0,0,0,.42-.07c.88-.23,1.73-.49,2.56-.79s1.69-.57,2.57-.8a11.51,11.51,0,0,0,1.17-.35,3.73,3.73,0,0,1,1.18-.21,1.18,1.18,0,0,1,.69.24.72.72,0,0,1,.35.6c0,.09-.11.23-.35.41l-.79.63-.91.69a2.75,2.75,0,0,0-.65.69,8.75,8.75,0,0,0-.8,3c-.21,1.53-.36,3.18-.45,5s-.16,3.5-.21,5.16-.06,2.88-.06,3.67,0,1.32-.08,2-.06,1.37-.06,2c0,.23.07.35.2.35a2.72,2.72,0,0,0,.6-.28c.34-.18.71-.39,1.1-.62s.75-.45,1.07-.66.54-.34.63-.38a11.68,11.68,0,0,1,2.66-1.21,10,10,0,0,1,2.89-.38,11.73,11.73,0,0,1,9,4A13.22,13.22,0,0,1,408.06,71,14.61,14.61,0,0,1,409,76.16Zm-5.82,2.91a14.73,14.73,0,0,0-.66-4.26,13.24,13.24,0,0,0-1.91-3.92,10.41,10.41,0,0,0-3.08-2.83A7.93,7.93,0,0,0,393.3,67a9.84,9.84,0,0,0-2.6.38,5.79,5.79,0,0,0-2.32,1.13,3.26,3.26,0,0,0-.8,1,3.9,3.9,0,0,0-.32,1.21,10.65,10.65,0,0,0-.06,1.15V73c-.05,1.16-.1,2.31-.15,3.44S387,78.75,387,79.9a22.47,22.47,0,0,0,.3,3.68,9.94,9.94,0,0,0,1.15,3.22,6.11,6.11,0,0,0,2.29,2.25,7.35,7.35,0,0,0,3.67.83,7.75,7.75,0,0,0,3.89-.94A8.08,8.08,0,0,0,401,86.45,11.5,11.5,0,0,0,402.62,83,15.12,15.12,0,0,0,403.14,79.07Z"/><path class="cls-2" d="M445.9,82.47a5.45,5.45,0,0,1-.9,2q-.92,1.49-2.16,3.12c-.83,1.08-1.64,2.06-2.45,2.94a5.76,5.76,0,0,1-1.84,1.52,13.62,13.62,0,0,1-3,.45c-1.2.07-2.24.11-3.12.11q-6.43,0-9.91-3.75t-3.46-10A19.46,19.46,0,0,1,420,73a17.13,17.13,0,0,1,2.73-5.33,15,15,0,0,1,4.36-3.84,11.38,11.38,0,0,1,5.83-1.5,10,10,0,0,1,3.11.49,8.77,8.77,0,0,1,2.71,1.38,7.26,7.26,0,0,1,1.91,2.21,6.29,6.29,0,0,1,.73,3.06,3.53,3.53,0,0,1-1.25,2.71A20.75,20.75,0,0,1,437.72,74a22.06,22.06,0,0,1-2.47,1.39c-.85.42-1.71.81-2.59,1.17a27.16,27.16,0,0,1-2.84,1l-3,.83c-.33.09-.67.17-1,.24a4.84,4.84,0,0,0-1,.31,21.82,21.82,0,0,0,.93,3.65,7.64,7.64,0,0,0,2.13,3,8.57,8.57,0,0,0,3,1.77,10.94,10.94,0,0,0,3.53.59,10.06,10.06,0,0,0,5.68-1.7,17.33,17.33,0,0,0,4.37-4.12,4.17,4.17,0,0,1,.28-.38.51.51,0,0,1,.41-.17.65.65,0,0,1,.56.28A1,1,0,0,1,445.9,82.47ZM435.16,69a3.5,3.5,0,0,0-1-2.69,3.82,3.82,0,0,0-2.71-1,5.36,5.36,0,0,0-3.18.93,7.52,7.52,0,0,0-2.16,2.39,11.26,11.26,0,0,0-1.2,3.2,14.81,14.81,0,0,0-.39,3.25V76.3a.12.12,0,0,1,.11,0,.14.14,0,0,0,.11,0A6.22,6.22,0,0,0,426,76.2l1.35-.32a11.27,11.27,0,0,0,2.6-.79,11.8,11.8,0,0,0,2.49-1.46,7.91,7.91,0,0,0,1.91-2A4.71,4.71,0,0,0,435.16,69Z"/><path class="cls-2" d="M463.22,62.51a2.06,2.06,0,0,0,0,.42,3.06,3.06,0,0,1,0,.47,4.07,4.07,0,0,1,0,1.05,8.34,8.34,0,0,0-.07,1V66a8.71,8.71,0,0,0,0,.87,5.15,5.15,0,0,0,.13.83c.07.25.16.38.25.38a1.91,1.91,0,0,0,.49-.38l.93-.9c.34-.35.66-.67.93-1s.47-.5.57-.59a8.76,8.76,0,0,1,2.24-1.8,12.06,12.06,0,0,1,2.61-1.25,4.61,4.61,0,0,1,.72-.24,4.32,4.32,0,0,1,.73-.17c.18,0,.29.17.31.52s0,.56,0,.66c0,.82,0,1.65-.07,2.46s-.08,1.6-.08,2.38a.44.44,0,0,1-.35.46,8,8,0,0,1-.83.17,4.59,4.59,0,0,1-.9,0l-.61,0a19.17,19.17,0,0,0-2.26.14,7,7,0,0,0-2.12.59,5,5,0,0,0-1.66,1.24,3.44,3.44,0,0,0-.76,2.12c-.14,1.8-.29,3.6-.45,5.41s-.29,3.57-.38,5.33c-.05.55-.07,1.11-.07,1.66s0,1.13-.07,1.73c0,.42-.09.84-.14,1.25s-.06.86-.06,1.32a2.68,2.68,0,0,1,0,.46.64.64,0,0,1-.17.37,7.23,7.23,0,0,1-.83.59c-.47.3-1,.59-1.52.89l-1.53.84a4.53,4.53,0,0,1-.75.38c-.15,0-.22-.1-.22-.32V92a1.6,1.6,0,0,1,.07-.42,1.18,1.18,0,0,0,.07-.41,18.38,18.38,0,0,0,.14-2.22c0-.74,0-1.48.08-2.21.09-1.81.15-3.61.2-5.41s.07-3.63.07-5.47c0-1.11,0-2.23,0-3.37s-.08-2.25-.17-3.36a3.14,3.14,0,0,0-.46-1.45q-.3-.42-1.41-.42a4.61,4.61,0,0,0-1.91.42,4.1,4.1,0,0,1-1.56.41.43.43,0,0,1-.44-.38,2.07,2.07,0,0,1-.11-.59.77.77,0,0,1,.2-.55,2.75,2.75,0,0,1,.43-.35c1.29-.41,2.58-.9,3.87-1.45s2.57-1.14,3.82-1.74a2.73,2.73,0,0,1,.4-.23c.14-.07.28-.16.43-.25a2.25,2.25,0,0,1,.9-.21h.9l.2.07Z"/><path class="cls-4" d="M338.47,170.58a.64.64,0,0,1-.31.56,5.21,5.21,0,0,1-.59.34l-1.56.69-2.74,1.17L329.46,175c-.37,0-.62-.33-.76-1s-.23-1.1-.28-1.37q-1.59-7.56-3.15-15.07t-3.15-15.08c-.14-.6-.27-1.2-.38-1.81a11.09,11.09,0,0,0-.52-1.8,1.41,1.41,0,0,0,0-.28.16.16,0,0,0-.17-.13c-.15,0-.26.11-.35.35q-4.38,7.07-8.26,14.34t-7.68,14.63q-.5,1-.9,1.86c-.28.61-.58,1.23-.91,1.87a2,2,0,0,1-1.94,1c-.18,0-.34-.15-.45-.44s-.2-.51-.24-.6q-1.32-3-2.49-5.95l-2.36-6c-1.29-3.18-2.63-6.34-4-9.45s-2.89-6.2-4.51-9.25a1.35,1.35,0,0,1-.24-.35.33.33,0,0,0-.31-.22c-.09,0-.22.16-.38.46s-.34.63-.52,1-.36.72-.52,1.07a6,6,0,0,0-.31.72q-2,4.44-3.78,8.87t-3.78,8.87q-1.86,4.38-3.88,9.06a90.47,90.47,0,0,1-4.36,8.82,5.23,5.23,0,0,1-.55.87,1.11,1.11,0,0,1-.91.45c-.46,0-.7-.32-.7-1a4.41,4.41,0,0,1,.28-1c.19-.51.38-1,.59-1.59s.42-1.08.63-1.56.35-.82.45-1q1-2.22,1.79-4.44l1.68-4.43c.69-1.81,1.39-3.59,2.11-5.37s1.39-3.58,2-5.38,1.37-3.88,2-5.82,1.36-3.88,2.05-5.82c.18-.6.45-1.36.8-2.28s.68-1.88,1-2.85.61-1.9.84-2.8a8.84,8.84,0,0,0,.35-2.19,5.29,5.29,0,0,0-.35-1.91,6.48,6.48,0,0,0-.94-1.69,4.72,4.72,0,0,0-1.45-1.25,3.86,3.86,0,0,0-1.9-.48,4.57,4.57,0,0,0-1.53.27,4.3,4.3,0,0,1-1.52.28A.74.74,0,0,1,275,128a.83.83,0,0,1,.24-1.35,4.7,4.7,0,0,1,.83-.45l2-.83c1-.42,2.05-.83,3.15-1.25l3.06-1.15a8.39,8.39,0,0,1,1.67-.52c.32,0,.57.24.76.7a10.88,10.88,0,0,1,.54,1.5c.14.48.31,1,.5,1.48q1.59,4.44,3.32,8.74t3.47,8.66q1.86,4.77,3.95,9.36a99.85,99.85,0,0,0,4.65,9c.09.22.2.34.34.34a.32.32,0,0,0,.3-.17,1.26,1.26,0,0,1,.25-.31q1.46-2.5,2.84-5t2.77-4.91c.32-.56.79-1.41,1.39-2.54l2-3.78c.74-1.38,1.49-2.84,2.25-4.36s1.46-3,2.11-4.33,1.17-2.58,1.56-3.64a5.12,5.12,0,0,0,.42-3.7c-.11-.58-.24-1.19-.38-1.84s-.28-1.27-.45-1.88-.29-1.08-.38-1.45a4.56,4.56,0,0,0-.18-.52,1.46,1.46,0,0,1-.09-.52c0-.23.13-.35.41-.35a22.23,22.23,0,0,1,2.87.24c1.18.17,2.11.32,2.81.45.28.1.5.18.66.22s.24.23.24.54a1.91,1.91,0,0,0,0,.32,1.25,1.25,0,0,1,0,.31c.19,1.44.38,2.86.59,4.27s.43,2.82.66,4.25c.41,2.78.85,5.51,1.31,8.22s1,5.42,1.6,8.14c.41,1.94.85,3.84,1.31,5.68s.93,3.75,1.39,5.69c.14.55.31,1.24.52,2.05s.47,1.6.76,2.39a12.1,12.1,0,0,0,1.12,2.18,3.27,3.27,0,0,0,1.56,1.35,2.59,2.59,0,0,0,.72.21c.3,0,.6.1.9.17a2.21,2.21,0,0,1,.76.32A.68.68,0,0,1,338.47,170.58Z"/><path class="cls-4" d="M374.37,172c0,.22-.29.48-.87.76a14.68,14.68,0,0,1-1.93.75,16,16,0,0,1-2.11.55,8,8,0,0,1-1.47.22,5.64,5.64,0,0,1-3.7-1.18,7.36,7.36,0,0,1-2.18-3.26,3.92,3.92,0,0,1-.21-.58,1.7,1.7,0,0,0-.27-.6,5.57,5.57,0,0,0-1,.77,38.45,38.45,0,0,1-5.06,3.22,12,12,0,0,1-5.75,1.49,11.27,11.27,0,0,1-2.5-.28,6.73,6.73,0,0,1-2.18-.87,4.58,4.58,0,0,1-1.53-1.59,4.82,4.82,0,0,1-.58-2.46,7.62,7.62,0,0,1,1.69-4.85,16.34,16.34,0,0,1,4.12-3.67,27.2,27.2,0,0,1,5.2-2.53,32.76,32.76,0,0,1,5-1.42c.55-.09,1.1-.19,1.66-.31s1.09-.25,1.6-.39a17.54,17.54,0,0,0-.25-3.08,6.64,6.64,0,0,0-.93-2.49,4.57,4.57,0,0,0-1.91-1.67,7.78,7.78,0,0,0-4.64-.41c-.53.11-1,.25-1.56.41s-1,.31-1.42.42a4.71,4.71,0,0,1-1.07.17c-.23,0-.35-.19-.35-.56a5.87,5.87,0,0,1,.41-1.89,3.9,3.9,0,0,1,1-1.64,5.07,5.07,0,0,1,1.45-.52,16.38,16.38,0,0,1,2.25-.34c.81-.07,1.58-.13,2.32-.17s1.3-.07,1.67-.07a12.29,12.29,0,0,1,4.88.76,5.14,5.14,0,0,1,2.5,2.21,8.52,8.52,0,0,1,.93,3.57c.09,1.41.14,3,.14,4.82,0,1.29,0,2.58-.11,3.88s-.09,2.61-.09,4a16.9,16.9,0,0,0,.2,2.6,8,8,0,0,0,.79,2.47,6.1,6.1,0,0,0,1.56,1.86,4.64,4.64,0,0,0,2.51.91l1.2.13C374.17,171.11,374.37,171.41,374.37,172Zm-12.05-14c-1,.18-2,.38-3,.59a18.72,18.72,0,0,0-2.85.86,18.42,18.42,0,0,0-2.39,1.16,15.85,15.85,0,0,0-2.39,1.65,9,9,0,0,0-1.84,2.12,4.81,4.81,0,0,0-.72,2.56,3.11,3.11,0,0,0,1.24,2.57,4.4,4.4,0,0,0,2.78,1,7.87,7.87,0,0,0,3.22-.69,10,10,0,0,0,2.74-1.81,8,8,0,0,0,2.32-3.39,18.13,18.13,0,0,0,.79-4c0-.28,0-.71.07-1.29A6.82,6.82,0,0,0,362.32,158Z"/><path class="cls-4" d="M383.87,151.73c0-.51,0-1,0-1.56s0-1.06,0-1.56a.38.38,0,0,0-.24-.14.5.5,0,0,1-.25-.07,4.39,4.39,0,0,0-.55,0,2.36,2.36,0,0,1-.7,0c-.23-.05-.43-.11-.62-.17a.44.44,0,0,1-.27-.46.93.93,0,0,1,.14-.41c0-.09.21-.36.65-.8s1-.94,1.63-1.52l2.11-1.87,2.15-1.91c.68-.6,1.24-1.1,1.7-1.49l.84-.73c.09-.09.23-.22.41-.37a.79.79,0,0,1,.48-.25.61.61,0,0,1,.42.21.66.66,0,0,1,.21.48.58.58,0,0,1-.07.28c-.37.88-.76,1.79-1.15,2.74a7.48,7.48,0,0,0-.59,2.87l.08.08c1.06,0,2.13,0,3.21,0s2.17,0,3.23,0h3.82a.36.36,0,0,1,.37.28,2.26,2.26,0,0,1,.14.62,2.73,2.73,0,0,1,0,.7q0,.35,0,.48,0,.82-.42.87c-.27,0-.67,0-1.17,0-.74,0-1.47,0-2.19.08s-1.44.06-2.18.06h-4.57a.87.87,0,0,1-.32.06,1.18,1.18,0,0,0-.38.08,11.14,11.14,0,0,0-.17,1.42c0,.44,0,.91,0,1.42-.05,1-.12,2-.21,3a29.9,29.9,0,0,0-.14,3c0,1.25,0,2.64,0,4.19a15.45,15.45,0,0,0,.59,4.13,6.45,6.45,0,0,0,6.52,4.91,9.28,9.28,0,0,0,1.17-.09c.46-.07.94-.16,1.42-.28s1-.26,1.42-.42a8.34,8.34,0,0,0,1.11-.45,2.23,2.23,0,0,1,.49-.24l.48-.11a.16.16,0,0,0,.11,0,.13.13,0,0,1,.1,0,.5.5,0,0,1,.49.41,2.39,2.39,0,0,1,.14.69,1,1,0,0,1-.14.46,1,1,0,0,1-.41.37c-.93.42-1.85.87-2.75,1.36a24.49,24.49,0,0,1-2.8,1.28,12.32,12.32,0,0,1-2.22.55,17.39,17.39,0,0,1-2.36.14,12,12,0,0,1-5.82-1.39,6.64,6.64,0,0,0-.8-.41,2.93,2.93,0,0,1-.72-.42,4.16,4.16,0,0,1-.7-.55,3.8,3.8,0,0,1-.52-.46c-.16-.16-.23-.28-.23-.38a1.85,1.85,0,0,0-.11-.58.75.75,0,0,1,0-.59,6.25,6.25,0,0,0,.11-1.38c0-.84,0-1.75.06-2.74s0-2,0-2.91V151.73Z"/><path class="cls-4" d="M437.44,164a5.26,5.26,0,0,1-.9,2,33.21,33.21,0,0,1-2.15,3.12q-1.25,1.64-2.46,2.94a5.38,5.38,0,0,1-1.83,1.52,13.65,13.65,0,0,1-3,.46c-1.21.07-2.25.1-3.12.1q-6.45,0-9.91-3.74t-3.46-10.05a19.71,19.71,0,0,1,.93-5.89,16.89,16.89,0,0,1,2.74-5.34,14.71,14.71,0,0,1,4.36-3.84,11.32,11.32,0,0,1,5.83-1.5,10.2,10.2,0,0,1,3.1.49,8.77,8.77,0,0,1,2.71,1.38,7,7,0,0,1,1.91,2.22,6.17,6.17,0,0,1,.73,3.05,3.5,3.5,0,0,1-1.25,2.71,19.84,19.84,0,0,1-2.43,1.87,23.61,23.61,0,0,1-2.46,1.39c-.85.41-1.72.8-2.59,1.17a28.8,28.8,0,0,1-2.84,1l-3,.83c-.32.09-.67.17-1,.24a6.62,6.62,0,0,0-1,.31,22.54,22.54,0,0,0,.94,3.65,7.54,7.54,0,0,0,2.12,3,8.92,8.92,0,0,0,3.05,1.77,10.89,10.89,0,0,0,3.53.58,10,10,0,0,0,5.68-1.7,17.46,17.46,0,0,0,4.37-4.11q.13-.21.27-.39a.51.51,0,0,1,.42-.17.67.67,0,0,1,.55.28A1,1,0,0,1,437.44,164ZM426.7,150.48a3.5,3.5,0,0,0-1-2.7,3.77,3.77,0,0,0-2.7-1,5.39,5.39,0,0,0-3.19.93,7.5,7.5,0,0,0-2.15,2.39,11.22,11.22,0,0,0-1.21,3.19,14.79,14.79,0,0,0-.38,3.26v1.24a.13.13,0,0,1,.1,0,.16.16,0,0,0,.11,0,5.66,5.66,0,0,0,1.35-.17l1.35-.31a11.32,11.32,0,0,0,2.6-.8,12.29,12.29,0,0,0,2.49-1.45,8.26,8.26,0,0,0,1.91-2A4.73,4.73,0,0,0,426.7,150.48Z"/></g></g></svg>