<svg xmlns="http://www.w3.org/2000/svg" xmlns:xlink="http://www.w3.org/1999/xlink" width="2000" zoomAndPan="magnify" viewBox="0 0 1500 1499.999933" height="2000" preserveAspectRatio="xMidYMid meet" version="1.0"><defs><clipPath id="ec22f28ec8"><path d="M 523 636 L 976.691406 636 L 976.691406 866.765625 L 523 866.765625 Z M 523 636 " clip-rule="nonzero"/></clipPath></defs><g clip-path="url(#ec22f28ec8)"><path fill="#56ac45" d="M 654.382812 743.746094 C 654.382812 750.867188 660.160156 756.644531 667.28125 756.644531 C 674.40625 756.644531 680.183594 750.867188 680.183594 743.746094 C 680.183594 736.621094 674.40625 730.839844 667.28125 730.839844 C 660.160156 730.839844 654.382812 736.621094 654.382812 743.746094 Z M 616.195312 743.746094 C 616.195312 750.867188 621.972656 756.644531 629.097656 756.644531 C 636.222656 756.644531 641.996094 750.867188 641.996094 743.746094 C 641.996094 736.621094 636.222656 730.839844 629.097656 730.839844 C 621.972656 730.839844 616.195312 736.621094 616.195312 743.746094 Z M 577.695312 743.746094 C 577.695312 750.867188 583.46875 756.644531 590.597656 756.644531 C 597.722656 756.644531 603.496094 750.867188 603.496094 743.746094 C 603.496094 736.621094 597.722656 730.839844 590.597656 730.839844 C 583.46875 730.839844 577.695312 736.621094 577.695312 743.746094 Z M 623.734375 829.542969 C 616.9375 828.726562 610.253906 827.125 603.871094 824.785156 C 601.929688 824.074219 599.800781 824.070312 597.855469 824.773438 L 547.398438 843.027344 L 562.976562 800.46875 C 563.960938 797.773438 563.570312 794.765625 561.929688 792.414062 C 549.511719 774.617188 544.105469 752.953125 546.703125 731.398438 C 549.523438 708.003906 561.285156 687.105469 579.820312 672.558594 C 598.355469 658.007812 621.453125 651.546875 644.847656 654.367188 C 660.207031 656.214844 674.832031 662.070312 687.132812 671.292969 L 697.679688 657.21875 C 682.914062 646.152344 665.371094 639.128906 646.953125 636.90625 C 618.890625 633.527344 591.195312 641.273438 568.964844 658.726562 C 546.730469 676.175781 532.625 701.238281 529.242188 729.296875 C 526.3125 753.601562 531.871094 778.03125 544.929688 798.605469 L 524.402344 854.683594 C 523.230469 857.894531 524.019531 861.492188 526.429688 863.914062 C 528.109375 865.601562 530.363281 866.503906 532.660156 866.503906 C 533.664062 866.503906 534.675781 866.328125 535.652344 865.980469 L 600.902344 842.371094 C 607.617188 844.597656 614.574219 846.152344 621.628906 847.003906 C 625.910156 847.515625 630.179688 847.769531 634.425781 847.769531 C 661.726562 847.769531 687.960938 837.253906 707.894531 817.972656 L 695.667969 805.328125 C 676.457031 823.910156 650.234375 832.738281 623.734375 829.542969 Z M 976.789062 726.152344 L 976.789062 711.488281 L 949.761719 711.488281 L 949.761719 679.746094 L 932.582031 685.296875 L 932.582031 711.488281 L 914.144531 711.488281 L 914.144531 726.152344 L 932.582031 726.152344 L 932.582031 789.636719 C 932.582031 810.589844 941.972656 821.0625 960.757812 821.0625 C 967.390625 821.0625 972.734375 819.949219 976.789062 817.710938 L 976.789062 803.042969 C 973.644531 805.421875 969.910156 806.605469 965.578125 806.605469 C 959.921875 806.605469 955.871094 805.070312 953.425781 801.996094 C 950.980469 798.921875 949.761719 793.792969 949.761719 786.601562 L 949.761719 726.152344 Z M 890.351562 764.496094 L 864.472656 768.054688 C 856.511719 769.175781 850.507812 771.148438 846.457031 773.976562 C 842.40625 776.804688 840.378906 781.820312 840.378906 789.007812 C 840.378906 794.246094 842.25 798.523438 845.984375 801.84375 C 849.71875 805.160156 854.695312 806.816406 860.914062 806.816406 C 869.433594 806.816406 876.472656 803.828125 882.023438 797.859375 C 887.578125 791.886719 890.351562 784.332031 890.351562 775.179688 Z M 907.535156 748.988281 L 907.535156 818.757812 L 890.351562 818.757812 L 890.351562 801.996094 L 889.929688 801.996094 C 882.457031 814.847656 871.457031 821.277344 856.933594 821.277344 C 846.25 821.277344 837.882812 818.445312 831.84375 812.789062 C 825.800781 807.128906 822.785156 799.621094 822.785156 790.261719 C 822.785156 770.222656 834.582031 758.558594 858.1875 755.273438 L 890.351562 750.769531 C 890.351562 732.542969 882.980469 723.425781 868.246094 723.425781 C 855.324219 723.425781 843.660156 727.828125 833.257812 736.628906 L 833.257812 719.03125 C 843.804688 712.328125 855.953125 708.976562 869.714844 708.976562 C 894.921875 708.976562 907.535156 722.3125 907.535156 748.988281 Z M 811.242188 752.65625 L 811.242188 818.757812 L 794.066406 818.757812 L 794.066406 756.949219 C 794.066406 734.605469 785.753906 723.425781 769.132812 723.425781 C 760.75 723.425781 753.699219 726.664062 747.972656 733.121094 C 742.242188 739.578125 739.382812 747.875 739.382812 757.996094 L 739.382812 818.757812 L 722.203125 818.757812 L 722.203125 659.949219 L 739.382812 659.949219 L 739.382812 729.296875 L 739.800781 729.296875 C 748.039062 715.746094 759.777344 708.976562 774.996094 708.976562 C 799.160156 708.976562 811.242188 723.535156 811.242188 752.65625 " fill-opacity="1" fill-rule="nonzero"/></g></svg>