<svg xmlns="http://www.w3.org/2000/svg" xmlns:xlink="http://www.w3.org/1999/xlink" viewBox="0 0 833.24 226.77"><defs><style>.cls-1{fill:none;}.cls-2{clip-path:url(#clip-path);}.cls-3{fill:#75bfca;}.cls-4{fill:#60abb5;}.cls-5{fill:#fef5e5;}.cls-6{fill:#eae1d0;}.cls-7{clip-path:url(#clip-path-2);}.cls-8{clip-path:url(#clip-path-3);}.cls-9{fill:#ed6280;}.cls-10{clip-path:url(#clip-path-4);}.cls-11{fill:#7dcbe4;}</style><clipPath id="clip-path" transform="translate(0 -0.1)"><rect class="cls-1" x="147.35" y="61.39" width="221.3" height="165.47"/></clipPath><clipPath id="clip-path-2" transform="translate(0 -0.1)"><rect class="cls-1" x="343.17" y="122.69" width="86.68" height="70.05"/></clipPath><clipPath id="clip-path-3" transform="translate(0 -0.1)"><rect class="cls-1" x="61.38" width="221.3" height="164.88"/></clipPath><clipPath id="clip-path-4" transform="translate(0 -0.1)"><rect class="cls-1" y="60.6" width="86.06" height="70.05"/></clipPath></defs><title>dating</title><g id="Layer_2" data-name="Layer 2"><g id="Layer_1-2" data-name="Layer 1"><g class="cls-2"><path class="cls-3" d="M332.55,62.17H183a35.47,35.47,0,0,0-35.45,35.47v93.47A35.63,35.63,0,0,0,183,226.77H332.55a35.78,35.78,0,0,0,35.63-35.66V97.64A35.62,35.62,0,0,0,332.55,62.17Z" transform="translate(0 -0.1)"/></g><path class="cls-4" d="M147.53,129.23v61.88a35.51,35.51,0,0,0,12.37,27l101.93-56.71-17-38.24Z" transform="translate(0 -0.1)"/><path class="cls-5" d="M257.77,109.64C249.82,95.79,241.89,89,226,89c-17.54,0-31.76,12.37-31.76,27.7,0,27.72,31.76,55.61,63.52,83.32,31.76-27.71,63.51-55.6,63.51-83.32,0-15.33-14.21-27.7-31.75-27.7C273.65,89,265.71,95.79,257.77,109.64Z" transform="translate(0 -0.1)"/><path class="cls-6" d="M195.54,126.27c4.25,17,19,34.18,37.11,51.17l29.18-16.07-17-38.24Z" transform="translate(0 -0.1)"/><g class="cls-7"><path class="cls-3" d="M363,123s22.71,37.13,66.84,57.45c0,0-34.9,26.6-86.23-.37Z" transform="translate(0 -0.1)"/></g><g class="cls-8"><path class="cls-9" d="M97.12.1H246.69a35.79,35.79,0,0,1,35.64,35.65V129a35.8,35.8,0,0,1-35.64,35.66H97.12A35.63,35.63,0,0,1,61.67,129V35.75A35.63,35.63,0,0,1,97.12.1Z" transform="translate(0 -0.1)"/></g><path class="cls-5" d="M171.9,47.76c7.95-14,15.88-20.88,31.76-20.88,17.55,0,32,12.38,32,27.71,0,27.71-32,55.61-63.71,83.32-31.75-27.71-63.51-55.61-63.51-83.32,0-15.33,14.21-27.71,31.76-27.71C156,26.88,164,33.72,171.9,47.76Z" transform="translate(0 -0.1)"/><g class="cls-10"><path class="cls-9" d="M66.84,60.87S44,98,0,118.33c0,0,34.9,26.6,86.05-.37Z" transform="translate(0 -0.1)"/></g><path class="cls-9" d="M446,100.67V1.15h26.84V49.48h35.9V1.15h26.84v99.52H508.74V51.26h-35.9v49.41Z" transform="translate(0 -0.1)"/><path class="cls-9" d="M588.37,102.45a39.57,39.57,0,0,1-34.13-19,36.13,36.13,0,0,1-5.33-19.21,35.55,35.55,0,0,1,5.33-19.09,39.68,39.68,0,0,1,14.3-13.77,39.11,39.11,0,0,1,19.83-5.16q14.19,0,23.26,7.65t9.07,21.65H574.49q.71,16.91,7.37,26.06t16.81,9.13a19.55,19.55,0,0,0,13.4-5.32,31.53,31.53,0,0,0,8.81-13.68l2,.35a43,43,0,0,1-11.58,21.7Q602.56,102.45,588.37,102.45Zm-13.88-48.7H596.9a63.51,63.51,0,0,0-2.24-18.2c-1.47-4.91-3.94-7.37-7.38-7.37s-6.38,2.46-8.87,7.37S574.61,46.53,574.49,53.75Z" transform="translate(0 -0.1)"/><path class="cls-9" d="M653.06,102.45q-9.25,0-15.29-5t-6-12.08c0-4.62,1.15-8.31,3.46-11.1a26.67,26.67,0,0,1,9.59-7q6.13-2.83,14.2-5.76t17.34-7.38V41.32q0-6.23-3.39-9.5a11.43,11.43,0,0,0-8.34-3.3A14.57,14.57,0,0,0,656.15,31q-3.66,2.49-3.65,8.7A11.29,11.29,0,0,0,653.93,46a8.17,8.17,0,0,0,2.84,2.84l1.43.69c0,1.66-1,3.5-2.86,5.51a10.61,10.61,0,0,1-7.1,3.39q-6.91.72-10.12-3.36a14.42,14.42,0,0,1-3.21-9.09,14.14,14.14,0,0,1,4-9.84,27.75,27.75,0,0,1,10.86-7,42.5,42.5,0,0,1,15-2.58q17.07,0,27.72,8.72a25.62,25.62,0,0,1,9.78,20.8V85.57a15,15,0,0,0,.53,4.17,2.27,2.27,0,0,0,2.32,1.87,2,2,0,0,0,1.6-1.06q.71-1.08.9-5l1.4.18a16.7,16.7,0,0,1-16.69,16.7,15.68,15.68,0,0,1-15.82-14,26,26,0,0,1-5.7,6.59,36.7,36.7,0,0,1-8.34,5.33A22.41,22.41,0,0,1,653.06,102.45ZM665,92.33a14.09,14.09,0,0,0,11.36-5.7V55.71a64.26,64.26,0,0,0-14.57,10.93q-5.32,5.6-5.33,15a12.24,12.24,0,0,0,2.4,7.4A7.31,7.31,0,0,0,665,92.33Z" transform="translate(0 -0.1)"/><path class="cls-9" d="M768.74,26.56a28.06,28.06,0,0,1,10.31,2,17.45,17.45,0,0,1,8.07,6.41q3.12,4.43,3.11,11.72a22.31,22.31,0,0,1-1.33,7.47,13.67,13.67,0,0,1-4.43,6.22q-3.12,2.47-8.44,2.47a10.37,10.37,0,0,1-8.35-3.55,13,13,0,0,1-3.39-6.92l2.31-1.5a18.56,18.56,0,0,0,4.54-4.45,11.63,11.63,0,0,0,2.21-7.21,10.73,10.73,0,0,0-2.39-7,7.79,7.79,0,0,0-6.3-2.93,14.17,14.17,0,0,0-9.15,3.39,28.1,28.1,0,0,0-7.2,9.22v58.82h-26V28.18h26V38.3a24.59,24.59,0,0,1,8.35-8.72A22.89,22.89,0,0,1,768.74,26.56Z" transform="translate(0 -0.1)"/><path class="cls-9" d="M833.24,30h-6.73V85.57a15,15,0,0,0,.53,4.17,2.23,2.23,0,0,0,2.3,1.87,2,2,0,0,0,1.59-1.06q.72-1.08.9-5l1.41.18a16.7,16.7,0,0,1-16.7,16.7,15.36,15.36,0,0,1-11.39-4.71,15.52,15.52,0,0,1-4.61-11.29V30h-7.63V28.18H802q10.65-.37,16.7-7.29t6.06-18h1.78V28.18h6.73Z" transform="translate(0 -0.1)"/><path class="cls-11" d="M446.07,224.88v-111H476v109h13.87a52.42,52.42,0,0,0,21.81-4.65,46.75,46.75,0,0,0,17-12.77A31.1,31.1,0,0,0,536,187h2l-3.35,37.85Z" transform="translate(0 -0.1)"/><path class="cls-11" d="M576.65,226.87q-10.3,0-17-5.54t-6.73-13.49q0-7.71,3.86-12.37a29.89,29.89,0,0,1,10.69-7.83q6.84-3.16,15.86-6.43T602.6,173V158.69q0-6.91-3.77-10.58a12.77,12.77,0,0,0-9.3-3.68,16.28,16.28,0,0,0-9.42,2.78q-4.05,2.78-4.05,9.7c0,3,.52,5.36,1.58,6.94a9,9,0,0,0,3.18,3.18l1.58.79c0,1.85-1,3.9-3.17,6.15a11.88,11.88,0,0,1-7.94,3.75c-5.15.53-8.9-.71-11.29-3.75a16,16,0,0,1-3.57-10.12,15.8,15.8,0,0,1,4.46-11,31,31,0,0,1,12.1-7.72,47,47,0,0,1,16.74-2.88q19,0,30.91,9.72a29.57,29.57,0,0,1,8,9.92,29,29,0,0,1,2.89,13.25V208a17.73,17.73,0,0,0,.57,4.67,2.51,2.51,0,0,0,2.58,2.07,2.19,2.19,0,0,0,1.79-1.19q.79-1.18,1-5.55l1.59.2a18.61,18.61,0,0,1-18.63,18.63,17.54,17.54,0,0,1-17.64-15.66,28.61,28.61,0,0,1-6.33,7.35,40.58,40.58,0,0,1-9.32,5.93A24.87,24.87,0,0,1,576.65,226.87Zm13.27-11.29q7.55,0,12.68-6.35V174.75a72.27,72.27,0,0,0-16.25,12.19q-5.94,6.24-5.93,16.73a13.7,13.7,0,0,0,2.67,8.25A8.16,8.16,0,0,0,589.92,215.58Z" transform="translate(0 -0.1)"/><path class="cls-11" d="M653.92,224.88V144h28.93v15.06a59.91,59.91,0,0,1,7.54-8.11,46.31,46.31,0,0,1,10.4-7.12,26.81,26.81,0,0,1,12.37-3q10.32,0,16.56,5.36T736,158.3v66.58H707V157.7q0-8.12-4.56-9.3T692.37,152c-.79.66-2.29,2.15-4.48,4.45a54.58,54.58,0,0,0-5,6v62.42Z" transform="translate(0 -0.1)"/><path class="cls-11" d="M794.81,226.87a43.66,43.66,0,0,1-22.09-5.74,44.23,44.23,0,0,1-16-15.45,40.27,40.27,0,0,1-5.93-21.41,39.64,39.64,0,0,1,5.93-21.3,44.67,44.67,0,0,1,16-15.37,43.57,43.57,0,0,1,22.09-5.75q15.84,0,26,8.53t10.1,24.17H779.35q.79,18.82,8.23,29t18.72,10.21a21.8,21.8,0,0,0,14.94-5.93,35.19,35.19,0,0,0,9.82-15.28l2.18.4a48,48,0,0,1-12.88,24.19Q810.66,226.88,794.81,226.87Zm-15.46-54.31h25q0-12.08-2.49-20.3t-8.2-8.23q-5.76,0-9.92,8.23T779.35,172.56Z" transform="translate(0 -0.1)"/></g></g></svg>