<svg xmlns="http://www.w3.org/2000/svg" xmlns:xlink="http://www.w3.org/1999/xlink" viewBox="0 0 931.53 409.67"><defs><style>.cls-1{fill:none;}.cls-2{fill:#f7941d;}.cls-3{fill:#88bc50;}.cls-4{clip-path:url(#clip-path);}.cls-5{fill:#27aae1;}</style><clipPath id="clip-path" transform="translate(0 -0.06)"><rect class="cls-1" x="581.56" width="124" height="123.18"/></clipPath></defs><title>doctor</title><g id="Layer_2" data-name="Layer 2"><g id="Layer_1-2" data-name="Layer 1"><path class="cls-2" d="M768.34,226.22c77.38,4.31,131.3,23.12,134.73,51.63,5.11,42.67-104.8,91-245.57,107.82s-259-4.07-264.14-46.73c-3.43-28.51,44.51-59.52,118.66-82C422.4,282,363.35,318.35,367.34,351.57c5.68,47.21,136.54,70.37,292.29,51.71S937,331.22,931.34,284C927.36,250.75,861.34,229.44,768.34,226.22Z" transform="translate(0 -0.06)"/><path class="cls-3" d="M755.37,115.76c76.16-14.32,133-8.93,143.19,17.93C913.78,173.91,818.61,247.05,686,297.08s-252.46,58-267.69,17.77c-10.15-26.86,29-68.44,95.58-108-81,45.76-129.61,95.1-117.77,126.43,16.83,44.48,149.43,35.71,296.2-19.66s252.05-136.29,235.22-180.8C915.63,101.56,846.48,96.61,755.37,115.76Z" transform="translate(0 -0.06)"/><g class="cls-4"><path class="cls-5" d="M695.12,122.79h10.23A122.81,122.81,0,0,0,582.42.06V10.28a112.6,112.6,0,0,1,112.7,112.51Z" transform="translate(0 -0.06)"/></g><path class="cls-5" d="M793.72,169.32a26.86,26.86,0,0,0-33.07,21c0,.24-.09.49-.12.73-28,3.5-44,21.47-51.48,32.85a43.8,43.8,0,0,0-6.48,16.41l-14.42,82.48a27.3,27.3,0,0,1-5.76,12.62c-33.23,39.93-67.75,28-86.52,16.25a55.07,55.07,0,0,1-25-36c-4.43-23.05,1.13-49.19,3.91-60h34.15a13.44,13.44,0,0,0,13.46-13.43V88.78a9.22,9.22,0,0,0-9.23-9.22H527.92a9.22,9.22,0,0,0-9.22,9.22V242.15a13.44,13.44,0,0,0,13.45,13.43h32.14l-4.83,33.06A75.77,75.77,0,0,0,565.18,331c17.24,37.8,56.75,41.74,56.75,41.74,35.49,2.69,56.92-17.21,67.22-30.77a47.88,47.88,0,0,0,9.11-20.91l13.53-77.93a46.42,46.42,0,0,1,11.6-23.72c11.12-12,26.34-17.22,37.17-19.55a26.86,26.86,0,1,0,33.16-30.56ZM558,85.19h24.77a.85.85,0,0,1,0,1.7H558a.83.83,0,0,1-.84-.85A.85.85,0,0,1,558,85.19ZM529.7,229.72V91.35h81.68V229.72Zm41,5.07a7.88,7.88,0,1,1-7.9,7.88A7.91,7.91,0,0,1,570.7,234.79ZM808,199.24a21.33,21.33,0,0,1-42-.36c2.5-.36,4.56-.57,6-.69a14.66,14.66,0,1,0,.88-7.76c-2.25-.08-4.47,0-6.6.08A21.32,21.32,0,0,1,808,199.24Z" transform="translate(0 -0.06)"/><path class="cls-5" d="M675.5,122.79h10.23A103.23,103.23,0,0,0,582.42,19.65V29.86a93,93,0,0,1,93.08,92.93Z" transform="translate(0 -0.06)"/><path class="cls-5" d="M655,122.79h10.23a82.78,82.78,0,0,0-82.85-82.71V50.29A72.65,72.65,0,0,1,655,122.79Z" transform="translate(0 -0.06)"/><path class="cls-2" d="M117.85,107,107.1,168.38a32,32,0,0,1-4.17,11.23,29,29,0,0,0,4.4,1.06,34.93,34.93,0,0,0,5.39.39q13,0,22.4-6.83t14.37-19q5-12.21,5-28.27,0-14.91-5.79-25.58A39.5,39.5,0,0,0,132,84.9q-10.92-5.79-26.19-5.79-11.86,0-19,3.2t-10.35,8a16.66,16.66,0,0,0-3.21,9.38A8.09,8.09,0,0,0,74.91,105a5.82,5.82,0,0,0,4.73,2,6.6,6.6,0,0,0,2-.23l.73-.25s0,.11.08.32a5.47,5.47,0,0,1,.08,1.12q0,2.9-3.06,5.94t-9.14,3q-7.87,0-12.38-4.39t-4.48-11.65a23.35,23.35,0,0,1,5.69-15q5.7-7,17.19-11.31T105,70.27q22.14,0,38.21,7.54T168,98.61q8.76,13.24,8.75,30.75,0,19.11-7.56,32.91a52.05,52.05,0,0,1-20.79,21.13q-13.23,7.29-30.42,7.29a53.07,53.07,0,0,1-12.68-1.35,67.35,67.35,0,0,1-9.32-3,22.15,22.15,0,0,1-7.79,3.37,39.57,39.57,0,0,1-8.75,1q-7.06,0-10-3a9,9,0,0,1-.06-13.25q2.88-2.89,9.31-2.89a28.74,28.74,0,0,1,6.25.79l11.56-66.15q1.45-8.36.81-11.71c-.43-2.25-.64-3.37-.64-3.37l2.08-.79a21.21,21.21,0,0,1,7.06-.82q9,0,11.32,4.11T117.85,107Z" transform="translate(0 -0.06)"/><path class="cls-2" d="M222.87,110.4q14.13,0,21.83,8.44t7.71,22.25c0,1.7-.08,3.41-.25,5.12s-.34,3.37-.56,5a24.5,24.5,0,0,0,10.44-4,36.53,36.53,0,0,0,6.66-5.79c1.55-1.82,2.34-2.73,2.34-2.73,2.25,0,3.2,1.34,2.87,4q-.48,2.73-3.77,6.19a32.47,32.47,0,0,1-8.52,6.16A34,34,0,0,1,250,158.59a45,45,0,0,1-14.85,23.2q-10.83,8.91-27.21,8.9-12.69,0-21.12-7.85T178.39,160q0-14.6,5.37-25.77a41.53,41.53,0,0,1,15.42-17.5Q209.22,110.41,222.87,110.4Zm.62,31.16a12.07,12.07,0,0,1,2.09-7.14,9.35,9.35,0,0,1,6.12-3.77q-1.29-12.37-10.44-12.38-6,0-11.75,7.07t-9.12,25.06a66.26,66.26,0,0,0-1.06,8.27q-.41,5.21-.4,8.25,0,7.56,2.81,11.67a9,9,0,0,0,7.8,4.08q6.57,0,11.79-7t8.27-21.44A15.12,15.12,0,0,1,223.49,141.56Z" transform="translate(0 -0.06)"/><path class="cls-2" d="M299.94,190.69a40.84,40.84,0,0,1-18.79-4.17,31.21,31.21,0,0,1-12.83-11.89,34,34,0,0,1-4.67-18,48.83,48.83,0,0,1,3.54-18.94,45,45,0,0,1,9.54-14.62,42.72,42.72,0,0,1,13.73-9.4,40.19,40.19,0,0,1,15.9-3.29q9.94,0,16.29,5.14a16.07,16.07,0,0,1,6.35,13,18.55,18.55,0,0,1-3.79,12,12.14,12.14,0,0,1-10,4.73c-2.89,0-4.9-.63-6-1.91l-1.69-1.94,1.52-1.69a18.37,18.37,0,0,0,3-5.12,22.8,22.8,0,0,0,1.46-8.78,7.1,7.1,0,0,0-2.08-5.35,7.37,7.37,0,0,0-5.32-2c-3.3,0-6.62,1.45-9.93,4.33A32.26,32.26,0,0,0,287.82,135a47.44,47.44,0,0,0-3.3,18.46q0,11.24,6.17,17.9T308.13,178a38.3,38.3,0,0,0,14.21-2.39,36.94,36.94,0,0,0,10.18-5.94,30.61,30.61,0,0,0,6.27-6.92c2.35,0,3.2,1.39,2.57,4.17a20.22,20.22,0,0,1-3.71,6.6,41.49,41.49,0,0,1-8.33,7.94A48.56,48.56,0,0,1,316.63,188,49.08,49.08,0,0,1,299.94,190.69Z" transform="translate(0 -0.06)"/><path class="cls-3" d="M57.65,233.79a18.82,18.82,0,0,0-11.17,3.6A24.85,24.85,0,0,0,38.54,247a29.65,29.65,0,0,0-2.89,13.17,26.39,26.39,0,0,0,1.68,9.31,14.78,14.78,0,0,0,5.77,7.21c2.74,1.82,6.51,2.63,11.34,2.42,0,0,0,.16.08.48a8.64,8.64,0,0,1,.08,1.29q0,6.1-8.52,6.1H42.4q-9.66,2.25-14.94,8.84a23,23,0,0,0-5.29,14.77,20.45,20.45,0,0,0,3,10.83q3,4.9,9.56,7.79T52,332a64.27,64.27,0,0,0,18.54-2.4,52.3,52.3,0,0,0,13.25-5.85,39.6,39.6,0,0,0,7.88-6.36c1.38,0,2.24.33,2.56,1a4,4,0,0,1,.17,2.58c-.44,2.35-2.12,4.92-5.07,7.71a53.31,53.31,0,0,1-11.64,8A74.51,74.51,0,0,1,61.25,343a78,78,0,0,1-19.67,2.4q-18.76,0-30.18-8T0,314.87a28.24,28.24,0,0,1,7.63-19.42q7.62-8.51,21.27-12.06a26.88,26.88,0,0,1-11.4-9.79,25.12,25.12,0,0,1-4-13.81,30.78,30.78,0,0,1,5.46-18A36.73,36.73,0,0,1,34,229.45,51.06,51.06,0,0,1,55.88,225q10.75,0,17.91,3.46a25.25,25.25,0,0,1,10.75,9.15A22.82,22.82,0,0,1,88.15,250q0,7.71-3.94,12.77t-11.63,5.06q-5.14,0-7.48-1.92L62.79,264s.59-.69,1.75-2.08a27.7,27.7,0,0,0,3.61-6.1A22.55,22.55,0,0,0,70,246.31Q70,233.79,57.65,233.79Z" transform="translate(0 -0.06)"/><path class="cls-3" d="M159.27,278.25l-6.89,39q-1.31,7.23.62,10.68a6.64,6.64,0,0,0,6.27,3.44q4.18,0,9-3.77a27.87,27.87,0,0,0,7.88-10.19,3.25,3.25,0,0,1,2.48,1,3.83,3.83,0,0,1,.56,3.21,24.41,24.41,0,0,1-3,7.25,36.33,36.33,0,0,1-6.17,7.77,34.89,34.89,0,0,1-8.83,6.27,23.72,23.72,0,0,1-10.75,2.48,18.46,18.46,0,0,1-13-4.73c-3.42-3.17-5.35-7.63-5.77-13.42q-5,8.83-11.34,13.5a22,22,0,0,1-13.22,4.65,23.06,23.06,0,0,1-16.71-6.73q-6.9-6.75-6.9-20.89,0-13.49,3.54-23.36A49.41,49.41,0,0,1,96.33,278a38.79,38.79,0,0,1,12.78-9.71,33.19,33.19,0,0,1,14-3.23,22.39,22.39,0,0,1,10.35,2.19,20.44,20.44,0,0,1,7,5.68,12.18,12.18,0,0,1,5.21-6.1q3.28-1.77,9.23-1.77a16.82,16.82,0,0,1,6.1.81l1.94.81s-.41.83-1.21,2.48A41.77,41.77,0,0,0,159.27,278.25Zm-45.75,53.14c2.89,0,5.56-1.3,8-3.92a38.1,38.1,0,0,0,6.59-10.12,105.6,105.6,0,0,0,5.06-13.17,119.16,119.16,0,0,0,3.29-12.91l1.44-7.55a20.33,20.33,0,0,0-3.52-5.06c-1.62-1.76-4-2.64-7.07-2.64q-5.46,0-10.85,5.14t-8.92,14.52q-3.53,9.4-3.52,22.4,0,6.75,2.48,10A8.31,8.31,0,0,0,113.52,331.39Z" transform="translate(0 -0.06)"/><path class="cls-3" d="M203.27,293.35l13.81,7.23q8.83,4.5,12.35,9.64A19.87,19.87,0,0,1,233,321.77a20.15,20.15,0,0,1-3.69,11.64q-3.69,5.38-11.17,8.67t-19.19,3.29q-10.26,0-16.68-3a22.71,22.71,0,0,1-9.46-7.39,15.15,15.15,0,0,1-3.06-8.59,8.49,8.49,0,0,1,3.2-7.14,11.68,11.68,0,0,1,7.38-2.5q4.19,0,5.94,1.12L188,319s-.14.4-.4,1.21a11.74,11.74,0,0,0-.39,3.45,14.44,14.44,0,0,0,3.2,9.71q3.21,3.78,10.11,3.94,6.92,0,10.21-3a9.43,9.43,0,0,0,3.29-7.09,9.16,9.16,0,0,0-1.77-5.37,16.72,16.72,0,0,0-6.11-4.73l-15.73-8.35a39.29,39.29,0,0,1-9.89-7.63c-2.73-2.94-4.08-7.09-4.08-12.46q0-9.78,8.5-16.68t25.54-6.92q9.94,0,16.46,3a23.37,23.37,0,0,1,9.62,7.39,14.94,14.94,0,0,1,3.15,8.59,8.57,8.57,0,0,1-3.21,7.06,11.52,11.52,0,0,1-7.4,2.56c-2.66,0-4.62-.37-5.85-1.12l-1.86-1.13.4-1.27a11.13,11.13,0,0,0,.42-3.37,14.27,14.27,0,0,0-3.46-9.63q-3.47-4-10.19-4t-9.87,3a9.24,9.24,0,0,0-3.3,7.12,8.62,8.62,0,0,0,1.92,5.8A19.92,19.92,0,0,0,203.27,293.35Z" transform="translate(0 -0.06)"/><path class="cls-3" d="M321.78,281l-8.67,50.92,2.65-1.12c1.76-.75,4-1.8,6.81-3.13s5.67-2.9,8.66-4.67a64,64,0,0,0,8-5.54,3.25,3.25,0,0,1,2.48,1,3,3,0,0,1,.56,2.73q-.49,2.08-5.29,5.79a106.82,106.82,0,0,1-11.48,7.31q-7,3.93-14,7.46l-.34,1.92q-4.65,27.93-15.89,42.94t-29.07,15c-5.45,0-9.82-1.58-13.08-4.73a16.16,16.16,0,0,1-4.9-12.13A26.19,26.19,0,0,1,252,371.22a43.73,43.73,0,0,1,9.7-11.39,102.24,102.24,0,0,1,12.86-9.25q6.75-4.09,16.54-8.9L294.48,321c-1.07,2-2.14,3.93-3.22,5.69s-2.19,3.45-3.36,5.06A37.37,37.37,0,0,1,277.38,342a22.89,22.89,0,0,1-12.12,3.37q-8,0-12.78-5.12t-4.72-13.5q0-4.5.39-9T249.67,307l4.67-26.65q1.29-7.56.73-10.69l-.56-3.12,1.91-.73a19.9,19.9,0,0,1,6.42-.73q9.32,0,11.31,3.71t.58,12.18l-6.43,37.11q-1.12,6.9.31,10.1a5.08,5.08,0,0,0,5,3.21c1.82,0,3.74-1,5.77-3a42.51,42.51,0,0,0,6.1-7.79,115.19,115.19,0,0,0,9.07-17.73,118.33,118.33,0,0,0,6.83-22.56q1.44-7.56.79-10.69l-.62-3.12,1.91-.73a19.94,19.94,0,0,1,6.42-.73q9.31,0,11.31,3.71T321.78,281ZM264.61,391q8.52,0,14.85-10t9.88-29.23q-15.73,8.19-22.65,14.77-9.45,9.17-9.46,17.19a7.45,7.45,0,0,0,1.84,5.12A7,7,0,0,0,264.61,391Z" transform="translate(0 -0.06)"/></g></g></svg>