<svg xmlns="http://www.w3.org/2000/svg" xmlns:xlink="http://www.w3.org/1999/xlink" viewBox="0 0 829.8 281.28"><defs><style>.cls-1{fill:none;}.cls-2{fill:#4ca456;}.cls-3{clip-path:url(#clip-path);}.cls-4{fill:#78ce7e;}.cls-5{clip-path:url(#clip-path-2);}.cls-6{fill:#9be09c;}.cls-7{fill:#88bc50;}</style><clipPath id="clip-path" transform="translate(0 -0.16)"><rect class="cls-1" x="357.81" width="471.98" height="281.59"/></clipPath><clipPath id="clip-path-2" transform="translate(0 -0.16)"><rect class="cls-1" x="250.7" y="23.93" width="280.05" height="209.24"/></clipPath></defs><title>finance</title><g id="Layer_2" data-name="Layer 2"><g id="Layer_1-2" data-name="Layer 1"><path class="cls-2" d="M569.27,163.85a23.15,23.15,0,0,1,4.39-5.72l-3.68-5,8.57-6.31,3.65,4.94a21,21,0,0,1,12.47-2.44q8.39,1.11,15.18,9.7L600.24,167q-4.25-4.38-7.86-4.7t-7.64,2.66c-2.69,2-4.35,4.06-5,6.26a6.36,6.36,0,0,0,.92,5.79,6.51,6.51,0,0,0,5.05,2.68c2.13.15,6.08-.86,11.82-3,6.1-2.26,10.85-3.4,14.28-3.45a19.76,19.76,0,0,1,9.7,2.43,27.31,27.31,0,0,1,8.59,7.94A23.5,23.5,0,0,1,635,200.3c-.46,4.67-2.93,9-7.25,13.17l3.59,4.86-8.56,6.32-3.65-4.94q-15.74,8-30.84-8.66l8.9-8.34q10.18,10.33,19.32,3.6c3-2.21,4.81-4.76,5.38-7.61a9.47,9.47,0,0,0-1.73-7.77,8.17,8.17,0,0,0-3.48-2.83,8.34,8.34,0,0,0-4.52-.32,95.17,95.17,0,0,0-11.26,3.51q-7.8,2.78-12.44,2.7a19.82,19.82,0,0,1-9.1-2.46,22.55,22.55,0,0,1-7.59-6.62,21.89,21.89,0,0,1-4.31-10.54A18.21,18.21,0,0,1,569.27,163.85Zm76.1,82.37c25.24-18.61,25.7-60.78,1-94.18S581.24,106.65,556,125.26s-25.7,60.77-1,94.18,65.15,45.4,90.4,26.78" transform="translate(0 -0.16)"/><g class="cls-3"><path class="cls-2" d="M819.37,203.77l-43-48.34c-14.4-16.07-28.57-32.34-43.17-48.23-29.17-31.79-57.88-64-87.44-95.46L634.83.16l-10.31,11.6c-19.48,22-39.6,43.47-60.76,64-10.32,10.57-21.34,20.4-32,30.6-11.07,9.79-22,19.82-33.19,29.49Q465,165,429.76,192.46c-23.51,18.22-47.29,36.18-71.89,53.21a836.59,836.59,0,0,0,78.45-43.85C461.84,186,486.57,168.94,510.69,151c24.31-17.73,47.46-37,70.12-56.94,12-10.31,23.45-21.24,34.67-32.4a22.37,22.37,0,0,0,38.15,2.08c18.88,21.35,37.88,42.6,56.76,63.94,14.28,16.18,29,32,43.47,47.94l16.49,18.11a22.07,22.07,0,0,0-4.63,28.63c-1.52.73-3,1.52-4.54,2.2-6.78,3.45-14.11,5.94-21.16,8.94-7.23,2.61-14.58,5-21.9,7.51-29.5,9.53-60.44,15.24-91.6,19.11-31.18,4.53-62.87,5.14-94.65,5.92l-47.77-.9c-15.91-1.11-31.88-2-47.93-2.79q23.49,4.95,47.23,9.48c15.9,2.29,31.85,4.61,47.89,6.33,32.12,2.82,64.55,4.39,97.06,2.39s65.06-6.06,97-14.47c7.93-2.34,15.87-4.68,23.75-7.22,7.77-3,15.72-5.4,23.34-8.92,7.75-3.16,15.33-6.88,22.86-10.77,3.73-2.15,7.47-4.1,11.18-6.45A117.67,117.67,0,0,0,818,224.8l11.82-9.33-10.43-11.7" transform="translate(0 -0.16)"/></g><path class="cls-4" d="M447,154.83a681.81,681.81,0,0,0,72-54.57c22.94-19.94,44.41-40.52,64.74-64.8l-24.9-18.13c-15.91,22.76-35.47,45.35-55.69,66.14A662.87,662.87,0,0,1,438,142.4a637.78,637.78,0,0,1-72.57,50.32c-25.15,15.58-51.93,28.32-79.08,40.44,28-9.71,56.07-20.19,82.75-33.68a645.92,645.92,0,0,0,78-44.65" transform="translate(0 -0.16)"/><g class="cls-5"><path class="cls-6" d="M326.23,196c24.68-13.45,49.15-27.49,72.73-43.08a794.83,794.83,0,0,0,68.73-50.14c10.95-9.14,21.8-18.46,32.15-28.48,10.54-10.12,20.27-19.88,30.24-32.48L504.64,24.45c-2.95,4.71-7.34,10.46-11.32,15.64-4.2,5.25-8.45,10.51-13,15.61C471.46,66,461.91,75.89,452.21,85.63A775.07,775.07,0,0,1,390,140.42c-21.68,17.38-44.48,33.42-67.67,49-11.6,7.77-23.57,15-35.37,22.52l-36.22,21.25,38.08-17.88c12.45-6.44,25.12-12.56,37.46-19.3" transform="translate(0 -0.16)"/></g><path class="cls-2" d="M0,104.22A45.49,45.49,0,0,1,4.37,83.81,33.08,33.08,0,0,1,17,69.94q8.22-5,19.76-5A45.84,45.84,0,0,1,49.2,66.67a28.89,28.89,0,0,1,11,5.84c.08.07.25.25.52.52l.87.87a4.79,4.79,0,0,0,.52.47,1.65,1.65,0,0,1,.43.46.4.4,0,0,1,.1.18s0,.1.13.18q.57,3.27.93,6.48c.23,2.13.51,4.32.82,6.57H62.37A75.25,75.25,0,0,0,56.14,78.1a31.16,31.16,0,0,0-8.46-8A21,21,0,0,0,36,66.91a15.74,15.74,0,0,0-9.15,2.69,23.29,23.29,0,0,0-6.59,7A41.94,41.94,0,0,0,16,86a64.39,64.39,0,0,0-2.39,10.09,60.61,60.61,0,0,0-.75,8.85,56.92,56.92,0,0,0,.75,8.75A56.11,56.11,0,0,0,16,123.17a37,37,0,0,0,4.32,8.68,21.68,21.68,0,0,0,6.53,6.35,16.63,16.63,0,0,0,9,2.4,21,21,0,0,0,9.91-2.27,26.4,26.4,0,0,0,7.59-6A46,46,0,0,0,59,124.1a82,82,0,0,0,4.19-8.92h2.09q-.47,4-.75,7.87c-.19,2.6-.48,5.19-.87,7.75l-.24.46c-.08.16-.18.33-.3.54a2.46,2.46,0,0,1-.39.51,27.23,27.23,0,0,1-12.25,8.29,45.22,45.22,0,0,1-14.69,2.55q-12,0-19.94-4.89A30.36,30.36,0,0,1,4,124.62,49,49,0,0,1,0,104.22Z" transform="translate(0 -0.16)"/><path class="cls-2" d="M93.38,142.81a22.69,22.69,0,0,1-9-1.75,15.31,15.31,0,0,1-6.59-5.3,14.76,14.76,0,0,1-2.5-8.7,17.06,17.06,0,0,1,10.38-16.49,25.14,25.14,0,0,1,10.49-2.16,28.32,28.32,0,0,1,4.14.3,15.49,15.49,0,0,1,3.91,1.11l1.16.46v-8.51c0-1.17,0-2.56-.12-4.2a12.46,12.46,0,0,0-.7-4,7.77,7.77,0,0,0-2-3.55,5.78,5.78,0,0,0-4.25-1.46,6.64,6.64,0,0,0-5.25,2,9.79,9.79,0,0,0-2.28,4.78,28.43,28.43,0,0,0-.52,5.25,3,3,0,0,1-2,2.8,9.88,9.88,0,0,1-4.13.93,9.44,9.44,0,0,1-3.91-.87,2.89,2.89,0,0,1-1.93-2.75,10.91,10.91,0,0,1,3.15-8.27,18,18,0,0,1,7.87-4.32,35.15,35.15,0,0,1,9.28-1.28q8.49,0,13.69,4t5.2,12.71v30.77a6.93,6.93,0,0,0,0,.77,3.43,3.43,0,0,0,.18.75,4.08,4.08,0,0,0,.75,1.34,2.08,2.08,0,0,0,1.7.64,4.16,4.16,0,0,0,2.44-.82l.93,1.18a10.69,10.69,0,0,1-4.48,3.21,16.15,16.15,0,0,1-5.66,1,8.75,8.75,0,0,1-4-.93,6.94,6.94,0,0,1-2.85-2.81l-.47-.94-.82.71a12.71,12.71,0,0,1-5.37,3.43A20.44,20.44,0,0,1,93.38,142.81ZM87.9,127.53a25.27,25.27,0,0,0,.7,5.71,11.19,11.19,0,0,0,2.62,5.14,7.34,7.34,0,0,0,5.66,2.09,9.88,9.88,0,0,0,7.1-3.37,5.58,5.58,0,0,0,1.41-3.73V111.91l-.59-.23a5.8,5.8,0,0,0-1.8-.47,15.87,15.87,0,0,0-1.93-.12,11.8,11.8,0,0,0-7.69,2.39,13.44,13.44,0,0,0-4.2,6.19A24.52,24.52,0,0,0,87.9,127.53Z" transform="translate(0 -0.16)"/><path class="cls-2" d="M133,92.67l17.6-5.59v9.08l1.52-2.67A11.44,11.44,0,0,1,158,88.42a20.92,20.92,0,0,1,7.87-1.57q7.73,0,12.07,3.85a21,21,0,0,1,6.23,10,44.65,44.65,0,0,1,1.88,13.12,41.28,41.28,0,0,1-2.34,14.28,20.9,20.9,0,0,1-7.39,10c-3.39,2.44-7.91,3.66-13.59,3.66a30.71,30.71,0,0,1-5.83-.58,9.19,9.19,0,0,1-4.9-2.46l-1.39-1.52v22.85c0,4.2,1.83,6.35,5.48,6.43v2H133v-2c3.72-.08,5.59-2.23,5.59-6.43V101.18c0-4-1.87-6.17-5.59-6.41Zm17.6,6.19v33.68a2.39,2.39,0,0,0,.23,1.06,2.08,2.08,0,0,1,.24.57,11,11,0,0,0,3.32,4,7.83,7.83,0,0,0,4.83,1.62,9,9,0,0,0,7-3.14,21.7,21.7,0,0,0,4.32-7.76,51.71,51.71,0,0,0,2.14-9.32,60.32,60.32,0,0,0,.65-7.87,57.52,57.52,0,0,0-.41-6.29,29.68,29.68,0,0,0-1.68-7,15.71,15.71,0,0,0-3.68-5.78A9.42,9.42,0,0,0,155.81,92a16.62,16.62,0,0,0-3.89,4.12l-.24.36c-.15.24-.31.47-.46.7a5.9,5.9,0,0,1-.36.82q-.12.1-.12.18v0A1.44,1.44,0,0,0,150.63,98.86Z" transform="translate(0 -0.16)"/><path class="cls-2" d="M198.2,93.84l17.6-5.6v45.23q0,6.18,5.48,6.3v2H198.2v-2c3.72-.08,5.59-2.18,5.59-6.3V102.36c0-4-1.87-6.19-5.59-6.43Zm1.62-19.7a8,8,0,0,1,7.93-7.93,7.83,7.83,0,0,1,5.66,2.34,7.53,7.53,0,0,1,2.39,5.59,7.87,7.87,0,0,1-2.44,5.71,7.73,7.73,0,0,1-5.61,2.44,7.46,7.46,0,0,1-5.59-2.44A8,8,0,0,1,199.82,74.14Z" transform="translate(0 -0.16)"/><path class="cls-2" d="M228.86,87.44a17.45,17.45,0,0,0,7.11-3,33.94,33.94,0,0,0,6.35-5.77,41,41,0,0,0,4.73-6.71V87.54h10.84v1.88H247.05v41.5a9.14,9.14,0,0,0,1.11,4.32,4.15,4.15,0,0,0,4,2.09,6.64,6.64,0,0,0,2.85-.64,12.71,12.71,0,0,0,2.39-1.47l1.06,1.29a18.27,18.27,0,0,1-5.48,4.67,14.67,14.67,0,0,1-7,1.63q-5.37,0-8.18-2.91T235,131.62V89.42h-6.18Z" transform="translate(0 -0.16)"/><path class="cls-2" d="M287.26,142.81a22.72,22.72,0,0,1-9-1.75,15.28,15.28,0,0,1-6.58-5.3,14.76,14.76,0,0,1-2.5-8.7,17,17,0,0,1,10.37-16.49,25.19,25.19,0,0,1,10.5-2.16,28.42,28.42,0,0,1,4.14.3,15.61,15.61,0,0,1,3.91,1.11l1.16.46v-8.51c0-1.17,0-2.56-.13-4.2a12.77,12.77,0,0,0-.69-4,7.87,7.87,0,0,0-2-3.55,5.78,5.78,0,0,0-4.25-1.46,6.65,6.65,0,0,0-5.25,2,9.88,9.88,0,0,0-2.28,4.78,28.43,28.43,0,0,0-.52,5.25,3,3,0,0,1-2.05,2.8,9.84,9.84,0,0,1-4.12.93,9.38,9.38,0,0,1-3.91-.87,2.88,2.88,0,0,1-1.93-2.75,10.9,10.9,0,0,1,3.14-8.27,18,18,0,0,1,7.87-4.32,35.15,35.15,0,0,1,9.28-1.28q8.5,0,13.7,4t5.19,12.71v30.77a6.93,6.93,0,0,0,0,.77,4.22,4.22,0,0,0,.93,2.09,2.08,2.08,0,0,0,1.7.64,4.12,4.12,0,0,0,2.44-.82l.93,1.18a10.69,10.69,0,0,1-4.48,3.21,16.15,16.15,0,0,1-5.66,1,8.74,8.74,0,0,1-4-.93,6.91,6.91,0,0,1-2.86-2.81l-.46-.94-.82.71a12.8,12.8,0,0,1-5.38,3.43A20.44,20.44,0,0,1,287.26,142.81Zm-5.48-15.28a25.85,25.85,0,0,0,.7,5.71,11.29,11.29,0,0,0,2.62,5.14,7.34,7.34,0,0,0,5.66,2.09,9.29,9.29,0,0,0,3.73-.87,9.41,9.41,0,0,0,3.38-2.5,5.63,5.63,0,0,0,1.41-3.73V111.91l-.59-.23a6,6,0,0,0-1.8-.47,16,16,0,0,0-1.93-.12,11.81,11.81,0,0,0-7.7,2.39,13.42,13.42,0,0,0-4.19,6.19A24.26,24.26,0,0,0,281.78,127.53Z" transform="translate(0 -0.16)"/><path class="cls-2" d="M326.91,66l17.61-5.48v73c0,4.12,1.82,6.22,5.48,6.3v2H326.91v-2q5.59-.12,5.59-6.3v-59q0-6.06-5.59-6.42Z" transform="translate(0 -0.16)"/><path class="cls-7" d="M0,259.94v-2a8.81,8.81,0,0,0,4.71-1.51c1.37-.93,2.06-2.52,2.06-4.79v-59q0-3.39-2.06-4.83A8.47,8.47,0,0,0,0,186.25v-1.86H54.68l4.66,22-1.86.12a31.22,31.22,0,0,1-1.41-3.5,29.41,29.41,0,0,0-1.39-3.39,29.1,29.1,0,0,0-6.61-9.6q-4-3.81-11-3.8H18.76v36L32.4,222a31.44,31.44,0,0,0,7.34-.81A10.25,10.25,0,0,0,45.22,218q2.1-2.39,2.34-6.92H49.3v22.26H47.45q-.24-4.67-3-6.59a12.78,12.78,0,0,0-6.82-2.16,13.64,13.64,0,0,0-2.57-.23H32.4l-13.64-.11v27.38c0,2.27.66,3.86,2,4.79A8.59,8.59,0,0,0,25.4,258v2Z" transform="translate(0 -0.16)"/><path class="cls-7" d="M67.74,184.16l17.6-5.48v73c0,4.12,1.82,6.22,5.48,6.3v2H67.74v-2q5.58-.12,5.58-6.3v-59q0-6.06-5.58-6.42Z" transform="translate(0 -0.16)"/><path class="cls-7" d="M127.07,261.1q-8.4,0-13.93-3.66a22.34,22.34,0,0,1-8.28-10.09,36.94,36.94,0,0,1-2.73-14.58,35.55,35.55,0,0,1,2.73-14.39,21.73,21.73,0,0,1,8.28-9.8q5.53-3.56,13.93-3.55,12.7,0,18.88,7.69t6.2,20.05a36.77,36.77,0,0,1-2.75,14.58,22.21,22.21,0,0,1-8.28,10.09Q135.59,261.1,127.07,261.1Zm-12.23-28.33q0,3,.34,7.53a49.72,49.72,0,0,0,1.52,8.91,18.68,18.68,0,0,0,3.66,7.41,9.14,9.14,0,0,0,13.47,0,19.8,19.8,0,0,0,3.66-7.41,47.35,47.35,0,0,0,1.59-8.91q.36-4.5.36-7.53c0-2.1-.1-4.6-.31-7.52a41.26,41.26,0,0,0-1.51-8.67A18.67,18.67,0,0,0,134,209.4a8.61,8.61,0,0,0-6.89-2.86,8.48,8.48,0,0,0-6.77,2.86,18.06,18.06,0,0,0-3.6,7.18,47.11,47.11,0,0,0-1.52,8.72C115,228.26,114.84,230.74,114.84,232.77Z" transform="translate(0 -0.16)"/><path class="cls-7" d="M160.54,207.6v-1.88H184v1.88a4.1,4.1,0,0,0-2,1.05,3.15,3.15,0,0,0-.88,2.45,5.21,5.21,0,0,0,.29,1.74,15,15,0,0,0,.64,1.5L197.6,246.4l9.34-20.86-5.36-11.07a19,19,0,0,0-3.11-4.43,7.54,7.54,0,0,0-4.94-2.44v-1.88H217v1.88a4.08,4.08,0,0,0-2.05,1.05,3.15,3.15,0,0,0-.88,2.45,5,5,0,0,0,.29,1.74,13,13,0,0,0,.66,1.5l15.38,31.73L241.1,217.5c.15-.54.31-1.09.47-1.62a6.59,6.59,0,0,0,.23-1.77,5.27,5.27,0,0,0-1.52-4.07,8.1,8.1,0,0,0-3.62-1.93,16.75,16.75,0,0,0-4-.51v-1.88h20.63v2a7.2,7.2,0,0,0-4,1.88,17.82,17.82,0,0,0-3.2,3.68,24.86,24.86,0,0,0-2,3.65l-17.24,41.87v-.13l-.7,1.29h-2.34l-16-32.53-14.69,32.53h-2.32l-22.28-45.47a18.9,18.9,0,0,0-3.08-4.43A7.63,7.63,0,0,0,160.54,207.6Z" transform="translate(0 -0.16)"/></g></g></svg>