<svg xmlns="http://www.w3.org/2000/svg" viewBox="0 0 760.56 231.33"><defs><style>.cls-1{fill:#ff3131;}.cls-2{fill:#88bc50;}</style></defs><title>fitness</title><g id="Layer_2" data-name="Layer 2"><g id="Layer_1-2" data-name="Layer 1"><path class="cls-1" d="M660.78,135.26a9.58,9.58,0,0,1-8.46-5.1C633.52,94.47,599.69,66.49,551.73,47,508.08,29.23,454.61,19.6,397.1,19.13c-62.33-.5-125.35,9.91-177.43,29.33-54.62,20.36-93.1,48.65-111.27,81.83a9.55,9.55,0,1,1-16.76-9.18C112,83.85,154,52.53,213,30.55,267.2,10.33,332.63-.5,397.25,0c59.91.49,115.81,10.6,161.68,29.26C583.8,39.4,605.61,52,623.71,66.69c19.47,15.8,34.78,34.16,45.52,54.56a9.54,9.54,0,0,1-4,12.9,9.4,9.4,0,0,1-4.45,1.11"/><path class="cls-1" d="M569.88,202.76a23.9,23.9,0,0,1,0-33.81L693.77,45.05a23.91,23.91,0,0,1,33.81,33.81L603.69,202.76a23.92,23.92,0,0,1-33.81,0"/><path class="cls-1" d="M639.55,210.18a23.91,23.91,0,0,1,0-33.82l66.05-66.05a23.91,23.91,0,0,1,33.81,33.81l-66,66.06a23.92,23.92,0,0,1-33.81,0"/><path class="cls-1" d="M702.48,224.33a23.93,23.93,0,0,1,0-33.82l17.27-17.26a23.91,23.91,0,0,1,33.81,33.81L736.3,224.33a23.93,23.93,0,0,1-33.82,0"/><path class="cls-1" d="M190.68,202.76a23.9,23.9,0,0,0,0-33.81L66.79,45.05A23.91,23.91,0,0,0,33,78.86l123.89,123.9a23.92,23.92,0,0,0,33.81,0"/><path class="cls-1" d="M121,210.18a23.91,23.91,0,0,0,0-33.82L55,110.31a23.91,23.91,0,0,0-33.81,33.81L87.2,210.18a23.92,23.92,0,0,0,33.81,0"/><path class="cls-1" d="M58.08,224.33a23.93,23.93,0,0,0,0-33.82L40.81,173.25A23.91,23.91,0,0,0,7,207.06l17.26,17.27a23.93,23.93,0,0,0,33.82,0"/><path class="cls-2" d="M369.31,91.86c.71,0,.85.32.4,1a39.88,39.88,0,0,0-3.06,5.35A14.9,14.9,0,0,0,365,104.6q-.13,4.75-.21,9.29t-.05,7.6v3.45h-3.13a63,63,0,0,0-1.83-8.53,65.09,65.09,0,0,0-3.26-9,31.05,31.05,0,0,0-4.8-7.74A15.55,15.55,0,0,0,345,95a14.71,14.71,0,0,0-5.64-1,15,15,0,0,0-6,1.17,5.85,5.85,0,0,0-3.52,4,24.2,24.2,0,0,0-.81,7.18l.12,36.08a31.85,31.85,0,0,1,7.75-9.7,17.63,17.63,0,0,1,7.86-3.92c2.44-.41,4.38-.08,5.83,1s2,2.79,1.76,5.13a73,73,0,0,0-.41,8.43q0,4.88.14,9.56t.34,7.72l.21,3h-1.76c-.28-2-.72-4.42-1.3-7.3a50.92,50.92,0,0,0-2.45-8.35,18.11,18.11,0,0,0-3.92-6.38,6,6,0,0,0-5.85-1.62q-3.45.73-8.2,6.16l.28,38.24,2,1c1.36.63,2.8,1.29,4.34,2s2.54,1.15,3,1.42a3,3,0,0,1,.05,1,8.3,8.3,0,0,0-.05,1H296.33v-2c.55-.27,1.64-.74,3.26-1.42s3.14-1.34,4.54-2l2.11-1V98.09l-2.11-.88q-2.1-.88-4.54-1.95c-1.62-.73-2.71-1.19-3.26-1.38V92h33.16q8.61,0,16.82,0t14.38-.07Z"/><path class="cls-2" d="M407.27,184.48l6.25,4.34v2q-9-.13-18.18-.14H376.9v-1.9l7.2-4.34V119.66l-6.25-4.08v-2h24.81a4.81,4.81,0,0,1,3.33,1.16,4.1,4.1,0,0,1,1.16,3.45v26.59q0,7,.05,14t.07,12.83v12.87Zm-1.35-96.83a10.4,10.4,0,0,1-10.44,10.44,10,10,0,0,1-7.27-3,10.12,10.12,0,0,1-3-7.4,9.85,9.85,0,0,1,3-7.32,10.48,10.48,0,0,1,14.66,0A9.86,9.86,0,0,1,405.92,87.65Z"/><path class="cls-2" d="M461.81,113.28v2.44H451.76q0,8,.07,18.32c0,6.86.07,14,.07,21.29v21.42c0,.63,0,1.65.07,3.06s.09,2.71.12,3.93.07,1.83.07,1.83l11.67-7.73,2.18,1.62q-6.24,4.75-10.66,8.08a15.68,15.68,0,0,1-9.68,3.32q-7.86,0-11.6-2.85a13.14,13.14,0,0,1-4.82-8.13,53.4,53.4,0,0,1-.83-12.54q.29-7.28.29-16.09V115.72h-5.28v-2.44h5.28V100.13l-6.23-4.06V94l3-.07c2,0,4.42-.07,7.18-.07H444c1.22,0,2.33.05,3.33.14q4.6,0,4.61,4.62a42,42,0,0,0-.14,4.94v9.7Z"/></g></g></svg>