<svg xmlns="http://www.w3.org/2000/svg" xmlns:xlink="http://www.w3.org/1999/xlink" viewBox="0 0 1268.31 397.77"><defs><style>.cls-1{fill:none;}.cls-2{clip-path:url(#clip-path);}.cls-3{fill:#80cc28;}.cls-4{fill:#f68712;}</style><clipPath id="clip-path" transform="translate(0 -0.11)"><rect class="cls-1" x="337.97" width="351.4" height="398"/></clipPath></defs><title>food-delivery</title><g id="Layer_2" data-name="Layer 2"><g id="Layer_1-2" data-name="Layer 1"><g class="cls-2"><path class="cls-3" d="M490.4.11A198.58,198.58,0,0,0,338.33,70.73a184.17,184.17,0,0,1,132.76-56.3c102,0,184.64,82.64,184.64,184.57S573.07,383.56,471.09,383.56a184.13,184.13,0,0,1-132.76-56.3A198.58,198.58,0,0,0,490.4,397.88c109.89,0,199-89,199-198.88S600.29.11,490.4.11" transform="translate(0 -0.11)"/></g><path class="cls-4" d="M301.18,244.48a15.51,15.51,0,1,0,0-31H205.86a15.51,15.51,0,1,0,0,31Zm-153.8-31H94.55a15.37,15.37,0,0,0-15,18.53l.06.31a15.36,15.36,0,0,0,15,12.18h52.76a15.51,15.51,0,1,0,0-31ZM568,156.33c-11.18,16-23.94,38.85-45.5,38.71-9.52-.07-18.66,3.54-23.57,11.69l-5.44,9-6.05-8.11,4.59-5.71c6-7.42,6.2-17.24,2.86-26.15-7.56-20.18,9.49-40,20.67-56,7.47-10.69,22.89-28,29.16-29.16L503,150.28a3.34,3.34,0,0,0,5.47,3.82L551,93.24a3.78,3.78,0,0,1,4.44-1.37l.07,0a3.77,3.77,0,0,1,1.75,5.68l-42.52,60.88a3.33,3.33,0,0,0,5.46,3.81l43.18-61.81a3.77,3.77,0,0,1,5.24-.94l0,0,0,0a3.78,3.78,0,0,1,.93,5.25L526.4,166.63a3.34,3.34,0,0,0,5.47,3.82l42.51-60.88a3.79,3.79,0,0,1,6-.31l0,0a3.77,3.77,0,0,1,.24,4.64l-42.5,60.86a3.33,3.33,0,1,0,5.47,3.81l41.69-59.7C586.4,125.19,575.41,145.64,568,156.33ZM548.58,320a12.83,12.83,0,0,1-18.17-4.55L483.88,231.6l-51.36,85.12a12.81,12.81,0,1,1-21-14.63L477.45,220l-9.35-16.86A24.74,24.74,0,0,0,445,190.61c-10.46.56-21.43-5.27-32-21.67-16.28-25.21-25.49-65.86-10.65-75.43s48.1,15.56,64.39,40.77c10.58,16.4,11.38,28.79,6.55,38.08a24.78,24.78,0,0,0,1.91,26.23l76.74,103A12.81,12.81,0,0,1,548.58,320ZM472,37.63A160.74,160.74,0,0,0,382,65h6.85a14.6,14.6,0,0,1,14.7,14A14.41,14.41,0,0,1,389.15,93.8H345.93a15.51,15.51,0,1,0,0,31H365a14.6,14.6,0,0,1,14.71,14,14.4,14.4,0,0,1-14.4,14.81H278.42a15.51,15.51,0,1,0,0,31h124.3a14.6,14.6,0,0,1,14.7,14A14.4,14.4,0,0,1,403,213.46H359.65a15.51,15.51,0,1,0,0,31h47.22a14.62,14.62,0,0,1,14.71,14,14.42,14.42,0,0,1-14.41,14.81h-115a15.52,15.52,0,1,0,0,31h94.91a14.61,14.61,0,0,1,14.71,14,14.41,14.41,0,0,1-14.4,14.82h-5.18A161.4,161.4,0,1,0,472,37.63ZM233.66,273.29H218.53a15.37,15.37,0,0,0-12.14,24.8l.23.3a15.45,15.45,0,0,0,12.14,5.93h14.9a15.52,15.52,0,1,0,0-31Zm-7.43-148.47h61.23a15.51,15.51,0,1,0,0-31H226.23a15.51,15.51,0,1,0,0,31ZM63.42,153.63h-48a15.35,15.35,0,0,0-15,12.19l-.06.31a15.37,15.37,0,0,0,15,18.52H63.42a15.51,15.51,0,1,0,0-31Zm58.47,31H220a15.51,15.51,0,1,0,0-31H121.89a15.51,15.51,0,1,0,0,31Zm33.68-59.83h12.18a15.51,15.51,0,1,0,0-31h-12a15.34,15.34,0,0,0-12.12,5.91l-.22.29a15.36,15.36,0,0,0,12.12,24.82" transform="translate(0 -0.11)"/><path class="cls-3" d="M840.94,168.5v2.19l-2.86-.08c-1.9,0-4.47-.07-7.69-.07H819.71q-8.84,0-15.11.07l-6.25.08v-2.31l9.94-4.09V112.73q0-19.07-.15-22.6c0-1.26-.43-1.94-1.29-2s-1.47.45-1.83,1.62q-.15.94-1.44,5.77t-3.27,12.13q-2,7.28-4.21,15.77t-4.43,16.81q-2.17,8.29-4.07,15.17t-3,11l-1.08,4.14h-2.17L742.44,83.88q-1-1.92-1.32-1.77t-.33,1.62l-.27,23.42q.27,14.8,1.35,25a130.8,130.8,0,0,0,2.67,16.48,40.15,40.15,0,0,0,3.6,9.91,17,17,0,0,0,4.42,5.38,17.36,17.36,0,0,0,4.83,2.58,47.74,47.74,0,0,1,4.9,1.92v2.31a29.65,29.65,0,0,0-4.08-.15H733.1c-1.3,0-2.12,0-2.43.07s-.44.08-.36.08h0v-2a14.39,14.39,0,0,0,3.27-5.71,52.52,52.52,0,0,0,2-10.08q.75-6.39,1.23-16.4t.88-24.42q.41-14.43,1.08-34.43a25,25,0,0,0-3-1.36q-2.06-.81-3.75-1.56a5.57,5.57,0,0,1-1.71-.9,2.63,2.63,0,0,1-.06-1.08l.06-.81,35.4-.15,22.85,53.75a8.79,8.79,0,0,0,2.31,1.5c.82.37,1.72-.09,2.71-1.35q6.81-25,9.79-39.4t3-14.5h34.57v1.92L831.56,78v86.27Z" transform="translate(0 -0.11)"/><path class="cls-3" d="M921.76,116.13a3.63,3.63,0,0,1-.35,1.35,1.87,1.87,0,0,1-1,1.09,26.78,26.78,0,0,0-4.58,2.12q-3.47,1.83-8.36,4.48t-10,5.37q-5.1,2.75-9.6,4.78a49.84,49.84,0,0,1-7.06,2.7q1.5,8.72,5.91,12.94a15.94,15.94,0,0,0,10,4.63,21.12,21.12,0,0,0,10.88-2.19,22.81,22.81,0,0,0,8.73-7.36l1.62.69q-2.85,9.68-8.58,15.31a28.73,28.73,0,0,1-12.86,7.57,30.29,30.29,0,0,1-14.35.33,32.44,32.44,0,0,1-13.4-6.46,36.06,36.06,0,0,1-10-12.87A42.89,42.89,0,0,1,855,131.9q0-11.3,3.54-19.17a34.09,34.09,0,0,1,9.13-12.54,32.58,32.58,0,0,1,12.92-6.92,38.11,38.11,0,0,1,14.08-1.16,36.11,36.11,0,0,1,13,3.87,28.5,28.5,0,0,1,9.81,8.23A22.49,22.49,0,0,1,921.76,116.13ZM905.7,102.65A5,5,0,0,0,905,97.9a7.07,7.07,0,0,0-4.35-2.52,12.45,12.45,0,0,0-6.06.27,11.64,11.64,0,0,0-5.63,3.6q-3.54,3.94-6.21,11.57t-2.64,19q0,1.23.06,2.46c.05.82.13,1.59.21,2.31q12.93-12.94,18.5-20.48T905.7,102.65Z" transform="translate(0 -0.11)"/><path class="cls-3" d="M1000.82,168.5v2l-6.27-.06q-6.25-.07-15.1-.08-3.94,0-7.63.08l-3.67.06v-7.62a21.13,21.13,0,0,1-9.6,7.5,18.84,18.84,0,0,1-10.75.85,14.94,14.94,0,0,1-8.71-5.5q-3.47-4.35-3.46-11.68,0-6.68,2.79-10.69a21.33,21.33,0,0,1,7.09-6.46,55.38,55.38,0,0,1,8.83-4.08q4.56-1.63,8.38-3.34a12.52,12.52,0,0,0,5.58-4.41q.12-10.35,0-15.86c-.08-3.67-.24-6.35-.46-8a10.07,10.07,0,0,0-1.17-3.89,4.28,4.28,0,0,0-3.18-2,8.14,8.14,0,0,0-4.9.6,7.7,7.7,0,0,0-3.9,4.23c-.9,2.08-1,5-.33,8.71s2.56,8.47,5.65,14.27a12.46,12.46,0,0,1-1.63,1.38q-3.68-.57-8-1.5t-7.89-2q-3.62-1-5.5-1.57a1.85,1.85,0,0,1-1-1.08,3.72,3.72,0,0,1-.34-1.37,22.56,22.56,0,0,1,4.29-12.38,26,26,0,0,1,9.25-7.6A35.1,35.1,0,0,1,961,93.67a41.2,41.2,0,0,1,12.19.42,28.85,28.85,0,0,1,10.2,3.81,13.66,13.66,0,0,1,5.86,6.64,25.83,25.83,0,0,1,1.81,8.46q.34,5,.35,11.84v16.45c0,3.73,0,7.33-.06,10.82s-.06,6.37-.06,8.64v3.4Zm-44.08-18.91c0,4.18.67,7.2,2,9.06a7,7,0,0,0,4.75,3.12,6.68,6.68,0,0,0,4.62-.89V158c0-2,0-4.4.07-7.35s.08-6,.08-9.17V127.27a48,48,0,0,1-4.92,5.73,26.2,26.2,0,0,0-4.68,6.52A22.08,22.08,0,0,0,956.74,149.59Z" transform="translate(0 -0.11)"/><path class="cls-3" d="M1048.29,168.65v1.89h-36.73v-1.89l7.21-4.36V70.67l-6.25-4.21V64.54l3-.06q3-.06,7.14-.06h14.63a5.53,5.53,0,0,1,3.48,1.29,4.1,4.1,0,0,1,1.17,3.46v95.12Z" transform="translate(0 -0.11)"/><path class="cls-4" d="M895.23,234.64v.75a4,4,0,0,1-.13,1.17,30.64,30.64,0,0,0-8.73,5.58,32.25,32.25,0,0,0-6.66,9.52,131.91,131.91,0,0,0-6.25,16q-3.29,9.87-7.42,24.9t-10.12,36.52q-.57,1.77-3.57,3.06a18,18,0,0,1-7,1.36,19.69,19.69,0,0,1-7.75-1.42,11.25,11.25,0,0,1-5.77-5.17l-13.6-34.16-.42-.67L816.37,291a10.2,10.2,0,0,0-3.39-1.71,4.11,4.11,0,0,0-3.75.6q-2.31,7.91-5,17.69t-6,21.5A5.55,5.55,0,0,1,796,331.6a10.54,10.54,0,0,1-5.58,1.69c-1.73-.08-3.23-.13-4.5-.13h-2.57c-2.9-.09-4.92-.73-6.06-1.89a22.29,22.29,0,0,1-3.21-4.36L740,240.64l-9.52-4.23v-1.89h41.35v1.89l-6.52,4.5s.47,1.33,1.42,4,2.25,6.12,3.87,10.48,3.43,9.2,5.38,14.54,4,10.79,6,16.34,4,10.72,5.77,15.58,3.36,9,4.64,12.44a5.54,5.54,0,0,0,2.44,2.93c1.09.59,2.3.2,3.61-1.16s2.6-4.26,3.87-8.71q2.46-8.83,4.63-17.21t4-15.85l-13.33-33.61-9.4-4.23v-1.89h41.38v1.89l-6.67,4.5,1.36,3.69q1.35,3.68,3.66,9.92c1.55,4.16,3.26,8.81,5.17,13.94s3.84,10.37,5.79,15.72,3.82,10.46,5.65,15.32,3.4,9.08,4.77,12.71a10.74,10.74,0,0,0,2.77,4.5,3.13,3.13,0,0,0,3.48.75q1.77-.75,2.73-4.44,2.58-10.61,4.21-21.36a160.8,160.8,0,0,0,1.83-20.48A81.7,81.7,0,0,0,863,253.85a29.19,29.19,0,0,0-5-12.25,12.65,12.65,0,0,0-9.65-5,4.11,4.11,0,0,1-.08-1.29c0-.42.08-.63.08-.63Z" transform="translate(0 -0.11)"/><path class="cls-4" d="M982.31,327.18l6.4,4.36v2L984,333.5q-4.69-.06-13.52-.07t-13.69.07l-4.81.08-.15-2,7.21-4.36v-8q0-5.16.06-11.48t0-12.93q-.06-6.6-.12-12.25c-.05-3.76-.12-6.92-.21-9.46a24.74,24.74,0,0,0-.4-4.63,5.59,5.59,0,0,0-3.56-3.33,12.31,12.31,0,0,0-6-.6,12.91,12.91,0,0,0-6,2.31,8.63,8.63,0,0,0-3.54,5.31v55.1l6.4,4.36v2l-4.63-.08q-4.62-.06-13.46-.07t-13.69.07l-4.83.08-.12-2,7.2-4.36V233.56l-6.27-4.21v-1.92l3-.06q3-.06,7.15-.06h14.62a5.51,5.51,0,0,1,3.48,1.29,4.06,4.06,0,0,1,1.15,3.46v35.25a19.06,19.06,0,0,1,7.08-6.52,31,31,0,0,1,10.07-3.54,29.5,29.5,0,0,1,10.6,0,20.41,20.41,0,0,1,9.06,3.93,14.26,14.26,0,0,1,5.11,8.44c.26,1.18.46,2.37.6,3.54s.25,2.87.33,5,.15,5.2.15,9.1v39.87Z" transform="translate(0 -0.11)"/><path class="cls-4" d="M1069.66,279a3.63,3.63,0,0,1-.35,1.35,1.87,1.87,0,0,1-1,1.09,26.78,26.78,0,0,0-4.58,2.12q-3.46,1.83-8.36,4.48t-10,5.37q-5.1,2.74-9.6,4.78a49.38,49.38,0,0,1-7.06,2.7q1.5,8.71,5.91,12.94a15.94,15.94,0,0,0,10,4.63,21.12,21.12,0,0,0,10.88-2.19,22.81,22.81,0,0,0,8.73-7.36l1.62.69q-2.85,9.67-8.58,15.31a28.67,28.67,0,0,1-12.86,7.57,30.29,30.29,0,0,1-14.35.33,32.44,32.44,0,0,1-13.4-6.46,36.06,36.06,0,0,1-10-12.87,42.92,42.92,0,0,1-3.81-18.71q0-11.3,3.54-19.17a34.09,34.09,0,0,1,9.13-12.54,32.58,32.58,0,0,1,12.92-6.92,38.11,38.11,0,0,1,14.08-1.16,36.11,36.11,0,0,1,13,3.87,28.5,28.5,0,0,1,9.81,8.23A22.49,22.49,0,0,1,1069.66,279Zm-16.06-13.48a5,5,0,0,0-.69-4.75,7,7,0,0,0-4.35-2.52,12.33,12.33,0,0,0-6.06.27,11.64,11.64,0,0,0-5.63,3.6q-3.54,3.94-6.21,11.57t-2.64,19q0,1.23.06,2.46c.05.82.13,1.59.21,2.31q12.93-12.94,18.5-20.48T1053.6,265.54Z" transform="translate(0 -0.11)"/><path class="cls-4" d="M1151.57,279a3.45,3.45,0,0,1-.35,1.35,1.87,1.87,0,0,1-1,1.09,27.14,27.14,0,0,0-4.58,2.12q-3.47,1.83-8.36,4.48t-10,5.37q-5.1,2.74-9.6,4.78a49.38,49.38,0,0,1-7.06,2.7q1.5,8.71,5.91,12.94a15.94,15.94,0,0,0,10,4.63,21.12,21.12,0,0,0,10.88-2.19,22.81,22.81,0,0,0,8.73-7.36l1.62.69q-2.85,9.67-8.58,15.31a28.67,28.67,0,0,1-12.86,7.57,30.29,30.29,0,0,1-14.35.33,32.44,32.44,0,0,1-13.4-6.46,36.06,36.06,0,0,1-10-12.87,42.92,42.92,0,0,1-3.81-18.71q0-11.3,3.54-19.17a34.2,34.2,0,0,1,9.13-12.54,32.58,32.58,0,0,1,12.92-6.92,38.11,38.11,0,0,1,14.08-1.16,36.11,36.11,0,0,1,13,3.87,28.5,28.5,0,0,1,9.81,8.23A22.49,22.49,0,0,1,1151.57,279Zm-16.06-13.48a5,5,0,0,0-.69-4.75,7,7,0,0,0-4.35-2.52,12.33,12.33,0,0,0-6.06.27,11.64,11.64,0,0,0-5.63,3.6q-3.54,3.94-6.21,11.57t-2.64,19q0,1.23.06,2.46c0,.82.13,1.59.21,2.31q12.93-12.94,18.5-20.48T1135.51,265.54Z" transform="translate(0 -0.11)"/><path class="cls-4" d="M1201.09,331.54v1.89h-36.73v-1.89l7.21-4.36V233.56l-6.25-4.21v-1.92l3-.06q3-.06,7.14-.06h14.63a5.53,5.53,0,0,1,3.48,1.29,4.06,4.06,0,0,1,1.16,3.46v95.12Z" transform="translate(0 -0.11)"/><path class="cls-4" d="M1240.16,276.56a67.89,67.89,0,0,0,7.66,8.1q4.71,4.27,9.4,8.9a54.59,54.59,0,0,1,7.83,9.54,19.52,19.52,0,0,1,3.25,10.21q.15,5.29-4.48,10.87a22,22,0,0,1-10.41,7,42.79,42.79,0,0,1-12.92,2,70.05,70.05,0,0,1-12.85-1.14,96,96,0,0,1-10.28-2.46,34.94,34.94,0,0,1-4.83-1.71c0-.08.29-.94.88-2.56s1.27-3.57,2-5.79,1.5-4.4,2.19-6.52,1.19-3.76,1.56-4.86h2.44a49.2,49.2,0,0,1,2.45,6.75,54.85,54.85,0,0,0,2.65,7.21,18.52,18.52,0,0,0,4.15,5.92,11.88,11.88,0,0,0,6.81,3,8.63,8.63,0,0,0,5.1-.67,5.09,5.09,0,0,0,2.79-3.94q.54-2.87-1.62-7.5a34.08,34.08,0,0,0-7.38-10.19c-3-2.81-6.07-5.54-9.25-8.16a52.21,52.21,0,0,1-8.41-8.86q-5.87-7.47-6.48-13.6a15.14,15.14,0,0,1,2.66-10.69,23.58,23.58,0,0,1,9.19-7.41,40.57,40.57,0,0,1,13.4-3.67,52.56,52.56,0,0,1,15.23.62,45,45,0,0,1,14.56,5.36c0,.1-.32,1-1,2.66s-1.39,3.67-2.31,6-1.77,4.52-2.58,6.61-1.35,3.62-1.63,4.62h-2.17q-.81-2.31-2-6.46t-2.85-8.37a14.44,14.44,0,0,0-5-6.88,10.58,10.58,0,0,0-6.4-2.16,6.94,6.94,0,0,0-5.16,2.16c-1.33,1.41-1.78,3.47-1.38,6.19S1237.16,272.66,1240.16,276.56Z" transform="translate(0 -0.11)"/></g></g></svg>