<svg xmlns="http://www.w3.org/2000/svg" xmlns:xlink="http://www.w3.org/1999/xlink" viewBox="0 0 871.2 494.36"><defs><style>.cls-1{fill:none;}.cls-2{clip-path:url(#clip-path);}.cls-3{fill:#fdc919;}.cls-4{clip-path:url(#clip-path-2);}.cls-5{clip-path:url(#clip-path-3);}.cls-6{fill:#0068a5;}</style><clipPath id="clip-path" transform="translate(0 0)"><rect class="cls-1" x="776.56" y="411.74" width="82.67" height="82.61"/></clipPath><clipPath id="clip-path-2" transform="translate(0 0)"><rect class="cls-1" x="544.97" y="411.74" width="82.99" height="82.61"/></clipPath><clipPath id="clip-path-3" transform="translate(0 0)"><rect class="cls-1" x="113.37" width="757.83" height="391.89"/></clipPath></defs><title>grocery</title><g id="Layer_2" data-name="Layer 2"><g id="Layer_1-2" data-name="Layer 1"><g class="cls-2"><path class="cls-3" d="M818,411.92a41.22,41.22,0,1,1-41.22,41.22A41.23,41.23,0,0,1,818,411.92" transform="translate(0 0)"/></g><g class="cls-4"><path class="cls-3" d="M586.47,411.92a41.22,41.22,0,1,1-41.23,41.22,41.23,41.23,0,0,1,41.23-41.22" transform="translate(0 0)"/></g><g class="cls-5"><path class="cls-6" d="M480.5,81.09a43.87,43.87,0,0,1,7.39-.63H776a43.89,43.89,0,1,1,0,87.77H561.94A413.08,413.08,0,0,1,622,304.2a45.39,45.39,0,0,1,6.21-.43H827.31a43.89,43.89,0,1,1,0,87.77H543.39C531.27,238.22,437.81,100.68,290.76,45.21A381.09,381.09,0,0,0,113.37,23C197.92-7,291.5-8.82,380,24.57A380.46,380.46,0,0,1,480.5,81.09" transform="translate(0 0)"/></g><path class="cls-6" d="M85.31,150.06,95,175.38l-2.31.81A46.68,46.68,0,0,0,83,164.71a41.71,41.71,0,0,0-11.44-6.87,50.75,50.75,0,0,0-13.06-3.28,124.25,124.25,0,0,0-14.42-.81q-3.54,0-5.58.15a9.27,9.27,0,0,0-3.12.6,2.53,2.53,0,0,0-1.44,1.5,8.45,8.45,0,0,0-.34,2.65v38.23h8.59a58.71,58.71,0,0,0,13.33-1.29,25.44,25.44,0,0,0,9-3.88,16.64,16.64,0,0,0,5.44-6.4,27.15,27.15,0,0,0,2.4-9h3.25v43.54H72.4a26,26,0,0,0-2.52-8,17,17,0,0,0-5.44-6.07,27.52,27.52,0,0,0-9.34-3.87,62.08,62.08,0,0,0-14.29-1.38H33.6v33.07a30,30,0,0,0,.55,6.48,5.8,5.8,0,0,0,2.18,3.54A9.57,9.57,0,0,0,41,245q3.06.28,8.11.42v3.67H0v-3.67c2.9-.09,5.26-.23,7.06-.42a8.17,8.17,0,0,0,4.23-1.41,6,6,0,0,0,2-3.48,30.28,30.28,0,0,0,.55-6.54v-68a30.3,30.3,0,0,0-.55-6.53,5.83,5.83,0,0,0-2-3.47,8.08,8.08,0,0,0-4.23-1.44c-1.8-.18-4.16-.31-7.06-.4v-3.69Z" transform="translate(0 0)"/><path class="cls-6" d="M137.3,204.5h.27c1.17-1.72,2.49-3.62,3.93-5.71a42.93,42.93,0,0,1,4.84-5.79,26.33,26.33,0,0,1,5.83-4.41,14.6,14.6,0,0,1,7.17-1.78,11.61,11.61,0,0,1,7.41,2.67,8.52,8.52,0,0,1,3.34,7,9.09,9.09,0,0,1-2,6,7.39,7.39,0,0,1-6,2.44,10.48,10.48,0,0,1-4.15-.73c-1.13-.5-2.19-1-3.19-1.56s-2-1.09-3.06-1.59a8.59,8.59,0,0,0-3.75-.75,5.92,5.92,0,0,0-3.75,1.5,20.11,20.11,0,0,0-3.4,3.63,22,22,0,0,0-2.52,4.29,9.4,9.4,0,0,0-.93,3.37v28.17a6.38,6.38,0,0,0,.39,2.52,2.84,2.84,0,0,0,1.5,1.36,9.34,9.34,0,0,0,3.06.62c1.32.08,3,.13,5.11.13v3.27H112.13v-3.27c2,0,3.63-.05,5-.13a9.4,9.4,0,0,0,3.06-.62,2.76,2.76,0,0,0,1.48-1.36,6.14,6.14,0,0,0,.42-2.52V203a3.58,3.58,0,0,0-1-2.64,7.56,7.56,0,0,0-2.52-1.63,13.64,13.64,0,0,0-3.12-.89c-1.08-.18-2.08-.36-3-.55l-.15-3.27A118.89,118.89,0,0,0,125,191.11q5.79-1.71,12.19-4.3h.15Z" transform="translate(0 0)"/><path class="cls-6" d="M224.5,208.31c1.28,0,2.09-.25,2.46-.75a4.42,4.42,0,0,0,.54-2.52,16,16,0,0,0-1-5.7,15.18,15.18,0,0,0-2.85-4.78,14.18,14.18,0,0,0-4.36-3.25,12.54,12.54,0,0,0-5.52-1.22q-7.33,0-10.94,5.22a25.78,25.78,0,0,0-4.16,13ZM183.15,220a35.69,35.69,0,0,1,2.37-13.12,32.35,32.35,0,0,1,6.67-10.54,30.2,30.2,0,0,1,10.14-7,32,32,0,0,1,12.8-2.53,29,29,0,0,1,10.6,2,26.67,26.67,0,0,1,8.77,5.5,27.54,27.54,0,0,1,6,8.32,24.08,24.08,0,0,1,2.25,10.45H198.38v1.5a28.37,28.37,0,0,0,1.43,9,24.14,24.14,0,0,0,4.21,7.77,20.94,20.94,0,0,0,6.81,5.44,19.89,19.89,0,0,0,9.19,2,22.82,22.82,0,0,0,12.11-3,32.81,32.81,0,0,0,9-8.43l1.92,2q-4.35,10.74-11.71,16.19T213.21,251a35.66,35.66,0,0,1-12.92-2.16,25.46,25.46,0,0,1-9.39-6.25,27.08,27.08,0,0,1-5.8-9.8A39.51,39.51,0,0,1,183.15,220Z" transform="translate(0 0)"/><path class="cls-6" d="M263.43,204.9a14.23,14.23,0,0,1,2.31-8.09,18.9,18.9,0,0,1,5.83-5.64,27.51,27.51,0,0,1,7.84-3.27,33.71,33.71,0,0,1,8.23-1.09,40,40,0,0,1,10.48,1.44,114.28,114.28,0,0,1,11,3.59v18l-3.27.28a62,62,0,0,0-2.8-6.67,30.28,30.28,0,0,0-4.14-6.46,21.94,21.94,0,0,0-5.77-4.9,14.89,14.89,0,0,0-7.69-2,9.46,9.46,0,0,0-6.54,2.58,8.25,8.25,0,0,0-2.86,6.39q0,2.33,2.53,4.42a41.12,41.12,0,0,0,6.45,4.29q2.86,1.64,5.38,2.79t4.75,2.32q2.25,1.14,4.42,2.37c1.45.83,2.95,1.77,4.5,2.86a18.84,18.84,0,0,1,5.52,5.73,14.65,14.65,0,0,1,2.1,7.87,19,19,0,0,1-2,9.19,16.2,16.2,0,0,1-5.58,6,23.69,23.69,0,0,1-8.15,3.18,47.48,47.48,0,0,1-9.67,1,39,39,0,0,1-5.25-.41c-1.94-.27-3.87-.63-5.77-1.09s-3.76-1-5.58-1.54-3.37-1.17-4.63-1.71l-1.23-20.54,3.28-.54q2.31,10.34,7.81,16.46a18.45,18.45,0,0,0,14.37,6.12c3.17,0,5.45-1,6.86-3.12a11.78,11.78,0,0,0,2.12-6.69,7.37,7.37,0,0,0-2.6-5.62,30.19,30.19,0,0,0-6.46-4.44q-3.87-2-8.38-4.09a63.84,63.84,0,0,1-8.35-4.54,24.7,24.7,0,0,1-6.46-6A13.66,13.66,0,0,1,263.43,204.9Z" transform="translate(0 0)"/><path class="cls-6" d="M352.13,198a54.56,54.56,0,0,1,11.15-8,25.21,25.21,0,0,1,12-3.13,26.43,26.43,0,0,1,10,1.71,18.71,18.71,0,0,1,6.81,4.54,17.77,17.77,0,0,1,3.88,6.82,28.4,28.4,0,0,1,1.23,8.43v32.92q0,3.27,1.56,3.9a20.47,20.47,0,0,0,5.79.73v3.27H373.22v-3.27q5.19,0,6.93-.75c1.18-.5,1.78-1.8,1.78-3.88V206.54a12.4,12.4,0,0,0-.82-4.35,11.56,11.56,0,0,0-2.46-3.94,13.61,13.61,0,0,0-4-2.94,12.1,12.1,0,0,0-5.37-1.16,20.75,20.75,0,0,0-8.58,1.77,33.7,33.7,0,0,0-8.57,6v39.31c0,2.08.55,3.38,1.63,3.88s3.23.75,6.39.75v3.27H328.2v-3.27q5.16,0,6.93-.75c1.18-.5,1.77-1.8,1.77-3.88V165a5.25,5.25,0,0,0-1.1-3.66,7,7,0,0,0-2.52-1.84,9.41,9.41,0,0,0-2.85-.75,10.39,10.39,0,0,1-2.23-.41v-3.27a60.07,60.07,0,0,0,11.95-2.59q5.87-1.89,12-3.66Z" transform="translate(0 0)"/><path class="cls-3" d="M144.42,350.07a53,53,0,0,1,5.11-23.81,38.49,38.49,0,0,1,14.68-16.19q9.6-5.85,23.07-5.86a53.27,53.27,0,0,1,14.56,2.05,33.5,33.5,0,0,1,12.79,6.81c.09.08.3.28.6.6l1,1a5.5,5.5,0,0,0,.61.55,1.9,1.9,0,0,1,.5.54c.08.1.12.16.12.21s.05.11.15.2q.66,3.82,1.08,7.57t1,7.66h-2.46a89.3,89.3,0,0,0-7.27-11.83,36.63,36.63,0,0,0-9.87-9.38,24.63,24.63,0,0,0-13.61-3.68,18.39,18.39,0,0,0-10.68,3.14,27.14,27.14,0,0,0-7.69,8.17,48.74,48.74,0,0,0-5,10.94,76,76,0,0,0-2.8,11.77,71.28,71.28,0,0,0-.87,10.33,67,67,0,0,0,3.67,21.31,43,43,0,0,0,5,10.13,25.38,25.38,0,0,0,7.62,7.42,19.47,19.47,0,0,0,10.48,2.79,24.34,24.34,0,0,0,11.56-2.65,30.8,30.8,0,0,0,8.86-7,53.33,53.33,0,0,0,6.67-9.58,94.5,94.5,0,0,0,4.89-10.42h2.44c-.37,3.08-.66,6.15-.88,9.19s-.56,6.05-1,9l-.27.54-.35.63a3,3,0,0,1-.46.6,31.65,31.65,0,0,1-14.29,9.67,52.94,52.94,0,0,1-17.15,3q-14,0-23.27-5.71a35.31,35.31,0,0,1-13.87-15.92Q144.42,363.68,144.42,350.07Z" transform="translate(0 0)"/><path class="cls-3" d="M253.4,395.11a26.37,26.37,0,0,1-10.48-2,17.9,17.9,0,0,1-7.69-6.19,17.28,17.28,0,0,1-2.91-10.14,19.89,19.89,0,0,1,12.1-19.25A29.41,29.41,0,0,1,256.67,355a32.35,32.35,0,0,1,4.84.36,17.22,17.22,0,0,1,4.56,1.29l1.35.54v-9.94c0-1.36-.05-3-.14-4.89a15,15,0,0,0-.82-4.63,9.06,9.06,0,0,0-2.37-4.14,6.71,6.71,0,0,0-5-1.71c-2.72,0-4.77.77-6.12,2.31a11.5,11.5,0,0,0-2.67,5.59,32.85,32.85,0,0,0-.61,6.12,3.51,3.51,0,0,1-2.39,3.27,11.52,11.52,0,0,1-4.81,1.08,10.81,10.81,0,0,1-4.57-1,3.35,3.35,0,0,1-2.25-3.2q0-6.14,3.67-9.65a21,21,0,0,1,9.19-5,41.13,41.13,0,0,1,10.83-1.5q9.92,0,16,4.62t6.06,14.84v35.91a5.81,5.81,0,0,0,.07.9,4,4,0,0,0,.2.87,4.84,4.84,0,0,0,.88,1.57,2.43,2.43,0,0,0,2,.75,4.84,4.84,0,0,0,2.85-1l1.09,1.37a12.49,12.49,0,0,1-5.23,3.75,18.86,18.86,0,0,1-6.61,1.15,10.28,10.28,0,0,1-4.69-1.08,8.15,8.15,0,0,1-3.33-3.28l-.54-1.1-1,.83a14.87,14.87,0,0,1-6.27,4A23.58,23.58,0,0,1,253.4,395.11ZM247,377.28a29.92,29.92,0,0,0,.81,6.66,13.1,13.1,0,0,0,3.06,6q2.25,2.44,6.6,2.44a11.58,11.58,0,0,0,8.3-3.94,6.51,6.51,0,0,0,1.64-4.35v-25l-.69-.27a6.75,6.75,0,0,0-2.1-.54,17.47,17.47,0,0,0-2.25-.15,13.75,13.75,0,0,0-9,2.79,15.66,15.66,0,0,0-4.89,7.23A28.34,28.34,0,0,0,247,377.28Z" transform="translate(0 0)"/><path class="cls-3" d="M300.34,338l20.56-6.54v9.67l1.75-3a16.63,16.63,0,0,1,6.88-6.31,20.69,20.69,0,0,1,9.33-2.13,20.1,20.1,0,0,1,7.54,1.44,11.17,11.17,0,0,1,5.65,5,10.26,10.26,0,0,1,1.08,2.33,7.41,7.41,0,0,1,.42,2.44,5.21,5.21,0,0,1-2.1,4.35,7.69,7.69,0,0,1-4.84,1.63,6.87,6.87,0,0,1-2.52-.4,6.59,6.59,0,0,1-1.71-1,11,11,0,0,1-1.48-1.5c-.18-.26-.41-.55-.68-.87a7.77,7.77,0,0,1-.69-.9,27.49,27.49,0,0,0-3.19-3.66q-1.83-1.77-5.64-1.77a8.47,8.47,0,0,0-7.21,3.47,12.52,12.52,0,0,0-2.59,7.69v36.31q0,7.21,6.4,7.36v2.31h-27v-2.31q6.54-.15,6.54-7.36V347.9q0-7.08-6.54-7.5Z" transform="translate(0 0)"/><path class="cls-3" d="M362,330.49a20.09,20.09,0,0,0,8.29-3.55,39.65,39.65,0,0,0,7.42-6.73,47.56,47.56,0,0,0,5.52-7.83v18.23h12.65v2.19H383.22v48.44a10.73,10.73,0,0,0,1.29,5q1.29,2.43,4.69,2.43a7.59,7.59,0,0,0,3.33-.75,15.24,15.24,0,0,0,2.79-1.7l1.23,1.5a21,21,0,0,1-6.39,5.45,17.13,17.13,0,0,1-8.17,1.9q-6.27,0-9.54-3.4c-2.17-2.27-3.25-5.5-3.25-9.66V332.8H362Z" transform="translate(0 0)"/></g></g></svg>