<svg xmlns="http://www.w3.org/2000/svg" viewBox="0 0 872.3 408.74"><defs><style>.cls-1{fill:#0091c5;}.cls-2{fill:#00aee7;}.cls-3{fill:#7dcbe4;}.cls-4{fill:#56ac45;}.cls-5{fill:#88bc50;}.cls-6{fill:#009ee0;}</style></defs><title>medical</title><g id="Layer_2" data-name="Layer 2"><g id="Layer_1-2" data-name="Layer 1"><path class="cls-1" d="M22.86,110.55C7.19,233.66,88.44,348.24,241,366.06,60.29,412-50.35,235,22.86,110.55Z"/><path class="cls-2" d="M96.47,266.81c-54.94-92-25.46-211,66-266.81a153.54,153.54,0,0,0-66,266.81Z"/><path class="cls-3" d="M94.22,173.74a181.43,181.43,0,0,1,217-153.32,146.71,146.71,0,0,0-217,153.32Z"/><path class="cls-4" d="M372.37,68.29q23.88,161.44-119.19,42.85C413.41,246.8,300.42,430.67,121,389.16a208.59,208.59,0,0,0,88.44,19.58c115.59,0,209.23-93.65,209.23-209.06A208,208,0,0,0,372.37,68.29ZM174,161.52H213.4v30.55H244v39.42H213.4V262H174V231.49H143.38V192.07H174Zm154-45.36a31.07,31.07,0,1,1,11.39-42.43A31.07,31.07,0,0,1,328,116.16Z"/><path class="cls-5" d="M495.79,78.72v85.11l12.86,4.81v2.42H478.12v-2.42L491,163.83V63.47l-9.65-2.39V58.66h20.09q8.32,0,13.23,3.46a28.07,28.07,0,0,1,8.43,10.19l35,66.95L584.9,72.31q2.72-7.07,7.37-10.36t14.31-3.29h16.86v2.42l-9.63,2.39V166.24l9.63,2.4v2.42H577.69v-2.42l9.62-2.4V78.72l-37.73,93.94h-4.81Z"/><path class="cls-5" d="M681.24,173.47q-20.55,0-32-11.31t-11.4-31.25q0-13,5-22.63a35.27,35.27,0,0,1,13.9-14.77,40.27,40.27,0,0,1,20.46-5.14,45.34,45.34,0,0,1,20.31,4.33A33.12,33.12,0,0,1,711,104.35a29,29,0,0,1,4.75,16.12,26.84,26.84,0,0,1-.79,6.92l-.82,2.73q-6.9,1.44-14.93,2.39a238.38,238.38,0,0,1-34.05,2.42q0,18.63,5.15,26.58t14.13,7.94a23.68,23.68,0,0,0,11.64-3,23.2,23.2,0,0,0,8.5-7.87,18.41,18.41,0,0,0,3.15-10h4a21.63,21.63,0,0,1-3.86,12.2A27.23,27.23,0,0,1,697.13,170,34.93,34.93,0,0,1,681.24,173.47Zm-16.07-42.56a141.49,141.49,0,0,0,16.71-.79,39.35,39.35,0,0,0,5.77-.81c.11-.53.38-1.7.82-3.53a43,43,0,0,0,.81-8.52q0-13.32-3.54-19.5t-8.52-6.18Q665.16,91.58,665.17,130.91Z"/><path class="cls-5" d="M760.71,173.47a29.86,29.86,0,0,1-16.85-4.89q-7.4-4.92-11.73-14.46t-4.33-23.21q0-20.53,9.54-31.54t25.79-11a27.29,27.29,0,0,1,13.48,3.21,24.56,24.56,0,0,1,5,3.2V63.47L772,61.08V58.66h20.88q14.43,0,14.44,14.46v93.12l9.64,2.4v2.42H802.46q-9.62,0-14.93-5.94A16.79,16.79,0,0,1,784,159a28.63,28.63,0,0,1-5.32,7.23A24.36,24.36,0,0,1,760.71,173.47Zm6.42-5.62q6,0,10.77-6.42a40.47,40.47,0,0,0,3.69-6.44V99.6a36.86,36.86,0,0,0-3.69-3.21,14.18,14.18,0,0,0-8.35-3.21q-6.9,0-10.69,8t-3.77,29.69q0,20.72,3.46,28.83T767.13,167.85Z"/><path class="cls-5" d="M827.35,168.64l9.64-2.4V95.6l-9.64-2.42V90.76h20.87q14.46,0,14.46,14.46v61l9.62,2.4v2.42H827.35Zm20.87-87.5a11.36,11.36,0,0,1-8-19.27,11.36,11.36,0,0,1,16.06,16.06A10.91,10.91,0,0,1,848.22,81.14Z"/><path class="cls-6" d="M481.33,347.66l9.65-2.39V242.5l-9.65-2.4v-2.41H527.1v2.41l-9.64,2.4V346.06H552a36.14,36.14,0,0,1,5.14-18.77,22.27,22.27,0,0,1,5.3-6.1h4.83v28.89H481.33Z"/><path class="cls-6" d="M577.67,347.66l9.65-2.39V274.62l-9.65-2.41v-2.42h20.88q14.44,0,14.45,14.46v61l9.63,2.39v2.42h-45Zm20.88-87.5a11.24,11.24,0,1,1,8-19.27,11.24,11.24,0,0,1-8,19.27Z"/><path class="cls-6" d="M632.26,347.66l9.65-2.39V274.62l-9.65-2.41v-2.42h14.46q9.48,0,14.94,6.1a21.74,21.74,0,0,1,3.52,6,30.45,30.45,0,0,1,5.31-7.23,24.36,24.36,0,0,1,18-7.23,34.09,34.09,0,0,1,16.13,3.77A29.62,29.62,0,0,1,715.76,281a23,23,0,0,1,4,12.85v51.38l9.63,2.39v2.42H708.53q-14.46,0-14.45-14.46V293.89q0-10.12-3.61-15.5T682,273q-6.07,0-10.91,6.42a25.79,25.79,0,0,0-3.52,6.41v59.42l9.62,2.39v2.42h-45Z"/><path class="cls-6" d="M739,347.66l9.64-2.39V242.5L739,240.1v-2.41h20.87q14.46,0,14.46,14.45v56.19L804.08,277l-12-4.81v-2.42h30.5v2.42L809.68,277l-18.46,19.27,31.32,49,8,2.39v2.42H809.68q-7.71,0-12.52-3.37A35.06,35.06,0,0,1,788,336.44l-13.65-21.69v30.52l9.63,2.39v2.42H739Z"/></g></g></svg>