<svg xmlns="http://www.w3.org/2000/svg" xmlns:xlink="http://www.w3.org/1999/xlink" viewBox="0 0 1041.08 332.43"><defs><style>.cls-1{fill:none;}.cls-2{fill:#0073c1;}.cls-3{clip-path:url(#clip-path);}.cls-4{fill:#707173;}.cls-5{clip-path:url(#clip-path-2);}.cls-6{fill:#009ee0;}</style><clipPath id="clip-path" transform="translate(-0.53)"><rect class="cls-1" x="229.76" width="216.43" height="118.09"/></clipPath><clipPath id="clip-path-2" transform="translate(-0.53)"><rect class="cls-1" y="193.99" width="607.23" height="138.34"/></clipPath></defs><title>real estate</title><g id="Layer_2" data-name="Layer 2"><g id="Layer_1-2" data-name="Layer 1"><path class="cls-2" d="M261.44,96.76l-63.69,27.36V83.3L172.19,93.62V135.1l-32.73,14.07q-39.48,54-78.94,108c41.2-30.86,84.26-51,128.27-62.26l70-83.32,74,78.84,16.58.45Q305.41,143.79,261.44,96.76Zm-80.28,95.41-11.95,4.18,69.07-83.56,12.95-6.26Z" transform="translate(-0.53)"/><g class="cls-3"><path class="cls-2" d="M362.35,0V39.21L303.6,18.81l-73.1,86.46,19.73-9,53.82-60.92,64.13,82.42,77.14-28.66L430.08,62.71,387.92,48.08V11.65Z" transform="translate(-0.53)"/></g><path class="cls-2" d="M349.35,179.18l80.72-66.74,9.42-2.24-82.93,71.53,17.55.22,90.05-74.44,78.93,84.66,18.39.45L469.09,90.94,318.85,147.82Z" transform="translate(-0.53)"/><path class="cls-4" d="M266,137v18.26H277.6V151A14.37,14.37,0,0,0,266,137ZM248.9,151v4.21h12v-18.3A14.36,14.36,0,0,0,248.9,151ZM266,160.3v19.53H277.6V160.3Zm-17.06,0v19.53h12V160.3Z" transform="translate(-0.53)"/><path class="cls-4" d="M286.32,76.86v4.2h12V62.76A14.37,14.37,0,0,0,286.32,76.86Zm17.06,9.29v19.51H315V86.15Zm0-23.35V81.06H315v-4.2A14.38,14.38,0,0,0,303.38,62.8ZM286.32,86.15v19.51h12V86.15Z" transform="translate(-0.53)"/><path class="cls-4" d="M451.77,152.88v4.36H464.2v-19A14.9,14.9,0,0,0,451.77,152.88Zm17.71-14.59v19h12.09v-4.36A14.92,14.92,0,0,0,469.48,138.29Zm0,24.23v20.26h12.09V162.52Zm-17.71,0v20.26H464.2V162.52Z" transform="translate(-0.53)"/><g class="cls-5"><path class="cls-6" d="M.53,332.43C58.7,283,119.1,236.09,217.83,233.55c51.62-1.33,49.08,18.63,31.39,44.62,115-68.83,234.34-77.88,357.36-37.38-79.9-41.68-175.63-59.65-310.28-19.3,8.31-26.27-27.15-34.37-90.53-19.9C119.68,221.26,55.08,272.06.53,332.43Z" transform="translate(-0.53)"/></g><path class="cls-6" d="M668.44,27.21q2.29,0,2.3,12t-2.3,12H643.61V66.69h16.56q2.3,0,2.3,10.51t-2.18,10.5H643.61v32.7q0,1.91-5.09,2.5a73,73,0,0,1-8.46.62l-6.39-.27q-6.64-.82-6.64-2.71V30.73c0-1.44.29-2.38.88-2.83a4.25,4.25,0,0,1,2.64-.69Z" transform="translate(-0.53)"/><path class="cls-6" d="M705.87,121.35q0,1.08-12.41,1.08t-12.41-1V54.88q0-.95,12.41-1t12.41.83Zm0-74.6q0,.95-12.41,1t-12.41-.81V27.36q0-1.37,12.41-1.36t12.41.81Z" transform="translate(-0.53)"/><path class="cls-6" d="M746.43,121.35c0,.64-3.25,1-9.76,1q-13.57-.4-13.57-1.49V76.86h-3.52q-3.54,0-4.61-6a22.15,22.15,0,0,1-.29-3.54,23,23,0,0,1,1.64-8.4q2.43-6,7.59-6a17.56,17.56,0,0,1,9.22,2.45q4.08,2.45,5.44,4.89A30.13,30.13,0,0,1,758.89,53q11.8,0,17.09,6.39t5.3,20.89V121q0,1.62-11.6,1.62T758.08,121V81.74q0-6.78-4.73-6.78a9.81,9.81,0,0,0-3.8,1.16,19.46,19.46,0,0,0-3.12,1.69Z" transform="translate(-0.53)"/><path class="cls-6" d="M827.13,28q0-2,10.72-2,3.66,0,8.47.48t4.82,1.28V99.25h4.75q3.38,0,4.47,6.09a33.9,33.9,0,0,1,.26,4.82,19.06,19.06,0,0,1-1.9,7.39q-2.7,6-8.67,6a17.32,17.32,0,0,1-7.94-1.76,11.93,11.93,0,0,1-4.68-3.66l-1.22-1.76q-7.46,7.17-18.72,7.18t-19.25-9.35q-8-9.36-8-26.12t8.41-25.9a27.37,27.37,0,0,1,21-9.17,35.09,35.09,0,0,1,7.46.83ZM822.65,74.7q-7.59,0-7.59,13.69,0,6.92,2.17,10t4.8,3a7.38,7.38,0,0,0,5.1-2.3V76.05A8.86,8.86,0,0,0,822.65,74.7Z" transform="translate(-0.53)"/><path class="cls-6" d="M930.89,121.47q0,1-11.6,1t-11.6-1.22V81.74q0-6.78-4.47-6.78-2.31,0-6.1,3v43.4q0,1.35-11.6,1.36t-11.6-1.5V76.86h-3.4q-4.47,0-4.47-9.36A24.11,24.11,0,0,1,867.69,59q2.16-6,7-6a18.73,18.73,0,0,1,9.43,2.59c3,1.71,4.86,3.34,5.49,4.87Q898.07,53,908.31,53t16.47,6.39A25.91,25.91,0,0,1,942.42,53q22.38,0,22.38,27.28v41.21q0,1-11.6,1t-11.59-1.22V81.74c0-4.52-1.5-6.78-4.47-6.78q-2.46,0-6.25,3Z" transform="translate(-0.53)"/><path class="cls-6" d="M971.58,55c0-1,4.14-1.5,12.41-1.5s12.54.46,12.83,1.36l9.75,32,9.36-32.27c.36-.73,3.17-1.1,8.41-1.1q18,0,17.23,1.76L1009.7,146q-.15.83-7.41.82t-13.5-.47c-4.15-.32-6.14-.71-5.95-1.16l11.79-28.48Z" transform="translate(-0.53)"/><path class="cls-2" d="M622.94,237.84a87.63,87.63,0,0,0,10.37,6.49,28.85,28.85,0,0,0,14.06,4.1c4.48,0,6.73-1.73,6.73-5.21a5.64,5.64,0,0,0-1.91-4.19,27,27,0,0,0-7-4.18c-3.37-1.59-5.89-2.82-7.58-3.72a59.63,59.63,0,0,1-6.73-4.43,26.73,26.73,0,0,1-6.4-6.41q-6.33-9-6.34-22.93a30.74,30.74,0,0,1,10.37-23.49q10.37-9.57,27.12-9.58a84.48,84.48,0,0,1,21,2.47q9.66,2.44,10,6.38v1q0,5.55-3.49,14t-4.91,9.4q-10.12-5.2-18.11-5.21t-8,5.69q0,3.48,5.85,6.17c.84.43,2.05,1,3.64,1.75s3.4,1.61,5.45,2.6a64.68,64.68,0,0,1,6.64,3.8,56.38,56.38,0,0,1,7.67,6.09q8.4,7.91,8.4,20.87,0,16.94-9.35,27.69T651.74,278a84.91,84.91,0,0,1-17.18-1.59,30.88,30.88,0,0,1-13.36-6.16q-5.69-4.59-5.68-11.07a37,37,0,0,1,2.36-12.9C619.46,242,621.15,239.21,622.94,237.84Z" transform="translate(-0.53)"/><path class="cls-2" d="M736,305.22q0,1.11-13.53,1.11T709,305.22V223.76H703.6q-3.79,0-5.21-6.95a27.66,27.66,0,0,1-.48-5.69,20,20,0,0,1,2.22-8.23q3.15-7,10.12-7a17.36,17.36,0,0,1,8.45,2.13,19.1,19.1,0,0,1,5.38,4,7.91,7.91,0,0,1,1.5,2.13q10.6-8.21,22.95-8.22t21.19,9.58q8.85,9.56,8.85,29.56t-8.85,31q-8.87,11-22.46,11a91.16,91.16,0,0,1-11.23-.64Zm6.48-81.62a9,9,0,0,0-5.21,1.74v28a38.91,38.91,0,0,0,4.33.32h2.62q6.48-.63,6.48-16.61Q750.73,223.6,742.51,223.6Z" transform="translate(-0.53)"/><path class="cls-2" d="M799.77,219c-3-5.28-4.44-9.57-4.44-12.9s.9-5.45,2.7-6.4q9-3.94,24.74-3.94T845,203.13q6.49,7.35,6.49,21.74v25h5.39c1.79,0,3.19,1,4.19,3.17a20.87,20.87,0,0,1,1.49,8.71,23.7,23.7,0,0,1-2.76,10.91Q857,278,852.27,278q-8.55,0-13.77-4.6a12.82,12.82,0,0,1-3.62-4.57Q827.59,278,812.26,278a26,26,0,0,1-19.46-8.22,27.17,27.17,0,0,1-7.9-19.47q0-25.77,30.83-25.78h8.71V223q0-4.11-1.35-5.28t-6.25-1.2Q810.84,216.49,799.77,219Zm12.65,29.1a7.06,7.06,0,0,0,1.89,5.31,6.68,6.68,0,0,0,4.82,1.81,7.34,7.34,0,0,0,5.31-2.37V240.69H820Q812.42,240.69,812.42,248.12Z" transform="translate(-0.53)"/><path class="cls-2" d="M897.5,237.2q0,15.51,11.7,15.51,7.6,0,12.65-3,2.39,0,3.88,8.15a75.42,75.42,0,0,1,1.51,11.07c0,1.95-.27,3.24-.79,3.87Q918.07,278,903.52,278a32.78,32.78,0,0,1-24.77-10.83q-10.18-10.83-10.19-29.58t10-30.29q10-11.53,26.74-11.54t23.18,8.06a8,8,0,0,1,1.42,5.14,34,34,0,0,1-1.27,8.3q-2.85,10.13-7.44,11.71a8.35,8.35,0,0,1-1.81.15c-.79,0-1.76-.63-2.92-1.9q-6.18-6.15-9.9-6.16c-2.47,0-4.61,1.27-6.4,3.8S897.5,231.52,897.5,237.2Z" transform="translate(-0.53)"/><path class="cls-2" d="M998.41,272.16q-10,5.85-25.64,5.86a36.05,36.05,0,0,1-26.4-10.67q-10.75-10.68-10.75-29.58T946,207.32a33.67,33.67,0,0,1,26.17-11.54q15.81,0,24.44,8.06a25.83,25.83,0,0,1,8.63,19.6q0,25.63-29.43,25.63H964.87c0,3.16.87,5.36,2.6,6.58s4.31,1.81,7.68,1.81a45.82,45.82,0,0,0,21.05-5.07c.1-.1.58.64,1.42,2.22q3.78,6.79,3.79,11.46T998.41,272.16Zm-19.78-45.71q0-6.63-6.47-6.63a7.72,7.72,0,0,0-5.16,1.81,6.57,6.57,0,0,0-2.13,5.3v4.91h8.55Q978.63,231.84,978.63,226.45Z" transform="translate(-0.53)"/></g></g></svg>