<svg xmlns="http://www.w3.org/2000/svg" xmlns:xlink="http://www.w3.org/1999/xlink" viewBox="0 0 999.94 305.04"><defs><style>.cls-1{fill:none;}.cls-2{clip-path:url(#clip-path);}.cls-3{fill:#fdc919;}.cls-4{clip-path:url(#clip-path-2);}.cls-5{fill:#5e5e5e;}.cls-6{clip-path:url(#clip-path-3);}</style><clipPath id="clip-path" transform="translate(-0.42)"><rect class="cls-1" x="43.88" width="436" height="227.63"/></clipPath><clipPath id="clip-path-2" transform="translate(-0.42)"><rect class="cls-1" y="236.96" width="522.54" height="68.04"/></clipPath><clipPath id="clip-path-3" transform="translate(-0.42)"><rect class="cls-1" y="186.3" width="522.54" height="96"/></clipPath></defs><title>education</title><g id="Layer_2" data-name="Layer 2"><g id="Layer_1-2" data-name="Layer 1"><g class="cls-2"><path class="cls-3" d="M170.82,203.39a528.5,528.5,0,0,0-58.61-12.64c32.88,8.06,71.69,19.8,106.92,36.52.2-1.25.46-2.48.77-3.7s.67-2.43,1.09-3.62.88-2.35,1.4-3.5,1.09-2.27,1.71-3.37,1.29-2.16,2-3.2,1.47-2,2.27-3,1.65-1.9,2.53-2.8,1.81-1.76,2.77-2.57,2-1.59,3-2.32,2.09-1.41,3.18-2,2.2-1.23,3.34-1.77,2.3-1,3.49-1.45a37.61,37.61,0,0,1,3.6-1.14c1.21-.33,2.44-.61,3.69-.83s2.49-.39,3.74-.5,2.52-.16,3.78-.16,2.51.05,3.77.17,2.5.27,3.75.5,2.47.49,3.69.82,2.41.71,3.6,1.15,2.34.92,3.48,1.46,2.26,1.13,3.34,1.76,2.15,1.32,3.18,2.05,2,1.5,3,2.32,1.88,1.67,2.76,2.57,1.73,1.84,2.53,2.81,1.56,2,2.27,3,1.38,2.1,2,3.2,1.19,2.22,1.71,3.37,1,2.32,1.4,3.5.77,2.4,1.09,3.62.56,2.45.76,3.7c35.23-16.72,74-28.5,106.92-36.52a528,528,0,0,0-58.51,12.61l126.42-45.83L305.55,207.31,454.2,105.84,299,197,417.73,61.8,290.11,188.61,371.44,28.16l-92,154.58L318.3,7.16,267.58,179.74,261.47,0l-6.1,179.74L204.72,7.16l38.82,175.71-92-154.58,81.21,160.32L105.3,61.8,224,197,68.76,105.84,217.4,207.31l-173-49.75Z" transform="translate(-0.42)"/></g><g class="cls-4"><path class="cls-5" d="M279.1,280.49l-2.19,1v2.38c0,7.56-6.73,13.95-14.7,13.95s-14.68-6.45-14.68-13.95v-2.38l-2.21-1C128.78,230.91,1.69,238.47.42,238.58v7.24c1.24-.08,125.67-7.41,240,40.56a22.2,22.2,0,0,0,.93,3.78,22.72,22.72,0,0,0,1.59,3.56,22.16,22.16,0,0,0,2.2,3.23,21,21,0,0,0,2.72,2.78,21.76,21.76,0,0,0,6.7,3.94,21.33,21.33,0,0,0,3.76,1,21.74,21.74,0,0,0,7.77,0,21.33,21.33,0,0,0,3.76-1,21.76,21.76,0,0,0,6.7-3.94,21.09,21.09,0,0,0,2.73-2.78,22.22,22.22,0,0,0,3.78-6.79,22.2,22.2,0,0,0,.93-3.78c114.32-48,237.28-40.69,238.53-40.61V238.5C521.26,238.39,395.64,230.91,279.1,280.49Z" transform="translate(-0.42)"/></g><g class="cls-6"><path class="cls-5" d="M268.54,279c21.33-13.8,93.73-51,254-50.47l-33.2-41.68s-147.93,18.14-227.8,78c-79.86-59.84-227.8-78-227.8-78L.42,228.54c160.26-.53,232.67,36.67,254,50.47a12.36,12.36,0,0,0,3.38,1.56,12.81,12.81,0,0,0,7.36,0A12.5,12.5,0,0,0,268.54,279Z" transform="translate(-0.42)"/></g><path class="cls-3" d="M564.7,155.11V117.69h10.47a57.32,57.32,0,0,0,3.94,12.73,25.5,25.5,0,0,0,6.27,8,26.85,26.85,0,0,0,9.25,5.43,36.62,36.62,0,0,0,11.57,1.63q8.55,0,13.25-3.06a9.86,9.86,0,0,0,4.7-8.77,10.54,10.54,0,0,0-3.68-8.36q-3.68-3.19-11.69-5l-14.69-3.39q-15.93-3.69-22.87-10t-6.94-17.09A26.58,26.58,0,0,1,568.36,75a27.46,27.46,0,0,1,11.42-9.87,38.78,38.78,0,0,1,17-3.54,44.67,44.67,0,0,1,9.1.83A34.3,34.3,0,0,1,614,65.25,71.29,71.29,0,0,1,623.47,71l4.77-6.66h8V98.77H626.05q-3-13.32-10.21-19.85a25.32,25.32,0,0,0-8.37-4.56,30.15,30.15,0,0,0-9.86-1.71q-7.87,0-12.52,3.14a9.82,9.82,0,0,0-4.62,8.57,9.46,9.46,0,0,0,3.12,7.41q3.13,2.81,10.21,4.42l18.25,4.23a61.31,61.31,0,0,1,10.87,3.46,40.34,40.34,0,0,1,8.71,4.83,22.55,22.55,0,0,1,6.88,8.65,26.87,26.87,0,0,1,2.52,11.5,26.27,26.27,0,0,1-4.36,14.95,29.45,29.45,0,0,1-12,10.21,40,40,0,0,1-17.55,3.67,46,46,0,0,1-9.93-1,40.49,40.49,0,0,1-9.4-3.4,84.78,84.78,0,0,1-10.75-6.6l-3,8.44Z" transform="translate(-0.42)"/><path class="cls-3" d="M686.6,91.29V102a65,65,0,0,1,7.63-7.68A21.6,21.6,0,0,1,701,90.42a23.35,23.35,0,0,1,7.62-1.17q6.81,0,10.69,2.86t6.87,10.06a89.56,89.56,0,0,1,8.21-7.81,22.88,22.88,0,0,1,6.82-3.94,22.2,22.2,0,0,1,7.41-1.17,22.77,22.77,0,0,1,8,1.38,15.93,15.93,0,0,1,6.21,3.93,13.87,13.87,0,0,1,2.71,3.82,17.18,17.18,0,0,1,1.29,5.37q.35,3.34.35,9V138q0,5.06,1.36,6.4t6.39,1.62h3.82v9.13H741.85V146h1.5q5.16-.27,6.46-1.62t1.29-6.4V112.79a53.39,53.39,0,0,0-.27-6.52,6.76,6.76,0,0,0-1.35-3.27c-1.46-2.17-3.92-3.27-7.36-3.27a13.82,13.82,0,0,0-10.83,5.11,18.51,18.51,0,0,0-4.42,12.58V138q0,5.06,1.36,6.4t6.41,1.62h1.48v9.13H701.58V146h1.48c3.46-.18,5.61-.72,6.48-1.62s1.29-3,1.29-6.4V112.79a53.39,53.39,0,0,0-.27-6.52,6.52,6.52,0,0,0-1.38-3.27c-1.44-2.17-3.89-3.27-7.33-3.27A13.8,13.8,0,0,0,691,104.84a18.51,18.51,0,0,0-4.42,12.58V138q0,5.06,1.35,6.4T694.5,146H696v9.13H658.43V146h4.36q5.16-.27,6.46-1.62t1.31-6.4V108.44q0-5.16-1.31-6.52t-6.46-1.5h-4.36V91.29Z" transform="translate(-0.42)"/><path class="cls-3" d="M858.18,131.29h8.16c-.09,5.27-.26,9-.47,11.3a22.89,22.89,0,0,1-1.42,6.12q-3.81,8.72-15,8.71-6,0-9.25-2.31t-5.31-7.75a31.74,31.74,0,0,1-9.79,7.95,28.12,28.12,0,0,1-12,2.25q-8.71,0-14.09-4.83a16.14,16.14,0,0,1-5.37-12.58,17.34,17.34,0,0,1,2.64-9.4,17.53,17.53,0,0,1,7.57-6.54,49.08,49.08,0,0,1,7.6-3.1q4.23-1.38,11.73-3.15,6.66-1.62,9.25-4t2.58-6.87q0-10.75-14.29-10.75a23,23,0,0,0-6.87.89,20,20,0,0,0-5.77,3q4.74.28,6.85,2c1.42,1.19,2.12,3,2.12,5.44a8.08,8.08,0,0,1-2.58,6.21,9.68,9.68,0,0,1-6.81,2.38,10.48,10.48,0,0,1-7.75-3,10.35,10.35,0,0,1-3-7.63q0-7.6,7.21-12.17T823.22,89a55.24,55.24,0,0,1,12.31,1.29,22.4,22.4,0,0,1,8.63,3.61,13.28,13.28,0,0,1,6.12,9.87,64.5,64.5,0,0,1,.54,9.44V141.5q0,4.75,3.27,4.75,2.32,0,3.19-2.91c.6-2,.9-5.46.9-10.55Zm-23.67-1.77v-7.75A60,60,0,0,1,828,124.9L821,127.63q-9.1,3.54-9.1,10.87,0,7.75,8.29,7.75a13.7,13.7,0,0,0,10.06-4.06,13.12,13.12,0,0,0,3.27-5.23A24.36,24.36,0,0,0,834.51,129.52Z" transform="translate(-0.42)"/><path class="cls-3" d="M922.13,146v9.13h-43V146h4.35c3.44-.18,5.6-.72,6.46-1.62s1.31-3,1.31-6.4V108.44c0-3.44-.43-5.61-1.31-6.52s-3-1.42-6.46-1.5h-4.35V91.29h28.44v9.52c2.63-4.08,5.27-7,7.89-8.7a16.79,16.79,0,0,1,9.4-2.59,16.55,16.55,0,0,1,11.48,4.09,13.43,13.43,0,0,1,4.56,10.48,11.36,11.36,0,0,1-3.06,8.22A10.37,10.37,0,0,1,930,115.5a9.8,9.8,0,0,1-6.75-2.23,7.77,7.77,0,0,1-2.5-6.06,8.12,8.12,0,0,1,1.9-5.65,14,14,0,0,1,6.27-3.45,21.45,21.45,0,0,0-3.33-1,12.25,12.25,0,0,0-2.67-.36,10.72,10.72,0,0,0-5.77,2,19,19,0,0,0-5.25,5.1q-4.36,6.52-4.35,16.88V138c0,3.37.44,5.5,1.35,6.4s3.05,1.44,6.42,1.62Z" transform="translate(-0.42)"/><path class="cls-3" d="M964.18,100.69H953.7V91.84A30,30,0,0,0,964,87.75a15.18,15.18,0,0,0,5.58-7.69,58.13,58.13,0,0,0,2.65-13.81h8.58v25h17.54v9.4H980.51V137c0,3,.36,5.08,1.08,6.21a4,4,0,0,0,3.67,1.69c3.08,0,4.9-1.63,5.44-4.9a16.7,16.7,0,0,0,.54-2.85c.09-.9.17-2.24.21-4s.08-4.48.08-8.11h8.83v4.75a79.81,79.81,0,0,1-.62,11.44,25.35,25.35,0,0,1-2.38,7.63q-4.2,8.55-16.18,8.56-9.66,0-13.88-6.67a17.58,17.58,0,0,1-2.46-6.12,52.8,52.8,0,0,1-.66-9.52Z" transform="translate(-0.42)"/><path class="cls-3" d="M562.24,273.11V262.77h5.31a22.57,22.57,0,0,0,5.83-.54,3.37,3.37,0,0,0,2.46-2.39,20.87,20.87,0,0,0,.54-5.5V201.13a21,21,0,0,0-.54-5.59,3.5,3.5,0,0,0-2.46-2.37,18.9,18.9,0,0,0-5.83-.48h-5.31V182.36h89.12v36.06H641q-.27-10.62-2.31-16.19a12.35,12.35,0,0,0-7.09-7.62q-5-2-14.41-1.92H595.45v27.9h5.16a30.34,30.34,0,0,0,8.84-1.15,6.25,6.25,0,0,0,3.89-4.5A62.17,62.17,0,0,0,615,204.13h10.35v45.31H615a62.43,62.43,0,0,0-1.71-12.19c-.77-2.67-2.1-4.42-4-5.23s-4.76-1.18-8.56-1.1h-5.31v31.85h23.81q8,0,12.37-2.16t6.4-8.32q2-6.12,3-17.68h10.33v38.5Z" transform="translate(-0.42)"/><path class="cls-3" d="M710.41,191.46v-9.1h29.81V256q0,5.05,1.36,6.4T748,264h3.82v9.13h-27.9V261.94q-4.23,7.37-8.92,10.21T702.51,275q-13.18,0-20.54-8.89T674.64,241q0-16.2,7.27-25.1T702.39,207q7.89,0,12.58,2.86t8.92,10.06V199.5q0-5.16-1.29-6.52c-.87-.92-3-1.42-6.46-1.52ZM708,218.69a12.46,12.46,0,0,0-11,5.71q-3.81,5.72-3.81,16.6,0,23.13,14.83,23.13a13.49,13.49,0,0,0,11.75-5.92q4.17-5.91,4.17-16.81t-4.17-16.79A13.49,13.49,0,0,0,708,218.69Z" transform="translate(-0.42)"/><path class="cls-3" d="M766.74,218.42v-9.13H794v42.32a30.63,30.63,0,0,0,.42,6.12,8.79,8.79,0,0,0,1.5,3.4q2.85,3.54,8.16,3.54,7.34,0,12.52-6.67a15.47,15.47,0,0,0,3-6.12,39.27,39.27,0,0,0,.81-8.84v-16.6a17.15,17.15,0,0,0-.54-5,3.47,3.47,0,0,0-2.18-2.25,16.59,16.59,0,0,0-5-.75h-6.12v-9.13h30.21V256q0,5.05,1.35,6.4t6.54,1.62h3.55v9.13H820.34V261.94q-6.24,7.5-11.29,10.35a22.92,22.92,0,0,1-11.56,2.86,24.76,24.76,0,0,1-8.5-1.5,17.86,17.86,0,0,1-6.73-4.09,13.81,13.81,0,0,1-3.6-6.58,48.25,48.25,0,0,1-1-11.37V226.44c0-3.36-.44-5.51-1.3-6.46s-3-1.48-6.47-1.56Z" transform="translate(-0.42)"/></g></g></svg>