<svg xmlns="http://www.w3.org/2000/svg" viewBox="0 0 705.3 248.7"><defs><style>.cls-1{fill:#0dce0d;}.cls-2{fill:red;}</style></defs><title>stock-trading</title><g id="Layer_2" data-name="Layer 2"><g id="Layer_1-2" data-name="Layer 1"><path class="cls-1" d="M335.5,121.94c-18.91,28.91-37.65,57.54-56.5,86.4-4.42-8.39-8.75-16.61-13.11-25-44.34,21.81-88.47,43.5-132.89,65.33-2.83-19.84-5.65-39.44-8.48-59.27Q62.59,216.31,1,243.06c-.35-.46-.69-.93-1-1.37q72.72-44.49,145.85-89.18v56c33.2-22,66-43.7,98.9-65.52-4.12-7.88-8.21-15.68-12.43-23.78Z"/><path class="cls-2" d="M259.23,96.2v-56c-33.19,22-66,43.7-98.87,65.51,4.12,7.89,8.19,15.68,12.44,23.78-34.42-.91-68.6-1.82-103.2-2.72,18.91-28.92,37.61-57.55,56.5-86.41,4.42,8.4,8.72,16.61,13.11,25L272.07,0c2.84,19.84,5.64,39.44,8.51,59.27q62.21-27,124-53.84c.45.36.85.75,1.31,1.13Q332.74,51.34,259.23,96.2Z"/><path class="cls-2" d="M422.6,4.17h69.92l1.33,26.6h-2.41q-5.65-13.57-11.84-18.6t-18.14-5h-4.71V48.65h4.58a13.72,13.72,0,0,0,10.61-4.77Q476.25,39.11,478,31h2V70.83h-2.27q-2.43-10.08-6.52-14.37T460,52.15h-3.23V95.29h5.1q12.38,0,21-7.39a37.65,37.65,0,0,0,11.89-19h2.69l-1.06,29.31H422.6v-3h7.94V7.13H422.6Z"/><path class="cls-2" d="M532.29,70.42q0,13.86,1.34,18.62t5.25,4.77c2.6,0,4.94-1.61,7-4.83S549,81.32,549,75.67v-25a19.22,19.22,0,0,0-2.36-9.82,7.2,7.2,0,0,0-6.52-4q-4.68,0-6.25,6t-1.54,20.63ZM549,127.81V88Q543.84,99.6,531.5,99.6q-25.15,0-25.15-33.47,0-17.07,6.92-25.13T534,32.92q11.16,0,15.73,8.48l.94-7.13h30.64v2.42H574v91.12h6.6v2.44H535.25v-2.44Z"/><path class="cls-2" d="M662.68,98.25H632l-1.48-9.81a17.54,17.54,0,0,1-6.4,8.27q-4.23,2.9-12.56,2.89-20.83,0-20.83-22.45V36.69h-7.52V34.27h32.52V80.38q0,8.06,1.14,10.62c.76,1.7,2.28,2.54,4.56,2.54s4.34-1.38,6.13-4.16,2.69-6.64,2.69-11.57V36.69H624.1V34.27h31.19V95.83h7.39Z"/><path class="cls-2" d="M685.13,25Q678,25,675,21.38a13.7,13.7,0,0,1-3-9,12.34,12.34,0,0,1,3.3-8.85q3.29-3.49,10-3.5t10.22,3.17q3.51,3.15,3.5,9a12.86,12.86,0,0,1-3.37,9.33Q692.25,25,685.13,25Zm-20.29,9.27h32.92V95.83h7.54v2.42H665.38V95.83h7.38V36.69h-7.92Z"/><path class="cls-1" d="M414.73,153.61l1.33,33.61h-2.54q-5.89-17.82-10.46-24.29t-13.12-6.5h-1.61v88.12h11.4v2.81h-48.9v-2.81h11.4V156.43h-1.75a15.18,15.18,0,0,0-13.25,6.77q-4.69,6.75-10.31,24h-2.57l1.36-33.61Z"/><path class="cls-1" d="M467.11,187.36q-5,0-8.71,6.44a29.73,29.73,0,0,0-3.75,15.25V245h9.5v2.41H422.36V245h7.37V186h-7.37v-2.42h32.29v12.86a18,18,0,0,1,6.69-10.5,18.34,18.34,0,0,1,11.25-3.69,14.81,14.81,0,0,1,10.25,3.54c2.63,2.37,4,5.71,4,10s-1,7.67-3,10-5,3.48-9,3.48-7.05-1.34-9-4-2.16-6.38-.73-11.1h4.83C472.14,189.65,471.2,187.36,467.11,187.36Z"/><path class="cls-1" d="M520.81,215.89h3.89V205.57q0-12.72-1.41-17.06t-5.42-4.35a7.73,7.73,0,0,0-4.35,1.27,4,4,0,0,0-1.94,3.48,13.48,13.48,0,0,0,.79,4.48h3.36a19.36,19.36,0,0,1,1.06,6.77,8.77,8.77,0,0,1-3.36,6.83,12.4,12.4,0,0,1-8.41,2.87q-11.53,0-11.52-11.12,0-16.45,28-16.46,15.93,0,22,5.42t6.1,19.89v27.19q0,7,3.9,7,4.56,0,5.35-13.79l2,.12q-.54,11.81-4.44,16.21t-12.7,4.42q-16.1,0-18.5-9.9a14.49,14.49,0,0,1-5.21,7.5q-3.49,2.4-10.19,2.4Q490,248.7,490,232.49q0-9.5,7.56-13T520.81,215.89Zm-5.36,16.47q0,7,.73,9a2.79,2.79,0,0,0,2.82,2c1.38,0,2.68-1.13,3.89-3.41s1.81-5.42,1.81-9.44V218h-.93q-8.31,0-8.32,12.19Z"/><path class="cls-1" d="M589.39,219.64q0,14.06,1.48,18.68c1,3.09,2.79,4.63,5.41,4.63a8.64,8.64,0,0,0,6.84-3.48Q606,236,606,229.16V200a19.4,19.4,0,0,0-2.29-9.77,7.26,7.26,0,0,0-6.69-4c-2.95,0-5,2-6,5.89s-1.6,10.81-1.6,20.63Zm18.35,27.72L606.26,238q-4.54,10.71-18.48,10.71-11.52,0-17.87-8.29t-6.36-24.8q0-33.31,26.52-33.33,11.77,0,15.53,6.56V149.32h-8.17v-2.41h33.48v98h6.56v2.41Z"/><path class="cls-1" d="M676.19,248.7q-17.28,0-25.92-8.9T641.63,215q0-15.87,9.7-24.31t24.73-8.44q30.39,0,29.19,30.52H667.48V218q0,13.13,3.35,19.83t11.65,6.69q15.54,0,20.35-16.6l2.42.39q-2.55,9.66-9.17,15T676.19,248.7Zm-8.56-38.56h13.79v-6.57q0-10.84-1.27-14.79c-.85-2.63-2.56-4-5.11-4s-4.41,1.41-5.62,4.23-1.79,7.65-1.79,14.52Z"/></g></g></svg>