<?xml version="1.0" encoding="UTF-8"?>
<svg id="Layer_2" xmlns="http://www.w3.org/2000/svg" xmlns:xlink="http://www.w3.org/1999/xlink" viewBox="0 0 40 40">
  <defs>
    <style>
      .cls-1 {
        fill: #f55b14;
      }

      .cls-2 {
        fill: none;
      }

      .cls-3 {
        clip-path: url(#clippath);
      }
    </style>
    <clipPath id="clippath">
      <rect class="cls-2" width="40" height="40"/>
    </clipPath>
  </defs>
  <g id="Layer_1-2" data-name="Layer_1">
    <g class="cls-3">
      <g>
        <path class="cls-1" d="M5.74,9.32h10.4c.34,0,.61-.27.61-.61s-.27-.61-.61-.61H5.74c-.33,0-.61.27-.61.61s.27.61.61.61Z"/>
        <path class="cls-1" d="M5.74,14.13h16.81c.33,0,.61-.27.61-.61s-.27-.61-.61-.61H5.74c-.33,0-.61.27-.61.61s.27.61.61.61Z"/>
        <path class="cls-1" d="M5.74,18.94h16.19c.33,0,.61-.27.61-.61s-.27-.61-.61-.61H5.74c-.33,0-.61.27-.61.61s.27.61.61.61Z"/>
        <path class="cls-1" d="M5.74,23.75h13.08c.33,0,.61-.27.61-.61s-.27-.61-.61-.61H5.74c-.33,0-.61.27-.61.61s.27.61.61.61Z"/>
        <path class="cls-1" d="M39.1,2.8l-.07-.04c-.92-.62-2.17-.36-2.79.56l-1.06,1.6-.47-.31c-.28-.19-.65-.11-.84.17l-5.58,8.38v-4.44s0-.02,0-.04c0-.05-.01-.11-.03-.16,0-.02-.01-.04-.02-.06-.03-.07-.07-.13-.12-.18l-6.67-6.67c-.05-.05-.11-.09-.18-.12-.02,0-.04-.01-.06-.02-.05-.02-.1-.03-.15-.03-.01,0-.03,0-.04,0H.61c-.33,0-.61.27-.61.61v35.92c0,.33.27.61.61.61h27.08c.33,0,.61-.27.61-.61v-13.16l10.95-16.46c.09-.13.12-.3.09-.45-.03-.16-.12-.3-.26-.39l-.47-.31,1.06-1.6c.61-.92.36-2.17-.56-2.79ZM21.62,3.5l4.6,4.6h-4.6V3.5ZM1.21,37.36V2.65h19.2v6.06c0,.33.27.61.61.61h6.07v5.65l-6.21,9.33c-1.18,1.78-1.92,3.85-2.13,5.98l-.18,1.9c-.55,0-1.09-.01-1.56-.16.39-.6.6-1.3.56-1.94-.06-.89-.74-1.84-1.9-1.84-.52,0-.97.19-1.32.54-.36.36-.56.88-.56,1.37.02.88.6,1.59,1.2,2.08-.3.14-.66.24-1.11.26-.86.04-1.62-.12-2.41-.52-.05-.03-.11-.05-.16-.09.49-.92.71-1.99.69-2.97,0-.44-.05-1.01-.34-1.54-.33-.61-.95-1-1.56-1h0c-.61,0-1.2.36-1.53.95-.23.42-.34.92-.32,1.52.04,1.22.56,2.4,1.41,3.26-.27.28-.6.5-.97.65-.87.33-1.92.18-2.84.06-.34-.05-.64.19-.68.52-.05.33.19.64.52.68.53.07,1.13.16,1.74.16.56,0,1.14-.07,1.7-.28.6-.23,1.1-.58,1.5-1.02.1.06.2.12.31.17.97.5,1.96.71,3.03.65.96-.05,1.67-.37,2.18-.74.97.49,2.07.45,3.03.41,0,0,.01,0,.02,0,.06,0,.13-.02.19-.05.01,0,.02,0,.04-.01,0,0,.01,0,.02,0l2.15-1.15c1.09-.59,2.09-1.33,2.97-2.2.03-.02.05-.05.08-.08.61-.61,1.17-1.28,1.65-2l.83-1.25v10.74H1.21ZM19.96,30.39c.09-.89.28-1.76.56-2.61l2.66,1.77c-.67.59-1.4,1.1-2.19,1.52l-1.15.62.13-1.3ZM24.06,28.69l-3.09-2.06c.26-.58.56-1.13.92-1.66l.31-.46,3.35,2.23-.31.46c-.35.53-.75,1.02-1.18,1.49ZM16.35,30.15c.02.33-.08.82-.42,1.28-.52-.39-.93-.87-.94-1.31,0-.14.06-.35.21-.5.12-.12.27-.18.46-.18.47,0,.68.43.69.71ZM10.77,28.93c.01.69-.13,1.46-.43,2.14-.53-.63-.87-1.44-.89-2.26-.01-.37.04-.68.16-.89.11-.2.31-.34.47-.34.18,0,.38.15.5.37.13.23.19.53.19.98ZM26.22,25.73l-3.35-2.23,11.68-17.56,1.17.78-4.39,6.59c-.19.28-.11.65.17.84.1.07.22.1.34.1.2,0,.39-.1.5-.27l4.39-6.59,1.17.78-11.68,17.56ZM38.65,4.92l-1.06,1.6-1.4-.93,1.06-1.6c.24-.37.74-.47,1.11-.22l.06.04h0c.37.25.47.74.22,1.11Z"/>
      </g>
    </g>
  </g>
</svg>