<?xml version="1.0" encoding="UTF-8"?>
<svg id="Layer_2" xmlns="http://www.w3.org/2000/svg" xmlns:xlink="http://www.w3.org/1999/xlink" viewBox="0 0 40 40">
  <defs>
    <style>
      .cls-1 {
        fill: #f55b14;
      }

      .cls-2 {
        fill: none;
      }

      .cls-3 {
        clip-path: url(#clippath);
      }
    </style>
    <clipPath id="clippath">
      <rect class="cls-2" width="40" height="40"/>
    </clipPath>
  </defs>
  <g id="Layer_1-2" data-name="Layer_1">
    <g class="cls-3">
      <g>
        <path class="cls-1" d="M32.99,34.15c2.14,0,3.87-1.73,3.87-3.87v-15.53c0-2.14-1.73-3.87-3.87-3.87h-6.67c-.6-5.98-4.3-10.45-5.98-10.88h-.6c-1.68.39-5.42,4.86-6.02,10.88h-6.71c-2.14,0-3.87,1.73-3.87,3.87h0v15.53c0,2.14,1.73,3.87,3.87,3.87h8.77v4.99h-3.4c-.24,0-.43.19-.43.43s.19.43.43.43h15.23c.24,0,.43-.19.43-.43s-.19-.43-.43-.43h-3.4v-4.99h8.77ZM27.74,20.04c.08.22-.04.47-.26.55-.08.03-.17.03-.25.01l-2.49-.73c.6-1.3,1.05-2.68,1.33-4.09l1.68,4.26ZM19.96.82h.17c1.46.39,4.95,4.9,5.38,10.49v.39h.04c0,.26.04.52.04.77-.03,2.83-.77,5.61-2.15,8.09h-6.8c-1.38-2.47-2.12-5.25-2.15-8.09-.04-6.32,4-11.35,5.46-11.66ZM18.06,23.91c-.71,0-1.29-.58-1.29-1.29v-1.16h6.45v1.16c0,.71-.58,1.29-1.29,1.29h-3.87ZM21.55,25.51c0,1.51-1.08,3.57-1.55,3.96-.43-.34-1.55-2.45-1.55-3.96,0-.25.03-.49.09-.73h2.88c.07.22.11.45.13.69v.04ZM13.94,15.78c.28,1.41.73,2.78,1.33,4.09l-2.49.73c-.23.06-.47-.08-.53-.3-.02-.08-.02-.17.01-.25l1.68-4.26ZM23.35,39.14h-6.71v-4.99h6.71v4.99ZM7.01,33.29c-1.66,0-3.01-1.35-3.01-3.01v-15.53c0-1.66,1.35-3.01,3.01-3.01h6.62v.77c0,.26.04,1.03.09,1.55h0l-2.24,5.63c-.26.66.06,1.41.73,1.67.15.06.31.09.48.09h.34l2.62-.77.22.43v1.51c0,1.05.77,1.94,1.81,2.11-.05.25-.08.51-.09.77,0,1.72,1.33,4.6,2.19,4.82h.3c.9-.17,2.28-3.05,2.28-4.82,0-.26-.03-.52-.09-.77,1.04-.17,1.8-1.06,1.81-2.11v-1.55l.22-.43,2.62.77h.39c.71,0,1.29-.57,1.29-1.29,0-.16-.03-.33-.09-.48l-2.19-5.59h0c.04-.52.09-1.03.09-1.55s0-.52-.04-.77h6.62c1.66,0,3.01,1.35,3.01,3.01v15.53c0,1.66-1.35,3.01-3.01,3.01H7.01Z"/>
        <path class="cls-1" d="M20,13.29c1.62,0,2.92-1.31,2.92-2.92,0-1.62-1.31-2.92-2.92-2.92s-2.92,1.31-2.92,2.92h0c0,1.62,1.31,2.92,2.92,2.92ZM20,8.34c1.14,0,2.06.92,2.06,2.06s-.92,2.06-2.06,2.06-2.06-.92-2.06-2.06h0c0-1.14.92-2.06,2.06-2.06Z"/>
      </g>
    </g>
  </g>
</svg>