<?xml version="1.0" encoding="UTF-8"?>
<svg id="Layer_2" xmlns="http://www.w3.org/2000/svg" xmlns:xlink="http://www.w3.org/1999/xlink" viewBox="0 0 40 40">
  <defs>
    <style>
      .cls-1 {
        fill: #f55b14;
      }

      .cls-2 {
        fill: none;
      }

      .cls-3 {
        clip-path: url(#clippath);
      }
    </style>
    <clipPath id="clippath">
      <rect class="cls-2" width="40" height="40"/>
    </clipPath>
  </defs>
  <g id="Layer_1-2" data-name="Layer_1">
    <g class="cls-3">
      <g>
        <path class="cls-1" d="M13.67,31.01c-.36,0-.65-.29-.65-.65v-1.18c0-.36.29-.65.65-.65h3.64c.36,0,.65.29.65.65v1.18c0,.36-.29.65-.65.65h-3.64ZM13.73,30.29h3.5v-1.05h-3.5v1.05Z"/>
        <path class="cls-1" d="M30.01,31.01c-.36,0-.65-.29-.65-.66v-1.18c0-.36.29-.65.65-.65h3.64c.36,0,.65.29.65.65v1.18c0,.36-.29.65-.65.65h-3.64ZM30.08,30.29h3.5v-1.05h-3.5v1.05Z"/>
        <path class="cls-1" d="M18.85,17.22c-.36,0-.65-.29-.65-.65v-1.18c0-.36.29-.65.65-.65h3.64c.36,0,.65.29.65.65v1.18c0,.36-.29.65-.65.65h-3.64ZM18.91,16.49h3.5v-1.05h-3.5v1.05Z"/>
        <path class="cls-1" d="M.97,39.81c-.48,0-.87-.39-.87-.87v-5.63c0-.48.39-.87.87-.87h2.66l-.09-.15c-.16-.27-.24-.56-.24-.86v-11.06c0-.95.77-1.73,1.73-1.73h3.78l-.09-.15c-.16-.27-.24-.56-.24-.86V6.58c0-.95.77-1.73,1.73-1.73h10.45c.19,0,.36.16.36.36s-.16.36-.36.36h-.78v3.15c0,.27-.15.51-.39.63-.1.05-.2.08-.31.08-.15,0-.3-.05-.42-.14l-1.75-1.31-1.75,1.31c-.13.09-.27.14-.42.14-.1,0-.21-.03-.31-.08-.24-.12-.39-.36-.39-.63v-3.15h-3.92c-.56,0-1.01.45-1.01,1.01v11.06c0,.56.45,1.01,1.01,1.01h13.6c.56,0,1.01-.45,1.01-1.01v-1.13c0-.2.16-.36.36-.36s.36.16.36.36v1.13c0,.3-.08.59-.24.86l-.09.15h9.75c.95,0,1.73.77,1.73,1.73v11.06c0,.3-.08.59-.24.86l-.09.15h2.66c.48,0,.87.39.87.87v5.63c0,.48-.39.87-.87.87H.97ZM34.7,39.09h4.43l.05-.15v-5.73l-.15-.05h-4.33v5.93ZM22.96,39.09h11.02v-5.93h-11.02v5.93ZM17.76,39.09h4.49v-5.93h-4.49v5.93ZM6.02,39.09h11.02v-5.93H6.02v5.93ZM.82,33.3v5.73l.15.05h4.33v-5.93H.87l-.05.15ZM5.02,19.36c-.56,0-1.01.45-1.01,1.01v11.06c0,.55.45,1,1,1h13.61c.56,0,1.01-.45,1.01-1.01v-11.06c0-.56-.45-1.01-1.01-1.01h-3.92v3.15c0,.27-.15.51-.39.63-.1.05-.2.08-.31.08-.15,0-.3-.05-.43-.14l-1.75-1.31-1.76,1.32c-.13.09-.27.14-.42.14-.1,0-.21-.03-.31-.08-.24-.12-.39-.36-.39-.63v-3.15h-3.92ZM21.37,19.35c-.56,0-1.01.45-1.01,1.01v11.06c0,.56.45,1.01,1.01,1.01h13.6c.56,0,1.01-.45,1.01-1.01v-11.06c0-.56-.45-1.01-1.01-1.01h-3.92v3.15c0,.27-.15.51-.39.63-.1.05-.2.08-.31.08-.15,0-.3-.05-.43-.14l-1.75-1.31-1.75,1.32c-.12.09-.27.14-.42.14-.1,0-.21-.03-.31-.08-.24-.12-.39-.36-.39-.63v-3.15h-1.48s-2.44,0-2.44,0ZM28.17,21.04c.15,0,.3.05.42.14l1.74,1.31v-3.13h-4.32v3.13l1.74-1.31c.12-.09.27-.14.42-.14ZM11.83,21.04c.15,0,.3.05.42.14l1.74,1.31v-3.13h-4.32v3.13l1.74-1.31c.12-.09.27-.14.42-.14ZM17.01,7.24c.15,0,.3.05.42.14l1.74,1.31v-3.13h-4.32v3.13l1.74-1.31c.12-.09.27-.14.42-.14Z"/>
        <path class="cls-1" d="M30.75,17c-4.63,0-8.4-3.77-8.4-8.41S26.12.19,30.75.19s8.41,3.77,8.41,8.4-3.77,8.41-8.41,8.41ZM30.75.91c-4.24,0-7.68,3.45-7.68,7.69s3.45,7.69,7.68,7.69,7.69-3.45,7.69-7.69-3.45-7.69-7.69-7.69Z"/>
        <path class="cls-1" d="M30.75,14.56c-3.28,0-5.95-2.67-5.96-5.94.01-3.31,2.68-5.98,5.96-5.98s5.95,2.67,5.96,5.94c-.01,3.31-2.68,5.98-5.96,5.98ZM30.75,12.73c.19,0,.36.16.36.36v.74h.11c2.53-.24,4.52-2.23,4.75-4.76v-.11s-.73,0-.73,0c-.2,0-.36-.16-.36-.36s.16-.36.36-.36h.74v-.11c-.23-2.53-2.22-4.53-4.76-4.75h-.11s0,.73,0,.73c0,.2-.16.36-.36.36s-.36-.16-.36-.36v-.74h-.11c-2.53.23-4.53,2.23-4.75,4.76v.11s.73,0,.73,0c.19,0,.36.16.36.36s-.16.36-.36.36h-.74v.11c.23,2.53,2.23,4.53,4.76,4.75h.11s0-.73,0-.73c0-.19.17-.36.36-.36Z"/>
        <path class="cls-1" d="M30.75,10c-.77,0-1.4-.63-1.4-1.4,0-.6.39-1.13.97-1.32l.07-.02v-1.49c0-.19.17-.36.36-.36s.36.16.36.36v1.49l.07.02c.42.13.75.47.89.89l.02.07h.65c.19,0,.36.16.36.36s-.16.36-.36.36h-.65l-.02.07c-.19.58-.72.97-1.32.97ZM30.75,7.92c-.37,0-.68.3-.68.68s.3.68.68.68.68-.31.68-.68-.3-.68-.68-.68Z"/>
      </g>
    </g>
  </g>
</svg>