<?xml version="1.0" encoding="UTF-8"?>
<svg id="Layer_2" xmlns="http://www.w3.org/2000/svg" xmlns:xlink="http://www.w3.org/1999/xlink" viewBox="0 0 50 31">
  <defs>
    <style>
      .cls-1 {
        fill: #fff;
      }

      .cls-2 {
        fill: none;
      }

      .cls-3 {
        clip-path: url(#clippath);
      }
    </style>
    <clipPath id="clippath">
      <rect class="cls-2" width="50" height="31"/>
    </clipPath>
  </defs>
  <g id="Layer_1-2" data-name="Layer_1">
    <g class="cls-3">
      <path class="cls-1" d="M42.46,9.42l-3.57-3.91c-.13-.15-.34-.2-.53-.12-.19.07-.31.25-.31.45v1.72h-5.1c-.19-.69-.47-1.36-.83-1.98l.8-.8c.16-.16.19-.42.05-.61-.65-.93-1.46-1.74-2.39-2.4-.19-.13-.45-.11-.62.05l-.8.8c-.65-.38-1.35-.67-2.08-.86V.62c0-.23-.17-.43-.4-.47-1.11-.2-2.27-.2-3.39,0-.23.04-.4.24-.4.47v1.13c-.73.19-1.43.48-2.08.86l-.8-.8c-.16-.16-.43-.19-.62-.05-.93.66-1.74,1.46-2.39,2.4-.13.19-.11.45.05.62l.8.8c-.36.62-.64,1.28-.83,1.98h-5.1v-1.72c0-.2-.12-.38-.31-.45s-.4-.02-.53.12l-3.57,3.91c-.17.18-.17.47,0,.65l3.57,3.91c.09.1.22.16.36.16.06,0,.12-.01.17-.03.19-.07.31-.25.31-.45v-1.72h5.1c.19.69.47,1.36.83,1.98l-.8.8c-.16.16-.19.43-.05.62.66.94,1.46,1.74,2.39,2.39.08.06.18.09.28.09.12,0,.25-.05.34-.14l.8-.8c.59.35,1.23.62,1.89.81v3.16l-.38-.59c-.6-.94-1.65-.97-2.37-.51-.72.46-1.13,1.42-.52,2.37l4,6.22c.96,1.65,2.74,2.68,4.64,2.68h.12c2.96,0,5.37-2.41,5.37-5.37v-5.11c0-1.12-.87-1.71-1.72-1.71-.28,0-.56.06-.81.19-.21-.81-.94-1.22-1.66-1.22-.28,0-.56.06-.81.19-.06-.25-.18-.46-.32-.64.32-.14.63-.29.92-.47l.8.8c.16.16.42.19.62.05.94-.66,1.74-1.46,2.39-2.39.13-.19.11-.45-.05-.61l-.8-.8c.37-.62.64-1.28.83-1.98h5.1v1.72c0,.2.12.38.31.45.06.02.12.03.17.03.13,0,.26-.05.36-.16l3.57-3.91c.16-.18.16-.47,0-.65h0ZM11.46,10.97c-.27,0-.48.21-.48.48v.96l-2.44-2.67,2.44-2.67v.96c0,.27.21.48.48.48h3.87c-.05.41-.08.82-.08,1.23s.03.82.08,1.23h-3.87ZM28.62,21.5v-2.01c0-.55.41-.75.75-.75s.75.2.75.75v3.03c0,.27.21.48.48.48s.48-.21.48-.48v-1.99c0-.55.41-.74.75-.74s.75.19.75.74v5.11c0,2.43-1.98,4.4-4.4,4.4h-.12c-1.56,0-3.02-.85-3.81-2.21,0,0,0-.01-.01-.02l-4-6.23c-.3-.46-.06-.85.23-1.04.13-.08.28-.14.44-.14.21,0,.42.1.59.36l1.27,1.98c.12.18.33.26.54.2.2-.06.35-.25.35-.46v-8.47s0,0,0,0v-2.22c0-.55.41-.74.75-.74s.75.19.75.74v8.7c0,.27.21.48.48.48s.48-.21.48-.48v-2.05c0-.55.41-.74.75-.74.04,0,.09,0,.13,0,0,0,0,0,0,0,.31.05.62.26.62.73v3.07c0,.27.21.48.48.48.27,0,.48-.21.48-.48h0ZM24.44,10.08c-.85,0-1.72.59-1.72,1.71v1.42c-1.15-.76-1.87-2.05-1.87-3.47,0-2.29,1.86-4.15,4.15-4.15s4.15,1.86,4.15,4.15c0,1.86-1.25,3.48-3,3.99v-1.94c0-1.12-.87-1.71-1.72-1.71h0ZM33.71,10.87h-1.1c-.23,0-.42.16-.47.38-.19.88-.53,1.71-1.02,2.47-.12.19-.1.44.06.6l.78.78c-.46.6-1,1.13-1.6,1.6l-.78-.78c-.16-.16-.41-.19-.6-.06-.59.39-1.24.68-1.92.88-.05,0-.1,0-.15,0-.26,0-.52.05-.75.16v-2.17c1.04-.24,1.99-.81,2.7-1.62.81-.93,1.26-2.12,1.26-3.36,0-2.82-2.29-5.11-5.11-5.11s-5.11,2.29-5.11,5.11c0,1.95,1.1,3.71,2.83,4.57v2.35c-.6-.2-1.16-.47-1.7-.82-.19-.12-.44-.1-.6.06l-.78.78c-.6-.46-1.13-1-1.6-1.6l.78-.78c.16-.16.19-.41.06-.6-.49-.75-.83-1.58-1.02-2.47-.05-.22-.24-.38-.47-.38h-1.1c-.05-.37-.07-.75-.07-1.13s.02-.75.07-1.13h1.1c.23,0,.42-.15.47-.38.19-.88.53-1.71,1.02-2.47.12-.19.1-.44-.06-.6l-.78-.78c.46-.6,1-1.14,1.6-1.6l.78.78c.16.16.41.19.6.06.75-.49,1.58-.83,2.47-1.02.22-.05.38-.24.38-.47v-1.1c.75-.1,1.51-.1,2.26,0v1.1c0,.23.16.42.38.47.88.19,1.71.53,2.47,1.02.19.12.44.1.6-.06l.78-.78c.6.46,1.14,1,1.6,1.6l-.78.78c-.16.16-.19.41-.06.6.49.76.84,1.59,1.02,2.47.05.22.24.38.47.38h1.1c.05.37.07.75.07,1.13,0,.38-.02.76-.07,1.13h0ZM39.02,12.41v-.96c0-.27-.21-.48-.48-.48h-3.87c.05-.41.08-.82.08-1.23s-.03-.82-.08-1.23h3.87c.27,0,.48-.21.48-.48v-.96l2.44,2.67-2.44,2.67Z"/>
    </g>
  </g>
</svg>