<?xml version="1.0" encoding="UTF-8"?>
<svg id="Layer_2" xmlns="http://www.w3.org/2000/svg" xmlns:xlink="http://www.w3.org/1999/xlink" viewBox="0 0 50 31">
  <defs>
    <style>
      .cls-1 {
        fill: #fff;
        fill-rule: evenodd;
      }

      .cls-2 {
        fill: none;
      }

      .cls-3 {
        clip-path: url(#clippath);
      }
    </style>
    <clipPath id="clippath">
      <rect class="cls-2" width="50" height="31"/>
    </clipPath>
  </defs>
  <g id="Layer_1-2" data-name="Layer_1">
    <g class="cls-3">
      <path class="cls-1" d="M36.62,9.56c-.5-.28-.07-1.05.43-.76,1.63.91,2.64,2.59,2.61,4.47,0,.57-.88.56-.87-.01.03-1.56-.81-2.93-2.16-3.69h0ZM22.28,1.68v-.37c0-1.74-3.13-1.74-3.13,0v.37h-1.42v-.37c0-1.74-3.13-1.74-3.13,0v.37h-3.16c-.6,0-1.09.49-1.09,1.09v18.86c0,.6.49,1.09,1.09,1.09h13.02l-.2.39c-.67,1.3.1,3.12,1.66,3.12h2.24c.39,3.62,4.57,3.62,4.97,0h2.24c1.6,0,2.31-1.85,1.66-3.12-.26-.5-.78-1.31-.78-1.86v-4.8c0-2.5-1.4-4.99-3.79-5.91.04-.16.06-.34.06-.51,0-.88-.57-1.71-1.44-1.93V2.77c0-.6-.49-1.09-1.09-1.09h-3.16v-.37c0-1.77-3.13-1.71-3.13,0v.37h-1.42,0ZM23.7,2.56v.51c0,1.77,3.13,1.71,3.13,0v-.51h3.16c.12,0,.21.1.21.21v3.67H11.22s0-3.67,0-3.67c0-.12.1-.21.21-.21h3.16v.51c0,1.74,3.13,1.74,3.13,0v-.51h1.42v.51c0,1.74,3.13,1.74,3.13,0v-.51h1.42,0ZM30.2,8.09c-.87.22-1.44,1.04-1.44,1.93,0,.18.02.35.06.51-2.39.92-3.79,3.41-3.79,5.91v4.8c0,.21-.04.4-.13.59h-13.47c-.12,0-.21-.1-.21-.21V7.32h18.98s0,.77,0,.77h0ZM25.04,23.5c-.37.73-.01,1.84.88,1.84h9.44c.92,0,1.24-1.14.88-1.84-.36-.69-.88-1.47-.88-2.25v-4.8c0-2.66-1.89-5.37-4.73-5.37s-4.73,2.7-4.73,5.37v4.8c0,.79-.52,1.56-.88,2.25h0ZM24.57,1.31c0-.55,1.38-.59,1.38,0v1.76c0,.55-1.38.59-1.38,0v-1.76h0ZM20.02,1.31c0-.57,1.38-.57,1.38,0v1.76c0,.57-1.38.57-1.38,0v-1.76h0ZM15.47,1.31c0-.57,1.38-.57,1.38,0v1.76c0,.57-1.38.57-1.38,0v-1.76h0ZM19.03,15.8h3.35c.24,0,.44.2.44.44v3.35c0,.24-.2.44-.44.44h-3.35c-.24,0-.44-.2-.44-.44v-3.35c0-.24.2-.44.44-.44h0ZM21.95,16.67v2.47h-2.47v-2.47h2.47ZM13.7,15.8h3.35c.24,0,.44.2.44.44v3.35c0,.24-.2.44-.44.44h-3.35c-.24,0-.44-.2-.44-.44v-3.35c0-.24.2-.44.44-.44h0ZM16.61,16.67v2.47h-2.47v-2.47h2.47ZM19.03,10.37h3.35c.24,0,.44.2.44.44v3.35c0,.24-.2.44-.44.44h-3.35c-.24,0-.44-.2-.44-.44v-3.35c0-.24.2-.44.44-.44h0ZM21.95,11.25v2.47h-2.47v-2.47h2.47ZM13.7,10.37h3.35c.24,0,.44.2.44.44v3.35c0,.24-.2.44-.44.44h-3.35c-.24,0-.44-.2-.44-.44v-3.35c0-.24.2-.44.44-.44h0ZM16.61,11.25v2.47h-2.47v-2.47h2.47ZM34.09,28.31c-.5-.28-.08-1.04.43-.76l.48.27c.5.28.08,1.04-.43.76l-.48-.27h0ZM32.4,29.68c-.3-.49.46-.94.75-.45l.28.48c.3.49-.46.94-.75.45l-.28-.48h0ZM30.24,30.02c0-.57.87-.59.87-.01v.55c.02.57-.86.59-.87.01v-.55h0ZM28.21,29.24c.12-.21.38-.29.59-.17.21.12.29.38.17.59l-.27.48c-.28.5-1.04.08-.76-.43l.27-.48h0ZM26.84,27.55c.49-.3.94.46.45.75l-.48.28c-.49.3-.94-.46-.45-.75l.48-.28h0ZM31.61,10.29c-.32-.06-.64-.09-.97-.09s-.66.03-.97.09c-.02-.09-.03-.17-.03-.27,0-1.47,2-1.45,2,0,0,.09,0,.18-.03.27h0ZM29.04,26.22h3.2c-.34,2.46-2.86,2.46-3.2,0h0ZM34.64,16.63c0,.58-.88.58-.88,0,0-1.15-.45-2.23-1.33-2.98-.44-.37.13-1.04.57-.67,1.07.91,1.64,2.24,1.64,3.64h0ZM35.74,11.23c.78.41,1.17,1.16,1.16,2.03,0,.57.87.58.87,0,0-1.2-.56-2.25-1.63-2.81-.51-.27-.92.51-.4.78h0Z"/>
    </g>
  </g>
</svg>