<?xml version="1.0" encoding="UTF-8"?>
<svg id="Layer_2" xmlns="http://www.w3.org/2000/svg" xmlns:xlink="http://www.w3.org/1999/xlink" viewBox="0 0 50 31">
  <defs>
    <style>
      .cls-1 {
        fill: #fff;
      }

      .cls-2 {
        fill: none;
      }

      .cls-3 {
        clip-path: url(#clippath);
      }
    </style>
    <clipPath id="clippath">
      <rect class="cls-2" width="50" height="31"/>
    </clipPath>
  </defs>
  <g id="Layer_1-2" data-name="Layer_1">
    <g class="cls-3">
      <g>
        <path class="cls-1" d="M29.14,21.82l2.18-2.18-.91-1.31c.17-.32.31-.66.41-1l1.57-.29v-3.08l-1.57-.29c-.11-.35-.25-.68-.41-1l.91-1.31-2.18-2.18-1.31.91c-.32-.17-.66-.31-1-.41l-.29-1.57h-3.08l-.29,1.57c-.35.11-.68.25-1,.41l-1.31-.91-2.18,2.18.91,1.31c-.17.32-.31.66-.41,1l-1.57.29v3.08l1.57.29c.11.35.25.68.41,1l-.91,1.31,2.18,2.18,1.31-.91c.32.17.66.31,1,.41l.29,1.57h3.08l.29-1.57c.35-.11.68-.25,1-.41l1.31.91ZM26.49,20.8l-.18.05-.26,1.44h-2.08l-.26-1.44-.18-.05c-.42-.12-.83-.29-1.22-.5l-.16-.09-1.21.83-1.47-1.47.83-1.21-.09-.16c-.22-.38-.39-.79-.5-1.22l-.05-.18-1.44-.26v-2.08l1.44-.26.05-.18c.12-.42.29-.83.5-1.22l.09-.16-.83-1.21,1.47-1.47,1.21.83.16-.09c.38-.22.79-.39,1.22-.5l.18-.05.26-1.44h2.08l.26,1.44.18.05c.42.12.83.29,1.22.5l.16.09,1.21-.83,1.47,1.47-.83,1.21.09.16c.22.38.39.79.5,1.22l.05.18,1.44.26v2.08l-1.44.26-.05.18c-.12.42-.29.83-.5,1.22l-.09.16.83,1.21-1.47,1.47-1.21-.83-.16.09c-.38.22-.79.39-1.22.5Z"/>
        <path class="cls-1" d="M25,11.98c-1.94,0-3.52,1.58-3.52,3.52s1.58,3.52,3.52,3.52,3.52-1.58,3.52-3.52-1.58-3.52-3.52-3.52ZM25,18.42c-1.61,0-2.92-1.31-2.92-2.92s1.31-2.92,2.92-2.92,2.92,1.31,2.92,2.92-1.31,2.92-2.92,2.92Z"/>
        <path class="cls-1" d="M38.78,13.52c-.45-3.12-1.96-6.02-4.28-8.18-2.38-2.22-5.46-3.55-8.7-3.73l-2.78-1.61v1.72c-3.12.45-6.02,1.96-8.18,4.28-2.22,2.38-3.55,5.46-3.73,8.7l-1.61,2.78h1.72c.45,3.12,1.96,6.02,4.28,8.18,2.38,2.22,5.46,3.55,8.7,3.73l2.78,1.61v-1.72c3.12-.45,6.02-1.96,8.18-4.28,2.22-2.38,3.55-5.46,3.73-8.7l1.61-2.78h-1.72s0,0,0,0ZM27.08,2.34c5.82.91,10.4,5.56,11.14,11.51l.03.26h1.21l-2.39,4.14-1.94-3.36-.45-.77h.93l-.06-.35c-.76-4.66-4.53-8.26-9.14-8.87l2.54-1.47-1.88-1.09ZM24.49,25.58c-4.6-.23-8.49-3.6-9.39-8.1h1.26l-1.44-2.49c.23-4.6,3.6-8.49,8.1-9.39v1.26l2.49-1.44c4.6.23,8.49,3.6,9.39,8.1h-1.26l1.44,2.49c-.23,4.6-3.6,8.49-8.1,9.39v-1.26l-2.49,1.44ZM12.93,11.54l-1.09,1.88c.91-5.82,5.56-10.4,11.51-11.14l.26-.03v-1.21l4.14,2.39-3.36,1.94-.77.45v-.93l-.35.06c-4.66.76-8.26,4.53-8.87,9.14l-1.47-2.54ZM22.92,28.66c-5.82-.91-10.4-5.56-11.14-11.51l-.03-.26h-1.21l2.39-4.14,1.94,3.36.45.77h-.93l.06.35c.76,4.66,4.53,8.26,9.14,8.87l-2.54,1.47,1.88,1.09ZM37.07,19.46l1.09-1.88c-.91,5.82-5.56,10.4-11.51,11.14l-.26.03v1.21l-4.14-2.39,3.36-1.94.77-.45v.93l.35-.06c4.66-.76,8.26-4.53,8.87-9.14l1.47,2.54Z"/>
      </g>
    </g>
  </g>
</svg>