<?xml version="1.0" encoding="UTF-8"?>
<svg id="Layer_2" xmlns="http://www.w3.org/2000/svg" xmlns:xlink="http://www.w3.org/1999/xlink" viewBox="0 0 50 31">
  <defs>
    <style>
      .cls-1 {
        fill: #fff;
      }

      .cls-2 {
        fill: none;
      }

      .cls-3 {
        clip-path: url(#clippath);
      }
    </style>
    <clipPath id="clippath">
      <rect class="cls-2" width="50" height="31"/>
    </clipPath>
  </defs>
  <g id="Layer_1-2" data-name="Layer_1">
    <g class="cls-3">
      <path class="cls-1" d="M40.5,15.5c0-3.42-1.08-6.65-3.14-9.36.66-.84.6-2.06-.17-2.83-.77-.77-1.99-.83-2.83-.17-2.71-2.06-5.94-3.14-9.36-3.14s-6.65,1.08-9.36,3.14c-.84-.66-2.06-.6-2.83.17-.77.77-.83,1.99-.17,2.83-2.06,2.71-3.14,5.94-3.14,9.36s1.08,6.65,3.14,9.36c-.66.84-.6,2.06.17,2.83.4.4.94.63,1.51.63.48,0,.94-.16,1.32-.46,2.71,2.06,5.94,3.14,9.36,3.14s6.65-1.08,9.36-3.14c.39.3.85.46,1.32.46.55,0,1.1-.21,1.51-.63.77-.77.83-1.99.17-2.83,2.06-2.71,3.14-5.94,3.14-9.36ZM35.68,3.49c.34,0,.68.13.94.39.52.52.52,1.37,0,1.89s-1.37.52-1.89,0c-.25-.25-.39-.59-.39-.94s.14-.69.39-.94c.26-.26.6-.39.94-.39h0ZM13.38,3.88c.52-.52,1.37-.52,1.89,0,.52.52.52,1.37,0,1.89-.25.25-.59.39-.94.39s-.69-.14-.94-.39c-.52-.52-.52-1.37,0-1.89h0ZM14.32,27.51c-.36,0-.69-.14-.94-.39-.52-.52-.52-1.37,0-1.89.25-.25.59-.39.94-.39s.69.14.94.39c.52.52.52,1.37,0,1.89-.25.25-.59.39-.94.39ZM16.18,27.25c.48-.82.36-1.89-.34-2.59-.4-.4-.94-.63-1.51-.63-.38,0-.75.1-1.07.29-1.93-2.56-2.95-5.6-2.95-8.82s1.02-6.27,2.94-8.82c.32.19.69.29,1.07.29.57,0,1.11-.22,1.51-.63.7-.7.81-1.77.34-2.59,2.56-1.93,5.6-2.94,8.83-2.94s6.27,1.02,8.82,2.94c-.19.32-.29.69-.29,1.07,0,.57.22,1.11.63,1.51.42.42.96.63,1.51.63.37,0,.74-.1,1.07-.29,1.93,2.56,2.95,5.6,2.95,8.83s-1.02,6.27-2.94,8.82c-.82-.48-1.89-.36-2.59.34-.7.7-.81,1.77-.34,2.59-2.56,1.93-5.6,2.95-8.82,2.95s-6.27-1.02-8.82-2.94h0ZM36.62,27.12c-.52.52-1.37.52-1.89,0s-.52-1.37,0-1.89c.26-.26.6-.39.94-.39s.68.13.94.39c.52.52.52,1.37,0,1.89h0ZM18.29,16.13c.69,0,1.25-.56,1.25-1.25,0-.2-.05-.38-.13-.55l2.79-2.78c.17.08.36.13.56.13.38,0,.72-.17.95-.44l2.27.91s0,.05,0,.07c0,.69.56,1.25,1.25,1.25s1.25-.56,1.25-1.25c0-.19-.04-.36-.11-.52l2.75-2.59c.18.09.37.15.59.15.69,0,1.25-.56,1.25-1.25s-.56-1.25-1.25-1.25-1.25.56-1.25,1.25c0,.19.04.36.11.52l-2.75,2.59c-.18-.09-.37-.15-.59-.15-.38,0-.72.17-.95.44l-2.27-.91s0-.05,0-.07c0-.69-.56-1.25-1.25-1.25s-1.25.56-1.25,1.25c0,.2.05.38.13.55l-2.79,2.78c-.17-.08-.36-.13-.56-.13-.69,0-1.25.56-1.25,1.25s.56,1.25,1.25,1.25ZM31.71,7.56c.25,0,.45.2.45.45s-.2.45-.45.45-.45-.2-.45-.45.2-.45.45-.45ZM27.24,11.78c.25,0,.45.2.45.45s-.2.45-.45.45-.45-.2-.45-.45.2-.45.45-.45ZM22.76,9.98c.25,0,.45.2.45.45s-.2.45-.45.45-.45-.2-.45-.45.2-.45.45-.45ZM18.29,14.43c.25,0,.45.2.45.45s-.2.45-.45.45-.45-.2-.45-.45c0-.25.2-.45.45-.45ZM34.35,23.85v-11.63c0-.22-.18-.4-.4-.4h-4.47c-.22,0-.4.18-.4.4v3.82h-3.67s0-1.39,0-1.39c0-.22-.18-.4-.4-.4h-4.47c-.22,0-.4.18-.4.4v4.04h-4.07c-.22,0-.4.18-.4.4v4.76c0,.22.18.4.4.4h17.9c.22,0,.4-.18.4-.4h0ZM29.88,12.61h3.67v10.83h-3.67v-10.83ZM29.07,16.83v6.61h-3.67v-6.61h3.67ZM20.93,15.04h3.67v8.4h-3.67s0-8.4,0-8.4ZM20.12,19.48v3.96h-3.67s0-3.96,0-3.96h3.67Z"/>
    </g>
  </g>
</svg>