<?xml version="1.0" encoding="UTF-8"?>
<svg id="Layer_2" xmlns="http://www.w3.org/2000/svg" xmlns:xlink="http://www.w3.org/1999/xlink" viewBox="0 0 50 31">
  <defs>
    <style>
      .cls-1 {
        fill: #fff;
        fill-rule: evenodd;
      }

      .cls-2 {
        fill: none;
      }

      .cls-3 {
        clip-path: url(#clippath);
      }
    </style>
    <clipPath id="clippath">
      <rect class="cls-2" width="50" height="31"/>
    </clipPath>
  </defs>
  <g id="Layer_1-2" data-name="Layer_1">
    <g class="cls-3">
      <path class="cls-1" d="M35.33,12.81c-.23-.12-.31-.4-.2-.63.12-.23.4-.32.63-.21l.26.13h0c-.52-1.13-1.34-2.1-2.38-2.79-1.04-.69-2.25-1.07-3.5-1.11-.26,0-.47-.22-.46-.48,0-.26.22-.47.48-.46,1.43.04,2.81.48,4,1.27,1.19.79,2.13,1.89,2.72,3.19l.08-.2h0c.04-.12.13-.21.25-.27.12-.05.25-.06.36,0,.12.04.21.14.26.25.05.12.05.25,0,.36l-.53,1.37s-.02.04-.03.06c-.06.11-.16.2-.28.23-.12.04-.25.03-.36-.03l-1.32-.68h0ZM18.39,30.06c.26,0,.47.22.46.48,0,.26-.22.47-.48.46-1.44-.04-2.85-.49-4.05-1.3-1.2-.81-2.14-1.94-2.72-3.26l-.14.29h0c-.05.12-.15.21-.27.25-.12.04-.25.04-.37-.01s-.2-.15-.24-.27c-.04-.12-.03-.25.02-.37l.63-1.34s.01-.03.02-.04h0c.14-.22.43-.29.65-.16l1.27.77h0c.22.14.29.43.16.65-.14.22-.43.29-.65.16l-.11-.07c.53,1.1,1.36,2.03,2.38,2.69,1.03.66,2.21,1.03,3.43,1.06h0ZM24.06,1.8c-1.88-.6-3.84-.89-5.81-.85-1.97-.04-3.93.25-5.81.85-1.33.47-2.15,1.07-2.15,1.67s.82,1.2,2.15,1.67c1.88.6,3.84.89,5.81.85,1.97.04,3.93-.25,5.81-.85,1.33-.47,2.15-1.07,2.15-1.67s-.82-1.2-2.15-1.67ZM24.06,11.14c-1.88.6-3.84.89-5.81.85-1.97.04-3.93-.25-5.81-.85-1.33-.47-2.15-1.07-2.15-1.67v-4.38c.56.41,1.18.73,1.84.95,1.98.63,4.05.94,6.12.9,2.08.04,4.14-.27,6.12-.9.66-.22,1.28-.54,1.84-.95v4.38c0,.6-.82,1.2-2.15,1.67h0ZM26.55,16.08s-.03-.01-.05-.02c-.18-.06-.37-.09-.56-.09h-3.83c-.64,0-1.15.52-1.15,1.15v10.45c0,.64.52,1.15,1.15,1.15h16.45c.63,0,1.15-.52,1.15-1.15v-7.31c0-.91-.74-1.64-1.65-1.65h-8.14c-.93,0-1.79-.49-2.25-1.3l-.31-.53c-.14-.25-.35-.46-.6-.61-.07-.04-.14-.07-.21-.1h0ZM20.01,24.87v2.7c0,1.16.94,2.1,2.1,2.1h16.45c1.16,0,2.1-.94,2.1-2.1v-7.31c0-1.43-1.16-2.59-2.6-2.6h-8.14c-.59.01-1.14-.31-1.43-.82l-.3-.53c-.23-.4-.55-.73-.95-.96-.02-.01-.05-.03-.08-.04V3.46c0-1.04-1.07-1.94-2.79-2.55h0C22.4.27,20.33-.03,18.26,0c-2.08-.04-4.14.27-6.12.9-1.71.61-2.78,1.51-2.79,2.55v18c0,1.05,1.07,1.95,2.79,2.57,1.98.63,4.05.94,6.12.9.37,0,.75,0,1.15-.03.2,0,.4-.02.6-.04h0ZM20.01,18.88v5.05c-.21.02-.43.03-.65.04-.34.02-.71.02-1.1.02h0c-1.97.04-3.93-.25-5.81-.85-1.33-.47-2.15-1.07-2.15-1.67v-4.38c.56.41,1.18.73,1.84.95,1.98.63,4.05.94,6.12.91.37,0,.75,0,1.15-.03.2,0,.4-.02.6-.04h0ZM26.22,11.09c-.56.41-1.18.73-1.84.95-1.98.63-4.05.94-6.12.91-2.08.04-4.14-.27-6.12-.91-.66-.22-1.28-.54-1.84-.95v4.38c0,.6.82,1.2,2.15,1.67h0c1.88.6,3.84.89,5.81.85.39,0,.76,0,1.1-.02.22-.01.44-.02.65-.04v-.8h0c0-1.16.94-2.1,2.1-2.1h3.83c.09,0,.19,0,.28.01v-3.95h0ZM24.77,26.11h0c.21.15.25.44.1.65-.15.21-.44.26-.65.12-1.49-1.06-2.06-3-1.38-4.69.68-1.69,2.44-2.7,4.25-2.42,1.81.28,3.19,1.76,3.33,3.58.15,1.82-.98,3.51-2.72,4.07l.24.15h0c.11.07.19.17.22.3.03.13,0,.26-.06.36-.07.11-.18.18-.3.21-.13.03-.26,0-.36-.07l-1.31-.83s-.04-.03-.06-.04c-.21-.16-.24-.46-.08-.66l.98-1.23c.16-.2.46-.23.66-.07.2.16.24.45.08.66l-.23.29h0c1.3-.46,2.12-1.75,1.98-3.13-.14-1.38-1.2-2.48-2.57-2.67-1.37-.19-2.69.58-3.2,1.87-.51,1.29-.07,2.75,1.06,3.55h0Z"/>
    </g>
  </g>
</svg>