<?xml version="1.0" encoding="UTF-8"?>
<svg id="Layer_2" xmlns="http://www.w3.org/2000/svg" xmlns:xlink="http://www.w3.org/1999/xlink" viewBox="0 0 50 31">
  <defs>
    <style>
      .cls-1 {
        fill: #fff;
      }

      .cls-2 {
        fill: none;
      }

      .cls-3 {
        clip-path: url(#clippath);
      }
    </style>
    <clipPath id="clippath">
      <rect class="cls-2" width="50" height="31"/>
    </clipPath>
  </defs>
  <g id="Layer_1-2" data-name="Layer_1">
    <g class="cls-3">
      <g>
        <path class="cls-1" d="M38.45,18.33l-2.16-1.24s-.11-.1-.13-.15c-.03-.06-.04-.14-.03-.22.06-.4.08-.81.08-1.2,0-.41-.03-.81-.08-1.2-.02-.16.04-.3.18-.38l2.14-1.23c.6-.35.81-1.12.46-1.72l-1.81-3.13c-.23-.39-.65-.63-1.1-.63-.22,0-.44.06-.63.17l-2.16,1.24s-.08.04-.19.04h0c-.07,0-.14-.03-.2-.08-.64-.49-1.34-.9-2.08-1.2-.15-.06-.23-.18-.23-.35v-2.46c0-.7-.57-1.26-1.26-1.26h-3.36v2.94h-4.37v-3.11c.69-.2,1.16-.82,1.16-1.54,0-.99-.84-1.6-1.61-1.6-.42,0-.82.17-1.12.47-.42.42-.57,1-.41,1.57.15.54.56.95,1.09,1.1v3.56c0,.25.2.44.44.44h4.82v2.52c-1.02.27-1.95.8-2.63,1.51h-7.19v-3.11c.69-.2,1.16-.82,1.16-1.54,0-1-.82-1.6-1.61-1.6-.42,0-.82.17-1.12.47-.42.42-.57,1-.41,1.57.15.54.56.95,1.09,1.1v3.56c0,.25.2.44.44.44h6.84c-.62.89-.99,1.93-1.07,3.01h-7.33c-.2-.69-.82-1.16-1.54-1.16-.66,0-1.22.38-1.48.99-.25.61-.12,1.28.35,1.74.3.3.7.47,1.12.47.72,0,1.35-.47,1.55-1.16h7.33c.08,1.08.44,2.11,1.06,3h-6.83c-.25,0-.44.2-.44.44v3.56c-.69.2-1.16.82-1.16,1.54,0,.45.18.86.5,1.16.3.28.71.44,1.12.44s.82-.17,1.12-.47c.42-.42.57-1,.41-1.57-.15-.54-.56-.95-1.09-1.1v-3.11l7.11-.03c.75.75,1.69,1.28,2.71,1.55v2.48h-4.81c-.25,0-.44.2-.44.44v3.56c-.69.2-1.16.82-1.16,1.54,0,.45.18.86.5,1.16.3.28.71.44,1.11.44s.82-.17,1.12-.47c.42-.42.57-1,.41-1.57-.15-.54-.56-.95-1.09-1.1v-3.11h4.37v2.97h3.36c.7,0,1.26-.57,1.26-1.26v-2.46c0-.16.09-.29.23-.35.74-.3,1.44-.71,2.08-1.2.07-.05.15-.08.23-.08.07,0,.13.02.19.05l2.14,1.23c.19.11.41.17.63.17.45,0,.87-.24,1.09-.63l1.81-3.13c.35-.6.14-1.37-.46-1.72ZM21.58,29.9c-.17.17-.37.21-.5.21-.35,0-.72-.27-.72-.71s.37-.71.72-.71c.13,0,.32.04.5.21.28.28.28.73,0,1.01ZM16.13,25c-.17.17-.37.21-.5.21-.35,0-.72-.27-.72-.71s.37-.71.72-.71c.13,0,.32.04.5.21.28.28.28.73,0,1.01ZM15.63,5.81c.13,0,.32.04.5.21.21.21.26.5.15.78-.11.27-.36.44-.66.44-.39,0-.71-.32-.71-.71,0-.45.37-.71.72-.71ZM21.08.89c.13,0,.32.04.5.21.21.21.26.5.15.77-.11.27-.36.44-.66.44-.39,0-.71-.32-.71-.71,0-.45.37-.71.72-.71ZM36.33,22.74c-.07.12-.19.19-.33.19-.07,0-.13-.02-.19-.05l-2.14-1.23c-.2-.11-.41-.17-.63-.17-.28,0-.55.09-.77.27-.57.44-1.2.81-1.87,1.08-.48.2-.79.65-.79,1.17v2.46c0,.21-.17.38-.38.38h-2.47v-5.29c.23.02.45.04.67.04,3.34,0,6.05-2.72,6.05-6.06s-2.72-6.06-6.06-6.06c-.22,0-.44.01-.66.04v-5.29h2.47c.21,0,.38.17.38.37v2.46c0,.52.31.98.79,1.17.67.27,1.29.63,1.87,1.08.23.18.49.27.77.27.22,0,.44-.06.63-.17l2.17-1.24s.08-.04.15-.04c.03,0,.07,0,.1.01.1.03.18.09.23.17l1.81,3.13c.05.09.06.19.04.29s-.09.18-.17.23l-2.14,1.23c-.45.26-.69.75-.62,1.26.05.36.07.73.07,1.08,0,.36-.03.73-.07,1.08-.07.52.17,1,.62,1.26l2.14,1.23c.18.1.24.34.14.52l-1.81,3.13ZM27.44,10.35c1.38,0,2.68.54,3.66,1.51,2.01,2.02,2.01,5.29,0,7.31-.98.98-2.28,1.51-3.66,1.51s-2.68-.54-3.68-1.54c-.02-.03-.05-.06-.09-.09-1.92-2.05-1.87-5.2.12-7.19.98-.98,2.27-1.51,3.66-1.51ZM11.81,15.52c0-.45.37-.71.72-.71.13,0,.32.04.5.21.13.13.21.31.21.5s-.07.37-.21.5c-.17.17-.37.21-.5.21-.35,0-.72-.27-.72-.71Z"/>
        <path class="cls-1" d="M24.34,17.37h2.73v1.7c0,.12.05.24.14.32.08.08.2.12.31.12s.23-.05.31-.13l3.56-3.56c.17-.17.17-.46,0-.63l-3.56-3.56c-.08-.09-.2-.13-.31-.13-.22,0-.45.17-.45.44v1.7h-2.73c-.25,0-.44.2-.44.44v2.83c0,.25.2.44.44.44ZM27.96,14.1v-1.07l2.49,2.49-2.49,2.49v-1.07c0-.25-.2-.44-.44-.44h-2.73v-1.94h2.73c.25,0,.44-.2.44-.44Z"/>
      </g>
    </g>
  </g>
</svg>