<?xml version="1.0" encoding="UTF-8"?>
<svg id="Layer_2" xmlns="http://www.w3.org/2000/svg" xmlns:xlink="http://www.w3.org/1999/xlink" viewBox="0 0 50 31">
  <defs>
    <style>
      .cls-1 {
        fill: #fff;
        fill-rule: evenodd;
      }

      .cls-2 {
        fill: none;
      }

      .cls-3 {
        clip-path: url(#clippath);
      }
    </style>
    <clipPath id="clippath">
      <rect class="cls-2" width="50" height="31"/>
    </clipPath>
  </defs>
  <g id="Layer_1-2" data-name="Layer_1">
    <g class="cls-3">
      <path class="cls-1" d="M19.11,7.48c-.6.04-1.07.53-1.07,1.14v1.2h-5.69c-.23-.7-.9-1.22-1.68-1.22-.98,0-1.77.79-1.77,1.77s.79,1.77,1.77,1.77c.78,0,1.45-.51,1.68-1.22h5.69v3.66h-5.69c-.23-.71-.9-1.22-1.68-1.22-.98,0-1.77.79-1.77,1.77s.79,1.77,1.77,1.77c.78,0,1.45-.51,1.68-1.22h5.69v1.2c0,.3.12.59.33.81.22.22.51.34.81.34h3.7v4.48l-.1-.15c-.38-.56-1-.93-1.68-1-.68-.07-1.35.18-1.83.66h0c-.73.73-.85,1.87-.3,2.74l3.25,5.12c.43.68,1.19,1.1,2,1.1h6.56c1.31,0,2.36-1.06,2.36-2.36v-4.72c0-1.69-1.11-3.17-2.73-3.65l-3.13-.91v-1.3h3.53c.3,0,.59-.12.81-.34.22-.21.34-.51.34-.81v-1.2h5.69c.23.71.9,1.22,1.68,1.22.98,0,1.77-.79,1.77-1.77s-.79-1.77-1.77-1.77c-.78,0-1.45.51-1.68,1.22h-5.69v-3.66h5.69c.23.71.9,1.22,1.68,1.22.98,0,1.77-.79,1.77-1.77s-.79-1.77-1.77-1.77c-.78,0-1.45.51-1.68,1.22h-5.69v-1.2c0-.61-.47-1.1-1.07-1.14v-1.79c0-3.14-2.55-5.68-5.69-5.68h0c-1.61,0-3.16.64-4.3,1.78-1.14,1.14-1.78,2.69-1.78,4.3v1.39ZM22.98,24.65c.14.2.39.29.62.22.23-.07.39-.29.39-.53v-9.94c0-.29.11-.56.32-.77.2-.2.48-.32.77-.32h0c.6,0,1.09.49,1.09,1.09v5.36c0,.25.16.46.4.53l3.53,1.03c1.15.34,1.93,1.39,1.93,2.58v4.72c0,.69-.56,1.25-1.25,1.25h-6.56c-.43,0-.83-.22-1.06-.58l-3.25-5.12c-.27-.43-.21-1,.15-1.36h0c.25-.25.59-.37.94-.34.35.03.67.22.86.51.56.83,1.11,1.65,1.11,1.65h0ZM27.28,16.94h3.53s.02,0,.02,0c0,0,0-.02,0-.02v-8.29s-.02-.03-.03-.03h-11.62s-.03.02-.03.03v8.29s0,.02,0,.02c0,0,.02,0,.02,0h3.7v-2.54c0-.58.23-1.14.64-1.55.41-.41.97-.64,1.55-.64h0c1.21,0,2.2.98,2.2,2.2v2.54ZM38.66,15.15c0-.36.3-.66.66-.66s.66.3.66.66-.3.66-.66.66-.66-.3-.66-.66ZM11.33,15.15c0,.36-.3.66-.66.66s-.66-.3-.66-.66.3-.66.66-.66.66.3.66.66ZM38.66,10.37c0-.36.3-.66.66-.66s.66.3.66.66-.3.66-.66.66-.66-.29-.66-.66ZM10.67,11.04c-.36,0-.66-.29-.66-.66s.3-.66.66-.66.66.3.66.66-.3.66-.66.66ZM29.77,7.47v-1.79c0-2.53-2.05-4.57-4.58-4.57h0c-1.32,0-2.58.52-3.52,1.46-.93.93-1.46,2.2-1.46,3.52v1.39h9.55Z"/>
    </g>
  </g>
</svg>