<?xml version="1.0" encoding="UTF-8"?>
<svg id="Layer_2" xmlns="http://www.w3.org/2000/svg" xmlns:xlink="http://www.w3.org/1999/xlink" viewBox="0 0 50 31">
  <defs>
    <style>
      .cls-1 {
        fill: #fff;
      }

      .cls-2 {
        fill: none;
      }

      .cls-3 {
        clip-path: url(#clippath);
      }
    </style>
    <clipPath id="clippath">
      <rect class="cls-2" width="50" height="31"/>
    </clipPath>
  </defs>
  <g id="Layer_1-2" data-name="Layer_1">
    <g class="cls-3">
      <g>
        <path class="cls-1" d="M13.55,20.99s0,.02,0,.02c0,0,0,0,0,0,0,0,0,0,0,0Z"/>
        <path class="cls-1" d="M19.86,26.94s-.01,0,0,0h0Z"/>
        <path class="cls-1" d="M37.52,19.49s.01,0,.04,0c0,0,0,0,0,0-.01,0-.02,0-.03,0Z"/>
        <path class="cls-1" d="M40.49,13.03c-.05-.87-.75-1.49-1.62-1.49-.44,0-.88.01-1.31,0-.01,0,0,0-.02,0,0,0,0,0-.01,0-.04-.01-.08-.02-.13-.03-.05-.01-.1-.03-.16-.05-.02,0-.05-.02-.07-.03-.04-.02-.07-.04-.11-.06-.03-.02-.06-.03-.08-.06-.01,0-.03-.02-.05-.04-.05-.05-.1-.09-.15-.14-.03-.03-.15-.2-.07-.07-.04-.07-.09-.13-.13-.2-.01-.02-.03-.05-.04-.07,0-.01-.01-.03-.02-.04,0,0,0,0,0,0-.03-.07-.05-.15-.07-.22,0-.03-.02-.12-.02-.14,0-.06-.01-.12,0-.18,0-.03,0-.05,0-.08,0-.02.02-.09.02-.11.01-.05.02-.11.04-.16.01-.03.02-.07.03-.1,0-.01,0,0,0-.02,0,0,0,0,0,0,.04-.08.08-.15.13-.22.01-.03.03-.05.05-.07-.07.11.04-.04.06-.06.28-.31.59-.59.89-.89.61-.62.64-1.58.03-2.22-.52-.54-1.06-1.06-1.6-1.6-.6-.6-1.2-1.2-1.8-1.8-.54-.54-1.4-.66-2.03-.19-.37.28-.68.64-1,.97-.06.06-.12.11-.18.17-.01,0,0,0-.01.01,0,0,0,0-.02,0-.04.02-.07.05-.11.07-.03.01-.05.03-.07.04-.02,0-.08.03-.1.04-.06.02-.11.04-.17.05-.03,0-.07.01-.1.02,0,0,0,0-.01,0h0c-.07,0-.14.01-.22,0-.03,0-.07,0-.1,0-.02,0-.04,0-.05,0-.06-.01-.12-.02-.18-.04-.04-.01-.07-.02-.11-.04-.01,0-.03-.01-.05-.02-.05-.03-.11-.05-.16-.08-.03-.02-.06-.03-.08-.05-.02-.01-.04-.03-.06-.04-.04-.04-.09-.08-.14-.12-.03-.03-.05-.06-.08-.09,0,0,0,0,0,0,0,0,0,0,0,0-.04-.06-.07-.11-.11-.17-.02-.04-.04-.07-.05-.11,0-.02-.01-.04-.02-.06-.02-.07-.04-.14-.06-.21,0-.02-.01-.08-.01-.08,0-.03,0-.05,0-.08,0-.07,0-.15,0-.22v-.76c0-.24.01-.48-.05-.72-.13-.49-.5-.87-.96-1.05-.31-.12-.64-.1-.97-.1h-4.22c-.53,0-1.03.13-1.38.56-.25.31-.36.66-.36,1.05v.72c0,.19,0,.38,0,.56,0,.03-.03.17,0,.03,0,.03-.01.06-.01.08-.02.08-.04.16-.07.25,0,.01,0,0,0,.02,0,0,0,0,0,0-.01.03-.02.05-.04.07-.04.07-.08.14-.13.2-.01.02-.07.09-.09.11-.04.04-.09.09-.14.13-.02,0-.09.07-.12.08-.03.02-.07.04-.1.06-.01,0-.05.02-.08.03-.11.04-.23.07-.35.1-.03,0-.11.01-.13.02-.08,0-.16,0-.24,0-.03,0-.11-.02-.14-.03-.04-.01-.08-.02-.12-.03-.01,0-.04-.02-.06-.02-.05-.02-.1-.05-.15-.08-.04-.02-.07-.05-.11-.07-.02-.02-.03-.02-.03-.02-.01,0-.02-.02-.03-.03-.14-.12-.27-.26-.4-.4-.43-.43-.81-.91-1.45-.99-.57-.08-1.04.18-1.43.57l-.84.84c-.72.72-1.43,1.43-2.15,2.15-.27.27-.53.51-.66.88-.16.45-.1.98.18,1.37.13.19.3.35.46.51l.52.52c.05.05.1.1.15.16,0,0,.02.02.03.04.01.02.04.06.04.06.05.07.08.14.12.22,0,0,.04.12.05.14.01.04.06.29.04.13,0,.07.01.13.01.2,0,.04,0,.08,0,.12,0,.02,0,.07-.01.1-.02.11-.05.22-.09.33-.01.02-.04.1-.05.12-.02.03-.04.07-.06.1,0,.01-.04.05-.05.08-.03.04-.07.08-.11.12-.03.03-.06.06-.08.08-.01,0-.04.03-.05.04-.04.03-.08.06-.13.08-.04.02-.07.04-.11.06,0,0-.02,0-.02.01,0,0,0,0-.01,0-.07.01-.15.05-.22.07-.04,0-.07.02-.11.02,0,0-.02,0-.03,0-.08,0-.17,0-.25,0-.46,0-.96-.05-1.42.03-.75.13-1.24.82-1.24,1.56v4.08c0,.24,0,.48,0,.72.02.88.72,1.54,1.59,1.55.42,0,.84-.02,1.25,0,.03,0,.06,0,.09,0,.01,0,0,0,.02,0,0,0,0,0,.01,0,.08.02.17.04.25.06.03,0,.05.02.08.03-.13-.04,0,0,.02.01.08.04.15.09.23.14,0,0,.02.01.03.02.02.02.04.03.06.05.06.05.1.1.15.16,0,0,0,.01.01.02.02.03.04.05.05.08.04.07.08.14.11.21,0,0,0,0,0,0,0,0,0,0,0,0,.01.04.03.07.04.11.02.07.04.14.05.21,0,0,0,.01,0,.02,0,.03,0,.06,0,.09,0,.08,0,.16,0,.24,0,.01,0,.04-.01.06,0-.01,0-.02.01-.05,0,.02,0,.04-.01.06,0,0,0,0,0,0,0,.02,0,.04-.01.05-.01.07-.04.13-.06.2,0,.01,0,0,0,.02,0,0,0,0,0,0-.02.04-.04.08-.06.11-.02.04-.04.07-.07.11,0,0-.03.04-.04.06-.27.33-.61.62-.91.92-.29.29-.48.63-.52,1.04-.04.46.14.89.45,1.22.18.18.36.36.54.54l2.22,2.22c.21.21.43.43.64.64.6.59,1.54.63,2.17.06.3-.27.57-.57.86-.86.06-.06.11-.11.17-.16.02-.01.05-.04.06-.04.04-.02.07-.04.11-.07s.07-.04.11-.06c0,0,0,0,0,0,0,0,0,0,.01,0,.08-.02.15-.05.24-.07.03,0,.17-.02.01,0,.03,0,.05,0,.08,0,.08,0,.16,0,.24,0,.04,0,.08,0,.12.01-.03,0-.05,0-.06,0,.02,0,.05,0,.07,0,.08.01.15.04.23.06.03,0,.06.02.08.03,0,0,0,0,0,0,.07.04.14.07.21.11.02.02.05.03.07.05,0,0,.02.01.04.03.06.05.12.11.17.17,0,0,.02.02.03.04.01.02.03.03.03.04.04.07.09.14.12.21,0,.01.02.04.02.06,0,.03.02.05.03.08.02.07.04.14.05.21,0,0,.01.14.01.16v.96c0,.25-.01.5.06.74.15.48.52.86.99,1.02.3.11.64.08.96.08h4.41c.51-.02.95-.26,1.24-.67.35-.49.27-1.12.27-1.69,0-.19,0-.38,0-.57,0-.01,0,0,0-.02,0,0,0,0,0-.01.01-.04.02-.08.03-.13.01-.05.03-.1.05-.16,0-.02.02-.05.03-.07.02-.04.04-.07.06-.11.02-.03.04-.06.06-.08,0-.01.02-.03.04-.05.05-.05.09-.1.14-.15.03-.03.19-.15.07-.07.07-.04.13-.09.2-.13.03-.01.06-.03.09-.04.02,0,.01,0,.02-.01,0,0,0,0,0,0,.07-.03.15-.05.22-.07.03,0,.12-.02.14-.02.06,0,.12-.01.18,0,.03,0,.05,0,.08,0,.02,0,.1.02.11.02.06.01.12.03.18.04.03,0,.05.02.08.03.01,0,0,0,.02,0,0,0,0,0,0,0,.08.04.15.08.22.13.03.01.05.03.07.05-.11-.07.04.04.06.06.14.13.26.26.39.39l.5.5c.29.29.64.46,1.05.48.54.03.96-.25,1.33-.61l2.03-2.03.96-.96c.29-.29.57-.56.68-.96.15-.54-.02-1.1-.4-1.5-.13-.14-.27-.27-.4-.4-.15-.15-.3-.29-.45-.45-.04-.04-.07-.07-.1-.11,0-.01-.02-.02-.03-.03,0,0-.04-.06-.05-.07-.05-.07-.08-.14-.12-.22-.02-.05-.03-.09-.05-.14-.01-.04-.06-.29-.04-.13,0-.07-.01-.13-.01-.2,0-.08,0-.15.01-.22.01-.05.02-.09.03-.14.02-.07.05-.13.06-.2,0,0,0,0,0,0,.02-.03.03-.07.06-.11.03-.06.08-.12.11-.18,0,0,0,0,0,0,.04-.04.07-.08.1-.11.03-.03.06-.06.08-.08,0,0,.02-.02.04-.04.02-.01.03-.03.04-.03.03-.02.07-.04.1-.07s.07-.04.11-.06c0,0,.02,0,.04-.02.02,0,.06-.02.06-.02.06-.02.11-.03.16-.05.02,0,.05-.01.07-.01,0,0,.01,0,.03,0,0,0,.02,0,.02,0-.01,0-.01,0-.02,0,0,0,0,0,0,0,.06,0,.13,0,.19,0h.22c.54,0,1.14.08,1.64-.15.6-.27.88-.88.88-1.5v-4.74s0-.03,0-.05ZM33.34,3.51s.02.01,0,0h0ZM29.47,3.8s0,0,0,0c.03.03.04.03,0,0ZM12.47,11.51s.01,0,0,0h0ZM13.07,19.74s.02.02,0,0h0ZM13.29,19.97s.03.05,0,0h0ZM13.56,20.61s0,.05,0,0h0ZM36.44,20.64s0,.01,0,0h0ZM39.39,17.84v.08h0s-.01.1-.01.1c0,.02-.01.04-.02.06,0,0-.03.07-.04.08,0,.02,0,.02,0,.02,0,0,0,0-.02.02-.02.02-.04.04-.07.07-.01.01,0,.01-.01.02,0,0,0,0-.03,0-.01,0-.09.04-.08.04-.02,0-.04.01-.06.02-.01,0-.07,0-.1,0-.4,0-.79,0-1.19,0-.71,0-1.41.31-1.86.87-.47.59-.66,1.34-.5,2.09.13.59.5,1.01.91,1.42.18.18.35.35.53.53.02.02.04.04.06.06.01.01.08.1.05.04.02.03.04.07.06.1-.04-.08.03.09.03.09,0,.03.01.03.01.04,0,0,0,.01,0,.04,0,.01,0,.07,0,.09-.03.13-.06.17-.18.29-.09.09-.18.18-.28.28-.32.32-.65.65-.97.97-.66.66-1.32,1.32-1.99,1.99-.04.04-.1.09-.14.14-.01.01-.1.09-.04.04.08-.07-.04.03-.06.03-.02.01-.02.01-.02.02-.04.01-.08.03-.12.04-.02,0-.01,0-.02,0,0,0,0,0-.03,0-.01,0-.08,0-.09,0-.02,0-.04,0-.05-.01-.03,0-.06-.02-.1-.03.06.02.06.02,0-.01-.01,0-.13-.11-.06-.03.02.02-.03-.03-.04-.04l-.04-.04c-.08-.08-.15-.15-.23-.23l-.51-.51c-.47-.47-1.05-.77-1.72-.78-.7-.02-1.42.29-1.87.82-.43.5-.6,1.09-.6,1.74v1.06s-.01.08-.01.09c0,.02-.01.04-.02.06,0,0-.03.07-.04.08,0,.02,0,.02,0,.03,0,0,0,0-.02.01-.03.03-.06.06-.09.09,0,0,0,0-.01,0-.01,0-.08.04-.08.04-.02,0-.04.01-.06.02,0,0-.08.01-.1.01h-4.85s-.17-.03-.06,0c-.03,0-.06-.02-.1-.03-.02,0-.03,0-.03-.01-.02,0-.04-.02-.06-.03-.02,0-.02,0-.02,0,0,0,0,0-.02-.02l-.07-.07s-.01-.01-.02-.02c0,0,0,0,0-.02,0-.01-.04-.09-.04-.08,0-.02-.01-.05-.02-.07,0,0,0,0,0,0,0,0,0,0,0-.02v-.77c0-.58,0-1.14-.29-1.67-.33-.61-.97-1.08-1.66-1.2-.77-.14-1.52.07-2.1.6-.31.28-.59.59-.88.88l-.04.04s-.02.02-.03.03c-.02.01-.04.03-.06.04-.02.01-.02.02-.03.02,0,0,0,0-.03,0-.04.01-.08.02-.11.03-.02,0-.04,0-.06,0-.02,0-.04,0-.05,0,0,0,0,0-.02,0-.04-.01-.07-.02-.11-.03-.01,0-.05-.03-.06-.03-.02-.01-.1-.08-.03-.02.06.06-.03-.03-.04-.04-.01-.02-.03-.03-.05-.05-.23-.23-.46-.46-.68-.68-.73-.73-1.46-1.46-2.19-2.19-.17-.17-.33-.34-.5-.5-.03-.03-.06-.07-.03-.03-.03-.04-.05-.08-.07-.13,0-.02-.03-.1-.03-.1.03.11,0-.19,0-.1,0-.06.03-.12.05-.17-.04.1.1-.13.04-.06.11-.13.25-.25.37-.37.37-.37.79-.73,1.01-1.21.31-.69.29-1.46-.05-2.14-.31-.63-.94-1.12-1.63-1.25-.49-.09-1-.05-1.5-.05h-.21s-.18-.03-.07,0c-.04-.01-.08-.02-.12-.03,0,0,0,0,0,0-.02,0-.04-.02-.06-.03-.02,0-.02,0-.03,0,0,0,0,0-.01-.02-.03-.03-.07-.07-.1-.1.09.11-.07-.18-.03-.04-.02-.05-.03-.09-.04-.13,0,0,0,0,0-.01v-.06c0-.26,0-.53,0-.79v-3.11c0-.3,0-.6,0-.9v-.04s.02-.1.01-.1c0-.02,0-.03.01-.05,0-.02,0-.02,0-.03,0,0,0,0,.02-.02.01-.03.03-.05.04-.07,0,0,0,0,0-.01.02-.02.04-.04.07-.07.01-.01.01-.01.02-.02,0,0,0,0,.02,0,.01,0,.08-.04.08-.04.02,0,.05-.01.07-.02,0,0,0,0,0,0,0,0,0,0,.02,0h.13c.43,0,.88.03,1.31,0,.77-.07,1.44-.46,1.86-1.12.37-.59.48-1.36.26-2.02-.19-.56-.58-.95-.99-1.36-.15-.15-.3-.3-.45-.45-.02-.02-.09-.1-.03-.02-.02-.03-.04-.06-.06-.08-.01-.02-.02-.02-.02-.02,0,0,0,0,0-.03-.01-.04-.02-.08-.03-.12,0,0,0-.02,0-.02,0-.01,0-.06,0-.09,0-.04.02-.08.03-.12,0-.02.02-.05.03-.06.01-.02.08-.1.02-.03l.04-.04s.04-.04.06-.06c.1-.1.19-.19.28-.28l2.15-2.15c.27-.27.54-.54.81-.81.04-.04.09-.08.13-.13,0,0,.02-.02.03-.03.02-.02.05-.03.07-.04,0,0,.07-.03.09-.04,0,0,.06-.01.08-.02.03,0,.06,0,.06,0,.02,0,.02,0,.03,0,0,0,0,0,.02,0,.04.01.07.02.11.03,0,0,.07.04.08.05.02.01.02,0,.02.01,0,0,0,.01.02.03,0,0,0,0,0,0,.01.02.03.03.05.05.08.08.16.16.24.24.17.17.34.34.51.51.47.47,1.08.76,1.76.76.69,0,1.39-.32,1.84-.85.42-.51.57-1.1.57-1.76v-1.07s0-.02,0-.02c0,0,0,0,.01-.03,0-.03.01-.05.02-.07,0,0,0,0,0-.02,0,0,.01-.02.03-.05.01-.01.06-.07.06-.07,0,0,.04-.03.06-.05.03-.02.06-.04.1-.06-.13.06.2-.03.05-.02.04,0,.07,0,.11,0h4.9s.02,0,.03,0c0,0,0,0,.03.01.01,0,.1.04.09.03.02,0,.03.02.05.03,0,0,.06.04.07.05.01.01.05.06.05.07.01.02.03.04.04.07,0,0,0,0,0,0,0,0,0,0,0,.02,0,.01.01.08.02.09,0,.02,0,.04,0,.06v.78c0,.58.02,1.13.32,1.65.35.6.98,1.04,1.66,1.15.78.13,1.55-.1,2.12-.65.29-.28.56-.57.85-.85,0,0,.01-.01.03-.03.02-.02.02-.03.02-.03,0,0,0,0,.02-.01.01,0,.16-.08.05-.04.03-.01.06-.02.1-.03.02,0,.1-.01.09-.01.03,0,.07,0,.1,0-.12,0,.04.01.07.02,0,0,.02,0,.03.01.03.02.07.04.1.06,0,0,.03.02.04.03l.06.06c.61.61,1.23,1.23,1.84,1.84.51.51,1,1.05,1.53,1.53.01.01.1.1.04.04-.07-.08.03.04.03.06.01.01.01.01.02.02,0,0,0,0,0,0,.01.04.02.08.04.12,0,.02,0,.01,0,.02,0,0,0,0,0,.03,0,.01,0,.08,0,.09,0,.02,0,.04-.01.05,0,.03-.02.06-.03.1.02-.06.02-.06-.01,0,0,.01-.11.13-.03.06.02-.02-.03.03-.04.04l-.04.04c-.08.08-.15.15-.23.23-.35.35-.77.7-1.01,1.15-.71,1.34.03,3.11,1.52,3.47.47.12.98.07,1.46.07h.41s.02,0,.02,0c0,0,0,0,.03.01,0,0,.05.02.08.03.02.01.06.03.05.03.02,0,.02,0,.02,0,0,0,0,0,.02.02.03.03.07.07.1.1-.09-.11.07.18.03.05.02.05.03.09.04.14-.03-.11,0,.04,0,.07v4.76Z"/>
        <path class="cls-1" d="M25.84,15.95c1.88-.38,3.24-2.12,3.26-4.02,0-.01,0-.02,0-.03-.02-1.72-1.12-3.25-2.73-3.84-1.58-.58-3.48-.06-4.53,1.25-1.08,1.34-1.26,3.24-.36,4.74.9,1.49,2.67,2.24,4.38,1.9ZM25.38,14.92s-.02,0,0,0h0ZM24.6,8.95s.03,0,0,0h0ZM21.99,11.67s0-.08.01-.13c0-.02,0-.01,0-.01,0,0,0,0,0-.02.02-.1.04-.2.06-.29.04-.16.09-.31.15-.46,0-.01,0-.02.01-.03.02-.04.03-.07.05-.11.04-.08.09-.17.14-.25.04-.07.08-.14.13-.2,0,0,.02-.03.04-.05.02-.02.05-.07.05-.06.11-.14.24-.26.36-.38.06-.05.12-.11.18-.15-.09.07.09-.06.12-.08.15-.1.3-.18.46-.26,0,0,.06-.02.08-.03.02,0,.04-.01.06-.02.08-.03.15-.06.23-.08s.16-.04.24-.06c.05-.01.1-.02.15-.03,0,0,.03,0,.05,0,.17-.02.34-.03.51-.02.08,0,.17.01.25.01.02,0,.01,0,.02,0,0,0,0,0,.03,0,.05,0,.1.02.15.03.2.04.38.1.57.17.02,0,.02,0,.03.01.05.02.1.05.15.07.08.04.17.09.25.14.08.05.16.11.24.16,0,0,.02.02.03.02.03.03.07.05.1.08.14.12.27.25.39.39.02.03.05.06.07.09.01.02.04.06.05.07.06.08.11.16.15.24s.1.17.14.26c.02.03.03.07.05.1,0,.03.02.05.03.08.07.18.12.38.16.57,0,.03.01.07.02.1q.01.07,0,0s0,.07.01.1c0,.1.01.2.01.31,0,.08,0,.17,0,.26,0,.04,0,.07-.01.11,0,0,0,.05,0,.07-.03.17-.07.34-.12.5-.01.05-.03.09-.05.14,0,0-.01.04-.02.06-.01.02-.03.08-.03.07-.02.04-.03.07-.05.11-.08.16-.17.31-.27.45,0,0-.02.02-.03.04-.02.03-.04.05-.07.08-.05.06-.1.12-.16.18-.06.06-.13.13-.19.18-.02.02-.05.04-.07.06-.01,0-.07.06-.09.08-.02.02-.06.04-.06.04-.03.02-.07.04-.1.07-.07.05-.15.09-.23.14-.07.04-.14.07-.22.11-.02,0-.04.02-.05.02,0,0-.09.04-.11.04-.16.06-.33.1-.5.14-.03,0-.07.01-.1.02,0,0-.03,0-.06,0-.1.01-.2.02-.3.02-.17,0-.34,0-.51-.02.02,0,.11.02,0,0-.05,0-.1-.01-.15-.03-.1-.02-.2-.04-.29-.07-.08-.02-.15-.05-.23-.08-.02,0-.04-.01-.06-.02-.02,0-.07-.03-.08-.03-.16-.07-.32-.16-.46-.26-.03-.02-.21-.15-.12-.08-.06-.05-.13-.1-.18-.15-.13-.12-.25-.24-.36-.38-.01-.01-.02-.03-.03-.04,0,0-.05-.07-.06-.08-.04-.07-.09-.13-.13-.2-.04-.07-.08-.14-.12-.21-.02-.04-.04-.07-.06-.11,0-.01-.04-.08-.04-.1-.05-.14-.1-.29-.14-.44-.02-.08-.04-.16-.05-.24,0,0,0-.05-.01-.08,0,.04-.01-.11-.01-.13-.01-.17-.01-.34,0-.51Z"/>
        <path class="cls-1" d="M30.03,17.92c-.44-.37-.93-.66-1.48-.85-.24-.08-.49-.15-.75-.18-.33-.05-.84-.16-1.1.1-.11.11-.21.25-.31.37-.22.26-.45.53-.67.79-.25.3-.5.6-.75.9-.19-.22-.37-.45-.56-.67-.38-.45-.74-.93-1.14-1.36-.17-.18-.39-.2-.62-.19-.29.01-.59.06-.87.13-.53.13-1.04.36-1.48.67-.91.64-1.59,1.6-1.83,2.7-.17.75-.11,1.53-.11,2.3,0,.29.25.57.55.55.31,0,.56-.22.56-.54v-1.28c0-.11,0-.21.01-.32,0-.03.01-.13.01-.14,0-.06.02-.13.03-.19.03-.13.06-.26.1-.39.02-.06.04-.13.06-.19.01-.03.02-.06.03-.09,0,0,0,0,0,0,0,0,0,0,0-.02.12-.25.25-.48.41-.71.02-.03.01-.02.02-.02.01-.02.03-.04.04-.05.04-.05.08-.1.13-.15.1-.11.2-.21.31-.31.05-.04.1-.08.15-.13.01,0,0,0,.01,0,.02-.02.05-.03.07-.05.12-.08.24-.16.37-.23.06-.04.13-.07.2-.1.02,0,.11-.05.14-.06.14-.05.28-.1.42-.14.15-.04.3-.07.46-.09,0,0,0,0,.01,0,.05,0,.1-.01.15-.01,0,0,0,0,0,0,.57.68,1.14,1.36,1.71,2.04.09.11.18.21.27.32.18.21.6.21.78,0,.61-.74,1.23-1.47,1.85-2.21.04-.05.08-.1.12-.15.06,0,.11,0,.17,0,0,0,0,0,.01,0,.03,0,.06.01.09.01.08.01.17.03.25.05.13.03.25.07.38.11.06.02.12.04.18.07-.1-.04-.01,0,0,0,.04.02.09.04.13.06.12.06.23.12.34.19.06.03.11.07.16.11.03.02.05.04.08.06.02.01.02.01.02.02.21.17.41.36.58.57.02.02.04.04.05.06,0,0,0,0,0,.01.04.05.07.1.11.16.08.11.15.23.21.35.03.07.07.13.1.2,0,0,.02.03.02.05,0,.02.02.04.02.04.05.13.09.26.13.4.03.13.06.26.08.39.02.11,0,.03,0,0,0,.03,0,.07.01.1,0,.08.01.17.01.26,0,.12,0,.24,0,.36v1.04c0,.29.25.57.55.55.3-.01.55-.24.55-.55,0-.6.04-1.21-.03-1.8-.14-1.11-.67-2.17-1.53-2.9ZM27.53,17.96c.06,0,.03,0,0,0h0Z"/>
      </g>
    </g>
  </g>
</svg>