<svg id="lybrate" xmlns="http://www.w3.org/2000/svg" xmlns:xlink="http://www.w3.org/1999/xlink" viewBox="0 0 196 47.21"><defs><style>.cls-1{fill:none;}.cls-2{clip-path:url(#clip-path);}.cls-3{fill:#c82506;}.cls-4{fill:#542338;}.cls-5{fill:#fff;}</style><clipPath id="clip-path" transform="translate(0 -36.4)"><rect class="cls-1" width="196" height="120"/></clipPath></defs><g class="cls-2"><path class="cls-3" d="M166.84,62.45s-10.62,12-15.85,17.16a5.88,5.88,0,0,1-8.64-.06q-7.75-7.67-15.45-15.39c-2.67-2.68-2.63-6.16.06-8.86Q134.61,47.65,142.3,40a5.91,5.91,0,0,1,8.75-.07c5.18,5.11,10.31,10.26,15.47,15.38C170.8,58.94,166.84,62.45,166.84,62.45Zm-17.49-5.09c0-2.7,0-5.14,0-7.59,0-1.89-1.16-3.05-2.75-3s-2.46,1.17-2.47,3c0,2.45,0,4.89,0,7.53-2.62,0-5.06,0-7.5,0-2,0-3.25,1.08-3.19,2.71s1.26,2.51,3.2,2.52c2.44,0,4.88,0,7.49,0,0,2.77-.13,5.39.07,8a3.28,3.28,0,0,0,1.59,2.33,3,3,0,0,0,2.64-.49,3.77,3.77,0,0,0,.9-2.48c.11-2.39,0-4.78,0-7.34h7.36c2.07,0,3.26-1,3.24-2.62s-1.21-2.6-3.28-2.61C154.33,57.35,152,57.36,149.35,57.36Z" transform="translate(0 -36.4)"/><path class="cls-4" d="M49.15,40.15H44.92V36.41h9.21V50.3a10.11,10.11,0,0,1,6-4.09c5.8-1.22,11,1.55,12.92,7.14a16.83,16.83,0,0,1-1,14.56c-3.66,6.38-13.48,7.47-17.63,1.56-.05-.07-.17-.09-.42-.22v3.34H49.15V40.15ZM69,59.78a12.13,12.13,0,0,0-1.53-6,6.91,6.91,0,0,0-12.1.11,11.42,11.42,0,0,0,.13,11.6,6.91,6.91,0,0,0,8.28,3.15C67.35,67.37,69,63.33,69,59.81Z" transform="translate(0 -36.4)"/><path class="cls-4" d="M15.37,50.33V46.68H27.25v3.64l-3.36.19,6.43,17.21c2.11-5.65,4.22-11.32,6.41-17.23l-3.32-.15c0-.93.05-3.69.05-3.69l10.37-.08c.82,0,1.22.25,1.17,1.13s0,2.43,0,2.43l-.43.07c-2.64.06-3.31,1.18-4.09,3.28-3,7.87-6.07,15.68-9.19,23.48-2.37,5.91-8.25,8.22-13.82,5.53-.29-.14-.55-.34-1-.58l1.62-3.64c.6.27,1.08.51,1.57.7a5.05,5.05,0,0,0,6.51-2.23c1.19-2,1.73-3.8.63-6.23-2.65-5.86-5-11.89-7.26-17.9C19,50.94,18.16,50,16.3,50.39A3.57,3.57,0,0,1,15.37,50.33Z" transform="translate(0 -36.4)"/><path class="cls-4" d="M103.07,52.53l-1.91-3.37c3.76-3.32,11.68-4.25,15.85-1.89,3,1.68,4.08,4.47,4.17,7.69.1,3.55,0,7.11,0,10.66,0,2.93,0,2.93,2.84,3.42,0,.72,0,1.48,0,2.23,0,.42-.06.85-.1,1.41-1.65,0-3.23.08-4.79,0-1.71-.11-2.48-1-2.54-2.79,0-.41,0-.82-.07-1.51-.54.67-.89,1.13-1.27,1.58a9.8,9.8,0,0,1-12.62,1.93A7.57,7.57,0,0,1,103,59c3-1.74,6.26-2.15,9.6-2.32,1.14-.06,2.28,0,3.36,0a5,5,0,0,0-4.66-6.61C108.33,49.88,105.74,51,103.07,52.53Zm13.08,7.41a19.6,19.6,0,0,0-8.92,1.2,4.09,4.09,0,0,0-2.85,3.65c-.16,3.12,2.63,5.27,5.89,4.55C114,68.51,116.63,64.43,116.15,59.94Z" transform="translate(0 -36.4)"/><path class="cls-4" d="M176.65,60.15c.32,3.46,1.59,6.14,4.55,7.69,4.42,2.32,8.45,1,12.38-1.7l2.06,3.52a15.56,15.56,0,0,1-10.56,3.67A13.3,13.3,0,0,1,172.49,65c-2.07-5.36-.8-11.85,3-15.54,5.23-5,14.3-4.59,18.18.87A13.59,13.59,0,0,1,196,58.68c0,1.14-.4,1.5-1.54,1.49-5.3-.05-10.6,0-15.9,0Zm14-3.28c.23-3.71-2.23-6.71-5.58-6.89a7.36,7.36,0,0,0-8,6.89Z" transform="translate(0 -36.4)"/><path class="cls-4" d="M86.72,52.06c.59-.9,1.12-1.84,1.78-2.69a8.1,8.1,0,0,1,6.06-3.13c1-.07,1.56.2,1.48,1.34s0,2.28,0,3.56c-2.8-.15-5.21.47-6.92,2.72A11.92,11.92,0,0,0,86.72,61c0,2.51,0,5,0,7.7l3.78.17V72.6H77.79V68.87h3.83v-2c0-4.71,0-9.41,0-14.11,0-2.25-.06-2.3-2.3-2.31H77.39V46.69c2.3,0,4.63-.1,7,0a2.2,2.2,0,0,1,2.09,2.48V52Z" transform="translate(0 -36.4)"/><path class="cls-4" d="M13.15,72.85a30.25,30.25,0,0,1-4.42-.27c-3-.62-4.51-3.1-4.52-7.09q0-11.56,0-23.13V40.2H0V36.4H9.24v1.86q0,13.2,0,26.41c0,3.26.56,3.85,3.91,4.13Z" transform="translate(0 -36.4)"/><path class="cls-5" d="M149.35,57.36c2.64,0,5,0,7.32,0,2.07,0,3.27,1,3.28,2.61s-1.17,2.61-3.24,2.62h-7.36c0,2.56.08,5,0,7.34a3.77,3.77,0,0,1-.9,2.48,3,3,0,0,1-2.64.49,3.28,3.28,0,0,1-1.59-2.33c-.2-2.59-.07-5.21-.07-8-2.61,0-5.05,0-7.49,0-1.94,0-3.15-1-3.2-2.52s1.16-2.69,3.19-2.71c2.44,0,4.88,0,7.5,0,0-2.64,0-5.08,0-7.53,0-1.87.92-3,2.47-3s2.71,1.09,2.75,3C149.39,52.22,149.35,54.66,149.35,57.36Z" transform="translate(0 -36.4)"/></g></svg>