<svg id="mfine" xmlns="http://www.w3.org/2000/svg" xmlns:xlink="http://www.w3.org/1999/xlink" viewBox="0 0 120.42 120"><defs><style>.cls-1{fill:none;}.cls-2{clip-path:url(#clip-path);}.cls-3{fill:#2297be;}.cls-4{fill:#fff;}</style><clipPath id="clip-path" transform="translate(-37.79)"><rect class="cls-1" width="196" height="120"/></clipPath></defs><g class="cls-2"><path class="cls-3" d="M135.66,120H60.34A22.56,22.56,0,0,1,37.79,97.54V22.46A22.56,22.56,0,0,1,60.32,0h75.34a22.56,22.56,0,0,1,22.55,22.46V97.54A22.57,22.57,0,0,1,135.67,120" transform="translate(-37.79)"/><path class="cls-4" d="M98,18.09a38.52,38.52,0,0,0-10.49,75.6v10.8a77.05,77.05,0,0,0,37-19.78A38.6,38.6,0,0,0,98,18.08Zm28.72,48.62H108a2.44,2.44,0,0,1-2.26-2.35L103.44,50.6,98.69,76a3.56,3.56,0,0,1-.23.72,2.11,2.11,0,0,1-1.3,1.44,2.48,2.48,0,0,1-3-1.74v-.05L89.48,56.64,86.59,65.2a2.57,2.57,0,0,1-1.09,1.4,2,2,0,0,1-1.18.38H70a2.71,2.71,0,0,1,0-5.31h12.9l4.76-14a2.54,2.54,0,0,1,1.6-2.13,2,2,0,0,1,2.1.51,2.78,2.78,0,0,1,.85,1.81l4,16.9,5.14-27.4a2.49,2.49,0,0,1,1.69-2l.32-.09a2.35,2.35,0,0,1,2.6,2.06.53.53,0,0,1,0,.13L110,61.38h16.8a2.71,2.71,0,0,1,2.1,3.2,2.68,2.68,0,0,1-2.1,2.1Z" transform="translate(-37.79)"/></g></svg>