<svg id="Layer_1" data-name="Layer 1" xmlns="http://www.w3.org/2000/svg" xmlns:xlink="http://www.w3.org/1999/xlink" viewBox="0 0 196 45.2"><defs><style>.cls-1{fill:none;}.cls-2{clip-path:url(#clip-path);}.cls-3{fill:#293887;}.cls-4{fill:#22beee;}</style><clipPath id="clip-path" transform="translate(0 -37.4)"><rect class="cls-1" width="196" height="120"/></clipPath></defs><g class="cls-2"><g id="_293887ff" data-name="#293887ff"><path class="cls-3" d="M130.93,37.89c.41-.49,1.1-.43,1.68-.48,2,0,3.93,0,5.89.07.17,2.65,0,5.31.11,8,3,.07,6-.07,8.94.07.08,2.22.1,4.43,0,6.64-3,.12-6,0-9,.05,0,3.73,0,7.45,0,11.17a2.27,2.27,0,0,0,1.84,2.25c2.31.51,4.65-.12,7-.31a35.3,35.3,0,0,1,0,6.74,33.4,33.4,0,0,1-8.64.53,8.33,8.33,0,0,1-6.43-3.44,8.6,8.6,0,0,1-1.47-5.1q0-11.15,0-22.29A31.09,31.09,0,0,1,130.93,37.89Z" transform="translate(0 -37.4)"/><path class="cls-3" d="M30.26,44.94a12.66,12.66,0,0,1,9,1,14.77,14.77,0,0,1,7.3,10.67,26.57,26.57,0,0,1-.1,5.35,18.42,18.42,0,0,1-2,5.36A14.09,14.09,0,0,1,33.14,73.5c-2.64,0-4.88-1.5-7.22-2.51-.14,3.87-.05,7.74,0,11.61-2.67-.08-5.35,0-8,0-.13-12.37,0-24.75-.08-37.12,2.5,0,5,0,7.48,0l.18,1.88a19.75,19.75,0,0,1,4.82-2.35m-.49,7.68c-1.92,1-4,2.62-4.11,4.94a7.65,7.65,0,0,0,1.2,5.68,7.09,7.09,0,0,0,7,2.43A7,7,0,0,0,37.65,63c1.55-1.83,1.51-4.51.88-6.7C37.39,52.85,33,51.4,29.77,52.62Z" transform="translate(0 -37.4)"/><path class="cls-3" d="M74.77,46.9a13,13,0,0,1,11.49-1.72c1.6.38,2.76,1.63,4.15,2.42,0-.7.09-1.39.13-2.09,2.41-.08,4.83-.1,7.23,0q.11,13.47,0,27c-2.51.1-5,.09-7.53,0-.08-.76-.16-1.52-.23-2.28a12.13,12.13,0,0,1-7.77,3.26,12.8,12.8,0,0,1-8.9-3.79,16.15,16.15,0,0,1-3.52-5.55,12.31,12.31,0,0,1-.68-5,14.36,14.36,0,0,1,.58-5.14c1-2.75,2.55-5.48,5-7.15M82,52.4a6.07,6.07,0,0,0-5.12,5.17c0,1.6-.25,3.35.57,4.8,1.92,3.85,7.83,4.57,10.77,1.52A7.14,7.14,0,0,0,87.4,53.4,6.72,6.72,0,0,0,82,52.4Z" transform="translate(0 -37.4)"/><path class="cls-3" d="M113.18,44.82a14.37,14.37,0,0,1,14.59,5.93c-2,1.56-4.11,3-6.14,4.51-1.22-1.18-2.41-2.64-4.18-2.91a7.09,7.09,0,0,0-5.5,1c-3,2-3.51,6.48-1.69,9.42,2,3.45,7.57,4.07,10.27,1.09.47-.46.92-.93,1.38-1.4,1.92,1.68,4.25,2.8,6.23,4.42a17.14,17.14,0,0,1-4.32,4.13,14.08,14.08,0,0,1-9.31,2.37c-7.16-.6-13.33-7.32-13.05-14.55a14.58,14.58,0,0,1,6.16-11.76A17.35,17.35,0,0,1,113.18,44.82Z" transform="translate(0 -37.4)"/><path class="cls-3" d="M161.48,44.73a14.44,14.44,0,0,1,14.25,5.92c2.16,2.75,2.78,6.42,2.57,9.84a14.16,14.16,0,0,1-5.76,10.22,16.72,16.72,0,0,1-5.36,2.35,14.41,14.41,0,0,1-16.93-9.19,15.39,15.39,0,0,1,1.56-13,15,15,0,0,1,9.67-6.18m.63,7.72c-2.34.79-4.68,2.79-4.76,5.44a7.53,7.53,0,0,0,1.32,5.63c2.54,2.91,7.79,3.13,10.26,0,2.58-2.94,2-8.15-1.3-10.28A7,7,0,0,0,162.11,52.45Z" transform="translate(0 -37.4)"/><path class="cls-3" d="M61.09,45.78A11.53,11.53,0,0,1,67,45.33a55.79,55.79,0,0,1,0,7.65c-2.08-.09-4.31-.33-6.24.63a6.17,6.17,0,0,0-2.67,5.24c-.06,4.55.09,9.11,0,13.66-2.54.11-5.08.09-7.62,0-.12-7.14,0-14.27,0-21.4,0-1.87,0-3.74.06-5.6,2.43-.09,4.87-.1,7.31,0,0,.89.06,1.79.08,2.68A10.3,10.3,0,0,1,61.09,45.78Z" transform="translate(0 -37.4)"/></g><g id="_22beeeff" data-name="#22beeeff"><path class="cls-4" d="M5.84,51.35c1.81-.25,3.82-.35,5.42.68A6.63,6.63,0,0,1,15,57.56c0,1.6.22,3.35-.66,4.77A7.54,7.54,0,0,1,9.17,66.1,8.36,8.36,0,0,1,4,65.38,8,8,0,0,1,.24,60.51,7.6,7.6,0,0,1,5.84,51.35Z" transform="translate(0 -37.4)"/><path class="cls-4" d="M187,51.48a7.5,7.5,0,0,1,8.9,5.92,7.3,7.3,0,0,1-2.21,6.65c-3,3.31-8.82,2.45-11.19-1.14a7.45,7.45,0,0,1,.73-9.31A7.68,7.68,0,0,1,187,51.48Z" transform="translate(0 -37.4)"/></g></g></svg>