<svg xmlns="http://www.w3.org/2000/svg" xmlns:xlink="http://www.w3.org/1999/xlink" viewBox="0 0 117 44"><defs><style>.cls-1{fill:none;}.cls-2{fill:#092f5c;}.cls-3{clip-path:url(#clip-path);}.cls-4{fill:#fff;}.cls-5{clip-path:url(#clip-path-2);}</style><clipPath id="clip-path"><rect class="cls-1" x="46.75" y="10" width="24" height="24"/></clipPath><clipPath id="clip-path-2"><rect class="cls-1" x="10.25" y="6" width="32" height="32"/></clipPath></defs><title>bootstrap</title><g id="Layer_2" data-name="Layer 2"><g id="Layer_7" data-name="Layer 7"><g id="Layer_3" data-name="Layer 3"><path class="cls-2" d="M22,0H95a22,22,0,0,1,22,22h0A22,22,0,0,1,95,44H22A22,22,0,0,1,0,22H0A22,22,0,0,1,22,0Z"/></g><g id="layer"><g id="plus"><g class="cls-3"><path class="cls-4" d="M58.75,13a1,1,0,0,0-1,1v7h-7a1,1,0,0,0,0,2h7v7a1,1,0,0,0,2,0V23h7a1,1,0,0,0,0-2h-7V14A1,1,0,0,0,58.75,13Z"/></g></g><g id="laravel"><g class="cls-5"><path class="cls-4" d="M23.24,29.77l11-6.11-5-2.81L18.23,27ZM34.75,17.26l-5-2.8V20l5,2.8Zm.5-6.45-5,2.8,5,2.8,5-2.8ZM19.83,25l2.92-1.63V11.14l-5,2.86V26.18ZM17.22,7.49l-5,2.81,5,2.8,5-2.8Zm-5.53,3.65V30.05l11,6.18V30.62l-5.77-3.17h-.1V27.4h0v0h0v-.06h0v-.05h0a.09.09,0,0,1,0-.07h0V14l-2.91-1.63ZM34.75,30.05V24.5l-11,6.12v5.6Zm6-10V14.46l-5,2.8v5.55Zm1-6.53v.13h0v6.68a.48.48,0,0,1-.25.42h0l-5.75,3.19v6.39a.48.48,0,0,1-.25.42h0l-12,6.73h-.44l-12-6.73a.5.5,0,0,1-.25-.43h0v-20a.29.29,0,0,1,0-.13h0v-.08h0L10.75,10h.1l6-3.37a.55.55,0,0,1,.5,0h0l6,3.37h.11v.05h0v.07h0v.12h0V22.81L28.75,20V13.6h0a.29.29,0,0,1,0-.13h0v-.08h0v-.05h.11l6-3.37a.55.55,0,0,1,.5,0h0l6,3.37h.06v.05h0v.08h0Z"/></g></g><path class="cls-4" d="M92.75,20.21H88.6V15.82h3.87a6.23,6.23,0,0,1,1.06.09,2.92,2.92,0,0,1,.91.33,1.81,1.81,0,0,1,.63.66,2.11,2.11,0,0,1,.24,1.1,2,2,0,0,1-.71,1.71A3,3,0,0,1,92.75,20.21Z"/><path class="cls-4" d="M96.07,25.71a2.53,2.53,0,0,1-.25,1.21,2.07,2.07,0,0,1-.67.74,2.73,2.73,0,0,1-1,.4,5.64,5.64,0,0,1-1.16.12H88.6V23h4.5a3.52,3.52,0,0,1,2.16.62A2.45,2.45,0,0,1,96.07,25.71Z"/><path class="cls-4" d="M102.75,6.5h-23a4,4,0,0,0-4,4v23a4,4,0,0,0,4,4h23a4,4,0,0,0,4-4v-23A4,4,0,0,0,102.75,6.5Zm-3.1,21.9a4.88,4.88,0,0,1-1.49,1.7,6.6,6.6,0,0,1-2.13,1,9.7,9.7,0,0,1-2.46.31H84.48V12.62h8.83a11.89,11.89,0,0,1,2.45.23,5.41,5.41,0,0,1,1.89.78,3.52,3.52,0,0,1,1.22,1.43,4.93,4.93,0,0,1,.43,2.21,4.1,4.1,0,0,1-.64,2.36,4.75,4.75,0,0,1-1.91,1.56,4.51,4.51,0,0,1,2.59,1.74A5.75,5.75,0,0,1,99.65,28.4Z"/></g></g></g></svg>