<svg xmlns="http://www.w3.org/2000/svg" xmlns:xlink="http://www.w3.org/1999/xlink" viewBox="0 0 117 44"><defs><style>.cls-1{fill:none;}.cls-2{fill:#092f5c;}.cls-3{clip-path:url(#clip-path);}.cls-4{fill:#fff;}.cls-5{clip-path:url(#clip-path-2);}</style><clipPath id="clip-path"><rect class="cls-1" x="46" y="10" width="24" height="24"/></clipPath><clipPath id="clip-path-2"><rect class="cls-1" x="9.5" y="6" width="32" height="32"/></clipPath></defs><title>docker</title><g id="Layer_2" data-name="Layer 2"><g id="Layer_1-2" data-name="Layer 1"><g id="Layer_3" data-name="Layer 3"><path class="cls-2" d="M22,0H95a22,22,0,0,1,22,22h0A22,22,0,0,1,95,44H22A22,22,0,0,1,0,22H0A22,22,0,0,1,22,0Z"/></g><g id="layer"><g id="plus"><g class="cls-3"><path class="cls-4" d="M58,13a1,1,0,0,0-1,1v7H50a1,1,0,0,0,0,2h7v7a1,1,0,0,0,2,0V23h7a1,1,0,0,0,0-2H59V14A1,1,0,0,0,58,13Z"/></g></g><g id="laravel"><g class="cls-5"><path class="cls-4" d="M22.49,29.77l11-6.11-5-2.81L17.48,27ZM34,17.26l-5-2.8V20l5,2.8Zm.5-6.45-5,2.8,5,2.8,5-2.8ZM19.08,25,22,23.37V11.14L17,14V26.18ZM16.47,7.49l-5,2.81,5,2.8,5-2.8Zm-5.53,3.65V30.05l11,6.18V30.62l-5.77-3.17h-.1V27.4h0v0h0v-.06h0v-.05h0a.09.09,0,0,1,0-.07h0V14l-2.91-1.63ZM34,30.05V24.5L23,30.62v5.6Zm6-10V14.46l-5,2.8v5.55Zm1-6.53v.13h0v6.68a.48.48,0,0,1-.25.42h0L35,23.94v6.39a.48.48,0,0,1-.25.42h0l-12,6.73h-.44l-12-6.73a.5.5,0,0,1-.25-.43h0v-20a.29.29,0,0,1,0-.13h0v-.08h0L10,10h.1l6-3.37a.55.55,0,0,1,.5,0h0l6,3.37h.11v.05h0v.07h0v.12h0V22.81L28,20V13.6h0a.29.29,0,0,1,0-.13h0v-.08h0v-.05h.11l6-3.37a.55.55,0,0,1,.5,0h0l6,3.37h.06v.05h0v.08h0Z"/></g></g><g id="icons_Q2" data-name="icons Q2"><rect class="cls-4" x="81.21" y="19.06" width="2.91" height="2.93"/><rect class="cls-4" x="77.65" y="19.06" width="2.91" height="2.93"/><path class="cls-4" d="M104.6,20.65a4.14,4.14,0,0,0-3.43-.4,4.37,4.37,0,0,0-1.92-2.91L98.92,17l-.33.4a4.07,4.07,0,0,0-.73,2.77A3.66,3.66,0,0,0,98.52,22l-1,.47a7.54,7.54,0,0,1-2,.33H76.06v.39a8,8,0,0,0,.66,4.3L77,28h0a9.66,9.66,0,0,0,8.58,4.36c6.81,0,12.36-2.91,15-9.25,1.72.13,3.44-.33,4.3-2l.13-.33ZM81.74,28.44a1.52,1.52,0,1,1,1.52-1.52h0A1.52,1.52,0,0,1,81.74,28.44Z"/><rect class="cls-4" x="81.21" y="15.36" width="2.91" height="2.93"/><rect class="cls-4" x="92.12" y="19.06" width="2.91" height="2.93"/><rect class="cls-4" x="88.55" y="11.59" width="2.91" height="2.93"/><rect class="cls-4" x="88.55" y="19.06" width="2.91" height="2.93"/><rect class="cls-4" x="84.91" y="15.36" width="2.91" height="2.93"/><rect class="cls-4" x="88.55" y="15.36" width="2.91" height="2.93"/><rect class="cls-4" x="84.91" y="19.06" width="2.91" height="2.93"/></g></g></g></g></svg>