<svg xmlns="http://www.w3.org/2000/svg" xmlns:xlink="http://www.w3.org/1999/xlink" viewBox="0 0 117 44"><defs><style>.cls-1{fill:none;}.cls-2{fill:#092f5c;}.cls-3{clip-path:url(#clip-path);}.cls-4{fill:#fff;}.cls-5{clip-path:url(#clip-path-2);}</style><clipPath id="clip-path"><rect class="cls-1" x="47.59" y="10" width="24" height="24"/></clipPath><clipPath id="clip-path-2"><rect class="cls-1" x="11.09" y="6" width="32" height="32"/></clipPath></defs><title>graph-ql</title><g id="Layer_2" data-name="Layer 2"><g id="Layer_6" data-name="Layer 6"><g id="Layer_3" data-name="Layer 3"><path class="cls-2" d="M22,0H95a22,22,0,0,1,22,22h0A22,22,0,0,1,95,44H22A22,22,0,0,1,0,22H0A22,22,0,0,1,22,0Z"/></g><g id="layer"><g id="plus"><g class="cls-3"><path class="cls-4" d="M59.59,13a1,1,0,0,0-1,1v7h-7a1,1,0,0,0,0,2h7v7a1,1,0,0,0,2,0V23h7a1,1,0,0,0,0-2h-7V14A1,1,0,0,0,59.59,13Z"/></g></g><g id="laravel"><g class="cls-5"><path class="cls-4" d="M24.08,29.77l11-6.11-5-2.81L19.07,27ZM35.59,17.26l-5-2.8V20l5,2.8Zm.5-6.45-5,2.8,5,2.8,5-2.8ZM20.67,25l2.92-1.63V11.14l-5,2.86V26.18ZM18.06,7.49l-5,2.81,5,2.8,5-2.8Zm-5.53,3.65V30.05l11,6.18V30.62l-5.77-3.17h-.1V27.4h0v0h0v-.06h0v-.05h0v-.07h0V14l-2.91-1.63ZM35.59,30.05V24.5l-11,6.12v5.6Zm6-10V14.46l-5,2.8v5.55Zm1-6.53a.29.29,0,0,1,0,.13h0v6.68a.46.46,0,0,1-.25.42h0l-5.75,3.19v6.39a.46.46,0,0,1-.25.42h0l-12,6.73H23.9l-12-6.73a.5.5,0,0,1-.25-.43h0v-20a.29.29,0,0,1,0-.13h0v-.08h0L11.59,10h.1l6-3.37a.57.57,0,0,1,.25-.06.54.54,0,0,1,.25.06h0l6,3.37h.11v.05h0v.07h0a.24.24,0,0,1,0,.12h0V22.81L29.59,20V13.6h0v-.13h0v-.08h0v-.05h.11l6-3.37a.55.55,0,0,1,.5,0h0l6,3.37h.06v.05h0v.08h0Z"/></g></g><path class="cls-4" d="M94.86,10.18l6.08,3.52a2.88,2.88,0,1,1,3.52,4.49h0a2.89,2.89,0,0,1-.94.35v6.94a3.06,3.06,0,0,1,.93.34,2.89,2.89,0,0,1-2.88,5,2.77,2.77,0,0,1-.85-.75l-6,3.45a2.88,2.88,0,1,1-5.54,1.12,3,3,0,0,1,.14-.9l-6-3.49a2.58,2.58,0,0,1-.7.57,2.89,2.89,0,1,1-2.88-5h0a2.8,2.8,0,0,1,.65-.27V18.46a2.38,2.38,0,0,1-.66-.28,2.89,2.89,0,1,1,2.88-5,3,3,0,0,1,.53.4L89.29,10a3,3,0,0,1-.08-.66,2.88,2.88,0,1,1,5.76,0A2.66,2.66,0,0,1,94.86,10.18Zm-.64,1.14-.2.2,8.11,14.05h.09V18.45a2.84,2.84,0,0,1-2-3.51l0-.12Zm-4.24,0-.12-.13-6,3.47a2.85,2.85,0,0,1-1.64,3.69,2.46,2.46,0,0,1-.53.15v7h.13Zm2.9.81a3,3,0,0,1-.79.11,2.86,2.86,0,0,1-1-.19L83,26.05a2.61,2.61,0,0,1,.68.8,3.11,3.11,0,0,1,.28.65h16.3a2.9,2.9,0,0,1,.28-.65,2.73,2.73,0,0,1,.49-.63ZM94.1,32.54,100.22,29v-.21H84l-.06.27L90,32.58a2.87,2.87,0,0,1,4.06,0h0Z"/></g></g></g></svg>