<svg xmlns="http://www.w3.org/2000/svg" xmlns:xlink="http://www.w3.org/1999/xlink" viewBox="0 0 117 44"><defs><style>.cls-1{fill:none;}.cls-2{fill:#092f5c;}.cls-3{clip-path:url(#clip-path);}.cls-4{fill:#fff;}.cls-5{clip-path:url(#clip-path-2);}</style><clipPath id="clip-path"><rect class="cls-1" x="47.25" y="10" width="24" height="24"/></clipPath><clipPath id="clip-path-2"><rect class="cls-1" x="10.75" y="6" width="32" height="32"/></clipPath></defs><title>reactjs</title><g id="Layer_2" data-name="Layer 2"><g id="Layer_4" data-name="Layer 4"><g id="Layer_3" data-name="Layer 3"><path class="cls-2" d="M22,0H95a22,22,0,0,1,22,22h0A22,22,0,0,1,95,44H22A22,22,0,0,1,0,22H0A22,22,0,0,1,22,0Z"/></g><g id="layer"><g id="plus"><g class="cls-3"><path class="cls-4" d="M59.25,13a1,1,0,0,0-1,1v7h-7a1,1,0,0,0,0,2h7v7a1,1,0,0,0,2,0V23h7a1,1,0,0,0,0-2h-7V14A1,1,0,0,0,59.25,13Z"/></g></g><g id="laravel"><g class="cls-5"><path class="cls-4" d="M23.74,29.77l11-6.11-5-2.81L18.73,27ZM35.25,17.26l-5-2.8V20l5,2.8Zm.5-6.45-5,2.8,5,2.8,5-2.8ZM20.33,25l2.92-1.63V11.14l-5,2.86V26.18ZM17.72,7.49l-5,2.81,5,2.8,5-2.8Zm-5.53,3.65V30.05l11,6.18V30.62l-5.77-3.17h-.1V27.4h0v0h0v-.06h0v-.05h0a.09.09,0,0,1,0-.07h0V14l-2.91-1.63ZM35.25,30.05V24.5l-11,6.12v5.6Zm6-10V14.46l-5,2.8v5.55Zm1-6.53v.13h0v6.68a.48.48,0,0,1-.25.42h0l-5.75,3.19v6.39a.48.48,0,0,1-.25.42h0L24,37.48h-.44l-12-6.73a.5.5,0,0,1-.25-.43h0v-20a.29.29,0,0,1,0-.13h0v-.08h0L11.25,10h.1l6-3.37a.55.55,0,0,1,.5,0h0l6,3.37H24v.05h0v.07h0v.12h0V22.81L29.25,20V13.6h0a.29.29,0,0,1,0-.13h0v-.08h0v-.05h.11l6-3.37a.55.55,0,0,1,.5,0h0l6,3.37h.06v.05h0v.08h0Z"/></g></g><path class="cls-4" d="M106.25,22c0-1.92-2.41-3.74-6.09-4.87.85-3.76.47-6.75-1.2-7.71a2.64,2.64,0,0,0-1.32-.33h0c-1.62,0-3.75,1.16-5.9,3.17-2.15-2-4.28-3.15-5.91-3.15h0a2.6,2.6,0,0,0-1.33.33c-1.66,1-2,3.94-1.18,7.69-3.68,1.14-6.07,3-6.07,4.87s2.41,3.74,6.09,4.87c-.85,3.76-.47,6.75,1.2,7.71a2.55,2.55,0,0,0,1.33.33c1.62,0,3.75-1.16,5.9-3.17,2.16,2,4.28,3.15,5.91,3.15A2.72,2.72,0,0,0,99,34.56c1.66-1,2-3.94,1.17-7.69C103.86,25.74,106.25,23.92,106.25,22ZM97.64,10.41h0a1.3,1.3,0,0,1,.67.16c.81.46,1.15,2.21.88,4.47a17.1,17.1,0,0,1-.3,1.74,28,28,0,0,0-3.75-.65,31.51,31.51,0,0,0-2.46-2.95C94.6,11.39,96.41,10.41,97.64,10.41ZM86.51,25c.28.47.56.93.85,1.38-.84-.12-1.65-.28-2.42-.46.22-.77.49-1.55.8-2.34C86,24.08,86.25,24.56,86.51,25Zm-1.59-7c.78-.18,1.59-.34,2.44-.47-.29.46-.58.93-.85,1.4s-.53,1-.77,1.42a20.1,20.1,0,0,1-.82-2.29Zm1.51,4c.37-.79.78-1.58,1.22-2.36s.94-1.55,1.43-2.26c.88-.07,1.77-.11,2.67-.11a21.28,21.28,0,0,1,2.66.11,23.79,23.79,0,0,1,1.43,2.24c.43.79.86,1.56,1.23,2.36-.37.79-.78,1.58-1.22,2.36s-.94,1.55-1.43,2.25q-1.32.12-2.67.12a21.36,21.36,0,0,1-2.66-.11,22.73,22.73,0,0,1-1.43-2.25C87.23,23.55,86.8,22.81,86.43,22ZM97,25c.27-.47.52-1,.77-1.42.31.79.59,1.58.81,2.35-.77.19-1.59.35-2.43.47A14,14,0,0,0,97,25Zm0-6c-.27-.48-.56-.94-.85-1.39.84.13,1.65.28,2.42.47-.21.76-.49,1.55-.79,2.33-.26-.49-.52-1-.79-1.41Zm-3.6-3H90.12a24.43,24.43,0,0,1,1.62-1.89c.55.59,1.09,1.22,1.64,1.89Zm-8.24-5.41a1.33,1.33,0,0,1,.68-.15h0c1.23,0,3,1,5,2.75a27.48,27.48,0,0,0-2.44,3,28.15,28.15,0,0,0-3.76.65,17,17,0,0,1-.38-1.72C84,12.81,84.36,11.06,85.15,10.59Zm-1.49,15c-.58-.19-1.14-.39-1.65-.61-2.09-.89-3.45-2.06-3.45-3s1.36-2.1,3.45-3a16,16,0,0,1,1.64-.59A27.4,27.4,0,0,0,85,22a25.88,25.88,0,0,0-1.32,3.6Zm2.2,8a1.44,1.44,0,0,1-.67-.16C84.38,33,84,31.21,84.31,29a17.1,17.1,0,0,1,.3-1.74,28,28,0,0,0,3.75.64,28.22,28.22,0,0,0,2.46,3c-1.92,1.76-3.73,2.74-5,2.74Zm5.9-3.71A22.52,22.52,0,0,1,90.12,28h3.27a20.83,20.83,0,0,1-1.63,1.89Zm6.59,3.53a1.33,1.33,0,0,1-.68.15c-1.23,0-3-1-5-2.75a27.48,27.48,0,0,0,2.44-2.95,28.15,28.15,0,0,0,3.76-.65,17.23,17.23,0,0,1,.38,1.73c.24,2.25-.11,4.06-.9,4.48ZM101.49,25c-.51.22-1.07.42-1.64.6A28.76,28.76,0,0,0,98.52,22a28.38,28.38,0,0,0,1.31-3.58,16.44,16.44,0,0,1,1.66.6c2.09.89,3.45,2.06,3.45,3S103.58,24.11,101.49,25Z"/><path class="cls-4" d="M91.74,24.7A2.7,2.7,0,1,0,89,22h0A2.7,2.7,0,0,0,91.74,24.7Z"/></g></g></g></svg>