<svg xmlns="http://www.w3.org/2000/svg" xmlns:xlink="http://www.w3.org/1999/xlink" viewBox="0 0 117 44"><defs><style>.cls-1{fill:none;}.cls-2{fill:#092f5c;}.cls-3{clip-path:url(#clip-path);}.cls-4{fill:#fff;}.cls-5{clip-path:url(#clip-path-2);}</style><clipPath id="clip-path"><rect class="cls-1" x="47.7" y="10" width="24" height="24"/></clipPath><clipPath id="clip-path-2"><rect class="cls-1" x="11.2" y="6" width="32" height="32"/></clipPath></defs><title>resct-native</title><g id="Layer_2" data-name="Layer 2"><g id="Layer_2-2" data-name="Layer 2"><g id="Layer_3" data-name="Layer 3"><path class="cls-2" d="M22,0H95a22,22,0,0,1,22,22h0A22,22,0,0,1,95,44H22A22,22,0,0,1,0,22H0A22,22,0,0,1,22,0Z"/></g><g id="layer"><g id="plus"><g class="cls-3"><path class="cls-4" d="M59.7,13a1,1,0,0,0-1,1v7h-7a1,1,0,0,0,0,2h7v7a1,1,0,0,0,2,0V23h7a1,1,0,0,0,0-2h-7V14A1,1,0,0,0,59.7,13Z"/></g></g><g id="laravel"><g class="cls-5"><path class="cls-4" d="M24.19,29.77l11-6.11-5-2.81L19.18,27ZM35.7,17.26l-5-2.8V20l5,2.8Zm.5-6.45-5,2.8,5,2.8,5-2.8ZM20.78,25l2.92-1.63V11.14L18.7,14V26.18ZM18.17,7.49l-5,2.81,5,2.8,5-2.8Zm-5.53,3.65V30.05l11,6.18V30.62l-5.77-3.17h-.1V27.4h0v0h0v-.06h0v-.05h0v-.07h0V14l-2.91-1.63ZM35.7,30.05V24.5l-11,6.12v5.6Zm6-10V14.46l-5,2.8v5.55Zm1-6.53a.29.29,0,0,1,0,.13h0v6.68a.46.46,0,0,1-.25.42h0L36.7,23.94v6.39a.46.46,0,0,1-.25.42h0l-12,6.73H24L12,30.75a.53.53,0,0,1-.25-.43h0V10.19h0v-.08h0L11.7,10h.1l6-3.37a.57.57,0,0,1,.25-.06.51.51,0,0,1,.25.06h0l6,3.37h.11v.05h0v.07h0a.24.24,0,0,1,0,.12h0V22.81L29.7,20V13.6h0v-.13h0v-.08h0v-.05h.11l6-3.37a.55.55,0,0,1,.5,0h0l6,3.37h.07v.05h0v.08h0Z"/></g></g><path class="cls-4" d="M105.63,14.25a.42.42,0,0,0-.16-.19.64.64,0,0,0-.2-.16h-.07L92.7,6.62a1,1,0,0,0-1,0L79.17,13.88h0a1.41,1.41,0,0,0-.34.35.92.92,0,0,0-.09.23,1,1,0,0,0,0,.25V29.28a1,1,0,0,0,.47.83L91.7,37.33a.29.29,0,0,0,.14.08.64.64,0,0,0,.18.06.86.86,0,0,0,.45,0,.73.73,0,0,0,.31-.14l12.53-7.22a1,1,0,0,0,.49-.83V14.72A1.11,1.11,0,0,0,105.63,14.25ZM92.2,8.57l10.67,6.16L92.2,20.88,81.53,14.73Zm-1,26.32L80.58,28.71V16.4l10.66,6.16Zm12.59-6.18L93.16,34.89V22.55l10.67-6.15Z"/></g></g></g></svg>