<svg xmlns="http://www.w3.org/2000/svg" xmlns:xlink="http://www.w3.org/1999/xlink" viewBox="0 0 117 44"><defs><style>.cls-1{fill:none;}.cls-2{fill:#092f5c;}.cls-3{clip-path:url(#clip-path);}.cls-4{fill:#fff;}.cls-5{clip-path:url(#clip-path-2);}</style><clipPath id="clip-path"><rect class="cls-1" x="47.25" y="10" width="24" height="24"/></clipPath><clipPath id="clip-path-2"><rect class="cls-1" x="10.75" y="6" width="32" height="32"/></clipPath></defs><title>vue</title><g id="Layer_2" data-name="Layer 2"><g id="Layer_8" data-name="Layer 8"><g id="Layer_3" data-name="Layer 3"><path class="cls-2" d="M22,0H95a22,22,0,0,1,22,22h0A22,22,0,0,1,95,44H22A22,22,0,0,1,0,22H0A22,22,0,0,1,22,0Z"/></g><g id="layer"><g id="plus"><g class="cls-3"><path class="cls-4" d="M59.25,13a1,1,0,0,0-1,1v7h-7a1,1,0,0,0,0,2h7v7a1,1,0,0,0,2,0V23h7a1,1,0,0,0,0-2h-7V14A1,1,0,0,0,59.25,13Z"/></g></g><g id="laravel"><g class="cls-5"><path class="cls-4" d="M23.74,29.77l11-6.11-5-2.81L18.73,27ZM35.25,17.26l-5-2.8V20l5,2.8Zm.5-6.45-5,2.8,5,2.8,5-2.8ZM20.33,25l2.92-1.63V11.14l-5,2.86V26.18ZM17.72,7.49l-5,2.81,5,2.8,5-2.8Zm-5.53,3.65V30.05l11,6.18V30.62l-5.77-3.17h-.1V27.4h0v0h0v-.06h0v-.05h0v-.07h0V14l-2.91-1.63ZM35.25,30.05V24.5l-11,6.12v5.6Zm6-10V14.46l-5,2.8v5.55Zm1-6.53a.29.29,0,0,1,0,.13h0v6.68a.48.48,0,0,1-.25.42h0l-5.75,3.19v6.39a.48.48,0,0,1-.25.42h0L24,37.48h-.44l-12-6.73a.5.5,0,0,1-.25-.43h0v-20a.29.29,0,0,1,0-.13h0v-.08h0L11.25,10h.1l6-3.37a.55.55,0,0,1,.5,0h0l6,3.37H24v.05h0v.07h0a.24.24,0,0,1,0,.12h0V22.81L29.25,20V13.6h0v-.13h0v-.08h0v-.05h.11l6-3.37a.55.55,0,0,1,.5,0h0l6,3.37h.06v.05h0v.08h0Z"/></g></g><path class="cls-4" d="M98.55,10H96.13a1.37,1.37,0,0,0-1.14.62l-3.24,5-3.24-5A1.37,1.37,0,0,0,87.37,10H78.61a1.36,1.36,0,0,0-1.36,1.36,1.4,1.4,0,0,0,.19.69L90.58,34.44a1.36,1.36,0,0,0,1.86.48,1.38,1.38,0,0,0,.48-.48l13.14-22.39a1.35,1.35,0,0,0-.48-1.86,1.4,1.4,0,0,0-.69-.19ZM84.16,12.72l7.59,13,7.59-13h3.18L91.75,31.06,81,12.72Z"/></g></g></g></svg>