<?xml version="1.0" encoding="UTF-8"?>
<svg xmlns="http://www.w3.org/2000/svg" version="1.1" xmlns:xlink="http://www.w3.org/1999/xlink" viewBox="0 0 196 120">
  <defs>
    <style>
      .cls-1 {
        fill: #f15e24;
      }

      .cls-2 {
        fill: none;
      }

      .cls-3 {
        clip-path: url(#clippath);
      }
    </style>
    <clipPath id="clippath">
      <rect class="cls-2" width="196" height="120"/>
    </clipPath>
  </defs>
  <!-- Generator: Adobe Illustrator 28.6.0, SVG Export Plug-In . SVG Version: 1.2.0 Build 709)  -->
  <g>
    <g id="Layer_1">
      <g class="cls-3">
        <g>
          <path class="cls-1" d="M140.4,15.9h0c0-.1-.1-.2-.1-.2h0C130,5.6,116.5,0,102.1,0s-28,5.6-38.2,15.9c-3.9,4-7.2,8.5-9.8,13.5h0c0,.1-.2.2-.2.2-2.3.4-4.5,1.3-6.4,2.6-9.3,7.4-8.9,23.8-4.7,35.9,10.3,29.3,41.7,51.9,61.9,51.9h.2c2,0,4-.3,5.9-.8l1.1-.5c6.9-2.7,11.9-8.6,13.4-15.8v-.2s.2,0,.2,0c5.5-2.6,10.5-6.2,14.8-10.5,0,0,0,0,0,0h0c21-21,21-55.2,0-76.2ZM122.1,99.1c-.4,7.3-5,13.7-11.8,16.3l-.7.3c-1.6.4-3.3.7-5.2.7-18.5,0-48.5-22.1-58.2-49.5-3.2-9.1-4.9-25.1,3.5-31.8,2.3-1.4,5-2.2,7.8-2.2h.4c.4,0,.9,0,1.3,0h.2s8.6,20.6,8.6,20.6l-8.4,9.2c-.7.8-1,1.8-.7,2.8,2.5,9.2,7.5,17.5,14.4,24.1,5.1,4.7,11.3,8.2,17.9,10.3.3,0,.5.1.8.1.8,0,1.6-.4,2.2-1l7.9-9.4h.2c3.2,1.5,6.6,3.1,9.9,4.7,3.1,1.5,6.7,3.2,9.9,4.6h.2v.3ZM152.3,56.1c-.5,11.8-5.2,23.1-13.2,31.8l-.2.2-4.1-4.1c-.4-.4-.8-.5-1.3-.5s-1,.2-1.3.5c-.4.4-.5.8-.5,1.3s.2,1,.5,1.3l4.1,4.1-.2.2c-3,2.7-6.3,5.1-9.8,7.1l-.4.2v-.4c-.3-1-.9-1.8-1.8-2.2-3.3-1.5-6.9-3.2-10.5-4.9-3.6-1.7-7.3-3.5-10.7-5-.4-.2-.7-.2-1.1-.2-.8,0-1.6.4-2.2,1l-7.9,9.5h-.2c-5.8-1.9-11.2-5.1-15.7-9.3-6.3-5.9-10.9-13.4-13.2-21.8v-.2s8.4-9.2,8.4-9.2c.9-.9,1-2.3.5-3.4l-8.8-21.2v-.2c-.5-.7-1.2-1.3-2-1.4-.6-.1-1.2-.2-1.7-.2h-.5s.3-.5.3-.5c1.8-3.1,4-6.1,6.4-8.7l.2-.2,4.2,4.1c.4.4.8.5,1.3.5s1-.2,1.3-.5c.4-.3.5-.8.5-1.3s-.2-1-.5-1.3l-4.1-4.1.2-.2c8.7-8,20-12.7,31.8-13.1h.3s0,5.8,0,5.8c0,1,.8,1.8,1.8,1.8s1.8-.8,1.8-1.8V3.7h.3c11.8.5,23.1,5.2,31.8,13.2l.2.2-4.1,4.1c-.4.4-.5.8-.5,1.3s.2,1,.5,1.3c.4.4.8.5,1.3.5s1-.2,1.3-.5l4.1-4.1.2.2c8,8.7,12.7,20,13.2,31.8v.3s-5.8,0-5.8,0c-1,0-1.8.8-1.8,1.8s.8,1.8,1.8,1.8h5.8v.3Z"/>
          <path class="cls-1" d="M140.4,15.9h0c0-.1-.1-.2-.1-.2h0C130,5.6,116.5,0,102.1,0s-28,5.6-38.2,15.9c-3.9,4-7.2,8.5-9.8,13.5h0c0,.1-.2.2-.2.2-2.3.4-4.5,1.3-6.4,2.6-9.3,7.4-8.9,23.8-4.7,35.9,10.3,29.3,41.7,51.9,61.9,51.9h.2c2,0,4-.3,5.9-.8l1.1-.5c6.9-2.7,11.9-8.6,13.4-15.8v-.2s.2,0,.2,0c5.5-2.6,10.5-6.2,14.8-10.5,0,0,0,0,0,0h0c21-21,21-55.2,0-76.2ZM122.1,99.1c-.4,7.3-5,13.7-11.8,16.3l-.7.3c-1.6.4-3.3.7-5.2.7-18.5,0-48.5-22.1-58.2-49.5-3.2-9.1-4.9-25.1,3.5-31.8,2.3-1.4,5-2.2,7.8-2.2h.4c.4,0,.9,0,1.3,0h.2s8.6,20.6,8.6,20.6l-8.4,9.2c-.7.8-1,1.8-.7,2.8,2.5,9.2,7.5,17.5,14.4,24.1,5.1,4.7,11.3,8.2,17.9,10.3.3,0,.5.1.8.1.8,0,1.6-.4,2.2-1l7.9-9.4h.2c3.2,1.5,6.6,3.1,9.9,4.7,3.1,1.5,6.7,3.2,9.9,4.6h.2v.3ZM152.3,56.1c-.5,11.8-5.2,23.1-13.2,31.8l-.2.2-4.1-4.1c-.4-.4-.8-.5-1.3-.5s-1,.2-1.3.5c-.4.4-.5.8-.5,1.3s.2,1,.5,1.3l4.1,4.1-.2.2c-3,2.7-6.3,5.1-9.8,7.1l-.4.2v-.4c-.3-1-.9-1.8-1.8-2.2-3.3-1.5-6.9-3.2-10.5-4.9-3.6-1.7-7.3-3.5-10.7-5-.4-.2-.7-.2-1.1-.2-.8,0-1.6.4-2.2,1l-7.9,9.5h-.2c-5.8-1.9-11.2-5.1-15.7-9.3-6.3-5.9-10.9-13.4-13.2-21.8v-.2s8.4-9.2,8.4-9.2c.9-.9,1-2.3.5-3.4l-8.8-21.2v-.2c-.5-.7-1.2-1.3-2-1.4-.6-.1-1.2-.2-1.7-.2h-.5s.3-.5.3-.5c1.8-3.1,4-6.1,6.4-8.7l.2-.2,4.2,4.1c.4.4.8.5,1.3.5s1-.2,1.3-.5c.4-.3.5-.8.5-1.3s-.2-1-.5-1.3l-4.1-4.1.2-.2c8.7-8,20-12.7,31.8-13.1h.3s0,5.8,0,5.8c0,1,.8,1.8,1.8,1.8s1.8-.8,1.8-1.8V3.7h.3c11.8.5,23.1,5.2,31.8,13.2l.2.2-4.1,4.1c-.4.4-.5.8-.5,1.3s.2,1,.5,1.3c.4.4.8.5,1.3.5s1-.2,1.3-.5l4.1-4.1.2.2c8,8.7,12.7,20,13.2,31.8v.3s-5.8,0-5.8,0c-1,0-1.8.8-1.8,1.8s.8,1.8,1.8,1.8h5.8v.3Z"/>
          <path class="cls-1" d="M106.2,52.1c-2.5,1.4-3.9,4.3-3.5,7.2,0,1-.7,1.9-1.7,2h-.2c-1,0-1.8-.7-1.8-1.7-.5-4.2,1.5-8.4,5.1-10.5,3.4-2.2,4.3-3.7,3.9-5.9-.4-1.9-1.8-3.4-3.6-3.9-.8-.3-1.6-.4-2.5-.4-1.7,0-3.4.6-4.8,1.6-1,1-1.4,2.5-.9,3.8.3,1-.3,2-1.3,2.3-.2,0-.3,0-.5,0-.8,0-1.6-.6-1.8-1.4-.8-2.6-.1-5.5,1.9-7.4,2-1.7,4.7-2.7,7.4-2.7s2.5.2,3.7.6c3.2.9,5.5,3.5,6.1,6.8,1,5.4-3.3,8.2-5.5,9.7Z"/>
          <path class="cls-1" d="M106.2,52.1c-2.5,1.4-3.9,4.3-3.5,7.2,0,1-.7,1.9-1.7,2h-.2c-1,0-1.8-.7-1.8-1.7-.5-4.2,1.5-8.4,5.1-10.5,3.4-2.2,4.3-3.7,3.9-5.9-.4-1.9-1.8-3.4-3.6-3.9-.8-.3-1.6-.4-2.5-.4-1.7,0-3.4.6-4.8,1.6-1,1-1.4,2.5-.9,3.8.3,1-.3,2-1.3,2.3-.2,0-.3,0-.5,0-.8,0-1.6-.6-1.8-1.4-.8-2.6-.1-5.5,1.9-7.4,2-1.7,4.7-2.7,7.4-2.7s2.5.2,3.7.6c3.2.9,5.5,3.5,6.1,6.8,1,5.4-3.3,8.2-5.5,9.7Z"/>
          <path class="cls-1" d="M103.7,68c0,1.5-1.2,2.7-2.7,2.7s-2.7-1.2-2.7-2.7,1.2-2.7,2.7-2.7,2.7,1.2,2.7,2.7Z"/>
          <path class="cls-1" d="M101,70.4c-1.3,0-2.4-1.1-2.4-2.4s1.1-2.4,2.4-2.4,2.4,1.1,2.4,2.4-1.1,2.4-2.4,2.4Z"/>
        </g>
      </g>
    </g>
  </g>
</svg>