<svg id="Requirement_Analysis" data-name="Requirement Analysis" xmlns="http://www.w3.org/2000/svg" viewBox="0 0 48 48"><defs><style>.cls-1{fill:#3b82f6;}.cls-2{fill:#fff;}</style></defs><circle class="cls-1" cx="24" cy="24" r="24"/><path class="cls-2" d="M44.55,41l-5.63-5.63a1.51,1.51,0,0,0-1.5-.38L34,31.53a10.36,10.36,0,0,0,2-6.06A10.47,10.47,0,1,0,31.53,34L35,37.42a1.48,1.48,0,0,0-.07.42,1.51,1.51,0,0,0,.45,1.08L41,44.55a1.52,1.52,0,0,0,2.16,0l1.42-1.42a1.52,1.52,0,0,0,0-2.16ZM15.73,25.46a9.73,9.73,0,1,1,9.73,9.73A9.74,9.74,0,0,1,15.73,25.46Zm16.38,8.08a10.73,10.73,0,0,0,1.43-1.43l3.22,3.23-1.42,1.43ZM44,42.61h0L42.61,44a.77.77,0,0,1-1.12,0L35.86,38.4a.77.77,0,0,1,0-1.12l1.42-1.43a.82.82,0,0,1,.56-.23.76.76,0,0,1,.56.24L44,41.49a.79.79,0,0,1,0,1.12ZM25.46,16.83a8.64,8.64,0,1,0,8.64,8.63A8.64,8.64,0,0,0,25.46,16.83ZM22.39,32.74a7.71,7.71,0,0,1-1.91-1.15V26.54a.16.16,0,0,1,.16-.16h1.59a.16.16,0,0,1,.16.16Zm2.12.57V28.85a.16.16,0,0,1,.16-.16h1.59a.16.16,0,0,1,.16.16V33.3a7.61,7.61,0,0,1-1,.06c-.32,0-.64,0-.95,0Zm5.94-1.72a8.22,8.22,0,0,1-1.91,1.15V24.46a.16.16,0,0,1,.16-.16h1.59a.16.16,0,0,1,.16.16Zm.73-.68V24.46a.89.89,0,0,0-.89-.89H28.7a.89.89,0,0,0-.89.89V33c-.22.07-.43.12-.65.17V28.85a.9.9,0,0,0-.9-.89H24.67a.89.89,0,0,0-.89.89v4.33c-.22,0-.44-.1-.65-.17V26.54a.9.9,0,0,0-.9-.89H20.65a.89.89,0,0,0-.9.89v4.37a7.91,7.91,0,1,1,11.43,0ZM29.59,20.13l.09,1.75a.38.38,0,0,1-.35.39.37.37,0,0,1-.38-.35l0-.87-2.26,2.48a.37.37,0,0,1-.47.06l-2-1.28-2.27,2.31a.34.34,0,0,1-.26.11.42.42,0,0,1-.26-.1.37.37,0,0,1,0-.52l2.47-2.53a.38.38,0,0,1,.46,0l2,1.28,2.05-2.25-.87,0a.37.37,0,0,1-.38-.35.36.36,0,0,1,.35-.38l1.74-.08a.38.38,0,0,1,.27.09.36.36,0,0,1,.11.25Z" transform="translate(-6 -6)"/></svg>