<svg id="deployment" xmlns="http://www.w3.org/2000/svg" viewBox="0 0 48 48"><defs><style>.cls-1{fill:#3b82f6;}.cls-2{fill:#fff;fill-rule:evenodd;}</style></defs><circle class="cls-1" cx="24" cy="24" r="24"/><path class="cls-2" d="M31.65,25.37l.23.09h0l.2.09a.86.86,0,0,0,.36.08.73.73,0,0,0,.35-.09l.06,0a.81.81,0,0,1,.53-.08.78.78,0,0,1,.49.25l.41.4a1,1,0,0,1,.25.49v0a1,1,0,0,1-.09.53l0,0a.73.73,0,0,0-.09.35h0a.73.73,0,0,0,.08.36h0l.1.23c0,.08.06.15.09.24h0a.7.7,0,0,0,.5.48l.07,0a.88.88,0,0,1,.59.84v.56a.9.9,0,0,1-.17.53l0,0a1,1,0,0,1-.42.29h0a.84.84,0,0,0-.31.19.81.81,0,0,0-.19.31l-.09.24c0,.1-.07.16-.1.22v0a.81.81,0,0,0-.08.34h0a.88.88,0,0,0,.1.36l0,0a.92.92,0,0,1,.08.54h0a.89.89,0,0,1-.25.49l-.4.4a.87.87,0,0,1-.49.26,1,1,0,0,1-.55-.09l0,0a.79.79,0,0,0-.72,0l-.23.1-.24.09a.79.79,0,0,0-.31.2.8.8,0,0,0-.19.32v0a.89.89,0,0,1-.32.44.93.93,0,0,1-.53.17h-.56a.9.9,0,0,1-.53-.17.86.86,0,0,1-.33-.46v0a.78.78,0,0,0-.49-.51l-.24-.09h0a2,2,0,0,1-.23-.1h0a.73.73,0,0,0-.36-.08.85.85,0,0,0-.35.08l0,0a.87.87,0,0,1-.55.09.89.89,0,0,1-.5-.25l-.4-.4a.92.92,0,0,1-.25-.49.85.85,0,0,1,.08-.52v0a.09.09,0,0,1,0-.06.73.73,0,0,0,.08-.33h0a.77.77,0,0,0-.09-.36h0c0-.08-.07-.16-.1-.23l-.09-.24h0a.83.83,0,0,0-.2-.3.81.81,0,0,0-.31-.18h0a.9.9,0,0,1-.62-.86v-.56a.89.89,0,0,1,.63-.86h0a.77.77,0,0,0,.51-.5h0c0-.09.06-.16.09-.23s.06-.15.1-.23v0a.73.73,0,0,0,.08-.33h0a.83.83,0,0,0-.1-.35l0-.07a.85.85,0,0,1-.08-.52v0a.94.94,0,0,1,.25-.47l.4-.4,0,0a.9.9,0,0,1,1-.13l.06,0a.78.78,0,0,0,.33.09.74.74,0,0,0,.36-.09h0l.2-.09.23-.09a.79.79,0,0,0,.31-.2.77.77,0,0,0,.19-.31v-.05a.89.89,0,0,1,.86-.61h.56a.9.9,0,0,1,.53.17h0a.93.93,0,0,1,.32.44l0,.05a.78.78,0,0,0,.18.32.77.77,0,0,0,.31.19ZM24.9,34.53,23,34a.32.32,0,0,0-.14,0h-.15l0,0h-.1l0,0h0a.35.35,0,0,0-.06.14L22,36.2a.42.42,0,0,0,.3.5.41.41,0,0,0,.5-.29l.28-1A8.77,8.77,0,0,0,38.77,30a.4.4,0,0,0-.42-.4.41.41,0,0,0-.4.4,7.94,7.94,0,0,1-14,5.11l.78.21A.41.41,0,0,0,25.2,35a.42.42,0,0,0-.29-.51Zm10.4-8.71,1.9.51a.42.42,0,0,0,.51-.29l.5-1.91a.41.41,0,0,0-.79-.21h0l-.27,1A8.77,8.77,0,0,0,21.22,30,.41.41,0,0,0,22,30a8,8,0,0,1,14.35-4.74L35.51,25a.41.41,0,0,0-.22.8ZM22.61,19.37a.41.41,0,0,1-.5.28.41.41,0,0,1-.29-.5l.51-1.9a.41.41,0,0,1,.5-.29l1.9.51a.41.41,0,1,1-.21.79h0L23.58,18l1.2,2.09a.4.4,0,0,1-.18.55.41.41,0,0,1-.52-.14l-1.21-2.09Zm-4.32,5.11A.42.42,0,0,1,18,25a.42.42,0,0,1-.51-.29h0L17,22.79a.41.41,0,0,1,.29-.5l1.91-.51a.4.4,0,0,1,.5.28.41.41,0,0,1-.28.51h0l-.95.26L20.53,24a.4.4,0,0,1,.15.56.4.4,0,0,1-.56.15h0L18,23.54l.26.94Zm-1.19,6.6a.41.41,0,0,1-.59.58l-1.37-1.37a.42.42,0,0,1,0-.59s0,0,0,0l1.37-1.37a.41.41,0,0,1,.58,0,.4.4,0,0,1,0,.58v0l-.7.69h2.42a.42.42,0,0,1,0,.83H16.4Zm2.26,6.31a.41.41,0,1,1-.21.79l-1.9-.51a.42.42,0,0,1-.3-.5l.52-1.91a.41.41,0,0,1,.79.21l-.25,1,2.09-1.21a.42.42,0,0,1,.56.15.41.41,0,0,1-.15.56l-2.1,1.21.95.26Zm5.13,4.32a.41.41,0,0,1,.21.8L22.79,43a.41.41,0,0,1-.5-.29l-.52-1.91a.42.42,0,0,1,.29-.51.42.42,0,0,1,.51.29h0l.26,1,1.2-2.1a.41.41,0,0,1,.55-.18.4.4,0,0,1,.18.55.08.08,0,0,1,0,0L23.53,42l.95-.26Zm6.59,1.19a.41.41,0,0,1,.58,0,.4.4,0,0,1,0,.56l-1.37,1.38a.41.41,0,0,1-.58,0l-.05,0-1.37-1.38a.41.41,0,0,1,.58-.58l.69.69V41.18a.41.41,0,0,1,.41-.41.41.41,0,0,1,.41.41v2.41l.69-.69Zm6.31-2.27a.41.41,0,0,1,.5-.28.41.41,0,0,1,.29.5l-.51,1.9a.41.41,0,0,1-.5.29h0l-1.91-.51A.42.42,0,0,1,35,42a.41.41,0,0,1,.5-.29h0l1,.25L35.21,39.9a.41.41,0,1,1,.68-.46l0,.05,1.21,2.09.26-.94Zm4.32-5.12A.42.42,0,0,1,42,35a.42.42,0,0,1,.5.3l.51,1.9h0v0h0v.09h0v0h-.14l-.09,0h0l-1.9.51a.4.4,0,0,1-.5-.29.41.41,0,0,1,.29-.5l.94-.25L39.47,36a.4.4,0,0,1-.15-.56.4.4,0,0,1,.56-.15L42,36.46l-.26-1Zm1.19-6.59a.41.41,0,0,1,.59-.58l1.37,1.38a.41.41,0,0,1,0,.58l0,0-1.37,1.37a.41.41,0,1,1-.6-.56v0l.7-.69H41.18a.41.41,0,0,1,0-.82H43.6l-.7-.7Zm-2.27-6.3a.42.42,0,0,1-.3-.5.41.41,0,0,1,.5-.3h0l1.91.51a.41.41,0,0,1,.29.5l-.51,1.91A.4.4,0,0,1,42,25a.41.41,0,0,1-.29-.5h0l.25-1-2.1,1.21a.41.41,0,0,1-.55-.15.4.4,0,0,1,.15-.56l2.09-1.21-.95-.25Zm-5.11-4.33A.42.42,0,0,1,35,18a.41.41,0,0,1,.29-.5h0L37.21,17a.41.41,0,0,1,.5.29l.51,1.91a.41.41,0,0,1-.29.5.4.4,0,0,1-.5-.29h0l-.26-.95L36,20.54a.42.42,0,0,1-.56.15.43.43,0,0,1-.15-.57L36.46,18l-.94.26Zm-6.6-1.19a.41.41,0,0,1-.58-.58l1.37-1.38a.41.41,0,0,1,.58,0l.05,0,1.37,1.38a.41.41,0,0,1-.57.59h0l-.69-.69v2.41a.42.42,0,0,1-.83,0V16.4Zm1.08,10a3,3,0,1,0,3,3,3,3,0,0,0-3-3Zm1.5,1.45a2.13,2.13,0,1,0,0,3A2.09,2.09,0,0,0,32.12,30,2.12,2.12,0,0,0,31.5,28.5Zm.07-2.28-.2-.08a1.58,1.58,0,0,1-.62-.4,1.65,1.65,0,0,1-.38-.62l0-.05a.05.05,0,0,0,0,0h-.66l0,0,0,.06a1.59,1.59,0,0,1-1,1h0l-.2.08-.17.07h0a1.58,1.58,0,0,1-1.42,0l-.06,0h-.05l0,0-.21.21-.19.2,0,0h0a0,0,0,0,0,0,0s0,0,0,.05v0a1.54,1.54,0,0,1,.17.7h0a1.62,1.62,0,0,1-.15.69v0a.84.84,0,0,0-.08.19l-.08.19h0a1.62,1.62,0,0,1-.4.62,1.5,1.5,0,0,1-.64.38l0,0a.05.05,0,0,0,0,0,.09.09,0,0,0,0,0v.56s0,0,0,0,0,0,0,0h0a1.61,1.61,0,0,1,1,1v0l.08.2a1.08,1.08,0,0,0,.08.19,1.56,1.56,0,0,1,0,1.41v0l0,0s0,0,0,0h0a.05.05,0,0,0,0,0l.19.21.2.19s0,0,0,0h.05l0,0a1.62,1.62,0,0,1,1.44,0h0l.2.09.19.07h0a1.64,1.64,0,0,1,1,1v0s0,0,0,0h.65s0,0,0,0l0-.06a1.77,1.77,0,0,1,.38-.63,1.67,1.67,0,0,1,.62-.39h0l.2-.08a.75.75,0,0,0,.18-.08h0a1.59,1.59,0,0,1,1.44,0l0,0h.05l0,0,.4-.41a.05.05,0,0,0,0,0s0,0,0,0l0,0a1.65,1.65,0,0,1-.17-.72h0a1.5,1.5,0,0,1,.14-.69l.1-.22c0-.07.06-.13.08-.19a1.61,1.61,0,0,1,1-1l.07,0h0a.07.07,0,0,0,0,0v-.56a.09.09,0,0,0,0,0l0,0,0,0a1.58,1.58,0,0,1-1-1v0a1.46,1.46,0,0,0-.07-.19l-.09-.2a1.62,1.62,0,0,1,0-1.44l0,0a.06.06,0,0,0,0,0h0a.05.05,0,0,0,0,0l-.41-.41,0,0h0l0,0a1.61,1.61,0,0,1-1.45,0h0l-.17-.08Z" transform="translate(-6 -6)"/></svg>