<svg id="design" xmlns="http://www.w3.org/2000/svg" viewBox="0 0 48 48"><defs><style>.cls-1{fill:#3b82f6;}.cls-2{fill:#fff;}</style></defs><circle class="cls-1" cx="24" cy="24" r="24"/><path class="cls-2" d="M44.25,16.31a2.45,2.45,0,0,0-3.51-.08L31,25.58l-7.72-8.09,0,0L22.15,16.3c-3.81-3.77-8.81,1.47-5.22,5.48l8.63,9-2.85,2.73A2.72,2.72,0,0,0,22,36.35a3.33,3.33,0,0,0-3.63,2c-1.2,3.13-2.89,3.56-3,3.57a.58.58,0,0,0-.17,1,10.72,10.72,0,0,0,5,1.51c2.35.17,5.4-2,4.93-4.85a2.44,2.44,0,0,0,2.62-.74l2.6-3L36.3,42.1a.8.8,0,0,0,.19.13L43.57,45a.54.54,0,0,0,.69-.35.59.59,0,0,0,0-.37l-2.61-7.43a.21.21,0,0,0,0-.06.42.42,0,0,0-.09-.14l-6.11-6.41L44.33,20A2.74,2.74,0,0,0,44.25,16.31ZM16.78,18.77A2.6,2.6,0,0,1,21.4,17.1l.74.77-3.71,3.89A4.23,4.23,0,0,1,16.78,18.77Zm2.41,3.79,3.71-3.89,7.32,7.68-3.87,3.72Zm4.2,19.54c-2,2.09-5.08,1.11-6.63.41a7.8,7.8,0,0,0,2.63-3.71c.59-1.65,3.09-1.75,4.09-.49A2.85,2.85,0,0,1,23.39,42.1Zm14.44-.55A15.15,15.15,0,0,0,41,38.23l1.85,5.26Zm2.63-4.46A14.21,14.21,0,0,1,36.74,41l-5.6-5.88L34.69,31Zm3.08-17.86L27,38.15a1.42,1.42,0,0,1-2.07.1l-.05,0-1.51-1.58a1.61,1.61,0,0,1,0-2.19l0,0,18-17.33a1.42,1.42,0,0,1,2.07.12,1.59,1.59,0,0,1,0,2.05Z" transform="translate(-6 -6)"/></svg>