<svg id="development" xmlns="http://www.w3.org/2000/svg" viewBox="0 0 48 48"><defs><style>.cls-1{fill:#3b82f6;}.cls-2{fill:#fff;fill-rule:evenodd;}</style></defs><circle class="cls-1" cx="24" cy="24" r="24"/><path class="cls-2" d="M36,22.23a1.29,1.29,0,0,1,1.82,0l6.85,6.86a1.27,1.27,0,0,1,0,1.82l-6.85,6.86A1.29,1.29,0,0,1,36,36l5.95-6L36,24.05A1.29,1.29,0,0,1,36,22.23Z" transform="translate(-6 -6)"/><path class="cls-2" d="M24.05,22.23a1.29,1.29,0,0,0-1.82,0l-6.85,6.86a1.27,1.27,0,0,0,0,1.82l6.85,6.86A1.29,1.29,0,0,0,24.05,36L18.1,30l5.95-5.95A1.29,1.29,0,0,0,24.05,22.23Z" transform="translate(-6 -6)"/><path class="cls-2" d="M32,19.32a1.29,1.29,0,0,1,1,1.54L28.68,39.71a1.27,1.27,0,0,1-1.54,1,1.29,1.29,0,0,1-1-1.54l4.29-18.85A1.28,1.28,0,0,1,32,19.32Z" transform="translate(-6 -6)"/></svg>