<?xml version="1.0" encoding="UTF-8"?>
<svg xmlns="http://www.w3.org/2000/svg" version="1.1" xmlns:xlink="http://www.w3.org/1999/xlink" viewBox="0 0 98 60">
  <defs>
    <style>
      .cls-1 {
        fill: none;
      }

      .cls-2 {
        clip-path: url(#clippath-1);
      }

      .cls-3 {
        fill-rule: evenodd;
      }

      .cls-3, .cls-4 {
        fill: #010101;
      }

      .cls-5 {
        display: none;
      }

      .cls-6 {
        clip-path: url(#clippath-2);
      }

      .cls-7 {
        clip-path: url(#clippath);
      }
    </style>
    <clipPath id="clippath">
      <rect class="cls-1" width="98" height="60"/>
    </clipPath>
    <clipPath id="clippath-1">
      <rect class="cls-1" width="98" height="60"/>
    </clipPath>
    <clipPath id="clippath-2">
      <rect class="cls-1" width="98" height="60"/>
    </clipPath>
  </defs>
  <!-- Generator: Adobe Illustrator 28.6.0, SVG Export Plug-In . SVG Version: 1.2.0 Build 709)  -->
  <g>
    <g id="Layer_1">
      <g id="compliance" class="cls-5">
        <g class="cls-7">
          <path class="cls-3" d="M36.4,14.8c1,0,2,.4,2.6,1.1s1.1,1.6,1.1,2.6-.4,2-1.1,2.6-1.6,1.1-2.6,1.1-2-.4-2.6-1.1-1.1-1.6-1.1-2.6.4-2,1.1-2.6,1.6-1.1,2.6-1.1ZM43.8,1.9c.5,0,.9.2,1.2.5.3.3.5.7.5,1.2s-.2.9-.5,1.2c-.3.3-.7.5-1.2.5s-.9-.2-1.2-.5c-.3-.3-.5-.7-.5-1.2s.2-.9.5-1.2c.3-.3.7-.5,1.2-.5ZM44,3.3c0,0-.2-.1-.3-.1s-.2,0-.3.1c0,0-.1.2-.1.3s0,.2.1.3c0,0,.2.1.3.1s.2,0,.3-.1c0,0,.1-.2.1-.3s0-.2-.1-.3ZM59.6,30c-5.6,2.1-10.7,4.1-12.1,4.6v8.2c.5,3.7,1.7,6.8,3.8,9.5,2,2.6,4.8,4.7,8.4,6.2,3.6-1.6,6.3-3.7,8.4-6.2,2-2.6,3.3-5.8,3.8-9.5v-8.2c-1.5-.6-6.5-2.5-12.1-4.6h0ZM46.6,33.6s6-2.3,12.8-4.9c.1,0,.3,0,.5,0,6.5,2.5,12.3,4.7,12.8,4.9.3,0,.5.3.5.6v8.7s0,0,0,0c-.5,3.9-1.8,7.3-4.1,10.2-2.2,2.8-5.2,5.1-9.1,6.8-.2,0-.4,0-.5,0-3.9-1.7-6.9-3.9-9.1-6.8-2.2-2.8-3.6-6.2-4-10.1,0,0,0,0,0-.1v-8.7c0-.3.2-.5.4-.6h0ZM59.6,34.5c2.3,0,4.5,1,6,2.5,1.5,1.5,2.5,3.7,2.5,6s-1,4.5-2.5,6c-1.5,1.5-3.7,2.5-6,2.5s-4.5-1-6-2.5c-1.5-1.5-2.5-3.7-2.5-6s1-4.5,2.5-6c1.5-1.5,3.7-2.5,6-2.5ZM64.7,38c1.3,1.3,2.1,3.1,2.1,5.1s-.8,3.8-2.1,5.1c-1.3,1.3-3.1,2.1-5.1,2.1s-3.8-.8-5.1-2.1c-1.3-1.3-2.1-3.1-2.1-5.1s.8-3.8,2.1-5.1c1.3-1.3,3.1-2.1,5.1-2.1s3.8.8,5.1,2.1ZM55.3,44.4c-.3-.2-.3-.7,0-.9.2-.3.7-.3.9,0l2.2,1.9,4.7-6.1c.2-.3.6-.3.9-.1.3.2.3.6.1.9l-5.1,6.6s0,0,0,0c-.2.3-.7.3-.9,0,0,0-.6-.6-2.7-2.4h0ZM41.4,36.5c-.4,0-.7-.3-.7-.7s.3-.7.7-.7h2.8c.4,0,.7.3.7.7s-.3.7-.7.7h-2.8ZM41.4,27.9c-.4,0-.7-.3-.7-.7s.3-.7.7-.7h12.8c.4,0,.7.3.7.7s-.3.7-.7.7h-12.8ZM41.4,19.2c-.4,0-.7-.3-.7-.7s.3-.7.7-.7h12.8c.4,0,.7.3.7.7s-.3.7-.7.7h-12.8ZM62.5,27.3V6.7c0-.9-.3-1.6-.9-2.2-.6-.6-1.3-.9-2.2-.9h-11.1c-.1-.9-.6-1.7-1.2-2.3-.8-.8-1.8-1.3-3-1.3h-.8c-1.2,0-2.2.5-3,1.3-.6.6-1.1,1.4-1.2,2.3h-11.2c-.8,0-1.6.4-2.2.9-.5.6-.9,1.4-.9,2.2v37.9c0,.9.3,1.6.9,2.2.6.6,1.3.9,2.2.9h17c.4,0,.7-.3.7-.7s-.3-.7-.7-.7h-17c-.5,0-.9-.2-1.2-.5-.3-.3-.5-.8-.5-1.3V6.7c0-.5.2-1,.5-1.3.3-.3.7-.5,1.2-.5h11.1v2.2h-4.6c-.7,0-1.4.3-1.8.8-.2.2-.4.5-.5.7-.7,0-1.3.4-1.7.9-.6.6-.9,1.3-.9,2.1v29c0,.8.3,1.6.9,2.1.6.6,1.3.9,2.1.9h11.6c.4,0,.7-.3.7-.7s-.3-.7-.7-.7h-11.6c-.5,0-.9-.2-1.2-.5-.3-.3-.5-.7-.5-1.2V11.7c0-.5.2-.9.5-1.2.2-.2.3-.3.5-.4v1.6c0,.4.3.7.7.7h22.4s0,0,0,0h.1s0,0,0,0h0s0,0,0,0h0s0-.1,0-.1h0c0,0,0-.1,0-.1h0c0-.1,0-.1,0-.1h0s0,0,0,0h0s0,0,0,0v-1.7c.2,0,.4.2.5.4.3.3.5.7.5,1.2v15.6c0,.4.3.7.7.7s.7-.3.7-.7v-15.6c0-.8-.3-1.6-.9-2.1-.5-.5-1.1-.8-1.7-.9-.1-.3-.3-.5-.5-.7-.5-.5-1.1-.8-1.8-.8h-4.6v-2.2h11c.5,0,.9.2,1.2.5.3.3.5.8.5,1.3v20.5c0,.4.3.7.7.7.4,0,.7-.3.7-.7h0ZM47.1,7.2v-2.9c0-.8-.3-1.5-.9-2.1s-1.3-.9-2.1-.9h-.8c-.8,0-1.5.3-2.1.9-.5.5-.9,1.3-.9,2.1v2.9h6.7ZM54.2,9.5c0,0,0,.2,0,.3v1.3h-21v-1.3c0-.3.1-.6.4-.9.2-.2.5-.4.9-.4h18.5c.3,0,.7.1.9.4.2.2.3.4.3.6,0,0,0,0,0,0h0ZM36.4,32.1c1,0,2,.4,2.6,1.1s1.1,1.6,1.1,2.6-.4,2-1.1,2.6-1.6,1.1-2.6,1.1-2-.4-2.6-1.1-1.1-1.6-1.1-2.6.4-2,1.1-2.6,1.6-1.1,2.6-1.1ZM37.9,34.1c-.3,0-.5,0-.7.2l-1.4,1.8-.4-.4c-.3-.2-.7-.2-.9,0-.2.3-.2.7,0,.9.4.3,1,.9,1,.9.3.2.7.2.9,0,0,0,0,0,0,0l1.8-2.3c.1-.1.2-.3.1-.5.2.4.4.8.4,1.3,0,.7-.3,1.3-.7,1.7-.4.4-1,.7-1.7.7s-1.3-.3-1.7-.7c-.4-.4-.7-1-.7-1.7s.3-1.3.7-1.7c.4-.4,1-.7,1.7-.7.6,0,1.1.2,1.6.6h0ZM36.4,23.5c1,0,2,.4,2.6,1.1s1.1,1.6,1.1,2.6-.4,2-1.1,2.6-1.6,1.1-2.6,1.1-2-.4-2.6-1.1-1.1-1.6-1.1-2.6.4-2,1.1-2.6,1.6-1.1,2.6-1.1ZM37.9,25.4c-.3,0-.5,0-.7.2l-1.4,1.8-.4-.4c-.3-.2-.7-.2-.9,0-.2.3-.2.7,0,.9.4.3,1,.9,1,.9.3.2.7.2.9,0,0,0,0,0,0,0l1.8-2.3c.1-.1.2-.3.1-.5.2.4.4.8.4,1.3,0,.7-.3,1.3-.7,1.7-.4.4-1,.7-1.7.7s-1.3-.3-1.7-.7c-.4-.4-.7-1-.7-1.7s.3-1.3.7-1.7c.4-.4,1-.7,1.7-.7.6,0,1.1.2,1.6.6h0ZM34.5,19.3c-.3-.2-.3-.7,0-.9.2-.3.7-.3.9,0l.4.4,1.4-1.8c.2-.2.5-.3.7-.2-.4-.4-1-.6-1.6-.6s-1.3.3-1.7.7c-.4.4-.7,1-.7,1.7s.3,1.3.7,1.7c.4.4,1,.7,1.7.7s1.3-.3,1.7-.7c.4-.4.7-1,.7-1.7s-.1-.9-.4-1.3c0,.2,0,.3-.1.5l-1.8,2.3s0,0,0,0c-.2.3-.7.3-.9,0,0,0-.6-.5-1-.9h0Z"/>
        </g>
      </g>
      <g id="support" class="cls-5">
        <g class="cls-2">
          <g>
            <path class="cls-4" d="M68.7,40.3c-2.9,0-6.3,2.4-13.1,7.5-.3-1.1-1.2-2.4-3.3-3.5-4.4-2.3-10-5.1-12.2-6.2-.8-.4-1.6-.6-2.5-.6h-5.5c0-.5-.4-.9-.9-.9h-5.6c-.5,0-.9.4-.9.9v15c0,.5.4.9.9.9h5.6c.5,0,.9-.4.9-.9h.7c.6,0,1.2.2,1.8.4l11.5,6.1c1.1.6,2.4.9,3.7.9h2.2c1.9,0,3.7-.7,5.1-1.9l15.8-13.3c.2-.2.3-.4.3-.7,0-1.3-1-3.7-4.7-3.7h0ZM26.5,51.6v-13.1h3.7v13.1h-3.7ZM56,56.7c-1.1.9-2.5,1.4-3.9,1.4h-2.2c-1,0-2-.2-2.9-.7l-11.5-6.1c-.8-.4-1.7-.7-2.6-.7h-.7v-11.2h5.5c.6,0,1.2.1,1.7.4,2.2,1.1,7.7,3.9,12.1,6.2,2.8,1.5,2.4,3,2.3,3.5-.2.7-.7,1.3-1.4,1.7-.7.4-1.5.5-2.2.3l-5.6-1.7c-.5-.2-1,.1-1.2.6-.2.5.1,1,.6,1.2l5.6,1.7s0,0,0,0c.4.1.8.2,1.2.2.8,0,1.7-.2,2.4-.6,1-.6,1.8-1.5,2.2-2.5,6.9-5.2,10.8-8.1,13.3-8.1s2.6.9,2.7,1.5l-15.4,13h0Z"/>
            <path class="cls-4" d="M72.7,16.9l-4.6-1.3c-.3-1.1-.8-2.2-1.3-3.2l2.3-4.2c.2-.4.1-.8-.2-1.1l-2.7-2.7c-.3-.3-.8-.4-1.1-.2l-4.2,2.3c-1-.6-2.1-1-3.2-1.3l-1.3-4.6c-.1-.4-.5-.7-.9-.7h-3.7c-.4,0-.8.3-.9.7l-1.3,4.6c-1.1.3-2.2.8-3.2,1.3l-4.2-2.3c-.4-.2-.8-.1-1.1.2l-2.7,2.7c-.3.3-.4.8-.2,1.1l2.3,4.2c-.6,1-1,2.1-1.3,3.2l-4.6,1.3c-.4.1-.7.5-.7.9v3.7c0,.4.3.8.7.9l4.6,1.3c.3,1.1.8,2.2,1.3,3.2l-2.3,4.2c-.2.4-.1.8.2,1.1l2.7,2.7c.3.3.8.4,1.1.2l4.2-2.3c1,.6,2.1,1,3.2,1.3l1.3,4.6c.1.4.5.7.9.7h3.7c.4,0,.8-.3.9-.7l1.3-4.6c1.1-.3,2.2-.8,3.2-1.3l4.2,2.3c.4.2.8.1,1.1-.2l2.7-2.7c.3-.3.4-.8.2-1.1l-2.3-4.2c.6-1,1-2.1,1.3-3.2l4.6-1.3c.4-.1.7-.5.7-.9v-3.7c0-.4-.3-.8-.7-.9ZM71.5,20.9l-4.4,1.3c-.3,0-.6.4-.7.7-.3,1.3-.8,2.6-1.5,3.7-.2.3-.2.6,0,.9l2.2,4-1.6,1.6-4-2.2c-.3-.2-.7-.2-.9,0-1.2.7-2.4,1.2-3.7,1.5-.3,0-.6.3-.7.7l-1.3,4.4h-2.3l-1.3-4.4c0-.3-.4-.6-.7-.7-1.3-.3-2.6-.8-3.7-1.5-.3-.2-.6-.2-.9,0l-4,2.2-1.6-1.6,2.2-4c.2-.3.2-.7,0-.9-.7-1.2-1.2-2.4-1.5-3.7,0-.3-.3-.6-.7-.7l-4.4-1.3v-2.3l4.4-1.3c.3,0,.6-.4.7-.7.3-1.3.8-2.6,1.5-3.7.2-.3.2-.6,0-.9l-2.2-4,1.6-1.6,4,2.2c.3.2.7.2.9,0,1.2-.7,2.4-1.2,3.7-1.5.3,0,.6-.3.7-.7l1.3-4.4h2.3l1.3,4.4c0,.3.4.6.7.7,1.3.3,2.6.8,3.7,1.5.3.2.6.2.9,0l4-2.2,1.6,1.6-2.2,4c-.2.3-.2.7,0,.9.7,1.2,1.2,2.4,1.5,3.7,0,.3.3.6.7.7l4.4,1.3v2.3Z"/>
            <path class="cls-4" d="M53.7,9.4c-5.7,0-10.3,4.6-10.3,10.3s4.6,10.3,10.3,10.3,10.3-4.6,10.3-10.3-4.6-10.3-10.3-10.3ZM53.7,28.1c-4.7,0-8.4-3.8-8.4-8.4s3.8-8.4,8.4-8.4,8.4,3.8,8.4,8.4-3.8,8.4-8.4,8.4Z"/>
            <path class="cls-4" d="M56.8,16.2l-4.8,4.8-1.2-1.9c-.3-.4-.9-.5-1.3-.3-.4.3-.5.9-.3,1.3l1.9,2.8c.2.2.4.4.7.4,0,0,0,0,0,0,.2,0,.5,0,.7-.3l5.6-5.6c.4-.4.4-1,0-1.3s-1-.4-1.3,0h0Z"/>
          </g>
        </g>
      </g>
      <g class="cls-6">
        <path class="cls-3" d="M54.2,0c-1.8,0-3.3,1.5-3.3,3.3v13.1c0,1.8,1.5,3.3,3.3,3.3h.6v2.1h0c0,.3.2.7.5.8.3.2.7.1,1,0l4-2.8h7c1.8,0,3.3-1.5,3.3-3.3V3.3C70.5,1.5,69,0,67.2,0h-13.1ZM39.4,0c-4,0-7.2,3.2-7.2,7.2s1.3,4.7,3.3,6c-4.6,1.6-7.9,6-7.9,11.2v3.3c0,.3,0,.5.3.7.2.2.4.3.7.3h21.9c.2,0,.5,0,.7-.3.2-.2.3-.4.3-.7v-3.3c0-5.2-3.3-9.6-7.9-11.2,2-1.3,3.3-3.5,3.3-6C46.6,3.3,43.4,0,39.4,0h0ZM39.4,1.9c3,0,5.3,2.4,5.3,5.4s-2.4,5.4-5.3,5.4-5.3-2.4-5.3-5.4,2.4-5.4,5.3-5.4ZM54.2,1.9h13.1c.8,0,1.4.6,1.4,1.4v13.1c0,.8-.6,1.4-1.4,1.4h-7.3,0c-.2,0-.4,0-.5.2l-2.8,2v-1.2c0-.2,0-.5-.3-.7-.2-.2-.4-.3-.7-.3h-1.5c-.8,0-1.4-.6-1.4-1.4V3.3c0-.8.6-1.4,1.4-1.4h0ZM61.1,3.9c-2,0-3.6,1.7-3.6,3.7h0c0,.3,0,.5.3.7.2.2.4.3.7.3.2,0,.5-.1.7-.3.2-.2.3-.4.3-.7,0-1.1.8-1.8,1.7-1.8s1.7.8,1.7,1.8-.8,1.8-1.7,1.8-1.9.9-1.9,2v1.1h0c0,.5.4.9.9.9.5,0,.9-.4.9-.9v-1.1c0,0,0,0,0,0h0c2,0,3.6-1.7,3.6-3.7s-1.6-3.7-3.6-3.7h0ZM60.1,13.9c-.6,0-1,.5-1,1s.5,1,1,1,1-.5,1-1-.5-1-1-1ZM39.4,14.5c5.6,0,10,4.5,10,10v2.4h-20v-2.4c0-5.6,4.4-10,10-10ZM30.8,31.3c-1.8,0-3.3,1.5-3.3,3.3v13.1c0,1.8,1.5,3.3,3.3,3.3h7l4,2.9h0c.3.2.7.2,1,0,.3-.2.5-.5.5-.8v-2.1h.6c1.8,0,3.3-1.5,3.3-3.3v-13.1c0-1.8-1.5-3.3-3.3-3.3h-13.1ZM58.6,31.3c-4,0-7.2,3.2-7.2,7.2s1.3,4.7,3.3,6c-4.6,1.6-7.9,6-7.9,11.2v3.3h0c0,.5.4.9.9.9h21.9c.5,0,.9-.4.9-.9v-3.3c0-5.2-3.3-9.6-7.9-11.2,2-1.3,3.3-3.5,3.3-6,0-4-3.2-7.2-7.2-7.2h0ZM30.8,33.2h13.1c.8,0,1.4.6,1.4,1.4v13.1c0,.8-.6,1.4-1.4,1.4h-1.5c-.2,0-.5,0-.7.3-.2.2-.3.4-.3.7v1.2l-2.8-2h0c-.2-.1-.3-.2-.5-.2h-7.3c-.8,0-1.4-.6-1.4-1.4v-13.1c0-.8.6-1.4,1.4-1.4h0ZM58.6,33.2c3,0,5.3,2.4,5.3,5.4s-2.4,5.4-5.3,5.4-5.3-2.4-5.3-5.4,2.4-5.4,5.3-5.4ZM32.8,35.8c-.5,0-.9.4-.9.9,0,.5.4.9.9.9h9.1c.2,0,.5,0,.7-.3.2-.2.3-.4.3-.7s0-.5-.3-.7c-.2-.2-.4-.3-.7-.3h-9.1ZM32.8,40.1c-.2,0-.5.1-.7.3-.2.2-.3.4-.3.7,0,.5.4.9.9.9h9.1c.2,0,.5,0,.7-.3.2-.2.3-.4.3-.7,0-.3,0-.5-.3-.7-.2-.2-.4-.3-.7-.3h-9.1ZM32.8,44.5c-.5,0-.9.4-.9.9,0,.2,0,.5.3.7.2.2.4.3.7.3h9.1c.2,0,.5,0,.7-.3.2-.2.3-.4.3-.7,0-.2-.1-.5-.3-.7-.2-.2-.4-.3-.7-.3h-9.1ZM58.6,45.8c5.6,0,10,4.4,10,10v2.3h-20v-2.4c0-5.6,4.4-10,10-10h0Z"/>
      </g>
    </g>
  </g>
</svg>