<svg id="php_based_cms_development" data-name="php based cms development" xmlns="http://www.w3.org/2000/svg" xmlns:xlink="http://www.w3.org/1999/xlink" viewBox="0 0 145.61 120"><defs><style>.cls-1{fill:none;}.cls-2{clip-path:url(#clip-path);}.cls-3{fill:#3b82f6;}</style><clipPath id="clip-path" transform="translate(-25.19)"><rect class="cls-1" width="196" height="120"/></clipPath></defs><g class="cls-2"><path class="cls-3" d="M133.08,59.87a22.14,22.14,0,1,0-22.14-22.13A22.16,22.16,0,0,0,133.08,59.87Zm0-39.71a17.58,17.58,0,1,1-17.59,17.58A17.61,17.61,0,0,1,133.08,20.16ZM164.49,47.3l4.74-1.55a2.27,2.27,0,0,0,1.56-2.16V31.88a2.28,2.28,0,0,0-1.56-2.16l-4.74-1.55a32.61,32.61,0,0,0-2.44-5.9l2.27-4.44a2.28,2.28,0,0,0-.41-2.64l-8.28-8.28A2.27,2.27,0,0,0,153,6.5l-4.45,2.27a33.11,33.11,0,0,0-5.9-2.46l-1.53-4.73A2.28,2.28,0,0,0,139,0H127.25a2.28,2.28,0,0,0-2.17,1.56l-1.54,4.75a34.87,34.87,0,0,0-5.91,2.44L113.17,6.5a2.26,2.26,0,0,0-2.63.41l-8.26,8.28a2.26,2.26,0,0,0-.42,2.64l2.27,4.44a33.91,33.91,0,0,0-1.53,3.36H39a5.11,5.11,0,0,0-5.1,5.12V99.23H27.48a2.29,2.29,0,0,0-2.29,2.28v8.11A10.4,10.4,0,0,0,35.59,120H160.44a10.39,10.39,0,0,0,10.37-10.38v-8.11a2.27,2.27,0,0,0-2.27-2.26h-6.38V62l1.75-1.75a2.28,2.28,0,0,0,.41-2.64l-2.16-4.23V53A32.25,32.25,0,0,0,164.49,47.3Zm-51.9-36,4,2.06a2.29,2.29,0,0,0,2.21,0,28.55,28.55,0,0,1,7.08-2.93,2.23,2.23,0,0,0,1.61-1.56l1.38-4.25h8.4l1.3,4,.13.34a2.28,2.28,0,0,0,1.57,1.46,27.29,27.29,0,0,1,7,2.93,2.32,2.32,0,0,0,2.17.07l4.09-2.08,5.95,5.93L157.62,21l-.15.31a2.25,2.25,0,0,0,.08,2.15,27.9,27.9,0,0,1,2.91,7.06,2.26,2.26,0,0,0,1.53,1.6l4.29,1.39V42L162,43.35a2.29,2.29,0,0,0-1.53,1.59,28.41,28.41,0,0,1-2.9,7l0,.07a2.49,2.49,0,0,0-.11.26,1.36,1.36,0,0,0-.09.23c0,.11,0,.2,0,.31a1.81,1.81,0,0,0,0,.23c0,.11,0,.21,0,.32s0,.14,0,.22a1.69,1.69,0,0,0,.18.52l.42.84s0,0,0,.05l1.64,3.21-1.23,1.23s0,0,0,0l-4.69,4.69-.49-.25h0l-3.58-1.83a2.35,2.35,0,0,0-2.17.08,27.65,27.65,0,0,1-7,2.93,2.3,2.3,0,0,0-1.57,1.45l-1.43,4.37h-8.4L127.61,67l-.09-.34a2.26,2.26,0,0,0-1.61-1.56,28.62,28.62,0,0,1-7.08-2.93,2.29,2.29,0,0,0-2.21-.05l-4,2.06-5.93-5.94,1.93-3.78.15-.32a2.26,2.26,0,0,0-.07-2.13,28.94,28.94,0,0,1-2.94-7.08,2.26,2.26,0,0,0-1.49-1.57L99.92,42v-8.4l4.32-1.41a2.1,2.1,0,0,0,.5-.24s.05,0,.08-.06a3.44,3.44,0,0,0,.35-.3s0,0,.06-.07a2.55,2.55,0,0,0,.28-.39s0-.06,0-.07a2.35,2.35,0,0,0,.19-.43c.18-.66.38-1.3.59-1.93h0a29.27,29.27,0,0,1,2.35-5.15,2.28,2.28,0,0,0,.07-2.15l-2.08-4.09ZM96.93,45.75l4.73,1.54a33.23,33.23,0,0,0,2.46,5.9l-2.27,4.44a2.28,2.28,0,0,0,.41,2.64l8.26,8.28a2.28,2.28,0,0,0,2.64.41l4.46-2.27a32.51,32.51,0,0,0,5.89,2.44l1.54,4.75a2.28,2.28,0,0,0,2.16,1.56h11.71a2.29,2.29,0,0,0,2.17-1.58l1.53-4.73a32.47,32.47,0,0,0,5.9-2.45l1.23.62V86.86H46.25V38h49.1v5.56A2.28,2.28,0,0,0,96.93,45.75Zm69.32,63.86a5.81,5.81,0,0,1-5.81,5.82H35.59a5.84,5.84,0,0,1-5.84-5.82v-5.83H76.63l2.72,4.77a2.18,2.18,0,0,0,1.38,1.07,2.39,2.39,0,0,0,.59.08h33.36a2.39,2.39,0,0,0,.59-.08,2.18,2.18,0,0,0,1.38-1.07l2.72-4.77h46.87v5.83Zm-8.64-43V99.23H118.05a2.31,2.31,0,0,0-2,1.15l-2.71,4.77H82.66l-2.72-4.77a2.28,2.28,0,0,0-2-1.15H38.41V30.75a.55.55,0,0,1,.55-.57H96.11a2.6,2.6,0,0,0-.32.35v0a2.11,2.11,0,0,0-.26.52c0,.05,0,.11,0,.16a2.19,2.19,0,0,0-.11.63v1.59H44a2.26,2.26,0,0,0-2.27,2.27v53.4A2.27,2.27,0,0,0,44,91.4H152a2.26,2.26,0,0,0,2.27-2.27V69.19a2.29,2.29,0,0,0,1.3-.64Z" transform="translate(-25.19)"/></g></svg>