<svg id="mvp_development" data-name="mvp development" xmlns="http://www.w3.org/2000/svg" xmlns:xlink="http://www.w3.org/1999/xlink" viewBox="0 0 127.02 120"><defs><style>.cls-1{fill:none;}.cls-2{clip-path:url(#clip-path);}.cls-3{fill:#3b82f6;}</style><clipPath id="clip-path" transform="translate(-34.49)"><rect class="cls-1" width="196" height="120"/></clipPath></defs><g class="cls-2"><path class="cls-3" d="M92.55,49.45A10.11,10.11,0,1,0,82.44,59.56,10.12,10.12,0,0,0,92.55,49.45Zm-3.76,0a6.35,6.35,0,1,1-6.35-6.36A6.36,6.36,0,0,1,88.79,49.45Z" transform="translate(-34.49)"/><path class="cls-3" d="M151.91,0H44.07a9.59,9.59,0,0,0-9.58,9.58V82.32a9.59,9.59,0,0,0,9.58,9.58H81.8v10.44H78.45a8,8,0,0,0-8,8v4.71A5,5,0,0,0,75.38,120h45.23a5,5,0,0,0,4.94-4.94v-4.71a8,8,0,0,0-8-8H114.2V91.89h37.73a9.59,9.59,0,0,0,9.58-9.58V9.58A9.62,9.62,0,0,0,151.91,0ZM74.19,115.05v-4.71a4.25,4.25,0,0,1,4.25-4.24h39.1a4.25,4.25,0,0,1,4.25,4.24v4.71a1.18,1.18,0,0,1-1.18,1.19H75.38A1.19,1.19,0,0,1,74.19,115.05Zm11.37-12.71V91.89h24.88v10.45ZM38.25,75.54v-66a5.83,5.83,0,0,1,5.82-5.82H151.91a5.83,5.83,0,0,1,5.82,5.82v66ZM157.74,79.3v3a5.84,5.84,0,0,1-5.83,5.82H44.07a5.83,5.83,0,0,1-5.82-5.82v-3Z" transform="translate(-34.49)"/><path class="cls-3" d="M125.14,9.77H89.08a8.54,8.54,0,0,0-8.53,8.52V29.38h-.16A3.38,3.38,0,0,0,77,32.76v.77a18.85,18.85,0,0,0-2,.84l-.56-.56a3.38,3.38,0,0,0-4.78,0l-2.88,2.88a3.38,3.38,0,0,0,0,4.78l.55.55a15.7,15.7,0,0,0-.83,2h-.77a3.38,3.38,0,0,0-3.38,3.38V51.5a3.41,3.41,0,0,0,3.39,3.37h.78a17.6,17.6,0,0,0,.83,2l-.55.56a3.38,3.38,0,0,0,0,4.78l2.88,2.88a3.4,3.4,0,0,0,4.78,0l.55-.56a15.75,15.75,0,0,0,2,.84v.77a3.37,3.37,0,0,0,3.37,3.37h4.07a3.37,3.37,0,0,0,3.37-3.37v-.78a17,17,0,0,0,2-.83l.55.56a3.4,3.4,0,0,0,4.78,0l2.26-2.26h27.66a8.53,8.53,0,0,0,8.52-8.52v-36A8.53,8.53,0,0,0,125.14,9.77ZM78.44,61.89a12.5,12.5,0,0,1-2-.81,3.46,3.46,0,0,0-3.94.61l-.47.47-2.35-2.34.48-.47a3.36,3.36,0,0,0,.61-3.94,12.9,12.9,0,0,1-.82-2,3.38,3.38,0,0,0-3.22-2.33h-.66v-3.3h.66A3.38,3.38,0,0,0,70,45.47a13,13,0,0,1,.82-2,3.39,3.39,0,0,0-.61-3.94l-.48-.47,2.35-2.35.47.48a3.34,3.34,0,0,0,3.93.61,15.06,15.06,0,0,1,2-.82,3.36,3.36,0,0,0,2.34-3.21v-.67h3.29v.67A3.39,3.39,0,0,0,86.41,37a13,13,0,0,1,2,.81,3.38,3.38,0,0,0,3.93-.61l.48-.48,2.34,2.35-.47.47A3.36,3.36,0,0,0,94,43.51a12.25,12.25,0,0,1,.82,2,3.38,3.38,0,0,0,3.22,2.34h.66v3.3h-.66a3.38,3.38,0,0,0-3.22,2.34,14,14,0,0,1-.81,2,3.38,3.38,0,0,0,.61,3.94l.47.47-2.34,2.34-.48-.47a3.34,3.34,0,0,0-3.93-.61,12.82,12.82,0,0,1-2,.81,3.38,3.38,0,0,0-2.34,3.22v.66H80.78v-.66A3.39,3.39,0,0,0,78.44,61.89Zm19.9-7h.78a3.37,3.37,0,0,0,3.37-3.37V47.41A3.37,3.37,0,0,0,99.12,44h-.78a17,17,0,0,0-.83-2l.55-.55a3.37,3.37,0,0,0,0-4.79L95.19,33.8a3.46,3.46,0,0,0-4.79,0l-.55.55a15.7,15.7,0,0,0-2-.83v-.78a3.37,3.37,0,0,0-3.37-3.37h-.16l0-11.08a4.76,4.76,0,0,1,4.76-4.75h8.45V27.76a3.21,3.21,0,0,0,1.74,2.87,3.32,3.32,0,0,0,3.36-.27l4.27-3.11a.31.31,0,0,1,.39,0l4.26,3.1a3.17,3.17,0,0,0,3.35.28,3.21,3.21,0,0,0,1.74-2.87V13.54h8.45a4.76,4.76,0,0,1,4.76,4.75v36a4.76,4.76,0,0,1-4.76,4.75H99a3.37,3.37,0,0,0-.9-1.64l-.55-.55A15.7,15.7,0,0,0,98.34,54.85Zm14.55-28.18-3.4-2.47a4.08,4.08,0,0,0-4.82,0l-3.39,2.48V13.51h11.61Z" transform="translate(-34.49)"/><rect class="cls-3" x="77.48" y="49.33" width="14.15" height="6.34" rx="1.88"/></g></svg>