<svg id="pwa_solution" data-name="pwa solution" xmlns="http://www.w3.org/2000/svg" xmlns:xlink="http://www.w3.org/1999/xlink" viewBox="0 0 128.64 120"><defs><style>.cls-1{fill:none;}.cls-2{clip-path:url(#clip-path);}.cls-3{fill:#3b82f6;}</style><clipPath id="clip-path" transform="translate(-33.68)"><rect class="cls-1" width="196" height="120"/></clipPath></defs><g class="cls-2"><path class="cls-3" d="M156.29,0H114.08a5.92,5.92,0,0,0-6,6V37.59H45.14a5.92,5.92,0,0,0-6,6V100.3H35.69a1.9,1.9,0,0,0-2,2v5.63A12.1,12.1,0,0,0,45.74,120h87.84a12.1,12.1,0,0,0,12.06-12.06v-5.63a1.91,1.91,0,0,0-2-2h-3.42V80h16.08a5.92,5.92,0,0,0,6-6V6A6,6,0,0,0,156.29,0ZM141.62,108.14a8.07,8.07,0,0,1-8,8H45.74a8.07,8.07,0,0,1-8-8v-3.82H141.62ZM112.07,17.89H158.3V65.13H112.07Zm2-13.87h42.21a1.89,1.89,0,0,1,2,2v7.84H112.07V6A2.17,2.17,0,0,1,114.08,4Zm22.11,96.28H43.13V43.62a1.89,1.89,0,0,1,2-2h62.91V73.77a5.92,5.92,0,0,0,6,6h22.11ZM156.29,76H114.08a1.89,1.89,0,0,1-2-2V69.15H158.3V74A2,2,0,0,1,156.29,76Z" transform="translate(-33.68)"/><path class="cls-3" d="M85.34,112.16H94a2,2,0,0,0,0-4H85.34a1.89,1.89,0,0,0-2,2A2,2,0,0,0,85.34,112.16Z" transform="translate(-33.68)"/><path class="cls-3" d="M129.16,23.32h-8a2,2,0,0,0,0,4h8a2,2,0,0,0,0-4Z" transform="translate(-33.68)"/><path class="cls-3" d="M129.16,34.17h-8a2,2,0,0,0,0,4h8a2,2,0,0,0,0-4Z" transform="translate(-33.68)"/><path class="cls-3" d="M129.16,44.82h-8a2,2,0,0,0,0,4h8a1.9,1.9,0,0,0,2-2A2,2,0,0,0,129.16,44.82Z" transform="translate(-33.68)"/><path class="cls-3" d="M129.16,55.48h-8a2,2,0,0,0,0,4h8a2,2,0,0,0,0-4Z" transform="translate(-33.68)"/><path class="cls-3" d="M141.22,27.34h8a2,2,0,1,0,0-4h-8a1.89,1.89,0,0,0-2,2A2,2,0,0,0,141.22,27.34Z" transform="translate(-33.68)"/><path class="cls-3" d="M149.26,34.17h-8a2,2,0,1,0,0,4h8a2,2,0,1,0,0-4Z" transform="translate(-33.68)"/><path class="cls-3" d="M149.26,44.82h-8a2,2,0,1,0,0,4h8a1.9,1.9,0,0,0,2-2A2,2,0,0,0,149.26,44.82Z" transform="translate(-33.68)"/><path class="cls-3" d="M149.26,55.48h-8a2,2,0,0,0,0,4h8a2,2,0,1,0,0-4Z" transform="translate(-33.68)"/><path class="cls-3" d="M53.18,69.35H69.86a1.9,1.9,0,0,0,2-2V50.65a1.9,1.9,0,0,0-2-2H53.18a1.9,1.9,0,0,0-2,2V67.34A2.16,2.16,0,0,0,53.18,69.35Zm2-16.69H67.85V65.33H55.19Z" transform="translate(-33.68)"/><path class="cls-3" d="M81.92,54.87H98a2,2,0,1,0,0-4H81.92a2,2,0,0,0,0,4Z" transform="translate(-33.68)"/><path class="cls-3" d="M81.92,66.93H98a2,2,0,0,0,0-4H81.92a2,2,0,0,0,0,4Z" transform="translate(-33.68)"/><path class="cls-3" d="M53.18,81.41H98a2,2,0,0,0,0-4H53.18a1.89,1.89,0,0,0-2,2A2.16,2.16,0,0,0,53.18,81.41Z" transform="translate(-33.68)"/><path class="cls-3" d="M51.17,91.46a1.9,1.9,0,0,0,2,2h73a2,2,0,1,0,0-4h-73A2,2,0,0,0,51.17,91.46Z" transform="translate(-33.68)"/></g></svg>