<svg id="single_page_development" data-name="single page development" xmlns="http://www.w3.org/2000/svg" xmlns:xlink="http://www.w3.org/1999/xlink" viewBox="0 0 142.27 120"><defs><style>.cls-1{fill:none;}.cls-2{clip-path:url(#clip-path);}.cls-3{fill:#3b82f6;fill-rule:evenodd;}</style><clipPath id="clip-path" transform="translate(-26.87)"><rect class="cls-1" width="196" height="120"/></clipPath></defs><g class="cls-2"><path class="cls-3" d="M37.61,3.11A7.64,7.64,0,0,0,30,10.74V78.67a7.65,7.65,0,0,0,7.64,7.63H158.4A7.64,7.64,0,0,0,166,78.67V10.74a7.64,7.64,0,0,0-7.63-7.63ZM158.4,89.41H37.61A10.75,10.75,0,0,1,26.87,78.67V10.74A10.75,10.75,0,0,1,37.61,0H158.4a10.75,10.75,0,0,1,10.73,10.74V78.67A10.75,10.75,0,0,1,158.4,89.41Z" transform="translate(-26.87)"/><path class="cls-3" d="M37.33,10.34a.14.14,0,0,0-.13.12V78.94a.13.13,0,0,0,.13.13H158.67a.13.13,0,0,0,.13-.13V10.46a.13.13,0,0,0-.13-.12ZM158.67,82.18H37.33a3.24,3.24,0,0,1-3.23-3.24V10.46a3.23,3.23,0,0,1,3.23-3.23H158.67a3.24,3.24,0,0,1,3.24,3.23V78.94a3.25,3.25,0,0,1-3.24,3.24Z" transform="translate(-26.87)"/><path class="cls-3" d="M117,109.84a1.55,1.55,0,0,1-1.15-.51A35.45,35.45,0,0,1,106.59,88a1.56,1.56,0,0,1,3.1-.26,32.45,32.45,0,0,0,8.49,19.52,1.56,1.56,0,0,1-1.14,2.6Zm-38.07,0a1.56,1.56,0,0,1-1.15-2.6,32.4,32.4,0,0,0,8.5-19.52,1.55,1.55,0,1,1,3.09.26,35.5,35.5,0,0,1-9.29,21.35,1.59,1.59,0,0,1-1.15.51Z" transform="translate(-26.87)"/><path class="cls-3" d="M63.5,109.84a.9.9,0,0,0-.89.88V116a.91.91,0,0,0,.89.89h69a.9.9,0,0,0,.88-.89v-5.29a.89.89,0,0,0-.88-.88Zm69,10.16h-69a4,4,0,0,1-4-4v-5.29a4,4,0,0,1,4-4h69a4,4,0,0,1,4,4V116A4,4,0,0,1,132.51,120Z" transform="translate(-26.87)"/><path class="cls-3" d="M122.72,63.42a1.55,1.55,0,0,1-1-2.77l20-15.95-20-15.94a1.55,1.55,0,1,1,1.93-2.43l21.56,17.16a1.55,1.55,0,0,1,.59,1.21,1.56,1.56,0,0,1-.59,1.22L123.69,63.08a1.55,1.55,0,0,1-1,.34Z" transform="translate(-26.87)"/><path class="cls-3" d="M73.28,63.42a1.55,1.55,0,0,1-1-.34L50.75,45.92a1.56,1.56,0,0,1-.58-1.22,1.54,1.54,0,0,1,.58-1.21L72.31,26.33a1.55,1.55,0,1,1,1.94,2.43l-20,15.94,20,15.95a1.55,1.55,0,0,1-1,2.77Z" transform="translate(-26.87)"/><path class="cls-3" d="M92.42,62.83a1.49,1.49,0,0,1-.5-.08,1.55,1.55,0,0,1-1-2l11.16-33.15a1.55,1.55,0,1,1,2.94,1L93.89,61.77A1.55,1.55,0,0,1,92.42,62.83Z" transform="translate(-26.87)"/></g></svg>