<?xml version="1.0" encoding="UTF-8"?>
<svg xmlns="http://www.w3.org/2000/svg" version="1.1" viewBox="0 0 48 48">
  <defs>
    <style>
      .cls-1 {
        fill: #f55b14;
      }

      .cls-2 {
        fill: #fff;
      }
    </style>
  </defs>
  <!-- Generator: Adobe Illustrator 28.6.0, SVG Export Plug-In . SVG Version: 1.2.0 Build 709)  -->
  <g>
    <g id="Layer_1">
      <circle class="cls-1" cx="24" cy="24" r="24"/>
      <path class="cls-2" d="M12,35.7c0-.3,0-.7.1-1,.1-2.2.5-4.4,1.2-6.6.1-.4.3-.8.4-1.1.7-1.5,2.2-2.6,3.9-2.8.3,0,.7,0,1,0,.1,0,.3,0,.4-.1,2.1-2.1,4.3-4.3,6.4-6.4,1.5-1.5,2.9-2.9,4.4-4.4,1.4-1.5,3.7-1.6,5.2-.2s1.6,3.7.2,5.2c0,0-.1.2-.2.2h0l-6.9,6.8-3.9,3.9c-.1.1-.2.2-.2.4,0,2.1-1.2,4.1-3.1,5-1.4.5-2.8.9-4.2,1.1-1.3.2-2.7.3-4,.4h-.6v-.3ZM23.4,27c0,0,.1-.2.2-.2l9.8-9.8c0,0,.2-.1.2-.2.6-.7.5-1.8-.2-2.4h0c-.1-.1-.3-.2-.5-.3-.7-.3-1.4,0-1.9.5l-9.9,9.9-.2.2c1,.5,1.8,1.4,2.4,2.4ZM14.2,33.8h.6c1.6-.3,3.1-.6,4.6-1.1.6-.2,1.1-.4,1.6-.9,1.3-1.4,1.3-3.5,0-4.8-1.3-1.4-3.5-1.5-4.8-.2-.4.4-.7.8-.9,1.3-.4,1.1-.6,2.2-.8,3.4-.1.7-.2,1.5-.3,2.3h0Z"/>
      <path class="cls-2" d="M30.8,36l-1.9-2-3.3-3.2c0,0-.1,0-.2-.1l1.4-1.4c0,0,.1,0,.2.1l4.5,4.5c.1.1.2.2.4.2h2.1v-2.1c0-.2,0-.3-.2-.4-1.5-1.5-3-3-4.5-4.5l-.2-.2,1.4-1.4h.1c0,.1,5.1,5.2,5.1,5.2.1.1.2.2.2.4v5h-5.2Z"/>
      <path class="cls-2" d="M12,15.3c0-.2,0-.4.1-.6.5-1.9,2.5-3.1,4.5-2.5.6.2,1.1.4,1.5.8,1.5,1.4,2.9,2.9,4.4,4.4,0,0,0,0,0,0l-1.4,1.4c0,0,0-.1-.1-.2l-4.1-4.1c-.7-.6-1.7-.6-2.4,0-.6.6-.6,1.5-.1,2.2h.1c0,.1,2.2,2.3,2.2,2.3l1.9,1.9h.1c0,.1-1.4,1.6-1.4,1.6,0,0,0-.1-.1-.2-1.3-1.3-2.7-2.7-4-4-.6-.6-1.1-1.4-1.2-2.2,0,0,0,0,0,0v-.8Z"/>
    </g>
  </g>
</svg>