<?xml version="1.0" encoding="UTF-8"?>
<svg xmlns="http://www.w3.org/2000/svg" version="1.1" viewBox="0 0 48 48">
  <defs>
    <style>
      .cls-1 {
        fill: #f55b14;
      }

      .cls-2 {
        fill: #fff;
      }

      .cls-3 {
        display: none;
      }
    </style>
  </defs>
  <!-- Generator: Adobe Illustrator 28.6.0, SVG Export Plug-In . SVG Version: 1.2.0 Build 709)  -->
  <g>
    <g id="Layer_1">
      <g class="cls-3">
        <circle class="cls-1" cx="24" cy="24" r="24"/>
        <path class="cls-2" d="M12,35.7c0-.3,0-.7.1-1,.1-2.2.5-4.4,1.2-6.6.1-.4.3-.8.4-1.1.7-1.5,2.2-2.6,3.9-2.8.3,0,.7,0,1,0,.1,0,.3,0,.4-.1,2.1-2.1,4.3-4.3,6.4-6.4,1.5-1.5,2.9-2.9,4.4-4.4,1.4-1.5,3.7-1.6,5.2-.2s1.6,3.7.2,5.2c0,0-.1.2-.2.2h0l-6.9,6.8-3.9,3.9c-.1.1-.2.2-.2.4,0,2.1-1.2,4.1-3.1,5-1.4.5-2.8.9-4.2,1.1-1.3.2-2.7.3-4,.4h-.6v-.3ZM23.4,27c0,0,.1-.2.2-.2l9.8-9.8c0,0,.2-.1.2-.2.6-.7.5-1.8-.2-2.4h0c-.1-.1-.3-.2-.5-.3-.7-.3-1.4,0-1.9.5l-9.9,9.9-.2.2c1,.5,1.8,1.4,2.4,2.4ZM14.2,33.8h.6c1.6-.3,3.1-.6,4.6-1.1.6-.2,1.1-.4,1.6-.9,1.3-1.4,1.3-3.5,0-4.8-1.3-1.4-3.5-1.5-4.8-.2-.4.4-.7.8-.9,1.3-.4,1.1-.6,2.2-.8,3.4-.1.7-.2,1.5-.3,2.3h0Z"/>
        <path class="cls-2" d="M30.8,36l-1.9-2-3.3-3.2c0,0-.1,0-.2-.1l1.4-1.4c0,0,.1,0,.2.1l4.5,4.5c.1.1.2.2.4.2h2.1v-2.1c0-.2,0-.3-.2-.4-1.5-1.5-3-3-4.5-4.5l-.2-.2,1.4-1.4h.1c0,.1,5.1,5.2,5.1,5.2.1.1.2.2.2.4v5h-5.2Z"/>
        <path class="cls-2" d="M12,15.3c0-.2,0-.4.1-.6.5-1.9,2.5-3.1,4.5-2.5.6.2,1.1.4,1.5.8,1.5,1.4,2.9,2.9,4.4,4.4,0,0,0,0,0,0l-1.4,1.4c0,0,0-.1-.1-.2l-4.1-4.1c-.7-.6-1.7-.6-2.4,0-.6.6-.6,1.5-.1,2.2h.1c0,.1,2.2,2.3,2.2,2.3l1.9,1.9h.1c0,.1-1.4,1.6-1.4,1.6,0,0,0-.1-.1-.2-1.3-1.3-2.7-2.7-4-4-.6-.6-1.1-1.4-1.2-2.2,0,0,0,0,0,0v-.8Z"/>
      </g>
      <g id="Layer_2">
        <g id="app_maintenance">
          <circle class="cls-1" cx="24" cy="24" r="24"/>
          <path class="cls-2" d="M32.9,12c.4.1.8.5.9.9,0,.1,0,.2,0,.3v20.9c0,.6-.5,1.1-1.1,1.1,0,0,0,0,0,0h-8.3v-.8h8.1c.5,0,.6-.1.6-.6v-3.2h-7.3c-.5,0-.5-.1-.5-.6v-5.9c0-.1,0-.3-.2-.3-1.3-.6-2.1-2-2-3.5,0-1.5,1-2.8,2.3-3.3.4-.2.6,0,.6.4v3.4h1.5v-3.4c0-.5.2-.6.6-.4,1.9.8,2.9,2.9,2.1,4.9-.3.8-.9,1.5-1.7,1.9-.1,0-.2.2-.2.4v5.7h4.8v-14.2h-1.5v-.8h1.5v-1.8c0-.4-.1-.5-.5-.5h-11.8c-.4,0-.5.1-.5.5v1.8h9v.8h-9v7.1h-.8v-9.5c0-.6.3-1.2.9-1.4h12.5ZM27.4,30v-6c0-.4,0-.5.4-.6,1.5-.6,2.2-2.4,1.6-3.9v-.2c-.3-.5-.8-1-1.3-1.3v3.3c0,.3-.1.5-.5.5h-2c-.4,0-.5-.1-.5-.5v-3.2h-.1c0,0-.2.2-.2.2-1.3,1-1.6,2.9-.6,4.2.3.4.8.8,1.2,1,.4.1.4.2.4.6v6h1.5Z"/>
          <path class="cls-2" d="M14.2,30.8v-.7c0-.2.1-.4.4-.4,0,0,0,0,0,0h.9c.2,0,.4-.1.5-.3,0-.2,0-.4-.1-.6-.2-.2-.4-.4-.6-.6-.2-.1-.2-.4,0-.6h0c0,0,1-1.1,1-1.1.1-.2.4-.2.6,0h0c.2.3.4.5.6.7.2.2.5.2.7,0,.1,0,.2-.2.2-.4v-.9c0-.2.1-.4.3-.4,0,0,0,0,0,0h1.5c.2,0,.4.2.4.4,0,0,0,0,0,0v.9c0,.3.2.5.4.5,0,0,0,0,0,0,.2,0,.3,0,.4-.2l.6-.6c.1-.2.4-.2.6,0h0c0,0,1,1.1,1,1.1.2.1.2.4,0,.5,0,0,0,0,0,0,0,0,0,0,0,0-.2.2-.4.4-.6.6-.2.2-.2.5,0,.7.1.1.2.2.4.2h.9c.2,0,.4.1.4.3,0,0,0,0,0,0,0,0,0,0,0,.1v1.4c0,.2-.1.4-.4.4,0,0,0,0,0,0h-1c-.3,0-.5.2-.5.5,0,0,0,0,0,0,0,.1,0,.3.1.4.2.2.4.4.6.6.2.1.2.4,0,.6,0,0,0,0,0,0h0c-.3.4-.7.7-1,1.1-.1.2-.4.2-.5,0,0,0,0,0,0,0,0,0,0,0,0,0l-.6-.6c-.2-.2-.5-.2-.7,0,0,0,0,0,0,0-.1.1-.2.2-.2.4v.9c0,.2-.1.4-.3.4,0,0,0,0,0,0h-1.5c-.2,0-.4-.1-.4-.3,0,0,0,0,0,0,0,0,0,0,0,0v-.9c0-.2-.1-.4-.3-.5-.2,0-.4,0-.6.1l-.6.6c-.1.2-.4.2-.6,0h0c-.3-.4-.6-.7-1-1.1-.2-.1-.2-.4,0-.5,0,0,0,0,0,0,0,0,0,0,0,0,.2-.2.4-.4.6-.6.2-.2.3-.5.2-.7,0,0,0,0,0,0-.1-.1-.3-.2-.4-.2h-.9c-.2,0-.4-.1-.4-.4,0,0,0,0,0,0h0c0-.2,0-.5,0-.7ZM15,31.1h.6c.5,0,1,.3,1.2.8.2.5.1,1-.2,1.4-.1.1-.3.2-.4.4l.6.6c.1-.1.2-.3.4-.4.4-.4.9-.5,1.4-.2.5.2.8.6.8,1.2v.5h.8v-.5c0-.7.5-1.3,1.2-1.3.4,0,.7.1,1,.4.1.1.2.3.3.4l.6-.6-.5-.4c-.5-.5-.4-1.3,0-1.8,0,0,0,0,0,0,.2-.2.5-.3.8-.3h.6v-.8h-.6c-.5,0-1-.3-1.2-.8-.2-.5-.1-1,.3-1.4.1-.1.3-.2.4-.4l-.6-.6c-.1.2-.2.3-.4.4-.5.5-1.3.5-1.8,0,0,0,0,0,0,0-.2-.2-.4-.6-.4-.9v-.5h-.7v.5c0,.7-.5,1.3-1.2,1.3-.4,0-.7-.1-1-.4-.1-.1-.2-.3-.3-.4l-.6.6c.2.1.3.3.5.4.5.5.4,1.3,0,1.8-.2.2-.5.3-.8.3h-.6v.7Z"/>
          <path class="cls-2" d="M26.6,33.7c-.6,0-1.1-.5-1.1-1.1,0-.6.5-1.1,1.1-1.1.6,0,1.1.5,1.1,1.1h0c0,.6-.5,1.1-1.1,1.1ZM27,32.6c0-.2-.2-.4-.4-.4-.2,0-.4.2-.4.4,0,0,0,0,0,0,0,.2.2.4.4.4h0c.2,0,.4-.2.4-.4h0Z"/>
          <path class="cls-2" d="M25.9,13.5h1.5v.7h-1.5v-.7Z"/>
          <path class="cls-2" d="M30.7,15.8h-.7v-.8h.7v.8Z"/>
          <path class="cls-2" d="M19.5,23.6h.7v.7h-.7v-.7Z"/>
          <path class="cls-2" d="M19.5,32.6c-1,0-1.9-.8-1.9-1.9,0-1,.8-1.9,1.9-1.9,1,0,1.9.8,1.9,1.9,0,0,0,0,0,0h0c0,1-.8,1.8-1.9,1.9h0ZM20.6,30.7c0-.6-.5-1.1-1.1-1.1-.6,0-1.1.5-1.1,1.1h0c0,.6.5,1.1,1.1,1.1h0c.6,0,1.1-.5,1.1-1.1Z"/>
        </g>
      </g>
    </g>
  </g>
</svg>