<?xml version="1.0" encoding="UTF-8"?>
<svg xmlns="http://www.w3.org/2000/svg" version="1.1" viewBox="0 0 48 48">
  <defs>
    <style>
      .cls-1 {
        fill: #f55b14;
      }

      .cls-2 {
        fill: #fff;
      }

      .cls-3 {
        display: none;
      }
    </style>
  </defs>
  <!-- Generator: Adobe Illustrator 28.6.0, SVG Export Plug-In . SVG Version: 1.2.0 Build 709)  -->
  <g>
    <g id="Layer_1">
      <g class="cls-3">
        <circle class="cls-1" cx="24" cy="24" r="24"/>
        <path class="cls-2" d="M12,35.7c0-.3,0-.7.1-1,.1-2.2.5-4.4,1.2-6.6.1-.4.3-.8.4-1.1.7-1.5,2.2-2.6,3.9-2.8.3,0,.7,0,1,0,.1,0,.3,0,.4-.1,2.1-2.1,4.3-4.3,6.4-6.4,1.5-1.5,2.9-2.9,4.4-4.4,1.4-1.5,3.7-1.6,5.2-.2s1.6,3.7.2,5.2c0,0-.1.2-.2.2h0l-6.9,6.8-3.9,3.9c-.1.1-.2.2-.2.4,0,2.1-1.2,4.1-3.1,5-1.4.5-2.8.9-4.2,1.1-1.3.2-2.7.3-4,.4h-.6v-.3ZM23.4,27c0,0,.1-.2.2-.2l9.8-9.8c0,0,.2-.1.2-.2.6-.7.5-1.8-.2-2.4h0c-.1-.1-.3-.2-.5-.3-.7-.3-1.4,0-1.9.5l-9.9,9.9-.2.2c1,.5,1.8,1.4,2.4,2.4ZM14.2,33.8h.6c1.6-.3,3.1-.6,4.6-1.1.6-.2,1.1-.4,1.6-.9,1.3-1.4,1.3-3.5,0-4.8-1.3-1.4-3.5-1.5-4.8-.2-.4.4-.7.8-.9,1.3-.4,1.1-.6,2.2-.8,3.4-.1.7-.2,1.5-.3,2.3h0Z"/>
        <path class="cls-2" d="M30.8,36l-1.9-2-3.3-3.2c0,0-.1,0-.2-.1l1.4-1.4c0,0,.1,0,.2.1l4.5,4.5c.1.1.2.2.4.2h2.1v-2.1c0-.2,0-.3-.2-.4-1.5-1.5-3-3-4.5-4.5l-.2-.2,1.4-1.4h.1c0,.1,5.1,5.2,5.1,5.2.1.1.2.2.2.4v5h-5.2Z"/>
        <path class="cls-2" d="M12,15.3c0-.2,0-.4.1-.6.5-1.9,2.5-3.1,4.5-2.5.6.2,1.1.4,1.5.8,1.5,1.4,2.9,2.9,4.4,4.4,0,0,0,0,0,0l-1.4,1.4c0,0,0-.1-.1-.2l-4.1-4.1c-.7-.6-1.7-.6-2.4,0-.6.6-.6,1.5-.1,2.2h.1c0,.1,2.2,2.3,2.2,2.3l1.9,1.9h.1c0,.1-1.4,1.6-1.4,1.6,0,0,0-.1-.1-.2-1.3-1.3-2.7-2.7-4-4-.6-.6-1.1-1.4-1.2-2.2,0,0,0,0,0,0v-.8Z"/>
      </g>
      <g id="Layer_2" class="cls-3">
        <g id="app_maintenance">
          <circle class="cls-1" cx="24" cy="24" r="24"/>
          <path class="cls-2" d="M32.9,12c.4.1.8.5.9.9,0,.1,0,.2,0,.3v20.9c0,.6-.5,1.1-1.1,1.1,0,0,0,0,0,0h-8.3v-.8h8.1c.5,0,.6-.1.6-.6v-3.2h-7.3c-.5,0-.5-.1-.5-.6v-5.9c0-.1,0-.3-.2-.3-1.3-.6-2.1-2-2-3.5,0-1.5,1-2.8,2.3-3.3.4-.2.6,0,.6.4v3.4h1.5v-3.4c0-.5.2-.6.6-.4,1.9.8,2.9,2.9,2.1,4.9-.3.8-.9,1.5-1.7,1.9-.1,0-.2.2-.2.4v5.7h4.8v-14.2h-1.5v-.8h1.5v-1.8c0-.4-.1-.5-.5-.5h-11.8c-.4,0-.5.1-.5.5v1.8h9v.8h-9v7.1h-.8v-9.5c0-.6.3-1.2.9-1.4h12.5ZM27.4,30v-6c0-.4,0-.5.4-.6,1.5-.6,2.2-2.4,1.6-3.9v-.2c-.3-.5-.8-1-1.3-1.3v3.3c0,.3-.1.5-.5.5h-2c-.4,0-.5-.1-.5-.5v-3.2h-.1c0,0-.2.2-.2.2-1.3,1-1.6,2.9-.6,4.2.3.4.8.8,1.2,1,.4.1.4.2.4.6v6h1.5Z"/>
          <path class="cls-2" d="M14.2,30.8v-.7c0-.2.1-.4.4-.4,0,0,0,0,0,0h.9c.2,0,.4-.1.5-.3,0-.2,0-.4-.1-.6-.2-.2-.4-.4-.6-.6-.2-.1-.2-.4,0-.6h0c0,0,1-1.1,1-1.1.1-.2.4-.2.6,0h0c.2.3.4.5.6.7.2.2.5.2.7,0,.1,0,.2-.2.2-.4v-.9c0-.2.1-.4.3-.4,0,0,0,0,0,0h1.5c.2,0,.4.2.4.4,0,0,0,0,0,0v.9c0,.3.2.5.4.5,0,0,0,0,0,0,.2,0,.3,0,.4-.2l.6-.6c.1-.2.4-.2.6,0h0c0,0,1,1.1,1,1.1.2.1.2.4,0,.5,0,0,0,0,0,0,0,0,0,0,0,0-.2.2-.4.4-.6.6-.2.2-.2.5,0,.7.1.1.2.2.4.2h.9c.2,0,.4.1.4.3,0,0,0,0,0,0,0,0,0,0,0,.1v1.4c0,.2-.1.4-.4.4,0,0,0,0,0,0h-1c-.3,0-.5.2-.5.5,0,0,0,0,0,0,0,.1,0,.3.1.4.2.2.4.4.6.6.2.1.2.4,0,.6,0,0,0,0,0,0h0c-.3.4-.7.7-1,1.1-.1.2-.4.2-.5,0,0,0,0,0,0,0,0,0,0,0,0,0l-.6-.6c-.2-.2-.5-.2-.7,0,0,0,0,0,0,0-.1.1-.2.2-.2.4v.9c0,.2-.1.4-.3.4,0,0,0,0,0,0h-1.5c-.2,0-.4-.1-.4-.3,0,0,0,0,0,0,0,0,0,0,0,0v-.9c0-.2-.1-.4-.3-.5-.2,0-.4,0-.6.1l-.6.6c-.1.2-.4.2-.6,0h0c-.3-.4-.6-.7-1-1.1-.2-.1-.2-.4,0-.5,0,0,0,0,0,0,0,0,0,0,0,0,.2-.2.4-.4.6-.6.2-.2.3-.5.2-.7,0,0,0,0,0,0-.1-.1-.3-.2-.4-.2h-.9c-.2,0-.4-.1-.4-.4,0,0,0,0,0,0h0c0-.2,0-.5,0-.7ZM15,31.1h.6c.5,0,1,.3,1.2.8.2.5.1,1-.2,1.4-.1.1-.3.2-.4.4l.6.6c.1-.1.2-.3.4-.4.4-.4.9-.5,1.4-.2.5.2.8.6.8,1.2v.5h.8v-.5c0-.7.5-1.3,1.2-1.3.4,0,.7.1,1,.4.1.1.2.3.3.4l.6-.6-.5-.4c-.5-.5-.4-1.3,0-1.8,0,0,0,0,0,0,.2-.2.5-.3.8-.3h.6v-.8h-.6c-.5,0-1-.3-1.2-.8-.2-.5-.1-1,.3-1.4.1-.1.3-.2.4-.4l-.6-.6c-.1.2-.2.3-.4.4-.5.5-1.3.5-1.8,0,0,0,0,0,0,0-.2-.2-.4-.6-.4-.9v-.5h-.7v.5c0,.7-.5,1.3-1.2,1.3-.4,0-.7-.1-1-.4-.1-.1-.2-.3-.3-.4l-.6.6c.2.1.3.3.5.4.5.5.4,1.3,0,1.8-.2.2-.5.3-.8.3h-.6v.7Z"/>
          <path class="cls-2" d="M26.6,33.7c-.6,0-1.1-.5-1.1-1.1,0-.6.5-1.1,1.1-1.1.6,0,1.1.5,1.1,1.1h0c0,.6-.5,1.1-1.1,1.1ZM27,32.6c0-.2-.2-.4-.4-.4-.2,0-.4.2-.4.4,0,0,0,0,0,0,0,.2.2.4.4.4h0c.2,0,.4-.2.4-.4h0Z"/>
          <path class="cls-2" d="M25.9,13.5h1.5v.7h-1.5v-.7Z"/>
          <path class="cls-2" d="M30.7,15.8h-.7v-.8h.7v.8Z"/>
          <path class="cls-2" d="M19.5,23.6h.7v.7h-.7v-.7Z"/>
          <path class="cls-2" d="M19.5,32.6c-1,0-1.9-.8-1.9-1.9,0-1,.8-1.9,1.9-1.9,1,0,1.9.8,1.9,1.9,0,0,0,0,0,0h0c0,1-.8,1.8-1.9,1.9h0ZM20.6,30.7c0-.6-.5-1.1-1.1-1.1-.6,0-1.1.5-1.1,1.1h0c0,.6.5,1.1,1.1,1.1h0c.6,0,1.1-.5,1.1-1.1Z"/>
        </g>
      </g>
      <g id="Layer_2-2" data-name="Layer_2" class="cls-3">
        <g id="svg31911">
          <circle class="cls-1" cx="24" cy="24" r="24"/>
          <path class="cls-2" d="M31,26.3v-1.7h-14v1.7c2.7.2,4.7,2.5,4.5,5.2,0,0,0,0,0,0h0c-.2,2.8-2.6,4.7-5.2,4.5-2.7-.2-4.6-2.6-4.4-5.2.2-2.4,2.1-4.2,4.5-4.4h0v-1.8c0-.4,0-.5.4-.5h6.9v-1.2c0-.2,0-.4.3-.4s.3.2.3.4v1.1h6.9c.4,0,.5,0,.5.5v1.8c2.7.2,4.7,2.5,4.5,5.1,0,0,0,0,0,0,0,0,0,.2,0,.2-.3,2.6-2.7,4.5-5.4,4.2s-4.5-2.7-4.2-5.4c.3-2.3,2.1-4.1,4.5-4.3ZM18.8,30c.1.2.3.4.4.6,0,.4-.1.9-.5,1.1-.3.2-.5.4-.6.7,0,0,0,.1-.1.2-.2.1-.3.3-.1.5,0,0,0,0,0,0h0c.1.3.3.5.6.6.3.2.7.3,1.1.4.1,0,.3,0,.4-.1,1.6-1.8,1.4-4.5-.4-6-1.8-1.6-4.5-1.4-6,.4-1.4,1.6-1.4,4,0,5.7,0,0,.2.2.3.2.4-.2.8-.3,1.2-.4.3-.1.5-.4.6-.7,0,0,0-.2,0-.3-.1-.2-.3-.5-.5-.7,0,0-.1-.1-.2-.1-.5-.2-.8-.8-.7-1.3,0-.1,0-.3.2-.3.1,0,.2-.2.2-.4-.1-.9.5-1.7,1.4-1.9.9-.1,1.8.1,2.4.7.2.2.3.4.3.6,0,.2,0,.4,0,.6ZM33.4,30c.1.2.3.4.3.6,0,.5-.1.9-.5,1.2-.2.1-.4.3-.5.6,0,0,0,.2-.2.2-.2.2-.2.4,0,.6,0,.3.3.5.6.5.4.1.8.2,1.1.4.1,0,.3,0,.4,0,0,0,0,0,0,0,1.6-1.7,1.5-4.4-.3-6-.5-.5-1.1-.8-1.8-1-1.6-.5-3.4.1-4.4,1.6-1.3,1.6-1.2,3.9.2,5.5,0,0,.2.1.3,0,.4-.1.8-.3,1.2-.4.3-.1.5-.4.6-.7,0-.2,0-.3,0-.5-.1-.2-.3-.3-.4-.5,0,0-.1-.2-.2-.2-.5-.3-.8-.8-.7-1.4,0-.1,0-.2.2-.3.2,0,.2-.2.2-.4,0-.8.3-1.5,1.1-1.8.5-.2,1-.2,1.5-.1.2,0,.4.2.6.3.1,0,.2.1.3.2.4.1.7.5.7.9v.7h0ZM14.8,30.6h0c0,.5.1.6.5.6.1,0,.2.1.3.2s.2.4.3.6c.3.4.8.6,1.3.4.1,0,.3-.2.4-.4.1-.2.2-.4.3-.6,0-.2.2-.3.4-.2s.2,0,.3-.1,0-.3.1-.4c-.5,0-.6-.1-.4-.6,0-.2,0-.4,0-.6,0-.1,0-.3-.1-.4-.3-.1-.7-.3-.9-.5,0,0,0,0-.1,0-.3,0-.7,0-1,0-.5,0-.8.5-.8,1,0,.2,0,.4,0,.6,0,.4,0,.5-.4.5h0ZM29.5,30.6s0,0,0,.1c0,.3.2.4.5.5.1,0,.2.1.3.2,0,.2.1.4.2.5.2.5.8.7,1.3.5.2,0,.4-.3.5-.5,0-.2.1-.3.2-.5,0-.2.2-.3.4-.3h0c0,0,.2,0,.2-.1,0-.2.1-.3.2-.5-.6,0-.6-.1-.5-.6,0-.2,0-.4,0-.7,0-.2-.1-.3-.3-.4-.2,0-.5-.2-.6-.4,0,0-.2-.1-.2-.1-.2,0-.4,0-.6,0-.7,0-1.2.4-1.3,1.1,0,.2,0,.4,0,.5,0,.5,0,.5-.4.6h0ZM33.8,34.6c-.8-.3-1.8-.5-2-1.5h-1c-.2,1-1.1,1.2-2,1.5,1.5,1.1,3.4,1.1,4.9,0h0ZM14.2,34.6c1.5,1.1,3.4,1.1,4.9,0-.4-.2-.8-.3-1.2-.5-.4-.2-.7-.6-.8-1h-1c-.2,1.1-1.1,1.2-2,1.5h0Z"/>
          <path class="cls-2" d="M20,19.6c0,0,0-.1.1-.2.1-.1.2-.3.3-.4.1,0,.1-.3,0-.4,0,0,0,0,0,0h0c0-.1-.1-.2-.2-.4,0-.4-.3-.5-.6-.5-.1,0-.2,0-.3,0-.1,0-.2-.2-.2-.3v-1.2c0-.1,0-.3.2-.3,0,0,0,0,0,0h0c.5,0,.9-.3,1-.8,0-.2,0-.4,0-.6-.4-.5-.4-.5,0-1l.5-.6c0-.1.3-.2.4,0h0c.3.4.9.5,1.3.2h0c.2-.1.3-.2.4-.5.1-.7,0-.7.8-.7h.7c.2,0,.3.1.3.3,0,.5.3,1,.8,1.1.2,0,.4,0,.5,0,.6-.5.5-.5,1.1,0l.5.5c.1.1.2.3,0,.5-.4.3-.5.9-.2,1.3,0,0,0,0,0,0h0c.1.2.2.3.5.4.7,0,.7,0,.7.8v.7c0,.2-.1.4-.3.3-.5,0-.9.3-1,.7-.1.2,0,.5,0,.7.4.5.4.5,0,1l-.5.5c0,.1-.3.2-.4,0,0,0,0,0,0,0h0c-.3-.4-.9-.5-1.3-.2,0,0,0,0,0,0-.2.1-.3.2-.3.4-.1.8,0,.8-.8.7h-.7c-.2,0-.4,0-.4-.3,0-.5-.3-.9-.8-1h0c-.2,0-.4,0-.6,0-.6.5-.5.5-1.1,0-.2-.2-.3-.3-.5-.5,0,0-.1-.2-.1-.3ZM21.2,20.1l.5-.4c.2-.1.4-.1.5,0,.2.1.3.2.5.3.5,0,.8.4.8.8,0,0,0,0,0,0,0,0,0,0,0,.1,0,0,0,.1.1.2h.6c0-.2,0-.4,0-.6,0-.2.1-.3.3-.4.4-.1.7-.2,1-.4.1,0,.3,0,.5,0,.2.1.4.3.5.4,0,0,.2-.2.3-.2l.3-.2-.4-.6c-.1-.1-.1-.3,0-.5.1-.2.2-.4.3-.6,0-.4.4-.8.8-.8,0,0,0,0,0,0h.1c0,0,.1,0,.2-.1,0-.2,0-.4,0-.6-.2,0-.4,0-.6,0-.1,0-.2-.2-.3-.3-.2-.3-.3-.7-.4-1.1,0-.1,0-.3,0-.4.1-.2.3-.4.4-.5l-.5-.5c-.1.1-.3.2-.4.3-.1.2-.4.2-.6,0,0,0,0,0,0,0h0c-.2-.1-.4-.2-.6-.3-.4,0-.8-.4-.8-.8,0,0,0,0,0,0v-.2c0,0,0-.1-.1-.2h-.6c0,.2,0,.4,0,.7,0,.2-.1.3-.3.3-.4.1-.7.3-1.1.4-.1,0-.3,0-.5,0l-.5-.4-.5.5c.1.2.2.3.4.5.1.2.1.4,0,.5-.2.3-.3.7-.4,1,0,.2-.2.3-.4.3s-.4,0-.6,0v.7h.6c.2,0,.4.2.4.4.1.3.2.7.4,1,.1.2,0,.4,0,.5-.1.2-.3.3-.4.5l.5.5Z"/>
          <path class="cls-2" d="M18.1,15.4c-.5,1.9,0,4,1.3,5.4v.2c.3.1.3.3.1.5s-.3,0-.4,0-.3-.3-.4-.5c-1.2-1.6-1.6-3.6-1.2-5.5v-.2l-.4.2c-.1,0-.3,0-.4,0,0,0,0,0,0,0h0c0-.2,0-.3.1-.4l1.1-.7c.2-.1.4,0,.5.2s.2.8.4,1.1c0,.2,0,.3-.1.4s-.3,0-.4-.2v-.3Z"/>
          <path class="cls-2" d="M29.6,19.4c.4-1,.6-2,.5-3.1,0-.8-.3-1.5-.6-2.2,0-.2-.1-.4.1-.5s.3,0,.4.2c.9,1.7.9,3.7.2,5.5v.2c0,0,0,0,0,0l.5-.2c.1,0,.3,0,.4,0,0,.1,0,.3,0,.4,0,0,0,0,0,0h0l-1.1.6c-.2.1-.4,0-.5-.2s-.2-.7-.3-1.1c0-.2,0-.4.2-.4s.3,0,.4.3c0,.1,0,.2,0,.3Z"/>
          <path class="cls-2" d="M20.5,22.6c-.2-.2-.4-.3-.6-.5,0,0,0-.2,0-.3,0,0,.2,0,.3,0,.2,0,.3.2.5.3,0,0,0,.2,0,.3,0,0-.2.1-.3.2Z"/>
          <path class="cls-2" d="M29.4,12.9c0,.3-.3.4-.5.3-.2-.1-.3-.3-.4-.5,0,0,0-.2,0-.3,0,0,.2-.1.2,0,.2.2.4.3.6.5Z"/>
          <path class="cls-2" d="M21.5,16.9c0-1.4,1.1-2.5,2.5-2.5,1.4,0,2.5,1.1,2.5,2.5,0,1.4-1.1,2.5-2.5,2.5,0,0,0,0,0,0h0c-1.4,0-2.5-1.1-2.5-2.5h0ZM24,18.8c1.1,0,1.9-.9,1.9-2s-.9-1.9-2-1.9c-1.1,0-1.9.9-1.9,1.9h0c0,1.1.9,2,2,2Z"/>
        </g>
      </g>
      <g id="Layer_2-3" data-name="Layer_2">
        <g id="security_and_compliance">
          <circle class="cls-1" cx="24" cy="24" r="24"/>
          <path class="cls-2" d="M19.7,13.7c0-.6.4-1.1.8-1.4.3-.2.7-.3,1.1-.3.9,0,1.5.5,1.9,1.7l1-.2c.5-.1,1.1.1,1.3.6,0,0,.1.1.2.1h2.7c1,0,1.8.6,1.9,1.6,0,0,0,0,0,0,0,.1,0,.2,0,.3v6.9c0,.2,0,.3.3.3,1.5.3,3,.9,4.2,1.9,0,0,.1.2.2.3,1,4.4-1.4,8.9-5.6,10.4-.2,0-.4,0-.7,0h-15c-.9,0-1.6-.7-1.7-1.6,0,0,0,0,0,0h0v-18.3c0-.3,0-.5.1-.8.2-.6.8-1,1.5-1h3c.1,0,.3,0,.3-.2.2-.4.6-.7,1.1-.6.4,0,.9.1,1.3.2ZM23.7,29.6h-2.7c-.2,0-.4-.1-.4-.3,0-.2.2-.3.3-.3h2.5v-2.5h-2.5c-.2,0-.4-.1-.4-.3s.1-.3.4-.3h2.6c0-.4.2-.5.4-.7l.9-.6h-3.9c-.2,0-.4-.1-.4-.3s.1-.3.4-.3h4.4c.6,0,1.2,0,1.7-.2,0,0,.2,0,.2,0l1.3-.2v-7h-2.7c0,.3-.3.3-.5.3h-7.8c-.3,0-.5,0-.5-.3h-2.7v17.7h11.8s0,0,0,0c-.7-.6-1.2-1.4-1.6-2.2,0,0-.2-.1-.3-.1h-3.2c-.2,0-.3-.2-.3-.4h0c0-.1.1-.2.2-.3,0,0,.2,0,.3,0h2.9l-.4-1.4ZM17.2,14.9h-3c-.5,0-1,.3-1.1.9,0,0,0,.2,0,.2v18.2c0,.5.4,1,.9,1.1,0,0,0,0,0,0h14c-.3-.2-.5-.3-.8-.5-.1-.1-.3-.2-.5-.2h-12.5c-.4,0-.5,0-.5-.5v-18.1c0-.4.1-.4.5-.4h3v-.7ZM34.9,27.6c0-.5-.1-1.1-.2-1.6,0-.1,0-.2-.2-.3-3-2.3-7.1-2.3-10.1,0,0,0-.1.1-.1.2-.2.9-.2,1.8-.1,2.6.3,3,2.3,5.6,5.2,6.7,0,0,.2,0,.3,0,3.2-1.2,5.2-4.3,5.3-7.6ZM25.3,16v-1.3c0-.4-.2-.6-.6-.5s-.8.1-1.2.2c-.6.1-.7,0-.7-.6,0-.7-.6-1.2-1.3-1.2,0,0,0,0,0,0,0,0-.1,0-.2,0-.6.1-1,.7-1,1.3,0,.4-.1.5-.5.4h-.1c-.4,0-.9-.2-1.3-.2-.2,0-.4,0-.5.3,0,0,0,0,0,0h0v1.5h7.4ZM25.9,15.6h2.9c.4,0,.5,0,.5.5v7.1h.6v-7.3c0-.5-.4-1-.9-1h-3.1v.6Z"/>
          <path class="cls-2" d="M17.8,17.9h1.4c.4,0,.7.2.8.6v3c0,.4-.3.7-.6.7,0,0,0,0,0,0h-2.9c-.4,0-.7-.2-.7-.6,0,0,0,0,0,0,0,0,0,0,0-.1v-2.8c0-.4.2-.7.6-.8,0,0,0,0,0,0h1.5,0ZM19.3,18.6h-3v2.9h3v-2.9Z"/>
          <path class="cls-2" d="M17.8,27.3h-1.4c-.4,0-.7-.2-.7-.6,0,0,0,0,0,0v-3c0-.4.3-.7.6-.7h3c.4,0,.7.2.7.6,0,0,0,0,0,0h0v3c0,.4-.3.7-.6.7h-1.6ZM19.3,26.6v-2.9h-2.9v2.9h2.9Z"/>
          <path class="cls-2" d="M17.8,32.4h-1.4c-.4,0-.7-.3-.7-.6v-2.9c0-.4.2-.7.6-.7,0,0,0,0,0,0h3c.4,0,.7.2.7.6v3c0,.4-.3.7-.7.7h-1.5ZM19.3,31.7h0v-2.8c0-.2-.1-.2-.2-.2h-2.5c0,0-.1,0-.2,0v2.9h3Z"/>
          <path class="cls-2" d="M23.9,21.4h-2.8c0,0-.2,0-.3,0-.2,0-.3-.2-.2-.4,0,0,0,0,0,0h0c0-.1.1-.2.3-.2h6c.2,0,.3.2.3.4,0,.1-.1.2-.3.3h-3Z"/>
          <path class="cls-2" d="M24,19.4h-3c-.1,0-.2-.2-.2-.3,0-.1,0-.3.2-.3,0,0,0,0,0,0h5.8c0,0,.2,0,.2,0,.2,0,.3.2.3.3h0c0,.2-.1.3-.3.3h-2.9Z"/>
          <path class="cls-2" d="M29.5,24.6c1.6,0,3.1.5,4.3,1.4.1,0,.2.2.2.4.5,3.3-1.2,6.6-4.3,8-.2,0-.3,0-.5,0-2.8-1.3-4.5-4.1-4.4-7.2,0-.3,0-.6.1-.9,0-.1.1-.3.2-.4,1.3-.9,2.8-1.4,4.3-1.4ZM25.5,27.8c0,2.5,1.5,4.8,3.8,5.9.1,0,.3,0,.4,0,2.6-1.3,4.1-4.1,3.8-7,0-.2-.1-.3-.2-.4-2-1.3-4.6-1.5-6.7-.3-1.2.5-.9.3-1,1.8Z"/>
          <path class="cls-2" d="M22,13.8c0,.3-.2.5-.5.5s-.5-.2-.5-.5c0-.3.2-.5.5-.5h0c.3,0,.5.2.5.5,0,0,0,0,0,0h0Z"/>
          <path class="cls-2" d="M17.5,20.1l.9-.9c.2-.2.4-.2.5,0s.1.3,0,.5c-.4.4-.7.8-1.1,1.1s-.5.2-.6,0-.2-.4-.4-.6c-.1-.1,0-.4,0-.5h0c.2,0,.3,0,.4.1,0,0,0,0,0,0h0l.3.3Z"/>
          <path class="cls-2" d="M17.5,25.2l.9-.9c.1-.1.3-.2.5,0h0c.1.1.2.3,0,.4h0c0,0-1.2,1.3-1.2,1.3-.1.1-.3.1-.5,0h0c-.1-.3-.3-.6-.4-.9,0-.1,0-.3,0-.4h0c.1,0,.3,0,.4,0h0c.1.1.2.2.3.4Z"/>
          <path class="cls-2" d="M17.5,30.3l.8-.9c.2-.2.4-.2.5,0s.1.3,0,.5c-.4.4-.7.7-1.1,1.1s-.5.2-.6,0-.2-.4-.4-.6c-.1-.1,0-.3,0-.5,0,0,0,0,0,0h0c.2,0,.4,0,.5.1,0,0,0,0,0,0h0c.1.1.2.2.2.3Z"/>
          <path class="cls-2" d="M29.1,29.2l1.6-2,.2-.2c.3-.5.9-.6,1.4-.3.4.3.6.9.3,1.4,0,0,0,0,0,.1-.6.8-1.2,1.5-1.8,2.3l-.7.9c-.3.4-.9.5-1.4.2-.1,0-.2-.2-.3-.3-.4-.5-.8-1-1.1-1.5-.4-.4-.4-1,0-1.4.4-.4,1-.4,1.4,0,0,0,0,.1.1.2h0l.4.6ZM32,27.6c0-.1-.1-.2-.2-.3-.1,0-.2,0-.3,0,0,0-.1.1-.1.1l-1.9,2.4c-.3.4-.5.3-.7,0s-.3-.5-.5-.7-.4-.3-.5-.1-.2.3,0,.5l1.1,1.4c.2.3.4.3.6,0l2.5-3.1c0,0,.1-.2.2-.3Z"/>
        </g>
      </g>
    </g>
  </g>
</svg>