<?xml version="1.0" encoding="UTF-8"?>
<svg id="Layer_2" xmlns="http://www.w3.org/2000/svg" xmlns:xlink="http://www.w3.org/1999/xlink" viewBox="0 0 50 31">
  <defs>
    <style>
      .cls-1 {
        fill: #fff;
      }

      .cls-2 {
        fill: none;
      }

      .cls-3 {
        clip-path: url(#clippath);
      }
    </style>
    <clipPath id="clippath">
      <rect class="cls-2" width="50" height="31"/>
    </clipPath>
  </defs>
  <g id="Layer_1-2" data-name="Layer_1">
    <g class="cls-3">
      <g>
        <path class="cls-1" d="M39.54,7.91h-6.8l.19-.69c.28-1-.29-2.04-1.29-2.33L14.82.07c-1-.29-2.04.29-2.33,1.29l-1.13,3.95-.31,1.07h0l-1.55,5.41c-.28,1,.29,2.04,1.29,2.33l4.77,1.37v5.1c0,.57.46,1.03,1.03,1.03h5.3c-.09.96-.45,1.87-1.04,2.63-2.22,2.6-1.23,6.24-1.19,6.4.06.2.24.34.45.34.04,0,.09,0,.13-.02.25-.07.4-.33.33-.58,0,0,0,0,0,0,0-.03-.9-3.31,1-5.53,1.76-2.07,1.41-5.6,1.17-7.94-.04-.38-.07-.73-.09-1.03-.03-.41.12-.81.4-1.1.34-.36.81-.56,1.3-.56.5,0,.97.21,1.31.57.28.29.42.69.39,1.09-.68,8.24,1.67,9.64,1.95,9.77.24.11.52,0,.62-.24.1-.23,0-.49-.21-.61-.01,0-.91-.6-1.32-3.19h6.04c.29,2.8-1.13,6-2.75,8.63-.14.22-.07.51.15.65s.51.07.65-.15c2.16-3.5,3.11-6.59,2.88-9.13h5.48c.56,0,1.02-.46,1.02-1.02v-11.67c0-.57-.46-1.03-1.03-1.03ZM39.63,8.93v2.24c-1.17-.22-2.09-1.15-2.29-2.33h2.21s.08.04.08.09ZM13.4,1.62c.14-.5.67-.79,1.17-.65l16.82,4.82c.5.14.79.67.65,1.17h0s-.31,1.09-.31,1.09L13.09,2.71l.31-1.09ZM12.39,5.12l.43-1.51,18.64,5.33-.74,2.58L12.09,6.2l.3-1.07ZM16.51,20.6v-2.25c1.2.2,2.14,1.14,2.34,2.34h-2.25s-.09-.04-.09-.08c0,0,0,0,0,0h0ZM21.99,20.68h-2.18c-.22-1.72-1.57-3.08-3.3-3.3v-1.62l5.33,1.53c.13,1.13.18,2.26.14,3.4h0ZM24.36,13.3c-.75,0-1.47.31-1.99.86-.46.48-.7,1.14-.65,1.81,0,.1.02.21.03.31l-10.69-3.06c-.5-.14-.79-.67-.65-1.17l1.42-4.95,18.64,5.33-1.42,4.95c-.14.5-.67.79-1.17.65,0,0,0,0,0,0l-.99-.28c.02-.55.05-1.14.1-1.78.05-.66-.18-1.32-.64-1.8-.52-.56-1.24-.87-2-.87ZM26.97,20.69c-.06-.57-.09-1.22-.09-1.95l.75.21c1,.29,2.04-.29,2.33-1.29l1.55-5.41h0l.23-.8.74-2.59h3.91c.22,1.7,1.55,3.04,3.24,3.29v5.27c-1.7.24-3.02,1.59-3.24,3.29h-9.41ZM39.54,20.69h-2.21c.2-1.18,1.12-2.11,2.29-2.33v2.24s-.04.08-.08.08c0,0,0,0,0,0h0Z"/>
        <path class="cls-1" d="M19.03,11.98l-5.93-1.7c-.25-.07-.51.07-.58.32-.07.25.07.51.32.58l5.93,1.7c.25.07.51-.07.58-.32s-.07-.51-.32-.58h0Z"/>
        <path class="cls-1" d="M34.79,12.88c-1.04,0-1.88.84-1.88,1.89,0,1.04.84,1.88,1.89,1.88,1.04,0,1.88-.84,1.88-1.89,0,0,0,0,0,0,0-1.04-.85-1.88-1.89-1.88ZM34.79,15.71c-.52,0-.94-.42-.94-.94s.42-.94.94-.94c.52,0,.94.42.94.94,0,.52-.42.94-.94.94Z"/>
      </g>
    </g>
  </g>
</svg>