<?xml version="1.0" encoding="UTF-8"?>
<svg id="Layer_2" xmlns="http://www.w3.org/2000/svg" xmlns:xlink="http://www.w3.org/1999/xlink" viewBox="0 0 50 31">
  <defs>
    <style>
      .cls-1 {
        fill: #fff;
      }

      .cls-2 {
        fill: none;
      }

      .cls-3 {
        clip-path: url(#clippath);
      }
    </style>
    <clipPath id="clippath">
      <rect class="cls-2" width="50" height="31"/>
    </clipPath>
  </defs>
  <g id="Layer_1-2" data-name="Layer_1">
    <g class="cls-3">
      <g>
        <path class="cls-1" d="M10,31h15c.13,0,.26-.05.35-.14.09-.1.15-.22.15-.36v-10c0-.13-.05-.26-.15-.35l-2.5-2.5c-.09-.09-.22-.14-.35-.15h-10c-.13,0-.26.05-.35.15l-2.5,2.5c-.09.09-.15.22-.15.35v10c0,.13.05.26.15.36.09.09.22.14.35.14ZM24.5,30h-14v-9h4.75v4.5c0,.19.11.36.27.45s.37.07.52-.04l1.46-1.04,1.46,1.04c.15.11.35.12.52.04s.27-.26.27-.45v-4.5h4.75v9ZM16.25,18.5h2.5v6.03l-.96-.69h0c-.17-.12-.41-.12-.58,0l-.96.69v-6.03ZM23.79,20h-4.04v-1.5h2.54l1.5,1.5ZM12.71,18.5h2.54v1.5h-4.04l1.5-1.5Z"/>
        <path class="cls-1" d="M30.33,4.67c0,3.54,4.23,6.15,4.41,6.26h0c.16.1.36.1.52,0,.18-.11,4.41-2.72,4.41-6.26h0c0-2.58-2.09-4.67-4.67-4.67s-4.67,2.09-4.67,4.67h0ZM35,1c2.02,0,3.66,1.64,3.67,3.67,0,2.53-2.79,4.63-3.67,5.24-.88-.6-3.67-2.71-3.67-5.24,0-2.02,1.64-3.66,3.67-3.67Z"/>
        <path class="cls-1" d="M35,7.17c1.01,0,1.92-.61,2.31-1.54.39-.93.17-2.01-.54-2.72-.71-.71-1.79-.93-2.72-.54-.93.39-1.54,1.3-1.54,2.31,0,1.38,1.12,2.5,2.5,2.5h0ZM35,3.17c.61,0,1.15.37,1.39.93.23.56.1,1.21-.33,1.63-.43.43-1.07.56-1.63.33-.56-.23-.93-.78-.93-1.39,0-.83.67-1.5,1.5-1.5h0Z"/>
        <path class="cls-1" d="M32.5,15h-15c-1.11,0-2-.89-2-2s.89-2,2-2h12.5c.28,0,.5-.22.5-.5s-.22-.5-.5-.5h-12.5c-1.66,0-3,1.34-3,3s1.34,3,3,3h15c3.87,0,7,3.13,7,7s-3.13,7-7,7h-2.5c-.28,0-.5.22-.5.5s.22.5.5.5h2.5c2.86,0,5.5-1.53,6.93-4,1.43-2.47,1.43-5.53,0-8-1.43-2.47-4.07-4-6.93-4Z"/>
      </g>
    </g>
  </g>
</svg>