<?xml version="1.0" encoding="UTF-8"?>
<svg id="Layer_2" xmlns="http://www.w3.org/2000/svg" xmlns:xlink="http://www.w3.org/1999/xlink" viewBox="0 0 50 31">
  <defs>
    <style>
      .cls-1 {
        fill: #fff;
      }

      .cls-2 {
        fill: none;
      }

      .cls-3 {
        clip-path: url(#clippath);
      }
    </style>
    <clipPath id="clippath">
      <rect class="cls-2" width="50" height="31"/>
    </clipPath>
  </defs>
  <g id="Layer_1-2" data-name="Layer_1">
    <g class="cls-3">
      <path class="cls-1" d="M38.13,12.81c.33-.33.83.17.5.5l-5.51,5.51c-.33.33-.83-.17-.51-.51l5.51-5.51ZM34.82,12.23c1.23,1.23.36,3.36-1.39,3.36s-2.62-2.13-1.39-3.36c.77-.77,2.01-.77,2.78,0h0ZM34.69,13.63c0-1.12-1.36-1.68-2.15-.89s-.23,2.15.89,2.15c.69,0,1.26-.57,1.26-1.26h0ZM39.22,16.63c1.23,1.23.36,3.36-1.39,3.36s-2.62-2.13-1.39-3.36c.77-.77,2.01-.77,2.78,0h0ZM39.08,18.02c0-1.12-1.36-1.67-2.15-.89-.79.79-.23,2.15.89,2.15.69,0,1.26-.56,1.26-1.26h0ZM35.98,8.37c3.96.19,7.1,3.46,7.1,7.45s-3.14,7.27-7.1,7.45v2.71c0,.2-.16.36-.36.36h-6.3v3.7c0,.53-.43.96-.96.96h-8.66c-.27,0-.51-.11-.68-.28h0c-.17-.17-.28-.43-.28-.68v-3.7h-1.21v3.7c0,.53-.43.96-.96.96H7.89c-.27,0-.51-.11-.69-.28h0c-.17-.17-.28-.43-.28-.68v-8.11c0-.27.11-.51.28-.69h0c.17-.17.42-.28.68-.28h4.97c-.02-.08-.03-.17-.03-.26v-8.11c0-.53.43-.96.96-.96h1.54v-2.38h-5.93c-.2,0-.36-.16-.36-.36V3.5C9.05,1.56,10.64-.02,12.55,0h19.93c1.93,0,3.5,1.57,3.5,3.5v4.87ZM35.27,23.27c-3.97-.19-7.1-3.46-7.1-7.45s3.14-7.26,7.1-7.45V3.5c0-1.53-1.26-2.79-2.8-2.79H14.65c.85.65,1.39,1.67,1.39,2.79v8.12h6.41c.53,0,.96.43.96.96v8.11c0,.09-.02.17-.03.26h4.97c.53,0,.96.43.96.97v3.7h5.95v-2.35ZM40.4,11.05c-2.64-2.64-6.91-2.64-9.54,0-2.64,2.64-2.64,6.9,0,9.54,2.64,2.64,6.9,2.64,9.54,0,2.63-2.64,2.63-6.91,0-9.54h0ZM17.21,12.33v3.59l.7-.55c.13-.1.31-.1.43,0l.71.55v-3.59h-1.84ZM19.76,12.33v4.31c0,.28-.34.47-.58.28l-1.07-.83-1.03.81c-.24.21-.58.02-.58-.27v-4.31h-2.7c-.14,0-.26.12-.26.26v8.11c0,.14.12.26.26.26h8.66c.07,0,.13-.02.18-.08h0s.08-.11.08-.18v-8.1c0-.14-.12-.26-.26-.26h-2.69ZM14.82,20.08c-.47,0-.47-.71,0-.71h1.82c.47,0,.47.71,0,.71h-1.82ZM18.77,21.67h-1.28c.02.08.03.17.03.26v3.7h1.21v-3.7c0-.09.02-.18.04-.26h0ZM20.72,29.41c-.47,0-.47-.71,0-.71h1.82c.47,0,.47.71,0,.71h-1.82ZM23.11,21.67v3.58l.7-.55c.13-.1.31-.09.43,0l.71.55v-3.59h-1.84ZM25.66,21.67v4.31c0,.28-.34.47-.58.28l-1.07-.83-1.03.81c-.24.21-.58.02-.58-.27v-4.31h-2.7c-.07,0-.13.02-.18.08h0s-.08.11-.08.18v8.11c0,.07.03.13.08.18h0s.11.08.18.08h8.66c.14,0,.26-.12.26-.26v-8.11c0-.14-.12-.26-.26-.26h-2.7ZM8.91,29.41c-.47,0-.47-.71,0-.71h1.82c.47,0,.47.71,0,.71h-1.82ZM11.31,21.67v3.58l.7-.55c.13-.1.31-.09.43,0l.71.55v-3.59h-1.84ZM13.82,26.01c0,.28-.34.46-.57.27l-1.06-.82-1.03.81c-.24.2-.58.02-.58-.27v-4.28h-2.68c-.07,0-.13.02-.18.08h0s-.08.11-.08.18v8.06c0,.07.03.13.08.18h0s.11.08.18.08h8.6c.14,0,.26-.12.26-.26v-8.05c0-.14-.12-.26-.26-.26h-2.68M31.45,2.69c.47,0,.47.71,0,.71h-11.95c-.47,0-.47-.71,0-.71h11.95ZM32.41,4.96c.47,0,.47.71,0,.71h-11.96c-.47,0-.47-.71,0-.71,0,0,11.96,0,11.96,0ZM32.41,7.23c.47,0,.47.71,0,.71h-11.96c-.47,0-.47-.71,0-.71h11.96ZM12.55.71c-1.53,0-2.79,1.26-2.79,2.79v5.04h5.59V3.5c0-1.53-1.26-2.79-2.8-2.79h0Z"/>
    </g>
  </g>
</svg>