<?xml version="1.0" encoding="UTF-8"?>
<svg id="Layer_2" xmlns="http://www.w3.org/2000/svg" xmlns:xlink="http://www.w3.org/1999/xlink" viewBox="0 0 50 31">
  <defs>
    <style>
      .cls-1 {
        fill: #fff;
      }

      .cls-2 {
        fill: none;
      }

      .cls-3 {
        clip-path: url(#clippath);
      }
    </style>
    <clipPath id="clippath">
      <rect class="cls-2" width="50" height="31"/>
    </clipPath>
  </defs>
  <g id="Layer_1-2" data-name="Layer_1">
    <g class="cls-3">
      <g>
        <path class="cls-1" d="M42.06,8.77c-2.15-2.94-5.6-4.7-9.24-4.7s-7.09,1.76-9.23,4.7l-.11.15h-11.15c-3.63,0-6.59,2.95-6.59,6.57s2.96,6.59,6.59,6.59h11.14l.11.14c2.14,2.95,5.6,4.71,9.24,4.71,2.44,0,4.76-.76,6.73-2.2,5.09-3.71,6.22-10.87,2.51-15.97ZM21.48,16.74v.18c0,.1.02.18.06.38,0,0,.08.46.11.58l.05.19c.02.14.06.27.1.4l.05.17c.04.13.18.57.18.57.05.13.21.56.21.56.05.13.11.26.17.38l.24.62h-10.3c-2.9,0-5.27-2.37-5.27-5.28s2.37-5.27,5.27-5.27h10.31l-.26.63c-.05.11-.11.23-.15.37l-.07.17c-.05.13-.1.25-.13.38,0,0-.13.39-.19.57l-.19.76c-.02.13-.05.25-.08.4l-.08.57v.17c0,.11-.01.21-.02.32v.14s-.01,1.57-.01,1.57c0,.14,0,.26.04.46ZM32.81,25.61c-3.69,0-7.09-2.02-8.87-5.27l-.37-.74c-.06-.12-.11-.23-.13-.31-.08-.19-.15-.4-.25-.71l-.06-.13c-.08-.27-.15-.55-.21-.83l-.05-.21v-.04c-.04-.23-.07-.45-.11-.68l-.02-.27c-.04-.3-.05-.61-.05-.92s0-.62.05-.93l.02-.26c.04-.23.07-.45.11-.61,0-.1,0-.24.05-.32.06-.29.13-.56.2-.73,0-.12.04-.21.1-.33.06-.21.14-.42.21-.59.04-.11.08-.21.13-.32.1-.19.19-.38.26-.51l.13-.25c1.77-3.26,5.18-5.28,8.89-5.28,1.68,0,3.34.43,4.83,1.24,4.9,2.67,6.7,8.82,4.04,13.72-1.77,3.26-5.17,5.28-8.9,5.28Z"/>
        <path class="cls-1" d="M42.06,8.77c-2.15-2.94-5.6-4.7-9.24-4.7s-7.09,1.76-9.23,4.7l-.11.15h-11.15c-3.63,0-6.59,2.95-6.59,6.57s2.96,6.59,6.59,6.59h11.14l.11.14c2.14,2.95,5.6,4.71,9.24,4.71,2.44,0,4.76-.76,6.73-2.2,5.09-3.71,6.22-10.87,2.51-15.97ZM21.48,16.74v.18c0,.1.02.18.06.38,0,0,.08.46.11.58l.05.19c.02.14.06.27.1.4l.05.17c.04.13.18.57.18.57.05.13.21.56.21.56.05.13.11.26.17.38l.24.62h-10.3c-2.9,0-5.27-2.37-5.27-5.28s2.37-5.27,5.27-5.27h10.31l-.26.63c-.05.11-.11.23-.15.37l-.07.17c-.05.13-.1.25-.13.38,0,0-.13.39-.19.57l-.19.76c-.02.13-.05.25-.08.4l-.08.57v.17c0,.11-.01.21-.02.32v.14s-.01,1.57-.01,1.57c0,.14,0,.26.04.46ZM32.81,25.61c-3.69,0-7.09-2.02-8.87-5.27l-.37-.74c-.06-.12-.11-.23-.13-.31-.08-.19-.15-.4-.25-.71l-.06-.13c-.08-.27-.15-.55-.21-.83l-.05-.21v-.04c-.04-.23-.07-.45-.11-.68l-.02-.27c-.04-.3-.05-.61-.05-.92s0-.62.05-.93l.02-.26c.04-.23.07-.45.11-.61,0-.1,0-.24.05-.32.06-.29.13-.56.2-.73,0-.12.04-.21.1-.33.06-.21.14-.42.21-.59.04-.11.08-.21.13-.32.1-.19.19-.38.26-.51l.13-.25c1.77-3.26,5.18-5.28,8.89-5.28,1.68,0,3.34.43,4.83,1.24,4.9,2.67,6.7,8.82,4.04,13.72-1.77,3.26-5.17,5.28-8.9,5.28Z"/>
        <path class="cls-1" d="M38.66,12.74l-7,6.48c-.12.11-.27.17-.43.17-.17,0-.32-.06-.44-.17l-3.78-3.23c-.17-.19-.19-.52-.02-.77.12-.19.33-.3.55-.3.13,0,.26.04.37.11l3.29,2.83,6.57-6.06c.15-.14.31-.2.46-.2.19,0,.37.08.5.23.24.27.2.69-.07.93Z"/>
        <path class="cls-1" d="M38.66,12.74l-7,6.48c-.12.11-.27.17-.43.17-.17,0-.32-.06-.44-.17l-3.78-3.23c-.17-.19-.19-.52-.02-.77.12-.19.33-.3.55-.3.13,0,.26.04.37.11l3.29,2.83,6.57-6.06c.15-.14.31-.2.46-.2.19,0,.37.08.5.23.24.27.2.69-.07.93Z"/>
      </g>
    </g>
  </g>
</svg>