<?xml version="1.0" encoding="UTF-8"?>
<svg id="Layer_2" xmlns="http://www.w3.org/2000/svg" xmlns:xlink="http://www.w3.org/1999/xlink" viewBox="0 0 50 31">
  <defs>
    <style>
      .cls-1 {
        fill: #fff;
      }

      .cls-2 {
        fill: none;
      }

      .cls-3 {
        clip-path: url(#clippath);
      }
    </style>
    <clipPath id="clippath">
      <rect class="cls-2" width="50" height="31"/>
    </clipPath>
  </defs>
  <g id="Layer_1-2" data-name="Layer_1">
    <g class="cls-3">
      <g>
        <path class="cls-1" d="M40.96,2.02v13.52c0,.3-.24.54-.54.54s-.55-.24-.55-.54V2.02c0-.46-.37-.83-.83-.83H9.52c-.46,0-.83.37-.83.83v19.91c0,.46.37.83.83.83h16.4c.3,0,.55.24.55.55s-.25.54-.55.54H9.52c-1.06,0-1.92-.86-1.92-1.92V2.02c0-1.06.86-1.92,1.92-1.92h29.52c1.06,0,1.92.86,1.92,1.92Z"/>
        <path class="cls-1" d="M40.96,2.02v13.52c0,.3-.24.54-.54.54s-.55-.24-.55-.54V2.02c0-.46-.37-.83-.83-.83H9.52c-.46,0-.83.37-.83.83v19.91c0,.46.37.83.83.83h16.4c.3,0,.55.24.55.55s-.25.54-.55.54H9.52c-1.06,0-1.92-.86-1.92-1.92V2.02c0-1.06.86-1.92,1.92-1.92h29.52c1.06,0,1.92.86,1.92,1.92Z"/>
        <path class="cls-1" d="M23.33,20.99c0,.3-.24.55-.55.55h-12.15c-.32,0-.56-.25-.56-.55s.24-.55.54-.55h.56v-1.32c0-.3.25-.55.55-.55s.55.25.55.55v1.32h2.22v-3.19c0-.3.25-.54.55-.54s.55.24.55.54v3.19h2.22v-5.06c0-.3.25-.55.55-.55s.55.25.55.55v5.06h2.22v-6.93c0-.3.24-.54.55-.54s.54.24.54.54v6.93h.56c.31,0,.55.25.55.55Z"/>
        <path class="cls-1" d="M23.33,20.99c0,.3-.24.55-.55.55h-12.15c-.32,0-.56-.25-.56-.55s.24-.55.54-.55h.56v-1.32c0-.3.25-.55.55-.55s.55.25.55.55v1.32h2.22v-3.19c0-.3.25-.54.55-.54s.55.24.55.54v3.19h2.22v-5.06c0-.3.25-.55.55-.55s.55.25.55.55v5.06h2.22v-6.93c0-.3.24-.54.55-.54s.54.24.54.54v6.93h.56c.31,0,.55.25.55.55Z"/>
        <path class="cls-1" d="M38.08,5.05l-4.49,4.49c-.1.11-.24.16-.38.16-.15,0-.29-.05-.39-.16l-3.39-3.39-5.1,5.11c-.11.1-.25.16-.39.16-.15,0-.28-.06-.39-.16-.21-.21-.21-.56,0-.77l5.5-5.5c.1-.1.24-.15.38-.15.15,0,.29.05.39.15l3.39,3.39,4.1-4.1c.1-.1.24-.16.39-.16.14,0,.28.06.38.16.22.21.22.56,0,.77Z"/>
        <path class="cls-1" d="M38.08,5.05l-4.49,4.49c-.1.11-.24.16-.38.16-.15,0-.29-.05-.39-.16l-3.39-3.39-5.1,5.11c-.11.1-.25.16-.39.16-.15,0-.28-.06-.39-.16-.21-.21-.21-.56,0-.77l5.5-5.5c.1-.1.24-.15.38-.15.15,0,.29.05.39.15l3.39,3.39,4.1-4.1c.1-.1.24-.16.39-.16.14,0,.28.06.38.16.22.21.22.56,0,.77Z"/>
        <path class="cls-1" d="M18.91,3.42c0,.3-.24.55-.55.55h-7.73c-.3,0-.55-.25-.55-.55s.25-.55.55-.55h7.73c.31,0,.55.25.55.55Z"/>
        <path class="cls-1" d="M18.91,3.42c0,.3-.24.55-.55.55h-7.73c-.3,0-.55-.25-.55-.55s.25-.55.55-.55h7.73c.31,0,.55.25.55.55Z"/>
        <path class="cls-1" d="M18.91,6.17c0,.3-.24.54-.55.54h-7.73c-.3,0-.55-.24-.55-.54s.25-.55.55-.55h7.73c.31,0,.55.24.55.55Z"/>
        <path class="cls-1" d="M18.91,6.17c0,.3-.24.54-.55.54h-7.73c-.3,0-.55-.24-.55-.54s.25-.55.55-.55h7.73c.31,0,.55.24.55.55Z"/>
        <path class="cls-1" d="M18.91,8.91c0,.31-.24.55-.55.55h-7.73c-.3,0-.55-.24-.55-.55s.25-.54.55-.54h7.73c.31,0,.55.24.55.54Z"/>
        <path class="cls-1" d="M18.91,8.91c0,.31-.24.55-.55.55h-7.73c-.3,0-.55-.24-.55-.55s.25-.54.55-.54h7.73c.31,0,.55.24.55.54Z"/>
        <path class="cls-1" d="M18.91,11.66c0,.3-.24.55-.55.55h-7.73c-.3,0-.55-.25-.55-.55s.25-.55.55-.55h7.73c.31,0,.55.25.55.55Z"/>
        <path class="cls-1" d="M18.91,11.66c0,.3-.24.55-.55.55h-7.73c-.3,0-.55-.25-.55-.55s.25-.55.55-.55h7.73c.31,0,.55.25.55.55Z"/>
        <path class="cls-1" d="M34.93,20.45c-1.58,0-2.86,1.28-2.86,2.86s1.28,2.85,2.86,2.85,2.85-1.28,2.85-2.85-1.28-2.86-2.85-2.86ZM34.93,25.06c-.97,0-1.76-.78-1.76-1.75s.79-1.76,1.76-1.76,1.76.79,1.76,1.76-.79,1.75-1.76,1.75Z"/>
        <path class="cls-1" d="M34.93,20.45c-1.58,0-2.86,1.28-2.86,2.86s1.28,2.85,2.86,2.85,2.85-1.28,2.85-2.85-1.28-2.86-2.85-2.86ZM34.93,25.06c-.97,0-1.76-.78-1.76-1.75s.79-1.76,1.76-1.76,1.76.79,1.76,1.76-.79,1.75-1.76,1.75Z"/>
        <path class="cls-1" d="M42.13,24.57l-.91-.88c-.11-.11-.17-.25-.17-.39,0-.16.07-.29.17-.38l.84-.81c.36-.35.43-.9.18-1.33l-1.48-2.56c-.19-.33-.55-.54-.95-.54-.1,0-.2.01-.29.04l-1.12.32s-.1.02-.15.02c-.09,0-.18-.03-.26-.07-.13-.07-.22-.19-.26-.34l-.28-1.12c-.11-.49-.55-.83-1.05-.83h-2.95c-.5,0-.94.34-1.06.83l-.27,1.12c-.04.14-.13.26-.26.34-.08.05-.18.07-.27.07-.05,0-.1-.01-.14-.02l-1.12-.32c-.1-.03-.2-.04-.3-.04-.39,0-.75.21-.95.54l-1.47,2.56c-.25.43-.18.98.18,1.33l.84.81c.1.1.16.24.16.38,0,.15-.06.29-.16.38l-.84.81c-.36.35-.44.9-.18,1.33l1.47,2.55c.2.34.56.55.95.55.1,0,.2,0,.3-.04l1.12-.32s.1-.02.15-.02c.09,0,.18.02.26.07.12.07.21.19.25.34l.28,1.12c.13.49.56.83,1.06.83h2.95c.5,0,.94-.34,1.05-.83l.29-1.12c.03-.14.12-.27.25-.34.08-.05.18-.07.27-.07.05,0,.1,0,.15.02l1.11.32c.1.03.2.04.3.04.39,0,.75-.21.95-.55l1.48-2.55c.23-.4.18-.89-.12-1.25ZM39.82,27.83l-1.11-.32c-.15-.04-.3-.06-.45-.06-.29,0-.57.07-.81.22-.39.23-.66.59-.77,1.02l-.29,1.12h-2.94l-.28-1.12c-.11-.44-.38-.8-.77-1.02-.25-.15-.54-.22-.82-.22-.15,0-.3.02-.44.06l-1.11.32-1.48-2.55.84-.8c.32-.31.5-.73.5-1.17s-.18-.87-.5-1.18l-.84-.8,1.48-2.55,1.11.32c.14.04.3.06.45.06.28,0,.56-.07.81-.22.39-.22.66-.59.77-1.02l.28-1.12h2.94l.29,1.12c.11.44.38.8.77,1.02.24.15.52.22.81.22.15,0,.3-.02.45-.06l1.11-.32,1.47,2.55-.83.8c-.32.31-.5.73-.5,1.18s.18.86.5,1.17l.83.8-1.47,2.55Z"/>
        <path class="cls-1" d="M42.13,24.57l-.91-.88c-.11-.11-.17-.25-.17-.39,0-.16.07-.29.17-.38l.84-.81c.36-.35.43-.9.18-1.33l-1.48-2.56c-.19-.33-.55-.54-.95-.54-.1,0-.2.01-.29.04l-1.12.32s-.1.02-.15.02c-.09,0-.18-.03-.26-.07-.13-.07-.22-.19-.26-.34l-.28-1.12c-.11-.49-.55-.83-1.05-.83h-2.95c-.5,0-.94.34-1.06.83l-.27,1.12c-.04.14-.13.26-.26.34-.08.05-.18.07-.27.07-.05,0-.1-.01-.14-.02l-1.12-.32c-.1-.03-.2-.04-.3-.04-.39,0-.75.21-.95.54l-1.47,2.56c-.25.43-.18.98.18,1.33l.84.81c.1.1.16.24.16.38,0,.15-.06.29-.16.38l-.84.81c-.36.35-.44.9-.18,1.33l1.47,2.55c.2.34.56.55.95.55.1,0,.2,0,.3-.04l1.12-.32s.1-.02.15-.02c.09,0,.18.02.26.07.12.07.21.19.25.34l.28,1.12c.13.49.56.83,1.06.83h2.95c.5,0,.94-.34,1.05-.83l.29-1.12c.03-.14.12-.27.25-.34.08-.05.18-.07.27-.07.05,0,.1,0,.15.02l1.11.32c.1.03.2.04.3.04.39,0,.75-.21.95-.55l1.48-2.55c.23-.4.18-.89-.12-1.25ZM39.82,27.83l-1.11-.32c-.15-.04-.3-.06-.45-.06-.29,0-.57.07-.81.22-.39.23-.66.59-.77,1.02l-.29,1.12h-2.94l-.28-1.12c-.11-.44-.38-.8-.77-1.02-.25-.15-.54-.22-.82-.22-.15,0-.3.02-.44.06l-1.11.32-1.48-2.55.84-.8c.32-.31.5-.73.5-1.17s-.18-.87-.5-1.18l-.84-.8,1.48-2.55,1.11.32c.14.04.3.06.45.06.28,0,.56-.07.81-.22.39-.22.66-.59.77-1.02l.28-1.12h2.94l.29,1.12c.11.44.38.8.77,1.02.24.15.52.22.81.22.15,0,.3-.02.45-.06l1.11-.32,1.47,2.55-.83.8c-.32.31-.5.73-.5,1.18s.18.86.5,1.17l.83.8-1.47,2.55Z"/>
      </g>
    </g>
  </g>
</svg>