<?xml version="1.0" encoding="UTF-8"?>
<svg id="Layer_2" xmlns="http://www.w3.org/2000/svg" xmlns:xlink="http://www.w3.org/1999/xlink" viewBox="0 0 50 31">
  <defs>
    <style>
      .cls-1 {
        fill: #fff;
      }

      .cls-2 {
        fill: none;
      }

      .cls-3 {
        clip-path: url(#clippath);
      }
    </style>
    <clipPath id="clippath">
      <rect class="cls-2" width="50" height="31"/>
    </clipPath>
  </defs>
  <g id="Layer_1-2" data-name="Layer_1">
    <g class="cls-3">
      <g>
        <path class="cls-1" d="M36.19.2h-17.44c-2.36,0-4.27,1.91-4.27,4.26v.67h-.67c-2.35,0-4.27,1.92-4.27,4.27v10.74c0,2.35,1.92,4.27,4.27,4.27h1.29l-.98,5.87c-.02.2.06.38.21.46.05.02.14.05.22.05.13,0,.23-.03.3-.1l6.96-6.28h9.44c2.36,0,4.27-1.92,4.27-4.27v-.67h.67c2.35,0,4.27-1.91,4.27-4.27V4.46c0-2.35-1.92-4.26-4.27-4.26ZM34.62,20.19c0,1.88-1.53,3.42-3.41,3.42h-9.52c-.07,0-.11,0-.17.01h-.01c-.05.06-.11.08-.16.09l-6.18,5.51.85-5.2-.07-.11v-.08s-.02-.04-.04-.09l-.06-.08-.04-.03s-.03-.02-.06-.04h-.03l-.03-.04-.12-.02h-1.84c-1.88,0-3.42-1.53-3.42-3.41v-10.67c0-1.88,1.54-3.41,3.42-3.41h17.44c1.88,0,3.42,1.53,3.42,3.41v10.54h.03v.2ZM39.6,15.2l-.04.2c-.11,1.79-1.6,3.22-3.41,3.22h-.67v-9.18c0-2.35-1.92-4.26-4.27-4.26h-15.88v-.68c0-1.88,1.53-3.41,3.42-3.41h17.44c1.88,0,3.41,1.53,3.41,3.41v10.7Z"/>
        <path class="cls-1" d="M36.19.2h-17.44c-2.36,0-4.27,1.91-4.27,4.26v.67h-.67c-2.35,0-4.27,1.92-4.27,4.27v10.74c0,2.35,1.92,4.27,4.27,4.27h1.29l-.98,5.87c-.02.2.06.38.21.46.05.02.14.05.22.05.13,0,.23-.03.3-.1l6.96-6.28h9.44c2.36,0,4.27-1.92,4.27-4.27v-.67h.67c2.35,0,4.27-1.91,4.27-4.27V4.46c0-2.35-1.92-4.26-4.27-4.26ZM34.62,20.19c0,1.88-1.53,3.42-3.41,3.42h-9.52c-.07,0-.11,0-.17.01h-.01c-.05.06-.11.08-.16.09l-6.18,5.51.85-5.2-.07-.11v-.08s-.02-.04-.04-.09l-.06-.08-.04-.03s-.03-.02-.06-.04h-.03l-.03-.04-.12-.02h-1.84c-1.88,0-3.42-1.53-3.42-3.41v-10.67c0-1.88,1.54-3.41,3.42-3.41h17.44c1.88,0,3.42,1.53,3.42,3.41v10.54h.03v.2ZM39.6,15.2l-.04.2c-.11,1.79-1.6,3.22-3.41,3.22h-.67v-9.18c0-2.35-1.92-4.26-4.27-4.26h-15.88v-.68c0-1.88,1.53-3.41,3.42-3.41h17.44c1.88,0,3.41,1.53,3.41,3.41v10.7Z"/>
        <path class="cls-1" d="M15.77,12.87c-1.08,0-1.96.87-1.96,1.95s.88,1.96,1.96,1.96,1.95-.88,1.95-1.95c-.03-1.08-.91-1.96-1.95-1.96ZM15.77,15.88c-.59,0-1.07-.47-1.07-1.06s.48-1.06,1.07-1.06,1.06.48,1.06,1.06-.48,1.06-1.06,1.06Z"/>
        <path class="cls-1" d="M15.77,12.87c-1.08,0-1.96.87-1.96,1.95s.88,1.96,1.96,1.96,1.95-.88,1.95-1.95c-.03-1.08-.91-1.96-1.95-1.96ZM15.77,15.88c-.59,0-1.07-.47-1.07-1.06s.48-1.06,1.07-1.06,1.06.48,1.06,1.06-.48,1.06-1.06,1.06Z"/>
        <path class="cls-1" d="M22.51,12.87c-1.08,0-1.96.87-1.96,1.95s.88,1.96,1.96,1.96,1.95-.88,1.95-1.95c-.03-1.08-.91-1.96-1.95-1.96ZM22.51,15.88c-.58,0-1.06-.48-1.06-1.06s.47-1.06,1.06-1.06,1.06.48,1.06,1.06-.49,1.06-1.06,1.06Z"/>
        <path class="cls-1" d="M22.51,12.87c-1.08,0-1.96.87-1.96,1.95s.88,1.96,1.96,1.96,1.95-.88,1.95-1.95c-.03-1.08-.91-1.96-1.95-1.96ZM22.51,15.88c-.58,0-1.06-.48-1.06-1.06s.47-1.06,1.06-1.06,1.06.48,1.06,1.06-.49,1.06-1.06,1.06Z"/>
        <path class="cls-1" d="M29.25,12.87c-1.08,0-1.96.87-1.96,1.95s.88,1.96,1.96,1.96,1.96-.88,1.96-1.95c-.04-1.08-.92-1.96-1.96-1.96ZM30,15.57c-.2.2-.47.31-.75.31-.59,0-1.06-.47-1.06-1.06s.47-1.06,1.06-1.06,1.06.48,1.06,1.06c0,.28-.11.55-.31.75Z"/>
        <path class="cls-1" d="M29.25,12.87c-1.08,0-1.96.87-1.96,1.95s.88,1.96,1.96,1.96,1.96-.88,1.96-1.95c-.04-1.08-.92-1.96-1.96-1.96ZM30,15.57c-.2.2-.47.31-.75.31-.59,0-1.06-.47-1.06-1.06s.47-1.06,1.06-1.06,1.06.48,1.06,1.06c0,.28-.11.55-.31.75Z"/>
      </g>
    </g>
  </g>
</svg>