<?xml version="1.0" encoding="UTF-8"?>
<svg id="Layer_2" xmlns="http://www.w3.org/2000/svg" xmlns:xlink="http://www.w3.org/1999/xlink" viewBox="0 0 50 31">
  <defs>
    <style>
      .cls-1 {
        fill: #fff;
      }

      .cls-2 {
        fill: none;
      }

      .cls-3 {
        clip-path: url(#clippath);
      }
    </style>
    <clipPath id="clippath">
      <rect class="cls-2" width="50" height="31"/>
    </clipPath>
  </defs>
  <g id="Layer_1-2" data-name="Layer_1">
    <g class="cls-3">
      <path class="cls-1" d="M14.39,6.26c2.45-.09,2.45-3.65,0-3.74-2.48.06-2.45,3.65,0,3.74ZM14.39,3.18c1.38,0,1.67,1.95.35,2.39-1.79.41-2.2-2.3-.35-2.39ZM39.35,19.56h-3.99l1.76-11.1c.03-.16-.06-.31-.22-.38l-7.73-2.26h-.16l-8.24,1.45-2.52-.72c1.41-3.21-.5-6.45-3.87-6.54-2.42,0-4.37,1.98-4.37,4.37.09,1.6,1.07,3.65,1.95,5.66l-1.82,11.44c-.03.16.06.31.22.38l7.73,2.26c.06,0,.09.03.16,0l8.24-1.45,2.01.6v7.14c0,.31.25.6.6.6h10.28c.31,0,.6-.25.6-.6v-10.28c-.03-.31-.28-.57-.63-.57ZM36.02,20.18v4.75l-1.54-1.57c-.13-.13-.35-.13-.47,0l-1.57,1.57v-4.75h3.58ZM21.05,7.86l7.64-1.32-1.23,7.67-1.07-.97c.28-1.54-1.92-1.76-2.3-.38l-4.37,3.3,1.32-8.3ZM25.77,13.05c-.06.6-1.13.75-1.07.03.06-.63,1.13-.75,1.07-.03ZM11.28,6.73c-.5-1.35-.6-2.01-.6-2.36,0-2.04,1.67-3.74,3.71-3.74s3.71,1.67,3.71,3.74c0,.31-.09.97-.57,2.23-.88,2.39-2.08,4.72-3.14,6.79-.97-1.79-2.45-4.87-3.11-6.67ZM17.94,23.36l-7.11-2.08,1.63-10.25c.6,1.26,1.26,2.52,1.92,3.74,1.16-2.14,2.74-5.22,3.65-7.64l2.36.69-1.41,8.8-3.52.28c-.44-1.1-2.14-.69-2.3.41-.13,1.54,2.11,1.63,2.39.22l3.33-.28-.94,6.1ZM14.92,17.39c-.06.6-1.13.75-1.07.03.06-.6,1.13-.75,1.07-.03ZM26.21,22.07l-7.64,1.32,1.01-6.29,4.56-3.52c.35.75,1.41.79,1.95.19l1.26,1.16-1.13,7.14ZM29.1,19.56c-.31,0-.6.25-.6.6v2.45l-1.63-.5,1.07-6.79,3.08,1.54c-.03.06-.06.16-.06.22-.19,1.57,2.14,1.63,2.36.19.19-1.07-1.16-1.6-1.92-.94l-3.36-1.67,1.29-8.11,7.11,2.08-1.76,10.91s-5.56,0-5.56.03ZM31.62,17.2c.06-.6,1.13-.75,1.07-.03-.06.6-1.13.75-1.07.03ZM39.32,30.34h-10.19v-10.16h2.64v5.53c0,.13.09.25.19.31.13.06.25.03.35-.06l1.89-1.89,1.89,1.89c.09.09.22.13.35.06.13-.06.19-.16.19-.31v-5.53h2.64v10.16h.06Z"/>
    </g>
  </g>
</svg>