<?xml version="1.0" encoding="UTF-8"?>
<svg id="Layer_2" xmlns="http://www.w3.org/2000/svg" xmlns:xlink="http://www.w3.org/1999/xlink" viewBox="0 0 50 31">
  <defs>
    <style>
      .cls-1 {
        fill: #fff;
      }

      .cls-2 {
        fill: none;
      }

      .cls-3 {
        clip-path: url(#clippath);
      }
    </style>
    <clipPath id="clippath">
      <rect class="cls-2" width="50" height="31"/>
    </clipPath>
  </defs>
  <g id="Layer_1-2" data-name="Layer_1">
    <g class="cls-3">
      <g>
        <path class="cls-1" d="M42.68,24.36c-.22-.4-.51-.72-.83-1.01-.91-.74-2.9-1.85-3.67-2.29.61-.92.97-2.09.96-3.36,0-2.93-1.95-5.32-4.34-5.32s-4.34,2.39-4.34,5.32c0,1.27.37,2.45.98,3.36-.82.45-2.7,1.53-3.59,2.25-.29.22-.54.51-.76.83-.36.54-.54,1.23-.54,1.95v1.32c0,.06,0,.12.02.18.04.1.12.18.22.21,2.53,1.11,5.27,1.69,8.01,1.69s5.5-.58,8.11-1.63c.14-.07.22-.22.22-.36v-1.38c0-.65-.14-1.27-.43-1.77ZM34.79,13.14c1.99,0,3.62,2.03,3.58,4.56,0,2.5-1.59,4.56-3.58,4.56s-3.58-2.06-3.58-4.56,1.59-4.56,3.58-4.56ZM42.35,27.22c-4.81,2.03-10.26,2.02-15.06-.02v-1.14c0-.58.14-1.12.43-1.56.18-.25.36-.47.58-.65.88-.67,2.85-1.8,3.58-2.2.77.85,1.78,1.37,2.89,1.37s2.16-.52,2.93-1.37c.67.36,2.78,1.54,3.66,2.24.25.22.47.47.65.8.22.4.33.9.33,1.41v1.12Z"/>
        <path class="cls-1" d="M22.23,23.35c-.92-.74-2.94-1.87-3.69-2.3.61-.92.98-2.08.98-3.35,0-2.93-1.95-5.32-4.34-5.32s-4.34,2.39-4.34,5.32c0,1.27.37,2.43.97,3.35-.8.45-2.72,1.54-3.62,2.26-.29.22-.54.51-.76.83-.36.54-.54,1.23-.54,1.95v1.38c0,.17.13.33.32.35,2.52,1.1,5.24,1.67,7.97,1.67s5.47-.58,8.11-1.63c.14-.07.22-.22.22-.36v-1.38c0-.65-.14-1.27-.43-1.77-.22-.4-.51-.72-.83-1.01ZM15.17,13.14c1.95,0,3.58,2.03,3.58,4.56s-1.59,4.56-3.58,4.56-3.58-2.06-3.58-4.56,1.59-4.56,3.58-4.56ZM22.74,27.22c-4.83,2.04-10.29,2.02-15.09-.03v-1.12c0-.58.14-1.12.43-1.56.18-.25.36-.47.58-.65.89-.68,2.89-1.82,3.61-2.21.77.86,1.79,1.38,2.91,1.38s2.14-.53,2.91-1.38c.65.35,2.79,1.55,3.68,2.25.25.22.47.47.65.8.22.4.33.9.33,1.41v1.12Z"/>
        <g>
          <path class="cls-1" d="M15.03,8.54s.11.04.14.04c.14,0,.29-.07.36-.18.62-1.48,1.66-2.79,2.97-3.84,1.52-1.23,3.44-2.03,5.32-2.21,3.58-.36,7.27,1.3,9.3,4.23.14.18.36.22.54.11.18-.14.22-.36.11-.54-2.21-3.19-6.15-4.99-10.03-4.6-2.06.18-4.02,1.01-5.72,2.35-1.38,1.12-2.5,2.57-3.19,4.13-.11.18,0,.43.18.51Z"/>
          <path class="cls-1" d="M31.53,7.92c-.04.22.11.4.33.43l3.33.54.51-3.26c.04-.22-.11-.4-.33-.43-.22-.04-.4.11-.43.33l-.4,2.46-2.57-.4c-.22-.04-.4.11-.43.33Z"/>
        </g>
      </g>
    </g>
  </g>
</svg>