<?xml version="1.0" encoding="UTF-8"?>
<svg id="Layer_2" xmlns="http://www.w3.org/2000/svg" viewBox="0 0 50 50">
  <defs>
    <style>
      .cls-1 {
        fill: #f26128;
      }
    </style>
  </defs>
  <g id="Layer_1-2" data-name="Layer_1">
    <g>
      <path class="cls-1" d="M42.45,0H7.55C3.38,0,0,3.38,0,7.55v34.91c0,4.17,3.38,7.54,7.55,7.55h34.91c4.17,0,7.54-3.38,7.55-7.55V7.55c0-4.17-3.38-7.54-7.55-7.55ZM2.24,7.55c0-2.93,2.38-5.3,5.3-5.3h34.91c2.93,0,5.3,2.38,5.3,5.3v25.02l-7.9-7.02c-.45-.4-1.14-.37-1.56.06l-7.45,7.82-7.33-7.81c-.21-.22-.5-.35-.81-.35h0c-.31,0-.6.13-.81.35L3.08,45.29c-.55-.85-.84-1.83-.84-2.84V7.55ZM4.66,46.89l18.03-18.87,18.51,19.74H7.55c-1.03,0-2.03-.3-2.89-.87ZM44.03,47.49l-11.65-12.42,6.79-7.13,8.58,7.62v6.88c0,2.31-1.52,4.35-3.72,5.04h0Z"/>
      <path class="cls-1" d="M28.95,20.48c3.07,0,5.55-2.49,5.55-5.55s-2.49-5.55-5.55-5.55-5.55,2.49-5.55,5.55h0c0,3.06,2.49,5.55,5.55,5.55ZM28.95,11.62c1.83,0,3.31,1.48,3.31,3.31,0,1.83-1.48,3.31-3.31,3.31-1.83,0-3.31-1.48-3.31-3.31,0-1.83,1.48-3.31,3.31-3.31Z"/>
    </g>
  </g>
</svg>