<?xml version="1.0" encoding="UTF-8"?>
<svg id="Layer_2" xmlns="http://www.w3.org/2000/svg" viewBox="0 0 50 50">
  <defs>
    <style>
      .cls-1 {
        fill: #f26128;
      }
    </style>
  </defs>
  <g id="Layer_1-2" data-name="Layer_1">
    <g>
      <path class="cls-1" d="M49.59,15.9L25.49.15c-.3-.19-.68-.19-.98,0L.4,15.9c-.96.65-.02,2.12.98,1.5l3.98-2.6v32.53c0,.49.4.89.89.89h4.52c.49,0,.89-.4.89-.89s-.4-.89-.89-.89h-3.62V13.63L25,1.96l17.86,11.67v32.8h-3.62c-.49,0-.89.4-.89.89s.4.89.89.89h4.52c.49,0,.89-.4.89-.89V14.79l3.98,2.6c.97.63,1.96-.83.98-1.5h0Z"/>
      <path class="cls-1" d="M15.18,31.7c-.49,0-.89.4-.89.89v13.84c0,1.97,1.6,3.57,3.57,3.57h14.29c1.97,0,3.57-1.6,3.57-3.57v-19.64c0-1.97-1.6-3.57-3.57-3.57h-14.29c-1.97,0-3.57,1.6-3.57,3.57v1.34c.02,1.18,1.77,1.17,1.79,0v-1.34c0-.98.8-1.79,1.79-1.79h14.29c.98,0,1.79.8,1.79,1.79v19.64c0,.98-.8,1.79-1.79,1.79h-14.29c-.98,0-1.79-.8-1.79-1.79v-13.84c0-.49-.4-.89-.89-.89Z"/>
      <path class="cls-1" d="M31.25,28.13c0-.49-.4-.89-.89-.89h-10.71c-.49,0-.89.4-.89.89v5.36c0,.49.4.89.89.89h10.71c.49,0,.89-.4.89-.89v-5.36ZM29.46,32.59h-8.93v-3.57h8.93v3.57Z"/>
      <path class="cls-1" d="M25.44,36.16h-.89c-1.17.02-1.17,1.77,0,1.79h.89c1.17-.02,1.17-1.77,0-1.79Z"/>
      <path class="cls-1" d="M20.53,36.16h-.89c-1.17.02-1.17,1.77,0,1.79h.89c1.17-.02,1.17-1.77,0-1.79Z"/>
      <path class="cls-1" d="M30.35,36.16h-.89c-1.17.02-1.17,1.77,0,1.79h.89c1.17-.02,1.17-1.77,0-1.79Z"/>
      <path class="cls-1" d="M25.44,40.18h-.89c-1.17.02-1.17,1.77,0,1.79h.89c1.17-.02,1.17-1.77,0-1.79Z"/>
      <path class="cls-1" d="M20.53,40.18h-.89c-1.17.02-1.17,1.77,0,1.79h.89c1.17-.02,1.17-1.77,0-1.79Z"/>
      <path class="cls-1" d="M30.35,40.18h-.89c-1.17.02-1.17,1.77,0,1.79h.89c1.17-.02,1.17-1.77,0-1.79Z"/>
      <path class="cls-1" d="M24.55,44.2c-1.17.02-1.17,1.77,0,1.79h.89c1.17-.02,1.17-1.77,0-1.79h-.89Z"/>
      <path class="cls-1" d="M19.64,44.2c-1.17.02-1.17,1.77,0,1.79h.89c1.17-.02,1.17-1.77,0-1.79h-.89Z"/>
      <path class="cls-1" d="M29.46,44.2c-1.17.02-1.17,1.77,0,1.79h.89c1.17-.02,1.17-1.77,0-1.79h-.89Z"/>
    </g>
  </g>
</svg>