<?xml version="1.0" encoding="UTF-8"?>
<svg id="Layer_2" xmlns="http://www.w3.org/2000/svg" xmlns:xlink="http://www.w3.org/1999/xlink" viewBox="0 0 50 50">
  <defs>
    <style>
      .cls-1 {
        fill: none;
      }

      .cls-2 {
        fill: #f16028;
      }

      .cls-3 {
        clip-path: url(#clippath);
      }
    </style>
    <clipPath id="clippath">
      <rect class="cls-1" width="50" height="50"/>
    </clipPath>
  </defs>
  <g id="Layer_1-2" data-name="Layer_1">
    <g class="cls-3">
      <g>
        <path class="cls-2" d="M18.65,17.84h4.47c.41,0,.76-.34.76-.76s-.34-.76-.76-.76h-4.25l.68-4.6h3.57c.41,0,.76-.34.76-.76s-.34-.76-.76-.76h-3.34l.49-3.29c.06-.41-.23-.8-.64-.86-.41-.05-.8.23-.86.64l-.52,3.51h-4.52l.49-3.29c.06-.41-.23-.8-.64-.86-.41-.05-.8.23-.86.64l-.52,3.51h-4.47c-.42,0-.76.34-.76.76s.34.76.76.76h4.24l-.68,4.6h-3.56c-.42,0-.76.34-.76.76s.34.76.76.76h3.34l-.49,3.3c-.06.41.23.8.64.86.04,0,.07,0,.11,0h0c.38,0,.7-.27.75-.65l.52-3.52h4.52l-.49,3.3c-.06.41.23.8.64.86.04,0,.07,0,.11,0h0c.38,0,.7-.27.75-.65l.52-3.52ZM12.82,16.33l.68-4.6h4.52l-.68,4.6h-4.52Z"/>
        <path class="cls-2" d="M46.51,17.66h-15.27V4.46c0-1.92-1.56-3.48-3.49-3.48H3.49C1.57.98,0,2.54,0,4.46v18.9c0,1.92,1.56,3.48,3.49,3.48h3.66v4.73c0,.29.16.55.41.68.11.05.23.08.34.08h0c.16,0,.32-.05.45-.14l7.23-5.34h3.17v13.2c0,1.92,1.56,3.48,3.49,3.48h12.14l7.23,5.34c.13.1.3.15.45.15h0c.12,0,.23-.03.34-.08.25-.13.41-.39.41-.68v-4.73h3.66c1.92,0,3.49-1.56,3.49-3.48v-18.91c0-1.92-1.56-3.48-3.49-3.48ZM15.35,25.34c-.16,0-.32.05-.45.15l-6.23,4.6v-3.99c0-.42-.34-.76-.76-.76H3.49c-1.09,0-1.98-.88-1.98-1.97V4.46c0-1.09.89-1.97,1.98-1.97h24.26c1.09,0,1.98.88,1.98,1.97v18.91c0,1.09-.88,1.97-1.98,1.97h-8.19s-.02,0-.04,0-.02,0-.04,0h-4.13ZM48.5,40.05c0,1.09-.89,1.97-1.98,1.97h-4.42c-.42,0-.76.34-.76.76v3.99l-6.23-4.6c-.13-.09-.29-.15-.45-.15h-12.4c-1.09,0-1.98-.88-1.98-1.97v-13.2h7.46c1.92,0,3.49-1.56,3.49-3.48v-4.19h15.28c1.09,0,1.98.88,1.98,1.97v18.91Z"/>
        <path class="cls-2" d="M33.02,26.7h8.84c.41,0,.75-.34.75-.76s-.34-.76-.76-.76h-8.84c-.42,0-.76.34-.76.76s.34.76.76.76Z"/>
        <path class="cls-2" d="M41.87,33.73h-14.8c-.42,0-.76.34-.76.76s.34.76.76.76h14.8c.41,0,.76-.34.76-.76s-.34-.76-.76-.76Z"/>
      </g>
    </g>
  </g>
</svg>