<?xml version="1.0" encoding="UTF-8"?>
<svg id="Layer_2" xmlns="http://www.w3.org/2000/svg" xmlns:xlink="http://www.w3.org/1999/xlink" viewBox="0 0 50 50">
  <defs>
    <style>
      .cls-1 {
        fill: #f16027;
        fill-rule: evenodd;
      }

      .cls-2 {
        fill: none;
      }

      .cls-3 {
        clip-path: url(#clippath);
      }
    </style>
    <clipPath id="clippath">
      <rect class="cls-2" width="50" height="50"/>
    </clipPath>
  </defs>
  <g id="Layer_1-2" data-name="Layer_1">
    <g class="cls-3">
      <path class="cls-1" d="M38.59,12.52c-1.95-2.79-4.71-4.93-7.9-6.11-.32-.1-.58-.34-.68-.66-.7-2.17-2.72-3.65-5-3.65s-4.3,1.48-5,3.65c-.1.31-.33.55-.63.66-3.2,1.17-5.97,3.29-7.92,6.08-1.96,2.79-3.02,6.11-3.03,9.52v6.78c.02,1.99-.85,3.88-2.38,5.15-.71.61-1.33.98-1.74,1.85h0c-.49,1.05-.41,2.27.2,3.25.62.98,1.69,1.57,2.85,1.57h35.31c1.87,0,3.38-1.52,3.38-3.38,0-1.02-.47-1.99-1.27-2.63-1.11-.92-1.95-1.62-2.57-2.97-.41-.89-.62-1.86-.61-2.84v-6.77c0-3.4-1.05-6.71-3-9.48h0ZM31.22,42.66h-12.43c.5,3.04,3.13,5.28,6.22,5.28s5.72-2.23,6.22-5.28h0ZM31.8,4.65c3.48,1.37,6.47,3.76,8.59,6.85,2.11,3.09,3.25,6.75,3.26,10.49v6.78c-.02,1.39.59,2.71,1.67,3.59l.77.64h0c1.26,1.03,2,2.58,2,4.21,0,3-2.43,5.43-5.43,5.43h-9.36c-.33,2.73-1.98,5.12-4.42,6.39-2.43,1.28-5.34,1.28-7.77,0-2.43-1.28-4.08-3.67-4.42-6.39H7.35c-1.86,0-3.6-.96-4.59-2.54-1-1.58-1.11-3.55-.31-5.24.35-.73.86-1.37,1.49-1.88.84-.56,1.53-1.33,2.01-2.22.28-.62.42-1.3.41-1.98v-6.79c.01-3.75,1.15-7.4,3.26-10.49,2.11-3.09,5.1-5.48,8.59-6.85C19.29,1.85,21.99,0,25,0s5.71,1.85,6.8,4.65h0ZM11.41,23.6c-.02-.29.08-.57.27-.78.2-.21.47-.33.76-.33s.56.12.76.33c.2.21.3.49.27.78v3.09c-.04.54-.49.96-1.03.96s-.99-.42-1.03-.96v-3.09ZM20.39,9.22c.53-.2,1.13.07,1.33.61.2.53-.07,1.13-.61,1.33-3.77,1.38-6.56,4.61-7.39,8.53-.11.57-.66.94-1.23.82-.57-.11-.94-.66-.82-1.23.97-4.64,4.27-8.44,8.72-10.06h0Z"/>
    </g>
  </g>
</svg>