<?xml version="1.0" encoding="UTF-8"?>
<svg id="Layer_2" xmlns="http://www.w3.org/2000/svg" xmlns:xlink="http://www.w3.org/1999/xlink" viewBox="0 0 50 50">
  <defs>
    <style>
      .cls-1 {
        fill: none;
      }

      .cls-2 {
        clip-path: url(#clippath);
      }

      .cls-3 {
        fill: #f16027;
      }
    </style>
    <clipPath id="clippath">
      <rect class="cls-1" width="50" height="50"/>
    </clipPath>
  </defs>
  <g id="Layer_1-2" data-name="Layer_1">
    <g class="cls-2">
      <path class="cls-3" d="M34.6,0H15.4c-2.02,0-3.67,1.64-3.67,3.67v42.66c0,2.02,1.64,3.67,3.67,3.67h19.2c2.02,0,3.67-1.64,3.67-3.67V3.67C38.27,1.64,36.62,0,34.6,0ZM15.4,1.03h19.2c1.46,0,2.63,1.18,2.63,2.63v38.85H12.77V3.67c0-1.46,1.18-2.64,2.63-2.64h0ZM34.6,48.96H15.4c-1.46,0-2.63-1.18-2.63-2.63v-2.77h24.46v2.77c0,1.45-1.18,2.63-2.63,2.63h0ZM31.07,9.03v-.9c0-.29.23-.52.52-.52s.52.23.52.52v.9c0,.29-.23.52-.52.52-.29,0-.52-.24-.52-.52ZM32.62,9.03v-1.51c0-.29.23-.52.52-.52s.52.23.52.52v1.51c0,.29-.23.52-.52.52-.29,0-.52-.24-.52-.52ZM34.17,9.03v-2.08c0-.29.23-.52.52-.52s.52.23.52.52v2.08c0,.29-.23.52-.52.52-.29,0-.52-.24-.52-.52ZM28.43,45.94c0,.28-.23.52-.52.52h-5.83c-.29,0-.52-.23-.52-.52s.23-.52.52-.52h5.82c.29,0,.52.23.52.52h0ZM19.35,24.01h2.62c1.2,0,2.18-.98,2.18-2.18v-2.62c0-1.2-.98-2.18-2.18-2.18h-2.62c-1.2,0-2.18.98-2.18,2.18v2.62c0,1.2.98,2.18,2.18,2.18h0ZM18.21,19.21c0-.63.51-1.14,1.14-1.14h2.62c.63,0,1.14.51,1.14,1.14v2.62c0,.63-.51,1.14-1.14,1.14h-2.62c-.63,0-1.14-.51-1.14-1.14v-2.62ZM19.35,32.96h2.62c1.2,0,2.18-.98,2.18-2.18v-2.62c0-1.2-.98-2.18-2.18-2.18h-2.62c-1.2,0-2.18.98-2.18,2.18v2.62c0,1.2.98,2.18,2.18,2.18ZM18.21,28.16c0-.63.51-1.14,1.14-1.14h2.62c.63,0,1.14.51,1.14,1.14v2.62c0,.63-.51,1.14-1.14,1.14h-2.62c-.63,0-1.14-.51-1.14-1.14v-2.62ZM27.79,17.04h3.09c1.07,0,1.94.87,1.94,1.94,0,.29-.23.52-.52.52s-.52-.23-.52-.52c0-.5-.41-.91-.91-.91h-3.09c-.5,0-.91.41-.91.91v3.09c0,.5.41.91.91.91h3.09c.31,0,.6-.16.77-.42.15-.24.47-.31.71-.16.24.15.31.47.16.71-.36.57-.97.91-1.64.91h-3.09c-1.07,0-1.94-.87-1.94-1.94v-3.09c0-1.07.87-1.94,1.94-1.94h0ZM30.65,25.98h-2.62c-1.2,0-2.18.98-2.18,2.18v2.62c0,1.2.98,2.18,2.18,2.18h2.62c1.2,0,2.18-.98,2.18-2.18v-2.62c0-1.2-.98-2.18-2.18-2.18ZM31.79,30.78c0,.63-.51,1.14-1.14,1.14h-2.62c-.63,0-1.14-.51-1.14-1.14v-2.62c0-.63.51-1.14,1.14-1.14h2.62c.63,0,1.14.51,1.14,1.14v2.62ZM18.66,29.47c0-.29.23-.52.52-.52h.97v-.97c0-.29.23-.52.52-.52s.52.23.52.52v.97h.97c.29,0,.52.23.52.52s-.23.52-.52.52h-.97v.97c0,.29-.23.52-.52.52s-.52-.23-.52-.52v-.97h-.97c-.29,0-.52-.24-.52-.52ZM30.76,19.84l-.68.68.68.68c.2.2.2.53,0,.73-.1.1-.24.15-.37.15s-.27-.05-.37-.15l-.68-.68-.68.68c-.1.1-.24.15-.37.15s-.27-.05-.37-.15c-.2-.2-.2-.53,0-.73l.68-.68-.68-.68c-.2-.2-.2-.53,0-.73.2-.2.53-.2.73,0l.68.68.68-.68c.2-.2.53-.2.73,0,.2.21.2.53,0,.73h0ZM20.91,3.04c0-.29.23-.52.52-.52h.61c.29,0,.52.23.52.52s-.23.52-.52.52h-.61c-.29,0-.52-.24-.52-.52ZM23.65,3.04c0-.29.23-.52.52-.52h4.41c.29,0,.52.23.52.52s-.23.52-.52.52h-4.41c-.29,0-.52-.24-.52-.52Z"/>
    </g>
  </g>
</svg>