<?xml version="1.0" encoding="UTF-8"?>
<svg id="Layer_2" xmlns="http://www.w3.org/2000/svg" viewBox="0 0 50 48.98">
  <defs>
    <style>
      .cls-1 {
        fill: #f16027;
        fill-rule: evenodd;
      }
    </style>
  </defs>
  <g id="Layer_1-2" data-name="Layer_1">
    <path class="cls-1" d="M24.59,48.89C9.96,42.67.8,30.97,0,10.93c-.01-.33.13-.64.38-.85C8.58,3.27,16.8-.03,25.01,0c8.2.04,16.41,3.41,24.6,10.07.27.22.41.55.39.89-1.38,19.46-9.78,31.92-24.6,37.94-.26.11-.55.1-.81,0h0ZM25.01,46.78c13.69-5.73,21.43-17.41,22.84-35.42-7.62-6.08-15.23-9.21-22.86-9.25-7.63-.03-15.24,3.04-22.86,9.26.89,18.54,9.34,29.51,22.88,35.41h0ZM28.61,8.13l.44,2.67c1.36.49,2.62,1.21,3.72,2.15l2.53-.96c.41-.16.89-.04,1.17.3,1.21,1.41,2.15,3.04,2.77,4.79.15.42.02.89-.33,1.17l-2.09,1.71c.26,1.42.26,2.87,0,4.29l2.09,1.71c.35.28.47.75.33,1.17-.62,1.75-1.56,3.38-2.77,4.79-.29.34-.76.46-1.17.3l-2.53-.96c-1.1.93-2.36,1.66-3.72,2.15l-.44,2.67c-.07.44-.41.79-.85.87-1.83.34-3.71.34-5.54,0-.44-.08-.78-.43-.85-.87l-.44-2.67c-1.36-.49-2.62-1.21-3.72-2.15l-2.53.96c-.42.16-.89.04-1.18-.3-1.21-1.41-2.15-3.04-2.77-4.79-.15-.42-.02-.89.33-1.17,0,0,2.09-1.71,2.09-1.71-.26-1.42-.26-2.87,0-4.3l-2.09-1.71c-.34-.28-.47-.75-.33-1.17.62-1.75,1.56-3.38,2.77-4.79.29-.34.76-.46,1.18-.3l2.53.96c1.1-.93,2.36-1.66,3.72-2.15l.44-2.67c.07-.44.41-.79.85-.87,1.83-.34,3.71-.34,5.54,0,.44.08.78.43.85.87ZM26.65,9.22c-1.1-.14-2.21-.14-3.31,0l-.42,2.55c-.06.4-.35.73-.74.84-1.5.44-2.87,1.23-4,2.31-.29.28-.72.36-1.1.22l-2.42-.92c-.67.88-1.23,1.84-1.65,2.87l2,1.64c.31.26.45.67.36,1.06-.36,1.52-.36,3.1,0,4.62.09.39-.04.81-.36,1.06l-2,1.64c.42,1.02.98,1.99,1.65,2.87l2.42-.92c.38-.15.81-.06,1.1.22,1.13,1.08,2.51,1.87,4,2.31.39.12.68.44.74.84,0,0,.42,2.55.42,2.55,1.1.14,2.21.14,3.31,0l.42-2.55c.07-.4.35-.73.74-.84,1.5-.44,2.87-1.23,4-2.31.29-.28.72-.37,1.1-.22l2.42.92c.67-.88,1.23-1.84,1.66-2.87l-2-1.64c-.31-.26-.45-.67-.36-1.06.36-1.52.36-3.1,0-4.62-.1-.39.04-.81.36-1.06l2-1.64c-.43-1.02-.98-1.99-1.66-2.87l-2.42.92c-.38.14-.81.06-1.1-.22-1.13-1.08-2.51-1.87-4-2.31-.39-.12-.68-.44-.74-.84l-.42-2.55ZM25,16.8c2.93,0,5.31,2.38,5.31,5.31s-2.38,5.31-5.31,5.31-5.31-2.38-5.31-5.31,2.38-5.31,5.31-5.31ZM25,18.91c-1.77,0-3.2,1.43-3.2,3.2s1.43,3.2,3.2,3.2,3.2-1.43,3.2-3.2-1.43-3.2-3.2-3.2Z"/>
  </g>
</svg>