<?xml version="1.0" encoding="UTF-8"?>
<svg id="Layer_2" xmlns="http://www.w3.org/2000/svg" xmlns:xlink="http://www.w3.org/1999/xlink" viewBox="0 0 60 37">
  <defs>
    <style>
      .cls-1 {
        fill: none;
      }

      .cls-2 {
        fill: #f15e24;
      }

      .cls-3 {
        clip-path: url(#clippath);
      }
    </style>
    <clipPath id="clippath">
      <rect class="cls-1" width="60" height="37"/>
    </clipPath>
  </defs>
  <g id="Layer_1-2" data-name="Layer_1">
    <g class="cls-3">
      <g>
        <path class="cls-2" d="M44.23,26.99l-4.74-3.62c-.61-.46-1.32-.7-2.08-.7-.92,0-1.79.37-2.44,1.01l-.78.78c-.54.55-1.27.84-2.04.84s-1.48-.29-2.02-.83l-7.56-7.56c-.6-.61-.88-1.34-.84-2.1.07-.98.67-1.99,1.63-2.74,1.21-1.22,1.34-3.16.3-4.52l-3.61-4.75c-.21-.28-.47-.54-.75-.76-.77-.61-1.71-.94-2.69-.94-1.34,0-2.58.6-3.42,1.65-4.6,5.87-4.11,14.27,1.16,19.55l10.41,10.41c2.77,2.78,6.47,4.31,10.41,4.31h.03c3.28,0,6.52-1.12,9.1-3.15.26-.21.51-.46.71-.73,1.48-1.9,1.14-4.66-.76-6.13ZM43.82,33.26c-2.45,1.94-5.53,3-8.65,3-3.74,0-7.26-1.45-9.91-4.1l-10.41-10.41c-5-5.01-5.48-12.99-1.1-18.56.69-.86,1.71-1.36,2.82-1.36h.02c1.12,0,2.19.52,2.86,1.4l3.62,4.75c.8,1.07.7,2.6-.24,3.55l-.77.78c-1.41,1.41-1.42,3.7-.02,5.11l7.56,7.56c.68.68,1.6,1.06,2.55,1.06s1.88-.38,2.57-1.07l.77-.78c.52-.51,1.2-.78,1.92-.78.59,0,1.16.19,1.64.55l4.74,3.61c.22.17.43.38.6.59.61.76.88,1.71.78,2.66-.1.97-.58,1.83-1.34,2.44ZM35.04,5.69c-.38,0-.68.29-.68.67s.3.67.68.67c.37-.01.66-.33.65-.69-.02-.36-.3-.64-.65-.65ZM39.73,5.69c-.38.01-.66.33-.65.69.01.36.29.64.65.65.38-.01.66-.33.65-.69-.01-.36-.29-.64-.65-.65ZM44.41,5.69c-.37.01-.66.33-.65.69.01.36.29.64.65.65.38-.01.67-.33.65-.69-.01-.36-.29-.64-.65-.65ZM44.41,5.69c-.37.01-.66.33-.65.69.01.36.29.64.65.65.38-.01.67-.33.65-.69-.01-.36-.29-.64-.65-.65ZM39.73,5.69c-.38.01-.66.33-.65.69.01.36.29.64.65.65.38-.01.66-.33.65-.69-.01-.36-.29-.64-.65-.65ZM35.04,5.69c-.38,0-.68.29-.68.67s.3.67.68.67c.37-.01.66-.33.65-.69-.02-.36-.3-.64-.65-.65ZM35.04,5.69c-.38,0-.68.29-.68.67s.3.67.68.67c.37-.01.66-.33.65-.69-.02-.36-.3-.64-.65-.65ZM39.73,5.69c-.38.01-.66.33-.65.69.01.36.29.64.65.65.38-.01.66-.33.65-.69-.01-.36-.29-.64-.65-.65ZM44.41,5.69c-.37.01-.66.33-.65.69.01.36.29.64.65.65.38-.01.67-.33.65-.69-.01-.36-.29-.64-.65-.65ZM44.41,5.69c-.37.01-.66.33-.65.69.01.36.29.64.65.65.38-.01.67-.33.65-.69-.01-.36-.29-.64-.65-.65ZM39.73,5.69c-.38.01-.66.33-.65.69.01.36.29.64.65.65.38-.01.66-.33.65-.69-.01-.36-.29-.64-.65-.65ZM35.04,5.69c-.38,0-.68.29-.68.67s.3.67.68.67c.37-.01.66-.33.65-.69-.02-.36-.3-.64-.65-.65ZM46.81,0h-14.17c-1.75,0-3.16,1.42-3.16,3.16v6.4c0,1.5,1.07,2.81,2.54,3.1l.24.05v3.83c0,.2.17.38.38.38.09,0,.19-.04.25-.11l4.1-4.09h9.82c1.74,0,3.16-1.42,3.16-3.16V3.16c0-1.74-1.42-3.16-3.16-3.16ZM49.24,9.57c-.01,1.33-1.1,2.42-2.43,2.42h-9.98c-.09,0-.18.04-.25.11l-3.57,3.57v-3.31c0-.2-.16-.37-.37-.37-1.34,0-2.43-1.09-2.43-2.42V3.16c0-1.33,1.09-2.42,2.43-2.42h14.17c1.33,0,2.42,1.09,2.43,2.42v6.4ZM44.41,5.69c-.37.01-.66.33-.65.69.01.36.29.64.65.65.38-.01.67-.33.65-.69-.01-.36-.29-.64-.65-.65ZM39.73,5.69c-.38.01-.66.33-.65.69.01.36.29.64.65.65.38-.01.66-.33.65-.69-.01-.36-.29-.64-.65-.65ZM35.04,5.69c-.38,0-.68.29-.68.67s.3.67.68.67c.37-.01.66-.33.65-.69-.02-.36-.3-.64-.65-.65ZM35.04,5.69c-.38,0-.68.29-.68.67s.3.67.68.67c.37-.01.66-.33.65-.69-.02-.36-.3-.64-.65-.65ZM39.73,5.69c-.38.01-.66.33-.65.69.01.36.29.64.65.65.38-.01.66-.33.65-.69-.01-.36-.29-.64-.65-.65ZM44.41,5.69c-.37.01-.66.33-.65.69.01.36.29.64.65.65.38-.01.67-.33.65-.69-.01-.36-.29-.64-.65-.65ZM44.41,5.69c-.37.01-.66.33-.65.69.01.36.29.64.65.65.38-.01.67-.33.65-.69-.01-.36-.29-.64-.65-.65ZM39.73,5.69c-.38.01-.66.33-.65.69.01.36.29.64.65.65.38-.01.66-.33.65-.69-.01-.36-.29-.64-.65-.65ZM35.04,5.69c-.38,0-.68.29-.68.67s.3.67.68.67c.37-.01.66-.33.65-.69-.02-.36-.3-.64-.65-.65ZM35.04,5.69c-.38,0-.68.29-.68.67s.3.67.68.67c.37-.01.66-.33.65-.69-.02-.36-.3-.64-.65-.65ZM39.73,5.69c-.38.01-.66.33-.65.69.01.36.29.64.65.65.38-.01.66-.33.65-.69-.01-.36-.29-.64-.65-.65ZM44.41,5.69c-.37.01-.66.33-.65.69.01.36.29.64.65.65.38-.01.67-.33.65-.69-.01-.36-.29-.64-.65-.65ZM39.73,5.69c-.38.01-.66.33-.65.69.01.36.29.64.65.65.38-.01.66-.33.65-.69-.01-.36-.29-.64-.65-.65ZM44.41,5.69c-.37.01-.66.33-.65.69.01.36.29.64.65.65.38-.01.67-.33.65-.69-.01-.36-.29-.64-.65-.65ZM35.04,5.69c-.38,0-.68.29-.68.67s.3.67.68.67c.37-.01.66-.33.65-.69-.02-.36-.3-.64-.65-.65Z"/>
        <path class="cls-2" d="M44.23,26.99l-4.74-3.62c-.61-.46-1.32-.7-2.08-.7-.92,0-1.79.37-2.44,1.01l-.78.78c-.54.55-1.27.84-2.04.84s-1.48-.29-2.02-.83l-7.56-7.56c-.6-.61-.88-1.34-.84-2.1.07-.98.67-1.99,1.63-2.74,1.21-1.22,1.34-3.16.3-4.52l-3.61-4.75c-.21-.28-.47-.54-.75-.76-.77-.61-1.71-.94-2.69-.94-1.34,0-2.58.6-3.42,1.65-4.6,5.87-4.11,14.27,1.16,19.55l10.41,10.41c2.77,2.78,6.47,4.31,10.41,4.31h.03c3.28,0,6.52-1.12,9.1-3.15.26-.21.51-.46.71-.73,1.48-1.9,1.14-4.66-.76-6.13ZM43.82,33.26c-2.45,1.94-5.53,3-8.65,3-3.74,0-7.26-1.45-9.91-4.1l-10.41-10.41c-5-5.01-5.48-12.99-1.1-18.56.69-.86,1.71-1.36,2.82-1.36h.02c1.12,0,2.19.52,2.86,1.4l3.62,4.75c.8,1.07.7,2.6-.24,3.55l-.77.78c-1.41,1.41-1.42,3.7-.02,5.11l7.56,7.56c.68.68,1.6,1.06,2.55,1.06s1.88-.38,2.57-1.07l.77-.78c.52-.51,1.2-.78,1.92-.78.59,0,1.16.19,1.64.55l4.74,3.61c.22.17.43.38.6.59.61.76.88,1.71.78,2.66-.1.97-.58,1.83-1.34,2.44ZM35.04,6c-.21,0-.38.16-.38.37s.16.37.37.37c.1,0,.18-.04.25-.11.06-.07.1-.17.1-.26-.01-.19-.16-.36-.35-.36ZM39.74,6c-.2,0-.37.17-.36.38,0,.19.15.35.35.36.19-.01.36-.18.35-.38-.01-.19-.16-.36-.34-.36ZM44.42,6c-.2,0-.37.17-.36.38.01.19.16.35.35.36.1,0,.18-.04.25-.11.06-.07.1-.17.09-.26,0-.19-.16-.36-.34-.36ZM44.42,6c-.2,0-.37.17-.36.38.01.19.16.35.35.36.1,0,.18-.04.25-.11.06-.07.1-.17.09-.26,0-.19-.16-.36-.34-.36ZM39.74,6c-.2,0-.37.17-.36.38,0,.19.15.35.35.36.19-.01.36-.18.35-.38-.01-.19-.16-.36-.34-.36ZM35.04,6c-.21,0-.38.16-.38.37s.16.37.37.37c.1,0,.18-.04.25-.11.06-.07.1-.17.1-.26-.01-.19-.16-.36-.35-.36ZM35.04,6c-.21,0-.38.16-.38.37s.16.37.37.37c.1,0,.18-.04.25-.11.06-.07.1-.17.1-.26-.01-.19-.16-.36-.35-.36ZM39.74,6c-.2,0-.37.17-.36.38,0,.19.15.35.35.36.19-.01.36-.18.35-.38-.01-.19-.16-.36-.34-.36ZM44.42,6c-.2,0-.37.17-.36.38.01.19.16.35.35.36.1,0,.18-.04.25-.11.06-.07.1-.17.09-.26,0-.19-.16-.36-.34-.36ZM44.42,6c-.2,0-.37.17-.36.38.01.19.16.35.35.36.1,0,.18-.04.25-.11.06-.07.1-.17.09-.26,0-.19-.16-.36-.34-.36ZM39.74,6c-.2,0-.37.17-.36.38,0,.19.15.35.35.36.19-.01.36-.18.35-.38-.01-.19-.16-.36-.34-.36ZM35.04,6c-.21,0-.38.16-.38.37s.16.37.37.37c.1,0,.18-.04.25-.11.06-.07.1-.17.1-.26-.01-.19-.16-.36-.35-.36ZM46.81,0h-14.17c-1.75,0-3.16,1.42-3.16,3.16v6.4c0,1.5,1.07,2.81,2.54,3.1l.24.05v3.83c0,.2.17.38.38.38.09,0,.19-.04.25-.11l4.1-4.09h9.82c1.74,0,3.16-1.42,3.16-3.16V3.16c0-1.74-1.42-3.16-3.16-3.16ZM49.24,9.57c-.01,1.33-1.1,2.42-2.43,2.42h-9.98c-.09,0-.18.04-.25.11l-3.57,3.57v-3.31c0-.2-.16-.37-.37-.37-1.34,0-2.43-1.09-2.43-2.42V3.16c0-1.33,1.09-2.42,2.43-2.42h14.17c1.33,0,2.42,1.09,2.43,2.42v6.4ZM44.42,6c-.2,0-.37.17-.36.38.01.19.16.35.35.36.1,0,.18-.04.25-.11.06-.07.1-.17.09-.26,0-.19-.16-.36-.34-.36ZM39.74,6c-.2,0-.37.17-.36.38,0,.19.15.35.35.36.19-.01.36-.18.35-.38-.01-.19-.16-.36-.34-.36ZM35.04,6c-.21,0-.38.16-.38.37s.16.37.37.37c.1,0,.18-.04.25-.11.06-.07.1-.17.1-.26-.01-.19-.16-.36-.35-.36ZM35.04,6c-.21,0-.38.16-.38.37s.16.37.37.37c.1,0,.18-.04.25-.11.06-.07.1-.17.1-.26-.01-.19-.16-.36-.35-.36ZM39.74,6c-.2,0-.37.17-.36.38,0,.19.15.35.35.36.19-.01.36-.18.35-.38-.01-.19-.16-.36-.34-.36ZM44.42,6c-.2,0-.37.17-.36.38.01.19.16.35.35.36.1,0,.18-.04.25-.11.06-.07.1-.17.09-.26,0-.19-.16-.36-.34-.36ZM44.42,6c-.2,0-.37.17-.36.38.01.19.16.35.35.36.1,0,.18-.04.25-.11.06-.07.1-.17.09-.26,0-.19-.16-.36-.34-.36ZM39.74,6c-.2,0-.37.17-.36.38,0,.19.15.35.35.36.19-.01.36-.18.35-.38-.01-.19-.16-.36-.34-.36ZM35.04,6c-.21,0-.38.16-.38.37s.16.37.37.37c.1,0,.18-.04.25-.11.06-.07.1-.17.1-.26-.01-.19-.16-.36-.35-.36ZM35.04,6c-.21,0-.38.16-.38.37s.16.37.37.37c.1,0,.18-.04.25-.11.06-.07.1-.17.1-.26-.01-.19-.16-.36-.35-.36ZM39.74,6c-.2,0-.37.17-.36.38,0,.19.15.35.35.36.19-.01.36-.18.35-.38-.01-.19-.16-.36-.34-.36ZM44.42,6c-.2,0-.37.17-.36.38.01.19.16.35.35.36.1,0,.18-.04.25-.11.06-.07.1-.17.09-.26,0-.19-.16-.36-.34-.36ZM35.04,6c-.21,0-.38.16-.38.37s.16.37.37.37c.1,0,.18-.04.25-.11.06-.07.1-.17.1-.26-.01-.19-.16-.36-.35-.36ZM44.42,6c-.2,0-.37.17-.36.38.01.19.16.35.35.36.1,0,.18-.04.25-.11.06-.07.1-.17.09-.26,0-.19-.16-.36-.34-.36ZM39.74,6c-.2,0-.37.17-.36.38,0,.19.15.35.35.36.19-.01.36-.18.35-.38-.01-.19-.16-.36-.34-.36Z"/>
      </g>
    </g>
  </g>
</svg>