<?xml version="1.0" encoding="UTF-8"?>
<svg id="Layer_2" xmlns="http://www.w3.org/2000/svg" viewBox="0 0 60 37">
  <defs>
    <style>
      .cls-1 {
        fill: none;
      }

      .cls-2 {
        fill: #f15e24;
      }
    </style>
  </defs>
  <g id="Layer_1-2" data-name="Layer_1">
    <g>
      <path class="cls-2" d="M28.56,12.02h-3.51l.58-3.94h2.93c.21,0,.38-.17.38-.39s-.17-.38-.38-.38h-2.81l.41-2.76c.01-.1,0-.2-.07-.28-.07-.09-.16-.14-.31-.16-.19,0-.35.14-.38.33l-.43,2.87h-3.88l.4-2.76c.03-.21-.11-.4-.37-.44-.2,0-.36.14-.39.33l-.42,2.87h-3.61c-.22,0-.39.17-.39.38s.17.39.39.39h3.5l-.59,3.94h-2.91c-.22,0-.39.17-.39.39s.17.38.39.38h2.8l-.41,2.77c-.03.21.12.4.38.44.19,0,.35-.14.38-.33l.43-2.88h3.88l-.41,2.77c-.01.1.01.2.08.28.06.08.15.14.26.15h.04c.2.01.36-.13.38-.32l.43-2.88h3.62c.21,0,.38-.17.38-.38s-.17-.39-.38-.39ZM24.28,12.02h-3.89l.58-3.94h3.89l-.58,3.94Z"/>
      <path class="cls-2" d="M28.56,12.02h-3.51l.58-3.94h2.93c.21,0,.38-.17.38-.39s-.17-.38-.38-.38h-2.81l.41-2.76c.01-.1,0-.2-.07-.28-.07-.09-.16-.14-.31-.16-.19,0-.35.14-.38.33l-.43,2.87h-3.88l.4-2.76c.03-.21-.11-.4-.37-.44-.2,0-.36.14-.39.33l-.42,2.87h-3.61c-.22,0-.39.17-.39.38s.17.39.39.39h3.5l-.59,3.94h-2.91c-.22,0-.39.17-.39.39s.17.38.39.38h2.8l-.41,2.77c-.03.21.12.4.38.44.19,0,.35-.14.38-.33l.43-2.88h3.88l-.41,2.77c-.01.1.01.2.08.28.06.08.15.14.26.15h.04c.2.01.36-.13.38-.32l.43-2.88h3.62c.21,0,.38-.17.38-.38s-.17-.39-.38-.39ZM24.28,12.02h-3.89l.58-3.94h3.89l-.58,3.94Z"/>
      <path class="cls-2" d="M46.56,13.04h-11.96V2.68c0-1.37-1.12-2.48-2.49-2.48H13.44c-1.38,0-2.49,1.11-2.49,2.48v14.56c0,1.37,1.11,2.48,2.49,2.48h3.02v3.85c0,.15.08.28.21.34.05.03.11.04.17.04.09,0,.17-.03.23-.07l5.62-4.15h2.71v10.36c0,1.37,1.12,2.48,2.49,2.48h9.41l5.63,4.16c.06.04.14.07.23.07.05,0,.12-.01.17-.04.13-.07.21-.2.21-.34v-3.85h3.02c1.38,0,2.49-1.11,2.49-2.48v-14.56c0-1.37-1.11-2.49-2.49-2.49ZM22.57,18.96c-.08,0-.16.03-.23.07l-5.11,3.78v-3.47c0-.21-.17-.38-.39-.38h-3.4c-.96,0-1.73-.77-1.73-1.72V2.68c0-.94.77-1.71,1.73-1.71h18.68c.95,0,1.72.77,1.72,1.71v14.56c0,.95-.77,1.72-1.72,1.72h-9.55ZM48.3,30.09c0,.94-.78,1.71-1.73,1.71h-3.41c-.21,0-.38.17-.38.39v3.47l-5.11-3.78c-.07-.05-.15-.08-.23-.08h-9.55c-.95,0-1.72-.77-1.72-1.71v-10.36h5.94c1.37,0,2.49-1.12,2.49-2.49v-3.43h11.97c.95,0,1.73.77,1.73,1.72v14.56Z"/>
      <path class="cls-2" d="M46.56,13.04h-11.96V2.68c0-1.37-1.12-2.48-2.49-2.48H13.44c-1.38,0-2.49,1.11-2.49,2.48v14.56c0,1.37,1.11,2.48,2.49,2.48h3.02v3.85c0,.15.08.28.21.34.05.03.11.04.17.04.09,0,.17-.03.23-.07l5.62-4.15h2.71v10.36c0,1.37,1.12,2.48,2.49,2.48h9.41l5.63,4.16c.06.04.14.07.23.07.05,0,.12-.01.17-.04.13-.07.21-.2.21-.34v-3.85h3.02c1.38,0,2.49-1.11,2.49-2.48v-14.56c0-1.37-1.11-2.49-2.49-2.49ZM22.57,18.96c-.08,0-.16.03-.23.07l-5.11,3.78v-3.47c0-.21-.17-.38-.39-.38h-3.4c-.96,0-1.73-.77-1.73-1.72V2.68c0-.94.77-1.71,1.73-1.71h18.68c.95,0,1.72.77,1.72,1.71v14.56c0,.95-.77,1.72-1.72,1.72h-9.55ZM48.3,30.09c0,.94-.78,1.71-1.73,1.71h-3.41c-.21,0-.38.17-.38.39v3.47l-5.11-3.78c-.07-.05-.15-.08-.23-.08h-9.55c-.95,0-1.72-.77-1.72-1.71v-10.36h5.94c1.37,0,2.49-1.12,2.49-2.49v-3.43h11.97c.95,0,1.73.77,1.73,1.72v14.56Z"/>
      <path class="cls-2" d="M43.37,19.23c0,.21-.17.38-.38.38h-6.81c-.22,0-.39-.17-.39-.38s.17-.39.39-.39h6.8c.22,0,.39.17.39.39Z"/>
      <path class="cls-2" d="M43.37,19.23c0,.21-.17.38-.38.38h-6.81c-.22,0-.39-.17-.39-.38s.17-.39.39-.39h6.8c.22,0,.39.17.39.39Z"/>
      <path class="cls-2" d="M43.37,25.8c0,.21-.17.39-.38.39h-11.4c-.22,0-.38-.17-.38-.39s.16-.38.38-.38h11.4c.21,0,.38.17.38.38Z"/>
      <path class="cls-2" d="M43.37,25.8c0,.21-.17.39-.38.39h-11.4c-.22,0-.38-.17-.38-.39s.16-.38.38-.38h11.4c.21,0,.38.17.38.38Z"/>
    </g>
    <rect class="cls-1" width="60" height="37"/>
  </g>
</svg>