<?xml version="1.0" encoding="UTF-8"?>
<svg id="Layer_2" xmlns="http://www.w3.org/2000/svg" xmlns:xlink="http://www.w3.org/1999/xlink" viewBox="0 0 60 37">
  <defs>
    <style>
      .cls-1 {
        fill: none;
      }

      .cls-2 {
        fill: #f15e24;
      }

      .cls-3 {
        clip-path: url(#clippath);
      }
    </style>
    <clipPath id="clippath">
      <rect class="cls-1" width="60" height="37"/>
    </clipPath>
  </defs>
  <g id="Layer_1-2" data-name="Layer_1">
    <g class="cls-3">
      <g>
        <path class="cls-2" d="M25.11,12.99h3.44c.32,0,.58-.26.58-.58s-.26-.58-.58-.58h-3.27l.52-3.54h2.75c.32,0,.58-.26.58-.58s-.26-.58-.58-.58h-2.58l.37-2.53c.05-.32-.17-.61-.49-.66-.32-.04-.61.17-.66.49l-.4,2.7h-3.48l.37-2.53c.05-.32-.17-.61-.49-.66-.32-.04-.61.17-.66.49l-.4,2.7h-3.44c-.32,0-.58.26-.58.58s.26.58.58.58h3.27l-.52,3.54h-2.74c-.32,0-.58.26-.58.58s.26.58.58.58h2.57l-.38,2.54c-.05.32.17.61.49.66.03,0,.05,0,.08,0h0c.29,0,.54-.21.58-.5l.4-2.71h3.48l-.38,2.54c-.05.32.17.61.49.66.03,0,.05,0,.08,0h0c.29,0,.54-.21.58-.5l.4-2.71ZM20.62,11.82l.52-3.54h3.48l-.52,3.54h-3.48Z"/>
        <path class="cls-2" d="M46.56,12.84h-11.76V2.68c0-1.48-1.2-2.68-2.69-2.68H13.44c-1.48,0-2.69,1.2-2.69,2.68v14.55c0,1.48,1.2,2.68,2.69,2.68h2.82v3.65c0,.22.12.43.32.52.08.04.17.06.26.06h0c.12,0,.25-.04.35-.11l5.56-4.12h2.44v10.16c0,1.48,1.2,2.68,2.69,2.68h9.35l5.57,4.12c.1.08.23.11.35.11h0c.09,0,.18-.02.26-.06.19-.1.32-.3.32-.52v-3.65h2.82c1.48,0,2.69-1.2,2.69-2.68v-14.56c0-1.48-1.2-2.68-2.69-2.68ZM22.57,18.76c-.13,0-.25.04-.35.11l-4.79,3.54v-3.07c0-.32-.26-.58-.58-.58h-3.41c-.84,0-1.53-.68-1.53-1.52V2.68c0-.84.69-1.52,1.53-1.52h18.68c.84,0,1.52.68,1.52,1.52v14.56c0,.84-.68,1.52-1.52,1.52h-6.28s-.04,0-.06,0-.04,0-.06,0h-3.15ZM48.1,30.09c0,.84-.69,1.52-1.53,1.52h-3.41c-.32,0-.58.26-.58.58v3.07l-4.79-3.54c-.1-.07-.22-.11-.35-.11h-9.55c-.84,0-1.52-.68-1.52-1.52v-10.16h5.75c1.48,0,2.69-1.2,2.69-2.68v-3.23h11.77c.84,0,1.53.68,1.53,1.52v14.56Z"/>
        <path class="cls-2" d="M36.18,19.81h6.81c.32,0,.58-.26.58-.58s-.26-.58-.58-.58h-6.8c-.32,0-.58.26-.58.58s.26.58.58.58Z"/>
        <path class="cls-2" d="M42.99,25.22h-11.4c-.32,0-.58.26-.58.58s.26.58.58.58h11.4c.32,0,.58-.26.58-.58s-.26-.58-.58-.58Z"/>
      </g>
    </g>
  </g>
</svg>