<?xml version="1.0" encoding="UTF-8"?>
<svg id="Layer_2" xmlns="http://www.w3.org/2000/svg" xmlns:xlink="http://www.w3.org/1999/xlink" viewBox="0 0 60 37">
  <defs>
    <style>
      .cls-1 {
        fill: none;
      }

      .cls-2 {
        fill: #f15e24;
        fill-rule: evenodd;
      }

      .cls-3 {
        clip-path: url(#clippath);
      }
    </style>
    <clipPath id="clippath">
      <rect class="cls-1" width="60" height="37"/>
    </clipPath>
  </defs>
  <g id="Layer_1-2" data-name="Layer_1">
    <g class="cls-3">
      <path class="cls-2" d="M14.81,33.16c.43.09.8.21,1.1.36.59.29.94.68.94,1.15,0,.54-.48.99-1.25,1.29-.65.25-1.53.4-2.5.4s-1.86-.15-2.5-.4c-.77-.29-1.25-.74-1.25-1.29,0-.47.35-.87.94-1.15.3-.15.68-.27,1.1-.36l-.64-.64c-.65-.65-.97-1.5-.97-2.35s.32-1.71.97-2.35c.53-.53,1.19-.84,1.88-.94v-6.47c-.38-.08-.73-.26-1-.52-.37-.35-.6-.84-.6-1.38s.23-1.03.6-1.38c.27-.26.61-.44,1-.52v-6.45c-.8-.04-1.53-.18-2.08-.39-.77-.29-1.25-.74-1.25-1.29,0-.47.35-.87.94-1.15.3-.15.68-.27,1.1-.36l-.64-.64c-.65-.65-.97-1.5-.97-2.35s.32-1.71.97-2.35,1.5-.97,2.35-.97,1.71.32,2.35.97.97,1.5.97,2.35-.32,1.71-.97,2.35l-.64.64c.43.09.8.21,1.1.36.59.29.94.68.94,1.15,0,.54-.48.99-1.25,1.29-.55.21-1.28.35-2.08.39v6.45c.38.08.73.26,1,.52.27.26.47.59.55.95l2.84-.02v-1.51c0-.2.14-.37.33-.41l2.61-.81c.09-.3.2-.58.31-.86.12-.28.25-.56.39-.83l-1.29-2.45c-.09-.17-.05-.37.07-.5l2.75-2.75c.14-.14.36-.16.52-.06l2.43,1.28c.27-.14.55-.27.83-.39.28-.12.57-.22.86-.31l.82-2.64c.06-.18.22-.3.4-.3h0s1.55,0,1.55,0l.03-3.56c0-.23.19-.42.42-.42h0s7.57,0,7.57,0c.08-.37.27-.69.52-.95.35-.35.84-.57,1.37-.57s1.02.22,1.37.57c.35.35.57.84.57,1.37s-.22,1.02-.57,1.37c-.35.35-.84.57-1.37.57s-1.02-.22-1.37-.57c-.26-.26-.44-.58-.52-.95h-7.15l-.03,3.14h1.5c.2,0,.37.14.41.33l.81,2.61c.3.09.58.2.86.31.28.12.56.25.83.39l2.45-1.29c.17-.09.37-.05.49.07l2.75,2.75c.14.14.16.36.06.52l-1.28,2.43c.14.27.27.55.39.83.12.28.22.57.31.86l2.64.82c.18.06.3.22.3.4h0v1.52l2.84-.02c.08-.37.28-.7.55-.96.37-.35.87-.56,1.42-.56s1.06.21,1.42.56c.37.35.6.84.6,1.38s-.23,1.03-.6,1.38c-.37.35-.87.56-1.42.56s-1.06-.21-1.42-.56c-.27-.26-.47-.59-.55-.95l-2.84.02v1.53c0,.2-.14.37-.33.41l-2.61.81c-.09.3-.2.58-.31.86-.12.28-.25.56-.39.83l1.29,2.45c.09.17.05.37-.07.5l-2.75,2.75c-.14.14-.36.16-.52.06l-2.43-1.28c-.27.14-.55.27-.83.39-.28.12-.57.22-.86.31l-.82,2.64c-.06.18-.22.3-.4.3h0s-1.5,0-1.5,0l.03,3.14h7.15c.08-.37.27-.69.52-.95.35-.35.84-.57,1.37-.57s1.02.22,1.37.57c.35.35.57.84.57,1.37s-.22,1.02-.57,1.37c-.35.35-.84.57-1.37.57s-1.02-.22-1.37-.57c-.26-.26-.44-.58-.52-.95h-7.57c-.23,0-.42-.19-.42-.42l-.03-3.56h-1.55c-.2,0-.37-.14-.41-.33l-.81-2.61c-.3-.09-.58-.2-.86-.31-.28-.12-.56-.25-.83-.39l-2.45,1.29c-.17.09-.37.05-.5-.07l-2.75-2.75c-.14-.14-.16-.36-.06-.52l1.28-2.43c-.14-.27-.27-.55-.39-.83-.12-.28-.22-.57-.31-.86l-2.64-.82c-.18-.06-.3-.22-.3-.4h0v-1.55l-2.84.02c-.08.37-.28.7-.55.96-.27.26-.61.44-1,.52v6.46c.72.08,1.43.4,1.98.95.65.65.97,1.5.97,2.35s-.32,1.71-.97,2.35l-.64.65ZM14.23,18.5c0-.3-.13-.57-.34-.77-.21-.2-.51-.33-.84-.33s-.63.13-.84.33c-.21.2-.34.47-.34.77s.13.57.34.77c.21.2.51.33.84.33s.63-.13.84-.33c.21-.2.34-.47.34-.77ZM49.86,18.48c0-.3-.13-.57-.34-.77-.21-.2-.51-.33-.84-.33s-.63.12-.84.33c-.21.2-.34.47-.34.77s.13.57.34.77c.21.2.51.33.84.33s.63-.12.84-.33c.21-.2.34-.47.34-.77ZM28.37,19.11l1.69,1.43c.18.15.44.13.59-.05l2.76-3.45c.15-.18.12-.45-.06-.59-.18-.15-.45-.12-.59.06l-2.49,3.1-1.37-1.15c-.18-.15-.44-.13-.59.05s-.13.44.05.6h0ZM30.87,11.42c-1.96,0-3.72.79-5.01,2.07-1.28,1.28-2.07,3.05-2.07,5s.79,3.72,2.07,5c1.28,1.28,3.05,2.07,5.01,2.07s3.72-.79,5-2.07c1.28-1.28,2.07-3.05,2.07-5s-.79-3.72-2.07-5c-1.28-1.28-3.05-2.07-5-2.07ZM35.27,14.09c-1.13-1.13-2.69-1.83-4.41-1.83s-3.28.7-4.41,1.83c-1.13,1.13-1.83,2.69-1.83,4.41s.7,3.28,1.83,4.41c1.13,1.13,2.69,1.83,4.41,1.83s3.28-.7,4.41-1.83c1.13-1.13,1.83-2.69,1.83-4.41s-.7-3.28-1.83-4.41ZM29.23,6.35l-.79,2.56c-.04.13-.14.24-.28.28-.33.1-.66.21-.99.35-.32.13-.64.29-.95.46-.12.07-.27.07-.4,0l-2.37-1.25-2.32,2.32,1.24,2.36c.07.12.08.28,0,.41-.17.31-.32.63-.46.95-.13.32-.25.65-.35.98-.03.14-.14.26-.28.3l-2.56.8v3.28l2.56.8c.13.04.24.14.28.28.1.33.21.66.35.99.13.32.29.64.46.95.07.12.07.27,0,.4l-1.25,2.37,2.32,2.32,2.36-1.24c.12-.07.28-.08.41,0,.31.17.63.32.95.46.32.13.65.25.98.35.14.03.26.14.3.28l.79,2.56h3.28l.79-2.56c.04-.13.14-.24.28-.28.33-.1.66-.21.99-.35.32-.13.64-.29.95-.46.12-.07.27-.07.4,0l2.37,1.25,2.32-2.32-1.24-2.36c-.07-.12-.08-.28,0-.41.17-.31.32-.63.46-.95.13-.32.25-.65.35-.98.03-.14.14-.26.28-.3l2.56-.8v-3.28l-2.56-.79c-.13-.04-.24-.14-.28-.28-.1-.33-.21-.66-.35-.99-.13-.32-.29-.64-.46-.95-.07-.12-.07-.27,0-.4l1.25-2.37-2.32-2.32-2.36,1.24c-.12.07-.28.08-.41,0-.31-.17-.63-.32-.95-.46-.32-.13-.65-.25-.98-.35-.14-.03-.26-.14-.3-.28l-.79-2.56h-3.28s0,0,0,0ZM41.16,1.17c-.2-.2-.47-.32-.77-.32s-.58.12-.77.32-.32.47-.32.77.12.58.32.77c.2.2.47.32.77.32s.58-.12.77-.32c.2-.2.32-.47.32-.77s-.12-.58-.32-.77ZM40.39,36.15c.3,0,.58-.12.77-.32.2-.2.32-.47.32-.77s-.12-.58-.32-.77c-.2-.2-.47-.32-.77-.32s-.58.12-.77.32c-.2.2-.32.47-.32.77s.12.58.32.77c.2.2.47.32.77.32ZM14.03,7.7l-.68.68c-.16.16-.43.16-.6,0l-.68-.68c-.59.07-1.1.21-1.47.39-.29.14-.46.28-.46.39,0,.15.27.33.7.5.56.21,1.34.34,2.21.34s1.65-.13,2.21-.34c.43-.16.7-.34.7-.5,0-.11-.17-.25-.46-.39-.37-.18-.88-.32-1.47-.39h0ZM13.05,7.48l1.76-1.76c.48-.48.72-1.12.72-1.76s-.24-1.27-.72-1.76c-.48-.48-1.12-.72-1.76-.72s-1.27.24-1.76.72c-.48.48-.72,1.12-.72,1.76s.24,1.27.72,1.76l1.76,1.76ZM12.12,33.89c-.59.07-1.1.21-1.47.39-.29.14-.46.28-.46.39,0,.15.27.33.7.5.56.21,1.34.34,2.21.34s1.65-.13,2.21-.34c.43-.16.7-.34.7-.5,0-.11-.17-.25-.46-.39-.37-.18-.88-.31-1.47-.39l-.68.68c-.17.17-.43.17-.6,0l-.68-.68ZM13.1,33.67l1.76-1.76c.48-.48.72-1.12.72-1.76s-.24-1.27-.72-1.76c-.48-.48-1.12-.72-1.76-.72s-1.27.24-1.76.72c-.48.48-.72,1.12-.72,1.76s.24,1.27.72,1.76l1.76,1.76Z"/>
    </g>
  </g>
</svg>