<?xml version="1.0" encoding="UTF-8"?>
<svg xmlns="http://www.w3.org/2000/svg" version="1.1" xmlns:xlink="http://www.w3.org/1999/xlink" viewBox="0 0 98 60">
  <defs>
    <style>
      .cls-1 {
        clip-path: url(#clippath-4);
      }

      .cls-2 {
        fill: none;
      }

      .cls-3 {
        clip-path: url(#clippath-1);
      }

      .cls-4, .cls-5 {
        fill: #f15d22;
      }

      .cls-5 {
        fill-rule: evenodd;
      }

      .cls-6 {
        clip-path: url(#clippath-3);
      }

      .cls-7 {
        display: none;
      }

      .cls-8 {
        clip-path: url(#clippath-2);
      }

      .cls-9 {
        clip-path: url(#clippath);
      }
    </style>
    <clipPath id="clippath">
      <rect class="cls-2" width="98" height="60"/>
    </clipPath>
    <clipPath id="clippath-1">
      <rect class="cls-2" width="98" height="60"/>
    </clipPath>
    <clipPath id="clippath-2">
      <rect class="cls-2" width="98" height="60"/>
    </clipPath>
    <clipPath id="clippath-3">
      <rect class="cls-2" width="98" height="60"/>
    </clipPath>
    <clipPath id="clippath-4">
      <rect class="cls-2" width="98" height="60"/>
    </clipPath>
  </defs>
  <!-- Generator: Adobe Illustrator 28.6.0, SVG Export Plug-In . SVG Version: 1.2.0 Build 709)  -->
  <g>
    <g id="Layer_1">
      <g class="cls-7">
        <g class="cls-9">
          <path class="cls-5" d="M50.2,60c-1.5,0-2.9-.4-4.2-1.2l-12.9-7.5-2.4.6.5,2.1c.2.6,0,1.3-.3,1.8-.3.6-.9,1-1.5,1.1l-3.5.9c-.2,0-.4,0-.6,0-.4,0-.8-.1-1.2-.3-.6-.3-1-.9-1.1-1.5l-4.7-18.1c-.3-1.3.4-2.6,1.7-2.9l3.5-.9c.2,0,.4,0,.6,0,.4,0,.8.1,1.2.3.6.3,1,.9,1.1,1.5l.5,1.8,9.5-2.6c1-.3,2.3-.6,3.7-.6s2.7.4,3.9,1.1c.6.4,1.4.9,2.1,1.4,2.2,1.6,5,3.5,8,4.9h0c1.8,1.2,2.4,3.6,1.4,5.4-.2.3-.4.6-.6.8l-.5.5h.7c.6,0,1.1,0,1.7-.2l12.5-3.4c1.4-.4,2.6-.6,3.7-.6,3.7,0,4.7,2.1,4.9,3,.6,2.1-.6,4.6-2.6,5.2l-22.8,6.8c-.8.2-1.6.4-2.4.4ZM33.2,49.8c.1,0,.3,0,.4.1l13.2,7.6c1.1.6,2.3,1,3.4,1s1.3,0,2-.3l22.8-6.8c1.2-.3,1.9-2,1.6-3.3-.3-1.2-1.6-1.9-3.4-1.9s-2.1.2-3.4.5l-12.5,3.4c-.7.2-1.4.3-2.1.3-1.1,0-2.3-.3-3.5-.8l-1.3-.6c-1.6-.8-3-1.7-4.6-2.6-.7-.4-1.4-.8-2.1-1.3-.4-.2-.5-.7-.3-1.1.1-.2.4-.4.7-.4s.3,0,.4.1c.7.4,1.4.8,2.1,1.2h.1c1.5,1,2.9,1.8,4.4,2.5.5.2.9.3,1.3.3.8,0,1.5-.4,1.9-1.2.6-1.1.3-2.5-.8-3.2-3.1-1.5-5.9-3.4-8.2-5-.8-.6-1.5-1-2.1-1.4-.9-.6-1.9-.8-3.1-.8s-2.3.3-3.2.5l-9.5,2.6,2.9,11.3,2.7-.7c0,0,.1,0,.2,0ZM24.1,35.7c0,0-.1,0-.2,0l-3.5.9c-.5.1-.7.6-.6,1.1l4.7,18.1c0,.3.3.5.4.5,0,0,.2.1.4.1s.1,0,.2,0l3.5-.9c.3,0,.5-.3.5-.4s.2-.4,0-.7l-4.7-18.1c0-.3-.3-.5-.4-.5,0,0-.2-.1-.4-.1ZM59.3,41.3c-.3,0-.6-.2-.7-.5l-1.1-2.8h-.1c-1.4-.4-2.8-1-4-1.7h-.1c0,0-2.8,1.2-2.8,1.2,0,0-.2,0-.3,0-.2,0-.4,0-.5-.2l-3.7-3.7c-.2-.2-.3-.6-.2-.9l1.2-2.8h0c-.7-1.4-1.3-2.8-1.7-4.2h0c0-.1-2.8-1.2-2.8-1.2-.3-.1-.5-.4-.5-.7v-5.2c0-.3.2-.6.5-.7l2.8-1.1h0c.4-1.6.9-2.9,1.7-4.2h0c0-.1-1.2-2.9-1.2-2.9-.1-.3,0-.6.2-.9l3.7-3.7c.1-.1.3-.2.5-.2s.2,0,.3,0l2.8,1.2h.1c1.3-.8,2.6-1.4,4-1.7h.1s1.1-2.9,1.1-2.9c.1-.3.4-.5.7-.5h5.2c.3,0,.6.2.7.5l1.1,2.8h.1c1.4.4,2.8,1,4,1.7h.1c0,0,2.8-1.2,2.8-1.2,0,0,.2,0,.3,0,.2,0,.4,0,.5.2l3.7,3.7c.2.2.3.6.2.9l-1.2,2.8h0c.7,1.4,1.3,2.8,1.7,4.2h0c0,.1,2.8,1.2,2.8,1.2.3.1.5.4.5.7v5.2c0,.3-.2.6-.5.7l-2.8,1.1h0c-.4,1.6-.9,2.9-1.7,4.2h0c0,.1,1.2,2.9,1.2,2.9.1.3,0,.6-.2.9l-3.7,3.7c-.1.1-.3.2-.5.2s-.2,0-.3,0l-2.8-1.2h-.1c-1.3.8-2.6,1.4-4,1.7h-.1s-1.1,2.9-1.1,2.9c-.1.3-.4.5-.7.5h-5.2ZM53.2,34.5c.1,0,.3,0,.4.1,1.4.9,3,1.5,4.6,1.9.2,0,.4.2.5.5l1,2.7h4.2l1-2.7c0-.2.3-.4.5-.5,1.6-.4,3.2-1,4.6-1.9.1,0,.3-.1.4-.1s.2,0,.3,0l2.7,1.2,2.9-2.9-1.2-2.7c-.1-.2,0-.5,0-.7.9-1.4,1.5-3,1.9-4.6,0-.2.2-.4.5-.5l2.7-1v-4.2l-2.7-1c-.2,0-.4-.3-.5-.5-.4-1.6-1-3.2-1.9-4.6-.1-.2-.2-.5,0-.7l1.2-2.7-2.9-2.9-2.7,1.2c0,0-.2,0-.3,0s-.3,0-.4-.1c-1.4-.9-3-1.5-4.6-1.9-.2,0-.4-.2-.5-.5l-1-2.7h-4.2l-1,2.7c0,.2-.3.4-.5.5-1.6.4-3.2,1-4.6,1.9-.1,0-.3.1-.4.1s-.2,0-.3,0l-2.7-1.2-2.9,2.9,1.2,2.7c.1.2,0,.5,0,.7-.9,1.4-1.5,3-1.9,4.6,0,.2-.2.4-.5.5l-2.7,1v4.2l2.7,1c.2,0,.4.3.5.5.4,1.6,1,3.2,1.9,4.6.1.2.2.5,0,.7l-1.2,2.7,2.9,2.9,2.7-1.2c0,0,.2,0,.3,0ZM22.8,39.9c-.4,0-.8-.5-.7-.9,0-.4.4-.7.8-.7.5,0,.9.5.8.9,0,.4-.4.7-.8.7s0,0,0,0ZM61.9,32c-5.9,0-10.8-4.8-10.8-10.7s4.8-10.8,10.8-10.8,10.8,4.8,10.8,10.8-4.8,10.7-10.8,10.7ZM61.9,12c-5.1,0-9.2,4.1-9.2,9.2s4.1,9.2,9.2,9.2,9.2-4.1,9.2-9.2-4.1-9.2-9.2-9.2ZM27.5,26.3c-.3,0-.6-.2-.7-.5l-.6-1.7h-.1c-.8-.3-1.6-.6-2.3-1h-.1c0,0-1.6.7-1.6.7,0,0-.2,0-.3,0-.2,0-.4,0-.5-.2l-2.4-2.4c-.2-.2-.3-.6-.2-.9l.7-1.6h0c-.4-.9-.7-1.6-1-2.4h0c0-.1-1.7-.8-1.7-.8-.3-.1-.5-.4-.5-.7v-3.4c0-.3.2-.6.5-.7l1.7-.6h0c.2-.9.6-1.7,1-2.4h0c0-.1-.7-1.8-.7-1.8-.1-.3,0-.6.2-.9l2.4-2.4c.1-.1.3-.2.5-.2s.2,0,.3,0l1.6.7h.1c.7-.5,1.5-.8,2.3-1h.1s.6-1.7.6-1.7c.1-.3.4-.5.7-.5h3.4c.3,0,.6.2.7.5l.6,1.7h.1c.8.3,1.6.6,2.3,1h.1c0,0,1.6-.7,1.6-.7,0,0,.2,0,.3,0,.2,0,.4,0,.5.2l2.4,2.4c.2.2.3.6.2.9l-.7,1.6h0c.4.9.7,1.6,1,2.4h0c0,.1,1.7.8,1.7.8.3.1.5.4.5.7v3.4c0,.3-.2.6-.5.7l-1.7.6h0c-.2.9-.6,1.7-.9,2.4h0c0,.1.7,1.8.7,1.8.1.3,0,.6-.2.9l-2.4,2.4c-.1.1-.3.2-.5.2s-.2,0-.3,0l-1.6-.7h-.1c-.7.5-1.5.8-2.3,1h-.1s-.6,1.7-.6,1.7c-.1.3-.4.5-.7.5h-3.4ZM23.6,21.4c.1,0,.3,0,.4.1.9.5,1.9.9,2.9,1.2.2,0,.4.2.5.5l.6,1.6h2.3l.6-1.6c0-.2.3-.4.5-.5,1-.2,2-.6,2.9-1.2.1,0,.3-.1.4-.1s.2,0,.3,0l1.5.7,1.6-1.6-.7-1.5c-.1-.2,0-.5,0-.7.5-.9.9-1.9,1.2-2.9,0-.2.2-.4.5-.5l1.6-.6v-2.3l-1.6-.6c-.2,0-.4-.3-.5-.5-.2-1-.6-2-1.2-2.9-.1-.2-.2-.5,0-.7l.7-1.5-1.6-1.6-1.5.7c0,0-.2,0-.3,0s-.3,0-.4-.1c-.9-.5-1.9-.9-2.9-1.2-.2,0-.4-.2-.5-.5l-.6-1.6h-2.3l-.6,1.6c0,.2-.3.4-.5.5-1,.2-2,.6-2.9,1.2-.1,0-.3.1-.4.1s-.2,0-.3,0l-1.5-.7-1.6,1.6.7,1.5c.1.2,0,.5,0,.7-.5.9-.9,1.9-1.2,2.9,0,.2-.2.4-.5.5l-1.6.6v2.3l1.6.6c.2,0,.4.3.5.5.2,1,.6,2,1.2,2.9.1.2.2.5,0,.7l-.7,1.5,1.6,1.6,1.5-.7c0,0,.2,0,.3,0ZM29.2,19.8c-3.6,0-6.6-3-6.6-6.6s3-6.6,6.6-6.6,6.6,3,6.6,6.6-3,6.6-6.6,6.6ZM29.2,8.1c-2.8,0-5.1,2.3-5.1,5.1s2.3,5.1,5.1,5.1,5.1-2.3,5.1-5.1-2.3-5.1-5.1-5.1Z"/>
        </g>
      </g>
      <g class="cls-7">
        <g class="cls-3">
          <g id="Layer_x5F_1">
            <path class="cls-5" d="M52.2,60h-6.4c-1.8,0-3.3-1.5-3.3-3.3v-4.6c-3.6-1-6.8-2.9-9.5-5.4l-4,2.3c-1.5.9-3.6.4-4.5-1.2l-3.2-5.5c-.9-1.6-.4-3.6,1.2-4.5l4-2.3c-.9-3.6-.8-7.3,0-10.9l-4-2.3c-1.6-.9-2.1-2.9-1.2-4.5l3.2-5.5c.9-1.6,2.9-2.1,4.5-1.2l4,2.3c2.7-2.5,5.9-4.4,9.5-5.4V3.3c0-1.8,1.5-3.3,3.3-3.3h6.4c1.8,0,3.3,1.5,3.3,3.3v4.6c3.6,1,6.8,2.9,9.5,5.4l4-2.3c1.5-.9,3.6-.4,4.5,1.2l3.2,5.5c.9,1.5.4,3.6-1.2,4.5l-4,2.3c.8,3.6.8,7.3,0,10.9l4,2.3c1.6.9,2.1,2.9,1.2,4.5l-3.2,5.5c-.9,1.6-2.9,2.1-4.5,1.2l-4-2.3c-2.7,2.5-5.9,4.4-9.5,5.4v4.6c0,1.8-1.5,3.3-3.3,3.3ZM33.2,45.1c.2,0,.4,0,.5.2,2.7,2.7,6,4.6,9.7,5.6.3.1.5.4.5.7v5.1c0,1.1.8,1.9,1.9,1.9h6.4c1,0,1.9-.8,1.9-1.9v-5.1c0-.3.2-.6.5-.7,3.7-1,7-2.9,9.7-5.6.2-.2.6-.3.9-.1l4.4,2.6c.9.5,2.1.2,2.6-.7l3.2-5.5c.5-.9.2-2-.7-2.6l-4.5-2.6c-.2-.2-.4-.5-.3-.8,1-3.7,1-7.6,0-11.2,0-.3,0-.6.3-.8l4.5-2.6c.9-.5,1.2-1.7.7-2.6l-3.2-5.5c-.5-.9-1.7-1.2-2.6-.7l-4.4,2.6c-.3.2-.6.1-.9-.1-2.7-2.7-6-4.6-9.7-5.6-.3,0-.5-.4-.5-.7V3.3c0-1-.8-1.9-1.9-1.9h-6.4c-1,0-1.9.8-1.9,1.9v5.2c0,.3-.2.6-.5.7-3.7,1-7,2.9-9.7,5.6s-.6.3-.8.1l-4.5-2.6c-.9-.5-2-.2-2.6.7l-3.2,5.5c-.5.9-.2,2,.7,2.6l4.4,2.6c.3.2.4.5.4.8-1,3.7-1,7.6,0,11.2,0,.3,0,.6-.4.8l-4.4,2.6c-.9.5-1.2,1.7-.7,2.6l3.2,5.5c.5.9,1.7,1.2,2.6.7.7-.4,4.4-2.7,4.8-2.7Z"/>
            <path class="cls-5" d="M49,46.5c-9.1,0-16.6-7.4-16.6-16.6s7.5-16.6,16.6-16.6,16.6,7.5,16.6,16.6-7.4,16.6-16.6,16.6ZM49,14.8c-8.3,0-15.1,6.8-15.1,15.1s6.8,15.1,15.1,15.1,15.1-6.8,15.1-15.1-6.8-15.1-15.1-15.1Z"/>
            <path class="cls-5" d="M49,40.4c-1.7,0-3.2-1.4-3.2-3.2v-4.1h-4c-1.7,0-3.2-1.4-3.2-3.2s1.4-3.2,3.2-3.2h4v-4c0-1.8,1.4-3.2,3.2-3.2s3.2,1.4,3.2,3.2v4h4.1c1.7,0,3.2,1.4,3.2,3.2s-1.4,3.2-3.2,3.2h-4.1v4.1c0,1.7-1.4,3.2-3.2,3.2ZM41.8,28.2c-2.3,0-2.3,3.5,0,3.5h4.7c.4,0,.7.3.7.7v4.8c0,2.3,3.5,2.3,3.5,0v-4.8c0-.4.3-.7.7-.7h4.8c2.3,0,2.3-3.5,0-3.5h-4.8c-.4,0-.7-.3-.7-.7v-4.7c0-2.3-3.5-2.3-3.5,0v4.7c0,.4-.3.7-.7.7h-4.7Z"/>
          </g>
        </g>
      </g>
      <g class="cls-7">
        <g class="cls-8">
          <g>
            <path class="cls-4" d="M8,60c-.3,0-.6-.2-.7-.6l-1.3-8c0-.3,0-.5.3-.7.1,0,.3-.1.4-.1s.2,0,.3,0l3.8,1.9,3-5.6c.1-.2.4-.3.6-.3s.5,0,.6.3l3,5.6,3.8-1.9c0,0,.2,0,.3,0s.3,0,.4.1c.2.2.3.4.3.7l-1.3,8c0,.3-.3.6-.7.6h-12.8ZM8.6,58.6h11.6l1-6.1-3.2,1.6c0,0-.2,0-.3,0-.3,0-.5-.1-.6-.4l-2.8-5.1-2.8,5.1c-.1.2-.4.4-.6.4s-.2,0-.3,0l-3.1-1.6,1,6.1Z"/>
            <path class="cls-4" d="M42.6,60c-.3,0-.6-.2-.7-.6l-1.3-8c0-.3,0-.5.3-.7.1,0,.3-.1.4-.1s.2,0,.3,0l3.8,1.9,3-5.6c.1-.2.4-.3.6-.3s.5,0,.6.3l3,5.6,3.8-1.9c0,0,.2,0,.3,0s.3,0,.4.1c.2.2.3.4.3.7l-1.3,8c0,.3-.3.6-.7.6h-12.8ZM43.2,58.6h11.6l1-6.1-3.2,1.6c0,0-.2,0-.3,0-.3,0-.5-.1-.6-.4l-2.8-5.1-2.8,5.1c-.1.2-.4.4-.6.4s-.2,0-.3,0l-3.1-1.6,1,6.1Z"/>
            <path class="cls-4" d="M77.2,60c-.3,0-.6-.2-.7-.6l-1.3-8c0-.3,0-.5.3-.7.1,0,.3-.1.4-.1s.2,0,.3,0l3.8,1.9,3-5.6c.1-.2.4-.3.6-.3s.5,0,.6.3l3,5.6,3.8-1.9c0,0,.2,0,.3,0s.3,0,.4.1c.2.2.3.4.3.7l-1.3,8c0,.3-.3.6-.7.6h-12.8ZM77.8,58.6h11.6l1-6.1-3.2,1.6c0,0-.2,0-.3,0-.3,0-.5-.1-.6-.4l-2.8-5.1-2.8,5.1c-.1.2-.4.4-.6.4s-.2,0-.3,0l-3.1-1.6,1,6.1Z"/>
            <g>
              <path class="cls-4" d="M49,9.9c-2.7,0-4.9-2.2-4.9-4.9s2.2-4.9,4.9-4.9,4.9,2.2,4.9,4.9-2.2,4.9-4.9,4.9ZM49,1.7c-1.8,0-3.2,1.5-3.2,3.2s1.5,3.2,3.2,3.2,3.2-1.5,3.2-3.2-1.5-3.2-3.2-3.2Z"/>
              <path class="cls-4" d="M58.6,23.5c-.5,0-.9-.4-.9-.9v-2.7c0-2.5-2.1-4.6-4.6-4.6h-8.2c-2.5,0-4.6,2.1-4.6,4.6v2.7c0,.5-.4.9-.9.9s-.9-.4-.9-.9v-2.7c0-3.5,2.8-6.3,6.3-6.3h8.2c3.5,0,6.3,2.8,6.3,6.3v2.7c0,.5-.4.9-.9.9Z"/>
            </g>
            <path class="cls-4" d="M83.2,42.6c-.6,0-1.1-.5-1.1-1.1v-7.6c0-1.5-1.2-2.7-2.7-2.7h-29.1v10.4c0,.6-.5,1.1-1.1,1.1s-1.1-.5-1.1-1.1v-10.4h-29.4c-1.5,0-2.7,1.2-2.7,2.7v7.6c0,.6-.5,1.1-1.1,1.1s-1.1-.5-1.1-1.1v-7.6c0-2.7,2.2-4.9,4.9-4.9h60.7c2.7,0,4.9,2.2,4.9,4.9v7.6c0,.6-.5,1.1-1.1,1.1Z"/>
          </g>
        </g>
      </g>
      <g class="cls-7">
        <g class="cls-6">
          <path class="cls-5" d="M56.6,60c-1.4,0-2.6-.9-3-2.2v-.2h-9.3v.2c-.5,1.3-1.7,2.2-3.1,2.2s-3.1-1.4-3.1-3.1.3-1.5.8-2.1v-.2c.1,0-4.6-8.2-4.6-8.2h-.2c-.2,0-.4.1-.7.1-1.4,0-2.6-.9-3-2.2v-.2h-9.3v.2c-.5,1.3-1.7,2.2-3.1,2.2s-.8,0-1.2-.2h-.2c0,0-6.5,6.4-6.5,6.4v.2c.3.4.4.9.4,1.4,0,1.7-1.4,3.1-3.1,3.1s-3.1-1.4-3.1-3.1,1.4-3.1,3.1-3.1,1,.1,1.5.4h.2c0,.1,6.4-6.3,6.4-6.3v-.2c-.4-.5-.6-1.1-.6-1.6s.3-1.5.8-2.1v-.2c.1,0-4.6-8.2-4.6-8.2h-.2c-.2,0-.4.1-.7.1-1.7,0-3.1-1.4-3.1-3.1s1.4-3.1,3.1-3.1.4,0,.7,0h.2s4.7-8.1,4.7-8.1v-.2c-.6-.6-.9-1.3-.9-2.1s.1-1,.3-1.4v-.2c.1,0-6.4-6.5-6.4-6.5h-.2c-.4.2-.8.3-1.2.3-1.7,0-3.1-1.4-3.1-3.1s1.4-3.1,3.1-3.1,3.1,1.4,3.1,3.1-.2,1.2-.5,1.7v.2c-.1,0,6.3,6.4,6.3,6.4h.2c.5-.3.9-.5,1.5-.5,1.4,0,2.6.9,3,2.2v.2h9.3v-.2c.5-1.3,1.7-2.2,3.1-2.2s.4,0,.7,0h.2s4.7-8.1,4.7-8.1v-.2c-.6-.6-.9-1.3-.9-2.1,0-1.7,1.4-3.1,3.1-3.1s2.6.9,3,2.2v.2h9.3v-.2c.5-1.3,1.7-2.2,3.1-2.2s3.1,1.4,3.1,3.1-.3,1.5-.8,2.1v.2c-.1,0,4.6,8.2,4.6,8.2h.2c.2,0,.4-.1.7-.1,1.4,0,2.6.9,3,2.2v.2h9.3v-.2c.5-1.3,1.7-2.2,3.1-2.2s1,.1,1.4.3h.2c0,.1,6.6-6.5,6.6-6.5v-.2c-.5-.5-.6-1.1-.6-1.7,0-1.7,1.4-3.1,3.1-3.1s3.1,1.4,3.1,3.1-1.4,3.1-3.1,3.1-.8,0-1.2-.2h-.2c0,0-6.7,6.6-6.7,6.6v.2c.3.4.5.9.5,1.4,0,.8-.3,1.5-.8,2.1v.2c-.1,0,4.6,8.2,4.6,8.2h.2c.2,0,.4-.1.7-.1,1.7,0,3.1,1.4,3.1,3.1s-1.4,3.1-3.1,3.1-.4,0-.7,0h-.2s-4.7,8.1-4.7,8.1v.2c.6.6.9,1.3.9,2.1s-.1,1-.3,1.4v.2c-.1,0,6.3,6.4,6.3,6.4h.2c.5-.3.9-.5,1.5-.5,1.7,0,3.1,1.4,3.1,3.1s-1.4,3.1-3.1,3.1-3.1-1.4-3.1-3.1.1-1,.3-1.4v-.2c0,0-6.4-6.5-6.4-6.5h-.2c-.4.3-.9.4-1.4.4-1.4,0-2.6-.9-3-2.2v-.2h-9.3v.2c-.5,1.3-1.7,2.2-3.1,2.2s-.4,0-.7,0h-.2s-4.7,8.1-4.7,8.1v.2c.7.6.9,1.3.9,2.1,0,1.7-1.4,3.1-3.1,3.1ZM56.6,55.2c-.9,0-1.6.7-1.6,1.6,0,.9.7,1.6,1.6,1.6s1.6-.7,1.6-1.6-.3-1-.7-1.4h-.2c-.2-.2-.5-.3-.7-.3ZM41.3,55.2c-.9,0-1.6.7-1.6,1.6s.7,1.6,1.6,1.6,1.6-.7,1.6-1.6c0-.9-.7-1.6-1.6-1.6ZM41.3,53.7c1.4,0,2.6.9,3,2.2v.2h9.3v-.2c.5-1.3,1.7-2.2,3.1-2.2s.5,0,.7,0h.2c0,0,4.7-8.1,4.7-8.1v-.2c-.7-.6-1-1.3-1-2.1s.3-1.5.8-2v-.2c.1,0-4.6-8.2-4.6-8.2h-.2c-.2,0-.4.1-.6.1-1.4,0-2.6-.9-3-2.2v-.2h-9.3v.2c-.5,1.3-1.7,2.2-3.1,2.2s-.4,0-.6,0h-.2s-4.7,8.2-4.7,8.2v.2c.6.6.9,1.3.9,2.1s-.3,1.5-.8,2.1v.2c-.1,0,4.6,8.1,4.6,8.1h.2c.2-.1.5-.1.7-.1ZM7.4,52.7c-.9,0-1.6.7-1.6,1.6s.7,1.6,1.6,1.6,1.6-.7,1.6-1.6c0-.9-.7-1.6-1.6-1.6ZM90.6,52.5c-.4,0-.8.2-1.1.5-.3.4-.5.8-.5,1.2,0,.9.7,1.6,1.6,1.6s1.6-.7,1.6-1.6-.7-1.6-1.6-1.6ZM64.4,41.8c-.9,0-1.6.7-1.6,1.6s.3,1,.7,1.3h.2c.2.3.5.3.7.3.9,0,1.6-.7,1.6-1.6s-.7-1.6-1.6-1.6ZM33.4,41.8c-.9,0-1.6.7-1.6,1.6,0,.9.7,1.6,1.6,1.6s.5,0,.7-.2h.1c0,0,.1-.1.1-.1.4-.3.7-.8.7-1.3,0-.9-.7-1.6-1.6-1.6ZM18.1,41.8c-.9,0-1.6.7-1.6,1.6s.2.9.5,1.2c.1,0,.2.1.2.1.3.2.6.3,1,.3.9,0,1.6-.7,1.6-1.6,0-.9-.7-1.6-1.6-1.6ZM79.8,41.8c-.9,0-1.6.7-1.6,1.6s.7,1.6,1.6,1.6,1.6-.7,1.6-1.6-.7-1.6-1.6-1.6ZM18.1,40.3c1.4,0,2.6.9,3,2.2v.2h9.3v-.2c.5-1.3,1.7-2.2,3.1-2.2s.5,0,.7,0h.2c0,0,4.7-8.1,4.7-8.1l-.2-.2c-.5-.6-.8-1.3-.8-2.1s.3-1.5.8-2.1v-.2c.1,0-4.6-8.2-4.6-8.2h-.2c-.2,0-.4.1-.7.1-1.4,0-2.5-.9-3-2.1v-.2h-9.3v.2c-.5,1.3-1.7,2.2-3.1,2.2s-.5,0-.7,0h-.2c0,0-4.7,8.1-4.7,8.1v.2c.7.6,1,1.3,1,2.1s-.3,1.5-.8,2.1v.2c-.1,0,4.6,8.2,4.6,8.2h.2c.2-.1.5-.1.7-.1ZM64.4,40.3c1.4,0,2.5.9,3,2.1v.2h9.3v-.2c.5-1.3,1.7-2.2,3.1-2.2s.5,0,.7,0h.2c0,0,4.7-8.1,4.7-8.1v-.2c-.7-.6-1-1.3-1-2.1s.3-1.5.8-2.1v-.2c.1,0-4.6-8.2-4.6-8.2h-.2c-.2.1-.5.1-.7.1-1.4,0-2.6-.9-3-2.2v-.2h-9.3v.2c-.5,1.3-1.7,2.2-3.1,2.2s-.4,0-.7,0h-.2s-4.7,8.1-4.7,8.1v.2c.7.6.9,1.3.9,2.1s-.3,1.6-.9,2.1l-.2.2,4.7,8.2h.2c.3-.1.5-.1.7-.1ZM10.3,28.4c-.9,0-1.6.7-1.6,1.6s.7,1.6,1.6,1.6,1.6-.7,1.6-1.6-.7-1.6-1.6-1.6ZM87.6,28.4c-.9,0-1.6.7-1.6,1.6s.3,1,.7,1.3h.1c0,0,.1.1.1.1.2.1.5.2.7.2.9,0,1.6-.7,1.6-1.6s-.7-1.6-1.6-1.6ZM56.6,28.3c-.9,0-1.6.7-1.6,1.6,0,.9.7,1.6,1.6,1.6s.5,0,.7-.2h.2c.5-.4.8-.9.8-1.5s-.3-1-.7-1.4h-.2c-.2-.2-.5-.3-.7-.3ZM41.3,28.3c-.9,0-1.6.7-1.6,1.6s.7,1.6,1.6,1.6,1.6-.7,1.6-1.6c0-.9-.7-1.6-1.6-1.6ZM41.3,26.8c1.4,0,2.6.9,3,2.2v.2h9.3v-.2c.5-1.3,1.7-2.2,3.1-2.2s.5,0,.7,0h.2c0,0,4.7-8.1,4.7-8.1v-.2c-.7-.6-1-1.3-1-2.1s.3-1.5.8-2.1v-.2c.1,0-4.6-8.1-4.6-8.1h-.2c-.2.1-.5.1-.7.1-1.4,0-2.6-.9-3-2.2v-.2h-9.3v.2c-.5,1.3-1.7,2.2-3.1,2.2s-.5,0-.7,0h-.2c0,0-4.7,8.1-4.7,8.1v.2c.7.6,1,1.3,1,2.1s-.3,1.5-.8,2.1v.2c-.1,0,4.6,8.2,4.6,8.2h.2c.2-.1.5-.1.7-.1ZM18.1,15c-.4,0-.8.2-1.1.5-.3.4-.5.8-.5,1.2,0,.9.7,1.6,1.6,1.6s1.6-.7,1.6-1.6c0-.9-.7-1.6-1.6-1.6ZM79.8,14.9c-.9,0-1.6.7-1.6,1.6s.7,1.6,1.6,1.6,1.6-.7,1.6-1.6-.7-1.6-1.6-1.6ZM64.4,14.9c-.2,0-.5,0-.7.2h-.1c0,0,0,.1,0,.1-.4.3-.7.8-.7,1.3,0,.9.7,1.6,1.6,1.6s1.6-.7,1.6-1.6-.7-1.6-1.6-1.6ZM33.4,14.9c-.9,0-1.6.7-1.6,1.6s.7,1.6,1.6,1.6,1.6-.7,1.6-1.6-.3-1.1-.7-1.4h-.2c-.2-.2-.5-.3-.7-.3ZM7.5,4c-.9,0-1.6.7-1.6,1.6s.7,1.6,1.6,1.6,1.6-.7,1.6-1.6-.7-1.6-1.6-1.6ZM90.5,3.8c-.9,0-1.6.7-1.6,1.6s.2.9.6,1.2c0,0,.1,0,.1.1.3.2.6.3.9.3.9,0,1.6-.7,1.6-1.6s-.7-1.6-1.6-1.6ZM56.6,1.5c-.9,0-1.6.7-1.6,1.6,0,.9.7,1.6,1.6,1.6s.5,0,.7-.2h.1c0,0,0-.1,0-.1.4-.3.7-.8.7-1.3,0-.9-.7-1.6-1.6-1.6ZM41.3,1.5c-.9,0-1.6.7-1.6,1.6s.7,1.6,1.6,1.6,1.6-.7,1.6-1.6c0-.9-.7-1.6-1.6-1.6Z"/>
        </g>
      </g>
      <g class="cls-1">
        <g>
          <path class="cls-4" d="M70.3,34.8s0,0,0,0c0,0,0,0,0,0-.7-.1-1.3-.2-2-.2h-2.5v-3.4c2.2-1.8,3.9-4.9,4-9.4.6-1.1,4-8.2-.5-11.8-.9-3.5-3.1-5.7-6.4-6.2-4.6-.8-10.4,2.1-13.1,6.6-2.3,3.7-2.1,7.7.4,11.4.1,4.3,1.7,7.3,3.8,9.2v3.6h-2.5c-.7,0-1.3,0-2,.2,0,0,0,0,0,0,0,0,0,0,0,0-5.3,1-9.3,5.6-9.3,11.1v13.4c0,.4.3.7.7.7h38.1c.4,0,.7-.3.7-.7v-13.4c0-5.6-4-10.2-9.3-11.2ZM50.9,11.1c2.2-3.5,6.6-6,10.4-6s.9,0,1.3.1c2.7.5,4.6,2.3,5.3,5.4,0,.2.1.3.3.4,2.5,1.8,2.1,5.3,1.3,7.7-.7-4.7-2.4-5.8-2.6-5.9-.2-.1-.5-.1-.7,0-4.1,2.6-7.3,1.3-9.7.4-1.8-.7-3.4-1.3-4.5.3,0,.1-.1.3-.1.4,0,2.4-.6,4.8-1.1,6.1-1.6-2.9-1.6-6.1.2-8.9ZM51.6,21.7c.3-.8,1.7-4,1.7-7.5.4-.4,1-.2,2.7.4,2.4.9,6,2.3,10.5-.3.5.6,1.7,2.5,1.9,7.4-.1,4.3-1.7,7.1-3.8,8.7,0,0,0,0,0,0-1.4,1-3,1.6-4.5,1.6h0c-1.6,0-3.3-.6-4.8-1.8,0,0,0,0-.2-.1-1.9-1.6-3.3-4.4-3.4-8.4ZM60,33.3h0c1.5,0,3-.4,4.3-1.1v3l-4.5,11.7-4.5-11.7v-3.2c1.4.9,3,1.3,4.6,1.3ZM51.4,36h2.7l5,13.1c.1.3.4.4.6.4s.5-.2.6-.4l5-13.1h2.7c.4,0,.8,0,1.2,0l-.3,3.1-3.7.4c-.3,0-.6.3-.6.6l-.5,4.6-4.5,12.5-4.5-12.5-.5-4.6c0-.3-.3-.6-.6-.6l-3.7-.4-.3-3.1c.4,0,.8,0,1.2,0ZM41.5,45.9c0-4.6,3.1-8.5,7.4-9.6l.4,3.6c0,.3.3.6.6.6l3.7.4.4,4.1c0,0,0,.1,0,.2l4.8,13.5h-9.7v-12.8c0-.4-.3-.7-.7-.7s-.7.3-.7.7v12.8h-6.3v-12.7ZM78.2,58.6h-6.3v-12.8c0-.4-.3-.7-.7-.7s-.7.3-.7.7v12.8h-9.7l4.8-13.5c0,0,0-.1,0-.2l.4-4.1,3.7-.4c.3,0,.6-.3.6-.6l.4-3.6c4.2,1.1,7.4,5,7.4,9.6v12.7Z"/>
          <path class="cls-4" d="M35.4,52.3h-9.3v-11.7c0-1.6-1.3-2.9-2.9-2.9s-2.9,1.3-2.9,2.9v12.2s0,0,0,.1c0,1.3.5,2.5,1.3,3.5,1,1.1,2.3,1.7,3.7,1.7h10.2c1.6,0,2.9-1.3,2.9-2.9s-1.3-2.9-2.9-2.9ZM35.3,56.8h-10.2c-1,0-1.9-.4-2.6-1.2-.6-.7-1-1.7-1-2.7s0,0,0-.1h0s0-12.1,0-12.1c0-.9.7-1.5,1.5-1.5s1.5.7,1.5,1.5v12.1s0,0,0,.1c0,.1,0,.3,0,.4,0,.3.4.5.7.5h10c.9,0,1.5.7,1.5,1.5s-.7,1.5-1.5,1.5Z"/>
          <path class="cls-4" d="M26.5,36.1s0,0,0,0c0,0,0,0,0,0,1.7.5,3.5.7,5.1.7s3.4-.2,5.1-.7c0,0,0,0,0,0,0,0,0,0,0,0,2.9-.8,5.4-2.3,6.4-4.8,0-.3,0-.5-.2-.7-1.8-1.8-3.1-3.9-4-6.3,3.6-2.4,5.9-6.4,5.9-11,0-7.3-5.9-13.2-13.2-13.2s-13.2,5.9-13.2,13.2,2.3,8.6,5.9,11c-.9,2.4-2.3,4.5-4,6.3-.2.2-.3.5-.2.7,1,2.5,3.5,4.1,6.4,4.8ZM27.5,34.9c.6-2.6,1.1-5.5,1.4-8.7.9.2,1.8.3,2.7.3s1.8,0,2.7-.3c.4,3.2.8,6.1,1.4,8.7-1.4.3-2.8.5-4.2.5s-2.8-.2-4.2-.5ZM41.7,31.2c-.8,1.6-2.5,2.7-4.6,3.4-.6-2.6-1.1-5.5-1.4-8.7.7-.2,1.4-.5,2-.9.9,2.3,2.2,4.4,3.9,6.2ZM19.8,13.2c0-6.5,5.3-11.8,11.8-11.8s11.8,5.3,11.8,11.8c0,6.5-5.3,11.8-11.8,11.8s-11.8-5.3-11.8-11.8ZM25.5,24.9c.7.3,1.3.6,2,.9-.4,3.2-.8,6.1-1.4,8.7-2.1-.7-3.8-1.8-4.6-3.4,1.7-1.8,3-3.9,3.9-6.2Z"/>
          <path class="cls-4" d="M41.2,13.2c0-5.3-4.3-9.5-9.5-9.5s-9.5,4.3-9.5,9.5,4.3,9.5,9.5,9.5,9.5-4.3,9.5-9.5ZM23.5,13.2c0-4.5,3.7-8.1,8.1-8.1s8.1,3.7,8.1,8.1-3.7,8.1-8.1,8.1-8.1-3.7-8.1-8.1Z"/>
          <path class="cls-4" d="M34.3,18.3c0,0,.2,0,.3,0,.1,0,.3,0,.4-.1.2-.1.3-.4.3-.6l-.2-2.8,1.8-2.1c.2-.2.2-.4.1-.7,0-.2-.3-.4-.5-.5l-2.7-.7-1.5-2.4c-.1-.2-.4-.3-.6-.3s-.5.1-.6.3l-1.5,2.4-2.7.7c-.2,0-.4.2-.5.5,0,.2,0,.5.1.7l1.8,2.1-.2,2.8c0,.2,0,.5.3.6.2.1.5.2.7,0l2.6-1.1,2.6,1.1ZM29.6,16.6l.2-2c0-.2,0-.4-.2-.5l-1.3-1.5,1.9-.5c.2,0,.3-.2.4-.3l1-1.7,1,1.7c0,.2.2.3.4.3l1.9.5-1.3,1.5c-.1.1-.2.3-.2.5l.2,2-1.8-.8c0,0-.2,0-.3,0s-.2,0-.3,0l-1.8.8Z"/>
        </g>
      </g>
    </g>
  </g>
</svg>