<?xml version="1.0" encoding="UTF-8"?>
<svg xmlns="http://www.w3.org/2000/svg" version="1.1" xmlns:xlink="http://www.w3.org/1999/xlink" viewBox="0 0 98 60">
  <defs>
    <style>
      .cls-1 {
        fill: none;
      }

      .cls-2 {
        fill: #f15d22;
      }

      .cls-2, .cls-3 {
        fill-rule: evenodd;
      }

      .cls-3 {
        fill: #010101;
      }

      .cls-4 {
        display: none;
      }

      .cls-5 {
        clip-path: url(#clippath);
      }
    </style>
    <clipPath id="clippath">
      <rect class="cls-1" width="98" height="60"/>
    </clipPath>
  </defs>
  <!-- Generator: Adobe Illustrator 28.6.0, SVG Export Plug-In . SVG Version: 1.2.0 Build 709)  -->
  <g>
    <g id="Layer_1">
      <g class="cls-5">
        <path class="cls-2" d="M50.2,60c-1.5,0-2.9-.4-4.2-1.2l-12.9-7.5-2.4.6.5,2.1c.2.6,0,1.3-.3,1.8-.3.6-.9,1-1.5,1.1l-3.5.9c-.2,0-.4,0-.6,0-.4,0-.8-.1-1.2-.3-.6-.3-1-.9-1.1-1.5l-4.7-18.1c-.3-1.3.4-2.6,1.7-2.9l3.5-.9c.2,0,.4,0,.6,0,.4,0,.8.1,1.2.3.6.3,1,.9,1.1,1.5l.5,1.8,9.5-2.6c1-.3,2.3-.6,3.7-.6s2.7.4,3.9,1.1c.6.4,1.4.9,2.1,1.4,2.2,1.6,5,3.5,8,4.9h0c1.8,1.2,2.4,3.6,1.4,5.4-.2.3-.4.6-.6.8l-.5.5h.7c.6,0,1.1,0,1.7-.2l12.5-3.4c1.4-.4,2.6-.6,3.7-.6,3.7,0,4.7,2.1,4.9,3,.6,2.1-.6,4.6-2.6,5.2l-22.8,6.8c-.8.2-1.6.4-2.4.4ZM33.2,49.8c.1,0,.3,0,.4.1l13.2,7.6c1.1.6,2.3,1,3.4,1s1.3,0,2-.3l22.8-6.8c1.2-.3,1.9-2,1.6-3.3-.3-1.2-1.6-1.9-3.4-1.9s-2.1.2-3.4.5l-12.5,3.4c-.7.2-1.4.3-2.1.3-1.1,0-2.3-.3-3.5-.8l-1.3-.6c-1.6-.8-3-1.7-4.6-2.6-.7-.4-1.4-.8-2.1-1.3-.4-.2-.5-.7-.3-1.1.1-.2.4-.4.7-.4s.3,0,.4.1c.7.4,1.4.8,2.1,1.2h.1c1.5,1,2.9,1.8,4.4,2.5.5.2.9.3,1.3.3.8,0,1.5-.4,1.9-1.2.6-1.1.3-2.5-.8-3.2-3.1-1.5-5.9-3.4-8.2-5-.8-.6-1.5-1-2.1-1.4-.9-.6-1.9-.8-3.1-.8s-2.3.3-3.2.5l-9.5,2.6,2.9,11.3,2.7-.7c0,0,.1,0,.2,0ZM24.1,35.7c0,0-.1,0-.2,0l-3.5.9c-.5.1-.7.6-.6,1.1l4.7,18.1c0,.3.3.5.4.5,0,0,.2.1.4.1s.1,0,.2,0l3.5-.9c.3,0,.5-.3.5-.4s.2-.4,0-.7l-4.7-18.1c0-.3-.3-.5-.4-.5,0,0-.2-.1-.4-.1ZM59.3,41.3c-.3,0-.6-.2-.7-.5l-1.1-2.8h-.1c-1.4-.4-2.8-1-4-1.7h-.1c0,0-2.8,1.2-2.8,1.2,0,0-.2,0-.3,0-.2,0-.4,0-.5-.2l-3.7-3.7c-.2-.2-.3-.6-.2-.9l1.2-2.8h0c-.7-1.4-1.3-2.8-1.7-4.2h0c0-.1-2.8-1.2-2.8-1.2-.3-.1-.5-.4-.5-.7v-5.2c0-.3.2-.6.5-.7l2.8-1.1h0c.4-1.6.9-2.9,1.7-4.2h0c0-.1-1.2-2.9-1.2-2.9-.1-.3,0-.6.2-.9l3.7-3.7c.1-.1.3-.2.5-.2s.2,0,.3,0l2.8,1.2h.1c1.3-.8,2.6-1.4,4-1.7h.1s1.1-2.9,1.1-2.9c.1-.3.4-.5.7-.5h5.2c.3,0,.6.2.7.5l1.1,2.8h.1c1.4.4,2.8,1,4,1.7h.1c0,0,2.8-1.2,2.8-1.2,0,0,.2,0,.3,0,.2,0,.4,0,.5.2l3.7,3.7c.2.2.3.6.2.9l-1.2,2.8h0c.7,1.4,1.3,2.8,1.7,4.2h0c0,.1,2.8,1.2,2.8,1.2.3.1.5.4.5.7v5.2c0,.3-.2.6-.5.7l-2.8,1.1h0c-.4,1.6-.9,2.9-1.7,4.2h0c0,.1,1.2,2.9,1.2,2.9.1.3,0,.6-.2.9l-3.7,3.7c-.1.1-.3.2-.5.2s-.2,0-.3,0l-2.8-1.2h-.1c-1.3.8-2.6,1.4-4,1.7h-.1s-1.1,2.9-1.1,2.9c-.1.3-.4.5-.7.5h-5.2ZM53.2,34.5c.1,0,.3,0,.4.1,1.4.9,3,1.5,4.6,1.9.2,0,.4.2.5.5l1,2.7h4.2l1-2.7c0-.2.3-.4.5-.5,1.6-.4,3.2-1,4.6-1.9.1,0,.3-.1.4-.1s.2,0,.3,0l2.7,1.2,2.9-2.9-1.2-2.7c-.1-.2,0-.5,0-.7.9-1.4,1.5-3,1.9-4.6,0-.2.2-.4.5-.5l2.7-1v-4.2l-2.7-1c-.2,0-.4-.3-.5-.5-.4-1.6-1-3.2-1.9-4.6-.1-.2-.2-.5,0-.7l1.2-2.7-2.9-2.9-2.7,1.2c0,0-.2,0-.3,0s-.3,0-.4-.1c-1.4-.9-3-1.5-4.6-1.9-.2,0-.4-.2-.5-.5l-1-2.7h-4.2l-1,2.7c0,.2-.3.4-.5.5-1.6.4-3.2,1-4.6,1.9-.1,0-.3.1-.4.1s-.2,0-.3,0l-2.7-1.2-2.9,2.9,1.2,2.7c.1.2,0,.5,0,.7-.9,1.4-1.5,3-1.9,4.6,0,.2-.2.4-.5.5l-2.7,1v4.2l2.7,1c.2,0,.4.3.5.5.4,1.6,1,3.2,1.9,4.6.1.2.2.5,0,.7l-1.2,2.7,2.9,2.9,2.7-1.2c0,0,.2,0,.3,0ZM22.8,39.9c-.4,0-.8-.5-.7-.9,0-.4.4-.7.8-.7.5,0,.9.5.8.9,0,.4-.4.7-.8.7s0,0,0,0ZM61.9,32c-5.9,0-10.8-4.8-10.8-10.7s4.8-10.8,10.8-10.8,10.8,4.8,10.8,10.8-4.8,10.7-10.8,10.7ZM61.9,12c-5.1,0-9.2,4.1-9.2,9.2s4.1,9.2,9.2,9.2,9.2-4.1,9.2-9.2-4.1-9.2-9.2-9.2ZM27.5,26.3c-.3,0-.6-.2-.7-.5l-.6-1.7h-.1c-.8-.3-1.6-.6-2.3-1h-.1c0,0-1.6.7-1.6.7,0,0-.2,0-.3,0-.2,0-.4,0-.5-.2l-2.4-2.4c-.2-.2-.3-.6-.2-.9l.7-1.6h0c-.4-.9-.7-1.6-1-2.4h0c0-.1-1.7-.8-1.7-.8-.3-.1-.5-.4-.5-.7v-3.4c0-.3.2-.6.5-.7l1.7-.6h0c.2-.9.6-1.7,1-2.4h0c0-.1-.7-1.8-.7-1.8-.1-.3,0-.6.2-.9l2.4-2.4c.1-.1.3-.2.5-.2s.2,0,.3,0l1.6.7h.1c.7-.5,1.5-.8,2.3-1h.1s.6-1.7.6-1.7c.1-.3.4-.5.7-.5h3.4c.3,0,.6.2.7.5l.6,1.7h.1c.8.3,1.6.6,2.3,1h.1c0,0,1.6-.7,1.6-.7,0,0,.2,0,.3,0,.2,0,.4,0,.5.2l2.4,2.4c.2.2.3.6.2.9l-.7,1.6h0c.4.9.7,1.6,1,2.4h0c0,.1,1.7.8,1.7.8.3.1.5.4.5.7v3.4c0,.3-.2.6-.5.7l-1.7.6h0c-.2.9-.6,1.7-.9,2.4h0c0,.1.7,1.8.7,1.8.1.3,0,.6-.2.9l-2.4,2.4c-.1.1-.3.2-.5.2s-.2,0-.3,0l-1.6-.7h-.1c-.7.5-1.5.8-2.3,1h-.1s-.6,1.7-.6,1.7c-.1.3-.4.5-.7.5h-3.4ZM23.6,21.4c.1,0,.3,0,.4.1.9.5,1.9.9,2.9,1.2.2,0,.4.2.5.5l.6,1.6h2.3l.6-1.6c0-.2.3-.4.5-.5,1-.2,2-.6,2.9-1.2.1,0,.3-.1.4-.1s.2,0,.3,0l1.5.7,1.6-1.6-.7-1.5c-.1-.2,0-.5,0-.7.5-.9.9-1.9,1.2-2.9,0-.2.2-.4.5-.5l1.6-.6v-2.3l-1.6-.6c-.2,0-.4-.3-.5-.5-.2-1-.6-2-1.2-2.9-.1-.2-.2-.5,0-.7l.7-1.5-1.6-1.6-1.5.7c0,0-.2,0-.3,0s-.3,0-.4-.1c-.9-.5-1.9-.9-2.9-1.2-.2,0-.4-.2-.5-.5l-.6-1.6h-2.3l-.6,1.6c0,.2-.3.4-.5.5-1,.2-2,.6-2.9,1.2-.1,0-.3.1-.4.1s-.2,0-.3,0l-1.5-.7-1.6,1.6.7,1.5c.1.2,0,.5,0,.7-.5.9-.9,1.9-1.2,2.9,0,.2-.2.4-.5.5l-1.6.6v2.3l1.6.6c.2,0,.4.3.5.5.2,1,.6,2,1.2,2.9.1.2.2.5,0,.7l-.7,1.5,1.6,1.6,1.5-.7c0,0,.2,0,.3,0ZM29.2,19.8c-3.6,0-6.6-3-6.6-6.6s3-6.6,6.6-6.6,6.6,3,6.6,6.6-3,6.6-6.6,6.6ZM29.2,8.1c-2.8,0-5.1,2.3-5.1,5.1s2.3,5.1,5.1,5.1,5.1-2.3,5.1-5.1-2.3-5.1-5.1-5.1Z"/>
      </g>
      <g id="Layer_x5F_1" class="cls-4">
        <path class="cls-3" d="M52.2,60h-6.4c-1.8,0-3.3-1.5-3.3-3.3v-4.6c-3.6-1-6.8-2.9-9.5-5.4l-4,2.3c-1.5.9-3.6.4-4.5-1.2l-3.2-5.5c-.9-1.6-.4-3.6,1.2-4.5l4-2.3c-.9-3.6-.8-7.3,0-10.9l-4-2.3c-1.6-.9-2.1-2.9-1.2-4.5l3.2-5.5c.9-1.6,2.9-2.1,4.5-1.2l4,2.3c2.7-2.5,5.9-4.4,9.5-5.4V3.3c0-1.8,1.5-3.3,3.3-3.3h6.4c1.8,0,3.3,1.5,3.3,3.3v4.6c3.6,1,6.8,2.9,9.5,5.4l4-2.3c1.5-.9,3.6-.4,4.5,1.2l3.2,5.5c.9,1.5.4,3.6-1.2,4.5l-4,2.3c.8,3.6.8,7.3,0,10.9l4,2.3c1.6.9,2.1,2.9,1.2,4.5l-3.2,5.5c-.9,1.6-2.9,2.1-4.5,1.2l-4-2.3c-2.7,2.5-5.9,4.4-9.5,5.4v4.6c0,1.8-1.5,3.3-3.3,3.3ZM33.2,45.1c.2,0,.4,0,.5.2,2.7,2.7,6,4.6,9.7,5.6.3.1.5.4.5.7v5.1c0,1.1.8,1.9,1.9,1.9h6.4c1,0,1.9-.8,1.9-1.9v-5.1c0-.3.2-.6.5-.7,3.7-1,7-2.9,9.7-5.6.2-.2.6-.3.9-.1l4.4,2.6c.9.5,2.1.2,2.6-.7l3.2-5.5c.5-.9.2-2-.7-2.6l-4.5-2.6c-.2-.2-.4-.5-.3-.8,1-3.7,1-7.6,0-11.2,0-.3,0-.6.3-.8l4.5-2.6c.9-.5,1.2-1.7.7-2.6l-3.2-5.5c-.5-.9-1.7-1.2-2.6-.7l-4.4,2.6c-.3.2-.6.1-.9-.1-2.7-2.7-6-4.6-9.7-5.6-.3,0-.5-.4-.5-.7V3.3c0-1-.8-1.9-1.9-1.9h-6.4c-1,0-1.9.8-1.9,1.9v5.2c0,.3-.2.6-.5.7-3.7,1-7,2.9-9.7,5.6s-.6.3-.8.1l-4.5-2.6c-.9-.5-2-.2-2.6.7l-3.2,5.5c-.5.9-.2,2,.7,2.6l4.4,2.6c.3.2.4.5.4.8-1,3.7-1,7.6,0,11.2,0,.3,0,.6-.4.8l-4.4,2.6c-.9.5-1.2,1.7-.7,2.6l3.2,5.5c.5.9,1.7,1.2,2.6.7.7-.4,4.4-2.7,4.8-2.7Z"/>
        <path class="cls-3" d="M49,46.5c-9.1,0-16.6-7.4-16.6-16.6s7.5-16.6,16.6-16.6,16.6,7.5,16.6,16.6-7.4,16.6-16.6,16.6ZM49,14.8c-8.3,0-15.1,6.8-15.1,15.1s6.8,15.1,15.1,15.1,15.1-6.8,15.1-15.1-6.8-15.1-15.1-15.1Z"/>
        <path class="cls-3" d="M49,40.4c-1.7,0-3.2-1.4-3.2-3.2v-4.1h-4c-1.7,0-3.2-1.4-3.2-3.2s1.4-3.2,3.2-3.2h4v-4c0-1.8,1.4-3.2,3.2-3.2s3.2,1.4,3.2,3.2v4h4.1c1.7,0,3.2,1.4,3.2,3.2s-1.4,3.2-3.2,3.2h-4.1v4.1c0,1.7-1.4,3.2-3.2,3.2ZM41.8,28.2c-2.3,0-2.3,3.5,0,3.5h4.7c.4,0,.7.3.7.7v4.8c0,2.3,3.5,2.3,3.5,0v-4.8c0-.4.3-.7.7-.7h4.8c2.3,0,2.3-3.5,0-3.5h-4.8c-.4,0-.7-.3-.7-.7v-4.7c0-2.3-3.5-2.3-3.5,0v4.7c0,.4-.3.7-.7.7h-4.7Z"/>
      </g>
    </g>
  </g>
</svg>