<?xml version="1.0" encoding="UTF-8"?>
<svg id="Layer_2" xmlns="http://www.w3.org/2000/svg" xmlns:xlink="http://www.w3.org/1999/xlink" viewBox="0 0 60 37">
  <defs>
    <style>
      .cls-1 {
        fill: none;
      }

      .cls-2 {
        fill: #f15f26;
      }

      .cls-3 {
        clip-path: url(#clippath);
      }
    </style>
    <clipPath id="clippath">
      <rect class="cls-1" width="60" height="37"/>
    </clipPath>
  </defs>
  <g id="Layer_1-2" data-name="Layer_1">
    <g class="cls-3">
      <path class="cls-2" d="M30,0c-6.51,0-11.8,5.28-11.8,11.78,0,1.72.74,3.77,1.81,5.94,1.01,2.05,2.32,4.19,3.64,6.18h-3.87c-.27,0-.51.19-.56.46l-2.56,11.94c-.04.17,0,.35.12.48.11.14.27.22.45.22h25.54c.17,0,.34-.08.45-.22.11-.14.15-.31.12-.48l-2.56-11.94c-.06-.27-.29-.46-.56-.46h-3.87c1.33-1.99,2.64-4.13,3.64-6.18,1.07-2.18,1.81-4.22,1.81-5.94,0-6.5-5.29-11.78-11.8-11.78h0ZM30,1.16c5.89,0,10.64,4.75,10.64,10.63,0,1.37-.66,3.33-1.7,5.44-1.03,2.1-2.43,4.36-3.82,6.42-.11.17-.23.34-.34.5-2.41,3.53-4.41,5.94-4.79,6.4-.38-.46-2.38-2.87-4.79-6.4-.11-.17-.23-.33-.34-.5-1.39-2.07-2.79-4.32-3.82-6.42-1.03-2.1-1.69-4.06-1.69-5.44,0-5.87,4.76-10.63,10.65-10.63h0ZM30,5.85c-3.27,0-5.94,2.66-5.94,5.93s2.67,5.93,5.94,5.93,5.94-2.66,5.94-5.93-2.67-5.93-5.94-5.93ZM30,7.01c2.65,0,4.78,2.13,4.78,4.78s-2.13,4.78-4.78,4.78-4.79-2.13-4.79-4.78,2.14-4.78,4.79-4.78ZM20.25,25.06h4.18c2.64,3.82,5.12,6.82,5.12,6.82h0c.11.13.27.21.45.21s.34-.08.45-.21c0,0,2.48-2.99,5.12-6.82h4.18l2.31,10.78h-24.11l2.31-10.78Z"/>
    </g>
  </g>
</svg>