<?xml version="1.0" encoding="UTF-8"?>
<svg id="Layer_2" xmlns="http://www.w3.org/2000/svg" xmlns:xlink="http://www.w3.org/1999/xlink" viewBox="0 0 60 37">
  <defs>
    <style>
      .cls-1 {
        fill: none;
      }

      .cls-2 {
        fill: #f15f26;
      }

      .cls-3 {
        clip-path: url(#clippath);
      }
    </style>
    <clipPath id="clippath">
      <rect class="cls-1" width="60" height="37"/>
    </clipPath>
  </defs>
  <g id="Layer_1-2" data-name="Layer_1">
    <g class="cls-3">
      <path class="cls-2" d="M47.64,16.84c-.75,0-1.38.51-1.58,1.2h-8.09c-.05-.87-.21-1.7-.49-2.48h6.11c.25,0,.46-.21.46-.46v-2.33c.69-.2,1.2-.83,1.2-1.58,0-.92-.74-1.66-1.66-1.66s-1.66.74-1.66,1.66c0,.75.51,1.38,1.2,1.58v1.87h-6.04c-.59-1.19-1.43-2.22-2.46-3.03h5.25c.25,0,.46-.21.46-.46v-2.33c.69-.2,1.2-.83,1.2-1.58,0-.92-.74-1.66-1.66-1.66s-1.66.74-1.66,1.66c0,.75.51,1.38,1.2,1.58v1.87h-6.23c-.11-.06-.22-.11-.33-.16v-3.75h3.64c.25,0,.46-.21.46-.46v-1.76c.69-.2,1.2-.83,1.2-1.58,0-.92-.74-1.66-1.66-1.66s-1.66.74-1.66,1.66c0,.75.51,1.38,1.2,1.58v1.3h-3.18V1.81c0-1-.81-1.81-1.81-1.81h-3.61c-1,0-1.81.81-1.81,1.81v2.19c-1.44.36-2.81.92-4.08,1.69l-1.55-1.55c-.71-.71-1.86-.71-2.56,0l-2.55,2.55c-.34.34-.53.8-.53,1.28s.19.94.53,1.28l1.55,1.55c-.77,1.27-1.33,2.64-1.69,4.08h-2.19c-1,0-1.81.81-1.81,1.81v3.61c0,1,.81,1.81,1.81,1.81h2.19c.36,1.44.92,2.81,1.69,4.08l-1.55,1.55c-.34.34-.53.8-.53,1.28s.19.94.53,1.28l2.55,2.55c.34.34.8.53,1.28.53s.94-.19,1.28-.53l1.55-1.55c1.27.77,2.64,1.33,4.08,1.69v2.19c0,1,.81,1.81,1.81,1.81h3.61c1,0,1.81-.81,1.81-1.81v-4.04h3.18v1.3c-.69.2-1.2.83-1.2,1.58,0,.92.74,1.66,1.66,1.66s1.66-.74,1.66-1.66c0-.75-.51-1.38-1.2-1.58v-1.76c0-.25-.21-.46-.46-.46h-3.64v-3.75c.11-.05.22-.1.33-.16h6.23v1.87c-.69.2-1.2.83-1.2,1.58,0,.92.74,1.66,1.66,1.66s1.66-.74,1.66-1.66c0-.75-.51-1.38-1.2-1.58v-2.33c0-.25-.21-.46-.46-.46h-5.25c1.03-.81,1.87-1.84,2.46-3.03h6.04v1.87c-.69.2-1.2.83-1.2,1.58,0,.92.74,1.66,1.66,1.66s1.66-.74,1.66-1.66c0-.75-.51-1.38-1.2-1.58v-2.33c0-.25-.21-.46-.46-.46h-6.11c.28-.78.45-1.62.49-2.48h8.09c.2.69.83,1.2,1.58,1.2.92,0,1.66-.74,1.66-1.66s-.74-1.66-1.66-1.66h0ZM42.84,11.18c0-.41.33-.74.74-.74s.74.33.74.74-.33.74-.74.74-.74-.33-.74-.74ZM39.12,7.23c0-.41.33-.74.74-.74s.74.33.74.74-.33.74-.74.74-.74-.33-.74-.74ZM35.73,2.97c0-.41.33-.74.74-.74s.74.33.74.74-.33.74-.74.74-.74-.33-.74-.74ZM37.21,34.03c0,.41-.33.74-.74.74s-.74-.33-.74-.74.33-.74.74-.74.74.33.74.74ZM40.6,29.77c0,.41-.33.74-.74.74s-.74-.33-.74-.74.33-.74.74-.74.74.33.74.74ZM44.31,25.82c0,.41-.33.74-.74.74s-.74-.33-.74-.74.33-.74.74-.74.74.33.74.74ZM31.91,35.19c0,.49-.4.89-.89.89h-3.61c-.49,0-.89-.4-.89-.89v-2.54s0-.03,0-.04c0-.03,0-.06-.02-.09,0-.03-.02-.06-.03-.08-.01-.03-.03-.05-.05-.07-.02-.02-.04-.04-.06-.06s-.05-.03-.07-.05c-.03-.02-.06-.03-.09-.04-.01,0-.02-.01-.04-.02-1.59-.35-3.09-.98-4.47-1.85-.01,0-.03,0-.04-.02-.03-.02-.06-.02-.09-.03-.03,0-.06-.01-.08-.02-.03,0-.06,0-.09,0-.03,0-.06,0-.09.02-.03,0-.05.02-.08.03-.03.02-.05.03-.08.05-.01,0-.02.01-.03.02l-1.8,1.8c-.17.17-.39.26-.63.26s-.46-.09-.63-.26l-2.55-2.55c-.17-.17-.26-.39-.26-.63s.09-.46.26-.63l1.8-1.8s.01-.02.02-.03c.02-.02.04-.05.05-.08.01-.03.03-.05.03-.08,0-.03.01-.06.02-.09s0-.06,0-.09c0-.03,0-.06-.02-.08,0-.03-.02-.06-.03-.09,0-.01,0-.03-.02-.04-.88-1.38-1.5-2.88-1.85-4.47,0-.01-.01-.02-.02-.04,0-.03-.02-.06-.04-.09-.02-.02-.03-.05-.05-.07-.02-.02-.04-.04-.06-.06-.02-.02-.05-.03-.07-.05-.03-.01-.05-.02-.08-.03-.03,0-.06-.02-.09-.02-.02,0-.03,0-.04,0h-2.54c-.49,0-.89-.4-.89-.89v-3.61c0-.49.4-.89.89-.89h2.54c.06,0,.11-.01.17-.03.02,0,.03-.02.05-.03.03-.02.06-.04.09-.06.02-.02.03-.03.04-.05.02-.03.04-.05.06-.08.01-.02.02-.04.03-.06,0-.02.02-.03.02-.04.35-1.59.98-3.09,1.85-4.47,0-.01,0-.03.02-.04.02-.03.02-.06.03-.09,0-.03.01-.06.02-.08,0-.03,0-.06,0-.09,0-.03,0-.06-.02-.09,0-.03-.02-.05-.03-.08-.02-.03-.03-.05-.05-.08,0-.01-.01-.02-.02-.03l-1.8-1.8c-.17-.17-.26-.39-.26-.63s.09-.46.26-.63l2.55-2.55c.35-.35.91-.35,1.26,0l1.8,1.8s0,0,0,0c.04.04.09.07.13.09.01,0,.02,0,.03.01.05.02.1.03.15.03s.1-.01.15-.03c.02,0,.03-.01.04-.02.02,0,.03-.01.05-.02,1.38-.88,2.88-1.5,4.47-1.85.01,0,.02-.01.04-.02.03,0,.06-.02.09-.04.02-.02.05-.03.07-.05.02-.02.04-.04.06-.06.02-.02.03-.05.05-.07.01-.02.02-.05.03-.08,0-.03.02-.06.02-.09,0-.01,0-.03,0-.04V1.81c0-.49.4-.89.89-.89h3.61c.49,0,.89.4.89.89v8.35c-.85-.28-1.75-.43-2.69-.43-4.83,0-8.77,3.93-8.77,8.77s3.93,8.77,8.77,8.77c.94,0,1.85-.15,2.69-.43v8.35ZM29.21,26.34c-4.33,0-7.84-3.52-7.84-7.84s3.52-7.84,7.84-7.84,7.84,3.52,7.84,7.84-3.52,7.84-7.84,7.84ZM47.64,19.24c-.41,0-.74-.33-.74-.74s.33-.74.74-.74.74.33.74.74-.33.74-.74.74ZM29.21,13.43c-2.79,0-5.07,2.27-5.07,5.07s2.27,5.07,5.07,5.07,5.07-2.27,5.07-5.07-2.27-5.07-5.07-5.07ZM29.21,22.65c-2.29,0-4.15-1.86-4.15-4.15s1.86-4.15,4.15-4.15,4.15,1.86,4.15,4.15-1.86,4.15-4.15,4.15Z"/>
    </g>
  </g>
</svg>