<?xml version="1.0" encoding="UTF-8"?>
<svg id="Layer_2" xmlns="http://www.w3.org/2000/svg" xmlns:xlink="http://www.w3.org/1999/xlink" viewBox="0 0 60 37">
  <defs>
    <style>
      .cls-1 {
        fill: none;
      }

      .cls-2 {
        fill: #f15f26;
        fill-rule: evenodd;
      }

      .cls-3 {
        clip-path: url(#clippath);
      }
    </style>
    <clipPath id="clippath">
      <rect class="cls-1" width="60" height="37"/>
    </clipPath>
  </defs>
  <g id="Layer_1-2" data-name="Layer_1">
    <g class="cls-3">
      <g>
        <path class="cls-2" d="M10.44,29.23c0,.34-.28.62-.62.62s-.62-.28-.62-.62V3.32c0-1.83,1.49-3.32,3.32-3.32h34.97c1.83,0,3.32,1.49,3.32,3.32v25.92c0,.34-.28.62-.62.62s-.62-.28-.62-.62V3.32c0-1.14-.93-2.07-2.07-2.07H12.52c-1.14,0-2.07.93-2.07,2.07v25.92h0Z"/>
        <path class="cls-2" d="M28.04,29.26c-.95-.01-1.38-.86-.78-1.38.64-.56,1.82-.21,1.84.57,0,.3.25.53.56.53.3-.01.53-.25.53-.56-.02-.93-.73-1.64-1.61-1.84v-1.39c0-.3-.24-.55-.55-.55s-.55.24-.55.55v1.39c-.36.08-.68.24-.95.47-1.37,1.16-.5,3.29,1.49,3.3.53,0,1.07.32,1.07.82,0,1.06-2.1,1.09-2.12-.01-.01-.3-.27-.55-.56-.53-.3,0-.55.25-.53.56.02,1.03.74,1.65,1.6,1.83v1.41c0,.29.24.55.55.55s.55-.25.55-.55v-1.41c.87-.19,1.61-.81,1.61-1.84,0-1.13-1.01-1.92-2.16-1.92ZM28.04,29.26c-.95-.01-1.38-.86-.78-1.38.64-.56,1.82-.21,1.84.57,0,.3.25.53.56.53.3-.01.53-.25.53-.56-.02-.93-.73-1.64-1.61-1.84v-1.39c0-.3-.24-.55-.55-.55s-.55.24-.55.55v1.39c-.36.08-.68.24-.95.47-1.37,1.16-.5,3.29,1.49,3.3.53,0,1.07.32,1.07.82,0,1.06-2.1,1.09-2.12-.01-.01-.3-.27-.55-.56-.53-.3,0-.55.25-.53.56.02,1.03.74,1.65,1.6,1.83v1.41c0,.29.24.55.55.55s.55-.25.55-.55v-1.41c.87-.19,1.61-.81,1.61-1.84,0-1.13-1.01-1.92-2.16-1.92ZM39.25,19c-3.19,0-5.94,2.07-6.86,5.03-1.32-.97-2.93-1.49-4.61-1.42.95-4.46-2.45-8.68-7.03-8.68-3.98,0-7.19,3.23-7.19,7.19s3.4,7.36,7.49,7.19c-.95,4.47,2.47,8.68,7.03,8.68,3.18,0,5.94-2.07,6.86-5.04,1.2.9,2.69,1.43,4.31,1.43,3.97,0,7.19-3.23,7.19-7.19s-3.23-7.19-7.19-7.19ZM16.43,25.44c-2.38-2.38-2.38-6.25,0-8.62,2.39-2.38,6.25-2.38,8.63,0,2.38,2.38,2.38,6.25,0,8.62-2.39,2.38-6.25,2.38-8.63,0ZM28.09,35.91c-4.05,0-6.94-3.88-5.87-7.74,2.39-.49,4.35-2.18,5.24-4.43,1.72-.18,3.38.35,4.67,1.48-.29,2.22.45,4.38,1.92,5.92-.62,2.77-3.08,4.77-5.95,4.77ZM43.56,30.5c-2.38,2.38-6.23,2.38-8.62,0-2.38-2.38-2.38-6.25,0-8.62,2.39-2.38,6.25-2.38,8.62,0,2.39,2.38,2.39,6.25,0,8.62ZM42.25,22.42l-3,3-3-3c-.22-.22-.56-.22-.78,0-.21.22-.21.56,0,.78l2.45,2.44h-1.35c-.3,0-.55.25-.55.55s.24.56.55.56h2.12v.55h-2.12c-.3,0-.55.24-.55.55s.24.55.55.55h2.12v2.09c0,.3.24.55.55.55s.55-.24.55-.55v-2.09h2.12c.3,0,.55-.24.55-.55s-.24-.55-.55-.55h-2.12v-.55h2.12c.3,0,.55-.25.55-.56s-.24-.55-.55-.55h-1.35l2.44-2.44c.22-.22.22-.56,0-.78-.21-.22-.56-.22-.76,0ZM29.1,28.45c0,.3.25.53.56.53.3-.01.53-.25.53-.56-.02-.93-.73-1.64-1.61-1.84v-1.39c0-.3-.24-.55-.55-.55s-.55.24-.55.55v1.39c-.36.08-.68.24-.95.47-1.37,1.16-.5,3.29,1.49,3.3.53,0,1.07.32,1.07.82,0,1.06-2.1,1.09-2.12-.01-.01-.3-.27-.55-.56-.53-.3,0-.55.25-.53.56.02,1.03.74,1.65,1.6,1.83v1.41c0,.29.24.55.55.55s.55-.25.55-.55v-1.41c.87-.19,1.61-.81,1.61-1.84,0-1.13-1.01-1.92-2.16-1.92-.95-.01-1.38-.86-.78-1.38.64-.56,1.82-.21,1.84.57Z"/>
        <path class="cls-2" d="M23.96,23.78c-.62,1.08-1.77,1.77-3.03,1.77-1.6,0-2.83-1.56-3.29-3.03h-.75c-.3,0-.55-.24-.55-.55s.24-.55.55-.55h.52v-.59h-.52c-.3,0-.55-.24-.55-.55s.24-.55.55-.55h.75c.46-1.47,1.69-3.03,3.29-3.03,1.31,0,2.49.74,3.09,1.88.15.27.04.59-.22.74-.27.13-.61.04-.74-.23-.42-.79-1.22-1.3-2.13-1.3-.97,0-1.77,1.06-2.13,1.94h1.9c.3,0,.55.24.55.55s-.24.55-.55.55h-2.18v.59h2.18c.3,0,.55.24.55.55s-.24.55-.55.55h-1.9c.36.89,1.16,1.94,2.13,1.94.87,0,1.66-.49,2.09-1.22.16-.25.49-.35.75-.21.25.16.35.49.19.75Z"/>
        <path class="cls-2" d="M39.86,11.58h5.99c.34,0,.62-.28.62-.62s-.28-.62-.62-.62h-5.99c-.34,0-.62.28-.62.62s.28.62.62.62h0Z"/>
        <path class="cls-2" d="M27.01,11.58h5.99c.34,0,.62-.28.62-.62s-.28-.62-.62-.62h-5.99c-.34,0-.62.28-.62.62s.28.62.62.62h0Z"/>
        <path class="cls-2" d="M20.46,2.62h-6.62c-.67,0-1.23.55-1.23,1.23v2.69c0,.66.55,1.23,1.23,1.23h6.62c.33,0,.65-.14.87-.36.22-.23.36-.54.36-.87v-2.69c0-.67-.55-1.23-1.23-1.23ZM20.44,6.52h-6.6v-2.66h6.6v2.66Z"/>
        <path class="cls-2" d="M14.15,11.58h5.99c.34,0,.62-.28.62-.62s-.28-.62-.62-.62h-5.99c-.34,0-.62.28-.62.62s.28.62.62.62Z"/>
      </g>
    </g>
  </g>
</svg>