<?xml version="1.0" encoding="UTF-8"?>
<svg id="Layer_2" xmlns="http://www.w3.org/2000/svg" xmlns:xlink="http://www.w3.org/1999/xlink" viewBox="0 0 60 37">
  <defs>
    <style>
      .cls-1 {
        fill: none;
      }

      .cls-2 {
        fill: #f15f26;
      }

      .cls-3 {
        clip-path: url(#clippath);
      }
    </style>
    <clipPath id="clippath">
      <rect class="cls-1" width="60" height="37"/>
    </clipPath>
  </defs>
  <g id="Layer_1-2" data-name="Layer_1">
    <g class="cls-3">
      <path class="cls-2" d="M16.9,29.24c.4-.2.78-.48,1.12-.83.93-.96,1.44-2.33,1.39-3.75-.08-2.54-1.66-4.11-4.13-4.11h0c-2.46,0-4.04,1.58-4.13,4.11-.05,1.42.46,2.79,1.39,3.75.34.35.71.63,1.12.83-3.32.61-4.83,3.13-4.83,5.62v1.61c0,.29.24.53.53.53h11.84c.29,0,.53-.24.53-.53v-1.61c0-2.49-1.51-5.01-4.83-5.62ZM12.21,24.69c.06-1.96,1.19-3.09,3.07-3.09s3.01,1.13,3.07,3.09c.04,1.14-.36,2.23-1.09,2.99-.56.58-1.26.9-1.98.9s-1.42-.32-1.98-.9c-.73-.76-1.13-1.85-1.09-2.99ZM20.68,35.95h-10.79v-1.08c0-2.86,2.12-4.71,5.39-4.71s5.4,1.85,5.4,4.71v1.09ZM31.62,29.24c.4-.2.78-.48,1.12-.83.93-.96,1.44-2.33,1.39-3.75-.08-2.54-1.66-4.11-4.13-4.11h0c-2.46,0-4.04,1.58-4.13,4.11-.05,1.42.46,2.79,1.39,3.75.34.35.71.63,1.12.83-3.32.61-4.83,3.13-4.83,5.62v1.61c0,.29.24.53.53.53h11.84c.29,0,.53-.24.53-.53v-1.61c0-2.49-1.51-5.01-4.83-5.62ZM26.92,24.69c.06-1.96,1.19-3.09,3.07-3.09s3.01,1.13,3.07,3.09c.04,1.14-.36,2.23-1.09,2.99-.56.58-1.26.9-1.98.9s-1.42-.32-1.98-.9c-.73-.76-1.13-1.85-1.09-2.99ZM35.39,35.95h-10.78v-1.08c0-2.86,2.12-4.71,5.39-4.71s5.39,1.85,5.39,4.71v1.08ZM46.33,29.24c.4-.2.78-.48,1.12-.83.93-.96,1.44-2.33,1.39-3.75-.08-2.54-1.66-4.11-4.13-4.11h0c-2.46,0-4.04,1.58-4.13,4.11-.05,1.42.46,2.79,1.39,3.75.34.35.71.63,1.12.83-3.32.61-4.83,3.13-4.83,5.62v1.61c0,.29.24.53.53.53h11.84c.29,0,.53-.24.53-.53v-1.61c0-2.49-1.51-5.01-4.83-5.62ZM41.64,24.69c.06-1.96,1.19-3.09,3.07-3.09s3.01,1.13,3.07,3.09c.04,1.14-.36,2.23-1.09,2.99-.56.58-1.26.9-1.98.9s-1.42-.32-1.98-.9c-.73-.76-1.13-1.85-1.09-2.99ZM50.1,35.95h-10.79v-1.08c0-2.86,2.12-4.71,5.39-4.71s5.39,1.85,5.39,4.71v1.08h0ZM36.32,4.56l-4.12-.47-1.72-3.77c-.09-.19-.27-.31-.48-.31s-.4.12-.48.31l-1.72,3.77-4.12.47c-.2.02-.38.16-.44.36s0,.41.15.55l3.05,2.8-.82,4.06c-.04.2.04.41.2.53.09.07.2.1.31.1.09,0,.18-.02.26-.07l3.6-2.04,3.61,2.04c.18.1.4.09.57-.03.17-.12.25-.33.2-.53l-.82-4.06,3.05-2.8c.15-.14.21-.35.15-.55-.06-.2-.23-.34-.44-.36ZM32.63,7.7c-.14.12-.2.31-.16.49l.65,3.23-2.86-1.62c-.08-.05-.17-.07-.26-.07s-.18.02-.26.07l-2.86,1.62.65-3.23c.04-.18-.02-.37-.16-.49l-2.42-2.23,3.27-.38c.18-.02.34-.14.42-.3l1.36-2.99,1.37,2.99c.08.17.24.28.42.3l3.27.38-2.42,2.23ZM21.95,8.76l-4.12-.47-1.72-3.77c-.09-.19-.27-.31-.48-.31s-.4.12-.48.31l-1.72,3.77-4.12.47c-.2.02-.38.16-.44.36s0,.41.15.55l3.05,2.8-.83,4.07c-.04.2.04.41.2.53.09.07.2.1.31.1.09,0,.18-.02.26-.07l3.61-2.04,3.61,2.04c.18.1.4.09.57-.03.17-.12.25-.33.2-.53l-.82-4.06,3.05-2.8c.15-.14.21-.35.15-.55-.05-.2-.23-.34-.43-.36ZM18.26,11.91c-.14.12-.2.31-.16.49l.65,3.23-2.86-1.62c-.08-.05-.17-.07-.26-.07s-.18.02-.26.07l-2.86,1.62.65-3.23c.04-.18-.02-.37-.16-.49l-2.42-2.23,3.27-.38c.18-.02.34-.14.42-.3l1.37-2.99,1.37,2.99c.08.17.24.28.42.3l3.27.38-2.43,2.23ZM39.99,16.55c-.04.2.04.41.2.53.17.12.39.13.57.03l3.61-2.04,3.61,2.04c.08.05.17.07.26.07.11,0,.22-.03.31-.1.17-.12.25-.33.2-.53l-.82-4.06,3.05-2.8c.15-.14.21-.35.15-.55s-.24-.34-.44-.36l-4.12-.47-1.72-3.77c-.09-.19-.27-.31-.48-.31s-.4.12-.48.31l-1.72,3.77-4.12.47c-.2.02-.38.16-.44.36s0,.41.15.55l3.05,2.8-.82,4.06ZM39.32,9.68l3.27-.38c.18-.02.34-.14.42-.3l1.37-2.99,1.37,2.99c.08.17.24.28.42.3l3.27.38-2.42,2.23c-.14.12-.2.31-.16.49l.65,3.23-2.86-1.62c-.08-.05-.17-.07-.26-.07s-.18.02-.26.07l-2.86,1.62.65-3.23c.04-.18-.02-.37-.16-.49l-2.43-2.23Z"/>
    </g>
  </g>
</svg>