<?xml version="1.0" encoding="UTF-8"?>
<svg id="Layer_2" xmlns="http://www.w3.org/2000/svg" xmlns:xlink="http://www.w3.org/1999/xlink" viewBox="0 0 60 37">
  <defs>
    <style>
      .cls-1 {
        fill: none;
      }

      .cls-2 {
        fill: #f15f26;
      }

      .cls-3 {
        clip-path: url(#clippath);
      }
    </style>
    <clipPath id="clippath">
      <rect class="cls-1" width="60" height="37"/>
    </clipPath>
  </defs>
  <g id="Layer_1-2" data-name="Layer_1">
    <g class="cls-3">
      <path class="cls-2" d="M16.15,22.24v1.4c0,.5.41.9.9.9h3.08c1.15,0,2.09.94,2.09,2.09v1.73c0,1.15-.94,2.09-2.09,2.09h-.6v1.65c0,.33-.27.6-.6.6s-.6-.27-.6-.6v-1.65h-2.79c-.33,0-.6-.27-.6-.6s.27-.6.6-.6h4.58c.5,0,.9-.4.9-.9v-1.73c0-.5-.4-.9-.9-.9h-3.08c-1.15,0-2.09-.94-2.09-2.09v-1.4c0-1.15.94-2.09,2.09-2.09h1.3v-1.64c0-.33.27-.6.6-.6s.6.27.6.6v1.65h2.09c.33,0,.6.27.6.6s-.27.6-.6.6h-4.58c-.5,0-.9.4-.9.9ZM51.44,21.07c.03.38.04.73.04,1.06,0,5.65-3.16,10.57-7.8,13.08-.01,0-.02.02-.03.02-.03.02-.07.04-.11.05-2.07,1.09-4.43,1.71-6.93,1.71-2.88,0-5.66-.82-8.05-2.37-2.26,1.57-5.58,2.37-9.95,2.37-7.36,0-11.75-2.24-13.07-6.67-.82-2.76-.35-6.32,1.41-10.57.93-2.25,1.9-4.07,2.96-5.57.97-1.37,2.03-2.48,3.16-3.29-.02-.1-.03-.2-.03-.3v-.76c0-.12.01-.24.04-.36-.68-.62-1.24-1.32-1.66-2.11-.76-1.4-.95-2.78-.96-3.68,0-.35.06-.68.21-.98.14-.3.35-.57.62-.79.28-.22.58-.37.91-.43.32-.07.66-.06,1,.02.28.07.56.18.84.33.04-.23.12-.46.23-.66.16-.28.37-.51.63-.7.25-.18.54-.31.85-.37.31-.06.62-.05.94.03.62.16,1.2.23,1.74.23h.04c.52,0,.99-.08,1.4-.23.32-.12.65-.16.98-.12.33.04.65.16.94.35.28.18.52.42.69.71.17.29.26.61.28.95.01.2.02.39,0,.6.31-.08.6-.12.87-.14.56-.03,1.1.16,1.52.51.43.37.7.87.77,1.42.1.8.12,2.01-.35,3.17-.32.79-.81,1.42-1.46,1.9.02.11.03.22.03.34v.76c0,.1-.01.2-.03.3.5.36.99.78,1.46,1.25,2.39-2.64,5.62-4.33,9.16-4.78.17-.02.34.03.47.15.13.11.2.27.2.45v12.55h15.43c.33,0,.58.25.61.56h0ZM22.97,10.53v-.63h-8.74v.63h8.74ZM14.01,8.71h9.14c.61-.36,1.06-.89,1.33-1.56.4-.97.34-2.04.27-2.58-.03-.26-.16-.49-.36-.66-.2-.16-.45-.25-.7-.23-.36.02-.8.12-1.28.32-.05.02-.1.04-.15.06-.21.09-.45.05-.62-.1-.17-.15-.25-.37-.2-.59.03-.12.05-.22.07-.3.06-.33.08-.65.06-.95-.01-.16-.06-.31-.13-.43-.07-.12-.18-.23-.31-.32-.14-.09-.28-.15-.42-.16-.15-.02-.29,0-.44.06-.53.2-1.14.3-1.79.3-.66,0-1.35-.08-2.09-.27-.15-.04-.28-.04-.42-.02-.14.03-.27.08-.38.17-.13.09-.22.2-.29.32-.07.12-.11.26-.12.4-.02.25-.02.49,0,.73.02.24-.11.47-.32.58-.22.11-.47.08-.66-.08-.03-.03-.07-.06-.1-.08-.43-.33-.84-.55-1.21-.65-.09-.02-.17-.03-.26-.03-.07,0-.13,0-.2.02-.15.03-.29.1-.42.2-.13.1-.22.22-.29.36s-.1.29-.1.45c.02.77.17,1.94.82,3.14.4.72.92,1.36,1.56,1.92h0ZM18.6,35.82c6.76,0,10.78-1.96,11.93-5.82.74-2.49.28-5.78-1.37-9.78-.9-2.17-1.82-3.91-2.83-5.33-.95-1.35-1.99-2.41-3.09-3.16h-9.27c-1.1.75-2.14,1.81-3.09,3.16-1.01,1.42-1.93,3.17-2.83,5.33-1.65,3.99-2.12,7.29-1.37,9.78,1.14,3.86,5.15,5.82,11.92,5.82h0ZM36.61,35.82c2.1,0,4.09-.47,5.87-1.32l-8.15-13.07s0,0,0-.01c0-.01-.01-.02-.02-.03,0,0,0-.02-.01-.02,0-.01-.01-.02-.01-.03,0,0,0-.02-.01-.02,0-.01,0-.02-.01-.03,0-.01,0-.02,0-.03s0-.02,0-.03,0-.02,0-.03v-12.54c-3.03.53-5.78,2.07-7.84,4.38.31.36.61.75.9,1.16,1.06,1.5,2.03,3.32,2.96,5.57,1.76,4.25,2.24,7.81,1.42,10.57-.41,1.39-1.12,2.56-2.14,3.51,2.12,1.3,4.55,1.98,7.07,1.98h0ZM50.3,22.13c0-.14,0-.28,0-.43h-14.4l7.63,12.23c4.05-2.38,6.77-6.78,6.77-11.8h0ZM54.7,18.32c-.11.12-.27.19-.43.19h-16.03c-.33,0-.6-.27-.6-.6V4.76c0-.3.22-.55.52-.59.62-.08,1.25-.12,1.86-.12,3.79,0,7.39,1.42,10.16,4.01,2.75,2.57,4.41,6.06,4.68,9.8.02.16-.04.32-.15.45h0ZM53.61,17.32c-.8-6.82-6.65-12.07-13.59-12.07-.4,0-.79.02-1.19.05v12.02h14.78Z"/>
    </g>
  </g>
</svg>