<svg id="maintenance" xmlns="http://www.w3.org/2000/svg" viewBox="0 0 40 40"><defs><style>.cls-1{fill:#3b82f6;}</style></defs><path class="cls-1" d="M31.6,24.79A12.55,12.55,0,1,0,20,32.54a12.46,12.46,0,0,0,4.8-1l-1.32-1.31a10.86,10.86,0,1,1,6.79-6.79l1.32,1.31Z"/><path class="cls-1" d="M.36,23.77a.86.86,0,0,0-.3,1l2.47,5.93a.83.83,0,0,0,.92.51L6,30.77,9.23,34l-.45,2.59a.83.83,0,0,0,.51.92l5.93,2.47a.86.86,0,0,0,1-.3l1.51-2.14h4.51l1.52,2.14a.84.84,0,0,0,.68.36,1,1,0,0,0,.33-.06l5.91-2.46-1.29-1.29-4.65,1.92-1.37-1.94a.87.87,0,0,0-.69-.36H17.32a.89.89,0,0,0-.7.36l-1.37,1.94-4.69-1.94L11,33.82a.87.87,0,0,0-.24-.74L6.92,29.27A.87.87,0,0,0,6.18,29l-2.35.4L1.89,24.75l2-1.37a.84.84,0,0,0,.35-.69V17.31a.86.86,0,0,0-.35-.69L1.89,15.24l1.94-4.69L6.18,11a.84.84,0,0,0,.74-.24l3.81-3.8A.9.9,0,0,0,11,6.17l-.41-2.35,4.69-1.94,1.37,2a.85.85,0,0,0,.7.35H22.7a.83.83,0,0,0,.69-.35l1.37-1.95,4.69,1.94-.4,2.35a.87.87,0,0,0,.23.75l3.81,3.8a.84.84,0,0,0,.74.24l2.35-.41,1.94,4.69-1.94,1.38a.84.84,0,0,0-.36.69v5.38a.82.82,0,0,0,.36.69l1.94,1.37L36.2,29.4l1.29,1.29,2.44-5.91a.83.83,0,0,0-.28-1l-2.14-1.52v-4.5l2.14-1.52a.84.84,0,0,0,.28-1L37.48,9.28a.84.84,0,0,0-.93-.51L34,9.22,30.78,6l.45-2.58a.85.85,0,0,0-.51-.93L24.79.07a.84.84,0,0,0-1,.28L22.25,2.49h-4.5L16.23.35a.83.83,0,0,0-1-.28L9.28,2.52a.84.84,0,0,0-.5.93L9.22,6,6,9.22,3.44,8.77a.84.84,0,0,0-.91.51L.06,15.21a.85.85,0,0,0,.3,1L2.5,17.75v4.5L.36,23.77Z"/><path class="cls-1" d="M35.06,38.58a3.53,3.53,0,0,0,2.5-6l-9.8-9.8A8.23,8.23,0,0,0,16.2,12.69.85.85,0,0,0,16,14l5,5-.49,1.45L19.09,21l-5-5a.87.87,0,0,0-.72-.23.84.84,0,0,0-.62.44,8.23,8.23,0,0,0,10,11.56l9.8,9.8a3.54,3.54,0,0,0,2.51,1ZM23,25.92a.92.92,0,0,0-.33.06,6.54,6.54,0,0,1-8.87-7.91l4.51,4.5a.81.81,0,0,0,.86.2L21.48,22a.87.87,0,0,0,.53-.53l.79-2.35a.83.83,0,0,0-.2-.86l-4.51-4.51A6.54,6.54,0,0,1,26,22.61a.85.85,0,0,0,.18.93l10.19,10.2a1.85,1.85,0,0,1-2.61,2.61L23.56,26.16a.86.86,0,0,0-.6-.25Z"/></svg>