<svg id="ui_ux" data-name="ui/ux" xmlns="http://www.w3.org/2000/svg" xmlns:xlink="http://www.w3.org/1999/xlink" viewBox="0 0 20.87 40"><defs><style>.cls-1{fill:none;}.cls-2{clip-path:url(#clip-path);}.cls-3{fill:#3b82f6;}</style><clipPath id="clip-path" transform="translate(-9.56)"><rect class="cls-1" width="40" height="40"/></clipPath></defs><g class="cls-2"><path class="cls-3" d="M26.44,17.06H13.56a1.16,1.16,0,0,1-1.17-1.17V5.77A1.17,1.17,0,0,1,13.56,4.6H26.49a1.16,1.16,0,0,1,1.16,1.17V15.89A1.23,1.23,0,0,1,26.44,17.06ZM13.56,5.16a.57.57,0,0,0-.56.56V15.85a.57.57,0,0,0,.56.56H26.49a.56.56,0,0,0,.55-.56V5.77a.56.56,0,0,0-.55-.56H13.56Z" transform="translate(-9.56)"/><path class="cls-3" d="M26.44,17.19H13.56a1.28,1.28,0,0,1-1.29-1.3V5.77a1.28,1.28,0,0,1,1.29-1.29H26.48a1.28,1.28,0,0,1,1.3,1.29V15.89A1.37,1.37,0,0,1,26.44,17.19ZM13.56,4.73a1,1,0,0,0-1,1V15.89a1,1,0,0,0,1,1.05H26.44a1.11,1.11,0,0,0,1.09-1.05V5.77a1,1,0,0,0-1.05-1Zm12.92,11.8H13.56a.69.69,0,0,1-.68-.68V5.72A.69.69,0,0,1,13.56,5h.13v0H26.48a.69.69,0,0,1,.69.68V15.85A.7.7,0,0,1,26.48,16.53Zm-13-11.22a.44.44,0,0,0-.31.41V15.85a.43.43,0,0,0,.43.43H26.48a.43.43,0,0,0,.44-.43V5.77a.44.44,0,0,0-.44-.44h-13Z" transform="translate(-9.56)"/><path class="cls-3" d="M27.56,19.58H12.44a.28.28,0,1,1,0-.56H27.56a.28.28,0,1,1,0,.56Z" transform="translate(-9.56)"/><path class="cls-3" d="M27.56,19.7H12.44a.4.4,0,0,1,0-.8H27.56a.4.4,0,1,1,0,.8Zm-15.12-.56a.16.16,0,0,0,0,.32H27.56a.16.16,0,0,0,0-.32Z" transform="translate(-9.56)"/><path class="cls-3" d="M27.56,21.59H12.44a.28.28,0,0,1,0-.56H27.56a.28.28,0,0,1,0,.56Z" transform="translate(-9.56)"/><path class="cls-3" d="M27.56,21.71H12.44a.41.41,0,0,1,0-.81H27.56a.41.41,0,0,1,0,.81Zm-15.12-.56a.18.18,0,0,0-.15.16.17.17,0,0,0,.15.15H27.56a.17.17,0,0,0,.15-.15.18.18,0,0,0-.15-.16Z" transform="translate(-9.56)"/><path class="cls-3" d="M27.56,23.59H12.44a.28.28,0,0,1,0-.56H27.56a.3.3,0,0,1,.28.28A.27.27,0,0,1,27.56,23.59Z" transform="translate(-9.56)"/><path class="cls-3" d="M27.56,23.72H12.44a.42.42,0,0,1-.4-.41.41.41,0,0,1,.4-.4H27.56a.41.41,0,0,1,.4.4A.39.39,0,0,1,27.56,23.72Zm-15.12-.56a.17.17,0,0,0-.15.15.18.18,0,0,0,.15.16H27.56a.15.15,0,0,0,.15-.16.17.17,0,0,0-.15-.15Z" transform="translate(-9.56)"/><path class="cls-3" d="M18.41,31H14.87a.64.64,0,0,1-.66-.65V26.77a.64.64,0,0,1,.66-.66h3.54a.64.64,0,0,1,.66.66v3.54A.64.64,0,0,1,18.41,31Zm-3.54-4.29a.11.11,0,0,0-.1.1v3.54a.1.1,0,0,0,.1.09h3.54a.1.1,0,0,0,.1-.09V26.77a.11.11,0,0,0-.1-.1Z" transform="translate(-9.56)"/><path class="cls-3" d="M18.41,31.09H14.87a.76.76,0,0,1-.78-.78V26.77a.76.76,0,0,1,.78-.78h3.54a.76.76,0,0,1,.78.78v3.54A.76.76,0,0,1,18.41,31.09Zm-3.54-4.85a.51.51,0,0,0-.53.53v3.54a.51.51,0,0,0,.53.53h3.54a.51.51,0,0,0,.53-.53V26.77a.51.51,0,0,0-.53-.53Zm3.54,4.29H14.87a.22.22,0,0,1-.22-.22V26.77a.22.22,0,0,1,.22-.22h3.54a.22.22,0,0,1,.22.22v3.54A.22.22,0,0,1,18.41,30.53Zm-3.51-.25h3.48V26.8H14.9Z" transform="translate(-9.56)"/><path class="cls-3" d="M25.09,31H21.54a.64.64,0,0,1-.65-.65V26.77a.64.64,0,0,1,.65-.66h3.55a.64.64,0,0,1,.65.66v3.54A.61.61,0,0,1,25.09,31Zm-3.5-4.29a.11.11,0,0,0-.1.1v3.54a.1.1,0,0,0,.1.09h3.54a.1.1,0,0,0,.1-.09V26.77a.11.11,0,0,0-.1-.1Z" transform="translate(-9.56)"/><path class="cls-3" d="M25.09,31.09H21.54a.76.76,0,0,1-.78-.78V26.77a.76.76,0,0,1,.78-.78h3.55a.75.75,0,0,1,.77.78v3.54a.61.61,0,0,1-.16.51A.82.82,0,0,1,25.09,31.09Zm-3.55-4.85a.51.51,0,0,0-.53.53v3.54a.51.51,0,0,0,.53.53h3.55a.58.58,0,0,0,.42-.18.45.45,0,0,0,.11-.33V26.77a.51.51,0,0,0-.52-.53Zm3.59,4.29H21.59a.22.22,0,0,1-.22-.22V26.77a.22.22,0,0,1,.22-.22h3.54a.22.22,0,0,1,.22.22v3.54A.22.22,0,0,1,25.13,30.53Zm-3.51-.25H25.1V26.8H21.62Z" transform="translate(-9.56)"/><path class="cls-3" d="M26.07,36.19H13.89a1.5,1.5,0,1,1,0-3H26.07a1.48,1.48,0,0,1,1.49,1.5A1.45,1.45,0,0,1,26.07,36.19ZM13.89,33.76a.94.94,0,1,0,0,1.87H26.07a.94.94,0,0,0,0-1.87Z" transform="translate(-9.56)"/><path class="cls-3" d="M26.07,36.31H13.89a1.62,1.62,0,1,1,0-3.23H26.07a1.6,1.6,0,0,1,1.61,1.62,1.42,1.42,0,0,1-.41,1.1A1.62,1.62,0,0,1,26.07,36.31Zm-12.18-3a1.37,1.37,0,0,0,0,2.74H26.07a1.39,1.39,0,0,0,1-.44,1.23,1.23,0,0,0,.34-.93,1.35,1.35,0,0,0-1.36-1.37Zm12.18,2.42H13.89a1.06,1.06,0,1,1,0-2.11H26.07a1.06,1.06,0,0,1,0,2.11ZM13.89,33.89a.81.81,0,0,0,0,1.62H26.07a.81.81,0,0,0,0-1.62Z" transform="translate(-9.56)"/><path class="cls-3" d="M28.44.12H11.55A1.87,1.87,0,0,0,9.69,2V38a1.87,1.87,0,0,0,1.86,1.87H28.44A1.87,1.87,0,0,0,30.31,38V2A1.87,1.87,0,0,0,28.44.12ZM20,1.06a.36.36,0,0,1,.37.37.37.37,0,0,1-.74,0A.39.39,0,0,1,20,1.06ZM29.75,38a.78.78,0,0,1-.05.33H10.3a.78.78,0,0,1-.05-.33V2A1.31,1.31,0,0,1,11.55.68h4.86A1.82,1.82,0,0,1,18,1.57a2.18,2.18,0,0,0,1.86,1h.42a2.25,2.25,0,0,0,1.87-1A1.8,1.8,0,0,1,23.64.68h4.85A1.34,1.34,0,0,1,29.8,2V38Z" transform="translate(-9.56)"/><path class="cls-3" d="M28.45,40H11.55a2,2,0,0,1-2-2V2a2,2,0,0,1,2-2h16.9a2,2,0,0,1,2,2V38A2,2,0,0,1,28.45,40ZM11.55.25A1.74,1.74,0,0,0,9.81,2V38a1.74,1.74,0,0,0,1.74,1.74h16.9A1.74,1.74,0,0,0,30.19,38V2A1.74,1.74,0,0,0,28.45.25ZM29.78,38.46H10.22l0-.07a.89.89,0,0,1-.06-.38V2A1.44,1.44,0,0,1,11.55.56h4.86a1.9,1.9,0,0,1,1.64,1,2.08,2.08,0,0,0,1.76,1h.42A2.14,2.14,0,0,0,22,1.5,1.89,1.89,0,0,1,23.64.56h4.85A1.47,1.47,0,0,1,29.92,2V38.13h-.05a.58.58,0,0,1-.05.26Zm-19.39-.25H29.61a.71.71,0,0,0,0-.2v-.12h0V2A1.21,1.21,0,0,0,28.49.81H23.64a1.68,1.68,0,0,0-1.43.82,2.39,2.39,0,0,1-2,1.09h-.42a2.32,2.32,0,0,1-2-1.08A1.68,1.68,0,0,0,16.41.81H11.55A1.18,1.18,0,0,0,10.37,2V38A.71.71,0,0,0,10.39,38.21ZM20,1.93a.5.5,0,0,1-.5-.5.52.52,0,0,1,.5-.5.5.5,0,0,1,.5.5A.49.49,0,0,1,20,1.93Zm0-.75a.28.28,0,0,0-.25.25A.25.25,0,1,0,20,1.18Z" transform="translate(-9.56)"/></g></svg>