<svg xmlns="http://www.w3.org/2000/svg" viewBox="0 0 45 34"><defs><style>.cls-1{fill:#092f5c;}.cls-2{fill:#fff;}</style></defs><title>after-effects_2</title><g id="Layer_2" data-name="Layer 2"><g id="Layer_1-2" data-name="Layer 1"><rect class="cls-1" width="45" height="34" rx="7.72" ry="7.72"/></g><g id="after_effects" data-name="after effects"><g id="_2069a460dcf28295e231f3111e02fda7" data-name="2069a460dcf28295e231f3111e02fda7"><path class="cls-2" d="M19.11,15.15l.83,2.59H17.25l.81-2.59c.18-.62.34-1.35.49-2h0C18.74,13.8,18.91,14.51,19.11,15.15Zm8.46.56a1.88,1.88,0,0,0-1.76,1.86h3.33A1.63,1.63,0,0,0,27.57,15.71Zm5.92-6.05V24.32A3.67,3.67,0,0,1,29.83,28H15.17a3.67,3.67,0,0,1-3.66-3.66V9.66A3.67,3.67,0,0,1,15.17,6H29.83A3.67,3.67,0,0,1,33.49,9.66ZM23.27,22.16l-3.41-10.5H17.42l-3.37,10.5h2l.9-3h3.34l.95,3ZM31,18.09c0-1.66-.81-3.69-3.27-3.69S24,16.38,24,18.48a3.59,3.59,0,0,0,3.91,3.83,7.3,7.3,0,0,0,2.65-.46l-.28-1.33a5.69,5.69,0,0,1-2.11.35,2.06,2.06,0,0,1-2.33-2h5.07A3.82,3.82,0,0,0,31,18.09Z"/></g></g></g></svg>