<svg xmlns="http://www.w3.org/2000/svg" viewBox="0 0 45 34"><defs><style>.cls-1{fill:#092f5c;}.cls-2{fill:#fff;}</style></defs><title>blender_2</title><g id="Layer_2" data-name="Layer 2"><g id="Layer_1-2" data-name="Layer 1"><rect class="cls-1" width="45" height="34" rx="7.72" ry="7.72"/></g><g id="blender"><g id="_2069a460dcf28295e231f3111e0426ac" data-name="2069a460dcf28295e231f3111e0426ac"><path class="cls-2" d="M33.45,18a6.61,6.61,0,0,0-.94-2.56,7.12,7.12,0,0,0-1.64-1.83h0L24,8.33v0A1.48,1.48,0,0,0,23.08,8a1.65,1.65,0,0,0-.91.27.92.92,0,0,0-.43.71.83.83,0,0,0,.33.67c.45.35.89.71,1.33,1.07l1.32,1.06H16.26A1.6,1.6,0,0,0,14.5,13a1.22,1.22,0,0,0,.28,1,1.3,1.3,0,0,0,1,.47H20L12.3,20.14l0,0a1.94,1.94,0,0,0-.77,1.26,1.29,1.29,0,0,0,.24.95,1.32,1.32,0,0,0,1.08.49,2,2,0,0,0,1.26-.47L18.23,19a5.46,5.46,0,0,0,0,.58,5.4,5.4,0,0,0,.23,1.3,6.93,6.93,0,0,0,1.47,2.54,7.56,7.56,0,0,0,2.57,1.84,8.28,8.28,0,0,0,3.35.7h0a8.25,8.25,0,0,0,3.37-.71,7.79,7.79,0,0,0,2.56-1.85,6.81,6.81,0,0,0,1.46-2.55,6.27,6.27,0,0,0,.28-1.42A6.65,6.65,0,0,0,33.45,18ZM25.9,22.5a4.47,4.47,0,0,1-4.7-4.2,4.47,4.47,0,0,1,4.7-4.2,4.47,4.47,0,0,1,4.69,4.2A4.47,4.47,0,0,1,25.9,22.5Zm2.7-4.57a2.35,2.35,0,0,1-.72,1.81,2.89,2.89,0,0,1-4,0,2.32,2.32,0,0,1-.73-1.81A2.45,2.45,0,0,1,24,16.24a2.88,2.88,0,0,1,1.85-.66,2.84,2.84,0,0,1,1.85.66A2.37,2.37,0,0,1,28.6,17.93Z"/></g></g></g></svg>