<svg xmlns="http://www.w3.org/2000/svg" viewBox="0 0 45 34"><defs><style>.cls-1{fill:#092f5c;}.cls-2{fill:#fff;}</style></defs><title>corel-draw_2</title><g id="Layer_2" data-name="Layer 2"><g id="Layer_1-2" data-name="Layer 1"><rect class="cls-1" width="45" height="34" rx="7.72" ry="7.72"/></g><g id="corel"><g id="_2069a460dcf28295e231f3111e0396ed" data-name="2069a460dcf28295e231f3111e0396ed"><path class="cls-2" d="M21.79,25.93h1.42a.46.46,0,0,1,.46.46v1.14a.46.46,0,0,1-.46.46H21.79a.46.46,0,0,1-.46-.46V26.39a.46.46,0,0,1,.46-.46ZM15.9,12.27c0,3.5,3,9,5.74,12.73h.27C19.82,21.19,18,16.49,18,12.78c0-3.36,1.36-5.5,3.21-6.72q-.61.06-1.23.18a6.08,6.08,0,0,0-4.1,6ZM22,6a10.38,10.38,0,0,0-1.89,6.45A48.49,48.49,0,0,0,22.14,25h.72a48.49,48.49,0,0,0,2.08-12.53A10.38,10.38,0,0,0,23.05,6,10.09,10.09,0,0,0,22,6Zm7.15,6.25c0,3.5-3,9-5.74,12.73h-.27C25.18,21.19,27,16.49,27,12.78c0-3.36-1.36-5.5-3.21-6.72q.61.06,1.23.18a6.08,6.08,0,0,1,4.1,6ZM23.55,25c3.08-3.24,6.57-8.65,6.59-12.82a5.78,5.78,0,0,0-3-5.29,5.58,5.58,0,0,1,3.74,5.36c0,4.24-4.08,9.83-7.31,12.75Zm-2.1,0c-3.08-3.24-6.57-8.65-6.59-12.82a5.78,5.78,0,0,1,3-5.29,5.58,5.58,0,0,0-3.74,5.36c0,4.24,4.08,9.83,7.31,12.75Z"/></g></g></g></svg>