<svg xmlns="http://www.w3.org/2000/svg" viewBox="0 0 45 34"><defs><style>.cls-1{fill:#092f5c;}.cls-2{fill:#fefefe;}</style></defs><title>figma</title><g id="Layer_2" data-name="Layer 2"><g id="Layer_1-2" data-name="Layer 1"><rect class="cls-1" width="45" height="34" rx="7.72" ry="7.72"/></g><g id="figma"><path class="cls-2" d="M29,13.63a4.36,4.36,0,0,0,.4-.35,4.25,4.25,0,0,0,0-6A4.84,4.84,0,0,0,25.91,6H20.09a4.84,4.84,0,0,0-3.52,1.32,4.25,4.25,0,0,0,0,6l.18.17a2.43,2.43,0,0,0,.25.2l-.23.18-.2.19a4.25,4.25,0,0,0,0,6c.13.12.26.24.4.35a4.26,4.26,0,0,0-1.3,1.72,4.33,4.33,0,0,0-.24,2.49,4.21,4.21,0,0,0,1.18,2.2,4.31,4.31,0,0,0,4.69.94,4.29,4.29,0,0,0,1.93-1.59A4.34,4.34,0,0,0,24,23.7V20.58a4.25,4.25,0,0,0,2.39.73A4.31,4.31,0,0,0,29,13.63ZM22,23.7A2.39,2.39,0,0,1,21.63,25a2.34,2.34,0,0,1-1.07.87,2.38,2.38,0,1,1-.91-4.58H22Zm0-4.31H20.09a3,3,0,0,1-2.17-.77,2.32,2.32,0,0,1,0-3.24,3,3,0,0,1,2.17-.77H22Zm0-6.7H20.09a3,3,0,0,1-2.17-.76,2.29,2.29,0,0,1-.66-1.63,2.25,2.25,0,0,1,.66-1.62,3,3,0,0,1,2.17-.77H22Zm4.31,6.69A2.38,2.38,0,1,1,28.73,17,2.39,2.39,0,0,1,26.35,19.38Zm1.73-7.45a3,3,0,0,1-2.17.76H24V7.91h1.95a3,3,0,0,1,2.17.77,2.25,2.25,0,0,1,.66,1.62A2.29,2.29,0,0,1,28.08,11.93Z"/></g></g></svg>