<svg xmlns="http://www.w3.org/2000/svg" viewBox="0 0 45 34"><defs><style>.cls-1{fill:#092f5c;}.cls-2{fill:#fff;}</style></defs><title>indesign_3</title><g id="Layer_2" data-name="Layer 2"><g id="Layer_1-2" data-name="Layer 1"><rect class="cls-1" width="45" height="34" rx="7.72" ry="7.72"/></g><g id="indesign"><g id="_2069a460dcf28295e231f3111e035a9d" data-name="2069a460dcf28295e231f3111e035a9d"><path class="cls-2" d="M26,17.55a2.92,2.92,0,0,1,0,.5V19.2a2.47,2.47,0,0,1-.06.56,1.7,1.7,0,0,1-1.66,1.36c-1.22,0-1.91-1-1.91-2.41s.69-2.51,1.93-2.51A1.67,1.67,0,0,1,26,17.55Zm7.5-7.87V24.39a3.68,3.68,0,0,1-3.68,3.67H15.15a3.68,3.68,0,0,1-3.68-3.67V9.68A3.68,3.68,0,0,1,15.15,6h14.7A3.68,3.68,0,0,1,33.53,9.68ZM18.86,12H16.94V22.49h1.92Zm9.2,10.53C28,22,28,21.13,28,20.35v-9H26.08v4.31h0a2.45,2.45,0,0,0-2.14-1c-1.83,0-3.43,1.52-3.41,4.06,0,2.35,1.44,3.9,3.25,3.9a2.77,2.77,0,0,0,2.49-1.38h0l.07,1.2Z"/></g></g></g></svg>