<svg xmlns="http://www.w3.org/2000/svg" viewBox="0 0 45 34"><defs><style>.cls-1{fill:#092f5c;}.cls-2{fill:#fff;}</style></defs><title>lightroom_2</title><g id="Layer_2" data-name="Layer 2"><g id="Layer_1-2" data-name="Layer 1"><rect class="cls-1" width="45" height="34" rx="7.72" ry="7.72"/></g><g id="lightroom"><g id="_2069a460dcf28295e231f3111e03674e" data-name="2069a460dcf28295e231f3111e03674e"><path class="cls-2" d="M29.85,6H15.15a3.68,3.68,0,0,0-3.68,3.68V24.39a3.68,3.68,0,0,0,3.68,3.67h14.7a3.68,3.68,0,0,0,3.68-3.67V9.68A3.68,3.68,0,0,0,29.85,6Zm-7,16.3H16.55V11.76h1.93v8.93h4.33Zm5.64-5.93a2.84,2.84,0,0,0-.57-.06,1.71,1.71,0,0,0-1.72,1.46,3.35,3.35,0,0,0-.06.59V22.3H24.18V17.14c0-1,0-1.77-.06-2.45h1.67l.06,1.45h.06A2.28,2.28,0,0,1,28,14.51a2.16,2.16,0,0,1,.46.05v1.81Z"/></g></g></g></svg>