<svg xmlns="http://www.w3.org/2000/svg" viewBox="0 0 45 34"><defs><style>.cls-1{fill:#092f5c;}.cls-2{fill:#fff;}</style></defs><title>photoshop_2</title><g id="Layer_2" data-name="Layer 2"><g id="Layer_1-2" data-name="Layer 1"><rect class="cls-1" width="45" height="34" rx="7.72" ry="7.72"/></g><g id="photoshop"><g id="_2069a460dcf28295e231f3111e037552" data-name="2069a460dcf28295e231f3111e037552"><path class="cls-2" d="M29.85,6H15.15a3.68,3.68,0,0,0-3.68,3.68V24.39a3.68,3.68,0,0,0,3.68,3.67h14.7a3.68,3.68,0,0,0,3.68-3.67V9.68A3.68,3.68,0,0,0,29.85,6ZM22,17.23a4.68,4.68,0,0,1-3.33,1.12,5.17,5.17,0,0,1-.94-.06v4h-1.9V11.87a16.07,16.07,0,0,1,2.93-.22,4.71,4.71,0,0,1,3.11.86,3,3,0,0,1,1,2.33A3.22,3.22,0,0,1,22,17.23Zm4,5.19a4.8,4.8,0,0,1-2.31-.54l.37-1.39a4.26,4.26,0,0,0,2,.55c.84,0,1.21-.34,1.21-.84S27,19.41,26,19.09c-1.48-.52-2.11-1.33-2.09-2.22,0-1.35,1.11-2.39,2.88-2.39a4.39,4.39,0,0,1,2,.45l-.37,1.36a3.4,3.4,0,0,0-1.61-.44c-.69,0-1.07.33-1.07.8s.36.72,1.33,1.06c1.38.5,2,1.2,2,2.33C29.13,21.42,28.06,22.42,26,22.42Zm-5-7.51c0,1.24-.87,1.94-2.31,1.94a3.57,3.57,0,0,1-.94-.08V13.21a5.23,5.23,0,0,1,1.11-.09C20.21,13.12,21,13.74,21,14.91Z"/></g></g></g></svg>