<?xml version="1.0" encoding="UTF-8"?>
<svg xmlns="http://www.w3.org/2000/svg" version="1.1" xmlns:xlink="http://www.w3.org/1999/xlink" viewBox="0 0 91 120">
  <defs>
    <style>
      .cls-1 {
        fill: #ce3544;
      }

      .cls-2 {
        fill: #fff;
        fill-rule: evenodd;
      }

      .cls-3 {
        fill: none;
      }

      .cls-4 {
        clip-path: url(#clippath-1);
      }

      .cls-5 {
        display: none;
      }

      .cls-6 {
        clip-path: url(#clippath);
      }
    </style>
    <clipPath id="clippath">
      <rect class="cls-3" x="-178.4" y="-62.5" width="196" height="120"/>
    </clipPath>
    <clipPath id="clippath-1">
      <rect class="cls-3" x="144.4" width="196" height="120"/>
    </clipPath>
  </defs>
  <!-- Generator: Adobe Illustrator 28.6.0, SVG Export Plug-In . SVG Version: 1.2.0 Build 709)  -->
  <g>
    <g id="Venue_recommendation">
      <g class="cls-5">
        <g class="cls-6">
          <path class="cls-1" d="M-80.4-62.5c-25.1,0-45.5,20.4-45.5,45.5,0,33.6,42.3,72.3,44.1,73.9.8.7,2,.7,2.8,0,1.8-1.6,44.1-40.3,44.1-73.9,0-25.1-20.4-45.5-45.5-45.5ZM-80.4,52.6c-7.4-7-41.4-41.1-41.4-69.6s18.5-41.4,41.4-41.4,41.4,18.5,41.4,41.4-34,62.5-41.4,69.6Z"/>
          <path class="cls-1" d="M-80.4-45.9c-16,0-29,13-29,29s13,29,29,29S-51.4-.9-51.4-16.9s-13-29-29-29ZM-80.4,7.9c-13.7,0-24.8-11.1-24.8-24.8,0-13.7,11.1-24.8,24.8-24.8,13.7,0,24.8,11.1,24.8,24.8,0,13.7-11.1,24.8-24.8,24.8Z"/>
        </g>
      </g>
      <g class="cls-4">
        <path class="cls-2" d="M304.9,94.6h-5.1v-8.7c0-1.9-1.6-3.5-3.5-3.5h-13.6v-11c0-2.4-2-4.4-4.4-4.4h-34.7v-12.9c1.7,0,3.4-.4,5.1-.8.2,0,.4,0,.6-.1,6.5-1.8,12-5.9,15.5-11.3,0-.1.1-.2.2-.3,2.3-3.7,3.8-8,4.1-12.6,0-.2,0-.3,0-.5,0-.4,0-.8,0-1.3,0-6.5-2.3-12.4-6.1-17.1,0,0,0-.1-.1-.1-2.9-3.5-6.6-6.2-10.9-7.9-.1,0-.2,0-.3-.1-3-1.2-6.3-1.8-9.7-1.8s-6.7.7-9.7,1.8c-.1,0-.2,0-.3.1-4.2,1.7-8,4.4-10.9,7.9,0,0,0,0-.1.1-3.8,4.7-6.1,10.6-6.1,17.1s0,.9,0,1.3c0,.2,0,.3,0,.5.3,4.6,1.8,8.9,4.1,12.6,0,.1.1.2.2.3,3.6,5.5,9.1,9.6,15.5,11.3.2,0,.3.1.5.1,1.7.4,3.4.7,5.1.8v12.9h-34.3c-2.4,0-4.4,2-4.4,4.4v11h-13.6c-1.9,0-3.5,1.6-3.5,3.5v8.7h-5.1c-1.5,0-2.7,1.2-2.7,2.7v19.9c0,1.5,1.2,2.7,2.7,2.7h13.3c1.5,0,2.7-1.2,2.7-2.7v-19.9c0-1.5-1.2-2.7-2.7-2.7h-5.2v-8.7c0-.3.2-.5.5-.5h15.1s0,0,0,0h0s15.1,0,15.1,0c.3,0,.5.2.5.5v8.7h-5.1c-1.5,0-2.7,1.2-2.7,2.7v19.9c0,1.5,1.2,2.7,2.7,2.7h13.3c1.5,0,2.7-1.2,2.7-2.7v-19.9c0-1.5-1.2-2.7-2.7-2.7h-5.2v-8.7c0-1.9-1.6-3.5-3.5-3.5h-13.6v-11c0-.8.6-1.4,1.4-1.4h72c.8,0,1.4.6,1.4,1.4v11h-13.6c-1.9,0-3.5,1.6-3.5,3.5v8.7h-5.2c-1.5,0-2.7,1.2-2.7,2.7v19.9c0,1.5,1.2,2.7,2.7,2.7h13.3c1.5,0,2.7-1.2,2.7-2.7v-19.9c0-1.5-1.2-2.7-2.7-2.7h-5.1v-8.7c0-.3.2-.5.5-.5h15s0,0,0,0,0,0,0,0h15.1c.3,0,.5.2.5.5v8.7h-5.2c-1.5,0-2.7,1.2-2.7,2.7v19.9c0,1.5,1.2,2.7,2.7,2.7h13.3c1.5,0,2.7-1.2,2.7-2.7v-19.9c0-1.5-1.2-2.7-2.7-2.7ZM250.7,49.5l1.9-8,8.2.7c-2.6,3.3-6.1,5.8-10.1,7.4ZM262.8,39.3l-10.5-.9-3-4.2,2.9-8.9,4.9-1.6,9.1,5.5c-.3,3.6-1.5,7-3.3,10ZM262.3,13.9c2.3,3.5,3.6,7.5,3.9,11.9l-7.1-4.3,3.2-7.6ZM260.2,11.2l-4.1,9.8-4.9,1.6-7.6-5.5v-5.1l8-6.9c3.3,1.4,6.2,3.6,8.5,6.2ZM249.2,24.8l-2.7,8.3h-8.7l-2.7-8.3,7-5.1,7.1,5.1ZM242.2,3c2.2,0,4.3.3,6.3.9l-6.3,5.4-6.3-5.4c2-.5,4.1-.9,6.3-.9ZM232.6,5l8,6.9v5.1l-7.6,5.5-4.9-1.6-4.1-9.8c2.3-2.7,5.2-4.8,8.5-6.2ZM222,13.9l3.2,7.6-7.1,4.3c.2-4.4,1.6-8.4,3.9-11.9ZM221.5,39.3c-1.8-3-2.9-6.4-3.3-10l9.1-5.5,4.9,1.6,2.9,8.9-3,4.1-10.6.9ZM223.5,42.2l8.2-.7,1.9,8c-4-1.5-7.5-4.1-10.1-7.4ZM236.9,50.5l-2.4-10.3,3-4.2h9.4l3,4.2-2.4,10.3c-1.7.4-3.5.6-5.3.6s-3.6-.2-5.3-.6ZM192.8,117h-12.8v-19.4h12.8v19.4ZM226.9,117h-12.8v-19.4h12.8v19.4ZM270.6,117h-12.8v-19.4h12.8v19.4ZM304.7,117h-12.8v-19.4h12.8v19.4Z"/>
      </g>
    </g>
  </g>
</svg>