<?xml version="1.0" encoding="UTF-8"?>
<svg id="Layer_2" xmlns="http://www.w3.org/2000/svg" xmlns:xlink="http://www.w3.org/1999/xlink" viewBox="0 0 50 31">
  <defs>
    <style>
      .cls-1 {
        fill: #fff;
      }

      .cls-2 {
        fill: none;
      }

      .cls-3 {
        clip-path: url(#clippath);
      }
    </style>
    <clipPath id="clippath">
      <rect class="cls-2" width="50" height="31"/>
    </clipPath>
  </defs>
  <g id="Layer_1-2" data-name="Layer_1">
    <g class="cls-3">
      <g>
        <path class="cls-1" d="M39,2.86h-2.76V.52c0-.28-.23-.52-.52-.52h-2.15c-.28,0-.51.23-.51.52v2.34h-3.27V.52c0-.28-.23-.52-.51-.52h-2.15c-.28,0-.52.23-.52.52v2.34h-3.26V.52c0-.28-.23-.52-.52-.52h-2.15c-.27,0-.51.23-.51.52v2.34h-3.27V.52c0-.28-.22-.52-.51-.52h-2.15c-.28,0-.52.23-.52.52v2.34h-2.76c-1.63,0-2.96,1.33-2.96,2.96v22.24c0,1.62,1.33,2.95,2.96,2.95h28c1.63,0,2.96-1.33,2.96-2.95V5.82c0-1.63-1.33-2.96-2.96-2.96ZM34.1,1.02h1.11v4.7h-1.11V1.02ZM27.65,1.02h1.12v4.7h-1.12V1.02ZM21.22,1.02h1.12v4.7h-1.12V1.02ZM14.79,1.02h1.11v4.7h-1.11V1.02ZM40.94,28.05c0,1.06-.87,1.92-1.94,1.92H10.99c-1.06,0-1.92-.87-1.92-1.92V5.82c0-1.06.86-1.92,1.93-1.92h2.76v2.34c0,.28.23.52.52.52h2.15c.28,0,.51-.23.51-.52v-2.34h3.27v2.34c0,.28.23.52.51.52h2.15c.28,0,.52-.23.52-.52v-2.34h3.26v2.34c0,.28.23.52.52.52h2.15c.27,0,.51-.23.51-.52v-2.34h3.27v2.34c0,.28.22.52.51.52h2.15c.28,0,.52-.23.52-.52v-2.34h2.76c1.07,0,1.94.86,1.94,1.92v22.24Z"/>
        <path class="cls-1" d="M39,2.86h-2.76V.52c0-.28-.23-.52-.52-.52h-2.15c-.28,0-.51.23-.51.52v2.34h-3.27V.52c0-.28-.23-.52-.51-.52h-2.15c-.28,0-.52.23-.52.52v2.34h-3.26V.52c0-.28-.23-.52-.52-.52h-2.15c-.27,0-.51.23-.51.52v2.34h-3.27V.52c0-.28-.22-.52-.51-.52h-2.15c-.28,0-.52.23-.52.52v2.34h-2.76c-1.63,0-2.96,1.33-2.96,2.96v22.24c0,1.62,1.33,2.95,2.96,2.95h28c1.63,0,2.96-1.33,2.96-2.95V5.82c0-1.63-1.33-2.96-2.96-2.96ZM34.1,1.02h1.11v4.7h-1.11V1.02ZM27.65,1.02h1.12v4.7h-1.12V1.02ZM21.22,1.02h1.12v4.7h-1.12V1.02ZM14.79,1.02h1.11v4.7h-1.11V1.02ZM40.94,28.05c0,1.06-.87,1.92-1.94,1.92H10.99c-1.06,0-1.92-.87-1.92-1.92V5.82c0-1.06.86-1.92,1.93-1.92h2.76v2.34c0,.28.23.52.52.52h2.15c.28,0,.51-.23.51-.52v-2.34h3.27v2.34c0,.28.23.52.51.52h2.15c.28,0,.52-.23.52-.52v-2.34h3.26v2.34c0,.28.23.52.52.52h2.15c.27,0,.51-.23.51-.52v-2.34h3.27v2.34c0,.28.22.52.51.52h2.15c.28,0,.52-.23.52-.52v-2.34h2.76c1.07,0,1.94.86,1.94,1.92v22.24Z"/>
        <path class="cls-1" d="M37.88,12.16H12.12c-.28,0-.51.23-.51.52v14.3c0,.28.22.51.51.51h25.75c.28,0,.51-.22.51-.51v-14.3c0-.28-.22-.52-.51-.52ZM37.36,26.46H12.64v-13.28h24.72v13.28Z"/>
        <path class="cls-1" d="M37.88,12.16H12.12c-.28,0-.51.23-.51.52v14.3c0,.28.22.51.51.51h25.75c.28,0,.51-.22.51-.51v-14.3c0-.28-.22-.52-.51-.52ZM37.36,26.46H12.64v-13.28h24.72v13.28Z"/>
        <path class="cls-1" d="M17.91,20.74h-2.92c-.28,0-.52.23-.52.52v2.86c0,.28.23.52.52.52h2.92c.28,0,.52-.23.52-.52v-2.86c0-.28-.23-.52-.52-.52ZM17.4,23.6h-1.9v-1.83h1.9v1.83Z"/>
        <path class="cls-1" d="M17.91,20.74h-2.92c-.28,0-.52.23-.52.52v2.86c0,.28.23.52.52.52h2.92c.28,0,.52-.23.52-.52v-2.86c0-.28-.23-.52-.52-.52ZM17.4,23.6h-1.9v-1.83h1.9v1.83Z"/>
        <path class="cls-1" d="M23.63,20.74h-2.93c-.27,0-.51.23-.51.52v2.86c0,.28.23.52.51.52h2.93c.28,0,.52-.23.52-.52v-2.86c0-.28-.23-.52-.52-.52ZM23.13,23.6h-1.9v-1.83h1.9v1.83Z"/>
        <path class="cls-1" d="M23.63,20.74h-2.93c-.27,0-.51.23-.51.52v2.86c0,.28.23.52.51.52h2.93c.28,0,.52-.23.52-.52v-2.86c0-.28-.23-.52-.52-.52ZM23.13,23.6h-1.9v-1.83h1.9v1.83Z"/>
        <path class="cls-1" d="M29.36,20.74h-2.93c-.28,0-.51.23-.51.52v2.86c0,.28.22.52.51.52h2.93c.28,0,.52-.23.52-.52v-2.86c0-.28-.23-.52-.52-.52ZM28.84,23.6h-1.89v-1.83h1.89v1.83Z"/>
        <path class="cls-1" d="M29.36,20.74h-2.93c-.28,0-.51.23-.51.52v2.86c0,.28.22.52.51.52h2.93c.28,0,.52-.23.52-.52v-2.86c0-.28-.23-.52-.52-.52ZM28.84,23.6h-1.89v-1.83h1.89v1.83Z"/>
        <path class="cls-1" d="M35.08,20.74h-2.93c-.28,0-.52.23-.52.52v2.86c0,.28.23.52.52.52h2.93c.28,0,.51-.23.51-.52v-2.86c0-.28-.22-.52-.51-.52ZM34.56,23.6h-1.89v-1.83h1.89v1.83Z"/>
        <path class="cls-1" d="M35.08,20.74h-2.93c-.28,0-.52.23-.52.52v2.86c0,.28.23.52.52.52h2.93c.28,0,.51-.23.51-.52v-2.86c0-.28-.22-.52-.51-.52ZM34.56,23.6h-1.89v-1.83h1.89v1.83Z"/>
        <path class="cls-1" d="M17.91,15.02h-2.92c-.28,0-.52.22-.52.51v2.87c0,.27.23.51.52.51h2.92c.28,0,.52-.23.52-.51v-2.87c0-.28-.23-.51-.52-.51ZM17.4,17.88h-1.9v-1.83h1.9v1.83Z"/>
        <path class="cls-1" d="M17.91,15.02h-2.92c-.28,0-.52.22-.52.51v2.87c0,.27.23.51.52.51h2.92c.28,0,.52-.23.52-.51v-2.87c0-.28-.23-.51-.52-.51ZM17.4,17.88h-1.9v-1.83h1.9v1.83Z"/>
        <path class="cls-1" d="M23.63,15.02h-2.93c-.27,0-.51.22-.51.51v2.87c0,.27.23.51.51.51h2.93c.28,0,.52-.23.52-.51v-2.87c0-.28-.23-.51-.52-.51ZM23.13,17.88h-1.9v-1.83h1.9v1.83Z"/>
        <path class="cls-1" d="M23.63,15.02h-2.93c-.27,0-.51.22-.51.51v2.87c0,.27.23.51.51.51h2.93c.28,0,.52-.23.52-.51v-2.87c0-.28-.23-.51-.52-.51ZM23.13,17.88h-1.9v-1.83h1.9v1.83Z"/>
        <path class="cls-1" d="M29.36,15.02h-2.93c-.28,0-.51.22-.51.51v2.87c0,.27.22.51.51.51h2.93c.28,0,.52-.23.52-.51v-2.87c0-.28-.23-.51-.52-.51ZM28.84,17.88h-1.89v-1.83h1.89v1.83Z"/>
        <path class="cls-1" d="M29.36,15.02h-2.93c-.28,0-.51.22-.51.51v2.87c0,.27.22.51.51.51h2.93c.28,0,.52-.23.52-.51v-2.87c0-.28-.23-.51-.52-.51ZM28.84,17.88h-1.89v-1.83h1.89v1.83Z"/>
        <path class="cls-1" d="M35.08,15.02h-2.93c-.28,0-.52.22-.52.51v2.87c0,.27.23.51.52.51h2.93c.28,0,.51-.23.51-.51v-2.87c0-.28-.22-.51-.51-.51ZM34.56,17.88h-1.89v-1.83h1.89v1.83Z"/>
        <path class="cls-1" d="M35.08,15.02h-2.93c-.28,0-.52.22-.52.51v2.87c0,.27.23.51.52.51h2.93c.28,0,.51-.23.51-.51v-2.87c0-.28-.22-.51-.51-.51ZM34.56,17.88h-1.89v-1.83h1.89v1.83Z"/>
      </g>
    </g>
  </g>
</svg>