<?xml version="1.0" encoding="UTF-8"?>
<svg id="Layer_2" xmlns="http://www.w3.org/2000/svg" xmlns:xlink="http://www.w3.org/1999/xlink" viewBox="0 0 50 31">
  <defs>
    <style>
      .cls-1 {
        fill: #fff;
      }

      .cls-2 {
        fill: none;
      }

      .cls-3 {
        clip-path: url(#clippath);
      }
    </style>
    <clipPath id="clippath">
      <rect class="cls-2" width="50" height="31"/>
    </clipPath>
  </defs>
  <g id="Layer_1-2" data-name="Layer_1">
    <g class="cls-3">
      <g>
        <path class="cls-1" d="M26.85,7.37c-.06-.19-.24-.32-.45-.32h-5.2l-1.4-4.37c-.06-.19-.24-.33-.45-.33s-.38.13-.45.33l-1.4,4.37h-5.2c-.2,0-.38.13-.45.32-.06.19,0,.4.16.52l4.19,3.14-1.54,4.79c-.06.19,0,.41.17.53.08.06.18.09.27.09s.2-.03.28-.09l3.95-2.96,2.3,1.72c.21.16.5.11.66-.09.16-.21.11-.5-.09-.66l-2.58-1.94c-.17-.13-.4-.13-.56,0l-3.05,2.28,1.19-3.71c.06-.19,0-.4-.17-.52l-3.33-2.5h4.13c.2,0,.38-.13.45-.33l1.06-3.3,1.06,3.3c.06.19.24.33.45.33h4.13l-3.33,2.5c-.16.12-.23.33-.17.52l.9,2.8c.08.25.35.38.59.3.25-.08.38-.34.3-.59l-.8-2.48,4.19-3.14c.16-.12.23-.33.16-.52h0Z"/>
        <path class="cls-1" d="M19.98,18.77c-.2.01-.41.02-.61.02h-8.26l1.95-1.95c.09-.09.14-.21.14-.33s-.05-.24-.14-.33c-1.69-1.69-2.62-3.93-2.62-6.31C10.44,4.94,14.44.94,19.36.94s8.92,4,8.92,8.92c0,.21,0,.41-.02.61-.02.26.18.48.44.5.27.03.48-.18.5-.44.01-.22.02-.45.02-.68,0-5.44-4.43-9.86-9.86-9.86-5.44,0-9.86,4.43-9.86,9.86,0,2.48.91,4.81,2.57,6.63l-2.43,2.43c-.13.13-.17.34-.1.51.07.18.24.29.43.29h9.39c.23,0,.45,0,.68-.02.26-.02.45-.24.44-.5-.02-.26-.25-.46-.5-.44h0Z"/>
        <path class="cls-1" d="M37.93,27.77c1.66-1.82,2.57-4.16,2.57-6.63,0-5.44-4.43-9.86-9.86-9.86s-9.86,4.42-9.86,9.86,4.43,9.86,9.86,9.86h9.39c.19,0,.36-.11.43-.29.07-.18.03-.38-.1-.51l-2.43-2.43h0ZM30.64,30.06c-4.92,0-8.92-4-8.92-8.92s4-8.92,8.92-8.92,8.92,4,8.92,8.92c0,2.38-.93,4.62-2.61,6.31-.09.09-.14.21-.14.33s.05.24.14.33l1.95,1.95h-8.26Z"/>
        <path class="cls-1" d="M28.29,16.91h4.7c.78,0,1.41-.63,1.41-1.41s-.63-1.41-1.41-1.41h-4.7c-.78,0-1.41.63-1.41,1.41s.63,1.41,1.41,1.41ZM28.29,15.03h4.7c.26,0,.47.21.47.47s-.21.47-.47.47h-4.7c-.26,0-.47-.21-.47-.47s.21-.47.47-.47Z"/>
        <path class="cls-1" d="M25.47,20.67h10.33c.78,0,1.41-.63,1.41-1.41s-.63-1.41-1.41-1.41h-10.33c-.78,0-1.41.63-1.41,1.41s.63,1.41,1.41,1.41ZM25.47,18.79h10.33c.26,0,.47.21.47.47s-.21.47-.47.47h-10.33c-.26,0-.47-.21-.47-.47s.21-.47.47-.47Z"/>
        <path class="cls-1" d="M35.8,21.61h-10.33c-.78,0-1.41.63-1.41,1.41s.63,1.41,1.41,1.41h10.33c.78,0,1.41-.63,1.41-1.41s-.63-1.41-1.41-1.41ZM35.8,23.48h-10.33c-.26,0-.47-.21-.47-.47s.21-.47.47-.47h10.33c.26,0,.47.21.47.47s-.21.47-.47.47Z"/>
        <path class="cls-1" d="M32.98,25.36h-4.7c-.78,0-1.41.63-1.41,1.41s.63,1.41,1.41,1.41h4.7c.78,0,1.41-.63,1.41-1.41s-.63-1.41-1.41-1.41ZM32.98,27.24h-4.7c-.26,0-.47-.21-.47-.47s.21-.47.47-.47h4.7c.26,0,.47.21.47.47s-.21.47-.47.47Z"/>
      </g>
    </g>
  </g>
</svg>