<?xml version="1.0" encoding="UTF-8"?>
<svg id="Layer_2" xmlns="http://www.w3.org/2000/svg" xmlns:xlink="http://www.w3.org/1999/xlink" viewBox="0 0 50 31">
  <defs>
    <style>
      .cls-1 {
        fill: #fff;
      }

      .cls-2 {
        fill: none;
      }

      .cls-3 {
        clip-path: url(#clippath);
      }
    </style>
    <clipPath id="clippath">
      <rect class="cls-2" width="50" height="31"/>
    </clipPath>
  </defs>
  <g id="Layer_1-2" data-name="Layer_1">
    <g class="cls-3">
      <g>
        <path class="cls-1" d="M22.3,7c0,.27-.22.5-.51.5h-11.44c-.27,0-.5-.22-.5-.5s.22-.51.5-.51h11.44c.28,0,.51.22.51.51Z"/>
        <path class="cls-1" d="M22.3,7c0,.27-.22.5-.51.5h-11.44c-.27,0-.5-.22-.5-.5s.22-.51.5-.51h11.44c.28,0,.51.22.51.51Z"/>
        <path class="cls-1" d="M22.31,10.69c0,.27-.22.5-.5.5h-11.43c-.28,0-.51-.22-.51-.5s.22-.5.51-.5h11.43c.27,0,.5.22.5.5Z"/>
        <path class="cls-1" d="M22.31,10.69c0,.27-.22.5-.5.5h-11.43c-.28,0-.51-.22-.51-.5s.22-.5.51-.5h11.43c.27,0,.5.22.5.5Z"/>
        <path class="cls-1" d="M17.13,14.39c0,.27-.22.5-.5.5h-6.24c-.27,0-.5-.22-.5-.5s.22-.51.5-.51h6.24c.27,0,.5.22.5.51Z"/>
        <path class="cls-1" d="M17.13,14.39c0,.27-.22.5-.5.5h-6.24c-.27,0-.5-.22-.5-.5s.22-.51.5-.51h6.24c.27,0,.5.22.5.51Z"/>
        <path class="cls-1" d="M42.69,26.24l-.02-.11.09-.07c2.43-1.96,3.83-4.68,3.83-7.5,0-2.41-1.02-4.77-2.89-6.65-2.42-2.42-5.98-3.82-9.78-3.82-1.74,0-3.44.3-5.08.89l-.22.08-.04-.23C27.63,3.8,22.25,0,16.07,0,9.09,0,3.41,4.7,3.41,10.47c0,2.83,1.4,5.56,3.83,7.51l.09.07-.02.11c-.14,1.24-.51,2.9-1.39,3.83-.12.12-.16.3-.12.48.04.16.17.3.33.34.24.07.5.1.78.1h.01c1.71,0,4.05-1.21,5.5-2.33l.07-.06.1.02c1.12.26,2.28.4,3.54.4,1.72,0,3.42-.29,5.06-.88l.22-.08.04.23c.92,5.03,6.29,8.83,12.5,8.83,1.17,0,2.32-.14,3.45-.41l.09-.02.08.06c1.47,1.12,3.82,2.33,5.5,2.33h.03c.25,0,.5-.03.74-.1.17-.04.29-.17.34-.34.04-.17,0-.35-.12-.48-.69-.73-1.19-2.09-1.39-3.84ZM21.56,18.82c-1.71.73-3.54,1.1-5.48,1.1-1.21,0-2.4-.15-3.56-.46-.04-.01-.09-.01-.13-.01-.11,0-.22.04-.31.11-1.28,1.06-2.81,1.83-4.42,2.24l-.42.11.18-.38c.54-1.16.85-2.4.92-3.69.02-.17-.06-.34-.2-.45-2.37-1.77-3.74-4.31-3.74-6.94C4.4,5.24,9.63.99,16.06.99s11.66,4.24,11.66,9.47c0,3.46-2.34,6.66-6.08,8.31l-.09.05ZM42.34,29.92c-1.6-.42-3.13-1.19-4.41-2.25-.09-.07-.2-.11-.32-.11-.04,0-.08.01-.12.01-1.15.31-2.35.48-3.56.48-5.9,0-10.87-3.58-11.57-8.33l-.02-.14.13-.07c3.91-1.92,6.25-5.3,6.25-9.02v-.36l.13-.05c1.61-.63,3.3-.95,5.08-.95,6.43,0,11.66,4.25,11.66,9.47,0,2.6-1.36,5.13-3.74,6.92-.14.1-.21.27-.19.45.08,1.28.38,2.52.91,3.68l.18.38-.42-.1Z"/>
        <path class="cls-1" d="M42.69,26.24l-.02-.11.09-.07c2.43-1.96,3.83-4.68,3.83-7.5,0-2.41-1.02-4.77-2.89-6.65-2.42-2.42-5.98-3.82-9.78-3.82-1.74,0-3.44.3-5.08.89l-.22.08-.04-.23C27.63,3.8,22.25,0,16.07,0,9.09,0,3.41,4.7,3.41,10.47c0,2.83,1.4,5.56,3.83,7.51l.09.07-.02.11c-.14,1.24-.51,2.9-1.39,3.83-.12.12-.16.3-.12.48.04.16.17.3.33.34.24.07.5.1.78.1h.01c1.71,0,4.05-1.21,5.5-2.33l.07-.06.1.02c1.12.26,2.28.4,3.54.4,1.72,0,3.42-.29,5.06-.88l.22-.08.04.23c.92,5.03,6.29,8.83,12.5,8.83,1.17,0,2.32-.14,3.45-.41l.09-.02.08.06c1.47,1.12,3.82,2.33,5.5,2.33h.03c.25,0,.5-.03.74-.1.17-.04.29-.17.34-.34.04-.17,0-.35-.12-.48-.69-.73-1.19-2.09-1.39-3.84ZM21.56,18.82c-1.71.73-3.54,1.1-5.48,1.1-1.21,0-2.4-.15-3.56-.46-.04-.01-.09-.01-.13-.01-.11,0-.22.04-.31.11-1.28,1.06-2.81,1.83-4.42,2.24l-.42.11.18-.38c.54-1.16.85-2.4.92-3.69.02-.17-.06-.34-.2-.45-2.37-1.77-3.74-4.31-3.74-6.94C4.4,5.24,9.63.99,16.06.99s11.66,4.24,11.66,9.47c0,3.46-2.34,6.66-6.08,8.31l-.09.05ZM42.34,29.92c-1.6-.42-3.13-1.19-4.41-2.25-.09-.07-.2-.11-.32-.11-.04,0-.08.01-.12.01-1.15.31-2.35.48-3.56.48-5.9,0-10.87-3.58-11.57-8.33l-.02-.14.13-.07c3.91-1.92,6.25-5.3,6.25-9.02v-.36l.13-.05c1.61-.63,3.3-.95,5.08-.95,6.43,0,11.66,4.25,11.66,9.47,0,2.6-1.36,5.13-3.74,6.92-.14.1-.21.27-.19.45.08,1.28.38,2.52.91,3.68l.18.38-.42-.1Z"/>
        <path class="cls-1" d="M29.98,18.42c0,.27-.22.5-.5.5h-1.63c-.27,0-.51-.22-.51-.5s.23-.5.51-.5h1.63c.27,0,.5.22.5.5Z"/>
        <path class="cls-1" d="M29.98,18.42c0,.27-.22.5-.5.5h-1.63c-.27,0-.51-.22-.51-.5s.23-.5.51-.5h1.63c.27,0,.5.22.5.5Z"/>
        <path class="cls-1" d="M35.27,18.42c0,.27-.22.5-.51.5h-1.62c-.27,0-.51-.22-.51-.5s.23-.5.51-.5h1.62c.28,0,.51.22.51.5Z"/>
        <path class="cls-1" d="M35.27,18.42c0,.27-.22.5-.51.5h-1.62c-.27,0-.51-.22-.51-.5s.23-.5.51-.5h1.62c.28,0,.51.22.51.5Z"/>
        <path class="cls-1" d="M40.55,18.42c0,.27-.22.5-.5.5h-1.63c-.27,0-.5-.22-.5-.5s.22-.5.5-.5h1.63c.27,0,.5.22.5.5Z"/>
        <path class="cls-1" d="M40.55,18.42c0,.27-.22.5-.5.5h-1.63c-.27,0-.5-.22-.5-.5s.22-.5.5-.5h1.63c.27,0,.5.22.5.5Z"/>
      </g>
    </g>
  </g>
</svg>