<?xml version="1.0" encoding="UTF-8"?>
<svg id="Layer_2" xmlns="http://www.w3.org/2000/svg" xmlns:xlink="http://www.w3.org/1999/xlink" viewBox="0 0 50 31">
  <defs>
    <style>
      .cls-1 {
        fill: #fff;
      }

      .cls-2 {
        fill: none;
      }

      .cls-3 {
        clip-path: url(#clippath);
      }
    </style>
    <clipPath id="clippath">
      <rect class="cls-2" width="50" height="31"/>
    </clipPath>
  </defs>
  <g id="Layer_1-2" data-name="Layer_1">
    <g class="cls-3">
      <g>
        <path class="cls-1" d="M28.82,22.65h-7.62c-2.4,0-4.36,1.95-4.36,4.36v1.96c0,1.12.92,2.03,2.04,2.03h12.26c1.13,0,2.04-.91,2.04-2.03v-1.96c0-2.4-1.96-4.36-4.36-4.36ZM31.8,28.97l-.03.66-13.56-.03v-2.59c0-1.64,1.34-2.98,2.98-2.98h7.62c1.64,0,2.98,1.34,2.98,2.98v1.33h0v.64Z"/>
        <path class="cls-1" d="M28.82,22.65h-7.62c-2.4,0-4.36,1.95-4.36,4.36v1.96c0,1.12.92,2.03,2.04,2.03h12.26c1.13,0,2.04-.91,2.04-2.03v-1.96c0-2.4-1.96-4.36-4.36-4.36ZM31.8,28.97l-.03.66-13.56-.03v-2.59c0-1.64,1.34-2.98,2.98-2.98h7.62c1.64,0,2.98,1.34,2.98,2.98v1.33h0v.64Z"/>
        <path class="cls-1" d="M25,12.6c-2.17,0-3.93,1.77-3.93,3.93s1.76,3.94,3.93,3.94,3.94-1.76,3.94-3.94-1.77-3.93-3.94-3.93ZM25,19.09c-1.41,0-2.56-1.15-2.56-2.56s1.15-2.56,2.56-2.56,2.56,1.14,2.56,2.56-1.15,2.56-2.56,2.56Z"/>
        <path class="cls-1" d="M25,12.6c-2.17,0-3.93,1.77-3.93,3.93s1.76,3.94,3.93,3.94,3.94-1.76,3.94-3.94-1.77-3.93-3.94-3.93ZM25,19.09c-1.41,0-2.56-1.15-2.56-2.56s1.15-2.56,2.56-2.56,2.56,1.14,2.56,2.56-1.15,2.56-2.56,2.56Z"/>
        <path class="cls-1" d="M40.72,2.4h-4.71V.69c0-.38-.31-.69-.69-.69s-.69.31-.69.69v1.71h-8.94V.69c0-.38-.31-.69-.69-.69s-.69.31-.69.69v1.71h-8.93V.69c0-.38-.31-.69-.69-.69s-.69.31-.69.69v1.71h-4.72c-1.94,0-3.51,1.58-3.51,3.51v17.46c0,1.94,1.58,3.52,3.51,3.52h4.49c.38,0,.69-.31.69-.69s-.31-.69-.69-.69h-4.49c-1.18,0-2.14-.96-2.14-2.14v-13.53h35.7v13.53c0,1.18-.96,2.14-2.14,2.14h-4.49c-.38,0-.69.31-.69.69s.31.69.69.69h4.49c1.94,0,3.51-1.58,3.51-3.52V5.91c0-1.94-1.58-3.51-3.51-3.51ZM42.86,8.47H7.15v-2.56c0-1.18.96-2.14,2.14-2.14h4.72v1.69c0,.38.31.69.69.69s.69-.31.69-.69v-1.69h8.93v1.69c0,.38.31.69.69.69s.69-.31.69-.69v-1.69h8.94v1.69c0,.38.31.69.69.69s.69-.31.69-.69v-1.69h4.71c1.18,0,2.14.96,2.14,2.14v2.56Z"/>
        <path class="cls-1" d="M40.72,2.4h-4.71V.69c0-.38-.31-.69-.69-.69s-.69.31-.69.69v1.71h-8.94V.69c0-.38-.31-.69-.69-.69s-.69.31-.69.69v1.71h-8.93V.69c0-.38-.31-.69-.69-.69s-.69.31-.69.69v1.71h-4.72c-1.94,0-3.51,1.58-3.51,3.51v17.46c0,1.94,1.58,3.52,3.51,3.52h4.49c.38,0,.69-.31.69-.69s-.31-.69-.69-.69h-4.49c-1.18,0-2.14-.96-2.14-2.14v-13.53h35.7v13.53c0,1.18-.96,2.14-2.14,2.14h-4.49c-.38,0-.69.31-.69.69s.31.69.69.69h4.49c1.94,0,3.51-1.58,3.51-3.52V5.91c0-1.94-1.58-3.51-3.51-3.51ZM42.86,8.47H7.15v-2.56c0-1.18.96-2.14,2.14-2.14h4.72v1.69c0,.38.31.69.69.69s.69-.31.69-.69v-1.69h8.93v1.69c0,.38.31.69.69.69s.69-.31.69-.69v-1.69h8.94v1.69c0,.38.31.69.69.69s.69-.31.69-.69v-1.69h4.71c1.18,0,2.14.96,2.14,2.14v2.56Z"/>
        <path class="cls-1" d="M38.37,18.34c.27.27.27.7,0,.97-.13.13-.3.2-.49.2-.17,0-.32-.06-.44-.16l-1.85-1.85-1.81,1.81c-.13.13-.3.2-.49.2s-.36-.07-.49-.2c-.27-.27-.27-.7,0-.97l1.81-1.81-1.81-1.81c-.27-.27-.27-.71,0-.97.13-.13.31-.2.49-.2s.36.07.49.2l1.81,1.81,1.81-1.81c.13-.13.31-.2.49-.2s.36.07.49.2c.27.27.27.7,0,.97l-1.81,1.81,1.81,1.81Z"/>
        <path class="cls-1" d="M38.37,18.34c.27.27.27.7,0,.97-.13.13-.3.2-.49.2-.17,0-.32-.06-.44-.16l-1.85-1.85-1.81,1.81c-.13.13-.3.2-.49.2s-.36-.07-.49-.2c-.27-.27-.27-.7,0-.97l1.81-1.81-1.81-1.81c-.27-.27-.27-.71,0-.97.13-.13.31-.2.49-.2s.36.07.49.2l1.81,1.81,1.81-1.81c.13-.13.31-.2.49-.2s.36.07.49.2c.27.27.27.7,0,.97l-1.81,1.81,1.81,1.81Z"/>
      </g>
    </g>
  </g>
</svg>