<?xml version="1.0" encoding="UTF-8"?>
<svg id="Layer_2" xmlns="http://www.w3.org/2000/svg" xmlns:xlink="http://www.w3.org/1999/xlink" viewBox="0 0 50 31">
  <defs>
    <style>
      .cls-1 {
        fill: #fff;
        fill-rule: evenodd;
      }

      .cls-2 {
        fill: none;
      }

      .cls-3 {
        clip-path: url(#clippath);
      }
    </style>
    <clipPath id="clippath">
      <rect class="cls-2" width="50" height="31"/>
    </clipPath>
  </defs>
  <g id="Layer_1-2" data-name="Layer_1">
    <g class="cls-3">
      <path class="cls-1" d="M18.86,26.51l-2-3.46-6.24,3.6c-.3.17-.41.57-.23.87l1.35,2.34h0c.11.16.19.26.4.32.15.04.31.03.46-.05h0s.05-.03.05-.03l6.21-3.59h0ZM20.75,6.71c1.5,0,2.26,1.82,1.19,2.88-.21.21-.49.37-.79.45v4.88h1.19l.74-1.77h0c.03-.08.09-.14.16-.19,2.65-1.62,3.1-5.29.9-7.49-1.87-1.87-4.91-1.87-6.78,0-1.51,1.51-1.85,3.86-.79,5.74.4.72.98,1.32,1.68,1.75.08.04.14.11.17.2l.74,1.77h1.19v-4.88c-1.27-.31-1.73-1.9-.79-2.84.31-.31.73-.5,1.19-.5h0ZM21.37,7.77c.35.35.35.91,0,1.25-.56.56-1.51.16-1.51-.63s.95-1.18,1.51-.63h0ZM33.2,13.6c0-.22.18-.4.4-.4s.4.18.4.4v6.06h.28c.22,0,.4.18.4.4s-.18.4-.4.4h-8.64c-.22,0-.4-.18-.4-.4s.18-.4.4-.4h.28v-1.76c0-.22.18-.4.4-.4s.4.18.4.4v1.76h1.38v-3.34c0-.22.18-.4.4-.4s.4.18.4.4v3.34h1.69v-4.83c0-.22.18-.4.4-.4s.4.18.4.4v4.83h1.78v-6.06h0ZM26.66,15.03c-.17.14-.43.11-.56-.07-.14-.17-.11-.43.07-.56l2.18-1.7c.16-.13.39-.11.53.03h0s.7.7.7.7l2.52-1.61c.19-.12.43-.06.55.12.12.19.06.43-.12.55l-2.76,1.76c-.16.12-.39.11-.53-.03l-.68-.68-1.9,1.48h0ZM19.69,1.75c.06.21-.07.43-.28.49s-.43-.07-.49-.28l-.39-1.45c-.06-.21.07-.43.28-.49s.43.07.49.28l.39,1.45h0ZM22.53,1.96c-.06.21-.28.34-.49.28-.21-.06-.34-.28-.28-.49l.39-1.45c.06-.21.28-.34.49-.28s.34.28.28.49l-.39,1.45h0ZM24.85,2.85c-.11.19-.36.26-.55.15-.19-.11-.26-.36-.15-.55l.75-1.3c.11-.19.36-.26.55-.15.19.11.26.36.15.55l-.75,1.3h0ZM17.13,2.45c.11.19.05.44-.15.55-.19.11-.44.05-.55-.15l-.75-1.3c-.11-.19-.05-.44.15-.55.19-.11.44-.05.55.15l.75,1.3h0ZM26.91,4.85c-.19.11-.44.04-.55-.15-.11-.19-.04-.44.15-.55l1.3-.75c.19-.11.44-.04.55.15.11.19.04.44-.15.55l-1.3.75h0ZM14.99,4.15c.19.11.26.36.15.55-.11.19-.36.26-.55.15l-1.3-.75c-.19-.11-.26-.36-.15-.55s.36-.26.55-.15l1.3.75h0ZM17.72,16.75h6.06v-.54c0-.26-.22-.48-.48-.48h-5.1c-.26,0-.48.22-.48.48v.54h0ZM23.78,17.55h-6.06v.54c0,.26.22.48.48.48h5.1c.26,0,.48-.22.48-.48v-.54h0ZM18.2,14.92h.08l-.56-1.35c-.77-.5-1.41-1.17-1.86-1.97-1.23-2.19-.84-4.93.93-6.7,2.19-2.19,5.73-2.19,7.92,0,.63.63,1.11,1.42,1.39,2.29,4.86-1.85,10.36.1,12.97,4.62,2.93,5.08,1.19,11.58-3.89,14.51-4.26,2.46-9.66,1.68-13.04-1.9l-2.68,1.54.28.49c.11.19.05.44-.15.55l-6.56,3.79h0s0,0,0,0h-.02s0,.01,0,.01c-.34.2-.74.24-1.09.14-.38-.1-.64-.31-.86-.65h0s-.01-.02-.01-.02l-1.36-2.36c-.19-.36-.24-.72-.14-1.09.09-.34.33-.69.67-.87l6.58-3.8c.19-.11.44-.05.55.15l.32.56,2.48-1.43c-.07-.16-.14-.31-.2-.47-.38,0-.68.02-1-.3-.18-.18-.3-.44-.3-.72v-.56c-.53,0-.95.05-1.37-.38-.23-.23-.38-.55-.38-.91v-1.89c0-.71.58-1.29,1.29-1.29h0ZM23.21,14.92l.56-1.35c.77-.5,1.41-1.17,1.86-1.97.08-.14.15-.27.21-.42.83-.56,1.78-.95,2.78-1.13,2.96-.52,5.95.88,7.45,3.48h0c1.98,3.43.8,7.82-2.63,9.8h0c-3.94,2.27-8.96.35-10.4-3.95h.24c.71,0,1.29-.58,1.29-1.29v-1.89c0-.35-.14-.68-.38-.91-.28-.28-.59-.38-.99-.38h0ZM22.03,19.38h-2.56v.56c0,.11.1.21.21.21h2.14c.11,0,.21-.1.21-.21v-.56h0ZM26.28,7.98c4.51-1.77,9.66.02,12.09,4.23,2.71,4.7,1.1,10.7-3.6,13.42-5.12,2.96-11.65.75-13.95-4.67h.99c.34,0,.65-.17.83-.44.99,2.1,2.85,3.69,5.15,4.31,2.1.56,4.32.23,6.05-.8h0c1.77-1.02,3.15-2.72,3.72-4.84.56-2.14.24-4.28-.8-6.05h0s0,0,0,0c-2.13-3.69-6.78-5.05-10.55-3.11.14-.67.16-1.37.05-2.05h0ZM20.51,22.15c.31.58.68,1.14,1.1,1.65l-2.54,1.47-.99-1.71,2.43-1.4Z"/>
    </g>
  </g>
</svg>