<?xml version="1.0" encoding="UTF-8"?>
<svg id="Layer_2" xmlns="http://www.w3.org/2000/svg" xmlns:xlink="http://www.w3.org/1999/xlink" viewBox="0 0 50 31">
  <defs>
    <style>
      .cls-1 {
        fill: #fff;
      }

      .cls-2 {
        fill: none;
      }

      .cls-3 {
        clip-path: url(#clippath);
      }
    </style>
    <clipPath id="clippath">
      <rect class="cls-2" width="50" height="31"/>
    </clipPath>
  </defs>
  <g id="Layer_1-2" data-name="Layer_1">
    <g class="cls-3">
      <g>
        <path class="cls-1" d="M14.69,28.67h5.99c.29,0,.53-.24.53-.53v-3.33c0-.29-.24-.53-.53-.53h-5.99c-.29,0-.53.24-.53.53v3.33c0,.29.24.53.53.53ZM20.14,25.35v2.27h-4.93v-2.27h4.93Z"/>
        <path class="cls-1" d="M26.74,8.83c.1.13.25.21.41.21h.01c.15,0,.3-.06.4-.18l2.66-3c.19-.22.17-.55-.04-.75-.1-.09-.22-.13-.35-.13-.15,0-.3.06-.4.18l-2.23,2.51-.61-.81c-.1-.13-.26-.21-.42-.21-.12,0-.23.04-.32.11-.11.08-.19.21-.21.35s.02.28.1.39l1,1.33Z"/>
        <path class="cls-1" d="M38.84,15.5c0-.96-.73-1.75-1.66-1.85V1.86C37.17.84,36.34,0,35.31,0H14.69c-1.03,0-1.86.83-1.86,1.86v8.46c-.93.1-1.66.89-1.66,1.85v16.97c0,1.03.83,1.86,1.86,1.86h23.95c1.03,0,1.86-.83,1.86-1.86v-13.64ZM12.22,29.14V12.17c0-.44.36-.8.8-.8h7.98c.44,0,.8.36.8.8v.67c0,1.03.83,1.86,1.86,1.86h13.31c.44,0,.8.36.8.8v13.64c0,.44-.36.8-.8.8H13.02c-.44,0-.8-.36-.8-.8ZM36.11,13.64h-12.45c-.44,0-.8-.36-.8-.8v-.66c0-1.03-.83-1.86-1.86-1.86h-1.47V1.86c0-.44.36-.8.8-.8h14.97c.44,0,.8.36.8.8v11.78ZM18.67,1.06c-.12.25-.19.52-.19.8v8.45h-1.93V1.86c0-.44.36-.8.8-.8h1.32ZM14.69,1.06h.99c-.12.25-.19.52-.19.8v8.45h-1.6V1.86c0-.44.36-.8.8-.8Z"/>
        <path class="cls-1" d="M27.99,2.33c-2.68,0-4.85,2.18-4.85,4.86s2.18,4.86,4.85,4.86,4.85-2.18,4.85-4.85-2.18-4.86-4.85-4.86ZM27.99,3.39c2.09,0,3.79,1.7,3.79,3.79s-1.7,3.79-3.79,3.79-3.79-1.7-3.79-3.79,1.7-3.79,3.79-3.79Z"/>
      </g>
    </g>
  </g>
</svg>