<?xml version="1.0" encoding="UTF-8"?>
<svg id="Layer_2" xmlns="http://www.w3.org/2000/svg" xmlns:xlink="http://www.w3.org/1999/xlink" viewBox="0 0 50 31">
  <defs>
    <style>
      .cls-1 {
        fill: #fff;
        fill-rule: evenodd;
      }

      .cls-2 {
        fill: none;
      }

      .cls-3 {
        clip-path: url(#clippath);
      }
    </style>
    <clipPath id="clippath">
      <rect class="cls-2" width="50" height="31"/>
    </clipPath>
  </defs>
  <g id="Layer_1-2" data-name="Layer_1">
    <g class="cls-3">
      <path class="cls-1" d="M40.79.9H9.21c-.12,0-.21.1-.21.21v1.04c0,.12.1.21.21.21h31.58c.12,0,.21-.1.21-.21v-1.04c0-.12-.1-.21-.21-.21ZM39.61,3.26H10.39v19.09h29.21s0-19.09,0-19.09ZM25.46,28.99c-.12-.12-.29-.19-.46-.19h0c-.36,0-.65.29-.65.65,0,.36.29.65.65.65s.65-.29.65-.65c0-.17-.07-.34-.19-.46ZM25.45,27.97c.82.25,1.28,1.11,1.03,1.93-.25.82-1.11,1.28-1.93,1.03-.82-.25-1.28-1.11-1.03-1.93.15-.49.54-.88,1.03-1.03v-4.72h-14.61c-.25,0-.45-.2-.45-.45h0V3.26h-.28c-.61,0-1.11-.5-1.11-1.11v-1.04c0-.61.5-1.11,1.11-1.11h31.58c.61,0,1.11.5,1.11,1.11v1.04c0,.61-.5,1.11-1.11,1.11h-.28v19.54c0,.25-.2.45-.45.45h-14.61v4.72h0ZM20.92,20.02v-7.14h1.23v7.14h-1.23ZM17.36,20.02v-5.92h1.23v5.92h-1.23ZM13.8,20.02v-2.8h1.23v2.8h-1.23ZM12.35,20.92c-.25,0-.45-.2-.45-.45,0-.25.2-.45.45-.45h.55v-3.25c0-.25.2-.45.45-.45h2.13c.25,0,.45.2.45.45v3.25h.54v-6.37c0-.25.2-.45.45-.45h2.13c.25,0,.45.2.45.45v6.37h.54v-7.59c0-.25.2-.45.45-.45h2.13c.25,0,.45.2.45.45h0v7.59h.55c.25,0,.45.2.45.45s-.2.45-.45.45h-11.25ZM20.22,8.57c-.24-.05-.39-.3-.34-.54.05-.24.3-.39.54-.34,0,0,.01,0,.02,0l1.98.51c.24.06.39.31.33.55,0,0,0,0,0,0l-.51,1.98c-.06.24-.31.39-.55.33s-.39-.31-.33-.55l.25-.99-1.59.86-.87,1.89c-.07.16-.21.26-.38.27l-2.63.18-1.09,2.07h0c-.06.11-.15.18-.26.22l-2.22.68c-.24.07-.49-.06-.56-.3s.06-.49.3-.56l2.04-.63,1.12-2.12c.07-.14.21-.23.37-.24h0l2.62-.18.83-1.8c.04-.09.11-.16.2-.21l1.61-.87-.87-.22h0ZM34.25,4.21c2.17,0,3.92,1.76,3.92,3.92,0,2.17-1.76,3.92-3.92,3.92-2.17,0-3.92-1.76-3.92-3.92,0-1.04.41-2.04,1.15-2.77.73-.74,1.73-1.15,2.77-1.15ZM34.7,5.14c.75.12,1.44.51,1.91,1.11l-1.92,1.11v-2.21h0ZM31.26,7.68c.2-1.31,1.23-2.34,2.54-2.54v2.54h-2.54ZM34.25,8.58h.09s.01,0,.01,0h0s.02,0,.03,0h0s.03-.01.05-.02h0s.02-.01.02-.01h0s0,0,0,0h0s.02-.02.02-.02h0l2.55-1.47c.61,1.55-.15,3.31-1.7,3.92-1.55.61-3.31-.15-3.92-1.7-.08-.21-.14-.43-.18-.66h3ZM28.91,13.93c-.25,0-.46-.19-.46-.44,0-.25.19-.46.44-.46,0,0,.02,0,.03,0h8.81c.25,0,.44.21.44.46,0,.24-.2.43-.44.44h-8.81ZM26.9,13.93c-.25,0-.46-.19-.46-.44,0-.25.19-.46.44-.46,0,0,.02,0,.03,0h.74c.25,0,.44.21.44.46,0,.24-.2.43-.44.44h-.74ZM28.91,15.95c-.25,0-.45-.2-.45-.45,0-.25.2-.45.45-.45h8.81c.25,0,.45.2.45.45,0,.25-.2.45-.45.45h-8.81ZM26.9,15.95c-.25,0-.45-.2-.45-.45,0-.25.2-.45.45-.45h.74c.25,0,.45.2.45.45,0,.25-.2.45-.45.45h-.74ZM28.91,17.98c-.25,0-.46-.19-.46-.44,0-.25.19-.46.44-.46,0,0,.02,0,.03,0h8.81c.25,0,.44.21.44.46,0,.24-.2.43-.44.44h-8.81ZM26.9,17.98c-.25,0-.46-.19-.46-.44,0-.25.19-.46.44-.46,0,0,.02,0,.03,0h.74c.25,0,.44.21.44.46,0,.24-.2.43-.44.44h-.74ZM28.91,20c-.25,0-.46-.19-.46-.44,0-.25.19-.46.44-.46,0,0,.02,0,.03,0h8.81c.25,0,.44.21.44.46,0,.24-.2.43-.44.44h-8.81ZM26.9,20c-.25,0-.46-.19-.46-.44,0-.25.19-.46.44-.46,0,0,.02,0,.03,0h.74c.25,0,.44.21.44.46,0,.24-.2.43-.44.44h-.74Z"/>
    </g>
  </g>
</svg>