<?xml version="1.0" encoding="UTF-8"?>
<svg id="Layer_2" xmlns="http://www.w3.org/2000/svg" xmlns:xlink="http://www.w3.org/1999/xlink" viewBox="0 0 50 31">
  <defs>
    <style>
      .cls-1 {
        fill: #fff;
      }

      .cls-2 {
        fill: none;
      }

      .cls-3 {
        clip-path: url(#clippath);
      }
    </style>
    <clipPath id="clippath">
      <rect class="cls-2" width="50" height="31"/>
    </clipPath>
  </defs>
  <g id="Layer_1-2" data-name="Layer_1">
    <g class="cls-3">
      <g>
        <path class="cls-1" d="M33.13,11.15c0,.34-.27.62-.62.62h-11.49c-.33,0-.61-.27-.61-.62s.27-.61.61-.61h11.49c.34,0,.62.27.62.61Z"/>
        <path class="cls-1" d="M33.13,11.15c0,.34-.27.62-.62.62h-11.49c-.33,0-.61-.27-.61-.62s.27-.61.61-.61h11.49c.34,0,.62.27.62.61Z"/>
        <path class="cls-1" d="M33.13,15.24c0,.33-.27.61-.62.61h-11.49c-.33,0-.61-.27-.61-.61s.27-.62.61-.62h11.49c.34,0,.62.27.62.62Z"/>
        <path class="cls-1" d="M33.13,15.24c0,.33-.27.61-.62.61h-11.49c-.33,0-.61-.27-.61-.61s.27-.62.61-.62h11.49c.34,0,.62.27.62.62Z"/>
        <g>
          <path class="cls-1" d="M18.15,18.7c-3.39,0-6.15,2.76-6.15,6.15s2.76,6.15,6.15,6.15,6.15-2.76,6.15-6.15-2.76-6.15-6.15-6.15ZM18.15,29.99c-2.83,0-5.13-2.31-5.13-5.14s2.3-5.13,5.13-5.13,5.13,2.3,5.13,5.13-2.3,5.14-5.13,5.14Z"/>
          <path class="cls-1" d="M18.15,18.7c-3.39,0-6.15,2.76-6.15,6.15s2.76,6.15,6.15,6.15,6.15-2.76,6.15-6.15-2.76-6.15-6.15-6.15ZM18.15,29.99c-2.83,0-5.13-2.31-5.13-5.14s2.3-5.13,5.13-5.13,5.13,2.3,5.13,5.13-2.3,5.14-5.13,5.14Z"/>
        </g>
        <path class="cls-1" d="M37.89,7.88L30.97.15c-.08-.09-.19-.15-.31-.15h-12.24c-1.57,0-2.86,1.29-2.86,2.86v15.09c.26-.1.54-.18.82-.25V2.86c0-1.12.91-2.04,2.04-2.04h11.83v6.52c0,.67.55,1.23,1.22,1.23h5.71v18.62c0,1.12-.91,2.05-2.04,2.05h-11.07c-.21.28-.45.56-.7.81h11.77c1.57,0,2.86-1.28,2.86-2.86V8.16c0-.1-.04-.19-.11-.27ZM31.46,7.75c-.22,0-.41-.18-.41-.41V1.45l5.62,6.3h-5.22Z"/>
        <path class="cls-1" d="M37.89,7.88L30.97.15c-.08-.09-.19-.15-.31-.15h-12.24c-1.57,0-2.86,1.29-2.86,2.86v15.09c.26-.1.54-.18.82-.25V2.86c0-1.12.91-2.04,2.04-2.04h11.83v6.52c0,.67.55,1.23,1.22,1.23h5.71v18.62c0,1.12-.91,2.05-2.04,2.05h-11.07c-.21.28-.45.56-.7.81h11.77c1.57,0,2.86-1.28,2.86-2.86V8.16c0-.1-.04-.19-.11-.27ZM31.46,7.75c-.22,0-.41-.18-.41-.41V1.45l5.62,6.3h-5.22Z"/>
        <path class="cls-1" d="M33.13,19.72c0,.33-.27.61-.62.61h-8.55c-.36-.46-.76-.87-1.2-1.23h9.75c.34,0,.62.27.62.62Z"/>
        <path class="cls-1" d="M33.13,19.72c0,.33-.27.61-.62.61h-8.55c-.36-.46-.76-.87-1.2-1.23h9.75c.34,0,.62.27.62.62Z"/>
        <path class="cls-1" d="M33.13,24.62c0,.33-.27.61-.62.61h-7c0-.12.01-.25.01-.37,0-.26-.02-.54-.06-.85h7.05c.34,0,.62.27.62.62Z"/>
        <path class="cls-1" d="M33.13,24.62c0,.33-.27.61-.62.61h-7c0-.12.01-.25.01-.37,0-.26-.02-.54-.06-.85h7.05c.34,0,.62.27.62.62Z"/>
        <path class="cls-1" d="M21.33,25.23c0,.22-.18.41-.42.41h-3.26v-3.88c0-.22.18-.41.42-.41s.41.18.41.41v3.07h2.44c.23,0,.42.18.42.41Z"/>
        <path class="cls-1" d="M21.33,25.23c0,.22-.18.41-.42.41h-3.26v-3.88c0-.22.18-.41.42-.41s.41.18.41.41v3.07h2.44c.23,0,.42.18.42.41Z"/>
      </g>
    </g>
  </g>
</svg>