<?xml version="1.0" encoding="UTF-8"?>
<svg id="Layer_2" xmlns="http://www.w3.org/2000/svg" xmlns:xlink="http://www.w3.org/1999/xlink" viewBox="0 0 50 31">
  <defs>
    <style>
      .cls-1 {
        fill: #fff;
        fill-rule: evenodd;
      }

      .cls-2 {
        fill: none;
      }

      .cls-3 {
        clip-path: url(#clippath);
      }
    </style>
    <clipPath id="clippath">
      <rect class="cls-2" width="50" height="31"/>
    </clipPath>
  </defs>
  <g id="Layer_1-2" data-name="Layer_1">
    <g class="cls-3">
      <path class="cls-1" d="M13.48,8.65h-2.56c-.32,0-.58.26-.58.58v7.81c0,.15.06.3.17.41.11.11.26.17.41.17h2.56c.32,0,.57-.26.58-.58v-7.81c0-.15-.06-.3-.17-.41-.11-.11-.25-.17-.41-.17h0ZM26.28,10.18h12.77c.86,0,1.55.7,1.56,1.56v14.46c0,.86-.7,1.55-1.56,1.56h-1.49v2.77c0,.1-.03.19-.08.27-.15.21-.44.27-.66.12l-4.6-3.16h-14.47c-.86,0-1.55-.7-1.55-1.56v-8.77h-1.25c-.07.26-.21.5-.4.69-.28.29-.67.45-1.08.45h-2.55c-.84,0-1.52-.68-1.53-1.52v-7.81c0-.84.68-1.53,1.53-1.53h2.56c.4,0,.79.16,1.07.45.1.09.18.2.24.32.08-.09.16-.18.24-.27h0c.25-.32.47-.67.65-1.04.06-.12.13-.24.21-.35.08-.11.17-.22.27-.32.4-.42.84-.88,1.3-1.39s.94-1.06,1.45-1.63c.07-.08.12-.17.16-.27.04-.1.05-.2.05-.3-.04-.7.07-1.4.32-2.05.32-.63.87-.97,1.8-.84.36.05.71.18,1.02.36.57.37.96.95,1.09,1.62.13.67.13,1.37,0,2.04-.15.92-.43,1.81-.83,2.65h2.21c.99,0,1.78.8,1.79,1.79-.01.37-.11.74-.29,1.07-.06.12-.13.24-.2.35.08.09.15.18.22.28h.03ZM17.14,17.68v8.51c0,.34.28.61.61.61h14.61c.11,0,.22.04.3.11l3.96,2.72v-2.34c0-.26.21-.47.47-.47h1.96c.33,0,.61-.28.61-.61v-14.48c0-.34-.28-.61-.61-.61h-12.49c-.02.48-.2.93-.52,1.29-.1.12-.22.22-.35.32l.05.08c.17.28.27.6.27.93-.01.48-.19.93-.5,1.29-.1.13-.22.25-.35.35,0,.03.04.06.05.08h0c.17.28.26.6.26.92,0,.99-.8,1.78-1.79,1.79h-4.51c-.36-.02-.72-.06-1.08-.14-.32-.07-.63-.18-.92-.32h-.03l-.02-.03ZM16.76,16.54h.03c.27.07.54.17.79.3.22.11.45.18.69.24.3.07.61.1.92.12h4.48c.22,0,.44-.09.59-.25.16-.16.25-.37.25-.59,0-.15-.04-.3-.12-.43-.08-.13-.19-.23-.32-.3-.15-.07-.25-.22-.27-.39,0-.12.03-.25.11-.34.08-.09.2-.15.32-.16.21-.03.4-.14.53-.31.17-.19.27-.44.27-.69,0-.15-.04-.31-.12-.44-.08-.13-.2-.24-.33-.31-.2-.09-.3-.3-.26-.52.04-.21.22-.37.44-.38.23,0,.44-.1.59-.28.17-.19.27-.44.27-.69,0-.09-.02-.19-.05-.27,0-.01,0-.03,0-.04-.02-.04-.04-.09-.07-.12-.09-.14-.2-.25-.35-.32-.09-.04-.16-.11-.21-.2-.12-.23-.04-.51.19-.64.14-.1.25-.24.32-.4.11-.2.17-.41.18-.64-.01-.22-.12-.43-.29-.58-.16-.16-.37-.25-.59-.25h-2.99c-.17,0-.33-.09-.41-.24-.08-.15-.08-.33.02-.48.54-.93.91-1.96,1.09-3.02.11-.55.11-1.12,0-1.68-.07-.42-.31-.8-.67-1.04-.2-.12-.43-.2-.67-.23-.43-.07-.67.07-.8.32h0c-.19.52-.26,1.08-.23,1.63,0,.22-.04.43-.11.63-.08.2-.2.39-.35.55-.52.6-1.01,1.15-1.46,1.64-.45.5-.9.98-1.33,1.44-.06.06-.12.13-.17.2-.05.07-.1.15-.14.23-.21.43-.47.83-.76,1.2-.23.28-.49.54-.76.77v6.89h.98c.27,0,.53.03.79.08h-.02ZM30.16,15.27h6.57c.26,0,.47-.21.47-.47s-.21-.47-.47-.47h-6.57c-.26,0-.47.21-.47.47s.21.47.47.47ZM26.92,19.43h9.81c.25-.02.43-.23.43-.47s-.19-.45-.43-.47h-9.81c-.25.02-.43.23-.43.47s.19.45.43.47h0ZM20.07,23.6h16.65c.26,0,.47-.21.47-.47s-.21-.47-.47-.47h-16.65c-.26,0-.47.21-.47.47s.21.47.47.47h0Z"/>
    </g>
  </g>
</svg>