<?xml version="1.0" encoding="UTF-8"?>
<svg id="Layer_2" xmlns="http://www.w3.org/2000/svg" xmlns:xlink="http://www.w3.org/1999/xlink" viewBox="0 0 50 31">
  <defs>
    <style>
      .cls-1 {
        fill: #fff;
      }

      .cls-2 {
        fill: none;
      }

      .cls-3 {
        clip-path: url(#clippath);
      }
    </style>
    <clipPath id="clippath">
      <rect class="cls-2" width="50" height="31"/>
    </clipPath>
  </defs>
  <g id="Layer_1-2" data-name="Layer_1">
    <g class="cls-3">
      <g>
        <path class="cls-1" d="M25.34,30.9c1.14-.73,2.29-1.45,3.44-2.18.52-.33,1.04-.65,1.55-1.01,1.15-.8,2.22-1.72,3.18-2.75,1.9-2.03,3.35-4.45,4.26-7.08.76-2.18,1.08-4.47,1.08-6.78v-4.51c0-.3-.21-.57-.5-.65-.15-.04-.3-.09-.45-.14-.14-.04-.28-.09-.42-.15-.07-.03-.14-.05-.21-.08-.02-.01-.07-.04-.09-.04.08.03.09.04.05.02-.02-.01-.04-.02-.07-.03-.55-.24-1.08-.54-1.57-.89-.05-.04-.1-.07-.16-.12,0,0-.14-.1-.05-.03.07.06-.01,0-.03-.02-.12-.09-.24-.19-.36-.29-.22-.2-.44-.41-.64-.63-.1-.11-.2-.22-.29-.33-.05-.05-.09-.11-.14-.17-.02-.02-.04-.06-.06-.08.05.07.06.08.03.04-.01-.02-.03-.04-.04-.06-.18-.23-.34-.48-.49-.73-.18-.29-.34-.6-.48-.91-.01-.03-.03-.06-.04-.09-.01-.02-.02-.04-.03-.07-.02-.05-.01-.03.02.05,0-.07-.07-.17-.09-.23-.06-.16-.12-.31-.17-.47-.09-.28-.35-.5-.65-.5h-12.15c-.56,0-1.12-.02-1.68,0h-.02c-.31,0-.56.21-.65.5-.04.13-.08.25-.13.38-.03.07-.05.14-.08.21-.01.04-.03.08-.05.12.04-.07.03-.08,0,0-.12.28-.26.55-.41.81-.15.26-.31.52-.48.76-.04.06-.08.12-.13.18-.02.02-.05.05-.06.08.04-.09.05-.07.02-.02-.1.13-.2.25-.31.37-.19.22-.4.43-.61.63-.11.1-.22.2-.33.29-.05.05-.11.09-.17.14-.02.02-.05.04-.08.06-.04.03-.03.02.04-.03-.02.01-.04.03-.06.04-.48.36-.99.66-1.53.92-.08.04-.16.07-.25.11-.04.02-.14.07,0,0-.04.02-.08.03-.12.05-.16.06-.33.13-.49.18-.19.06-.38.12-.57.18-.28.08-.5.35-.5.65v4.08c0,.72,0,1.44.05,2.15.1,1.4.35,2.79.74,4.14.78,2.67,2.12,5.15,3.91,7.27.87,1.03,1.85,1.97,2.92,2.8.66.51,1.34.97,2.05,1.42,1.25.79,2.5,1.58,3.75,2.38.03.02.06.04.09.06.3.19.76.07.93-.24.18-.34.08-.72-.24-.93-1.13-.72-2.27-1.44-3.4-2.16-.49-.31-1-.62-1.48-.95-.28-.19-.57-.39-.83-.6.14.11-.08-.06-.1-.08-.06-.05-.12-.09-.18-.15-.14-.11-.27-.23-.41-.34-.51-.44-1-.91-1.46-1.4-.23-.24-.45-.49-.67-.75-.1-.12-.19-.23-.29-.35-.05-.06-.1-.13-.16-.2-.07-.09,0,0,.01.02-.04-.04-.07-.09-.1-.14-.4-.53-.77-1.07-1.11-1.64-.35-.57-.66-1.16-.94-1.76-.07-.15-.14-.3-.21-.46-.01-.03-.03-.06-.04-.09,0,0-.07-.16-.02-.06s-.02-.05-.02-.06c-.02-.05-.04-.09-.06-.14-.13-.31-.24-.62-.35-.94-.22-.64-.4-1.28-.56-1.94-.07-.33-.14-.66-.2-.99-.03-.15-.05-.3-.07-.45-.01-.08-.01-.17-.04-.25.04.14.01.07,0,.03,0-.06-.01-.12-.02-.18-.1-.87-.14-1.74-.14-2.62v-4.48c-.17.22-.33.44-.5.65,1.11-.34,2.18-.78,3.13-1.47,1.08-.78,1.99-1.75,2.68-2.89.38-.63.69-1.32.91-2.02-.22.17-.44.33-.65.5h12.15c.56,0,1.12.02,1.68,0h.02c-.22-.17-.44-.33-.65-.5.8,2.5,2.62,4.63,5,5.75.56.26,1.13.46,1.72.64-.17-.22-.33-.44-.5-.65v4.04c0,.69,0,1.38-.04,2.07-.02.34-.05.68-.09,1.02,0,.04-.03.32-.01.12,0,.07-.02.15-.03.23-.03.18-.05.35-.08.52-.12.66-.27,1.32-.46,1.97-.18.64-.4,1.26-.65,1.87-.03.07-.05.14-.08.21.07-.17-.03.07-.05.12-.07.16-.14.32-.22.48-.14.29-.28.59-.44.87-.31.59-.66,1.16-1.04,1.71-.19.28-.38.55-.58.82-.02.03-.05.07-.07.1-.06.08.1-.13,0,0-.05.06-.1.13-.16.2-.1.13-.21.26-.32.39-.43.51-.9,1-1.38,1.47-.24.23-.49.46-.75.68-.12.1-.23.2-.35.29-.06.05-.13.11-.2.16-.03.02-.05.04-.08.06-.03.02-.05.04-.08.06.06-.05.07-.06.04-.03-.6.46-1.23.87-1.87,1.28-1.24.79-2.48,1.57-3.72,2.36-.03.02-.06.04-.09.06-.3.19-.45.61-.24.93.2.28.61.43.93.23Z"/>
        <path class="cls-1" d="M18.58,14.95c1.16,1.16,2.32,2.32,3.48,3.48.17.17.33.33.49.49.26.26.7.26.96,0,.89-.89,1.79-1.79,2.69-2.69l4.25-4.25c.33-.33.65-.65.98-.98.25-.25.27-.71,0-.96s-.69-.27-.96,0c-.89.89-1.79,1.79-2.69,2.69l-4.25,4.25c-.33.33-.65.65-.98.98h.96c-1.16-1.16-2.32-2.32-3.48-3.48l-.49-.49c-.25-.25-.71-.27-.96,0-.25.27-.27.69,0,.96h0Z"/>
      </g>
    </g>
  </g>
</svg>