<?xml version="1.0" encoding="UTF-8"?>
<svg id="Layer_2" xmlns="http://www.w3.org/2000/svg" xmlns:xlink="http://www.w3.org/1999/xlink" viewBox="0 0 50 31">
  <defs>
    <style>
      .cls-1 {
        fill: #fff;
        fill-rule: evenodd;
      }

      .cls-2 {
        fill: none;
      }

      .cls-3 {
        clip-path: url(#clippath);
      }
    </style>
    <clipPath id="clippath">
      <rect class="cls-2" width="50" height="31"/>
    </clipPath>
  </defs>
  <g id="Layer_1-2" data-name="Layer_1">
    <g class="cls-3">
      <path class="cls-1" d="M30.42,19.65c-1.83,1.83-1.83,4.8,0,6.64s4.8,1.83,6.64,0,1.83-4.8,0-6.64c-.88-.88-2.07-1.37-3.32-1.37-1.24,0-2.44.49-3.32,1.37ZM30.72,23.45c-.2-.16-.24-.46-.08-.66s.46-.24.66-.08l1.87,1.47,2.93-3.39c.17-.2.47-.22.66-.05s.22.47.05.66l-3.21,3.7h0c-.16.21-.45.24-.66.08l-2.22-1.75ZM29.67,13.76h0l-.65-.63-.46,1.77,1.76-.5-.65-.64ZM36.08,5.43l1.78,1.74.86-.88c.13-.13.13-.34,0-.47l-1.3-1.27c-.13-.13-.34-.12-.47,0l-.86.88h0ZM33.04,8.54s-.03.03-.05.05l-3.55,3.63.56.54,5.99-6.11-.56-.54s-2.38,2.43-2.38,2.43ZM11.71,3.99h1.57c.2,0,.36-.16.36-.36v-1.97s-1.93,2.33-1.93,2.33ZM23.61,18.33c-.26,0-.47-.21-.47-.47s.21-.47.47-.47h5.76c.26,0,.47.21.47.47s-.21.47-.47.47h-5.76ZM14.62,18.33c-.26,0-.47-.21-.47-.47s.21-.47.47-.47h7.2c.26,0,.47.21.47.47s-.21.47-.47.47h-7.2ZM13.81,28.73v.98c0,.2.16.36.36.36h20.3c.2,0,.36-.16.36-.36v-1.21c-.74.15-1.49.14-2.23,0-.22.16-.48.24-.75.24H13.81ZM34.83,17.45c-.55-.11-1.12-.13-1.68-.08v-4.05l1.68-1.71v5.83h0ZM34.94,10.16l-2.57,2.62s-.03.03-.05.05l-1.1,1.13-.56-.54,5.99-6.11.56.54-2.21,2.26s-.03.03-.05.05h0ZM34.83,5.37l-1.68,1.71v-3.87h1.32c.2,0,.36.16.36.36v1.8h0ZM33.15,2.28h1.32c.72,0,1.3.58,1.3,1.3v.84l.51-.52c.49-.5,1.3-.51,1.8-.02l1.3,1.27c.5.49.51,1.3.02,1.8l-1.19,1.22h0l-2.43,2.48v7.07c2.9,1.12,4.34,4.39,3.22,7.29-.57,1.48-1.74,2.64-3.22,3.22v1.48c0,.72-.58,1.3-1.3,1.3H14.16c-.72,0-1.3-.58-1.3-1.3v-.97h-1.32c-.72,0-1.3-.58-1.3-1.3V4.44h0c0-.11.04-.21.11-.3h0s0-.01,0-.01h0S13.64.17,13.64.17c.09-.11.22-.17.36-.17h17.84c.72,0,1.3.58,1.3,1.3v.98h0ZM18.92,8.62c-.26,0-.48-.2-.48-.46,0-.26.2-.48.46-.48,0,0,.02,0,.03,0h10.46c.26,0,.46.22.46.48,0,.25-.21.45-.46.46h-10.46ZM14.62,8.62h2.51c.26,0,.46-.22.46-.48,0-.25-.21-.45-.46-.46h-2.51c-.26,0-.46.22-.46.48,0,.25.21.45.46.46ZM14.62,11.86h13.85l-.03.03c-.06.06-.1.14-.12.22l-.53,2.04h-13.16c-.26,0-.46.22-.46.48,0,.25.21.45.46.46h12.92l-.09.36c-.07.25.08.51.33.57.08.02.17.02.25,0h0l3.32-.95c.09-.02.17-.08.23-.14l.63-.65v3.26c-1.59.45-2.91,1.57-3.6,3.08h-13.99c-.26,0-.46.22-.46.48,0,.25.21.45.46.46h13.66c-.19.75-.23,1.53-.11,2.3h-13.55c-.26,0-.46.22-.46.48,0,.25.21.45.46.46h13.79c.43,1.25,1.28,2.3,2.41,2.99H11.55c-.2,0-.36-.16-.36-.36V4.93h2.09c.72,0,1.3-.58,1.3-1.3V.94h17.27c.2,0,.36.16.36.36v6.74l-2.82,2.87h-14.77c-.26,0-.46.22-.46.48,0,.25.21.45.46.46Z"/>
    </g>
  </g>
</svg>