<svg xmlns="http://www.w3.org/2000/svg" viewBox="0 0 90 34"><defs><style>.cls-1{fill:#092f5c;}.cls-2{fill:#fff;}</style></defs><title>canva-photoshop</title><g id="Layer_2" data-name="Layer 2"><g id="Layer_1-2" data-name="Layer 1"><rect class="cls-1" width="90" height="34" rx="17" ry="17"/><polygon class="cls-2" points="50.72 15.54 45.83 15.54 45.83 10.73 44.17 10.73 44.17 15.54 39.28 15.54 39.28 17.09 44.17 17.09 44.17 21.87 45.83 21.87 45.83 17.09 50.72 17.09 50.72 15.54"/></g><g id="photoshop"><g id="_2069a460dcf28295e231f3111e037552" data-name="2069a460dcf28295e231f3111e037552"><path class="cls-2" d="M74.32,6H59.61a3.68,3.68,0,0,0-3.67,3.68V24.39a3.68,3.68,0,0,0,3.67,3.67H74.32A3.68,3.68,0,0,0,78,24.39V9.68A3.68,3.68,0,0,0,74.32,6ZM66.51,17.23a4.68,4.68,0,0,1-3.33,1.12,5.17,5.17,0,0,1-.94-.06v4H60.33V11.87a16.27,16.27,0,0,1,2.94-.22,4.71,4.71,0,0,1,3.11.86,3,3,0,0,1,1,2.33A3.21,3.21,0,0,1,66.51,17.23Zm4,5.19a4.8,4.8,0,0,1-2.31-.54l.37-1.39a4.26,4.26,0,0,0,2,.55c.85,0,1.22-.34,1.22-.84s-.31-.79-1.25-1.11c-1.48-.52-2.11-1.33-2.09-2.22,0-1.35,1.11-2.39,2.87-2.39a4.41,4.41,0,0,1,2,.45l-.37,1.36a3.4,3.4,0,0,0-1.61-.44c-.69,0-1.07.33-1.07.8s.36.72,1.33,1.06c1.38.5,2,1.2,2,2.33C73.6,21.42,72.52,22.42,70.51,22.42Zm-5-7.51c0,1.24-.87,1.94-2.31,1.94a3.57,3.57,0,0,1-.94-.08V13.21a5.16,5.16,0,0,1,1.11-.09C64.68,13.12,65.49,13.74,65.49,14.91Z"/></g></g><g id="canva"><path class="cls-2" d="M23,6.06a11,11,0,1,0,11,11A11,11,0,0,0,23,6.06Zm-4.61,7a1.28,1.28,0,0,1,1.29,1.1,1.19,1.19,0,0,1-.75,1.28c-.32.16-.44.16-.51.07s0-.13.07-.19A1.3,1.3,0,0,0,19,14a.57.57,0,0,0-.53-.56c-1.1,0-2.67,2.44-2.45,4.23.1.69.5,1.5,1.38,1.5a2.2,2.2,0,0,0,.88-.22,3.16,3.16,0,0,0,1-.73,1.8,1.8,0,0,1,1.69-1.87c.47,0,.85.19.88.54a.45.45,0,0,1-.47.53c-.13,0-.35,0-.35-.16s.29-.06.26-.35-.22-.24-.41-.24c-.66,0-1,.91-.94,1.47,0,.25.15.5.41.5s.47-.28.56-.69a.59.59,0,0,1,.53-.47c.1,0,.16,0,.19.16v.12a1.94,1.94,0,0,0-.09.6.14.14,0,0,0,.15.15,1.88,1.88,0,0,0,.71-.42c.11-.54.23-1.18.23-1.24,0-.22.13-.44.57-.44.09,0,.15,0,.19.16v.13l-.13.56a2.18,2.18,0,0,1,1.38-.91.26.26,0,0,1,.28.25,1.12,1.12,0,0,1-.06.41,8.87,8.87,0,0,0-.38,1.35c0,.12,0,.25.19.25a1.61,1.61,0,0,0,1-.69h0c0-.07,0-.13,0-.19a3.22,3.22,0,0,1,.1-.91.7.7,0,0,1,.56-.47.19.19,0,0,1,.19.16.18.18,0,0,1,0,.12,3.88,3.88,0,0,0-.22,1.16,2.81,2.81,0,0,0,.09.73.06.06,0,0,0,.06.06,2.79,2.79,0,0,0,.82-.94,1,1,0,0,1-.44-.88c0-.66.41-1,.78-1s.57.22.57.66a1.8,1.8,0,0,1-.25.87H28a.69.69,0,0,0,.53-.21.33.33,0,0,1,.13-.11,1.67,1.67,0,0,1,1.29-.68c.44,0,.84.19.87.53a.47.47,0,0,1-.47.57c-.12,0-.34,0-.34-.16s.28-.06.25-.34-.22-.26-.41-.26c-.63,0-1,.82-.94,1.48,0,.25.16.53.41.53s.47-.28.59-.69a.64.64,0,0,1,.53-.47c.1,0,.16,0,.19.16a2,2,0,0,1-.12.59.74.74,0,0,0-.13.57.76.76,0,0,0,.29.53l.06.09a.12.12,0,0,1-.13.13.11.11,0,0,1-.09,0,1.07,1.07,0,0,1-.72-.82.88.88,0,0,1-.66.35,1,1,0,0,1-.88-.85,1.32,1.32,0,0,1,.07-.59,1.1,1.1,0,0,1-.57.19h-.16a4.15,4.15,0,0,1-1.16,1.18A.79.79,0,0,1,26,19a.22.22,0,0,1-.19-.1,1.58,1.58,0,0,1-.18-.6,2.21,2.21,0,0,1-1.32.73.51.51,0,0,1-.54-.5v-.34A8.51,8.51,0,0,1,24.16,17a.06.06,0,0,0-.06-.06A2.31,2.31,0,0,0,23,18.2l-.09.4a.64.64,0,0,1-.54.47c-.09,0-.15,0-.18-.15v-.13l0-.21a2.33,2.33,0,0,1-1,.46.42.42,0,0,1-.46-.38.81.81,0,0,1-.69.38.9.9,0,0,1-.79-.54,4.38,4.38,0,0,1-.78.7,2.82,2.82,0,0,1-1.54.5,1.91,1.91,0,0,1-1.25-.53,2.13,2.13,0,0,1-.63-1.38,4.93,4.93,0,0,1,2.2-4.39,2.15,2.15,0,0,1,1-.31Zm8.93,3c-.09,0-.15.16-.15.31a1.05,1.05,0,0,0,.28.7,1.7,1.7,0,0,0,.09-.54c0-.31-.12-.47-.22-.47Z"/></g></g></svg>