<svg xmlns="http://www.w3.org/2000/svg" viewBox="0 0 90 34"><defs><style>.cls-1{fill:#092f5c;}.cls-2{fill:#fff;}</style></defs><title>dimension-corel</title><g id="Layer_2" data-name="Layer 2"><g id="Layer_1-2" data-name="Layer 1"><rect class="cls-1" width="90" height="34" rx="17" ry="17"/><polygon class="cls-2" points="50.72 15.54 45.83 15.54 45.83 10.73 44.17 10.73 44.17 15.54 39.28 15.54 39.28 17.09 44.17 17.09 44.17 21.87 45.83 21.87 45.83 17.09 50.72 17.09 50.72 15.54"/></g><g id="corel"><g id="_2069a460dcf28295e231f3111e0396ed" data-name="2069a460dcf28295e231f3111e0396ed"><path class="cls-2" d="M66.31,25.91h1.42a.47.47,0,0,1,.47.46v1.14a.47.47,0,0,1-.47.46H66.31a.47.47,0,0,1-.46-.46V26.37a.47.47,0,0,1,.46-.46ZM60.42,12.25c0,3.5,3,9,5.74,12.73h.27c-2.09-3.81-3.88-8.51-3.89-12.22,0-3.36,1.36-5.5,3.21-6.72q-.61.06-1.23.18a6.08,6.08,0,0,0-4.1,6Zm6-6.25a10.38,10.38,0,0,0-1.89,6.45A48.49,48.49,0,0,0,66.66,25h.72a48.49,48.49,0,0,0,2.08-12.53A10.38,10.38,0,0,0,67.57,6a10.09,10.09,0,0,0-1.1,0Zm7.15,6.25c0,3.5-3,9-5.74,12.73h-.27c2.09-3.81,3.88-8.51,3.89-12.22,0-3.36-1.36-5.5-3.21-6.72q.61.06,1.23.18a6.08,6.08,0,0,1,4.1,6ZM68.07,25c3.08-3.24,6.57-8.65,6.59-12.82a5.78,5.78,0,0,0-3-5.29,5.58,5.58,0,0,1,3.74,5.36c0,4.23-4.08,9.83-7.31,12.75ZM66,25c-3.08-3.24-6.57-8.65-6.59-12.82a5.8,5.8,0,0,1,3-5.29,5.58,5.58,0,0,0-3.74,5.36c0,4.23,4.08,9.83,7.31,12.75Z"/></g></g><g id="dimension"><path class="cls-2" d="M34,17c0,2.1.06,4.2,0,6.3A4.64,4.64,0,0,1,29.32,28c-1.71.07-3.42.05-5.13.06-2.32,0-4.64,0-7,0a5.26,5.26,0,0,1-3.43-1.1,4.65,4.65,0,0,1-1.73-3.66C12,20.5,12,17.76,12,15c0-1.42,0-2.84.06-4.26a4.67,4.67,0,0,1,4.72-4.72C20.92,6,25.06,6,29.2,6.05A4.59,4.59,0,0,1,34,10.63c.1,2.11,0,4.23,0,6.35Zm-19.23-.72c0,1.56,0,3.12,0,4.67,0,.32.08.46.42.45,1.05,0,2.11,0,3.15,0a5.3,5.3,0,0,0,4-1.89,5.2,5.2,0,0,0,1.1-3.94,4.54,4.54,0,0,0-4.52-4.3c-1.24-.11-2.5,0-3.75,0-.33,0-.39.12-.39.42C14.75,13.17,14.74,14.72,14.74,16.26Zm9.7-2.6v1.53c0,1.92,0,3.85,0,5.77,0,.31.09.43.41.41a8.55,8.55,0,0,1,1.24,0c.36,0,.46-.11.45-.47q0-2.36,0-4.71a.63.63,0,0,1,.16-.46,1.61,1.61,0,0,1,1.7-.3,1.28,1.28,0,0,1,.72,1.35v4.54h2.1V20c0-1.46,0-2.93-.1-4.39a2.37,2.37,0,0,0-2.73-2.13,3.8,3.8,0,0,0-1.94.76,1.58,1.58,0,0,0-.15-.38c-.07-.1-.19-.23-.29-.23C25.48,13.65,25,13.66,24.44,13.66Z"/><path class="cls-2" d="M16.84,16.27c0-.95,0-1.9,0-2.85,0-.32.1-.44.42-.41a13,13,0,0,1,1.77.12,2.63,2.63,0,0,1,2.19,2.51,3.57,3.57,0,0,1-.94,3.08,3.29,3.29,0,0,1-2.13.86c-.29,0-.58,0-.87,0s-.45-.08-.44-.43C16.86,18.19,16.84,17.23,16.84,16.27Z"/></g></g></svg>