<svg xmlns="http://www.w3.org/2000/svg" viewBox="0 0 90 34"><defs><style>.cls-1{fill:#092f5c;}.cls-2{fill:#fff;}</style></defs><title>illustrator-infogram</title><g id="Layer_2" data-name="Layer 2"><g id="Layer_1-2" data-name="Layer 1"><rect class="cls-1" width="90" height="34" rx="17" ry="17"/><polygon class="cls-2" points="50.72 15.54 45.83 15.54 45.83 10.73 44.17 10.73 44.17 15.54 39.28 15.54 39.28 17.09 44.17 17.09 44.17 21.87 45.83 21.87 45.83 17.09 50.72 17.09 50.72 15.54"/></g><g id="illustrator"><g id="_2069a460dcf28295e231f3111e03585e" data-name="2069a460dcf28295e231f3111e03585e"><path class="cls-2" d="M21.78,15.36,22.6,18H19.91l.81-2.59c.18-.62.34-1.35.5-2h0C21.4,14,21.57,14.73,21.78,15.36ZM34,9.67V24.33A3.68,3.68,0,0,1,30.33,28H15.67A3.68,3.68,0,0,1,12,24.33V9.67A3.68,3.68,0,0,1,15.67,6H30.33A3.68,3.68,0,0,1,34,9.67ZM25.94,22.38,22.52,11.87H20.08L16.71,22.38h2l.91-3h3.33l.95,3Zm3.24-7.59H27.25v7.59h1.93Zm.11-2.12a1.08,1.08,0,0,0-2.15,0,1.08,1.08,0,0,0,2.15,0Z"/></g></g><g id="inforam"><path class="cls-2" d="M74.34,6H59.68A3.68,3.68,0,0,0,56,9.67V24.34A3.67,3.67,0,0,0,59.68,28H74.34A3.67,3.67,0,0,0,78,24.34V9.67A3.68,3.68,0,0,0,74.34,6ZM64,22.92H61.54V11.07H64Zm4.25,0H65.79V13.83h2.45Zm4.24,0H70V17h2.45Z"/></g></g></svg>