<svg xmlns="http://www.w3.org/2000/svg" viewBox="0 0 90 34"><defs><style>.cls-1{fill:#092f5c;}.cls-2{fill:#fff;}</style></defs><title>illustrator-corel</title><g id="Layer_2" data-name="Layer 2"><g id="Layer_1-2" data-name="Layer 1"><rect class="cls-1" width="90" height="34" rx="17" ry="17"/><polygon class="cls-2" points="50.72 15.54 45.83 15.54 45.83 10.73 44.17 10.73 44.17 15.54 39.28 15.54 39.28 17.09 44.17 17.09 44.17 21.87 45.83 21.87 45.83 17.09 50.72 17.09 50.72 15.54"/></g><g id="corel"><g id="_2069a460dcf28295e231f3111e0396ed" data-name="2069a460dcf28295e231f3111e0396ed"><path class="cls-2" d="M66.31,25.91h1.42a.47.47,0,0,1,.47.46v1.14a.47.47,0,0,1-.47.46H66.31a.47.47,0,0,1-.46-.46V26.37a.47.47,0,0,1,.46-.46ZM60.42,12.25c0,3.5,3,9,5.74,12.73h.27c-2.09-3.81-3.88-8.51-3.89-12.22,0-3.36,1.36-5.5,3.21-6.72q-.61.06-1.23.18a6.08,6.08,0,0,0-4.1,6Zm6-6.25a10.38,10.38,0,0,0-1.89,6.45A48.49,48.49,0,0,0,66.66,25h.72a48.49,48.49,0,0,0,2.08-12.53A10.38,10.38,0,0,0,67.57,6a10.09,10.09,0,0,0-1.1,0Zm7.15,6.25c0,3.5-3,9-5.74,12.73h-.27c2.09-3.81,3.88-8.51,3.89-12.22,0-3.36-1.36-5.5-3.21-6.72q.61.06,1.23.18a6.08,6.08,0,0,1,4.1,6ZM68.07,25c3.08-3.24,6.57-8.65,6.59-12.82a5.78,5.78,0,0,0-3-5.29,5.58,5.58,0,0,1,3.74,5.36c0,4.23-4.08,9.83-7.31,12.75ZM66,25c-3.08-3.24-6.57-8.65-6.59-12.82a5.8,5.8,0,0,1,3-5.29,5.58,5.58,0,0,0-3.74,5.36c0,4.23,4.08,9.83,7.31,12.75Z"/></g></g><g id="illustrator"><g id="_2069a460dcf28295e231f3111e03585e" data-name="2069a460dcf28295e231f3111e03585e"><path class="cls-2" d="M21.78,15.36,22.6,18H19.91l.81-2.59c.18-.62.34-1.35.5-2h0C21.4,14,21.57,14.73,21.78,15.36ZM34,9.67V24.33A3.68,3.68,0,0,1,30.33,28H15.67A3.68,3.68,0,0,1,12,24.33V9.67A3.68,3.68,0,0,1,15.67,6H30.33A3.68,3.68,0,0,1,34,9.67ZM25.94,22.38,22.52,11.87H20.08L16.71,22.38h2l.91-3h3.33l.95,3Zm3.24-7.59H27.25v7.59h1.93Zm.11-2.12a1.08,1.08,0,0,0-2.15,0,1.08,1.08,0,0,0,2.15,0Z"/></g></g></g></svg>