<svg xmlns="http://www.w3.org/2000/svg" viewBox="0 0 90 34"><defs><style>.cls-1{fill:#092f5c;}.cls-2{fill:#fff;}</style></defs><title>indesign-canva</title><g id="Layer_2" data-name="Layer 2"><g id="Layer_1-2" data-name="Layer 1"><rect class="cls-1" width="90" height="34" rx="17" ry="17"/><polygon class="cls-2" points="50.72 15.54 45.83 15.54 45.83 10.73 44.17 10.73 44.17 15.54 39.28 15.54 39.28 17.09 44.17 17.09 44.17 21.87 45.83 21.87 45.83 17.09 50.72 17.09 50.72 15.54"/></g><g id="indesign"><g id="_2069a460dcf28295e231f3111e035a9d" data-name="2069a460dcf28295e231f3111e035a9d"><path class="cls-2" d="M26.57,17.55a2.92,2.92,0,0,1,.05.5V19.2a2.47,2.47,0,0,1-.06.56,1.7,1.7,0,0,1-1.66,1.36c-1.22,0-1.91-1-1.91-2.41s.69-2.51,1.93-2.51A1.67,1.67,0,0,1,26.57,17.55Zm7.5-7.87V24.39a3.68,3.68,0,0,1-3.67,3.67H15.69A3.69,3.69,0,0,1,12,24.39V9.68A3.69,3.69,0,0,1,15.69,6H30.4A3.68,3.68,0,0,1,34.07,9.68ZM19.4,12H17.48V22.49H19.4Zm9.21,10.53c0-.51-.07-1.36-.07-2.14v-9H26.62v4.31h0a2.42,2.42,0,0,0-2.14-1c-1.83,0-3.42,1.52-3.41,4.06,0,2.35,1.44,3.9,3.25,3.9a2.77,2.77,0,0,0,2.49-1.38h0l.08,1.2Z"/></g></g><g id="canva"><path class="cls-2" d="M67.09,6.06a11,11,0,1,0,11,11A11,11,0,0,0,67.09,6.06Zm-4.6,7a1.27,1.27,0,0,1,1.28,1.1A1.17,1.17,0,0,1,63,15.46c-.31.16-.44.16-.5.07a.17.17,0,0,1,.06-.19,1.26,1.26,0,0,0,.5-1.38.57.57,0,0,0-.53-.56c-1.1,0-2.66,2.44-2.44,4.23.09.69.5,1.5,1.37,1.5a2.16,2.16,0,0,0,.88-.22,3.21,3.21,0,0,0,1-.73,1.8,1.8,0,0,1,1.69-1.87c.47,0,.84.19.88.54a.45.45,0,0,1-.48.53c-.12,0-.34,0-.34-.16s.28-.06.25-.35-.22-.24-.4-.24c-.67,0-1,.91-1,1.47,0,.25.16.5.41.5s.47-.28.56-.69a.61.61,0,0,1,.54-.47c.09,0,.15,0,.18.16v.12a2.82,2.82,0,0,0-.09.6.14.14,0,0,0,.16.15,2,2,0,0,0,.71-.42c.1-.54.23-1.18.23-1.24,0-.22.12-.44.56-.44.1,0,.16,0,.19.16v.13l-.12.56a2.16,2.16,0,0,1,1.37-.91.26.26,0,0,1,.29.25,1,1,0,0,1-.07.41,10.29,10.29,0,0,0-.37,1.35c0,.12,0,.25.19.25a1.66,1.66,0,0,0,1-.69h0v-.19a3.71,3.71,0,0,1,.09-.91.72.72,0,0,1,.57-.47.19.19,0,0,1,.19.16.15.15,0,0,1,0,.12,4.22,4.22,0,0,0-.22,1.16,2.43,2.43,0,0,0,.1.73.06.06,0,0,0,.06.06,2.93,2.93,0,0,0,.81-.94,1,1,0,0,1-.44-.88c0-.66.41-1,.79-1s.56.22.56.66a1.8,1.8,0,0,1-.25.87h.1a.7.7,0,0,0,.53-.21.25.25,0,0,1,.12-.11A1.67,1.67,0,0,1,74,16.25c.44,0,.85.19.88.53a.48.48,0,0,1-.47.57c-.13,0-.35,0-.35-.16s.28-.06.25-.34-.22-.26-.41-.26c-.62,0-1,.82-.94,1.48,0,.25.16.53.41.53s.47-.28.6-.69a.62.62,0,0,1,.53-.47.17.17,0,0,1,.19.16,1.83,1.83,0,0,1-.13.59.77.77,0,0,0-.12.57.76.76,0,0,0,.28.53.43.43,0,0,1,.06.09c0,.07,0,.13-.12.13a.12.12,0,0,1-.1,0,1.07,1.07,0,0,1-.72-.82.88.88,0,0,1-.66.35,1,1,0,0,1-.87-.85,1.47,1.47,0,0,1,.06-.59,1,1,0,0,1-.57.19h-.15a4.15,4.15,0,0,1-1.16,1.18.88.88,0,0,1-.35.1.2.2,0,0,1-.18-.1,1.42,1.42,0,0,1-.18-.6,2.23,2.23,0,0,1-1.33.73.5.5,0,0,1-.53-.5v-.34A7.3,7.3,0,0,1,68.29,17a.07.07,0,0,0-.07-.06,2.26,2.26,0,0,0-1.06,1.26l-.1.4a.62.62,0,0,1-.53.47.17.17,0,0,1-.19-.15v-.13l0-.21a2.3,2.3,0,0,1-1,.46.43.43,0,0,1-.47-.38.81.81,0,0,1-.69.38.91.91,0,0,1-.79-.54,4.31,4.31,0,0,1-.77.7,2.82,2.82,0,0,1-1.54.5,1.91,1.91,0,0,1-1.25-.53,2.09,2.09,0,0,1-.63-1.38,4.9,4.9,0,0,1,2.19-4.39,2.19,2.19,0,0,1,1-.31Zm8.93,3c-.1,0-.16.16-.16.31a1.11,1.11,0,0,0,.28.7,1.47,1.47,0,0,0,.1-.54c0-.31-.13-.47-.22-.47Z"/></g></g></svg>