<svg xmlns="http://www.w3.org/2000/svg" viewBox="0 0 90 34"><defs><style>.cls-1{fill:#092f5c;}.cls-2{fill:#fff;}</style></defs><title>unbounce-hotjar</title><g id="Layer_2" data-name="Layer 2"><g id="Layer_1-2" data-name="Layer 1"><rect class="cls-1" width="90" height="34" rx="17" ry="17"/><polygon class="cls-2" points="50.72 15.54 45.83 15.54 45.83 10.73 44.17 10.73 44.17 15.54 39.28 15.54 39.28 17.09 44.17 17.09 44.17 21.87 45.83 21.87 45.83 17.09 50.72 17.09 50.72 15.54"/></g><g id="hotjar"><path class="cls-2" d="M75.47,13.18C72.14,7.28,62.39,6,62.39,6s4.5,4.91-1.25,8.8c-3.64,2.45-5.08,5.64-3.52,9.12,1.19,2.67,3.72,3.76,6.44,4.16-1.3-2.45-.3-5.45-.19-5.77,2.55,3.85,7.35,0,4.94-4.18,3.16.69,3.63,6.17,1.2,9.6a9.91,9.91,0,0,0,6.63-6.49,11.2,11.2,0,0,0-1.17-8Z"/></g><g id="unbounce"><path class="cls-2" d="M23,6.06A11,11,0,1,1,12,17,11,11,0,0,1,23,6.06Zm2.55,3.63a1,1,0,0,0-1.19.43A7.2,7.2,0,0,0,23,10a7,7,0,0,0-3.21,13.26,1,1,0,0,0,.68,1.07.93.93,0,0,0,.33.07,1,1,0,0,0,.47-.13.92.92,0,0,0,.39-.37.59.59,0,0,0,.1-.21h0l.81-2.36,2.8-8,.8-2.36a.85.85,0,0,0,0-.23,1.09,1.09,0,0,0-.14-.62A1,1,0,0,0,25.51,9.69Zm2,2-1,2.92A4.19,4.19,0,0,1,27.28,17a4.31,4.31,0,0,1-2.86,4.08h0l-1,2.92a7,7,0,0,0,4.06-12.33ZM23,12.7a2.55,2.55,0,0,1,.39,0h0l-2.72,8a4.39,4.39,0,0,1-2-3.65A4.32,4.32,0,0,1,23,12.7Z"/></g></g></svg>