<svg xmlns="http://www.w3.org/2000/svg" viewBox="0 0 90 34"><defs><style>.cls-1{fill:#092f5c;}.cls-2{fill:#fff;}.cls-3{fill:#fefefe;}</style></defs><title>xd-invision</title><g id="Layer_2" data-name="Layer 2"><g id="Layer_1-2" data-name="Layer 1"><rect class="cls-1" width="90" height="34" rx="17" ry="17"/><polygon class="cls-2" points="50.72 15.54 45.83 15.54 45.83 10.73 44.17 10.73 44.17 15.54 39.28 15.54 39.28 17.09 44.17 17.09 44.17 21.87 45.83 21.87 45.83 17.09 50.72 17.09 50.72 15.54"/></g><g id="invision"><g id="Page-1"><g id="Dribbble-Light-Preview"><g id="icons"><path id="invision-_166_" data-name="invision-[#166]" class="cls-3" d="M72.34,23C70.58,23,70,21.58,70.46,20l.65-2.33c.31-1,0-1.92-1.09-1.92s-1.54.51-1.86,1.8L66.9,22.51H64.68l.4-1.44a3.23,3.23,0,0,1-2.67,1.81c-1.72,0-2.25-1.21-1.86-2.88l1-4.1H60l.47-2.2h3.76l-1.48,6.11c-.18.66-.32,1.47.33,1.62a2.43,2.43,0,0,0,2.35-1.66l1-3.87H64.82l.48-2.2h3.38l-.44,2.21a3.73,3.73,0,0,1,3-2.05c1.9,0,2.69,2,2.06,4.12l-.64,2.29c-.39,1.57.75,1.77,1.47-.21l.87.34C74.43,22.2,73.5,23,72.34,23m-9-12.67A1.32,1.32,0,1,1,62,11.6a1.32,1.32,0,0,1,1.34-1.32M76,6H58a2,2,0,0,0-2,2V26a2,2,0,0,0,2,2H76a2,2,0,0,0,2-2V8a2,2,0,0,0-2-2"/></g></g></g></g><g id="xd"><path class="cls-2" d="M28.64,16.38v4.13A2,2,0,0,1,26,18.45,2.1,2.1,0,0,1,28.64,16.38Z"/><path class="cls-2" d="M33.45,8.72a4.9,4.9,0,0,0-2.17-2.17C30.21,6,28.82,6,26,6H20c-2.78,0-4.17,0-5.24.55a4.9,4.9,0,0,0-2.17,2.17C12,9.79,12,11.18,12,14V20c0,2.78,0,4.18.55,5.24a4.92,4.92,0,0,0,2.17,2.18C15.79,28,17.18,28,20,28H26c2.78,0,4.17,0,5.24-.54a4.92,4.92,0,0,0,2.17-2.18C34,24.22,34,22.82,34,20V14C34,11.18,34,9.79,33.45,8.72ZM23.61,22.19H21.52c-.16,0-.26,0-.31-.11l-.59-1.17c-.2-.39-.41-.79-.63-1.19s-.44-.82-.65-1.23c-.2.4-.43.82-.64,1.22l-.62,1.2c-.21.4-.41.79-.64,1.19,0,.09-.11.1-.2.1h-2c-.08,0-.09-.07-.05-.13L18,17.27l-2.77-4.81c-.05-.07,0-.15.07-.14H17.4a.23.23,0,0,1,.22.1c.18.41.38.82.59,1.22s.44.8.66,1.19.43.79.62,1.2c.2-.42.4-.82.6-1.21s.42-.79.63-1.19l.61-1.18a.15.15,0,0,1,.17-.13h1.93c.08,0,.1.1.08.15l-2.75,4.64L23.7,22C23.76,22.16,23.7,22.19,23.61,22.19Zm7-.4a7.35,7.35,0,0,1-2.91.59,3.71,3.71,0,0,1-3.35-1.71,4.47,4.47,0,0,1,0-4.11,4.25,4.25,0,0,1,4.25-2v-3c0-.06,0-.11.09-.11h1.86a.08.08,0,0,1,.08.09v9c0,.37,0,.74.07,1.1A.17.17,0,0,1,30.65,21.79Z"/></g></g></svg>