<?xml version="1.0" encoding="utf-8"?>
<!-- Generator: Adobe Illustrator 27.5.0, SVG Export Plug-In . SVG Version: 6.00 Build 0)  -->
<svg version="1.1" xmlns="http://www.w3.org/2000/svg" xmlns:xlink="http://www.w3.org/1999/xlink" x="0px" y="0px"
	 viewBox="0 0 500 500" style="enable-background:new 0 0 500 500;" xml:space="preserve">
<g id="Background">
	<rect style="fill:#C2DEF9;" width="500" height="500"/>
</g>
<g id="Objects">
	<g>
		<g>
			<path style="fill:#9ABFE2;" d="M404.494,280.286c0,0,56.547-61.759,3.178-150.506c-39.619-65.879-96.152-42.816-141.209-5.877
				c-45.061,36.954-132.965-47.534-154.839,47.275C87.595,275.321,286.969,404.17,404.494,280.286z"/>
			<g>
				<path style="fill:#E6F4FF;" d="M305.42,143.326c-1.178-1.772-3.07-2.939-5.223-2.939c-0.158,0-0.305,0.041-0.459,0.052
					c-1.113-3.73-4.277-6.441-8.049-6.441c-0.643,0-1.266,0.092-1.867,0.24c-1.525-4.38-5.363-7.504-9.893-7.504
					c-0.236,0-0.457,0.06-0.689,0.076c-1.729-3.517-5.076-5.934-8.973-5.934c-4.1,0-7.609,2.661-9.242,6.479
					c-1.209-0.722-2.57-1.168-4.041-1.168c-0.303,0-0.586,0.064-0.879,0.097c-1.697-4.406-5.673-7.499-10.31-7.499
					c-6.179,0-11.188,5.493-11.188,12.271c-3.904,0-7.158,2.9-8.16,6.831c-0.404-0.086-0.82-0.137-1.247-0.137
					c-3.099,0-5.681,2.39-6.317,5.576H305.42z"/>
				<path style="fill:#E6F4FF;" d="M450.678,211.481c-1.178-1.772-3.072-2.939-5.225-2.939c-0.158,0-0.305,0.041-0.459,0.052
					c-1.113-3.729-4.277-6.441-8.049-6.441c-0.643,0-1.266,0.092-1.867,0.24c-1.525-4.38-5.363-7.504-9.893-7.504
					c-0.236,0-0.457,0.059-0.689,0.076c-1.729-3.517-5.076-5.934-8.971-5.934c-4.1,0-7.611,2.661-9.244,6.479
					c-1.207-0.722-2.57-1.168-4.041-1.168c-0.301,0-0.584,0.063-0.877,0.097c-1.697-4.406-5.674-7.499-10.311-7.499
					c-6.18,0-11.188,5.493-11.188,12.271c-3.904,0-7.158,2.9-8.16,6.831c-0.404-0.086-0.82-0.137-1.248-0.137
					c-3.098,0-5.68,2.39-6.316,5.576H450.678z"/>
				<path style="fill:#E6F4FF;" d="M152.904,173.96c-1.178-1.773-3.071-2.94-5.224-2.94c-0.158,0-0.305,0.041-0.459,0.052
					c-1.113-3.729-4.277-6.441-8.049-6.441c-0.643,0-1.266,0.092-1.867,0.24c-1.525-4.38-5.363-7.504-9.893-7.504
					c-0.236,0-0.457,0.06-0.689,0.076c-1.729-3.517-5.076-5.934-8.972-5.934c-4.1,0-7.61,2.661-9.243,6.48
					c-1.208-0.722-2.57-1.168-4.041-1.168c-0.302,0-0.585,0.063-0.878,0.097c-1.697-4.406-5.674-7.499-10.311-7.499
					c-6.179,0-11.188,5.493-11.188,12.271c-3.904,0-7.158,2.9-8.16,6.831c-0.404-0.086-0.82-0.137-1.247-0.137
					c-3.099,0-5.681,2.39-6.317,5.576H152.904z"/>
			</g>
		</g>
		<path style="fill:#9ABFE2;" d="M442,371.234c0,2.209-1.791,4-4,4H63.5c-2.209,0-4-1.791-4-4v-0.172c0-2.21,1.791-4,4-4H438
			c2.209,0,4,1.79,4,4V371.234z"/>
		<path style="fill:#9ABFE2;" d="M429.303,385.352c0,2.209-1.791,4-4,4H133.25c-2.209,0-4-1.791-4-4v-0.172c0-2.21,1.791-4,4-4
			h292.053c2.209,0,4,1.79,4,4V385.352z"/>
		<g>
			<g>
				
					<rect x="167.042" y="333.503" transform="matrix(-1 -1.224647e-16 1.224647e-16 -1 589.3447 683.5986)" style="fill:#FFFFFF;" width="255.261" height="16.593"/>
				
					<rect x="289.684" y="301.065" transform="matrix(-1 -1.224647e-16 1.224647e-16 -1 599.5996 634.5683)" style="fill:#383A47;" width="20.232" height="32.438"/>
				<polygon style="fill:#9ABFE2;" points="376.596,224.047 395.805,272.336 315.969,272.336 315.969,224.047 				"/>
				<path style="fill:#2E313D;" d="M366.254,272.235c0,0.034,0.004,0.066,0.004,0.1h29.547l-7.545-18.967
					c-0.949-0.145-1.91-0.242-2.898-0.242C374.809,253.127,366.254,261.682,366.254,272.235z"/>
				<g>
					<path style="fill:#383A47;" d="M365.65,273.696c-0.402,0.988-1.531,1.464-2.52,1.062l0,0c-0.988-0.401-1.463-1.528-1.063-2.517
						l7.383-18.157c0.402-0.989,1.529-1.465,2.518-1.063l0,0c0.988,0.402,1.465,1.529,1.063,2.518L365.65,273.696z"/>
					<g>
						<g>
							<rect x="336.496" y="250.026" style="fill:#FFB985;" width="7.83" height="9.881"/>
							<path style="fill:#EA9C68;" d="M336.496,253.087c2.26,2.04,4.967,3.293,7.83,3.461v-6.522h-7.83V253.087z"/>
						</g>
						<g>
							<path style="fill:#BC1F2C;" d="M330.043,281.037h18.082c6.795-26.268-8.854-25.726-8.854-25.726
								c-13.133-1.438-8.809,22.756-8.809,22.756C330.545,278.983,330.363,279.998,330.043,281.037z"/>
							<path style="fill:#9D1625;" d="M342.783,256.023c-0.01-0.005-0.022-0.01-0.031-0.014c-0.055-0.02-0.108-0.04-0.16-0.06
								c-0.068-0.026-0.139-0.051-0.205-0.074c-1.703,0.227-3.096,0.657-3.793,1.398c0,0-5.699,4.398,4.57,15.099
								c1.941,2.021,4.016,5.938,4.961,8.664c0.123-0.476,0.236-0.942,0.348-1.401c0.027-0.109,0.049-0.218,0.074-0.326
								c0.078-0.343,0.156-0.681,0.226-1.013c0.029-0.14,0.057-0.276,0.086-0.412c0.06-0.299,0.121-0.597,0.178-0.891
								c0.025-0.138,0.051-0.275,0.076-0.415c0.053-0.286,0.104-0.57,0.15-0.852c0.02-0.126,0.039-0.255,0.063-0.383
								c0.045-0.29,0.088-0.577,0.127-0.86c0.014-0.107,0.029-0.211,0.043-0.315c0.043-0.323,0.082-0.642,0.117-0.955
								c0.006-0.057,0.012-0.116,0.02-0.171c0.078-0.764,0.135-1.497,0.168-2.196C350.26,260.881,346.021,257.304,342.783,256.023z"
								/>
						</g>
						<path style="fill:#EA9C68;" d="M346.217,262.639c0,3.382-2.096,6.122-4.684,6.122c-2.584,0-4.682-2.74-4.682-6.122
							c0-3.383,2.098-6.123,4.682-6.123C344.121,256.516,346.217,259.256,346.217,262.639z"/>
						<g>
							<g>
								<path style="fill:#FFB985;" d="M353.221,240.527c0.775,7.255-3.598,13.693-9.772,14.38
									c-6.176,0.688-11.813-4.636-12.592-11.891c-0.777-7.254,3.6-13.692,9.772-14.379
									C346.805,227.949,352.439,233.272,353.221,240.527z"/>
							</g>
							<g>
								<path style="fill:#FFB985;" d="M353.221,240.527c0.775,7.255-3.598,13.693-9.772,14.38
									c-6.176,0.688-11.813-4.636-12.592-11.891c-0.777-7.254,3.6-13.692,9.772-14.379
									C346.805,227.949,352.439,233.272,353.221,240.527z"/>
								<path style="fill:#EA9C68;" d="M353.25,240.883c-0.012-0.12-0.018-0.237-0.029-0.355c-0.086-0.779-0.229-1.534-0.418-2.265
									l-11.732,1.475L353.25,240.883z"/>
							</g>
							<g>
								<path style="fill:#383A47;" d="M340.586,228.231c-6.383,0.71-10.908,7.364-10.1,14.862c0.459,4.318,2.592,7.971,5.533,10.16
									c-0.492-1.969-0.867-9.347,5.051-13.517l12.291-0.277C352.559,232.606,346.844,227.533,340.586,228.231z"/>
								<path style="fill:#2E313D;" d="M353.158,238.213c0-0.002-0.002-0.003-0.002-0.006c-0.26-1.228-0.678-2.386-1.23-3.448
									c0,0,0,0,0-0.002l-0.031-0.063c-0.406-0.777-0.887-1.501-1.426-2.166c-0.863,1.23-4.719,6.383-9.398,7.209l12.291-0.277
									C353.31,239.037,353.244,238.621,353.158,238.213z"/>
								<g>
									<path style="fill:#383A47;" d="M344.68,239.656c0,0,5.592-5.319,6.338-8.515c0.385-1.652,1.85-0.241,1.797,1.358
										c-0.031,1.039,0.283-2.968,1.129-3.156c0.846-0.188,1.352,2.353,0.834,4.749c0,0,0.43-1.783,0.994-0.701
										c0.563,1.081-0.133,5.234-2.41,6.068l-5.441,0.123L344.68,239.656z"/>
									<path style="fill:#2E313D;" d="M352.434,234.919c0,0-0.09,0.336-0.281,0.822c-0.086,0.247-0.219,0.521-0.346,0.823
										c-0.154,0.288-0.297,0.61-0.478,0.909c-0.189,0.295-0.35,0.61-0.557,0.867c-0.203,0.261-0.367,0.526-0.555,0.716
										c-0.361,0.391-0.604,0.65-0.604,0.65c-0.08,0.086-0.213,0.091-0.301,0.011c-0.084-0.079-0.088-0.213-0.01-0.299
										c0.004-0.004,0.008-0.008,0.01-0.011l0.022-0.018c0,0,0.248-0.23,0.621-0.576c0.195-0.166,0.369-0.411,0.586-0.648
										c0.223-0.233,0.4-0.528,0.607-0.804c0.201-0.279,0.365-0.584,0.539-0.857c0.148-0.288,0.301-0.551,0.406-0.788
										C352.32,235.247,352.434,234.919,352.434,234.919z"/>
									<path style="fill:#2E313D;" d="M354.148,235.67c0,0-0.226,1.065-0.674,2.07c-0.121,0.246-0.225,0.502-0.357,0.725
										c-0.133,0.222-0.246,0.438-0.367,0.608c-0.252,0.336-0.422,0.56-0.422,0.56c-0.07,0.094-0.203,0.112-0.295,0.043
										c-0.096-0.071-0.113-0.204-0.043-0.298c0.004-0.005,0.008-0.011,0.014-0.016l0.018-0.021c0,0,0.178-0.193,0.443-0.482
										c0.131-0.149,0.256-0.346,0.406-0.545c0.148-0.201,0.271-0.441,0.414-0.668C353.816,236.71,354.148,235.67,354.148,235.67z
										"/>
								</g>
							</g>
							<path style="fill:#FFB985;" d="M339.809,244.001c0,1.652-1.014,2.992-2.262,2.992c-1.252,0-2.264-1.34-2.264-2.992
								c0-1.656,1.012-2.995,2.264-2.995C338.795,241.006,339.809,242.345,339.809,244.001z"/>
						</g>
						<g>
							<path style="fill:#FFB787;" d="M363.504,260.347c1.459-1.218,3.625-1.023,4.844,0.435l0,0
								c1.211,1.458,1.014,3.626-0.441,4.841l-12.771,10.744c-1.461,1.215-3.627,1.021-4.842-0.438l0,0
								c-1.219-1.46-1.023-3.625,0.438-4.841L363.504,260.347z"/>
							<path style="fill:#EA9C68;" d="M363.781,260.157c-0.865,2.079-0.375,4.482,1.389,5.857c0.428,0.335,0.908,0.559,1.4,0.723
								l1.336-1.113c1.455-1.215,1.652-3.383,0.441-4.841C367.203,259.412,365.227,259.173,363.781,260.157z"/>
							<path style="fill:#FFB787;" d="M355.545,271.415c1.281,1.402,1.178,3.577-0.227,4.854l0,0
								c-1.4,1.275-3.574,1.175-4.852-0.229L338.805,263c-1.277-1.404-1.176-3.577,0.227-4.856l0,0
								c1.404-1.278,3.58-1.175,4.855,0.229L355.545,271.415z"/>
							<path style="fill:#EA9C68;" d="M362.713,257.544c0.68-1.229,1.978-1.813,2.891-1.305c0.912,0.507,1.098,1.915,0.416,3.144
								c-0.684,1.228-1.977,1.814-2.891,1.307C362.217,260.181,362.029,258.773,362.713,257.544z"/>
							<path style="fill:#FFB787;" d="M364.285,257.744c1.77-2.275,4.941-2.769,7.082-1.101c2.139,1.666,2.436,4.86,0.664,7.135
								c-1.771,2.273-4.943,2.768-7.08,1.1C362.81,263.212,362.516,260.017,364.285,257.744z"/>
							
								<path style="fill:none;stroke:#EA9C68;stroke-width:0.6525;stroke-linecap:round;stroke-linejoin:round;stroke-miterlimit:10;" d="
								M368.451,258.767c0,0,1.779-1.754,1.145-2.978"/>
							
								<path style="fill:none;stroke:#EA9C68;stroke-width:0.6525;stroke-linecap:round;stroke-linejoin:round;stroke-miterlimit:10;" d="
								M370.016,260.244c0,0,1.66-0.993,2.037-2.94"/>
							
								<path style="fill:none;stroke:#EA9C68;stroke-width:0.6525;stroke-linecap:round;stroke-linejoin:round;stroke-miterlimit:10;" d="
								M371.471,261.637c0,0,1.287-0.251,1.703-1.549"/>
						</g>
						<g>
							<path style="fill:none;stroke:#DFECF7;stroke-width:0.5154;stroke-miterlimit:10;" d="M342.275,245.671
								c0,0-0.457-3.336-3.334-4.02c-2.875-0.684-7.545,7.145,2.473,8.82"/>
							<path style="fill:#DFECF7;" d="M353.361,243.999c0,0-5.094,2.789-11.322,1.243c0,0-2.565,3.897-2.01,6.646
								c0,0,2.559,3.014,6.188,2.867C346.217,254.756,355.525,252.458,353.361,243.999z"/>
							
								<path style="fill:none;stroke:#C1D9E8;stroke-width:0.5154;stroke-linecap:round;stroke-linejoin:round;stroke-miterlimit:10;" d="
								M353.685,246.38c0,0-4.088,1.611-10.016,0.87"/>
						</g>
						<path style="fill:#FFB985;" d="M339.809,244.001c0,1.652-1.014,2.992-2.262,2.992c-1.252,0-2.264-1.34-2.264-2.992
							c0-1.656,1.012-2.995,2.264-2.995C338.795,241.006,339.809,242.345,339.809,244.001z"/>
					</g>
				</g>
				<polygon style="fill:#FFFFFF;" points="403.594,277.979 381.787,224.047 376.596,224.047 395.805,272.336 315.969,272.336 
					315.969,224.047 303.111,224.047 303.111,333.503 418.99,333.503 418.99,296.831 				"/>
				
					<rect x="418.99" y="304.456" transform="matrix(-1 -1.224647e-16 1.224647e-16 -1 844.6054 637.959)" style="fill:#383A47;" width="6.625" height="29.047"/>
				<polygon style="fill:#FFFFFF;" points="85.62,350.096 86.097,296.991 298.004,296.991 298.004,350.096 				"/>
				<path style="fill:#B3B3B3;" d="M361.303,350.096H305.42c0.285-17.565,12.672-31.711,27.941-31.711
					C348.631,318.385,361.02,332.53,361.303,350.096z"/>
				<path style="fill:#B3B3B3;" d="M139.521,314.31c18.128,0,32.826,16.022,32.826,35.786h-65.653
					C106.694,330.332,121.39,314.31,139.521,314.31z"/>
				<g>
					<path style="fill:#383A47;" d="M310.453,347.016c0,12.809,10.385,23.193,23.195,23.193c12.811,0,23.193-10.385,23.193-23.193
						c0-12.81-10.383-23.194-23.193-23.194C320.838,323.821,310.453,334.206,310.453,347.016z"/>
					<path style="fill:#B3B3B3;" d="M322.582,347.016c0,6.111,4.955,11.067,11.066,11.067c6.111,0,11.065-4.956,11.065-11.067
						c0-6.112-4.953-11.066-11.065-11.066C327.537,335.949,322.582,340.903,322.582,347.016z"/>
				</g>
				<g>
					<path style="fill:#383A47;" d="M113.702,345.451c0,14.234,11.538,25.771,25.771,25.771c14.234,0,25.772-11.536,25.772-25.771
						c0-14.232-11.538-25.773-25.772-25.773C125.24,319.678,113.702,331.219,113.702,345.451z"/>
					<path style="fill:#B3B3B3;" d="M128.006,345.451c0,6.332,5.134,11.466,11.467,11.466c6.333,0,11.468-5.134,11.468-11.466
						c0-6.333-5.134-11.467-11.468-11.467C133.141,333.984,128.006,339.118,128.006,345.451z"/>
				</g>
				
					<rect x="174.393" y="333.503" transform="matrix(-1 -1.224647e-16 1.224647e-16 -1 477.5044 685.6113)" style="fill:#383A47;" width="128.718" height="18.605"/>
				
					<rect x="185.945" y="308.225" transform="matrix(-1 -1.224647e-16 1.224647e-16 -1 477.2085 628.5264)" style="fill:#D6D6D6;" width="105.319" height="12.077"/>
				<polygon style="fill:#D6D6D6;" points="314.793,326.551 317.143,324.381 317.143,224.047 314.793,224.047 				"/>
				<polygon style="fill:#383A47;" points="298.004,204.865 384.707,204.865 392.773,224.047 298.004,224.047 				"/>
				<polygon style="fill:#FFB741;" points="409.576,285.306 409.576,299.616 418.99,299.616 418.99,296.831 				"/>
				<polygon style="fill:#D6D6D6;" points="376.916,333.502 390.646,284.223 400.096,281.757 395.805,272.336 393.143,272.235 
					396.547,280.284 388.771,282.313 374.402,333.503 				"/>
				<path style="fill:#383A47;" d="M323.445,283.945h12.998c0.656,0,1.195-0.538,1.195-1.195l0,0c0-0.657-0.539-1.195-1.195-1.195
					h-12.998c-0.656,0-1.193,0.538-1.193,1.195l0,0C322.252,283.407,322.789,283.945,323.445,283.945z"/>
				<polygon style="fill:#D6D6D6;" points="86.097,296.991 92.723,296.991 92.632,350.096 85.62,350.096 				"/>
				<polygon style="fill:#383A47;" points="83.426,333.932 103.478,333.932 103.478,352.108 83.32,352.108 				"/>
				<polygon style="fill:#BC1F2C;" points="86.001,307.7 104.335,307.539 104.339,320.894 85.88,320.988 				"/>
				<g>
					<rect x="85.88" y="166.676" style="fill:#BC1F2C;" width="212.123" height="130.315"/>
					<polygon style="fill:#9D1625;" points="298.004,166.676 298.004,174.617 103.18,174.274 103.415,296.991 85.88,296.991 
						85.88,166.676 					"/>
				</g>
				<g>
					<g>
						
							<text transform="matrix(1 0 0 1 150.3076 241.7193)" style="fill:#FFB741; font-family:'Montserrat-Black'; font-size:19.4977px;">DELIVERY</text>
						
							<path style="fill:none;stroke:#FFB741;stroke-width:4.5162;stroke-linecap:round;stroke-linejoin:round;stroke-miterlimit:10;" d="
							M195.436,214.191c6.832-13.474,20.816-22.71,36.958-22.71c22.869,0,41.408,18.54,41.408,41.41
							c0,22.87-18.539,41.409-41.408,41.409c-15.045,0-28.217-8.023-35.468-20.024"/>
					</g>
					<rect x="151.13" y="250.181" style="fill:#FFB741;" width="61.872" height="4.846"/>
				</g>
				
					<rect x="366.543" y="333.503" transform="matrix(-1 -1.224647e-16 1.224647e-16 -1 796.2364 685.6113)" style="fill:#383A47;" width="63.15" height="18.605"/>
			</g>
			<g>
				<g>
					<polygon style="fill:#C2DEF9;" points="134.057,186.23 146.658,199.466 127.822,212.191 129.476,204.811 42.511,204.811 
						46.838,193.357 132.402,193.357 					"/>
					<polygon style="fill:#9D1625;" points="88.342,193.357 51.351,193.357 85.882,190.257 					"/>
					<polygon style="fill:#9D1625;" points="88.695,204.811 85.882,206.295 43.606,204.811 					"/>
				</g>
				<g>
					<polygon style="fill:#C2DEF9;" points="105.624,223.313 118.223,236.549 99.389,249.275 101.041,241.894 33.943,241.894 
						38.27,230.439 103.97,230.439 					"/>
					<polygon style="fill:#9D1625;" points="88.342,230.434 42.511,230.434 85.882,227.332 					"/>
					<polygon style="fill:#9D1625;" points="88.695,241.906 85.882,244.223 50.289,241.906 					"/>
				</g>
				<g>
					<polygon style="fill:#C2DEF9;" points="136.016,259.185 148.616,272.419 129.78,285.147 131.435,277.766 44.47,277.766 
						48.797,266.311 134.361,266.311 					"/>
					<polygon style="fill:#9D1625;" points="88.342,266.32 51.351,266.32 85.882,263.221 					"/>
					<polygon style="fill:#9D1625;" points="88.695,277.795 85.882,279.281 43.606,277.795 					"/>
				</g>
			</g>
		</g>
		<g>
			<g>
				<g>
					<rect x="202.316" y="286.22" style="fill:#EAB575;" width="46.319" height="25.461"/>
					<rect x="248.635" y="286.22" style="fill:#D6A167;" width="17.699" height="25.461"/>
				</g>
				<g>
					<rect x="208.812" y="297.614" style="fill:#B99563;" width="15.911" height="1.396"/>
					<rect x="208.812" y="301.605" style="fill:#B99563;" width="15.911" height="1.398"/>
				</g>
			</g>
			<g>
				<g>
					<rect x="344.195" y="304.498" style="fill:#EAB575;" width="46.318" height="25.461"/>
					<rect x="390.514" y="304.498" style="fill:#D6A167;" width="17.699" height="25.461"/>
				</g>
				<g>
					<rect x="350.691" y="315.893" style="fill:#B99563;" width="15.91" height="1.396"/>
					<rect x="350.691" y="319.884" style="fill:#B99563;" width="15.91" height="1.398"/>
				</g>
			</g>
			<g>
				<g>
					<rect x="171.154" y="311.681" style="fill:#F4C583;" width="83.088" height="73.63"/>
					<rect x="254.242" y="311.681" style="fill:#E2AE6F;" width="31.746" height="73.63"/>
				</g>
				<g>
					<rect x="182.807" y="323.502" style="fill:#EAEAEA;" width="59.781" height="27.696"/>
					<g>
						<rect x="182.807" y="357.935" style="fill:#B99563;" width="28.54" height="2.719"/>
						<rect x="182.807" y="365.701" style="fill:#B99563;" width="28.54" height="2.722"/>
					</g>
				</g>
				<rect x="266.623" y="311.681" style="fill:#9D1625;" width="6.982" height="73.63"/>
				<rect x="204.592" y="311.681" style="fill:#BC1F2C;" width="13.511" height="73.63"/>
			</g>
			<g>
				<g>
					<rect x="139.68" y="329.959" style="fill:#F4C583;" width="62.408" height="55.307"/>
					<rect x="202.088" y="329.959" style="fill:#E2AE6F;" width="23.847" height="55.307"/>
				</g>
				<g>
					<rect x="148.431" y="338.84" style="fill:#EAEAEA;" width="44.903" height="20.803"/>
					<g>
						<rect x="148.431" y="364.703" style="fill:#B99563;" width="21.438" height="2.042"/>
						<rect x="148.431" y="370.536" style="fill:#B99563;" width="21.438" height="2.044"/>
					</g>
				</g>
			</g>
			<g>
				<g>
					<rect x="333.076" y="329.959" style="fill:#F4C583;" width="62.408" height="55.307"/>
					<rect x="395.484" y="329.959" style="fill:#E2AE6F;" width="23.848" height="55.307"/>
				</g>
				<g>
					<rect x="341.828" y="338.84" style="fill:#EAEAEA;" width="44.904" height="20.803"/>
					<g>
						<rect x="341.828" y="364.703" style="fill:#B99563;" width="21.439" height="2.042"/>
						<rect x="341.828" y="370.536" style="fill:#B99563;" width="21.439" height="2.044"/>
					</g>
				</g>
			</g>
			<g>
				<g>
					<rect x="216.626" y="359.85" style="fill:#EAB575;" width="46.319" height="25.461"/>
					<rect x="262.945" y="359.85" style="fill:#D6A167;" width="17.699" height="25.461"/>
				</g>
				<g>
					<rect x="223.122" y="371.244" style="fill:#B99563;" width="15.911" height="1.396"/>
					<rect x="223.122" y="375.234" style="fill:#B99563;" width="15.911" height="1.399"/>
				</g>
			</g>
		</g>
	</g>
</g>
</svg>
