<?xml version="1.0" encoding="UTF-8"?>
<svg id="Layer_2" xmlns="http://www.w3.org/2000/svg" xmlns:xlink="http://www.w3.org/1999/xlink" viewBox="0 0 35 35">
  <defs>
    <style>
      .cls-1 {
        fill: none;
      }

      .cls-2 {
        fill: #f15f26;
        fill-rule: evenodd;
      }

      .cls-3 {
        clip-path: url(#clippath);
      }
    </style>
    <clipPath id="clippath">
      <rect class="cls-1" width="35" height="35"/>
    </clipPath>
  </defs>
  <g id="Layer_1-2" data-name="Layer_1">
    <g class="cls-3">
      <g>
        <path class="cls-2" d="M30.91,6.46c-.06-.19-.24-.31-.44-.31h-1.71l-.53-1.66c-.06-.2-.24-.32-.44-.32s-.38.12-.44.32l-.53,1.66h-1.71c-.2,0-.38.12-.44.31s0,.4.16.52l1.4,1.03-.53,1.67c-.06.19.01.39.17.51.08.06.17.09.27.09s.19-.03.27-.09l1.39-1.03,1.39,1.03c.08.06.17.09.27.09s.19-.03.27-.09c.16-.12.23-.32.17-.51l-.53-1.67,1.4-1.03c.16-.12.22-.33.16-.52ZM28.57,8.59l-.51-.37c-.08-.06-.17-.09-.27-.09s-.19.03-.27.09l-.51.37.2-.61c.06-.19-.01-.4-.17-.52l-.52-.38h.64c.2,0,.38-.13.44-.32l.19-.6.19.6c.06.19.24.32.44.32h.64l-.52.38c-.16.12-.23.33-.17.52l.2.61Z"/>
        <path class="cls-2" d="M30.91,6.46c-.06-.19-.24-.31-.44-.31h-1.71l-.53-1.66c-.06-.2-.24-.32-.44-.32s-.38.12-.44.32l-.53,1.66h-1.71c-.2,0-.38.12-.44.31s0,.4.16.52l1.4,1.03-.53,1.67c-.06.19.01.39.17.51.08.06.17.09.27.09s.19-.03.27-.09l1.39-1.03,1.39,1.03c.08.06.17.09.27.09s.19-.03.27-.09c.16-.12.23-.32.17-.51l-.53-1.67,1.4-1.03c.16-.12.22-.33.16-.52ZM28.57,8.59l-.51-.37c-.08-.06-.17-.09-.27-.09s-.19.03-.27.09l-.51.37.2-.61c.06-.19-.01-.4-.17-.52l-.52-.38h.64c.2,0,.38-.13.44-.32l.19-.6.19.6c.06.19.24.32.44.32h.64l-.52.38c-.16.12-.23.33-.17.52l.2.61Z"/>
        <path class="cls-2" d="M27.79,2.56c-2.68,0-4.84,2.17-4.84,4.84s2.16,4.85,4.84,4.85,4.84-2.17,4.84-4.85-2.17-4.84-4.84-4.84ZM27.79,11.32c-2.16,0-3.91-1.76-3.91-3.92s1.75-3.91,3.91-3.91,3.91,1.76,3.91,3.91-1.76,3.92-3.91,3.92Z"/>
        <path class="cls-2" d="M27.79,2.56c-2.68,0-4.84,2.17-4.84,4.84s2.16,4.85,4.84,4.85,4.84-2.17,4.84-4.85-2.17-4.84-4.84-4.84ZM27.79,11.32c-2.16,0-3.91-1.76-3.91-3.92s1.75-3.91,3.91-3.91,3.91,1.76,3.91,3.91-1.76,3.92-3.91,3.92Z"/>
        <path class="cls-2" d="M34.64,6.95c.32-.54.39-1.22.2-1.83-.2-.61-.65-1.12-1.25-1.38-.3-.12-.5-.4-.53-.72-.06-.63-.39-1.23-.92-1.6-.39-.29-.84-.43-1.33-.43-.16,0-.32.01-.49.05-.06.02-.12.02-.19.02-.25,0-.49-.11-.66-.3-.42-.48-1.04-.75-1.68-.75s-1.26.27-1.69.76c-.16.18-.4.29-.65.29-.07,0-.13,0-.2-.02-.16-.04-.32-.05-.48-.05-.48,0-.94.14-1.33.43-.52.37-.85.97-.93,1.61-.02.31-.22.59-.52.72-.59.25-1.05.75-1.25,1.37-.2.61-.12,1.29.2,1.84.17.27.17.62,0,.91-.32.54-.4,1.22-.2,1.83.2.61.65,1.12,1.25,1.38.3.12.5.4.53.72.06.64.39,1.23.92,1.6.39.29.84.43,1.33.43.16,0,.32-.01.48-.05.07-.02.13-.02.2-.02.25,0,.49.11.65.3.43.48,1.05.75,1.69.75s1.26-.27,1.69-.76c.16-.18.4-.29.65-.29.07,0,.13,0,.2.02.16.04.32.05.48.05.48,0,.95-.14,1.33-.43.52-.37.85-.96.92-1.6.03-.32.23-.6.53-.73.59-.25,1.05-.75,1.25-1.37.19-.61.12-1.29-.2-1.84-.17-.27-.17-.61,0-.91ZM33.83,8.33c.19.33.23.72.12,1.09-.12.35-.38.65-.73.79-.61.26-1.03.83-1.09,1.5-.03.38-.23.72-.53.95-.23.16-.5.25-.78.25-.09,0-.19-.01-.28-.03-.13-.03-.26-.05-.4-.05-.52,0-1.02.23-1.36.62-.24.28-.6.44-.99.44s-.74-.16-.99-.44c-.34-.39-.83-.62-1.36-.62-.14,0-.27.02-.4.05-.1.02-.19.03-.28.03-.28,0-.55-.09-.78-.25-.3-.22-.5-.56-.53-.95-.06-.66-.48-1.24-1.1-1.5-.34-.14-.6-.43-.72-.79-.11-.36-.07-.75.12-1.09.34-.56.34-1.28,0-1.85-.19-.32-.23-.71-.12-1.08.12-.35.38-.64.72-.79.61-.26,1.04-.83,1.1-1.5.03-.38.23-.72.53-.95.23-.16.5-.25.78-.25.09,0,.18.01.28.03.13.03.26.05.4.05.52,0,1.02-.23,1.36-.62.24-.28.6-.44.99-.44s.73.16.99.44c.34.39.83.62,1.36.62.14,0,.27-.02.4-.05.09-.02.19-.03.28-.03.28,0,.55.09.78.25.3.23.5.57.53.95.06.66.48,1.24,1.1,1.5.34.15.6.44.72.79.11.36.07.75-.12,1.09-.34.56-.34,1.28,0,1.84Z"/>
        <path class="cls-2" d="M34.64,6.95c.32-.54.39-1.22.2-1.83-.2-.61-.65-1.12-1.25-1.38-.3-.12-.5-.4-.53-.72-.06-.63-.39-1.23-.92-1.6-.39-.29-.84-.43-1.33-.43-.16,0-.32.01-.49.05-.06.02-.12.02-.19.02-.25,0-.49-.11-.66-.3-.42-.48-1.04-.75-1.68-.75s-1.26.27-1.69.76c-.16.18-.4.29-.65.29-.07,0-.13,0-.2-.02-.16-.04-.32-.05-.48-.05-.48,0-.94.14-1.33.43-.52.37-.85.97-.93,1.61-.02.31-.22.59-.52.72-.59.25-1.05.75-1.25,1.37-.2.61-.12,1.29.2,1.84.17.27.17.62,0,.91-.32.54-.4,1.22-.2,1.83.2.61.65,1.12,1.25,1.38.3.12.5.4.53.72.06.64.39,1.23.92,1.6.39.29.84.43,1.33.43.16,0,.32-.01.48-.05.07-.02.13-.02.2-.02.25,0,.49.11.65.3.43.48,1.05.75,1.69.75s1.26-.27,1.69-.76c.16-.18.4-.29.65-.29.07,0,.13,0,.2.02.16.04.32.05.48.05.48,0,.95-.14,1.33-.43.52-.37.85-.96.92-1.6.03-.32.23-.6.53-.73.59-.25,1.05-.75,1.25-1.37.19-.61.12-1.29-.2-1.84-.17-.27-.17-.61,0-.91ZM33.83,8.33c.19.33.23.72.12,1.09-.12.35-.38.65-.73.79-.61.26-1.03.83-1.09,1.5-.03.38-.23.72-.53.95-.23.16-.5.25-.78.25-.09,0-.19-.01-.28-.03-.13-.03-.26-.05-.4-.05-.52,0-1.02.23-1.36.62-.24.28-.6.44-.99.44s-.74-.16-.99-.44c-.34-.39-.83-.62-1.36-.62-.14,0-.27.02-.4.05-.1.02-.19.03-.28.03-.28,0-.55-.09-.78-.25-.3-.22-.5-.56-.53-.95-.06-.66-.48-1.24-1.1-1.5-.34-.14-.6-.43-.72-.79-.11-.36-.07-.75.12-1.09.34-.56.34-1.28,0-1.85-.19-.32-.23-.71-.12-1.08.12-.35.38-.64.72-.79.61-.26,1.04-.83,1.1-1.5.03-.38.23-.72.53-.95.23-.16.5-.25.78-.25.09,0,.18.01.28.03.13.03.26.05.4.05.52,0,1.02-.23,1.36-.62.24-.28.6-.44.99-.44s.73.16.99.44c.34.39.83.62,1.36.62.14,0,.27-.02.4-.05.09-.02.19-.03.28-.03.28,0,.55.09.78.25.3.23.5.57.53.95.06.66.48,1.24,1.1,1.5.34.15.6.44.72.79.11.36.07.75-.12,1.09-.34.56-.34,1.28,0,1.84Z"/>
        <path class="cls-2" d="M25.04,20.52l-11.5-11.49c-.34-.35-.77-.53-1.25-.53-.87,0-1.78.68-1.78,1.87l.61,6.63-.89.89-.06-.02c-.18-.08-.38-.11-.57-.11-.41,0-.78.15-1.07.43l-5.21,5.21c-.42.42-.55,1.08-.32,1.64l.02.06-1.74,1.74c-.79.79-1.24,1.86-1.24,3s.44,2.2,1.24,3.01c.79.79,1.86,1.24,3,1.24s2.2-.44,3.01-1.24l1.75-1.76.06.03c.17.06.35.09.53.09.4,0,.78-.15,1.07-.43l.94-.95,4.49,4.49c.44.44,1.04.69,1.67.69s1.22-.25,1.66-.69.69-1.03.69-1.66-.25-1.23-.69-1.67l-4.49-4.49.95-.94c.41-.41.54-1.04.33-1.59l-.02-.06.99-.94,6.57.61c.74-.02,1.38-.46,1.65-1.15.27-.67.11-1.41-.39-1.92ZM6.65,32.18c-.62.62-1.46.97-2.34.97s-1.73-.34-2.35-.97c-1.29-1.3-1.29-3.4,0-4.7l1.68-1.67,4.69,4.69-1.67,1.68ZM18.81,31.64c.55.55.55,1.46,0,2.01-.26.27-.62.42-1.01.42s-.74-.15-1.01-.42l-4.5-4.49,2.02-2.02,4.49,4.5ZM15.26,24.89l-5.22,5.22c-.1.1-.25.16-.4.16s-.3-.06-.4-.16l-5.25-5.25c-.11-.11-.17-.25-.17-.4,0-.16.06-.3.17-.41l5.21-5.21c.11-.11.25-.17.41-.17.15,0,.29.06.4.17l5.21,5.21c.12.12.19.29.19.45,0,.15-.05.29-.15.39ZM24.58,22.08c-.13.33-.42.55-.78.58t-6.8-.63c-.12,0-.24.04-.33.13l-1.01,1.01-4.69-4.69,1.01-1.01c.1-.1.15-.24.13-.37l-.66-6.8c.02-.54.45-.86.86-.86.21,0,.42.09.58.25l11.49,11.5c.25.24.32.57.2.9Z"/>
        <path class="cls-2" d="M31.5,17.4c0,.25-.21.46-.46.46h-4.46c-.26,0-.47-.21-.47-.46s.21-.46.47-.46h4.46c.25,0,.46.2.46.46Z"/>
        <path class="cls-2" d="M31.5,17.4c0,.25-.21.46-.46.46h-4.46c-.26,0-.47-.21-.47-.46s.21-.46.47-.46h4.46c.25,0,.46.2.46.46Z"/>
        <path class="cls-2" d="M18.01,3.85v4.61c0,.26-.21.47-.46.47s-.47-.21-.47-.47V3.85c0-.26.21-.46.47-.46s.46.2.46.46Z"/>
        <path class="cls-2" d="M18.01,3.85v4.61c0,.26-.21.47-.46.47s-.47-.21-.47-.47V3.85c0-.26.21-.46.47-.46s.46.2.46.46Z"/>
        <path class="cls-2" d="M13.14,6.61s-.07.01-.11.01c-.21,0-.39-.14-.45-.35l-1.11-4.55c-.06-.24.09-.49.34-.55.04-.01.07-.02.11-.02.21,0,.4.15.45.36l1.11,4.54c.06.25-.09.5-.34.56Z"/>
        <path class="cls-2" d="M13.14,6.61s-.07.01-.11.01c-.21,0-.39-.14-.45-.35l-1.11-4.55c-.06-.24.09-.49.34-.55.04-.01.07-.02.11-.02.21,0,.4.15.45.36l1.11,4.54c.06.25-.09.5-.34.56Z"/>
        <path class="cls-2" d="M33.74,23.27c-.06.2-.23.33-.44.33-.05,0-.09-.01-.13-.02l-4.5-1.34c-.24-.07-.38-.33-.31-.57.06-.2.24-.33.44-.33.05,0,.09,0,.13.02l4.5,1.33c.24.08.38.33.31.58Z"/>
        <path class="cls-2" d="M33.74,23.27c-.06.2-.23.33-.44.33-.05,0-.09-.01-.13-.02l-4.5-1.34c-.24-.07-.38-.33-.31-.57.06-.2.24-.33.44-.33.05,0,.09,0,.13.02l4.5,1.33c.24.08.38.33.31.58Z"/>
      </g>
    </g>
  </g>
</svg>