<?xml version="1.0" encoding="UTF-8"?>
<svg id="Layer_2" xmlns="http://www.w3.org/2000/svg" xmlns:xlink="http://www.w3.org/1999/xlink" viewBox="0 0 35 35">
  <defs>
    <style>
      .cls-1 {
        fill: none;
      }

      .cls-2 {
        fill: #f15f26;
      }

      .cls-3 {
        clip-path: url(#clippath);
      }
    </style>
    <clipPath id="clippath">
      <rect class="cls-1" width="35" height="35"/>
    </clipPath>
  </defs>
  <g id="Layer_1-2" data-name="Layer_1">
    <g class="cls-3">
      <path class="cls-2" d="M34.77,26.56c-.33-.11-.66-.21-.98-.3-1.54-.46-2.86-.86-3.81-2.03-.24-.3-.46-.6-.66-.89-.44-.62-.87-1.21-1.48-1.65.26-.23.48-.51.67-.81l.53.19c.16.06.33.09.5.09.66,0,1.3-.45,1.56-1.15l.46-1.27c.15-.42.15-.87-.02-1.27-.17-.41-.48-.72-.88-.86l-.52-.19c.1-.65.03-1.3-.22-1.9-.34-.85-.98-1.48-1.79-1.77l-4.99-1.81h-.03c-4.62-2.08-7.58-4.64-11.34-9.79,0,0,0,0,0,0-.15-.21-.36-.38-.63-.47-.69-.24-1.44.12-1.68.8l-2.24,6.31c-1.24-.26-2.5.39-2.92,1.56-.23.63-.19,1.32.12,1.93.25.5.66.9,1.16,1.16l-2.33,6.56c-.12.33-.1.69.05,1.01.15.32.42.56.75.68.15.05.29.08.44.08.12,0,.24-.02.35-.05,0,0,0,0,0,0,6.49-1.44,9.67-1.46,14.8-.1l.71.26-.09.83c-.42-.14-.7-.23-.7-.23-.03-.01-.07-.02-.1-.02h-.02c-.67,0-1.14.68-1.26,1.36-.03.14-.03.28-.02.41l-.07.27s0,.02,0,.03c-.47.21-.8.74-.9,1.27-.12.66.08,1.21.53,1.48-.23.27-.39.63-.45.99-.12.7.14,1.27.66,1.44h0c-.2.23-.33.53-.39.84-.11.63.13,1.14.61,1.3l.36.11c.89.8,3.21,1.89,3.94,2.13,2.24.73,3.36.5,4.44.28.73-.15,1.43-.29,2.48-.08,1,.19,1.95.51,2.97.86.29.1.59.2.88.29.04.01.07.02.11.02.15,0,.28-.09.33-.24.06-.18-.04-.38-.22-.44-.29-.09-.59-.19-.87-.29-.99-.33-2.02-.68-3.06-.88-1.19-.23-1.98-.07-2.75.09-.99.2-2.02.41-4.08-.26-.27-.09-.78-.3-1.34-.58l.33.1s.07.02.11.02h0c.52,0,.98-.36,1.17-.91.16-.47.08-.96-.21-1.29.27-.18.49-.46.62-.82.14-.4.13-.82-.03-1.16.41-.16.73-.49.89-.95.22-.62.04-1.26-.43-1.67.25-.23.42-.54.49-.86.29-.18,1.01-.08,1.5.32.09.09.2.55.27.89.21.95.5,2.26,1.53,3.04.06.05.14.07.21.07.11,0,.21-.05.28-.14.12-.15.09-.37-.07-.49-.83-.63-1.07-1.74-1.27-2.63-.14-.61-.23-1.06-.51-1.28-.75-.62-1.86-.75-2.42-.3-.8.28-1.94.04-2.18-.35-.14-.23.18-.56.38-.73.75-.65,2.04-1.17,2.3-1.13.16.03.37.06.59.1.71.12,2.02.34,2.23.41.68.37,1.11.98,1.61,1.68.21.29.43.6.69.92,1.08,1.35,2.57,1.79,4.15,2.26.32.09.64.19.97.3.18.06.38-.04.44-.22.06-.18-.04-.38-.22-.44h0ZM30.41,17.25c.21.08.38.24.47.47.1.24.1.51,0,.77l-.46,1.27c-.19.52-.71.81-1.16.64l-.45-.16s.03-.05.04-.08l1.09-3s.01-.05.02-.07l.45.16h0ZM5.04,10.94c-.22-.44-.25-.93-.09-1.38.3-.82,1.16-1.27,2.03-1.14l-1.18,3.32c-.33-.19-.6-.47-.77-.81h0ZM3.93,19.68c-.07-.15-.08-.32-.03-.47l2.43-6.86,1.39-3.91s.06-.08.08-.13c.02-.05.02-.1.02-.15l2.3-6.48c.09-.25.33-.41.58-.41.07,0,.14.01.21.04.32.11.49.47.38.79l-6.21,17.52c-.11.32-.47.49-.79.38-.15-.05-.28-.17-.35-.32h0ZM5.76,19.77L11.89,2.47c3.45,4.56,6.37,6.99,10.68,8.97l-3.05,8.4c-4.79-1.24-7.97-1.27-13.76-.06h0ZM21.03,21.09l1.34.49c-.29.17-.55.35-.77.53-.22-.07-.44-.14-.66-.21l.08-.81h0ZM22.29,30.8c-.07.19-.23.41-.47.44l-3.44-1.09c-.17-.06-.17-.35-.14-.51.06-.32.24-.6.42-.63,1.25.4,3.19,1.03,3.52,1.15.18.18.18.45.11.64h0ZM22.7,28.69c-.09.25-.29.53-.6.57l-3.95-1.25c-.22-.07-.22-.45-.18-.66.07-.42.32-.79.55-.82,1.44.46,3.69,1.19,4.05,1.32.24.23.23.58.14.84h0ZM23.56,26.58c-.09.26-.34.57-.73.58l-4.67-1.48c-.39-.13-.31-.67-.29-.78.07-.39.33-.78.64-.8.07.02.14.05.22.07.04.02.07.04.11.05l2.15.68c1.14.37,2.13.69,2.34.77.31.26.32.64.23.91h0ZM23.39,24.56c-.11.13-.25.21-.41.23l-1.67-.53c-.6-.19-1.34-.44-2.28-.74-.17-.09-.19-.38-.15-.61.07-.4.31-.74.53-.78.2.07.9.29,1.67.54-.31.49-.19.89-.06,1.1.37.62,1.44.88,2.37.78h0ZM24.42,20.86c-.27-.05-.72.08-1.2.28l-3.04-1.1,3.03-8.34,4.66,1.69c.63.23,1.12.72,1.38,1.38.27.67.28,1.44.02,2.16l-1.09,3c-.21.57-.59,1.07-1.06,1.42-.31-.07-.9-.18-2.12-.38-.22-.04-.43-.07-.59-.1h0ZM24.79,14.83c.07-.18.27-.28.45-.21l2.14.77c.18.07.28.27.21.45-.05.14-.19.23-.33.23-.04,0-.08,0-.12-.02l-2.14-.77c-.18-.07-.28-.27-.21-.45h0ZM26.89,17.73c-.05.14-.19.23-.33.23-.04,0-.08,0-.12-.02l-2.14-.77c-.18-.07-.28-.27-.21-.45.07-.18.27-.28.45-.21l2.14.77c.18.07.28.27.21.45h0ZM3.19,8.91s-.08,0-.12-.02l-1.63-.61c-.18-.07-.27-.27-.2-.45.07-.18.27-.27.45-.2l1.63.61c.18.07.27.27.2.45-.05.14-.19.23-.33.23h0ZM3.04,3.75c-.1-.17-.04-.38.13-.48.17-.1.38-.04.48.13l1.16,1.97c.1.17.04.38-.13.48-.06.03-.12.05-.18.05-.12,0-.24-.06-.3-.17l-1.16-1.97h0ZM2.71,11.56c.08.18,0,.38-.18.46l-2.04.88s-.09.03-.14.03c-.14,0-.26-.08-.32-.21-.08-.18,0-.38.18-.46l2.04-.88c.18-.08.38,0,.46.18h0ZM16.81,9.41c.16.11.2.33.09.49-.07.1-.18.15-.29.15-.07,0-.14-.02-.2-.06-1.54-1.04-2.44-1.83-4.03-4.01-.11-.16-.08-.38.08-.49.16-.11.38-.08.49.08,1.53,2.1,2.39,2.85,3.86,3.84h0ZM19.27,11.13c-.06.13-.19.21-.32.21-.05,0-.1-.01-.14-.03-.44-.2-.83-.39-1.22-.6-.17-.09-.23-.3-.14-.47.09-.17.3-.23.47-.14.37.2.75.39,1.17.58.18.08.26.29.18.46h0Z"/>
    </g>
  </g>
</svg>