<?xml version="1.0" encoding="UTF-8"?>
<svg id="Layer_2" xmlns="http://www.w3.org/2000/svg" xmlns:xlink="http://www.w3.org/1999/xlink" viewBox="0 0 35 35">
  <defs>
    <style>
      .cls-1 {
        fill: none;
      }

      .cls-2 {
        fill: #f15f26;
        fill-rule: evenodd;
      }

      .cls-3 {
        clip-path: url(#clippath);
      }
    </style>
    <clipPath id="clippath">
      <rect class="cls-1" width="35" height="35"/>
    </clipPath>
  </defs>
  <g id="Layer_1-2" data-name="Layer_1">
    <g class="cls-3">
      <path class="cls-2" d="M2.04,18.57h1.65,0c1.13,0,2.04.92,2.04,2.04v.09h.75c.34,0,.67-.11.93-.33,1.31-1.05,2.38-2.37,3.13-3.88.69-1.46,1.03-3.06.98-4.67,0-.04,0-.08.02-.12.19-.64.65-1.16,1.25-1.43.36-.14.74-.19,1.12-.13.38.06.74.22,1.04.45.57.44.92,1.11.96,1.83.21,1.12.26,2.27.17,3.41-.08.96-.33,1.9-.73,2.78-.07.19-.09.4-.05.6.03.17.11.33.22.45.12.14.27.24.44.3.25.09.51.11.77.06.33-.21.71-.33,1.1-.33h3.16c.8,0,1.53.47,1.86,1.21.33.74.19,1.59-.35,2.19.85.22,1.47.96,1.53,1.84.06.88-.46,1.7-1.28,2.02h0c.38.38.6.9.6,1.44s-.21,1.06-.6,1.44c-.13.14-.29.25-.45.34.04.04.09.08.13.12.58.58.75,1.46.44,2.22-.31.76-1.06,1.25-1.88,1.26h-3.16c-.54,0-1.06-.22-1.44-.6-.07-.07-.13-.14-.19-.21h-5.69c-.33,0-.66-.07-.95-.22l-2.24-1.08c-.2-.1-.41-.15-.63-.14h-1.06c-.24.9-1.05,1.52-1.97,1.52h-1.64C.92,33.03,0,32.12,0,30.99v-10.38c0-1.13.91-2.04,2.04-2.04h0ZM25.38,6.63c-2.01,0-3.73,1.42-4.12,3.39-.39,1.97.66,3.94,2.52,4.71,1.85.77,3.99.12,5.11-1.55,1.11-1.67.89-3.89-.52-5.31-.79-.79-1.86-1.23-2.97-1.23h0ZM27.83,8.38c-1.17-1.17-3-1.35-4.38-.43-1.38.92-1.91,2.68-1.28,4.21.63,1.53,2.26,2.4,3.88,2.07,1.62-.32,2.79-1.75,2.79-3.4,0-.92-.37-1.8-1.02-2.45h0ZM27.34,2.39h0c-.1-.47-.45-.85-.92-.98-.68-.24-1.41-.24-2.09,0-.46.14-.81.51-.92.98l-.08.51h0c-.01.05-.03.1-.07.13-.24.27-.54.47-.87.6-.33.15-.68.22-1.04.2-.05,0-.1-.02-.14-.05l-.42-.31h0c-.41-.27-.93-.29-1.36-.05-.65.3-1.17.82-1.47,1.47-.23.43-.21.95.06,1.36l.31.42s.04.09.05.14c.02.36-.05.72-.2,1.04-.12.34-.33.63-.59.87-.04.03-.09.05-.13.07l-.51.08c-.48.1-.86.45-.99.92-.24.67-.24,1.41,0,2.08.14.47.52.82.99.92l.51.08h0s.09.04.13.07c.27.24.47.54.59.87.15.33.22.68.2,1.04,0,.05-.02.1-.05.14l-.31.42h0c-.27.41-.29.93-.06,1.36.3.65.82,1.17,1.47,1.47.43.23.95.21,1.36-.06l.42-.31h0s.09-.04.14-.05c.72-.01,1.41.27,1.91.79.03.04.05.09.07.13l.08.51c.1.47.45.85.92.99.66.24,1.39.24,2.06.01h.03c.46-.14.81-.52.92-.99l.08-.51s.03-.09.07-.13c.5-.52,1.19-.81,1.91-.79.05,0,.1.02.14.05l.42.31c.41.27.93.29,1.36.06.65-.3,1.17-.82,1.47-1.47.23-.43.21-.95-.06-1.36l-.3-.42s-.04-.09-.05-.14c-.02-.36.05-.71.2-1.04.12-.34.33-.63.59-.87.04-.03.08-.05.13-.07l.51-.08h0c.47-.1.86-.45.99-.92.24-.67.24-1.41,0-2.08-.14-.47-.52-.82-.99-.92l-.51-.08h0s-.09-.03-.13-.07c-.27-.24-.47-.54-.59-.87-.15-.33-.22-.68-.2-1.04,0-.05.02-.1.05-.14l.31-.42h0c.27-.41.29-.93.06-1.36-.3-.65-.82-1.17-1.47-1.47-.43-.23-.95-.21-1.36.06l-.42.31h0s-.09.04-.14.05c-.36.02-.71-.05-1.04-.2-.34-.12-.64-.33-.87-.6-.03-.04-.05-.08-.07-.13l-.08-.51h0ZM26.7,3.02l-.08-.51c-.03-.18-.21-.32-.45-.41h0c-.51-.17-1.06-.17-1.57,0-.24.09-.42.23-.45.41l-.08.51c-.03.16-.1.32-.19.45-.32.38-.73.67-1.19.84-.45.2-.94.29-1.43.24-.16-.02-.32-.08-.46-.18l-.42-.31c-.2-.1-.44-.09-.63.02-.48.23-.86.62-1.09,1.09-.12.19-.12.43-.02.63l.31.42h0c.09.14.15.29.18.46.04.49-.04.98-.24,1.43-.17.46-.46.87-.84,1.19-.13.1-.29.17-.45.19l-.51.08c-.19.03-.33.21-.43.46-.17.5-.17,1.05,0,1.55.1.25.24.43.43.46l.51.08h0c.16.03.32.09.45.19.38.32.67.73.84,1.19.2.45.29.94.24,1.43-.02.16-.09.32-.18.46l-.31.42c-.1.2-.1.44.02.63.23.48.62.86,1.09,1.09.19.12.43.12.63.02l.42-.31c.14-.09.29-.15.46-.18.99-.05,1.96.34,2.62,1.08.1.13.17.29.19.45l.08.51c.03.18.21.32.45.41.25.09.52.13.78.13.26,0,.51-.04.76-.12,0,0,.02,0,.03-.01.24-.09.42-.23.45-.41l.08-.51c.03-.16.1-.32.19-.45.67-.74,1.63-1.14,2.62-1.08.16.02.32.08.46.18l.42.31h0c.2.1.44.09.63-.02.48-.23.86-.62,1.1-1.09.12-.19.12-.43.02-.63l-.31-.42c-.09-.14-.15-.29-.18-.46-.04-.49.04-.98.24-1.43.17-.46.46-.87.84-1.19.13-.1.29-.17.45-.19l.52-.08c.19-.03.33-.21.43-.46h0c.17-.5.17-1.05,0-1.56-.1-.25-.24-.43-.43-.46l-.52-.08h0c-.16-.03-.32-.1-.45-.19-.38-.32-.67-.73-.84-1.19-.2-.45-.29-.94-.24-1.43.02-.16.08-.32.18-.46l.31-.42c.1-.2.09-.44-.02-.63-.23-.48-.62-.86-1.09-1.09-.19-.12-.43-.12-.63-.02l-.42.31h0c-.14.09-.29.15-.46.18-.49.04-.98-.04-1.43-.24-.46-.17-.87-.46-1.19-.84-.1-.13-.17-.29-.19-.45h0ZM15.88,32.22c-.17-.69.03-1.41.53-1.91-.63-.23-1.11-.77-1.27-1.43-.16-.66.02-1.35.47-1.85-.98-.27-1.62-1.22-1.49-2.23.13-1.01.99-1.77,2.01-1.77h.15c-.54-.64-.62-1.55-.21-2.28-.12-.02-.24-.05-.35-.09-.29-.1-.54-.28-.74-.51-.2-.22-.33-.5-.39-.79-.07-.34-.04-.68.08-1,0-.02.01-.03.02-.05.37-.81.59-1.67.67-2.55.09-1.08.03-2.17-.17-3.24,0-.01,0-.03,0-.04-.02-.52-.27-1-.67-1.32-.21-.16-.45-.27-.71-.31-.25-.04-.5-.01-.73.08-.39.18-.69.52-.82.93.04,1.7-.32,3.39-1.05,4.93-.8,1.6-1.93,3.01-3.33,4.13-.39.33-.89.51-1.4.5h-.75v9.33h.99,0c.33,0,.66.07.95.22l2.24,1.08c.2.1.41.15.63.15h5.34ZM21.02,30.44h-3.16c-.47,0-.9.25-1.13.66-.23.41-.22.91.02,1.31h0s0,0,0,0c.05.09.12.17.19.25.24.24.57.38.92.38h3.16c.71-.01,1.28-.59,1.28-1.3s-.57-1.29-1.28-1.3h0ZM21.35,27.1h-4.23c-.71.01-1.28.59-1.28,1.3s.57,1.29,1.28,1.3h4.23c.71-.01,1.28-.59,1.28-1.3s-.57-1.29-1.28-1.3ZM21.02,23.03h0c.71-.01,1.28-.59,1.28-1.3s-.57-1.29-1.28-1.3h-3.16c-.71.01-1.28.59-1.28,1.3s.57,1.29,1.28,1.3h3.16ZM16.14,26.37h5.89c.71-.01,1.28-.59,1.28-1.3s-.57-1.29-1.28-1.3h-5.89c-.71.01-1.28.59-1.28,1.3s.57,1.29,1.28,1.3h0ZM3.69,19.31h-1.64c-.72,0-1.3.58-1.3,1.3v10.38c0,.72.58,1.3,1.3,1.3h1.65,0c.72,0,1.3-.58,1.31-1.3v-10.38c0-.72-.59-1.3-1.31-1.3Z"/>
    </g>
  </g>
</svg>