<?xml version="1.0" encoding="UTF-8"?>
<svg id="Layer_2" xmlns="http://www.w3.org/2000/svg" xmlns:xlink="http://www.w3.org/1999/xlink" viewBox="0 0 35 35">
  <defs>
    <style>
      .cls-1 {
        fill: none;
      }

      .cls-2 {
        fill: #f15f26;
      }

      .cls-3 {
        clip-path: url(#clippath);
      }
    </style>
    <clipPath id="clippath">
      <rect class="cls-1" width="35" height="35"/>
    </clipPath>
  </defs>
  <g id="Layer_1-2" data-name="Layer_1">
    <g class="cls-3">
      <g>
        <path class="cls-2" d="M2.82,32.41h18.51c1.56,0,2.82-1.26,2.82-2.82v-1.75c0-2.26-.64-4.47-1.83-6.39-1.19-1.92-2.9-3.46-4.92-4.46-.25-.12-.56-.04-.72.19-1.02,1.52-2.73,2.42-4.56,2.41-1.83-.01-3.53-.94-4.53-2.46-.16-.24-.46-.32-.71-.2-2.06.99-3.79,2.54-5,4.47C.65,23.32,0,25.56,0,27.84v1.75c0,1.56,1.27,2.82,2.82,2.82h0ZM1.13,27.83c0-1.99.55-3.94,1.57-5.64,1.02-1.7,2.49-3.1,4.24-4.04,1.24,1.6,3.15,2.55,5.17,2.56,2.03.01,3.95-.91,5.2-2.5,1.72.95,3.16,2.34,4.17,4.03,1,1.69,1.53,3.62,1.54,5.59v1.75c0,.93-.76,1.69-1.69,1.69h-3.26v-5.25c0-.31-.25-.56-.56-.56s-.56.25-.56.56v5.25H7.37v-5.25c0-.31-.25-.56-.56-.56s-.56.25-.56.56v5.25h-3.42c-.93,0-1.69-.76-1.69-1.69v-1.75Z"/>
        <path class="cls-2" d="M12.15,16.2c1.75,0,3.43-.69,4.66-1.93,1.24-1.24,1.93-2.91,1.93-4.66,0-1.75-.69-3.43-1.93-4.66-1.24-1.24-2.91-1.93-4.66-1.93-1.75,0-3.43.69-4.66,1.93-1.24,1.23-1.93,2.91-1.94,4.66,0,1.75.69,3.43,1.93,4.66,1.24,1.24,2.91,1.93,4.66,1.94h0ZM12.15,4.15c1.45,0,2.84.58,3.87,1.6,1.03,1.03,1.6,2.42,1.6,3.87,0,1.45-.58,2.84-1.61,3.86-1.03,1.02-2.42,1.6-3.87,1.59-1.45,0-2.84-.58-3.86-1.61-1.02-1.03-1.59-2.42-1.59-3.87,0-1.45.58-2.83,1.61-3.86,1.02-1.02,2.41-1.6,3.86-1.6h0Z"/>
        <path class="cls-2" d="M29.48,13.76c-.25-.12-.56-.04-.71.19-.81,1.2-2.16,1.91-3.6,1.9-1.44,0-2.78-.74-3.58-1.94-.16-.24-.46-.32-.72-.2-1.03.49-1.96,1.16-2.76,1.97-.22.22-.22.58,0,.8.22.22.58.22.8,0,.6-.61,1.28-1.12,2.03-1.53,1.03,1.28,2.58,2.03,4.22,2.04,1.64,0,3.2-.72,4.24-1.99,1.36.76,2.48,1.87,3.27,3.22s1.2,2.87,1.2,4.43v1.42c0,.7-.57,1.26-1.26,1.26h-2.53v-4.14c0-.31-.25-.56-.56-.56s-.56.25-.56.56v4.14h-3.63c-.31,0-.56.25-.56.56s.25.56.56.56h7.29c1.32,0,2.39-1.07,2.39-2.39v-1.42c.01-2.62-1.03-5.14-2.89-6.99-.76-.77-1.65-1.41-2.63-1.88h0Z"/>
        <path class="cls-2" d="M25.19,13.47c1.44,0,2.83-.57,3.85-1.59,1.02-1.02,1.6-2.4,1.6-3.85,0-1.44-.57-2.83-1.59-3.85-1.02-1.02-2.4-1.6-3.85-1.6-1.44,0-2.83.57-3.85,1.59-1.02,1.02-1.6,2.41-1.6,3.85,0,1.44.57,2.82,1.59,3.84,1.02,1.02,2.4,1.6,3.84,1.6h0ZM25.19,3.72c1.74,0,3.32,1.04,3.99,2.65.67,1.61.3,3.47-.93,4.7-1.23,1.23-3.09,1.61-4.7.94-1.61-.67-2.67-2.24-2.67-3.99,0-2.38,1.92-4.3,4.3-4.31h0Z"/>
      </g>
    </g>
  </g>
</svg>