<?xml version="1.0" encoding="UTF-8"?>
<svg id="Layer_2" xmlns="http://www.w3.org/2000/svg" xmlns:xlink="http://www.w3.org/1999/xlink" viewBox="0 0 35 35">
  <defs>
    <style>
      .cls-1 {
        fill: none;
      }

      .cls-2 {
        fill: #f15f26;
      }

      .cls-3 {
        clip-path: url(#clippath);
      }
    </style>
    <clipPath id="clippath">
      <rect class="cls-1" width="35" height="35"/>
    </clipPath>
  </defs>
  <g id="Layer_1-2" data-name="Layer_1">
    <g class="cls-3">
      <g>
        <path class="cls-2" d="M17.89,34.89c1.29-.82,2.59-1.64,3.88-2.46.58-.37,1.18-.74,1.75-1.14,1.3-.91,2.51-1.95,3.59-3.1,2.14-2.3,3.78-5.03,4.81-7.99.86-2.47,1.22-5.05,1.22-7.65v-5.09c0-.34-.24-.64-.56-.74-.17-.05-.34-.1-.51-.15-.16-.05-.32-.11-.48-.16-.08-.03-.16-.06-.23-.09-.02-.01-.08-.04-.1-.04.09.04.11.05.05.02-.03-.01-.05-.02-.08-.03-.62-.28-1.22-.61-1.77-1.01-.06-.04-.12-.08-.18-.13,0,0-.15-.11-.05-.04.08.06-.01,0-.03-.02-.14-.11-.27-.22-.4-.33-.25-.22-.5-.46-.73-.71-.11-.12-.22-.24-.32-.37-.05-.06-.11-.13-.16-.19-.02-.02-.05-.07-.07-.09.06.08.07.09.03.05-.02-.02-.03-.04-.05-.06-.2-.26-.38-.54-.55-.82-.2-.33-.38-.68-.54-1.03-.02-.03-.03-.07-.05-.1-.01-.03-.02-.05-.03-.08-.02-.05-.02-.03.02.05,0-.08-.08-.19-.1-.26-.07-.18-.13-.35-.19-.53-.1-.32-.39-.56-.74-.56h-13.72C10.97.01,10.34-.01,9.71.01h-.03c-.35,0-.63.24-.74.56-.05.14-.1.29-.15.42-.03.08-.06.16-.09.24-.02.04-.03.09-.05.13.04-.08.04-.09,0,0-.14.31-.29.62-.46.92-.17.29-.35.58-.55.86-.05.07-.1.13-.15.2-.02.02-.06.06-.06.09.04-.11.06-.08.02-.02-.11.14-.23.28-.35.42-.22.24-.45.48-.69.71-.12.11-.24.22-.37.33-.06.05-.13.11-.19.16-.03.02-.06.05-.09.07-.05.03-.03.02.05-.03-.02.02-.04.03-.06.05-.54.4-1.12.75-1.72,1.04-.09.04-.18.08-.28.13-.05.02-.16.08,0,0-.04.02-.09.03-.13.05-.18.07-.37.14-.55.2-.21.07-.43.13-.64.2-.32.1-.56.4-.56.74v4.61c0,.81,0,1.62.06,2.43.12,1.58.39,3.15.84,4.68.88,3.01,2.4,5.81,4.42,8.21.98,1.17,2.09,2.22,3.3,3.16.74.58,1.52,1.1,2.31,1.6,1.41.89,2.82,1.79,4.23,2.68.03.02.07.05.11.07.34.21.86.08,1.05-.28.2-.38.09-.82-.28-1.05-1.28-.81-2.56-1.62-3.84-2.44-.56-.36-1.12-.7-1.67-1.08-.32-.22-.64-.44-.94-.68.15.13-.09-.07-.12-.09-.07-.05-.13-.11-.2-.16-.16-.13-.31-.26-.46-.39-.58-.5-1.13-1.02-1.65-1.58-.26-.28-.51-.56-.76-.85-.11-.13-.22-.26-.32-.39-.06-.07-.12-.15-.18-.22-.08-.11,0,0,.02.02-.04-.05-.08-.1-.12-.16-.45-.6-.87-1.21-1.25-1.85-.39-.65-.75-1.31-1.07-1.99-.08-.17-.16-.34-.23-.52-.02-.03-.03-.07-.05-.1,0,0-.08-.18-.03-.06s-.02-.06-.03-.06c-.02-.05-.04-.1-.06-.16-.14-.35-.28-.7-.4-1.06-.25-.72-.45-1.45-.63-2.19-.08-.37-.16-.75-.23-1.12-.03-.17-.06-.34-.08-.51-.02-.09-.02-.19-.04-.28.04.16.01.08,0,.03,0-.06-.02-.13-.02-.2-.12-.98-.15-1.97-.15-2.96v-5.06c-.19.24-.37.49-.56.74,1.26-.38,2.46-.88,3.53-1.66,1.22-.88,2.25-1.98,3.02-3.26.43-.71.78-1.49,1.03-2.29-.24.19-.49.37-.74.56h13.72c.63,0,1.27.03,1.9,0h.03c-.24-.19-.49-.37-.74-.56.9,2.82,2.96,5.23,5.65,6.49.63.29,1.28.52,1.94.72-.19-.24-.37-.49-.56-.74v4.56c0,.78,0,1.56-.05,2.33-.03.38-.06.77-.11,1.15,0,.04-.04.36-.02.14,0,.08-.02.17-.04.26-.03.2-.06.4-.1.59-.13.75-.31,1.49-.52,2.22-.21.72-.45,1.42-.73,2.11-.03.08-.06.16-.1.24.08-.19-.03.08-.06.13-.08.18-.16.36-.24.54-.16.33-.32.66-.49.99-.36.67-.75,1.31-1.17,1.93-.21.31-.43.62-.66.92-.03.04-.06.08-.08.11-.07.1.11-.15,0,0-.06.07-.12.15-.18.22-.12.15-.24.29-.36.44-.49.58-1.01,1.13-1.56,1.66-.28.26-.56.52-.85.77-.13.11-.26.22-.4.33-.07.06-.15.12-.23.18-.03.02-.06.05-.09.07-.03.02-.06.05-.09.07.07-.05.08-.06.04-.03-.68.52-1.39.99-2.11,1.45-1.4.89-2.8,1.78-4.2,2.66-.03.02-.07.05-.11.07-.34.21-.5.69-.28,1.05.22.32.69.49,1.05.26Z"/>
        <path class="cls-2" d="M10.25,16.88c1.31,1.31,2.61,2.61,3.93,3.93.19.19.37.37.56.56.29.29.79.29,1.08,0,1.01-1.01,2.02-2.02,3.03-3.03l4.8-4.8c.37-.37.74-.74,1.1-1.1.28-.28.31-.8,0-1.08s-.78-.3-1.08,0c-1.01,1.01-2.02,2.02-3.03,3.03l-4.8,4.8c-.37.37-.74.74-1.1,1.1h1.08c-1.31-1.31-2.61-2.61-3.93-3.93l-.56-.56c-.28-.28-.8-.31-1.08,0-.28.31-.3.78,0,1.08h0Z"/>
      </g>
    </g>
  </g>
</svg>