<?xml version="1.0" encoding="UTF-8"?>
<svg id="Layer_2" xmlns="http://www.w3.org/2000/svg" xmlns:xlink="http://www.w3.org/1999/xlink" viewBox="0 0 50 31">
  <defs>
    <style>
      .cls-1 {
        fill: #fff;
      }

      .cls-2 {
        fill: none;
      }

      .cls-3 {
        clip-path: url(#clippath);
      }
    </style>
    <clipPath id="clippath">
      <rect class="cls-2" width="50" height="31"/>
    </clipPath>
  </defs>
  <g id="Layer_1-2" data-name="Layer_1">
    <g class="cls-3">
      <path class="cls-1" d="M39.97,31c-.14,0-.27-.05-.37-.15l-7.01-7.01-.44.37c-2.48,2.12-5.64,3.28-8.89,3.28-4.26,0-8.35-2.01-10.93-5.38-2.58-3.37-3.47-7.83-2.37-11.93,1.1-4.1,4.1-7.51,8.02-9.14,1.67-.69,3.44-1.04,5.25-1.04,2.41,0,4.79.64,6.88,1.85,3.67,2.12,6.2,5.9,6.75,10.11.5,3.85-.66,7.75-3.18,10.71l-.37.44,7.02,7.01c.15.15.19.37.11.56-.08.2-.27.32-.47.32h0ZM23.24,1.02c-3.93,0-7.7,1.86-10.09,4.98-2.39,3.12-3.21,7.24-2.19,11.04,1.02,3.79,3.79,6.96,7.42,8.46,1.55.64,3.19.97,4.87.97,2.23,0,4.43-.59,6.36-1.7,3.4-1.96,5.74-5.46,6.25-9.36.51-3.89-.84-7.88-3.62-10.65-2.32-2.32-5.4-3.64-8.67-3.72h-.32Z"/>
    </g>
  </g>
</svg>