<?xml version="1.0" encoding="UTF-8"?>
<svg id="Layer_2" xmlns="http://www.w3.org/2000/svg" xmlns:xlink="http://www.w3.org/1999/xlink" viewBox="0 0 50 31">
  <defs>
    <style>
      .cls-1 {
        fill: #fff;
      }

      .cls-2 {
        fill: none;
      }

      .cls-3 {
        clip-path: url(#clippath);
      }
    </style>
    <clipPath id="clippath">
      <rect class="cls-2" width="50" height="31"/>
    </clipPath>
  </defs>
  <g id="Layer_1-2" data-name="Layer_1">
    <g class="cls-3">
      <path class="cls-1" d="M27.62,11.56c.67-.67.67-1.76,0-2.43-.67-.67-1.76-.67-2.43,0l-4.3,4.3-1.8-1.8c-.67-.67-1.76-.67-2.43,0-.67.67-.67,1.76,0,2.43l3.02,3.02h0c.67.67,1.76.67,2.43,0l5.51-5.51ZM20.89,16.72c-.23,0-.45-.09-.61-.25l-3.02-3.02c-.34-.34-.34-.88,0-1.22.34-.33.88-.33,1.22,0l2.1,2.1c.17.17.44.17.61,0l4.6-4.6c.34-.33.88-.33,1.21,0,.33.33.34.87,0,1.21l-5.51,5.52c-.16.16-.38.25-.61.25h0ZM39.21,18.49l-2.81-.05c-.33,0-.64.12-.88.35-.24.23-.37.54-.37.87v.69s-1.17-1.16-1.17-1.16c-.2-.2-.38-.41-.55-.63l.52-.44c.62-.51.87-1.34.64-2.11l-.67-2.29h0c-.06-.2-.06-.41-.01-.6l.72-2.9h0c.2-.78-.08-1.6-.72-2.08l-1.88-1.46c-.16-.12-.29-.29-.36-.48l-1.12-2.77c-.3-.74-1.01-1.24-1.81-1.26l-2.38-.07c-.21,0-.41-.06-.58-.18l-2.54-1.58c-.68-.43-1.55-.41-2.21.04l-1.97,1.34h0c-.17.12-.37.19-.57.2l-2.98.21c-.8.05-1.49.57-1.76,1.33l-.81,2.24c-.07.19-.19.37-.34.49l-2.29,1.93c-.62.51-.87,1.34-.64,2.11l.67,2.29h0c.06.2.07.4.01.6l-.72,2.9c-.2.78.09,1.6.72,2.08l1.88,1.46c.16.12.29.29.36.48l1.12,2.77c.3.74,1.01,1.24,1.81,1.26l2.38.07c.2,0,.41.07.58.18l2.38,1.48h0c-.03.13-.05.27-.05.4,0,.52.24,1.01.64,1.34.2.17.43.3.67.39-.28.31-.44.71-.45,1.14,0,1.03.94,1.87,2.1,1.88l6.74.02h.02c1.68.02,3.31-.62,4.53-1.79v.53s0,0,0,0c0,.68.54,1.24,1.22,1.25l2.81.05h.02c.67,0,1.22-.54,1.23-1.22l.09-10.04c0-.68-.54-1.24-1.22-1.25h0ZM17.94,23.28l-2.38-.07h0c-.46,0-.87-.29-1.04-.73l-1.12-2.77h0c-.13-.33-.35-.62-.63-.84l-1.88-1.46c-.37-.28-.53-.75-.41-1.2l.72-2.9h0c.09-.35.08-.71-.02-1.05l-.66-2.29c-.13-.44.01-.92.37-1.21l2.29-1.92h0c.28-.23.48-.53.6-.86l.81-2.24c.15-.44.55-.74,1.01-.76l2.98-.21h0c.36-.02.7-.14.99-.34l1.97-1.34h0c.38-.26.88-.27,1.26-.02l2.54,1.58h0c.3.19.65.3,1.01.31l2.38.07h0c.46,0,.87.29,1.04.72l1.12,2.77c.13.33.35.62.63.84l1.88,1.46h0c.37.28.53.75.42,1.2l-.72,2.9h0c-.09.35-.08.71.02,1.05l.66,2.29c.14.44,0,.92-.37,1.21l-.44.37-2.34-4.05c.16-2.1-.46-4.19-1.75-5.87-1.29-1.67-3.15-2.8-5.23-3.18-2.08-.37-4.22.03-6.01,1.15-1.79,1.11-3.11,2.85-3.69,4.88-.58,2.03-.39,4.2.54,6.1.93,1.9,2.53,3.38,4.49,4.16.11.25.26.47.45.66.27.27.59.47.95.58-.23.31-.35.68-.35,1.07,0,.5.22.97.59,1.3l-1.67-1.04h0c-.3-.19-.65-.3-1.01-.3h0ZM19.36,19.04h0c-.27.26-.46.6-.52.98-2.45-1.17-4.1-3.55-4.34-6.26-.23-2.71.99-5.34,3.21-6.91,2.22-1.57,5.1-1.85,7.58-.73,2.48,1.12,4.18,3.47,4.47,6.17-.24-.25-.62-.31-.92-.13l-.04.02c-1.47,1.05-2.13,1.97-2.12,2.97,0,.94.58,1.83,1.31,2.96l.2.31-7.25.02h-.04,0c-.57,0-1.13.21-1.54.61h0ZM34.62,28.41c-1.07,1.1-2.54,1.71-4.08,1.69h-.01l-6.74-.02c-.68,0-1.25-.46-1.25-1.01h0c.01-.27.14-.52.35-.68.25-.21.57-.32.9-.31h1.19c.24.01.43-.18.43-.42s-.19-.43-.43-.43h-2.06s0-.02,0-.02c-.33,0-.65-.11-.91-.32-.21-.16-.34-.42-.34-.69,0-.27.13-.52.35-.68.25-.21.57-.31.9-.31h0l2.28.02h0c.24,0,.43-.19.43-.43,0-.24-.19-.43-.43-.43l-2.27-.02h-.8s0,0,0,0c-.33,0-.65-.11-.91-.32-.21-.17-.33-.42-.34-.69,0-.26.1-.51.29-.69.23-.2.52-.3.82-.29h2.78s0,0,0,0c.24,0,.43-.19.43-.43s-.19-.43-.43-.43h-3.82c-.35-.02-.69-.17-.93-.43-.22-.2-.35-.48-.36-.78,0-.24.11-.47.29-.63.26-.25.61-.38.97-.36h0l8.04-.02c.16,0,.3-.08.38-.22s.07-.3,0-.44c-.22-.35-.42-.68-.62-.99-1.37-2.12-1.9-2.94.46-4.67l3.15,5.45c.05.09.11.18.16.26,0,.01.02.03.03.04.25.39.54.75.87,1.07l1.76,1.76-.06,6.39-.46.46ZM39.48,29.77h0c0,.1-.04.19-.11.26-.07.07-.16.11-.26.1l-2.81-.05c-.21,0-.37-.18-.37-.38l.09-10.04c0-.2.16-.36.37-.36h0l2.81.05c.21,0,.37.18.37.38l-.09,10.04Z"/>
    </g>
  </g>
</svg>