<?xml version="1.0" encoding="UTF-8"?>
<svg id="Layer_2" xmlns="http://www.w3.org/2000/svg" xmlns:xlink="http://www.w3.org/1999/xlink" viewBox="0 0 50 31">
  <defs>
    <style>
      .cls-1 {
        fill: #fff;
      }

      .cls-2 {
        fill: none;
      }

      .cls-3 {
        clip-path: url(#clippath);
      }
    </style>
    <clipPath id="clippath">
      <rect class="cls-2" width="50" height="31"/>
    </clipPath>
  </defs>
  <g id="Layer_1-2" data-name="Layer_1">
    <g class="cls-3">
      <path class="cls-1" d="M33.63,30.8c-.08,0-.17-.03-.24-.08-.1-.07-2.38-1.86-4.34-4.54l-.06-.08H11.65c-1.08,0-1.95-.87-1.95-1.95V6.47h-.4c-.21,0-.39-.17-.39-.39v-3.89c0-1.1.89-1.99,1.99-1.99h25.04c1.1,0,1.99.89,1.99,1.99v3.89c0,.21-.17.39-.39.39h-.4v5.61l.1.06c2.36,1.32,3.82,3.81,3.82,6.5,0,6.39-6.92,11.85-7.21,12.08-.07.05-.15.08-.24.08ZM33.63,11.96c-3.68,0-6.67,2.99-6.67,6.67,0,5.16,5.01,9.85,6.54,11.16l.13.11.13-.11c1.54-1.31,6.54-6,6.54-11.16,0-3.68-2.99-6.67-6.67-6.67ZM10.48,24.14c0,.65.53,1.17,1.18,1.17h16.8l-.19-.31c-1.38-2.2-2.08-4.35-2.08-6.37,0-4.11,3.34-7.45,7.45-7.45.84,0,1.68.15,2.48.44l.27.1v-5.25h-9.43v5.1c0,.15-.08.28-.21.35-.06.03-.11.04-.18.04-.08,0-.17-.03-.23-.08l-2.91-2.18-2.91,2.18c-.07.05-.15.08-.23.08-.06,0-.12-.01-.18-.04-.13-.06-.21-.2-.21-.35v-5.11h-9.43v17.67ZM20.68,10.8l2.52-1.89c.07-.05.15-.08.23-.08s.16.03.23.08l2.52,1.89V.98h-5.5v9.82ZM26.96,5.69h10.21v-3.5c0-.67-.55-1.22-1.22-1.22h-8.99v4.72ZM10.91.98c-.67,0-1.22.55-1.22,1.22v3.5h10.21V.98h-8.99ZM33.63,21.38c-1.51,0-2.74-1.23-2.74-2.74s1.23-2.74,2.74-2.74,2.74,1.23,2.74,2.74-1.23,2.74-2.74,2.74ZM33.63,16.67c-1.08,0-1.97.88-1.97,1.97s.88,1.97,1.97,1.97,1.97-.88,1.97-1.97-.88-1.97-1.97-1.97ZM14.8,21.38c-.21,0-.39-.17-.39-.39s.17-.39.39-.39h3.92c.21,0,.39.17.39.39s-.17.39-.39.39h-3.92ZM14.8,18.24c-.21,0-.39-.17-.39-.39s.17-.39.39-.39h7.06c.21,0,.39.17.39.39s-.17.39-.39.39h-7.06Z"/>
    </g>
  </g>
</svg>