<?xml version="1.0" encoding="UTF-8"?>
<svg id="Layer_2" xmlns="http://www.w3.org/2000/svg" xmlns:xlink="http://www.w3.org/1999/xlink" viewBox="0 0 50 31">
  <defs>
    <style>
      .cls-1 {
        fill: #fff;
      }

      .cls-2 {
        fill: none;
      }

      .cls-3 {
        clip-path: url(#clippath);
      }
    </style>
    <clipPath id="clippath">
      <rect class="cls-2" width="50" height="31"/>
    </clipPath>
  </defs>
  <g id="Layer_1-2" data-name="Layer_1">
    <g class="cls-3">
      <path class="cls-1" d="M25,30.9c-.99,0-1.86-.71-2.06-1.68-.24-1.14.49-2.26,1.63-2.5l.08-.02v-3.56h-.09c-1.71-.1-3.36-.79-4.63-1.93l-.07-.06-2.52,2.52.04.07c.54.83.43,1.94-.27,2.65-.4.4-.93.62-1.49.62s-1.09-.22-1.49-.62c-.82-.82-.82-2.16,0-2.99.4-.4.93-.62,1.49-.62.41,0,.81.12,1.15.34l.07.04,2.52-2.52-.06-.07c-1.14-1.28-1.82-2.92-1.92-4.63v-.09h-3.57l-.02.08c-.17.82-.81,1.46-1.63,1.63-.14.03-.29.05-.44.05-.99,0-1.86-.71-2.06-1.68-.12-.55,0-1.12.3-1.59.31-.47.78-.8,1.33-.91.14-.03.29-.05.44-.05.99,0,1.86.71,2.06,1.68l.02.08h3.56v-.09c.1-1.71.79-3.36,1.93-4.63l.06-.07-2.52-2.52-.07.04c-.34.22-.74.34-1.15.34s-.82-.12-1.16-.35c-.47-.31-.8-.79-.91-1.34-.11-.55,0-1.12.3-1.59.39-.6,1.06-.95,1.77-.95.41,0,.81.12,1.16.35.98.64,1.25,1.96.61,2.93l-.04.07,2.52,2.52.07-.06c1.28-1.14,2.92-1.82,4.63-1.92h.09v-3.57l-.08-.02c-.82-.17-1.46-.81-1.63-1.63-.24-1.14.49-2.26,1.63-2.5.14-.03.29-.05.44-.05.99,0,1.86.71,2.06,1.68.12.55.01,1.12-.3,1.59s-.78.8-1.33.91l-.08.02v3.56h.09c1.71.1,3.36.79,4.63,1.93l.07.06,2.52-2.52-.04-.07c-.46-.7-.46-1.61,0-2.31.39-.6,1.05-.96,1.77-.96.41,0,.81.12,1.15.34.47.31.8.78.91,1.33.12.55.01,1.12-.3,1.59-.39.6-1.05.96-1.77.96-.41,0-.81-.12-1.15-.34l-.07-.04-2.52,2.52.06.07c1.14,1.28,1.82,2.92,1.92,4.63v.09h3.57l.02-.08c.21-.97,1.07-1.68,2.07-1.68.99,0,1.86.71,2.07,1.68.24,1.14-.49,2.26-1.63,2.5-.14.03-.29.05-.44.05h0c-.99,0-1.86-.71-2.06-1.68l-.02-.08h-3.56v.09c-.1,1.71-.79,3.36-1.93,4.63l-.06.07,2.52,2.52.07-.04c.34-.22.74-.34,1.15-.34.56,0,1.1.22,1.49.62.4.4.62.93.62,1.49,0,.56-.22,1.09-.62,1.49-.4.4-.93.62-1.49.62-.41,0-.81-.12-1.15-.34-.47-.31-.8-.78-.91-1.33s-.01-1.12.3-1.59l.04-.07-2.52-2.52-.07.06c-1.28,1.14-2.92,1.82-4.63,1.92h-.09v3.57l.08.02c.82.17,1.46.81,1.63,1.63.24,1.14-.49,2.26-1.63,2.5-.14.03-.29.05-.44.05ZM25,27.39c-.77,0-1.4.63-1.4,1.4,0,.77.63,1.4,1.4,1.4.77,0,1.4-.63,1.4-1.4,0-.77-.63-1.4-1.4-1.4h0ZM15.6,23.51c-.37,0-.72.14-.99.4-.55.55-.55,1.44,0,1.98.26.26.62.41.99.41s.73-.15.99-.41c.55-.55.54-1.44,0-1.98-.27-.26-.62-.4-.99-.4ZM34.4,23.49c-.37,0-.73.15-.99.41-.55.55-.55,1.43,0,1.98.26.26.62.41.99.41s.73-.15.99-.41.41-.62.41-.99c0-.37-.15-.73-.41-.99-.27-.26-.62-.41-.99-.41ZM25,22.45c3.83,0,6.95-3.12,6.95-6.95,0-3.83-3.12-6.95-6.95-6.95h0c-1.86,0-3.6.72-4.92,2.04-1.31,1.31-2.04,3.06-2.03,4.92,0,3.83,3.12,6.95,6.95,6.95v-.2s0,.2,0,.2ZM38.29,14.1c-.37,0-.73.15-.99.41s-.41.62-.41.99c0,.77.63,1.4,1.4,1.4.77,0,1.4-.63,1.4-1.4,0-.77-.63-1.4-1.4-1.4h0ZM11.71,14.1c-.77,0-1.4.63-1.4,1.4s.63,1.4,1.4,1.4c.77,0,1.4-.63,1.4-1.4,0-.77-.63-1.4-1.4-1.4ZM34.4,4.7c-.37,0-.73.15-.99.41-.26.26-.41.62-.41.99,0,.37.15.73.41.99s.62.41.99.41.73-.15.99-.41c.55-.55.55-1.44,0-1.98-.26-.26-.62-.41-.99-.41ZM15.6,4.72c-.37,0-.72.14-.99.4-.55.55-.55,1.44,0,1.98.27.26.62.4.99.4s.72-.14.99-.4c.55-.55.55-1.44,0-1.98-.27-.26-.62-.4-.99-.4ZM25,.81c-.77,0-1.4.63-1.4,1.4,0,.77.63,1.4,1.4,1.4.37,0,.73-.15.99-.41s.41-.62.41-.99c0-.77-.63-1.4-1.4-1.4h0ZM25,20.85c-2.95,0-5.35-2.4-5.35-5.35s2.4-5.35,5.35-5.35c2.95,0,5.35,2.4,5.35,5.35,0,2.95-2.4,5.35-5.35,5.35ZM25,10.86c-2.56,0-4.64,2.08-4.64,4.64s2.08,4.65,4.64,4.65c2.56,0,4.64-2.09,4.65-4.65,0-2.56-2.08-4.64-4.65-4.64ZM25.03,19.32c-.19,0-.34-.16-.34-.34v-.92l-.07-.02c-.63-.17-1.08-.76-1.08-1.41,0-.19.16-.34.35-.34.2,0,.35.16.35.34,0,.42.34.76.76.76s.76-.34.76-.76-.34-.76-.76-.76c-.81,0-1.47-.66-1.47-1.46,0-.66.44-1.25,1.08-1.42l.07-.02v-.91c0-.19.16-.34.35-.34.2,0,.35.16.36.34v.92l.07.02c.6.2,1.01.76,1.01,1.39,0,.1-.03.19-.1.26-.06.07-.15.11-.25.11h0c-.2,0-.36-.15-.37-.34,0-.41-.29-.73-.66-.78h-.02s-.12,0-.12,0c-.41.02-.73.35-.73.76,0,.42.34.76.76.76.81,0,1.47.66,1.47,1.46,0,.64-.4,1.2-1.01,1.4l-.07.02v.95c0,.19-.16.34-.35.34h-.01Z"/>
    </g>
  </g>
</svg>