<?xml version="1.0" encoding="UTF-8"?>
<svg id="Layer_2" xmlns="http://www.w3.org/2000/svg" xmlns:xlink="http://www.w3.org/1999/xlink" viewBox="0 0 50 31">
  <defs>
    <style>
      .cls-1 {
        fill: #fff;
      }

      .cls-2 {
        fill: none;
      }

      .cls-3 {
        clip-path: url(#clippath);
      }
    </style>
    <clipPath id="clippath">
      <rect class="cls-2" width="50" height="31"/>
    </clipPath>
  </defs>
  <g id="Layer_1-2" data-name="Layer_1">
    <g class="cls-3">
      <g>
        <path class="cls-1" d="M32.25,26.59c-.51,0-.93-.42-.93-.93v-2.37c0-.51.42-.93.93-.93h9.12c.51,0,.93.42.93.93v2.37c0,.24-.09.47-.26.65-.18.18-.41.28-.67.28h-9.12ZM32.25,22.89c-.21,0-.39.18-.39.39v2.37c0,.21.18.39.39.39h9.12c.21,0,.39-.18.39-.39v-2.37c0-.21-.18-.39-.39-.39h-9.12Z"/>
        <path class="cls-1" d="M8.23,28.16c-1.24,0-2.25-1.01-2.25-2.25V7.61c0-1.24,1.01-2.25,2.25-2.25h2.15v-1.02c0-.83.67-1.5,1.5-1.5s1.5.67,1.5,1.5v1.02h1.51v-1.02c0-.83.67-1.5,1.5-1.5s1.5.67,1.5,1.5v1.02h5.89v-1.02c0-.83.67-1.5,1.5-1.5s1.5.67,1.5,1.5v1.02h1.51v-1.02c0-.83.67-1.5,1.5-1.5s1.5.67,1.5,1.5v1.02h2.16c1.24,0,2.25,1.01,2.25,2.25v6.51h6.9c.78,0,1.41.63,1.41,1.41v11.21c0,.38-.14.73-.41,1-.27.27-.62.42-.99.42H8.23ZM31,14.66c-.48,0-.87.39-.87.87v11.21c0,.48.39.87.87.87h11.62c.48,0,.87-.39.87-.87v-11.21c0-.48-.39-.87-.87-.87h-3.36v5.59c0,.1-.05.2-.15.24-.04.02-.08.03-.12.03-.06,0-.11-.02-.16-.05l-2.03-1.45-2.02,1.45s-.1.05-.16.05c-.04,0-.09-.01-.13-.03-.08-.04-.13-.13-.13-.24v-5.59h-3.36ZM6.52,25.9c0,.94.77,1.71,1.71,1.71h21.63l-.12-.24c-.1-.2-.15-.41-.15-.62v-11.22c0-.78.63-1.41,1.41-1.41h4.19v-3.58H6.52v15.35ZM36.8,18.43c.06,0,.11.02.16.05l1.75,1.25v-5.07h-3.82v5.07l1.76-1.25s.1-.05.16-.05ZM8.23,5.9c-.94,0-1.71.77-1.71,1.71v2.4h28.66v-2.4c0-.94-.77-1.71-1.71-1.71h-2.16v.97c0,.83-.67,1.5-1.5,1.5s-1.5-.67-1.5-1.5v-.97h-1.51v.97c0,.83-.67,1.5-1.5,1.5s-1.5-.67-1.5-1.5v-.97h-5.89v.97c0,.83-.67,1.5-1.5,1.5s-1.5-.67-1.5-1.5v-.97h-1.51v.97c0,.83-.67,1.5-1.5,1.5s-1.5-.67-1.5-1.5v-.97h-2.15ZM29.81,3.38c-.53,0-.96.43-.96.96v2.53c0,.53.43.96.96.96s.96-.43.96-.96v-2.53c0-.53-.43-.96-.96-.96ZM25.29,3.38c-.53,0-.96.43-.96.96v2.53c0,.53.43.96.96.96s.96-.43.96-.96v-2.53c0-.53-.43-.96-.96-.96ZM16.4,3.38c-.53,0-.96.43-.96.96v2.53c0,.53.43.96.96.96s.96-.43.96-.96v-2.53c0-.53-.43-.96-.96-.96ZM11.88,3.38c-.53,0-.96.43-.96.96v1.29s0,.09,0,.09v1.15c0,.53.43.96.96.96s.96-.43.96-.96v-2.53c0-.53-.43-.96-.96-.96Z"/>
        <path class="cls-1" d="M8.88,16c-.45,0-.82-.37-.82-.82v-2.05c0-.45.37-.82.82-.82h2.05c.45,0,.82.37.82.82v2.05c0,.45-.37.82-.82.82h-2.05ZM8.88,12.86c-.15,0-.28.13-.28.28v2.05c0,.15.13.28.28.28h2.05c.15,0,.28-.13.28-.28v-2.05c0-.15-.13-.28-.28-.28h-2.05Z"/>
        <path class="cls-1" d="M14.35,16c-.45,0-.82-.37-.82-.82v-2.05c0-.45.37-.82.82-.82h2.05c.45,0,.82.37.82.82v2.05c0,.45-.37.82-.82.82h-2.05ZM14.35,12.86c-.15,0-.28.13-.28.28v2.05c0,.15.13.28.28.28h2.05c.15,0,.28-.13.28-.28v-2.05c0-.15-.13-.28-.28-.28h-2.05Z"/>
        <path class="cls-1" d="M19.82,16c-.45,0-.82-.37-.82-.82v-2.05c0-.45.37-.82.82-.82h2.05c.45,0,.82.37.82.82v2.05c0,.45-.37.82-.82.82h-2.05ZM19.82,12.86c-.15,0-.28.13-.28.28v2.05c0,.15.13.28.28.28h2.05c.15,0,.28-.13.28-.28v-2.05c0-.15-.13-.28-.28-.28h-2.05Z"/>
        <path class="cls-1" d="M25.29,16c-.45,0-.82-.37-.82-.82v-2.05c0-.45.37-.82.82-.82h2.05c.45,0,.82.37.82.82v2.05c0,.45-.37.82-.82.82h-2.05ZM25.29,12.86c-.15,0-.28.13-.28.28v2.05c0,.15.13.28.28.28h2.05c.15,0,.28-.13.28-.28v-2.05c0-.15-.13-.28-.28-.28h-2.05Z"/>
        <path class="cls-1" d="M8.88,20.92c-.45,0-.82-.37-.82-.82v-2.05c0-.45.37-.82.82-.82h2.05c.45,0,.82.37.82.82v2.05c0,.45-.37.82-.82.82h-2.05ZM8.88,17.78c-.15,0-.28.13-.28.28v2.05c0,.15.13.28.28.28h2.05c.15,0,.28-.13.28-.28v-2.05c0-.15-.13-.28-.28-.28h-2.05Z"/>
        <path class="cls-1" d="M14.35,20.92c-.45,0-.82-.37-.82-.82v-2.05c0-.45.37-.82.82-.82h2.05c.45,0,.82.37.82.82v2.05c0,.45-.37.82-.82.82h-2.05ZM14.35,17.78c-.15,0-.28.13-.28.28v2.05c0,.15.13.28.28.28h2.05c.15,0,.28-.13.28-.28v-2.05c0-.15-.13-.28-.28-.28h-2.05Z"/>
        <path class="cls-1" d="M19.82,20.92c-.45,0-.82-.37-.82-.82v-2.05c0-.45.37-.82.82-.82h2.05c.45,0,.82.37.82.82v2.05c0,.45-.37.82-.82.82h-2.05ZM19.82,17.78c-.15,0-.28.13-.28.28v2.05c0,.15.13.28.28.28h2.05c.15,0,.28-.13.28-.28v-2.05c0-.15-.13-.28-.28-.28h-2.05Z"/>
        <path class="cls-1" d="M25.29,20.92c-.45,0-.82-.37-.82-.82v-2.05c0-.45.37-.82.82-.82h2.05c.45,0,.82.37.82.82v2.05c0,.45-.37.82-.82.82h-2.05ZM25.29,17.78c-.15,0-.28.13-.28.28v2.05c0,.15.13.28.28.28h2.05c.15,0,.28-.13.28-.28v-2.05c0-.15-.13-.28-.28-.28h-2.05Z"/>
        <path class="cls-1" d="M8.88,25.85c-.45,0-.82-.37-.82-.82v-2.05c0-.45.37-.82.82-.82h2.05c.45,0,.82.37.82.82v2.05c0,.45-.37.82-.82.82h-2.05ZM8.88,22.7c-.15,0-.28.13-.28.28v2.05c0,.15.13.28.28.28h2.05c.15,0,.28-.13.28-.28v-2.05c0-.15-.13-.28-.28-.28h-2.05Z"/>
        <path class="cls-1" d="M14.35,25.85c-.45,0-.82-.37-.82-.82v-2.05c0-.45.37-.82.82-.82h2.05c.45,0,.82.37.82.82v2.05c0,.45-.37.82-.82.82h-2.05ZM14.35,22.7c-.15,0-.28.13-.28.28v2.05c0,.15.13.28.28.28h2.05c.15,0,.28-.13.28-.28v-2.05c0-.15-.13-.28-.28-.28h-2.05Z"/>
        <path class="cls-1" d="M19.82,25.85c-.45,0-.82-.37-.82-.82v-2.05c0-.45.37-.82.82-.82h2.05c.45,0,.82.37.82.82v2.05c0,.45-.37.82-.82.82h-2.05ZM19.82,22.7c-.15,0-.28.13-.28.28v2.05c0,.15.13.28.28.28h2.05c.15,0,.28-.13.28-.28v-2.05c0-.15-.13-.28-.28-.28h-2.05Z"/>
        <path class="cls-1" d="M25.29,25.85c-.45,0-.82-.37-.82-.82v-2.05c0-.45.37-.82.82-.82h2.05c.45,0,.82.37.82.82v2.05c0,.45-.37.82-.82.82h-2.05ZM25.29,22.7c-.15,0-.28.13-.28.28v2.05c0,.15.13.28.28.28h2.05c.15,0,.28-.13.28-.28v-2.05c0-.15-.13-.28-.28-.28h-2.05Z"/>
      </g>
    </g>
  </g>
</svg>