<?xml version="1.0" encoding="UTF-8"?>
<svg id="Layer_2" xmlns="http://www.w3.org/2000/svg" viewBox="0 0 60 60">
  <defs>
    <style>
      .cls-1 {
        fill: #f55b14;
      }

      .cls-2 {
        fill: #fff;
      }
    </style>
  </defs>
  <g id="Layer_1-2" data-name="Layer_1">
    <circle class="cls-1" cx="30" cy="30" r="30"/>
    <path class="cls-2" d="M38.25,45c-.12,0-.24-.05-.32-.13l-8.65-8.65-5.66,5.66s-.11.09-.17.11l-5.52,2.03c-.31.11-.59.17-.85.17-.47,0-.76-.19-.91-.35-.23-.23-.55-.76-.17-1.77l2.04-5.53c.02-.06.06-.12.11-.17l5.66-5.66-8.65-8.65c-.18-.18-.18-.47,0-.65l6.29-6.29c.08-.08.2-.13.32-.13s.24.05.32.13l8.65,8.65,6.24-6.24c.07-.07.17-.11.28-.12l.17-.02v-.17c.02-.08.05-.19.14-.28.73-.73,1.71-1.14,2.75-1.14s2.01.4,2.75,1.14c1.51,1.51,1.51,3.98,0,5.49-.09.09-.2.12-.28.13l-.17.02v.17c-.02.11-.07.21-.14.28l-6.24,6.24,8.65,8.65c.09.09.13.2.13.32s-.05.24-.13.32l-6.29,6.29c-.09.09-.2.13-.32.13ZM37.09,38.58c.12,0,.24.05.32.13.18.18.18.47,0,.65l-1.84,1.84,2.69,2.69,5.64-5.64-8.33-8.33-5.64,5.64,1.77,1.77,1.84-1.84c.09-.09.2-.13.32-.13s.24.05.32.13c.18.18.18.47,0,.65l-1.84,1.84,2.58,2.58,1.84-1.84c.09-.09.2-.13.32-.13ZM18.88,36.92l-2.03,5.47c-.15.41-.13.67-.06.77.12.1.19.11.28.11.11,0,.29-.02.54-.11l4.86-1.79-2.13-2.14c-.09-.09-.13-.2-.13-.32s.05-.24.13-.32c.09-.09.2-.13.32-.13s.24.05.32.13l2.32,2.32,18.19-18.19-4.2-4.2-18.41,18.41ZM24.19,25.68c.12,0,.24.05.32.13.09.09.13.2.13.32s-.05.24-.13.32l-1.84,1.84,1.77,1.77,5.64-5.64-8.33-8.33-5.64,5.64,2.69,2.69,1.84-1.84c.09-.09.2-.13.32-.13s.24.05.32.13c.18.18.18.47,0,.65l-1.84,1.84,2.58,2.58,1.84-1.84c.09-.09.2-.13.32-.13ZM40.3,16.72c-.79,0-1.54.31-2.1.87-.02.02-.06.05-.1.07l-.23.13,4.33,4.33.13-.23s.05-.07.07-.1c1.16-1.16,1.16-3.04,0-4.2-.56-.56-1.31-.87-2.1-.87Z"/>
  </g>
</svg>