<?xml version="1.0" encoding="UTF-8"?>
<svg id="Layer_2" xmlns="http://www.w3.org/2000/svg" viewBox="0 0 60 60">
  <defs>
    <style>
      .cls-1 {
        fill: #f55b14;
      }

      .cls-2 {
        fill: #fff;
      }
    </style>
  </defs>
  <g id="Layer_1-2" data-name="Layer_1">
    <circle class="cls-1" cx="30" cy="30" r="30"/>
    <g>
      <path class="cls-2" d="M43.37,30.37c-.7-.62-1.77-.63-2.48,0l-4.21,3.7c-.2-.82-.94-1.44-1.82-1.44h-3.69c-.23,0-.45-.04-.66-.13l-1.34-.53c-.32-.13-.65-.19-.99-.19h-2.45c-.88,0-1.73.33-2.38.93l-2.71,2.5-.22-.33c-.13-.2-.33-.33-.56-.38-.23-.05-.47,0-.67.13l-2.79,1.85c-.41.27-.52.82-.25,1.23l4.69,7.1c.13.2.33.33.56.38.06.01.12.02.18.02.17,0,.34-.05.49-.15l2.78-1.84c.41-.27.52-.82.25-1.23l-.02-.04,1.03-.75c.32-.23.7-.36,1.1-.36h8.15c.96,0,1.87-.42,2.49-1.15l5.7-6.7c.66-.77.57-1.94-.18-2.62h0ZM21.59,44.26l-4.66-7.04,2.73-1.8,4.66,7.04-2.73,1.8ZM42.86,32.4l-5.71,6.69c-.45.53-1.1.82-1.78.82h-8.15c-.59,0-1.16.18-1.64.53l-1,.72-3.43-5.18,2.82-2.61c.48-.44,1.11-.69,1.76-.69h2.45c.23,0,.45.04.66.13l1.34.53c.32.13.65.19.99.19h3.69c.53,0,.96.43.96.96,0,.15-.04.28-.1.41l-.56.49c-.1.03-.19.05-.3.05h-4.02c-.26,0-.46.21-.46.46s.21.46.46.46h4.02c.23,0,.44-.05.65-.12.01,0,.03,0,.04-.01.37-.14.68-.41.89-.74l5.06-4.44c.36-.31.9-.31,1.26,0,.39.35.43.95.1,1.34h0Z"/>
      <path class="cls-2" d="M21.97,19.05l-.31,1.82c-.03.17.04.35.18.45.14.1.33.12.48.03l1.63-.86,1.64.86c.07.03.14.05.21.05.1,0,.19-.03.27-.09.14-.1.21-.28.18-.45l-.31-1.82,1.32-1.29c.13-.12.17-.3.12-.47-.05-.17-.2-.29-.37-.31l-1.82-.26-.82-1.65c-.08-.15-.24-.26-.41-.26s-.34.1-.42.26l-.82,1.65-1.83.26c-.17.02-.32.14-.37.31-.05.17,0,.36.12.48l1.32,1.29ZM23.09,17.59c.15-.02.28-.12.35-.26l.51-1.03.51,1.03c.07.14.2.23.35.25l1.14.16-.82.81c-.11.11-.16.26-.13.41l.19,1.13-1.02-.54c-.07-.03-.14-.05-.21-.05s-.15.02-.22.05l-1.02.54.19-1.13c.02-.15-.02-.3-.13-.41l-.82-.81,1.15-.16Z"/>
      <path class="cls-2" d="M21.97,27.39l-.31,1.82c-.03.17.04.35.18.45.14.1.33.12.48.03l1.63-.86,1.64.86c.07.03.14.05.21.05.1,0,.19-.03.27-.09.14-.1.21-.28.18-.45l-.31-1.82,1.32-1.29c.13-.12.17-.3.12-.47-.05-.17-.2-.29-.37-.31l-1.82-.26-.82-1.65c-.08-.15-.24-.26-.41-.26s-.34.1-.42.26l-.82,1.65-1.83.26c-.17.02-.32.14-.37.31-.05.17,0,.35.12.47l1.33,1.3ZM23.09,25.93c.15-.02.28-.12.35-.25l.51-1.03.51,1.03c.07.14.2.23.35.25l1.14.16-.82.81c-.11.11-.16.26-.13.41l.19,1.13-1.02-.54c-.07-.03-.14-.05-.21-.05s-.15.02-.22.05l-1.02.54.19-1.13c.02-.15-.02-.3-.13-.41l-.82-.81,1.15-.17Z"/>
      <path class="cls-2" d="M30.77,28.57h7.14c1.17,0,2.12-.95,2.12-2.12s-.95-2.12-2.12-2.12h-7.14c-1.17,0-2.12.95-2.12,2.12s.96,2.12,2.12,2.12ZM30.77,25.25h7.14c.66,0,1.2.54,1.2,1.2s-.54,1.2-1.2,1.2h-7.14c-.66,0-1.2-.54-1.2-1.2,0-.67.54-1.2,1.2-1.2Z"/>
      <path class="cls-2" d="M30.77,20.23h7.14c1.17,0,2.12-.95,2.12-2.12s-.95-2.12-2.12-2.12h-7.14c-1.17,0-2.12.95-2.12,2.12s.96,2.12,2.12,2.12ZM30.77,16.91h7.14c.66,0,1.2.54,1.2,1.2s-.54,1.2-1.2,1.2h-7.14c-.66,0-1.2-.54-1.2-1.2s.54-1.2,1.2-1.2Z"/>
    </g>
  </g>
</svg>