<?xml version="1.0" encoding="UTF-8"?>
<svg id="Layer_2" xmlns="http://www.w3.org/2000/svg" viewBox="0 0 60 60">
  <defs>
    <style>
      .cls-1 {
        fill: #f55b14;
      }

      .cls-2 {
        fill: #fff;
      }
    </style>
  </defs>
  <g id="Layer_1-2" data-name="Layer_1">
    <circle class="cls-1" cx="30" cy="30" r="30"/>
    <path class="cls-2" d="M16.36,27.15c.59-2.85,2.04-5.4,4.19-7.38,1.96-1.8,4.33-2.99,6.92-3.47l-.88-.63c-.19-.13-.23-.39-.1-.58.13-.19.39-.23.58-.1l1.69,1.21c.09.06.15.16.17.27.02.11,0,.22-.07.31l-1.21,1.69c-.13.19-.39.23-.58.1-.19-.13-.23-.39-.1-.58l.63-.88c-5.2.96-9.34,4.97-10.43,10.2-.04.2-.21.33-.41.33-.03,0-.06,0-.09,0-.22-.06-.37-.28-.32-.5h0ZM43.52,30.51c-.23-.01-.43.16-.44.38-.4,5.95-4.84,10.9-10.65,11.99l.63-.88c.13-.19.09-.45-.1-.58s-.45-.09-.58.1l-1.21,1.69c-.06.09-.09.2-.07.31.02.11.08.21.17.27l1.69,1.21c.07.05.16.08.24.08.13,0,.26-.06.34-.17.13-.19.09-.45-.1-.58l-.88-.63c2.9-.54,5.58-2.01,7.61-4.17,2.19-2.34,3.52-5.38,3.73-8.58.02-.23-.16-.43-.38-.44h0ZM31.25,38.43l-.81.15c-.12.02-.2.1-.24.21-.16.53-.37,1.04-.63,1.52-.06.11-.05.22.02.32l.47.67c.31.45.26,1.06-.13,1.45l-1.11,1.11c-.39.39-1,.44-1.45.13l-.67-.47c-.1-.07-.21-.08-.32-.02-.48.26-1,.47-1.52.63-.12.04-.19.12-.21.24l-.15.81c-.1.54-.57.93-1.12.93h-1.58c-.55,0-1.02-.39-1.12-.93l-.15-.81c-.02-.12-.1-.2-.21-.24-.53-.16-1.04-.37-1.52-.63-.11-.06-.22-.05-.32.02l-.67.47c-.45.31-1.06.26-1.45-.13l-1.11-1.11c-.39-.39-.44-1-.13-1.45l.47-.67c.07-.1.08-.21.02-.32-.26-.48-.47-1-.63-1.52-.04-.12-.12-.19-.24-.21l-.81-.15c-.54-.1-.93-.57-.93-1.12v-1.58c0-.55.39-1.02.93-1.12l.81-.15c.12-.02.2-.1.24-.21.16-.53.37-1.04.63-1.52.06-.11.05-.22-.02-.32l-.46-.67c-.31-.45-.26-1.06.13-1.45l1.11-1.11c.39-.39,1-.44,1.45-.13l.67.47c.1.07.21.08.32.02.48-.26,1-.47,1.52-.63.12-.04.19-.12.21-.24l.15-.81c.1-.54.57-.93,1.12-.93h1.58c.55,0,1.02.39,1.12.93l.15.81c.02.12.1.2.21.24.53.16,1.04.37,1.52.63.11.06.22.05.32-.02l.67-.47c.45-.31,1.06-.26,1.45.13l1.11,1.11c.39.39.44,1,.13,1.45l-.47.67c-.07.1-.08.21-.02.32.26.48.47,1,.63,1.52.04.12.12.19.24.21l.81.15c.54.1.93.57.93,1.12v1.58c0,.54-.39,1.01-.93,1.11h0ZM31.11,37.62c.15-.03.25-.15.25-.3v-1.58c0-.15-.1-.27-.25-.3l-.81-.15c-.43-.08-.76-.37-.88-.79-.14-.47-.33-.93-.57-1.36-.21-.38-.19-.83.06-1.19l.47-.67c.09-.12.07-.28-.04-.39l-1.11-1.11c-.11-.11-.26-.12-.39-.04l-.67.47c-.36.25-.8.27-1.19.06-.43-.24-.89-.43-1.36-.57-.42-.13-.71-.45-.79-.88l-.15-.81c-.03-.15-.15-.25-.3-.25h-1.58c-.15,0-.27.1-.3.25l-.15.81c-.08.43-.37.76-.79.88-.47.14-.93.33-1.36.57-.38.21-.83.19-1.19-.06l-.67-.47c-.12-.09-.28-.07-.39.04l-1.11,1.11c-.11.11-.12.26-.04.39l.47.67c.25.36.27.8.06,1.19-.24.43-.43.89-.57,1.36-.13.42-.45.71-.88.79l-.81.15c-.15.03-.25.15-.25.3v1.58c0,.15.1.27.25.3l.81.15c.43.08.76.37.88.79.14.47.33.93.57,1.36.21.38.19.83-.06,1.19l-.47.67c-.09.12-.07.28.04.39l1.11,1.11c.11.11.26.12.39.04l.67-.47c.2-.14.42-.21.64-.21.19,0,.37.05.54.14.43.24.89.43,1.36.57.42.13.71.45.79.88l.15.81c.03.15.15.25.3.25h1.58c.15,0,.27-.1.3-.25l.15-.81c.08-.43.37-.76.79-.88.47-.14.93-.33,1.36-.57.38-.21.83-.19,1.19.06l.67.47c.12.09.28.07.39-.04l1.11-1.11c.11-.11.12-.26.04-.39l-.47-.67c-.25-.36-.27-.8-.06-1.19.24-.43.43-.89.57-1.36.13-.42.45-.71.88-.79l.81-.14ZM27.15,36.53c0,2.52-2.05,4.56-4.56,4.56s-4.56-2.05-4.56-4.56,2.05-4.56,4.56-4.56,4.56,2.05,4.56,4.56ZM26.33,36.53c0-2.06-1.67-3.73-3.73-3.73s-3.73,1.67-3.73,3.73,1.67,3.73,3.73,3.73,3.73-1.68,3.73-3.73ZM46.35,22.98l-.74.35c-.11.05-.17.15-.17.27-.01.55-.09,1.1-.22,1.64-.03.12,0,.22.1.3l.62.53c.42.35.52.96.25,1.43l-.79,1.37c-.27.47-.85.69-1.36.5l-.77-.28c-.11-.04-.22-.02-.31.06-.4.38-.84.72-1.31,1.01-.1.06-.15.16-.14.29l.07.82c.05.55-.31,1.05-.83,1.19l-1.52.41c-.1.03-.2.04-.29.04-.43,0-.83-.25-1.02-.65l-.35-.74c-.05-.11-.15-.17-.27-.17-.55-.01-1.1-.09-1.64-.22-.12-.03-.22,0-.3.1l-.53.62c-.35.42-.96.52-1.43.25l-1.37-.79c-.47-.27-.69-.85-.5-1.36l.28-.77c.04-.11.02-.22-.06-.31-.38-.4-.72-.84-1.01-1.31-.06-.1-.16-.15-.29-.14l-.82.07c-.55.05-1.05-.31-1.19-.83l-.41-1.52c-.14-.53.11-1.08.61-1.32l.74-.35c.11-.05.17-.15.17-.27.01-.55.09-1.1.22-1.64.03-.12,0-.22-.1-.3l-.62-.53c-.42-.35-.52-.96-.25-1.43l.79-1.37c.27-.47.85-.69,1.36-.5l.77.28c.11.04.22.02.31-.06.4-.38.84-.72,1.31-1.01.1-.06.15-.16.14-.29l-.07-.82c-.05-.55.31-1.05.83-1.19l1.52-.41c.53-.14,1.08.11,1.32.61l.35.74c.06.1.15.16.27.17.55.01,1.1.09,1.63.22.12.03.22,0,.3-.1l.53-.62c.35-.42.96-.52,1.43-.25l1.37.79c.47.27.69.85.5,1.36l-.28.77c-.04.11-.02.22.06.31.38.4.72.84,1.01,1.31.06.1.16.15.29.14l.82-.07c.55-.05,1.05.31,1.19.83l.41,1.52c.14.54-.11,1.09-.61,1.32h0ZM46.16,21.87l-.41-1.52c-.04-.14-.17-.24-.32-.22l-.82.07c-.43.04-.83-.16-1.06-.54-.26-.42-.56-.81-.9-1.17-.3-.32-.39-.75-.25-1.16l.28-.77c.05-.14,0-.29-.14-.37l-1.37-.79c-.13-.08-.29-.05-.38.07l-.53.62c-.28.33-.7.47-1.13.37-.48-.11-.97-.18-1.46-.19-.43-.01-.81-.25-1-.65l-.35-.74c-.06-.14-.21-.2-.35-.16l-1.52.41c-.14.04-.24.17-.22.32l.07.82c.04.43-.16.83-.54,1.06-.42.26-.81.56-1.17.9-.32.3-.75.39-1.16.25l-.77-.28c-.14-.05-.29,0-.37.14l-.79,1.37c-.08.13-.05.29.07.38l.62.53c.33.28.47.7.37,1.13-.11.48-.18.97-.19,1.46-.01.43-.25.81-.65,1l-.74.35c-.14.06-.2.21-.16.35l.41,1.52c.04.14.17.24.32.22l.82-.07c.43-.04.83.16,1.06.54.26.42.56.81.9,1.17.3.32.39.75.25,1.16l-.28.77c-.05.14,0,.29.14.37l1.37.79c.13.08.29.05.38-.07l.53-.62c.22-.26.53-.4.86-.4.09,0,.18.01.27.03.48.11.97.18,1.46.19.43.01.81.25,1,.65l.35.74c.06.14.21.2.35.16l1.52-.41c.14-.04.24-.17.22-.32l-.07-.82c-.04-.43.16-.83.54-1.06.42-.26.81-.56,1.17-.9.32-.3.75-.39,1.16-.25l.77.28c.14.05.29,0,.37-.14l.79-1.37c.08-.13.05-.29-.07-.38l-.62-.53c-.33-.28-.47-.71-.37-1.13.11-.48.18-.97.19-1.46.01-.43.25-.81.65-1l.74-.35c.14-.06.2-.21.17-.35h0ZM42.05,23.38c0,2.52-2.04,4.56-4.56,4.56s-4.56-2.04-4.56-4.56,2.04-4.56,4.56-4.56,4.56,2.04,4.56,4.56ZM41.23,23.38c0-2.06-1.67-3.73-3.73-3.73s-3.73,1.67-3.73,3.73,1.67,3.73,3.73,3.73,3.73-1.67,3.73-3.73Z"/>
  </g>
</svg>