<?xml version="1.0" encoding="UTF-8"?>
<svg id="Layer_2" xmlns="http://www.w3.org/2000/svg" viewBox="0 0 60 60">
  <defs>
    <style>
      .cls-1 {
        fill: #f55b14;
      }

      .cls-2 {
        fill: #fff;
      }
    </style>
  </defs>
  <g id="Layer_1-2" data-name="Layer_1">
    <circle class="cls-1" cx="30" cy="30" r="30"/>
    <g>
      <path class="cls-2" d="M46.39,19.94l-16.11-7.58c-.09-.04-.18-.06-.28-.06s-.19.02-.28.06l-16.1,7.58c-.23.11-.37.34-.37.58,0,20.9,15.12,27.18,16.75,27.18s16.75-6.28,16.75-27.17c0-.25-.14-.48-.36-.59ZM45.46,21.13c-.28,19.17-13.43,24.58-15.23,25.23l-.04.05h-.12c-.16,0-15.23-4.68-15.53-25.28v-.2l15.46-7.26,15.46,7.26v.2Z"/>
      <path class="cls-2" d="M46.39,19.94l-16.11-7.58c-.09-.04-.18-.06-.28-.06s-.19.02-.28.06l-16.1,7.58c-.23.11-.37.34-.37.58,0,20.9,15.12,27.18,16.75,27.18s16.75-6.28,16.75-27.17c0-.25-.14-.48-.36-.59ZM45.46,21.13c-.28,19.17-13.43,24.58-15.23,25.23l-.04.05h-.12c-.16,0-15.23-4.68-15.53-25.28v-.2l15.46-7.26,15.46,7.26v.2Z"/>
      <path class="cls-2" d="M36.13,25.7l-6.62,7.57c-.12.13-.28.21-.46.22-.17-.01-.34-.07-.46-.19l-3.79-3.79c-.12-.12-.19-.28-.19-.46,0-.17.07-.34.19-.46.13-.12.29-.19.46-.19.18,0,.34.07.46.19l3.35,3.27,6.1-7.03c.12-.11.28-.18.46-.18.15,0,.29.04.4.14.28.22.33.63.1.91Z"/>
      <path class="cls-2" d="M36.13,25.7l-6.62,7.57c-.12.13-.28.21-.46.22-.17-.01-.34-.07-.46-.19l-3.79-3.79c-.12-.12-.19-.28-.19-.46,0-.17.07-.34.19-.46.13-.12.29-.19.46-.19.18,0,.34.07.46.19l3.35,3.27,6.1-7.03c.12-.11.28-.18.46-.18.15,0,.29.04.4.14.28.22.33.63.1.91Z"/>
    </g>
  </g>
</svg>