<?xml version="1.0" encoding="UTF-8"?>
<svg id="Layer_2" xmlns="http://www.w3.org/2000/svg" viewBox="0 0 60 60">
  <defs>
    <style>
      .cls-1 {
        fill: #f55b14;
      }

      .cls-2 {
        fill: #fff;
      }
    </style>
  </defs>
  <g id="Layer_1-2" data-name="Layer_1">
    <circle class="cls-1" cx="30" cy="30" r="30"/>
    <path class="cls-2" d="M25.15,47.23c-.35,0-.69-.14-.94-.39-.46-.46-.52-1.17-.14-1.7.25-.35.65-.56,1.08-.56.2,0,.39.04.57.13l.07.03.92-.92.03-5.67-.06-.03c-.16-.08-.32-.16-.47-.25l-.05-.03-1.36.81c-.06.03-.12.05-.19.05-.08,0-.16-.03-.22-.07-.26-.2-.5-.4-.74-.63l-6.06-.03c-.87,0-1.58-.71-1.58-1.59V14.35c0-.87.71-1.58,1.58-1.58h24.84c.87,0,1.58.71,1.58,1.58v22.06c0,.87-.71,1.58-1.58,1.59h-5.98c-.31.25-.56.46-.82.65-.06.05-.14.07-.22.07-.07,0-.13-.02-.19-.05l-1.36-.81-.05.03c-.15.09-.31.17-.47.25l-.06.03v5.59l.95.99.07-.03c.18-.09.37-.13.57-.13.43,0,.83.21,1.08.56.37.53.31,1.24-.14,1.7-.25.25-.58.39-.94.39-.27,0-.54-.08-.76-.24-.53-.37-.71-1.07-.43-1.65l.03-.07-1.05-1.05c-.07-.07-.11-.16-.11-.26v-5.49l-.14.05c-.1.03-.2.06-.3.09l-.06.02-.08.08-.37,1.48c-.04.15-.16.25-.3.27-.27.04-.54.06-.81.07h-.1v2.34l.07.03c.61.22.97.83.86,1.47-.11.64-.65,1.1-1.3,1.1s-1.19-.46-1.3-1.1c-.11-.63.25-1.25.86-1.47l.07-.03v-2.33h-.1c-.27-.02-.54-.04-.8-.08-.15-.02-.27-.13-.3-.27l-.39-1.54-.06-.02c-.12-.03-.24-.07-.36-.11l-.14-.05v5.49c0,.1-.04.19-.11.26l-1.06,1.06.03.07c.28.58.1,1.28-.43,1.65-.22.16-.49.24-.76.24ZM25.15,45.32c-.15,0-.3.06-.41.17-.17.17-.22.42-.13.64.09.22.3.36.54.36.32,0,.58-.26.58-.58,0-.24-.14-.45-.36-.54-.07-.03-.15-.04-.22-.04ZM34.84,45.32c-.24,0-.45.14-.54.36-.09.22-.04.47.12.64.11.11.26.17.41.17.08,0,.15-.01.22-.04.22-.09.36-.3.36-.54,0-.16-.06-.31-.17-.41-.11-.11-.26-.17-.41-.17h0ZM30,43.55c-.15,0-.3.06-.41.17-.17.17-.22.42-.13.64.09.22.3.36.54.36.15,0,.3-.06.41-.17.11-.11.17-.26.17-.42,0-.24-.14-.45-.36-.54-.07-.03-.15-.04-.22-.04ZM26.16,37.07c.07,0,.13.02.19.05.64.4,1.34.69,2.07.86.13.03.24.13.27.27l.38,1.51h.08c.28.03.57.05.85.05s.57-.01.85-.04h.08s.38-1.52.38-1.52c.03-.13.14-.24.27-.27.73-.17,1.43-.46,2.07-.86.06-.04.12-.05.19-.05s.13.02.19.05l1.34.8.06-.05c.44-.36.84-.77,1.21-1.21l.05-.06-.8-1.34c-.07-.12-.07-.26,0-.38.4-.64.69-1.34.86-2.07.03-.13.13-.24.27-.27l1.51-.38v-.08c.04-.29.05-.57.05-.85s-.01-.57-.04-.86v-.08s-1.52-.38-1.52-.38c-.13-.03-.24-.14-.27-.27-.17-.74-.46-1.43-.86-2.07-.07-.12-.07-.26,0-.38l.8-1.33-.05-.06c-.36-.44-.76-.84-1.21-1.21l-.06-.05-1.34.8c-.06.03-.12.05-.19.05s-.13-.02-.19-.05c-.64-.4-1.34-.69-2.07-.86-.13-.03-.24-.13-.27-.27l-.38-1.51h-.08c-.28-.04-.57-.05-.85-.05s-.57.01-.85.04h-.07s-.38,1.52-.38,1.52c-.03.13-.14.23-.27.26-.74.18-1.44.46-2.07.86-.06.04-.13.05-.19.05-.06,0-.13-.02-.18-.05l-1.34-.8-.06.05c-.44.37-.85.77-1.21,1.21l-.05.06.8,1.33c.07.12.07.26,0,.38-.4.64-.69,1.34-.86,2.07-.03.13-.13.24-.27.27l-1.51.38v.08c-.04.28-.05.57-.05.85s.02.57.04.85v.08s1.52.38,1.52.38c.13.03.24.14.27.27.17.74.46,1.43.86,2.07.07.12.07.26,0,.38l-.8,1.34.05.06c.36.44.76.84,1.21,1.21l.06.05,1.34-.8c.06-.03.12-.05.19-.05ZM16.73,36.41c0,.22.09.44.25.6.16.16.37.25.6.25h5.33s-.33-.42-.33-.42c-.09-.12-.1-.28-.02-.41l.81-1.36-.03-.05c-.32-.55-.56-1.15-.73-1.76l-.02-.06-1.54-.39c-.15-.04-.25-.16-.27-.31-.12-.85-.12-1.7,0-2.55.02-.15.13-.27.27-.31l1.54-.39.02-.06c.17-.62.41-1.21.73-1.76l.03-.05-.81-1.36c-.08-.13-.07-.29.02-.41.52-.68,1.12-1.29,1.8-1.8.06-.05.14-.07.22-.07.07,0,.13.02.19.05l1.37.81.05-.03c.56-.32,1.15-.56,1.76-.73l.06-.02.39-1.54c.04-.14.16-.25.3-.27.42-.06.85-.09,1.27-.09s.85.03,1.27.09c.15.02.27.13.3.27l.39,1.54.06.02c.62.17,1.21.42,1.76.73l.05.03,1.36-.81c.06-.03.12-.05.19-.05.08,0,.16.03.22.07.68.52,1.29,1.12,1.8,1.8.09.12.1.28.02.41l-.81,1.36.03.05c.32.56.56,1.15.73,1.77l.02.06,1.54.39c.15.04.25.16.27.31.12.85.12,1.7,0,2.55-.02.15-.13.27-.27.31l-1.54.39-.02.06c-.17.62-.41,1.21-.73,1.76v.11s.78,1.31.78,1.31c.08.13.07.29-.02.41-.06.08-.12.16-.19.24l-.15.18h5.33c.47,0,.85-.38.85-.85v-18.55h-26.54v18.55ZM17.58,13.5c-.47,0-.85.38-.85.85v2.77h26.54v-2.77c0-.47-.38-.85-.85-.85h-24.84ZM30,36.83c-.38,0-.76-.04-1.13-.11-1.88-.41-3.38-1.68-4.07-3.41-.69-1.73-.48-3.68.56-5.22,1.04-1.54,2.77-2.46,4.63-2.46,1.86,0,3.6.92,4.64,2.46,1.04,1.54,1.25,3.49.56,5.21-.69,1.72-2.18,2.99-4,3.39-.44.09-.82.13-1.2.13ZM28.32,28.91c-.56.56-.8,1.35-.65,2.13.15.77.67,1.42,1.4,1.73.14.06.22.19.22.34v2.94h.09c.2.04.41.05.61.05s.41-.01.61-.04h.09v-2.95c0-.15.09-.28.22-.34.73-.31,1.25-.96,1.4-1.73.15-.77-.09-1.57-.65-2.13l-.18-.18v2.24c0,.13-.07.25-.18.32l-1.13.65c-.06.03-.12.05-.18.05s-.13-.02-.18-.05l-1.12-.65c-.11-.07-.18-.18-.18-.32v-2.24l-.18.18ZM30,26.36c-2.39,0-4.41,1.71-4.8,4.06-.39,2.36.96,4.63,3.22,5.41l.14.05v-2.54l-.06-.03c-1.04-.57-1.65-1.66-1.61-2.84.05-1.18.75-2.22,1.82-2.71.05-.02.1-.03.15-.03.07,0,.14.02.2.06.11.07.17.18.17.31v2.66l.71.41.76-.37.05-.03v-2.66c0-.12.06-.24.17-.31.06-.04.13-.06.2-.06.05,0,.1.01.15.03,1.08.49,1.78,1.53,1.83,2.71.05,1.18-.57,2.27-1.6,2.84l-.06.03v2.54l.14-.05c2.26-.77,3.61-3.05,3.22-5.4-.39-2.35-2.41-4.06-4.8-4.06ZM25.41,16.34c-.57,0-1.03-.46-1.03-1.03,0-.42.25-.79.63-.95.13-.05.26-.08.39-.08.27,0,.53.11.73.3.3.3.38.74.22,1.12-.16.39-.53.64-.95.64ZM25.41,15.02c-.08,0-.16.03-.21.09-.05.05-.09.13-.09.21,0,.12.07.23.18.28h.02s.09.02.09.02c.08,0,.15-.03.21-.08.08-.09.11-.21.07-.32-.04-.11-.15-.18-.27-.19h0ZM22.59,16.34c-.57,0-1.03-.46-1.03-1.03,0-.42.25-.79.63-.95.13-.05.26-.08.39-.08.27,0,.53.11.73.3.3.29.38.73.22,1.12-.16.39-.53.64-.95.64ZM22.59,15.02c-.08,0-.16.03-.21.09-.05.05-.09.13-.09.21,0,.12.07.23.18.27h.02s.09.02.09.02c.08,0,.15-.03.21-.09.08-.09.11-.21.07-.32-.04-.11-.15-.18-.27-.19h0ZM19.78,16.34c-.57,0-1.03-.46-1.03-1.03,0-.42.25-.79.63-.95.13-.05.26-.08.4-.08.27,0,.53.11.73.3.3.3.38.74.22,1.12-.16.39-.53.63-.95.63ZM19.78,15.02c-.16,0-.3.13-.3.3,0,.12.07.23.18.27h.02s.09.02.09.02c.08,0,.16-.03.21-.09.08-.08.11-.21.06-.32-.04-.11-.15-.18-.27-.18h0ZM32.67,15.68c-.1,0-.19-.04-.26-.11-.07-.07-.11-.16-.11-.26,0-.1.04-.19.11-.26.07-.07.16-.11.26-.11h8.21c.11,0,.2.04.27.1.07.07.11.16.11.26s-.04.19-.11.26c-.07.07-.16.1-.25.1h-8.22Z"/>
  </g>
</svg>