<?xml version="1.0" encoding="UTF-8"?>
<svg id="Layer_2" xmlns="http://www.w3.org/2000/svg" viewBox="0 0 60 60">
  <defs>
    <style>
      .cls-1 {
        fill: #f55b14;
      }

      .cls-2 {
        fill: #fff;
      }
    </style>
  </defs>
  <g id="Layer_1-2" data-name="Layer_1">
    <circle class="cls-1" cx="30" cy="30" r="30"/>
    <path class="cls-2" d="M27.8,37.7c-.8-1-2.01-2.27-3.56-2.37,0,0-.01,0-.02,0h-4.91s-.05,0-.07,0c-1.57.36-2.85,2.34-3.22,3.24-.02.04-.02.08-.02.12v3.57c0,.08.02.16.08.22s.14.09.22.09h.87c.15.86.89,1.51,1.79,1.51s1.64-.65,1.79-1.51h5.73c.15.86.89,1.51,1.79,1.51s1.64-.65,1.79-1.51h1.44c.17,0,.31-.14.31-.31v-2.06c0-.06-.02-.11-.04-.16-.74-1.23-2.53-2.28-3.97-2.35h0ZM18.97,43.47c-.66,0-1.2-.54-1.2-1.2s.54-1.2,1.2-1.2,1.2.54,1.2,1.2-.54,1.2-1.2,1.2ZM28.27,43.47c-.66,0-1.2-.54-1.2-1.2s.54-1.2,1.2-1.2,1.2.54,1.2,1.2-.54,1.2-1.2,1.2ZM31.2,41.96h-1.14c-.15-.86-.89-1.51-1.79-1.51s-1.64.65-1.79,1.51h-5.73c-.15-.86-.89-1.51-1.79-1.51s-1.64.65-1.79,1.51h-.56v-3.21c.45-1.02,1.62-2.53,2.74-2.82h4.86c1.02.07,2.07.81,3.19,2.25.06.07.15.12.24.12,1.21,0,2.87.94,3.55,1.99v1.67ZM20.81,33.65c0,.56.45,1.01,1.01,1.01s1.01-.45,1.01-1.01-.45-1.01-1.01-1.01-1.01.45-1.01,1.01ZM22.22,33.65c0,.22-.18.4-.4.4s-.4-.18-.4-.4.18-.4.4-.4.4.18.4.4ZM23.52,32.49c-.45-.45-1.06-.71-1.7-.71s-1.25.25-1.7.71c-.12.12-.31.12-.43,0s-.12-.31,0-.43c.57-.57,1.33-.88,2.14-.88s1.57.31,2.14.88c.12.12.12.31,0,.43-.06.06-.14.09-.22.09-.08,0-.16-.03-.22-.09h0ZM18.6,31.4c-.12-.12-.12-.31,0-.43,1.78-1.78,4.66-1.78,6.44,0,.12.12.12.31,0,.43-.06.06-.14.09-.22.09s-.16-.03-.22-.09c-1.54-1.54-4.04-1.54-5.57,0-.12.12-.31.12-.43,0h0ZM43.69,21.61h-4.18c.53-1.5.19-3.24-1.01-4.44-.81-.81-1.88-1.25-3.02-1.25s-2.21.44-3.02,1.25c-1.66,1.66-1.66,4.37,0,6.04l2.71,2.71v8.7c0,.17.14.31.31.31h8.2c.17,0,.31-.14.31-.31v-12.71c0-.17-.14-.31-.31-.31h0ZM32.91,17.6c.69-.69,1.61-1.07,2.59-1.07s1.9.38,2.59,1.07c1.43,1.43,1.43,3.75,0,5.17l-2.59,2.59-2.59-2.59c-1.43-1.43-1.43-3.75,0-5.17ZM37.5,24.22l.33-.33h3.86v1.22h-4.19v-.88ZM43.39,34.32h-7.59v-8.4s1.09-1.09,1.09-1.09v.58c0,.17.14.31.31.31h4.8c.17,0,.31-.14.31-.31v-1.83c0-.17-.14-.31-.31-.31h-3.55s.07-.06.07-.06c.3-.3.54-.63.74-.99h4.14v12.1ZM41.25,29.02h-1.03v-2.11c0-.14-.09-.26-.23-.3s-.28.02-.34.14l-1.97,3.49c-.05.1-.05.21,0,.31.05.09.16.15.26.15h1.03v2.11c0,.14.09.26.23.3.03,0,.05.01.08.01.11,0,.21-.06.27-.16l1.97-3.49c.05-.1.05-.21,0-.31-.05-.1-.16-.15-.26-.15h0ZM39.58,31.65v-1.25c0-.17-.14-.31-.31-.31h-.81l1.14-2.02v1.25c0,.17.14.31.31.31h.81l-1.14,2.02ZM37.52,20.19c0-1.12-.91-2.03-2.03-2.03s-2.03.91-2.03,2.03.91,2.03,2.03,2.03,2.03-.91,2.03-2.03ZM34.07,20.19c0-.78.64-1.42,1.42-1.42s1.42.64,1.42,1.42-.64,1.42-1.42,1.42-1.42-.64-1.42-1.42ZM21.52,28.42v-8.14c0-.17.14-.31.31-.31h7.82c.17,0,.31.14.31.31s-.14.31-.31.31h-7.51v7.84c0,.17-.14.31-.31.31s-.31-.14-.31-.31h0Z"/>
  </g>
</svg>