<?xml version="1.0" encoding="UTF-8"?>
<svg id="Layer_2" xmlns="http://www.w3.org/2000/svg" viewBox="0 0 60 60">
  <defs>
    <style>
      .cls-1 {
        fill: #f55b14;
      }

      .cls-2 {
        fill: #fff;
        fill-rule: evenodd;
      }
    </style>
  </defs>
  <g id="Layer_1-2" data-name="Layer_1">
    <circle class="cls-1" cx="30" cy="30" r="30"/>
    <path class="cls-2" d="M40.84,24.82c.11.18.21.37.28.58.11.32.18.67.18,1.02v2.35c.54.02,1.03.28,1.39.7.35.42.57.99.57,1.62v4.48h.38c.2,0,.37.16.37.37v4.89c0,.2-.16.37-.37.37h-.38v4.48c0,.63-.22,1.2-.57,1.62h0c-.37.44-.88.71-1.44.71h-7.43s-15.04,0-15.04,0c-.77,0-1.47-.35-1.98-.92-.49-.56-.8-1.32-.8-2.16v-18.48c0-.85.35-1.62.91-2.18.56-.56,1.33-.91,2.18-.91h.86s.01-.06.02-.1c.09-.43.35-.84.75-1.1.01-.01.03-.02.04-.03l15.27-9.82c.41-.26.89-.34,1.33-.24.44.1.85.36,1.11.77l.84,1.31.59.91,3.75,5.83s.02.03.03.04c.25.4.32.88.22,1.31-.09.43-.35.84-.75,1.1-.01.01-.03.02-.04.03l-2.27,1.46ZM27.57,25.09l1.58-1.02-.11-.17-1.58,1.02.11.17ZM29.57,24.67c.16-.1.27-.26.3-.44.04-.17,0-.36-.09-.52l-.15-.24c-.1-.16-.26-.27-.44-.3-.17-.04-.36,0-.52.09l-1.64,1.06c-.16.1-.27.26-.3.44-.04.17,0,.36.09.52l.15.24c.1.16.26.27.44.3.17.04.36,0,.52-.09l1.64-1.06ZM24.45,27.09l1.58-1.02-.11-.17-1.58,1.02.11.17ZM26.46,26.67c.16-.1.27-.26.3-.44.04-.17,0-.36-.09-.52l-.15-.24c-.1-.16-.26-.27-.44-.3-.17-.04-.36,0-.52.09-.54.36-1.1.7-1.64,1.06-.16.1-.27.26-.3.44-.04.17,0,.36.09.52l.15.24c.1.16.26.27.44.3.17.04.36,0,.52-.09l1.64-1.06ZM22.06,26.09l17.04-10.96-.12-.19-.07-.11-17.04,10.96.19.3ZM39.49,15.75l-17.03,10.96,1.33,2.07h9.56l9.4-6.05c.24-.15.39-.39.45-.65.06-.26.01-.54-.14-.78l-3.56-5.54ZM21.64,26.79h0s-.59-.91-.59-.91l-.83-1.29s-.02-.03-.03-.04c-.09-.15-.16-.31-.21-.48h-.9c-.65,0-1.23.27-1.66.69s-.69,1.01-.69,1.66h0c0,.65.27,1.24.69,1.66s1.02.69,1.66.69h3.82l-1.27-1.98ZM21.47,25.18l17.04-10.96-.64-1c-.15-.24-.39-.39-.65-.45-.26-.06-.54-.01-.78.14l-15.29,9.83c-.24.15-.39.39-.45.65-.02.09-.03.18-.02.27,0,0,0,.02,0,.03.01.17.06.33.16.48l.64,1ZM38.38,23.71l3.17-2.04s.03-.03.03-.05c0-.02,0-.04-.01-.06l-.21-.32s-.03-.03-.05-.03c-.02,0-.04,0-.06.01l-3.17,2.04s-.03.03-.03.05c0,.02,0,.04.01.06l.21.32s.03.03.05.03c.02,0,.04,0,.06-.01ZM41.95,22.29c.19-.12.31-.31.36-.51.04-.2.01-.42-.11-.61l-.21-.32c-.12-.19-.31-.31-.51-.36-.2-.04-.42-.01-.61.11l-3.17,2.04c-.19.12-.31.31-.36.51-.04.2-.01.42.11.61l.21.32c.12.19.31.31.51.36.2.04.42.01.61-.11l3.17-2.04ZM34.69,28.77h5.87v-2.35c0-.27-.05-.54-.13-.78-.05-.15-.12-.29-.2-.43l-5.53,3.56ZM23.59,32.84c-.22,0-.42.09-.56.23-.14.14-.23.34-.23.56s.09.42.23.56c.14.14.34.23.56.23s.42-.09.56-.23c.14-.14.23-.34.23-.56s-.09-.42-.23-.56c-.14-.14-.34-.23-.56-.23ZM22.51,32.55c.28-.28.66-.45,1.08-.45s.8.17,1.08.45.45.66.45,1.08-.17.8-.45,1.08c-.28.28-.66.45-1.08.45-.39,0-.74-.14-1.01-.38l-.74.51c-.06.05-.14.07-.22.07h-4.89v1.73h5.43l1.33-.92c.06-.05.14-.07.22-.07h2.21c.07-.27.21-.52.4-.71.28-.28.66-.45,1.08-.45s.8.17,1.08.45c.28.28.45.66.45,1.08s-.17.8-.45,1.08c-.28.28-.66.45-1.08.45s-.8-.17-1.08-.45c-.19-.19-.33-.44-.4-.71h-2.1l-1.33.92c-.06.05-.14.07-.22.07h-5.54v1.52h6.9c.07-.27.21-.52.4-.71.28-.28.66-.45,1.08-.45s.8.17,1.08.45c.28.28.45.66.45,1.08s-.17.8-.45,1.08c-.28.28-.66.45-1.08.45s-.8-.17-1.08-.45c-.19-.19-.33-.44-.4-.71h-6.9v1.46h4.69c.08,0,.16.03.22.07l.74.51c.27-.24.62-.38,1.01-.38.42,0,.8.17,1.08.45s.45.66.45,1.08-.17.8-.45,1.08c-.28.28-.66.45-1.08.45s-.8-.17-1.08-.45c-.28-.28-.45-.66-.45-1.08,0-.19.03-.37.1-.54l-.66-.46h-4.58v2.63c0,.66.24,1.25.61,1.68.37.42.87.67,1.43.67h22.46c.34,0,.65-.17.88-.44h0s0,0,0,0c.24-.29.39-.7.39-1.15v-4.47h-4.61c-.77,0-1.48-.32-1.99-.82-.51-.51-.83-1.21-.83-1.99s.32-1.48.83-1.99c.51-.51,1.21-.83,1.99-.83h4.61v-4.48c0-.45-.15-.85-.4-1.15-.23-.27-.54-.44-.88-.44h-22.15c-.85,0-1.62-.34-2.18-.91-.06-.06-.12-.12-.17-.19v6.22h4.77l.66-.46c-.06-.17-.1-.35-.1-.54,0-.42.17-.8.45-1.08h0ZM27.41,35.68c-.22,0-.42.09-.56.23-.14.14-.23.34-.23.56s.09.42.23.56c.14.14.34.23.56.23s.42-.09.56-.23c.14-.14.23-.34.23-.56s-.09-.42-.23-.56c-.14-.14-.34-.23-.56-.23ZM25.12,38.93c-.22,0-.42.09-.56.23-.14.14-.23.34-.23.56s.09.42.23.56c.14.14.34.23.56.23s.42-.09.56-.23c.14-.14.23-.34.23-.56s-.09-.42-.23-.56c-.14-.14-.34-.23-.56-.23ZM23.4,42.49c-.22,0-.42.09-.56.23-.14.14-.23.34-.23.56s.09.42.23.56c.14.14.34.23.56.23s.42-.09.56-.23c.14-.14.23-.34.23-.56s-.09-.42-.23-.56c-.14-.14-.34-.23-.56-.23ZM37.95,37.18c-.32,0-.61.14-.82.36-.2.22-.33.51-.33.84s.13.62.33.84c.21.22.5.36.82.36s.61-.14.82-.36c.2-.22.33-.51.33-.84s-.13-.62-.33-.84c-.21-.22-.5-.36-.82-.36ZM38.23,38.04c-.07-.08-.18-.13-.29-.13s-.21.05-.29.13c-.08.09-.13.21-.13.34s.05.25.13.34c.07.08.18.13.29.13s.21-.05.29-.13c.08-.09.13-.21.13-.34s-.05-.25-.13-.34ZM43.26,36.3h-5.36c-.57,0-1.09.23-1.47.61-.38.38-.61.9-.61,1.47s.23,1.09.61,1.47c.38.38.9.61,1.47.61h5.36v-4.15Z"/>
  </g>
</svg>