<svg xmlns="http://www.w3.org/2000/svg" xmlns:xlink="http://www.w3.org/1999/xlink" viewBox="0 0 117 44"><defs><style>.cls-1{fill:none;}.cls-2{fill:#092f5c;}.cls-3{clip-path:url(#clip-path);}.cls-4{fill:#fff;}.cls-5{clip-path:url(#clip-path-2);}</style><clipPath id="clip-path"><rect class="cls-1" x="74.75" y="6" width="32" height="32"/></clipPath><clipPath id="clip-path-2"><rect class="cls-1" x="46.25" y="10" width="24" height="24"/></clipPath></defs><title>angular</title><g id="Layer_2" data-name="Layer 2"><g id="Layer_6" data-name="Layer 6"><g id="Layer_3" data-name="Layer 3"><path class="cls-2" d="M22,0H95a22,22,0,0,1,22,22h0A22,22,0,0,1,95,44H22A22,22,0,0,1,0,22H0A22,22,0,0,1,22,0Z"/></g><g id="layer"><g id="angular"><g class="cls-3"><path class="cls-4" d="M90.82,37.34h-.13c-.29-.18-.58-.39-.88-.55q-5.31-3-10.62-5.88a.89.89,0,0,1-.57-.78c-.24-2.32-.52-4.64-.79-6.95q-.63-5.41-1.28-10.82a.63.63,0,0,1,.43-.78l.08,0c2.39-.82,4.77-1.68,7.19-2.56,2.17-.78,4.33-1.58,6.49-2.37h.13l.29.14,12.46,4.45c.45.17,1.11.21,1.3.53s0,1,0,1.47v.59c-.29,2.49-.59,5-.88,7.46q-.51,4.43-1,8.84a1.22,1.22,0,0,1-.5.73l-5.47,3ZM90.75,10l-9,20.11h2.88a.65.65,0,0,0,.73-.5c.45-1.19.92-2.37,1.42-3.54.08-.19.34-.44.52-.44h7.17c.54,1.33,1.06,2.66,1.61,4,.07.18.23.47.36.47h3.22Z"/><path class="cls-4" d="M90.76,16.63l2.55,6.13H88.25Z"/></g></g><g id="plus"><g class="cls-5"><path class="cls-4" d="M58.25,13a1,1,0,0,0-1,1v7h-7a1,1,0,0,0,0,2h7v7a1,1,0,0,0,2,0V23h7a1,1,0,0,0,0-2h-7V14A1,1,0,0,0,58.25,13Z"/></g></g><path class="cls-4" d="M19.3,19.68H18.09l-.67,3.42H18.5a2.67,2.67,0,0,0,1.61-.4,2.18,2.18,0,0,0,.71-1.36,1.52,1.52,0,0,0-.16-1.28A1.84,1.84,0,0,0,19.3,19.68Zm6.45-5.83c-8.56,0-15.5,3.65-15.5,8.15s6.94,8.15,15.5,8.15S41.25,26.5,41.25,22,34.31,13.85,25.75,13.85Zm-4.21,9.62a3.07,3.07,0,0,1-1.19.71,5.48,5.48,0,0,1-1.66.21H17.17l-.42,2.18H15l1.59-8.18H20a2.79,2.79,0,0,1,2.25.82,2.51,2.51,0,0,1,.43,2.26,3.58,3.58,0,0,1-.4,1.09A3.53,3.53,0,0,1,21.54,23.47Zm5.2.92.7-3.61a1,1,0,0,0-.09-.84,1.23,1.23,0,0,0-.89-.23H25.05l-.91,4.69H22.38L24,16.22h1.77l-.42,2.18h1.57a3.16,3.16,0,0,1,2.05.51,1.71,1.71,0,0,1,.32,1.68l-.74,3.8Zm9.81-2.92a3.51,3.51,0,0,1-1.12,2,3.24,3.24,0,0,1-1.18.71,5.82,5.82,0,0,1-1.66.21H31.06l-.42,2.18H28.86l1.59-8.17h3.42a2.81,2.81,0,0,1,2.25.81A2.51,2.51,0,0,1,36.55,21.47Zm-3.3-1.79H32l-.67,3.42H32.4a2.66,2.66,0,0,0,1.6-.4,2.11,2.11,0,0,0,.71-1.36,1.52,1.52,0,0,0-.16-1.28A1.79,1.79,0,0,0,33.25,19.68Z"/></g></g></g></svg>