<svg xmlns="http://www.w3.org/2000/svg" xmlns:xlink="http://www.w3.org/1999/xlink" viewBox="0 0 117 44"><defs><style>.cls-1{fill:none;}.cls-2{fill:#092f5c;}.cls-3{fill:#fff;}.cls-4{clip-path:url(#clip-path);}</style><clipPath id="clip-path"><rect class="cls-1" x="48.04" y="9.98" width="24" height="24"/></clipPath></defs><title>code-ignitor</title><g id="Layer_2" data-name="Layer 2"><g id="Layer_4" data-name="Layer 4"><g id="Layer_3" data-name="Layer 3"><path class="cls-2" d="M22,0H95a22,22,0,0,1,22,22h0A22,22,0,0,1,95,44H22A22,22,0,0,1,0,22H0A22,22,0,0,1,22,0Z"/></g><g id="layer"><path id="php" class="cls-3" d="M21.09,19.66H19.88l-.67,3.42h1.08a2.67,2.67,0,0,0,1.61-.4,2.14,2.14,0,0,0,.71-1.36A1.45,1.45,0,0,0,22.45,20,1.84,1.84,0,0,0,21.09,19.66Zm6.45-5.83C19,13.83,12,17.48,12,22s6.94,8.15,15.5,8.15S43,26.48,43,22,36.1,13.83,27.54,13.83Zm-4.21,9.62a3,3,0,0,1-1.19.71,5.48,5.48,0,0,1-1.66.21H19l-.42,2.18H16.76l1.59-8.18h3.42a2.77,2.77,0,0,1,2.25.82,2.51,2.51,0,0,1,.43,2.26,3.58,3.58,0,0,1-.4,1.09A3.33,3.33,0,0,1,23.33,23.45Zm5.2.92.7-3.61a1,1,0,0,0-.09-.84,1.22,1.22,0,0,0-.89-.23H26.84l-.91,4.69H24.17l1.58-8.18h1.77l-.42,2.18h1.57a3.16,3.16,0,0,1,2,.51A1.71,1.71,0,0,1,31,20.57l-.74,3.8Zm9.81-2.92a3.51,3.51,0,0,1-1.12,2,3.16,3.16,0,0,1-1.18.71,5.82,5.82,0,0,1-1.66.21H32.85l-.42,2.18H30.65l1.59-8.17h3.42a2.8,2.8,0,0,1,2.25.81A2.51,2.51,0,0,1,38.34,21.45ZM35,19.66H33.77l-.67,3.42h1.09a2.63,2.63,0,0,0,1.6-.4,2.11,2.11,0,0,0,.71-1.36A1.45,1.45,0,0,0,36.34,20,1.78,1.78,0,0,0,35,19.66Z"/><g id="plus"><g class="cls-4"><path class="cls-3" d="M60,13a1,1,0,0,0-1,1v7H52a1,1,0,0,0,0,2h7v7a1,1,0,0,0,2,0V23h7a1,1,0,0,0,0-2H61V14A1,1,0,0,0,60,13Z"/></g></g><path id="codeIgniter" class="cls-3" d="M91.33,6.48c1.14,1.84-.36,4.27-1.56,5.63s-2.57,2.42-3.85,3.62a33.08,33.08,0,0,0-3.78,4.07l-.1.08a12.33,12.33,0,0,0-2.91,8,13.52,13.52,0,0,0,.3,2.69v-.08a10.29,10.29,0,0,0,7.9,7h.07a6,6,0,0,1-3.61-4.91h0A7,7,0,0,1,87,27.08h0a2.65,2.65,0,0,0-.19,1,2.56,2.56,0,0,0,.39,1.35h0A2.14,2.14,0,1,0,90.3,26.5h0a4.82,4.82,0,0,1-1.83-3.77v-.62h0a4.66,4.66,0,0,1,1.44-2.3h0c-.53,1.39,1,2.76,2,3.45a52.86,52.86,0,0,1,5.31,3.56l-.12-.09a6.77,6.77,0,0,1,2.65,5.37v.37h0a6.53,6.53,0,0,1-4.41,5.07h0c4.68-1,9.52-4.66,9.61-9.85.12-3.92-2.46-7.39-6.66-9.54a1.13,1.13,0,0,1,.13.54,1.1,1.1,0,0,1-.21.66h0a2.24,2.24,0,0,1-1.91,1.06,2.32,2.32,0,0,1-1.75-.81h0c-1.56-2,0-4.15.26-6.27V13a7.87,7.87,0,0,0-3.43-6.52h0Z"/></g></g></g></svg>