<svg xmlns="http://www.w3.org/2000/svg" xmlns:xlink="http://www.w3.org/1999/xlink" viewBox="0 0 117 44"><defs><style>.cls-1{fill:none;}.cls-2{fill:#092f5c;}.cls-3{fill:#fff;}.cls-4{clip-path:url(#clip-path);}.cls-5{clip-path:url(#clip-path-2);}</style><clipPath id="clip-path"><rect class="cls-1" x="46.25" y="10" width="24" height="24"/></clipPath><clipPath id="clip-path-2"><rect class="cls-1" x="74.75" y="6" width="32" height="32"/></clipPath></defs><title>laravel</title><g id="Layer_2" data-name="Layer 2"><g id="Layer_2-2" data-name="Layer 2"><g id="Layer_3" data-name="Layer 3"><path class="cls-2" d="M22,0H95a22,22,0,0,1,22,22h0A22,22,0,0,1,95,44H22A22,22,0,0,1,0,22H0A22,22,0,0,1,22,0Z"/></g><g id="layer"><path id="php" class="cls-3" d="M19.3,19.68H18.09l-.67,3.42H18.5a2.67,2.67,0,0,0,1.61-.4,2.18,2.18,0,0,0,.71-1.36,1.52,1.52,0,0,0-.16-1.28A1.84,1.84,0,0,0,19.3,19.68Zm6.45-5.83c-8.56,0-15.5,3.65-15.5,8.15s6.94,8.15,15.5,8.15S41.25,26.5,41.25,22,34.31,13.85,25.75,13.85Zm-4.21,9.62a3.07,3.07,0,0,1-1.19.71,5.48,5.48,0,0,1-1.66.21H17.17l-.42,2.18H15l1.59-8.18H20a2.79,2.79,0,0,1,2.25.82,2.51,2.51,0,0,1,.43,2.26,3.58,3.58,0,0,1-.4,1.09A3.53,3.53,0,0,1,21.54,23.47Zm5.2.92.7-3.61a1,1,0,0,0-.09-.84,1.23,1.23,0,0,0-.89-.23H25.05l-.91,4.69H22.38L24,16.22h1.77l-.42,2.18h1.57a3.16,3.16,0,0,1,2.05.51,1.71,1.71,0,0,1,.32,1.68l-.74,3.8Zm9.81-2.92a3.51,3.51,0,0,1-1.12,2,3.24,3.24,0,0,1-1.18.71,5.82,5.82,0,0,1-1.66.21H31.06l-.42,2.18H28.86l1.59-8.17h3.42a2.81,2.81,0,0,1,2.25.81A2.51,2.51,0,0,1,36.55,21.47Zm-3.3-1.79H32l-.67,3.42H32.4a2.66,2.66,0,0,0,1.6-.4,2.11,2.11,0,0,0,.71-1.36,1.52,1.52,0,0,0-.16-1.28A1.79,1.79,0,0,0,33.25,19.68Z"/><g id="plus"><g class="cls-4"><path class="cls-3" d="M58.25,13a1,1,0,0,0-1,1v7h-7a1,1,0,0,0,0,2h7v7a1,1,0,0,0,2,0V23h7a1,1,0,0,0,0-2h-7V14A1,1,0,0,0,58.25,13Z"/></g></g><g id="laravel"><g class="cls-5"><path class="cls-3" d="M87.74,29.77l11-6.11-5-2.81L82.73,27ZM99.25,17.26l-5-2.8V20l5,2.8Zm.5-6.45-5,2.8,5,2.8,5-2.8ZM84.33,25l2.92-1.63V11.14l-5,2.86V26.18ZM81.72,7.49l-5,2.81,5,2.8,5-2.8Zm-5.53,3.65V30.05l11,6.18V30.62l-5.77-3.17h0V27.4h0v0h0v-.06h0v-.05h0a.09.09,0,0,1,0-.07h0V14l-2.91-1.63ZM99.25,30.05V24.5l-11,6.12v5.6Zm6-10V14.46l-5,2.8v5.55Zm1-6.53v.13h0v6.68a.48.48,0,0,1-.25.42h0l-5.75,3.19v6.39a.48.48,0,0,1-.25.42h0L88,37.48h-.44l-12-6.73a.5.5,0,0,1-.25-.43h0v-20a.29.29,0,0,1,0-.13h0v-.08h0L75.25,10h0l6-3.37a.55.55,0,0,1,.5,0h0l6,3.37h.11v.05h0v.07h0v.12h0V22.81L93.25,20V13.6h0a.29.29,0,0,1,0-.13h0v-.08h0v-.05h.06l6-3.37a.55.55,0,0,1,.5,0h0l6,3.37h.06v.05h0v.08h0Z"/></g></g></g></g></g></svg>