<svg xmlns="http://www.w3.org/2000/svg" xmlns:xlink="http://www.w3.org/1999/xlink" viewBox="0 0 117 44"><defs><style>.cls-1{fill:none;}.cls-2{fill:#092f5c;}.cls-3{fill:#fff;}.cls-4{clip-path:url(#clip-path);}</style><clipPath id="clip-path"><rect class="cls-1" x="47" y="10" width="24" height="24"/></clipPath></defs><title>react-js</title><g id="Layer_2" data-name="Layer 2"><g id="Layer_5" data-name="Layer 5"><g id="Layer_3" data-name="Layer 3"><path class="cls-2" d="M22,0H95a22,22,0,0,1,22,22h0A22,22,0,0,1,95,44H22A22,22,0,0,1,0,22H0A22,22,0,0,1,22,0Z"/></g><g id="layer"><path id="php" class="cls-3" d="M20.05,19.68H18.84l-.67,3.42h1.08a2.67,2.67,0,0,0,1.61-.4,2.18,2.18,0,0,0,.71-1.36,1.52,1.52,0,0,0-.16-1.28A1.84,1.84,0,0,0,20.05,19.68Zm6.45-5.83C17.94,13.85,11,17.5,11,22s6.94,8.15,15.5,8.15S42,26.5,42,22,35.06,13.85,26.5,13.85Zm-4.21,9.62a3.07,3.07,0,0,1-1.19.71,5.48,5.48,0,0,1-1.66.21H17.92l-.42,2.18H15.72l1.59-8.18h3.42a2.79,2.79,0,0,1,2.25.82,2.51,2.51,0,0,1,.43,2.26,3.58,3.58,0,0,1-.4,1.09A3.53,3.53,0,0,1,22.29,23.47Zm5.2.92.7-3.61a1,1,0,0,0-.09-.84,1.23,1.23,0,0,0-.89-.23H25.8l-.91,4.69H23.13l1.58-8.18h1.77l-.42,2.18h1.57a3.16,3.16,0,0,1,2.05.51A1.71,1.71,0,0,1,30,20.59l-.74,3.8Zm9.81-2.92a3.51,3.51,0,0,1-1.12,2,3.24,3.24,0,0,1-1.18.71,5.82,5.82,0,0,1-1.66.21H31.81l-.42,2.18H29.61L31.2,18.4h3.42a2.81,2.81,0,0,1,2.25.81A2.51,2.51,0,0,1,37.3,21.47ZM34,19.68H32.73l-.67,3.42h1.09a2.66,2.66,0,0,0,1.6-.4,2.11,2.11,0,0,0,.71-1.36,1.52,1.52,0,0,0-.16-1.28A1.79,1.79,0,0,0,34,19.68Z"/><g id="plus"><g class="cls-4"><path class="cls-3" d="M59,13a1,1,0,0,0-1,1v7H51a1,1,0,0,0,0,2h7v7a1,1,0,0,0,2,0V23h7a1,1,0,0,0,0-2H60V14A1,1,0,0,0,59,13Z"/></g></g><g id="react_JS" data-name="react JS"><path class="cls-3" d="M106,22c0-1.92-2.41-3.74-6.09-4.87.85-3.76.47-6.75-1.2-7.71a2.54,2.54,0,0,0-1.32-.33h0c-1.62,0-3.75,1.16-5.9,3.17-2.15-2-4.28-3.15-5.91-3.15h0a2.6,2.6,0,0,0-1.33.33c-1.66,1-2,3.94-1.18,7.69C79.39,18.27,77,20.09,77,22s2.41,3.74,6.09,4.87c-.85,3.76-.47,6.75,1.2,7.71a2.55,2.55,0,0,0,1.33.33c1.62,0,3.75-1.16,5.9-3.17,2.16,2,4.28,3.15,5.91,3.15a2.72,2.72,0,0,0,1.34-.33c1.66-1,2-3.94,1.17-7.69C103.61,25.74,106,23.92,106,22ZM97.39,10.41h0a1.3,1.3,0,0,1,.67.16c.81.46,1.15,2.21.88,4.47a17.1,17.1,0,0,1-.3,1.74,28,28,0,0,0-3.75-.65,30.27,30.27,0,0,0-2.46-2.95C94.35,11.39,96.16,10.41,97.39,10.41ZM86.26,25c.28.47.56.93.85,1.38-.84-.12-1.65-.28-2.42-.46.22-.77.49-1.55.8-2.34C85.73,24.08,86,24.56,86.26,25Zm-1.59-7c.78-.18,1.59-.34,2.44-.47-.29.46-.58.93-.85,1.4s-.53,1-.77,1.42a20.1,20.1,0,0,1-.82-2.29Zm1.51,4c.37-.79.78-1.58,1.22-2.36s.94-1.55,1.43-2.26c.88-.07,1.77-.11,2.67-.11a21.28,21.28,0,0,1,2.66.11,23.79,23.79,0,0,1,1.43,2.24c.43.79.86,1.56,1.23,2.36-.37.79-.78,1.58-1.22,2.36s-.94,1.55-1.43,2.25q-1.32.12-2.67.12a21.36,21.36,0,0,1-2.66-.11,22.73,22.73,0,0,1-1.43-2.25C87,23.55,86.55,22.81,86.18,22Zm10.56,3c.27-.47.52-1,.77-1.42.31.79.59,1.58.81,2.35-.77.19-1.59.35-2.43.47A14,14,0,0,0,96.74,25Zm0-6c-.27-.48-.56-.94-.85-1.39.84.13,1.65.28,2.42.47-.21.76-.49,1.55-.79,2.33-.26-.49-.52-1-.79-1.41Zm-3.6-3H89.87a24.43,24.43,0,0,1,1.62-1.89c.55.59,1.09,1.22,1.64,1.89ZM84.9,10.59a1.33,1.33,0,0,1,.68-.15h0c1.23,0,3,1,5,2.75a26.53,26.53,0,0,0-2.44,3,28.15,28.15,0,0,0-3.76.65A17,17,0,0,1,84,15.07C83.76,12.81,84.11,11.06,84.9,10.59Zm-1.49,15c-.58-.19-1.14-.39-1.65-.61-2.09-.89-3.45-2.06-3.45-3s1.36-2.1,3.45-3a16,16,0,0,1,1.64-.59A27.4,27.4,0,0,0,84.73,22a25.88,25.88,0,0,0-1.32,3.6Zm2.2,8a1.44,1.44,0,0,1-.67-.16c-.81-.46-1.15-2.22-.88-4.47a16.63,16.63,0,0,1,.3-1.74,29.67,29.67,0,0,0,3.75.64,28.22,28.22,0,0,0,2.46,3c-1.92,1.76-3.73,2.74-5,2.74Zm5.9-3.71A22.52,22.52,0,0,1,89.87,28h3.27a20.83,20.83,0,0,1-1.63,1.89Zm6.59,3.53a1.33,1.33,0,0,1-.68.15c-1.23,0-3-1-5-2.75a27.48,27.48,0,0,0,2.44-2.95,28.15,28.15,0,0,0,3.76-.65A17.23,17.23,0,0,1,99,28.94c.24,2.25-.11,4.06-.9,4.48ZM101.24,25c-.51.22-1.07.42-1.64.6A28.76,28.76,0,0,0,98.27,22a28.38,28.38,0,0,0,1.31-3.58,16.44,16.44,0,0,1,1.66.6c2.09.89,3.45,2.06,3.45,3S103.33,24.11,101.24,25Z"/><path class="cls-3" d="M91.49,24.7a2.7,2.7,0,1,0-2.7-2.7h0A2.7,2.7,0,0,0,91.49,24.7Z"/></g></g></g></g></svg>