<svg xmlns="http://www.w3.org/2000/svg" xmlns:xlink="http://www.w3.org/1999/xlink" viewBox="0 0 117 44"><defs><style>.cls-1{fill:none;}.cls-2{fill:#092f5c;}.cls-3{fill:#fff;}.cls-4{clip-path:url(#clip-path);}</style><clipPath id="clip-path"><rect class="cls-1" x="47" y="10" width="24" height="24"/></clipPath></defs><title>symfony</title><g id="Layer_2" data-name="Layer 2"><g id="Layer_8" data-name="Layer 8"><g id="Layer_3" data-name="Layer 3"><path class="cls-2" d="M22,0H95a22,22,0,0,1,22,22h0A22,22,0,0,1,95,44H22A22,22,0,0,1,0,22H0A22,22,0,0,1,22,0Z"/></g><g id="layer"><path id="php" class="cls-3" d="M20.05,19.68H18.84l-.67,3.42h1.08a2.67,2.67,0,0,0,1.61-.4,2.18,2.18,0,0,0,.71-1.36,1.52,1.52,0,0,0-.16-1.28A1.84,1.84,0,0,0,20.05,19.68Zm6.45-5.83C17.94,13.85,11,17.5,11,22s6.94,8.15,15.5,8.15S42,26.5,42,22,35.06,13.85,26.5,13.85Zm-4.21,9.62a3.07,3.07,0,0,1-1.19.71,5.48,5.48,0,0,1-1.66.21H17.92l-.42,2.18H15.72l1.59-8.18h3.42a2.79,2.79,0,0,1,2.25.82,2.51,2.51,0,0,1,.43,2.26,3.58,3.58,0,0,1-.4,1.09A3.53,3.53,0,0,1,22.29,23.47Zm5.2.92.7-3.61a1,1,0,0,0-.09-.84,1.23,1.23,0,0,0-.89-.23H25.8l-.91,4.69H23.13l1.58-8.18h1.77l-.42,2.18h1.57a3.16,3.16,0,0,1,2.05.51A1.71,1.71,0,0,1,30,20.59l-.74,3.8Zm9.81-2.92a3.51,3.51,0,0,1-1.12,2,3.24,3.24,0,0,1-1.18.71,5.82,5.82,0,0,1-1.66.21H31.81l-.42,2.18H29.61L31.2,18.4h3.42a2.81,2.81,0,0,1,2.25.81A2.51,2.51,0,0,1,37.3,21.47ZM34,19.68H32.73l-.67,3.42h1.09a2.66,2.66,0,0,0,1.6-.4,2.11,2.11,0,0,0,.71-1.36,1.52,1.52,0,0,0-.16-1.28A1.79,1.79,0,0,0,34,19.68Z"/><g id="plus"><g class="cls-4"><path class="cls-3" d="M59,13a1,1,0,0,0-1,1v7H51a1,1,0,0,0,0,2h7v7a1,1,0,0,0,2,0V23h7a1,1,0,0,0,0-2H60V14A1,1,0,0,0,59,13Z"/></g></g><g id="symfony"><path class="cls-3" d="M91.5,7.5A14.5,14.5,0,1,0,106,22,14.5,14.5,0,0,0,91.5,7.5Zm7.82,8.39a1,1,0,0,1-1.15-.83.91.91,0,0,1,0-.17,1,1,0,0,1,.21-.65c.15-.29.18-.33.18-.46,0-.38-.6-.39-.76-.39-2.17.07-2.75,3-3.21,5.4l-.23,1.26A3.92,3.92,0,0,0,97,19.71c.7-.46-.2-.92-.08-1.44a1,1,0,0,1,1.9.3h0c0,.93-1.25,2.2-3.71,2.15a3.69,3.69,0,0,1-.83-.06l-.46,2.56a14.73,14.73,0,0,1-2.94,6.89,5.85,5.85,0,0,1-4.19,2.36c-1.44.05-2.39-.72-2.43-1.75a1.53,1.53,0,0,1,1.42-1.55A1.23,1.23,0,0,1,87,30.32v0a.79.79,0,0,1-.46.82c-.12.1-.31.2-.3.42a.35.35,0,0,0,.4.31h0a2.23,2.23,0,0,0,1.3-.52c1.4-1.17,1.94-3.21,2.65-6.92l.15-.9c.24-1.31.55-2.62.92-3.9-1-.74-1.59-1.66-2.92-2a1.61,1.61,0,0,0-1.86.46,1.35,1.35,0,0,0,.14,1.8l.74.81c.91,1.05,1.4,1.87,1.22,3-.3,1.75-2.38,3.09-4.85,2.34-2.1-.65-2.5-2.14-2.24-3a1,1,0,0,1,1.21-.74l.14.05a1.18,1.18,0,0,1,.67,1.48,2.49,2.49,0,0,1-.11.29c-.09.15-.18.31-.26.47-.13.44.47.76.89.89a1.64,1.64,0,0,0,2.09-1,1.34,1.34,0,0,0-.41-1.37l-.89-1a3.43,3.43,0,0,1-.9-3.14,3.1,3.1,0,0,1,1-1.52,3.71,3.71,0,0,1,3.4-.61c1.46.41,2.16,1.38,3.07,2.12a12.42,12.42,0,0,1,2.27-4.18,5.27,5.27,0,0,1,3.72-2c1.47,0,2.58.62,2.62,1.68a1.25,1.25,0,0,1-1.06,1.4Z"/></g></g></g></g></svg>