<svg xmlns="http://www.w3.org/2000/svg" xmlns:xlink="http://www.w3.org/1999/xlink" viewBox="0 0 117 44"><defs><style>.cls-1{fill:none;}.cls-2{fill:#092f5c;}.cls-3{fill:#fff;}.cls-4{clip-path:url(#clip-path);}</style><clipPath id="clip-path"><rect class="cls-1" x="46" y="10" width="24" height="24"/></clipPath></defs><title>vue</title><g id="Layer_2" data-name="Layer 2"><g id="Layer_1-2" data-name="Layer 1"><g id="Layer_3" data-name="Layer 3"><path class="cls-2" d="M22,0H95a22,22,0,0,1,22,22h0A22,22,0,0,1,95,44H22A22,22,0,0,1,0,22H0A22,22,0,0,1,22,0Z"/></g><g id="layer"><path id="php" class="cls-3" d="M19.05,19.68H17.84l-.67,3.42h1.08a2.67,2.67,0,0,0,1.61-.4,2.18,2.18,0,0,0,.71-1.36,1.52,1.52,0,0,0-.16-1.28A1.84,1.84,0,0,0,19.05,19.68Zm6.45-5.83C16.94,13.85,10,17.5,10,22s6.94,8.15,15.5,8.15S41,26.5,41,22,34.06,13.85,25.5,13.85Zm-4.21,9.62a3.07,3.07,0,0,1-1.19.71,5.48,5.48,0,0,1-1.66.21H16.92l-.42,2.18H14.72l1.59-8.18h3.42a2.79,2.79,0,0,1,2.25.82,2.51,2.51,0,0,1,.43,2.26,3.58,3.58,0,0,1-.4,1.09A3.53,3.53,0,0,1,21.29,23.47Zm5.2.92.7-3.61a1,1,0,0,0-.09-.84,1.23,1.23,0,0,0-.89-.23H24.8l-.91,4.69H22.13l1.58-8.18h1.77l-.42,2.18h1.57a3.16,3.16,0,0,1,2.05.51A1.71,1.71,0,0,1,29,20.59l-.74,3.8Zm9.81-2.92a3.51,3.51,0,0,1-1.12,2,3.24,3.24,0,0,1-1.18.71,5.82,5.82,0,0,1-1.66.21H30.81l-.42,2.18H28.61L30.2,18.4h3.42a2.81,2.81,0,0,1,2.25.81A2.51,2.51,0,0,1,36.3,21.47ZM33,19.68H31.73l-.67,3.42h1.09a2.66,2.66,0,0,0,1.6-.4,2.11,2.11,0,0,0,.71-1.36,1.52,1.52,0,0,0-.16-1.28A1.79,1.79,0,0,0,33,19.68Z"/><g id="plus"><g class="cls-4"><path class="cls-3" d="M58,13a1,1,0,0,0-1,1v7H50a1,1,0,0,0,0,2h7v7a1,1,0,0,0,2,0V23h7a1,1,0,0,0,0-2H59V14A1,1,0,0,0,58,13Z"/></g></g><path id="vue" class="cls-3" d="M97.3,10H94.88a1.37,1.37,0,0,0-1.14.62l-3.24,5-3.24-5A1.37,1.37,0,0,0,86.12,10H77.36A1.36,1.36,0,0,0,76,11.36a1.4,1.4,0,0,0,.19.69L89.33,34.44a1.36,1.36,0,0,0,1.86.48,1.38,1.38,0,0,0,.48-.48l13.14-22.39a1.35,1.35,0,0,0-.48-1.86,1.4,1.4,0,0,0-.69-.19ZM82.91,12.72l7.59,13,7.59-13h3.18L90.5,31.06,79.73,12.72Z"/></g></g></g></svg>