<svg xmlns="http://www.w3.org/2000/svg" xmlns:xlink="http://www.w3.org/1999/xlink" viewBox="0 0 117 44"><defs><style>.cls-1{fill:none;}.cls-2{fill:#092f5c;}.cls-3{fill:#fff;}.cls-4{clip-path:url(#clip-path);}</style><clipPath id="clip-path"><rect class="cls-1" x="47.5" y="10" width="24" height="24"/></clipPath></defs><title>yii</title><g id="Layer_2" data-name="Layer 2"><g id="Layer_7" data-name="Layer 7"><g id="Layer_3" data-name="Layer 3"><path class="cls-2" d="M22,0H95a22,22,0,0,1,22,22h0A22,22,0,0,1,95,44H22A22,22,0,0,1,0,22H0A22,22,0,0,1,22,0Z"/></g><g id="layer"><path id="php" class="cls-3" d="M20.55,19.68H19.34l-.67,3.42h1.08a2.69,2.69,0,0,0,1.61-.4,2.23,2.23,0,0,0,.71-1.36,1.52,1.52,0,0,0-.16-1.28A1.86,1.86,0,0,0,20.55,19.68ZM27,13.85c-8.56,0-15.5,3.65-15.5,8.15s6.94,8.15,15.5,8.15S42.5,26.5,42.5,22,35.56,13.85,27,13.85Zm-4.21,9.62a3.15,3.15,0,0,1-1.19.71,5.48,5.48,0,0,1-1.66.21H18.42L18,26.57H16.22l1.59-8.18h3.42a2.79,2.79,0,0,1,2.25.82,2.57,2.57,0,0,1,.43,2.26,3.86,3.86,0,0,1-.4,1.09A3.53,3.53,0,0,1,22.79,23.47Zm5.2.92.7-3.61a1,1,0,0,0-.09-.84,1.24,1.24,0,0,0-.89-.23H26.3l-.91,4.69H23.63l1.58-8.18H27l-.42,2.18h1.57a3.17,3.17,0,0,1,2.05.51,1.71,1.71,0,0,1,.32,1.68l-.74,3.8Zm9.81-2.92a3.56,3.56,0,0,1-.39,1.09,3.79,3.79,0,0,1-.73.91,3.24,3.24,0,0,1-1.18.71,5.82,5.82,0,0,1-1.66.21H32.31l-.42,2.18H30.11L31.7,18.4h3.42a2.82,2.82,0,0,1,2.25.81A2.57,2.57,0,0,1,37.8,21.47Zm-3.3-1.79H33.23l-.67,3.42h1.09a2.66,2.66,0,0,0,1.6-.4A2.16,2.16,0,0,0,36,21.34a1.52,1.52,0,0,0-.16-1.28A1.81,1.81,0,0,0,34.5,19.68Z"/><g id="plus"><g class="cls-4"><path class="cls-3" d="M59.5,13a1,1,0,0,0-1,1v7h-7a1,1,0,0,0,0,2h7v7a1,1,0,0,0,2,0V23h7a1,1,0,0,0,0-2h-7V14A1,1,0,0,0,59.5,13Z"/></g></g><g id="yii"><path class="cls-3" d="M105.5,14.47c-.27,4.56-3.57,8.49-7.17,12.11-.2-4.41-1.16-7.23-2.66-11.19S98.41,7.13,101.82,7C103.86,8,105.61,10.77,105.5,14.47Zm-12.68,9a23.78,23.78,0,0,1-2.06,3A14.31,14.31,0,0,0,87.66,37c7.59-.84,10-6.54,10.17-9.67a12.06,12.06,0,0,0-5-3.89ZM77.5,9.77a9.58,9.58,0,0,0,7.26,10.31C87.3,20.84,89.09,21.3,91,22a14.19,14.19,0,0,1,6.79,4.6,24.45,24.45,0,0,0-4.48-11.82C89.71,9.83,83.39,7.45,77.5,9.77Z"/></g></g></g></g></svg>