<svg xmlns="http://www.w3.org/2000/svg" xmlns:xlink="http://www.w3.org/1999/xlink" viewBox="0 0 117 44"><defs><style>.cls-1{fill:none;}.cls-2{fill:#092f5c;}.cls-3{fill:#fff;}.cls-4{clip-path:url(#clip-path);}</style><clipPath id="clip-path"><rect class="cls-1" x="47" y="10" width="24" height="24"/></clipPath></defs><title>zend</title><g id="Layer_2" data-name="Layer 2"><g id="Layer_3" data-name="Layer 3"><g id="Layer_3-2" data-name="Layer 3"><path class="cls-2" d="M22,0H95a22,22,0,0,1,22,22h0A22,22,0,0,1,95,44H22A22,22,0,0,1,0,22H0A22,22,0,0,1,22,0Z"/></g><g id="layer"><path id="php" class="cls-3" d="M20.05,19.68H18.84l-.67,3.42h1.08a2.67,2.67,0,0,0,1.61-.4,2.18,2.18,0,0,0,.71-1.36,1.52,1.52,0,0,0-.16-1.28A1.84,1.84,0,0,0,20.05,19.68Zm6.45-5.83C17.94,13.85,11,17.5,11,22s6.94,8.15,15.5,8.15S42,26.5,42,22,35.06,13.85,26.5,13.85Zm-4.21,9.62a3.07,3.07,0,0,1-1.19.71,5.48,5.48,0,0,1-1.66.21H17.92l-.42,2.18H15.72l1.59-8.18h3.42a2.79,2.79,0,0,1,2.25.82,2.51,2.51,0,0,1,.43,2.26,3.58,3.58,0,0,1-.4,1.09A3.53,3.53,0,0,1,22.29,23.47Zm5.2.92.7-3.61a1,1,0,0,0-.09-.84,1.23,1.23,0,0,0-.89-.23H25.8l-.91,4.69H23.13l1.58-8.18h1.77l-.42,2.18h1.57a3.16,3.16,0,0,1,2.05.51A1.71,1.71,0,0,1,30,20.59l-.74,3.8Zm9.81-2.92a3.51,3.51,0,0,1-1.12,2,3.24,3.24,0,0,1-1.18.71,5.82,5.82,0,0,1-1.66.21H31.81l-.42,2.18H29.61L31.2,18.4h3.42a2.81,2.81,0,0,1,2.25.81A2.51,2.51,0,0,1,37.3,21.47ZM34,19.68H32.73l-.67,3.42h1.09a2.66,2.66,0,0,0,1.6-.4,2.11,2.11,0,0,0,.71-1.36,1.52,1.52,0,0,0-.16-1.28A1.79,1.79,0,0,0,34,19.68Z"/><g id="plus"><g class="cls-4"><path class="cls-3" d="M59,13a1,1,0,0,0-1,1v7H51a1,1,0,0,0,0,2h7v7a1,1,0,0,0,2,0V23h7a1,1,0,0,0,0-2H60V14A1,1,0,0,0,59,13Z"/></g></g><path id="zend" class="cls-3" d="M90.64,19.14s0-3.84,3.84-3.84H106s0,3.84-3.84,3.84Zm0,4.91s0-3.84,3.84-3.84h5.76s0,3.84-3.84,3.84Zm0,4.9s0-3.84,3.84-3.84H96.4S96.4,29,92.56,29Zm-1.29-3V29H77l8-10.85H78.13v-3H91L83.09,26Z"/></g></g></g></svg>