<svg id="svg31911" xmlns="http://www.w3.org/2000/svg" xmlns:xlink="http://www.w3.org/1999/xlink" viewBox="0 0 54.7 60"><defs><style>.cls-1{fill:none;}.cls-2{clip-path:url(#clip-path);}.cls-3{fill:#da3544;}</style><clipPath id="clip-path" transform="translate(-21.65)"><rect class="cls-1" width="98" height="60"/></clipPath></defs><g class="cls-2"><path class="cls-3" d="M41.84,60a23.4,23.4,0,0,1-3.3-1.26A7.39,7.39,0,0,1,35,54.06a.72.72,0,0,0-.63-.63A9.48,9.48,0,0,1,27.19,41a8.32,8.32,0,0,1-5.44-6.76A8.15,8.15,0,0,1,25,26.37a28.51,28.51,0,0,1-1.07-3.1,8.4,8.4,0,0,1,5.39-9.64.62.62,0,0,0,.51-.63A7.73,7.73,0,0,1,36,6.09a.68.68,0,0,0,.6-.59,7.21,7.21,0,0,1,14,0c.09.41.24.53.65.52,1.5,0,3,0,4.51,0,1,0,1.36.4,1.43,1.38,0,.64.11,1.28.14,1.92a.55.55,0,0,0,.49.6,18.55,18.55,0,0,1,5.32,2.21.53.53,0,0,0,.76-.08c.52-.47,1.06-.92,1.61-1.37a1.18,1.18,0,0,1,1.77.06q2.19,2.16,4.34,4.35a1.14,1.14,0,0,1,.07,1.72c-.47.57-1,1.12-1.42,1.71a.69.69,0,0,0,0,.64,19.82,19.82,0,0,1,2.21,5.39.54.54,0,0,0,.6.47c.67,0,1.33.08,2,.14.91.08,1.3.48,1.31,1.38,0,2,0,4,0,6A1.22,1.22,0,0,1,75,34c-.69.06-1.37.12-2.05.14-.34,0-.47.16-.55.47A18.59,18.59,0,0,1,70.2,40a.5.5,0,0,0,.09.71c.48.54.94,1.1,1.4,1.66a1.14,1.14,0,0,1-.06,1.72q-2.17,2.21-4.38,4.38a1.15,1.15,0,0,1-1.68.06C65,48,64.47,47.6,64,47.12a.58.58,0,0,0-.85-.1,18.44,18.44,0,0,1-5.29,2.19.56.56,0,0,0-.49.6c0,.62-.1,1.25-.14,1.87-.07,1.06-.44,1.43-1.49,1.43h-5c-.07.29-.13.55-.2.81a8,8,0,0,1-6.57,6,1.48,1.48,0,0,0-.27.1Zm6.63-33.16c-.42.07-.72.15-1,.18a5.58,5.58,0,0,1-5.18-2,1.14,1.14,0,0,1,.11-1.67,1.15,1.15,0,0,1,1.67.17,3.53,3.53,0,0,0,3.79,1,.71.71,0,0,0,.65-.83c0-5.37,0-10.74,0-16.11a6.42,6.42,0,0,0-.13-1.45,4.85,4.85,0,0,0-5-3.8,5,5,0,0,0-4.59,4.4c-.16,1.23-.33,1.4-1.55,1.52A5.41,5.41,0,0,0,32.12,14c0,1.12-.2,1.39-1.29,1.64a6.13,6.13,0,0,0-4.71,6.84,6.21,6.21,0,0,0,1.48,3.26,1.16,1.16,0,0,1-.07,1.83c-.17.13-.37.22-.55.34a6.07,6.07,0,0,0,1,10.93.91.91,0,0,0,.72-.08c.93-.68,1.87-1.39,2.77-2.14a23.86,23.86,0,0,0,2.07-2,1.22,1.22,0,0,1,1.65-.35,1.1,1.1,0,0,1,.38,1.51.83.83,0,0,1-.08.12,11.84,11.84,0,0,1-1.68,1.85,26.11,26.11,0,0,1-2.42,1.75,5.36,5.36,0,0,0-2.3,5.78,6.87,6.87,0,0,0,3.7,5.13,5.77,5.77,0,0,0,6,.08,1.11,1.11,0,0,1,1.49.4A1.13,1.13,0,0,1,40,52.47a4,4,0,0,1-.85.5c-.59.24-1.2.43-1.8.64a5.7,5.7,0,0,0,11.15-2V26.84Zm2.37-10A12.94,12.94,0,0,1,65.68,28.92,12.47,12.47,0,0,1,62.53,38a12.79,12.79,0,0,1-11.68,4.32v8.37h4.06c.06-.75.12-1.46.18-2.18s.33-1.2,1.17-1.37a18.21,18.21,0,0,0,6.59-2.74,1.18,1.18,0,0,1,1.65.1c.6.49,1.19,1,1.73,1.45l3-3c-.47-.55-1-1.14-1.48-1.74a1.15,1.15,0,0,1-.09-1.6A18.42,18.42,0,0,0,70.41,33a1.2,1.2,0,0,1,1.26-1.07c.61,0,1.21-.1,1.81-.13.36,0,.52-.13.52-.52,0-1.09,0-2.19,0-3.29,0-.4-.18-.49-.52-.51-.59,0-1.17-.08-1.76-.13a1.21,1.21,0,0,1-1.32-1.13,18.28,18.28,0,0,0-2.75-6.6,1.2,1.2,0,0,1,.11-1.7l1.4-1.65-3-3-1.6,1.35a1.24,1.24,0,0,1-1.79.14A17.89,17.89,0,0,0,56.3,12c-.89-.18-1.15-.53-1.22-1.45,0-.69-.11-1.39-.17-2.12H50.84Zm0,23.08a10.5,10.5,0,1,0,0-20.61Z" transform="translate(-21.65)"/><path class="cls-3" d="M41.11,39.08a7,7,0,0,1,3.58,3.08,1.19,1.19,0,0,1-.33,1.74,1.17,1.17,0,0,1-1.68-.54,4.56,4.56,0,0,0-2.37-2.06.64.64,0,0,0-.84.23c-.84,1-1.73,1.9-2.66,2.79a1.15,1.15,0,0,1-1.8,0,1.18,1.18,0,0,1,.27-1.74,13.67,13.67,0,0,0,4-5.45,6,6,0,0,0,.3-4.06,4.12,4.12,0,0,0-5.28-2.86,1.19,1.19,0,0,1-1.62-.73A1.22,1.22,0,0,1,33.64,28,6.49,6.49,0,0,1,42,32.72a8.94,8.94,0,0,1-.65,5.76c-.06.15-.13.29-.18.43A1,1,0,0,0,41.11,39.08Z" transform="translate(-21.65)"/><path class="cls-3" d="M38.61,16.88c-.75-.78-1.48-1.49-2.15-2.24a1,1,0,0,1-.06-1.31,1,1,0,0,1,1.15-.52,1.64,1.64,0,0,1,.81.5,6.11,6.11,0,0,0,6,2.35,1.15,1.15,0,0,1,1.34.89v0a1.13,1.13,0,0,1-1,1.37,7.46,7.46,0,0,1-3.42-.07c-.43-.11-.6,0-.81.36a6.76,6.76,0,0,1-4.86,3.49,1.18,1.18,0,0,1-1.44-.86,1.14,1.14,0,0,1,1-1.41A4.67,4.67,0,0,0,38.61,16.88Z" transform="translate(-21.65)"/></g></svg>