<svg id="svg31911" xmlns="http://www.w3.org/2000/svg" xmlns:xlink="http://www.w3.org/1999/xlink" viewBox="0 0 59.99 60"><defs><style>.cls-1{fill:none;}.cls-2{clip-path:url(#clip-path);}.cls-3{fill:#da3544;}</style><clipPath id="clip-path" transform="translate(-19)"><rect class="cls-1" width="98" height="60"/></clipPath></defs><g class="cls-2"><path class="cls-3" d="M19,31.06a3,3,0,0,1,2.68-2.25,9,9,0,0,1,1.15.13.8.8,0,0,0,.54-.13c2.95-2.94,5.88-5.88,8.84-8.86-1.22-2.28-1.07-4.43.88-6.28a4.75,4.75,0,0,1,5.85-.43l.37-.34,8.37-8.36a.71.71,0,0,0,.22-.85A2.82,2.82,0,0,1,49.18.4a2.86,2.86,0,0,1,4,3.87A2.76,2.76,0,0,1,50,5.64.91.91,0,0,0,48.91,6C47.48,7.4,46,8.82,44.6,10.26c-.14.13-.26.27-.46.48C54,7,63.1,8,71.79,14.09c.41-.45.86-1,1.34-1.44a1,1,0,0,1,1.61,0c1.28,1.27,2.55,2.53,3.81,3.81.6.6.59,1,0,1.65-1.25,1.26-2.5,2.52-3.77,3.77a1,1,0,0,1-1.65,0l-3.79-3.75c-.61-.62-.6-1.08,0-1.7l1-.94A25.55,25.55,0,0,0,40.54,15a4.83,4.83,0,0,1-1.13,5.91c-1.43,1.3-3.16,1.48-5.42.65-5.84,7.84-6.52,20.59.5,29.84.35-.39.67-.78,1-1.14a1,1,0,0,1,1.49,0q2,2,4,4A.88.88,0,0,1,41,55.6c-1.47,1.48-3,2.94-4.44,4.4H36a4.91,4.91,0,0,1-.51-.39l-3.89-3.9a.94.94,0,0,1,0-1.56c.49-.47,1-.93,1.45-1.35C27,44.12,25.94,35,29.65,25.21,28,26.78,26.47,28.38,24.87,30a.82.82,0,0,0-.24,1,2.81,2.81,0,0,1-1.84,3.45,2.86,2.86,0,0,1-3.56-1.56,3.81,3.81,0,0,0-.23-.45Zm20.19-13.8a2.94,2.94,0,0,0-2.94-2.93h0a3,3,0,0,0-2.9,2.94,2.93,2.93,0,0,0,2.93,2.93h0a2.89,2.89,0,0,0,2.91-2.88v-.06Zm-2.89,35-2.65,2.65,2.62,2.64,2.66-2.65Zm35-35.08,2.61,2.62,2.58-2.56L73.9,14.63ZM51.63,2.9a1,1,0,0,0-1-1h0a1,1,0,0,0-1,1,1,1,0,0,0,1,1h0a1,1,0,0,0,1-1ZM21.88,30.67a.87.87,0,0,0-.92.82v.1a1,1,0,0,0,1,1,.91.91,0,0,0,.95-.87v-.1A1,1,0,0,0,21.88,30.67Z" transform="translate(-19)"/><path class="cls-3" d="M63.17,60a5,5,0,0,1-.68-.85q-1.35-2.62-2.64-5.28A1.41,1.41,0,0,0,59,53.1c-3.1-1.17-6.19-2.37-9.29-3.54a1.66,1.66,0,0,1-1-1Q44,36.73,39.27,24.94a1.26,1.26,0,0,1,.32-1.57c1-.93,1.92-1.89,2.86-2.86a1.1,1.1,0,0,1,1.32-.28l23.89,9.55a1.51,1.51,0,0,1,.89,1c1.17,3.08,2.36,6.15,3.53,9.23a1.46,1.46,0,0,0,.78.87q2.69,1.3,5.34,2.66c.94.47,1,1.08.3,1.82q-7.08,7.1-14.17,14.16a6.71,6.71,0,0,1-.58.48ZM41.62,24.05a.63.63,0,0,0-.34.89q4.52,11.22,9,22.45a1.1,1.1,0,0,0,.58.56c2.88,1.14,5.78,2.24,8.66,3.36a.67.67,0,0,0,.86-.19q4.85-4.87,9.73-9.73a.68.68,0,0,0,.17-.86c-1.09-2.81-2.19-5.63-3.25-8.45a1.41,1.41,0,0,0-.89-.89Q55.09,26.78,44,22.34c-.48-.2-.77-.14-1,.26l12,12a5.53,5.53,0,1,1,0,9.14c-2.47-1.7-3-4.44-1.46-7.71ZM63.67,57.31,76.3,44.69l-4.46-2.24L61.43,52.84ZM54.59,39.23a3.64,3.64,0,1,0,3.66-3.62,3.63,3.63,0,0,0-3.66,3.62Z" transform="translate(-19)"/></g></svg>