<svg id="svg31911" xmlns="http://www.w3.org/2000/svg" xmlns:xlink="http://www.w3.org/1999/xlink" viewBox="0 0 59.99 60"><defs><style>.cls-1{fill:none;}.cls-2{clip-path:url(#clip-path);}.cls-3{fill:#da3544;}</style><clipPath id="clip-path" transform="translate(-19.01)"><rect class="cls-1" width="98" height="60"/></clipPath></defs><g class="cls-2"><path class="cls-3" d="M39.58,33.89c-.66-1.72-1.3-3.38-2-5a1.4,1.4,0,0,0-.4-.44c-1-.82-2-1.64-3.07-2.45a3.53,3.53,0,0,1-1.5-3.75,3.46,3.46,0,0,1,2.92-2.78l.22-.08c-.09-.2-.16-.39-.26-.58l-2.11-4.21a4.57,4.57,0,0,1-.25-3.69,2.49,2.49,0,0,0-1.7-3.42,18.85,18.85,0,0,1-2-.69,1.31,1.31,0,0,1-.73-.82,1.23,1.23,0,0,1,.51-1A29.12,29.12,0,0,1,42.57.31,116.3,116.3,0,0,1,55.37.08,9.91,9.91,0,0,1,64.26,13c-.61,1.91-1.35,3.79-2,5.68-.07.19-.13.38-.21.62l.57.14A3.44,3.44,0,0,1,65.3,22a3.34,3.34,0,0,1-1.08,3.61c-1.13,1-2.32,1.88-3.48,2.82a1.39,1.39,0,0,0-.39.51c-.65,1.61-1.28,3.24-1.93,4.91l.55,0h7.19A4.83,4.83,0,0,1,71.24,39c0,1.07,0,2.14,0,3.2a.77.77,0,0,0,.36.57,12.36,12.36,0,0,1,7.16,9.42,26.5,26.5,0,0,1,.2,4.09c0,.89,0,1.78,0,2.66A1,1,0,0,1,77.89,60H20.53C19.24,60,19,59.77,19,58.5a53.12,53.12,0,0,1,.13-5.79,12.09,12.09,0,0,1,7-9.8,1,1,0,0,0,.66-1,24,24,0,0,1,.09-4,4.69,4.69,0,0,1,4.72-4C34.26,33.87,36.94,33.89,39.58,33.89ZM69.31,58.05V39a2.92,2.92,0,0,0-3.23-3.21H31.94a2.94,2.94,0,0,0-3.26,3.25v19ZM61.56,14.88c.26-.71.53-1.43.77-2.15A8.07,8.07,0,0,0,54.7,2q-4.2,0-8.4,0A30.62,30.62,0,0,0,34.55,4.39c-.82.34-1.62.74-2.45,1.14l.17.16A4.47,4.47,0,0,1,35,11.62a2.36,2.36,0,0,0,0,1.53c.49,1.22,1.12,2.39,1.7,3.62l6.5-4.33a9.64,9.64,0,0,1,5.43-1.75A8.45,8.45,0,0,0,54,8.7c.66-.55,1.34-1.09,2-1.62a.93.93,0,0,1,1.48.16c1.55,2.42,3.55,4.62,4,7.64ZM38.38,21.32c0,.24,0,.42,0,.59a25.69,25.69,0,0,0,3.3,11.5.83.83,0,0,0,.85.49c4.3,0,8.62,0,12.93,0a.82.82,0,0,0,.85-.49,25.67,25.67,0,0,0,3.18-9.93c.08-.71.1-1.43.14-2.14H57.7c0,1,0,1.92,0,2.87a2.88,2.88,0,0,1-2.87,2.9h0c-.66,0-1.33,0-2,0A2.88,2.88,0,0,1,50,24.21v-.93H48v.93a2.9,2.9,0,0,1-2.91,2.9h0c-.52,0-1,0-1.57,0a2.94,2.94,0,0,1-3.24-3.26V21.32Zm11.57,0c0-.16,0-.28,0-.4,0-1.29.24-1.5,1.52-1.5h8A11.59,11.59,0,0,0,56.43,9.25c-.34.27-.72.56-1.08.87a10.37,10.37,0,0,1-6.83,2.5A7.61,7.61,0,0,0,44.28,14l-5.12,3.42c-.89.59-1,.85-.7,1.95h8.38c.84,0,1.18.34,1.19,1.17v.73ZM26.72,44.68c-.7.49-1.33.87-1.9,1.33-3.89,3.17-4.17,7.5-3.8,12h5.7Zm44.57.06V58h5.88a51.91,51.91,0,0,0-.42-6.15,10.17,10.17,0,0,0-5.46-7.15ZM42.23,21.34c0,1,0,1.91,0,2.83a.93.93,0,0,0,.92,1c.68,0,1.36,0,2.05,0a.85.85,0,0,0,.86-.79c0-1,0-2,0-3Zm9.67,0c0,1,0,1.91,0,2.84a.93.93,0,0,0,.92,1c.68,0,1.37,0,2,0a.85.85,0,0,0,.86-.79c.05-1,0-2,0-3ZM36.79,25.58c-.15-1.5-.28-2.87-.41-4.24a1.64,1.64,0,0,0-1.23,2.93c.51.43,1,.83,1.64,1.31Zm24.42,0c.68-.57,1.31-1,1.87-1.56a1.55,1.55,0,0,0,.23-1.85,1.58,1.58,0,0,0-1.7-.82c-.13,1.37-.26,2.73-.4,4.23Z" transform="translate(-19.01)"/><path class="cls-3" d="M43.92,44.74l-1.43,1.43-2.56-2.56c-.41-.42-.83-.82-1.23-1.25A.92.92,0,0,1,38.63,41c1.27-1.3,2.56-2.56,3.87-3.86l1.28,1.4-3.07,3Z" transform="translate(-19.01)"/><path class="cls-3" d="M55.5,46.16l-1.32-1.32,3.15-3.12-3.25-3.23L55.64,37c.28.35.55.74.88,1.09.89.92,1.82,1.82,2.72,2.74a1,1,0,0,1,.1,1.49C58.09,43.6,56.81,44.85,55.5,46.16Z" transform="translate(-19.01)"/><path class="cls-3" d="M51.13,37.17l1.54,1.17-5.8,7.73-1.55-1.16Z" transform="translate(-19.01)"/><path class="cls-3" d="M50.93,51.31A1.94,1.94,0,1,1,49,49.37h0A1.94,1.94,0,0,1,50.93,51.31Z" transform="translate(-19.01)"/></g></svg>