<svg id="svg31911" xmlns="http://www.w3.org/2000/svg" xmlns:xlink="http://www.w3.org/1999/xlink" viewBox="0 0 37.01 60"><defs><style>.cls-1{fill:none;}.cls-2{clip-path:url(#clip-path);}.cls-3{fill:#da3544;}</style><clipPath id="clip-path" transform="translate(-30.49 0)"><rect class="cls-1" width="98" height="60"/></clipPath></defs><g class="cls-2"><path class="cls-3" d="M49.3,0a23.72,23.72,0,0,1,4.87,3.24,22.44,22.44,0,0,1,7.16,13,36.14,36.14,0,0,1-.21,12.87,1,1,0,0,0,.41,1.13,16.1,16.1,0,0,1,3.22,21.49c-.36.51-.66,1.15-1.46,1s-.78-.88-.87-1.5a13.69,13.69,0,0,0-4.48-8.47l-.24-.21-.15-.06c-.35.94-.71,1.88-1.07,2.82s-.52,1-1.4,1H42.49c-.88,0-1.08-.14-1.4-1s-.61-1.61-1-2.53c-.52.54-1,1-1.45,1.53a13.93,13.93,0,0,0-3.17,7.44c-.06.55-.24,1-.83,1.13s-.9-.2-1.2-.62a16.16,16.16,0,0,1,2.61-21.58,1.07,1.07,0,0,0,.43-1.16A38.18,38.18,0,0,1,35.88,19C36.64,11.1,40,4.83,47,.72c.43-.25.88-.48,1.32-.72Zm-.53,44.26h5.44a.63.63,0,0,0,.69-.46c2.47-6.63,4.45-13.37,4.84-20.48a25.16,25.16,0,0,0-2.27-12.47,1,1,0,0,0-1.09-.69c-4.87,0-9.75.05-14.62,0a1.77,1.77,0,0,0-1.94,1.28c-2.12,4.84-2.37,9.89-1.73,15A40.5,40.5,0,0,0,39,30.67c1,4.41,2.29,8.72,3.63,13a.71.71,0,0,0,.81.57c1.77,0,3.54,0,5.32,0Zm11.94-12c-.74,2.58-1.46,5.12-2.21,7.65a.71.71,0,0,0,.28.9,15.38,15.38,0,0,1,4.55,6.11c.26.62.47,1.26.72,1.93a14,14,0,0,0-3.34-16.59ZM34,49a2.55,2.55,0,0,0,.13-.29A15.71,15.71,0,0,1,39.16,41c.28-.24.22-.44.14-.71-.59-2-1.16-3.91-1.73-5.86-.18-.61-.31-1.24-.47-1.89A13.92,13.92,0,0,0,34,49ZM55.79,8.12a18.35,18.35,0,0,0-6.6-5.77.87.87,0,0,0-.75.1c-1.42,1-2.87,2-4.19,3.11a22.66,22.66,0,0,0-2.31,2.56Z" transform="translate(-30.49 0)"/><path class="cls-3" d="M49.93,52.07v3.71c0,.79-.32,1.14-1,1.14s-1-.35-1-1.14V48.35c0-.75.38-1.18,1-1.18s1,.43,1,1.18C49.94,49.59,49.93,50.83,49.93,52.07Z" transform="translate(-30.49 0)"/><path class="cls-3" d="M44.8,55.17v3.6c0,.78-.36,1.2-1,1.22s-1-.42-1-1.22q0-3.63,0-7.26c0-.75.4-1.2,1-1.2s1,.44,1,1.2C44.81,52.73,44.8,54,44.8,55.17Z" transform="translate(-30.49 0)"/><path class="cls-3" d="M55.06,55.14v3.79a1,1,0,0,1-.7,1,.89.89,0,0,1-1.11-.37,1.39,1.39,0,0,1-.2-.71c0-2.46,0-4.93,0-7.39a1,1,0,0,1,1-1.16c.59,0,1,.42,1,1.17,0,1.22,0,2.44,0,3.66Z" transform="translate(-30.49 0)"/><path class="cls-3" d="M43.73,23.15a5.19,5.19,0,1,1,5.16,5.22h0A5.2,5.2,0,0,1,43.73,23.15Zm2,0A3.17,3.17,0,1,0,49,20a3.18,3.18,0,0,0-3.2,3.16v0Z" transform="translate(-30.49 0)"/></g></svg>