<?xml version="1.0" encoding="UTF-8"?>
<svg id="Layer_2" xmlns="http://www.w3.org/2000/svg" xmlns:xlink="http://www.w3.org/1999/xlink" viewBox="0 0 50 37">
  <defs>
    <style>
      .cls-1 {
        fill: none;
      }

      .cls-2 {
        fill: #f26128;
      }

      .cls-3 {
        clip-path: url(#clippath);
      }
    </style>
    <clipPath id="clippath">
      <rect class="cls-1" width="50" height="37"/>
    </clipPath>
  </defs>
  <g id="Layer_2-2" data-name="Layer_2">
    <g id="Layer_1-2">
      <g class="cls-3">
        <path class="cls-2" d="M24.42,8.83h8.12c.28,0,.5.23.5.51s-.22.51-.5.51h-8.12c-.28,0-.5-.24-.5-.51s.22-.51.5-.51ZM32.54,12.21h-5.14c-.28,0-.51.23-.51.51s.23.51.51.51h5.14c.28,0,.51-.23.51-.51s-.23-.51-.51-.51ZM21.72,17.92v4.48c0,.14-.05.27-.15.36s-.23.15-.36.15h-9.91c-.28,0-.51-.23-.51-.51v-4.48c0-.29.23-.51.51-.51h9.91c.28,0,.51.23.51.51h0ZM20.7,18.44h-8.89v3.45h8.89v-3.45ZM16.46,6.49h12.1c.28,0,.51-.23.51-.51s-.23-.51-.51-.51h-12.1c-.28,0-.51.23-.51.51s.23.51.51.51ZM37.73,28.94c0,1.29-.78,2.45-1.97,2.94-1.19.49-2.56.22-3.47-.69-.91-.91-1.18-2.28-.69-3.47.49-1.19,1.65-1.97,2.94-1.97,1.76,0,3.18,1.43,3.19,3.19ZM36.7,28.94c0-.87-.53-1.66-1.33-1.99-.81-.33-1.74-.15-2.35.47-.62.62-.8,1.54-.47,2.35.33.81,1.12,1.33,1.99,1.33,1.19,0,2.16-.97,2.16-2.16h0ZM42.6,27.9v2.08h0c0,.25-.19.47-.44.51l-1.52.21h0c-.13.46-.31.9-.54,1.31l.92,1.22h0c.15.21.13.49-.05.68l-1.47,1.47c-.18.18-.47.2-.67.05l-1.22-.92c-.42.23-.86.41-1.31.54l-.21,1.52h0c-.03.25-.25.44-.51.45h-2.08c-.26,0-.47-.19-.51-.44l-.21-1.52h0c-.46-.13-.9-.31-1.31-.55l-1.22.92c-.2.16-.49.14-.67-.05l-1.47-1.47h0c-.18-.18-.2-.47-.05-.67l.36-.47H7.91c-.28,0-.51-.23-.51-.51V10.04c0-.28.23-.51.51-.51h1.26V3.24c0-.14.05-.27.15-.36.1-.1.23-.15.36-.15h2.21V.51c0-.28.23-.51.51-.51h19.12s.02,0,.03,0h.05l.02.02h.02l.02.02s.01,0,.02,0h.02s.02.03.03.03h.01s.03.03.04.05l5,5s.02.03.03.04h0s0,.03.02.04c0,0,0,.01,0,.02s0,.02,0,.02v.02l.02.03v.02h0v8.73h1.26c.14,0,.27.05.36.15.1.1.15.23.15.36v7.96l.12-.09h0c.21-.16.49-.14.67.05l1.47,1.47c.18.18.2.47.05.67l-.92,1.22h0c.23.42.41.86.54,1.31l1.52.21c.25.03.44.25.44.51h0l.07.02ZM31.94,5h3.25l-3.25-3.25s0,3.25,0,3.25ZM12.92,1.03v8.5h8.02c.16,0,.31.07.41.2l3.33,4.35h11.24V6.03h-4.49c-.14,0-.27-.05-.36-.15-.1-.1-.15-.23-.15-.36V1.03H12.92ZM10.2,9.53h1.7V3.75h-1.7s0,5.78,0,5.78ZM8.43,14.07h14.95l-2.69-3.52h-12.26v3.52ZM8.43,31.72h20.41c-.16-.33-.3-.68-.4-1.03l-1.52-.21h0c-.25-.04-.44-.25-.44-.51v-2.08c0-.26.19-.47.44-.51l1.52-.21c.13-.46.31-.9.54-1.31l-.92-1.22c-.15-.21-.13-.49.05-.67l1.47-1.47c.18-.18.47-.2.67-.05l1.22.92h0c.42-.23.86-.41,1.31-.54l.21-1.52c.03-.25.25-.44.51-.44h2.08c.26,0,.47.19.51.44l.21,1.52c.46.13.9.31,1.31.54l.08-.06v-8.22H8.43v16.62h0ZM41.57,28.34l-1.42-.2c-.21-.03-.38-.19-.43-.39-.13-.59-.36-1.14-.68-1.65-.11-.18-.1-.41.03-.59l.86-1.14-.84-.84-1.14.86c-.17.13-.4.14-.59.03-.51-.32-1.06-.55-1.65-.68-.21-.05-.37-.22-.4-.43l-.2-1.42h-1.18l-.2,1.42c-.03.21-.19.38-.4.43-.59.13-1.14.36-1.65.68-.18.11-.41.1-.58-.03l-1.14-.86-.84.84.86,1.14c.13.17.14.4.03.59-.32.51-.55,1.06-.68,1.65-.05.21-.22.36-.43.39l-1.42.2v1.18l1.42.2c.21.03.38.19.43.4.13.59.36,1.14.68,1.65.11.18.1.41-.03.58l-.86,1.14.84.84,1.14-.86c.17-.13.4-.14.58-.03.51.32,1.07.55,1.65.68.21.05.37.22.4.43l.2,1.42h1.18l.2-1.42c.03-.21.19-.38.4-.43.58-.13,1.14-.36,1.65-.68.18-.11.41-.1.59.03l1.14.86.84-.84-.86-1.14c-.13-.17-.14-.4-.03-.58.32-.51.55-1.06.68-1.65.05-.21.22-.37.43-.4l1.42-.2v-1.18ZM27.77,18.68h7.16c.28,0,.51-.23.51-.51s-.23-.51-.51-.51h-7.16c-.28,0-.51.23-.51.51s.23.51.51.51ZM21.21,25.13h-9.91c-.28,0-.51.23-.51.51s.23.51.51.51h9.91c.28,0,.51-.23.51-.51s-.23-.51-.51-.51ZM21.21,27.84h-9.91c-.28,0-.5.24-.5.51s.22.51.5.51h9.91c.28,0,.5-.24.5-.51s-.22-.5-.5-.51Z"/>
      </g>
    </g>
  </g>
</svg>