<?xml version="1.0" encoding="UTF-8"?>
<svg id="Layer_2" xmlns="http://www.w3.org/2000/svg" xmlns:xlink="http://www.w3.org/1999/xlink" viewBox="0 0 50 37">
  <defs>
    <style>
      .cls-1 {
        fill: none;
      }

      .cls-2 {
        fill: #f26128;
      }

      .cls-3 {
        clip-path: url(#clippath);
      }
    </style>
    <clipPath id="clippath">
      <rect class="cls-1" width="50" height="37"/>
    </clipPath>
  </defs>
  <g id="Layer_2-2" data-name="Layer_2">
    <g id="Layer_1-2">
      <g class="cls-3">
        <path class="cls-2" d="M43.3,16.11l-4.27-3.52V.55c0-.3-.24-.54-.54-.54h-20.46c-.14,0-.28.06-.39.16l-6.51,6.52c-.1.1-.16.24-.16.39v5.52l-4.27,3.52c-.13.1-.2.26-.2.42v17.35c0,1.72,1.4,3.13,3.13,3.13h30.75c1.72,0,3.13-1.4,3.13-3.13v-17.35c0-.16-.07-.32-.19-.42h-.02ZM41.94,16.4l-2.91,1.36v-3.76l2.91,2.4ZM37.94,18.26l-5.11,2.38c-.07-.29-.05-.6.08-.89.23-.56.73-.89,1.34-.89h.4c.63,0,1.14-.51,1.14-1.14v-2.48c0-.63-.51-1.14-1.14-1.14h-.4c-.61,0-1.11-.33-1.34-.89s-.11-1.15.31-1.58l.28-.28c.22-.22.33-.5.33-.81s-.12-.59-.33-.81l-1.75-1.75c-.44-.44-1.17-.44-1.61,0l-.28.28c-.43.43-1.02.55-1.58.31-.56-.23-.89-.73-.89-1.34v-.4c0-.63-.51-1.14-1.14-1.14h-2.48c-.63,0-1.14.51-1.14,1.14v.4c0,.61-.33,1.11-.89,1.34-.56.23-1.15.11-1.58-.31l-.28-.28c-.44-.44-1.17-.44-1.61,0l-1.75,1.75c-.22.22-.33.5-.33.81s.12.59.33.81l.28.28c.43.43.55,1.02.31,1.58-.23.56-.73.89-1.34.89h-.4c-.63,0-1.14.51-1.14,1.14v2.48c0,.63.51,1.14,1.14,1.14h.4c.61,0,1.11.33,1.34.89.12.29.15.6.08.89l-5.11-2.38V7.6h5.96c.3,0,.54-.24.54-.54V1.09h19.37v17.17h-.01ZM25,24.3l-6.83-3.19c.19-.57.17-1.19-.07-1.78-.4-.97-1.3-1.57-2.34-1.57h-.4s-.05-.03-.05-.05v-2.48s.03-.05.05-.05h.4c1.05,0,1.94-.6,2.34-1.57.4-.97.19-2.02-.55-2.77l-.28-.28s-.02-.03-.02-.04,0-.03.02-.04l1.75-1.75s.06-.02.08,0l.28.28c.74.74,1.8.95,2.77.55.97-.4,1.57-1.3,1.57-2.34v-.4s.03-.05.05-.05h2.48s.05.03.05.05v.4c0,1.05.6,1.94,1.57,2.34.97.4,2.02.19,2.77-.55l.28-.28s.06-.02.08,0l1.75,1.75s.02.03.02.04,0,.03-.02.04l-.28.28c-.74.74-.95,1.8-.55,2.77s1.3,1.57,2.34,1.57h.4s.05.03.05.05v2.48s-.03.05-.05.05h-.4c-1.05,0-1.94.6-2.34,1.57-.24.58-.26,1.21-.07,1.78l-6.83,3.19h-.02ZM12.83,6.51l4.66-4.66v4.66h-4.66ZM10.97,17.76l-2.91-1.36,2.91-2.4v3.76ZM7.59,17.38l12.02,5.61-11.76,11.88c-.17-.3-.26-.64-.26-1v-16.49ZM9.63,35.91c-.37,0-.71-.1-1.01-.27l12.04-12.16,4.11,1.92c.07.03.15.05.23.05s.16-.02.23-.05l4.11-1.92,12.04,12.16c-.3.17-.64.27-1.01.27H9.63ZM42.15,34.87l-11.76-11.88,12.02-5.61v16.49c0,.36-.09.7-.26,1h0ZM25,10.54c-3.27,0-5.94,2.66-5.94,5.94s2.66,5.94,5.94,5.94,5.94-2.66,5.94-5.94-2.66-5.94-5.94-5.94ZM25,21.33c-2.67,0-4.85-2.18-4.85-4.85s2.17-4.85,4.85-4.85,4.85,2.18,4.85,4.85-2.17,4.85-4.85,4.85ZM26.55,13.65l-2.42,2.83-.69-.77c-.48-.54-1.31-.58-1.85-.1s-.58,1.31-.1,1.85l1.68,1.87c.25.28.6.43.97.43h.05c.38-.01.74-.19.98-.49l3.36-3.92c.47-.55.4-1.37-.14-1.84s-1.37-.4-1.84.14h0ZM27.71,14.64l-3.37,3.93-.02.02c-.06.07-.13.08-.17.08s-.11,0-.17-.07l-1.68-1.87c-.08-.09-.07-.23.02-.31.04-.04.09-.06.15-.06s.12.02.16.07l1.1,1.23c.11.12.25.18.41.18s.3-.07.41-.19l2.83-3.3c.08-.09.22-.1.31-.02s.1.21.03.3h-.01Z"/>
      </g>
    </g>
  </g>
</svg>