<?xml version="1.0" encoding="UTF-8"?>
<svg id="Layer_2" xmlns="http://www.w3.org/2000/svg" xmlns:xlink="http://www.w3.org/1999/xlink" viewBox="0 0 50 37">
  <defs>
    <style>
      .cls-1 {
        fill: none;
      }

      .cls-2 {
        fill: #f26128;
      }

      .cls-3 {
        clip-path: url(#clippath);
      }
    </style>
    <clipPath id="clippath">
      <rect class="cls-1" width="50" height="37"/>
    </clipPath>
  </defs>
  <g id="Layer_2-2" data-name="Layer_2">
    <g class="cls-3">
      <g>
        <path class="cls-2" d="M37.68,19.38c.02,1,.84,1.81,1.85,1.8,0,0,0,0,.01,0,.47.01.85.39.86.86.01.48-.37.88-.85.9,0,0,0,0,0,0,0,0,0,0,0,0h-1.35c-.26,0-.48.21-.48.48s.21.48.48.48h.88v.84c0,.26.21.48.48.48s.48-.21.48-.48v-.92c.76-.22,1.31-.9,1.32-1.72.02-1.01-.79-1.84-1.8-1.86,0,0,0,0,0,0-.48,0-.88-.39-.88-.88s.39-.88.88-.88h1.35c.26,0,.48-.21.48-.48s-.21-.48-.48-.48h-.88v-.85c0-.26-.21-.48-.48-.48s-.48.21-.48.48v.91c-.81.2-1.4.93-1.38,1.8Z"/>
        <path class="cls-2" d="M20.1,5.7h15.53c.26,0,.47-.21.47-.48s-.21-.48-.48-.48h-15.53c-.26,0-.48.21-.48.48s.21.48.48.48Z"/>
        <path class="cls-2" d="M20.1,8.66h15.53c.26,0,.47-.21.47-.48s-.21-.48-.48-.48h-15.53c-.26,0-.48.21-.48.48s.21.48.48.48Z"/>
        <path class="cls-2" d="M36.1,11.15c0-.26-.21-.48-.48-.48h-15.53c-.26,0-.48.21-.48.48s.21.48.48.48h15.53c.26,0,.47-.21.47-.48Z"/>
        <path class="cls-2" d="M40.14,27.99c2.42,0,4.38-1.96,4.38-4.38v-5.81c0-2.42-1.96-4.38-4.38-4.39h-.12V4.03c0-2.23-1.81-4.03-4.03-4.03H12.81c-2.26,0-4.09,1.83-4.1,4.1v5.51c0,.26.21.48.47.48h6.76v4.03H7.69c-1.22,0-2.21.99-2.21,2.21v16.81c0,1.22.99,2.21,2.21,2.21h9.88c1.04,1.05,2.46,1.65,3.95,1.65h18.26c.1,0,.2,0,.31,0,1.08-.05,1.98-.47,2.6-1.22.55-.66.84-1.53.82-2.45-.02-.93-.36-1.79-.94-2.44-.64-.7-1.52-1.08-2.55-1.11v-1.78h.12ZM43.57,17.8v5.81c0,1.89-1.54,3.43-3.43,3.43h-1.2c-1.89,0-3.43-1.54-3.43-3.43v-5.81c0-1.89,1.54-3.43,3.43-3.43h1.2c1.89,0,3.43,1.54,3.43,3.43ZM15.94,9.13h-6.28v-5.04c0-.08,0-.15,0-.23.06-1.74,1.52-3.09,3.26-3.02,1.74.06,3.09,1.52,3.02,3.26v5.04ZM6.43,33.14v-16.82c0-.69.56-1.25,1.26-1.26h8.72s0,0,0,0,0,0,0,0h1.94c.69,0,1.25.56,1.26,1.25v13.9s0,.01,0,.02,0,.01,0,.02v2.88c0,.69-.56,1.26-1.26,1.26h-.56s-.03,0-.05,0H7.69c-.69,0-1.25-.56-1.26-1.26ZM42.55,33.34c.03,1.29-.74,2.62-2.51,2.7-.09,0-.18,0-.27,0h-.23s0,0,0,0h-18.02c-.92,0-1.82-.28-2.57-.79.93-.26,1.62-1.1,1.63-2.12v-2.42h18.97s0,0,0,0,0,0,0,0h.35c1.79,0,2.64,1.36,2.67,2.63ZM39.06,29.76h-18.49v-13.44c0-1.22-.99-2.21-2.21-2.21h-1.47v-4.51s0,0,0-.01v-5.5c0-1.09-.43-2.13-1.2-2.89-.09-.09-.18-.17-.27-.25h20.56c1.7,0,3.08,1.38,3.08,3.08v9.38h-.12c-2.42,0-4.38,1.96-4.38,4.38v5.81c0,2.42,1.96,4.38,4.38,4.38h.12v1.78Z"/>
        <path class="cls-2" d="M7.86,21.11h10.32c.26,0,.48-.21.48-.48v-3.52c0-.26-.21-.48-.48-.48H7.86c-.26,0-.48.21-.48.48v3.52c0,.26.21.48.48.48ZM8.34,17.59h9.37v2.56h-9.37v-2.56Z"/>
        <path class="cls-2" d="M11.78,22.1h-3.92c-.26,0-.48.21-.48.48v3.92c0,.26.21.48.48.48h3.92c.26,0,.48-.21.48-.48v-3.92c0-.26-.21-.48-.48-.48ZM11.3,26.01h-2.96v-2.96h2.96v2.96Z"/>
        <path class="cls-2" d="M18.18,22.1h-3.92c-.26,0-.48.21-.48.48v3.92c0,.26.21.48.48.48h3.92c.26,0,.48-.21.48-.48v-3.92c0-.26-.21-.48-.48-.48ZM17.71,26.01h-2.96v-2.96h2.96v2.96Z"/>
        <path class="cls-2" d="M11.78,27.96h-3.92c-.26,0-.48.21-.48.48v3.92c0,.26.21.48.48.48h3.92c.26,0,.48-.21.48-.48v-3.92c0-.26-.21-.48-.48-.48ZM11.3,31.88h-2.96v-2.96h2.96v2.96Z"/>
        <path class="cls-2" d="M18.18,32.83c.26,0,.48-.21.48-.48v-3.92c0-.26-.21-.48-.48-.48h-3.92c-.26,0-.48.21-.48.48v3.92c0,.26.21.48.48.48h3.92ZM14.75,28.91h2.96v2.96h-2.96v-2.96Z"/>
      </g>
    </g>
  </g>
</svg>