<?xml version="1.0" encoding="UTF-8"?>
<svg id="Layer_2" xmlns="http://www.w3.org/2000/svg" xmlns:xlink="http://www.w3.org/1999/xlink" viewBox="0 0 50 37">
  <defs>
    <style>
      .cls-1 {
        fill: none;
      }

      .cls-2 {
        fill: #f26128;
      }

      .cls-3 {
        clip-path: url(#clippath);
      }
    </style>
    <clipPath id="clippath">
      <rect class="cls-1" width="50" height="37"/>
    </clipPath>
  </defs>
  <g id="Layer_2-2" data-name="Layer_2">
    <g id="Layer_1-2">
      <g class="cls-3">
        <path class="cls-2" d="M40.09,32.29l-6.99-6.52c-.09-.08-.2-.12-.32-.12s-.23.05-.31.14l-.55.59-1.91-1.78c2.36-3.31,2.74-7.67.93-11.37l1.37.53c.2.08.43,0,.54-.19l1.23-2.13c.11-.19.06-.43-.11-.57l-1.24-1c.12-.5.18-1.02.18-1.54s-.06-1.04-.18-1.54l1.24-1c.17-.14.21-.38.11-.57l-1.23-2.13c-.11-.19-.34-.27-.54-.19l-1.49.58c-.76-.71-1.67-1.24-2.66-1.54l-.25-1.58c-.03-.22-.22-.37-.44-.37h-2.46c-.22,0-.4.16-.44.37l-.25,1.58c-.99.3-1.9.82-2.66,1.54l-1.49-.58c-.2-.08-.43,0-.54.19l-1.23,2.13c-.11.19-.06.43.11.57l1.24,1c-.02.09-.04.18-.06.27-2.65.29-5.09,1.52-6.92,3.48-2.76,2.96-3.69,7.14-2.47,10.98l-1.2,2.08c-.11.19-.06.43.11.57l1.24,1c-.12.5-.18,1.02-.18,1.54s.06,1.04.18,1.54l-1.24,1c-.17.14-.21.38-.11.57l1.23,2.13c.11.19.34.27.54.19l1.49-.58c.76.71,1.67,1.24,2.66,1.54l.25,1.58c.03.22.22.37.44.37h2.46c.22,0,.4-.16.44-.37l.25-1.58c.99-.3,1.9-.82,2.66-1.54l1.49.58c.2.08.43,0,.54-.19l1.23-2.13c.11-.19.06-.43-.11-.57l-.53-.43c1.42-.43,2.72-1.13,3.86-2.06l1.91,1.78-.55.59c-.17.18-.16.46.02.62l6.99,6.52c.52.49,1.19.73,1.85.73.73,0,1.45-.29,1.99-.86,1.02-1.1.96-2.82-.13-3.84h.01ZM28.43,25.14h0c-1.35,1.45-3.06,2.46-4.96,2.95.09-.45.14-.91.14-1.38v-.23c1.42-.46,2.7-1.27,3.72-2.36,2.44-2.62,3.03-6.43,1.54-9.65.46-.2.9-.45,1.31-.75,1.82,3.79,1.14,8.32-1.75,11.42h0ZM23.43,25.17l1.24-1c.17-.14.21-.38.11-.57l-1.23-2.13c-.11-.19-.34-.27-.54-.19l-1.49.58c-.76-.71-1.67-1.24-2.66-1.54l-.25-1.58c-.03-.22-.22-.37-.44-.37h-2.46c-.22,0-.4.16-.44.37l-.25,1.58c-.51.15-1,.37-1.46.63-1.07-2.8-.47-5.96,1.6-8.17,1.02-1.1,2.33-1.87,3.76-2.24l-.42.34c-.17.14-.21.38-.11.57l1.23,2.13c.11.19.34.27.54.19l1.49-.58c.76.71,1.67,1.24,2.66,1.54l.25,1.58c.03.22.22.37.44.37h2.46c.22,0,.4-.16.44-.37l.21-1.35c1.27,2.86.73,6.24-1.44,8.56-.88.94-1.96,1.65-3.17,2.07-.02-.14-.05-.27-.08-.41h.01ZM19.36,5.35l.85-1.48,1.4.54c.17.06.35.02.48-.1.75-.77,1.7-1.32,2.74-1.58.17-.04.3-.19.33-.36l.23-1.49h1.7l.23,1.49c.03.18.16.32.33.36,1.04.26,1.98.81,2.74,1.58.12.13.31.17.48.1l1.4-.54.85,1.48-1.17.94c-.14.11-.2.29-.15.46.15.51.22,1.04.22,1.58s-.07,1.07-.22,1.58c-.05.17,0,.35.15.46l1.17.94-.85,1.48-1.4-.54c-.17-.06-.35-.02-.48.1-.75.77-1.7,1.32-2.74,1.58-.17.04-.3.19-.33.36l-.23,1.49h-1.7l-.23-1.49c-.03-.18-.16-.32-.33-.36-1.04-.26-1.98-.81-2.74-1.58-.12-.13-.31-.17-.48-.1l-1.4.54-.85-1.48,1.17-.94c.14-.11.2-.29.15-.46-.15-.51-.22-1.04-.22-1.58s.07-1.07.22-1.58c.05-.17,0-.35-.15-.46l-1.17-.94h0ZM13.42,11.15c1.63-1.75,3.8-2.86,6.16-3.17,0,.12-.01.24-.01.36,0,.39.03.77.1,1.15-1.97.28-3.78,1.23-5.15,2.69-2.35,2.52-2.99,6.13-1.7,9.29-.16.12-.31.25-.45.39l-1.17-.45c-1.2-3.58-.35-7.49,2.22-10.25h0ZM22.97,31.17l-1.4-.54c-.17-.06-.35-.02-.48.1-.75.77-1.7,1.32-2.74,1.58-.17.04-.3.19-.33.36l-.23,1.49h-1.7l-.23-1.49c-.03-.18-.16-.32-.33-.36-1.04-.26-1.98-.81-2.74-1.58-.08-.09-.2-.13-.32-.13-.05,0-.11,0-.16.03l-1.4.54-.85-1.48,1.17-.94c.14-.11.2-.29.15-.46-.15-.51-.22-1.04-.22-1.58s.07-1.07.22-1.58c.05-.17,0-.35-.15-.46l-1.17-.94.85-1.48,1.4.54c.17.06.35.02.48-.1.75-.77,1.7-1.32,2.74-1.58.17-.04.3-.19.33-.36l.23-1.49h1.7l.23,1.49c.03.18.16.32.33.36,1.04.26,1.98.81,2.74,1.58.12.13.31.17.48.1l1.4-.54.85,1.48-1.17.94c-.14.11-.2.29-.15.46.15.51.22,1.04.22,1.58s-.07,1.07-.22,1.58c-.05.17,0,.35.15.46l.25.2h0l.92.74s-.85,1.48-.85,1.48ZM28.68,26.17l.4-.43h0l.4-.42,1.84,1.72-.79.85-1.84-1.72h0ZM39.58,35.53c-.33.36-.79.56-1.28.58-.49.02-.96-.16-1.31-.49l-6.67-6.22.64-.68,1.31-1.41h0l.55-.59,6.67,6.22c.36.33.56.79.58,1.28s-.16.96-.49,1.31h0ZM26.24,12.41c2.25,0,4.07-1.83,4.07-4.07s-1.83-4.07-4.07-4.07-4.07,1.83-4.07,4.07,1.83,4.07,4.07,4.07ZM26.24,5.15c1.76,0,3.19,1.43,3.19,3.19s-1.43,3.19-3.19,3.19-3.19-1.43-3.19-3.19,1.43-3.19,3.19-3.19ZM16.94,22.63c-2.25,0-4.07,1.83-4.07,4.07s1.83,4.07,4.07,4.07,4.07-1.83,4.07-4.07-1.83-4.07-4.07-4.07ZM16.94,29.9c-1.76,0-3.19-1.43-3.19-3.19s1.43-3.19,3.19-3.19,3.19,1.43,3.19,3.19-1.43,3.19-3.19,3.19Z"/>
      </g>
    </g>
  </g>
</svg>