<?xml version="1.0" encoding="UTF-8"?>
<svg id="Layer_2" xmlns="http://www.w3.org/2000/svg" xmlns:xlink="http://www.w3.org/1999/xlink" viewBox="0 0 50 37">
  <defs>
    <style>
      .cls-1 {
        fill: none;
      }

      .cls-2 {
        fill: #f26128;
        fill-rule: evenodd;
      }

      .cls-3 {
        clip-path: url(#clippath);
      }
    </style>
    <clipPath id="clippath">
      <rect class="cls-1" width="50" height="37"/>
    </clipPath>
  </defs>
  <g id="Layer_2-2" data-name="Layer_2">
    <g id="Layer_1-2">
      <g class="cls-3">
        <path class="cls-2" d="M34.42,9.16v3.41h1.41v-3.41h-1.41ZM13.29,16.86v-7.7h-4.86v23.11h1.8v-14.85c0-.31.25-.56.56-.56,0,0,2.5,0,2.5,0ZM32.46,4.23l-2.48-2.36v2.36h2.48ZM23.23,16.86h-8.82V1.12h14.44v3.67c0,.31.25.56.56.56h3.88v7.23h-5.76c-.17,0-.33.07-.43.21l-3.87,4.08h0ZM33.93,19.82l-.58-2.01c-.08,0-.15-.01-.23-.02-.19-.01-.39-.02-.6-.02s-.41,0-.6.02c-.08,0-.16.01-.23.02l-.57,2c-.05.2-.2.35-.4.41-.56.15-1.1.37-1.6.66-.17.1-.38.1-.55,0l-1.84-1.02c-.21.18-.42.36-.62.57-.2.2-.39.4-.56.62l.99,1.79c.12.18.13.41.02.59-.29.5-.51,1.04-.66,1.6-.05.19-.2.34-.39.39l-2.01.58c0,.08-.01.15-.02.23-.01.19-.02.39-.02.6s0,.41.02.6c0,.08.01.16.02.23l2,.57h0c.2.05.35.2.41.4.15.56.37,1.1.66,1.6.1.17.1.38,0,.55l-1.01,1.83c.18.21.36.42.57.62.2.2.4.39.62.56l1.79-.99h0c.18-.12.41-.13.59-.02.25.14.51.27.78.38s.54.2.82.28c.19.05.34.2.39.39l.58,2.01c.08,0,.15,0,.23.02.19,0,.39.02.6.02s.41,0,.6-.02c.08,0,.16,0,.23-.02l.57-2h0c.05-.2.2-.35.4-.41.28-.08.55-.17.82-.28s.53-.24.78-.38c.17-.1.38-.1.55,0l1.83,1.01c.21-.18.42-.36.62-.56s.39-.4.56-.62l-.99-1.79c-.12-.18-.13-.41-.02-.59.14-.25.27-.51.38-.78s.2-.54.28-.82c.05-.19.2-.34.39-.39l2.01-.58c0-.08,0-.15.02-.23,0-.19.02-.39.02-.6s0-.41-.02-.6c0-.08,0-.16-.02-.23l-2-.57h0c-.2-.05-.35-.2-.41-.4-.08-.28-.17-.55-.28-.82s-.24-.53-.38-.78c-.1-.17-.1-.38,0-.55l1.01-1.83c-.18-.21-.36-.42-.57-.62-.2-.2-.4-.39-.62-.56l-1.78.99c-.18.12-.41.13-.59.02-.5-.29-1.04-.51-1.6-.66-.19-.05-.34-.2-.39-.39h0ZM39.06,19.03c.23.19.44.39.65.6.32.32.61.66.89,1.01.14.19.15.45.02.65l-1.03,1.85c.1.2.2.41.29.63s.17.43.24.65l2.08.6h0c.23.07.39.27.41.51.03.22.05.42.06.63.02.23.02.45.02.67s0,.44-.02.67c0,.22-.04.44-.07.67-.03.22-.19.4-.4.46l-2.08.6c-.07.22-.15.43-.24.65s-.19.43-.29.63l1.05,1.89h0c.11.19.09.43-.04.61-.55.71-1.18,1.35-1.9,1.9-.19.14-.45.15-.65.02l-1.85-1.02c-.2.1-.41.2-.63.29s-.43.17-.65.24l-.6,2.08h0c-.06.23-.27.39-.51.41-.21.03-.42.05-.63.06-.23.02-.46.03-.67.03s-.44,0-.67-.02c-.22,0-.44-.04-.67-.07h0c-.22-.03-.4-.19-.47-.4l-.6-2.08c-.22-.07-.43-.15-.65-.24s-.43-.19-.63-.29l-1.89,1.05h0c-.19.11-.43.09-.61-.05-.36-.27-.7-.57-1.01-.88-.2-.2-.39-.41-.57-.62H7.87c-.31,0-.56-.25-.56-.56V8.6c0-.31.25-.56.56-.56h5.42V.56c0-.15.06-.29.16-.4.11-.1.25-.16.4-.16h15.66l.06.02.08.03h.01l.03.03.07.05h0v.02h0v.03h.01v.02l4.39,4.17c.13.11.21.26.21.43v3.26h1.97c.15,0,.29.06.4.16.11.1.16.25.16.4v3.97h1.54c.15,0,.29.06.4.16.11.1.17.25.17.4v5.89h.05ZM34.32,17.14h0c-.06-.21-.25-.37-.47-.4-.23-.03-.45-.05-.67-.07-.23-.01-.46-.02-.67-.02s-.44,0-.67.02c-.21.01-.42.03-.63.06h0c-.24.01-.44.18-.51.4l-.6,2.08c-.22.07-.43.15-.65.24s-.43.19-.63.29l-1.85-1.03c-.2-.13-.46-.12-.65.02-.71.55-1.35,1.19-1.9,1.9-.13.18-.15.41-.04.61l1.05,1.89c-.1.2-.2.41-.29.63s-.17.44-.24.65l-2.08.6c-.22.06-.37.24-.4.47-.03.23-.05.45-.07.67-.02.23-.02.45-.02.67s0,.44.02.67c.01.21.03.42.06.63.01.24.18.44.41.51l2.08.6c.07.22.15.43.24.65s.19.43.29.63l-.98,1.77h-13.1v-14.28h12.12c.17,0,.33-.08.43-.21l3.87-4.08h10.16v5.08l-1.74.96c-.2-.1-.41-.2-.63-.29s-.43-.17-.65-.24l-.6-2.08h.01ZM35.52,23.82h0c1.43,1.43,1.66,3.68.53,5.37-1.13,1.68-3.29,2.34-5.16,1.56-1.87-.78-2.94-2.77-2.54-4.75.4-1.99,2.14-3.42,4.17-3.42,1.13,0,2.2.45,3,1.24h0ZM32.52,21.46h0c2.56,0,4.76,1.81,5.27,4.32.5,2.51-.84,5.03-3.21,6.01-2.37.98-5.1.15-6.52-1.98s-1.14-4.97.67-6.78c1.01-1.01,2.37-1.57,3.8-1.57h-.01ZM25.51,5.4h1.39c.15,0,.3-.05.41-.16.11-.1.17-.25.17-.4s-.06-.3-.17-.4c-.11-.11-.26-.16-.41-.16h-1.39c-.15,0-.3.05-.41.16-.11.11-.17.25-.17.4s.06.3.17.4c.11.11.26.16.41.16ZM16.63,5.4h6.14c.15,0,.3-.05.41-.16.11-.1.17-.25.17-.4s-.06-.3-.17-.4c-.11-.11-.25-.16-.41-.16h-6.14c-.15,0-.3.05-.41.16-.11.11-.17.25-.17.4s.06.3.17.4c.11.11.25.16.41.16ZM20.45,8.04h6.45c.15,0,.3-.05.41-.16.11-.11.17-.25.17-.4s-.06-.3-.17-.4-.26-.16-.41-.16h-6.45c-.3,0-.55.26-.55.56s.24.55.55.56h0ZM16.63,8.04h1.08c.15,0,.3-.05.41-.16.11-.11.17-.25.17-.4s-.06-.3-.17-.4-.26-.16-.41-.16h-1.08c-.15,0-.3.05-.41.16-.11.11-.17.25-.17.4s.06.3.17.4c.11.11.25.16.41.16h0ZM23.13,10.68h3.76c.15,0,.3-.05.41-.16s.17-.25.17-.4-.06-.3-.17-.4c-.11-.11-.26-.16-.41-.16h-3.76c-.3,0-.55.26-.55.56s.24.55.55.56h0ZM16.63,10.68h3.76c.15,0,.3-.05.41-.16s.17-.25.17-.4-.06-.3-.17-.4c-.11-.11-.26-.16-.41-.16h-3.76c-.15,0-.3.05-.41.16-.11.1-.17.25-.17.4s.06.3.17.4c.11.11.25.16.41.16h0ZM16.63,13.52h7.46c.31,0,.56-.25.56-.56s-.25-.56-.56-.56h-7.46c-.31,0-.56.25-.56.56s.25.56.56.56h0Z"/>
      </g>
    </g>
  </g>
</svg>