<?xml version="1.0" encoding="UTF-8"?>
<svg id="Layer_2" xmlns="http://www.w3.org/2000/svg" xmlns:xlink="http://www.w3.org/1999/xlink" viewBox="0 0 50 37">
  <defs>
    <style>
      .cls-1 {
        fill: #fff;
      }

      .cls-2 {
        fill: none;
      }

      .cls-3 {
        fill: #f26128;
      }

      .cls-4 {
        clip-path: url(#clippath);
      }
    </style>
    <clipPath id="clippath">
      <rect class="cls-2" width="50" height="37"/>
    </clipPath>
  </defs>
  <g id="Layer_2-2" data-name="Layer_2">
    <g id="Layer_1-2">
      <g id="Layer_2-2">
        <g id="Layer_1-2-2" data-name="Layer_1-2">
          <g class="cls-4">
            <g>
              <path class="cls-1" d="M29.6,27h-9.1c-2.9,0-5.2,2.3-5.2,5.2v2.3c0,1.3,1.1,2.4,2.4,2.4h14.6c1.3,0,2.4-1.1,2.4-2.4v-2.3c0-2.9-2.3-5.2-5.2-5.2,0,0,.1,0,.1,0ZM33.2,34.5v.8h-16.2v-3.1c0-2,1.6-3.6,3.6-3.6h9.1c2,0,3.6,1.6,3.6,3.6v1.6h0v.8h0l-.1-.1Z"/>
              <path class="cls-3" d="M29.6,27h-9.1c-2.9,0-5.2,2.3-5.2,5.2v2.3c0,1.3,1.1,2.4,2.4,2.4h14.6c1.3,0,2.4-1.1,2.4-2.4v-2.3c0-2.9-2.3-5.2-5.2-5.2,0,0,.1,0,.1,0ZM33.2,34.5v.8h-16.2v-3.1c0-2,1.6-3.6,3.6-3.6h9.1c2,0,3.6,1.6,3.6,3.6v1.6h0v.8h0l-.1-.1Z"/>
              <path class="cls-1" d="M25,15c-2.6,0-4.7,2.1-4.7,4.7s2.1,4.7,4.7,4.7,4.7-2.1,4.7-4.7-2.1-4.7-4.7-4.7ZM25,22.8c-1.7,0-3-1.4-3-3.1s1.4-3,3-3,3.1,1.4,3.1,3-1.4,3.1-3.1,3.1Z"/>
              <path class="cls-3" d="M25,15c-2.6,0-4.7,2.1-4.7,4.7s2.1,4.7,4.7,4.7,4.7-2.1,4.7-4.7-2.1-4.7-4.7-4.7ZM25,22.8c-1.7,0-3-1.4-3-3.1s1.4-3,3-3,3.1,1.4,3.1,3-1.4,3.1-3.1,3.1Z"/>
              <path class="cls-1" d="M43.8,2.8h-5.6V.8c0-.4-.4-.8-.8-.8s-.8.4-.8.8v2h-10.7V.8c0-.4-.4-.8-.8-.8s-.8.4-.8.8v2h-10.7V.8c0-.4-.4-.8-.8-.8s-.8.4-.8.8v2h-5.6c-2.3,0-4.2,1.9-4.2,4.2v20.8c0,2.3,1.9,4.2,4.2,4.2h5.4c.5,0,.8-.4.8-.8s-.4-.8-.8-.8h-5.4c-1.4,0-2.5-1.1-2.5-2.5V11.8h42.5v16.1c0,1.4-1.1,2.5-2.5,2.5h-5.4c-.5,0-.8.4-.8.8s.4.8.8.8h5.4c2.3,0,4.2-1.9,4.2-4.2V7c0-2.3-1.9-4.2-4.2-4.2,0,0-.1,0-.1,0ZM46.4,10.1H3.8v-3.1c0-1.4,1.1-2.5,2.5-2.5h5.6v2c0,.5.4.8.8.8s.8-.4.8-.8v-2h10.7v2c0,.5.4.8.8.8s.8-.4.8-.8v-2h10.7v2c0,.5.4.8.8.8s.8-.4.8-.8v-2h5.6c1.4,0,2.5,1.1,2.5,2.6v3.1h0s.2-.1.2-.1Z"/>
              <path class="cls-3" d="M43.8,2.8h-5.6V.8c0-.4-.4-.8-.8-.8s-.8.4-.8.8v2h-10.7V.8c0-.4-.4-.8-.8-.8s-.8.4-.8.8v2h-10.7V.8c0-.4-.4-.8-.8-.8s-.8.4-.8.8v2h-5.6c-2.3,0-4.2,1.9-4.2,4.2v20.8c0,2.3,1.9,4.2,4.2,4.2h5.4c.5,0,.8-.4.8-.8s-.4-.8-.8-.8h-5.4c-1.4,0-2.5-1.1-2.5-2.5V11.8h42.5v16.1c0,1.4-1.1,2.5-2.5,2.5h-5.4c-.5,0-.8.4-.8.8s.4.8.8.8h5.4c2.3,0,4.2-1.9,4.2-4.2V7c0-2.3-1.9-4.2-4.2-4.2,0,0-.1,0-.1,0ZM46.4,10.1H3.8v-3.1c0-1.4,1.1-2.5,2.5-2.5h5.6v2c0,.5.4.8.8.8s.8-.4.8-.8v-2h10.7v2c0,.5.4.8.8.8s.8-.4.8-.8v-2h10.7v2c0,.5.4.8.8.8s.8-.4.8-.8v-2h5.6c1.4,0,2.5,1.1,2.5,2.6v3.1h0s.2-.1.2-.1Z"/>
              <path class="cls-1" d="M41,21.9c.3.3.3.8,0,1.2-.2.1-.4.2-.6.2s-.4,0-.5-.2l-2.2-2.2-2.2,2.2c-.2.1-.4.2-.6.2s-.4,0-.6-.2c-.3-.3-.3-.8,0-1.2l2.2-2.2-2.2-2.1c-.3-.3-.3-.8,0-1.2s.4-.2.6-.2.4,0,.6.2l2.2,2.2,2.2-2.2c.2-.2.4-.2.6-.2s.4,0,.6.2c.3.3.3.8,0,1.2l-2.2,2.1,2.2,2.2h-.1Z"/>
              <path class="cls-3" d="M41,21.9c.3.3.3.8,0,1.2-.2.1-.4.2-.6.2s-.4,0-.5-.2l-2.2-2.2-2.2,2.2c-.2.1-.4.2-.6.2s-.4,0-.6-.2c-.3-.3-.3-.8,0-1.2l2.2-2.2-2.2-2.1c-.3-.3-.3-.8,0-1.2s.4-.2.6-.2.4,0,.6.2l2.2,2.2,2.2-2.2c.2-.2.4-.2.6-.2s.4,0,.6.2c.3.3.3.8,0,1.2l-2.2,2.1,2.2,2.2h-.1Z"/>
            </g>
          </g>
        </g>
      </g>
    </g>
  </g>
</svg>