<?xml version="1.0" encoding="UTF-8"?>
<svg id="Layer_2" xmlns="http://www.w3.org/2000/svg" xmlns:xlink="http://www.w3.org/1999/xlink" viewBox="0 0 50 37">
  <defs>
    <style>
      .cls-1 {
        fill: none;
      }

      .cls-2 {
        fill: #f26128;
      }

      .cls-3 {
        clip-path: url(#clippath);
      }
    </style>
    <clipPath id="clippath">
      <rect class="cls-1" width="50" height="37"/>
    </clipPath>
  </defs>
  <g id="Layer_2-2" data-name="Layer_2">
    <g id="Layer_1-2">
      <g class="cls-3">
        <g>
          <path class="cls-2" d="M25,2.95c-.97.02-.97,1.46,0,1.48.97-.02.97-1.46,0-1.48Z"/>
          <path class="cls-2" d="M43.5,2.96l-14.88-.04c-.37-1.69-1.89-2.92-3.62-2.92s-3.25,1.23-3.63,2.96H6.5c-1.22,0-2.22,1-2.22,2.22v16.28c.02.97,1.46.97,1.48,0v-13.32h35.52c.96,0,.98-1.47,0-1.48h-9.62v-2.22h11.84c.41,0,.74.33.74.74v25.16c0,.41-.33.74-.74.74h-9.15c.64-1.35,1.01-2.85,1.01-4.44,0-5.71-4.65-10.36-10.36-10.36-7.47-.13-12.69,8.15-9.35,14.8H6.5c-.41,0-.74-.33-.74-.74v-5.18c0-.41-.33-.74-.74-.74s-.74.33-.74.74v5.18c0,1.22,1,2.22,2.22,2.22h10.01c1.87,2.68,4.98,4.44,8.49,4.44s6.62-1.76,8.49-4.44h10.01c1.22,0,2.22-1,2.22-2.22V5.18c0-1.22-1-2.22-2.22-2.22h0ZM5.76,5.18c0-.41.33-.74.74-.74h11.84v2.22H5.76v-1.48ZM30.18,6.66h-10.36v-2.22h1.55c.71,0,1.31-.5,1.46-1.2.48-2.31,3.86-2.32,4.34,0,.15.71.75,1.21,1.46,1.21h1.55v2.22h0ZM25,35.52c-4.9,0-8.88-3.98-8.88-8.88.49-11.78,17.27-11.78,17.76,0,0,4.9-3.98,8.88-8.88,8.88Z"/>
          <path class="cls-2" d="M25,19.98c-.41,0-.74.33-.74.74v5.18h-2.96c-.97.01-.97,1.46,0,1.48h3.7c.41,0,.74-.33.74-.74v-5.92c0-.41-.33-.74-.74-.74Z"/>
        </g>
      </g>
    </g>
  </g>
</svg>