<?xml version="1.0" encoding="UTF-8"?>
<svg id="Layer_2" xmlns="http://www.w3.org/2000/svg" xmlns:xlink="http://www.w3.org/1999/xlink" viewBox="0 0 50 37">
  <defs>
    <style>
      .cls-1 {
        fill: none;
      }

      .cls-2 {
        fill: #f26128;
      }

      .cls-3 {
        clip-path: url(#clippath);
      }
    </style>
    <clipPath id="clippath">
      <rect class="cls-1" width="50" height="37"/>
    </clipPath>
  </defs>
  <g id="Layer_2-2" data-name="Layer_2">
    <g id="Layer_2-2">
      <g id="Layer_1-2">
        <g class="cls-3">
          <g>
            <path class="cls-2" d="M45.23,0H11.02c-.39,0-.7.31-.7.7v3.49c0,.39.31.7.7.7h1.66v9.42c0,.39.31.7.7.7s.7-.31.7-.7V4.89h28.09v22.34h-19.98c-.39,0-.7.31-.7.7s.31.7.7.7h5.24v2.89c-3.13.84-2.57,5.44.7,5.49,3.27-.04,3.82-4.65.7-5.49v-2.89h14.05c.39,0,.7-.31.7-.7V4.89h1.66c.39,0,.7-.31.7-.7V.7c0-.39-.31-.7-.7-.7h-.01ZM29.52,34.21c-.05,1.84-2.74,1.84-2.79,0,.05-1.84,2.74-1.84,2.79,0ZM44.53,3.49H11.72V1.4h32.81s0,2.09,0,2.09Z"/>
            <path class="cls-2" d="M7.18,22.34h9.78c4.15-.13,4.16-6.15,0-6.28H7.18c-4.15.13-4.15,6.15,0,6.28ZM12.42,17.45h4.54c1.51-.05,2.34,1.95,1.23,2.98-.32.33-.76.51-1.23.51h-4.54s0-3.49,0-3.49ZM8.93,17.45h2.09v3.49h-2.09v-3.49ZM7.53,17.45v3.49c-1.07.13-2.1-.62-2.09-1.75-.02-1.11,1.03-1.88,2.09-1.75h0Z"/>
            <path class="cls-2" d="M16.96,25.13H7.19c-4.15.13-4.16,6.15,0,6.28h9.78c1.86.04,3.42-1.76,3.11-3.59-.22-1.54-1.55-2.69-3.11-2.69h-.01ZM11.72,30.02h-4.54c-.96,0-1.75-.78-1.75-1.75-.02-.93.81-1.76,1.75-1.75h4.54v3.49h0ZM15.21,30.02h-2.09v-3.49h2.09v3.49ZM18.18,29.51c-.4.43-1,.55-1.58.51v-3.49c.98-.11,1.94.49,2.08,1.53.07.53-.11,1.07-.5,1.45Z"/>
            <path class="cls-2" d="M29.87,14.66c-.19,0-.36.07-.49.2l-4.89,4.89c-.64.65.34,1.63.99.99l4.68-4.68h4.6c.19,0,.36-.07.49-.2l3.7-3.7v2.15c.02.92,1.38.92,1.4,0v-3.84c0-.09,0-.18-.05-.27-.11-.25-.37-.43-.64-.43h-4.19c-.92.01-.92,1.38,0,1.4h2.5l-3.49,3.49s-4.61,0-4.61,0Z"/>
            <path class="cls-2" d="M26.38,6.98h-9.08c-.39,0-.7.31-.7.7v4.19c0,.39.31.7.7.7h9.08c.39,0,.7-.31.7-.7v-4.19c0-.39-.31-.7-.7-.7ZM25.68,11.17h-7.68v-2.79h7.68v2.79Z"/>
          </g>
        </g>
      </g>
    </g>
  </g>
</svg>