<svg xmlns="http://www.w3.org/2000/svg" xmlns:xlink="http://www.w3.org/1999/xlink" viewBox="0 0 1230.05 229.52"><defs><style>.cls-1{fill:#092f5c;}.cls-2{fill:#ff6926;}.cls-3{fill:url(#linear-gradient);}.cls-4{fill:none;}</style><linearGradient id="linear-gradient" x1="130.26" y1="229.52" x2="130.26" gradientUnits="userSpaceOnUse"><stop offset="0" stop-color="#ff6926"/><stop offset="0.26" stop-color="#ff6d24"/><stop offset="0.49" stop-color="#ff781e"/><stop offset="0.71" stop-color="#ff8a14"/><stop offset="0.93" stop-color="#ffa406"/><stop offset="1" stop-color="#ffae00"/></linearGradient></defs><title>last-n-final</title><g id="Layer_2" data-name="Layer 2"><g id="Layer_2-2" data-name="Layer 2"><polygon class="cls-1" points="387.57 2.73 347.82 93.24 308.78 2.73 285.1 2.73 336.5 120.32 358 120.32 409.24 2.73 387.57 2.73"/><path class="cls-2" d="M625.06,31.28h0a56.43,56.43,0,0,1,12.18-10.69A45.89,45.89,0,0,1,649,15.36c.91-.27,1.33-.34,1.87,0a3.09,3.09,0,0,0,4.09-.68,3.3,3.3,0,0,0,.63-4,3.59,3.59,0,0,0-3-2,3.52,3.52,0,0,0-3.1,1.71,1,1,0,0,1-.71.53,48.34,48.34,0,0,0-8.37,3A53.77,53.77,0,0,0,626,24a50.87,50.87,0,0,0-15,25.56c-.13.54-.26.65-.55.79a3.37,3.37,0,0,0-1.69,3.9,3.46,3.46,0,0,0,6.33,1,3.51,3.51,0,0,0,.18-3.45c-.25-.48-.28-.6-.23-.82A45.15,45.15,0,0,1,625.06,31.28Z"/><path class="cls-2" d="M724.2,37.07a58.9,58.9,0,0,0-10.48-16.54h0l-.65-.75A54.18,54.18,0,0,0,692.5,5.26a65.49,65.49,0,0,0-14.25-3.93,83.15,83.15,0,0,0-25-.11,65.81,65.81,0,0,0-13.78,3.62l-1,.4A63.39,63.39,0,0,0,608.9,31.51c-5.31,8.88-7.85,18.88-7.77,30.56a4.53,4.53,0,0,0,.07.65l.2,1.14H610l.1,1.34c.11,1.38.22,2.76.36,4.13.11,1.1.29,2.25.54,3.53s.52,2.38.83,3.54.68,2.33,1,3.37.75,2,1.18,3l.85,2.13c.32.79,3.33,7.94,11.67,15.2l1.08.92.36.3.22.18a2.93,2.93,0,0,0,.27.21l.17.14.32.27a53.81,53.81,0,0,0,18.62,10.26c.89.28,1.2.42,1.48.94a3.12,3.12,0,0,0,2.14,1.61,3.35,3.35,0,0,0,2.76-.64,3.4,3.4,0,0,0,.67-5,3.26,3.26,0,0,0-4.37-.86c-.43.25-.48.23-.59.2a45.56,45.56,0,0,1-13.23-6.18c-1.39-1-2.74-2.07-4-3.12l-.71-.58-1.33-1.1-.26-.22a81.31,81.31,0,0,1-5.82-6,3.24,3.24,0,0,0-.23-.3A41.6,41.6,0,0,1,617,79a45.74,45.74,0,0,1-2.81-15.64V59.77l-1.45-.1c-.37,0-.7-.05-1-.05h-6.33l.17-2.77a53.74,53.74,0,0,1,4.13-17.43A56.22,56.22,0,0,1,624,19.72,54.1,54.1,0,0,1,656.63,5.2c.13,2.74.1,10.46,0,13-18.68,2.14-32.52,17.15-36.57,31-4.1,14-.93,29.65,8,39.84,7.15,9.45,18,13.68,18.1,13.72l1.45.48v0l.55.17a46.06,46.06,0,0,0,7.06,1.72l1.48.24v13.06a56.72,56.72,0,0,1-11.67-2.2,54.29,54.29,0,0,1-23.6-14.76,3.43,3.43,0,0,0-.41-.4,69,69,0,0,1-10.91-15.67l-.61-1.63c-.59-1.59-1.16-3.09-1.66-4.64a28.62,28.62,0,0,1-1.54-7c0-.45,0-.59.15-.74a3.21,3.21,0,0,0,.73-3.27A3.65,3.65,0,0,0,604,65.53a3.61,3.61,0,0,0-2.79,1.17,3.38,3.38,0,0,0-.5.66,3.17,3.17,0,0,0-.21.41,3.47,3.47,0,0,0,.62,3.55,2.47,2.47,0,0,0,.6.5c.23.19.32.37.35,1a8.2,8.2,0,0,0,.13,1.22,56.54,56.54,0,0,0,3.47,11.64c3.1,9.32,12.78,18.81,12.84,18.85l.3.35h0a62.09,62.09,0,0,0,11.81,9.35c1.57,1,3.23,1.86,4.92,2.68l.14.06c1.16.54,2.37,1,3.57,1.51a65.91,65.91,0,0,0,13.92,3.65,77.54,77.54,0,0,0,11.66.86,82.58,82.58,0,0,0,16.9-1.74,65.81,65.81,0,0,0,8.57-2.62,60.06,60.06,0,0,0,20.48-13l.5-.5a59.62,59.62,0,0,0,12.85-19A61.85,61.85,0,0,0,729,61.66,62.55,62.55,0,0,0,724.2,37.07Zm-82-9.55a35.59,35.59,0,0,1,4.17-2.13,38.22,38.22,0,0,1,8.43-2.55,49.17,49.17,0,0,1,11.43-1.28c1,0,2,0,3.07.09a40.55,40.55,0,0,1,11.46,2.74,38.59,38.59,0,0,1,12.74,8.33,37,37,0,0,1,8.4,12.72,43,43,0,0,1,2.93,15.07c0,.38,0,.76,0,1.15a42.61,42.61,0,0,1-3,16.21,38.94,38.94,0,0,1-8.42,12.74A36.8,36.8,0,0,1,689.53,94a38.48,38.48,0,0,1-8.76,4.94,40.11,40.11,0,0,1-11.24,2.71c-1.1.08-2.26.12-3.46.12a51.87,51.87,0,0,1-6.71-.42c-1-.08-2-.22-3-.36l-1.16-.16c-.29,0-.58-.08-.88-.14a41.25,41.25,0,0,1-6.59-1.89c-.21-.07-.42-.17-.65-.27l-.42-.19c-8.89-4.4-15.71-12.34-16-12.65s-.42-.58-.68-.93-.55-.75-.81-1.13a38.53,38.53,0,0,1-6.21-27.88A37,37,0,0,1,631.4,37,42.06,42.06,0,0,1,642.21,27.52Z"/><path class="cls-2" d="M970.13,91.85h0A56.43,56.43,0,0,1,958,102.54a46.15,46.15,0,0,1-11.79,5.23c-.9.27-1.32.34-1.86,0a3.09,3.09,0,0,0-4.09.68,3.3,3.3,0,0,0-.63,4,3.61,3.61,0,0,0,3,2h.14a3.48,3.48,0,0,0,3-1.71,1,1,0,0,1,.72-.53,48.34,48.34,0,0,0,8.37-3,53.77,53.77,0,0,0,14.38-10.06,50.86,50.86,0,0,0,15-25.57c.12-.54.26-.65.55-.79a3.37,3.37,0,0,0,1.69-3.89,3.49,3.49,0,1,0-6.51,2.42c.25.49.28.61.22.83A45.24,45.24,0,0,1,970.13,91.85Z"/><path class="cls-2" d="M994,51.81a3,3,0,0,0-.6-.51c-.23-.18-.32-.36-.35-1A9.59,9.59,0,0,0,993,49.1a56.54,56.54,0,0,0-3.47-11.64c-3.1-9.31-12.79-18.81-12.84-18.86l-.3-.34h0A62.09,62.09,0,0,0,964.5,8.9a55.36,55.36,0,0,0-4.92-2.68l-.14-.07c-1.16-.53-2.37-1-3.57-1.5A66.53,66.53,0,0,0,942,1,79,79,0,0,0,930.29.14a83.44,83.44,0,0,0-16.91,1.73,67.28,67.28,0,0,0-8.56,2.63,60.05,60.05,0,0,0-20.49,13c-.16.17-.34.33-.49.5A59.46,59.46,0,0,0,871,37a61.82,61.82,0,0,0-4.79,24.5A62.72,62.72,0,0,0,871,86.06a59.5,59.5,0,0,0,10.48,16.54h0l.65.75a54.15,54.15,0,0,0,20.57,14.52,66.3,66.3,0,0,0,14.26,3.93,80.28,80.28,0,0,0,12.85,1,80.72,80.72,0,0,0,12.14-.89,65.81,65.81,0,0,0,13.78-3.62l1-.41a63.32,63.32,0,0,0,29.56-26.26c5.31-8.89,7.85-18.89,7.77-30.56a3.56,3.56,0,0,0-.08-.65l-.19-1.14h-8.63l-.1-1.31c-.11-1.39-.22-2.78-.36-4.16-.11-1.09-.29-2.25-.54-3.53s-.52-2.39-.83-3.55-.68-2.32-1.05-3.37-.75-2-1.17-3l-.87-2.15c-.31-.8-3.33-7.95-11.67-15.2l-1.07-.93-.36-.29-.19-.16-.3-.24-.17-.13-.32-.27a53.65,53.65,0,0,0-18.62-10.26c-.89-.28-1.2-.42-1.48-.94a3.12,3.12,0,0,0-2.15-1.61,3.34,3.34,0,0,0-2.75.64,3.4,3.4,0,0,0-.67,5,3.27,3.27,0,0,0,4.37.86c.43-.25.48-.23.58-.2a45.24,45.24,0,0,1,13.24,6.18c1.39,1,2.73,2.07,4,3.12l.71.58c.45.35.89.72,1.34,1.1l.26.22a81.31,81.31,0,0,1,5.82,6,2.89,2.89,0,0,0,.23.3,42,42,0,0,1,7.08,12.21A45.5,45.5,0,0,1,981,59.79c0,.53,0,1.05,0,1.64v1.92l1.45.11c.37,0,.69,0,1,0h6.33l0,.63c0,.73-.08,1.44-.13,2.14a53.49,53.49,0,0,1-4.14,17.43,56.15,56.15,0,0,1-14.23,19.67,54.05,54.05,0,0,1-32.65,14.51c-.13-2.73-.1-10.45,0-13,18.68-2.15,32.52-17.15,36.57-31,4.1-14,.93-29.65-8-39.85-7.17-9.47-18-13.67-18.11-13.71l-1.45-.48v0l-.54-.16A47.27,47.27,0,0,0,940,18.05c-.48-.06-1-.14-1.48-.23V4.76A56.72,56.72,0,0,1,950.16,7a54.29,54.29,0,0,1,23.6,14.76,3.43,3.43,0,0,0,.41.4,69.16,69.16,0,0,1,10.91,15.67l.61,1.63c.59,1.59,1.16,3.1,1.66,4.64a28.62,28.62,0,0,1,1.54,7c0,.45,0,.59-.16.74a3.22,3.22,0,0,0-.72,3.27,3.65,3.65,0,0,0,3.14,2.49,3.61,3.61,0,0,0,2.79-1.17,3.38,3.38,0,0,0,.5-.66,3.17,3.17,0,0,0,.21-.41A3.47,3.47,0,0,0,994,51.81Zm-41,43.8a36.39,36.39,0,0,1-4.17,2.13,38.22,38.22,0,0,1-8.43,2.55,50.35,50.35,0,0,1-14.5,1.18,40.35,40.35,0,0,1-11.47-2.73,38.55,38.55,0,0,1-12.73-8.33,36.86,36.86,0,0,1-8.4-12.72,42.73,42.73,0,0,1-2.93-15.07c0-.38,0-.76,0-1.15a42.61,42.61,0,0,1,3-16.21,38.94,38.94,0,0,1,8.42-12.74,35.78,35.78,0,0,1,3.89-3.39,39,39,0,0,1,8.75-4.93,40.63,40.63,0,0,1,11.25-2.72c1.1-.07,2.26-.11,3.46-.11a51.87,51.87,0,0,1,6.71.42c1,.08,2,.22,3,.36l1.16.15.88.14a43.44,43.44,0,0,1,6.59,1.89c.21.08.41.17.65.28l.42.19c8.89,4.39,15.71,12.34,16,12.65l.66.9c.29.39.56.77.83,1.16a38.62,38.62,0,0,1,6.21,27.87,37.08,37.08,0,0,1-8.46,18.78A42.06,42.06,0,0,1,953,95.61Z"/><rect class="cls-1" x="429" y="2.73" width="21.82" height="117.48"/><path class="cls-1" d="M822.24,80.94a39.24,39.24,0,0,0,17.21-14.27q6-9.22,6-22.15,0-13.1-6-22.49A38.37,38.37,0,0,0,822.24,7.68q-11.16-4.95-26.76-4.95H747.14V120.21H769V86h26.52q2.34,0,4.59-.12L824,120.21H847.5l-27-38.53C821.09,81.44,821.67,81.2,822.24,80.94Zm-6-53.62q7.31,6.12,7.3,17.2t-7.3,17.29Q808.91,68,794.47,68H769V21.19h25.51Q808.9,21.19,816.2,27.32Z"/><path class="cls-1" d="M1095,68.18q0,18.13-7.72,26.35t-22,8.23q-14.26,0-22.07-8.23t-7.8-26.35V2.73h-21.82V68.85q0,25.86,13.68,39.44t37.68,13.6q24.16,0,37.84-13.6t13.68-39.44V2.73H1095Z"/><path class="cls-1" d="M1226.27,71.79a28.81,28.81,0,0,0-10-9.57,65,65,0,0,0-13.59-5.87q-7.39-2.26-14.94-3.94t-13.68-3.53a26.58,26.58,0,0,1-9.9-5.12,10.89,10.89,0,0,1-3.77-8.64,13.29,13.29,0,0,1,2.6-8q2.6-3.62,8.31-5.79t14.6-2.18A61.84,61.84,0,0,1,1202,21.44a64.86,64.86,0,0,1,16.28,7l6.88-16.95a60.63,60.63,0,0,0-18.13-7.72,83.67,83.67,0,0,0-21-2.69q-16.11,0-26.6,4.78t-15.6,12.76a31.73,31.73,0,0,0-5.12,17.54q0,9.39,3.77,15.44a28.5,28.5,0,0,0,10,9.65,67.31,67.31,0,0,0,13.68,6q7.45,2.34,14.93,3.94t13.6,3.52a28.57,28.57,0,0,1,10,5.21,10.75,10.75,0,0,1,3.86,8.64,12.32,12.32,0,0,1-2.68,7.8q-2.69,3.45-8.39,5.46t-14.94,2a63.28,63.28,0,0,1-21.31-3.69,61.15,61.15,0,0,1-17.46-9.23l-7.55,17q7.55,6.21,20,10.15a86.8,86.8,0,0,0,26.27,4q16.11,0,26.68-4.79t15.7-12.75A31.52,31.52,0,0,0,1230.05,87Q1230.05,77.76,1226.27,71.79Z"/><path class="cls-1" d="M559,96.56a40.84,40.84,0,0,1-7.28,3.32,51.74,51.74,0,0,1-16.83,2.77,46.43,46.43,0,0,1-17.07-3A39.87,39.87,0,0,1,504.4,91.1,39.15,39.15,0,0,1,495.53,78a42.36,42.36,0,0,1-3.18-16.49,42.16,42.16,0,0,1,3.18-16.57,39,39,0,0,1,22.34-21.59,47.14,47.14,0,0,1,17.16-3,43.44,43.44,0,0,1,32.31,13.39l13.72-13.39A52.7,52.7,0,0,0,560.89,6.07a75.67,75.67,0,0,0-52.22-.42,60.46,60.46,0,0,0-20.09,12.64,57.18,57.18,0,0,0-13.3,19.08,60.2,60.2,0,0,0-4.69,24.1,60.17,60.17,0,0,0,4.69,24.1,57.83,57.83,0,0,0,13.22,19.08,59.41,59.41,0,0,0,20,12.64,69.18,69.18,0,0,0,25.19,4.44A82.11,82.11,0,0,0,558.3,118a62.57,62.57,0,0,0,21.09-11.13V60.3H559Z"/><path class="cls-1" d="M503.8,194.16H286.39c-.71,0-1.29-1.79-1.29-4s.58-4,1.29-4H503.8c.72,0,1.3,1.79,1.3,4S504.52,194.16,503.8,194.16Z"/><path class="cls-1" d="M1228.75,194.16H1011.34c-.71,0-1.29-1.79-1.29-4s.58-4,1.29-4h217.41c.71,0,1.3,1.79,1.3,4S1229.46,194.16,1228.75,194.16Z"/><path class="cls-3" d="M133.86,128.62,85.67,229.52H72.42a14.6,14.6,0,0,1-12.64-7.3L41.51,190.58H52.24a3.07,3.07,0,1,0,0-2.73H39.94l-3.23-5.58h7.23a3.07,3.07,0,1,0,0-2.73h-8.8L31.92,174H35.6a3.07,3.07,0,0,0,5.81-1.37,3.07,3.07,0,0,0-5.81-1.36H30.34l-3.22-5.58h.17a3.07,3.07,0,1,0,0-2.73H25.54l-2.87-5H33.44l23.23,23.24H81.73a3.07,3.07,0,1,0,0-2.73H57.8L34.58,155.23H21.1l-3.27-5.66H35.07L58.31,172.8H95.17a3.07,3.07,0,1,0,0-2.73H59.43L36.2,146.84h-20L13,141.21h23.7l23.23,23.24H85.59a3.06,3.06,0,1,0,0-2.72H61.07L37.84,138.49H11.44l-2.73-4.72H39.27L57.5,152a3.14,3.14,0,0,0-.16,1,3.07,3.07,0,1,0,3.07-3.07,3.14,3.14,0,0,0-1,.16L40.29,130.94l-.11.11h-33l-2.76-4.79H31.47a3.07,3.07,0,1,0,0-2.72H2.81L2,122.06a14.4,14.4,0,0,1-1.37-3.25H47.43a3.07,3.07,0,1,0,0-2.73H.06a14.69,14.69,0,0,1,.34-4.72H31.47a3.06,3.06,0,1,0,0-2.74H1.35c.18-.39.38-.78.6-1.16L4,103.84H40.18l.11.11L59.43,84.81a2.88,2.88,0,0,0,1,.17,3.08,3.08,0,1,0-2.91-2.1L39.27,101.12H5.61L10,93.55H31.23a3.07,3.07,0,1,0,0-2.73H11.56L14.8,85.2h26a3.07,3.07,0,1,0,0-2.72H16.38l3.26-5.66h7.73a3.07,3.07,0,1,0,0-2.73H21.21l5.15-8.91H40.88a3.07,3.07,0,1,0,0-2.73h-13l3.23-5.58h18A3.07,3.07,0,0,0,55,55.5a3.07,3.07,0,0,0-5.81-1.36H32.74L36,48.56H57.53a3.07,3.07,0,1,0,0-2.73h-20l3.23-5.59H65.83a3.06,3.06,0,1,0,0-2.73H42.33L59.78,7.3A14.6,14.6,0,0,1,72.42,0h43.43l0,0L49.73,128.62Zm87-12.57a3.05,3.05,0,0,1,2.74,1.7H260.2a14.74,14.74,0,0,0,.21-4.73H207.65a3.07,3.07,0,1,1,0-2.72h52.16a14.06,14.06,0,0,0-1.26-2.84l-1.09-1.89H223.61a3.07,3.07,0,1,1,0-2.73h32.27l-2.61-4.52h-13.8a3.1,3.1,0,0,1-2.75,1.7,3.07,3.07,0,0,1,0-6.13,3.1,3.1,0,0,1,2.75,1.7H251.7l-.75-1.3-2.4-4.16H225.22a3.06,3.06,0,1,1,0-2.72H247l-3.24-5.61H208.84a3.07,3.07,0,1,1,0-2.73h33.32l-3.26-5.66H222.28a3.07,3.07,0,1,1,0-2.72h15l-3.78-6.55H217.6a3.06,3.06,0,1,1,0-2.72H232l-3.23-5.59H209.29a3.06,3.06,0,1,1,0-2.72h17.88L224,47.52H201a3.07,3.07,0,1,1,0-2.72h21.42l-3.23-5.59H192.66a3.07,3.07,0,1,1,0-2.72h24.91L200.72,7.3A14.59,14.59,0,0,0,188.08,0h-7.34l0,0h0L119.43,86h91.34L92.55,229.52h95.53a14.59,14.59,0,0,0,12.64-7.3l17.69-30.64H189.26a3.06,3.06,0,1,1,0-2.72H220l3.22-5.59H197.56a3.06,3.06,0,1,1,0-2.72h27.22L228,175H205.89a3.07,3.07,0,1,1,0-2.72h23.69l3.23-5.59H214.2a3.07,3.07,0,1,1,0-2.72h20.18l4.5-7.79H227.15a3.07,3.07,0,1,1,0-2.72h13.29l.66-1.14,3.27-5.65H214.28a3.07,3.07,0,1,1,0-2.73h31.66l3.24-5.62H227.26a3.07,3.07,0,1,1,0-2.72h23.49l3.26-5.65,1.12-1.92H215.81l-18.23,18.22a3,3,0,0,1,.17,1,3.07,3.07,0,1,1-3.07-3.06,2.92,2.92,0,0,1,1,.16l19.13-19.13.11.1h41.8l1.85-3.2a13.06,13.06,0,0,0,.79-1.59H223.61a3.06,3.06,0,1,1-2.74-4.42Z"/><path class="cls-1" d="M790.53,174.85a20.53,20.53,0,0,1,7-4.43,24.29,24.29,0,0,1,8.9-1.57,22.57,22.57,0,0,1,16.77,7l7.13-7a27.4,27.4,0,0,0-10.47-7.38,39.35,39.35,0,0,0-27.11-.22,31.4,31.4,0,0,0-10.43,6.56,29.69,29.69,0,0,0-6.91,9.91,33.42,33.42,0,0,0,0,25,30,30,0,0,0,6.87,9.91,30.88,30.88,0,0,0,10.38,6.56,36.09,36.09,0,0,0,13.08,2.3,42.68,42.68,0,0,0,12.77-1.95,32.58,32.58,0,0,0,11-5.78V189.62h-10.6v18.82a21.68,21.68,0,0,1-3.78,1.73,26.83,26.83,0,0,1-8.74,1.44,24.21,24.21,0,0,1-8.86-1.57,20.7,20.7,0,0,1-7-4.43,20.31,20.31,0,0,1-4.61-6.82,23.13,23.13,0,0,1,0-17.16A20.34,20.34,0,0,1,790.53,174.85Z"/><polygon class="cls-1" points="936.12 159.82 936.12 201.07 902.58 159.82 893.28 159.82 893.28 220.64 904.49 220.64 904.49 179.4 937.94 220.64 947.24 220.64 947.24 159.82 936.12 159.82"/><rect class="cls-1" x="839.62" y="159.82" width="44.4" height="9.56"/><polygon class="cls-1" points="873.87 185.1 873.87 194.4 850.92 194.4 850.92 194.41 839.62 194.41 839.62 185.1 873.87 185.1"/><polygon class="cls-1" points="885.24 211.09 885.24 220.64 839.62 220.64 839.62 211.08 850.92 211.08 850.92 211.09 885.24 211.09"/><polygon class="cls-1" points="610.74 200.07 577.2 158.82 567.9 158.82 567.9 219.64 579.11 219.64 579.11 178.4 612.57 219.64 621.87 219.64 621.87 158.82 610.74 158.82 610.74 200.07"/><polygon class="cls-1" points="740.35 158.82 728.09 158.82 712.76 180.29 697.16 158.82 684.3 158.82 705.7 188.56 683.17 219.64 696.03 219.64 712.34 196.49 728.88 219.64 741.82 219.64 719.06 188.19 740.35 158.82"/><rect class="cls-1" x="631.12" y="158.82" width="44.4" height="9.56"/><polygon class="cls-1" points="665.37 184.1 665.37 193.4 642.42 193.4 642.42 193.41 631.12 193.41 631.12 184.1 665.37 184.1"/><polygon class="cls-1" points="676.74 210.09 676.74 219.64 631.12 219.64 631.12 210.08 642.42 210.08 642.42 210.09 676.74 210.09"/><polyline class="cls-4" points="631.12 184.1 642.42 184.1 643.64 184.1"/><path class="cls-1" d="M759.91,193.89h-14a4,4,0,0,1,0-8h14a4,4,0,0,1,0,8Z"/></g></g></svg>