<?xml version="1.0" encoding="UTF-8"?>
<svg id="Layer_2" xmlns="http://www.w3.org/2000/svg" xmlns:xlink="http://www.w3.org/1999/xlink" viewBox="0 0 40 40">
  <defs>
    <style>
      .cls-1 {
        fill: none;
      }

      .cls-2 {
        fill: #f26128;
      }

      .cls-3 {
        clip-path: url(#clippath);
      }
    </style>
    <clipPath id="clippath">
      <rect class="cls-1" width="40" height="40"/>
    </clipPath>
  </defs>
  <g id="Layer_1-2" data-name="Layer_1">
    <g class="cls-3">
      <g>
        <path class="cls-2" d="M14.71,22.6l-.67,1.27c-.08.15-.05.33.07.45l1.58,1.57c.12.12.3.15.45.07l1.27-.66c.22.1.44.2.67.28l.43,1.36c.05.16.2.27.36.27h2.23c.17,0,.32-.11.36-.26l.43-1.36c.24-.08.46-.17.67-.28l1.27.66c.15.08.33.05.45-.07l1.57-1.57c.12-.12.15-.3.07-.45l-.66-1.27c.1-.21.19-.43.28-.68l1.37-.43c.16-.05.27-.2.27-.36v-2.22c0-.17-.1-.32-.26-.36l-1.36-.44c-.08-.24-.17-.47-.28-.68l.66-1.27c.08-.15.05-.33-.07-.45l-1.57-1.57c-.11-.12-.3-.15-.45-.07l-1.27.66c-.21-.1-.43-.19-.68-.28l-.43-1.37c-.05-.16-.2-.27-.36-.27h-2.23c-.17,0-.32.11-.36.27l-.43,1.37c-.25.08-.48.18-.68.28l-1.26-.66c-.15-.08-.33-.05-.45.07l-1.58,1.57c-.12.12-.15.3-.07.45l.67,1.27c-.11.22-.2.44-.28.68l-1.36.44c-.16.05-.26.2-.26.36v2.22c0,.17.11.32.27.36l1.36.43c.07.23.16.46.27.68ZM13.55,19.17l1.29-.42c.12-.04.22-.14.25-.25.09-.32.23-.62.38-.91.06-.11.07-.25,0-.36l-.62-1.2,1.17-1.17,1.19.62c.11.06.25.06.36,0,.26-.15.57-.27.92-.39.12-.04.22-.13.25-.25l.41-1.29h1.66l.41,1.29c.04.12.13.21.25.25.35.11.66.24.92.39.11.06.25.06.36,0l1.19-.62,1.17,1.17-.62,1.2c-.06.11-.06.25,0,.36.16.28.28.59.38.91.03.12.13.22.25.25l1.29.42v1.66l-1.29.41c-.12.04-.21.13-.25.25-.11.36-.24.66-.39.92-.06.11-.07.25,0,.36l.62,1.2-1.17,1.17-1.2-.62c-.11-.06-.25-.06-.35,0-.28.15-.59.28-.92.39-.12.04-.21.13-.25.25l-.41,1.28h-1.66l-.41-1.28c-.04-.12-.13-.21-.25-.25-.33-.1-.64-.24-.92-.39-.11-.06-.25-.06-.35,0l-1.2.62-1.17-1.17.62-1.2c.06-.11.06-.25,0-.36-.16-.28-.28-.59-.38-.92-.03-.12-.13-.22-.25-.26l-1.29-.41v-1.66h0Z"/>
        <path class="cls-2" d="M20,23.99c2.19,0,3.99-1.78,3.99-3.99s-1.78-3.99-3.99-3.99-3.99,1.78-3.99,3.99,1.79,3.99,3.99,3.99ZM20,16.79c1.77,0,3.22,1.44,3.22,3.22s-1.44,3.22-3.22,3.22-3.22-1.44-3.22-3.22,1.44-3.22,3.22-3.22Z"/>
        <path class="cls-2" d="M3.59,26.63c-1.18.68-1.59,2.19-.91,3.37.46.79,1.29,1.24,2.14,1.24.42,0,.85-.1,1.23-.33.27-.15.49-.35.68-.59l10.96,6.33c-.1.28-.17.57-.17.88,0,1.37,1.11,2.47,2.47,2.47s2.47-1.11,2.47-2.47c0-.31-.07-.61-.17-.88l10.96-6.33c.19.23.42.44.68.59.39.22.81.33,1.23.33.85,0,1.69-.44,2.15-1.24.68-1.18.28-2.69-.9-3.37-.27-.16-.56-.25-.85-.3v-12.68c.29-.05.58-.13.85-.28,1.18-.68,1.58-2.19.9-3.37-.69-1.18-2.19-1.59-3.37-.9-.26.15-.49.35-.68.59l-10.96-6.33c.1-.27.17-.57.17-.89,0-1.36-1.11-2.47-2.47-2.47s-2.47,1.11-2.47,2.47c0,.32.07.61.17.89l-10.97,6.33c-.19-.23-.41-.44-.68-.59-1.18-.68-2.69-.27-3.37.9-.68,1.18-.28,2.69.9,3.37.27.16.56.24.85.28v12.67c-.3.05-.59.14-.85.3ZM18.09,35.98l-10.98-6.33c.03-.08.07-.16.09-.24.14-.51.1-1.04-.09-1.53l4.9-2.83c1.61,2.54,4.4,4.25,7.59,4.39v5.66c-.61.1-1.15.42-1.52.88ZM11.31,20c0-4.79,3.9-8.69,8.69-8.69s8.69,3.9,8.69,8.69-3.9,8.69-8.69,8.69-8.69-3.9-8.69-8.69ZM20,39.23c-.94,0-1.7-.76-1.7-1.71s.76-1.7,1.7-1.7,1.7.76,1.7,1.7-.76,1.71-1.7,1.71ZM21.91,35.98c-.37-.47-.91-.79-1.52-.88v-5.66c3.19-.13,5.99-1.85,7.59-4.39l4.9,2.83c-.19.49-.22,1.01-.08,1.53.03.08.06.17.09.24l-10.98,6.33ZM36.03,27.29c.81.47,1.09,1.51.62,2.33-.47.81-1.51,1.09-2.33.62-.4-.23-.67-.6-.79-1.03s-.06-.9.17-1.29c.23-.4.6-.67,1.03-.79.15-.04.29-.06.44-.06.3,0,.59.08.85.23ZM33.53,10.8c.12-.44.4-.81.79-1.03.26-.15.56-.23.85-.23.59,0,1.16.31,1.48.85.47.82.19,1.85-.62,2.33-.4.23-.85.29-1.29.17-.44-.12-.81-.4-1.03-.8-.23-.39-.29-.85-.17-1.29ZM33.26,12.79c.33.41.76.7,1.28.83.08.02.17.02.26.03v12.68c-.08.01-.17.02-.26.04-.51.14-.95.43-1.28.83l-4.9-2.83c.69-1.32,1.08-2.81,1.08-4.39s-.4-3.08-1.08-4.39l4.9-2.82ZM21.91,4.02l10.97,6.33c-.03.08-.07.16-.09.24-.13.51-.1,1.04.08,1.53l-4.9,2.83c-1.61-2.54-4.4-4.26-7.59-4.39v-5.66c.62-.1,1.15-.42,1.53-.88ZM20,.77c.94,0,1.7.76,1.7,1.7s-.76,1.7-1.7,1.7-1.7-.77-1.7-1.7.76-1.71,1.7-1.71ZM18.09,4.02c.37.47.91.79,1.52.89v5.66c-3.19.13-5.99,1.84-7.59,4.39l-4.9-2.83c.19-.49.23-1.01.09-1.52-.02-.09-.06-.16-.09-.24l10.97-6.33ZM11.63,15.61c-.69,1.32-1.09,2.81-1.09,4.39s.4,3.08,1.09,4.39l-4.9,2.83c-.32-.41-.77-.7-1.27-.83-.09-.02-.17-.03-.26-.04v-12.68c.09-.01.17-.01.26-.03.51-.14.95-.43,1.27-.83l4.9,2.82ZM3.97,12.71c-.81-.47-1.09-1.51-.62-2.32.31-.55.89-.85,1.48-.85.29,0,.58.07.85.23.4.23.68.6.8,1.03s.06.9-.17,1.29c-.23.4-.6.67-1.03.8-.44.12-.91.06-1.3-.17ZM4.82,27.06c.15,0,.3.02.44.06.44.12.81.4,1.03.79.23.4.29.85.17,1.29-.11.44-.4.81-.8,1.03-.81.47-1.86.19-2.32-.62-.47-.81-.19-1.85.62-2.33.26-.15.55-.23.85-.23Z"/>
      </g>
    </g>
  </g>
</svg>