<?xml version="1.0" encoding="UTF-8"?>
<svg id="Layer_2" xmlns="http://www.w3.org/2000/svg" xmlns:xlink="http://www.w3.org/1999/xlink" viewBox="0 0 50 31">
  <defs>
    <style>
      .cls-1 {
        fill: #fff;
      }

      .cls-2 {
        fill: none;
      }

      .cls-3 {
        clip-path: url(#clippath);
      }
    </style>
    <clipPath id="clippath">
      <rect class="cls-2" width="50" height="31"/>
    </clipPath>
  </defs>
  <g id="Layer_1-2" data-name="Layer_1">
    <g class="cls-3">
      <path class="cls-1" d="M22.43,19.53h-2.9c-.83,0-1.51.68-1.51,1.51v8.23c0,.83.68,1.51,1.51,1.51h2.9c.83,0,1.51-.68,1.51-1.51v-8.23c0-.83-.68-1.51-1.51-1.51ZM22.8,29.27c0,.2-.16.37-.37.37h-2.9c-.2,0-.37-.16-.37-.37v-8.23c0-.2.16-.37.37-.37h2.9c.2,0,.37.16.37.37v8.23ZM30.74,15.52h-2.9c-.83,0-1.51.68-1.51,1.51v12.24c0,.83.68,1.51,1.51,1.51h2.9c.83,0,1.51-.68,1.51-1.51v-12.24c0-.83-.68-1.51-1.51-1.51ZM31.11,29.27c0,.2-.16.37-.37.37h-2.9c-.2,0-.37-.16-.37-.37v-12.24c0-.2.17-.37.37-.37h2.9c.2,0,.37.16.37.37v12.24ZM14.13,14.84h-2.9c-.83,0-1.51.68-1.51,1.51v13.14c0,.83.68,1.51,1.51,1.51h2.9c.83,0,1.51-.68,1.51-1.51v-13.14c0-.83-.68-1.51-1.51-1.51ZM14.5,29.49c0,.2-.16.37-.37.37h-2.9c-.2,0-.37-.16-.37-.37v-13.14c0-.2.16-.37.37-.37h2.9c.2,0,.37.16.37.37v13.14ZM38.77,10.36h-2.9c-.83,0-1.51.68-1.51,1.51v17.39c0,.83.68,1.51,1.51,1.51h2.9c.83,0,1.51-.68,1.51-1.51V11.87c0-.83-.68-1.51-1.51-1.51ZM39.13,29.27c0,.2-.16.37-.37.37h-2.9c-.2,0-.37-.16-.37-.37V11.87c0-.2.16-.37.37-.37h2.9c.2,0,.37.16.37.37v17.39ZM12.68,8.66c.56,0,1.07-.22,1.44-.58l4.83,2.83c-.03.15-.06.31-.06.47,0,1.15.94,2.09,2.09,2.09s2.09-.94,2.09-2.09c0-.13-.01-.26-.04-.38l4.83-2.4c.37.35.87.57,1.43.57,1.15,0,2.09-.94,2.09-2.09,0-.19-.03-.37-.07-.54l4.62-2.91c.37.33.86.54,1.39.54,1.15,0,2.09-.94,2.09-2.09s-.94-2.09-2.09-2.09-2.09.94-2.09,2.09c0,.2.03.4.08.58l-4.6,2.89c-.37-.35-.87-.57-1.43-.57-1.15,0-2.09.94-2.09,2.09,0,.19.03.37.07.54l-4.75,2.36c-.38-.42-.93-.68-1.54-.68-.58,0-1.1.24-1.48.62l-4.8-2.82c.04-.17.07-.34.07-.52,0-1.15-.94-2.09-2.09-2.09s-2.09.94-2.09,2.09.94,2.09,2.09,2.09h0ZM37.32,1.14c.52,0,.94.42.94.94s-.42.94-.94.94-.94-.42-.94-.94.42-.94.94-.94ZM29.29,6.14c.52,0,.94.42.94.94s-.42.94-.94.94-.94-.42-.94-.94.42-.94.94-.94ZM20.99,10.44c.52,0,.94.42.94.94s-.42.94-.94.94-.94-.42-.94-.94.42-.94.94-.94ZM12.68,5.63c.52,0,.94.42.94.94s-.42.94-.94.94-.94-.42-.94-.94.42-.94.94-.94Z"/>
    </g>
  </g>
</svg>