<?xml version="1.0" encoding="UTF-8"?>
<svg id="Layer_2" xmlns="http://www.w3.org/2000/svg" xmlns:xlink="http://www.w3.org/1999/xlink" viewBox="0 0 50 31">
  <defs>
    <style>
      .cls-1 {
        fill: #fff;
      }

      .cls-2 {
        fill: none;
      }

      .cls-3 {
        clip-path: url(#clippath);
      }
    </style>
    <clipPath id="clippath">
      <rect class="cls-2" width="50" height="31"/>
    </clipPath>
  </defs>
  <g id="Layer_1-2" data-name="Layer_1">
    <g class="cls-3">
      <g>
        <path class="cls-1" d="M41.58,13.9h-9.73c.07-.54.11-1.09.11-1.64C31.95,5.5,26.45,0,19.69,0S7.42,5.5,7.42,12.27s5.5,12.27,12.27,12.27c1.34,0,2.65-.21,3.9-.64v6.1c0,.55.45,1,1,1h16.98c.55,0,1-.45,1-1v-15.09c0-.55-.45-1-1-1ZM23.59,14.91v6.08c-1.23.55-2.54.83-3.9.83-5.27,0-9.55-4.28-9.55-9.55S14.42,2.71,19.69,2.71s9.55,4.28,9.55,9.55c0,.55-.05,1.1-.14,1.64h-4.5c-.55,0-1,.45-1,1h0ZM30.86,14.82h4.45v4.87l-1.99-1.18c-.07-.04-.15-.06-.23-.06s-.16.02-.23.06l-1.99,1.18v-4.87ZM19.69,23.62c-6.26,0-11.35-5.09-11.35-11.35S13.43.91,19.69.91s11.35,5.09,11.35,11.35c0,.55-.04,1.1-.12,1.64h-.9c.09-.54.13-1.09.13-1.64,0-5.77-4.69-10.46-10.46-10.46s-10.46,4.69-10.46,10.46,4.69,10.46,10.46,10.46c1.35,0,2.66-.25,3.9-.75v.95c-1.25.46-2.56.69-3.9.69ZM41.67,30s-.04.09-.09.09h-16.98s-.09-.04-.09-.09v-15.09s.04-.09.09-.09h4.88s0,0,0,0h.46v5.67c0,.16.09.32.23.4s.32.08.46,0l2.45-1.45,2.45,1.45c.07.04.15.06.23.06s.16-.02.23-.06c.14-.08.23-.23.23-.4v-5.67h5.35s.09.04.09.09v15.09Z"/>
        <path class="cls-1" d="M20.14,10.62v-2.63c0-.25-.2-.46-.46-.46s-.46.2-.46.46v2.63c-.72.2-1.25.86-1.25,1.65,0,.4.14.76.37,1.05l-2.09,1.84c-.19.17-.21.46-.04.64.09.1.22.16.34.16.11,0,.21-.04.3-.11l2.25-1.97c.18.07.38.11.59.11.94,0,1.71-.77,1.71-1.71,0-.78-.53-1.45-1.25-1.65ZM19.69,13.06c-.44,0-.8-.36-.8-.8s.36-.8.8-.8.8.36.8.8-.36.8-.8.8Z"/>
        <path class="cls-1" d="M19.69,6.52c.25,0,.46-.2.46-.46v-1.74c0-.25-.2-.46-.46-.46s-.46.2-.46.46v1.74c0,.25.2.46.46.46Z"/>
        <path class="cls-1" d="M24.4,8.2l1.23-1.23c.18-.18.18-.47,0-.65s-.47-.18-.65,0l-1.23,1.23c-.18.18-.18.47,0,.65.09.09.21.13.32.13s.23-.04.32-.13Z"/>
        <path class="cls-1" d="M25.43,12.27c0,.25.2.46.46.46h1.74c.25,0,.46-.2.46-.46s-.2-.46-.46-.46h-1.74c-.25,0-.46.2-.46.46Z"/>
        <path class="cls-1" d="M19.69,18.01c-.25,0-.46.2-.46.46v1.74c0,.25.2.46.46.46s.46-.2.46-.46v-1.74c0-.25-.2-.46-.46-.46Z"/>
        <path class="cls-1" d="M14.98,16.33l-1.23,1.23c-.18.18-.18.47,0,.65.09.09.21.13.32.13s.23-.04.32-.13l1.23-1.23c.18-.18.18-.47,0-.65s-.47-.18-.65,0Z"/>
        <path class="cls-1" d="M13.94,12.27c0-.25-.2-.46-.46-.46h-1.74c-.25,0-.46.2-.46.46s.2.46.46.46h1.74c.25,0,.46-.2.46-.46Z"/>
        <path class="cls-1" d="M14.98,8.2c.09.09.21.13.32.13s.23-.04.32-.13c.18-.18.18-.47,0-.65l-1.23-1.23c-.18-.18-.47-.18-.65,0s-.18.47,0,.65l1.23,1.23Z"/>
        <path class="cls-1" d="M28.41,26.58h-2.5c-.25,0-.46.2-.46.46s.2.46.46.46h2.5c.25,0,.46-.2.46-.46s-.2-.46-.46-.46Z"/>
        <path class="cls-1" d="M28.41,28.16h-2.5c-.25,0-.46.2-.46.46s.2.46.46.46h2.5c.25,0,.46-.2.46-.46s-.2-.46-.46-.46Z"/>
        <path class="cls-1" d="M30.35,2.61h5.55v7.13l-1.55-2.44c-.13-.21-.42-.28-.63-.14-.21.13-.28.42-.14.63l2.39,3.77s0,0,0,0c0,.01.02.02.03.04,0,0,0,0,.01.01,0,.01.02.02.03.03,0,0,0,0,.01.01,0,0,.02.02.03.02,0,0,0,0,.01,0,.01,0,.03.02.04.03,0,0,0,0,0,0,.02,0,.03.02.05.02,0,0,0,0,0,0,.01,0,.03,0,.04.01,0,0,0,0,.01,0,.01,0,.03,0,.04,0,0,0,0,0,.01,0,.02,0,.04,0,.05,0s.04,0,.05,0c0,0,0,0,.01,0,.01,0,.03,0,.04,0,0,0,0,0,.01,0,.01,0,.03,0,.04-.01,0,0,0,0,0,0,.03-.01.07-.03.09-.05,0,0,0,0,0,0,.01,0,.03-.02.04-.03,0,0,0,0,0,0,.04-.03.07-.07.09-.12l2.37-3.74c.14-.21.07-.5-.14-.63-.21-.14-.5-.07-.63.14l-1.54,2.44V2.16c0-.25-.2-.46-.46-.46h-6c-.25,0-.46.2-.46.46s.2.46.46.46Z"/>
      </g>
    </g>
  </g>
</svg>