<?xml version="1.0" encoding="UTF-8"?>
<svg id="Layer_2" xmlns="http://www.w3.org/2000/svg" xmlns:xlink="http://www.w3.org/1999/xlink" viewBox="0 0 50 31">
  <defs>
    <style>
      .cls-1 {
        fill: #fff;
      }

      .cls-2 {
        fill: none;
      }

      .cls-3 {
        clip-path: url(#clippath);
      }
    </style>
    <clipPath id="clippath">
      <rect class="cls-2" width="50" height="31"/>
    </clipPath>
  </defs>
  <g id="Layer_1-2" data-name="Layer_1">
    <g class="cls-3">
      <path class="cls-1" d="M39.62,31c-.98,0-1.86-.58-2.25-1.47l-.03-.06h-11.44l-.03.06c-.25.56-.69,1.01-1.25,1.25-.32.14-.65.21-1,.21-.97,0-1.86-.57-2.25-1.46l-.03-.06h-1.02l-.03.06c-.25.56-.69,1.01-1.25,1.25-.32.14-.65.21-1,.21-.97,0-1.86-.57-2.25-1.46l-.03-.06h-2.59c-.25,0-.44-.2-.44-.45v-1.55c0-.24.2-.44.44-.44h.5v-2.63h-.63c-.55,0-1.01-.45-1.01-1.01v-1.01l-.07-.02c-.5-.15-.99-.35-1.46-.6l-.07-.04-.72.72c-.19.19-.44.29-.71.29s-.52-.11-.71-.29l-1.67-1.67c-.39-.39-.39-1.03,0-1.43l.72-.72-.04-.07c-.25-.46-.45-.95-.6-1.46l-.02-.07h-1.01c-.56,0-1.01-.45-1.01-1.01v-2.36c0-.55.45-1.01,1.01-1.01h1.01l.02-.07c.15-.5.35-.99.6-1.46l.04-.07-.72-.72c-.39-.39-.39-1.03,0-1.42l1.67-1.67c.19-.19.44-.29.71-.29s.52.1.71.29l.72.72.07-.04c.46-.25.95-.45,1.46-.6l.07-.02v-1.01c0-.55.45-1.01,1.01-1.01h2.35c.55,0,1.01.45,1.01,1.01v1.01l.07.02c.5.15.99.35,1.46.6l.07.04.72-.72c.19-.19.44-.29.71-.29s.52.1.71.29l1.67,1.67c.39.39.39,1.03,0,1.42l-.72.72.04.07c.25.46.45.95.6,1.46l.02.07h1.01c.14,0,.27.03.4.08h3.74s-2.11-3.4-2.11-3.4c-.85-1.37-1.12-3.06-.74-4.63.38-1.59,1.4-2.98,2.8-3.82.18-.11.36-.21.55-.3l.1-.05c.81-.37,1.68-.55,2.58-.55s1.76.19,2.58.55l.1.05c.19.09.37.19.55.3,1.4.84,2.42,2.23,2.8,3.82.39,1.57.12,3.26-.74,4.63l-2.11,3.41h2.61c.25,0,.45.2.45.44v.76h.1c2.09.07,3.44.7,4,1.87l.02.05h.06c1.48.11,2.71,1.74,3.32,2.7.9,1.43,1.51,3.09,1.51,4.13v5.46c0,.71-.58,1.3-1.3,1.3h-2.15l-.03.06c-.25.56-.69,1-1.25,1.25-.32.14-.65.21-.99.21ZM39.61,26.96c-.42,0-.82.16-1.12.46-.3.3-.46.69-.46,1.11,0,.87.71,1.58,1.58,1.58.87,0,1.58-.71,1.58-1.58,0-.87-.71-1.58-1.58-1.58ZM23.61,26.96c-.42,0-.82.16-1.12.46-.3.3-.46.69-.46,1.12,0,.87.71,1.57,1.58,1.57.87,0,1.58-.71,1.58-1.58,0-.87-.71-1.58-1.58-1.58h0ZM18.04,26.96c-.42,0-.82.16-1.12.46s-.46.69-.46,1.11c0,.87.71,1.58,1.58,1.58.87,0,1.58-.71,1.58-1.58,0-.87-.71-1.58-1.58-1.58ZM39.61,26.06c1.34,0,2.44,1.09,2.46,2.43v.1h1.96c.23,0,.41-.18.41-.41v-5.02l-.08-.02c-1.64-.33-3.26-.65-4.09-.82-.34-.04-.67-.14-.96-.32-.21-.18-.32-.47-.27-.77,0-.53,0-1.45-.01-1.9-.05-.32,0-.56.15-.73.19-.2.43-.21.86-.22l2.53-.06-.13-.16c-.73-.9-1.48-1.4-2.09-1.4h-4.02v11.81h.82v-.1c.02-1.34,1.09-2.41,2.43-2.43h.03ZM26.03,28.05c.03.14.05.29.05.44v.1h9.37v-.66h-9.44l.02.12ZM20.46,28.05c.03.14.04.29.04.44v.1h.65v-.1c0-.15.02-.29.05-.44l.02-.12h-.79l.02.12ZM13.61,28.58h1.96v-.1c0-.15.02-.29.05-.44l.02-.12h-2.04v.66ZM23.61,26.07c.76,0,1.46.34,1.93.93l9.9.04v-13.39h-2.66l-2.32,3.66c-.04.06-.08.11-.14.14-.07.04-.15.07-.23.07-.16,0-.3-.08-.38-.21l-2.23-3.61-3.71-.05v2.38c0,.56-.45,1.01-1.01,1.01h-1.01l-.02.07c-.15.51-.35,1-.6,1.46l-.04.07.72.72c.19.19.29.44.29.71s-.1.52-.29.71l-1.67,1.67c-.19.19-.44.29-.71.29s-.52-.11-.71-.29l-.72-.72-.07.04c-.46.25-.96.45-1.46.6l-.07.02v1.01c0,.55-.45,1.01-1.01,1.01h-.84v2.63h1.47c.2-.19.33-.32.48-.44.44-.35.97-.53,1.52-.53.76,0,1.46.34,1.93.93l1.64.04c.2-.19.33-.32.48-.44.44-.35.97-.53,1.52-.53ZM12.92,23.49l.11.03h2.46l.03-.11v-1.71s.34-.08.34-.08c.7-.17,1.37-.45,1.98-.82l.3-.18,1.2,1.2h.16s1.74-1.73,1.74-1.73l-.05-.1-1.21-1.21.18-.3c.38-.61.65-1.28.82-1.98l.08-.34h1.79l.03-.11v-2.46s-.11-.03-.11-.03h-1.71s-.08-.34-.08-.34c-.17-.7-.45-1.37-.82-1.98l-.18-.3,1.2-1.2v-.03s0-.13,0-.13l-1.67-1.67h-.17s-1.21,1.2-1.21,1.2l-.3-.18c-.61-.38-1.28-.65-1.98-.82l-.34-.08v-1.79l-.11-.03h-2.46s-.03.11-.03.11v1.71s-.34.08-.34.08c-.7.17-1.37.44-1.98.82l-.3.18-1.2-1.21h-.16s-1.67,1.67-1.67,1.67v.17l1.2,1.21-.18.3c-.38.61-.65,1.28-.82,1.98l-.08.34h-1.8l-.03.11v2.46s.11.03.11.03h1.71l.08.34c.17.7.45,1.37.82,1.98l.18.3-1.27,1.27.07.1,1.67,1.67h.16s1.22-1.21,1.22-1.21l.3.18c.61.38,1.28.65,1.98.82l.34.08v1.79ZM39.96,19.28l-.04.1c.02.51.02,1.37,0,1.83v.08s.07.06.07.06c.13.03.32.07.45.1.78.16,2.26.46,3.8.76l.15.03-.04-.15c-.24-1-.64-1.96-1.18-2.84l-.24-.04-2.99.06ZM30.09.89c-.77,0-1.51.16-2.21.47l-.09.04c-.16.07-.32.16-.47.25-1.2.72-2.07,1.91-2.4,3.27-.33,1.34-.1,2.78.63,3.96l4.54,7.35,4.55-7.34c.73-1.17.96-2.62.63-3.96-.33-1.36-1.2-2.55-2.4-3.27-.15-.09-.31-.18-.47-.25l-.09-.04c-.7-.31-1.45-.47-2.21-.47ZM36.33,15.89h2.95v-.1c-.58-.59-1.5-.87-2.85-.93h-.1s0,1.03,0,1.03ZM38.45,24.02c-.24-.02-.42-.23-.4-.48.02-.22.19-.4.41-.41h.87c.24,0,.44.2.44.44,0,.24-.2.44-.45.44h-.87ZM14.13,19.81c-2.03-.07-3.77-1.28-4.51-3.1-.5-1.23-.48-2.57.03-3.79.52-1.22,1.48-2.16,2.7-2.66.59-.24,1.22-.36,1.85-.36,2.03,0,3.83,1.22,4.59,3.1.25.66.36,1.25.36,1.86,0,2.73-2.22,4.95-4.95,4.95h-.08ZM14.56,18.91h.11c.23-.04.46-.08.68-.15,2.15-.63,3.39-2.89,2.76-5.04l-.02-.07h-3.54v5.26ZM14.22,10.79c-2.24,0-4.06,1.82-4.06,4.06h0c0,2,1.43,3.68,3.4,4.01l.12.02v-5.68c0-.25.2-.44.44-.44h3.59l-.1-.16c-.76-1.14-2.02-1.81-3.38-1.81ZM30.09,6.26c-1.23,0-2.23-1-2.23-2.23s1-2.23,2.23-2.23,2.23,1,2.23,2.23c0,1.23-1,2.23-2.24,2.23h0ZM30.09,2.68c-.74,0-1.35.6-1.35,1.35,0,.74.6,1.34,1.34,1.35.74,0,1.35-.6,1.35-1.35s-.6-1.35-1.35-1.35Z"/>
    </g>
  </g>
</svg>