<?xml version="1.0" encoding="UTF-8"?>
<svg id="Layer_2" xmlns="http://www.w3.org/2000/svg" xmlns:xlink="http://www.w3.org/1999/xlink" viewBox="0 0 50 31">
  <defs>
    <style>
      .cls-1 {
        fill: #fff;
      }

      .cls-2 {
        fill: none;
      }

      .cls-3 {
        clip-path: url(#clippath);
      }
    </style>
    <clipPath id="clippath">
      <rect class="cls-2" width="50" height="31"/>
    </clipPath>
  </defs>
  <g id="Layer_1-2" data-name="Layer_1">
    <g class="cls-3">
      <path class="cls-1" d="M40.65,14.95c.16-.39.15-.82-.01-1.21l-4.43-10.46c-.34-.8-1.27-1.17-2.07-.84l-11.44,4.85c-.8.34-1.17,1.27-.84,2.07l4.43,10.46c.13.32.37.58.67.75l-.06.03c-.2.09-.42.09-.61,0-.2-.08-.35-.23-.44-.44L17.46.88c-.15-.37-.45-.66-.83-.8-.37-.14-.8-.11-1.15.07l-.18.09c-.66.34-.95,1.14-.67,1.82h0s1.68,3.9,1.68,3.9l-2.35-.23c-.01-.05-.02-.11-.04-.16-.1-.28-.32-.53-.59-.66-.43-.21-.92-.17-1.31-.13l-1.33.11c-.25.02-.53.04-.8.15-.46.19-.72.62-.65,1.1.06.48.42.85.9.91.07.01.14.02.21.02.18,0,.36-.03.53-.05.1-.02.2-.03.3-.04.17-.02.35-.03.52-.04.36-.03.74-.05,1.12-.11.39-.06.87-.18,1.08-.6h0l2.65.26,7.26,16.8c.06.14.14.27.23.38-.43.1-.84.27-1.23.54-1.55,1.09-1.78,2.94-1.32,4.28.27.77.73,1.39,1.32,1.81h-4.22c-.19,0-.34.15-.34.34s.15.34.34.34h17.45c.19,0,.34-.15.34-.34s-.15-.34-.34-.34h-9.28c.76-.51,1.35-1.29,1.56-2.18.35-1.47-.27-3-1.59-3.89-.19-.12-.37-.23-.57-.31l10.54-4.06c.41-.15.72-.46.89-.86s.18-.84.01-1.24c-.13-.33-.37-.59-.67-.76l2.84-1.2c.4-.18.7-.48.85-.87ZM27.68,27.98c-.29,1.24-1.47,2.22-2.73,2.27h0c-1.56.07-2.47-.97-2.81-1.96-.38-1.1-.2-2.62,1.07-3.51.5-.35,1.03-.5,1.53-.5.62,0,1.21.22,1.65.52,1.07.73,1.59,1.98,1.3,3.18ZM37,18.75c-.1.23-.28.41-.52.5l-11.03,4.24c-.41.15-.86-.04-1.02-.44L15.26,1.81c-.15-.36,0-.78.35-.96l.18-.09c.19-.1.41-.11.61-.04s.36.22.44.43l8.38,19.29c.15.37.44.65.81.8s.77.14,1.14-.01l8.64-3.68c.23-.1.48-.1.71,0s.41.27.5.5c.09.23.09.49-.02.72ZM28.1,20.04c-.22.1-.46.1-.69,0-.22-.09-.4-.26-.49-.49l-4.43-10.46c-.19-.46.02-.99.48-1.18l3.86-1.63.48,1.12c.13.31.38.56.7.69.15.06.32.1.48.1.17,0,.34-.03.5-.1l1.73-.74c.45-.19.66-.71.47-1.16l-.63-1.48,3.85-1.63c.11-.05.23-.07.35-.07.35,0,.69.21.83.55l4.43,10.46c.1.22.1.46,0,.69-.09.22-.26.4-.49.49l-11.45,4.85Z"/>
    </g>
  </g>
</svg>