<?xml version="1.0" encoding="UTF-8"?>
<svg id="Layer_2" xmlns="http://www.w3.org/2000/svg" xmlns:xlink="http://www.w3.org/1999/xlink" viewBox="0 0 50 50">
  <defs>
    <style>
      .cls-1 {
        fill: none;
      }

      .cls-2 {
        fill: #f26128;
      }

      .cls-3 {
        clip-path: url(#clippath);
      }
    </style>
    <clipPath id="clippath">
      <rect class="cls-1" width="50" height="50"/>
    </clipPath>
  </defs>
  <g id="Layer_1-2" data-name="Layer_1">
    <g class="cls-3">
      <path class="cls-2" d="M34.34,18.68l-8.59-4.96c-.46-.27-1.03-.27-1.5,0l-8.59,4.96c-.47.27-.75.76-.75,1.3v9.92c0,.54.28,1.03.75,1.3l8.59,4.96c.23.13.49.2.75.2s.52-.07.75-.2l8.59-4.96c.47-.27.75-.76.75-1.3v-9.92c0-.54-.28-1.03-.75-1.3ZM24.88,14.8s.09-.04.12-.04c.04,0,.08.01.12.04l8.09,4.67-8.22,4.74-8.22-4.74,8.09-4.67ZM16.28,30.11c-.09-.05-.12-.12-.12-.22v-9.34l8.22,4.74v9.49l-8.09-4.67ZM33.72,30.11l-8.09,4.67v-9.49l8.22-4.74v9.34c0,.1-.04.17-.12.22h0ZM46.26,18.94c.33-.19.53-.54.53-.92v-4.99c0-.38-.2-.73-.53-.92l-4.32-2.49c-.33-.19-.74-.19-1.06,0l-4.23,2.44-6.27-3.62V3.55c0-.38-.2-.73-.53-.92L25.54.14c-.33-.19-.74-.19-1.06,0l-4.32,2.49c-.33.19-.53.54-.53.92v4.88l-6.28,3.62-4.23-2.44c-.33-.19-.74-.19-1.06,0l-4.32,2.49c-.33.19-.53.54-.53.92v4.99c0,.38.2.73.53.92l4.23,2.44v7.24l-4.23,2.44c-.33.19-.53.54-.53.92v4.99c0,.38.2.73.53.92l4.32,2.49c.16.09.35.14.53.14s.37-.05.53-.14l4.23-2.44,6.27,3.62v4.88c0,.38.2.73.53.92l4.32,2.49c.16.09.35.14.53.14s.37-.05.53-.14l4.32-2.49c.33-.19.53-.54.53-.92v-4.88l6.27-3.62,4.23,2.44c.16.09.35.14.53.14s.37-.05.53-.14l4.32-2.49c.33-.19.53-.54.53-.92v-4.99c0-.38-.2-.73-.53-.92l-4.23-2.44v-7.24s4.23-2.44,4.23-2.44ZM41.41,33.76l-3.51-2.03,3.51-2.03,3.51,2.03-3.51,2.03ZM25,43.23l-3.51-2.03,3.51-2.03,3.51,2.03-3.51,2.03ZM29.76,40.49l-4.23-2.44c-.33-.19-.74-.19-1.06,0l-4.23,2.44-6.27-3.62v-4.88c0-.38-.2-.73-.53-.92l-4.23-2.44v-7.24s4.22-2.44,4.22-2.44c.33-.19.53-.54.53-.92v-4.88l6.27-3.62,4.23,2.44c.16.09.35.14.53.14s.37-.05.53-.14l4.23-2.44,6.27,3.62v4.88c0,.38.2.73.53.92l4.23,2.44v7.24l-4.23,2.44c-.33.19-.53.54-.53.92v4.88l-6.27,3.63ZM8.59,33.76l-3.51-2.03,3.51-2.03,3.51,2.03-3.51,2.03ZM9.21,15.89l3.51-2.03v4.06l-3.51,2.03v-4.06ZM24.38,6.41v4.06l-3.51-2.03v-4.06l3.51,2.03ZM25.62,6.41l3.51-2.03v4.06l-3.51,2.03v-4.06ZM40.79,19.94l-3.51-2.03v-4.06l3.51,2.03v4.06ZM42.03,19.94v-4.06l3.51-2.03v4.06l-3.51,2.03ZM41.41,10.75l3.51,2.03-3.51,2.03-3.51-2.03,3.51-2.03ZM25,1.28l3.51,2.03-3.51,2.03-3.51-2.03,3.51-2.03ZM8.59,10.75l3.51,2.03-3.51,2.03-3.51-2.03,3.51-2.03ZM4.45,13.86l3.51,2.03v4.06l-3.51-2.03v-4.06ZM4.45,32.81l3.51,2.03v4.06l-3.51-2.03v-4.06ZM9.21,38.89v-4.06l3.51-2.03v4.06l-3.51,2.03ZM20.86,42.28l3.51,2.03v4.06l-3.51-2.03v-4.06ZM25.62,48.37v-4.06l3.51-2.03v4.06l-3.51,2.03ZM37.27,32.81l3.51,2.03v4.06l-3.51-2.03v-4.06ZM42.03,38.89v-4.06l3.51-2.03v4.06l-3.51,2.03Z"/>
    </g>
  </g>
</svg>