<?xml version="1.0" encoding="UTF-8"?>
<svg id="Layer_2" xmlns="http://www.w3.org/2000/svg" xmlns:xlink="http://www.w3.org/1999/xlink" viewBox="0 0 50 50">
  <defs>
    <style>
      .cls-1 {
        fill: none;
      }

      .cls-2 {
        fill: #f26128;
      }

      .cls-3 {
        clip-path: url(#clippath);
      }
    </style>
    <clipPath id="clippath">
      <rect class="cls-1" width="50" height="50"/>
    </clipPath>
  </defs>
  <g id="Layer_1-2" data-name="Layer_1">
    <g class="cls-3">
      <g>
        <path class="cls-2" d="M11.49,24.97c.69-1.09,1.11-2.42,1.11-3.47v-1.94c0-2.68-2.04-4.86-4.54-4.86s-4.54,2.18-4.54,4.86c0,.18-.09,2.13-.09,2.15,0,.99.38,2.24,1.01,3.28C2.05,25.43.18,27.46.01,29.98c0,.04-.01.08-.01.12v.23c0,.08.02.17.05.24.37,1.92,2.74,4.73,4.51,4.73h6.95c1.77,0,4.14-2.82,4.51-4.73.03-.08.05-.16.05-.24v-.23s0-.08-.01-.12c-.17-2.56-2.09-4.62-4.56-5.02ZM4.79,19.55c0-1.98,1.47-3.59,3.27-3.59s3.27,1.62,3.27,3.6v1.94c0,1.78-1.45,4.27-2.87,4.27h-1.1c-1.37,0-2.66-2.53-2.66-4.03.01-.34.09-2.02.09-2.18ZM11.5,34.04h-6.95c-1.05,0-3.2-2.54-3.29-3.86.08-2.23,1.9-4,4.13-4.02.57.53,1.24.87,1.96.87h1.1c.75,0,1.44-.34,2.03-.87h.13c2.24,0,4.08,1.78,4.16,4.02-.09,1.31-2.23,3.86-3.29,3.86Z"/>
        <path class="cls-2" d="M49.99,29.98c-.17-2.56-2.09-4.61-4.55-5.02.69-1.09,1.11-2.42,1.11-3.47v-1.94c0-2.68-2.04-4.86-4.54-4.86s-4.54,2.18-4.54,4.86c0,.18-.09,2.13-.09,2.15,0,.99.38,2.24,1.01,3.28-2.41.44-4.28,2.47-4.44,5,0,.04-.01.08-.01.12v.23c0,.08.02.17.05.24.37,1.92,2.74,4.73,4.51,4.73h6.94c1.77,0,4.15-2.82,4.51-4.73.03-.08.05-.16.05-.24v-.23s0-.08-.01-.12ZM38.73,19.55c0-1.98,1.47-3.59,3.27-3.59s3.27,1.62,3.27,3.6v1.94c0,1.78-1.45,4.27-2.87,4.27h-1.1c-1.37,0-2.66-2.53-2.66-4.03.01-.34.09-2.02.09-2.18ZM45.44,34.04h-6.94c-1.05,0-3.2-2.54-3.29-3.86.08-2.23,1.9-4,4.13-4.02.57.53,1.24.87,1.96.87h1.1c.75,0,1.44-.34,2.03-.87h.12c2.24,0,4.08,1.78,4.16,4.02-.09,1.31-2.23,3.86-3.29,3.86Z"/>
        <path class="cls-2" d="M34.17,24.74c0-.19-.09-.38-.24-.5l-5.9-4.65c-.19-.15-.45-.18-.67-.07s-.36.33-.36.57v1.6l-3.36-.11c-.23-.01-.45.1-.57.3-.12.19-.13.44-.02.64.11.2.32.33.55.33l4.01.13c.17,0,.34-.06.46-.18.12-.12.19-.28.19-.46v-.95l4.24,3.34-4.24,3.34v-.95c0-.35-.28-.63-.63-.63h-3.77c-.35,0-.63.28-.63.63s.28.63.63.63h3.13v1.62c0,.35.28.63.63.63.14,0,.28-.05.39-.13l5.9-4.65c.15-.12.24-.3.24-.5Z"/>
        <path class="cls-2" d="M20.08,24.17h0c-.9-.33-1.27-.56-1.27-.91,0-.3.22-.59.91-.59.35,0,.7.05,1.03.16.13.04.27.03.39-.03s.21-.17.24-.31l.06-.25c.07-.25-.07-.5-.31-.58-.22-.07-.45-.12-.68-.15-.24-.03-.43-.23-.43-.48,0-.27-.22-.48-.48-.48h-.07c-.27,0-.48.22-.48.48v.14c0,.21-.14.4-.34.46-.92.29-1.44.96-1.44,1.79,0,1.02.77,1.55,1.9,1.93.78.26,1.12.52,1.12.92,0,.42-.41.65-1.01.65-.43,0-.85-.08-1.25-.24-.13-.05-.27-.04-.4.02-.12.06-.21.18-.25.31l-.07.29c-.06.24.07.49.31.57.31.11.63.19.96.23.24.03.42.24.43.48v.08c0,.27.22.48.48.48h.07c.27,0,.48-.22.48-.48v-.21c0-.21.14-.4.35-.46.99-.29,1.53-1.03,1.53-1.87,0-.95-.51-1.53-1.76-1.97Z"/>
      </g>
    </g>
  </g>
</svg>