<?xml version="1.0" encoding="UTF-8"?>
<svg id="Layer_2" xmlns="http://www.w3.org/2000/svg" xmlns:xlink="http://www.w3.org/1999/xlink" viewBox="0 0 50 50">
  <defs>
    <style>
      .cls-1 {
        fill: none;
      }

      .cls-2 {
        clip-path: url(#clippath);
      }

      .cls-3 {
        fill: #f16027;
      }
    </style>
    <clipPath id="clippath">
      <rect class="cls-1" width="50" height="50"/>
    </clipPath>
  </defs>
  <g id="Layer_1-2" data-name="Layer_1">
    <g class="cls-2">
      <path class="cls-3" d="M13.94,6.96c0-.37.3-.67.67-.67h25.31c.37.02.65.34.62.71-.02.33-.29.6-.62.62H14.61c-.37,0-.67-.3-.67-.66ZM5.32,7.62h.27c.37.02.68-.25.71-.62.02-.37-.25-.68-.62-.71-.03,0-.06,0-.09,0h-.27c-.37-.02-.68.25-.71.62-.02.37.25.68.62.71.03,0,.06,0,.09,0ZM7.9,7.62h.27c.37.02.68-.25.71-.62.02-.37-.25-.68-.62-.71-.03,0-.06,0-.09,0h-.27c-.37.02-.65.34-.62.71.02.33.29.6.62.62h0ZM10.48,7.62h.27c.37.02.68-.25.71-.62.02-.37-.25-.68-.62-.71-.03,0-.06,0-.09,0h-.27c-.37.02-.65.34-.62.71.02.33.29.6.62.62ZM50,6.03v37.94c0,2.29-1.86,4.14-4.14,4.14H4.14c-2.29,0-4.14-1.86-4.14-4.14V6.03C0,3.74,1.86,1.89,4.14,1.88h41.71c2.29,0,4.14,1.86,4.14,4.14ZM1.33,6.03v4.58h47.34v-4.58c0-1.55-1.26-2.81-2.81-2.81H4.14c-1.55,0-2.81,1.26-2.81,2.81ZM48.67,43.97V11.94H1.33v32.03c0,1.55,1.26,2.81,2.81,2.81h41.71c1.55,0,2.81-1.26,2.81-2.81h0ZM44.65,34.08v2.85c0,.62-.5,1.12-1.12,1.12h-.96c-.08.22-.17.43-.26.63l.68.68c.44.44.44,1.15,0,1.58l-2.01,2.01c-.44.44-1.15.44-1.58,0l-.68-.68c-.21.1-.42.19-.63.26v.97c0,.62-.5,1.12-1.12,1.12h-2.85c-.62,0-1.12-.5-1.12-1.12v-.96c-.21-.08-.43-.17-.63-.26l-.68.68c-.44.44-1.15.44-1.58,0l-2.01-2.01c-.44-.44-.44-1.15,0-1.58l.68-.68c-.1-.21-.18-.42-.26-.63h-.96c-.17,0-.33-.04-.48-.11H10.68c-2.95-.03-5.31-2.44-5.28-5.39.03-2.91,2.38-5.25,5.28-5.28.04,0,.09,0,.13,0-1.32-2.64-.25-5.85,2.39-7.16,1.11-.55,2.38-.71,3.59-.43.53-1.3,1.39-2.43,2.51-3.27,2.73-2.05,6.48-2.05,9.21,0,1.12.84,1.99,1.97,2.51,3.27,2.87-.67,5.74,1.12,6.41,3.99.21.92.18,1.88-.1,2.79.45.16.75.58.75,1.06v.96c.22.08.43.17.63.26l.68-.68c.44-.44,1.15-.44,1.58,0l2.01,2.01c.44.44.44,1.14,0,1.58l-.68.68c.1.21.19.42.26.63h.96c.62,0,1.12.5,1.12,1.12h0ZM11.58,24.87c0,.71.18,1.4.54,2.01.53-1.08,1.31-2.03,2.28-2.76,2.73-2.05,6.48-2.05,9.21,0,1.12.84,1.99,1.97,2.51,3.27.39-.09.8-.14,1.2-.14.98,0,1.94.27,2.78.78.44-.43,1.14-.42,1.57.01l.68.68c.21-.1.42-.19.63-.26v-.96c0-.62.5-1.12,1.12-1.12h1.83c.84-2.05-.15-4.39-2.19-5.22-.93-.38-1.96-.4-2.9-.05-.35.13-.73-.05-.86-.4,0-.01,0-.02-.01-.03-1.02-3.35-4.57-5.24-7.92-4.21-2.02.62-3.6,2.2-4.21,4.21-.11.35-.48.55-.83.44-.01,0-.02,0-.03-.01-2.08-.77-4.38.3-5.15,2.37-.16.44-.25.91-.25,1.39h0ZM10.68,36.6h15.74v-2.52c0-.62.5-1.12,1.12-1.12h.96c.08-.21.17-.43.26-.63l-.68-.68c-.44-.44-.44-1.15,0-1.58l1.05-1.05c-.99-.5-2.15-.56-3.19-.18-.35.13-.73-.05-.86-.4,0-.01,0-.02-.01-.03-1.02-3.35-4.57-5.24-7.92-4.21-2.02.62-3.6,2.2-4.21,4.21,0,.01,0,.02-.01.03h0c-.13.35-.51.53-.85.4-2.08-.77-4.38.29-5.15,2.37-.77,2.08.29,4.38,2.37,5.15.44.16.91.25,1.39.25h0ZM43.32,34.29h-1.23c-.3,0-.56-.2-.64-.48-.13-.45-.31-.88-.53-1.29-.14-.26-.1-.58.11-.79l.87-.87-1.71-1.71-.87.87c-.21.21-.53.26-.79.11-.41-.23-.84-.41-1.29-.53-.29-.08-.48-.34-.48-.64v-1.23h-2.42v1.23c0,.3-.2.56-.48.64-.45.13-.88.31-1.29.53-.26.14-.58.1-.79-.11l-.87-.87-1.71,1.71.87.87c.21.21.26.53.11.79-.23.41-.41.84-.53,1.29-.08.29-.34.48-.64.48h-1.23v2.42h1.23c.3,0,.56.2.64.48.13.45.31.88.53,1.29.14.26.1.58-.11.79l-.87.87,1.71,1.71.87-.87c.21-.21.53-.26.79-.11.41.23.84.41,1.29.53.29.08.48.34.48.64v1.23h2.42v-1.23c0-.3.2-.56.48-.64.45-.13.88-.31,1.29-.53.26-.14.58-.1.79.11l.87.87,1.71-1.71-.87-.87c-.21-.21-.26-.53-.11-.79.23-.41.41-.84.53-1.29.08-.29.34-.48.64-.48h1.23v-2.42ZM39.28,35.5c0,2.07-1.68,3.75-3.75,3.75-2.07,0-3.75-1.68-3.75-3.75,0-2.07,1.68-3.75,3.75-3.75h0c2.07,0,3.74,1.68,3.75,3.75ZM37.95,35.5c0-1.33-1.08-2.42-2.42-2.42s-2.42,1.08-2.42,2.42,1.08,2.42,2.42,2.42h0c1.33,0,2.42-1.08,2.42-2.42h0Z"/>
    </g>
  </g>
</svg>