<svg id="svg31911" xmlns="http://www.w3.org/2000/svg" xmlns:xlink="http://www.w3.org/1999/xlink" viewBox="0 0 60.04 60"><defs><style>.cls-1{fill:none;}.cls-2{clip-path:url(#clip-path);}.cls-3{fill:#ce3544;}</style><clipPath id="clip-path" transform="translate(-18.98)"><rect class="cls-1" width="98" height="60"/></clipPath></defs><g class="cls-2"><path class="cls-3" d="M65.51,55.6a1,1,0,0,1-.15-.46c0-.69,0-1.39,0-2.08,0-1.16-.06-2.33-.22-3.48a14.8,14.8,0,0,0-2.9-7,1,1,0,0,1-.17-.59c0-1,.12-2,.12-3.05a3.56,3.56,0,0,0-2.29-3.18A5.15,5.15,0,0,0,58,35.55H49.51a1,1,0,0,1-1.08-.69,1.53,1.53,0,0,1-.12-.6c0-.79,0-1.58,0-2.37a.39.39,0,0,1,.15-.28,11,11,0,0,0,3-3.1.52.52,0,0,1,.35-.18c.45,0,.9,0,1.35,0a4.86,4.86,0,0,0,1.48-.28,3.5,3.5,0,0,0,2.18-3.38V18.23a2.8,2.8,0,0,0-1.39-2.45.35.35,0,0,1-.19-.35c0-1.37,0-2.74,0-4.11a5.16,5.16,0,0,0-.09-1,3.76,3.76,0,0,0-3.5-3c-.41,0-.4,0-.44-.45a3.36,3.36,0,0,0-.51-1.6,3.81,3.81,0,0,0-3.37-1.87c-3.09,0-6.18,0-9.26,0a8.2,8.2,0,0,0-2.6.39,8.37,8.37,0,0,0-5.72,7.7c0,1.32,0,2.64,0,4a.4.4,0,0,1-.22.39,2.66,2.66,0,0,0-1.35,2.27c0,1.17,0,2.34,0,3.51a2.83,2.83,0,0,0,2.93,2.82h1a2.58,2.58,0,0,1,.07.34,10.32,10.32,0,0,0,1.3,3.64,9.72,9.72,0,0,0,3,3.14.55.55,0,0,1,.3.54c0,.34,0,.67,0,1a13.57,13.57,0,0,1-.05,1.43,1.09,1.09,0,0,1-1.23,1.07h-.59c-2.95,0-5.9,0-8.85,0a3.46,3.46,0,0,0-3.16,3.22c0,1.1.08,2.2.11,3.3a.71.71,0,0,1-.14.43,15.73,15.73,0,0,0-2,3.5,14.43,14.43,0,0,0-1.1,4.89c-.06,1.39,0,2.79-.06,4.19a.65.65,0,0,1,0,.28c-.22.44-.44.86-.67,1.29v1.06c0,.1.09.19.13.29A2.64,2.64,0,0,0,21,59.85a6.49,6.49,0,0,0,1.59.14H62.82c.22,0,.45,0,.67,0a2.71,2.71,0,0,0,2.31-1.66A2.67,2.67,0,0,0,65.51,55.6ZM61.87,45.3c1.65,2.9,1.83,6,1.7,9.13H61.38C61.54,51.4,61.7,48.38,61.87,45.3Zm-12.09-18a.65.65,0,0,1-.66.63H47a.62.62,0,0,1-.65-.64.65.65,0,0,1,.69-.63H49.1a.63.63,0,0,1,.68.61Zm2.68-.77c.12-.56.25-1.12.37-1.67s.11-.48.62-.5,1.06-.07,1.6-.11C55.33,25.38,54.65,26.88,52.46,26.56Zm2.6-8.71c0,.21,0,.42,0,.63,0,1,0,2,0,3a1.11,1.11,0,0,1-1.19,1.19c-.29,0-.58,0-.91,0v-.57c0-.8,0-1.6,0-2.4a.39.39,0,0,1,.31-.46A3.13,3.13,0,0,0,55.06,17.85Zm-23,4.8a9.31,9.31,0,0,1-1.31-.08A1,1,0,0,1,30,21.8a1.37,1.37,0,0,1-.05-.28l0-3.45a2,2,0,0,1,0-.24c.17.22.31.43.48.61a2.74,2.74,0,0,0,1.32.78c.15.05.24.11.24.3Zm.48-5-.27-.1c-.58-.19-.72-.37-.72-1,0-1.71,0-3.44,0-5.15A6.56,6.56,0,0,1,37,5.2a5.52,5.52,0,0,1,1-.09c3.17,0,6.33,0,9.5,0a2,2,0,0,1,2,1.54,5.21,5.21,0,0,1,.09.69A1.81,1.81,0,0,0,51.24,9a2.51,2.51,0,0,1,1.36.37A2,2,0,0,1,53.5,11c0,1.76,0,3.52,0,5.28v.06c0,.94-.05,1-1,1.27-.51.16-1,.35-1.55.54,0-.22,0-.4,0-.58,0-1,0-2.09,0-3.14a3.94,3.94,0,0,0-3.27-3.83,5.36,5.36,0,0,0-2.32.19,9.73,9.73,0,0,1-3.94.35c-.77-.11-1.53-.31-2.29-.48a4,4,0,0,0-5,4c0,1,0,2.07,0,3.11,0,.09,0,.19,0,.34Zm2.6,10.06a7.83,7.83,0,0,1-1.26-3.88c-.05-1.24,0-2.48-.05-3.72a.37.37,0,0,1,0-.11,7.3,7.3,0,0,0,1.09-.39A1.7,1.7,0,0,0,35.81,18c0-1.14,0-2.29,0-3.42a2.08,2.08,0,0,1,1.48-2.21,2.94,2.94,0,0,1,1.32-.05c.72.11,1.42.36,2.14.47a10.85,10.85,0,0,0,4.84-.31,3.57,3.57,0,0,1,2-.15,2.07,2.07,0,0,1,1.52,1.88c.05,1.13,0,2.26,0,3.4a2.35,2.35,0,0,0,.23,1.25,2,2,0,0,0,1.81,1c-.08,1.92.19,3.85-.39,5.78a2.52,2.52,0,0,0-2.06-.75c-.6,0-1.19,0-1.79,0a2.41,2.41,0,0,0-2.46,2.29,2.38,2.38,0,0,0,2.3,2.49c.37,0,.73,0,1.1,0l0,.09-.78.53a8.84,8.84,0,0,1-9,.19A8.57,8.57,0,0,1,35.11,27.68ZM46.8,35.53H38.21a7.78,7.78,0,0,0,.3-2.88,10.65,10.65,0,0,0,8,0A8.38,8.38,0,0,0,46.8,35.53Zm-23.65,9.8c0,.69.07,1.32.11,2,0,.2,0,.41,0,.61a.86.86,0,0,0,.89.78h0a.81.81,0,0,0,.79-.83c0-.7-.05-1.4-.08-2.11-.11-2.15-.23-4.31-.35-6.46a1.84,1.84,0,0,1,1.92-2h31.8a2,2,0,0,1,1.67.61,1.87,1.87,0,0,1,.45,1.36c-.06,1.26-.13,2.53-.2,3.8l-.33,6.17c-.09,1.69-.19,3.38-.28,5.06l0,.13H43.9a1.29,1.29,0,0,1-.32,0H41.26a.42.42,0,0,1-.16,0H25.42c0-.56-.07-1.1-.1-1.65,0-.29,0-.58-.06-.87a.92.92,0,0,0-.91-.89.89.89,0,0,0-.83,1c0,.73.07,1.46.11,2.2v.22H21.46C21.33,51.31,21.48,48.21,23.15,45.33ZM63.33,58.21H22a1.55,1.55,0,0,1-.73-.15,1,1,0,0,1,.32-1.81,4.41,4.41,0,0,1,.73,0h41a1,1,0,0,1,.91.58A1,1,0,0,1,63.33,58.21Z" transform="translate(-18.98)"/><path class="cls-3" d="M75.67,0l.77.17A3.45,3.45,0,0,1,79,3.47V5.11a.94.94,0,0,1-.89.94.89.89,0,0,1-.86-.9c0-.47,0-.94,0-1.41a1.76,1.76,0,0,0-2-2h-7.5c-2.19,0-4.38,0-6.56,0a3.36,3.36,0,0,0-.9.09,1.56,1.56,0,0,0-1.19,1.4,3.83,3.83,0,0,0,0,.47v7a1.67,1.67,0,0,0,.82,1.56,2.29,2.29,0,0,0,.94.24,2.36,2.36,0,0,1,2,1.34A2.78,2.78,0,0,1,63.13,15c0,1.09,0,2.18,0,3.27l.08,0,.6-1c.71-1.19,1.42-2.4,2.15-3.59A2.3,2.3,0,0,1,68,12.55h7.39a1.67,1.67,0,0,0,1.81-1.75c0-.47,0-.94,0-1.41a.88.88,0,1,1,1.76,0A15.45,15.45,0,0,1,79,11.32a3.43,3.43,0,0,1-3.39,3q-3.66,0-7.33,0a1,1,0,0,0-.91.53Q65.8,17.4,64.23,20a2.54,2.54,0,0,1-.75.78,1.37,1.37,0,0,1-2-.75,2.94,2.94,0,0,1-.12-.89c0-1.29,0-2.58,0-3.87,0-.75-.14-.91-.88-1a3.39,3.39,0,0,1-3.13-3.09c-.05-1,0-1.92,0-2.87,0-1.7,0-3.4,0-5.1a3.33,3.33,0,0,1,3-3.15c.1,0,.21,0,.31-.07Z" transform="translate(-18.98)"/><path class="cls-3" d="M68.19,8.5h6a.91.91,0,0,1,.93.86.89.89,0,0,1-.9.89h-12a.9.9,0,0,1-.86-.9.87.87,0,0,1,.88-.84c.76,0,1.52,0,2.28,0Z" transform="translate(-18.98)"/><path class="cls-3" d="M70.37,6.12c-1.29,0-2.58,0-3.87,0a.84.84,0,0,1-.85-.85.89.89,0,0,1,.09-.39.78.78,0,0,1,.71-.48l1.41,0H74a1.83,1.83,0,0,1,.57.08.86.86,0,0,1-.32,1.66H70.37Z" transform="translate(-18.98)"/><path class="cls-3" d="M62.62,6.11h-.55a.86.86,0,0,1-.78-.84A.81.81,0,0,1,62,4.4a7.88,7.88,0,0,1,1.19,0,.86.86,0,0,1,.77.88.88.88,0,0,1-.83.83Z" transform="translate(-18.98)"/><circle class="cls-3" cx="23.53" cy="46.4" r="2.31"/></g></svg>