<svg id="svg31911" xmlns="http://www.w3.org/2000/svg" xmlns:xlink="http://www.w3.org/1999/xlink" viewBox="0 0 66.49 60"><defs><style>.cls-1{fill:none;}.cls-2{clip-path:url(#clip-path);}.cls-3{fill:#ce3544;}</style><clipPath id="clip-path" transform="translate(-15.76)"><rect class="cls-1" width="98" height="60"/></clipPath></defs><g class="cls-2"><path class="cls-3" d="M81.43,9.73H62a.81.81,0,1,0,0,1.62H80.62v37.3H17.38V11.35H36a.81.81,0,0,0,0-1.62H16.57a.8.8,0,0,0-.81.81V49.46a.8.8,0,0,0,.81.81H42.51l-3.65,4.87H34.41a.8.8,0,0,0-.82.81v3.24a.81.81,0,0,0,.82.81H63.59a.81.81,0,0,0,.82-.81V56a.8.8,0,0,0-.82-.81H59.14l-3.65-4.87H81.43a.8.8,0,0,0,.81-.81V10.54A.8.8,0,0,0,81.43,9.73Zm-18.65,47v1.62H35.22V56.76H62.78Zm-5.67-1.62H40.89l3.65-4.87h8.92Z" transform="translate(-15.76)"/><path class="cls-3" d="M36,14.59A.81.81,0,0,0,36,13H19.81a.81.81,0,0,0-.81.81V46.22a.81.81,0,0,0,.81.81H78.19a.81.81,0,0,0,.81-.81V13.78a.81.81,0,0,0-.81-.81H62a.81.81,0,1,0,0,1.62H77.38V45.41H20.62V14.59Z" transform="translate(-15.76)"/><path class="cls-3" d="M39.27,7.64v4.17a.7.7,0,0,0,.7.7h2.32l-1.64,1.64a.69.69,0,0,0,0,1l2.94,2.94a.71.71,0,0,0,1,0l1.64-1.64v2.32a.7.7,0,0,0,.7.7h4.16a.7.7,0,0,0,.7-.7V16.44l1.64,1.64a.71.71,0,0,0,1,0l2.94-2.94a.69.69,0,0,0,0-1l-1.64-1.64H58a.7.7,0,0,0,.7-.7V7.64A.69.69,0,0,0,58,7H55.71l1.64-1.64a.69.69,0,0,0,0-1L54.41,1.38a.71.71,0,0,0-1,0L51.78,3V.69a.69.69,0,0,0-.7-.69H46.92a.69.69,0,0,0-.7.69V3L44.58,1.38a.71.71,0,0,0-1,0L40.65,4.32a.69.69,0,0,0,0,1L42.29,7H40A.69.69,0,0,0,39.27,7.64Zm1.39.7H44a.7.7,0,0,0,.64-.43.67.67,0,0,0-.16-.75L42.12,4.82l2-2,2.33,2.33a.7.7,0,0,0,.76.16.69.69,0,0,0,.44-.64V1.39h2.78V4.7a.7.7,0,0,0,.43.64.66.66,0,0,0,.75-.16l2.34-2.33,2,2L53.53,7.16A.69.69,0,0,0,54,8.34h3.32v2.78H54a.7.7,0,0,0-.64.43.68.68,0,0,0,.16.75l2.33,2.34-2,2-2.33-2.34a.74.74,0,0,0-.76-.15.69.69,0,0,0-.44.64v3.31H47.61V14.76a.7.7,0,0,0-.43-.64.67.67,0,0,0-.75.15l-2.34,2.34-2-2,2.34-2.34a.69.69,0,0,0,.15-.75.72.72,0,0,0-.65-.43H40.66Z" transform="translate(-15.76)"/><path class="cls-3" d="M49,12.16a2.43,2.43,0,1,0-2.43-2.43A2.43,2.43,0,0,0,49,12.16Zm0-3.89a1.46,1.46,0,1,1-1.46,1.46A1.46,1.46,0,0,1,49,8.27Z" transform="translate(-15.76)"/><path class="cls-3" d="M38.27,28.6a5.41,5.41,0,0,0-4.65,4.57.59.59,0,0,0,.21.56.61.61,0,0,0,.61.09l3.84-1.53a.61.61,0,0,1,.78.34l.88,2.23a.6.6,0,0,1-.34.79l-3.84,1.52a.56.56,0,0,0-.37.47.54.54,0,0,0,.22.55A5.48,5.48,0,0,0,39,39.36,5.27,5.27,0,0,0,40.94,39a5.41,5.41,0,0,0,3.4-4.57L55.44,30a5.4,5.4,0,0,0,9-3.22.61.61,0,0,0-.22-.56.59.59,0,0,0-.6-.09l-3.85,1.53a.61.61,0,0,1-.78-.34l-.87-2.23a.59.59,0,0,1,.33-.78l3.85-1.53a.57.57,0,0,0,.37-.47.54.54,0,0,0-.23-.55,5.38,5.38,0,0,0-8.72,3.76L42.57,29.94A5.41,5.41,0,0,0,38.27,28.6ZM42,31.07a.58.58,0,0,0,.66.14l11.82-4.67a.63.63,0,0,0,.39-.56,4.19,4.19,0,0,1,2.65-3.88,4.12,4.12,0,0,1,3.16,0L58,23.22a1.8,1.8,0,0,0-1,2.34l.88,2.24a1.8,1.8,0,0,0,2.34,1l2.73-1.08a4.18,4.18,0,0,1-3.32,2.46A4.24,4.24,0,0,1,56,28.92a.57.57,0,0,0-.66-.15L43.53,33.45a.61.61,0,0,0-.38.55,4.2,4.2,0,0,1-2.66,3.88,4.07,4.07,0,0,1-3.16-.05l2.72-1.07a1.8,1.8,0,0,0,1-2.34l-.88-2.24a1.8,1.8,0,0,0-2.34-1l-2.73,1.09A4.2,4.2,0,0,1,42,31.07Z" transform="translate(-15.76)"/></g></svg>