<svg id="svg31911" xmlns="http://www.w3.org/2000/svg" xmlns:xlink="http://www.w3.org/1999/xlink" viewBox="0 0 60 60"><defs><style>.cls-1{fill:none;}.cls-2{clip-path:url(#clip-path);}.cls-3{fill:#db3645;}</style><clipPath id="clip-path" transform="translate(-19)"><rect class="cls-1" width="98" height="60"/></clipPath></defs><g class="cls-2"><g id="Page-1"><g id="_023---QA-Testing-Laptop" data-name="023---QA-Testing-Laptop"><path id="Shape" class="cls-3" d="M77,48V12a5,5,0,0,0-5-5H61.73a2,2,0,0,0-.58-1.48L59.48,3.85A2,2,0,0,0,57,3.6L54.39,5.29a10.8,10.8,0,0,0-1.65-.68l-.6-3a2,2,0,0,0-2-1.61H47.82a2,2,0,0,0-2,1.61l-.62,3a10.8,10.8,0,0,0-1.65.68L41,3.6a2,2,0,0,0-2.52.25L36.85,5.52A2,2,0,0,0,36.27,7H26a5,5,0,0,0-5,5V48a2,2,0,0,0-2,2v3a7,7,0,0,0,7,7H72a7,7,0,0,0,7-7V50a2,2,0,0,0-2-2ZM39.93,5.27,42.48,7a2,2,0,0,0,2,.11,9.86,9.86,0,0,1,1.35-.56A2.05,2.05,0,0,0,47.22,5l.6-3h2.36l.6,3a2,2,0,0,0,1.36,1.51,11.3,11.3,0,0,1,1.35.56,2,2,0,0,0,2-.11l2.54-1.7,1.67,1.67L58,9.48a2,2,0,0,0-.11,2,9.48,9.48,0,0,1,.56,1.36A2,2,0,0,0,60,14.22l3,.6v2.36l-3,.6a2,2,0,0,0-1.51,1.36,11.3,11.3,0,0,1-.56,1.35,2,2,0,0,0,.11,2l1.7,2.54-1.67,1.67L55.52,25a2,2,0,0,0-2-.11,9.48,9.48,0,0,1-1.36.56A2,2,0,0,0,50.78,27l-.6,3H47.82l-.6-3a2,2,0,0,0-1.36-1.51,11.3,11.3,0,0,1-1.35-.56,2,2,0,0,0-2,.11l-2.54,1.7-1.67-1.67L40,22.52a2,2,0,0,0,.11-2,9.48,9.48,0,0,1-.56-1.36A2,2,0,0,0,38,17.78l-3-.6V14.82l3-.6a2,2,0,0,0,1.51-1.36,11.3,11.3,0,0,1,.56-1.35,2,2,0,0,0-.11-2l-1.7-2.54ZM23,12a3,3,0,0,1,3-3H37.23l1.06,1.61a10.8,10.8,0,0,0-.68,1.65l-3,.6a2,2,0,0,0-1.61,2v2.36a2,2,0,0,0,1.61,2l3,.62a10.8,10.8,0,0,0,.68,1.65L36.6,24a2,2,0,0,0,.25,2.52l1.67,1.67A2,2,0,0,0,41,28.4l2.57-1.69a11.12,11.12,0,0,0,1.64.68l.6,3a2,2,0,0,0,2,1.61h2.36a2,2,0,0,0,2-1.61l.62-3a10.8,10.8,0,0,0,1.65-.68L57,28.4a2,2,0,0,0,2.52-.25l1.67-1.67A2,2,0,0,0,61.4,24l-1.69-2.57a10.8,10.8,0,0,0,.68-1.65l3-.6a2,2,0,0,0,1.61-2V14.82a2,2,0,0,0-1.61-2l-3-.63a11.12,11.12,0,0,0-.68-1.64L60.76,9H72a3,3,0,0,1,3,3V48H23ZM40,50H58v1a2,2,0,0,1-2,2H42a2,2,0,0,1-2-2Zm37,3a5,5,0,0,1-5,5H26a5,5,0,0,1-5-5V50H38v1a4,4,0,0,0,4,4H56a4,4,0,0,0,4-4V50H77Z" transform="translate(-19)"/><path id="Shape-2" data-name="Shape" class="cls-3" d="M34,52H31a1,1,0,0,0,0,2h3a1,1,0,0,0,0-2Z" transform="translate(-19)"/><circle id="Oval" class="cls-3" cx="6" cy="53" r="1"/><circle id="Oval-2" data-name="Oval" class="cls-3" cx="9" cy="53" r="1"/><path id="Shape-3" data-name="Shape" class="cls-3" d="M49,24a8,8,0,1,0-8-8A8,8,0,0,0,49,24Zm0-14a6,6,0,1,1-6,6A6,6,0,0,1,49,10Z" transform="translate(-19)"/><path id="Shape-4" data-name="Shape" class="cls-3" d="M43,37a9,9,0,1,0-9,9A9,9,0,0,0,43,37Zm-9,7a7,7,0,1,1,7-7A7,7,0,0,1,34,44Z" transform="translate(-19)"/><path id="Shape-5" data-name="Shape" class="cls-3" d="M64,46a9,9,0,1,0-9-9A9,9,0,0,0,64,46Zm0-16a7,7,0,1,1-7,7A7,7,0,0,1,64,30Z" transform="translate(-19)"/><path id="Shape-6" data-name="Shape" class="cls-3" d="M38.71,33.29a1,1,0,0,0-1.42,0L32,38.59l-1.29-1.3a1,1,0,0,0-1.42,1.42l2,2a1,1,0,0,0,1.42,0l6-6a1,1,0,0,0,0-1.42Z" transform="translate(-19)"/><path id="Shape-7" data-name="Shape" class="cls-3" d="M60.29,40.71a1,1,0,0,0,1.42,0L64,38.41l2.29,2.3a1,1,0,0,0,1.42-1.42L65.41,37l2.3-2.29a1,1,0,0,0-1.42-1.42L64,35.59l-2.29-2.3a1,1,0,0,0-1.42,1.42L62.59,37l-2.3,2.29a1,1,0,0,0,0,1.42Z" transform="translate(-19)"/></g></g></g></svg>