<?xml version="1.0" encoding="UTF-8"?>
<svg id="Layer_2" xmlns="http://www.w3.org/2000/svg" xmlns:xlink="http://www.w3.org/1999/xlink" viewBox="0 0 50 31">
  <defs>
    <style>
      .cls-1 {
        fill: #fff;
      }

      .cls-2 {
        fill: none;
      }

      .cls-3 {
        clip-path: url(#clippath);
      }
    </style>
    <clipPath id="clippath">
      <rect class="cls-2" width="50" height="31"/>
    </clipPath>
  </defs>
  <g id="Layer_1-2" data-name="Layer_1">
    <g class="cls-3">
      <g>
        <path class="cls-1" d="M37.05,19.61v-9.47c0-.29-.23-.52-.52-.52H10.62c-.29,0-.52.23-.52.52v14.53c0,1.4,1.14,2.54,2.53,2.54h15.4c.93,2.23,3.13,3.8,5.69,3.8,3.4,0,6.17-2.78,6.17-6.19,0-2.18-1.13-4.1-2.84-5.2h0ZM12.64,26.16c-.82,0-1.5-.67-1.5-1.5v-14.01h24.87v8.42c-.71-.29-1.48-.45-2.29-.45-3.4,0-6.17,2.78-6.17,6.19,0,.46.06.92.15,1.35h-15.07ZM33.73,29.96c-2.83,0-5.13-2.31-5.13-5.15s2.3-5.15,5.13-5.15,5.13,2.31,5.13,5.15-2.3,5.15-5.13,5.15Z"/>
        <path class="cls-1" d="M35.99,22.58c-.24-.16-.56-.09-.72.14l-2.11,3.17-1.11-.75c-.24-.16-.56-.1-.72.14-.16.24-.1.56.14.72l1.54,1.05c.09.06.19.09.29.09.03,0,.07,0,.1,0,.14-.03.26-.11.33-.22l2.41-3.61c.16-.24.09-.56-.15-.72h0Z"/>
        <path class="cls-1" d="M18.59,12.7h-4.7c-.29,0-.52.23-.52.52v3.63c0,.29.23.52.52.52h4.7c.29,0,.52-.23.52-.52v-3.63c0-.29-.23-.52-.52-.52ZM18.07,16.34h-3.66v-2.6h3.66v2.6Z"/>
        <path class="cls-1" d="M25.93,12.7h-4.7c-.29,0-.52.23-.52.52v3.63c0,.29.23.52.52.52h4.7c.29,0,.52-.23.52-.52v-3.63c0-.29-.23-.52-.52-.52ZM25.41,16.34h-3.66v-2.6h3.66v2.6Z"/>
        <path class="cls-1" d="M28.57,17.38h4.7c.29,0,.52-.23.52-.52v-3.63c0-.29-.23-.52-.52-.52h-4.7c-.29,0-.52.23-.52.52v3.63c0,.29.23.52.52.52ZM29.09,13.74h3.66v2.6h-3.66v-2.6Z"/>
        <path class="cls-1" d="M18.59,19.44h-4.7c-.29,0-.52.23-.52.52v3.63c0,.29.23.52.52.52h4.7c.29,0,.52-.23.52-.52v-3.63c0-.29-.23-.52-.52-.52ZM18.07,23.08h-3.66v-2.6h3.66v2.6Z"/>
        <path class="cls-1" d="M25.93,19.44h-4.7c-.29,0-.52.23-.52.52v3.63c0,.29.23.52.52.52h4.7c.29,0,.52-.23.52-.52v-3.63c0-.29-.23-.52-.52-.52ZM25.41,23.08h-3.66v-2.6h3.66v2.6Z"/>
        <path class="cls-1" d="M10.62,8.66h25.91c.29,0,.52-.23.52-.52v-2.34c0-1.4-1.14-2.54-2.53-2.54h-1.68v-1.39c0-1.03-.84-1.87-1.89-1.87s-1.86.84-1.86,1.87v1.39h-11.03s0-1.39,0-1.39C18.07.84,17.23,0,16.18,0s-1.86.84-1.86,1.87v1.39h-1.68c-1.4,0-2.53,1.14-2.53,2.54v2.34c0,.29.23.52.52.52h0ZM30.13,1.87c0-.46.37-.83.85-.83s.82.37.82.83v2.44c0,.46-.37.83-.82.83h-.02c-.45,0-.82-.37-.82-.83V1.87ZM15.36,1.87c0-.46.37-.83.85-.83s.82.37.82.83v2.44c0,.46-.37.83-.82.83h-.02c-.45,0-.82-.37-.82-.83V1.87ZM11.14,5.8c0-.83.67-1.5,1.5-1.5h1.68c0,1.04.84,1.88,1.86,1.88h.02c1.03,0,1.86-.84,1.86-1.87h0s11.03-.01,11.03-.01h0c0,1.04.84,1.88,1.86,1.88h.02c1.03,0,1.86-.84,1.86-1.87h0s1.68-.01,1.68-.01c.82,0,1.5.67,1.5,1.5v1.82H11.14v-1.82s0,0,0,0Z"/>
      </g>
    </g>
  </g>
</svg>