<?xml version="1.0" encoding="UTF-8"?>
<svg id="Layer_2" xmlns="http://www.w3.org/2000/svg" xmlns:xlink="http://www.w3.org/1999/xlink" viewBox="0 0 50 31">
  <defs>
    <style>
      .cls-1 {
        fill: #fff;
      }

      .cls-2 {
        fill: none;
      }

      .cls-3 {
        clip-path: url(#clippath);
      }
    </style>
    <clipPath id="clippath">
      <rect class="cls-2" width="50" height="31"/>
    </clipPath>
  </defs>
  <g id="Layer_1-2" data-name="Layer_1">
    <g class="cls-3">
      <path class="cls-1" d="M19.68,9.15c.16.16.16.41,0,.57l-2.27,2.27c-.18.18-.42.28-.67.28s-.49-.1-.67-.28l-1.06-1.06c-.16-.16-.16-.41,0-.57.16-.16.41-.16.57,0l1.07,1.06c.07.07.12.07.19,0l2.27-2.27c.16-.16.41-.16.57,0h0ZM21.23,11.05h3.77c.22,0,.4-.18.4-.4s-.18-.4-.4-.4h-3.77c-.22,0-.4.18-.4.4s.18.4.4.4ZM19.11,15.08l-2.27,2.27c-.07.07-.12.07-.19,0l-1.07-1.06c-.16-.16-.41-.16-.57,0-.16.16-.16.41,0,.57l1.06,1.06c.18.18.42.28.67.28s.49-.1.67-.28l2.27-2.27c.16-.16.16-.41,0-.57-.16-.16-.41-.16-.57,0h0ZM19.11,21.01l-2.27,2.27c-.07.07-.12.07-.19,0l-1.07-1.06c-.16-.16-.41-.16-.57,0-.16.16-.16.41,0,.57l1.06,1.06c.18.18.42.28.67.28s.49-.1.67-.28l2.27-2.27c.16-.16.16-.41,0-.57-.16-.16-.41-.16-.57,0h0ZM40.03,21.97c.29.27.47.65.47,1.08v6.47c0,.82-.66,1.48-1.48,1.48h-6.47c-.43,0-.81-.18-1.08-.47-.27.29-.65.47-1.08.47H12.06c-1.41,0-2.56-1.15-2.56-2.56V4.72c0-1.41,1.15-2.56,2.56-2.56h5.56c.19-1.22,1.25-2.16,2.53-2.16s2.33.94,2.53,2.16h5.56c1.41,0,2.56,1.15,2.56,2.56v8.29c.26.07.49.22.67.41.27-.29.65-.47,1.08-.47h6.47c.82,0,1.48.66,1.48,1.48v6.47c0,.43-.18.81-.47,1.08h0ZM35.11,13.75v3.37c0,.07.06.13.13.13h1.08c.07,0,.13-.06.13-.13v-3.37h-1.35ZM30.39,13.75h-1.75v3.37c0,.52-.42.94-.94.94h-1.08c-.52,0-.94-.42-.94-.94v-3.37h-1.75c-.37,0-.67.3-.67.67v6.47c0,.37.3.67.67.67h6.47c.37,0,.67-.3.67-.67v-6.47c0-.37-.3-.67-.67-.67ZM26.48,25.74c0,.07.06.13.13.13h1.08c.07,0,.13-.06.13-.13v-3.37h-1.35v3.37ZM22.91,21.97c-.29-.27-.47-.65-.47-1.08v-3.91h-1.21c-.22,0-.4-.18-.4-.4s.18-.4.4-.4h1.21v-1.75c0-.82.66-1.48,1.48-1.48h3.91v-7.82h-2.49c-.18.62-.74,1.08-1.42,1.08h-7.55c-.68,0-1.24-.46-1.42-1.08h-2.49v22.91h9.97v-4.99s0-.09.01-.13h-1.23c-.22,0-.4-.18-.4-.4s.18-.4.4-.4h1.56s.08-.09.12-.13h0ZM26.48,17.12c0,.07.06.13.13.13h1.08c.07,0,.13-.06.13-.13v-3.37h-1.35v3.37ZM28.23,2.97h-3c.11.2.17.43.17.67v.67h2.83c.22,0,.4.18.4.4v8.22h1.35V4.72c0-.97-.79-1.75-1.75-1.75ZM16.37,2.97c-.37,0-.67.3-.67.67v1.08c0,.37.3.67.67.67h7.55c.37,0,.67-.3.67-.67v-1.08c0-.37-.3-.67-.67-.67h-1.62c-.22,0-.4-.18-.4-.4,0-.97-.79-1.75-1.75-1.75s-1.75.79-1.75,1.75c0,.22-.18.4-.4.4h-1.62ZM12.06,30.19h10.55c-.11-.2-.17-.43-.17-.67v-.67h-10.38c-.22,0-.4-.18-.4-.4V4.72c0-.22.18-.4.4-.4h2.83v-.67c0-.24.06-.47.17-.67h-3c-.97,0-1.75.79-1.75,1.75v23.72c0,.97.79,1.75,1.75,1.75h0ZM31.07,29.52v-6.47c0-.37-.3-.67-.67-.67h-1.75v3.37c0,.52-.42.94-.94.94h-1.08c-.52,0-.94-.42-.94-.94v-3.37h-1.75c-.37,0-.67.3-.67.67v6.47c0,.37.3.67.67.67h6.47c.37,0,.67-.3.67-.67ZM39.02,22.37h-1.75v3.37c0,.52-.42.94-.94.94h-1.08c-.52,0-.94-.42-.94-.94v-3.37h-1.75c-.37,0-.67.3-.67.67v6.47c0,.37.3.67.67.67h6.47c.37,0,.67-.3.67-.67v-6.47c0-.37-.3-.67-.67-.67ZM35.11,25.74c0,.07.06.13.13.13h1.08c.07,0,.13-.06.13-.13v-3.37h-1.35v3.37ZM39.02,21.57c.37,0,.67-.3.67-.67v-6.47c0-.37-.3-.67-.67-.67h-1.75v3.37c0,.52-.42.94-.94.94h-1.08c-.52,0-.94-.42-.94-.94v-3.37h-1.75c-.37,0-.67.3-.67.67v6.47c0,.37.3.67.67.67h6.47Z"/>
    </g>
  </g>
</svg>