<?xml version="1.0" encoding="UTF-8"?>
<svg id="Layer_2" xmlns="http://www.w3.org/2000/svg" xmlns:xlink="http://www.w3.org/1999/xlink" viewBox="0 0 50 31">
  <defs>
    <style>
      .cls-1 {
        fill: #fff;
      }

      .cls-2 {
        fill: none;
      }

      .cls-3 {
        clip-path: url(#clippath);
      }
    </style>
    <clipPath id="clippath">
      <rect class="cls-2" width="50" height="31"/>
    </clipPath>
  </defs>
  <g id="Layer_1-2" data-name="Layer_1">
    <g class="cls-3">
      <path class="cls-1" d="M30.82,18.37c.15.01.3-.06.39-.18s.1-.29.04-.43l-1.57-3.34c.39-.1.73-.31,1.04-.62.59-.59.8-1.31.65-2.2-.1-.59.13-1.16.62-1.51.74-.52,1.09-1.18,1.09-2.01s-.36-1.49-1.09-2.01c-.49-.35-.72-.91-.62-1.51.15-.89-.06-1.61-.65-2.2s-1.31-.8-2.2-.65c-.59.1-1.16-.13-1.51-.62-.52-.74-1.18-1.09-2.01-1.09s-1.49.36-2.01,1.09c-.35.49-.91.72-1.51.62-.89-.15-1.61.06-2.2.65-.59.59-.8,1.31-.65,2.2.1.59-.13,1.16-.63,1.51-.74.52-1.09,1.18-1.09,2.01s.36,1.49,1.09,2.01c.49.35.72.91.62,1.51-.15.89.06,1.61.65,2.2.32.32.67.52,1.06.62l-1.58,3.34c-.07.14-.05.3.04.43s.24.2.39.18l1.81-.17,1.16,1.4c.08.1.2.15.33.15.02,0,.05,0,.08,0,.15-.03.28-.13.33-.28l1.23-3.45c.26.1.55.15.86.15s.61-.05.88-.16l1.23,3.45c.05.15.18.25.33.28.03,0,.05,0,.08,0,.13,0,.25-.06.33-.15l1.16-1.4,1.81.17h0ZM22.35,18.48l-.83-1c-.09-.11-.23-.17-.37-.15l-1.29.12,1.4-2.97c.07,0,.14-.02.21-.03.59-.1,1.16.13,1.51.62.13.18.27.34.41.48l-1.04,2.92h0ZM23.69,14.58c-.46-.65-1.16-1.01-1.93-1.01-.14,0-.28.01-.42.04-.62.11-1.05-.02-1.44-.41-.39-.39-.51-.82-.41-1.44.16-.93-.21-1.81-.97-2.35-.51-.36-.73-.76-.73-1.31s.22-.95.73-1.31c.77-.55,1.13-1.43.97-2.35-.11-.62.02-1.05.41-1.44.39-.39.82-.51,1.44-.41.93.16,1.81-.21,2.35-.97.36-.51.76-.73,1.31-.73s.95.22,1.31.73c.55.77,1.43,1.13,2.35.97.62-.11,1.05.02,1.44.41.39.39.51.82.41,1.44-.16.93.21,1.81.97,2.35.51.36.73.76.73,1.31s-.22.95-.73,1.31c-.77.55-1.13,1.43-.97,2.35.11.62-.02,1.05-.41,1.44-.39.39-.82.52-1.44.41-.93-.16-1.81.21-2.35.97-.36.51-.76.73-1.31.73s-.95-.22-1.31-.73h0ZM28.49,17.48l-.83.99-1.05-2.93c.14-.13.27-.28.39-.46.35-.49.91-.72,1.51-.62.08.01.16.02.24.03l1.39,2.95-1.29-.12c-.14-.01-.28.04-.37.15h0ZM30.24,8.09c0-2.89-2.35-5.24-5.24-5.24s-5.24,2.35-5.24,5.24,2.35,5.24,5.24,5.24,5.24-2.35,5.24-5.24ZM25,12.47c-2.41,0-4.38-1.96-4.38-4.38s1.96-4.38,4.38-4.38,4.38,1.96,4.38,4.38-1.96,4.38-4.38,4.38ZM28.45,6.98c-.08-.25-.29-.43-.56-.46l-1.6-.2-.69-1.46c-.11-.24-.34-.39-.61-.39s-.5.15-.61.39l-.69,1.46-1.6.2c-.26.03-.47.21-.56.46-.08.25-.01.52.18.7l1.18,1.1-.3,1.58c-.05.26.05.51.27.67.21.15.49.17.72.05l1.41-.78,1.41.78c.1.06.21.08.32.08.14,0,.28-.04.39-.13.21-.15.31-.41.27-.67l-.3-1.58,1.18-1.1c.19-.18.26-.45.18-.7h0ZM26.33,8.32c-.11.1-.16.25-.13.39l.27,1.42-1.27-.7c-.13-.07-.29-.07-.41,0l-1.27.7.27-1.42c.03-.15-.02-.29-.13-.39l-1.06-.99,1.44-.18c.15-.02.27-.11.34-.24l.62-1.31.62,1.31c.06.13.19.22.34.24l1.44.18-1.06.99ZM21.36,21.58c-.37-1.26-1.29-1.97-2.36-2.78-1.16-.89-2.47-1.9-3.66-3.94-.27-.5-.77-.81-1.35-.82-.36,0-.7.11-.97.32-.32-2.01-.51-4.78-.51-5.95,0-.99-.57-1.54-1.13-1.65-.61-.12-1.2.24-1.49.93-.4.96-.44,4.72-.38,6.52.06,1.67.17,2.97,1.08,4.63.43.79.96,1.55,1.47,2.29.21.31.42.61.6.89.82,1.24,1.37,2.26,1.52,3.37-.46.09-.84.44-.97.91l-.61,2.27c-.03.11-.01.23.04.33.06.1.15.17.26.2l7.02,1.88s.07.01.11.01c.08,0,.15-.02.22-.06.1-.06.17-.15.2-.26l.61-2.27c.14-.52-.07-1.05-.48-1.35.89-2.52,1.12-4.22.75-5.48h0ZM20.25,28.19l-.5,1.86-6.19-1.66.5-1.86c.06-.22.28-.35.5-.29l5.4,1.45c.22.06.35.28.29.5h0ZM19.8,26.75l-4.72-1.27c-.15-1.51-.94-2.82-1.68-3.94-.19-.29-.4-.59-.62-.9-.5-.72-1.01-1.47-1.43-2.22-.82-1.49-.92-2.65-.98-4.25-.08-2.26.04-5.51.31-6.16.13-.3.32-.46.52-.42.21.04.44.31.44.81,0,1.55.31,5.58.81,7.53.24,1.75,2.24,4.08,3.14,4.65.2.13.47.07.59-.13s.07-.47-.13-.59c-.45-.29-1.31-1.2-1.96-2.22-.68-1.06-.96-1.98-.72-2.4.12-.22.35-.35.61-.35.26,0,.48.14.6.37,0,0,0,0,0,.01,1.27,2.2,2.72,3.31,3.88,4.2,1.03.79,1.76,1.35,2.06,2.34.31,1.06.08,2.63-.73,4.93h0ZM40.1,7.68c-.29-.69-.87-1.05-1.49-.93-.56.11-1.13.67-1.13,1.65,0,1.17-.19,3.93-.51,5.94-.27-.21-.61-.33-.97-.32-.57,0-1.08.31-1.35.82-1.18,2.05-2.5,3.05-3.66,3.94-1.07.82-1.99,1.52-2.36,2.78-.37,1.26-.14,2.96.75,5.48-.41.3-.61.83-.48,1.35l.61,2.27c.03.11.1.2.2.26.07.04.14.06.22.06.04,0,.08,0,.11-.01l7.02-1.88c.11-.03.2-.1.26-.2.06-.1.07-.22.04-.33l-.61-2.27c-.13-.48-.52-.82-.97-.91.15-1.11.7-2.13,1.52-3.37.19-.28.39-.58.6-.89.51-.74,1.04-1.51,1.47-2.29.91-1.66,1.02-2.96,1.08-4.63.07-1.8.02-5.57-.38-6.52h0ZM35.93,26.53l.5,1.86-6.19,1.66-.5-1.86c-.06-.22.07-.44.29-.5l5.4-1.45s.07-.01.11-.01c.18,0,.35.12.39.3h0ZM39.61,14.18c-.06,1.6-.16,2.75-.98,4.25-.41.75-.93,1.5-1.43,2.22-.22.32-.42.61-.61.9-.74,1.12-1.53,2.43-1.68,3.94l-4.72,1.27c-.81-2.3-1.04-3.87-.73-4.93.29-.99,1.03-1.56,2.06-2.34,1.16-.89,2.61-2,3.88-4.2,0,0,0,0,0-.01.12-.22.34-.36.6-.37.26,0,.48.13.61.35.23.41-.05,1.33-.72,2.4-.65,1.02-1.51,1.93-1.96,2.22-.2.13-.26.39-.13.59.13.2.39.26.59.13.89-.57,2.9-2.9,3.14-4.65.5-1.95.81-5.98.81-7.53,0-.5.23-.77.44-.81.2-.04.4.12.52.42.27.65.39,3.9.31,6.16h0ZM32.87,4.56c-.12-.21-.05-.47.16-.59l1.06-.61c.21-.12.47-.05.59.16.12.21.05.47-.16.59l-1.06.61c-.07.04-.14.06-.21.06-.15,0-.29-.08-.37-.22ZM34.52,12.07c.21.12.28.38.16.59-.08.14-.22.22-.37.22-.07,0-.15-.02-.21-.06l-1.06-.61c-.21-.12-.28-.38-.16-.59.12-.21.38-.28.59-.16l1.06.61ZM34.25,7.66h1.22c.24,0,.43.19.43.43s-.19.43-.43.43h-1.22c-.24,0-.43-.19-.43-.43s.19-.43.43-.43ZM16.54,11.46c.21-.12.47-.05.59.16.12.21.05.47-.16.59l-1.06.61c-.07.04-.14.06-.21.06-.15,0-.29-.08-.37-.22-.12-.21-.05-.47.16-.59l1.06-.61ZM14.09,8.09c0-.24.19-.43.43-.43h1.22c.24,0,.43.19.43.43s-.19.43-.43.43h-1.22c-.24,0-.43-.19-.43-.43ZM15.32,3.52c.12-.21.38-.28.59-.16l1.06.61c.21.12.28.38.16.59-.08.14-.22.22-.37.22-.07,0-.15-.02-.21-.06l-1.06-.61c-.21-.12-.28-.38-.16-.59Z"/>
    </g>
  </g>
</svg>