<?xml version="1.0" encoding="UTF-8"?>
<svg id="Layer_2" xmlns="http://www.w3.org/2000/svg" xmlns:xlink="http://www.w3.org/1999/xlink" viewBox="0 0 50 31">
  <defs>
    <style>
      .cls-1 {
        fill: #fff;
        fill-rule: evenodd;
      }

      .cls-2 {
        fill: none;
      }

      .cls-3 {
        clip-path: url(#clippath);
      }
    </style>
    <clipPath id="clippath">
      <rect class="cls-2" width="50" height="31"/>
    </clipPath>
  </defs>
  <g id="Layer_1-2" data-name="Layer_1">
    <g class="cls-3">
      <path class="cls-1" d="M33.42,7.76c-1.21-1.73-2.92-3.06-4.9-3.79-.2-.06-.36-.21-.42-.41-.43-1.35-1.69-2.26-3.1-2.26s-2.67.92-3.1,2.26c-.06.19-.2.34-.39.41-1.98.73-3.7,2.04-4.91,3.77-1.22,1.73-1.87,3.79-1.88,5.9v4.2c.01,1.23-.53,2.41-1.48,3.19-.44.38-.82.61-1.08,1.15h0c-.3.65-.25,1.41.12,2.02.38.61,1.05.97,1.77.97h21.9c1.16,0,2.1-.94,2.1-2.1,0-.63-.29-1.23-.79-1.63-.69-.57-1.21-1-1.59-1.84-.25-.55-.38-1.15-.38-1.76v-4.2c0-2.11-.65-4.16-1.86-5.88h0ZM28.85,26.45h-7.71c.31,1.89,1.94,3.27,3.86,3.27s3.55-1.38,3.86-3.27h0ZM29.21,2.88c2.16.85,4.01,2.33,5.33,4.25,1.31,1.92,2.02,4.19,2.02,6.51v4.2c-.01.86.37,1.68,1.04,2.23l.48.4h0c.78.64,1.24,1.6,1.24,2.61,0,1.86-1.51,3.37-3.37,3.37h-5.8c-.2,1.69-1.23,3.18-2.74,3.96-1.51.79-3.31.79-4.82,0s-2.53-2.28-2.74-3.96h-5.79c-1.15,0-2.23-.6-2.85-1.58-.62-.98-.69-2.2-.19-3.25.22-.45.53-.85.92-1.17.52-.35.95-.82,1.25-1.38.17-.38.26-.81.25-1.23v-4.21c0-2.33.71-4.59,2.02-6.51,1.31-1.92,3.16-3.4,5.33-4.25C21.46,1.15,23.13,0,25,0s3.54,1.15,4.22,2.88h0ZM16.57,14.63c-.01-.18.05-.35.17-.48.12-.13.29-.2.47-.2s.35.07.47.2.19.3.17.48v1.92c-.02.33-.3.6-.64.6s-.61-.26-.64-.6c0,0,0-1.92,0-1.92ZM22.14,5.72c.33-.12.7.04.82.38.12.33-.04.7-.38.82-2.34.86-4.07,2.86-4.58,5.29-.07.35-.41.58-.76.51-.35-.07-.58-.41-.51-.76.6-2.88,2.65-5.23,5.41-6.24h0Z"/>
    </g>
  </g>
</svg>