<?xml version="1.0" encoding="UTF-8"?>
<svg id="Layer_2" xmlns="http://www.w3.org/2000/svg" xmlns:xlink="http://www.w3.org/1999/xlink" viewBox="0 0 50 31">
  <defs>
    <style>
      .cls-1 {
        fill: #fff;
      }

      .cls-2 {
        fill: none;
      }

      .cls-3 {
        clip-path: url(#clippath);
      }
    </style>
    <clipPath id="clippath">
      <rect class="cls-2" width="50" height="31"/>
    </clipPath>
  </defs>
  <g id="Layer_1-2" data-name="Layer_1">
    <g class="cls-3">
      <g>
        <path class="cls-1" d="M39.55,9.1c-.3-.38-.86-.45-1.25-.15-.38.3-.45.86-.15,1.25,1.96,2.48,1.96,6.53,0,9.01-.3.38-.24.94.15,1.25.16.13.36.19.55.19.26,0,.52-.12.7-.34,2.43-3.09,2.43-8.11,0-11.2h0Z"/>
        <path class="cls-1" d="M42.71,5.09c-.3-.38-.86-.45-1.25-.15-.38.3-.45.86-.15,1.25,3.7,4.7,3.7,12.34,0,17.03-.3.38-.24.94.15,1.25.16.13.36.19.55.19.26,0,.52-.12.7-.34,4.17-5.3,4.17-13.93,0-19.23h0Z"/>
        <path class="cls-1" d="M34.61,10.73V3.07c0-.9-.45-1.72-1.28-2.32-.93-.68-2.18-.93-3.11-.63-.05.02-.1.03-.14.06l-13.41,7.09h-6.49c-1.49,0-2.74,1.27-3.03,2.96-1.7.46-2.98,2.29-2.98,4.48s1.28,4.02,2.98,4.48c.23,1.34,1.06,2.41,2.14,2.8v8.13c0,.49.4.89.89.89h3.05c.36,0,.68-.22.82-.55l3.3-7.96,12.75,6.73s.09.04.14.06c.26.08.55.13.85.13.76,0,1.59-.27,2.26-.75.82-.6,1.28-1.42,1.28-2.32v-7.66c1.82-.41,3.19-2.03,3.19-3.98,0-1.94-1.37-3.57-3.19-3.98h0ZM5.94,14.71c0-1.09.47-2.05,1.14-2.52v5.04c-.67-.47-1.14-1.43-1.14-2.52h0ZM8.86,10.95c0-1.02.61-1.91,1.31-1.91h5.83v11.32h-5.83c-.7,0-1.31-.89-1.31-1.91v-7.5ZM12.62,29.23h-1.57v-7.08h4.5l-2.93,7.08ZM32.83,26.34c0,.42-.34.73-.55.88-.49.36-1.11.47-1.46.39l-13.06-6.89v-12.03L30.83,1.8c.35-.08.97.04,1.46.39.2.15.55.46.55.88v23.27ZM34.61,16.83v-4.25c.83.35,1.42,1.17,1.42,2.12s-.59,1.78-1.42,2.12h0Z"/>
      </g>
    </g>
  </g>
</svg>