<?xml version="1.0" encoding="UTF-8"?>
<svg id="Layer_2" xmlns="http://www.w3.org/2000/svg" xmlns:xlink="http://www.w3.org/1999/xlink" viewBox="0 0 50 31">
  <defs>
    <style>
      .cls-1 {
        fill: #fff;
      }

      .cls-2 {
        fill: none;
      }

      .cls-3 {
        clip-path: url(#clippath);
      }
    </style>
    <clipPath id="clippath">
      <rect class="cls-2" width="50" height="31"/>
    </clipPath>
  </defs>
  <g id="Layer_1-2" data-name="Layer_1">
    <g class="cls-3">
      <path class="cls-1" d="M33.35,13.41c2.91,1.04,4.26-3.26,1.27-4.07-2.54-.5-3.64,3.03-1.27,4.07ZM33.6,10.06c2.01-.73,2.96,2.27.88,2.82-1.76.36-2.52-2.11-.88-2.82ZM38.43,21.94l-1.51-.18c-.1-.32-.23-.63-.39-.94l.95-1.2c.1-.13.09-.32-.03-.43l-1.82-1.82c-.12-.12-.3-.13-.43-.03l-1.2.94c-.3-.15-.61-.29-.94-.39l-.18-1.52c-.02-.16-.16-.29-.33-.29h-.3v-1.17l.36-.29c.13.06.26.12.4.17l.09.79c.02.17.16.29.33.29h1.48c.17,0,.31-.12.33-.29l.09-.79c.13-.05.27-.1.4-.17l.63.49c.13.1.32.09.43-.03l1.05-1.05c.12-.12.13-.3.03-.43l-.49-.62c.06-.13.12-.26.17-.4l.79-.09c.17-.02.29-.16.29-.33v-1.48c0-.17-.12-.3-.29-.32l-.79-.1c-.05-.13-.1-.27-.17-.4l.49-.62c.1-.13.09-.32-.03-.43l-1.05-1.05c-.12-.12-.3-.13-.43-.03l-.63.49c-.13-.06-.26-.12-.4-.17l-.09-.79c-.02-.17-.16-.29-.33-.29h-1.48c-.17,0-.31.12-.33.29l-.09.79c-.14.05-.27.1-.4.17l-.36-.28V3.37c0-.74-.61-1.34-1.35-1.34h-6.07V.73c0-.4-.33-.73-.73-.73h-4.67c-.4,0-.73.33-.73.73v1.29c-.57,0-5.38,0-6.07,0-.74,0-1.34.6-1.34,1.34v24.12c0,.74.6,1.34,1.34,1.34h13.39l.89.89c.12.12.3.13.43.03l1.2-.94c.3.16.62.29.94.39l.18,1.51c.02.16.16.29.33.29h2.57c.17,0,.3-.12.33-.29l.18-1.52c.32-.1.63-.23.94-.39l1.2.94c.13.1.32.09.43-.03l1.82-1.82c.12-.12.13-.3.03-.43l-.95-1.2c.16-.31.29-.62.39-.94l1.51-.18c.17-.02.29-.16.29-.33v-2.57c0-.16-.12-.3-.29-.32h0ZM32.38,8.88c.11.08.25.09.37.03.24-.21.84-.19.89-.55l.08-.71h.9l.08.71c.02.13.11.24.23.28.36.04.71.47,1.03.25l.56-.44.64.64-.44.56c-.22.31.22.69.25,1.02.03.13.14.22.28.24l.71.09v.9l-.71.08c-.13.02-.24.11-.28.24-.02.33-.47.71-.25,1.02l.44.56-.64.64-.56-.44c-.31-.22-.7.22-1.03.25-.13.04-.22.14-.24.28l-.08.71h-.9l-.08-.71c-.07-.37-.55-.31-.81-.5-.14-.09-.32-.13-.45-.02l-.56.44-.64-.64.44-.56c.22-.31-.21-.67-.25-1.02-.04-.13-.15-.22-.28-.24l-.71-.09v-.9l.71-.09c.13-.02.24-.11.28-.24.03-.35.46-.7.25-1.02l-.44-.56.64-.64.56.44ZM30.51,14.05l1.05,1.05s.03.02.04.04v.95h-1.21v-3.54l.42.05c.05.14.1.27.17.4l-.49.62c-.1.13-.09.32.03.43h0ZM26.16,2.68h4.74c.38,0,.69.31.69.69v4.36c-.06.06-1.15,1.11-1.16,1.18-.05.11-.03.24.04.34l.49.63c-.06.13-.12.26-.17.4l-.42.05v-6.1c0-.18-.15-.33-.33-.33h-3.89s0-1.21,0-1.21ZM19.35.73s.04-.08.08-.08h4.67s.08.04.08.08v1.29h-4.83V.73ZM18.02,2.68h7.49v2.08c0,.15-.12.28-.28.28h-6.94c-.15,0-.28-.12-.28-.28v-2.08ZM18.3,5.7h6.94c.62,0,1.01-.56.93-1.15h3.56v11.66c-.04.05-.06.11-.07.17l-.18,1.52c-.33.11-.63.24-.94.39l-.75-.59-.45-.35c-.13-.1-.32-.09-.43.03l-1.82,1.82c-.25.25.06.53.21.73l.71.9c-.16.31-.29.62-.39.94l-1.52.18c-.16.02-.29.16-.29.33v2.57c0,.17.12.31.29.33.32.03,1.2.14,1.51.18.1.32.23.63.39.94l-.03.04h-12.18V4.55h3.57v.22c0,.51.42.93.93.93h0ZM25.45,26.98l-.39.5c-.1.13-.09.32.03.43.06.06.21.21.27.27h-12.73c-.38,0-.69-.31-.69-.69V3.37c0-.38.31-.69.69-.69h4.74v1.21h-3.9c-.18,0-.33.15-.33.33v22.42c0,.18.15.33.33.33h11.99,0ZM38.07,24.54l-1.44.17c-.13.02-.24.11-.28.24-.11.41-.27.8-.5,1.19-.07.12-.06.26.03.37l.9,1.14-1.41,1.41-1.15-.9c-.1-.08-.25-.09-.36-.03-.38.22-.78.38-1.19.49-.13.03-.22.14-.24.28l-.17,1.44h-1.99s-.17-1.44-.17-1.44c-.02-.13-.11-.24-.24-.28-.35-.09-.71-.23-1.05-.41-.15-.09-.34-.18-.5-.05l-1.15.9-1.41-1.41c.1-.13.78-.98.9-1.14.08-.11.09-.25.03-.37-.18-.32-.33-.66-.44-1.01-.05-.18-.11-.41-.34-.43l-.43-.05-1.01-.12v-1.99l.69-.08.74-.09c.13-.02.24-.11.28-.24.12-.41.28-.82.49-1.19.07-.11.06-.26-.03-.36l-.87-1.11-.02-.03,1.41-1.41.09.07,1.05.83c.27.2.54-.11.81-.19.24-.11.5-.19.75-.28.12-.04.23-.14.24-.28l.17-1.44h1.99l.17,1.44c.02.13.11.24.24.28.43.12.83.29,1.19.5.11.07.26.06.36-.03l1.15-.9,1.41,1.41-.9,1.14c-.08.11-.09.25-.03.37.22.38.39.78.5,1.19.03.13.14.22.28.24l1.44.17v2ZM30.35,20.2c-2.62.66-3.43,4.18-1.38,5.93,2.18,1.99,5.79.36,5.77-2.59.05-2.23-2.25-3.98-4.38-3.34h0ZM29.73,25.89c-.09-.06-.18-.13-.27-.19-1.43-1.14-1.29-3.54.27-4.5v4.7ZM31.6,26.33s-.06,0-.1.01c-.38.03-.76,0-1.12-.13v-5.33c.39-.13.81-.17,1.22-.12v5.57ZM32.25,26.18v-5.26c1.08.4,1.83,1.45,1.83,2.63,0,1.18-.75,2.23-1.83,2.63h0ZM15.88,6.99h1.88c.18,0,.33.15.33.33s-.15.33-.33.33h-1.88c-.08,0-.15.07-.15.15v1.88c0,.08.07.15.15.15h.94c.43,0,.43.65,0,.65h-.94c-.45,0-.81-.36-.81-.81v-1.88c0-.45.36-.81.81-.81h0ZM17.64,9.09l1.34-1.34c.3-.3.76.16.46.46l-1.57,1.57c-.12.13-.34.13-.46,0l-.81-.81c-.3-.3.16-.76.46-.46l.58.58ZM21.7,7.5h4.07c.43,0,.43.65,0,.65h-4.07c-.43,0-.43-.65,0-.65ZM21.7,9.32h6.43c.43,0,.43.65,0,.65h-6.43c-.43,0-.42-.65,0-.65h0ZM15.07,14.88v-1.88c0-.45.36-.81.81-.81h1.88c.18,0,.33.15.33.33s-.15.33-.33.33h-1.88c-.08,0-.15.07-.15.15v1.88c0,.08.07.15.15.15h.94c.43,0,.43.65,0,.65h-.94c-.45,0-.81-.36-.81-.81h0ZM19.43,13.41l-1.57,1.57c-.13.13-.34.13-.46,0l-.81-.81c-.3-.3.16-.76.46-.46l.58.58,1.34-1.34c.31-.3.76.16.46.46ZM25.77,12.7c.43,0,.43.65,0,.65h-4.07c-.43,0-.43-.65,0-.65h4.07ZM21.7,14.52h6.43c.43,0,.43.65,0,.65h-6.43c-.43,0-.42-.65,0-.65h0ZM16.82,20.88h-.94c-.45,0-.81-.36-.81-.81v-1.88c0-.45.36-.81.81-.81h1.88c.18,0,.33.15.33.33s-.15.33-.33.33h-1.88c-.08,0-.15.07-.15.15v1.88c0,.08.07.15.15.15h.94c.43,0,.43.65,0,.66h0ZM19.43,18.61l-1.57,1.57c-.13.13-.34.13-.46,0l-.81-.81c-.3-.3.16-.76.46-.46l.58.58,1.34-1.34c.31-.3.76.16.46.46ZM23.46,20.37h-1.76c-.43,0-.43-.65,0-.65h1.76c.43,0,.43.65,0,.65ZM21.7,17.9h2.78c.43,0,.43.65,0,.65h-2.78c-.43,0-.43-.65,0-.65Z"/>
    </g>
  </g>
</svg>