<?xml version="1.0" encoding="UTF-8"?>
<svg id="Layer_2" xmlns="http://www.w3.org/2000/svg" xmlns:xlink="http://www.w3.org/1999/xlink" viewBox="0 0 50 31">
  <defs>
    <style>
      .cls-1 {
        fill: #fff;
      }

      .cls-2 {
        fill: none;
      }

      .cls-3 {
        clip-path: url(#clippath);
      }
    </style>
    <clipPath id="clippath">
      <rect class="cls-2" width="50" height="31"/>
    </clipPath>
  </defs>
  <g id="Layer_1-2" data-name="Layer_1">
    <g class="cls-3">
      <path class="cls-1" d="M38.3,2.67h-4.22c.03-.54-.4-1.01-.94-1.01h-1.84v-.77c0-.49-.4-.89-.89-.89h-3.14c-.49,0-.9.4-.9.89v.77h-1.84c-.55,0-.98.47-.94,1.01h-4.22c-.98,0-1.77.8-1.77,1.77v14.28h-6.88c-.43,0-.78.35-.78.78v10.72c0,.43.35.78.78.78h27.6c.98,0,1.77-.8,1.77-1.77V4.44c0-.98-.8-1.77-1.77-1.77h0ZM24.3,2.61c0-.13.1-.23.23-.23h2.2c.2,0,.36-.16.36-.36V.89c0-.1.08-.18.18-.18h3.13c.1,0,.18.08.18.18v1.13c0,.2.16.36.36.36h2.2c.13,0,.23.1.23.23v1.7c0,.13-.1.23-.23.23h-8.61c-.13,0-.23-.1-.23-.23v-1.7ZM18.3,4.45c0-.58.47-1.06,1.06-1.06h4.22c0,.18-.03,1,.03,1.15h-3.8c-.2,0-.36.16-.36.36v13.83h-1.15V4.45ZM14.61,19.44h2.91v4.44l-1.18-1.4c-.07-.08-.17-.13-.27-.13s-.21.05-.27.13l-1.18,1.4v-4.44ZM21.49,30.22s-.03.05-.06.06h-10.72s-.06-.03-.06-.06v-1.13h10.85v1.14ZM21.49,28.38h-10.85v-8.87s.03-.06.06-.06h3.19v5.42c0,.15.09.28.23.34.14.05.3,0,.4-.11l1.54-1.82,1.54,1.83c.1.11.26.16.4.11.14-.05.23-.19.23-.34v-5.42h3.19s.06.03.06.06v8.87ZM21.43,18.72h-1.26V5.25h17.32v19.19h-3.61c-.2,0-.36.16-.36.36v3.61h-11.32v-8.91c0-.43-.35-.78-.78-.78h0ZM36.99,25.16l-2.75,2.75v-2.75h2.75ZM39.36,29.23c0,.58-.47,1.06-1.06,1.06h-16.1s0-.04,0-.06v-1.09h11.68c.1,0,.19-.04.25-.11l3.97-3.97c.07-.07.1-.16.11-.25V4.9c0-.2-.16-.36-.36-.36h-3.8c.06-.15.02-.98.03-1.15h4.22c.58,0,1.06.47,1.06,1.06v24.78ZM21.6,10.41v-1.57c0-.31.25-.57.57-.57h1.57c.31,0,.57.25.57.57,0,.38-.53.49-.68.15h-1.3v1.27h.23c.47,0,.47.71,0,.72h-.38c-.32,0-.57-.26-.57-.57h0ZM23.98,10.04l1.69-1.69c.33-.33.83.17.51.51l-1.94,1.94c-.14.14-.37.14-.51,0l-1.03-1.03c-.33-.33.17-.83.51-.51l.78.77ZM22.54,16.55h-.38c-.31,0-.57-.25-.57-.57v-1.57c0-.31.25-.57.57-.57h1.57c.31,0,.57.25.57.57,0,.38-.53.49-.68.15h-1.3v1.27h.23c.46,0,.47.71,0,.71h0ZM26.17,14.43l-1.94,1.94c-.14.14-.37.14-.51,0l-1.03-1.03c-.33-.33.17-.83.51-.51l.77.77,1.69-1.69c.33-.33.83.17.51.51h0ZM27.81,8.52c0-.2.16-.36.36-.36h5.18c.2,0,.36.16.36.36s-.16.36-.36.36h-5.18c-.2,0-.36-.16-.36-.36ZM27.81,10.53c0-.2.16-.36.36-.36h7.68c.2,0,.36.16.36.36s-.16.36-.36.36h-7.68c-.2,0-.36-.16-.36-.36ZM28.17,13.78h5.18c.47,0,.47.71,0,.72h-5.18c-.47,0-.47-.71,0-.72ZM35.85,16.51h-7.68c-.47,0-.46-.71,0-.72h7.68c.47,0,.47.71,0,.72Z"/>
    </g>
  </g>
</svg>