<?xml version="1.0" encoding="UTF-8"?>
<svg id="Layer_2" xmlns="http://www.w3.org/2000/svg" xmlns:xlink="http://www.w3.org/1999/xlink" viewBox="0 0 50 31">
  <defs>
    <style>
      .cls-1 {
        fill: #fff;
      }

      .cls-2 {
        fill: none;
      }

      .cls-3 {
        clip-path: url(#clippath);
      }
    </style>
    <clipPath id="clippath">
      <rect class="cls-2" width="50" height="31"/>
    </clipPath>
  </defs>
  <g id="Layer_1-2" data-name="Layer_1">
    <g class="cls-3">
      <path class="cls-1" d="M30.38,19.74c-1.28,0-2.43.77-2.92,1.95-.49,1.18-.22,2.54.69,3.45.9.9,2.26,1.17,3.45.69,1.18-.49,1.95-1.64,1.95-2.92,0-1.75-1.42-3.16-3.16-3.16h0ZM30.38,25.2c-.93,0-1.77-.56-2.13-1.42-.36-.86-.16-1.85.5-2.51.66-.66,1.65-.86,2.51-.5.86.36,1.42,1.2,1.42,2.13,0,1.27-1.03,2.3-2.3,2.3h0ZM38.11,21.42l-1.6-.22c-.14-.5-.33-.97-.59-1.42l.98-1.29c.13-.17.11-.41-.04-.56l-1.49-1.49c-.09-.09-.22-.14-.35-.12-1.17-3.44-4.04-6.03-7.57-6.86,2.03-1.08,3.07-3.41,2.51-5.64-.56-2.23-2.57-3.8-4.87-3.8s-4.31,1.57-4.87,3.8c-.56,2.23.48,4.56,2.51,5.64-.46.11-.9.24-1.34.41l-1.72-.99c-.13-.08-.3-.08-.43,0l-7.51,4.34c-.13.08-.21.22-.21.37v8.67c0,.15.08.3.21.37l7.51,4.34c.13.08.3.08.43,0l4.17-2.41.42.06c.14.5.34.97.59,1.42l-.98,1.29c-.13.17-.11.41.04.56l1.49,1.49h0c.15.15.39.17.56.04l1.29-.98c.45.25.93.45,1.42.59l.22,1.6h0c.03.21.21.37.43.37h2.11c.21,0,.4-.16.43-.37l.22-1.6c.5-.14.97-.34,1.42-.59l1.29.97c.17.13.41.11.56-.04l1.49-1.49h0c.15-.15.17-.39.04-.56l-.98-1.29h0c.25-.45.45-.93.59-1.42l1.6-.22c.21-.03.37-.21.37-.43v-2.11c0-.21-.16-.4-.37-.43h0ZM20.93,5.02c0-1.68,1.01-3.2,2.57-3.84,1.55-.64,3.34-.29,4.53.9,1.19,1.19,1.55,2.98.9,4.53-.64,1.55-2.16,2.57-3.84,2.57-2.29,0-4.16-1.86-4.16-4.16h0ZM25.09,10.04c2.05,0,4.04.67,5.69,1.88,1.65,1.21,2.87,2.92,3.49,4.88l-.76.58c-.45-.25-.92-.45-1.42-.59l-.22-1.6c-.03-.21-.21-.37-.43-.37h-2.11c-.21,0-.4.16-.43.37l-.22,1.6c-.44.12-.88.3-1.28.51v-3.72c0-.15-.08-.3-.21-.37l-4.8-2.77c.88-.26,1.79-.39,2.71-.39h0ZM23.88,18.49l.98,1.29c-.25.45-.45.93-.59,1.42l-1.6.22h0c-.21.03-.37.21-.37.43v2.11c0,.15.08.29.21.37l-2.61,1.51v-7.68l6.65-3.84v2.51l-.57-.43h0c-.17-.13-.41-.12-.56.04l-1.49,1.49c-.15.15-.17.39-.04.56h0ZM23.41,12.01l-6.65,3.84-1.25-.72,6.65-3.84,1.25.72ZM16.33,16.6l-.02,2.91-.26-.46c-.06-.1-.15-.17-.26-.2-.11-.03-.23-.01-.33.04l-.38.22v-3.24l1.25.72ZM24.27,12.51l1.84,1.06-6.65,3.84-1.84-1.06,6.65-3.84ZM19.46,9.73l1.84,1.06-6.65,3.84-1.84-1.06,6.65-3.84ZM12.38,14.32l1.84,1.06v4.48c0,.15.08.3.21.37.13.08.3.08.43,0l.65-.38.84,1.46c.1.17.29.25.48.2.19-.05.32-.22.32-.41l.03-4.01,1.85,1.07v7.68l-6.65-3.84v-7.68ZM37.62,23.58l-1.52.21c-.18.02-.32.16-.36.33-.14.6-.38,1.18-.71,1.71-.1.15-.09.35.02.49l.92,1.22-.96.96-1.22-.93c-.14-.11-.34-.12-.49-.02-.52.33-1.1.57-1.7.71-.17.04-.31.18-.33.36l-.21,1.52h-1.36s-.21-1.52-.21-1.52h0c-.02-.18-.16-.32-.33-.36-.6-.14-1.18-.38-1.7-.71-.15-.1-.35-.09-.49.02l-1.22.93-.96-.96.92-1.22c.11-.14.12-.34.02-.49-.33-.53-.57-1.1-.71-1.71-.04-.17-.18-.31-.36-.33l-1.52-.21v-1.36l1.52-.21c.18-.02.32-.16.36-.33.14-.6.38-1.18.7-1.7.1-.15.09-.35-.02-.49l-.92-1.22.96-.96,1.22.93c.14.11.34.12.49.02.52-.33,1.1-.57,1.7-.71.18-.04.31-.18.33-.36l.21-1.52h1.36s.21,1.52.21,1.52c.02.18.16.32.33.36.6.14,1.18.38,1.7.71.15.1.35.09.49-.02l1.22-.92.96.96-.93,1.22c-.11.14-.12.34-.02.49.33.52.57,1.1.71,1.7.04.17.18.31.36.33l1.52.21v1.36Z"/>
    </g>
  </g>
</svg>