<?xml version="1.0" encoding="UTF-8"?>
<svg id="Layer_2" xmlns="http://www.w3.org/2000/svg" xmlns:xlink="http://www.w3.org/1999/xlink" viewBox="0 0 50 31">
  <defs>
    <style>
      .cls-1 {
        fill: #fff;
      }

      .cls-2 {
        fill: none;
      }

      .cls-3 {
        clip-path: url(#clippath);
      }
    </style>
    <clipPath id="clippath">
      <rect class="cls-2" width="50" height="31"/>
    </clipPath>
  </defs>
  <g id="Layer_1-2" data-name="Layer_1">
    <g class="cls-3">
      <g>
        <path class="cls-1" d="M39.75,4.94c-.05-.1-.14-.18-.19-.18l-.04-.05L25.3-.16c-.07-.03-.16-.03-.2-.03h-.13s-14.44,4.9-14.44,4.9c-.12.05-.22.14-.28.25-.04.08-.06.16-.06.24v20.11c0,.23.15.44.36.5l14.26,5.38.13.03h.04c.06,0,.11,0,.07-.02h.13s14.26-5.38,14.26-5.38c.22-.07.37-.27.37-.5V5.19c0-.09-.03-.16-.06-.25ZM37.75,5.2l-12.75,4.81-5.63-2.12,12.83-4.58,5.55,1.9ZM24.48,10.93v19l-13.24-4.99V5.93l13.24,4.99ZM12.26,5.21L25.1.87l5.52,1.89-12.75,4.56-5.6-2.11ZM25.52,29.92V10.93l13.24-4.99v19l-13.24,4.99Z"/>
        <path class="cls-1" d="M11.95,23.52l4.42,1.78c.07.04.15.05.23.05.13,0,.27-.05.36-.15.1-.1.16-.23.16-.38v-2.29c0-.22-.12-.4-.33-.49l-4.42-1.78c-.07-.04-.15-.05-.23-.05-.29,0-.52.23-.52.52v2.29c0,.22.12.41.33.49ZM16.08,22.89v1.17l-3.41-1.37v-1.17l3.41,1.37Z"/>
        <path class="cls-1" d="M32.15,17.72c.53,0,1.03-.21,1.4-.58.37-.37.58-.87.58-1.4s-.21-1.03-.58-1.4c-.37-.37-.87-.58-1.4-.58s-1.03.21-1.4.58-.58.87-.58,1.4.21,1.03.58,1.4c.37.37.87.58,1.4.58ZM31.48,15.08c.18-.18.41-.27.66-.27s.48.1.66.27c.18.18.27.41.27.66s-.1.48-.27.66-.41.27-.66.27-.48-.1-.66-.27-.27-.41-.27-.66.1-.48.27-.66Z"/>
        <path class="cls-1" d="M32.15,11.52c-2.66,0-4.82,2.35-4.82,5.23,0,1.71,1.11,3,2.29,4.37.77.9,1.57,1.82,2.04,2.88.08.2.27.33.49.33s.4-.12.47-.31c.47-1.07,1.27-2,2.05-2.9,1.18-1.37,2.29-2.66,2.29-4.37,0-2.88-2.16-5.23-4.82-5.23ZM35.92,16.75c0,1.32-.99,2.47-2.04,3.69-.61.71-1.23,1.43-1.73,2.25-.51-.83-1.16-1.58-1.73-2.25-1.05-1.22-2.04-2.36-2.04-3.69,0-2.01,1.44-4.18,3.77-4.18s3.77,2.17,3.77,4.18Z"/>
      </g>
    </g>
  </g>
</svg>