<?xml version="1.0" encoding="UTF-8"?>
<svg id="Layer_2" xmlns="http://www.w3.org/2000/svg" xmlns:xlink="http://www.w3.org/1999/xlink" viewBox="0 0 50 31">
  <defs>
    <style>
      .cls-1 {
        fill: #fff;
        fill-rule: evenodd;
      }

      .cls-2 {
        fill: none;
      }

      .cls-3 {
        clip-path: url(#clippath);
      }
    </style>
    <clipPath id="clippath">
      <rect class="cls-2" width="50" height="31"/>
    </clipPath>
  </defs>
  <g id="Layer_1-2" data-name="Layer_1">
    <g class="cls-3">
      <path class="cls-1" d="M12.36,24.03V3.7C12.36,1.66,14.02,0,16.07,0h21.72c.97,0,1.9.39,2.58,1.09.68.71,1.07,1.66,1.06,2.64v2.8c0,.28-.22.5-.5.5h-5.85v20.29c0,.98-.39,1.91-1.08,2.6-.7.69-1.64,1.08-2.62,1.07H12.27c-.98,0-1.92-.38-2.62-1.07-.69-.69-1.08-1.62-1.08-2.6v-2.8c0-.28.22-.5.5-.5h3.3ZM15.79,22.69h15.87c.28,0,.5-.22.5-.5s-.22-.5-.5-.5h-15.87c-.28,0-.5.22-.5.5s.22.5.5.5h0ZM15.79,20.04h15.87c.28,0,.51-.21.51-.49,0-.28-.21-.51-.49-.51,0,0-.02,0-.03,0h-15.87c-.28,0-.49.24-.49.51,0,.27.22.48.49.49h0ZM15.79,17.4h15.87c.28,0,.51-.21.51-.49,0-.28-.21-.51-.49-.51,0,0-.02,0-.03,0h-15.87c-.28,0-.49.24-.49.51,0,.27.22.48.49.49h0ZM23.23,5.36v.38c-.19.06-.36.17-.51.3-.54.48-.59,1.3-.11,1.85.04.04.07.08.11.11.28.25.63.39,1,.38.12,0,.24.04.33.12.13.11.15.31.04.44-.01.01-.03.03-.04.04-.09.08-.21.12-.33.12-.11,0-.21-.03-.3-.09-.07-.05-.12-.12-.14-.2-.07-.27-.34-.42-.61-.35-.26.07-.41.33-.36.59.08.31.26.58.52.77.12.09.25.16.39.2v.39c0,.28.22.5.5.5.28,0,.5-.22.5-.5v-.39c.19-.06.36-.17.51-.3.54-.48.59-1.3.11-1.85-.04-.04-.07-.08-.11-.11-.28-.25-.63-.39-1-.38-.12,0-.24-.04-.33-.12-.13-.11-.15-.31-.04-.44.01-.01.03-.03.04-.04.09-.08.21-.12.33-.12.11,0,.21.03.3.09.07.05.12.12.14.2.06.27.33.43.6.37.27-.06.43-.33.37-.6-.08-.31-.26-.58-.52-.77-.12-.09-.25-.15-.39-.2v-.39c0-.28-.22-.5-.5-.5-.28,0-.5.22-.5.5h0ZM27.51,7.89c0-2.09-1.69-3.78-3.78-3.78h-.04c-1,.02-1.95.42-2.66,1.12-1.46,1.48-1.46,3.85,0,5.33.72.71,1.68,1.11,2.69,1.12h0c2.09,0,3.78-1.69,3.79-3.78,0,0,0,0,0,0ZM27.11,4.51c-.9-.9-2.11-1.4-3.38-1.4-.02,0-.04,0-.05,0-1.25.02-2.45.53-3.34,1.41-1.85,1.86-1.85,4.87,0,6.74.9.9,2.12,1.4,3.39,1.41h0c2.64,0,4.78-2.14,4.78-4.78,0-1.27-.5-2.48-1.4-3.38h0ZM15.79,14.75h15.87c.28,0,.51-.21.51-.49,0-.28-.21-.51-.49-.51,0,0-.02,0-.03,0h-15.87c-.28,0-.49.24-.49.51,0,.27.22.48.49.49ZM13.36,3.7v20.32h14.81c.28,0,.5.22.5.5v2.8c0,.71.28,1.39.79,1.89,1.07,1.04,2.77,1.04,3.84,0,.51-.5.79-1.18.79-1.89V3.7c0-.98.39-1.93,1.09-2.62l.09-.09h-19.19c-1.49,0-2.71,1.21-2.71,2.71h0ZM35.09,6.04h5.35v-2.3c0-.73-.27-1.42-.78-1.95-.49-.51-1.16-.79-1.87-.79-1.49,0-2.71,1.21-2.71,2.71v2.33ZM12.27,30h16.57l-.08-.08c-.7-.69-1.09-1.62-1.08-2.6v-2.3H9.56v2.3c0,.71.28,1.39.79,1.89.51.5,1.2.79,1.92.78Z"/>
    </g>
  </g>
</svg>