<?xml version="1.0" encoding="UTF-8"?>
<svg id="Layer_2" xmlns="http://www.w3.org/2000/svg" xmlns:xlink="http://www.w3.org/1999/xlink" viewBox="0 0 50 31">
  <defs>
    <style>
      .cls-1 {
        fill: #fff;
      }

      .cls-2 {
        fill: none;
      }

      .cls-3 {
        clip-path: url(#clippath);
      }
    </style>
    <clipPath id="clippath">
      <rect class="cls-2" width="50" height="31"/>
    </clipPath>
  </defs>
  <g id="Layer_1-2" data-name="Layer_1">
    <g class="cls-3">
      <path class="cls-1" d="M12.53,20.77c-.05-.08-.12-.13-.21-.16-.08-.02-.17-.01-.25.03l-1.7.98c-.08.05-.13.12-.16.21-.02.08-.01.18.03.26l4.66,8.08c.04.08.12.13.21.16.08.02.18.01.26-.03l1.7-.98c.07-.05.12-.12.14-.2s.01-.16-.03-.24c-1.55-2.69-3.13-5.42-4.67-8.09h0ZM21.8,9.74c.06.1.13.19.21.26.18.16.42.26.67.26h.25c-.29-.53-.45-1.14-.45-1.79,0-1.05.42-1.99,1.11-2.68.69-.69,1.63-1.11,2.68-1.11s1.99.42,2.68,1.11c.69.69,1.11,1.63,1.11,2.68s-.42,1.99-1.11,2.68c-.69.69-1.63,1.11-2.68,1.11s-1.99-.42-2.68-1.11c-.07-.07-.14-.14-.2-.21h-.72c-.43,0-.82-.16-1.12-.43-.24-.22-.42-.5-.51-.83-.14-.05-.26-.13-.36-.23-.18-.18-.3-.44-.3-.72v-.6c0-.28.11-.53.3-.72.13-.13.29-.22.48-.27.37-1.4,1.27-2.4,2.38-3,.83-.45,1.78-.67,2.73-.67s1.9.22,2.73.67c1.12.6,2.01,1.6,2.38,3,.18.04.35.14.48.27.18.18.3.44.3.72v.6c0,.28-.11.53-.3.72-.18.18-.44.3-.72.3h-.53c-.19,0-.34-.15-.34-.34v-1.95c0-.19.15-.34.34-.34h.06c-.35-1.1-1.09-1.89-1.99-2.38-.73-.39-1.57-.59-2.41-.59s-1.68.2-2.41.59c-.91.49-1.64,1.28-1.99,2.38h.06c.19,0,.34.15.34.34v1.95c0,.19-.15.34-.34.34h-.14,0ZM23.73,10.26h2.56c.19,0,.34.15.34.34s-.15.34-.34.34h-1.92c.53.41,1.19.65,1.9.65.86,0,1.64-.35,2.2-.91s.91-1.34.91-2.2-.35-1.64-.91-2.2c-.56-.56-1.34-.91-2.2-.91s-1.64.35-2.2.91c-.56.56-.91,1.34-.91,2.2,0,.67.21,1.29.57,1.79h0ZM31.16,7.79h-.2v1.28h.2c.09,0,.18-.04.24-.1.06-.06.1-.14.1-.24v-.6c0-.09-.04-.18-.1-.24-.06-.06-.14-.1-.24-.1ZM21.6,7.79h-.2c-.09,0-.18.04-.24.1-.06.06-.1.14-.1.24v.6c0,.09.04.18.1.24.06.06.14.1.24.1h.2v-1.28ZM28.24,1.66c.26.07.51.16.76.26.25.1.49.22.72.35.07.04.14.05.21.04.07,0,.14-.04.19-.1l.23-.23c.2-.2.46-.3.72-.3s.52.1.72.3l1,1c.2.2.3.46.3.72s-.1.52-.3.71l-.22.23c-.06.06-.09.12-.1.19,0,.07,0,.14.04.21.13.23.25.48.35.72.1.25.19.5.26.75.02.07.06.13.12.18.06.04.13.07.2.07h.32c.28,0,.53.11.72.3s.3.44.3.72v1.41c0,.28-.11.53-.3.72-.18.18-.44.3-.72.3h-.32c-.08,0-.15.02-.2.07-.06.04-.1.1-.12.18-.08.26-.16.52-.26.75-.1.24-.22.49-.35.72-.04.07-.05.14-.04.21,0,.07.04.14.1.19l.23.23c.2.2.3.46.3.72s-.1.52-.3.71l-1,1c-.2.2-.46.3-.72.3s-.52-.1-.72-.3l-.23-.23c-.06-.06-.12-.09-.19-.1-.07,0-.14,0-.21.04-.23.13-.48.25-.72.35-.25.1-.5.19-.75.26-.07.02-.13.06-.18.12-.04.06-.07.13-.07.2v.32c0,.28-.11.53-.3.72-.18.18-.44.3-.72.3h-1.41c-.28,0-.53-.11-.72-.3s-.3-.44-.3-.72v-.32c0-.08-.02-.15-.07-.2-.04-.06-.1-.1-.18-.12-.26-.08-.52-.16-.75-.26-.24-.1-.49-.22-.72-.35-.07-.04-.14-.05-.21-.04-.07,0-.14.04-.19.1l-.23.23c-.2.2-.46.3-.72.3s-.52-.1-.72-.3l-1-1c-.2-.2-.3-.46-.3-.72s.1-.52.3-.71l.23-.23c.06-.06.09-.12.1-.19,0-.07,0-.14-.04-.21-.13-.23-.25-.48-.35-.72-.1-.25-.19-.5-.26-.75-.02-.07-.06-.13-.12-.18-.06-.04-.13-.07-.2-.07h-.32c-.28,0-.53-.11-.72-.3-.18-.18-.3-.44-.3-.72v-1.41c0-.28.11-.53.3-.72.18-.18.44-.3.72-.3h.32c.08,0,.15-.02.2-.07.06-.04.1-.1.12-.18.08-.26.16-.52.26-.75.1-.24.22-.49.35-.72.04-.07.05-.14.04-.21,0-.07-.04-.14-.1-.19l-.23-.23c-.2-.2-.3-.46-.3-.72s.1-.52.3-.71l1-1c.2-.2.46-.3.72-.3s.52.1.72.3l.23.23c.06.06.12.09.19.1.07,0,.14,0,.21-.04.23-.13.48-.25.72-.35.25-.1.5-.19.75-.26.07-.02.13-.06.18-.12.04-.06.07-.13.07-.2v-.32c0-.28.11-.53.3-.72s.44-.3.72-.3h1.41c.28,0,.53.11.72.3.18.18.3.44.3.72v.32c0,.08.02.15.07.2.04.06.1.1.18.12h0ZM28.74,2.54c-.22-.09-.45-.17-.68-.24-.22-.06-.4-.19-.53-.36-.13-.17-.2-.38-.2-.61v-.32c0-.09-.04-.18-.1-.24-.06-.06-.14-.1-.24-.1h-1.41c-.09,0-.18.04-.24.1-.06.06-.1.14-.1.24v.32c0,.23-.07.44-.2.61-.13.17-.31.3-.53.36-.23.07-.46.15-.68.24-.23.09-.44.2-.65.31-.2.11-.42.15-.63.12-.21-.03-.42-.13-.58-.29l-.23-.23c-.06-.06-.15-.1-.24-.1s-.17.03-.24.1l-1,1c-.07.06-.1.15-.1.24s.03.17.1.24l.23.23c.16.16.26.36.29.58.03.21,0,.43-.12.63-.11.21-.22.42-.31.65-.09.23-.17.45-.24.68-.06.22-.19.4-.36.53-.17.13-.38.2-.61.2h-.32c-.09,0-.18.04-.24.1-.06.06-.1.14-.1.24v1.41c0,.09.04.18.1.24.06.06.14.1.24.1h.32c.23,0,.44.07.61.2.17.13.3.31.36.53.07.23.15.46.24.68.09.23.2.44.31.65.11.2.15.42.12.63-.03.21-.13.42-.29.58l-.23.23c-.07.06-.1.15-.1.24s.03.17.1.24l1,1c.07.07.15.1.24.1s.17-.03.24-.1l.23-.23c.16-.16.36-.26.58-.29.21-.03.43,0,.63.12.21.11.42.22.65.31s.45.17.68.24c.22.06.4.19.53.36.13.17.2.38.2.61v.32c0,.09.04.18.1.24.06.06.14.1.24.1h1.41c.09,0,.18-.04.24-.1.06-.06.1-.14.1-.24v-.32c0-.23.07-.44.2-.61.13-.17.31-.3.53-.36.23-.07.46-.15.68-.24.23-.09.44-.2.65-.31.2-.11.42-.15.63-.12.21.03.42.13.58.29l.23.23c.07.07.15.1.24.1s.17-.03.24-.1l1-1c.07-.06.1-.15.1-.24s-.03-.17-.1-.24l-.23-.23c-.16-.16-.26-.36-.29-.58-.03-.21,0-.43.12-.63.11-.21.22-.42.31-.65.09-.23.17-.45.24-.68.06-.22.19-.4.36-.53.17-.13.38-.2.61-.2h.32c.09,0,.18-.04.24-.1.06-.06.1-.14.1-.24v-1.41c0-.09-.04-.18-.1-.24-.06-.06-.14-.1-.24-.1h-.32c-.23,0-.44-.07-.61-.2-.17-.13-.3-.31-.36-.53-.07-.23-.15-.46-.24-.68-.09-.23-.2-.44-.31-.65-.11-.2-.15-.42-.12-.63.03-.21.13-.42.29-.58l.23-.23c.07-.06.1-.15.1-.24s-.03-.17-.1-.24l-1-1c-.06-.06-.15-.1-.24-.1s-.17.03-.24.1l-.22.23c-.16.16-.36.26-.58.29-.21.03-.43,0-.63-.12-.21-.12-.43-.22-.65-.31h0ZM29,21.17c-.1.22-.23.43-.4.61-.35.38-.83.63-1.37.63h-1.3l1.59.29c.33.06.64.07.94.03.3-.04.6-.13.9-.27l8.21-3.85c.17-.08.34-.14.51-.17-.03-.07-.06-.14-.09-.2-.17-.29-.44-.48-.74-.56-.33-.09-.7-.05-1.04.11-2.41,1.12-4.81,2.25-7.21,3.38h0ZM35.49,17.38v-.04c-.04-.09-.08-.17-.13-.25-.17-.29-.44-.48-.74-.56-.33-.09-.7-.05-1.04.11l-4.98,2.33c.34.35.56.83.56,1.36v.02l6.32-2.96h0ZM27.98,18.52l5.34-2.5c.48-.23,1.02-.28,1.49-.15.47.13.88.42,1.15.88.07.11.12.23.16.35.43-.16.89-.18,1.31-.07.47.13.88.42,1.15.88.07.12.13.25.17.38.01.04.02.08.03.12.1.01.19.03.29.06.47.13.88.42,1.15.88l.04.07c.23.45.28.96.16,1.42-.12.47-.42.89-.86,1.14-3.4,1.7-6.81,3.56-10.19,5.32-.26.14-.52.24-.78.31-.26.07-.54.11-.83.11l-9.78.3c-.15,0-.29.02-.42.05h-.02s.25.44.25.44c.14.24.17.52.1.77-.07.25-.23.47-.47.61l-1.68.97c-.24.14-.52.17-.77.1-.25-.07-.47-.23-.61-.47l-4.66-8.08c-.14-.24-.17-.52-.1-.77.07-.25.23-.47.47-.61l1.71-.98c.24-.13.5-.15.75-.09.25.07.47.23.61.47l.23.39,3.84-2.39c1.27-1.03,4.02-.69,6.64-.36,1.23.15,2.43.3,3.41.3.27,0,.52.05.75.15h0ZM17.17,27.47c.08-.02.16-.04.24-.06.17-.04.35-.06.54-.06l9.78-.3c.24,0,.46-.04.68-.09.21-.06.42-.14.64-.25l10.16-5.31c.28-.16.47-.43.54-.73.08-.31.05-.65-.1-.94l-.03-.05c-.17-.29-.44-.48-.74-.56-.33-.09-.7-.05-1.04.11l-8.21,3.85c-.36.17-.73.28-1.1.33-.37.05-.75.03-1.15-.04l-5.21-.96c-.18-.03-.3-.21-.27-.39.03-.16.17-.28.33-.28h4.99c.33,0,.64-.16.87-.41.25-.27.4-.63.4-1s-.14-.67-.37-.9c-.23-.23-.55-.37-.9-.37-1.01,0-2.24-.15-3.49-.31-2.5-.31-5.11-.63-6.15.23l-3.91,2.44,3.5,6.06h0Z"/>
    </g>
  </g>
</svg>