<?xml version="1.0" encoding="UTF-8"?>
<svg id="Layer_2" xmlns="http://www.w3.org/2000/svg" xmlns:xlink="http://www.w3.org/1999/xlink" viewBox="0 0 50 31">
  <defs>
    <style>
      .cls-1 {
        fill: #fff;
      }

      .cls-2 {
        fill: none;
      }

      .cls-3 {
        clip-path: url(#clippath);
      }
    </style>
    <clipPath id="clippath">
      <rect class="cls-2" width="50" height="31"/>
    </clipPath>
  </defs>
  <g id="Layer_1-2" data-name="Layer_1">
    <g class="cls-3">
      <path class="cls-1" d="M31.76,18.25c-1.03-1.03-2.57-1.33-3.91-.78-1.34.56-2.21,1.87-2.21,3.32s.87,2.76,2.21,3.32c1.34.56,2.89.25,3.91-.78,1.4-1.4,1.4-3.68,0-5.08h0ZM31.24,22.81h0c-.81.81-2.04,1.06-3.1.62-1.06-.44-1.76-1.48-1.76-2.63s.69-2.19,1.76-2.63c1.07-.44,2.29-.2,3.1.62,1.11,1.12,1.11,2.92,0,4.03h0ZM38.34,28.16l-2.61-2.61c-.2-.2-.46-.32-.73-.35l-.53-.53.82-.48c.12-.07.19-.19.19-.32v-13.53c0-.13-.07-.26-.19-.32l-7.15-4.13c.1-.33.16-.67.17-1.02-.02-2.7-2.22-4.88-4.92-4.88s-4.89,2.18-4.92,4.88c0,.35.06.69.17,1.02l-7.15,4.13c-.12.07-.19.19-.19.32v13.52c0,.13.07.26.19.32l11.71,6.76c.11.07.26.07.37,0l9.16-5.29.9.9h0c.03.28.16.54.35.73l2.61,2.61h0c.48.48,1.27.48,1.75,0,.48-.48.48-1.27,0-1.75h0ZM33.97,25.55c-.05.05-.1.11-.14.18l-1.29-1.29c.06-.05.11-.1.16-.16s.11-.11.15-.16l1.29,1.29h0c-.06.04-.12.09-.18.14ZM32.18,23.75c-1.2,1.2-3,1.55-4.56.91-1.56-.65-2.58-2.17-2.58-3.87s1.02-3.22,2.58-3.86c1.56-.65,3.36-.29,4.56.91,1.63,1.63,1.63,4.28,0,5.92h0ZM23.39,16.68l-3.31-1.91.85-.49c.8.2,1.63.31,2.46.3,2.27,0,4.68-.74,4.68-2.1,0-.61-.5-1.14-1.38-1.52l4.36-2.52,3.31,1.91-10.97,6.33ZM24.64,11.71c.11-.15.23-.31.35-.47.25.04.49.09.7.15h.02c1.05.29,1.61.74,1.61,1.08,0,.57-1.5,1.36-3.94,1.36-.8,0-1.6-.09-2.38-.3-.03-.01-.06-.02-.09-.02-.94-.28-1.48-.7-1.48-1.04,0-.42.82-.98,2.34-1.23l.35.47c.37.5.69.94.95,1.31h0c.07.1.18.16.31.16s.24-.06.31-.16c.25-.37.57-.8.95-1.31h0ZM21.3,10.58c-1.62.34-2.6,1.04-2.6,1.9,0,.63.51,1.13,1.29,1.48l-.66.38-2.87-1.66,4.49-2.59c.12.16.23.33.35.49h0ZM16.09,13.32l2.87,1.66v4.95l-2.87-1.66v-4.95ZM30.3,8.01l-4.56,2.63c-.09-.02-.18-.04-.27-.06h0c.94-1.24,1.75-2.57,2.41-3.97l2.42,1.4ZM23.39.7c2.3,0,4.17,1.87,4.17,4.18,0,1.63-2.12,4.5-3.52,6.4-.23.31-.46.62-.65.89-.2-.28-.42-.58-.65-.89-1.4-1.9-3.52-4.77-3.52-6.4h0c0-2.3,1.87-4.17,4.18-4.18h0ZM20.53,9.48l-4.81,2.77-3.31-1.91,6.48-3.74h0c.46,1.01,1,1.97,1.64,2.87h0ZM12.04,10.99l3.31,1.91v5.59c0,.13.07.26.19.32l3.61,2.08h0c.11.07.26.07.37,0,.11-.07.19-.19.19-.32v-5.16l3.31,1.91v12.67l-10.97-6.33v-12.67ZM23.76,29.99v-12.67l10.97-6.33v12.67l-.81.47-.6-.6c1.4-2.1.98-4.93-.98-6.53-1.96-1.6-4.81-1.46-6.59.33-1.79,1.79-1.93,4.64-.33,6.59,1.6,1.96,4.43,2.38,6.53.98l.23.23-8.43,4.86ZM37.81,29.38h0c-.19.19-.51.19-.7,0l-2.61-2.61h0c-.18-.19-.18-.5,0-.69.19-.19.5-.19.69,0l2.61,2.61c.19.19.19.51,0,.7h0ZM26.9,4.81c0-1.42-.86-2.71-2.17-3.25-1.32-.54-2.83-.24-3.83.76-1.01,1.01-1.31,2.52-.76,3.84s1.83,2.17,3.25,2.17c1.94,0,3.52-1.58,3.52-3.52h0ZM20.61,4.81h0c0-1.12.68-2.14,1.72-2.57,1.04-.43,2.23-.19,3.03.6.79.79,1.03,1.99.6,3.03-.43,1.04-1.44,1.72-2.57,1.72-1.53,0-2.78-1.25-2.78-2.78h0Z"/>
    </g>
  </g>
</svg>