<svg id="custom_angular_development" data-name="custom angular development" xmlns="http://www.w3.org/2000/svg" xmlns:xlink="http://www.w3.org/1999/xlink" viewBox="0 0 120 120"><defs><style>.cls-1{fill:none;}.cls-2{clip-path:url(#clip-path);}.cls-3{fill:#3b82f6;fill-rule:evenodd;}</style><clipPath id="clip-path" transform="translate(-38)"><rect class="cls-1" width="196" height="120"/></clipPath></defs><g class="cls-2"><path class="cls-3" d="M67.62,50.44a5.84,5.84,0,0,0-5.9,5.76v55.29a5.84,5.84,0,0,0,5.9,5.76h60.76a5.84,5.84,0,0,0,5.9-5.76V56.2a5.84,5.84,0,0,0-5.9-5.76ZM128.38,120H67.62a8.62,8.62,0,0,1-8.71-8.51V56.2a8.62,8.62,0,0,1,8.71-8.51h60.76a8.62,8.62,0,0,1,8.71,8.51v55.29A8.62,8.62,0,0,1,128.38,120Z" transform="translate(-38)"/><path class="cls-3" d="M135.69,65.38H60.31a1.38,1.38,0,1,1,0-2.75h75.38a1.38,1.38,0,1,1,0,2.75Z" transform="translate(-38)"/><path class="cls-3" d="M68.9,55.29a1.25,1.25,0,1,0,1.28,1.25A1.26,1.26,0,0,0,68.9,55.29Zm0,5.24a4,4,0,1,1,4.1-4A4,4,0,0,1,68.9,60.53Z" transform="translate(-38)"/><path class="cls-3" d="M79.14,55.29a1.25,1.25,0,1,0,1.28,1.25A1.27,1.27,0,0,0,79.14,55.29Zm0,5.24a4,4,0,1,1,4.09-4A4,4,0,0,1,79.14,60.53Z" transform="translate(-38)"/><path class="cls-3" d="M89.38,55.29a1.25,1.25,0,1,0,1.27,1.25A1.26,1.26,0,0,0,89.38,55.29Zm0,5.24a4,4,0,1,1,4.09-4A4.05,4.05,0,0,1,89.38,60.53Z" transform="translate(-38)"/><path class="cls-3" d="M99.61,55.29a1.25,1.25,0,1,0,0,2.49H127.1a1.25,1.25,0,1,0,0-2.49Zm27.49,5.24H99.61a4,4,0,1,1,0-8H127.1a4,4,0,1,1,0,8Z" transform="translate(-38)"/><path class="cls-3" d="M137.88,79.75h-2.19a1.38,1.38,0,1,1,0-2.75h2.19a16.84,16.84,0,0,0,4.87-33.09,1.42,1.42,0,0,1-.93-.84,1.38,1.38,0,0,1,.14-1.23,16.51,16.51,0,0,0,2.78-9.18,17.12,17.12,0,0,0-17.3-16.89,17.53,17.53,0,0,0-9.64,2.86,1.42,1.42,0,0,1-1.37.11,1.37,1.37,0,0,1-.81-1.09,17.33,17.33,0,0,0-34.49,2,16.56,16.56,0,0,0,.76,4.95,1.36,1.36,0,0,1-.31,1.33,1.45,1.45,0,0,1-1.33.41A17.72,17.72,0,0,0,76.68,26a17.13,17.13,0,0,0-17.28,16A1.38,1.38,0,0,1,58,43.23,16.89,16.89,0,1,0,58.12,77h2.19a1.38,1.38,0,1,1,0,2.75H58.12A19.62,19.62,0,0,1,56.7,40.53a20,20,0,0,1,20-17.32c.67,0,1.33,0,2,.1a19.69,19.69,0,0,1-.35-3.68,20.17,20.17,0,0,1,39.74-4.34A20.36,20.36,0,0,1,127.44,13a19.91,19.91,0,0,1,20.12,19.64,19.2,19.2,0,0,1-2.33,9.18,19.57,19.57,0,0,1-7.35,37.91Z" transform="translate(-38)"/><path class="cls-3" d="M84.74,94.15a1.42,1.42,0,0,1-.79-.23L69.32,84.26a1.35,1.35,0,0,1,0-2.27L84,72.33a1.43,1.43,0,0,1,2,.37,1.35,1.35,0,0,1-.37,1.91L72.62,83.13l12.91,8.51a1.35,1.35,0,0,1,.37,1.91A1.41,1.41,0,0,1,84.74,94.15Z" transform="translate(-38)"/><path class="cls-3" d="M111.26,94.15a1.41,1.41,0,0,1-1.16-.6,1.35,1.35,0,0,1,.37-1.91l12.91-8.51-12.91-8.52a1.35,1.35,0,0,1-.37-1.91,1.43,1.43,0,0,1,2-.37L126.68,82a1.35,1.35,0,0,1,0,2.27l-14.63,9.66A1.42,1.42,0,0,1,111.26,94.15Z" transform="translate(-38)"/><path class="cls-3" d="M102.86,94.15a1.4,1.4,0,0,1-1.22-.69L90.22,74.16a1.35,1.35,0,0,1,.52-1.88,1.42,1.42,0,0,1,1.92.51l11.42,19.3a1.36,1.36,0,0,1-.51,1.88A1.53,1.53,0,0,1,102.86,94.15Z" transform="translate(-38)"/><path class="cls-3" d="M125.9,101.6H70.11a1.38,1.38,0,1,1,0-2.75H125.9a1.38,1.38,0,1,1,0,2.75Z" transform="translate(-38)"/><path class="cls-3" d="M125.9,110.54H70.11a1.38,1.38,0,1,1,0-2.75H125.9a1.38,1.38,0,1,1,0,2.75Z" transform="translate(-38)"/></g></svg>