<svg id="e-commerce_development" data-name="e-commerce development" xmlns="http://www.w3.org/2000/svg" xmlns:xlink="http://www.w3.org/1999/xlink" viewBox="0 0 120 120"><defs><style>.cls-1{fill:none;}.cls-2{clip-path:url(#clip-path);}.cls-3{fill:#3b82f6;}</style><clipPath id="clip-path" transform="translate(-38)"><rect class="cls-1" width="196" height="120"/></clipPath></defs><g class="cls-2"><path class="cls-3" d="M149.5,120H46.5a8.51,8.51,0,0,1-8.5-8.5V8.5A8.51,8.51,0,0,1,46.5,0h103A8.51,8.51,0,0,1,158,8.5v103A8.51,8.51,0,0,1,149.5,120ZM46.5,4.8a3.7,3.7,0,0,0-3.7,3.7v103a3.7,3.7,0,0,0,3.7,3.7h103a3.7,3.7,0,0,0,3.7-3.7V8.5a3.7,3.7,0,0,0-3.7-3.7Z" transform="translate(-38)"/><path class="cls-3" d="M149.5,120H46.5a8.51,8.51,0,0,1-8.5-8.5V26.76a2.39,2.39,0,0,1,2.4-2.4H155.6a2.39,2.39,0,0,1,2.4,2.4V111.5A8.51,8.51,0,0,1,149.5,120ZM42.8,29.16V111.5a3.7,3.7,0,0,0,3.7,3.7h103a3.7,3.7,0,0,0,3.7-3.7V29.16Z" transform="translate(-38)"/><path class="cls-3" d="M136,21.78a7.2,7.2,0,1,1,7.2-7.2A7.21,7.21,0,0,1,136,21.78Zm0-9.6a2.4,2.4,0,1,0,2.4,2.4A2.41,2.41,0,0,0,136,12.18Z" transform="translate(-38)"/><path class="cls-3" d="M113,21.78a7.2,7.2,0,1,1,7.2-7.2A7.21,7.21,0,0,1,113,21.78Zm0-9.6a2.4,2.4,0,1,0,2.4,2.4A2.41,2.41,0,0,0,113,12.18Z" transform="translate(-38)"/><path class="cls-3" d="M104.31,90.48H75.7a2.41,2.41,0,0,1-2.26-1.59l-9-25.2a2.4,2.4,0,0,1,2.26-3.21h48.84a2.39,2.39,0,0,1,2.19,3.38L106.5,89.06A2.39,2.39,0,0,1,104.31,90.48ZM77.4,85.68h25.35l9.1-20.4H70.11Z" transform="translate(-38)"/><path class="cls-3" d="M115.54,65.28a2.43,2.43,0,0,1-1-.21,2.4,2.4,0,0,1-1.21-3.17l3-6.6a2.42,2.42,0,0,1,2.2-1.42h10.8a2.4,2.4,0,0,1,0,4.8h-9.25l-2.32,5.18A2.39,2.39,0,0,1,115.54,65.28Z" transform="translate(-38)"/><path class="cls-3" d="M83.21,100.8h-4.8a2.4,2.4,0,0,1,0-4.8h4.8a2.4,2.4,0,0,1,0,4.8Z" transform="translate(-38)"/><path class="cls-3" d="M102.41,100.8h-4.8a2.4,2.4,0,0,1,0-4.8h4.8a2.4,2.4,0,0,1,0,4.8Z" transform="translate(-38)"/></g></svg>