<svg id="erp" xmlns="http://www.w3.org/2000/svg" xmlns:xlink="http://www.w3.org/1999/xlink" viewBox="0 0 122.84 120"><defs><style>.cls-1{fill:none;}.cls-2{clip-path:url(#clip-path);}.cls-3{fill:#3b82f6;}</style><clipPath id="clip-path" transform="translate(-36.58)"><rect class="cls-1" width="196" height="120"/></clipPath></defs><g class="cls-2"><rect class="cls-1" x="63.15" y="11.39" width="6.27" height="10.88"/><rect class="cls-1" x="53.4" y="25.75" width="6.27" height="10.87"/><rect class="cls-1" x="63.15" y="25.75" width="6.27" height="10.87"/><rect class="cls-1" x="53.4" y="11.39" width="6.27" height="10.88"/><path class="cls-1" d="M143.34,19.27a2.59,2.59,0,0,0,4.9-1.71,2.57,2.57,0,0,0-1.33-1.49,2.54,2.54,0,0,0-2.84.41A2.56,2.56,0,0,0,143.34,19.27Z" transform="translate(-36.58)"/><path class="cls-1" d="M47,69.22a2.6,2.6,0,0,0-.91,5,2.59,2.59,0,1,0,.91-5Z" transform="translate(-36.58)"/><rect class="cls-1" x="86.94" y="38.99" width="3.85" height="3.86"/><path class="cls-1" d="M131.94,105.36a2.54,2.54,0,0,0,2,2,2.57,2.57,0,0,0,3-2,2.53,2.53,0,0,0-1.08-2.68,2.64,2.64,0,0,0-1.46-.45,2.6,2.6,0,0,0-2.53,3.11Z" transform="translate(-36.58)"/><rect class="cls-1" x="86.94" y="50.75" width="3.85" height="3.86"/><path class="cls-1" d="M49.13,16l-.17.08a2.63,2.63,0,0,0-1.15,3.35,2.6,2.6,0,0,0,4.83-.2A2.6,2.6,0,0,0,49.13,16Z" transform="translate(-36.58)"/><rect class="cls-1" x="86.94" y="27.22" width="3.85" height="3.86"/><path class="cls-1" d="M45.21,45.36a2.56,2.56,0,0,0-1.74-2.43,2.83,2.83,0,0,0-.9-.15,2.26,2.26,0,0,0-1,.22,2.6,2.6,0,0,0,.2,4.83,2.6,2.6,0,0,0,3.45-2.37Z" transform="translate(-36.58)"/><path class="cls-1" d="M62.94,102.68a2.63,2.63,0,0,0-3.6.73,2.59,2.59,0,1,0,4.7,1.94A2.57,2.57,0,0,0,62.94,102.68Z" transform="translate(-36.58)"/><path class="cls-1" d="M99.11,111.61a2.54,2.54,0,0,0-2.84.41,2.58,2.58,0,1,0,2.84-.41Z" transform="translate(-36.58)"/><path class="cls-1" d="M62.22,23.66V59.23H78.94V23.66Zm12.59,30H66.35a1.74,1.74,0,0,1,0-3.48h8.46a1.74,1.74,0,0,1,0,3.48Zm0-7H66.35a1.74,1.74,0,0,1,0-3.48h8.46a1.74,1.74,0,0,1,0,3.48Zm0-7H66.35a1.74,1.74,0,0,1,0-3.48h8.46a1.74,1.74,0,0,1,0,3.48Zm0-7H66.35a1.74,1.74,0,0,1,0-3.48h8.46a1.74,1.74,0,0,1,0,3.48Z" transform="translate(-36.58)"/><path class="cls-1" d="M154.48,43a2.55,2.55,0,0,0-1.12-.27,2.6,2.6,0,0,0-1.72.67,2.59,2.59,0,1,0,4.05,3.06,2.53,2.53,0,0,0,.12-2A2.55,2.55,0,0,0,154.48,43Z" transform="translate(-36.58)"/><path class="cls-1" d="M146.52,71.26a2.57,2.57,0,0,0,1.4,2.89A2.6,2.6,0,0,0,151.5,71a2.6,2.6,0,0,0-2.44-1.74A2.55,2.55,0,0,0,146.52,71.26Z" transform="translate(-36.58)"/><path class="cls-3" d="M74.81,44.19H66.35a.75.75,0,0,0,0,1.5h8.46a.75.75,0,0,0,0-1.5Z" transform="translate(-36.58)"/><path class="cls-3" d="M129.12,24.73h-7.34a.75.75,0,0,0-.75.75v7.34a.75.75,0,0,0,.75.75h7.34a.75.75,0,0,0,.74-.75V25.48A.75.75,0,0,0,129.12,24.73Zm-.75,7.34h-5.85V26.23h5.85Z" transform="translate(-36.58)"/><path class="cls-3" d="M129.12,36.5h-7.34a.74.74,0,0,0-.75.75v7.34a.75.75,0,0,0,.75.75h7.34a.75.75,0,0,0,.74-.75V37.25A.74.74,0,0,0,129.12,36.5Zm-.75,7.34h-5.85V38h5.85Z" transform="translate(-36.58)"/><path class="cls-3" d="M74.81,51.19H66.35a.75.75,0,0,0,0,1.5h8.46a.75.75,0,0,0,0-1.5Z" transform="translate(-36.58)"/><path class="cls-3" d="M129.12,48.26h-7.34A.75.75,0,0,0,121,49v7.34a.75.75,0,0,0,.75.75h7.34a.75.75,0,0,0,.74-.75V49A.75.75,0,0,0,129.12,48.26Zm-.75,7.34h-5.85V49.76h5.85Z" transform="translate(-36.58)"/><path class="cls-3" d="M74.81,30.2H66.35a.75.75,0,0,0,0,1.49h8.46a.75.75,0,0,0,0-1.49Z" transform="translate(-36.58)"/><path class="cls-3" d="M74.81,37.19H66.35a.75.75,0,0,0,0,1.5h8.46a.75.75,0,0,0,0-1.5Z" transform="translate(-36.58)"/><path class="cls-3" d="M74.81,43.2H66.35a1.74,1.74,0,0,0,0,3.48h8.46a1.74,1.74,0,0,0,0-3.48Zm0,2.49H66.35a.75.75,0,0,1,0-1.5h8.46a.75.75,0,0,1,0,1.5Z" transform="translate(-36.58)"/><path class="cls-3" d="M74.81,50.2H66.35a1.74,1.74,0,0,0,0,3.48h8.46a1.74,1.74,0,0,0,0-3.48Zm0,2.49H66.35a.75.75,0,0,1,0-1.5h8.46a.75.75,0,0,1,0,1.5Z" transform="translate(-36.58)"/><path class="cls-3" d="M74.81,36.2H66.35a1.74,1.74,0,0,0,0,3.48h8.46a1.74,1.74,0,0,0,0-3.48Zm0,2.49H66.35a.75.75,0,0,1,0-1.5h8.46a.75.75,0,0,1,0,1.5Z" transform="translate(-36.58)"/><path class="cls-3" d="M74.81,29.2H66.35a1.74,1.74,0,0,0,0,3.48h8.46a1.74,1.74,0,0,0,0-3.48Zm0,2.49H66.35a.75.75,0,0,1,0-1.49h8.46a.75.75,0,0,1,0,1.49Z" transform="translate(-36.58)"/><path class="cls-3" d="M129.12,35.51h-7.34A1.74,1.74,0,0,0,120,37.25v7.34a1.74,1.74,0,0,0,1.74,1.74h7.34a1.75,1.75,0,0,0,1.74-1.74V37.25A1.75,1.75,0,0,0,129.12,35.51Zm.74,9.08a.75.75,0,0,1-.74.75h-7.34a.75.75,0,0,1-.75-.75V37.25a.74.74,0,0,1,.75-.75h7.34a.74.74,0,0,1,.74.75Z" transform="translate(-36.58)"/><path class="cls-3" d="M129.12,47.27h-7.34A1.74,1.74,0,0,0,120,49v7.34a1.74,1.74,0,0,0,1.74,1.74h7.34a1.75,1.75,0,0,0,1.74-1.74V49A1.75,1.75,0,0,0,129.12,47.27Zm.74,9.08a.75.75,0,0,1-.74.75h-7.34a.75.75,0,0,1-.75-.75V49a.75.75,0,0,1,.75-.75h7.34a.75.75,0,0,1,.74.75Z" transform="translate(-36.58)"/><path class="cls-3" d="M129.12,23.74h-7.34A1.74,1.74,0,0,0,120,25.48v7.34a1.74,1.74,0,0,0,1.74,1.74h7.34a1.75,1.75,0,0,0,1.74-1.74V25.48A1.75,1.75,0,0,0,129.12,23.74Zm.74,9.08a.75.75,0,0,1-.74.75h-7.34a.75.75,0,0,1-.75-.75V25.48a.75.75,0,0,1,.75-.75h7.34a.75.75,0,0,1,.74.75Z" transform="translate(-36.58)"/><path class="cls-3" d="M127.15,69.07a.73.73,0,0,1,.55-.52l9.39-2.72V61.7H115.85l0,.46a17.88,17.88,0,0,1-35.67,0l0-.46H58.88v4.13l9.44,2.72a.76.76,0,0,1,.51.52,30.43,30.43,0,0,0,2.8,6.76.76.76,0,0,1,0,.73l-4.75,8.6,6.89,6.89,8.6-4.75a.76.76,0,0,1,.77,0,31.09,31.09,0,0,0,6.72,2.78.76.76,0,0,1,.53.55l2.72,9.4h9.75l2.72-9.44a.71.71,0,0,1,.52-.51,30.36,30.36,0,0,0,6.75-2.8.73.73,0,0,1,.73,0l8.61,4.75,6.89-6.89-4.75-8.61a.78.78,0,0,1,0-.77A30.56,30.56,0,0,0,127.15,69.07Zm-3.68,8L127.86,85,122,90.83l-8-4.4a1.78,1.78,0,0,0-1.69,0,29.61,29.61,0,0,1-6.54,2.71,1.73,1.73,0,0,0-1.2,1.19l-2.52,8.72H93.86l-2.5-8.66a1.77,1.77,0,0,0-1.22-1.25,29.81,29.81,0,0,1-6.47-2.67,1.76,1.76,0,0,0-1.76,0l-8,4.39L68.12,85l4.39-8a1.75,1.75,0,0,0,0-1.69,29.29,29.29,0,0,1-2.72-6.53,1.75,1.75,0,0,0-1.18-1.21L59.87,65.1V62.7H79.19a18.87,18.87,0,0,0,37.58,0H136.1v2.4l-8.66,2.5a1.73,1.73,0,0,0-1.25,1.22,29.65,29.65,0,0,1-2.67,6.47A1.76,1.76,0,0,0,123.47,77Z" transform="translate(-36.58)"/><path class="cls-3" d="M136.48,101.88a3.58,3.58,0,0,0-4,0,3.59,3.59,0,0,0,1.29,6.5,4,4,0,0,0,.69.07,3.62,3.62,0,0,0,3.52-2.85h0A3.55,3.55,0,0,0,136.48,101.88Zm.53,3.5a2.57,2.57,0,0,1-3,2,2.54,2.54,0,0,1-2-2,2.6,2.6,0,0,1,2.53-3.11,2.64,2.64,0,0,1,1.46.45A2.53,2.53,0,0,1,137,105.38Z" transform="translate(-36.58)"/><path class="cls-3" d="M63.49,101.86a3.53,3.53,0,0,0-2-.6,3.58,3.58,0,0,0-3,1.6,3.59,3.59,0,0,0,3,5.57,3.68,3.68,0,0,0,.73-.07,3.59,3.59,0,0,0,1.29-6.5Zm.55,3.49a2.56,2.56,0,0,1-2,2,2.59,2.59,0,0,1-2.67-4,2.63,2.63,0,0,1,3.6-.73A2.57,2.57,0,0,1,64,105.35Z" transform="translate(-36.58)"/><path class="cls-3" d="M122.52,49.76V55.6h5.85V49.76Zm4.85,4.85h-3.85V50.75h3.85Z" transform="translate(-36.58)"/><path class="cls-3" d="M122.52,38v5.84h5.85V38Zm4.85,4.85h-3.85V39h3.85Z" transform="translate(-36.58)"/><path class="cls-3" d="M45.82,43.76a3.61,3.61,0,0,0-4.7-1.64,3.58,3.58,0,0,0,.31,6.64,3.51,3.51,0,0,0,1.19.21,3.62,3.62,0,0,0,2-.64,3.55,3.55,0,0,0,1.54-2.87V45.3A3.39,3.39,0,0,0,45.82,43.76Zm-.61,1.7a2.6,2.6,0,0,1-3.45,2.37,2.6,2.6,0,0,1-.2-4.83,2.26,2.26,0,0,1,1-.22,2.83,2.83,0,0,1,.9.15,2.56,2.56,0,0,1,1.74,2.43Z" transform="translate(-36.58)"/><path class="cls-3" d="M50.16,70.25a3.58,3.58,0,0,0-3.17-2h0a3.59,3.59,0,0,0-1.23,7,3.61,3.61,0,0,0,1.2.21,3.57,3.57,0,0,0,2.66-1.22A3.53,3.53,0,0,0,50.16,70.25Zm-1.29,3.28a2.57,2.57,0,0,1-2.8.73,2.6,2.6,0,0,1,.91-5,2.59,2.59,0,0,1,2.29,1.47A2.56,2.56,0,0,1,48.87,73.53Z" transform="translate(-36.58)"/><path class="cls-3" d="M52.6,15.77a3.52,3.52,0,0,0-3.89-.63l-.14.07a3.44,3.44,0,0,0-1.76,2,3.4,3.4,0,0,0,.12,2.68A3.56,3.56,0,0,0,50.16,22h.24a3.6,3.6,0,0,0,3.17-2.4A3.53,3.53,0,0,0,52.6,15.77Zm0,3.5a2.6,2.6,0,0,1-4.83.2A2.63,2.63,0,0,1,49,16.12l.17-.08a2.6,2.6,0,0,1,3.51,3.23Z" transform="translate(-36.58)"/><path class="cls-3" d="M88.62,49.53V60.22h18.74V49.53Zm17.75,9.7H89.61V50.52h16.76Z" transform="translate(-36.58)"/><path class="cls-3" d="M156.74,44.19A3.59,3.59,0,1,0,153.15,49h.22a3.52,3.52,0,0,0,3.22-2A3.57,3.57,0,0,0,156.74,44.19Zm-1.05,2.31A2.54,2.54,0,0,1,153.21,48a2.58,2.58,0,0,1-1.57-4.52,2.6,2.6,0,0,1,1.72-.67,2.59,2.59,0,0,1,2.33,3.73Z" transform="translate(-36.58)"/><path class="cls-3" d="M152.43,70.63a3.58,3.58,0,0,0-3.38-2.4h0a3.59,3.59,0,0,0-1.54,6.82,3.66,3.66,0,0,0,1.56.36,3.6,3.6,0,0,0,3.38-4.78Zm-1.66,3.12a2.54,2.54,0,0,1-2.85.4,2.57,2.57,0,0,1-1.4-2.89,2.55,2.55,0,0,1,2.54-2A2.6,2.6,0,0,1,151.5,71,2.56,2.56,0,0,1,150.77,73.75Z" transform="translate(-36.58)"/><path class="cls-3" d="M101.37,112.77a3.59,3.59,0,1,0-3.59,4.76H98a3.57,3.57,0,0,0,3.37-4.76Zm-1,2.31a2.56,2.56,0,0,1-2.49,1.45A2.58,2.58,0,0,1,96.27,112a2.54,2.54,0,0,1,2.84-.41,2.6,2.6,0,0,1,1.22,3.47Z" transform="translate(-36.58)"/><path class="cls-3" d="M81.61,61.72l0,.53a16.39,16.39,0,0,0,32.68,0l0-.53ZM98,76.36a15.46,15.46,0,0,1-15.3-13.65h30.6A15.46,15.46,0,0,1,98,76.36Z" transform="translate(-36.58)"/><path class="cls-3" d="M122.52,26.23v5.84h5.85V26.23Zm4.85,4.85h-3.85V27.22h3.85Z" transform="translate(-36.58)"/><path class="cls-3" d="M149.18,17.23a3.57,3.57,0,0,0-1.84-2.05,3.58,3.58,0,1,0-1.76,6.8h.22A3.53,3.53,0,0,0,149,20,3.62,3.62,0,0,0,149.18,17.23Zm-1.05,2.3a2.59,2.59,0,1,1-4.06-3.05,2.54,2.54,0,0,1,2.84-.41,2.57,2.57,0,0,1,1.33,1.49A2.54,2.54,0,0,1,148.13,19.53Z" transform="translate(-36.58)"/><path class="cls-3" d="M156,39.91a6.07,6.07,0,0,0-8.44,3.72H137.34V30.22H144a1.73,1.73,0,0,0,1.72-1.56l.67-4.2a6.06,6.06,0,0,0,4.43-2.61,6,6,0,0,0,.73-5.44,6.07,6.07,0,0,0-7.72-3.73h0A6.07,6.07,0,0,0,143,23.78l-.47,3h-5.15V23.18a1.73,1.73,0,0,0-1-1.59L117,13.1V1.74A1.74,1.74,0,0,0,115.29,0H80.68a1.74,1.74,0,0,0-1.74,1.74V20.18H60.48a1.74,1.74,0,0,0-1.74,1.74v4.82H53.5l-.47-3a6.07,6.07,0,0,0,2.62-8,6.06,6.06,0,1,0-10.46,6.07,6,6,0,0,0,4.43,2.6l.67,4.16A1.73,1.73,0,0,0,52,30.22h6.72l0,13.4H48.45A6.09,6.09,0,0,0,40,39.89a6.08,6.08,0,0,0,.63,11.2,6.07,6.07,0,0,0,7.81-4H58.76V59.22h-.47a1.8,1.8,0,0,0-1.35.48A1.72,1.72,0,0,0,56.41,61v1H48.28V62a1.71,1.71,0,0,0-1.07.92l-1.38,2.91a6.07,6.07,0,0,0-4.35,8.6,6.08,6.08,0,0,0,8.1,2.83,6.07,6.07,0,0,0-.12-11l.42-.87h6.53v1a1.73,1.73,0,0,0,1.36,1.7l9,2.59A32.11,32.11,0,0,0,69,76.2l-4.57,8.26a1.75,1.75,0,0,0,.29,2.07l2.59,2.58L62.91,93.3a1.75,1.75,0,0,0-.49.84l-1.15,4.64a6.06,6.06,0,0,0-.93,12,6,6,0,0,0,6.21-2.58,6.06,6.06,0,0,0-1.92-8.57l1-4.17,4.11-3.9,2.64,2.64a1.73,1.73,0,0,0,2.14.26L82.75,90a33.23,33.23,0,0,0,5.53,2.29l2.61,9.06a1.77,1.77,0,0,0,1.17,1.18v.08h4.19v5.57a6.08,6.08,0,0,0-4,7.81,6,6,0,0,0,5.39,4H98a6,6,0,0,0,5.44-3.42,6.08,6.08,0,0,0-3.73-8.45v-5.57h3.7a1.71,1.71,0,0,0,1.69-1.36l2.59-9A32.79,32.79,0,0,0,113.23,90l8.26,4.56a1.75,1.75,0,0,0,2.07-.29l2.65-2.65,4.11,3.9,1,4.17a6.08,6.08,0,0,0-1.93,8.57,6.08,6.08,0,0,0,11-2.18,6.08,6.08,0,0,0-5.71-7.25l-1.15-4.64a1.75,1.75,0,0,0-.49-.84l-4.42-4.19,2.58-2.58a1.73,1.73,0,0,0,.26-2.13L127,76.2a33.13,33.13,0,0,0,2.29-5.52l9.06-2.62a1.72,1.72,0,0,0,1.07-.9l.19.12V65.43h6.53l.41.87a6.08,6.08,0,0,0-3.21,7.52,6.06,6.06,0,1,0,6.84-8l-1.37-2.91a1.79,1.79,0,0,0-1.08-.92V62h-8.12V61a1.75,1.75,0,0,0-1.75-1.74h-.5V47.12h10.21a6.08,6.08,0,0,0,7.81,4,6.08,6.08,0,0,0,.63-11.2ZM142.4,19.59a3.59,3.59,0,0,1,4.94-4.41,3.57,3.57,0,0,1,1.84,2.05A3.62,3.62,0,0,1,149,20a3.53,3.53,0,0,1-3.22,2h-.22A3.53,3.53,0,0,1,142.4,19.59ZM50.4,22h-.24a3.56,3.56,0,0,1-3.23-2.09,3.4,3.4,0,0,1-.12-2.68,3.44,3.44,0,0,1,1.76-2l.14-.07a3.59,3.59,0,0,1,4.86,4.46A3.6,3.6,0,0,1,50.4,22ZM46.2,45.46a3.55,3.55,0,0,1-1.54,2.87,3.62,3.62,0,0,1-2,.64,3.51,3.51,0,0,1-1.19-.21,3.58,3.58,0,0,1-.31-6.64,3.61,3.61,0,0,1,4.7,1.64,3.39,3.39,0,0,1,.38,1.54Zm4,24.79a3.53,3.53,0,0,1-.55,3.94A3.57,3.57,0,0,1,47,75.41a3.61,3.61,0,0,1-1.2-.21,3.59,3.59,0,0,1,1.23-7h0A3.58,3.58,0,0,1,50.16,70.25ZM65,105.54a3.53,3.53,0,0,1-2.81,2.82,3.68,3.68,0,0,1-.73.07,3.59,3.59,0,0,1-3-5.57,3.58,3.58,0,0,1,3-1.6,3.57,3.57,0,0,1,3.5,4.28Zm67.48-3.67a3.59,3.59,0,0,1,5.5,3.71h0a3.62,3.62,0,0,1-3.52,2.85,4,4,0,0,1-.69-.07,3.59,3.59,0,0,1-1.29-6.5ZM117,16.9l16.82,7.41V59.23H117ZM82.42,3.47h31.13V59.23h-3.7V48.78A1.74,1.74,0,0,0,108.11,47H87.87a1.74,1.74,0,0,0-1.74,1.74V59.23H82.42Zm24.94,46.06V60.22H88.62V49.53Zm7,12.19,0,.53a16.39,16.39,0,0,1-32.68,0l0-.53ZM62.22,23.66H78.94V59.23H62.22Zm39.15,89.11A3.57,3.57,0,0,1,98,117.53h-.22a3.59,3.59,0,1,1,3.59-4.76Zm35.72-46.94-9.39,2.72a.73.73,0,0,0-.55.52,30.56,30.56,0,0,1-2.79,6.72.78.78,0,0,0,0,.77l4.75,8.61-6.89,6.89-8.61-4.75a.73.73,0,0,0-.73,0,30.36,30.36,0,0,1-6.75,2.8.71.71,0,0,0-.52.51l-2.72,9.44H93.12l-2.72-9.4a.76.76,0,0,0-.53-.55,31.09,31.09,0,0,1-6.72-2.78.76.76,0,0,0-.77,0l-8.6,4.75-6.89-6.89,4.75-8.6a.76.76,0,0,0,0-.73,30.43,30.43,0,0,1-2.8-6.76.76.76,0,0,0-.51-.52l-9.44-2.72V61.71H80.11l0,.46a17.88,17.88,0,0,0,35.67,0l0-.46h21.24ZM149,68.23h0a3.58,3.58,0,0,1,3.38,2.4,3.6,3.6,0,0,1-3.38,4.78,3.66,3.66,0,0,1-1.56-.36A3.59,3.59,0,0,1,149,68.23Zm7.56-21.3a3.52,3.52,0,0,1-3.22,2h-.22a3.58,3.58,0,1,1,3.59-4.76A3.57,3.57,0,0,1,156.59,46.93Z" transform="translate(-36.58)"/><path class="cls-3" d="M107.73,7.91H88.24A1.74,1.74,0,0,0,86.5,9.65V38.36a1.74,1.74,0,0,0,1.74,1.74h19.49a1.74,1.74,0,0,0,1.74-1.74V9.65A1.74,1.74,0,0,0,107.73,7.91ZM96.25,36.62H90V25.75h6.27Zm0-14.35H90V11.39h6.27ZM106,36.62H99.73V25.75H106Zm0-14.35H99.73V11.39H106Z" transform="translate(-36.58)"/></g></svg>