<svg id="marketplace_development" data-name="marketplace development" xmlns="http://www.w3.org/2000/svg" xmlns:xlink="http://www.w3.org/1999/xlink" viewBox="0 0 117.32 120"><defs><style>.cls-1{fill:none;}.cls-2{clip-path:url(#clip-path);}.cls-3{fill:#3b82f6;}</style><clipPath id="clip-path" transform="translate(-39.34)"><rect class="cls-1" width="196" height="120"/></clipPath></defs><g class="cls-2"><path class="cls-3" d="M102,90.87H84.55V62a2,2,0,0,0-2-2H59.88a2,2,0,0,0-2,2V90.87H49.52V47.18a9.78,9.78,0,0,0,5.55-2.79,9.74,9.74,0,0,0,13.75,0,9.71,9.71,0,0,0,13.73,0,9.7,9.7,0,0,0,13.72,0,9.75,9.75,0,0,0,13.76,0,9.72,9.72,0,0,0,5.55,2.79V68a2,2,0,1,0,4,0V46.89c3.63-1,6.18-4,6.18-7.43V28.78c0-.21-.09-.4-.09-.61L117,1.38A2,2,0,0,0,115.08,0H50a2,2,0,0,0-1.9,1.38L39.44,28.17c0,.21-.09.4-.1.61V39.46c0,3.47,2.56,6.42,6.18,7.43v46a2,2,0,0,0,2,2H102A2,2,0,0,0,102,90.87ZM57.06,39.46V30.78h9.77v8.68C66.68,44.48,57.2,44.47,57.06,39.46Zm13.76,0V30.78h9.73v8.68C80.41,44.46,71,44.49,70.82,39.46Zm13.73,0V30.78h9.72v8.68C94.13,44.49,84.69,44.46,84.55,39.46Zm13.72,0V30.78H108v8.68C107.89,44.48,98.41,44.47,98.27,39.46Zm23.49,0c-.17,5-9.59,5-9.73,0V30.78h9.73ZM51.47,4h62.16L121,26.79H44.09ZM43.34,39.46V30.78h9.72v8.68c0,2.27-2.65,4-5.36,3.8h0C45.21,43,43.34,41.4,43.34,39.46ZM61.88,64H80.55V90.87H61.88Z" transform="translate(-39.34)"/><path class="cls-3" d="M156.3,74.54a2,2,0,0,0-1.64-.86H106l-1.52-4.17a2,2,0,0,0-1.88-1.31H90.79a2,2,0,0,0,0,4H101.2l1.52,4.17h0l10.71,29.2,3.34,9.12c.52,1.56,2.29,1.32,3.58,1.31,2.24,6.26,11.57,4.72,11.63-2s-9.39-8.25-11.63-2H120l-1.87-5.13h25.55a2,2,0,0,0,1.87-1.3l10.94-29.2A2,2,0,0,0,156.3,74.54ZM126,112a2,2,0,0,1,0,4A2,2,0,0,1,126,112Zm16.36-9.13H116.7l-9.24-25.2h44.32Z" transform="translate(-39.34)"/><path class="cls-3" d="M140,108c-7.9.21-7.9,11.78,0,12C147.88,119.79,147.88,108.21,140,108Zm0,8a2,2,0,0,1,0-4A2,2,0,0,1,140,116Z" transform="translate(-39.34)"/></g></svg>