<svg id="native_mobile_app_development" data-name="native mobile app development" xmlns="http://www.w3.org/2000/svg" xmlns:xlink="http://www.w3.org/1999/xlink" viewBox="0 0 68.84 120"><defs><style>.cls-1{fill:none;}.cls-2{clip-path:url(#clip-path);}.cls-3{fill:#3b82f6;}</style><clipPath id="clip-path" transform="translate(-63.58)"><rect class="cls-1" width="196" height="120"/></clipPath></defs><g class="cls-2"><path class="cls-3" d="M124.22,0H71.78c-4.53,0-8.2,4.2-8.2,9.38V110.62c0,5.18,3.67,9.38,8.2,9.38h52.44c4.53,0,8.2-4.2,8.2-9.38V9.38C132.42,4.2,128.75,0,124.22,0ZM71.78,3.75h52.44c2.72,0,4.92,2.52,4.92,5.63V15H66.86V9.38C66.86,6.27,69.06,3.75,71.78,3.75Zm52.44,112.5H71.78c-2.72,0-4.92-2.52-4.92-5.63V18.75h62.28v91.87C129.14,113.73,126.94,116.25,124.22,116.25Z" transform="translate(-63.58)"/><path class="cls-3" d="M94.25,11.25h7.5a1.88,1.88,0,0,0,0-3.75h-7.5a1.88,1.88,0,0,0,0,3.75Z" transform="translate(-63.58)"/><path class="cls-3" d="M99.88,108.75H96.12a1.88,1.88,0,0,0,0,3.75h3.76a1.88,1.88,0,0,0,0-3.75Z" transform="translate(-63.58)"/><path class="cls-3" d="M119.05,97.5H77a1.92,1.92,0,0,0,0,3.75h42.1a1.92,1.92,0,0,0,0-3.75Z" transform="translate(-63.58)"/><path class="cls-3" d="M117.25,48l-.06,0a.41.41,0,0,1,.11.07A.1.1,0,0,0,117.25,48Zm-38.5,0a.1.1,0,0,0,0,0,.41.41,0,0,1,.11-.07Z" transform="translate(-63.58)"/><path class="cls-3" d="M117.56,48.31a.39.39,0,0,0-.06-.11.69.69,0,0,0-.11-.13.35.35,0,0,0-.09-.07.41.41,0,0,0-.11-.07L98.46,36.59a.89.89,0,0,0-.92,0L78.81,47.93a.41.41,0,0,0-.11.07.35.35,0,0,0-.09.07.69.69,0,0,0-.11.13.81.81,0,0,0-.1.21.54.54,0,0,0,0,.22V71.38a.77.77,0,0,0,.39.66L97.51,83.4a.72.72,0,0,0,.2.09l.11,0,.18,0,.18,0,.11,0a.72.72,0,0,0,.2-.09L117.25,72a.77.77,0,0,0,.39-.66V48.64A.62.62,0,0,0,117.56,48.31Zm-20.41,33L80.06,70.94V50.09L97.15,60.43ZM98,59.06,80.77,48.63,98,38.2l17.23,10.43Zm17.94,11.88L98.85,81.29V60.43l17.09-10.34Z" transform="translate(-63.58)"/></g></svg>