<?xml version="1.0" encoding="UTF-8"?>
<svg id="Layer_2" xmlns="http://www.w3.org/2000/svg" xmlns:xlink="http://www.w3.org/1999/xlink" viewBox="0 0 50 31">
  <defs>
    <style>
      .cls-1 {
        fill: #fff;
      }

      .cls-2 {
        fill: none;
      }

      .cls-3 {
        clip-path: url(#clippath);
      }
    </style>
    <clipPath id="clippath">
      <rect class="cls-2" width="50" height="31"/>
    </clipPath>
  </defs>
  <g id="Layer_1-2" data-name="Layer_1">
    <g class="cls-3">
      <path class="cls-1" d="M28.83,3.27c-.14.15-.38.16-.53.02-.15-.14-.16-.38-.02-.53l2.25-2.41c.14-.15.38-.16.53-.02.15.14.16.38.02.53l-2.25,2.41ZM23.13,2.75c.14.15.14.39-.02.53-.15.14-.39.13-.53-.02l-2.25-2.41c-.14-.15-.13-.39.02-.53.15-.14.39-.14.53.02l2.25,2.41ZM26.08,3.01c0,.5-.76.5-.76,0V.37c0-.5.76-.5.76,0v2.64ZM26.05,4.42l1.4,3.54,3.8.24c.34.02.48.45.22.67h0l-2.93,2.43.94,3.69c.08.32-.28.61-.59.4l-3.19-2.02-3.22,2.04c-.29.18-.65-.08-.56-.41h0s.94-3.69.94-3.69l-2.93-2.43c-.26-.22-.13-.65.23-.67l3.79-.24,1.4-3.54c.13-.32.58-.31.7,0h0ZM26.85,8.46l-1.14-2.88-1.14,2.86c-.05.14-.18.25-.33.26l-3.09.2,2.37,1.97c.12.09.18.24.14.39l-.77,3,2.61-1.65c.12-.08.28-.09.41,0l2.62,1.66-.77-3h0c-.03-.14.01-.29.13-.38l2.39-1.98-3.09-.2h0c-.14-.01-.27-.1-.32-.24h0ZM35.11,14.08l.91,2.3,2.47.16c.34.02.48.45.22.67h0s-1.9,1.58-1.9,1.58l.61,2.4c.08.32-.28.61-.59.4l-2.07-1.31-2.09,1.32c-.29.18-.65-.08-.56-.41h0l.61-2.4-1.9-1.58c-.26-.22-.13-.65.23-.67l2.45-.16.91-2.3c.13-.32.57-.31.7,0h0ZM35.41,16.88l-.65-1.64-.64,1.62c-.05.14-.18.25-.33.26l-1.76.11,1.34,1.11c.12.09.18.24.14.39l-.44,1.71,1.48-.94c.12-.08.28-.09.41,0l1.49.94-.44-1.71h0c-.04-.14,0-.29.12-.38l1.36-1.12-1.76-.11h0c-.14-.01-.27-.1-.32-.24h0ZM16.99,14.08l.91,2.3,2.47.16c.34.02.48.45.22.67h0s-1.9,1.58-1.9,1.58l.61,2.4c.08.32-.28.61-.59.4l-2.07-1.31-2.09,1.32c-.29.18-.65-.08-.56-.41h0l.61-2.4-1.9-1.58c-.26-.22-.13-.65.23-.67l2.45-.16.91-2.3c.13-.32.57-.31.7,0h0ZM17.29,16.88l-.65-1.64-.64,1.62c-.05.14-.18.25-.33.26l-1.76.11,1.34,1.11c.12.09.18.24.14.39l-.44,1.71,1.48-.94c.12-.08.28-.09.41,0l1.49.94-.44-1.71h0c-.03-.14,0-.29.12-.38l1.36-1.12-1.76-.11h0c-.14-.01-.27-.1-.32-.24h0ZM17.93,23.2h2.26c.47,0,.86.37.88.83,3.23-1.75,2.03-.65,5.17-.54.74.03,1.51.03,2.21.14.96.15,1.71.47,1.87,1.2l1.97-.26,2.52-1.75c1.67-1.22,3.33.98,1.43,2.38l-4.11,3.06s-.09.05-.14.07l-5.07,1.69c-.06.02-.12.03-.18.02h0s-4.72-.41-4.72-.41l-.95.06c0,.4.05.74-.26,1.04-.16.16-.38.26-.62.26h-2.26c-.44,0-.8-.32-.87-.74l-5.39.44c-.28.03-.51-.18-.51-.45v-6.23h0c0-.26.22-.47.49-.45l5.4.44c.04-.45.42-.81.88-.81h0ZM20.16,24.1h-2.21v5.99h2.21v-5.99h0ZM17.04,24.91l-4.98-.41v5.25l4.98-.41v-4.44ZM29.42,25.25s.01-.03.02-.05c0-.39-.5-.58-1.13-.68-.64-.1-1.43-.11-2.11-.13-3.4-.12-1.74-1.2-5.13.67v3.73l1-.06,4.65.41,4.92-1.64,4.06-3.02c.95-.71.29-1.44-.34-.95l-2.64,1.84h0c-.06.04-.12.07-.2.08l-2.34.31c-.4.71-1.49.78-3.18.89-.38.03-.8.05-1.29.09-.25.02-.47-.17-.49-.41-.02-.25.17-.47.42-.49.44-.04.89-.06,1.3-.09,1.49-.1,2.39-.15,2.48-.51h0Z"/>
    </g>
  </g>
</svg>