<?xml version="1.0" encoding="UTF-8"?>
<svg id="Layer_2" xmlns="http://www.w3.org/2000/svg" xmlns:xlink="http://www.w3.org/1999/xlink" viewBox="0 0 50 31">
  <defs>
    <style>
      .cls-1 {
        fill: #fff;
      }

      .cls-2 {
        fill: none;
      }

      .cls-3 {
        clip-path: url(#clippath);
      }
    </style>
    <clipPath id="clippath">
      <rect class="cls-2" width="50" height="31"/>
    </clipPath>
  </defs>
  <g id="Layer_1-2" data-name="Layer_1">
    <g class="cls-3">
      <g>
        <path class="cls-1" d="M36.17,17.15h-12.05v-6.33c0-.23-.19-.42-.42-.42h-14.03c-.24,0-.43.19-.43.42v10.2c0,.24.19.43.43.43h2.12v3.93c0,.18.1.33.27.4.05.02.1.03.15.03.12,0,.24-.05.32-.14l3.87-4.22h4.26v5.96c0,.24.19.43.43.43l8.58.02,3.72,3.04c.08.07.18.1.27.1h.01c.11,0,.22-.05.3-.13.08-.08.12-.19.12-.3v-2.73h2.06c.24,0,.43-.19.43-.43v-9.82c0-.24-.19-.43-.43-.43ZM16.18,20.59c-.12,0-.23.05-.31.14l-3.22,3.53v-3.25c0-.23-.19-.42-.43-.42h-2.12v-9.34h13.18v9.34h-7.09ZM35.75,26.98h-1.53c-.46-.01-.73.01-.86.13-.14.15-.13.48-.12,1.09.01.33.02.74.01,1.26v.21s-3.18-2.6-3.18-2.6c-.08-.06-.17-.09-.27-.09h-8.27v-5.54h2.17c.23,0,.42-.19.42-.43v-3.01h11.62v8.98Z"/>
        <path class="cls-1" d="M36.17,17.15h-12.05v-6.33c0-.23-.19-.42-.42-.42h-14.03c-.24,0-.43.19-.43.42v10.2c0,.24.19.43.43.43h2.12v3.93c0,.18.1.33.27.4.05.02.1.03.15.03.12,0,.24-.05.32-.14l3.87-4.22h4.26v5.96c0,.24.19.43.43.43l8.58.02,3.72,3.04c.08.07.18.1.27.1h.01c.11,0,.22-.05.3-.13.08-.08.12-.19.12-.3v-2.73h2.06c.24,0,.43-.19.43-.43v-9.82c0-.24-.19-.43-.43-.43ZM16.18,20.59c-.12,0-.23.05-.31.14l-3.22,3.53v-3.25c0-.23-.19-.42-.43-.42h-2.12v-9.34h13.18v9.34h-7.09ZM35.75,26.98h-1.53c-.46-.01-.73.01-.86.13-.14.15-.13.48-.12,1.09.01.33.02.74.01,1.26v.21s-3.18-2.6-3.18-2.6c-.08-.06-.17-.09-.27-.09h-8.27v-5.54h2.17c.23,0,.42-.19.42-.43v-3.01h11.62v8.98Z"/>
        <path class="cls-1" d="M33.52,20.69v1.04c0,1.12-1.19,1.99-2.71,1.99h-3c-1.52,0-2.71-.88-2.71-1.99v-1.04c0-.28.21-.41.42-.41s.42.13.43.41v1.04c0,.55.74,1.14,1.85,1.14h3c1.11,0,1.85-.58,1.85-1.14v-1.04c0-.28.22-.41.43-.41s.42.13.42.41Z"/>
        <path class="cls-1" d="M33.52,20.69v1.04c0,1.12-1.19,1.99-2.71,1.99h-3c-1.52,0-2.71-.88-2.71-1.99v-1.04c0-.28.21-.41.42-.41s.42.13.43.41v1.04c0,.55.74,1.14,1.85,1.14h3c1.11,0,1.85-.58,1.85-1.14v-1.04c0-.28.22-.41.43-.41s.42.13.42.41Z"/>
        <path class="cls-1" d="M30.82,25.37c0,.21-.13.42-.42.43h-2.15c-.29-.01-.42-.22-.42-.43s.13-.42.42-.43h2.15c.29.01.42.22.42.43Z"/>
        <path class="cls-1" d="M30.82,25.37c0,.21-.13.42-.42.43h-2.15c-.29-.01-.42-.22-.42-.43s.13-.42.42-.43h2.15c.29.01.42.22.42.43Z"/>
        <path class="cls-1" d="M16.94,13.54h-.09v-1.16c0-.23-.19-.42-.42-.42s-.43.19-.43.42v1.15h-.09c-2.07.23-3,1.42-3,2.5s.93,2.25,3,2.48h.09v1.16c0,.24.2.43.43.43s.42-.19.42-.43v-1.15h.09c2.08-.23,3.01-1.41,3.01-2.49s-.93-2.26-3.01-2.49ZM15.99,17.65l-.11-.02c-1.24-.16-2.14-.84-2.14-1.61s.91-1.46,2.14-1.62h.11s0,3.25,0,3.25ZM16.97,17.63l-.12.02v-3.26h.12c1.57.23,2.12,1.02,2.12,1.63s-.55,1.39-2.12,1.61Z"/>
        <path class="cls-1" d="M16.94,13.54h-.09v-1.16c0-.23-.19-.42-.42-.42s-.43.19-.43.42v1.15h-.09c-2.07.23-3,1.42-3,2.5s.93,2.25,3,2.48h.09v1.16c0,.24.2.43.43.43s.42-.19.42-.43v-1.15h.09c2.08-.23,3.01-1.41,3.01-2.49s-.93-2.26-3.01-2.49ZM15.99,17.65l-.11-.02c-1.24-.16-2.14-.84-2.14-1.61s.91-1.46,2.14-1.62h.11s0,3.25,0,3.25ZM16.97,17.63l-.12.02v-3.26h.12c1.57.23,2.12,1.02,2.12,1.63s-.55,1.39-2.12,1.61Z"/>
        <path class="cls-1" d="M40.76.43v12.02c0,.23-.19.42-.43.42h-2.78v2.63c0,.11-.05.21-.12.3-.08.08-.19.12-.3.12h-.01c-.08,0-.15-.02-.22-.06l-4.87-2.97-6.25-.02c-.28,0-.41-.21-.41-.42s.13-.43.41-.43h6.35c.08,0,.15.02.22.07l4.35,2.65v-2.28c0-.24.19-.43.42-.43h2.79V.86h-16.82v7.89c0,.28-.21.41-.42.41s-.43-.13-.43-.41V.43c0-.24.19-.43.43-.43h17.66c.24,0,.43.19.43.43Z"/>
        <path class="cls-1" d="M40.76.43v12.02c0,.23-.19.42-.43.42h-2.78v2.63c0,.11-.05.21-.12.3-.08.08-.19.12-.3.12h-.01c-.08,0-.15-.02-.22-.06l-4.87-2.97-6.25-.02c-.28,0-.41-.21-.41-.42s.13-.43.41-.43h6.35c.08,0,.15.02.22.07l4.35,2.65v-2.28c0-.24.19-.43.42-.43h2.79V.86h-16.82v7.89c0,.28-.21.41-.42.41s-.43-.13-.43-.41V.43c0-.24.19-.43.43-.43h17.66c.24,0,.43.19.43.43Z"/>
        <path class="cls-1" d="M35.92,4.19c.03-.13.01-.27-.07-.38-.08-.1-.21-.17-.34-.17h-2.55v-1.13c0-.23-.19-.42-.42-.42s-.43.19-.43.42v1.13h-3.72c-.29.01-.42.22-.42.43s.13.42.42.42h1.29v.09c.14.85.58,2.48,2.05,3.85l.1.09-.11.07c-.85.5-1.76.75-2.74.75-.24,0-.43.2-.43.43s.19.43.43.43c1.27,0,2.45-.37,3.49-1.1l.06-.04.06.04c.65.44,1.41.81,2.24,1.08.04.01.08.02.13.02.18,0,.35-.13.4-.3.04-.11.03-.22-.03-.33-.05-.1-.14-.17-.24-.21-.63-.2-1.21-.45-1.75-.79l-.12-.07.1-.09c1.86-1.76,2.59-4.22,2.6-4.24ZM32.59,7.95l-.07.05-.07-.05c-1.37-1.19-1.78-2.61-1.9-3.34l-.02-.12h4.38l-.06.14c-.31.77-1.03,2.23-2.25,3.32Z"/>
        <path class="cls-1" d="M35.92,4.19c.03-.13.01-.27-.07-.38-.08-.1-.21-.17-.34-.17h-2.55v-1.13c0-.23-.19-.42-.42-.42s-.43.19-.43.42v1.13h-3.72c-.29.01-.42.22-.42.43s.13.42.42.42h1.29v.09c.14.85.58,2.48,2.05,3.85l.1.09-.11.07c-.85.5-1.76.75-2.74.75-.24,0-.43.2-.43.43s.19.43.43.43c1.27,0,2.45-.37,3.49-1.1l.06-.04.06.04c.65.44,1.41.81,2.24,1.08.04.01.08.02.13.02.18,0,.35-.13.4-.3.04-.11.03-.22-.03-.33-.05-.1-.14-.17-.24-.21-.63-.2-1.21-.45-1.75-.79l-.12-.07.1-.09c1.86-1.76,2.59-4.22,2.6-4.24ZM32.59,7.95l-.07.05-.07-.05c-1.37-1.19-1.78-2.61-1.9-3.34l-.02-.12h4.38l-.06.14c-.31.77-1.03,2.23-2.25,3.32Z"/>
      </g>
    </g>
  </g>
</svg>