<?xml version="1.0" encoding="UTF-8"?>
<svg id="Layer_2" xmlns="http://www.w3.org/2000/svg" xmlns:xlink="http://www.w3.org/1999/xlink" viewBox="0 0 50 31">
  <defs>
    <style>
      .cls-1 {
        fill: #fff;
      }

      .cls-2 {
        fill: none;
      }

      .cls-3 {
        clip-path: url(#clippath);
      }
    </style>
    <clipPath id="clippath">
      <rect class="cls-2" width="50" height="31"/>
    </clipPath>
  </defs>
  <g id="Layer_1-2" data-name="Layer_1">
    <g class="cls-3">
      <g>
        <path class="cls-1" d="M40.75,14.35c-.17,1.76-1.03,3.39-2.41,4.59-.11.1-.25.15-.39.15-.07,0-.16-.02-.27-.06-.09-.04-.39-.22-.39-.6,0-.2.05-.34.16-.43l.31-.26-.02-.02c1.24-1.25,1.85-2.97,1.67-4.72-.31-2.92-2.9-5.19-5.93-5.19h-.15c-.3,0-.57-.21-.65-.51-.9-3.51-4.06-5.96-7.69-5.96s-6.77,2.46-7.69,5.98c-.07.29-.35.49-.65.49h-.31c-1.6,0-3.15.67-4.24,1.84-1.11,1.2-1.66,2.75-1.56,4.37.1,1.48.77,2.84,1.88,3.83.17.16.28.36.28.53,0,.28-.14.49-.39.61-.07.03-.18.05-.29.05-.15,0-.29-.05-.42-.16-1.47-1.29-2.32-3.05-2.39-4.96-.15-3.66,2.46-6.84,6.08-7.37l.77-.11.39-.77c1.48-3.44,4.82-5.67,8.54-5.67s7.07,2.23,8.54,5.67l.31.71.85.17c3.77.56,6.43,3.99,6.06,7.8Z"/>
        <path class="cls-1" d="M40.75,14.35c-.17,1.76-1.03,3.39-2.41,4.59-.11.1-.25.15-.39.15-.07,0-.16-.02-.27-.06-.09-.04-.39-.22-.39-.6,0-.2.05-.34.16-.43l.31-.26-.02-.02c1.24-1.25,1.85-2.97,1.67-4.72-.31-2.92-2.9-5.19-5.93-5.19h-.15c-.3,0-.57-.21-.65-.51-.9-3.51-4.06-5.96-7.69-5.96s-6.77,2.46-7.69,5.98c-.07.29-.35.49-.65.49h-.31c-1.6,0-3.15.67-4.24,1.84-1.11,1.2-1.66,2.75-1.56,4.37.1,1.48.77,2.84,1.88,3.83.17.16.28.36.28.53,0,.28-.14.49-.39.61-.07.03-.18.05-.29.05-.15,0-.29-.05-.42-.16-1.47-1.29-2.32-3.05-2.39-4.96-.15-3.66,2.46-6.84,6.08-7.37l.77-.11.39-.77c1.48-3.44,4.82-5.67,8.54-5.67s7.07,2.23,8.54,5.67l.31.71.85.17c3.77.56,6.43,3.99,6.06,7.8Z"/>
        <path class="cls-1" d="M40.75,14.35c-.17,1.76-1.03,3.39-2.41,4.59-.11.1-.25.15-.39.15-.07,0-.16-.02-.27-.06-.09-.04-.39-.22-.39-.6,0-.2.05-.34.16-.43l.31-.26-.02-.02c1.24-1.25,1.85-2.97,1.67-4.72-.31-2.92-2.9-5.19-5.93-5.19h-.15c-.3,0-.57-.21-.65-.51-.9-3.51-4.06-5.96-7.69-5.96s-6.77,2.46-7.69,5.98c-.07.29-.35.49-.65.49h-.31c-1.6,0-3.15.67-4.24,1.84-1.11,1.2-1.66,2.75-1.56,4.37.1,1.48.77,2.84,1.88,3.83.17.16.28.36.28.53,0,.28-.14.49-.39.61-.07.03-.18.05-.29.05-.15,0-.29-.05-.42-.16-1.47-1.29-2.32-3.05-2.39-4.96-.15-3.66,2.46-6.84,6.08-7.37l.77-.11.39-.77c1.48-3.44,4.82-5.67,8.54-5.67s7.07,2.23,8.54,5.67l.31.71.85.17c3.77.56,6.43,3.99,6.06,7.8Z"/>
        <path class="cls-1" d="M40.75,14.35c-.17,1.76-1.03,3.39-2.41,4.59-.11.1-.25.15-.39.15-.07,0-.16-.02-.27-.06-.09-.04-.39-.22-.39-.6,0-.2.05-.34.16-.43l.31-.26-.02-.02c1.24-1.25,1.85-2.97,1.67-4.72-.31-2.92-2.9-5.19-5.93-5.19h-.15c-.3,0-.57-.21-.65-.51-.9-3.51-4.06-5.96-7.69-5.96s-6.77,2.46-7.69,5.98c-.07.29-.35.49-.65.49h-.31c-1.6,0-3.15.67-4.24,1.84-1.11,1.2-1.66,2.75-1.56,4.37.1,1.48.77,2.84,1.88,3.83.17.16.28.36.28.53,0,.28-.14.49-.39.61-.07.03-.18.05-.29.05-.15,0-.29-.05-.42-.16-1.47-1.29-2.32-3.05-2.39-4.96-.15-3.66,2.46-6.84,6.08-7.37l.77-.11.39-.77c1.48-3.44,4.82-5.67,8.54-5.67s7.07,2.23,8.54,5.67l.31.71.85.17c3.77.56,6.43,3.99,6.06,7.8Z"/>
        <path class="cls-1" d="M29.8,29.88c.12.12.2.3.2.47s-.07.35-.2.48c-.1.1-.29.16-.47.16-.2,0-.37-.06-.47-.16l-3.85-3.85-3.85,3.85c-.1.1-.29.16-.47.16s-.37-.06-.47-.16c-.12-.12-.2-.3-.2-.47s.07-.35.2-.47l3.85-3.85-3.85-3.85c-.12-.12-.2-.3-.2-.47s.07-.35.2-.47c.11-.1.29-.17.47-.17s.36.07.47.17l3.85,3.84,3.85-3.84c.11-.11.29-.17.46-.17.18,0,.36.06.48.17.12.12.2.3.2.47,0,.16-.07.34-.2.47l-3.85,3.84,3.85,3.85Z"/>
        <path class="cls-1" d="M29.8,29.88c.12.12.2.3.2.47s-.07.35-.2.48c-.1.1-.29.16-.47.16-.2,0-.37-.06-.47-.16l-3.85-3.85-3.85,3.85c-.1.1-.29.16-.47.16s-.37-.06-.47-.16c-.12-.12-.2-.3-.2-.47s.07-.35.2-.47l3.85-3.85-3.85-3.85c-.12-.12-.2-.3-.2-.47s.07-.35.2-.47c.11-.1.29-.17.47-.17s.36.07.47.17l3.85,3.84,3.85-3.84c.11-.11.29-.17.46-.17.18,0,.36.06.48.17.12.12.2.3.2.47,0,.16-.07.34-.2.47l-3.85,3.84,3.85,3.85Z"/>
        <path class="cls-1" d="M29.8,29.88c.12.12.2.3.2.47s-.07.35-.2.48c-.1.1-.29.16-.47.16-.2,0-.37-.06-.47-.16l-3.85-3.85-3.85,3.85c-.1.1-.29.16-.47.16s-.37-.06-.47-.16c-.12-.12-.2-.3-.2-.47s.07-.35.2-.47l3.85-3.85-3.85-3.85c-.12-.12-.2-.3-.2-.47s.07-.35.2-.47c.11-.1.29-.17.47-.17s.36.07.47.17l3.85,3.84,3.85-3.84c.11-.11.29-.17.46-.17.18,0,.36.06.48.17.12.12.2.3.2.47,0,.16-.07.34-.2.47l-3.85,3.84,3.85,3.85Z"/>
        <path class="cls-1" d="M29.8,29.88c.12.12.2.3.2.47s-.07.35-.2.48c-.1.1-.29.16-.47.16-.2,0-.37-.06-.47-.16l-3.85-3.85-3.85,3.85c-.1.1-.29.16-.47.16s-.37-.06-.47-.16c-.12-.12-.2-.3-.2-.47s.07-.35.2-.47l3.85-3.85-3.85-3.85c-.12-.12-.2-.3-.2-.47s.07-.35.2-.47c.11-.1.29-.17.47-.17s.36.07.47.17l3.85,3.84,3.85-3.84c.11-.11.29-.17.46-.17.18,0,.36.06.48.17.12.12.2.3.2.47,0,.16-.07.34-.2.47l-3.85,3.84,3.85,3.85Z"/>
      </g>
    </g>
  </g>
</svg>