<?xml version="1.0" encoding="UTF-8"?>
<svg id="Layer_2" xmlns="http://www.w3.org/2000/svg" xmlns:xlink="http://www.w3.org/1999/xlink" viewBox="0 0 50 31">
  <defs>
    <style>
      .cls-1 {
        fill: #fff;
      }

      .cls-2 {
        fill: none;
      }

      .cls-3 {
        clip-path: url(#clippath);
      }
    </style>
    <clipPath id="clippath">
      <rect class="cls-2" width="50" height="31"/>
    </clipPath>
  </defs>
  <g id="Layer_1-2" data-name="Layer_1">
    <g class="cls-3">
      <g>
        <path class="cls-1" d="M24.46,9.66c-.3-.31-.7-.48-1.13-.48-.4,0-.78.15-1.08.43-.3.29-.47.67-.49,1.09-.01.42.14.81.43,1.11l1.47,1.54c.29.31.71.49,1.13.49h.08c.45-.03.86-.25,1.13-.61l2.55-3.27c.53-.68.4-1.66-.28-2.19-.28-.21-.61-.33-.96-.33-.49,0-.94.22-1.23.6l-1.43,1.85-.2-.23ZM24.7,10.88c.11,0,.22-.06.21-.11h.08l1.75-2.24c.15-.19.37-.3.61-.3.17,0,.34.06.48.16.16.13.27.31.29.52.03.21-.03.41-.16.57l-2.57,3.27c-.14.18-.35.29-.61.3-.21,0-.42-.09-.56-.24l-1.48-1.54c-.15-.15-.23-.35-.23-.56,0-.21.09-.41.24-.55.14-.14.33-.21.53-.21v-.09s0,0,0,0l.03.09c.21,0,.41.1.55.26l.53.56c.07.08.17.12.3.12h0Z"/>
        <path class="cls-1" d="M28.37,18.35h-6.76c-.97.01-1.77.82-1.77,1.79v.24c0,.98.8,1.78,1.77,1.79h6.78c.98-.01,1.77-.82,1.77-1.79v-.24c0-.98-.81-1.79-1.79-1.79ZM20.61,20.39v-.25c0-.56.45-1.01,1.01-1.01h6.77c.55,0,1.01.46,1.01,1.01v.24c0,.27-.1.53-.29.72-.19.19-.45.3-.72.3h-6.77c-.56,0-1.01-.46-1.01-1.01Z"/>
        <path class="cls-1" d="M29.78,10.56c-.22,0-.39.18-.39.39,0,1.79-1.05,3.39-2.7,4.08-.54.23-1.11.34-1.7.34-1.17,0-2.27-.46-3.11-1.28-1.27-1.26-1.64-3.14-.96-4.8.68-1.65,2.28-2.72,4.07-2.72.22,0,.39-.18.39-.39s-.18-.39-.39-.39c-2.8.01-5.09,2.27-5.16,5.06h-.02v.1c0,2.85,2.32,5.18,5.18,5.18s5.18-2.32,5.18-5.18c0-.22-.18-.39-.39-.39Z"/>
        <path class="cls-1" d="M28.39,24.32h-6.78c-.98.01-1.77.82-1.77,1.79v.24c0,.98.8,1.78,1.77,1.79h6.78c.98,0,1.77-.81,1.77-1.79v-.24c0-.98-.79-1.78-1.77-1.79ZM20.61,26.1c0-.55.46-.99,1.01-1h6.77c.55,0,1.01.46,1.01,1.01v.24c0,.56-.45,1.01-1.01,1.01h-6.78c-.55,0-1.01-.45-1.01-1.01v-.26Z"/>
        <path class="cls-1" d="M31.59,0h-13.18c-1.29,0-2.34,1.05-2.34,2.34v26.32c0,1.29,1.05,2.34,2.34,2.34h13.18c1.29,0,2.34-1.05,2.34-2.34V2.34c0-1.29-1.05-2.34-2.34-2.34ZM18.41,30.22c-.86,0-1.55-.7-1.56-1.56V2.34c.01-.85.71-1.54,1.55-1.54h2.24l.63,1.68c.23.6.79.98,1.43.99h4.59c.64,0,1.2-.39,1.43-.99l.62-1.68h2.22c.86,0,1.55.7,1.56,1.55v26.3c0,.85-.7,1.55-1.56,1.56h-13.16ZM28.02,2.18c-.11.29-.38.48-.69.48h-4.64c-.31,0-.58-.19-.69-.48l-.54-1.38h7.06l-.51,1.38Z"/>
      </g>
    </g>
  </g>
</svg>