<?xml version="1.0" encoding="UTF-8"?>
<svg id="Layer_2" xmlns="http://www.w3.org/2000/svg" xmlns:xlink="http://www.w3.org/1999/xlink" viewBox="0 0 50 31">
  <defs>
    <style>
      .cls-1 {
        fill: #fff;
        fill-rule: evenodd;
      }

      .cls-2 {
        fill: none;
      }

      .cls-3 {
        clip-path: url(#clippath);
      }
    </style>
    <clipPath id="clippath">
      <rect class="cls-2" width="50" height="31"/>
    </clipPath>
  </defs>
  <g id="Layer_1-2" data-name="Layer_1">
    <g class="cls-3">
      <g>
        <path class="cls-1" d="M33.3,0h-16.6c-2.01,0-3.64,1.63-3.64,3.64v23.71c0,2.28,1.87,3.65,3.67,3.65.89,0,1.72-.33,2.41-.94l4.08-3.65c.49-.44,1.12-.68,1.78-.68s1.3.24,1.78.68l4.08,3.65c.68.61,1.52.94,2.41.94,1.8,0,3.67-1.37,3.67-3.65V3.64c0-2.01-1.63-3.64-3.64-3.64ZM35.97,27.35c0,.75-.3,1.44-.83,1.94-.5.47-1.18.74-1.87.74s-1.26-.24-1.77-.69l-4.07-3.65c-.67-.6-1.54-.93-2.44-.93s-1.76.33-2.44.93l-4.07,3.65c-.51.45-1.12.69-1.77.69-1.3,0-2.69-1.03-2.69-2.68V3.64c0-1.47,1.2-2.67,2.67-2.67h16.6c1.47,0,2.67,1.2,2.67,2.67v23.71Z"/>
        <path class="cls-1" d="M32.18,10.95c-.24-2.38-2.04-3.46-3.6-3.46-.71,0-1.38.2-1.94.59-.64.44-1.14.86-1.44,1.12l-.2.18-.2-.18c-.31-.27-.8-.68-1.44-1.12-.56-.39-1.22-.59-1.94-.59-1.56,0-3.35,1.08-3.6,3.46-.15,1.43.57,3.02,2.13,4.7,1.18,1.27,2.89,2.62,4.79,3.79.08.04.16.07.25.07s.17-.03.25-.07c1.91-1.17,3.61-2.52,4.79-3.79,1.56-1.68,2.28-3.27,2.13-4.7ZM29.33,15c-1.32,1.42-3,2.61-4.17,3.35l-.16.11-.16-.11c-1.17-.74-2.86-1.94-4.17-3.35-1.35-1.46-2-2.82-1.89-3.96.18-1.77,1.5-2.58,2.64-2.58.51,0,.99.14,1.39.42.49.34.95.69,1.37,1.07.16.14.28.25.36.34l.11.11c.09.1.22.16.36.16s.27-.06.38-.18l.09-.09c.08-.08.19-.19.36-.34.42-.38.88-.73,1.37-1.07.4-.28.88-.42,1.39-.42,1.14,0,2.46.81,2.64,2.58.11,1.13-.54,2.5-1.89,3.96Z"/>
      </g>
    </g>
  </g>
</svg>