<svg xmlns="http://www.w3.org/2000/svg" xmlns:xlink="http://www.w3.org/1999/xlink" viewBox="0 0 62.36 60"><defs><style>.cls-1{fill:none;}.cls-2{clip-path:url(#clip-path);}</style><clipPath id="clip-path" transform="translate(-17.82 0)"><rect class="cls-1" width="98" height="60"/></clipPath></defs><title>branding_3</title><g id="Layer_2" data-name="Layer 2"><g id="branding"><g class="cls-2"><path d="M62,23.87a.68.68,0,0,1-.62.72.73.73,0,0,1-.48-.15L55,20.35a2.36,2.36,0,0,0-1.27-.43,1.22,1.22,0,0,0-.88.36l-.62.61a1.48,1.48,0,0,0-.42,1,1.44,1.44,0,0,0,.42,1L60,30.73a.71.71,0,0,1,.19.35,6.2,6.2,0,0,0,1.54,2.79,3.05,3.05,0,0,0,2.13,1,.65.65,0,0,1,.47.19l4.19,3.44,5.38-9.31L70,26.89a.68.68,0,0,1-.35-.44L66.76,15.54C62.71,11,58.64,6.12,54.48,1.69a1.35,1.35,0,0,0-.91-.35,1.57,1.57,0,0,0-1,.37c-.23.22-.46.46-.69.69a1.29,1.29,0,0,0-.38.93,2,2,0,0,0,.41,1.16q4.71,6.19,9.45,12.36a.75.75,0,0,1,.15.38l.5,6.64ZM30.41,42.45,23.75,54l4.21.25a.68.68,0,0,1,.52.3l2.32,3.52,7.77-13.46,0,0L35.4,47.23l-1.58-3.51a2.51,2.51,0,0,0-3-1.39l-.43.12Zm11,1.93,7.9,13.67,2.32-3.52a.71.71,0,0,1,.52-.3L56.37,54,49.63,42.32l-.09,0a2.53,2.53,0,0,0-1.76.07,2.57,2.57,0,0,0-1.27,1.21L44.7,47.24l-2.87-2.57a2.34,2.34,0,0,0-.41-.29Zm10.12-1.45,6.53,11.31a.66.66,0,0,1,.09.31.66.66,0,0,1-.63.71l-5,.3-2.73,4.13a.8.8,0,0,1-.23.22.66.66,0,0,1-.92-.25l-8.64-15-8.64,15a.66.66,0,0,1-.21.23.67.67,0,0,1-.93-.19l-2.74-4.14-4.95-.3a.8.8,0,0,1-.3-.09.68.68,0,0,1-.25-.92L28.55,43l-1.65.47V39.59a2.54,2.54,0,0,0-.61-1.65,2.57,2.57,0,0,0-1.55-.83l-4.05-.59L22.24,33a2.5,2.5,0,0,0-1-3.15l-3.46-2.18,2.85-2.58a2.51,2.51,0,0,0,.4-3.27l-2.27-3.4,3.65-1.2a2.5,2.5,0,0,0,1.7-2.82l-.69-4,3.82.39A2.58,2.58,0,0,0,29,10.32a2.51,2.51,0,0,0,1-1.45l1-4,3.34,1.91a2.52,2.52,0,0,0,1.73.29,2.5,2.5,0,0,0,1.5-.92L40.09,3l2.27,3.11a2.51,2.51,0,0,0,3.21.74l3.62-1.91.38,1.76a2.56,2.56,0,0,1,.76-1.61l.23-.24a3.22,3.22,0,0,1-.39-1.5,2.62,2.62,0,0,1,.77-1.88c.25-.25.5-.52.77-.75A2.81,2.81,0,0,1,53.56,0a2.63,2.63,0,0,1,1.88.75c4.11,4.11,8.5,9.58,12.43,14A.61.61,0,0,1,68,15l2.9,10.81L74.58,28l.66-1.14a.66.66,0,0,1,.91-.24l3.7,2.13a.66.66,0,0,1,.24.91l-8,13.93a.67.67,0,0,1-.92.24l-3.7-2.13a.67.67,0,0,1-.24-.92l.64-1.12-4.22-3.47a4.45,4.45,0,0,1-2.84-1.39,7.48,7.48,0,0,1-1.86-3.27l-.9-.9a2.82,2.82,0,0,0-.24.69,2.5,2.5,0,0,0,.14,1.42l1.51,3.8L55.61,37a2.52,2.52,0,0,0-1.57.78,2.56,2.56,0,0,0-.68,1.63l-.16,4.08-1.66-.53ZM40.69,18.21l1.81,3.61,4,.58a.68.68,0,0,1,.57.77.62.62,0,0,1-.22.4L44,26.41l.68,4a.68.68,0,0,1-.56.78.75.75,0,0,1-.42-.07L40,29.22l-3.56,1.87a.68.68,0,0,1-.91-.29.69.69,0,0,1-.07-.42l.67-4-2.89-2.81a.68.68,0,0,1,.37-1.15l4-.61,1.79-3.61a.66.66,0,0,1,.9-.3.68.68,0,0,1,.32.33Zm.76,4.52L40.07,20l-1.32,2.67a.69.69,0,0,1-.52.41l-3,.46,2.16,2.12a.63.63,0,0,1,.2.59l-.5,3,2.64-1.38a.67.67,0,0,1,.66,0l2.73,1.41-.51-3a.67.67,0,0,1,.2-.59L45,23.54l-3-.44a.69.69,0,0,1-.51-.37Zm12.69,4a14.16,14.16,0,1,1-1.41-8,2.6,2.6,0,0,1,1-.19,3.55,3.55,0,0,1,2,.68L58,20.8h0l1.22-1.68-2.18-.8a3.87,3.87,0,0,1-2.45-4.42l.43-2L52.71,12a3.87,3.87,0,0,1-2.58-.77A3.92,3.92,0,0,1,48.68,9l-.43-2L46.19,8a3.9,3.9,0,0,1-2.67.35,3.81,3.81,0,0,1-2.24-1.49L40.05,5.2,38.61,7a3.85,3.85,0,0,1-5,1l-1.8-1L31.29,9.2a3.87,3.87,0,0,1-4.14,2.9l-2.07-.22.39,2.29A3.83,3.83,0,0,1,25,16.82a3.88,3.88,0,0,1-2.1,1.68l-2,.65,1.29,1.92a3.91,3.91,0,0,1,.63,2.62,3.84,3.84,0,0,1-1.25,2.39L20,27.48l2,1.24a3.84,3.84,0,0,1,1.48,4.82l-.84,1.9,2.29.34a3.85,3.85,0,0,1,3.31,3.81v2.08L30.48,41a3.79,3.79,0,0,1,2.68.21,3.88,3.88,0,0,1,1.89,1.92l.85,1.9,1.78-1.49A3.85,3.85,0,0,1,40,42.69h.23a3.83,3.83,0,0,1,2.51,1l1.55,1.39,1-2.08A3.84,3.84,0,0,1,50,41l2,.63L52,39.32a3.84,3.84,0,0,1,1-2.48,3.88,3.88,0,0,1,2.41-1.21l2.07-.22-.86-2.16A3.83,3.83,0,0,1,57,29.68l-2.9-2.91Zm-2.51-7.2a12.8,12.8,0,1,0,1.26,5.95L51.27,23.9a2.8,2.8,0,0,1,0-4l.36-.37ZM50,8.47l0,.21a2.52,2.52,0,0,0,.94,1.49,2.2,2.2,0,0,0,.47.27L50.27,9A3.66,3.66,0,0,1,50,8.47Zm3.28,2.16,1.61-.11L51.35,6,51.28,6A1.29,1.29,0,0,0,50.9,7a2,2,0,0,0,.44,1.19l1.9,2.49Zm3,1.78-.37,1.75A2.51,2.51,0,0,0,57.51,17l2.73,1,0-.52-3.91-5.12Zm4.08,7.4-1.26,1.75,1.47,1-.21-2.76Zm15.69,8.33L68.7,40.89l2.53,1.46,7.36-12.76-2.53-1.45Z" transform="translate(-17.82 0)"/></g></g></g></svg>