<svg xmlns="http://www.w3.org/2000/svg" xmlns:xlink="http://www.w3.org/1999/xlink" viewBox="0 0 72.56 60"><defs><style>.cls-1{fill:none;}.cls-2{clip-path:url(#clip-path);}</style><clipPath id="clip-path" transform="translate(-12.72)"><rect class="cls-1" width="98" height="60"/></clipPath></defs><title>dashboard</title><g id="Layer_2" data-name="Layer 2"><g id="dashboard"><g class="cls-2"><path d="M81.32,49.41a4,4,0,0,0,4-4V4a4,4,0,0,0-4-4H16.68a4,4,0,0,0-4,4V45.45a4,4,0,0,0,4,4H43.5A35.71,35.71,0,0,1,41.19,58H38.4a1,1,0,0,0,0,2H59.61a1,1,0,0,0,0-2h-2.8a36.18,36.18,0,0,1-2.31-8.61ZM16.68,2H81.32a2,2,0,0,1,2,2V39.2H14.7V4a2,2,0,0,1,2-2Zm-2,43.47V41.18H83.3v4.27a2,2,0,0,1-2,2H16.68a2,2,0,0,1-2-2ZM54.68,58H43.33a38.83,38.83,0,0,0,2.17-8.61h7A38.31,38.31,0,0,0,54.68,58ZM51.45,44.31h0a1,1,0,0,1-1,1H47.55a1,1,0,0,1-1-1,1,1,0,0,1,1-1h2.91a1,1,0,0,1,1,1ZM66.73,25.6A10.32,10.32,0,0,0,77,15.68a.61.61,0,0,0,0-.19A10.34,10.34,0,1,0,66.73,25.6ZM74,11.08a8.28,8.28,0,0,1,1.09,3.52l-7.9.41,4.3-6.65h0A8.37,8.37,0,0,1,74,11.08ZM62.54,8a8.27,8.27,0,0,1,6.34-.84c.27.08.54.16.81.26l-5.26,8.12a1,1,0,0,0,0,1,1,1,0,0,0,.87.52h0l9.66-.5A8.36,8.36,0,1,1,62.54,8ZM19.71,34.83h4.08a1,1,0,0,0,1-1V23.41a1,1,0,0,0-1-1H19.71a1,1,0,0,0-.7.29,1,1,0,0,0-.29.7V33.83a1,1,0,0,0,.29.71,1,1,0,0,0,.7.29Zm1-10.43h2.1v8.45H20.7Zm21.43-7.32V33.83a1,1,0,0,0,1,1H47.2a1,1,0,0,0,1-1V17.08a1,1,0,0,0-1-1H43.12a1,1,0,0,0-1,1Zm2,1h2.1V32.85h-2.1ZM39.4,23.5H35.32a1,1,0,0,0-1,1v9.36a1,1,0,0,0,1,1H39.4a1,1,0,0,0,1-1V24.48a1,1,0,0,0-1-1Zm-1,9.35h-2.1V25.48h2.1ZM31.59,17.4H27.52a1,1,0,0,0-.71.29,1,1,0,0,0-.28.7V33.84a1,1,0,0,0,1,1h4.07a1,1,0,0,0,1-1V18.39a1,1,0,0,0-.29-.7,1,1,0,0,0-.7-.29Zm-1,15.45H28.51V19.38H30.6ZM20.86,17.46a1,1,0,0,1,.19-1.39l7.84-6a1,1,0,0,1,1.25,0l7.29,6.36,8.1-6.85a1,1,0,0,1,.73-.24.93.93,0,0,1,.69.35,1,1,0,0,1,.23.73,1,1,0,0,1-.37.67l-8.76,7.4a1,1,0,0,1-1.28,0l-7.33-6.39-7.19,5.48h0a1,1,0,0,1-1.39-.18ZM53.14,33.83a1,1,0,0,1,1-1h3a1,1,0,0,1,.72.28,1,1,0,0,1,.3.71,1,1,0,0,1-.3.71,1,1,0,0,1-.72.28h-3a1,1,0,0,1-1-1Zm0-4.08a1,1,0,0,1,1-1h3a1,1,0,1,1,0,2h-3a1,1,0,0,1-1-1Zm27.15,4.08a1,1,0,0,1-1,1H60.55a1,1,0,0,1-.72-.28,1,1,0,0,1-.3-.71,1,1,0,0,1,.3-.71,1,1,0,0,1,.72-.28H79.3a1,1,0,0,1,1,1ZM60.55,28.77H79.3a1,1,0,1,1,0,2H60.55a1,1,0,1,1,0-2Z" transform="translate(-12.72)"/></g></g></g></svg>