<svg xmlns="http://www.w3.org/2000/svg" xmlns:xlink="http://www.w3.org/1999/xlink" viewBox="0 0 66.41 60"><defs><style>.cls-1{fill:none;}.cls-2{clip-path:url(#clip-path);}</style><clipPath id="clip-path" transform="translate(-15.8)"><rect class="cls-1" width="98" height="60"/></clipPath></defs><title>e-commerce_2</title><g id="Layer_2" data-name="Layer 2"><g id="e-commerce"><g class="cls-2"><path d="M65,12.8H37l-1.22-4A1.19,1.19,0,0,0,34.6,8H29.8a1.2,1.2,0,1,0,0,2.4h3.91l6,19.59-1.49,4.43A1.21,1.21,0,0,0,39.4,36H40a3.59,3.59,0,1,0,7,1.2,3.37,3.37,0,0,0-.23-1.2h7.65a3.37,3.37,0,0,0-.23,1.2A3.6,3.6,0,1,0,61,35.66a1.17,1.17,0,0,0,.36-.86,1.2,1.2,0,0,0-1.2-1.2H41.06l.8-2.4H60.2a1.22,1.22,0,0,0,1.16-.86l4.8-16A1.21,1.21,0,0,0,66,13.27a1.25,1.25,0,0,0-1-.47ZM44.6,37.21A1.2,1.2,0,1,1,43.4,36,1.2,1.2,0,0,1,44.6,37.21Zm13.2,1.2a1.2,1.2,0,1,1,1.2-1.2A1.2,1.2,0,0,1,57.8,38.41Zm1.5-9.61H41.89L37.7,15.2H63.39ZM78.73,0H19.27A3.47,3.47,0,0,0,15.8,3.47V45.33a3.47,3.47,0,0,0,3.47,3.47H41.4v8.8H36.2a1.2,1.2,0,1,0,0,2.4H61.8a1.2,1.2,0,1,0,0-2.4H56.6V48.8H78.73a3.47,3.47,0,0,0,3.47-3.47V3.47A3.47,3.47,0,0,0,78.73,0ZM54.2,57.61H43.8v-8.8H54.2Zm24.53-11.2H19.27a1.07,1.07,0,0,1-1.07-1.07V39.21H31.4a1.2,1.2,0,1,0,0-2.4H18.2V3.47A1.07,1.07,0,0,1,19.27,2.4H78.72A1.08,1.08,0,0,1,79.8,3.47V36.81H68.2a1.2,1.2,0,1,0,0,2.4H79.81v6.13a1.08,1.08,0,0,1-1.08,1.07Z" transform="translate(-15.8)"/></g></g></g></svg>