<svg xmlns="http://www.w3.org/2000/svg" xmlns:xlink="http://www.w3.org/1999/xlink" viewBox="0 0 74.95 60"><defs><style>.cls-1{fill:none;}.cls-2{clip-path:url(#clip-path);}</style><clipPath id="clip-path" transform="translate(-11.53)"><rect class="cls-1" width="98" height="60"/></clipPath></defs><title>marketing_3</title><g id="Layer_2" data-name="Layer 2"><g id="marketing"><g class="cls-2"><path d="M17,21.46a1.21,1.21,0,0,1,1.21-1.21h7.39a1.21,1.21,0,0,1,0,2.42H18.25A1.21,1.21,0,0,1,17,21.46Zm8.6,3.39H18.25a1.21,1.21,0,1,0,0,2.42h7.39a1.21,1.21,0,1,0,0-2.42Zm0,4.61H18.25a1.21,1.21,0,0,0,0,2.42h7.39a1.21,1.21,0,1,0,0-2.42Zm49-3.4a9,9,0,0,1-8,9V49.7a2.45,2.45,0,0,1-1,2.06,2,2,0,0,1-2.42-.07c-2.23-1.7-4-3.14-5.67-4.4-6.83-5.36-8.5-6.67-13.84-6.94a2.3,2.3,0,0,1,.05.45v2.4a2.39,2.39,0,0,1-2.38,2.38h-1l5.22,10.29A2.84,2.84,0,0,1,43,60H37.85a2.78,2.78,0,0,1-2.53-1.56L28.86,45.71a2.76,2.76,0,0,1-.31-1.29v-6H21.21a9.69,9.69,0,0,1-9.68-9.68V23.38a9.7,9.7,0,0,1,9.68-9.69H28.6a2.27,2.27,0,0,1,2.15-1.93c2.42,0,4.5,0,6.31,0,11.4.13,11.4.13,20.43-7,1.62-1.27,3.44-2.7,5.67-4.41A2,2,0,0,1,65.58.37a2.44,2.44,0,0,1,1,2.05V17.1A9,9,0,0,1,74.63,26.06ZM21.21,36h7.34V16.11H21.21a7.28,7.28,0,0,0-7.27,7.27v5.37A7.28,7.28,0,0,0,21.21,36ZM43.38,57,37.67,45.71a2.76,2.76,0,0,1-.31-1.29V40.74c-1.88,0-4,0-6.39,0v3.63a.32.32,0,0,0,.05.19l6.45,12.74a.39.39,0,0,0,.38.23H43a.39.39,0,0,0,.36-.2A.42.42,0,0,0,43.38,57Zm-2.06-13.8,0-2.35-1.5,0v2.33ZM64.19,2.69c-2,1.55-3.7,2.87-5.2,4.05-9.61,7.54-9.82,7.61-22,7.48-1.74,0-3.74,0-6.06,0h0V37.94h0L37,37.9l3.59,0c8.71,0,9.81.79,18.37,7.51,1.5,1.17,3.18,2.5,5.2,4Zm8,23.37a6.6,6.6,0,0,0-5.6-6.52V32.59A6.62,6.62,0,0,0,72.21,26.06Zm13.06-1.21h-5.8a1.21,1.21,0,0,0,0,2.42h5.8a1.21,1.21,0,0,0,0-2.42Zm-7.84-4.76a1.21,1.21,0,0,0,.86-.36l4.09-4.09a1.2,1.2,0,0,0,0-1.71,1.21,1.21,0,0,0-1.71,0L76.58,18a1.22,1.22,0,0,0,.85,2.07Zm.86,12.24A1.21,1.21,0,0,0,76.58,34l4.09,4.1a1.24,1.24,0,0,0,.86.35,1.21,1.21,0,0,0,.85-2.06Z" transform="translate(-11.53)"/></g></g></g></svg>