<svg xmlns="http://www.w3.org/2000/svg" xmlns:xlink="http://www.w3.org/1999/xlink" viewBox="0 0 74.4 60"><defs><style>.cls-1{fill:none;}.cls-2{clip-path:url(#clip-path);}</style><clipPath id="clip-path" transform="translate(-11.8)"><rect class="cls-1" width="98" height="60"/></clipPath></defs><title>wireframe-prototype</title><g id="Layer_2" data-name="Layer 2"><g id="Layer_7" data-name="Layer 7"><g class="cls-2"><path d="M85.57,10.82A5.21,5.21,0,0,0,83.85,9a1.2,1.2,0,0,0-1.3,2,2.73,2.73,0,0,1,.92,1,2.66,2.66,0,0,1,.33,1.29V54.89A2.67,2.67,0,0,1,83,56.8a2.71,2.71,0,0,1-1.91.8H19.27a5.06,5.06,0,0,1,0-10.12h4.38a1.2,1.2,0,0,0,1.2-1.2V1.2A1.2,1.2,0,0,0,23.65,0H18.32A6.54,6.54,0,0,0,11.8,6.52v46A7.49,7.49,0,0,0,19.26,60H81.09a5.12,5.12,0,0,0,5.11-5.11V13.25A5.05,5.05,0,0,0,85.57,10.82ZM14.21,6.52A4.15,4.15,0,0,1,15.42,3.6a4.11,4.11,0,0,1,2.92-1.21h4.11V45.06h-4l-.1,0H18l0,0h-.27l-.08,0h-.12l-.07,0-.08,0h0l0,0h-.1l0,0-.08,0H17l0,0-.09,0-.09,0h0l0,0h0l0,0h0l-.06,0h0l-.06,0h0l-.06,0,0,0-.06,0h0l-.07,0h0l-.06,0,0,0-.05,0-.07,0h0l-.08,0-.2.11,0,0-.06,0-.07,0,0,0-.05,0,0,0-.06,0h0l-.06,0v0l0,0-.08,0,0,0-.06,0h0l-.06,0h0l-.06,0h0l-.12.09h0l-.06,0v0l-.12.09-.06.06a2.75,2.75,0,0,0-.26.22l-.07.05Zm44,21.24L44.92,20.07a1.19,1.19,0,0,0-1.21,0L30.48,27.71a1.23,1.23,0,0,0-.67,1.08V44.15a1.15,1.15,0,0,0,.6,1L37.07,49l6.55,3.79a1.26,1.26,0,0,0,.69.22,1.21,1.21,0,0,0,.7-.22l6.49-3.75.07,0,6.57-3.79a1.22,1.22,0,0,0,.68-1.08V28.78A1.18,1.18,0,0,0,58.21,27.76Zm-15.1,22L38.26,47h0l-6-3.49V30.84l10.9,6.31Zm1.2-14.68-10.88-6.3,10.88-6.3L50.37,26l4.84,2.8Zm12.11,8.38L50.37,47l-.07,0-4.79,2.77V37.15l10.91-6.3Zm14.64-.36H64.49a1.2,1.2,0,1,0,0,2.4h6.57a1.2,1.2,0,1,0,0-2.4Zm6.57-7.84H64.49a1.21,1.21,0,0,0,0,2.41H77.63a1.21,1.21,0,0,0,0-2.41Zm0-7.82H64.49a1.2,1.2,0,1,0,0,2.4H77.63a1.2,1.2,0,1,0,0-2.4Zm-1-22.8a3.51,3.51,0,0,0-2.48-1H40.72l-.07,0h-.07L28.81,8.18a1.19,1.19,0,0,0,0,2.25L40.54,15a1.18,1.18,0,0,0,.53.12H74.19a3.47,3.47,0,0,0,2.48-1,3.5,3.5,0,0,0,1-2.47V7.11A3.5,3.5,0,0,0,76.67,4.64Zm-36.8,7.49L32.56,9.3l7.31-2.76Zm30.82.54H42.27V6H70.69Zm4.6-1.1a1.11,1.11,0,0,1-1.1,1.11H73.1V6h1.09a1.09,1.09,0,0,1,1.1,1.1Z" transform="translate(-11.8)"/></g></g></g></svg>