<?xml version="1.0" encoding="UTF-8"?>
<svg id="Layer_2" xmlns="http://www.w3.org/2000/svg" xmlns:xlink="http://www.w3.org/1999/xlink" viewBox="0 0 50 31">
  <defs>
    <style>
      .cls-1 {
        fill: #fff;
      }

      .cls-2 {
        fill: none;
      }

      .cls-3 {
        clip-path: url(#clippath);
      }
    </style>
    <clipPath id="clippath">
      <rect class="cls-2" width="50" height="31"/>
    </clipPath>
  </defs>
  <g id="Layer_1-2" data-name="Layer_1">
    <g class="cls-3">
      <g>
        <path class="cls-1" d="M31.64,23.48h-13.27c-4.27,0-7.75-3.48-7.75-7.75v-.47c0-4.27,3.48-7.75,7.75-7.75h13.27c4.27,0,7.75,3.48,7.75,7.75v.47c0,4.27-3.48,7.75-7.75,7.75ZM18.36,8.69c-3.63,0-6.58,2.95-6.58,6.58v.47c0,3.63,2.95,6.58,6.58,6.58h13.27c3.63,0,6.58-2.95,6.58-6.58v-.47c0-3.63-2.95-6.58-6.58-6.58h-13.27Z"/>
        <path class="cls-1" d="M19.59,20.67c-2.85,0-5.17-2.32-5.17-5.17s2.32-5.17,5.17-5.17,5.17,2.32,5.17,5.17-2.32,5.17-5.17,5.17ZM19.59,11.5c-2.2,0-4,1.79-4,4s1.79,4,4,4,4-1.79,4-4-1.79-4-4-4Z"/>
      </g>
    </g>
  </g>
</svg>