<?xml version="1.0" encoding="UTF-8"?>
<svg id="Layer_2" xmlns="http://www.w3.org/2000/svg" xmlns:xlink="http://www.w3.org/1999/xlink" viewBox="0 0 50 31">
  <defs>
    <style>
      .cls-1 {
        fill: #fff;
        fill-rule: evenodd;
      }

      .cls-2 {
        fill: none;
      }

      .cls-3 {
        clip-path: url(#clippath);
      }
    </style>
    <clipPath id="clippath">
      <rect class="cls-2" width="50" height="31"/>
    </clipPath>
  </defs>
  <g id="Layer_1-2" data-name="Layer_1">
    <g class="cls-3">
      <g>
        <path class="cls-1" d="M23.47,28.5c-.6,0-1.17-.2-1.59-.57l-7.9-6.94h-2.33v1.11c0,.2-.16.37-.37.37h-4.92c-.2,0-.37-.16-.37-.37V7.35c0-.2.16-.37.37-.37h4.92c.2,0,.37.16.37.37v1.11h7.1l.02-.2c.25-3.23,2.99-5.76,6.23-5.76,2.72,0,5.11,1.74,5.95,4.33l.03.1.81.31c1.61.63,3.28,1.27,6.06,1.27h.5v-1.67c0-.2.16-.36.36-.36h4.92c.2,0,.37.16.37.36v13.36c0,.2-.16.37-.37.37h-4.92c-.2,0-.36-.16-.36-.37v-1.64l-4.69.05.08.27c.06.21.09.38.08.55,0,.54-.25,1.04-.68,1.42-.42.37-.98.57-1.58.57-.07,0-.14,0-.2,0l-.24-.02.02.36c0,.55-.24,1.07-.68,1.46-.42.37-.99.57-1.58.57-.07,0-.14,0-.2,0l-.24-.02.02.36c0,.55-.24,1.07-.68,1.46-.42.37-.98.57-1.58.57-.07,0-.13,0-.2,0l-.24-.02v.36c.01.55-.23,1.07-.67,1.46-.38.33-.86.53-1.39.57h-.19ZM11.66,20.26h2.47c.09,0,.18.03.24.09l8.01,7.03c.29.26.68.4,1.11.4s.81-.14,1.11-.4c.28-.24.43-.57.43-.91s-.15-.66-.43-.9l-3.97-3.48c-.15-.13-.17-.36-.03-.51.07-.08.17-.12.27-.12.09,0,.17.03.24.09l3.96,3.48c.29.26.69.4,1.11.4s.81-.14,1.1-.4c.28-.24.43-.57.43-.91s-.15-.66-.43-.91l-3.96-3.48c-.07-.06-.12-.15-.12-.25,0-.1.03-.19.09-.27.07-.08.17-.12.27-.12.09,0,.17.03.24.09l3.96,3.48c.3.26.69.4,1.1.4s.81-.14,1.1-.4c.28-.24.43-.57.43-.91s-.15-.66-.43-.91l-3.96-3.48c-.07-.06-.12-.15-.12-.25,0-.1.03-.19.09-.26.07-.08.17-.12.28-.12.09,0,.17.03.24.09l3.96,3.48c.31.26.69.4,1.1.4s.81-.14,1.1-.4c.27-.24.42-.55.43-.89,0-.33-.13-.65-.39-.89l-4.8-4.24-.13.06c-.88.44-1.81.66-2.77.66-1.28,0-2.52-.39-3.58-1.13l-.12-.08-.12.08c-1.54,1-2.8,1.5-3.75,1.5h-.1c-.56-.02-1-.23-1.28-.62-.81-1.1-.09-3.28,1.72-5.2l.34-.36h-6.45v11.07ZM6.74,21.73h4.19V7.72h-4.19v14.01ZM39.07,19.83h4.19V7.2h-4.19v12.63ZM31.22,8.13c.02.21.03.41.03.62,0,1.97-.91,3.78-2.49,4.98l-.21.16,4.52,3.99,5.27-.05v-8.6h-.52c-2.9,0-4.63-.66-6.3-1.31l-.32-.13.02.34ZM18.5,9.83c-1.79,1.77-2.41,3.75-1.86,4.48.15.21.44.32.82.32.51,0,1.45-.21,3.03-1.19l.23-.14-.19-.19c-.86-.88-1.43-1.98-1.67-3.17l-.08-.39-.28.28ZM25,3.23c-3.05,0-5.52,2.48-5.52,5.52s2.48,5.52,5.52,5.52,5.52-2.48,5.52-5.52-2.48-5.52-5.52-5.52Z"/>
        <path class="cls-1" d="M26.75,12.15c-.1,0-.19-.04-.26-.11l-1.49-1.49-1.49,1.49c-.07.07-.16.11-.26.11s-.19-.04-.26-.11l-1.28-1.28c-.14-.14-.14-.37,0-.52l1.49-1.49-1.49-1.49c-.14-.14-.14-.37,0-.52l1.28-1.28c.07-.07.16-.11.26-.11s.19.04.26.11l1.49,1.49,1.49-1.49c.07-.07.16-.11.26-.11s.19.04.26.11l1.28,1.28c.14.14.14.37,0,.52l-1.49,1.49,1.49,1.49c.14.14.14.37,0,.52l-1.28,1.28c-.07.07-.16.11-.26.11ZM25,9.67c.1,0,.19.04.26.11l1.49,1.49.77-.77-1.49-1.49c-.14-.14-.14-.37,0-.52l1.49-1.49-.77-.77-1.49,1.49c-.07.07-.16.11-.26.11s-.19-.04-.26-.11l-1.49-1.49-.77.77,1.49,1.49c.07.07.11.16.11.26s-.04.19-.11.26l-1.49,1.49.77.77,1.49-1.49c.07-.07.16-.11.26-.11Z"/>
      </g>
    </g>
  </g>
</svg>