<?xml version="1.0" encoding="UTF-8"?>
<svg id="Layer_2" xmlns="http://www.w3.org/2000/svg" xmlns:xlink="http://www.w3.org/1999/xlink" viewBox="0 0 50 31">
  <defs>
    <style>
      .cls-1 {
        fill: #fff;
      }

      .cls-2 {
        fill: none;
      }

      .cls-3 {
        clip-path: url(#clippath);
      }
    </style>
    <clipPath id="clippath">
      <rect class="cls-2" width="50" height="31"/>
    </clipPath>
  </defs>
  <g id="Layer_1-2" data-name="Layer_1">
    <g class="cls-3">
      <path class="cls-1" d="M36.16,17.53V2.66c0-1.47-1.19-2.66-2.66-2.66H10.13c-1.47,0-2.66,1.19-2.66,2.66v14.87c0,1.47,1.19,2.66,2.66,2.66h2.66v3.28c0,.66.37,1.22.99,1.48.2.09.41.13.62.13.41,0,.81-.16,1.12-.47l4.41-4.41h13.59c1.47,0,2.66-1.19,2.66-2.66h0ZM19.69,19.12c-.14,0-.28.05-.37.16l-4.56,4.56c-.23.23-.5.15-.57.12-.07-.03-.33-.16-.33-.49v-3.81c0-.3-.23-.53-.53-.53h-3.19c-.88,0-1.59-.71-1.59-1.59V2.66c0-.88.71-1.59,1.6-1.59h23.37c.88,0,1.59.71,1.59,1.59v14.87c0,.88-.71,1.59-1.59,1.59h-13.82ZM22.88,10.09c0,.59-.47,1.06-1.06,1.06s-1.06-.48-1.06-1.06.47-1.06,1.06-1.06,1.06.47,1.06,1.06ZM15.97,10.09c0,.59-.47,1.06-1.06,1.06s-1.06-.48-1.06-1.06.47-1.06,1.06-1.06,1.06.47,1.06,1.06ZM29.78,10.09c0,.59-.47,1.06-1.06,1.06s-1.06-.48-1.06-1.06.47-1.06,1.06-1.06,1.06.47,1.06,1.06ZM42.53,8.59v14.87c0,1.47-1.19,2.66-2.66,2.66h-2.66v3.28c0,.66-.37,1.21-.98,1.47-.2.09-.41.13-.63.13-.41,0-.81-.16-1.13-.47l-4.4-4.4h-7.21c-1.47,0-2.66-1.19-2.66-2.66,0-.3.23-.53.53-.53s.53.23.53.53c0,.88.71,1.59,1.59,1.59h7.44c.14,0,.28.05.37.16l4.56,4.56c.23.23.51.15.58.12.07-.03.33-.16.33-.49v-3.81c0-.3.23-.53.53-.53h3.19c.88,0,1.59-.71,1.59-1.59v-14.87c0-.88-.71-1.59-1.59-1.59h-1.06c-.3,0-.53-.23-.53-.53s.23-.53.53-.53h1.06c1.47,0,2.66,1.19,2.66,2.66h0Z"/>
    </g>
  </g>
</svg>