<?xml version="1.0" encoding="UTF-8"?>
<svg id="Layer_2" xmlns="http://www.w3.org/2000/svg" xmlns:xlink="http://www.w3.org/1999/xlink" viewBox="0 0 50 31">
  <defs>
    <style>
      .cls-1 {
        fill: #fff;
        fill-rule: evenodd;
      }

      .cls-2 {
        fill: none;
      }

      .cls-3 {
        clip-path: url(#clippath);
      }
    </style>
    <clipPath id="clippath">
      <rect class="cls-2" width="50" height="31"/>
    </clipPath>
  </defs>
  <g id="Layer_1-2" data-name="Layer_1">
    <g class="cls-3">
      <path class="cls-1" d="M9.25,21.52V2.9c0-.54.22-1.07.6-1.45.38-.38.91-.6,1.45-.6h27.39c.55,0,1.07.22,1.45.6.39.39.6.91.6,1.45v18.62c0,.55-.22,1.07-.6,1.45-.38.38-.91.6-1.45.6h-1.61l3.07,3.07c.38.38.6.91.6,1.45s-.22,1.07-.6,1.45h0c-.8.8-2.1.8-2.9,0l-4.93-4.93c-.84.49-1.74.81-2.67.98l.58,1.54h.81c.83,0,1.51.67,1.51,1.51v1.1c0,.23-.18.41-.41.41h-14.24c-.23,0-.41-.18-.41-.41v-1.1c0-.83.67-1.51,1.51-1.51h.81l1.34-3.56h-9.81c-.54,0-1.07-.22-1.45-.6-.39-.39-.6-.91-.6-1.45h0ZM39.93,19.47V2.9c0-.33-.13-.64-.36-.87-.23-.23-.55-.36-.87-.36H11.31c-.33,0-.64.13-.87.36-.23.23-.36.54-.36.87v16.57h10.29c-.61-2.63.11-5.5,2.16-7.54,3.15-3.15,8.27-3.15,11.43,0,2.04,2.05,2.76,4.92,2.16,7.54h3.82ZM36.26,22.76h2.44c.33,0,.64-.13.87-.36.23-.23.36-.55.36-.87v-1.23h-4.06c-.17.49-.39.97-.65,1.42l1.04,1.04ZM33.01,24.16l4.81,4.81c.48.48,1.26.48,1.74,0,.23-.23.36-.55.36-.87s-.13-.64-.36-.87l-4.81-4.81c-.24.33-.51.64-.81.94-.3.3-.61.56-.94.81h0ZM28.8,25.7c-2.15.15-4.35-.56-6.04-2.12h-.76l-1.34,3.56h8.67l-.54-1.44h0ZM21.98,22.76c-.61-.75-1.07-1.59-1.38-2.46h-10.53v1.23c0,.33.13.64.36.87.23.23.54.36.87.36h10.68ZM31.03,27.96h-12.05c-.38,0-.68.31-.68.68v.68h13.42v-.68c0-.38-.31-.68-.68-.68h0ZM37.05,6.33c.23,0,.41.18.41.41s-.18.41-.41.41h-10.95c-.23,0-.41-.18-.41-.41s.18-.41.41-.41h10.95ZM26.1,4.96c-.23,0-.41-.18-.41-.41s.18-.41.41-.41h10.95c.23,0,.41.18.41.41s-.18.41-.41.41h-10.95ZM22.4,7.18l-3.13,3.13c-.12.12-.29.15-.44.09l-2.51-1.01-3.1,2.58c-.17.15-.43.12-.58-.05-.15-.17-.12-.43.05-.58l3.29-2.74c.12-.1.28-.12.42-.07l2.49.99,2.94-2.94h-2.11c-.23,0-.41-.18-.41-.41s.18-.41.41-.41h3.1c.11,0,.21.04.29.12s.12.18.12.29v3.1c0,.23-.18.41-.41.41s-.41-.18-.41-.41v-2.11ZM23.1,12.51c-2.83,2.83-2.83,7.43,0,10.26,2.83,2.83,7.43,2.83,10.26,0,2.83-2.83,2.83-7.43,0-10.26-2.83-2.83-7.43-2.83-10.26,0ZM28.24,11.75c3.25,0,5.89,2.64,5.89,5.89s-2.64,5.89-5.89,5.89-5.89-2.64-5.89-5.89,2.64-5.89,5.89-5.89ZM28.24,12.57c-2.8,0-5.07,2.27-5.07,5.07s2.27,5.07,5.07,5.07,5.07-2.27,5.07-5.07-2.27-5.07-5.07-5.07Z"/>
    </g>
  </g>
</svg>