<?xml version="1.0" encoding="UTF-8"?>
<svg id="Layer_2" xmlns="http://www.w3.org/2000/svg" xmlns:xlink="http://www.w3.org/1999/xlink" viewBox="0 0 50 31">
  <defs>
    <style>
      .cls-1 {
        fill: #fff;
        fill-rule: evenodd;
      }

      .cls-2 {
        fill: none;
      }

      .cls-3 {
        clip-path: url(#clippath);
      }
    </style>
    <clipPath id="clippath">
      <rect class="cls-2" width="50" height="31"/>
    </clipPath>
  </defs>
  <g id="Layer_1-2" data-name="Layer_1">
    <g class="cls-3">
      <path class="cls-1" d="M11.48,19.78h2.9c.17,0,.32.14.32.32s-.14.32-.32.32h-2.9c-.05.14-.13.27-.24.38-.18.18-.42.29-.69.29s-.52-.11-.69-.29c-.18-.18-.29-.42-.29-.69s.11-.52.29-.69c.18-.18.42-.29.69-.29s.52.11.69.29c.1.1.19.23.24.38h0ZM16.08,24.57c-.02-.17.09-.33.27-.36.17-.02.33.09.36.27.17,1.15.75,2.16,1.59,2.89.83.72,1.91,1.15,3.08,1.15h10.36c.09-.34.33-.64.68-.91.33-.25.78-.46,1.3-.62-1.85-2.72-1.56-4.65-.45-5.75.71-.71,1.77-1.06,2.81-1.07,1.05,0,2.1.35,2.8,1.05,1.09,1.1,1.36,3.02-.52,5.75.53.16.98.37,1.33.62.47.34.74.77.74,1.23,0,.65-.52,1.21-1.37,1.6-.77.35-1.83.57-2.99.57s-2.22-.22-2.99-.57c-.71-.32-1.19-.77-1.33-1.28h-10.36c-1.33,0-2.56-.49-3.5-1.31-.95-.82-1.62-1.98-1.81-3.28h0ZM24.23,8.34h7.78c1.47,0,2.81.6,3.79,1.57.97.97,1.57,2.31,1.57,3.79s-.6,2.81-1.57,3.79c-.97.97-2.31,1.57-3.79,1.57h-7.5c-.17,0-.32-.14-.32-.32s.14-.32.32-.32h7.5c1.3,0,2.48-.53,3.34-1.39.86-.86,1.39-2.04,1.39-3.34s-.53-2.48-1.39-3.34c-.86-.86-2.04-1.39-3.34-1.39h-7.78c-.14.51-.62.96-1.33,1.28-.77.35-1.83.57-2.99.57s-2.22-.22-2.99-.57c-.85-.39-1.37-.95-1.37-1.6,0-.46.27-.88.73-1.22.33-.25.78-.46,1.3-.62-1.85-2.72-1.56-4.65-.46-5.75C17.83.36,18.88,0,19.93,0c1.05,0,2.1.35,2.8,1.05,1.09,1.1,1.36,3.02-.52,5.75.53.16.98.37,1.33.62.36.26.61.58.7.92h0ZM36.06,21.65c-.48,0-.91.19-1.22.51-.31.31-.51.74-.51,1.22s.19.91.51,1.22c.31.31.74.51,1.22.51s.91-.19,1.22-.51c.31-.31.51-.74.51-1.22s-.19-.91-.51-1.22c-.31-.31-.74-.51-1.22-.51ZM36.84,22.6c-.2-.2-.47-.32-.77-.32s-.58.12-.77.32c-.2.2-.32.47-.32.77s.12.58.32.77c.2.2.47.32.77.32s.58-.12.77-.32c.2-.2.32-.47.32-.77s-.12-.58-.32-.77ZM35.8,29.45c-.67-.68-1.23-1.32-1.69-1.92-.54.14-1,.34-1.32.58-.3.22-.47.47-.47.72,0,.38.38.74,1,1.02.69.32,1.66.51,2.73.51s2.04-.2,2.73-.51c.62-.28,1-.65,1-1.02,0-.25-.18-.5-.48-.72-.33-.24-.79-.44-1.35-.59-.46.61-1.03,1.25-1.71,1.93-.12.12-.32.12-.44,0h0ZM33.71,21.69c-.96.95-1.12,2.7.76,5.28.01.02.03.03.04.05.41.55.91,1.14,1.51,1.76.62-.63,1.13-1.22,1.54-1.78,0-.02.02-.03.03-.04,1.92-2.59,1.78-4.34.84-5.28-.58-.58-1.46-.87-2.35-.87-.89,0-1.78.3-2.37.89h0ZM19.91,1.47c-.48,0-.91.19-1.22.51-.31.31-.51.74-.51,1.22s.19.91.51,1.22c.31.31.74.51,1.22.51s.91-.19,1.22-.51c.31-.31.51-.74.51-1.22s-.19-.91-.51-1.22c-.31-.31-.74-.51-1.22-.51ZM20.69,2.42c-.2-.2-.47-.32-.77-.32s-.58.12-.77.32c-.2.2-.32.47-.32.77s.12.58.32.77c.2.2.47.32.77.32s.58-.12.77-.32c.2-.2.32-.47.32-.77s-.12-.58-.32-.77ZM19.65,9.28c-.67-.68-1.23-1.32-1.69-1.92-.54.14-1,.34-1.32.58-.3.22-.47.47-.47.72,0,.38.38.74,1,1.02.69.32,1.66.51,2.73.51s2.04-.2,2.73-.51c.62-.28,1-.65,1-1.02,0-.25-.18-.5-.48-.72-.33-.24-.79-.44-1.35-.59-.47.61-1.03,1.25-1.71,1.93-.12.12-.32.12-.44,0h0ZM17.56,1.52c-.96.95-1.12,2.7.76,5.28.01.02.03.03.04.05.41.55.91,1.14,1.51,1.76.62-.63,1.13-1.22,1.54-1.78,0-.02.02-.03.03-.04,1.92-2.59,1.78-4.34.83-5.28-.58-.58-1.46-.87-2.35-.87-.89,0-1.78.3-2.37.89h0ZM19.33,18.61c-.41,0-.78.17-1.05.44s-.44.64-.44,1.05.17.78.44,1.05.64.44,1.05.44.78-.17,1.05-.44.44-.64.44-1.05-.17-.78-.44-1.05c-.27-.27-.64-.44-1.05-.44ZM17.83,18.6c-.38.38-.62.91-.62,1.5s.24,1.12.62,1.5c.38.38.91.62,1.5.62s1.12-.24,1.5-.62c.38-.38.62-.91.62-1.5s-.24-1.12-.62-1.5c-.38-.38-.91-.62-1.5-.62-.59,0-1.12.24-1.5.62ZM19.94,17.08l-.21-.69h-.78s-.21.69-.21.69c-.03.11-.12.19-.22.21-.09.03-.19.06-.29.1-.1.04-.19.09-.29.14-.1.06-.22.05-.31,0l-.63-.33-.55.55.34.64c.05.1.05.21,0,.3-.05.09-.1.19-.14.29-.04.1-.08.2-.11.3-.03.11-.11.18-.21.21l-.69.21v.78l.69.21c.11.03.19.12.21.22.03.09.06.19.1.29s.09.19.14.29c.06.1.05.22,0,.31l-.33.63.55.55.64-.34c.1-.05.21-.05.3,0,.09.05.19.1.29.14.1.04.2.08.3.11.11.03.18.11.21.21l.21.69h.78l.21-.69c.03-.11.12-.19.22-.21.09-.03.19-.06.29-.1s.19-.09.29-.14c.1-.06.22-.05.31,0l.63.33.55-.55-.34-.64c-.05-.1-.05-.21,0-.3.05-.09.1-.19.14-.29.04-.1.08-.2.11-.3.03-.11.11-.18.21-.21l.69-.21v-.78l-.69-.21c-.11-.03-.19-.12-.21-.22-.03-.09-.06-.19-.1-.29-.04-.1-.09-.19-.14-.29-.06-.1-.05-.22,0-.31l.33-.63-.55-.55-.64.34c-.1.05-.21.05-.3,0-.09-.05-.19-.1-.29-.14-.1-.04-.2-.08-.3-.11-.11-.03-.18-.11-.21-.21h0ZM20.25,15.99c-.04-.14-.17-.22-.3-.22h0s-1.24,0-1.24,0c-.15,0-.28.11-.31.25l-.23.73c-.07.02-.14.05-.2.07-.07.03-.13.06-.2.09l-.7-.37c-.13-.07-.28-.04-.37.06l-.88.88c-.11.11-.12.27-.05.39l.36.68c-.03.06-.06.13-.09.2-.03.06-.05.13-.08.2l-.76.23c-.14.04-.22.17-.22.3h0v1.24c0,.15.11.28.25.31l.73.23c.02.07.05.14.08.2.03.07.06.13.09.2l-.37.7c-.07.13-.04.28.06.37l.88.88c.11.11.27.12.39.05l.68-.36c.06.03.13.06.2.09.06.03.13.05.2.08l.23.76c.04.14.17.22.3.22h0s1.24,0,1.24,0c.15,0,.28-.11.31-.25l.23-.73c.07-.02.14-.05.2-.08.07-.03.13-.06.2-.09l.7.37c.13.07.28.04.37-.06l.88-.88c.11-.11.12-.27.05-.39l-.36-.68c.03-.06.06-.13.09-.2.03-.06.05-.13.08-.2l.76-.23c.14-.04.22-.17.22-.3h0v-1.24c0-.15-.11-.28-.25-.31l-.73-.23c-.02-.07-.05-.14-.07-.2-.03-.07-.06-.13-.09-.2l.37-.7c.07-.13.04-.28-.06-.37l-.88-.88c-.11-.11-.27-.12-.39-.05l-.68.36c-.06-.03-.13-.06-.2-.09-.06-.03-.13-.05-.2-.07l-.24-.76ZM12.96,18.44c.06.06.14.11.24.11h2.21c.17,0,.32-.14.32-.32s-.14-.32-.32-.32h-2.08l-.3-.29c.06-.13.09-.27.09-.42,0-.27-.11-.52-.29-.69-.18-.18-.42-.29-.69-.29s-.52.11-.69.29c-.18.18-.29.42-.29.69s.11.52.29.69c.18.18.42.29.69.29.16,0,.31-.04.45-.11l.38.37ZM11.78,17.2c0-.1.04-.18.1-.25.06-.06.15-.1.25-.1s.18.04.25.1c.06.06.1.15.1.25s-.04.18-.1.25-.15.1-.25.1-.18-.04-.25-.1c-.06-.06-.1-.15-.1-.25ZM13.32,22.28l-.3.29c.06.13.09.27.09.42,0,.27-.11.52-.29.69-.18.18-.42.29-.69.29s-.52-.11-.69-.29c-.18-.18-.29-.42-.29-.69s.11-.52.29-.69c.18-.18.42-.29.69-.29.16,0,.31.04.45.11l.38-.37c.06-.06.14-.11.24-.11h2.21c.17,0,.32.14.32.32s-.14.32-.32.32h-2.08ZM11.88,22.74c-.06.06-.1.15-.1.25s.04.18.1.25c.06.06.15.1.25.1s.18-.04.25-.1c.06-.06.1-.15.1-.25s-.04-.18-.1-.25-.15-.1-.25-.1-.18.04-.25.1ZM10.3,19.85c-.06.06-.1.15-.1.25s.04.18.1.25.15.1.25.1.18-.04.25-.1c.06-.06.1-.15.1-.25s-.04-.18-.1-.25c-.06-.06-.15-.1-.25-.1-.1,0-.18.04-.25.1Z"/>
    </g>
  </g>
</svg>