<?xml version="1.0" encoding="UTF-8"?>
<svg id="Layer_2" xmlns="http://www.w3.org/2000/svg" xmlns:xlink="http://www.w3.org/1999/xlink" viewBox="0 0 50 31">
  <defs>
    <style>
      .cls-1 {
        fill: #fff;
        fill-rule: evenodd;
      }

      .cls-2 {
        fill: none;
      }

      .cls-3 {
        clip-path: url(#clippath);
      }
    </style>
    <clipPath id="clippath">
      <rect class="cls-2" width="50" height="31"/>
    </clipPath>
  </defs>
  <g id="Layer_1-2" data-name="Layer_1">
    <g class="cls-3">
      <path class="cls-1" d="M23.09,0C27.08,0,30.69,1.62,33.3,4.23c2.61,2.61,4.23,6.22,4.23,10.21,0,.45-.02.9-.06,1.36-.03.37-.08.73-.14,1.08.68.35,1.29.81,1.83,1.34,1.35,1.35,2.19,3.23,2.19,5.29s-.84,3.94-2.19,5.29-3.23,2.19-5.29,2.19-3.94-.84-5.29-2.19c-.24-.24-.46-.49-.66-.75-.46.16-.92.3-1.4.42-.03,0-.05.01-.08.02-.09.02-.19.04-.28.06h-.04s-.05.02-.08.03l-.16.04-.24.04h-.04s-.24.05-.24.05l-.68.09-.64.06-.68.03h-.08s-.04,0-.04,0h-.04s-.04,0-.04,0h-.04c-.06,0-.12,0-.18,0h-.02c-.05,0-.11,0-.16,0h-.03c-.05,0-.1,0-.15,0h-.04c-.05,0-.1,0-.15,0h-.04s-.09,0-.14-.01c-.02,0-.04,0-.05,0-.03,0-.07,0-.1,0-.03,0-.06,0-.1,0-.03,0-.05,0-.08,0-.04,0-.09,0-.13-.01h-.05c-3.42-.34-6.49-1.87-8.79-4.17-2.61-2.61-4.23-6.22-4.23-10.21s1.62-7.6,4.23-10.21C15.5,1.62,19.11,0,23.1,0h0ZM34.21,25.19c.16-.05.3-.14.42-.26.2-.2.32-.47.32-.76s-.12-.57-.32-.76-.47-.32-.76-.32-.57.12-.76.32-.32.47-.32.76.12.57.32.76c.11.11.25.2.4.26v.83c-.01.2.15.36.34.36s.36-.16.36-.35v-.83s0,0,0,0ZM34.12,23.91c-.07-.07-.16-.11-.26-.11s-.19.04-.26.11c-.07.07-.11.16-.11.26s.04.19.11.26c.07.07.16.11.26.11s.19-.04.26-.11c.07-.07.11-.16.11-.26s-.04-.19-.11-.26ZM36.72,17.37h0c-.87-.41-1.84-.63-2.86-.63h-.09s-.06,0-.09,0-.06,0-.09,0-.06,0-.09,0-.06,0-.09,0-.06,0-.09,0-.06,0-.09,0-.06,0-.09,0-.06,0-.09,0-.06,0-.09.01h-.08s-.06.02-.08.02-.06,0-.08.01-.06,0-.08.01l-.08.02s-.05.01-.08.02-.05.01-.08.02-.05.01-.08.02c-.03,0-.05.01-.08.02-.03,0-.05.01-.08.02s-.05.01-.08.02-.05.02-.08.02-.05.02-.08.02c-.03,0-.05.02-.08.02-.03,0-.05.02-.08.02l-.08.03-.08.03s-.05.02-.08.03-.05.02-.08.03c-.03.01-.05.02-.08.03-.03.01-.05.02-.08.03-.02.01-.05.02-.08.03s-.05.02-.08.03c-.02.01-.05.02-.08.03s-.05.02-.08.04-.05.02-.07.04c-.02.01-.05.02-.07.04-.02.01-.05.02-.07.04-.02.01-.05.02-.07.04-.02.01-.05.03-.07.04-.02.01-.05.03-.07.04-.02.01-.05.03-.07.04s-.05.03-.07.04-.05.03-.07.04-.05.03-.07.04c-.02.01-.05.03-.07.04-.05.03-.09.06-.14.09-.02.02-.05.03-.07.05-.02.02-.05.03-.07.05-.02.02-.04.03-.07.05-.02.02-.04.03-.06.05-.02.02-.04.03-.06.05-.02.02-.04.03-.06.05s-.04.03-.06.05c-.19.15-.37.32-.54.49-.05.05-.11.11-.16.16h0s-.02.04-.04.05l-.02.02s-.02.03-.04.04l-.02.02-.04.04-.02.02-.04.04-.02.02s-.02.03-.03.04l-.02.02-.03.04-.02.02s-.02.02-.03.04l-.02.02s-.02.02-.03.04l-.02.03-.02.03-.02.03-.02.03-.02.03-.03.04-.02.03-.03.04-.02.03-.03.04-.02.03-.02.04-.02.03-.03.04-.02.02-.03.04-.02.03s-.02.03-.02.04l-.02.03s-.02.02-.02.04l-.02.03s-.02.03-.02.04l-.02.03s-.02.03-.02.04l-.02.03s-.02.03-.02.04l-.02.03s-.02.03-.02.04l-.02.03s-.01.02-.02.04c0,.01-.01.02-.02.03,0,.01-.01.03-.02.04v.02s-.03.03-.04.05v.02s-.03.04-.04.06h0c-.04.09-.08.18-.12.27v.02s-.02.04-.03.06h0s-.02.05-.02.07v.02s-.02.03-.03.05v.03s-.02.03-.03.05v.03s-.02.03-.03.05v.03s-.02.03-.03.04v.03s-.02.03-.03.05v.03s-.02.03-.03.05v.03s-.02.03-.02.05v.03s-.02.05-.02.05v.03s-.02.03-.02.05v.03s-.02.03-.02.05v.03s-.02.03-.02.05v.03s-.02.03-.02.05l-.02.08v.03s-.01.03-.02.05v.03s-.01.03-.02.05v.03s-.01.04-.02.05v.03s-.01.04-.01.05v.03s-.01.03-.01.05v.03s-.01.04-.01.05v.02s0,.04-.01.06v.02s0,.04-.01.06v.02s0,.04-.01.06v.03s0,.04,0,.06v.02s0,.05,0,.07h0c-.01.14-.02.28-.02.42h0v.02s0,.05,0,.07v.02h0v.08h0v.09c.02,1.84.78,3.5,1.98,4.7,1.23,1.23,2.92,1.98,4.79,1.98s3.56-.76,4.79-1.98c1.23-1.23,1.98-2.92,1.98-4.79s-.76-3.56-1.98-4.79c-.55-.55-1.21-1.02-1.93-1.35h0ZM34.13,16.04s.03,0,.05,0h.03s0,0,0,0c.86.04,1.69.23,2.45.53.04-.28.08-.56.11-.84.04-.42.06-.85.06-1.3,0-3.79-1.54-7.22-4.02-9.71-2.48-2.49-5.92-4.02-9.71-4.02s-7.22,1.54-9.71,4.02c-2.49,2.49-4.02,5.92-4.02,9.71,0,3.09,1.02,5.93,2.74,8.23.42-1.66,1.36-3.12,2.62-4.21,1.44-1.23,3.3-1.97,5.32-1.97h6.08c.66.01,1.3.09,1.92.25.56.14,1.1.33,1.62.58.02-.01.04-.02.05-.04h0s.04-.03.05-.04h0c.05-.04.11-.07.16-.11h.01c.07-.05.15-.09.22-.14h.01s.04-.03.05-.04h0c.05-.03.11-.06.17-.09h.02s.03-.02.05-.03h.02c.05-.04.11-.06.16-.09h.02s.03-.03.05-.03h.02s.07-.04.11-.06h0s.03-.02.05-.02h.02s.05-.03.05-.03h.03s.03-.02.04-.03c.02,0,.04-.02.06-.03.02,0,.03-.01.04-.02h.03s.04-.03.04-.03h.03s.03-.02.04-.03c.02,0,.04-.02.06-.02h.04s.03-.02.04-.03h.04s.08-.04.08-.04c.02,0,.04-.01.07-.02h.04s.04-.02.04-.02h.04s.08-.03.08-.03c.02,0,.05-.01.07-.02h.03s.03-.02.05-.02h.04s.03-.02.05-.02h.03s.05-.02.08-.03h.02s.04-.01.06-.02h.03s.05-.02.05-.02h.03s.05-.02.08-.02h.02s.04-.01.06-.02h.03s.04-.01.06-.02h.02s.05-.01.08-.02h.02s.04,0,.06-.01h.03s.04,0,.06-.01h.02s.06-.01.08-.01h.01s.05,0,.07-.01h.03s.04,0,.06,0h.03s.06,0,.08,0h.01s.05,0,.08,0h.02s.04,0,.06,0h.03s.06,0,.09,0h0s.05,0,.08,0h.03s.04,0,.06,0h.03s.06,0,.09,0h.1s.06,0,.08,0h.02s.04,0,.06,0h0ZM27.49,27.45c-.65-1.05-1.05-2.27-1.11-3.58v-.02s0-.02,0-.02v-.02s0-.02,0-.02h0s0-.05,0-.05v-.03s0,0,0,0v-.04s0-.04,0-.04h0v-.19h0v-.02h0s0-.05,0-.08h0v-.02h0s0-.05,0-.07h0s0-.04,0-.04h0s0-.03,0-.05h0s0-.05,0-.05h0s0-.04,0-.06h0v-.06s0-.03,0-.03h0v-.02h0s0-.04,0-.06h0s0-.02,0-.02c.03-.31.07-.62.13-.92h0c.05-.22.1-.43.17-.64,0-.03.02-.05.02-.08h0s.02-.06.02-.08h0c.05-.16.11-.31.17-.46,0-.02.02-.05.03-.07h0s.02-.05.03-.08v-.02s.03-.04.04-.06h0s.02-.05.03-.07v-.02s.03-.04.04-.06h0c.05-.11.09-.2.14-.29h0s.02-.05.03-.07h0s.02-.05.03-.06v-.02s.03-.03.04-.05v-.02s.03-.03.04-.05v-.02s.03-.03.04-.05l.02-.02s.02-.03.03-.05v-.02s.04-.03.05-.05h0c.04-.07.08-.13.12-.19v-.02s.03-.03.04-.04l.02-.03s.02-.03.03-.04l.02-.03s.02-.03.03-.04l.02-.03.03-.04.02-.03s.02-.03.03-.04l.02-.03s.02-.03.03-.04l.02-.03s.02-.03.03-.04l.02-.02s.02-.03.03-.04c.02-.02.03-.04.05-.06h0s.02-.02.03-.04l.02-.03s.02-.02.03-.04l.03-.03s.02-.02.03-.03l.02-.03s.02-.02.03-.04l.03-.03.03-.03.03-.03.03-.03.03-.03.03-.03.03-.03s.02-.02.04-.04h0s.03-.04.05-.06l.07-.07s.04-.04.05-.05h.01s.04-.04.05-.06l.02-.02s.03-.03.05-.04l.02-.02s.03-.02.04-.04l.03-.03h0s.03-.03.03-.03c.01-.01.02-.02.04-.03h0s0-.01,0-.01h.02s0-.02,0-.02c-.37-.16-.75-.28-1.14-.38-.56-.14-1.15-.21-1.75-.21h-6.08c-1.85-.02-3.55.66-4.86,1.79-1.29,1.1-2.2,2.64-2.51,4.38.28.32.57.63.87.93h0s.07.08.11.11l.03.03s.05.05.08.08l.05.04s.03.03.05.05c.03.03.06.05.08.08l.04.04s.06.05.09.08l.03.02s.07.06.11.09h0c2.22,1.88,5.05,3.07,8.14,3.23h0c.06,0,.11,0,.17,0h.02c.05,0,.11,0,.16,0h.02c.05,0,.11,0,.16,0h.02c.05,0,.11,0,.17,0h.24s.69-.03.69-.03l.39-.04.31-.03.42-.06h.04s.04-.01.04-.01l.15-.02.18-.04.25-.04h.06s.19-.05.19-.05h.06s.09-.04.09-.04h.06s.06-.03.06-.03c.04-.01.08-.02.12-.03.36-.09.71-.19,1.05-.31v.02ZM36.29,21.46v-.26c0-.67-.27-1.28-.71-1.72s-1.05-.71-1.72-.71-1.28.27-1.72.71-.71,1.05-.71,1.72v.26h4.86,0ZM30.72,21.51c-.27.07-.51.21-.7.4-.27.27-.44.65-.44,1.06v3.55c0,.41.17.79.44,1.06.27.27.65.44,1.06.44h5.57c.41,0,.79-.17,1.06-.44.27-.27.44-.65.44-1.06v-3.55c0-.41-.17-.79-.44-1.06-.19-.19-.43-.33-.7-.4v-.31c0-.86-.35-1.65-.92-2.22-.57-.57-1.35-.92-2.22-.92s-1.65.35-2.22.92c-.57.57-.92,1.35-.92,2.22v.31h0ZM31.07,27.29h5.57c.22,0,.41-.09.55-.23.14-.14.23-.34.23-.55v-3.55c0-.22-.09-.41-.23-.55-.14-.14-.34-.23-.55-.23h-5.57c-.22,0-.41.09-.55.23-.14.14-.23.34-.23.55v3.55c0,.22.09.41.23.55.14.14.34.23.55.23ZM28,18.86s.02-.03.03-.04l-.03.04ZM31,16.6l.04-.02s-.03.01-.04.02ZM31.1,16.56s.03-.01.04-.02l-.04.02ZM31.25,16.5l.04-.02s-.03.01-.04.02ZM23.09,4.68c-1.45,0-2.76.59-3.7,1.53-.95.95-1.53,2.26-1.53,3.7s.59,2.76,1.53,3.7,2.26,1.53,3.7,1.53,2.76-.59,3.7-1.53c.95-.95,1.53-2.26,1.53-3.7s-.59-2.76-1.53-3.7c-.95-.95-2.26-1.53-3.7-1.53ZM26.29,6.72c-.82-.82-1.95-1.33-3.2-1.33s-2.38.51-3.2,1.33c-.82.82-1.33,1.95-1.33,3.2s.51,2.38,1.33,3.2c.82.82,1.95,1.33,3.2,1.33s2.38-.51,3.2-1.33,1.33-1.95,1.33-3.2-.51-2.38-1.33-3.2ZM26.26,27.8s.04-.01.06-.02l-.06.02Z"/>
    </g>
  </g>
</svg>