<svg id="Advanced_Technology" data-name="Advanced Technology" xmlns="http://www.w3.org/2000/svg" xmlns:xlink="http://www.w3.org/1999/xlink" viewBox="0 0 120 120"><defs><style>.cls-1{fill:none;}.cls-2{clip-path:url(#clip-path);}.cls-3{fill:#3b82f6;}</style><clipPath id="clip-path" transform="translate(-38)"><rect class="cls-1" width="196" height="120"/></clipPath></defs><g class="cls-2"><path class="cls-3" d="M57.34,83.23A19.35,19.35,0,0,0,75.78,69.68,17.41,17.41,0,0,1,92.17,87.1v21.29H69V120H127V108.39H103.79V87.1a17.41,17.41,0,0,1,16.39-17.42,19.36,19.36,0,1,0,0-11.61,28.84,28.84,0,0,0-16.39,5.8v-26a19.35,19.35,0,1,0-11.62,0V63.87a28.79,28.79,0,0,0-16.35-5.8A19.36,19.36,0,1,0,57.34,83.23Zm81.28-27.1a7.74,7.74,0,1,1-7.74,7.74A7.75,7.75,0,0,1,138.62,56.13ZM98,11.62a7.74,7.74,0,1,1-7.74,7.74A7.73,7.73,0,0,1,98,11.62ZM57.34,56.13a7.74,7.74,0,1,1-7.74,7.74A7.75,7.75,0,0,1,57.34,56.13Z" transform="translate(-38)"/></g></svg>