<svg id="Layer_3" data-name="Layer 3" xmlns="http://www.w3.org/2000/svg" xmlns:xlink="http://www.w3.org/1999/xlink" viewBox="0 0 135.01 120"><defs><style>.cls-1{fill:none;}.cls-2{clip-path:url(#clip-path);}.cls-3{fill:#3b82f6;}</style><clipPath id="clip-path" transform="translate(-30.49)"><rect class="cls-1" width="196" height="120"/></clipPath></defs><g class="cls-2"><path class="cls-3" d="M152.11,43.87H127a3.23,3.23,0,0,1-3.23-4.19l5.81-24.2A12.65,12.65,0,0,0,117.27,0a6.64,6.64,0,0,0-5.48,3.23L97.59,31A36.81,36.81,0,0,1,80.17,47.1a21.91,21.91,0,0,1,.65,4.51v63.87l15.8,2.26a200.56,200.56,0,0,0,31,2.26h15.16a13.42,13.42,0,0,0,12.91-10.65l9.67-50.64C166.62,51.29,160.49,43.87,152.11,43.87Z" transform="translate(-30.49)"/><path class="cls-3" d="M61.79,46.45H36a5.45,5.45,0,0,0-5.49,5.49v61.61A5.44,5.44,0,0,0,36,119H62.11a5.44,5.44,0,0,0,5.48-5.48V51.94A5.93,5.93,0,0,0,61.79,46.45ZM48.88,108.71a6.78,6.78,0,0,1,0-13.55,7,7,0,0,1,6.78,6.78A6.82,6.82,0,0,1,48.88,108.71Z" transform="translate(-30.49)"/></g></svg>