<svg id="developer_expertise" data-name="developer expertise" xmlns="http://www.w3.org/2000/svg" xmlns:xlink="http://www.w3.org/1999/xlink" viewBox="0 0 119.99 120"><defs><style>.cls-1{fill:none;}.cls-2{clip-path:url(#clip-path);}.cls-3{fill:#3b82f6;}</style><clipPath id="clip-path" transform="translate(-38)"><rect class="cls-1" width="196" height="120"/></clipPath></defs><g class="cls-2"><path class="cls-3" d="M101.4,109.28h48.91a2.09,2.09,0,0,0,2.08-1.91l3.46-36.48a2.11,2.11,0,0,0-.54-1.64,2.07,2.07,0,0,0-1.55-.67H98a2,2,0,0,0-1.54.67,2.14,2.14,0,0,0-.54,1.64l3.45,36.48a2.09,2.09,0,0,0,2.08,1.91Zm33.65-22a2.15,2.15,0,0,1,3-3l4.28,4.28h0a2.14,2.14,0,0,1,0,3l-4.28,4.28a2.15,2.15,0,0,1-3-3L137.82,90Zm-13.37,8.52L126,82.9h0A2.14,2.14,0,1,1,130,84.25l-4.28,12.86h0a2.15,2.15,0,1,1-4.07-1.36Zm-12.34-7.26,4.29-4.29a2.14,2.14,0,0,1,3,3L113.89,90l2.77,2.77a2.14,2.14,0,1,1-3,3l-4.28-4.28h0a2.15,2.15,0,0,1,0-3Z" transform="translate(-38)"/><path class="cls-3" d="M38,117.86A2.15,2.15,0,0,0,40.15,120H90.62a8.53,8.53,0,0,1-1.19-4.29v-2.14a4.29,4.29,0,0,1,4.29-4.29H95.4a6.87,6.87,0,0,1-.35-1.49L91.6,71.3a5.61,5.61,0,0,1,0-.82L84.79,69h0a10.67,10.67,0,0,1-20.73,0l-12.5,2.68A17.24,17.24,0,0,0,38,88.45Z" transform="translate(-38)"/><path class="cls-3" d="M158,115.71v-2.14H93.72v2.15h0A4.28,4.28,0,0,0,98,120h55.71a4.3,4.3,0,0,0,4.29-4.29Z" transform="translate(-38)"/><path class="cls-3" d="M93.72,42.86a2.14,2.14,0,0,1,2.14-2.14,4.29,4.29,0,0,0,0-8.57A2.14,2.14,0,0,1,93.72,30c0-.24-.11-5.81-4.6-7.83a29.28,29.28,0,0,1-14.69,3.54,29,29,0,0,1-9.3-1.27,17.53,17.53,0,0,0-5.7-.87c-4.2,0-4.28,6.17-4.28,6.43A2.15,2.15,0,0,1,53,32.15a4.29,4.29,0,0,0,0,8.57,2.12,2.12,0,0,1,1.52.63,2.15,2.15,0,0,1,.63,1.51,19.29,19.29,0,0,0,38.57,0Z" transform="translate(-38)"/><path class="cls-3" d="M47.36,30A8.65,8.65,0,0,1,51,28.11c.52-3.8,2.68-8.82,8.42-8.82a22,22,0,0,1,6.89,1,24.76,24.76,0,0,0,8.11,1.1A24.29,24.29,0,0,0,87.74,18,22.73,22.73,0,0,0,97.15,3.84a13.41,13.41,0,0,1-7.72,2.59A20.16,20.16,0,0,1,77.65,2.92,16.08,16.08,0,0,0,68,0C59.06,0,57.25,6.89,57.23,7h0a2.15,2.15,0,0,1-2.51,1.57,6.87,6.87,0,0,0-5.09,1.35c-2,1.7-3.06,4.86-3.06,9.41A71.23,71.23,0,0,0,47.36,30Z" transform="translate(-38)"/><path class="cls-3" d="M68,65.53v.9a6.43,6.43,0,1,0,12.86,0v-.9A23.42,23.42,0,0,1,68,65.53Z" transform="translate(-38)"/><path class="cls-3" d="M97.82,28.09a8.61,8.61,0,0,1,3.67,1.9,69.59,69.59,0,0,0,.79-10.7c0-3.15-.55-6.95-2.78-9.09h0a25.84,25.84,0,0,1-6.61,9.26,13.14,13.14,0,0,1,4.93,8.63Z" transform="translate(-38)"/></g></svg>