<svg id="expeience" xmlns="http://www.w3.org/2000/svg" xmlns:xlink="http://www.w3.org/1999/xlink" viewBox="0 0 99.11 120"><defs><style>.cls-1{fill:none;}.cls-2{clip-path:url(#clip-path);}.cls-3{fill:#3b82f6;}</style><clipPath id="clip-path" transform="translate(-48.45)"><rect class="cls-1" width="196" height="120"/></clipPath></defs><g class="cls-2"><path class="cls-3" d="M60.67,15.06a15.06,15.06,0,1,1,15,15.06A15.07,15.07,0,0,1,60.67,15.06Zm74.18,80-.76,2a8.78,8.78,0,0,1-5.3,5.19,8.68,8.68,0,0,1-7.41-.58l-.11-.06,9,15.56,2.56-9.55A1.81,1.81,0,0,1,135,106.3l9.55,2.56-8.85-15.32a5.33,5.33,0,0,0-.87,1.51Zm-29.73,7.16A8.78,8.78,0,0,1,99.82,97l-.76-2a5.55,5.55,0,0,0-.88-1.52l-8.84,15.33,9.54-2.56a1.81,1.81,0,0,1,2.22,1.27l2.56,9.55,9-15.55-.12.06a8.73,8.73,0,0,1-7.4.58Zm41.25-33.6-1.32,1.65a8.84,8.84,0,0,0-1.51,8.52l.68,2a5.38,5.38,0,0,1-4,7l-2.07.41a8.81,8.81,0,0,0-6.64,5.57l-.76,2a5.38,5.38,0,0,1-7.6,2.76l-1.85-1a8.82,8.82,0,0,0-8.64,0l-1.86,1a5.11,5.11,0,0,1-4.41.35,5.22,5.22,0,0,1-3.18-3.1l-.76-2a8.82,8.82,0,0,0-6.63-5.57l-2.07-.41a5.39,5.39,0,0,1-4-7l.33-1,0,0,.33-1a8.81,8.81,0,0,0-1.5-8.52L87.54,68.6a5.37,5.37,0,0,1,1.4-7.95l1.8-1.1a8.84,8.84,0,0,0,4.34-7.49l0-2.12a5.37,5.37,0,0,1,6.18-5.19l2.09.32a8.82,8.82,0,0,0,8.13-3l1.4-1.6a5.35,5.35,0,0,1,8.06,0h0l1.39,1.58a8.79,8.79,0,0,0,8.13,3l2.09-.32a5.37,5.37,0,0,1,6.18,5.19l0,2.12a8.85,8.85,0,0,0,4.33,7.49L145,60.64a5.4,5.4,0,0,1,1.41,8Zm-11.21.32A18.21,18.21,0,1,0,117,87.13,18.23,18.23,0,0,0,135.16,68.93Zm-51,43.9a1.8,1.8,0,0,1-.13-2l11-19.11-2-.41a9,9,0,0,1-7.12-10.26H59.8v39H73.91V95.27a1.81,1.81,0,0,1,3.62,0V120H91.66v-8l-5.61,1.51a1.81,1.81,0,0,1-1.9-.65ZM59.8,77.43H87a5.25,5.25,0,0,0-1-4.92l-1.33-1.64a9,9,0,0,1,2.34-13.3l1.81-1.1A5.25,5.25,0,0,0,91.47,52l0-2.11a9,9,0,0,1,7.2-8.63,17.2,17.2,0,0,0-6-4.32,24.05,24.05,0,0,0-9.57-1.56L77.29,45.55a1.81,1.81,0,0,1-3.13,0l-5.79-10h-2.9a17,17,0,0,0-17,17V92.9a3.87,3.87,0,0,0,7.74,0V65.33a1.81,1.81,0,0,1,3.62,0Zm69.46-13.6-8.1,0-2.49-7.71a1.79,1.79,0,0,0-.65-.91,1.87,1.87,0,0,0-1.07-.35,1.82,1.82,0,0,0-1.72,1.26l-2.49,7.71-8.1,0h0a1.79,1.79,0,0,0-1.72,1.25,1.81,1.81,0,0,0,.66,2l6.56,4.75-2.52,7.7a1.81,1.81,0,0,0,2.79,2L117,76.8l6.54,4.77a1.84,1.84,0,0,0,1.07.34,1.78,1.78,0,0,0,1.06-.34,1.81,1.81,0,0,0,.66-2l-2.53-7.69,6.56-4.75a1.81,1.81,0,0,0-1.06-3.27h0Z" transform="translate(-48.45)"/></g></svg>