<svg id="Secure_Apps" data-name="Secure Apps" xmlns="http://www.w3.org/2000/svg" xmlns:xlink="http://www.w3.org/1999/xlink" viewBox="0 0 121.15 120"><defs><style>.cls-1{fill:none;}.cls-2{clip-path:url(#clip-path);}.cls-3{fill:#3b82f6;}</style><clipPath id="clip-path" transform="translate(-37.42)"><rect class="cls-1" width="196" height="120"/></clipPath></defs><g class="cls-2"><path class="cls-3" d="M69.11,120A31.68,31.68,0,1,0,37.42,88.32,31.71,31.71,0,0,0,69.11,120ZM50.34,88.25a3.72,3.72,0,0,1,5.24-.48l9.8,8.17a1.09,1.09,0,0,0,1.53,0L82.8,78.3a3.73,3.73,0,1,1,5.52,5L72.46,100.9a8.45,8.45,0,0,1-11.86.75l-9.76-8.14a3.71,3.71,0,0,1-.5-5.26Z" transform="translate(-37.42)"/><path class="cls-3" d="M153.18,17.67,113.6.72a8.84,8.84,0,0,0-7,0L67,17.67a8.87,8.87,0,0,0-5.38,8.17v24.1a39.81,39.81,0,0,1,7.46-.74,39.18,39.18,0,0,1,39.14,39.14,38.71,38.71,0,0,1-7.59,23l4.65,3a8.93,8.93,0,0,0,9.61,0l25.73-16.54A38.87,38.87,0,0,0,158.58,65l0-39.18a8.87,8.87,0,0,0-5.38-8.16Z" transform="translate(-37.42)"/></g></svg>