<?xml version="1.0" encoding="UTF-8"?>
<svg xmlns="http://www.w3.org/2000/svg" version="1.1" xmlns:xlink="http://www.w3.org/1999/xlink" viewBox="0 0 150 150">
  <defs>
    <style>
      .cls-1 {
        fill: none;
      }

      .cls-2 {
        clip-path: url(#clippath-1);
      }

      .cls-3, .cls-4 {
        fill: #f15d22;
      }

      .cls-4 {
        fill-rule: evenodd;
      }

      .cls-5 {
        display: none;
      }

      .cls-6 {
        clip-path: url(#clippath-2);
      }

      .cls-7 {
        clip-path: url(#clippath);
      }
    </style>
    <clipPath id="clippath">
      <rect class="cls-1" width="150" height="150"/>
    </clipPath>
    <clipPath id="clippath-1">
      <rect class="cls-1" width="150" height="150"/>
    </clipPath>
    <clipPath id="clippath-2">
      <rect class="cls-1" width="150" height="150"/>
    </clipPath>
  </defs>
  <!-- Generator: Adobe Illustrator 28.6.0, SVG Export Plug-In . SVG Version: 1.2.0 Build 709)  -->
  <g>
    <g id="Layer_1">
      <g class="cls-5">
        <g class="cls-7">
          <path class="cls-3" d="M81,25.2c12.3,1.2,23.5,5.9,32.7,13.1l3.9-3.9-2.9-2.9c-1.2-1.2-1.2-3.3,0-4.5l4.3-4.3c1.2-1.2,3.3-1.2,4.5,0l12.4,12.4c1.2,1.2,1.2,3.3,0,4.5l-4.3,4.3c-1.2,1.2-3.3,1.2-4.5,0l-2.9-2.9-3.6,3.6c10.6,11.2,17.1,26.3,17.1,42.9s-7,32.9-18.3,44.2c-11.3,11.3-27,18.3-44.2,18.3s-32.9-7-44.2-18.3c-11.3-11.3-18.3-27-18.3-44.2s6.5-31.7,17.1-42.9l-3.6-3.6-2.9,2.9c-1.2,1.2-3.3,1.2-4.5,0l-4.3-4.3c-1.2-1.2-1.2-3.3,0-4.5l12.4-12.4c1.2-1.2,3.3-1.2,4.5,0l4.3,4.3c1.2,1.2,1.2,3.3,0,4.5l-2.9,2.9,3.9,3.9c9.2-7.2,20.4-11.9,32.7-13.1v-8.8h-5.5c-2.3,0-4.2-1.9-4.2-4.2v-8c0-2.3,1.9-4.2,4.2-4.2h23c2.3,0,4.2,1.9,4.2,4.2v8c0,2.3-1.9,4.2-4.2,4.2h-5.5v8.8h0ZM111.2,108.4l-36.3-20.9v-41.9c-23.1,0-41.9,18.8-41.9,41.9s18.8,41.9,41.9,41.9,29-8.4,36.3-20.9h0ZM111.5,51c-9.3-9.3-22.2-15.1-36.5-15.1s-27.2,5.8-36.5,15.1c-9.3,9.3-15.1,22.2-15.1,36.5s5.8,27.2,15.1,36.5c9.3,9.3,22.2,15.1,36.5,15.1s27.1-5.8,36.5-15.1c9.3-9.3,15.1-22.2,15.1-36.5s-5.8-27.1-15.1-36.5Z"/>
        </g>
      </g>
      <g class="cls-5">
        <g class="cls-2">
          <path class="cls-4" d="M75,94.2c-2.3,0-4.6-.2-6.9-.5l-1.7-9.2c-4.9-1-9.5-2.9-13.6-5.6l-7.3,5c-3.1-2.5-5.9-5.4-8.3-8.5l4.9-7.1c-2.7-4.1-4.6-8.7-5.6-13.6l-8.3-1.5c-.2-2-.4-4-.4-6s.1-4,.4-6l8.3-1.5c1-4.9,2.9-9.5,5.6-13.6l-4.9-7.1c2.4-3.2,5.2-6.1,8.3-8.5l7.3,5c4.1-2.7,8.7-4.6,13.6-5.6l1.7-9.2c2.2-.3,4.5-.5,6.9-.5s4.6.2,6.9.5l1.7,9.2c4.9,1,9.5,2.9,13.6,5.6l7.3-5c3.1,2.5,5.9,5.4,8.3,8.5l-4.9,7.1c2.7,4.1,4.6,8.7,5.6,13.6l8.3,1.5c.2,2,.4,4,.4,6s-.1,4-.4,6l-8.3,1.5c-1,4.9-2.9,9.5-5.6,13.6l4.9,7.1c-2.4,3.2-5.2,6.1-8.3,8.5l-7.3-5c-4.1,2.7-8.7,4.6-13.6,5.6l-1.7,9.2c-2.2.3-4.5.5-6.9.5ZM117.5,116.3v-26.5h-13.9v26.5h-8.1l15.1,18.5,15.1-18.5h-8.1ZM32.4,116.3h-8.1l15.1,18.5,15.1-18.5h-8.1v-26.5h-13.9v26.5ZM68,131.5v-26.5h13.9v26.5h8.1l-7.5,9.3-7.5,9.3-15.1-18.5h8.1ZM94,47.1c0-10.5-8.5-19-19-19s-19,8.5-19,19,8.5,19,19,19,19-8.5,19-19ZM81.1,38.9c-.8-.7-1.8-1.3-2.8-1.8-.5-.2-1.1-.4-1.6-.5v-3c0-.9-.7-1.6-1.6-1.6s-1.6.7-1.6,1.6v2.9c-1.3.2-2.5.8-3.4,1.8-.5.6-1,1.3-1.3,2.1-.6,1.4-.5,2.9.1,4.2.6,1.2,1.6,2.2,3.1,3,1.1.6,2.4.9,3.6,1.2.8.2,1.6.4,2.3.7h0c1,.4,1.4,1.1,1.5,1.7,0,.4-.2.9-.5,1.4-.3.5-.9,1-1.5,1.3-.6.3-1.4.5-2.3.5h0c-1.4,0-3.1-.6-4.9-1.9-.7-.5-1.8-.4-2.3.3-.5.7-.4,1.8.3,2.3,1.8,1.4,3.6,2.1,5.3,2.4v2.9c0,.9.7,1.6,1.6,1.6s1.6-.7,1.6-1.6v-2.9c.8-.1,1.5-.4,2.1-.7,1.2-.6,2.1-1.4,2.8-2.4.7-1,1.1-2.2,1-3.3,0-1.9-1.1-3.6-3.5-4.6,0,0,0,0,0,0-.8-.3-1.8-.6-2.7-.8-1.1-.3-2.1-.6-2.9-1-.8-.4-1.4-.9-1.6-1.5-.2-.5-.2-1.1,0-1.6.2-.4.4-.7.6-1,.5-.5,1.3-.8,2.1-.9.2,0,.4,0,.5,0,0,0,0,0,.1,0h0c.7,0,1.4.2,2,.4.7.3,1.3.6,1.7,1.1.6.6,1.7.6,2.3,0s.6-1.7,0-2.3h0ZM75,21.5c-14.1,0-25.6,11.4-25.6,25.6s11.4,25.6,25.6,25.6,25.6-11.4,25.6-25.6-11.4-25.6-25.6-25.6Z"/>
        </g>
      </g>
      <g class="cls-6">
        <g>
          <path class="cls-4" d="M130.7,78.2l-5.5,3.2c-.2.1-.5.3-.7.5-.2.2-.4.4-.6.6h0c-.5.8-.9,1.6-.9,2.5,0,.9.1,1.8.6,2.6l12.6,21.7c.6,1.1,1.6,1.8,2.7,2.1s2.3.2,3.4-.4l5.5-3.2c1.1-.6,1.8-1.6,2.1-2.7s.2-2.3-.4-3.4l-12.6-21.7c-.5-.8-1.2-1.4-2-1.8-.8-.4-1.8-.5-2.7-.4h0c-.2,0-.5.1-.7.2-.2,0-.5.2-.7.3h0Z"/>
          <path class="cls-4" d="M116.5,48.1c1.3,1.5,2.2,3.6,2.2,5.9v.9c-.3.2-.6.4-.9.6-4.9,3.5-11.1,5.1-17.4,4-4.2-.7-8-2.5-11.1-5.1v-.4c0-2.3.8-4.4,2.2-5.9,1.3-1.4,3-2.3,5-2.3h15.1c1.9,0,3.7.9,5,2.3Z"/>
          <path class="cls-4" d="M107.7,28.5c1,1,1.6,2.3,1.6,3.8s-.6,2.8-1.6,3.8c-1,1-2.3,1.6-3.8,1.6s-2.8-.6-3.8-1.6-1.6-2.3-1.6-3.8.6-2.8,1.6-3.8c1-1,2.3-1.6,3.8-1.6s2.8.6,3.8,1.6Z"/>
          <path class="cls-4" d="M123.3,23c-3.5-4.9-8.8-8.4-15.1-9.5h-.1c-6.3-1.1-12.5.5-17.3,4-4.9,3.5-8.5,8.8-9.5,15.2h0c0,0,0,0,0,0-1,6.3.5,12.5,4,17.3.3.4.5.7.8,1.1.5-2,1.5-3.9,2.8-5.3,2-2.2,4.7-3.5,7.7-3.5h15.1c3,0,5.7,1.4,7.7,3.5,1.4,1.6,2.5,3.7,2.9,5.9,2.7-3.1,4.5-6.9,5.2-11.2,1.1-6.4-.5-12.6-4-17.5ZM110.3,38.6c-1.6,1.6-3.9,2.6-6.3,2.6s-4.7-1-6.3-2.6-2.6-3.9-2.6-6.3,1-4.7,2.6-6.3c1.6-1.6,3.8-2.6,6.3-2.6s4.7,1,6.3,2.6c1.6,1.6,2.6,3.8,2.6,6.3s-1,4.7-2.6,6.3Z"/>
          <path class="cls-4" d="M133.8,19.4c-4.7-8.2-12.3-13.6-20.8-15.9-8.4-2.3-17.8-1.3-25.9,3.4-8.2,4.7-13.6,12.3-15.9,20.8-2.3,8.5-1.3,17.8,3.4,25.9,4.7,8.2,12.3,13.7,20.8,15.9,8.5,2.3,17.8,1.3,25.9-3.4,8.2-4.7,13.7-12.3,15.9-20.8,2.3-8.5,1.3-17.8-3.4-25.9ZM130.9,41c-1.1,6.5-4.5,12.1-9.1,16.1,0,0-.1.1-.2.2-.5.4-1.1.9-1.6,1.3-5.6,4-12.8,5.8-20.1,4.6-5.2-.9-9.8-3.2-13.4-6.4,0,0-.1-.1-.2-.2-1.5-1.3-2.8-2.8-3.9-4.4-4-5.6-5.8-12.7-4.6-20,0,0,0-.1,0-.2,1.3-7.3,5.4-13.5,11-17.4,5.6-4,12.7-5.8,20-4.6,0,0,.1,0,.2,0,7.3,1.3,13.5,5.4,17.4,11,4,5.6,5.8,12.8,4.6,20.1Z"/>
          <path class="cls-4" d="M118.6,71.4c1.5-.6,3-1.4,4.5-2.2.7-.4,1.4-.8,2.1-1.3l4,7c-.1,0-.2.1-.3.2l-5.5,3.2c-.1,0-.3.2-.4.2l-4.4-7h0Z"/>
          <path class="cls-4" d="M116.5,48.1c1.3,1.5,2.2,3.6,2.2,5.9v.9c-.3.2-.6.4-.9.6-4.9,3.5-11.1,5.1-17.4,4-4.2-.7-8-2.5-11.1-5.1v-.4c0-2.3.8-4.4,2.2-5.9,1.3-1.4,3-2.3,5-2.3h15.1c1.9,0,3.7.9,5,2.3Z"/>
          <path class="cls-4" d="M107.7,28.5c1,1,1.6,2.3,1.6,3.8s-.6,2.8-1.6,3.8c-1,1-2.3,1.6-3.8,1.6s-2.8-.6-3.8-1.6-1.6-2.3-1.6-3.8.6-2.8,1.6-3.8c1-1,2.3-1.6,3.8-1.6s2.8.6,3.8,1.6Z"/>
          <path class="cls-4" d="M123.3,23c-3.5-4.9-8.8-8.4-15.1-9.5h-.1c-6.3-1.1-12.5.5-17.3,4-4.9,3.5-8.5,8.8-9.5,15.2h0c0,0,0,0,0,0-1,6.3.5,12.5,4,17.3.3.4.5.7.8,1.1.5-2,1.5-3.9,2.8-5.3,2-2.2,4.7-3.5,7.7-3.5h15.1c3,0,5.7,1.4,7.7,3.5,1.4,1.6,2.5,3.7,2.9,5.9,2.7-3.1,4.5-6.9,5.2-11.2,1.1-6.4-.5-12.6-4-17.5ZM110.3,38.6c-1.6,1.6-3.9,2.6-6.3,2.6s-4.7-1-6.3-2.6-2.6-3.9-2.6-6.3,1-4.7,2.6-6.3c1.6-1.6,3.8-2.6,6.3-2.6s4.7,1,6.3,2.6c1.6,1.6,2.6,3.8,2.6,6.3s-1,4.7-2.6,6.3Z"/>
          <path class="cls-4" d="M118.7,54v.9c-.3.2-.6.4-.9.6-4.9,3.5-11.1,5.1-17.4,4-4.2-.7-8-2.5-11.1-5.1v-.4c0-2.3.8-4.4,2.2-5.9,1.3-1.4,3-2.3,5-2.3h15.1c1.9,0,3.7.9,5,2.3,1.3,1.5,2.2,3.6,2.2,5.9Z"/>
          <path class="cls-4" d="M109.3,32.3c0,1.5-.6,2.8-1.6,3.8-1,1-2.3,1.6-3.8,1.6s-2.8-.6-3.8-1.6-1.6-2.3-1.6-3.8.6-2.8,1.6-3.8c1-1,2.3-1.6,3.8-1.6s2.8.6,3.8,1.6,1.6,2.3,1.6,3.8Z"/>
          <path class="cls-4" d="M109.3,32.3c0,1.5-.6,2.8-1.6,3.8-1,1-2.3,1.6-3.8,1.6s-2.8-.6-3.8-1.6-1.6-2.3-1.6-3.8.6-2.8,1.6-3.8c1-1,2.3-1.6,3.8-1.6s2.8.6,3.8,1.6,1.6,2.3,1.6,3.8Z"/>
          <path class="cls-4" d="M113.7,108.2c-.8,0-1.5-.5-1.7-1.3-.2-.5-.4-1.1-.6-1.7-.2-.5-.4-1-.7-1.5-.5-.7-.4-1.6.2-2.3l2.1-2.1-5.7-5.7-2.1,2.1c-.5.5-1.4.7-2.1.3-.5-.3-1-.5-1.6-.8-.5-.2-1-.4-1.5-.5-.8-.2-1.4-.9-1.4-1.8v-2.9h-8v2.9c0,.8-.5,1.5-1.3,1.7-.5.2-1.1.4-1.7.6-.5.2-1,.5-1.5.7-.7.5-1.6.4-2.3-.2l-2.1-2.1-5.7,5.7,2.1,2.1c.5.5.7,1.4.3,2.1-.3.5-.5,1-.8,1.6-.2.5-.4,1-.5,1.5-.2.8-.9,1.4-1.8,1.4h-2.9v8.1h2.9c.8,0,1.5.5,1.7,1.3.2.6.4,1.1.6,1.7.2.5.4,1,.7,1.5.5.7.4,1.7-.2,2.3l-2.1,2.1,5.7,5.7,2.1-2.1c.5-.5,1.4-.7,2.1-.3.5.3,1,.5,1.6.8.5.2,1,.4,1.5.5.8.2,1.4.9,1.4,1.8v2.9h8v-2.9c0-.8.5-1.5,1.3-1.7.5-.2,1.1-.4,1.7-.6.5-.2,1-.5,1.5-.7.7-.5,1.7-.4,2.3.2l2.1,2.1,5.7-5.7-2.1-2.1c-.5-.5-.7-1.4-.3-2.1.3-.5.5-1,.8-1.6.2-.5.4-1,.6-1.5.2-.8.9-1.4,1.8-1.4h2.9v-8h-2.9ZM102.5,120.2c-2,2-4.9,3.3-8,3.3s-5.9-1.3-8-3.3c-2-2-3.3-4.9-3.3-8s1.3-5.9,3.3-8c2-2,4.9-3.3,8-3.3s5.9,1.3,8,3.3c2,2,3.3,4.9,3.3,8s-1.3,5.9-3.3,8Z"/>
          <path class="cls-4" d="M53.2,99.3h-14.6v2.9c0,.8.3,1.5.9,2.1.5.5,1.1.8,1.8.8,0,0,.2,0,.3,0h8.7c.8,0,1.5-.3,2.1-.9s.9-1.3.9-2.1v-2.9h0Z"/>
          <path class="cls-4" d="M48.9,108.7h-6v9.2c0,.8.3,1.6.9,2.1.5.5,1.3.9,2.1.9s1.6-.3,2.1-.9c.5-.5.9-1.3.9-2.1v-9.2h0Z"/>
          <path class="cls-4" d="M91.7,86.5h-1.5c-.9,0-1.6.3-2.2.9,0,0,0,0-.1.1-.6.6-1,1.4-1,2.4v1.9c-.2,0-.5.2-.7.3s-.5.2-.7.3l-1.3-1.3c-.7-.7-1.5-1-2.4-1s-1.7.3-2.4,1l-6.1,6.1c-.7.7-1,1.5-1,2.4s.3,1.7,1,2.4l1.3,1.3c-.1.2-.2.5-.3.7,0,.2-.2.5-.3.7h-1.9c-.9,0-1.8.4-2.4,1h0c-.6.6-1,1.5-1,2.4v1.4h-16.3v-1c.9-.3,1.7-.9,2.4-1.5,1.2-1.2,1.9-2.8,1.9-4.6v-4.7c0-1-.8-1.8-1.8-1.8h-18.2c-1,0-1.8.8-1.8,1.8v4.7c0,1.8.7,3.4,1.9,4.6.7.7,1.5,1.2,2.4,1.5v1H7.1c-2,0-3.8-.8-5.1-2-1.3-1.2-2-2.8-2-4.6v-22.1c0-.3.1-.5.3-.7.2-.2.5-.3.9-.3h89.4c.4,0,.7.1.9.3.2.2.3.4.3.7v5.8h0Z"/>
          <path class="cls-4" d="M22.1,76.1v-4.6c0-2.5,1-4.8,2.5-6.4,1.6-1.6,3.7-2.6,6.1-2.6h30.3c2.4,0,4.5,1,6.1,2.6,1.6,1.6,2.5,3.9,2.5,6.4v4.6h-3.7v-4.2c0-1.5-.6-2.9-1.6-3.9s-2.4-1.6-3.9-1.6h-29.1c-1.5,0-2.9.6-3.9,1.6s-1.6,2.4-1.6,3.9v4.2h-3.8Z"/>
          <path class="cls-4" d="M39.3,113v5c0,1.8.7,3.5,1.9,4.7,1.2,1.2,2.9,1.9,4.7,1.9s3.5-.7,4.7-1.9,1.9-2.9,1.9-4.7v-5h16.3v3.5c0,.9.3,1.6.9,2.2,0,0,0,0,.1.1.6.6,1.4,1,2.4,1h1.9c0,.2.2.5.3.7s.2.5.3.7l-1.3,1.4c-.7.7-1,1.5-1,2.4s.3,1.7,1,2.4l6.1,6.1c.7.7,1.5,1,2.4,1s1.7-.3,2.4-1l1.3-1.3c.2.1.5.2.7.3s.5.2.7.3v1.9c0,.7.2,1.3.6,1.8v8.7c0,.7-.3,1.3-.8,1.7-.5.5-1.2.8-2,.8H7.1c-.8,0-1.5-.3-2-.8-.5-.4-.8-1.1-.8-1.7v-32.5c.9.2,1.8.4,2.8.4h32.1,0Z"/>
          <path class="cls-4" d="M107.7,28.5c1,1,1.6,2.3,1.6,3.8s-.6,2.8-1.6,3.8c-1,1-2.3,1.6-3.8,1.6s-2.8-.6-3.8-1.6-1.6-2.3-1.6-3.8.6-2.8,1.6-3.8c1-1,2.3-1.6,3.8-1.6s2.8.6,3.8,1.6Z"/>
          <path class="cls-4" d="M123.3,23c-3.5-4.9-8.8-8.4-15.1-9.5h-.1c-6.3-1.1-12.5.5-17.3,4-4.9,3.5-8.5,8.8-9.5,15.2h0c0,0,0,0,0,0-1,6.3.5,12.5,4,17.3.3.4.5.7.8,1.1.5-2,1.5-3.9,2.8-5.3,2-2.2,4.7-3.5,7.7-3.5h15.1c3,0,5.7,1.4,7.7,3.5,1.4,1.6,2.5,3.7,2.9,5.9,2.7-3.1,4.5-6.9,5.2-11.2,1.1-6.4-.5-12.6-4-17.5ZM110.3,38.6c-1.6,1.6-3.9,2.6-6.3,2.6s-4.7-1-6.3-2.6-2.6-3.9-2.6-6.3,1-4.7,2.6-6.3c1.6-1.6,3.8-2.6,6.3-2.6s4.7,1,6.3,2.6c1.6,1.6,2.6,3.8,2.6,6.3s-1,4.7-2.6,6.3Z"/>
        </g>
      </g>
    </g>
  </g>
</svg>