<?xml version="1.0" encoding="UTF-8"?>
<svg id="Layer_2" xmlns="http://www.w3.org/2000/svg" xmlns:xlink="http://www.w3.org/1999/xlink" viewBox="0 0 50 31">
  <defs>
    <style>
      .cls-1 {
        fill: #fff;
      }

      .cls-2 {
        fill: none;
      }

      .cls-3 {
        clip-path: url(#clippath);
      }
    </style>
    <clipPath id="clippath">
      <rect class="cls-2" width="50" height="31"/>
    </clipPath>
  </defs>
  <g id="Layer_1-2" data-name="Layer_1">
    <g class="cls-3">
      <g>
        <path class="cls-1" d="M25.52,14.47c0-.57-.46-1.03-1.03-1.03h-2.07c-.57,0-1.03.46-1.03,1.03v2.07c0,.57.46,1.03,1.03,1.03h2.07c.57,0,1.03-.46,1.03-1.03v-2.07ZM24.48,16.53h-2.07v-2.07h2.07v2.07Z"/>
        <path class="cls-1" d="M24.48,19.63h-2.07c-.57,0-1.03.46-1.03,1.03v2.07c0,.57.46,1.03,1.03,1.03h2.07c.57,0,1.03-.46,1.03-1.03v-2.07c0-.57-.46-1.03-1.03-1.03ZM24.48,22.73h-2.07v-2.07h2.07v2.07Z"/>
        <path class="cls-1" d="M17.77,14.47c0-.57-.46-1.03-1.03-1.03h-2.07c-.57,0-1.03.46-1.03,1.03v2.07c0,.57.46,1.03,1.03,1.03h2.07c.57,0,1.03-.46,1.03-1.03v-2.07ZM16.73,16.53h-2.07v-2.07h2.07v2.07Z"/>
        <path class="cls-1" d="M16.73,19.63h-2.07c-.57,0-1.03.46-1.03,1.03v2.07c0,.57.46,1.03,1.03,1.03h2.07c.57,0,1.03-.46,1.03-1.03v-2.07c0-.57-.46-1.03-1.03-1.03ZM16.73,22.73h-2.07v-2.07h2.07v2.07Z"/>
        <path class="cls-1" d="M30.17,13.43c-.57,0-1.03.46-1.03,1.03v2.07c0,.57.46,1.03,1.03,1.03h2.07c.57,0,1.03-.46,1.03-1.03v-2.07c0-.57-.46-1.03-1.03-1.03h-2.07ZM32.23,16.53h-2.07v-2.07h2.07v2.07Z"/>
        <path class="cls-1" d="M26.94,27.38h-14.86c-.86,0-1.55-.69-1.55-1.55v-15.5h25.83v6.82c0,.29.23.52.52.52s.52-.23.52-.52V5.17c0-1.43-1.16-2.58-2.58-2.58h-2.07v-1.03c0-.86-.69-1.55-1.55-1.55h-1.03c-.86,0-1.55.69-1.55,1.55v1.03h-9.3v-1.03c0-.86-.69-1.55-1.55-1.55h-1.03c-.86,0-1.55.69-1.55,1.55v1.03h-3.1c-1.43,0-2.58,1.16-2.58,2.58v20.67c0,1.43,1.16,2.58,2.58,2.58h14.86c.29,0,.52-.23.52-.52s-.23-.52-.52-.52ZM29.65,1.55c0-.29.23-.52.52-.52h1.03c.29,0,.52.23.52.52v3.1c0,.29-.23.52-.52.52h-1.03c-.29,0-.52-.23-.52-.52V1.55ZM16.22,1.55c0-.29.23-.52.52-.52h1.03c.29,0,.52.23.52.52v3.1c0,.29-.23.52-.52.52h-1.03c-.29,0-.52-.23-.52-.52V1.55ZM12.08,3.62h3.1v1.03c0,.86.69,1.55,1.55,1.55h1.03c.86,0,1.55-.69,1.55-1.55v-1.03h9.3v1.03c0,.86.69,1.55,1.55,1.55h1.03c.86,0,1.55-.69,1.55-1.55v-1.03h2.07c.86,0,1.55.69,1.55,1.55v4.13H10.53v-4.13c0-.86.69-1.55,1.55-1.55Z"/>
        <path class="cls-1" d="M36.26,22.88l-2.73,2.73-1.18-1.18c-.2-.19-.52-.19-.72,0-.21.2-.21.53-.01.73l1.55,1.55c.1.1.23.15.37.15.14,0,.27-.05.37-.15l3.1-3.1c.19-.2.19-.52,0-.72-.2-.21-.53-.21-.73-.01Z"/>
        <path class="cls-1" d="M34.3,18.6c-3.42,0-6.2,2.78-6.2,6.2s2.78,6.2,6.2,6.2c3.42,0,6.2-2.78,6.2-6.2,0-3.42-2.78-6.2-6.2-6.2ZM34.3,29.97c-2.85,0-5.17-2.31-5.17-5.17s2.31-5.17,5.17-5.17c2.85,0,5.16,2.31,5.17,5.17,0,2.85-2.31,5.17-5.17,5.17Z"/>
      </g>
    </g>
  </g>
</svg>