<?xml version="1.0" encoding="UTF-8"?>
<svg id="Layer_2" xmlns="http://www.w3.org/2000/svg" xmlns:xlink="http://www.w3.org/1999/xlink" viewBox="0 0 50 31">
  <defs>
    <style>
      .cls-1 {
        fill: #fff;
      }

      .cls-2 {
        fill: none;
      }

      .cls-3 {
        clip-path: url(#clippath);
      }
    </style>
    <clipPath id="clippath">
      <rect class="cls-2" width="50" height="31"/>
    </clipPath>
  </defs>
  <g id="Layer_1-2" data-name="Layer_1">
    <g class="cls-3">
      <g>
        <path class="cls-1" d="M40.61,26.08h-.22V8.11c0-1.54-1.25-2.79-2.79-2.79h-3.65c-1.72-3.17-5.09-5.32-8.94-5.32s-7.22,2.15-8.94,5.32h-3.66c-1.54,0-2.79,1.25-2.79,2.79v17.97c-1.11-.08-1.43.75-1.34,1.72,0,1.77,1.44,3.21,3.2,3.21h27.03c1.77,0,3.21-1.44,3.21-3.21.08-.83-.13-1.69-1.12-1.72h0ZM37.6,6.16c1.08,0,1.95.87,1.95,1.95v17.97h-1.94V8.55c0-.23-.19-.42-.42-.42h-2.22c-.14-.68-.34-1.34-.62-1.97h3.25ZM13.23,26.08V8.97h1.67c-.05.39-.07.79-.07,1.19,0,5.6,4.56,10.16,10.17,10.16s10.17-4.56,10.17-10.16c0-.4-.02-.8-.07-1.19h1.67v17.11s-23.55,0-23.55,0ZM25,.83c5.16-.02,9.36,4.26,9.34,9.32,0,5.14-4.19,9.32-9.34,9.32s-9.34-4.18-9.34-9.32c-.03-5.06,4.18-9.34,9.34-9.32ZM10.45,8.11c0-1.08.87-1.95,1.95-1.95h3.25c-.27.64-.48,1.3-.62,1.97h-2.22c-.23,0-.42.19-.42.42v17.53h-1.94V8.11ZM40.89,27.79c0,1.31-1.06,2.37-2.37,2.37H11.48c-1.31,0-2.37-1.06-2.37-2.37.03-.25-.14-.88.28-.88h31.21c.41-.01.25.64.28.88h0Z"/>
        <path class="cls-1" d="M25.73,28.02h-1.47c-.23,0-.42.19-.42.42s.19.42.42.42h1.47c.23,0,.42-.19.42-.42s-.19-.42-.42-.42Z"/>
        <path class="cls-1" d="M17.94,6.65l.42,1.87c.05.26.36.41.59.28l1.69-.84c.21-.1.29-.35.19-.56-.1-.21-.35-.29-.56-.19l-.77.38c1.01-2.26,3.28-3.77,5.82-3.77,3.51,0,6.37,2.85,6.37,6.36s-2.86,6.36-6.37,6.36c-2.49,0-4.76-1.46-5.8-3.72-.1-.21-.34-.3-.55-.21-.21.1-.3.34-.21.55,1.17,2.55,3.74,4.2,6.56,4.2,3.97,0,7.2-3.23,7.2-7.19,0-3.97-3.23-7.2-7.2-7.2-2.76,0-5.25,1.59-6.45,3.99l-.11-.51c-.05-.22-.27-.37-.5-.32-.22.05-.37.27-.32.5h0Z"/>
        <path class="cls-1" d="M25.11,6.47c-.23,0-.42.19-.42.42v3.29c0,.11.04.22.12.3l2.7,2.7c.16.16.43.16.59,0,.16-.16.16-.43,0-.59l-2.58-2.57v-3.12c0-.23-.19-.42-.42-.42h0Z"/>
      </g>
    </g>
  </g>
</svg>