<?xml version="1.0" encoding="UTF-8"?>
<svg id="Layer_2" xmlns="http://www.w3.org/2000/svg" xmlns:xlink="http://www.w3.org/1999/xlink" viewBox="0 0 50 31">
  <defs>
    <style>
      .cls-1 {
        fill: #fff;
      }

      .cls-2 {
        fill: none;
      }

      .cls-3 {
        clip-path: url(#clippath);
      }
    </style>
    <clipPath id="clippath">
      <rect class="cls-2" width="50" height="31"/>
    </clipPath>
  </defs>
  <g id="Layer_1-2" data-name="Layer_1">
    <g class="cls-3">
      <path class="cls-1" d="M37.89,6.29l-.18,3.11c-.02.31-.36.51-.66.3l-1-.66-3.92,4.69c-.19.24-.57.2-.7-.09l-1.02-2.29-4.46,4.45c-.16.16-.42.16-.58,0-.16-.16-.16-.42,0-.58l4.88-4.88c.2-.2.55-.15.67.14l.99,2.22,3.45-4.12-.88-.58c-.26-.17-.24-.57.04-.71l2.78-1.39c.28-.14.61.08.59.39h0ZM36.98,7.8l.05-.85-1.52.76,1.42.93.05-.84ZM25,30.18c1.7,0,2.56-2.07,1.35-3.27-1.2-1.2-3.27-.35-3.27,1.35,0,1.06.86,1.91,1.91,1.91ZM26.93,30.2c-1.07,1.07-2.8,1.07-3.87,0-1.07-1.07-1.07-2.8,0-3.87.45-.45,1.06-.74,1.73-.79-.12-.07-.2-.2-.2-.36v-3.45c0-.16.09-.29.22-.36h-13.8c-.23,0-.41-.18-.41-.41V3.55c-1.36-.31-1.89-2.01-.88-3.02.33-.32.77-.53,1.27-.53h28.02c1.58,0,2.4,1.93,1.27,3.07-.24.24-.54.41-.87.48v17.41c0,.23-.18.41-.41.41h-13.81c.13.07.22.21.22.37v3.45c0,.15-.08.28-.2.36,1.42.11,2.53,1.29,2.53,2.73,0,.76-.31,1.44-.8,1.93h0ZM24.58,17.14c-.23,0-.41-.18-.41-.41s.18-.41.41-.41h12.85c.23,0,.41.18.41.41s-.18.41-.41.41h-12.85ZM19.89,5.82v5.57h5.76c.09-3.17-2.6-5.76-5.76-5.57ZM19.08,11.8v-6.35h0c0-.2.15-.38.36-.41,3.43-.44,6.57,2.02,7,5.42.06.44.07.89.02,1.35,0,.22-.18.41-.41.41h-6.56c-.23,0-.41-.18-.41-.41h0ZM17.57,7.34c-2.47.54-4.28,2.73-4.28,5.31,0,3,2.43,5.43,5.43,5.43,2.65,0,4.89-1.9,5.35-4.46h-6.09c-.22,0-.41-.18-.41-.41v-5.87ZM14.03,8.52c.98-1.11,2.35-1.87,3.9-2.07.25-.04.47.16.47.4v5.95h6.14c.24,0,.44.2.42.45-.3,3.19-2.99,5.66-6.22,5.66-3.45,0-6.25-2.8-6.25-6.25,0-1.58.59-3.03,1.56-4.13h0ZM39.01.82H10.99c-.85,0-1.31,1.04-.69,1.66.19.19.43.29.71.29h28.01c.85,0,1.31-1.04.69-1.66-.18-.18-.42-.29-.69-.29h0ZM11.41,20.55h27.17V3.59s-27.17,0-27.17,0v16.96Z"/>
    </g>
  </g>
</svg>