<?xml version="1.0" encoding="UTF-8"?>
<svg id="Layer_2" xmlns="http://www.w3.org/2000/svg" xmlns:xlink="http://www.w3.org/1999/xlink" viewBox="0 0 50 31">
  <defs>
    <style>
      .cls-1 {
        fill: #fff;
      }

      .cls-2 {
        fill: none;
      }

      .cls-3 {
        clip-path: url(#clippath);
      }
    </style>
    <clipPath id="clippath">
      <rect class="cls-2" width="50" height="31"/>
    </clipPath>
  </defs>
  <g id="Layer_1-2" data-name="Layer_1">
    <g class="cls-3">
      <g>
        <path class="cls-1" d="M47.33,10.9c-.11-.11-.25-.17-.41-.17h-4.84c-.15,0-.3.06-.41.17-.08.08-.13.2-.15.31-3.65-.58-7.38-.58-11.03,0-1.08.03-1.94.92-1.93,2,0,.3.08.59.21.84-.39.07-.75.26-1.02.56-.35.38-.55.87-.54,1.39,0,.45.15.86.4,1.2-.09.07-.18.14-.26.23-.35.38-.55.87-.54,1.39,0,.76.42,1.41,1.02,1.74-.23.32-.37.72-.37,1.14,0,1.09.89,1.98,1.98,1.98h4.69c.18.49.28,1,.31,1.53.04.68-.04,1.36-.25,2.01-.41,1.29.13,2.7,1.3,3.39.46.26.97.4,1.5.4h0c.47,0,.93-.2,1.25-.55.32-.36.47-.83.42-1.3-.14-1.17.11-2.36.71-3.38.53-.87,1.29-1.56,2.19-2.02.03.07.07.13.12.18.11.11.25.17.41.17h4.84c.15,0,.3-.06.41-.17s.17-.25.17-.41v-12.22c0-.15-.06-.3-.17-.41ZM41.5,22.54c-.07,0-.14.02-.21.05-2.59,1.15-4.12,3.86-3.78,6.67.02.15-.03.3-.14.41-.1.11-.25.18-.39.18-.33,0-.65-.08-.94-.25-.7-.42-1.02-1.27-.77-2.05.24-.78.34-1.6.3-2.42-.03-.5-.12-.98-.25-1.46h.28c.32,0,.57-.26.57-.57s-.26-.57-.57-.57h-6.17c-.46,0-.83-.37-.83-.83s.37-.83.83-.83h1.16c.32,0,.57-.26.57-.57,0-.01,0-.02,0-.04,0-.01,0-.02,0-.04,0-.32-.26-.57-.57-.57h-1.89c-.41,0-.75-.37-.75-.83,0-.22.08-.44.23-.6.13-.15.32-.23.52-.23h1.89c.32,0,.57-.26.57-.57,0,0,0,0,0,0,0,0,0,0,0,0,0-.32-.26-.57-.57-.57h-1.49c-.41,0-.75-.37-.75-.83,0-.22.08-.44.23-.6.13-.15.32-.23.52-.23h1.44s0,0,0,0h.04c.32,0,.57-.25.57-.57,0,0,0,0,0,0h0c0-.32-.26-.57-.57-.57h-.05c-.22,0-.43-.09-.59-.24-.16-.16-.25-.37-.25-.59s.09-.43.25-.59c.16-.16.37-.25.59-.25.03,0,.06,0,.09,0,3.57-.58,7.22-.58,10.8,0,.02,0,.04,0,.06,0v10.18ZM46.35,22.95h-3.69v-11.08h3.69v11.08Z"/>
        <path class="cls-1" d="M22.65,13.57c.35-.38.55-.87.54-1.39,0-.76-.42-1.41-1.02-1.74.23-.32.37-.72.37-1.14,0-1.09-.89-1.98-1.98-1.98h-4.69c-.18-.49-.28-1-.31-1.53-.04-.68.04-1.36.25-2.01.41-1.29-.13-2.7-1.3-3.39-.46-.26-.97-.4-1.5-.4-.47,0-.93.2-1.25.55-.32.36-.47.83-.42,1.3.14,1.17-.11,2.36-.71,3.38-.53.87-1.29,1.56-2.19,2.02-.03-.07-.07-.13-.12-.18-.11-.11-.25-.17-.41-.17H3.08c-.15,0-.3.06-.41.17-.11.11-.17.25-.17.41v12.22c0,.15.06.3.17.41.11.11.25.17.41.17h4.84c.15,0,.3-.06.41-.17.08-.08.13-.2.15-.31,1.82.29,3.65.43,5.49.44h0c.09,0,.18,0,.28,0,1.76-.01,3.52-.16,5.26-.44,1.08-.03,1.94-.92,1.93-2,0-.3-.08-.59-.21-.84.39-.07.75-.26,1.02-.56.35-.38.55-.87.54-1.39,0-.45-.15-.86-.4-1.2.09-.07.18-.14.26-.23ZM7.34,19.12h-3.69v-11.08h3.69v11.08ZM21.41,15.6c-.13.15-.32.23-.52.23h-1.49c-.16,0-.3.06-.41.17-.1.1-.17.25-.17.41,0,.32.26.57.57.57h.04c.22,0,.43.09.59.24.16.16.25.37.25.59s-.09.43-.25.59c-.16.16-.37.25-.59.25-.03,0-.06,0-.09,0-1.7.28-3.41.42-5.13.43-1.9.01-3.79-.13-5.67-.43-.02,0-.04,0-.06,0v-10.18c.07,0,.14-.02.21-.05,1.21-.55,2.22-1.45,2.91-2.58.72-1.23,1.02-2.67.86-4.09-.02-.15.03-.3.14-.41.1-.11.25-.18.39-.18.33,0,.65.08.94.25.7.42,1.02,1.27.77,2.05-.24.78-.34,1.6-.3,2.42.03.5.12.98.25,1.46h-.28c-.32,0-.57.26-.57.57s.26.57.57.57h6.17c.46,0,.83.37.83.83s-.37.83-.83.83h-1.16c-.32,0-.57.26-.57.57,0,.01,0,.02,0,.04,0,.01,0,.02,0,.04,0,.32.26.57.57.57h1.89c.41,0,.75.37.75.83,0,.22-.08.44-.23.6-.13.15-.32.23-.52.23h-1.89c-.32,0-.57.26-.57.57s.26.57.57.57h1.49c.41,0,.75.37.75.83,0,.22-.08.44-.23.6Z"/>
      </g>
    </g>
  </g>
</svg>