<?xml version="1.0" encoding="UTF-8"?>
<svg id="Layer_2" xmlns="http://www.w3.org/2000/svg" xmlns:xlink="http://www.w3.org/1999/xlink" viewBox="0 0 50 31">
  <defs>
    <style>
      .cls-1 {
        fill: #fff;
      }

      .cls-2 {
        fill: none;
      }

      .cls-3 {
        clip-path: url(#clippath);
      }
    </style>
    <clipPath id="clippath">
      <rect class="cls-2" width="50" height="31"/>
    </clipPath>
  </defs>
  <g id="Layer_1-2" data-name="Layer_1">
    <g class="cls-3">
      <g>
        <path class="cls-1" d="M39.99,17.08h-.01s-8-.01-8-.01V4.57C31.98,1.94,29.84-.2,27.21-.2h-12.88c-2.63,0-4.77,2.14-4.77,4.77v26.08c0,.3.24.54.54.54h12.88c.3,0,.54-.24.54-.54v-8.27h12.13c2.63,0,4.77-2.14,4.77-4.77,0-.27-.19-.49-.45-.54ZM30.9,4.57v13.04c0,1.44.64,2.78,1.75,3.68h-9.11s0-16.73,0-16.73c0-2.03,1.65-3.68,3.68-3.68s3.68,1.65,3.68,3.68ZM32.02,18.16h7.28c-.27,1.78-1.83,3.14-3.64,3.14-1.82,0-3.37-1.36-3.64-3.14ZM22.44,4.57v25.54h-11.79V4.57c0-2.03,1.65-3.68,3.68-3.68h9.85c-1.1.9-1.74,2.24-1.74,3.68Z"/>
        <path class="cls-1" d="M14.57,7.29c.86,0,1.56-.7,1.56-1.56s-.7-1.56-1.56-1.56-1.56.7-1.56,1.56.7,1.56,1.56,1.56ZM14.57,6.21c-.26,0-.47-.21-.47-.47s.21-.47.47-.47.47.21.47.47-.21.47-.47.47Z"/>
        <path class="cls-1" d="M13.46,11.18c.14,0,.28-.06.38-.15l6.18-5.99c.1-.1.16-.23.17-.38,0-.15-.05-.29-.15-.39-.1-.11-.24-.17-.39-.17s-.28.05-.38.15l-6.18,5.99c-.21.2-.22.55,0,.77.1.1.25.16.39.16Z"/>
        <path class="cls-1" d="M19.64,14.54h-6.18c-.3,0-.54.24-.54.54s.24.54.54.54h6.18c.3,0,.54-.24.54-.54s-.24-.54-.54-.54Z"/>
        <path class="cls-1" d="M19.64,22.12h-6.18c-.3,0-.54.24-.54.54s.24.54.54.54h6.18c.3,0,.54-.24.54-.54s-.24-.54-.54-.54Z"/>
        <path class="cls-1" d="M19.64,19.59h-6.18c-.3,0-.54.24-.54.54s.24.54.54.54h6.18c.3,0,.54-.24.54-.54s-.24-.54-.54-.54Z"/>
        <path class="cls-1" d="M19.64,17.07h-6.18c-.3,0-.54.24-.54.54s.24.54.54.54h6.18c.3,0,.54-.24.54-.54s-.24-.54-.54-.54Z"/>
        <path class="cls-1" d="M19.64,24.64h-6.18c-.3,0-.54.24-.54.54s.24.54.54.54h6.18c.3,0,.54-.24.54-.54s-.24-.54-.54-.54Z"/>
        <path class="cls-1" d="M18.53,8.14c-.86,0-1.56.7-1.56,1.56s.7,1.56,1.56,1.56,1.56-.7,1.56-1.56-.7-1.56-1.56-1.56ZM18.53,10.17c-.26,0-.47-.21-.47-.47s.21-.47.47-.47.47.21.47.47-.21.47-.47.47Z"/>
      </g>
    </g>
  </g>
</svg>