<?xml version="1.0" encoding="UTF-8"?>
<svg id="Layer_2" xmlns="http://www.w3.org/2000/svg" xmlns:xlink="http://www.w3.org/1999/xlink" viewBox="0 0 50 31">
  <defs>
    <style>
      .cls-1 {
        fill: #fff;
      }

      .cls-2 {
        fill: none;
      }

      .cls-3 {
        clip-path: url(#clippath);
      }
    </style>
    <clipPath id="clippath">
      <rect class="cls-2" width="50" height="31"/>
    </clipPath>
  </defs>
  <g id="Layer_1-2" data-name="Layer_1">
    <g class="cls-3">
      <g>
        <path class="cls-1" d="M20.9,10.88h2.89c.27,0,.49-.22.49-.49s-.22-.49-.49-.49h-2.74l.44-2.97h2.3c.27,0,.49-.22.49-.49s-.22-.49-.49-.49h-2.16l.31-2.12c.04-.27-.15-.51-.41-.55-.27-.04-.51.15-.55.41l-.33,2.26h-2.92l.31-2.12c.04-.27-.15-.51-.41-.55-.27-.04-.51.15-.55.41l-.33,2.26h-2.88c-.27,0-.49.22-.49.49s.22.49.49.49h2.74l-.44,2.97h-2.3c-.27,0-.49.22-.49.49s.22.49.49.49h2.15l-.31,2.13c-.04.27.15.51.41.55.03,0,.05,0,.07,0h0c.24,0,.45-.18.48-.42l.34-2.27h2.92l-.31,2.13c-.04.27.15.51.41.55.03,0,.05,0,.07,0h0c.24,0,.45-.18.48-.42l.34-2.27ZM17.14,9.91l.44-2.97h2.92l-.44,2.97h-2.92Z"/>
        <path class="cls-1" d="M38.88,10.76h-9.85V2.25c0-1.24-1.01-2.25-2.25-2.25h-15.65c-1.24,0-2.25,1.01-2.25,2.25v12.19c0,1.24,1.01,2.25,2.25,2.25h2.36v3.05c0,.19.1.36.27.44.07.04.15.05.22.05h0c.1,0,.21-.03.29-.09l4.66-3.45h2.05v8.51c0,1.24,1.01,2.25,2.25,2.25h7.83l4.67,3.45c.09.07.19.1.29.1h0c.08,0,.15-.02.22-.05.16-.09.27-.25.27-.44v-3.05h2.36c1.24,0,2.25-1.01,2.25-2.25v-12.2c0-1.24-1.01-2.25-2.25-2.25ZM18.77,15.72c-.11,0-.21.04-.29.1l-4.02,2.97v-2.58c0-.27-.22-.49-.49-.49h-2.85c-.71,0-1.28-.57-1.28-1.27V2.25c0-.7.57-1.27,1.28-1.27h15.65c.7,0,1.28.57,1.28,1.27v12.2c0,.7-.57,1.27-1.28,1.27h-5.26s-.03,0-.05,0-.03,0-.05,0h-2.64ZM40.16,25.21c0,.7-.57,1.27-1.28,1.27h-2.85c-.27,0-.49.22-.49.49v2.58l-4.02-2.97c-.09-.06-.19-.1-.29-.1h-8c-.7,0-1.28-.57-1.28-1.27v-8.51h4.81c1.24,0,2.25-1.01,2.25-2.25v-2.71h9.86c.71,0,1.28.57,1.28,1.27v12.2Z"/>
        <path class="cls-1" d="M30.18,16.6h5.71c.27,0,.48-.22.48-.49s-.22-.49-.49-.49h-5.7c-.27,0-.49.22-.49.49s.22.49.49.49Z"/>
        <path class="cls-1" d="M35.88,21.13h-9.55c-.27,0-.49.22-.49.49s.22.49.49.49h9.55c.27,0,.49-.22.49-.49s-.22-.49-.49-.49Z"/>
      </g>
    </g>
  </g>
</svg>