<?xml version="1.0" encoding="UTF-8"?>
<svg id="Layer_2" xmlns="http://www.w3.org/2000/svg" xmlns:xlink="http://www.w3.org/1999/xlink" viewBox="0 0 50 31">
  <defs>
    <style>
      .cls-1 {
        fill: #fff;
      }

      .cls-2 {
        fill: none;
      }

      .cls-3 {
        clip-path: url(#clippath);
      }
    </style>
    <clipPath id="clippath">
      <rect class="cls-2" width="50" height="31"/>
    </clipPath>
  </defs>
  <g id="Layer_1-2" data-name="Layer_1">
    <g class="cls-3">
      <g>
        <path class="cls-1" d="M41.04,11.64h-1.62v-2.91c0-1.34-1.09-2.44-2.44-2.44h-10.18c-.6,0-1.16-.29-1.52-.76l-3.31-4.44c-.51-.68-1.33-1.09-2.18-1.09h-10.83c-1.34,0-2.44,1.09-2.44,2.44v26.01c0,1.36,1.01,2.48,2.31,2.55,0,0,.01,0,.02,0,.02,0,.03,0,.05,0,.02,0,.04.01.06.01h32.08c1.34,0,2.44-1.09,2.44-2.44v-14.49c0-1.34-1.09-2.44-2.44-2.44h0ZM10.58,28.56c0,.89-.72,1.62-1.62,1.62-.02,0-.03,0-.04,0-.02,0-.03-.01-.04-.01-.84-.04-1.53-.82-1.53-1.73V2.44c0-.89.72-1.62,1.62-1.62h10.83c.6,0,1.16.28,1.52.76l3.31,4.44c.51.68,1.33,1.09,2.18,1.09h10.18c.89,0,1.62.72,1.62,1.62v2.91H13.01c-1.34,0-2.44,1.09-2.44,2.44v14.49h0ZM42.65,28.56c0,.89-.72,1.62-1.62,1.62H10.79c.38-.43.61-1,.61-1.62v-14.49c0-.89.72-1.62,1.62-1.62h28.02c.89,0,1.62.72,1.62,1.62v14.49h0Z"/>
        <path class="cls-1" d="M12.63,15.43c-.23,0-.41.18-.41.41v3.76c0,.23.18.41.41.41s.41-.18.41-.41v-3.76c0-.23-.18-.41-.41-.41Z"/>
        <path class="cls-1" d="M12.63,20.91c-.23,0-.41.18-.41.41v1.91c0,.23.18.41.41.41s.41-.18.41-.41v-1.91c0-.23-.18-.41-.41-.41Z"/>
        <path class="cls-1" d="M8.97,2.86h6.04c.23,0,.41-.18.41-.41s-.18-.41-.41-.41h-6.04c-.23,0-.41.18-.41.41s.18.41.41.41Z"/>
        <path class="cls-1" d="M19.85,4.42c0-.23-.18-.41-.41-.41h-10.47c-.23,0-.41.18-.41.41s.18.41.41.41h10.47c.23,0,.41-.18.41-.41Z"/>
        <path class="cls-1" d="M22.18,20.9h2.18v2.26c0,.23.18.41.41.41h5.22c.23,0,.41-.18.41-.41v-2.26h2.18c.17,0,.32-.1.38-.26.06-.15.03-.33-.09-.45l-5.2-5.05c-.16-.15-.41-.15-.57,0l-5.2,5.05c-.12.12-.16.29-.09.45s.21.26.38.26h0ZM27.38,16.01l4.19,4.07h-1.58c-.23,0-.41.18-.41.41v2.26h-4.4v-2.26c0-.23-.18-.41-.41-.41h-1.58l4.19-4.07h0Z"/>
        <path class="cls-1" d="M36.08,22.75h-1.12c-.15,0-.29.08-.36.21l-.91,1.65c-.17.3-.49.49-.83.49h-10.97c-.35,0-.66-.19-.83-.49l-.91-1.65c-.07-.13-.21-.21-.36-.21h-1.12c-.23,0-.41.18-.41.41v2.83c0,.9.73,1.62,1.62,1.62h14.98c.9,0,1.62-.73,1.62-1.62v-2.83c0-.23-.18-.41-.41-.41h0ZM35.67,25.99c0,.44-.36.8-.8.8h-14.98c-.44,0-.8-.36-.8-.8v-2.42h.47l.79,1.43c.31.56.91.91,1.55.91h10.97c.64,0,1.24-.35,1.55-.91l.79-1.43h.47v2.42h0Z"/>
      </g>
    </g>
  </g>
</svg>