<?xml version="1.0" encoding="UTF-8"?>
<svg id="Layer_2" xmlns="http://www.w3.org/2000/svg" xmlns:xlink="http://www.w3.org/1999/xlink" viewBox="0 0 50 31">
  <defs>
    <style>
      .cls-1 {
        fill: #fff;
      }

      .cls-2 {
        fill: none;
      }

      .cls-3 {
        clip-path: url(#clippath);
      }
    </style>
    <clipPath id="clippath">
      <rect class="cls-2" width="50" height="31"/>
    </clipPath>
  </defs>
  <g id="Layer_1-2" data-name="Layer_1">
    <g class="cls-3">
      <g>
        <path class="cls-1" d="M15.14,10.99c-2.02,0-3.8-1.45-4.22-3.44l-.04-.21h-3.02c-.36,0-.67-.31-.67-.67s.31-.67.67-.67h3.02l.04-.21c.42-1.99,2.2-3.44,4.22-3.44s3.8,1.45,4.22,3.44l.04.21h22.73c.36,0,.67.31.67.67s-.31.67-.67.67h-22.73l-.04.21c-.42,2.02-2.15,3.44-4.22,3.44ZM15.14,3.71c-1.64,0-2.97,1.33-2.97,2.97s1.33,2.97,2.97,2.97,2.97-1.33,2.97-2.97-1.33-2.97-2.97-2.97Z"/>
        <path class="cls-1" d="M32.36,19.78c-2.02,0-3.8-1.45-4.22-3.44l-.04-.21H7.86c-.36,0-.67-.31-.67-.67s.31-.67.67-.67h20.23l.04-.21c.42-1.99,2.2-3.44,4.22-3.44s3.8,1.45,4.22,3.44l.04.21h5.52c.36,0,.67.31.67.67s-.31.67-.67.67h-5.52l-.04.21c-.42,2.02-2.15,3.44-4.22,3.44ZM32.36,12.49c-1.64,0-2.97,1.33-2.97,2.97s1.33,2.97,2.97,2.97,2.97-1.33,2.97-2.97-1.33-2.97-2.97-2.97Z"/>
        <path class="cls-1" d="M15.14,28.63c-2.02,0-3.8-1.45-4.22-3.44l-.04-.21h-3.02c-.36,0-.67-.31-.67-.67,0-.41.3-.74.67-.74h3.03l.04-.2c.44-1.98,2.17-3.37,4.21-3.37s3.8,1.45,4.22,3.44l.04.21h22.73c.36,0,.67.31.67.67s-.31.67-.67.67h-22.71l-.04.21c-.38,1.99-2.16,3.43-4.24,3.43ZM15.14,21.35c-1.63,0-2.96,1.33-2.97,2.96.01,1.66,1.34,2.99,2.97,2.99s2.97-1.33,2.97-2.97-1.33-2.97-2.97-2.97Z"/>
      </g>
    </g>
  </g>
</svg>