<?xml version="1.0" encoding="UTF-8"?>
<svg id="Layer_2" xmlns="http://www.w3.org/2000/svg" xmlns:xlink="http://www.w3.org/1999/xlink" viewBox="0 0 50 31">
  <defs>
    <style>
      .cls-1 {
        fill: #fff;
      }

      .cls-2 {
        fill: none;
      }

      .cls-3 {
        clip-path: url(#clippath);
      }
    </style>
    <clipPath id="clippath">
      <rect class="cls-2" width="50" height="31"/>
    </clipPath>
  </defs>
  <g id="Layer_1-2" data-name="Layer_1">
    <g class="cls-3">
      <g>
        <path class="cls-1" d="M33.52,0h-17.03c-1.71,0-3.1,1.39-3.1,3.1v24.8c0,1.71,1.39,3.1,3.1,3.1h17.03c1.71,0,3.1-1.39,3.1-3.1V3.1c0-1.71-1.39-3.1-3.1-3.1ZM35.64,27.9c0,1.17-.95,2.12-2.12,2.12h-17.03c-1.17,0-2.12-.95-2.12-2.12V3.1c0-1.17.95-2.12,2.12-2.12h17.03c1.17,0,2.12.95,2.12,2.12v24.8Z"/>
        <path class="cls-1" d="M32.86,2.61h-15.73c-.63,0-1.14.51-1.14,1.14v5.22c0,.63.51,1.14,1.14,1.14h15.73c.63,0,1.14-.51,1.14-1.14V3.75c0-.63-.51-1.14-1.14-1.14ZM33.03,8.97c0,.09-.07.16-.16.16h-15.73c-.09,0-.16-.07-.16-.16V3.75c0-.09.07-.16.16-.16h15.73c.09,0,.16.07.16.16v5.22Z"/>
        <path class="cls-1" d="M22.75,11.68h-5.61c-.63,0-1.14.51-1.14,1.14v5.22c0,.63.51,1.14,1.14,1.14h5.61c.63,0,1.14-.51,1.14-1.14v-5.22c0-.63-.51-1.14-1.14-1.14ZM22.91,18.04c0,.09-.07.16-.16.16h-5.61c-.09,0-.16-.07-.16-.16v-5.22c0-.09.07-.16.16-.16h5.61c.09,0,.16.07.16.16v5.22Z"/>
        <path class="cls-1" d="M21.35,14.94h-.92v-.84c0-.27-.22-.49-.49-.49s-.49.22-.49.49v.84h-.92c-.27,0-.49.22-.49.49s.22.49.49.49h.92v.84c0,.27.22.49.49.49s.49-.22.49-.49v-.84h.92c.27,0,.49-.22.49-.49s-.22-.49-.49-.49Z"/>
        <path class="cls-1" d="M31.46,14.94h-2.81c-.27,0-.49.22-.49.49s.22.49.49.49h2.81c.27,0,.49-.22.49-.49s-.22-.49-.49-.49Z"/>
        <path class="cls-1" d="M21.28,23.3c-.19-.19-.5-.19-.69,0l-.65.65-.65-.65c-.19-.19-.5-.19-.69,0s-.19.5,0,.69l.65.65-.65.65c-.19.19-.19.5,0,.69.1.1.22.14.35.14s.25-.05.35-.14l.65-.65.65.65c.1.1.22.14.35.14s.25-.05.35-.14c.19-.19.19-.5,0-.69l-.65-.65.65-.65c.19-.19.19-.5,0-.69Z"/>
        <path class="cls-1" d="M31.46,23.25h-2.81c-.27,0-.49.22-.49.49s.22.49.49.49h2.81c.27,0,.49-.22.49-.49s-.22-.49-.49-.49Z"/>
        <path class="cls-1" d="M31.46,25.04h-2.81c-.27,0-.49.22-.49.49s.22.49.49.49h2.81c.27,0,.49-.22.49-.49s-.22-.49-.49-.49Z"/>
        <path class="cls-1" d="M32.86,11.68h-5.61c-.63,0-1.14.51-1.14,1.14v5.22c0,.63.51,1.14,1.14,1.14h5.61c.63,0,1.14-.51,1.14-1.14v-5.22c0-.63-.51-1.14-1.14-1.14ZM33.03,18.04c0,.09-.07.16-.16.16h-5.61c-.09,0-.16-.07-.16-.16v-5.22c0-.09.07-.16.16-.16h5.61c.09,0,.16.07.16.16v5.22Z"/>
        <path class="cls-1" d="M22.75,20.88h-5.61c-.63,0-1.14.51-1.14,1.14v5.22c0,.63.51,1.14,1.14,1.14h5.61c.63,0,1.14-.51,1.14-1.14v-5.22c0-.63-.51-1.14-1.14-1.14ZM22.91,27.25c0,.09-.07.16-.16.16h-5.61c-.09,0-.16-.07-.16-.16v-5.22c0-.09.07-.16.16-.16h5.61c.09,0,.16.07.16.16v5.22Z"/>
        <path class="cls-1" d="M32.86,20.88h-5.61c-.63,0-1.14.51-1.14,1.14v5.22c0,.63.51,1.14,1.14,1.14h5.61c.63,0,1.14-.51,1.14-1.14v-5.22c0-.63-.51-1.14-1.14-1.14ZM33.03,27.25c0,.09-.07.16-.16.16h-5.61c-.09,0-.16-.07-.16-.16v-5.22c0-.09.07-.16.16-.16h5.61c.09,0,.16.07.16.16v5.22Z"/>
      </g>
    </g>
  </g>
</svg>