<?xml version="1.0" encoding="UTF-8"?>
<svg id="Layer_2" xmlns="http://www.w3.org/2000/svg" xmlns:xlink="http://www.w3.org/1999/xlink" viewBox="0 0 50 31">
  <defs>
    <style>
      .cls-1 {
        fill: #fff;
        fill-rule: evenodd;
      }

      .cls-2 {
        fill: none;
      }

      .cls-3 {
        clip-path: url(#clippath);
      }
    </style>
    <clipPath id="clippath">
      <rect class="cls-2" width="50" height="31"/>
    </clipPath>
  </defs>
  <g id="Layer_1-2" data-name="Layer_1">
    <g class="cls-3">
      <path class="cls-1" d="M11.79,31c-.46,0-.89-.2-1.18-.56-.29-.36-.4-.82-.3-1.27l2.56-11.83c.15-.69.77-1.19,1.48-1.19h9.73l-.16-.17c-.06-.07-.12-.14-.17-.23-.81-1.24-2.33-3.67-3.37-5.9-.77-1.65-1.17-3.01-1.17-3.94,0-3.26,2.61-5.91,5.82-5.91s5.82,2.65,5.82,5.91c0,.92-.41,2.28-1.17,3.94-.98,2.12-2.37,4.37-3.37,5.89-.06.09-.11.16-.18.23l-.16.17h9.69c.71,0,1.33.5,1.48,1.19l2.56,11.83c.1.45-.01.91-.3,1.27-.29.36-.72.56-1.18.56H11.79ZM22.67,19.37h5.78c.54,0,1.04.29,1.31.76l5.75,9.95,2.7.05c.19,0,.37-.09.5-.24.12-.15.17-.35.13-.54l-2.56-11.83c-.06-.29-.33-.5-.62-.5h-12.44l-.54,2.35ZM26.59,22.59c.54,0,1.04.29,1.31.76l3.88,6.72,2.57.05h.17l-5.52-9.57c-.11-.2-.33-.32-.55-.32h-5.65c-.3,0-.58-.13-.76-.37-.19-.23-.25-.54-.19-.83l.47-2.03h-2.31l-3.03,13.11h2.31l1.56-6.78c.1-.45.49-.76.95-.76h4.78ZM20.19,30.13h10.61l-3.66-6.34c-.11-.2-.33-.32-.55-.32h-4.86l-1.54,6.66ZM14.35,17.01c-.3,0-.56.21-.62.5l-2.56,11.83c-.04.19,0,.38.13.54.12.15.3.24.5.24h4.29l3.03-13.11h-4.76ZM25.02.87c-2.73,0-4.94,2.26-4.94,5.04,0,.82.36,1.99,1.09,3.57.96,2.07,2.33,4.29,3.31,5.79.12.19.32.31.54.31s.42-.11.53-.3c.98-1.51,2.35-3.73,3.32-5.8.74-1.58,1.09-2.75,1.09-3.57,0-2.78-2.22-5.04-4.94-5.04ZM25.02,9.48c-2.02,0-3.67-1.64-3.67-3.66s1.64-3.67,3.67-3.67,3.67,1.64,3.67,3.67-1.64,3.66-3.67,3.66ZM25.02,3.03c-1.54,0-2.79,1.25-2.79,2.79s1.25,2.79,2.79,2.79,2.79-1.25,2.79-2.79-1.25-2.79-2.79-2.79Z"/>
    </g>
  </g>
</svg>