<?xml version="1.0" encoding="UTF-8"?>
<svg id="Layer_2" xmlns="http://www.w3.org/2000/svg" xmlns:xlink="http://www.w3.org/1999/xlink" viewBox="0 0 50 31">
  <defs>
    <style>
      .cls-1 {
        fill: #fff;
        fill-rule: evenodd;
      }

      .cls-2 {
        fill: none;
      }

      .cls-3 {
        clip-path: url(#clippath);
      }
    </style>
    <clipPath id="clippath">
      <rect class="cls-2" width="50" height="31"/>
    </clipPath>
  </defs>
  <g id="Layer_1-2" data-name="Layer_1">
    <g class="cls-3">
      <path class="cls-1" d="M15.54,6.2h-4.97c-.23,0-.41-.18-.41-.41v-2.69c0-1.71,1.39-3.09,3.1-3.1h23.26c.88,0,1.59.71,1.59,1.59v23.21h1.31c.11,0,.21.04.29.12.08.08.12.18.12.29v2.69h0c0,1.71-1.39,3.09-3.1,3.1h-18.09c-1.71,0-3.1-1.39-3.1-3.1V6.2h0ZM23.1,22.9h12.21c.22,0,.4-.19.4-.41s-.18-.4-.4-.41h-12.21c-.11,0-.22.04-.3.11-.08.08-.13.19-.13.3s.05.22.13.3.19.12.3.11h0ZM18.35,22.9h2.43,0c.22,0,.4-.19.4-.41s-.17-.4-.4-.41h-2.43c-.11,0-.22.04-.3.11-.08.08-.13.19-.13.3s.05.22.13.3c.08.08.19.12.3.11h0ZM23.1,20.3h12.21c.22,0,.4-.19.4-.41s-.18-.4-.4-.41h-12.21c-.11,0-.22.04-.3.11-.08.08-.13.19-.13.3s.05.22.13.3c.08.08.19.12.3.11ZM18.35,20.3h2.43,0c.22,0,.4-.19.4-.41s-.17-.4-.4-.41h-2.43c-.11,0-.22.04-.3.11-.08.08-.13.19-.13.3s.05.22.13.3c.08.08.19.12.3.11h0ZM23.1,17.69h12.21c.22,0,.4-.19.4-.41s-.18-.4-.4-.41h-12.21c-.11,0-.22.04-.3.11-.08.08-.13.19-.13.3s.05.22.13.3.19.12.3.11ZM18.35,17.69h2.43,0c.22,0,.4-.19.4-.41s-.17-.4-.4-.41h-2.43c-.11,0-.22.04-.3.11-.08.08-.13.19-.13.3s.05.22.13.3c.08.08.19.12.3.11h0ZM23.1,15.09h12.21c.22,0,.4-.19.4-.41s-.18-.4-.4-.41h-12.21c-.11,0-.22.04-.3.11-.08.08-.13.19-.13.3s.05.22.13.3c.08.08.19.12.3.11ZM18.35,15.09h2.43,0c.22,0,.4-.19.4-.41s-.17-.4-.4-.41h-2.43c-.11,0-.22.04-.3.11-.08.08-.13.19-.13.3s.05.22.13.3c.08.08.19.12.3.11h0ZM23.89,10.7l6.46-6.47c.09-.07.14-.18.15-.3,0-.12-.04-.23-.12-.31-.08-.08-.2-.13-.31-.12-.11,0-.22.06-.3.15l-6.47,6.46c-.09.07-.14.18-.15.3,0,.12.04.23.12.31.08.08.2.13.31.12.11,0,.22-.06.3-.15h0ZM29.47,8.01c-.74,0-1.4.44-1.68,1.12-.28.68-.13,1.46.39,1.98s1.3.68,1.98.4c.68-.28,1.12-.95,1.12-1.68,0-1-.81-1.82-1.82-1.82ZM29.47,8.83c-.4,0-.76.24-.92.61-.16.37-.07.8.21,1.08s.71.37,1.08.21c.37-.15.61-.52.61-.92,0-.26-.1-.52-.29-.7-.19-.19-.44-.29-.7-.29h0ZM24.19,2.72h0c-.74,0-1.4.44-1.68,1.12-.28.68-.13,1.46.4,1.98.52.52,1.3.68,1.98.39.68-.28,1.12-.95,1.12-1.68,0-1.01-.82-1.82-1.82-1.82h0ZM24.19,3.55h0c-.4,0-.77.24-.92.62-.15.37-.07.8.22,1.08.29.28.71.37,1.09.21.37-.16.61-.52.61-.92,0-.26-.1-.52-.29-.7s-.44-.29-.7-.29h0ZM10.99,5.38h4.55v-2.28c.01-.61-.22-1.2-.65-1.63-.43-.44-1.01-.68-1.62-.68s-1.2.25-1.62.68c-.43.44-.66,1.02-.65,1.63v2.28ZM15.37.82c.64.59,1,1.41,1,2.28v24.8c-.01.61.22,1.2.65,1.64.43.44,1.01.68,1.62.68s1.2-.25,1.62-.68c.43-.44.66-1.02.65-1.64v-2.69c0-.23.19-.41.41-.41h15.96V1.59c0-.42-.34-.76-.76-.76H15.37ZM20.75,30.18h15.99c1.26,0,2.27-1.02,2.28-2.28v-2.28h-17.27v2.28c0,.87-.36,1.69-1,2.28h0Z"/>
    </g>
  </g>
</svg>