<?xml version="1.0" encoding="UTF-8"?>
<svg id="Layer_2" xmlns="http://www.w3.org/2000/svg" xmlns:xlink="http://www.w3.org/1999/xlink" viewBox="0 0 50 31">
  <defs>
    <style>
      .cls-1 {
        fill: #fff;
      }

      .cls-2 {
        fill: none;
      }

      .cls-3 {
        clip-path: url(#clippath);
      }
    </style>
    <clipPath id="clippath">
      <rect class="cls-2" width="50" height="31"/>
    </clipPath>
  </defs>
  <g id="Layer_1-2" data-name="Layer_1">
    <g class="cls-3">
      <path class="cls-1" d="M14.28,0c-.99,0-1.79.8-1.79,1.79v.91h-.51c-1.37,0-2.47,1.11-2.47,2.47v18.82c0,1.37,1.11,2.48,2.47,2.48h13.61c1.25,2.67,3.96,4.53,7.09,4.53,4.31,0,7.82-3.51,7.82-7.82,0-2.44-1.13-4.63-2.89-6.06V5.17c0-1.37-1.11-2.47-2.47-2.47h-.51v-.91c0-.99-.8-1.79-1.79-1.79s-1.79.8-1.79,1.79v.91h-2.61v-.91c0-.99-.8-1.79-1.79-1.79s-1.79.8-1.79,1.79v.91h-2.61v-.91c0-.99-.8-1.79-1.79-1.79s-1.79.8-1.79,1.79v.91h-2.61v-.91c0-.99-.8-1.79-1.79-1.79ZM14.28.88c.5,0,.91.41.91.91v2.7c0,.5-.41.91-.91.91s-.91-.41-.91-.91V1.79c0-.5.41-.91.91-.91ZM20.46.88c.5,0,.91.41.91.91v2.7c0,.5-.41.91-.91.91s-.91-.41-.91-.91V1.79c0-.5.41-.91.91-.91ZM26.65.88c.5,0,.91.41.91.91v2.7c0,.5-.41.91-.91.91s-.91-.41-.91-.91V1.79c0-.5.41-.91.91-.91ZM32.83.88c.5,0,.91.41.91.91v2.7c0,.5-.41.91-.91.91s-.91-.41-.91-.91V1.79c0-.5.41-.91.91-.91ZM11.97,3.58h.51v.91c0,.99.8,1.79,1.79,1.79s1.79-.8,1.79-1.79v-.91h2.61v.91c0,.99.8,1.79,1.79,1.79s1.79-.8,1.79-1.79v-.91h2.61v.91c0,.99.8,1.79,1.79,1.79s1.79-.8,1.79-1.79v-.91h2.61v.91c0,.99.8,1.79,1.79,1.79s1.79-.8,1.79-1.79v-.91h.51c.88,0,1.6.72,1.6,1.6v2.4H10.37v-2.4h0c0-.88.72-1.6,1.6-1.6ZM10.38,8.45h26.36v8.04c-1.18-.72-2.57-1.13-4.06-1.13-1.56,0-3.02.46-4.24,1.26v-.36c0-.67-.54-1.22-1.22-1.22h-1.15c-.67,0-1.22.54-1.22,1.22v1.15c0,.67.54,1.22,1.22,1.22h.26c-.93,1.29-1.48,2.86-1.48,4.57,0,.84.14,1.65.38,2.41h-13.26c-.88,0-1.6-.72-1.6-1.6v-15.55ZM26.07,10.05c-.67,0-1.22.55-1.22,1.22v1.15c0,.67.55,1.22,1.22,1.22h1.15c.67,0,1.22-.54,1.22-1.22v-1.15c0-.67-.54-1.22-1.22-1.22h-1.15ZM32.01,10.05c-.67,0-1.22.55-1.22,1.22v1.15c0,.67.55,1.22,1.22,1.22h1.15c.67,0,1.22-.54,1.22-1.22v-1.15c0-.67-.54-1.22-1.22-1.22h-1.15ZM13.96,10.05c-.67,0-1.22.54-1.22,1.22v1.15c0,.67.54,1.22,1.22,1.22h1.15c.67,0,1.22-.54,1.22-1.22v-1.15c0-.67-.55-1.22-1.22-1.22h-1.15ZM20.14,10.05c-.67,0-1.22.54-1.22,1.22v1.15c0,.67.55,1.22,1.22,1.22h1.15c.67,0,1.22-.54,1.22-1.22v-1.15c0-.67-.55-1.22-1.22-1.22h-1.15ZM26.08,10.93h1.15c.19,0,.34.15.34.34v1.15c0,.19-.15.34-.34.34h-1.15c-.19,0-.34-.15-.34-.34v-1.15c0-.19.15-.34.34-.34ZM32.01,10.93h1.15c.19,0,.34.15.34.34v1.15c0,.19-.15.34-.34.34h-1.15c-.19,0-.34-.15-.34-.34v-1.15c0-.19.15-.34.34-.34ZM13.95,10.93h1.15c.19,0,.34.15.34.34v1.15c0,.19-.15.34-.34.34h-1.15c-.19,0-.34-.15-.34-.34v-1.15c0-.19.15-.34.34-.34ZM20.14,10.93h1.15c.19,0,.34.15.34.34v1.15c0,.19-.15.34-.34.34h-1.15c-.19,0-.34-.15-.34-.34v-1.15c0-.19.15-.34.34-.34ZM13.96,15.03c-.67,0-1.22.54-1.22,1.22v1.15c0,.67.54,1.22,1.22,1.22h1.15c.67,0,1.22-.54,1.22-1.22v-1.15c0-.67-.55-1.22-1.22-1.22h-1.15ZM20.14,15.03c-.67,0-1.22.54-1.22,1.22v1.15c0,.67.55,1.22,1.22,1.22h1.15c.67,0,1.22-.54,1.22-1.22v-1.15c0-.67-.55-1.22-1.22-1.22h-1.15ZM13.95,15.91h1.15c.19,0,.34.15.34.34v1.15c0,.19-.15.34-.34.34h-1.15c-.19,0-.34-.15-.34-.34v-1.15c0-.19.15-.34.34-.34ZM20.14,15.91h1.15c.19,0,.34.15.34.34v1.15c0,.19-.15.34-.34.34h-1.15c-.19,0-.34-.15-.34-.34v-1.15c0-.19.15-.34.34-.34ZM26.07,15.91h1.15c.19,0,.34.15.34.34v1.03c-.17.15-.33.3-.49.46h-1c-.19,0-.34-.15-.34-.34v-1.15c0-.19.15-.34.34-.34ZM32.68,16.24c3.83,0,6.94,3.12,6.94,6.94s-3.12,6.94-6.94,6.94-6.94-3.12-6.94-6.94,3.12-6.94,6.94-6.94ZM32.68,17.25c-.24,0-.44.2-.44.44v5.49c0,.24.2.44.44.44h4.81c.24,0,.44-.2.44-.44s-.2-.44-.44-.44h-4.38v-5.05c0-.24-.2-.44-.44-.44ZM13.96,20.01c-.67,0-1.22.54-1.22,1.22v1.15c0,.67.54,1.22,1.22,1.22h1.15c.67,0,1.22-.54,1.22-1.22v-1.15c0-.67-.55-1.22-1.22-1.22h-1.15ZM20.14,20.01c-.67,0-1.22.54-1.22,1.22v1.15c0,.67.55,1.22,1.22,1.22h1.15c.67,0,1.22-.54,1.22-1.22v-1.15c0-.67-.55-1.22-1.22-1.22h-1.15ZM13.95,20.89h1.15c.19,0,.34.15.34.34v1.15c0,.19-.15.34-.34.34h-1.15c-.19,0-.34-.15-.34-.34v-1.15c0-.19.15-.34.34-.34ZM20.14,20.89h1.15c.19,0,.34.15.34.34v1.15c0,.19-.15.34-.34.34h-1.15c-.19,0-.34-.15-.34-.34v-1.15c0-.19.15-.34.34-.34Z"/>
    </g>
  </g>
</svg>