<?xml version="1.0" encoding="UTF-8"?>
<svg id="Layer_2" xmlns="http://www.w3.org/2000/svg" xmlns:xlink="http://www.w3.org/1999/xlink" viewBox="0 0 50 31">
  <defs>
    <style>
      .cls-1 {
        fill: #fff;
      }

      .cls-2 {
        fill: none;
      }

      .cls-3 {
        clip-path: url(#clippath);
      }
    </style>
    <clipPath id="clippath">
      <rect class="cls-2" width="50" height="31"/>
    </clipPath>
  </defs>
  <g id="Layer_1-2" data-name="Layer_1">
    <g class="cls-3">
      <g>
        <path class="cls-1" d="M27.24,31h9.63c.45,0,.82-.37.82-.82V.82c0-.45-.37-.82-.82-.82h-9.63c-.45,0-.82.37-.82.82s.37.82.82.82h8.81v27.71h-8.81c-1.09.05-1.09,1.6,0,1.65h0Z"/>
        <path class="cls-1" d="M23.31,22.23c.31.34.83.35,1.16.04l6.65-6.17c.34-.31.34-.89,0-1.21l-6.65-6.17c-.34-.31-.85-.29-1.16.04-.31.34-.29.85.04,1.16l5.12,4.75h-15.34c-.45,0-.82.37-.82.82s.37.82.82.82h15.34l-5.12,4.75c-.33.31-.35.83-.04,1.17h0Z"/>
      </g>
    </g>
  </g>
</svg>