<?xml version="1.0" encoding="UTF-8"?>
<svg id="Layer_2" xmlns="http://www.w3.org/2000/svg" xmlns:xlink="http://www.w3.org/1999/xlink" viewBox="0 0 50 31">
  <defs>
    <style>
      .cls-1 {
        fill: #fff;
      }

      .cls-2 {
        fill: none;
      }

      .cls-3 {
        clip-path: url(#clippath);
      }
    </style>
    <clipPath id="clippath">
      <rect class="cls-2" width="50" height="31"/>
    </clipPath>
  </defs>
  <g id="Layer_1-2" data-name="Layer_1">
    <g class="cls-3">
      <path class="cls-1" d="M17.63,0h14.74C33.21,0,33.96.34,34.51.89c.55.55.89,1.31.89,2.14v24.93c0,.83-.34,1.59-.89,2.14-.55.55-1.31.89-2.14.89h-14.74c-.83,0-1.59-.34-2.14-.89-.55-.55-.89-1.31-.89-2.14V3.03c0-.83.34-1.59.89-2.14.55-.55,1.31-.89,2.14-.89h0ZM21.35,28.96c-.19,0-.34-.15-.34-.34s.15-.34.34-.34h7.29c.19,0,.34.15.34.34s-.15.34-.34.34h-7.29,0ZM29.35.67v.54c0,.28-.11.53-.3.71-.18.18-.44.3-.71.3h-6.68c-.28,0-.53-.11-.71-.3-.18-.18-.3-.44-.3-.71v-.54h-3.02c-.65,0-1.24.27-1.67.69-.43.43-.69,1.02-.69,1.67v24.93c0,.65.27,1.24.69,1.67.43.43,1.02.69,1.67.69h14.74c.65,0,1.24-.27,1.67-.69.43-.43.69-1.02.69-1.67V3.03c0-.65-.27-1.24-.69-1.67-.43-.43-1.02-.69-1.67-.69h-3.02,0ZM21.32.67v.54c0,.09.04.18.1.24s.15.1.24.1h6.68c.09,0,.18-.04.24-.1.06-.06.1-.15.1-.24v-.54h-7.35,0ZM20.99,13.05h11.64v.67h-11.64v-.67h0ZM29.8,16.89c.1,0,.2.01.3.04l.12.04.13-.04c.09-.02.19-.04.29-.04.32,0,.62.13.83.34.21.21.34.51.34.83s-.13.62-.34.83-.51.34-.83.34c-.1,0-.2-.01-.3-.04l-.12-.04-.13.04c-.09.02-.19.04-.29.04-.32,0-.62-.13-.83-.34-.21-.21-.34-.51-.34-.83s.13-.62.34-.83.51-.34.83-.34h0ZM29.93,17.58s-.08-.02-.13-.02c-.14,0-.26.06-.35.15s-.15.21-.15.35.06.26.15.35c.09.09.21.15.35.15.04,0,.09,0,.13-.02.04-.01.08-.03.12-.05.1-.06.23-.06.34,0,.04.02.08.04.12.05.04.01.08.02.13.02.14,0,.26-.06.35-.15s.15-.21.15-.35-.06-.26-.15-.35c-.09-.09-.21-.15-.35-.15-.04,0-.09,0-.13.02-.04.01-.08.03-.12.05-.1.06-.23.06-.34,0-.04-.02-.08-.04-.12-.05ZM26,18.56h1.27v.67h-1.27v-.67ZM23.59,18.56h1.27v.67h-1.27v-.67ZM21.18,18.56h1.27v.67h-1.27v-.67ZM19.7,18.66v.23c0,.19-.15.34-.34.34s-.34-.15-.34-.34v-.23c-.19-.06-.36-.16-.49-.29-.21-.21-.34-.51-.34-.83,0-.19.15-.34.34-.34s.34.15.34.34c0,.14.06.26.15.35s.21.15.35.15.26-.06.35-.15c.09-.09.15-.21.15-.35,0-.36-.35-.6-.69-.84-.49-.34-.98-.68-.98-1.39,0-.32.13-.62.34-.83.14-.14.3-.24.49-.29v-.23c0-.19.15-.34.34-.34s.34.15.34.34v.23c.19.06.36.16.49.29.21.21.34.51.34.83,0,.19-.15.34-.34.34s-.34-.15-.34-.34c0-.14-.06-.26-.15-.35s-.21-.15-.35-.15-.26.06-.35.15c-.09.09-.15.21-.15.35,0,.36.35.6.69.84.49.34.98.68.98,1.4,0,.32-.13.62-.34.83-.14.14-.3.24-.49.29ZM17.36,11.98h15.28v.67h-15.28v-.67h0ZM17.89,10.14h14.23c.46,0,.88.19,1.19.49.31.31.5.73.5,1.19v7.36c0,.46-.19.88-.49,1.19-.31.31-.73.5-1.19.5h-14.23c-.46,0-.88-.19-1.19-.49-.31-.31-.5-.73-.5-1.19v-7.36c0-.46.19-.88.49-1.19.31-.31.73-.5,1.19-.5h0ZM32.11,10.81h-14.23c-.28,0-.53.11-.71.3-.18.18-.3.44-.3.71v7.36c0,.28.11.53.3.71.18.18.44.3.71.3h14.23c.28,0,.53-.11.71-.3.18-.18.3-.44.3-.71v-7.36c0-.28-.11-.53-.3-.71-.18-.18-.44-.3-.71-.3h0Z"/>
    </g>
  </g>
</svg>