<?xml version="1.0" encoding="UTF-8"?>
<svg id="Layer_2" xmlns="http://www.w3.org/2000/svg" xmlns:xlink="http://www.w3.org/1999/xlink" viewBox="0 0 50 31">
  <defs>
    <style>
      .cls-1 {
        fill: #fff;
      }

      .cls-2 {
        fill: none;
      }

      .cls-3 {
        clip-path: url(#clippath);
      }
    </style>
    <clipPath id="clippath">
      <rect class="cls-2" width="50" height="31"/>
    </clipPath>
  </defs>
  <g id="Layer_1-2" data-name="Layer_1">
    <g class="cls-3">
      <path class="cls-1" d="M30.48,0h-10.95c-2.12,0-3.84,1.72-3.84,3.84v23.32c0,2.12,1.72,3.84,3.84,3.84h10.95c2.12,0,3.84-1.72,3.84-3.84V3.84C34.31,1.72,32.59,0,30.48,0ZM19.53,1.06h10.95c1.53,0,2.77,1.24,2.77,2.77v21.2h-16.5s0-21.2,0-21.2c0-1.53,1.24-2.77,2.77-2.77h0ZM30.48,29.93h-10.95c-1.53,0-2.77-1.24-2.77-2.77v-1.06h16.5v1.06c0,1.53-1.24,2.77-2.77,2.77h0ZM27.07,27.89c0,.29-.24.53-.53.53h-3.07c-.29,0-.53-.24-.53-.53s.24-.53.53-.53h3.07c.29,0,.53.24.53.53ZM22.93,3.07c0-.29.24-.53.53-.53h3.07c.29,0,.53.24.53.53s-.24.53-.53.53h-3.07c-.29,0-.53-.24-.53-.53ZM19.4,3.07c0-.29.24-.53.53-.53h.33c.29,0,.53.24.53.53s-.24.53-.53.53h-.33c-.29,0-.53-.24-.53-.53ZM19.63,17.48v1.34c0,1.03.84,1.86,1.86,1.86h7.02c1.03,0,1.86-.84,1.86-1.86v-1.34c.01-1.89-1-3.3-2.8-3.96.35-.5.55-1.11.55-1.77,0-1.72-1.4-3.13-3.13-3.13s-3.13,1.4-3.13,3.13c0,.66.2,1.26.55,1.77-1.79.66-2.8,2.06-2.8,3.96h0ZM29.31,17.48v1.34c0,.44-.36.8-.8.8h-7.02c-.44,0-.8-.36-.8-.8v-1.34c0-2,1.36-2.8,2.59-3.11.49.33,1.08.51,1.71.51s1.22-.19,1.71-.51c1.24.31,2.61,1.11,2.6,3.11h0ZM25,9.69c1.14,0,2.06.92,2.06,2.06s-.92,2.06-2.06,2.06-2.06-.92-2.06-2.06.92-2.06,2.06-2.06Z"/>
    </g>
  </g>
</svg>