<?xml version="1.0" encoding="UTF-8"?>
<svg id="Layer_2" xmlns="http://www.w3.org/2000/svg" xmlns:xlink="http://www.w3.org/1999/xlink" viewBox="0 0 50 31">
  <defs>
    <style>
      .cls-1 {
        fill: #fff;
      }

      .cls-2 {
        fill: none;
      }

      .cls-3 {
        clip-path: url(#clippath);
      }
    </style>
    <clipPath id="clippath">
      <rect class="cls-2" width="50" height="31"/>
    </clipPath>
  </defs>
  <g id="Layer_1-2" data-name="Layer_1">
    <g class="cls-3">
      <g>
        <path class="cls-1" d="M35.01,16.82h-7.24l.06-.6c.17-1.61.11-3.24-.16-4.84-.24-1.41-1.46-2.44-2.89-2.44-.4,0-.77.16-1.05.45-.28.29-.42.67-.41,1.07l.09,2.65c.02.75-.15,1.49-.52,2.14l-1.76,3.14c-.25-.42-.69-.7-1.21-.7h-3.95c-.78,0-1.41.63-1.41,1.41v10.5c0,.78.63,1.41,1.41,1.41h3.95c.55,0,1.01-.31,1.24-.77l.13.11c.5.42,1.14.65,1.8.65h8.63c.57,0,1.1-.22,1.51-.63.4-.4.62-.94.62-1.5,0-.46-.15-.9-.4-1.24.37-.09.72-.29,1-.57.4-.4.62-.94.62-1.5,0-.5-.17-.95-.46-1.31.29-.1.55-.27.77-.49.4-.4.63-.94.63-1.5,0-.46-.15-.89-.4-1.24.38-.09.73-.28,1.02-.57.37-.38.6-.88.62-1.41.02-.56-.19-1.1-.59-1.52-.43-.45-1.03-.7-1.64-.7h0ZM20.38,19.82v9.77c0,.26-.21.47-.47.47h-3.95c-.26,0-.47-.21-.47-.47v-10.5c0-.26.21-.47.47-.47h1.51v7.86c0,.26.21.47.47.47s.47-.21.47-.47v-7.87h1.51c.26,0,.47.21.47.47v.74h0ZM35.94,19.78c-.23.22-.53.35-.84.35h-4.02c-.26,0-.47.21-.47.47s.21.47.47.47h2.77c.65,0,1.18.53,1.18,1.19,0,.31-.12.62-.35.84-.23.23-.52.35-.84.35h-4c-.26,0-.47.21-.47.47s.21.47.47.47h3.07c.65,0,1.19.53,1.19,1.19,0,.31-.12.61-.35.84-.23.23-.52.35-.84.35h-3.92c-.26,0-.47.21-.47.47s.21.47.47.47h2.7c.65,0,1.19.53,1.19,1.19,0,.31-.12.61-.35.84-.23.23-.52.35-.84.35h-8.62c-.44,0-.86-.15-1.2-.43l-.57-.48v-9.19s2.38-4.24,2.38-4.24c.45-.8.67-1.71.64-2.63l-.09-2.65c0-.14.05-.28.15-.38.1-.1.24-.16.38-.16.97,0,1.8.7,1.97,1.66.26,1.52.31,3.06.15,4.59l-.11,1.11c-.02.13.03.27.12.36.09.1.22.15.35.15h7.77c.35,0,.7.15.95.4.22.23.34.53.32.83-.02.31-.14.59-.35.8h0Z"/>
        <path class="cls-1" d="M22.15,5.05c.06.06.09.15.07.23l-.21,1.24c-.08.45.1.91.48,1.18.21.15.46.23.7.23.19,0,.38-.04.56-.14l1.11-.59c.07-.04.17-.04.25,0l1.11.59c.41.22.9.18,1.27-.09.37-.27.56-.72.48-1.18l-.21-1.24c-.02-.08.02-.17.07-.23l.9-.88c.33-.32.45-.79.3-1.23-.14-.44-.52-.75-.97-.82l-1.24-.18c-.08-.02-.16-.07-.2-.14l-.56-1.13c-.2-.42-.61-.68-1.07-.68s-.88.26-1.08.67l-.56,1.13c-.04.08-.11.13-.2.14l-1.24.18c-.46.07-.83.38-.97.82-.14.44-.02.91.3,1.23l.89.88ZM21.84,3.23s.07-.16.21-.18l1.24-.18c.39-.06.73-.3.91-.66l.56-1.13c.06-.13.19-.15.24-.15s.17.02.24.15l.56,1.13c.17.35.51.6.91.66l1.24.18c.15.02.2.13.21.18.02.05.04.17-.07.27l-.9.88c-.29.28-.41.67-.35,1.06l.21,1.24c.02.15-.06.23-.1.26-.04.03-.15.09-.28.02l-1.11-.59c-.35-.18-.77-.19-1.12,0l-1.11.59c-.13.07-.24.01-.28-.02-.04-.03-.13-.11-.1-.26l.21-1.24c.07-.39-.06-.79-.35-1.06l-.9-.88c-.11-.1-.08-.23-.07-.27h0Z"/>
        <path class="cls-1" d="M39.58,7.91c.33-.32.45-.79.3-1.24-.14-.44-.52-.75-.97-.82l-1.24-.18c-.08-.02-.16-.06-.2-.14l-.56-1.13c-.2-.41-.62-.67-1.08-.67s-.88.26-1.08.67l-.56,1.13c-.04.08-.11.13-.2.14l-1.24.18c-.46.07-.83.38-.97.82s-.02.91.3,1.24l.9.88c.06.06.09.15.07.23l-.21,1.24c-.08.45.1.91.48,1.18.37.27.86.3,1.27.09l1.11-.59c.07-.04.17-.04.25,0l1.11.59c.18.09.37.14.56.14.25,0,.5-.08.7-.23.37-.27.56-.72.48-1.18l-.21-1.24c-.02-.08.02-.17.07-.23l.9-.88ZM38.03,8.12c-.29.28-.41.67-.35,1.06l.21,1.24c.02.15-.06.23-.1.26-.04.03-.15.09-.28.02l-1.11-.59c-.18-.09-.37-.14-.56-.14s-.38.04-.56.14l-1.11.59c-.13.07-.24.01-.28-.02-.04-.03-.13-.11-.1-.26l.21-1.24c.07-.39-.06-.79-.35-1.06l-.9-.88c-.11-.1-.08-.22-.07-.27.02-.05.07-.16.21-.18l1.24-.18c.39-.06.73-.3.91-.66l.56-1.13c.06-.13.19-.15.24-.15s.17.02.24.15l.56,1.13c.18.35.51.6.91.66l1.24.18c.15.02.2.13.21.18.02.05.04.17-.07.27l-.9.88Z"/>
        <path class="cls-1" d="M16.65,11.44c.37-.27.56-.72.48-1.18l-.21-1.24c-.02-.08.02-.17.07-.23l.9-.88c.33-.32.45-.79.3-1.24-.14-.44-.52-.75-.97-.82l-1.24-.18c-.08-.02-.16-.06-.2-.14l-.56-1.13c-.2-.41-.62-.67-1.08-.67s-.88.26-1.08.67l-.56,1.13c-.04.08-.11.13-.2.14l-1.24.18c-.46.06-.83.38-.97.82-.14.44-.02.91.3,1.24l.9.88c.06.06.09.15.07.23l-.21,1.24c-.08.45.1.91.48,1.18.21.15.46.23.7.23.19,0,.38-.04.56-.14l1.11-.59c.07-.04.17-.04.25,0l1.11.59c.4.22.89.18,1.26-.09h0ZM13.59,10.11l-1.11.59c-.13.07-.24,0-.28-.02-.04-.03-.13-.11-.1-.26l.21-1.24c.07-.39-.06-.79-.35-1.06l-.9-.88c-.11-.1-.08-.22-.07-.27.02-.05.07-.16.21-.18l1.24-.18c.39-.06.73-.3.91-.66l.56-1.13c.06-.13.19-.15.24-.15s.17.02.24.15l.56,1.13c.18.35.51.6.91.66l1.24.18c.15.02.2.13.21.18.02.05.04.17-.07.27l-.9.88c-.29.28-.41.67-.35,1.06l.21,1.24c.02.15-.06.23-.1.26-.04.03-.15.09-.28.02l-1.11-.59c-.35-.18-.77-.18-1.12,0h0Z"/>
      </g>
    </g>
  </g>
</svg>