<?xml version="1.0" encoding="UTF-8"?>
<svg id="Layer_2" xmlns="http://www.w3.org/2000/svg" xmlns:xlink="http://www.w3.org/1999/xlink" viewBox="0 0 50 31">
  <defs>
    <style>
      .cls-1 {
        fill: #fff;
      }

      .cls-2 {
        fill: none;
      }

      .cls-3 {
        clip-path: url(#clippath);
      }
    </style>
    <clipPath id="clippath">
      <rect class="cls-2" width="50" height="31"/>
    </clipPath>
  </defs>
  <g id="Layer_1-2" data-name="Layer_1">
    <g class="cls-3">
      <path class="cls-1" d="M8.23,22.28c0,.32-.26.58-.58.58s-.58-.26-.58-.58v-.28c0-.32.26-.58.58-.58s.58.26.58.58v.28ZM20.32,3.84c-.32,0-.58-.26-.58-.58s.26-.58.58-.58h1.45c.32,0,.58.26.58.58s-.26.58-.58.58h-1.45ZM16.12,3.84c-.32,0-.58-.26-.58-.58s.26-.58.58-.58h1.45c.32,0,.58.26.58.58s-.26.58-.58.58h-1.45ZM11.91,3.84c-.32,0-.58-.26-.58-.58s.26-.58.58-.58h1.45c.32,0,.58.26.58.58s-.26.58-.58.58h-1.45ZM27.01,19.94h0s.02-.01.02-.01c.3-.18.58-.39.82-.63.06-.06.12-.13.18-.19.02-.02.03-.04.05-.06.59-.7.95-1.61.95-2.6s-.36-1.9-.95-2.6c-.02-.02-.04-.04-.05-.06-.06-.06-.12-.13-.18-.19-.73-.73-1.74-1.18-2.85-1.18s-2.12.45-2.85,1.18c-.06.06-.13.13-.19.2-.01.02-.03.03-.04.05-.6.7-.95,1.61-.95,2.61s.36,1.9.95,2.6c.02.02.04.04.05.06.06.06.12.13.18.19.73.73,1.74,1.18,2.85,1.18.73,0,1.42-.19,2.01-.53h0ZM28.07,20.61l1.68,2.91c.16.28.07.63-.21.79-.28.16-.63.07-.79-.21l-1.68-2.91c-.64.28-1.34.44-2.08.44-1.43,0-2.73-.58-3.66-1.52h0s-.08-.08-.08-.08h-6.56c-.44,0-.85-.18-1.14-.47-.29-.29-.47-.7-.47-1.14v-3.94c0-.44.18-.85.47-1.14.29-.29.7-.47,1.14-.47h6.56l.08-.08h0c.94-.94,2.24-1.52,3.66-1.52s2.73.58,3.66,1.52h0s.08.08.08.08h6.56c.44,0,.85.18,1.14.47.29.29.47.7.47,1.14v3.94c0,.44-.18.85-.47,1.14-.29.29-.7.47-1.14.47h-6.56l-.08.08h0c-.18.18-.38.35-.59.51h0ZM29.58,14.01c.39.72.6,1.55.6,2.43s-.22,1.7-.6,2.43h5.73c.13,0,.24-.05.33-.14.08-.08.14-.2.14-.33v-3.94c0-.13-.05-.24-.14-.33-.08-.08-.2-.14-.33-.14h-5.73ZM20.42,18.87c-.39-.72-.6-1.55-.6-2.43s.22-1.7.6-2.43h-5.73c-.13,0-.24.05-.33.14s-.14.2-.14.33v3.94c0,.13.05.24.14.33s.2.14.33.14h5.73ZM8.23,5.29h24.24c.32,0,.58.26.58.58s-.26.58-.58.58H8.23v13.99c0,.32-.26.58-.58.58s-.58-.26-.58-.58V4.84c0-1.33.54-2.54,1.42-3.42.87-.88,2.09-1.42,3.42-1.42h26.17c1.33,0,2.54.54,3.42,1.42l.03.03c.86.87,1.39,2.07,1.39,3.39v21.32c0,1.33-.54,2.54-1.42,3.42l-.03.03c-.87.86-2.07,1.39-3.39,1.39H11.92c-1.33,0-2.54-.54-3.42-1.42h0c-.88-.88-1.42-2.09-1.42-3.42v-2.31c0-.32.26-.58.58-.58s.58.26.58.58v2.31c0,1.01.41,1.94,1.08,2.6.67.67,1.59,1.08,2.6,1.08h26.17c1,0,1.91-.4,2.57-1.05l.03-.03c.67-.67,1.08-1.59,1.08-2.6V6.45h-5.89c-.32,0-.58-.26-.58-.58s.26-.58.58-.58h5.89v-.45c0-1-.4-1.91-1.05-2.57l-.03-.03c-.67-.67-1.59-1.08-2.6-1.08H11.92c-1.01,0-1.93.41-2.6,1.08-.67.67-1.08,1.59-1.08,2.6v.45h0ZM34.03,6.44c-.32,0-.58-.26-.58-.58s.26-.58.58-.58h.28c.32,0,.58.26.58.58s-.26.58-.58.58h-.28Z"/>
    </g>
  </g>
</svg>