<?xml version="1.0" encoding="UTF-8"?>
<svg xmlns="http://www.w3.org/2000/svg" version="1.1" xmlns:xlink="http://www.w3.org/1999/xlink" viewBox="0 0 196 120">
  <defs>
    <style>
      .cls-1 {
        fill: none;
      }

      .cls-2 {
        clip-path: url(#clippath-1);
      }

      .cls-3 {
        fill: #f15d22;
      }

      .cls-4 {
        display: none;
      }

      .cls-5 {
        clip-path: url(#clippath-2);
      }

      .cls-6 {
        clip-path: url(#clippath);
      }
    </style>
    <clipPath id="clippath">
      <rect class="cls-1" width="196" height="120"/>
    </clipPath>
    <clipPath id="clippath-1">
      <rect class="cls-1" width="196" height="120"/>
    </clipPath>
    <clipPath id="clippath-2">
      <rect class="cls-1" width="196" height="120"/>
    </clipPath>
  </defs>
  <!-- Generator: Adobe Illustrator 28.6.0, SVG Export Plug-In . SVG Version: 1.2.0 Build 709)  -->
  <g>
    <g id="Layer_1">
      <g class="cls-4">
        <g class="cls-6">
          <path class="cls-3" d="M105.5,120c-2.3,0-4.1-1.9-4.1-4.1v-48.5c0-2.3,1.9-4.1,4.1-4.1h16.7c2.3,0,4.1,1.9,4.1,4.1v48.5c0,2.3-1.9,4.1-4.1,4.1h-16.7ZM105.5,66.7c-.4,0-.7.3-.7.7v48.5c0,.4.3.7.7.7h16.7c.4,0,.7-.3.7-.7v-48.5c0-.4-.3-.7-.7-.7h-16.7ZM137.1,120c-2.3,0-4.1-1.9-4.1-4.1V33.6c0-2.3,1.9-4.1,4.1-4.1h16.7c2.3,0,4.1,1.9,4.1,4.1v82.3c0,2.3-1.9,4.1-4.1,4.1h-16.7ZM137.1,32.8c-.4,0-.7.3-.7.7v82.3c0,.4.3.7.7.7h16.7c.4,0,.7-.3.7-.7V33.6c0-.4-.3-.7-.7-.7h-16.7ZM73.8,120c-2.3,0-4.1-1.9-4.1-4.1v-60.1c0-2.3,1.9-4.1,4.1-4.1h16.7c2.3,0,4.1,1.9,4.1,4.1v60.1c0,2.3-1.9,4.1-4.1,4.1h-16.7ZM73.8,55c-.4,0-.7.3-.7.7v60.1c0,.4.3.7.7.7h16.7c.4,0,.7-.3.7-.7v-60.1c0-.4-.3-.7-.7-.7h-16.7ZM42.2,120c-2.3,0-4.1-1.9-4.1-4.1v-30.3c0-2.3,1.9-4.1,4.1-4.1h16.7c2.3,0,4.1,1.9,4.1,4.1v30.3c0,2.3-1.9,4.1-4.1,4.1h-16.7ZM42.2,84.8c-.4,0-.7.3-.7.7v30.3c0,.4.3.7.7.7h16.7c.4,0,.7-.3.7-.7v-.5h0v-29.8c0-.4-.3-.7-.7-.7h-16.7ZM50.5,70.9c-5.1,0-9.3-4.2-9.3-9.3,0-5.1,4.2-9.3,9.3-9.3s3.6.6,5.2,1.6l18.8-19.2c-1.1-1.6-1.7-3.4-1.7-5.3,0-5.1,4.2-9.3,9.3-9.3s9.3,4.2,9.3,9.3,0,1-.1,1.6l14.5,5.3c1.7-2.8,4.7-4.5,8-4.5s3.7.6,5.3,1.6l18.8-18.7c-1.1-1.6-1.6-3.4-1.6-5.3,0-5.1,4.2-9.3,9.3-9.3s9.3,4.2,9.3,9.3-4.2,9.3-9.3,9.3-3.7-.6-5.3-1.6l-18.7,18.7c1.1,1.6,1.6,3.4,1.6,5.3,0,5.1-4.2,9.3-9.3,9.3s-9.3-4.2-9.3-9.3,0-1,.1-1.6l-14.5-5.3c-1.7,2.8-4.7,4.5-8,4.5s-3.6-.6-5.2-1.6l-18.9,19.2c1.1,1.6,1.7,3.4,1.7,5.3,0,5.1-4.2,9.3-9.3,9.3ZM50.5,55.7c-3.3,0-5.9,2.6-5.9,5.9s2.6,5.9,5.9,5.9,5.9-2.6,5.9-5.9-2.6-5.9-5.9-5.9ZM113.8,35.1c-3.2,0-5.9,2.6-5.9,5.9,0,3.2,2.6,5.9,5.9,5.9s5.9-2.6,5.9-5.9-2.6-5.9-5.9-5.9ZM82.2,23.4c-3.3,0-5.9,2.6-5.9,5.9s2.6,5.9,5.9,5.9,5.9-2.6,5.9-5.9-2.6-5.9-5.9-5.9ZM145.5,3.4c-3.2,0-5.9,2.6-5.9,5.9,0,3.2,2.6,5.9,5.9,5.9s5.9-2.6,5.9-5.9-2.6-5.9-5.9-5.9Z"/>
        </g>
      </g>
      <g class="cls-4">
        <g class="cls-2">
          <path class="cls-3" d="M98,120c-9.5,0-17.6-7.3-18.6-16.7h-19.4c-3.2,0-6.1-1.8-7.6-4.6-1.1-2-1.3-4.4-.6-6.5.7-2.2,2.2-4,4.2-5,9.4-7.7,8.7-23.9,8.1-36.8-.1-3.1-.3-6.1-.3-8.8,0-13.8,11.1-25.9,26.5-29.1v-5.8c0-3.7,3.5-6.7,7.8-6.7s7.8,3,7.8,6.7v5.8c15.4,3.1,26.5,15.3,26.5,29.1s-.1,5.7-.3,8.8c-.6,13-1.3,29.1,8.1,36.9,2.8,1.5,4.5,4.4,4.5,7.6,0,4.7-3.9,8.6-8.6,8.6h-19.4c-1,8.9-8.1,15.8-17,16.6-.5,0-1.1,0-1.6,0ZM83.5,103.3c1,7.2,7.2,12.5,14.5,12.5,7.3,0,13.4-5.4,14.5-12.5h-28.9ZM57.6,91c-1.3.8-2.1,2.2-2.1,3.8,0,2.4,2,4.4,4.4,4.4h76.3c1.6,0,3.1-1,3.8-2.4.5-1.1.6-2.3.2-3.4s-1.2-2-2.2-2.6c0,0-.2,0-.3-.2,0,0-.1,0-.2-.1-11.2-9-10.4-26.4-9.7-40.4.1-3.1.3-6,.3-8.6,0-14.2-13.5-25.7-30.2-25.7s-15.6,2.7-21.3,7.6c-5.7,4.9-8.8,11.3-8.8,18.1,0,2.6.1,5.5.3,8.6.6,12.1,1.3,27.1-6.1,36.7h22.9c1.1,0,2,.9,2,2,0,1.1-.9,2.1-2,2.1h-27.3ZM98,4.2c-1.9,0-3.7,1.2-3.7,2.5v5.1c1.2-.1,2.4-.2,3.7-.2s2.4,0,3.7.2v-5.1c0-1.3-1.7-2.5-3.7-2.5ZM74.8,72.8c-.2,0-.5,0-.7-.1-.5-.2-.9-.6-1.2-1.1-.2-.5-.3-1.1,0-1.6.6-1.7,1-3.5,1.1-5.3,0-1.1,1-1.9,2.1-1.9s.1,0,.2,0c1.1,0,2,1.1,1.9,2.2h0s0,0,0,0c-.2,2.2-.6,4.3-1.4,6.4-.3.8-1.1,1.4-2,1.4ZM76.1,61.2c-1.1,0-2-.9-2.1-2-.1-2.7-.4-5.4-.8-8-.6-4.9-1.2-9.5-.2-14,.2-1,1.1-1.6,2-1.6s.3,0,.4,0c.5.1,1,.4,1.3.9.3.5.4,1,.3,1.6-.8,3.8-.3,8,.3,12.5.3,2.7.7,5.5.8,8.4,0,1.1-.9,2.1-2,2.2h0Z"/>
        </g>
      </g>
      <g class="cls-5">
        <g>
          <path class="cls-3" d="M40.5,64.7c-.6,0-1.2-.2-1.6-.6-.5-.4-.7-.9-.9-1.4v-.5c0-.7.2-1.4.8-2l33-33c2.4-2.5,5.7-3.8,9.1-3.8s3.7.4,5.4,1.2c1.3.6,2.6,1.5,3.9,2.8l13,13c1.4,1.4,3.3,2.2,5.3,2.2s3.9-.8,5.3-2.2L148.7,5.4h-27.4c-.8,0-1.5-.3-2-.9-.5-.6-.8-1.3-.7-2.1.1-1.4,1.5-2.4,3.1-2.4h25.1c6.2,0,11.2,5,11.2,11.2v25.1c0,1.5-1.1,2.9-2.4,3.1,0,0-.2,0-.3,0-.7,0-1.3-.2-1.8-.7-.6-.5-.9-1.3-.9-2V9.2l-34.8,34.8c-2.4,2.4-5.7,3.8-9.1,3.8s-3.7-.4-5.4-1.1c-1.3-.6-2.6-1.5-3.9-2.8l-13-13c-1.4-1.4-3.3-2.2-5.3-2.2s-3.9.8-5.3,2.2l-32.7,32.7c-.6.6-1.6,1-2.4,1Z"/>
          <path class="cls-3" d="M66.1,120c-10.8,0-19.7-8.8-19.7-19.7v-6.4c0-.8.3-1.5.9-2,.5-.5,1.1-.7,1.8-.7h.3c1.4.1,2.4,1.5,2.4,3.1v6c0,7.9,6.4,14.3,14.3,14.3h63.6c7.9,0,14.3-6.4,14.3-14.3v-29.3c0-1.5,1.1-2.9,2.4-3.1.1,0,.2,0,.3,0,.7,0,1.3.2,1.8.7.6.5.9,1.2.9,2v29.7c0,5.3-2,10.2-5.8,13.9-3.7,3.7-8.7,5.8-13.9,5.8h-63.6Z"/>
        </g>
      </g>
    </g>
  </g>
</svg>