<svg id="app_migration" data-name="app migration" xmlns="http://www.w3.org/2000/svg" viewBox="0 0 40 40"><defs><style>.cls-1{fill:#3b82f6;}</style></defs><path class="cls-1" d="M20,40H2.74a1.18,1.18,0,0,1-1-.4C1.28,39,.74,38.52.23,38A.86.86,0,0,1,0,37.48c0-.78,0-1.57,0-2.36,0-.37.2-.47.52-.46.58,0,1.17,0,1.75,0,.33,0,.41-.12.41-.45q0-8.9,0-17.81c0-1.1,0-2.21,0-3.31a3,3,0,0,1,2.75-2.87h.17a.54.54,0,0,1,.58.43.52.52,0,0,1-.54.53,2.06,2.06,0,0,0-2,2.13c0,3.34,0,6.67,0,10,0,3.53,0,7.06,0,10.6,0,.79-.13.78.76.78H34.93c.36,0,.71,0,1.06,0s.39-.1.39-.4c0-1.79,0-3.58,0-5.37V13.79a5.11,5.11,0,0,0-.12-1.17,1.83,1.83,0,0,0-1.38-1.35c-.21-.07-.43-.1-.64-.16s-.44-.16-.41-.46.2-.45.54-.45a3,3,0,0,1,3,3c0,2.41,0,4.81,0,7.22q0,6.9,0,13.8c0,.37.12.46.45.46.63,0,1.25,0,1.88,0,.24,0,.35.08.35.35,0,.81,0,1.62,0,2.43a1.09,1.09,0,0,1-.3.63,22.41,22.41,0,0,1-1.59,1.64,1.23,1.23,0,0,1-.78.24c-1.45,0-2.89,0-4.34,0H20Zm0-4.38H1.31c-.3,0-.34.11-.39.39a2.29,2.29,0,0,0,.94,2.3,2.2,2.2,0,0,1,.33.35,1,1,0,0,0,.9.39q16.77,0,33.54,0c.57,0,1.06,0,1.38-.58a1.47,1.47,0,0,1,.22-.21c1-1,.82-.55.85-2.06,0-.56,0-.57-.56-.57Z" transform="translate(0 0)"/><path class="cls-1" d="M20,33H6.12c-.88,0-.88,0-.89-.9q0-7.58,0-15.16c0-1.22,0-2.44,0-3.66,0-.42.18-.57.57-.51a.35.35,0,0,1,.35.36c0,.24,0,.48,0,.73q0,8.67,0,17.36c0,1-.11.81.79.81H33.38c.48,0,.48,0,.48-.47,0-.86,0-1.72,0-2.58V13.77c0-.2,0-.4,0-.59a.4.4,0,0,1,.47-.4.41.41,0,0,1,.44.39,3,3,0,0,1,0,.42q0,9.32,0,18.62c0,.82,0,.83-.83.83H20Z" transform="translate(0 0)"/><path class="cls-1" d="M26.11,11.22a7.17,7.17,0,0,1-.5.69.67.67,0,0,0-.14.77,1.23,1.23,0,0,0,1.38,1c.32,0,.44.16.44.47,0,.71,0,1.42,0,2.13a.49.49,0,0,1-.48.53h0c-1,.15-1,.15-1.36,1.15a.67.67,0,0,0,.08.5c.71,1,.71,1-.14,1.83l-1,1a.34.34,0,0,1-.49,0c-.2-.17-.43-.31-.63-.48a.42.42,0,0,0-.55-.07,3.75,3.75,0,0,1-.69.29.5.5,0,0,0-.37.52,4.92,4.92,0,0,1-.09.76.4.4,0,0,1-.45.33H19c-.39,0-.53-.15-.58-.54V22A1,1,0,0,0,17.72,21c-.49-.18-.85-.29-1.2.18a.75.75,0,0,1-.35.22c-.14,0-.36.07-.44,0-.57-.54-1.12-1.1-1.65-1.67a.55.55,0,0,1,0-.47,3.39,3.39,0,0,1,.43-.66.5.5,0,0,0,.08-.58,2,2,0,0,1-.22-.47c-.06-.46-.34-.57-.76-.6-.87-.07-.88-.09-.88-1,0-.58,0-1.16,0-1.74,0-.25.09-.48.39-.46.86.06,1.28-.42,1.48-1.2a.5.5,0,0,0-.1-.53c-.7-.83-.78-.82.05-1.68l1-1a.46.46,0,0,1,.72-.06,4.51,4.51,0,0,0,.59.47.61.61,0,0,0,.42,0,6.27,6.27,0,0,0,.88-.37.5.5,0,0,0,.21-.3c.06-.32.07-.65.16-1a.43.43,0,0,1,.33-.25c.77,0,1.55,0,2.32,0a.44.44,0,0,1,.27.2,1.8,1.8,0,0,1,.12.47c0,.18,0,.37.07.55.07.41,1.23.85,1.55.58.16-.13.33-.24.48-.38a.48.48,0,0,1,.75,0c.49.48,1,1,1.45,1.48A2.2,2.2,0,0,1,26.11,11.22ZM24,20.33c.14-.14.25-.27.37-.37.58-.51.6-.56.11-1.14a.77.77,0,0,1-.11-.95,7.46,7.46,0,0,0,.47-1.09c.24-.7.28-.74,1-.77a.64.64,0,0,0,.24,0c.08,0,.19-.1.19-.15a3.38,3.38,0,0,0,0-1.1c0-.13-.45-.16-.7-.23a.64.64,0,0,0-.2,0c-.24,0-.36-.15-.43-.37a4.18,4.18,0,0,0-.36-1,1.16,1.16,0,0,1,.18-1.73.31.31,0,0,0,0-.31c-.25-.3-.53-.57-.79-.84l-.69.58a.53.53,0,0,1-.68,0,3.27,3.27,0,0,0-1-.47c-.72-.15-1.06-.52-1-1.27,0-.2-.09-.29-.29-.29s-.55,0-.82,0-.26.08-.27.26-.05.42-.07.63a.54.54,0,0,1-.43.53,7.05,7.05,0,0,0-1.3.52.84.84,0,0,1-1.13-.14c-.4-.38-.42-.36-.79,0l-.35.33a.25.25,0,0,0,0,.41,2.71,2.71,0,0,1,.41.55.76.76,0,0,1,0,.51c-.13.4-.38.77-.48,1.18-.15.67-.46,1-1.17,1-.11,0-.33.13-.33.21a3.12,3.12,0,0,0,0,1.1c0,.1.44.1.68.14l.14,0a.56.56,0,0,1,.5.45,3.67,3.67,0,0,0,.37,1,1.15,1.15,0,0,1-.16,1.7c-.16.15-.13.28,0,.42s.17.19.26.27c.46.45.46.45,1,.06.07-.06.16-.1.22-.16a.5.5,0,0,1,.63,0,7.62,7.62,0,0,0,1.32.54.78.78,0,0,1,.63.78c.06.69.08.69.79.71s.61.07.65-.6c0-.1,0-.2,0-.31,0-.3.17-.4.42-.5a14,14,0,0,0,1.55-.64.48.48,0,0,1,.59,0C23.54,19.94,23.78,20.13,24,20.33Z" transform="translate(0 0)"/><path class="cls-1" d="M23.75,1a5.34,5.34,0,0,0-4.63,2.56L19,3.74c-.4.64-.4.64-1.14.5a4.73,4.73,0,0,0-5.38,3.59c0,.11-.05.23-.08.34-.13.43-.22.5-.66.47a3.36,3.36,0,0,0-2.92,1,3.07,3.07,0,0,0,1.38,5,6,6,0,0,0,1,.18c.42.06.52.15.51.52s-.3.41-.55.41a4,4,0,0,1-3.39-1.72,3.8,3.8,0,0,1-.28-4.24,3.79,3.79,0,0,1,3.55-2.13c.3,0,.45-.06.55-.39a5.6,5.6,0,0,1,6-4.06.74.74,0,0,0,.8-.4A6.17,6.17,0,0,1,24.66.07a6.29,6.29,0,0,1,5.12,4,6,6,0,0,1,.42,3.47c0,.24,0,.32.24.41a4.11,4.11,0,0,1,2.37,4.94,4,4,0,0,1-4.14,2.88c-.22,0-.44-.12-.41-.41s.1-.49.45-.5a3.23,3.23,0,0,0,2.63-1.18,3.1,3.1,0,0,0-1.15-4.76,5.84,5.84,0,0,0-.59-.2c-.48-.16-.54-.26-.44-.75a6.41,6.41,0,0,0,.07-2.39A5.55,5.55,0,0,0,23.75,1Z" transform="translate(0 0)"/><path class="cls-1" d="M29.47,28.43c0,.57,0,1.14-.07,1.71a.29.29,0,0,1-.33.31H26.61c-.29,0-.34-.19-.35-.41,0-.62,0-1.24,0-1.85,0-.37,0-.75,0-1.12s-.06-.38-.35-.37a4.33,4.33,0,0,1-.88,0c-.15,0-.37-.11-.39-.22a.72.72,0,0,1,.07-.56,5.28,5.28,0,0,1,.68-.74L27.48,23c.27-.28.42-.29.7,0,.94.94,1.88,1.89,2.8,2.86a.67.67,0,0,1,.13.52.41.41,0,0,1-.49.32c-.29,0-.57,0-.86,0s-.31.08-.31.31c0,.48,0,1,0,1.43Zm-3.29-2.74c.23,0,.36.07.49.08.46,0,.51.05.52.53,0,.75,0,1.51,0,2.26,0,.92,0,.92.92.93.28,0,.4-.07.4-.39,0-1,0-1.91,0-2.86,0-.32.12-.47.43-.48l.56-.07c-.56-.57-1.05-1.08-1.56-1.57,0,0-.21,0-.27.07-.3.29-.58.59-.87.89Z" transform="translate(0 0)"/><path class="cls-1" d="M10.58,24.87c0-.48,0-.95,0-1.43s.06-.6.59-.61h2.05c.39,0,.51.09.54.5s0,1,0,1.46,0,1,0,1.5c0,.24.09.33.33.32a4.31,4.31,0,0,1,.88,0,.83.83,0,0,1,.46.34.55.55,0,0,1-.11.45c-.93,1-1.88,1.92-2.82,2.89a.44.44,0,0,1-.71,0c-.94-1-1.88-1.92-2.8-2.9a.54.54,0,0,1-.09-.49.62.62,0,0,1,.41-.28,4,4,0,0,1,.85,0c.29,0,.42-.06.4-.38s0-.91,0-1.36Zm3.18,2.75-.45-.06c-.33,0-.49-.12-.49-.49,0-.79,0-1.58,0-2.37s0-.88-.87-.9c-.35,0-.45.1-.45.45,0,.94,0,1.88,0,2.82,0,.3-.12.45-.41.47s-.35,0-.44.05l1.49,1.63Z" transform="translate(0 0)"/><path class="cls-1" d="M24,2.59a4,4,0,0,1,3.77,3.78c0,.45-.07.57-.41.61a.4.4,0,0,1-.51-.36,6.77,6.77,0,0,0-.35-1.34,2.88,2.88,0,0,0-2.62-1.76c-.25,0-.44-.08-.51-.36s0-.54.39-.57Z" transform="translate(0 0)"/><path class="cls-1" d="M20.05,37.78H17.9c-.49,0-.64-.22-.47-.69a.39.39,0,0,1,.27-.23c1.54,0,3.09,0,4.64,0,.23,0,.31.11.28.32s.08.57-.31.58l-1.64,0h-.62Z" transform="translate(0 0)"/><path class="cls-1" d="M23.84,15.32a3.83,3.83,0,1,1-3.75-4A3.85,3.85,0,0,1,23.84,15.32Zm-6.71-.05A2.88,2.88,0,1,0,20,12.34,2.94,2.94,0,0,0,17.13,15.27Z" transform="translate(0 0)"/></svg>