<?xml version="1.0" encoding="UTF-8"?>
<svg id="Layer_2" xmlns="http://www.w3.org/2000/svg" xmlns:xlink="http://www.w3.org/1999/xlink" viewBox="0 0 98 60">
  <defs>
    <style>
      .cls-1 {
        fill: none;
      }

      .cls-2 {
        fill: #f15f26;
      }

      .cls-3 {
        clip-path: url(#clippath);
      }
    </style>
    <clipPath id="clippath">
      <rect class="cls-1" width="98" height="60"/>
    </clipPath>
  </defs>
  <g id="svg31911">
    <g class="cls-3">
      <g id="layer1">
        <path id="path13423" class="cls-2" d="M30,0c-1.66,0-3,1.34-3,3v32c0,.55.45,1,1,1s1-.45,1-1V10h40v25c0,.55.45,1,1,1s1-.45,1-1V3c0-1.66-1.34-3-3-3H30ZM30,2h38c.55,0,1,.45,1,1v5H29V3c0-.55.45-1,1-1ZM32,4c-.55,0-1,.45-1,1s.45,1,1,1,1-.45,1-1-.45-1-1-1ZM36,4c-.55,0-1,.45-1,1s.45,1,1,1,1-.45,1-1-.45-1-1-1ZM40,4c-.55,0-1,.45-1,1s.45,1,1,1,1-.45,1-1-.45-1-1-1ZM54,4c-.55,0-1,.45-1,1s.45,1,1,1h12c.55,0,1-.45,1-1s-.45-1-1-1h-12ZM22,6c-1.66,0-3,1.34-3,3v36c0,1.66,1.34,3,3,3h54c1.66,0,3-1.34,3-3V9c0-1.66-1.34-3-3-3h-2c-.55,0-1,.45-1,1s.45,1,1,1h2c.55,0,1,.45,1,1v29H21V9c0-.55.45-1,1-1h2c.55,0,1-.45,1-1s-.45-1-1-1h-2ZM52,14c-.46-.02-.87.27-1,.71l-6,18c-.18.52.11,1.09.63,1.27s1.09-.11,1.27-.63l6-18c.19-.52-.07-1.09-.59-1.29-.1-.04-.21-.06-.31-.06ZM56.35,19.79l5.09,4.21-5.08,4.23c-.43.35-.48.98-.13,1.41s.98.48,1.41.13l6-5c.43-.35.48-.98.13-1.41-.04-.05-.08-.09-.13-.13l-6-5c-.18-.15-.41-.23-.64-.23-.55.02-.98.48-.96,1.03.01.29.15.56.37.75h-.06ZM41,18c-.22,0-.44.09-.61.24l-6,5c-.43.35-.48.98-.13,1.41.04.05.08.09.13.13l6,5c.43.35,1.06.3,1.41-.13s.3-1.06-.13-1.41l-5.11-4.24,5.08-4.23c.43-.35.48-.98.13-1.41-.19-.23-.47-.36-.77-.36ZM21,40h56v5c0,.55-.45,1-1,1H22c-.55,0-1-.45-1-1v-5ZM51.05,42h-4.05c-.55,0-1,.45-1,1s.45,1,1,1h4c.55,0,1-.45,1-1s-.45-1-1-1h.05ZM43.39,49.92c-.4,0-.77.22-.93.59-.68,1.36-1.65,2.55-2.84,3.49h-1.62c-1.66,0-3,1.34-3,3v2c0,.55.45,1,1,1h26c.55,0,1-.45,1-1v-2c0-1.66-1.34-3-3-3h-1.62c-1.19-.94-2.16-2.13-2.84-3.49-.17-.39-.57-.63-1-.59-.55.03-.98.49-.95,1.05,0,.14.04.27.1.39.48.96,1.1,1.85,1.83,2.64h-13c.72-.79,1.32-1.68,1.79-2.64.24-.5.04-1.09-.46-1.34-.14-.07-.3-.11-.46-.1ZM38,56h22c.55,0,1,.45,1,1v1h-24v-1c0-.55.45-1,1-1Z"/>
      </g>
    </g>
  </g>
</svg>