<?xml version="1.0" encoding="UTF-8"?>
<svg id="Layer_2" xmlns="http://www.w3.org/2000/svg" xmlns:xlink="http://www.w3.org/1999/xlink" viewBox="0 0 196 120">
  <defs>
    <style>
      .cls-1 {
        fill: none;
      }

      .cls-2 {
        fill: #f15e24;
      }

      .cls-3 {
        clip-path: url(#clippath);
      }
    </style>
    <clipPath id="clippath">
      <rect class="cls-1" width="196" height="120"/>
    </clipPath>
  </defs>
  <g id="Layer_2-2" data-name="Layer_2">
    <g id="Layer_1-2">
      <g class="cls-3">
        <g>
          <path class="cls-2" d="M153.95,87.96c-.08-.76-.73-1.33-1.49-1.33h-.14c-.16.02-.32.02-.48.02-1.97,0-3.77-1.23-4.47-3.06-.79-2-.14-4.29,1.59-5.56.66-.49.81-1.4.35-2.07-1.62-2.36-3.61-4.43-5.92-6.17-.27-.2-.58-.3-.92-.3-.46,0-.89.21-1.19.57-.91,1.11-2.27,1.75-3.72,1.75-.67,0-1.31-.14-1.93-.4-1.97-.87-3.13-2.96-2.83-5.07.12-.81-.44-1.58-1.23-1.72-1.59-.29-3.2-.43-4.79-.43-.92,0-1.85.05-2.76.15-.84.1-1.44.85-1.34,1.68.09.77.74,1.35,1.5,1.35h.17c.77-.08,1.57-.12,2.37-.12.99,0,2,.06,3.03.18.16,2.94,1.97,5.58,4.67,6.77,1,.44,2.06.66,3.15.66,1.84,0,3.61-.63,5.01-1.79,1.26,1.06,2.42,2.27,3.44,3.59-1.98,2.19-2.56,5.33-1.48,8.08,1.07,2.75,3.63,4.68,6.57,4.96.14,1.64.1,3.31-.1,4.97-2.95.16-5.59,1.96-6.79,4.66-1.19,2.71-.75,5.87,1.13,8.14-1.08,1.26-2.29,2.42-3.59,3.44-1.44-1.3-3.3-2.01-5.26-2.01-.98,0-1.93.18-2.84.53-2.77,1.08-4.7,3.64-4.97,6.56-.64.05-1.28.07-1.92.07-1.17,0-2.35-.08-3.51-.24-.07-.01-.14-.02-.22-.02-.76,0-1.4.55-1.51,1.29-.12.83.46,1.6,1.28,1.72,1.29.19,2.62.29,3.94.29s2.49-.08,3.67-.25c.81-.12,1.39-.86,1.3-1.65-.22-2.12,1.03-4.16,3.04-4.94.55-.21,1.14-.32,1.73-.32,1.51,0,2.95.71,3.84,1.91.29.39.73.61,1.2.61.31,0,.62-.1.88-.28,2.37-1.64,4.45-3.62,6.18-5.91.49-.66.38-1.58-.26-2.09-1.65-1.35-2.21-3.67-1.36-5.64.78-1.74,2.5-2.87,4.4-2.87.22,0,.45.02.68.05.07.01.15.02.22.02.73,0,1.35-.51,1.5-1.24.52-2.83.58-5.7.17-8.52v-.02Z"/>
          <path class="cls-2" d="M126.68,100.05c-.71,0-1.41-.09-2.1-.27-.13-.03-.26-.05-.39-.05-.69,0-1.28.45-1.47,1.13-.1.39-.04.82.16,1.17.21.35.54.59.92.69.94.25,1.91.37,2.89.37,4.57,0,8.72-2.69,10.56-6.85,2.54-5.8-.1-12.57-5.88-15.1-1.47-.65-3.02-.98-4.59-.98-1,0-2,.13-2.98.4-.8.21-1.28,1.05-1.07,1.86.17.66.78,1.12,1.47,1.12.13,0,.26-.02.4-.05.72-.2,1.46-.3,2.19-.3,1.14,0,2.26.24,3.34.72,4.26,1.87,6.2,6.85,4.33,11.1-1.36,3.06-4.41,5.03-7.78,5.03h0Z"/>
          <path class="cls-2" d="M119.61,16.8v-8.77C119.61,3.6,116,0,111.56,0h-61.72C45.4,0,41.79,3.61,41.79,8.04v103.93c0,4.43,3.61,8.03,8.05,8.03h61.75c4.44,0,8.05-3.6,8.05-8.03V17.11l-.02-.31h-.01ZM116.57,8.03v7.57H44.81v-7.57c0-2.75,2.25-4.99,5.02-4.99h61.75c2.75,0,5,2.24,5,4.99h-.01ZM116.58,100.81H44.81V18.62h71.76v82.18h0ZM44.83,111.94v-8.1h71.76v8.09c-.02,2.75-2.27,4.99-5.02,4.99h-61.74c-2.76,0-5-2.24-5-4.99h0Z"/>
          <path class="cls-2" d="M73.45,111.9h14.49c.83,0,1.51-.68,1.51-1.5.01-.4-.13-.78-.41-1.06-.29-.29-.68-.46-1.1-.46h-14.49c-.83,0-1.51.68-1.51,1.51s.68,1.51,1.51,1.51Z"/>
          <path class="cls-2" d="M75.9,10.81h15.45c.83,0,1.51-.68,1.51-1.51,0-.4-.15-.78-.44-1.06-.29-.29-.67-.45-1.07-.45h-15.45c-.83,0-1.51.68-1.51,1.51s.68,1.51,1.51,1.51Z"/>
          <path class="cls-2" d="M70.05,10.85c.4,0,.78-.16,1.07-.45s.45-.67.45-1.08-.16-.77-.45-1.08c-.27-.27-.67-.43-1.08-.43s-.8.16-1.08.43c-.29.29-.45.68-.45,1.08s.16.79.45,1.08c.29.29.68.45,1.08.45h.01Z"/>
          <path class="cls-2" d="M84.78,32.58l5.6,4.39-5.6,4.37c-.33.25-.54.61-.6,1.01-.05.41.06.81.31,1.13.3.37.75.58,1.2.58.36,0,.69-.11.94-.33l7.12-5.57c.38-.29.59-.72.59-1.2s-.21-.89-.59-1.2l-7.12-5.57c-.27-.21-.59-.32-.94-.32-.47,0-.9.21-1.19.58-.51.66-.4,1.61.26,2.12h.02Z"/>
          <path class="cls-2" d="M73.14,43.74c.28.21.61.32.94.32.48,0,.92-.21,1.21-.59.51-.66.4-1.61-.26-2.12l-5.58-4.37,5.58-4.39c.66-.51.78-1.47.26-2.12-.29-.37-.73-.58-1.19-.58-.34,0-.66.11-.94.32l-7.11,5.56c-.4.29-.62.71-.62,1.19s.21.89.59,1.2l7.13,5.57h0Z"/>
          <path class="cls-2" d="M75.62,47.34c.19.36.52.63.9.74.14.05.3.07.44.07.67,0,1.26-.43,1.46-1.08l5.81-19.36c.12-.39.07-.81-.13-1.17-.19-.35-.51-.61-.89-.72-.14-.04-.29-.06-.44-.06-.67,0-1.27.45-1.45,1.08l-5.81,19.36c-.12.38-.08.78.1,1.14h0Z"/>
          <path class="cls-2" d="M53.91,71.62h53.17c.83,0,1.51-.68,1.51-1.51s-.68-1.51-1.51-1.51h-53.17c-.83,0-1.51.68-1.51,1.51s.69,1.51,1.51,1.51Z"/>
          <path class="cls-2" d="M107.08,82.15c.83,0,1.51-.68,1.51-1.51s-.68-1.51-1.51-1.51h-20.58c-.83,0-1.51.68-1.51,1.51s.68,1.51,1.51,1.51h20.58Z"/>
          <path class="cls-2" d="M53.91,82.17h21.67c.83,0,1.51-.68,1.51-1.51s-.68-1.51-1.51-1.51h-21.67c-.83,0-1.51.68-1.51,1.51s.68,1.51,1.51,1.51Z"/>
          <path class="cls-2" d="M92.92,59.55c0,.83.68,1.51,1.51,1.51h12.62c.83,0,1.51-.68,1.51-1.51s-.68-1.51-1.51-1.51h-12.62c-.83,0-1.51.68-1.51,1.51Z"/>
          <path class="cls-2" d="M53.91,61.06h34.29c.83,0,1.51-.68,1.51-1.51s-.68-1.51-1.51-1.51h-34.29c-.83,0-1.51.68-1.51,1.51s.68,1.51,1.51,1.51Z"/>
          <path class="cls-2" d="M72.25,89.68c-.83,0-1.51.68-1.51,1.51s.68,1.51,1.51,1.51h36c.83,0,1.51-.67,1.51-1.5.01-.4-.14-.78-.42-1.07-.29-.29-.68-.46-1.1-.46h-36,0Z"/>
          <path class="cls-2" d="M65.86,89.68h-11.94c-.83,0-1.51.68-1.51,1.51s.68,1.51,1.51,1.51h11.92c.83,0,1.51-.68,1.51-1.5.01-.4-.14-.78-.42-1.07s-.67-.45-1.08-.45h0Z"/>
        </g>
      </g>
    </g>
  </g>
</svg>