<?xml version="1.0" encoding="UTF-8"?>
<svg id="Layer_2" xmlns="http://www.w3.org/2000/svg" xmlns:xlink="http://www.w3.org/1999/xlink" viewBox="0 0 98 60">
  <defs>
    <style>
      .cls-1 {
        fill: none;
      }

      .cls-2 {
        fill: #f15f26;
      }

      .cls-3 {
        clip-path: url(#clippath);
      }
    </style>
    <clipPath id="clippath">
      <rect class="cls-1" width="98" height="60"/>
    </clipPath>
  </defs>
  <g id="svg31911">
    <g class="cls-3">
      <path class="cls-2" d="M49,26.34c-3.63,0-6.59,2.96-6.59,6.59s2.96,6.59,6.59,6.59,6.59-2.96,6.59-6.59-2.96-6.59-6.59-6.59ZM49,38.05c-2.82,0-5.12-2.3-5.12-5.12s2.3-5.12,5.12-5.12,5.12,2.3,5.12,5.12-2.3,5.12-5.12,5.12ZM75.34,40.98c-1.76,0-3.24,1.26-3.58,2.93h-4.46v-7.32c6.45,0,11.71-5.25,11.71-11.71s-5.25-11.71-11.71-11.71c-.25,0-.49,0-.72.02-2.26-7.8-9.4-13.19-17.57-13.19s-15.31,5.39-17.57,13.19c-.23-.01-.47-.02-.72-.02-6.45,0-11.71,5.25-11.71,11.71s5.25,11.71,11.71,11.71v7.32h-4.46c-.34-1.67-1.82-2.93-3.58-2.93-2.02,0-3.66,1.64-3.66,3.66s1.64,3.66,3.66,3.66c1.76,0,3.24-1.26,3.58-2.93h5.2c.4,0,.73-.33.73-.73v-8.05h4.73c.12,0,.22.07.25.17.21.64.46,1.25.77,1.84.05.09.02.21-.06.29l-1.09,1.09c-.33.33-.51.76-.51,1.23s.18.9.51,1.23l2.71,2.71v4.95l-5.47,3.65c-.67-.65-1.57-1.06-2.58-1.06-2.02,0-3.66,1.64-3.66,3.66s1.64,3.66,3.66,3.66,3.66-1.64,3.66-3.66c0-.49-.1-.95-.27-1.37l5.8-3.87c.2-.13.32-.37.32-.61v-4.85c.37-.05.72-.21,1-.48l1.08-1.08c.08-.08.21-.1.29-.06.59.3,1.21.56,1.84.76.09.03.17.13.17.25v1.54c0,.96.77,1.73,1.73,1.73h1.19s0,4.46,0,4.46c-1.67.34-2.93,1.82-2.93,3.58,0,2.02,1.64,3.66,3.66,3.66s3.66-1.64,3.66-3.66c0-1.76-1.26-3.24-2.93-3.58v-4.46h1.19c.96,0,1.73-.77,1.73-1.73v-1.54c0-.12.07-.22.17-.25.63-.21,1.25-.46,1.84-.76.09-.05.21-.02.29.06l1.08,1.08c.28.28.64.44,1,.48v4.85c0,.24.13.47.33.61l5.8,3.87c-.17.43-.28.89-.28,1.38,0,2.02,1.64,3.66,3.66,3.66s3.66-1.64,3.66-3.66-1.64-3.66-3.66-3.66c-1,0-1.91.41-2.58,1.06l-5.47-3.65v-4.95l2.72-2.72c.33-.33.51-.76.51-1.23s-.18-.9-.51-1.23l-1.08-1.08c-.08-.08-.11-.21-.06-.29.3-.59.56-1.21.76-1.84.03-.09.13-.17.25-.17h1.07s3.66,0,3.66,0v8.05c0,.4.33.73.73.73h5.2c.34,1.67,1.82,2.93,3.58,2.93,2.02,0,3.66-1.64,3.66-3.66s-1.64-3.65-3.66-3.65h0ZM22.66,46.83c-1.21,0-2.2-.99-2.2-2.2s.99-2.2,2.2-2.2,2.2.99,2.2,2.2-.99,2.2-2.2,2.2ZM31.44,58.54c-1.21,0-2.2-.99-2.2-2.2s.99-2.2,2.2-2.2,2.2.99,2.2,2.2-.99,2.2-2.2,2.2ZM51.2,56.34c0,1.21-.99,2.2-2.2,2.2s-2.2-.99-2.2-2.2.99-2.2,2.2-2.2,2.2.99,2.2,2.2ZM66.56,54.15c1.21,0,2.2.99,2.2,2.2s-.99,2.2-2.2,2.2-2.2-.99-2.2-2.2.99-2.2,2.2-2.2ZM20.46,24.88c0-5.65,4.6-10.24,10.24-10.24.42,0,.81.02,1.19.07.37.04.71-.19.8-.55,1.89-7.47,8.6-12.69,16.31-12.69s14.42,5.22,16.31,12.69c.09.36.42.59.8.55.37-.04.76-.07,1.19-.07,5.65,0,10.24,4.6,10.24,10.24s-4.6,10.24-10.24,10.24h-2.96c.01-.09.03-.17.03-.27v-3.85c0-.96-.77-1.73-1.73-1.73h-1.54c-.12,0-.22-.07-.25-.17-.21-.63-.46-1.25-.76-1.84-.04-.09-.02-.21.06-.29l1.08-1.08c.67-.67.67-1.78,0-2.45l-2.72-2.72c-.67-.67-1.78-.68-2.45,0l-1.09,1.09c-.08.08-.21.1-.29.06-.59-.3-1.21-.56-1.84-.77-.11-.03-.17-.13-.17-.25v-1.54c0-.96-.77-1.73-1.73-1.73h-3.85c-.96,0-1.73.78-1.73,1.74v1.54c0,.12-.07.22-.17.25-.64.21-1.26.47-1.84.77-.09.04-.21.02-.29-.06l-1.09-1.09c-.67-.67-1.78-.67-2.45,0l-2.72,2.72c-.67.67-.67,1.78,0,2.45l1.09,1.09c.08.08.11.21.06.29-.3.59-.56,1.2-.77,1.84-.03.11-.14.17-.25.17h-1.54c-.96,0-1.73.77-1.73,1.73v3.85c0,.09.01.18.03.27h-2.96c-5.65,0-10.24-4.6-10.24-10.25h0ZM62.17,35.12h-1.07c-.75,0-1.42.47-1.65,1.18-.18.56-.41,1.11-.67,1.62-.34.66-.21,1.46.33,2l1.08,1.08c.07.07.08.15.08.19,0,.04,0,.13-.08.19l-2.72,2.72c-.11.1-.28.1-.39,0l-1.08-1.08c-.53-.53-1.34-.67-2-.33-.52.26-1.07.49-1.62.67-.7.23-1.18.9-1.18,1.65v1.54c0,.15-.13.27-.27.27h-3.85c-.14,0-.27-.13-.27-.27v-1.54c0-.75-.47-1.42-1.18-1.65-.56-.18-1.11-.41-1.62-.67-.24-.13-.51-.18-.77-.18-.45,0-.89.17-1.23.51l-1.08,1.08c-.1.1-.28.1-.39,0l-2.72-2.72c-.07-.07-.08-.15-.08-.19s0-.13.08-.19l1.09-1.09c.53-.53.67-1.34.32-2-.26-.51-.49-1.06-.67-1.62-.23-.7-.89-1.17-1.65-1.17h-1.53c-.15,0-.27-.13-.27-.27v-3.85c0-.15.13-.27.27-.27h1.54c.75,0,1.41-.47,1.64-1.18.18-.56.41-1.11.67-1.62.34-.66.21-1.46-.32-2l-1.09-1.09c-.1-.11-.1-.28,0-.39l2.72-2.72c.11-.1.28-.11.39,0l1.09,1.09c.53.53,1.34.67,2,.32.51-.26,1.06-.49,1.62-.67.7-.22,1.18-.89,1.18-1.64v-1.54c0-.15.13-.27.27-.27h3.85c.15,0,.27.13.27.27v1.54c0,.75.47,1.41,1.18,1.64.56.18,1.11.41,1.62.67.67.34,1.46.21,2-.32l1.09-1.09c.11-.1.28-.1.39,0l2.72,2.72c.1.11.1.28,0,.39l-1.08,1.08c-.53.53-.67,1.34-.33,2,.26.52.49,1.07.67,1.62.22.71.88,1.19,1.64,1.19h1.54c.15,0,.27.13.27.27v3.85c0,.15-.13.27-.27.27h-.46ZM75.34,46.83c-1.21,0-2.2-.99-2.2-2.2s.99-2.2,2.2-2.2,2.2.99,2.2,2.2-.99,2.2-2.2,2.2ZM39.7,10.53c-.29-.29-.29-.75,0-1.03,2.35-2.35,5.47-3.64,8.8-3.64s6.45,1.29,8.8,3.64c.29.29.29.75,0,1.03-.15.15-.33.21-.52.21s-.37-.07-.52-.21c-2.06-2.07-4.82-3.21-7.75-3.21s-5.69,1.14-7.76,3.21c-.28.29-.75.29-1.03,0h0Z"/>
    </g>
  </g>
</svg>