<?xml version="1.0" encoding="UTF-8"?>
<svg id="Layer_2" xmlns="http://www.w3.org/2000/svg" xmlns:xlink="http://www.w3.org/1999/xlink" viewBox="0 0 98 60">
  <defs>
    <style>
      .cls-1 {
        fill: none;
      }

      .cls-2 {
        fill: #f15f26;
      }

      .cls-3 {
        clip-path: url(#clippath);
      }
    </style>
    <clipPath id="clippath">
      <rect class="cls-1" width="98" height="60"/>
    </clipPath>
  </defs>
  <g id="svg31911">
    <g class="cls-3">
      <g>
        <path class="cls-2" d="M87.17,60H10.83c-2.84,0-5.14-2.3-5.15-5.14V5.14C5.69,2.3,7.99,0,10.83,0h76.34c2.84,0,5.14,2.3,5.15,5.14v49.72c0,2.84-2.31,5.14-5.15,5.14ZM10.83,2.2c-1.61.03-2.92,1.33-2.95,2.94v49.72c.03,1.63,1.37,2.94,3,2.94h76.29c1.63,0,2.97-1.31,3-2.94V5.14c-.03-1.63-1.37-2.94-3-2.94H10.83Z"/>
        <path class="cls-2" d="M87.17,60H10.83c-2.84,0-5.14-2.3-5.15-5.14v-6.32c0-.65.54-1.18,1.19-1.19h85.45v7.51c0,2.84-2.31,5.14-5.15,5.14ZM7.88,49.55v5.31c.03,1.63,1.37,2.94,3,2.94h76.29c1.63,0,2.97-1.31,3-2.94v-5.31H7.88Z"/>
        <circle class="cls-2" cx="49" cy="54.07" r="1.15"/>
        <path class="cls-2" d="M42.68,26.19c-.87-.51-1.57-1.27-2-2.18-.49-1.07-.73-2.25-.7-3.43v-10.91h2.4v11c-.07,1.05.27,2.08.94,2.89.7.7,1.66,1.06,2.65,1,1,.07,1.97-.3,2.68-1,.67-.81,1-1.84.94-2.89v-11h2.4v10.91c.01,1.18-.25,2.35-.76,3.42-.42.92-1.12,1.68-2,2.18-2.05.99-4.45.99-6.5,0h-.05Z"/>
        <path class="cls-2" d="M58.08,26.76h-2.39V9.67h2.39v17.09Z"/>
        <path class="cls-2" d="M73.68,36.35H23.68c-.61,0-1.1-.49-1.1-1.1s.49-1.1,1.1-1.1h50c.61,0,1.1.49,1.1,1.1s-.49,1.1-1.1,1.1Z"/>
        <path class="cls-2" d="M73.68,41.6H23.68c-.61,0-1.1-.49-1.1-1.1s.49-1.1,1.1-1.1h50c.61,0,1.1.49,1.1,1.1s-.49,1.1-1.1,1.1Z"/>
      </g>
    </g>
  </g>
</svg>