<?xml version="1.0" encoding="UTF-8"?>
<svg id="Layer_2" xmlns="http://www.w3.org/2000/svg" xmlns:xlink="http://www.w3.org/1999/xlink" viewBox="0 0 40 40">
  <defs>
    <style>
      .cls-1 {
        fill: none;
      }

      .cls-2 {
        fill: #f16129;
        fill-rule: evenodd;
      }

      .cls-3 {
        clip-path: url(#clippath);
      }
    </style>
    <clipPath id="clippath">
      <rect class="cls-1" width="40" height="40"/>
    </clipPath>
  </defs>
  <g id="Layer_1-2" data-name="Layer_1">
    <g class="cls-3">
      <path class="cls-2" d="M24.3,27.47l12.33-5.26c.57-.25,1.19-.25,1.74-.05.55.2,1.02.59,1.31,1.15l.07.13c.3.58.34,1.22.16,1.79-.18.58-.57,1.09-1.15,1.39l-14.12,7.61c-.98.6-1.95.98-2.9,1.15-.96.18-1.91.15-2.83-.07-.02,0-.03,0-.05-.02l-4.54-1.33c-.14-.04-.28-.06-.41-.05-.13,0-.27.04-.4.09l-.34.14c.01.24-.04.47-.13.68,0,.01-.01.02-.02.03-.16.33-.44.6-.8.74h-.03s-.81.3-.81.3c.13.41.09.83-.08,1.19-.18.39-.5.71-.93.88h-.04s-2.99,1.1-2.99,1.1c-.44.16-.91.13-1.31-.06-.4-.18-.74-.51-.91-.95-.1-.25.03-.53.28-.63.25-.1.53.03.63.28.07.19.22.34.4.42.18.08.39.1.58.03l3.01-1.09c.18-.07.32-.21.39-.37.08-.17.09-.36.02-.54h0s0,0,0-.02l-.13-.34s0-.02-.01-.02h0s-4.87-12.59-4.87-12.59c0-.02-.02-.04-.03-.06,0,0,0-.02,0-.02-.08-.15-.21-.27-.36-.34-.18-.08-.39-.1-.58-.03l-3.01,1.09c-.18.07-.32.21-.39.37-.08.17-.09.36-.02.54v.02s4.54,11.7,4.54,11.7c.1.25-.03.53-.28.63-.25.1-.53-.03-.63-.28L.1,25.07c-.16-.43-.13-.88.05-1.27.18-.39.5-.71.93-.88h.04s2.99-1.1,2.99-1.1c.44-.16.91-.13,1.31.06.22.1.42.25.59.43l.93-.34c.39-.14.8-.11,1.15.05.18.08.34.2.48.34l1.98-.8c.3-.12.59-.19.9-.2.3-.02.61.02.91.11l10.2,2.94c.67.19,1.2.64,1.51,1.21.31.55.41,1.2.24,1.85h0ZM12.16,34.03h0s0-.02,0-.02l-4.18-10.79s0-.02-.01-.03c0,0,0-.02-.01-.02-.06-.11-.15-.2-.27-.25-.13-.06-.28-.07-.42-.02l-.8.29,4.57,11.8.82-.3h0s0,0,0,0c.01,0,0,0,.01,0,.12-.05.22-.14.27-.25v-.02c.06-.12.07-.26.03-.39h0ZM12.89,33.21l.26-.11c.24-.1.48-.15.72-.16.24-.01.48.02.73.09l4.54,1.33c.79.19,1.6.21,2.43.06.83-.16,1.69-.49,2.57-1.03.01,0,.02-.01.03-.02l14.13-7.61c.34-.18.57-.48.67-.82.11-.34.08-.72-.09-1.06l-.07-.13c-.17-.33-.45-.57-.77-.68-.32-.12-.69-.12-1.03.03l-13.95,5.96c-.56.31-1.24.4-1.9.21l-8.01-2.31c-.26-.07-.41-.34-.34-.6.07-.26.34-.41.6-.34l8.01,2.31c.41.12.83.06,1.18-.14.35-.19.62-.52.74-.93.12-.41.06-.83-.14-1.18-.19-.35-.52-.62-.93-.74l-10.2-2.94c-.21-.06-.41-.09-.6-.08-.19.01-.39.06-.59.14l-1.88.76,3.87,9.98ZM4.09,24.18c-.36-.1-.72-.05-1.02.12-.3.17-.54.45-.64.81-.1.36-.05.72.12,1.02.17.3.45.54.81.64.36.1.72.05,1.02-.12.3-.17.54-.45.64-.81.1-.36.05-.72-.12-1.02-.17-.3-.45-.54-.81-.64ZM4.04,25.29c-.05-.08-.12-.15-.22-.18-.1-.03-.2-.02-.29.03-.08.05-.15.12-.18.22-.03.1-.02.2.03.29.05.08.12.15.22.18.1.03.2.02.29-.03.08-.05.15-.12.18-.22.03-.1.02-.2-.03-.29ZM24.78,18.53c0,.27-.22.49-.49.49s-.49-.22-.49-.49v-1.5c-.51-.05-.98-.19-1.41-.39-.59-.28-1.07-.69-1.4-1.18-.15-.22-.09-.53.13-.67.22-.15.53-.09.67.13.23.34.58.63,1.01.84.43.2.93.32,1.48.32.79,0,1.5-.25,2.01-.65.48-.38.77-.89.77-1.45s-.3-1.07-.77-1.45c-.51-.4-1.22-.65-2.01-.65-1.01,0-1.94-.33-2.61-.86-.71-.56-1.15-1.34-1.15-2.21s.44-1.65,1.15-2.21c.57-.45,1.31-.75,2.13-.84v-1.5c0-.27.22-.49.49-.49s.49.22.49.49v1.5c.45.05.88.16,1.26.33.55.24,1.02.58,1.37,1.01.17.21.14.51-.07.68-.21.17-.51.14-.68-.07-.25-.3-.59-.55-1-.73-.4-.17-.87-.27-1.37-.27-.79,0-1.5.25-2.01.65-.48.38-.77.89-.77,1.45s.3,1.07.77,1.45c.51.4,1.22.65,2.01.65,1.01,0,1.94.33,2.61.86.71.56,1.15,1.34,1.15,2.21s-.44,1.65-1.15,2.21c-.57.45-1.31.75-2.13.84v1.5s0,0,0,0ZM24.29,20.99c2.65,0,5.05-1.07,6.78-2.81,1.74-1.74,2.81-4.13,2.81-6.78s-1.07-5.05-2.81-6.78c-1.74-1.74-4.13-2.81-6.78-2.81s-5.05,1.07-6.78,2.81c-1.74,1.74-2.81,4.13-2.81,6.78s1.07,5.05,2.81,6.78c1.74,1.74,4.13,2.81,6.78,2.81ZM31.76,18.87c1.91-1.91,3.1-4.56,3.1-7.47s-1.18-5.56-3.1-7.47c-1.91-1.91-4.56-3.1-7.47-3.1s-5.56,1.18-7.47,3.1c-1.91,1.91-3.1,4.56-3.1,7.47s1.18,5.56,3.1,7.47,4.56,3.1,7.47,3.1,5.56-1.18,7.47-3.1Z"/>
    </g>
  </g>
</svg>