<?xml version="1.0" encoding="UTF-8"?>
<svg id="Layer_2" xmlns="http://www.w3.org/2000/svg" xmlns:xlink="http://www.w3.org/1999/xlink" viewBox="0 0 40 40">
  <defs>
    <style>
      .cls-1 {
        fill: none;
      }

      .cls-2 {
        fill: #f16129;
        fill-rule: evenodd;
      }

      .cls-3 {
        clip-path: url(#clippath);
      }
    </style>
    <clipPath id="clippath">
      <rect class="cls-1" width="40" height="40"/>
    </clipPath>
  </defs>
  <g id="Layer_1-2" data-name="Layer_1">
    <g class="cls-3">
      <g>
        <path class="cls-2" d="M33.65,7.26c-.44-.43-1.02-.67-1.63-.67s-1.2.24-1.63.67c-.43.43-.67,1.02-.67,1.63s.24,1.19.67,1.63c.44.43,1.02.66,1.63.66s1.2-.23,1.63-.66c.43-.44.67-1.02.67-1.63s-.24-1.2-.67-1.63ZM33.03,9.89c-.26.27-.62.42-1.01.42s-.74-.15-1.01-.42c-.27-.27-.42-.62-.42-1.01s.15-.74.42-1.02c.26-.26.62-.41,1.01-.41s.74.15,1.01.41c.27.27.42.63.42,1.02s-.15.74-.42,1.01Z"/>
        <path class="cls-2" d="M33.65,7.26c-.44-.43-1.02-.67-1.63-.67s-1.2.24-1.63.67c-.43.43-.67,1.02-.67,1.63s.24,1.19.67,1.63c.44.43,1.02.66,1.63.66s1.2-.23,1.63-.66c.43-.44.67-1.02.67-1.63s-.24-1.2-.67-1.63ZM33.03,9.89c-.26.27-.62.42-1.01.42s-.74-.15-1.01-.42c-.27-.27-.42-.62-.42-1.01s.15-.74.42-1.02c.26-.26.62-.41,1.01-.41s.74.15,1.01.41c.27.27.42.63.42,1.02s-.15.74-.42,1.01Z"/>
        <path class="cls-2" d="M33.65,7.26c-.44-.43-1.02-.67-1.63-.67s-1.2.24-1.63.67c-.43.43-.67,1.02-.67,1.63s.24,1.19.67,1.63c.44.43,1.02.66,1.63.66s1.2-.23,1.63-.66c.43-.44.67-1.02.67-1.63s-.24-1.2-.67-1.63ZM33.03,9.89c-.26.27-.62.42-1.01.42s-.74-.15-1.01-.42c-.27-.27-.42-.62-.42-1.01s.15-.74.42-1.02c.26-.26.62-.41,1.01-.41s.74.15,1.01.41c.27.27.42.63.42,1.02s-.15.74-.42,1.01Z"/>
        <path class="cls-2" d="M33.65,7.26c-.44-.43-1.02-.67-1.63-.67s-1.2.24-1.63.67c-.43.43-.67,1.02-.67,1.63s.24,1.19.67,1.63c.44.43,1.02.66,1.63.66s1.2-.23,1.63-.66c.43-.44.67-1.02.67-1.63s-.24-1.2-.67-1.63ZM33.03,9.89c-.26.27-.62.42-1.01.42s-.74-.15-1.01-.42c-.27-.27-.42-.62-.42-1.01s.15-.74.42-1.02c.26-.26.62-.41,1.01-.41s.74.15,1.01.41c.27.27.42.63.42,1.02s-.15.74-.42,1.01Z"/>
        <path class="cls-2" d="M33.65,7.26c-.44-.43-1.02-.67-1.63-.67s-1.2.24-1.63.67c-.43.43-.67,1.02-.67,1.63s.24,1.19.67,1.63c.44.43,1.02.66,1.63.66s1.2-.23,1.63-.66c.43-.44.67-1.02.67-1.63s-.24-1.2-.67-1.63ZM33.03,9.89c-.26.27-.62.42-1.01.42s-.74-.15-1.01-.42c-.27-.27-.42-.62-.42-1.01s.15-.74.42-1.02c.26-.26.62-.41,1.01-.41s.74.15,1.01.41c.27.27.42.63.42,1.02s-.15.74-.42,1.01Z"/>
        <path class="cls-2" d="M33.65,7.26c-.44-.43-1.02-.67-1.63-.67s-1.2.24-1.63.67c-.43.43-.67,1.02-.67,1.63s.24,1.19.67,1.63c.44.43,1.02.66,1.63.66s1.2-.23,1.63-.66c.43-.44.67-1.02.67-1.63s-.24-1.2-.67-1.63ZM33.03,9.89c-.26.27-.62.42-1.01.42s-.74-.15-1.01-.42c-.27-.27-.42-.62-.42-1.01s.15-.74.42-1.02c.26-.26.62-.41,1.01-.41s.74.15,1.01.41c.27.27.42.63.42,1.02s-.15.74-.42,1.01Z"/>
        <path class="cls-2" d="M33.65,7.26c-.44-.43-1.02-.67-1.63-.67s-1.2.24-1.63.67c-.43.43-.67,1.02-.67,1.63s.24,1.19.67,1.63c.44.43,1.02.66,1.63.66s1.2-.23,1.63-.66c.43-.44.67-1.02.67-1.63s-.24-1.2-.67-1.63ZM33.03,9.89c-.26.27-.62.42-1.01.42s-.74-.15-1.01-.42c-.27-.27-.42-.62-.42-1.01s.15-.74.42-1.02c.26-.26.62-.41,1.01-.41s.74.15,1.01.41c.27.27.42.63.42,1.02s-.15.74-.42,1.01Z"/>
        <path class="cls-2" d="M33.65,7.26c-.44-.43-1.02-.67-1.63-.67s-1.2.24-1.63.67c-.43.43-.67,1.02-.67,1.63s.24,1.19.67,1.63c.44.43,1.02.66,1.63.66s1.2-.23,1.63-.66c.43-.44.67-1.02.67-1.63s-.24-1.2-.67-1.63ZM33.03,9.89c-.26.27-.62.42-1.01.42s-.74-.15-1.01-.42c-.27-.27-.42-.62-.42-1.01s.15-.74.42-1.02c.26-.26.62-.41,1.01-.41s.74.15,1.01.41c.27.27.42.63.42,1.02s-.15.74-.42,1.01Z"/>
        <g>
          <path class="cls-2" d="M33.65,7.26c-.44-.43-1.02-.67-1.63-.67s-1.2.24-1.63.67c-.43.43-.67,1.02-.67,1.63s.24,1.19.67,1.63c.44.43,1.02.66,1.63.66s1.2-.23,1.63-.66c.43-.44.67-1.02.67-1.63s-.24-1.2-.67-1.63ZM33.03,9.89c-.26.27-.62.42-1.01.42s-.74-.15-1.01-.42c-.27-.27-.42-.62-.42-1.01s.15-.74.42-1.02c.26-.26.62-.41,1.01-.41s.74.15,1.01.41c.27.27.42.63.42,1.02s-.15.74-.42,1.01Z"/>
          <path class="cls-2" d="M39.84,20.18c-.38-1.68-1.44-3.2-3.19-4.62l.53-4.7c.11-.94.07-1.82-.12-2.68-.19-.85-.52-1.67-1.02-2.48l-3.16-5.2c-.09-.16-.22-.28-.37-.36-.16-.09-.33-.13-.51-.13s-.35.04-.5.13c-.15.08-.28.2-.37.36l-3.16,5.2c-.49.81-.83,1.63-1.02,2.48-.19.86-.23,1.74-.12,2.68l.49,4.79c-1.71,1.34-2.77,2.85-3.15,4.53-.39,1.74-.06,3.68,1.01,5.75.07.15.22.25.39.25.23,0,.43-.19.43-.43-.01-1.37.2-2.51.62-3.41.29-.61.68-1.12,1.18-1.5l.14-.11.23,2.01c.02.13.09.25.2.32l.07.04-.47,1.45c-.02.05-.03.11-.03.16,0,.24.19.44.43.44h2.74l.02.06c.12.32.25.56.42.79v5.91c0,1.92-.75,3.73-2.12,5.1-1.37,1.37-3.18,2.12-5.1,2.12h-11.52c-3.2,0-6.21-1.26-8.47-3.52S.87,30.35.87,27.15s1.25-6.21,3.51-8.47,5.28-3.51,8.47-3.51c1.57,0,3.09.29,4.52.87s2.73,1.44,3.85,2.52c.08.08.19.12.3.12.12,0,.23-.04.31-.13.08-.08.12-.19.12-.3,0-.12-.05-.22-.13-.3l-.1-.12c-1.18-1.12-2.52-1.99-4.02-2.59-1.54-.63-3.17-.94-4.84-.94-3.43,0-6.66,1.34-9.09,3.77C1.34,20.48,0,23.72,0,27.15s1.34,6.66,3.77,9.09c2.42,2.43,5.66,3.77,9.09,3.77h11.52c2.15,0,4.18-.84,5.71-2.37,1.53-1.53,2.37-3.56,2.37-5.71l.02-5.98c.15-.16.28-.4.39-.72l.03-.06h2.74c.23,0,.43-.2.43-.44,0-.05-.01-.1-.03-.16l-.47-1.45.06-.04c.12-.08.2-.21.21-.36l.22-1.97.14.11c.49.38.89.88,1.18,1.5.42.89.64,2.04.63,3.41,0,.24.19.43.43.43.17,0,.32-.1.39-.25,1.06-2.07,1.4-4,1.01-5.75ZM31.93.88l.06-.02h.03l.11.05.03.02,1.96,3.24-.1.04c-.7.34-1.4.51-2.06.51s-1.32-.16-1.99-.5l-.05-.06,2.01-3.28ZM27.81,19.81c-.84.5-1.5,1.24-1.94,2.16-.21.46-.38.98-.5,1.55h-.2c-.3-1.12-.34-2.17-.12-3.15.29-1.3,1.07-2.51,2.32-3.61l.14-.13.36,3.15-.06.03ZM29.01,24.28l.37-1.16h1.39v.09c.05.33.09.63.14.94l.03.12h-1.93ZM32.45,22.68c-.05.48-.1.92-.17,1.33l-.08.38s-.07.07-.09.12l-.09.15-.09-.15s-.05-.08-.12-.18l-.05-.34c-.07-.38-.12-.82-.17-1.37-.07-.81-.11-1.73-.11-2.63,0-1.52.1-2.94.28-4.01.07-.43.1-.77.12-.98.03-.28.04-.34.14-.34s.11.06.13.33c.02.18.05.45.1.8l.03.19c.18,1.07.28,2.48.28,4,0,.94-.04,1.84-.11,2.7ZM33.24,24.28l-.12-.03.02-.12c.05-.28.09-.58.13-.91v-.09h1.4l.37,1.16h-1.8ZM35.02,22.26h-1.66v-.11c.05-.69.08-1.42.08-2.17,0-1.56-.11-3.03-.3-4.14-.22-1.31-.62-2.06-1.12-2.06s-.89.75-1.12,2.06c-.19,1.12-.3,2.58-.3,4.14,0,.77.03,1.5.07,2.17v.11s-1.65,0-1.65,0l-1.32-11.5c-.09-.85-.06-1.64.11-2.4.17-.77.46-1.5.9-2.23l.73-1.2.08.04c.78.41,1.6.62,2.42.62s1.68-.22,2.53-.64l-.05.13.09-.04.09-.05.69,1.14c.44.73.73,1.46.9,2.22.17.77.2,1.56.11,2.41l-1.32,11.5ZM38.88,23.53h-.2c-.12-.57-.29-1.1-.5-1.56-.45-.92-1.1-1.66-1.94-2.16l-.06-.03.36-3.15.14.13c1.25,1.1,2.03,2.3,2.32,3.61.22.97.18,2.04-.12,3.16Z"/>
          <path class="cls-2" d="M32.15,25.05c-.02.19-.03.27-.13.27s-.11-.08-.13-.28l.02-.07.02-.03.09-.17.09.17.04.08v.03Z"/>
          <path class="cls-2" d="M33.65,7.26c-.44-.43-1.02-.67-1.63-.67s-1.2.24-1.63.67c-.43.43-.67,1.02-.67,1.63s.24,1.19.67,1.63c.44.43,1.02.66,1.63.66s1.2-.23,1.63-.66c.43-.44.67-1.02.67-1.63s-.24-1.2-.67-1.63ZM33.03,9.89c-.26.27-.62.42-1.01.42s-.74-.15-1.01-.42c-.27-.27-.42-.62-.42-1.01s.15-.74.42-1.02c.26-.26.62-.41,1.01-.41s.74.15,1.01.41c.27.27.42.63.42,1.02s-.15.74-.42,1.01Z"/>
        </g>
        <path class="cls-2" d="M33.65,7.26c-.44-.43-1.02-.67-1.63-.67s-1.2.24-1.63.67c-.43.43-.67,1.02-.67,1.63s.24,1.19.67,1.63c.44.43,1.02.66,1.63.66s1.2-.23,1.63-.66c.43-.44.67-1.02.67-1.63s-.24-1.2-.67-1.63ZM33.03,9.89c-.26.27-.62.42-1.01.42s-.74-.15-1.01-.42c-.27-.27-.42-.62-.42-1.01s.15-.74.42-1.02c.26-.26.62-.41,1.01-.41s.74.15,1.01.41c.27.27.42.63.42,1.02s-.15.74-.42,1.01Z"/>
        <path class="cls-2" d="M33.65,7.26c-.44-.43-1.02-.67-1.63-.67s-1.2.24-1.63.67c-.43.43-.67,1.02-.67,1.63s.24,1.19.67,1.63c.44.43,1.02.66,1.63.66s1.2-.23,1.63-.66c.43-.44.67-1.02.67-1.63s-.24-1.2-.67-1.63ZM33.03,9.89c-.26.27-.62.42-1.01.42s-.74-.15-1.01-.42c-.27-.27-.42-.62-.42-1.01s.15-.74.42-1.02c.26-.26.62-.41,1.01-.41s.74.15,1.01.41c.27.27.42.63.42,1.02s-.15.74-.42,1.01Z"/>
        <path class="cls-2" d="M33.65,7.26c-.44-.43-1.02-.67-1.63-.67s-1.2.24-1.63.67c-.43.43-.67,1.02-.67,1.63s.24,1.19.67,1.63c.44.43,1.02.66,1.63.66s1.2-.23,1.63-.66c.43-.44.67-1.02.67-1.63s-.24-1.2-.67-1.63ZM33.03,9.89c-.26.27-.62.42-1.01.42s-.74-.15-1.01-.42c-.27-.27-.42-.62-.42-1.01s.15-.74.42-1.02c.26-.26.62-.41,1.01-.41s.74.15,1.01.41c.27.27.42.63.42,1.02s-.15.74-.42,1.01Z"/>
        <path class="cls-2" d="M33.65,7.26c-.44-.43-1.02-.67-1.63-.67s-1.2.24-1.63.67c-.43.43-.67,1.02-.67,1.63s.24,1.19.67,1.63c.44.43,1.02.66,1.63.66s1.2-.23,1.63-.66c.43-.44.67-1.02.67-1.63s-.24-1.2-.67-1.63ZM33.03,9.89c-.26.27-.62.42-1.01.42s-.74-.15-1.01-.42c-.27-.27-.42-.62-.42-1.01s.15-.74.42-1.02c.26-.26.62-.41,1.01-.41s.74.15,1.01.41c.27.27.42.63.42,1.02s-.15.74-.42,1.01Z"/>
        <path class="cls-2" d="M33.65,7.26c-.44-.43-1.02-.67-1.63-.67s-1.2.24-1.63.67c-.43.43-.67,1.02-.67,1.63s.24,1.19.67,1.63c.44.43,1.02.66,1.63.66s1.2-.23,1.63-.66c.43-.44.67-1.02.67-1.63s-.24-1.2-.67-1.63ZM33.03,9.89c-.26.27-.62.42-1.01.42s-.74-.15-1.01-.42c-.27-.27-.42-.62-.42-1.01s.15-.74.42-1.02c.26-.26.62-.41,1.01-.41s.74.15,1.01.41c.27.27.42.63.42,1.02s-.15.74-.42,1.01Z"/>
        <path class="cls-2" d="M33.65,7.26c-.44-.43-1.02-.67-1.63-.67s-1.2.24-1.63.67c-.43.43-.67,1.02-.67,1.63s.24,1.19.67,1.63c.44.43,1.02.66,1.63.66s1.2-.23,1.63-.66c.43-.44.67-1.02.67-1.63s-.24-1.2-.67-1.63ZM33.03,9.89c-.26.27-.62.42-1.01.42s-.74-.15-1.01-.42c-.27-.27-.42-.62-.42-1.01s.15-.74.42-1.02c.26-.26.62-.41,1.01-.41s.74.15,1.01.41c.27.27.42.63.42,1.02s-.15.74-.42,1.01Z"/>
        <path class="cls-2" d="M33.65,7.26c-.44-.43-1.02-.67-1.63-.67s-1.2.24-1.63.67c-.43.43-.67,1.02-.67,1.63s.24,1.19.67,1.63c.44.43,1.02.66,1.63.66s1.2-.23,1.63-.66c.43-.44.67-1.02.67-1.63s-.24-1.2-.67-1.63ZM33.03,9.89c-.26.27-.62.42-1.01.42s-.74-.15-1.01-.42c-.27-.27-.42-.62-.42-1.01s.15-.74.42-1.02c.26-.26.62-.41,1.01-.41s.74.15,1.01.41c.27.27.42.63.42,1.02s-.15.74-.42,1.01Z"/>
        <path class="cls-2" d="M33.65,7.26c-.44-.43-1.02-.67-1.63-.67s-1.2.24-1.63.67c-.43.43-.67,1.02-.67,1.63s.24,1.19.67,1.63c.44.43,1.02.66,1.63.66s1.2-.23,1.63-.66c.43-.44.67-1.02.67-1.63s-.24-1.2-.67-1.63ZM33.03,9.89c-.26.27-.62.42-1.01.42s-.74-.15-1.01-.42c-.27-.27-.42-.62-.42-1.01s.15-.74.42-1.02c.26-.26.62-.41,1.01-.41s.74.15,1.01.41c.27.27.42.63.42,1.02s-.15.74-.42,1.01Z"/>
        <path class="cls-2" d="M20.43,19.58c-2.02-2.03-4.71-3.15-7.57-3.15s-5.56,1.12-7.58,3.15c-2.02,2.02-3.14,4.71-3.14,7.57s1.12,5.56,3.14,7.58c2.03,2.02,4.71,3.14,7.58,3.14s5.55-1.12,7.57-3.14c2.03-2.02,3.15-4.71,3.15-7.58s-1.12-5.55-3.15-7.57ZM5.9,20.19c1.49-1.5,3.38-2.45,5.46-2.77l.3-.05-.42.43c-1.1,1.13-2,2.28-2.67,3.45l-.04.06h-.07c-.9-.2-1.82-.44-2.72-.74l-.15-.05.32-.32ZM3.04,26.6c.1-1.92.76-3.76,1.92-5.32l.04-.05.07.02c.96.33,1.95.61,2.91.82l.13.03-.06.11c-.67,1.44-1.05,2.91-1.08,4.39v.1h-3.95v-.11ZM5.07,33.04l-.07.03-.05-.06c-1.15-1.55-1.81-3.39-1.92-5.32v-.11h3.96v.09c.12,1.45.54,2.91,1.26,4.36l.05.11-.12.03c-1.04.22-2.08.51-3.11.86ZM11.49,36.89c-2.13-.3-4.06-1.26-5.59-2.78-.07-.07-.32-.33-.32-.33l.15-.05c.97-.32,1.96-.58,2.92-.77h.08s.03.05.03.05c.62,1.07,1.42,2.15,2.36,3.22.14.17.29.34.45.5l.19.21-.28-.04ZM12.42,36.37s-.5-.54-.65-.72c-.8-.9-1.49-1.82-2.05-2.73l-.08-.13.15-.02c.84-.12,1.7-.19,2.53-.21h.1v3.82ZM12.42,31.69h-.1c-1.02.02-2.05.12-3.07.28h-.07s-.04-.05-.04-.05c-.73-1.42-1.17-2.83-1.29-4.23v-.11h4.56v4.11ZM12.42,26.71h-4.58v-.1c.04-1.43.41-2.86,1.12-4.27l.03-.06h.08c1.08.2,2.18.3,3.27.33h.09v4.1ZM12.42,21.74h-.1c-.9-.02-1.82-.1-2.73-.24l-.15-.02.08-.13c.61-.98,1.4-1.98,2.34-2.94l.56-.56v3.9ZM14.34,17.42c2.09.31,3.98,1.28,5.48,2.77l.32.33-.15.05c-.91.3-1.83.54-2.73.73h-.07s-.04-.05-.04-.05c-.67-1.18-1.58-2.33-2.67-3.46l-.43-.43.3.05ZM13.3,17.86s.42.42.55.54c.94.96,1.73,1.96,2.34,2.94l.08.13-.15.03c-.89.13-1.81.21-2.72.24h-.1v-3.89ZM13.3,22.61h.1c1.07-.03,2.16-.13,3.26-.31l.07-.02.03.07c.7,1.4,1.09,2.83,1.13,4.26v.1h-4.58v-4.1ZM13.3,27.58h4.56v.11c-.13,1.39-.56,2.81-1.3,4.23l-.03.06h-.07c-1.02-.17-2.05-.27-3.08-.29h-.09v-4.11ZM13.3,36.37v-3.82h.1c.84.02,1.7.09,2.53.21l.15.02-.08.13c-.55.9-1.25,1.83-2.05,2.74-.16.17-.32.35-.48.53l-.17.18ZM19.82,34.11c-1.53,1.53-3.46,2.48-5.59,2.78l-.28.04.19-.21c.16-.16.31-.33.45-.49.94-1.08,1.74-2.16,2.36-3.23l.04-.06h.07c.96.2,1.95.46,2.92.78l.15.05-.32.33ZM22.69,27.69c-.1,1.93-.76,3.77-1.91,5.32l-.05.06-.07-.03c-1.03-.36-2.07-.65-3.11-.86l-.12-.03.05-.12c.71-1.45,1.13-2.91,1.24-4.35v-.09h3.98v.11ZM18.75,26.71v-.1c-.04-1.48-.4-2.95-1.09-4.38l-.05-.12.12-.02c.97-.21,1.97-.49,2.93-.83l.07-.03.04.06c1.15,1.56,1.81,3.4,1.92,5.32v.11h-3.95Z"/>
        <path class="cls-2" d="M33.65,7.26c-.44-.43-1.02-.67-1.63-.67s-1.2.24-1.63.67c-.43.43-.67,1.02-.67,1.63s.24,1.19.67,1.63c.44.43,1.02.66,1.63.66s1.2-.23,1.63-.66c.43-.44.67-1.02.67-1.63s-.24-1.2-.67-1.63ZM33.03,9.89c-.26.27-.62.42-1.01.42s-.74-.15-1.01-.42c-.27-.27-.42-.62-.42-1.01s.15-.74.42-1.02c.26-.26.62-.41,1.01-.41s.74.15,1.01.41c.27.27.42.63.42,1.02s-.15.74-.42,1.01Z"/>
      </g>
    </g>
  </g>
</svg>