<?xml version="1.0" encoding="UTF-8"?>
<svg id="Layer_2" xmlns="http://www.w3.org/2000/svg" xmlns:xlink="http://www.w3.org/1999/xlink" viewBox="0 0 40 40">
  <defs>
    <style>
      .cls-1 {
        fill: #f16129;
      }

      .cls-2 {
        fill: none;
      }

      .cls-3 {
        clip-path: url(#clippath);
      }
    </style>
    <clipPath id="clippath">
      <rect class="cls-2" width="40" height="40"/>
    </clipPath>
  </defs>
  <g id="Layer_1-2" data-name="Layer_1">
    <g class="cls-3">
      <g>
        <path class="cls-1" d="M36.24,23.69h-2.71c-.47,0-.91.2-1.26.58l-.09.1h-.69c-2.31-.35-3.92-1.19-5.06-1.89-.29-.18-.56-.36-.81-.52-.27-.18-.53-.35-.77-.49-.45-.27-.85-.49-1.34-.49h-2.66c-.48,0-.89.19-1.42.51-.45.26-.95.63-1.64,1.18-.27.22-.58.47-.87.72l-.36.29h-8.42l-.07-.19c-.25-.69-.89-1.16-1.6-1.16h-2.71c-.95,0-1.73.77-1.73,1.73v9.47c0,.95.77,1.73,1.73,1.73h2.71c.71,0,1.35-.46,1.6-1.15l.07-.2h2.23l5.71,5.59c.32.31.76.5,1.21.5.7,0,1.35-.45,1.6-1.13l.16-.43,1.09,1.06c.32.31.76.5,1.21.5.71,0,1.35-.46,1.6-1.14l.23-.37.33.32c.34.32.76.5,1.22.5.7,0,1.34-.46,1.59-1.13l.23-.38.34.32c.34.32.77.51,1.22.51.95,0,1.73-.78,1.73-1.73v-.54l1.13-1.13h.88l.07.2c.25.69.89,1.16,1.6,1.16h2.71c.95,0,1.73-.78,1.73-1.73v-9.48c0-.94-.77-1.73-1.73-1.73ZM7.44,33.53c0,.56-.43.98-.97.98h-2.71c-.55,0-.98-.43-.98-.98v-9.47c0-.55.44-.98.98-.98h2.71c.55,0,.97.44.97.98v9.47ZM29.1,36.92c0,.55-.43.97-.97.97-.26,0-.5-.1-.7-.28l-4.46-4.35c-.06-.07-.16-.1-.26-.1s-.19.04-.26.11-.1.16-.1.26.04.19.12.26l3.26,3.18v.61c0,.56-.43.98-.97.98-.26,0-.51-.1-.7-.29l-4.46-4.34c-.07-.07-.16-.11-.26-.11s-.19.04-.26.11-.11.17-.11.26c.01.1.05.2.12.27l3.27,3.18v.61c0,.55-.43.98-.98.98-.25,0-.5-.1-.69-.29l-4.46-4.34c-.07-.07-.16-.11-.26-.11h-.01c-.2,0-.37.17-.37.38,0,.1.05.2.12.27l2.59,2.52v.59c0,.55-.43.98-.98.98-.25,0-.5-.1-.69-.29l-5.81-5.7c-.07-.07-.16-.1-.26-.1h-2.34v-8.73h7.45l-.93.76c-.25.2-.5.41-.75.6-.25.2-.43.54-.43.86,0,.4.21.71.39.91.54.59,1.47.92,2.63.92,1.53,0,2.57-.61,3.22-1.07l.21-.14,9.12,9.12v.52ZM31.81,34.52h-.98c-.1,0-.19.04-.26.11l-1.1,1.09-9.2-9.21c-.07-.07-.17-.11-.26-.11-.1,0-.19.04-.26.11-.05.05-1.28,1.24-3.19,1.24-1.36,0-1.93-.52-2.07-.67-.1-.12-.15-.22-.17-.29l-.19-.23.3-.16c.81-.62,1.6-1.29,2.38-1.93.51-.43,1.01-.84,1.46-1.21.64-.51,1.15-.87,1.55-1.12s.83-.41,1.05-.41h2.66c.2,0,.56.14.95.39.21.12.45.27.71.45.26.16.55.36.87.55,1.11.69,2.87,1.63,5.45,2h.3v9.41ZM37.23,34.89c0,.55-.44.97-.98.97h-2.71c-.56,0-.97-.42-.97-.97v-9.48c0-.55.43-.97.97-.97h2.71c.55,0,.98.43.98.97v9.48Z"/>
        <path class="cls-1" d="M36.24,23.69h-2.71c-.47,0-.91.2-1.26.58l-.09.1h-.69c-2.31-.35-3.92-1.19-5.06-1.89-.29-.18-.56-.36-.81-.52-.27-.18-.53-.35-.77-.49-.45-.27-.85-.49-1.34-.49h-2.66c-.48,0-.89.19-1.42.51-.45.26-.95.63-1.64,1.18-.27.22-.58.47-.87.72l-.36.29h-8.42l-.07-.19c-.25-.69-.89-1.16-1.6-1.16h-2.71c-.95,0-1.73.77-1.73,1.73v9.47c0,.95.77,1.73,1.73,1.73h2.71c.71,0,1.35-.46,1.6-1.15l.07-.2h2.23l5.71,5.59c.32.31.76.5,1.21.5.7,0,1.35-.45,1.6-1.13l.16-.43,1.09,1.06c.32.31.76.5,1.21.5.71,0,1.35-.46,1.6-1.14l.23-.37.33.32c.34.32.76.5,1.22.5.7,0,1.34-.46,1.59-1.13l.23-.38.34.32c.34.32.77.51,1.22.51.95,0,1.73-.78,1.73-1.73v-.54l1.13-1.13h.88l.07.2c.25.69.89,1.16,1.6,1.16h2.71c.95,0,1.73-.78,1.73-1.73v-9.48c0-.94-.77-1.73-1.73-1.73ZM7.44,33.53c0,.56-.43.98-.97.98h-2.71c-.55,0-.98-.43-.98-.98v-9.47c0-.55.44-.98.98-.98h2.71c.55,0,.97.44.97.98v9.47ZM29.1,36.92c0,.55-.43.97-.97.97-.26,0-.5-.1-.7-.28l-4.46-4.35c-.06-.07-.16-.1-.26-.1s-.19.04-.26.11-.1.16-.1.26.04.19.12.26l3.26,3.18v.61c0,.56-.43.98-.97.98-.26,0-.51-.1-.7-.29l-4.46-4.34c-.07-.07-.16-.11-.26-.11s-.19.04-.26.11-.11.17-.11.26c.01.1.05.2.12.27l3.27,3.18v.61c0,.55-.43.98-.98.98-.25,0-.5-.1-.69-.29l-4.46-4.34c-.07-.07-.16-.11-.26-.11h-.01c-.2,0-.37.17-.37.38,0,.1.05.2.12.27l2.59,2.52v.59c0,.55-.43.98-.98.98-.25,0-.5-.1-.69-.29l-5.81-5.7c-.07-.07-.16-.1-.26-.1h-2.34v-8.73h7.45l-.93.76c-.25.2-.5.41-.75.6-.25.2-.43.54-.43.86,0,.4.21.71.39.91.54.59,1.47.92,2.63.92,1.53,0,2.57-.61,3.22-1.07l.21-.14,9.12,9.12v.52ZM31.81,34.52h-.98c-.1,0-.19.04-.26.11l-1.1,1.09-9.2-9.21c-.07-.07-.17-.11-.26-.11-.1,0-.19.04-.26.11-.05.05-1.28,1.24-3.19,1.24-1.36,0-1.93-.52-2.07-.67-.1-.12-.15-.22-.17-.29l-.19-.23.3-.16c.81-.62,1.6-1.29,2.38-1.93.51-.43,1.01-.84,1.46-1.21.64-.51,1.15-.87,1.55-1.12s.83-.41,1.05-.41h2.66c.2,0,.56.14.95.39.21.12.45.27.71.45.26.16.55.36.87.55,1.11.69,2.87,1.63,5.45,2h.3v9.41ZM37.23,34.89c0,.55-.44.97-.98.97h-2.71c-.56,0-.97-.42-.97-.97v-9.48c0-.55.43-.97.97-.97h2.71c.55,0,.98.43.98.97v9.48Z"/>
        <path class="cls-1" d="M5.48,25.41c0,.21-.16.38-.38.38s-.37-.16-.37-.38.16-.37.37-.37c.21,0,.38.16.38.37Z"/>
        <path class="cls-1" d="M5.48,25.41c0,.21-.16.38-.38.38s-.37-.16-.37-.38.16-.37.37-.37c.21,0,.38.16.38.37Z"/>
        <path class="cls-1" d="M35.26,33.53c0,.21-.16.38-.37.38-.21,0-.38-.16-.38-.38s.16-.37.38-.37.37.16.37.37Z"/>
        <path class="cls-1" d="M35.26,33.53c0,.21-.16.38-.37.38-.21,0-.38-.16-.38-.38s.16-.37.38-.37.37.16.37.37Z"/>
        <path class="cls-1" d="M22.41,11.77v-2.49l-1.44-.72-.48-1.16.51-1.52-1.77-1.76-1.52.5-1.16-.48-.72-1.43h-2.49l-.72,1.43-1.16.48-1.52-.5-1.77,1.76.51,1.52-.48,1.16-1.43.72v2.49l1.43.72.48,1.16-.51,1.52,1.77,1.77,1.52-.51,1.16.48.72,1.44h2.49l.72-1.44,1.16-.48,1.52.51,1.77-1.77-.51-1.52.48-1.16,1.44-.72ZM20.39,11.95l-.69,1.68.45,1.35-1.11,1.11-1.35-.45-1.68.69-.64,1.27h-1.57l-.63-1.27-1.68-.69-1.35.45-1.12-1.11.46-1.35-.7-1.68-1.27-.64v-1.57l1.27-.63.7-1.68-.46-1.35,1.12-1.12,1.35.46,1.68-.7.63-1.27h1.57l.64,1.27,1.68.7,1.35-.46,1.11,1.12-.45,1.35.69,1.68,1.27.63v1.57l-1.27.64Z"/>
        <path class="cls-1" d="M22.41,11.77v-2.49l-1.44-.72-.48-1.16.51-1.52-1.77-1.76-1.52.5-1.16-.48-.72-1.43h-2.49l-.72,1.43-1.16.48-1.52-.5-1.77,1.76.51,1.52-.48,1.16-1.43.72v2.49l1.43.72.48,1.16-.51,1.52,1.77,1.77,1.52-.51,1.16.48.72,1.44h2.49l.72-1.44,1.16-.48,1.52.51,1.77-1.77-.51-1.52.48-1.16,1.44-.72ZM20.39,11.95l-.69,1.68.45,1.35-1.11,1.11-1.35-.45-1.68.69-.64,1.27h-1.57l-.63-1.27-1.68-.69-1.35.45-1.12-1.11.46-1.35-.7-1.68-1.27-.64v-1.57l1.27-.63.7-1.68-.46-1.35,1.12-1.12,1.35.46,1.68-.7.63-1.27h1.57l.64,1.27,1.68.7,1.35-.46,1.11,1.12-.45,1.35.69,1.68,1.27.63v1.57l-1.27.64Z"/>
        <path class="cls-1" d="M18.3,10.37l-.02-.05v-.05c-.14-1.96-1.77-3.49-3.7-3.49-2.07,0-3.76,1.69-3.76,3.76s1.69,3.76,3.76,3.76c1.93,0,3.55-1.54,3.7-3.5v-.05l.02-.05c.03-.05.04-.1.04-.16,0-.05-.01-.1-.04-.15ZM14.59,13.53c-1.66,0-3.02-1.35-3.02-3.01s1.35-3.02,3.02-3.02,3.01,1.35,3.01,3.02-1.35,3.01-3.01,3.01Z"/>
        <path class="cls-1" d="M18.3,10.37l-.02-.05v-.05c-.14-1.96-1.77-3.49-3.7-3.49-2.07,0-3.76,1.69-3.76,3.76s1.69,3.76,3.76,3.76c1.93,0,3.55-1.54,3.7-3.5v-.05l.02-.05c.03-.05.04-.1.04-.16,0-.05-.01-.1-.04-.15ZM14.59,13.53c-1.66,0-3.02-1.35-3.02-3.01s1.35-3.02,3.02-3.02,3.01,1.35,3.01,3.02-1.35,3.01-3.01,3.01Z"/>
        <path class="cls-1" d="M35.18,6.29v-.86s.67-.73.67-.73c.09-.1.12-.25.06-.39l-.55-1.4c-.05-.13-.17-.22-.31-.23l-.98-.08-.6-.62-.05-.98c-.01-.14-.09-.26-.22-.32l-1.39-.6s-.09-.03-.14-.03c-.09,0-.17.03-.24.09l-.75.63h-.86s-.73-.67-.73-.67c-.06-.05-.15-.09-.25-.09-.04,0-.09.01-.13.03l-1.4.55c-.13.05-.22.17-.23.31l-.08.98-.62.6-.98.05c-.14.01-.26.09-.32.22l-.6,1.38c-.05.13-.03.28.06.4l.63.75v.86s-.67.73-.67.73c-.09.1-.12.25-.06.39l.55,1.4c.05.13.17.22.31.23l.98.08.6.62.05.98c.01.14.09.26.22.32l1.38.6c.05.02.1.03.15.03.08,0,.17-.04.23-.09l.76-.63h.86s.73.67.73.67c.07.06.15.09.24.09.05,0,.09-.01.14-.03l1.4-.55c.13-.05.22-.17.23-.31l.08-.98.62-.6.98-.05c.14-.01.26-.09.32-.22l.59-1.38c.06-.13.04-.28-.05-.4l-.63-.75ZM34.54,5.04c-.06.07-.09.16-.09.24l-.02,1.15c0,.09.03.17.09.24l.57.68-.42.96-.88.05c-.09,0-.18.04-.24.1l-.81.79c-.07.06-.11.14-.12.23l-.07.89-.97.39-.67-.6c-.06-.06-.15-.09-.23-.09l-1.15-.02c-.09,0-.17.03-.24.09l-.68.57-.96-.42-.05-.88c0-.09-.04-.18-.1-.24l-.79-.82c-.06-.06-.15-.1-.23-.11l-.89-.07-.39-.97.6-.67c.06-.06.09-.15.09-.23l.02-1.14c0-.1-.03-.18-.09-.25l-.57-.68.41-.96.89-.05c.09,0,.17-.04.24-.1l.81-.79c.07-.06.11-.14.12-.23l.07-.89.97-.39.67.6c.06.06.15.09.23.09l1.15.02c.09,0,.17-.03.24-.09l.68-.57.96.42.05.88c0,.09.04.18.1.24l.79.82c.06.06.14.1.23.11l.89.07.39.97-.6.66Z"/>
        <path class="cls-1" d="M35.18,6.29v-.86s.67-.73.67-.73c.09-.1.12-.25.06-.39l-.55-1.4c-.05-.13-.17-.22-.31-.23l-.98-.08-.6-.62-.05-.98c-.01-.14-.09-.26-.22-.32l-1.39-.6s-.09-.03-.14-.03c-.09,0-.17.03-.24.09l-.75.63h-.86s-.73-.67-.73-.67c-.06-.05-.15-.09-.25-.09-.04,0-.09.01-.13.03l-1.4.55c-.13.05-.22.17-.23.31l-.08.98-.62.6-.98.05c-.14.01-.26.09-.32.22l-.6,1.38c-.05.13-.03.28.06.4l.63.75v.86s-.67.73-.67.73c-.09.1-.12.25-.06.39l.55,1.4c.05.13.17.22.31.23l.98.08.6.62.05.98c.01.14.09.26.22.32l1.38.6c.05.02.1.03.15.03.08,0,.17-.04.23-.09l.76-.63h.86s.73.67.73.67c.07.06.15.09.24.09.05,0,.09-.01.14-.03l1.4-.55c.13-.05.22-.17.23-.31l.08-.98.62-.6.98-.05c.14-.01.26-.09.32-.22l.59-1.38c.06-.13.04-.28-.05-.4l-.63-.75ZM34.54,5.04c-.06.07-.09.16-.09.24l-.02,1.15c0,.09.03.17.09.24l.57.68-.42.96-.88.05c-.09,0-.18.04-.24.1l-.81.79c-.07.06-.11.14-.12.23l-.07.89-.97.39-.67-.6c-.06-.06-.15-.09-.23-.09l-1.15-.02c-.09,0-.17.03-.24.09l-.68.57-.96-.42-.05-.88c0-.09-.04-.18-.1-.24l-.79-.82c-.06-.06-.15-.1-.23-.11l-.89-.07-.39-.97.6-.67c.06-.06.09-.15.09-.23l.02-1.14c0-.1-.03-.18-.09-.25l-.57-.68.41-.96.89-.05c.09,0,.17-.04.24-.1l.81-.79c.07-.06.11-.14.12-.23l.07-.89.97-.39.67.6c.06.06.15.09.23.09l1.15.02c.09,0,.17-.03.24-.09l.68-.57.96.42.05.88c0,.09.04.18.1.24l.79.82c.06.06.14.1.23.11l.89.07.39.97-.6.66Z"/>
        <path class="cls-1" d="M30.15,4.06c-.95,0-1.73.77-1.73,1.73s.77,1.73,1.73,1.73,1.73-.77,1.73-1.73-.77-1.73-1.73-1.73ZM30.15,6.77c-.55,0-.98-.44-.98-.98s.44-.98.98-.98.98.44.98.98-.44.98-.98.98Z"/>
        <path class="cls-1" d="M30.15,4.06c-.95,0-1.73.77-1.73,1.73s.77,1.73,1.73,1.73,1.73-.77,1.73-1.73-.77-1.73-1.73-1.73ZM30.15,6.77c-.55,0-.98-.44-.98-.98s.44-.98.98-.98.98.44.98.98-.44.98-.98.98Z"/>
      </g>
    </g>
  </g>
</svg>