<?xml version="1.0" encoding="UTF-8"?>
<svg xmlns="http://www.w3.org/2000/svg" version="1.1" xmlns:xlink="http://www.w3.org/1999/xlink" viewBox="0 0 196 120">
  <defs>
    <style>
      .cls-1 {
        fill: none;
      }

      .cls-2, .cls-3 {
        fill: #f15d22;
      }

      .cls-2, .cls-4 {
        display: none;
      }

      .cls-5 {
        clip-path: url(#clippath-1);
      }

      .cls-6 {
        clip-path: url(#clippath-3);
      }

      .cls-7 {
        clip-path: url(#clippath-2);
      }

      .cls-8 {
        fill: #f15e22;
        fill-rule: evenodd;
      }

      .cls-9 {
        clip-path: url(#clippath);
      }
    </style>
    <clipPath id="clippath">
      <rect class="cls-1" width="196" height="120"/>
    </clipPath>
    <clipPath id="clippath-1">
      <rect class="cls-1" width="196" height="120"/>
    </clipPath>
    <clipPath id="clippath-2">
      <rect class="cls-1" x="0" width="196" height="120"/>
    </clipPath>
    <clipPath id="clippath-3">
      <rect class="cls-1" width="196" height="120"/>
    </clipPath>
  </defs>
  <!-- Generator: Adobe Illustrator 28.6.0, SVG Export Plug-In . SVG Version: 1.2.0 Build 709)  -->
  <g>
    <g id="Layer_1">
      <g id="fantasy" class="cls-4">
        <g class="cls-9">
          <path class="cls-8" d="M160.5,94.6h-5.1v-8.7c0-1.9-1.6-3.5-3.5-3.5h-13.6v-11c0-2.4-2-4.4-4.4-4.4h-34.7v-12.9c1.7,0,3.4-.4,5.1-.8.2,0,.4,0,.6,0,6.5-1.8,12-5.9,15.5-11.3,0,0,.1-.2.2-.3,2.3-3.7,3.8-8,4.1-12.6v-1.8c0-6.5-2.3-12.4-6.1-17.1,0,0,0-.1-.1-.1-2.9-3.5-6.6-6.2-10.9-7.9-.1,0-.2,0-.3,0-3-1.2-6.3-1.8-9.7-1.8s-6.7.7-9.7,1.8c-.1,0-.2,0-.3,0-4.2,1.7-8,4.4-10.9,7.9h-.1c-3.8,4.8-6.1,10.7-6.1,17.2s0,.9,0,1.3v.5c.3,4.6,1.8,8.9,4.1,12.6,0,0,.1.2.2.3,3.6,5.5,9.1,9.6,15.5,11.3.2,0,.3,0,.5,0,1.7.4,3.4.7,5.1.8v12.9h-34.3c-2.4,0-4.4,2-4.4,4.4v11h-13.6c-1.9,0-3.5,1.6-3.5,3.5v8.7h-5.1c-1.5,0-2.7,1.2-2.7,2.7v19.9c0,1.5,1.2,2.7,2.7,2.7h13.3c1.5,0,2.7-1.2,2.7-2.7v-19.9c0-1.5-1.2-2.7-2.7-2.7h-5.2v-8.7c0-.3.2-.5.5-.5h30.2c.3,0,.5.2.5.5v8.7h-5.1c-1.5,0-2.7,1.2-2.7,2.7v19.9c0,1.5,1.2,2.7,2.7,2.7h13.3c1.5,0,2.7-1.2,2.7-2.7v-19.9c0-1.5-1.2-2.7-2.7-2.7h-5.2v-8.7c0-1.9-1.6-3.5-3.5-3.5h-13.6v-11c0-.8.6-1.4,1.4-1.4h72c.8,0,1.4.6,1.4,1.4v11h-13.6c-1.9,0-3.5,1.6-3.5,3.5v8.7h-5.2c-1.5,0-2.7,1.2-2.7,2.7v19.9c0,1.5,1.2,2.7,2.7,2.7h13.3c1.5,0,2.7-1.2,2.7-2.7v-19.9c0-1.5-1.2-2.7-2.7-2.7h-5.1v-8.7c0-.3.2-.5.5-.5h30.1c.3,0,.5.2.5.5v8.7h-5.2c-1.5,0-2.7,1.2-2.7,2.7v19.9c0,1.5,1.2,2.7,2.7,2.7h13.3c1.5,0,2.7-1.2,2.7-2.7v-19.9c0-1.5-1.2-2.7-2.7-2.7h.4ZM106.3,49.5l1.9-8,8.2.7c-2.6,3.3-6.1,5.8-10.1,7.4h0ZM118.4,39.3l-10.5-.9-3-4.2,2.9-8.9,4.9-1.6,9.1,5.5c-.3,3.6-1.5,7-3.3,10h-.1ZM117.9,13.9c2.3,3.5,3.6,7.5,3.9,11.9l-7.1-4.3,3.2-7.6ZM115.8,11.2l-4.1,9.8-4.9,1.6-7.6-5.5v-5.1l8-6.9c3.3,1.4,6.2,3.6,8.5,6.2h.1ZM104.8,24.8l-2.7,8.3h-8.7l-2.7-8.3,7-5.1,7.1,5.1h0ZM97.8,3c2.2,0,4.3.3,6.3.9l-6.3,5.4-6.3-5.4c2-.5,4.1-.9,6.3-.9ZM88.2,5l8,6.9v5.1l-7.6,5.5-4.9-1.6-4.1-9.8c2.3-2.7,5.2-4.8,8.5-6.2h.1ZM77.6,13.9l3.2,7.6-7.1,4.3c.2-4.4,1.6-8.4,3.9-11.9h0ZM77.1,39.3c-1.8-3-2.9-6.4-3.3-10l9.1-5.5,4.9,1.6,2.9,8.9-3,4.1-10.6.9h0ZM79.1,42.2l8.2-.7,1.9,8c-4-1.5-7.5-4.1-10.1-7.4h0ZM92.5,50.5l-2.4-10.3,3-4.2h9.4l3,4.2-2.4,10.3c-1.7.4-3.5.6-5.3.6s-3.6-.2-5.3-.6ZM48.4,117h-12.8v-19.4h12.8v19.4ZM82.5,117h-12.8v-19.4h12.8v19.4ZM126.2,117h-12.8v-19.4h12.8v19.4ZM160.3,117h-12.8v-19.4h12.8v19.4Z"/>
        </g>
      </g>
      <g id="event" class="cls-4">
        <g id="Venue_recommendation">
          <g class="cls-5">
            <g>
              <path class="cls-3" d="M98,0c-25.1,0-45.5,20.4-45.5,45.5s42.3,72.3,44.1,73.9c.8.7,2,.7,2.8,0,1.8-1.6,44.1-40.3,44.1-73.9S123.1,0,98,0ZM98,115.1c-7.4-7-41.4-41.1-41.4-69.6S75.1,4.1,98,4.1s41.4,18.5,41.4,41.4-34,62.5-41.4,69.6Z"/>
              <path class="cls-3" d="M98,16.6c-16,0-29,13-29,29s13,29,29,29,29-13,29-29-13-29-29-29ZM98,70.4c-13.7,0-24.8-11.1-24.8-24.8s11.1-24.8,24.8-24.8,24.8,11.1,24.8,24.8-11.1,24.8-24.8,24.8Z"/>
            </g>
          </g>
        </g>
      </g>
      <g class="cls-4">
        <g class="cls-7">
          <g>
            <path class="cls-3" d="M110,40c0-9.9-8.1-18-18-18s-18,8.1-18,18,8.1,18,18,18,18-8.1,18-18ZM92,54c-7.7,0-14-6.3-14-14s6.3-14,14-14,14,6.3,14,14-6.3,14-14,14Z"/>
            <path class="cls-3" d="M92,104c-11,0-21.3-3.5-30-10.1v-21.9c0-5.5,4.5-10,10-10h40c2.2,0,4.4.7,6.1,2.1l2.4-3.2c-2.4-1.9-5.5-2.9-8.6-2.9h-40c-7.7,0-14,6.3-14,14v18.6c-10.2-9.4-16-22.5-16-36.6,0-27.6,22.4-50,50-50s50,22.4,50,50,3.4,8.2,3.4,8.2c.4-2.6.6-5.4.6-8.2C145.9,24.2,121.7,0,91.9,0s-54,24.2-54,54,7.6,32.2,20.8,42.5c9.6,7.5,21.1,11.5,33.2,11.5s13.8-1.3,20.2-3.9l-1.5-3.7c-6,2.4-12.3,3.6-18.7,3.6h.1Z"/>
            <path class="cls-3" d="M156.9,72.9l-24-12.7c-.6-.3-1.3-.3-1.9,0l-24,12.7c-.7.4-1.1,1.2-1.1,2l.5,3.8c2,16.6,10.8,31.5,24.4,40.9.3.2.7.4,1.1.4s.8,0,1.1-.4c13.5-9.4,22.4-24.3,24.4-40.9l.5-3.8c0-.8-.3-1.6-1.1-2h.1ZM153.6,78.3c-1.8,15-9.6,28.5-21.6,37.2-12-8.8-19.8-22.3-21.6-37.2l-.3-2.5,21.9-11.6,21.9,11.6-.3,2.5h0Z"/>
            <polygon class="cls-3" points="130 78 130 86 122 86 122 90 130 90 130 98 134 98 134 90 142 90 142 86 134 86 134 78 130 78"/>
          </g>
        </g>
      </g>
      <path class="cls-2" d="M90.5,52h-16.8c-2,0-3.7,1.6-3.7,3.7v60.6c0,2,1.6,3.7,3.7,3.7h16.9c2,0,3.7-1.6,3.7-3.7v-60.6c0-2-1.7-3.7-3.7-3.7h0ZM91.7,116.3c0,.7-.6,1.2-1.2,1.2h-16.8c-.7,0-1.2-.6-1.2-1.2v-60.6c0-.7.6-1.2,1.2-1.2h16.9c.7,0,1.2.6,1.2,1.2v60.6ZM122.4,63.8h-16.8c-2,0-3.7,1.6-3.7,3.7v48.9c0,2,1.6,3.7,3.7,3.7h16.8c2,0,3.7-1.6,3.7-3.7v-48.9c0-2-1.7-3.7-3.7-3.7h0ZM123.6,116.3c0,.7-.6,1.2-1.2,1.2h-16.8c-.7,0-1.2-.6-1.2-1.2v-48.9c0-.7.6-1.2,1.2-1.2h16.8c.7,0,1.2.6,1.2,1.2v48.9ZM154.3,29.7h-16.8c-2,0-3.7,1.6-3.7,3.7v83c0,2,1.6,3.7,3.7,3.7h16.9c2,0,3.7-1.6,3.7-3.7V33.4c0-2-1.7-3.7-3.7-3.7h0ZM155.5,116.3c0,.7-.6,1.2-1.2,1.2h-16.8c-.7,0-1.2-.6-1.2-1.2V33.4c0-.7.6-1.2,1.2-1.2h16.9c.7,0,1.2.6,1.2,1.2v83ZM58.5,82.1h-16.8c-2,0-3.7,1.6-3.7,3.7v30.6c0,2,1.6,3.7,3.7,3.7h16.9c2,0,3.7-1.6,3.7-3.7v-30.6c0-2-1.7-3.7-3.7-3.7h0ZM59.7,116.3c0,.7-.6,1.2-1.2,1.2h-16.8c-.7,0-1.2-.6-1.2-1.2v-30.6c0-.7.6-1.2,1.2-1.2h16.9c.7,0,1.2.6,1.2,1.2v30.6h0ZM50.1,70.5c4.9,0,8.9-4,8.9-8.9s-.7-3.9-1.9-5.4l19.6-20c1.5,1.1,3.3,1.8,5.3,1.8,3.4,0,6.3-1.9,7.8-4.7l15.4,5.7c-.1.6-.2,1.2-.2,1.9,0,4.9,4,8.9,8.9,8.9s8.9-4,8.9-8.9-.7-3.9-1.8-5.3l19.5-19.5c1.5,1.1,3.3,1.8,5.3,1.8,4.9,0,8.9-4,8.9-8.9s-4-8.9-8.9-8.9-8.9,4-8.9,8.9.7,3.9,1.8,5.3l-19.5,19.5c-1.5-1.1-3.3-1.8-5.3-1.8-3.4,0-6.3,1.9-7.8,4.7l-15.4-5.7c.1-.6.2-1.2.2-1.9,0-4.9-4-8.9-8.9-8.9s-8.9,4-8.9,8.9.7,3.9,1.9,5.4l-19.6,20c-1.5-1.1-3.3-1.8-5.3-1.8-4.9,0-8.9,4-8.9,8.9,0,4.9,4,8.9,8.9,8.9h0ZM145.9,2.5c3.5,0,6.4,2.9,6.4,6.4s-2.9,6.4-6.4,6.4-6.4-2.9-6.4-6.4c0-3.6,2.9-6.4,6.4-6.4ZM114,34.4c3.5,0,6.4,2.9,6.4,6.4s-2.9,6.4-6.4,6.4-6.4-2.9-6.4-6.4c0-3.6,2.9-6.4,6.4-6.4ZM82,22.6c3.5,0,6.4,2.9,6.4,6.4s-2.9,6.4-6.4,6.4-6.4-2.9-6.4-6.4,2.9-6.4,6.4-6.4ZM50.1,55.1c3.5,0,6.4,2.9,6.4,6.4s-2.9,6.4-6.4,6.4-6.4-2.9-6.4-6.4,2.9-6.4,6.4-6.4Z"/>
      <g class="cls-6">
        <path class="cls-3" d="M105.5,120c-2.3,0-4.1-1.9-4.1-4.1v-48.5c0-2.3,1.9-4.1,4.1-4.1h16.7c2.3,0,4.1,1.9,4.1,4.1v48.5c0,2.3-1.9,4.1-4.1,4.1h-16.7ZM105.5,66.7c-.4,0-.7.3-.7.7v48.5c0,.4.3.7.7.7h16.7c.4,0,.7-.3.7-.7v-48.5c0-.4-.3-.7-.7-.7h-16.7ZM137.1,120c-2.3,0-4.1-1.9-4.1-4.1V33.6c0-2.3,1.9-4.1,4.1-4.1h16.7c2.3,0,4.1,1.9,4.1,4.1v82.3c0,2.3-1.9,4.1-4.1,4.1h-16.7ZM137.1,32.8c-.4,0-.7.3-.7.7v82.3c0,.4.3.7.7.7h16.7c.4,0,.7-.3.7-.7V33.6c0-.4-.3-.7-.7-.7h-16.7ZM73.8,120c-2.3,0-4.1-1.9-4.1-4.1v-60.1c0-2.3,1.9-4.1,4.1-4.1h16.7c2.3,0,4.1,1.9,4.1,4.1v60.1c0,2.3-1.9,4.1-4.1,4.1h-16.7ZM73.8,55c-.4,0-.7.3-.7.7v60.1c0,.4.3.7.7.7h16.7c.4,0,.7-.3.7-.7v-60.1c0-.4-.3-.7-.7-.7h-16.7ZM42.2,120c-2.3,0-4.1-1.9-4.1-4.1v-30.3c0-2.3,1.9-4.1,4.1-4.1h16.7c2.3,0,4.1,1.9,4.1,4.1v30.3c0,2.3-1.9,4.1-4.1,4.1h-16.7ZM42.2,84.8c-.4,0-.7.3-.7.7v30.3c0,.4.3.7.7.7h16.7c.4,0,.7-.3.7-.7v-.5h0v-29.8c0-.4-.3-.7-.7-.7h-16.7ZM50.5,70.9c-5.1,0-9.3-4.2-9.3-9.3,0-5.1,4.2-9.3,9.3-9.3s3.6.6,5.2,1.6l18.8-19.2c-1.1-1.6-1.7-3.4-1.7-5.3,0-5.1,4.2-9.3,9.3-9.3s9.3,4.2,9.3,9.3,0,1-.1,1.6l14.5,5.3c1.7-2.8,4.7-4.5,8-4.5s3.7.6,5.3,1.6l18.8-18.7c-1.1-1.6-1.6-3.4-1.6-5.3,0-5.1,4.2-9.3,9.3-9.3s9.3,4.2,9.3,9.3-4.2,9.3-9.3,9.3-3.7-.6-5.3-1.6l-18.7,18.7c1.1,1.6,1.6,3.4,1.6,5.3,0,5.1-4.2,9.3-9.3,9.3s-9.3-4.2-9.3-9.3,0-1,.1-1.6l-14.5-5.3c-1.7,2.8-4.7,4.5-8,4.5s-3.6-.6-5.2-1.6l-18.9,19.2c1.1,1.6,1.7,3.4,1.7,5.3,0,5.1-4.2,9.3-9.3,9.3ZM50.5,55.7c-3.3,0-5.9,2.6-5.9,5.9s2.6,5.9,5.9,5.9,5.9-2.6,5.9-5.9-2.6-5.9-5.9-5.9ZM113.8,35.1c-3.2,0-5.9,2.6-5.9,5.9,0,3.2,2.6,5.9,5.9,5.9s5.9-2.6,5.9-5.9-2.6-5.9-5.9-5.9ZM82.2,23.4c-3.3,0-5.9,2.6-5.9,5.9s2.6,5.9,5.9,5.9,5.9-2.6,5.9-5.9-2.6-5.9-5.9-5.9ZM145.5,3.4c-3.2,0-5.9,2.6-5.9,5.9,0,3.2,2.6,5.9,5.9,5.9s5.9-2.6,5.9-5.9-2.6-5.9-5.9-5.9Z"/>
      </g>
    </g>
  </g>
</svg>