<svg id="enterprise_angular_solutions" data-name="enterprise angular solutions" xmlns="http://www.w3.org/2000/svg" xmlns:xlink="http://www.w3.org/1999/xlink" viewBox="0 0 119.95 120"><defs><style>.cls-1{fill:none;}.cls-2{clip-path:url(#clip-path);}.cls-3{fill:#3b82f6;}</style><clipPath id="clip-path" transform="translate(-38.03)"><rect class="cls-1" width="196" height="120"/></clipPath></defs><g class="cls-2"><path class="cls-3" d="M130.82,100.77h-13c-2.59,0-3.17,2.43-1.27,3.83a10.74,10.74,0,0,1,4,4.87c1.14,3.28-.62,6.12-3.3,8a16.74,16.74,0,0,1-17.86,0c-2.68-1.83-4.45-4.67-3.31-8a10.71,10.71,0,0,1,4-4.87c1.82-1.36,1.32-3.83-1.29-3.83H85.29a8,8,0,0,1-8-8V81H72.67a3.62,3.62,0,0,1-3.61-3.62V71.17a32.65,32.65,0,0,1-5.54-2.29l-4.39,4.39a3.63,3.63,0,0,1-5.11,0L45.75,65a3.6,3.6,0,0,1,0-5.1l4.39-4.39A31.89,31.89,0,0,1,47.84,50H41.63A3.61,3.61,0,0,1,38,46.35V34.65A3.61,3.61,0,0,1,41.63,31h6.21a31.89,31.89,0,0,1,2.3-5.54l-4.39-4.4a3.6,3.6,0,0,1,0-5.1L54,7.73a3.62,3.62,0,0,1,5.11,0l4.39,4.39a31.57,31.57,0,0,1,5.54-2.3V3.61A3.61,3.61,0,0,1,72.67,0h11.7A3.61,3.61,0,0,1,88,3.61V9.82a31.47,31.47,0,0,1,5.53,2.3l4.4-4.39a3.62,3.62,0,0,1,5.11,0L111.29,16a3.62,3.62,0,0,1,0,5.1l-4.4,4.4a31.89,31.89,0,0,1,2.3,5.54h6.21A3.61,3.61,0,0,1,119,34.65v4.74h11.81a8,8,0,0,1,8,8V60.67c0,2.59,2.39,2.74,3.78.87a10.71,10.71,0,0,1,4.87-4c3.28-1.15,6.13.62,7.95,3.29a16.75,16.75,0,0,1,0,17.92c-1.82,2.66-4.68,4.41-7.93,3.27a10.67,10.67,0,0,1-4.85-4c-1.21-1.63-3.79-1.21-3.79,1V92.8a8,8,0,0,1-8,8ZM135.1,24a1.06,1.06,0,0,1-1.5-1.5l6.63-6.67a1.06,1.06,0,0,1,1.51,1.49Zm11.37,18.38a1.06,1.06,0,0,1-.59-2l10.33-3a1.06,1.06,0,0,1,.59,2ZM117.2,11.87a1.06,1.06,0,0,1-2-.57L118.08,1a1.06,1.06,0,0,1,2,.57Zm-56.46,84a1.06,1.06,0,0,1,1.51,1.49L55.62,104a1.06,1.06,0,0,1-1.5-1.49ZM49.39,77.48a1.06,1.06,0,0,1,.59,2l-10.34,3a1.06,1.06,0,0,1-.59-2ZM78.66,108a1.06,1.06,0,0,1,2,.58L77.77,119a1.06,1.06,0,0,1-2-.57ZM77.32,78.87V59.05A18.59,18.59,0,1,1,97.07,39.4h19.81V34.65a1.49,1.49,0,0,0-1.48-1.48h-7a1.07,1.07,0,0,1-1-.78,30.3,30.3,0,0,0-2.69-6.51,1.07,1.07,0,0,1,.14-1.32l5-5a1.49,1.49,0,0,0,0-2.09l-8.27-8.27a1.48,1.48,0,0,0-2.1,0l-5,4.95a1,1,0,0,1-1.27.18,30.08,30.08,0,0,0-6.5-2.71,1.06,1.06,0,0,1-.84-1v-7a1.49,1.49,0,0,0-1.48-1.47H72.67a1.48,1.48,0,0,0-1.48,1.47v7a1.07,1.07,0,0,1-.84,1,29.87,29.87,0,0,0-6.5,2.71,1.06,1.06,0,0,1-1.28-.18l-5-4.95a1.46,1.46,0,0,0-2.08,0l-8.28,8.27a1.49,1.49,0,0,0,0,2.09l5,5a1.06,1.06,0,0,1,.15,1.32,29.83,29.83,0,0,0-2.7,6.51,1.06,1.06,0,0,1-1,.78h-7a1.47,1.47,0,0,0-1.47,1.48v11.7a1.48,1.48,0,0,0,1.47,1.48h7a1.07,1.07,0,0,1,1,.78,29.63,29.63,0,0,0,2.7,6.51,1.06,1.06,0,0,1-.15,1.32l-5,5a1.49,1.49,0,0,0,0,2.09l8.28,8.28a1.49,1.49,0,0,0,2.09,0l5-5a1.07,1.07,0,0,1,1.28-.18,29.38,29.38,0,0,0,6.5,2.71,1.06,1.06,0,0,1,.84,1v7a1.5,1.5,0,0,0,1.48,1.48Zm0-22V47.36a8,8,0,0,1,8-8h9.64A16.45,16.45,0,1,0,77.32,56.91Zm40.53,41.73h13a5.85,5.85,0,0,0,5.82-5.83V79.06c0-4.27,5.22-5.56,7.64-2.27A8.65,8.65,0,0,0,148.11,80c5.87,2.06,10.7-10.35,5.51-18-1.25-1.85-3.18-3.29-5.49-2.49a8.8,8.8,0,0,0-3.86,3.24c-2.66,3.58-7.63,2.44-7.63-2.14V47.36a5.85,5.85,0,0,0-5.82-5.83H85.28a5.86,5.86,0,0,0-5.83,5.83V92.81a5.86,5.86,0,0,0,5.83,5.83H98.8c4.67,0,6,5.1,2.54,7.67a8.71,8.71,0,0,0-3.23,3.86c-2,5.89,10.36,10.65,18,5.48,1.84-1.24,3.29-3.17,2.48-5.48a8.68,8.68,0,0,0-3.24-3.86c-3.54-2.63-2.1-7.67,2.53-7.67Z" transform="translate(-38.03)"/></g></svg>