<?xml version="1.0" encoding="UTF-8"?>
<svg id="Layer_2" xmlns="http://www.w3.org/2000/svg" xmlns:xlink="http://www.w3.org/1999/xlink" viewBox="0 0 50 50">
  <defs>
    <style>
      .cls-1 {
        fill: #f2622a;
      }

      .cls-2 {
        fill: none;
      }

      .cls-3 {
        clip-path: url(#clippath);
      }
    </style>
    <clipPath id="clippath">
      <rect class="cls-2" width="50" height="50"/>
    </clipPath>
  </defs>
  <g id="Layer_1-2" data-name="Layer_1">
    <g class="cls-3">
      <path class="cls-1" d="M13.58,3.79c0-.45.36-.82.82-.82s.82.36.82.82-.36.82-.82.82-.82-.36-.82-.82ZM16.86,4.43h2.33c.34,0,.61-.28.61-.61s-.28-.61-.61-.61h-2.33c-.34,0-.61.28-.61.61,0,.33.27.61.61.61ZM48.94,12.67v15.55c0,1.74-1.41,3.15-3.15,3.15h-14.08s0,13.96,0,13.96c0,2.58-2.1,4.67-4.67,4.67H5.74c-2.58,0-4.67-2.09-4.67-4.67V4.67C1.06,2.1,3.16,0,5.74,0h21.31c2.58,0,4.67,2.1,4.67,4.67v4.85h14.07c1.73,0,3.15,1.41,3.15,3.15h0ZM16.38,26.02c-3.75,0-6.81,3.06-6.81,6.81s3.06,6.81,6.81,6.81,6.81-3.06,6.81-6.81-3.05-6.81-6.81-6.81ZM16.6,24.81v-12.13c0-1.74,1.41-3.15,3.15-3.15h8.32v-5.38c0-.23-.18-.41-.41-.41h-5.89v1.44c0,.9-.73,1.62-1.62,1.62h-7.52c-.9,0-1.62-.73-1.62-1.62v-1.44h-5.89c-.23,0-.41.18-.41.41v41.12c0,.23.18.41.4.41h22.56c.23,0,.41-.18.41-.41v-13.89s-3.79,0-3.79,0c.09.47.14.95.14,1.46,0,4.43-3.6,8.03-8.03,8.03s-8.03-3.6-8.03-8.03,3.6-8.03,8.03-8.03c.07,0,.15,0,.22,0h0ZM17.83,18.82h29.89v-3h-29.89v3ZM45.78,10.74h-26.02c-1.07,0-1.93.87-1.93,1.93v1.93h29.89v-1.93c0-1.07-.87-1.93-1.93-1.93h0ZM30.49,31.37h-1.2v13.89c0,.9-.73,1.62-1.62,1.62H5.1c-.9,0-1.62-.73-1.62-1.62V4.14c0-.9.73-1.62,1.62-1.62h6.51c.34,0,.61.28.61.61v2.05c0,.23.18.41.41.41h7.52c.23,0,.41-.18.41-.41v-2.05c0-.34.28-.61.61-.61h6.51c.9,0,1.62.73,1.62,1.62v5.38h1.2v-4.85c0-1.91-1.54-3.46-3.45-3.46H5.74c-1.91,0-3.46,1.55-3.46,3.46v40.65c0,1.91,1.55,3.46,3.46,3.46h21.31c1.91,0,3.46-1.55,3.46-3.46v-13.95s0,0,0,0ZM47.71,28.22v-8.18h-29.89v4.89c2.85.52,5.17,2.54,6.12,5.22h21.84c1.06,0,1.93-.87,1.93-1.93h0ZM44.81,24.23v1.73c0,.9-.73,1.62-1.62,1.62h-4.58c-.9,0-1.62-.73-1.62-1.62v-1.73c0-.9.73-1.62,1.62-1.62h4.57c.9,0,1.63.73,1.63,1.62h0ZM43.59,24.23c0-.23-.18-.41-.41-.41h-4.58c-.23,0-.41.18-.41.4v1.73c0,.23.18.41.41.41h4.57c.23,0,.41-.18.41-.41v-1.72ZM16.38,32.21c-.56,0-1.02-.46-1.02-1.02s.46-1.02,1.02-1.02c.43,0,.82.27.97.68.11.31.46.48.78.36.32-.11.48-.46.37-.78-.25-.69-.82-1.21-1.5-1.4v-.32c0-.34-.28-.61-.61-.61s-.61.28-.61.61v.32c-.94.26-1.63,1.13-1.63,2.16,0,1.24,1,2.24,2.24,2.24.56,0,1.02.46,1.02,1.02,0,.63-.44.93-.85,1-.39.07-.93-.06-1.14-.65-.11-.32-.46-.48-.78-.37-.32.11-.48.46-.37.78.26.71.82,1.21,1.5,1.4v.32c0,.34.28.61.61.61s.61-.28.61-.61v-.33c.85-.23,1.64-.96,1.64-2.15s-1-2.24-2.25-2.24h0Z"/>
    </g>
  </g>
</svg>