<?xml version="1.0" encoding="UTF-8"?>
<svg id="Layer_2" xmlns="http://www.w3.org/2000/svg" xmlns:xlink="http://www.w3.org/1999/xlink" viewBox="0 0 50 50">
  <defs>
    <style>
      .cls-1 {
        fill: none;
      }

      .cls-2 {
        fill: #f2622a;
        fill-rule: evenodd;
      }

      .cls-3 {
        clip-path: url(#clippath);
      }
    </style>
    <clipPath id="clippath">
      <rect class="cls-1" width="50" height="50"/>
    </clipPath>
  </defs>
  <g id="Layer_1-2" data-name="Layer_1">
    <g class="cls-3">
      <path class="cls-2" d="M32.19,13.1c1.91,1.91,2.98,4.49,2.98,7.19,0,.2-.08.39-.22.54-.14.14-.34.22-.54.22H15.58c-.42,0-.76-.34-.76-.76,0-2.7,1.07-5.29,2.98-7.19,1.91-1.91,4.5-2.98,7.19-2.98s5.29,1.07,7.19,2.98h0ZM33.63,19.54c-.26-2.9-1.95-5.48-4.52-6.86-2.57-1.38-5.65-1.38-8.22,0-2.57,1.38-4.26,3.96-4.52,6.86h17.25ZM26.66,3.8c-.79-.79-2.03-.91-2.96-.29-.93.62-1.29,1.82-.86,2.85.43,1.04,1.53,1.62,2.63,1.4,1.1-.22,1.89-1.18,1.89-2.3,0-.62-.25-1.22-.69-1.66h0ZM25,1.59c1.84,0,3.43,1.3,3.79,3.11.36,1.81-.61,3.62-2.31,4.32-1.7.71-3.67.11-4.69-1.42-1.02-1.53-.82-3.57.48-4.88.72-.72,1.71-1.13,2.73-1.13h0ZM17.37,40.45c1.91,1.91,2.98,4.49,2.98,7.19,0,.42-.34.76-.76.76H.76c-.2,0-.39-.08-.54-.22-.14-.14-.22-.34-.22-.54,0-2.7,1.07-5.29,2.98-7.19,1.91-1.91,4.5-2.98,7.19-2.98s5.29,1.07,7.19,2.98h0ZM18.8,46.89c-.26-2.9-1.95-5.48-4.52-6.86-2.57-1.38-5.65-1.38-8.22,0-2.57,1.38-4.26,3.96-4.52,6.86h17.25ZM11.83,31.15c-.79-.79-2.03-.91-2.96-.29-.93.62-1.29,1.82-.86,2.85.43,1.04,1.53,1.62,2.63,1.4,1.1-.22,1.89-1.18,1.89-2.3,0-.62-.25-1.22-.69-1.66h0ZM10.17,28.95c1.84,0,3.43,1.3,3.79,3.11.36,1.81-.61,3.62-2.31,4.32-1.7.71-3.67.11-4.69-1.42-1.02-1.53-.82-3.57.48-4.88.72-.72,1.71-1.13,2.73-1.13h0ZM47.02,40.45c1.91,1.91,2.98,4.49,2.98,7.19,0,.2-.08.39-.22.54-.14.14-.34.22-.54.22h-18.83c-.42,0-.76-.34-.76-.76,0-2.7,1.07-5.29,2.98-7.19,1.91-1.91,4.5-2.98,7.19-2.98s5.29,1.07,7.19,2.98h0ZM48.45,46.89c-.26-2.9-1.95-5.48-4.52-6.86-2.56-1.38-5.65-1.38-8.22,0-2.57,1.38-4.26,3.96-4.52,6.86h17.25ZM41.49,31.15c-.79-.79-2.03-.91-2.96-.29-.93.62-1.29,1.82-.86,2.85.43,1.04,1.53,1.62,2.63,1.4,1.1-.22,1.89-1.18,1.89-2.3,0-.62-.25-1.22-.69-1.66h0ZM39.83,28.95h0c1.84,0,3.43,1.3,3.79,3.11.36,1.81-.61,3.62-2.31,4.32-1.7.7-3.67.11-4.69-1.42-1.02-1.53-.82-3.57.48-4.88.72-.72,1.71-1.13,2.73-1.13h0ZM18.55,31.65l-2.48,2.48s-.05.05-.07.08h-.01s-.03.05-.03.05h0s-.02.03-.02.03h0c-.13.23-.13.51,0,.74l.02.03h0s0,.02,0,.02h0s.02.03.02.03h0s.01.02.01.02c.02.03.04.05.07.08l2.48,2.48h0c.14.15.34.23.54.23s.4-.08.54-.22c.14-.14.22-.34.22-.54,0-.2-.09-.4-.23-.54l-1.19-1.19h13.15l-1.19,1.19c-.15.14-.23.33-.23.54,0,.2.08.4.22.54.15.15.34.22.54.22.2,0,.4-.09.54-.23l2.48-2.48s.03-.03.04-.05h0s0-.02,0-.02v-.02s.02,0,.02,0h0s0-.02,0-.02h0s0-.02,0-.02h0s0-.02,0-.02h0s0,0,0,0h0s0-.02,0-.02v-.02s.01,0,.01,0h0v-.02h0v-.02l.02-.05c.07-.17.07-.36,0-.54l-.02-.05h0s0-.02,0-.02h0s0-.02,0-.02h0s0-.02,0-.02h0s0-.03,0-.03h0s0-.02,0-.02h0s0-.02,0-.02h0s0-.02,0-.02h0s0-.02,0-.02h0s0-.01,0-.01h0s0-.01,0-.01h0s-.03-.04-.04-.06l-2.48-2.48h0c-.3-.3-.77-.3-1.07,0-.3.3-.3.78,0,1.07l1.19,1.19h-5.82v-9.15l2.46,2.46c.3.3.78.3,1.07,0,.3-.3.3-.77,0-1.07l-3.75-3.75-.03-.03h-.01s0-.02,0-.02h-.02s0-.02,0-.02h-.01s0-.01,0-.01h-.01s0-.01,0-.01h-.01s0-.01,0-.01h-.01s0,0,0,0h-.01s0,0,0,0h-.01s0,0,0,0h-.01s0-.01,0-.01h-.02s0-.02,0-.02h0s0,0,0,0h-.03s0-.01,0-.01h-.02c-.09-.04-.18-.06-.27-.06-.1,0-.19.02-.28.06h-.03s-.01.02-.01.02h-.02s0,0,0,0h-.01s0,.01,0,.01h0s-.01.01-.01.01h0s0,.01,0,.01h0s0,.01,0,.01h0s0,.01,0,.01h0s0,.01,0,.01h0s0,.01,0,.01h-.01s0,0,0,0h0s-.04.03-.06.05l-3.75,3.75c-.3.3-.3.77,0,1.07.3.3.77.3,1.07,0l2.46-2.46v9.16s-5.82,0-5.82,0l1.19-1.19c.3-.3.3-.78,0-1.07s-.77-.3-1.07,0h0Z"/>
    </g>
  </g>
</svg>