<?xml version="1.0" encoding="UTF-8"?>
<svg id="Layer_2" xmlns="http://www.w3.org/2000/svg" xmlns:xlink="http://www.w3.org/1999/xlink" viewBox="0 0 50 50">
  <defs>
    <style>
      .cls-1 {
        fill: #f2622a;
      }

      .cls-2 {
        fill: none;
      }

      .cls-3 {
        clip-path: url(#clippath);
      }
    </style>
    <clipPath id="clippath">
      <rect class="cls-2" width="50" height="50"/>
    </clipPath>
  </defs>
  <g id="Layer_1-2" data-name="Layer_1">
    <g class="cls-3">
      <g>
        <path class="cls-1" d="M49.37,35h-19c-.31,0-.62.25-.62.62v1.94h-9.5v-1.94c0-.31-.25-.62-.62-.62H.62c-.31,0-.62.25-.62.62v1.69c0,2.94,2.44,5.38,5.38,5.38h39.25c2.94,0,5.38-2.44,5.38-5.38v-1.69c0-.38-.25-.62-.63-.62h0ZM48.75,37.25c0,2.31-1.87,4.13-4.13,4.13H5.37c-2.31,0-4.13-1.88-4.13-4.13v-1.06h17.81v1.94c0,.31.25.62.62.62h10.75c.31,0,.62-.25.62-.62v-1.94h17.69v1.06Z"/>
        <path class="cls-1" d="M4.25,32.94c.31,0,.62-.25.62-.62V10.38c0-1,.81-1.81,1.81-1.81h36.56c1,0,1.81.81,1.81,1.81v21.94c0,.31.25.62.62.62s.62-.25.62-.62V10.38c0-1.69-1.37-3.06-3.06-3.06H6.69c-1.69,0-3.06,1.37-3.06,3.06v21.94c.06.38.31.62.62.62h0Z"/>
        <path class="cls-1" d="M42.43,32.94c.31,0,.62-.25.62-.62V11.19c0-.31-.25-.62-.62-.62H7.5c-.31,0-.62.25-.62.62v21.12c0,.31.25.62.62.62.31,0,.62-.25.62-.62V11.81h33.75v20.5c0,.38.25.62.56.62h0Z"/>
        <path class="cls-1" d="M38.37,32.94c.31,0,.62-.25.62-.62v-2.88c0-.31-.19-.56-.5-.62l-3.25-.62c-.25-.62-.5-1.25-.87-1.94l1.87-2.75c.19-.25.12-.56-.06-.75l-2.62-2.62c-.19-.19-.5-.25-.75-.06l-2.75,1.87c-.62-.31-1.31-.62-2-.81l-.62-3.25c-.06-.31-.31-.5-.62-.5h-3.69c-.31,0-.56.19-.62.5l-.62,3.25c-.69.19-1.37.5-2,.81l-2.75-1.87c-.25-.19-.56-.12-.75.06l-2.56,2.62c-.19.19-.25.5-.06.75l1.87,2.75c-.31.62-.62,1.31-.81,2l-3.25.62c-.31.06-.5.31-.5.62v2.88c0,.31.25.62.62.62.31,0,.62-.25.62-.62v-2.38s3.12-.62,3.12-.62c.25-.06.44-.19.5-.44.25-.81.56-1.63,1-2.44.12-.19.12-.44,0-.62l-1.94-2.63,1.87-1.87,2.62,1.81c.19.12.44.12.62,0,.75-.44,1.56-.75,2.44-1,.25-.06.38-.25.44-.5l.62-3.12h2.69l.62,3.12c.06.25.19.44.44.5.87.25,1.63.56,2.44,1,.19.12.44.12.62,0l2.62-1.81,1.87,1.87-1.81,2.62c-.12.19-.12.44,0,.62.44.75.75,1.56,1,2.44.06.25.25.38.5.44l3.12.62v2.31c0,.38.31.63.62.63h0Z"/>
        <path class="cls-1" d="M31,32.94h.12c.31,0,.56-.19.62-.5.06-.38.06-.75.06-1.13,0-3.75-3.06-6.81-6.81-6.81s-6.81,3.06-6.81,6.81c0,.38,0,.75.06,1.13.06.31.38.56.69.5.31-.06.56-.38.5-.69-.06-.31-.06-.62-.06-.94,0-3.06,2.5-5.56,5.56-5.56s5.56,2.5,5.56,5.56c0,.31,0,.62-.06.94,0,.31.25.63.56.69h0Z"/>
      </g>
    </g>
  </g>
</svg>