<?xml version="1.0" encoding="UTF-8"?>
<svg id="Layer_2" xmlns="http://www.w3.org/2000/svg" viewBox="0 0 48.12 50">
  <defs>
    <style>
      .cls-1 {
        fill: #f2622a;
      }
    </style>
  </defs>
  <g id="Layer_1-2" data-name="Layer_1">
    <path class="cls-1" d="M45.56,7.48h-1.17V.7c0-.38-.32-.7-.7-.7H4.44c-.38,0-.7.32-.7.7v6.78h-1.17c-1.42,0-2.57,1.15-2.57,2.57v29.91c0,1.42,1.15,2.57,2.57,2.57h15.6l-1.21,6.07h-4.1c-.38,0-.7.32-.7.7s.32.7.7.7h22.43c.38,0,.7-.32.7-.7s-.32-.7-.7-.7h-4.1l-1.21-6.07h15.59c1.42,0,2.57-1.15,2.57-2.57V10.05c0-1.42-1.15-2.57-2.57-2.57h0ZM45.56,8.88c.64,0,1.17.52,1.17,1.17v25.47h-2.34V8.88h1.17ZM5.14,1.4h37.85v34.11H5.14V1.4ZM2.57,8.88h1.17v26.64H1.4V10.05c0-.64.52-1.17,1.17-1.17ZM29.75,48.6h-11.37l1.21-6.07h8.94s1.21,6.07,1.21,6.07ZM45.56,41.12H2.57c-.64,0-1.17-.52-1.17-1.17v-3.04h45.33v3.04c0,.64-.52,1.17-1.17,1.17ZM10.98,10.75h3.11c.33,1.6,1.74,2.8,3.43,2.8s3.11-1.21,3.43-2.8h16.2c.38,0,.7-.32.7-.7s-.32-.7-.7-.7h-16.2c-.33-1.6-1.74-2.8-3.43-2.8s-3.11,1.21-3.43,2.8h-3.11c-.38,0-.7.32-.7.7s.32.7.7.7ZM17.52,7.94c1.16,0,2.1.94,2.1,2.1s-.94,2.1-2.1,2.1-2.1-.94-2.1-2.1.94-2.1,2.1-2.1ZM10.98,20.09h3.11c.33,1.6,1.74,2.8,3.43,2.8s3.11-1.21,3.43-2.8h16.2c.38,0,.7-.32.7-.7s-.32-.7-.7-.7h-16.2c-.33-1.6-1.74-2.8-3.43-2.8s-3.11,1.21-3.43,2.8h-3.11c-.38,0-.7.32-.7.7s.32.7.7.7ZM17.52,17.29c1.16,0,2.1.94,2.1,2.1s-.94,2.1-2.1,2.1-2.1-.94-2.1-2.1.94-2.1,2.1-2.1ZM10.98,29.44h16.2c.33,1.6,1.74,2.8,3.43,2.8s3.11-1.21,3.43-2.8h3.11c.38,0,.7-.32.7-.7s-.32-.7-.7-.7h-3.11c-.33-1.6-1.74-2.8-3.43-2.8s-3.11,1.21-3.43,2.8H10.98c-.38,0-.7.32-.7.7s.32.7.7.7ZM30.61,26.64c1.16,0,2.1.94,2.1,2.1s-.94,2.1-2.1,2.1-2.1-.94-2.1-2.1.94-2.1,2.1-2.1Z"/>
  </g>
</svg>