<?xml version="1.0" encoding="UTF-8"?>
<svg id="Layer_2" xmlns="http://www.w3.org/2000/svg" viewBox="0 0 49.97 50">
  <defs>
    <style>
      .cls-1 {
        fill: #f2622a;
      }
    </style>
  </defs>
  <g id="Layer_1-2" data-name="Layer_1">
    <path class="cls-1" d="M44.11,50c-.88,0-1.7-.34-2.31-.95l-1.53-1.53c-1.18-1.18-2.28-2.45-3.28-3.79l-6.21-8.32-.32.22c-3.24,2.2-7.03,3.36-10.97,3.36-5.21,0-10.11-2.02-13.79-5.7C-1.9,25.69-1.9,13.31,5.7,5.7,9.38,2.03,14.28,0,19.5,0s10.11,2.03,13.79,5.7c6.63,6.63,7.6,17.05,2.31,24.79l-.22.32,8.32,6.21c1.34,1.01,2.62,2.11,3.79,3.28l1.53,1.53c1.27,1.28,1.27,3.35,0,4.62l-2.6,2.6c-.61.61-1.43.95-2.31.95ZM34.13,32.39c-.27.31-.55.61-.84.9-.3.3-.62.59-.93.87l-.28.25,6.23,8.35c.95,1.27,2,2.48,3.12,3.61l1.53,1.53c.31.31.72.49,1.15.49s.84-.17,1.15-.49l2.6-2.6c.65-.65.65-1.66,0-2.31l-1.53-1.53c-1.12-1.12-2.34-2.17-3.61-3.12l-8.34-6.23-.25.28ZM19.5,1.62c-4.77,0-9.26,1.86-12.64,5.24C-.11,13.83-.11,25.16,6.86,32.13c3.38,3.38,7.87,5.24,12.64,5.24s9.26-1.86,12.64-5.24c3.38-3.38,5.24-7.87,5.24-12.64s-1.86-9.26-5.24-12.63c-3.38-3.38-7.87-5.24-12.64-5.24ZM19.5,33.17c-3.66,0-7.1-1.42-9.68-4-5.34-5.34-5.34-14.02,0-19.35,2.58-2.58,6.02-4,9.68-4,0,0,0,0,0,0,3.66,0,7.1,1.42,9.68,4,5.34,5.34,5.34,14.02,0,19.35-2.58,2.58-6.02,4-9.68,4ZM19.5,7.44c-3.21,0-6.24,1.26-8.52,3.54-4.7,4.7-4.7,12.34,0,17.04,2.28,2.28,5.31,3.54,8.52,3.54s6.24-1.26,8.52-3.54c2.28-2.28,3.54-5.31,3.54-8.52s-1.26-6.24-3.54-8.52c-2.28-2.28-5.31-3.54-8.52-3.54Z"/>
  </g>
</svg>