<?xml version="1.0" encoding="UTF-8"?>
<svg id="Layer_2" xmlns="http://www.w3.org/2000/svg" viewBox="0 0 50 49.99">
  <defs>
    <style>
      .cls-1 {
        fill: #f2622a;
      }
    </style>
  </defs>
  <g id="Layer_1-2" data-name="Layer_1">
    <path class="cls-1" d="M46.08,21.07c-1.85,0-3.4,1.29-3.81,3.01h-3.12v-.45c0-.8-.6-1.5-1.39-1.61l-1.72-.26c-.24-.8-.56-1.57-.95-2.29l1.04-1.4c.48-.66.42-1.55-.16-2.13l-1.92-1.92c-.58-.58-1.47-.64-2.13-.16l-1.4,1.04c-.72-.4-1.49-.72-2.29-.95l-.26-1.72c-.12-.79-.81-1.39-1.61-1.39h-.46s0-3.12,0-3.12c1.72-.41,3.01-1.96,3.01-3.81,0-2.16-1.76-3.92-3.92-3.92s-3.92,1.76-3.92,3.92c0,1.85,1.29,3.4,3.01,3.81v3.12h-.45c-.8,0-1.5.6-1.61,1.39l-.26,1.72c-.8.24-1.57.56-2.29.95l-1.4-1.04c-.66-.48-1.55-.42-2.13.16l-1.92,1.92c-.58.58-.64,1.47-.16,2.13l1.04,1.4c-.4.72-.72,1.49-.95,2.29l-1.72.26c-.79.12-1.39.81-1.39,1.61v.45h-3.12c-.41-1.72-1.96-3.01-3.81-3.01C1.76,21.08,0,22.84,0,25s1.76,3.92,3.92,3.92c1.85,0,3.4-1.29,3.81-3.01h3.12v.45c0,.8.6,1.5,1.39,1.61l1.72.26c.24.8.56,1.57.95,2.29l-1.04,1.4c-.48.66-.42,1.55.16,2.13l1.92,1.92c.58.58,1.47.64,2.13.16l1.4-1.04c.72.39,1.48.71,2.29.95l.26,1.72c.12.79.81,1.39,1.61,1.39h.45v3.12c-1.72.41-3.01,1.96-3.01,3.81,0,2.16,1.76,3.92,3.92,3.92s3.92-1.76,3.92-3.92c0-1.85-1.29-3.4-3.01-3.81v-3.12h.45c.8,0,1.5-.6,1.61-1.39l.26-1.72c.8-.24,1.57-.56,2.29-.95l1.4,1.04c.66.48,1.55.42,2.13-.16l1.92-1.92c.58-.58.64-1.47.16-2.13l-1.04-1.4c.4-.72.72-1.49.95-2.29l1.72-.26c.79-.12,1.39-.81,1.39-1.61v-.46s3.12,0,3.12,0c.41,1.72,1.96,3.01,3.81,3.01,2.16,0,3.92-1.76,3.92-3.92s-1.75-3.92-3.9-3.92h0ZM22.89,3.9c0-1.16.95-2.11,2.11-2.11s2.11.95,2.11,2.11-.95,2.11-2.11,2.11-2.11-.95-2.11-2.11ZM3.92,27.1c-1.16,0-2.11-.95-2.11-2.11s.95-2.11,2.11-2.11,2.11.95,2.11,2.11-.95,2.11-2.11,2.11ZM27.11,46.07c0,1.16-.95,2.11-2.11,2.11s-2.11-.95-2.11-2.11.95-2.11,2.11-2.11,2.11.95,2.11,2.11ZM37.35,26.2l-1.68.25c-.63.1-1.16.56-1.33,1.19-.21.73-.5,1.43-.87,2.08-.31.57-.27,1.27.11,1.78l1.01,1.37-1.71,1.71-1.37-1.01c-.51-.38-1.21-.43-1.79-.11-.65.37-1.35.66-2.07.86-.63.17-1.1.7-1.19,1.33l-.25,1.68h-2.42l-.25-1.69c-.1-.63-.56-1.16-1.19-1.33-.73-.21-1.43-.5-2.08-.86-.57-.31-1.27-.27-1.78.11l-1.37,1.01-1.71-1.71,1.01-1.37c.38-.51.43-1.21.11-1.79-.37-.65-.66-1.35-.86-2.07-.17-.63-.7-1.1-1.33-1.19l-1.68-.25v-2.42l1.68-.25c.63-.1,1.16-.56,1.33-1.19.21-.73.5-1.43.87-2.08.31-.57.27-1.27-.11-1.78l-1.01-1.37,1.71-1.71,1.37,1.01c.51.38,1.21.43,1.79.11.64-.36,1.34-.65,2.07-.86.63-.17,1.1-.7,1.19-1.33l.25-1.69h2.42l.25,1.68c.1.63.56,1.16,1.19,1.33.73.21,1.43.5,2.08.87.57.31,1.27.27,1.78-.11l1.37-1.01,1.71,1.71-1.01,1.37c-.38.51-.43,1.21-.11,1.79.37.65.66,1.35.86,2.07.17.63.7,1.1,1.33,1.19l1.68.25v2.43h0ZM46.08,27.1c-1.16,0-2.11-.95-2.11-2.11s.95-2.11,2.11-2.11,2.11.95,2.11,2.11-.95,2.11-2.11,2.11ZM35.84,12.64c.5,0,.9-.4.9-.9v-3.55c0-.2.16-.36.36-.36h5.17c.41,1.72,1.96,3.01,3.81,3.01,2.16,0,3.92-1.76,3.92-3.92s-1.76-3.92-3.92-3.92c-1.85,0-3.4,1.29-3.81,3.01h-5.17c-1.19,0-2.17.98-2.17,2.17v3.55c0,.5.4.9.9.9h0ZM46.08,4.81c1.16,0,2.11.95,2.11,2.11s-.95,2.11-2.11,2.11-2.11-.95-2.11-2.11.95-2.11,2.11-2.11ZM46.08,39.14c-1.85,0-3.4,1.29-3.81,3.01h-5.17c-.2,0-.36-.16-.36-.36v-3.55c0-.5-.4-.9-.9-.9s-.9.4-.9.9v3.55c0,1.19.97,2.17,2.17,2.17h5.17c.41,1.72,1.96,3.01,3.81,3.01,2.16,0,3.92-1.76,3.92-3.92s-1.76-3.92-3.92-3.92h0ZM46.08,45.17c-1.16,0-2.11-.95-2.11-2.11s.95-2.11,2.11-2.11,2.11.95,2.11,2.11-.95,2.11-2.11,2.11ZM3.92,10.83c1.85,0,3.4-1.29,3.81-3.01h5.17c.2,0,.36.16.36.36v3.55c0,.5.4.9.9.9s.9-.4.9-.9v-3.55c0-1.19-.97-2.17-2.17-2.17h-5.17c-.41-1.72-1.96-3.01-3.81-3.01-2.16,0-3.92,1.76-3.92,3.92s1.76,3.92,3.92,3.92h0ZM3.92,4.81c1.16,0,2.11.95,2.11,2.11s-.95,2.11-2.11,2.11-2.11-.95-2.11-2.11.95-2.11,2.11-2.11ZM14.16,37.34c-.5,0-.9.4-.9.9v3.55c0,.2-.16.36-.36.36h-5.17c-.41-1.72-1.96-3.01-3.81-3.01C1.76,39.14,0,40.91,0,43.06s1.76,3.92,3.92,3.92c1.85,0,3.4-1.29,3.81-3.01h5.17c1.19,0,2.17-.98,2.17-2.17v-3.55c0-.5-.4-.9-.9-.9h0ZM3.92,45.17c-1.16,0-2.11-.95-2.11-2.11s.95-2.11,2.11-2.11,2.11.95,2.11,2.11-.95,2.11-2.11,2.11ZM25,19.27c-3.16,0-5.72,2.57-5.72,5.72s2.57,5.72,5.72,5.72,5.72-2.57,5.72-5.72-2.57-5.72-5.72-5.72ZM25,28.9c-2.16,0-3.92-1.76-3.92-3.92s1.76-3.92,3.92-3.92,3.92,1.76,3.92,3.92-1.76,3.92-3.92,3.92Z"/>
  </g>
</svg>