<?xml version="1.0" encoding="UTF-8"?>
<svg id="Layer_2" xmlns="http://www.w3.org/2000/svg" xmlns:xlink="http://www.w3.org/1999/xlink" viewBox="0 0 50 50">
  <defs>
    <style>
      .cls-1 {
        fill: #f2622a;
      }

      .cls-2 {
        fill: none;
      }

      .cls-3 {
        clip-path: url(#clippath);
      }
    </style>
    <clipPath id="clippath">
      <rect class="cls-2" width="50" height="50"/>
    </clipPath>
  </defs>
  <g id="Layer_1-2" data-name="Layer_1">
    <g class="cls-3">
      <path class="cls-1" d="M24.92,50c-4.49,0-8.78-1.71-11.77-4.7-3.01-3.01-4.67-7-4.67-11.23,0-1.14.19-2.26.55-3.35l.32-.95h-1.87c-.78,0-1.52.42-2.1,1.18-.62.82-.96,1.91-.96,3.09,0,.65-.58.68-.7.68s-.7-.03-.7-.68c0-1.47.44-2.86,1.25-3.92.85-1.12,1.99-1.74,3.21-1.74h2.69s.21-.3.21-.3c.95-1.33,2.15-2.4,3.56-3.17l1.51-.82-1.64-.49c-2.71-.81-7.26-2.73-7.26-6.46V7.87c0-3.49,4-6.15,10.96-7.3,2.32-.38,4.77-.58,7.3-.58s5.02.2,7.37.59c7.05,1.17,11.09,3.85,11.09,7.36v9.12c0,3.74-4.58,5.68-7.31,6.5l-1.65.5,1.52.82c1.46.79,2.68,1.86,3.62,3.2l.21.3h2.83c1.22,0,2.36.62,3.21,1.74.8,1.06,1.25,2.46,1.25,3.92,0,.65-.58.68-.7.68s-.7-.03-.7-.68c0-1.17-.34-2.27-.96-3.09-.58-.76-1.32-1.18-2.1-1.18h-2.02l.32.94c.37,1.08.55,2.21.55,3.35,0,4.23-1.66,8.22-4.67,11.23-2.99,2.99-7.28,4.7-11.76,4.7ZM18.91,25.04c-2.4,0-4.66.94-6.37,2.65-1.71,1.71-2.65,3.97-2.65,6.37,0,3.86,1.51,7.5,4.26,10.25,2.73,2.73,6.66,4.3,10.78,4.3s8.05-1.57,10.78-4.3c2.75-2.75,4.26-6.39,4.26-10.25,0-2.4-.94-4.66-2.65-6.37-1.71-1.71-3.97-2.65-6.37-2.65h-12.03ZM24.82,1.39c-2.44,0-4.82.19-7.08.56-3.66.6-9.79,2.18-9.79,5.93v9.26c0,3.75,6.13,5.32,9.79,5.93,2.26.37,4.64.56,7.08.56s4.86-.19,7.15-.57c6.3-1.04,9.92-3.23,9.92-5.99V7.94c0-2.76-3.61-4.95-9.92-5.99-2.28-.38-4.69-.57-7.15-.57ZM18.04,16.69c-1.12,0-2.17-.43-2.96-1.22-1.63-1.63-1.63-4.28,0-5.92.79-.78,1.84-1.22,2.96-1.22s2.17.43,2.96,1.22c1.63,1.63,1.63,4.29,0,5.92-.79.78-1.84,1.22-2.96,1.22ZM18.04,9.73c-.75,0-1.45.29-1.97.81-.52.52-.81,1.22-.81,1.97s.29,1.45.81,1.97c.52.52,1.22.81,1.97.81s1.45-.29,1.97-.81c.52-.52.81-1.22.81-1.97s-.29-1.45-.81-1.97c-.52-.52-1.22-.81-1.97-.81ZM31.75,16.68c-1.12,0-2.17-.43-2.96-1.22-1.63-1.63-1.63-4.29,0-5.92.78-.78,1.84-1.22,2.96-1.22s2.17.43,2.96,1.22c1.63,1.63,1.63,4.29,0,5.92-.78.78-1.84,1.22-2.96,1.22ZM31.75,9.72c-.75,0-1.45.29-1.97.81-.52.53-.81,1.23-.81,1.97s.29,1.45.81,1.97c.52.52,1.22.81,1.97.81s1.45-.29,1.97-.81c1.09-1.09,1.09-2.86,0-3.94-.52-.52-1.23-.81-1.97-.81Z"/>
    </g>
  </g>
</svg>