<?xml version="1.0" encoding="UTF-8"?>
<svg id="Layer_2" xmlns="http://www.w3.org/2000/svg" xmlns:xlink="http://www.w3.org/1999/xlink" viewBox="0 0 50 50">
  <defs>
    <style>
      .cls-1 {
        fill: #f2622a;
      }

      .cls-2 {
        fill: none;
      }

      .cls-3 {
        clip-path: url(#clippath);
      }
    </style>
    <clipPath id="clippath">
      <rect class="cls-2" width="50" height="50"/>
    </clipPath>
  </defs>
  <g id="Layer_1-2" data-name="Layer_1">
    <g class="cls-3">
      <g>
        <path class="cls-1" d="M31.67,26.67c-5.51,0-10-4.49-10-10s4.49-10,10-10c1.99,0,3.92.59,5.57,1.69.38.26.48.77.23,1.16s-.77.48-1.16.23c-1.37-.92-2.98-1.41-4.64-1.41-4.59,0-8.33,3.74-8.33,8.33s3.74,8.33,8.33,8.33,8.33-3.74,8.33-8.33c0-.39-.03-.79-.08-1.18-.06-.46.25-.88.71-.94.45-.06.88.26.94.71.07.47.1.94.1,1.41,0,5.51-4.49,10-10,10h0Z"/>
        <path class="cls-1" d="M34.17,29.17c-.46,0-.83.37-.83.83v15.83c0,1.38-1.12,2.5-2.5,2.5H12.5c-1.38,0-2.5-1.12-2.5-2.5V4.17c0-1.38,1.12-2.5,2.5-2.5h18.33c1.38,0,2.5,1.12,2.5,2.5,0,.46.37.83.83.83s.83-.37.83-.83c0-2.3-1.87-4.17-4.17-4.17H12.5c-2.3,0-4.17,1.87-4.17,4.17v41.67c0,2.3,1.87,4.17,4.17,4.17h18.33c2.3,0,4.17-1.87,4.17-4.17v-15.83c0-.46-.37-.83-.83-.83Z"/>
        <path class="cls-1" d="M25,4.17c0-.46-.37-.83-.83-.83h-5c-.46,0-.83.37-.83.83s.37.83.83.83h5c.46,0,.83-.37.83-.83Z"/>
        <path class="cls-1" d="M41.42,9.69c-.33-.33-.85-.33-1.18,0l-8.3,8.3-3.86-3.86c-.33-.33-.85-.33-1.18,0s-.33.85,0,1.18l4.44,4.44c.16.16.38.25.59.25s.43-.08.59-.24l8.89-8.89c.32-.33.32-.85,0-1.18h0Z"/>
        <path class="cls-1" d="M17.03,28.33h4.28c.89,0,1.61.72,1.61,1.61,0,.46.37.83.83.83s.83-.37.83-.83c0-1.81-1.47-3.28-3.28-3.28h-1.31v-.83c0-.46-.37-.83-.83-.83s-.83.37-.83.83v.83h-1.31c-1.81,0-3.27,1.47-3.27,3.28,0,1.37.86,2.61,2.15,3.08l5.96,2.18c.63.23,1.06.84,1.06,1.53,0,.89-.72,1.61-1.61,1.61h-4.28c-.89,0-1.61-.72-1.61-1.61,0-.46-.37-.83-.83-.83s-.83.37-.83.83c0,1.81,1.47,3.28,3.27,3.28h1.31v.83c0,.46.37.83.83.83s.83-.37.83-.83v-.83h1.31c1.81,0,3.28-1.47,3.28-3.29,0-1.37-.87-2.61-2.15-3.08l-5.96-2.17c-.63-.23-1.06-.84-1.06-1.51,0-.89.72-1.61,1.61-1.61h0Z"/>
      </g>
    </g>
  </g>
</svg>