<?xml version="1.0" encoding="UTF-8"?>
<svg id="Layer_2" xmlns="http://www.w3.org/2000/svg" xmlns:xlink="http://www.w3.org/1999/xlink" viewBox="0 0 50 50">
  <defs>
    <style>
      .cls-1 {
        fill: #f2622a;
      }

      .cls-2 {
        fill: none;
      }

      .cls-3 {
        clip-path: url(#clippath);
      }
    </style>
    <clipPath id="clippath">
      <rect class="cls-2" width="50" height="50"/>
    </clipPath>
  </defs>
  <g id="Layer_1-2" data-name="Layer_1">
    <g class="cls-3">
      <path class="cls-1" d="M45.85,1.57H4.15C1.86,1.57,0,3.44,0,5.73v38.55c0,2.29,1.86,4.15,4.15,4.15h41.69c2.29,0,4.15-1.86,4.15-4.15V5.73c0-2.29-1.86-4.15-4.15-4.15ZM4.15,3.13h41.69c1.43,0,2.59,1.16,2.59,2.59v4.06H1.56v-4.06c0-1.43,1.16-2.59,2.59-2.59h0ZM45.85,46.87H4.15c-1.43,0-2.59-1.16-2.59-2.59V11.35h46.88v32.92c0,1.43-1.16,2.59-2.59,2.59h0ZM7.1,8.51c1.13,0,2.04-.92,2.04-2.04s-.92-2.05-2.04-2.05-2.05.92-2.05,2.05.92,2.04,2.05,2.04ZM7.1,5.98c.27,0,.48.22.48.49s-.22.48-.48.48-.49-.22-.49-.48c0-.27.22-.49.49-.49ZM11.99,8.51c1.13,0,2.05-.92,2.05-2.04s-.92-2.05-2.05-2.05-2.04.92-2.04,2.05.92,2.04,2.04,2.04ZM11.99,5.98c.27,0,.49.22.49.49s-.22.48-.49.48-.48-.22-.48-.48.22-.49.48-.49ZM16.89,8.51c1.13,0,2.05-.92,2.05-2.04s-.92-2.05-2.05-2.05-2.04.92-2.04,2.05c0,1.13.92,2.04,2.04,2.04ZM16.89,5.98c.27,0,.49.22.49.49s-.22.48-.49.48-.48-.22-.48-.48.22-.49.48-.49ZM21.53,6.46c0-.43.35-.78.78-.78h21.85c.43,0,.78.35.78.78s-.35.78-.78.78h-21.85c-.43,0-.78-.35-.78-.78ZM42.42,30.82l-1.2-.39c-.2-.73-.49-1.42-.86-2.08l.57-1.13c.26-.51.16-1.12-.24-1.52l-1.26-1.26c-.4-.4-1.01-.5-1.52-.24l-1.12.57c-.66-.37-1.36-.66-2.08-.86l-.39-1.2c-.18-.54-.67-.9-1.24-.91l.35-.69c.3-.58.19-1.28-.28-1.75l-1.73-1.73c-.46-.46-1.16-.57-1.74-.28l-1.68.86c-.97-.56-2-.99-3.07-1.27l-.58-1.79c-.2-.62-.78-1.04-1.43-1.04h-2.45c-.65,0-1.23.42-1.43,1.04l-.58,1.79c-1.08.29-2.11.71-3.07,1.27l-1.68-.86c-.58-.3-1.28-.19-1.75.28l-1.73,1.73c-.47.47-.58,1.17-.28,1.74l.86,1.68c-.56.97-.99,2.01-1.27,3.07l-1.79.58c-.62.2-1.04.78-1.04,1.43v2.45c0,.65.42,1.23,1.04,1.43l1.8.58c.29,1.08.71,2.11,1.27,3.07l-.85,1.67c-.3.59-.19,1.29.27,1.75l1.73,1.73c.46.47,1.17.58,1.75.28l1.68-.86c.96.56,2,.99,3.07,1.27l.58,1.8c.21.62.78,1.03,1.43,1.03h2.45c.65,0,1.23-.42,1.43-1.04l.53-1.65.06.06c.4.4,1.01.49,1.51.24l1.12-.57c.66.37,1.36.66,2.08.86l.39,1.2c.18.54.68.9,1.24.9h1.79c.57,0,1.07-.36,1.24-.9l.39-1.2c.72-.2,1.42-.49,2.08-.86l1.12.57c.51.26,1.12.16,1.52-.24l1.26-1.26c.4-.4.5-1.01.24-1.52l-.57-1.12c.37-.65.66-1.35.86-2.08l1.2-.39c.54-.18.9-.67.9-1.24v-1.79c0-.56-.36-1.06-.9-1.24h0ZM23.44,40.76l-.58,1.78h-2.37l-.58-1.78c-.16-.49-.54-.85-1.05-.99-.96-.25-1.88-.63-2.73-1.13-.45-.26-.98-.28-1.44-.04l-1.67.85-1.67-1.67.85-1.67c.24-.47.22-.99-.04-1.44-.5-.86-.88-1.78-1.14-2.74-.14-.51-.5-.89-.99-1.04l-1.78-.58v-2.37l1.79-.58c.49-.16.85-.54.98-1.05.25-.95.63-1.87,1.13-2.74.26-.45.28-.98.04-1.44l-.85-1.67,1.67-1.67,1.67.85c.46.24.99.22,1.44-.04.86-.5,1.78-.88,2.74-1.14.51-.14.89-.5,1.04-.99l.58-1.78h2.37l.58,1.79c.16.49.54.85,1.05.98.96.25,1.88.63,2.74,1.13.45.26.98.28,1.44.04l1.67-.85,1.67,1.67-.69,1.37h-.04c-.57,0-1.07.36-1.24.9l-.39,1.2c-.72.2-1.42.49-2.08.86l-1.12-.57c-.22-.11-.46-.16-.69-.14-1.15-.94-2.59-1.45-4.08-1.45-3.58,0-6.49,2.91-6.49,6.49s2.91,6.49,6.49,6.49c.46,0,.92-.05,1.36-.14l.09.03c.2.72.49,1.42.86,2.08l-.57,1.12c-.27.51-.17,1.12.24,1.52l.05.05c-.12.15-.22.32-.28.51h0ZM23.42,27.23l.57,1.12c-.37.66-.66,1.36-.86,2.08l-1.2.39c-.54.18-.9.68-.9,1.24v1.79s0,.09,0,.14c-2.42-.31-4.29-2.39-4.29-4.88,0-2.72,2.21-4.93,4.93-4.93.97,0,1.91.28,2.7.81l-.71.71c-.41.41-.51,1.02-.25,1.52h0ZM41.76,33.67l-1.15.37c-.43.14-.75.47-.86.91-.18.68-.45,1.34-.8,1.94-.23.39-.24.86-.03,1.26l.55,1.08-1,1-1.08-.55c-.4-.21-.87-.2-1.25.03-.61.36-1.27.63-1.95.8-.44.11-.77.43-.91.86l-.37,1.15h-1.42l-.37-1.15c-.14-.43-.48-.75-.91-.87-.68-.18-1.33-.45-1.94-.8-.39-.23-.85-.24-1.25-.04l-1.08.55-1-1,.55-1.08c.2-.39.19-.86-.03-1.25,0,0,0,0,0,0-.36-.61-.63-1.26-.81-1.94-.11-.44-.43-.77-.86-.91l-1.15-.37v-1.42l1.16-.38c.43-.14.74-.48.85-.91.18-.68.45-1.33.81-1.94,0,0,0,0,0,0,.22-.39.23-.84.03-1.25l-.55-1.08,1-1,1.09.56c.4.2.86.19,1.25-.04.62-.36,1.27-.63,1.95-.8h0c.43-.11.77-.44.91-.86l.37-1.15h1.42l.38,1.16c.14.43.48.74.91.85.68.18,1.33.45,1.94.8.39.23.85.24,1.25.04l1.08-.55,1,1-.55,1.08c-.21.41-.2.87.03,1.26.35.6.63,1.26.8,1.94.11.44.43.77.86.91l1.15.37v1.41ZM32.17,28.01c-2.73,0-4.94,2.22-4.94,4.94s2.22,4.94,4.94,4.94,4.94-2.22,4.94-4.94-2.22-4.94-4.94-4.94ZM32.17,36.34c-1.86,0-3.38-1.52-3.38-3.38s1.52-3.38,3.38-3.38,3.38,1.52,3.38,3.38c0,1.87-1.52,3.38-3.38,3.38Z"/>
    </g>
  </g>
</svg>