<?xml version="1.0" encoding="UTF-8"?>
<svg id="Layer_2" xmlns="http://www.w3.org/2000/svg" xmlns:xlink="http://www.w3.org/1999/xlink" viewBox="0 0 50 50">
  <defs>
    <style>
      .cls-1 {
        fill: #f2622a;
      }

      .cls-2 {
        fill: none;
      }

      .cls-3 {
        clip-path: url(#clippath);
      }
    </style>
    <clipPath id="clippath">
      <rect class="cls-2" width="50" height="50"/>
    </clipPath>
  </defs>
  <g id="Layer_1-2" data-name="Layer_1">
    <g class="cls-3">
      <path class="cls-1" d="M33.71,39.23c-.36-.37-.35-.97.02-1.33.18-.17.41-.26.65-.26s.5.1.68.29l.9.93,2.45-2.75c.18-.2.43-.32.7-.32.23,0,.45.08.63.24.39.35.42.94.08,1.33l-3.13,3.51c-.17.19-.42.31-.7.32-.25,0-.5-.1-.68-.29l-1.6-1.66h0ZM50,36.61c0,7.3-5.94,13.24-13.24,13.24-4.58,0-8.9-2.43-11.3-6.34-1.62,1.03-3.4,1.97-5.29,2.78-.12.05-.24.08-.37.08s-.25-.03-.37-.08c-5.77-2.49-10.33-6.02-13.53-10.46-.04-.04-.07-.09-.09-.13-.84-1.18-1.59-2.43-2.24-3.72C.41,25.72-.66,17.82.39,8.52c.05-.44.41-.79.85-.83,6.66-.63,12.71-3.1,17.97-7.34.17-.13.38-.21.59-.21s.42.07.59.21c5.26,4.24,11.3,6.71,17.97,7.34.44.04.8.39.85.83.62,5.51.5,10.55-.35,15.01,6.37,1.01,11.16,6.61,11.16,13.08h0ZM37.41,9.48c-6.48-.75-12.41-3.17-17.61-7.2-5.21,4.03-11.13,6.45-17.61,7.2-.99,9.82.36,17.58,4.13,23.69,1.64-3.96,5.01-7.04,9.1-8.33-2.59-1.55-4.19-4.34-4.19-7.36,0-4.72,3.84-8.57,8.57-8.57s8.57,3.84,8.57,8.57c0,3.02-1.59,5.81-4.18,7.35,1.35.43,2.63,1.05,3.81,1.85,2.42-2.14,5.53-3.32,8.76-3.32.07,0,.14,0,.2,0,.81-4.11.96-8.78.45-13.89h0ZM13.11,17.48c0,3.69,3,6.69,6.69,6.69s6.69-3,6.69-6.69-3-6.69-6.69-6.69-6.69,3-6.69,6.69ZM7.62,35.1c2.9,3.88,7,7.01,12.17,9.31,1.71-.76,3.32-1.63,4.8-2.57-.71-1.66-1.08-3.41-1.08-5.23,0-3.13,1.11-6.16,3.14-8.55-2.04-1.32-4.41-2.01-6.86-2.01-5.58,0-10.57,3.72-12.17,9.05h0ZM36.75,25.25c-6.27,0-11.36,5.1-11.36,11.36s5.1,11.36,11.36,11.36,11.36-5.1,11.36-11.36-5.1-11.36-11.36-11.36ZM43.19,33.88v9.22c0,1.01-.82,1.83-1.83,1.83h-9.22c-1.01,0-1.83-.82-1.83-1.83v-9.22c0-1.01.82-1.83,1.83-1.83h.98v-1.7c0-2,1.63-3.63,3.63-3.63s3.63,1.63,3.63,3.63v1.7h.98c1.01,0,1.83.82,1.83,1.83h0ZM35.01,32.05h3.49v-1.7c0-.96-.78-1.74-1.74-1.74s-1.74.78-1.74,1.74v1.7h0ZM32.2,33.93v9.1h9.1v-9.1h-9.1Z"/>
    </g>
  </g>
</svg>