<svg id="code_audit_and_optimization" data-name="code audit and optimization" xmlns="http://www.w3.org/2000/svg" viewBox="0 0 40 40"><defs><style>.cls-1{fill:#3b82f6;}</style></defs><path class="cls-1" d="M20,12.16A7.84,7.84,0,1,0,27.84,20,7.85,7.85,0,0,0,20,12.16Zm-3.3,14A6.85,6.85,0,0,1,15.05,25V22.16H16.7Zm2.48.78V19.92h1.64V27a6.75,6.75,0,0,1-1.64,0ZM25,25A7.06,7.06,0,0,1,23.3,26.2V17.67H25Zm.81-1V17.56a.7.7,0,0,0-.7-.7H23.19a.7.7,0,0,0-.7.7v9a8.34,8.34,0,0,1-.85.26v-7a.7.7,0,0,0-.7-.7H19.06a.7.7,0,0,0-.7.7v7a7.46,7.46,0,0,1-.84-.26V22.05a.7.7,0,0,0-.7-.71H14.93a.71.71,0,0,0-.7.71v2A7,7,0,1,1,27,20a6.89,6.89,0,0,1-1.26,4Zm9.3-5.69a2,2,0,0,0-1.83-1.79l-2.13-.18a1,1,0,0,1-.71-1.69L31.76,13a2,2,0,0,0,0-2.55,14.91,14.91,0,0,0-2.33-2.3,2,2,0,0,0-2.55,0L25.26,9.56a1,1,0,0,1-1.7-.7l-.2-2.13a2,2,0,0,0-1.79-1.82,15.54,15.54,0,0,0-3.27,0,2,2,0,0,0-1.78,1.82l-.18,2.14a1,1,0,0,1-.63.87,1,1,0,0,1-1.06-.16L13,8.23a2,2,0,0,0-2.55,0,15.35,15.35,0,0,0-2.31,2.32,2,2,0,0,0,0,2.55l1.37,1.64a1,1,0,0,1-.69,1.69l-2.13.2a2,2,0,0,0-1.82,1.8,15.54,15.54,0,0,0,0,3.27,2,2,0,0,0,1.83,1.78l2.14.18a1,1,0,0,1,.86.63,1,1,0,0,1-.16,1.06L8.23,27a2,2,0,0,0,0,2.55,15,15,0,0,0,2.33,2.31,2,2,0,0,0,2.55,0l1.63-1.38a1,1,0,0,1,1.06-.16,1,1,0,0,1,.64.86l.2,2.13a2,2,0,0,0,1.79,1.82c.53.05,1.05.08,1.58.08a16,16,0,0,0,1.69-.09,2,2,0,0,0,1.78-1.83l.19-2.13a1,1,0,0,1,.63-.87,1,1,0,0,1,1.06.15L27,31.76a2,2,0,0,0,2.55,0,15.36,15.36,0,0,0,2.3-2.33,2,2,0,0,0,0-2.55l-1.38-1.64a1,1,0,0,1,.69-1.69l2.13-.2a2,2,0,0,0,1.82-1.79,14.89,14.89,0,0,0,0-3.27Zm-.8,3.18a1.18,1.18,0,0,1-1.08,1.07l-2.13.2a1.85,1.85,0,0,0-1.24,3l1.37,1.64a1.19,1.19,0,0,1,0,1.52A15,15,0,0,1,29,31.14a1.18,1.18,0,0,1-1.52,0l-1.65-1.37a1.84,1.84,0,0,0-3,1.26l-.19,2.14a1.17,1.17,0,0,1-1,1.08,14.6,14.6,0,0,1-3.1,0,1.18,1.18,0,0,1-1.06-1.08l-.2-2.13a1.87,1.87,0,0,0-1.14-1.54,1.76,1.76,0,0,0-.71-.14,1.83,1.83,0,0,0-1.19.44L12.56,31.2a1.18,1.18,0,0,1-1.51,0A14.17,14.17,0,0,1,8.85,29a1.19,1.19,0,0,1,0-1.52l1.37-1.65a1.85,1.85,0,0,0-1.27-3l-2.13-.18a1.19,1.19,0,0,1-1.09-1.06,14.6,14.6,0,0,1,0-3.1,1.18,1.18,0,0,1,1.08-1.06l2.13-.2a1.83,1.83,0,0,0,1.54-1.14,1.87,1.87,0,0,0-.3-1.9L8.8,12.58a1.19,1.19,0,0,1,0-1.52A14.17,14.17,0,0,1,11,8.86a1.19,1.19,0,0,1,1.52,0l1.65,1.37a1.85,1.85,0,0,0,3-1.27l.18-2.13a1.19,1.19,0,0,1,1.06-1.09,14.51,14.51,0,0,1,3.09,0,1.18,1.18,0,0,1,1.07,1.08L22.75,9a1.83,1.83,0,0,0,1.14,1.54,1.85,1.85,0,0,0,1.9-.3l1.63-1.38a1.19,1.19,0,0,1,1.52,0A14.11,14.11,0,0,1,31.13,11a1.18,1.18,0,0,1,0,1.52l-1.37,1.65a1.84,1.84,0,0,0,1.26,3l2.14.18a1.18,1.18,0,0,1,1.08,1.06,13.89,13.89,0,0,1,0,3.09ZM10,5.25a2.1,2.1,0,0,0,2.11-2.11,2.41,2.41,0,0,0-.08-.6A19.18,19.18,0,0,1,30.37,3.86l-1.62.31a.42.42,0,0,0-.33.48.41.41,0,0,0,.4.33h.08l2.59-.51a.41.41,0,0,0,.26-.17.4.4,0,0,0,.06-.3l-.5-2.59a.42.42,0,0,0-.48-.32.41.41,0,0,0-.33.47l.32,1.62A20,20,0,0,0,11.65,1.82,2.14,2.14,0,0,0,10,1a2.11,2.11,0,0,0,0,4.21Zm0-3.4A1.29,1.29,0,1,1,8.71,3.14,1.3,1.3,0,0,1,10,1.85Zm-6.86,26a2.41,2.41,0,0,0-.6.08A19.2,19.2,0,0,1,3.86,9.62l.32,1.63A.41.41,0,1,0,5,11.1L4.47,8.51A.41.41,0,0,0,4,8.19l-2.58.5a.41.41,0,0,0,.15.81l1.61-.32A20.06,20.06,0,0,0,1.82,28.35,2.15,2.15,0,0,0,1,30a2.11,2.11,0,1,0,2.11-2.11Zm0,3.4A1.3,1.3,0,1,1,4.43,30,1.3,1.3,0,0,1,3.14,31.29ZM30,34.75a2.12,2.12,0,0,0-2.11,2.11,2,2,0,0,0,.09.6A19.19,19.19,0,0,1,9.58,36.11l1.66-.4a.4.4,0,0,0,.3-.49.41.41,0,0,0-.49-.31l-2.56.62a.39.39,0,0,0-.25.18.39.39,0,0,0-.05.31l.62,2.56a.41.41,0,0,0,.49.31.43.43,0,0,0,.31-.5l-.38-1.53a20.05,20.05,0,0,0,19.12,1.32A2.14,2.14,0,0,0,30,39a2.11,2.11,0,1,0,0-4.21Zm0,3.4a1.29,1.29,0,1,1,1.29-1.29A1.29,1.29,0,0,1,30,38.15ZM22.13,15a.41.41,0,0,1,0,.31l-.43,1.42a.4.4,0,0,1-.5.28.41.41,0,0,1-.28-.51L21.1,16l-5.83,3.18a.49.49,0,0,1-.2.05.4.4,0,0,1-.36-.22.42.42,0,0,1,.16-.55l5.84-3.17-.48-.14a.41.41,0,0,1,.23-.79l1.42.42a.39.39,0,0,1,.25.2ZM38.39,30.39l-1.53.38a20.07,20.07,0,0,0,1.32-19.13A2.14,2.14,0,0,0,39,10a2.11,2.11,0,1,0-2.11,2.11,2.35,2.35,0,0,0,.6-.08,19.19,19.19,0,0,1-1.35,18.39l-.4-1.66a.41.41,0,0,0-.8.19l.62,2.56a.41.41,0,0,0,.4.31H36l2.56-.62a.42.42,0,0,0,.3-.5.45.45,0,0,0-.5-.3ZM35.56,10a1.29,1.29,0,1,1,1.29,1.29A1.29,1.29,0,0,1,35.56,10Z"/></svg>