<svg id="devops" xmlns="http://www.w3.org/2000/svg" viewBox="0 0 40 40"><defs><style>.cls-1{fill:#3b82f6;}</style></defs><path class="cls-1" d="M38.67,33.33H37.6L40,20.25a1.34,1.34,0,0,0-1.07-1.56,1,1,0,0,0-.24,0H24a1.34,1.34,0,0,0-1.31,1.09l-.79,4.36A6.54,6.54,0,0,0,20.67,24h-.34a4,4,0,0,0-1.66-1.13V21.65A6.57,6.57,0,0,0,21.1,19a9.15,9.15,0,0,0,.86-3,2.68,2.68,0,0,0,2-2.6V10.74h0V6.67a3.34,3.34,0,0,0-3.33-3.34h-.62l1-1.24a1.3,1.3,0,0,0-.2-1.81A1.3,1.3,0,0,0,20,0H12A6.68,6.68,0,0,0,5.33,6.67v4.07h0v2.59a2.69,2.69,0,0,0,2.05,2.6,7.68,7.68,0,0,0,3.29,5.72v1.22A4.13,4.13,0,0,0,9,24H8.67a7.35,7.35,0,0,0-7.34,7.33v2A1.34,1.34,0,0,0,0,34.67V36a1.33,1.33,0,0,0,1.33,1.33v1.34A1.34,1.34,0,0,0,2.67,40H37.33a1.34,1.34,0,0,0,1.34-1.33V37.33A1.33,1.33,0,0,0,40,36V34.67A1.34,1.34,0,0,0,38.67,33.33Zm0-13.33L36.24,33.33H21.6L24,20ZM20.24,33.33H16.67v-2h3.94Zm-.92-8.48c-.13.85-1.12,1.41-1.72,1.67a4.66,4.66,0,0,0-1-.91,3.73,3.73,0,0,0,1.67-1.45A2.75,2.75,0,0,1,19.32,24.85ZM12,1.33h8l-1.6,2H16a.67.67,0,0,0,0,1.34h4.67a2,2,0,0,1,2,2V8.79a1.06,1.06,0,0,0-.35-.09A2,2,0,0,0,20.84,9,2.88,2.88,0,0,0,18.91,7.8a7.76,7.76,0,0,1-3.42-1.51,1.31,1.31,0,0,0-1.66,0,7.61,7.61,0,0,1-3.4,1.49A3,3,0,0,0,8.5,9,2,2,0,0,0,7,8.7a1.3,1.3,0,0,0-.34.08V6.67A5.34,5.34,0,0,1,12,1.33Zm-3.33,14A.67.67,0,0,0,8,14.67a1.33,1.33,0,0,1-1.33-1.34V10.74A.73.73,0,0,1,7.22,10h.11a.66.66,0,0,1,.67.66H8a.67.67,0,0,0,1.33,0,1.6,1.6,0,0,1,1.32-1.56,8.74,8.74,0,0,0,4-1.78,8.94,8.94,0,0,0,4,1.78A1.58,1.58,0,0,1,20,10.67a.67.67,0,0,0,1.33,0A.67.67,0,0,1,22,10h.11a.73.73,0,0,1,.56.73v2.59a1.34,1.34,0,0,1-1.34,1.34.67.67,0,0,0-.66.66,7.8,7.8,0,0,1-.77,3,5.37,5.37,0,0,1-5.23,3C8.76,21.33,8.67,15.58,8.67,15.33Zm6,7.34a8.3,8.3,0,0,0,2.66-.41v.88a2.6,2.6,0,0,1-2.66,1.53A2.62,2.62,0,0,1,12,23.14v-.88A8.32,8.32,0,0,0,14.67,22.67ZM11,24.16a3.79,3.79,0,0,0,1.67,1.45,4.41,4.41,0,0,0-1,.91c-.6-.27-1.59-.82-1.72-1.67A2.84,2.84,0,0,1,11,24.16ZM2.67,31.33a6,6,0,0,1,6-6h.09c.49,1.87,2.94,2.61,3.05,2.64a.68.68,0,0,0,.79-.34A4.25,4.25,0,0,1,14.67,26a4.22,4.22,0,0,1,2.06,1.59.68.68,0,0,0,.79.34c.11,0,2.56-.77,3.05-2.64h.1a6.78,6.78,0,0,1,1,.1L20.85,30H16.67a1.34,1.34,0,0,0-1.34,1.33v2H2.67Zm34.66,7.34H2.67V37.33H37.33ZM38.67,36H1.33V34.67H38.67Z" transform="translate(0)"/><path class="cls-1" d="M33.43,26.52c0-.35-.44-.69-1.11-.89.15-.69.08-1.23-.22-1.41a.48.48,0,0,0-.24-.06v.24a.21.21,0,0,1,.12,0c.15.08.21.4.16.82a1.88,1.88,0,0,1-.06.31,4.6,4.6,0,0,0-.68-.11,5.14,5.14,0,0,0-.45-.54,1.57,1.57,0,0,1,.91-.51v-.24a1.78,1.78,0,0,0-1.08.58,1.78,1.78,0,0,0-1.08-.58v.24a1.63,1.63,0,0,1,.91.51,5,5,0,0,0-.45.54,5,5,0,0,0-.69.11c0-.1,0-.21,0-.31-.05-.41,0-.73.16-.82a.21.21,0,0,1,.12,0v-.24a.48.48,0,0,0-.24.06c-.31.18-.38.72-.22,1.41-.67.21-1.11.54-1.11.89s.44.68,1.11.89c-.15.68-.08,1.23.22,1.41a.51.51,0,0,0,.25.06,1.84,1.84,0,0,0,1.07-.58,1.86,1.86,0,0,0,1.08.57.51.51,0,0,0,.25-.06c.3-.17.37-.72.21-1.4C33,27.2,33.43,26.87,33.43,26.52ZM32,25.8c0,.14-.09.28-.14.42L31.74,26l-.16-.26C31.73,25.74,31.88,25.76,32,25.8ZM31.53,27c-.09.14-.17.28-.26.41l-.49,0-.49,0c-.09-.13-.17-.26-.26-.41s-.15-.28-.22-.43.14-.29.22-.43.17-.28.26-.41a6,6,0,0,1,1,0c.09.13.17.26.26.41s.15.28.22.43S31.61,26.81,31.53,27Zm.35-.14a3.66,3.66,0,0,1,.15.43l-.45.08.16-.25C31.79,27,31.83,26.89,31.88,26.81ZM30.78,28a3.63,3.63,0,0,1-.3-.35h.6A3.63,3.63,0,0,1,30.78,28Zm-.8-.64-.44-.08c0-.14.09-.28.14-.43l.14.26C29.87,27.16,29.93,27.24,30,27.32Zm.8-2.24c.1.1.2.22.3.34h-.6C30.58,25.3,30.68,25.18,30.78,25.08Zm-.8.63-.16.26c-.05.08-.09.17-.14.26a4.43,4.43,0,0,1-.15-.43C29.67,25.76,29.82,25.74,30,25.71Zm-1,1.35c-.38-.16-.63-.37-.63-.54s.25-.39.63-.55l.3-.11a5.34,5.34,0,0,0,.24.66,4.7,4.7,0,0,0-.24.65Zm.58,1.55c-.15-.09-.21-.41-.16-.82a2,2,0,0,1,.06-.32,6.38,6.38,0,0,0,.68.12,6.43,6.43,0,0,0,.45.54,1.57,1.57,0,0,1-.91.51A.24.24,0,0,1,29.58,28.61Zm2.56-.83c0,.42,0,.74-.15.82a.28.28,0,0,1-.13,0,1.66,1.66,0,0,1-.91-.5,4,4,0,0,0,.45-.54,6.58,6.58,0,0,0,.69-.12C32.11,27.58,32.13,27.68,32.14,27.78Zm.42-.72-.3.11a4.7,4.7,0,0,0-.24-.65,5.34,5.34,0,0,0,.24-.66l.3.11c.38.16.63.38.63.55S32.94,26.9,32.56,27.06Z" transform="translate(0)"/><path class="cls-1" d="M30.78,27a.49.49,0,0,0,.49-.49.49.49,0,1,0-1,0A.49.49,0,0,0,30.78,27Z" transform="translate(0)"/></svg>