<svg xmlns="http://www.w3.org/2000/svg" xmlns:xlink="http://www.w3.org/1999/xlink" viewBox="0 0 117 44"><defs><style>.cls-1{fill:none;}.cls-2{fill:#092f5c;}.cls-3{clip-path:url(#clip-path);}.cls-4{fill:#fff;}.cls-5{clip-path:url(#clip-path-2);}</style><clipPath id="clip-path"><rect class="cls-1" x="47.38" y="10" width="24" height="24"/></clipPath><clipPath id="clip-path-2"><rect class="cls-1" x="9.88" y="6" width="32" height="32"/></clipPath></defs><title>angular-php_1</title><g id="Layer_2" data-name="Layer 2"><g id="bg-plus"><g id="Layer_3" data-name="Layer 3"><path class="cls-2" d="M22,0H95a22,22,0,0,1,22,22h0A22,22,0,0,1,95,44H22A22,22,0,0,1,0,22H0A22,22,0,0,1,22,0Z"/><g id="plus"><g class="cls-3"><path class="cls-4" d="M59.38,13a1,1,0,0,1,1,1v7h7a1,1,0,1,1,0,2h-7v7a1,1,0,1,1-2,0V23h-7a1,1,0,0,1,0-2h7V14A1,1,0,0,1,59.38,13Z"/></g></g></g></g><g id="angular-php"><path id="php" class="cls-4" d="M84.52,19.68H83.31l-.67,3.42h1.08a2.69,2.69,0,0,0,1.61-.4A2.23,2.23,0,0,0,86,21.34a1.52,1.52,0,0,0-.16-1.28A1.86,1.86,0,0,0,84.52,19.68ZM91,13.85c-8.56,0-15.5,3.65-15.5,8.15s6.94,8.15,15.5,8.15,15.5-3.65,15.5-8.15S99.53,13.85,91,13.85Zm-4.21,9.62a3.15,3.15,0,0,1-1.19.71,5.48,5.48,0,0,1-1.66.21H82.39L82,26.57H80.19l1.59-8.18H85.2a2.79,2.79,0,0,1,2.25.82,2.57,2.57,0,0,1,.43,2.26,3.86,3.86,0,0,1-.4,1.09A3.53,3.53,0,0,1,86.76,23.47Zm5.2.92.7-3.61a1,1,0,0,0-.09-.84,1.24,1.24,0,0,0-.89-.23H90.27l-.91,4.69H87.6l1.58-8.18H91l-.42,2.18H92.1a3.17,3.17,0,0,1,2.05.51,1.71,1.71,0,0,1,.32,1.68l-.74,3.8Zm9.81-2.92a3.56,3.56,0,0,1-.39,1.09,3.79,3.79,0,0,1-.73.91,3.24,3.24,0,0,1-1.18.71,5.82,5.82,0,0,1-1.66.21H96.28l-.42,2.18H94.08l1.59-8.17h3.42a2.82,2.82,0,0,1,2.25.81A2.57,2.57,0,0,1,101.77,21.47Zm-3.3-1.79H97.2l-.67,3.42h1.09a2.66,2.66,0,0,0,1.6-.4,2.16,2.16,0,0,0,.71-1.36,1.52,1.52,0,0,0-.16-1.28A1.81,1.81,0,0,0,98.47,19.68Z"/><g id="angular"><g class="cls-5"><path class="cls-4" d="M25.94,37.34h-.12c-.29-.18-.58-.39-.88-.55q-5.31-3-10.62-5.88a.89.89,0,0,1-.57-.78c-.24-2.32-.52-4.64-.79-6.95q-.63-5.41-1.28-10.82a.63.63,0,0,1,.42-.78l.09,0C14.57,10.74,17,9.88,19.38,9l6.48-2.37H26l.29.14,12.46,4.45c.45.17,1.11.21,1.3.53s0,1,0,1.47v.59l-.87,7.46q-.51,4.43-1,8.84a1.22,1.22,0,0,1-.5.73l-5.48,3ZM25.88,10l-9,20.11h2.87a.66.66,0,0,0,.74-.5q.66-1.78,1.41-3.54c.09-.19.34-.44.52-.44h7.17c.54,1.33,1.06,2.66,1.61,4,.07.18.23.47.36.47h3.22Z"/><path class="cls-4" d="M25.89,16.63l2.55,6.13H23.38Z"/></g></g></g><g id="angular-php_copy" data-name="angular-php copy"><path id="php-2" data-name="php" class="cls-4" d="M84.52,19.68H83.31l-.67,3.42h1.08a2.69,2.69,0,0,0,1.61-.4A2.23,2.23,0,0,0,86,21.34a1.52,1.52,0,0,0-.16-1.28A1.86,1.86,0,0,0,84.52,19.68ZM91,13.85c-8.56,0-15.5,3.65-15.5,8.15s6.94,8.15,15.5,8.15,15.5-3.65,15.5-8.15S99.53,13.85,91,13.85Zm-4.21,9.62a3.15,3.15,0,0,1-1.19.71,5.48,5.48,0,0,1-1.66.21H82.39L82,26.57H80.19l1.59-8.18H85.2a2.79,2.79,0,0,1,2.25.82,2.57,2.57,0,0,1,.43,2.26,3.86,3.86,0,0,1-.4,1.09A3.53,3.53,0,0,1,86.76,23.47Zm5.2.92.7-3.61a1,1,0,0,0-.09-.84,1.24,1.24,0,0,0-.89-.23H90.27l-.91,4.69H87.6l1.58-8.18H91l-.42,2.18H92.1a3.17,3.17,0,0,1,2.05.51,1.71,1.71,0,0,1,.32,1.68l-.74,3.8Zm9.81-2.92a3.56,3.56,0,0,1-.39,1.09,3.79,3.79,0,0,1-.73.91,3.24,3.24,0,0,1-1.18.71,5.82,5.82,0,0,1-1.66.21H96.28l-.42,2.18H94.08l1.59-8.17h3.42a2.82,2.82,0,0,1,2.25.81A2.57,2.57,0,0,1,101.77,21.47Zm-3.3-1.79H97.2l-.67,3.42h1.09a2.66,2.66,0,0,0,1.6-.4,2.16,2.16,0,0,0,.71-1.36,1.52,1.52,0,0,0-.16-1.28A1.81,1.81,0,0,0,98.47,19.68Z"/><g id="angular-2" data-name="angular"><g class="cls-5"><path class="cls-4" d="M25.94,37.34h-.12c-.29-.18-.58-.39-.88-.55q-5.31-3-10.62-5.88a.89.89,0,0,1-.57-.78c-.24-2.32-.52-4.64-.79-6.95q-.63-5.41-1.28-10.82a.63.63,0,0,1,.42-.78l.09,0C14.57,10.74,17,9.88,19.38,9l6.48-2.37H26l.29.14,12.46,4.45c.45.17,1.11.21,1.3.53s0,1,0,1.47v.59l-.87,7.46q-.51,4.43-1,8.84a1.22,1.22,0,0,1-.5.73l-5.48,3ZM25.88,10l-9,20.11h2.87a.66.66,0,0,0,.74-.5q.66-1.78,1.41-3.54c.09-.19.34-.44.52-.44h7.17c.54,1.33,1.06,2.66,1.61,4,.07.18.23.47.36.47h3.22Z"/><path class="cls-4" d="M25.89,16.63l2.55,6.13H23.38Z"/></g></g></g></g></svg>