<svg xmlns="http://www.w3.org/2000/svg" xmlns:xlink="http://www.w3.org/1999/xlink" viewBox="0 0 117 44"><defs><style>.cls-1{fill:none;}.cls-2{fill:#092f5c;}.cls-3{clip-path:url(#clip-path);}.cls-4{fill:#fff;}.cls-5{fill:#fefefe;}</style><clipPath id="clip-path"><rect class="cls-1" x="47.38" y="10" width="24" height="24"/></clipPath></defs><title>js-react</title><g id="Layer_2" data-name="Layer 2"><g id="bg-plus"><g id="Layer_3" data-name="Layer 3"><path class="cls-2" d="M22,0H95a22,22,0,0,1,22,22h0A22,22,0,0,1,95,44H22A22,22,0,0,1,0,22H0A22,22,0,0,1,22,0Z"/><g id="plus"><g class="cls-3"><path class="cls-4" d="M59.38,13a1,1,0,0,1,1,1v7h7a1,1,0,1,1,0,2h-7v7a1,1,0,1,1-2,0V23h-7a1,1,0,0,1,0-2h7V14A1,1,0,0,1,59.38,13Z"/></g></g></g></g><g id="react-js_copy" data-name="react-js copy"><path class="cls-4" d="M90.46,25.06a3,3,0,1,1,3-3v0h0A3,3,0,0,1,90.46,25.06Z"/><path id="react" class="cls-4" d="M82.17,26.77c-.85,3.68-.48,6.65,1.15,7.56a2.54,2.54,0,0,0,1.32.33c1.6,0,3.68-1.13,5.8-3.1,2.12,2,4.2,3.11,5.8,3.11a2.69,2.69,0,0,0,1.31-.31c1.64-1,2-3.89,1.18-7.58,3.62-1.11,6-2.9,6-4.79s-2.33-3.67-6-4.78c.84-3.69.48-6.65-1.16-7.56a2.5,2.5,0,0,0-1.31-.32h0c-1.6,0-3.72,1.13-5.8,3.11-2.12-2-4.21-3.11-5.81-3.11h0a2.44,2.44,0,0,0-1.29.34c-1.64.94-2,3.89-1.17,7.58-3.64,1.15-6,2.9-6,4.79S78.56,25.67,82.17,26.77ZM89.5,13.32a30.49,30.49,0,0,0-2.41,2.91,29,29,0,0,0-3.69.63c-.12-.59-.23-1.16-.3-1.71-.21-2.21.12-3.94.91-4.39a1.28,1.28,0,0,1,.66-.15h0C85.88,10.61,87.66,11.58,89.5,13.32Zm6.87,10.27a24.09,24.09,0,0,1,.79,2.3c-.76.18-1.56.33-2.39.45.29-.44.57-.89.85-1.36S96.13,24.05,96.37,23.59Zm0-3.14c-.24-.49-.49-.93-.75-1.4s-.56-.93-.84-1.38c.84.13,1.63.28,2.4.46C97,18.89,96.69,19.67,96.37,20.45Zm-1.89,3.94c-.49.78-.92,1.51-1.4,2.21-.86,0-1.72.09-2.61.09s-1.73,0-2.64-.11a26.19,26.19,0,0,1-1.39-2.23c-.44-.75-.84-1.53-1.2-2.31a17.38,17.38,0,0,1,1.21-2.35c.49-.77.92-1.51,1.4-2.2.86-.07,1.74-.11,2.62-.11s1.71,0,2.62.12c.49.69,1,1.45,1.4,2.21s.84,1.55,1.21,2.33C95.28,22.8,95,23.61,94.48,24.39Zm-8.35,1.95c-.84-.12-1.64-.28-2.4-.46.23-.76.49-1.54.81-2.32.23.49.48.94.75,1.4Zm-1.59-5.91a24.09,24.09,0,0,1-.79-2.3c.76-.18,1.56-.33,2.38-.46-.28.45-.57.9-.84,1.36S84.8,20,84.54,20.43Zm4.33-4.32a21.13,21.13,0,0,1,1.59-1.82c.56.58,1.1,1.19,1.6,1.82H88.87ZM97,10.79c.82.46,1.12,2.17.82,4.43a16.16,16.16,0,0,1-.3,1.69,27.28,27.28,0,0,0-3.7-.65,27.56,27.56,0,0,0-2.39-2.89c1.88-1.77,3.67-2.73,4.87-2.73h0a1.29,1.29,0,0,1,.67.15ZM97.1,22a31.52,31.52,0,0,0,1.36-3.54c.56.19,1.1.38,1.6.59,2.07.88,3.39,2,3.39,2.95s-1.35,2-3.41,2.91c-.5.21-1.06.41-1.63.59A25.37,25.37,0,0,0,97.1,22Zm-5.68,8.64a27.06,27.06,0,0,0,2.42-2.91,25.63,25.63,0,0,0,3.69-.63,15.84,15.84,0,0,1,.29,1.72c.23,2.21-.12,3.94-.91,4.39a1.22,1.22,0,0,1-.65.15C95,33.4,93.27,32.44,91.42,30.68Zm-1-.95c-.56-.58-1.1-1.19-1.6-1.82.54.05,1.07.05,1.62.05s1.08-.05,1.6-.05a24,24,0,0,1-1.62,1.86ZM84,33.22c-.83-.45-1.16-2.18-.91-4.4.07-.54.18-1.1.3-1.69a25.79,25.79,0,0,0,3.7.64,27.84,27.84,0,0,0,2.42,2.89c-1.9,1.82-3.68,2.73-4.88,2.73a1.44,1.44,0,0,1-.67-.16ZM80.9,25c-2.06-.87-3.4-2-3.4-2.9s1.34-2,3.39-2.95c.51-.21,1.06-.4,1.63-.59A31.7,31.7,0,0,0,83.81,22a26.73,26.73,0,0,0-1.31,3.5c-.56-.18-1.1-.37-1.6-.58Z"/><g id="java_script" data-name="java script"><path class="cls-5" d="M26.6,20.89H24v7.64a10.25,10.25,0,0,1-.18,2.21v-.06c-.38.78-1.35.68-1.79.54a2.37,2.37,0,0,1-1-1h0a1.14,1.14,0,0,0-.15-.23h0l-2.08,1.24A4,4,0,0,0,20.36,33h0a5.14,5.14,0,0,0,2.42.61A4.71,4.71,0,0,0,24,33.43h0a3.13,3.13,0,0,0,2.06-1.59h0A7.72,7.72,0,0,0,26.6,29,6.18,6.18,0,0,0,26.53,28h0V20.91Zm10.28,8.28c-.2-1.25-1-2.3-3.43-3.29-.85-.38-1.79-.66-2.06-1.25a1,1,0,0,1-.09-.48,1.93,1.93,0,0,1,0-.34h0A1.25,1.25,0,0,1,32.55,23a1.29,1.29,0,0,1,.51.1h0a1.91,1.91,0,0,1,1.11,1h0c1.19-.77,1.19-.77,2-1.25a5.32,5.32,0,0,0-.67-.89h0a3.81,3.81,0,0,0-2.8-1.25h-.46l-.8.1a3.71,3.71,0,0,0-2,1.15h0a3.58,3.58,0,0,0,.58,5l0,0h0c1.56,1.16,3.85,1.43,4.15,2.5.27,1.34-1,1.76-2.25,1.61a3,3,0,0,1-2-1.51h0l-2.15,1.27a4.58,4.58,0,0,0,.93,1.25h0c2,2,7,1.91,7.86-1.15a3.77,3.77,0,0,0,.16-1.11,3.06,3.06,0,0,0-.08-.8h0ZM16.29,8.27H34.41a4.68,4.68,0,0,1,4.68,4.67V31.05a4.68,4.68,0,0,1-4.68,4.68H16.29a4.67,4.67,0,0,1-4.66-4.68V12.94A4.67,4.67,0,0,1,16.29,8.27Z"/></g></g></g></svg>