<svg xmlns="http://www.w3.org/2000/svg" xmlns:xlink="http://www.w3.org/1999/xlink" viewBox="0 0 117 44"><defs><style>.cls-1{fill:none;}.cls-2{fill:#092f5c;}.cls-3{clip-path:url(#clip-path);}.cls-4{fill:#fff;}.cls-5{clip-path:url(#clip-path-2);}</style><clipPath id="clip-path"><rect class="cls-1" x="47.38" y="10" width="24" height="24"/></clipPath><clipPath id="clip-path-2"><rect class="cls-1" x="11.83" y="8.49" width="28.33" height="28.33"/></clipPath></defs><title>laravel-react</title><g id="Layer_2" data-name="Layer 2"><g id="bg-plus"><g id="Layer_3" data-name="Layer 3"><path class="cls-2" d="M22,0H95a22,22,0,0,1,22,22h0A22,22,0,0,1,95,44H22A22,22,0,0,1,0,22H0A22,22,0,0,1,22,0Z"/><g id="plus"><g class="cls-3"><path class="cls-4" d="M59.38,13a1,1,0,0,1,1,1v7h7a1,1,0,1,1,0,2h-7v7a1,1,0,1,1-2,0V23h-7a1,1,0,0,1,0-2h7V14A1,1,0,0,1,59.38,13Z"/></g></g></g></g><g id="laravel-react"><g id="laravel"><g class="cls-5"><path class="cls-4" d="M23.33,29.54l9.74-5.41-4.42-2.49L18.9,27.08Zm10.2-11.08L29.1,16v4.91l4.43,2.47ZM34,12.75l-4.43,2.48L34,17.71l4.43-2.48ZM20.32,25.31l2.58-1.44V13l-4.43,2.53V26.36ZM18,9.81,13.58,12.3,18,14.78l4.43-2.48ZM13.11,13V29.78l9.74,5.48v-5l-5.11-2.81h-.09v0h0v-.05h0v-.05h0v0h0v-.07h0V15.57l-2.58-1.44ZM33.53,29.78V24.87l-9.74,5.42v5Zm5.31-8.85V16l-4.43,2.48v4.91Zm.88-5.78a.2.2,0,0,1,0,.11h0v5.92a.41.41,0,0,1-.22.37h0l-5.09,2.82V30a.4.4,0,0,1-.22.37h0l-10.62,6h-.39l-10.63-6a.42.42,0,0,1-.22-.38h0V12.31a.2.2,0,0,1,0-.11h0v-.07h0l-.05-.1h.08l5.32-3A.4.4,0,0,1,17.9,9a.43.43,0,0,1,.22.06h0l5.31,3h.1v.05h0v.06h0v.1h0V23.37l4.68-2.48V15.22h0V15.1h0V15h0v0h.1l5.31-3a.45.45,0,0,1,.45,0h0l5.31,3h0v0h0v.07h0Z"/></g></g><path class="cls-4" d="M90.88,25.06a3,3,0,1,0-3-3v0h0A3,3,0,0,0,90.88,25.06Z"/><path id="react" class="cls-4" d="M105.13,22c0-1.89-2.37-3.64-6-4.79.84-3.69.47-6.64-1.17-7.58a2.46,2.46,0,0,0-1.3-.34h0c-1.59,0-3.68,1.13-5.8,3.11-2.08-2-4.2-3.11-5.8-3.11h0a2.53,2.53,0,0,0-1.32.32c-1.63.91-2,3.87-1.15,7.56-3.63,1.11-6,2.89-6,4.78s2.36,3.68,6,4.79c-.84,3.69-.46,6.63,1.18,7.58a2.69,2.69,0,0,0,1.31.31c1.59,0,3.68-1.13,5.8-3.11,2.11,2,4.2,3.1,5.8,3.1A2.57,2.57,0,0,0,98,34.33c1.63-.91,2-3.88,1.15-7.56C102.77,25.67,105.13,23.85,105.13,22ZM96.66,10.61h0a1.32,1.32,0,0,1,.67.15c.79.45,1.12,2.18.9,4.39a16.2,16.2,0,0,1-.3,1.71,28.58,28.58,0,0,0-3.68-.63,30.6,30.6,0,0,0-2.42-2.91C93.68,11.58,95.46,10.61,96.66,10.61ZM85.72,25c.27.47.56.92.85,1.36-.83-.12-1.63-.27-2.39-.45a24.09,24.09,0,0,1,.79-2.3C85.2,24.05,85.45,24.52,85.72,25Zm-1.56-6.85c.76-.18,1.56-.33,2.4-.46-.28.45-.57.91-.84,1.38s-.52.91-.75,1.4C84.65,19.67,84.39,18.89,84.16,18.13ZM85.64,22c.36-.78.77-1.57,1.21-2.33a25.9,25.9,0,0,1,1.4-2.21c.9-.08,1.74-.12,2.62-.12s1.76,0,2.62.11c.48.69.9,1.43,1.4,2.2A18.62,18.62,0,0,1,96.1,22c-.36.78-.76,1.56-1.2,2.31a26.27,26.27,0,0,1-1.4,2.23c-.9.07-1.74.11-2.63.11s-1.75-.09-2.61-.09c-.49-.7-.91-1.43-1.4-2.21S86.06,22.8,85.64,22ZM96.05,25c.27-.46.51-.91.75-1.4.32.78.58,1.56.81,2.32-.77.18-1.56.34-2.4.46C95.47,25.9,95.76,25.43,96.05,25Zm0-5.93-.84-1.36c.82.13,1.62.28,2.38.46a24.09,24.09,0,0,1-.79,2.3C96.54,20,96.29,19.49,96.05,19ZM92.5,16.11H89.28c.5-.63,1-1.24,1.6-1.82a23,23,0,0,1,1.59,1.82Zm-8.08-5.32a1.27,1.27,0,0,1,.67-.15h0c1.2,0,3,1,4.87,2.73a27.56,27.56,0,0,0-2.39,2.89,27.28,27.28,0,0,0-3.7.65,12.21,12.21,0,0,1-.3-1.69c-.3-2.26,0-4,.82-4.43ZM82.93,25.54c-.58-.18-1.13-.38-1.63-.59-2.06-.88-3.41-2-3.41-2.91s1.32-2.07,3.38-2.95c.5-.21,1-.4,1.61-.59A31.52,31.52,0,0,0,84.24,22,25.37,25.37,0,0,0,82.93,25.54Zm2.15,7.86a1.26,1.26,0,0,1-.66-.15c-.79-.45-1.13-2.18-.9-4.39a15.84,15.84,0,0,1,.29-1.72,25.63,25.63,0,0,0,3.69.63,25.93,25.93,0,0,0,2.42,2.91C88.06,32.44,86.29,33.4,85.08,33.4Zm5.81-3.63a24,24,0,0,1-1.62-1.86c.52,0,1.06.05,1.6.05s1.08,0,1.62-.05c-.51.63-1,1.24-1.6,1.82Zm6.46,3.46a1.37,1.37,0,0,1-.66.16c-1.21,0-3-.91-4.88-2.73a27.84,27.84,0,0,0,2.42-2.89,25.79,25.79,0,0,0,3.7-.64c.12.59.23,1.15.29,1.69.26,2.22-.08,4-.9,4.4ZM100.44,25c-.5.21-1,.4-1.61.58a26.68,26.68,0,0,0-1.3-3.5,29.76,29.76,0,0,0,1.28-3.53c.58.19,1.13.38,1.64.59,2,.91,3.39,2,3.39,2.95s-1.34,2-3.4,2.9Z"/></g></g></svg>