<svg xmlns="http://www.w3.org/2000/svg" xmlns:xlink="http://www.w3.org/1999/xlink" viewBox="0 0 117 44"><defs><style>.cls-1{fill:none;}.cls-2{fill:#092f5c;}.cls-3{clip-path:url(#clip-path);}.cls-4{fill:#fff;}.cls-5{clip-path:url(#clip-path-2);}.cls-6{clip-path:url(#clip-path-3);}</style><clipPath id="clip-path"><rect class="cls-1" x="47.38" y="10" width="24" height="24"/></clipPath><clipPath id="clip-path-2"><rect class="cls-1" x="10.87" y="6.72" width="30.56" height="30.56"/></clipPath><clipPath id="clip-path-3"><rect class="cls-1" x="75.25" y="6" width="32" height="32"/></clipPath></defs><title>nodejs-angular</title><g id="Layer_2" data-name="Layer 2"><g id="bg-plus"><g id="Layer_3" data-name="Layer 3"><path class="cls-2" d="M22,0H95a22,22,0,0,1,22,22h0A22,22,0,0,1,95,44H22A22,22,0,0,1,0,22H0A22,22,0,0,1,22,0Z"/><g id="plus"><g class="cls-3"><path class="cls-4" d="M59.38,13a1,1,0,0,1,1,1v7h7a1,1,0,1,1,0,2h-7v7a1,1,0,1,1-2,0V23h-7a1,1,0,0,1,0-2h7V14A1,1,0,0,1,59.38,13Z"/></g></g></g></g><g id="nodejs-angular"><g id="node_js" data-name="node js"><g class="cls-5"><path class="cls-4" d="M19.68,33.1a3.18,3.18,0,0,1-1.53-.4l-.66-.37a1,1,0,0,1,1-1.64l.65.36a1.21,1.21,0,0,0,1.66-.41,1.13,1.13,0,0,0,.17-.69V16.48a1,1,0,1,1,1.91,0V30a3.11,3.11,0,0,1-1.55,2.72A3.26,3.26,0,0,1,19.68,33.1Z"/><path class="cls-4" d="M26.16,37a2.22,2.22,0,0,1-1.13-.3L22,35a1,1,0,0,1,1-1.62l3,1.75a.35.35,0,0,0,.37,0l10.89-6.42a.4.4,0,0,0,.21-.35V15.61a.39.39,0,0,0-.21-.34L26.35,8.89a.37.37,0,0,0-.38,0L15.06,15.31a.42.42,0,0,0-.19.35V28.38a.39.39,0,0,0,.19.34l3.37,2a1,1,0,0,1-.68,1.81h0a1.17,1.17,0,0,1-.28-.17l-3.37-2a2.27,2.27,0,0,1-1.11-2V15.61a2.24,2.24,0,0,1,1.11-2L25,7.26a2.25,2.25,0,0,1,2.27,0L38.2,13.64a2.27,2.27,0,0,1,1.12,2V28.39A2.28,2.28,0,0,1,38.2,30.3L27.29,36.74A2.22,2.22,0,0,1,26.16,37Z"/><path class="cls-4" d="M29.21,28.46c-2.86,0-5.82-1-5.82-3.7a1,1,0,0,1,1.91,0c0,1.43,2.47,1.81,3.94,1.81,2.62,0,4-.27,4-1.81,0-.77-1-1.08-3.27-1.62L29,23l-.95-.25c-2-.44-4.78-1-4.78-3.47,0-2.73,3-3.7,5.84-3.7s5.82,1,5.82,3.7a1,1,0,0,1-1.91,0c0-1.43-2.47-1.82-3.94-1.82s-3.9.39-3.9,1.82c0,.85,1.41,1.22,3.25,1.63l.95.21.9.22c2.42.58,4.71,1.12,4.71,3.46C35.05,28.46,31.1,28.46,29.21,28.46Z"/></g></g><g id="angular"><g class="cls-6"><path class="cls-4" d="M84.93,33.84l-5.47-3a1.22,1.22,0,0,1-.5-.73q-.49-4.41-1-8.84c-.29-2.49-.59-5-.88-7.46v-.59c0-.47-.19-1.15,0-1.47s.85-.36,1.3-.53L90.84,6.77l.29-.14h.13c2.16.79,4.32,1.59,6.49,2.37,2.42.88,4.8,1.74,7.19,2.56l.08,0a.63.63,0,0,1,.43.78q-.65,5.42-1.28,10.82c-.27,2.31-.55,4.63-.79,7a.89.89,0,0,1-.57.78q-5.31,2.88-10.62,5.88c-.3.16-.59.37-.88.55h-.13ZM82.34,30.1h3.22c.13,0,.29-.29.36-.47.55-1.34,1.07-2.67,1.61-4H94.7c.18,0,.44.25.52.44.5,1.17,1,2.35,1.42,3.54a.65.65,0,0,0,.73.5h2.88L91.25,10Z"/><path class="cls-4" d="M91.24,16.63l-2.55,6.13h5.06Z"/></g></g></g></g></svg>