<svg xmlns="http://www.w3.org/2000/svg" xmlns:xlink="http://www.w3.org/1999/xlink" viewBox="0 0 117 44"><defs><style>.cls-1{fill:none;}.cls-2{fill:#092f5c;}.cls-3{clip-path:url(#clip-path);}.cls-4{fill:#fff;}.cls-5{clip-path:url(#clip-path-2);}</style><clipPath id="clip-path"><rect class="cls-1" x="47.38" y="10" width="24" height="24"/></clipPath><clipPath id="clip-path-2"><rect class="cls-1" x="11.62" y="6.72" width="30.56" height="30.56"/></clipPath></defs><title>nodejs-react</title><g id="Layer_2" data-name="Layer 2"><g id="bg-plus"><g id="Layer_3" data-name="Layer 3"><path class="cls-2" d="M22,0H95a22,22,0,0,1,22,22h0A22,22,0,0,1,95,44H22A22,22,0,0,1,0,22H0A22,22,0,0,1,22,0Z"/></g></g><g id="nodejs-react"><g id="plus"><g class="cls-3"><path class="cls-4" d="M59.38,13a1,1,0,0,1,1,1v7h7a1,1,0,1,1,0,2h-7v7a1,1,0,1,1-2,0V23h-7a1,1,0,0,1,0-2h7V14A1,1,0,0,1,59.38,13Z"/></g></g><path class="cls-4" d="M92,25.06a3,3,0,1,1,3-3v0h0A3,3,0,0,1,92,25.06Z"/><path id="react" class="cls-4" d="M83.71,26.77c-.85,3.68-.49,6.65,1.15,7.56a2.54,2.54,0,0,0,1.32.33c1.59,0,3.68-1.13,5.8-3.1,2.11,2,4.2,3.11,5.8,3.11a2.72,2.72,0,0,0,1.31-.31c1.64-1,2-3.89,1.18-7.58,3.62-1.11,6-2.9,6-4.79s-2.33-3.67-6-4.78c.85-3.69.49-6.65-1.15-7.56a2.5,2.5,0,0,0-1.31-.32h0c-1.6,0-3.73,1.13-5.81,3.11-2.11-2-4.2-3.11-5.8-3.11h0a2.5,2.5,0,0,0-1.3.34c-1.63.94-2,3.89-1.17,7.58-3.63,1.15-6,2.9-6,4.79S80.1,25.67,83.71,26.77ZM91,13.32a30.49,30.49,0,0,0-2.41,2.91,28.73,28.73,0,0,0-3.69.63,16.2,16.2,0,0,1-.3-1.71c-.22-2.21.12-3.94.91-4.39a1.26,1.26,0,0,1,.66-.15h0C87.42,10.61,89.2,11.58,91,13.32Zm6.87,10.27c.3.77.57,1.54.79,2.3-.77.18-1.57.33-2.39.45.29-.44.57-.89.84-1.36S97.67,24.05,97.91,23.59Zm0-3.14c-.24-.49-.49-.93-.76-1.4s-.55-.93-.83-1.38c.83.13,1.63.28,2.39.46C98.49,18.89,98.22,19.67,97.91,20.45ZM96,24.39c-.49.78-.92,1.51-1.4,2.21-.86,0-1.73.09-2.62.09s-1.72,0-2.63-.11c-.49-.69-1-1.47-1.4-2.23s-.83-1.53-1.2-2.31A18.62,18.62,0,0,1,88,19.69c.5-.77.93-1.51,1.41-2.2.85-.07,1.73-.11,2.61-.11s1.72,0,2.63.12c.49.69,1,1.45,1.4,2.21s.84,1.55,1.2,2.33C96.82,22.8,96.51,23.61,96,24.39Zm-8.36,1.95c-.83-.12-1.63-.28-2.39-.46a22.93,22.93,0,0,1,.81-2.32c.23.49.48.94.75,1.4S87.4,25.9,87.66,26.34Zm-1.58-5.91a21.6,21.6,0,0,1-.79-2.3c.76-.18,1.56-.33,2.37-.46-.28.45-.56.9-.83,1.36S86.34,20,86.08,20.43Zm4.33-4.32A19.54,19.54,0,0,1,92,14.29c.56.58,1.09,1.19,1.59,1.82H90.41Zm8.08-5.32c.81.46,1.11,2.17.81,4.43a12.21,12.21,0,0,1-.3,1.69,27.14,27.14,0,0,0-3.69-.65,26.46,26.46,0,0,0-2.4-2.89c1.89-1.77,3.68-2.73,4.88-2.73h0a1.32,1.32,0,0,1,.67.15ZM98.63,22A29.71,29.71,0,0,0,100,18.5c.57.19,1.11.38,1.61.59,2.06.88,3.39,2,3.39,2.95s-1.35,2-3.42,2.91c-.5.21-1,.41-1.62.59A26.78,26.78,0,0,0,98.63,22ZM93,30.68a25.85,25.85,0,0,0,2.41-2.91,25.77,25.77,0,0,0,3.7-.63,15.84,15.84,0,0,1,.29,1.72c.23,2.21-.12,3.94-.91,4.39a1.24,1.24,0,0,1-.65.15C96.58,33.4,94.81,32.44,93,30.68Zm-1-.95a22.89,22.89,0,0,1-1.6-1.82c.53.05,1.07.05,1.61.05s1.08-.05,1.6-.05A21.9,21.9,0,0,1,92,29.77Zm-6.43,3.49c-.83-.45-1.16-2.18-.91-4.4a16.32,16.32,0,0,1,.3-1.69,25.79,25.79,0,0,0,3.7.64,27.84,27.84,0,0,0,2.42,2.89c-1.9,1.82-3.68,2.73-4.89,2.73a1.4,1.4,0,0,1-.66-.16ZM82.43,25c-2.06-.87-3.39-2-3.39-2.9s1.33-2,3.39-2.95c.5-.21,1.06-.4,1.63-.59A28.15,28.15,0,0,0,85.35,22,26.73,26.73,0,0,0,84,25.54c-.56-.18-1.11-.37-1.61-.58Z"/><g id="node_js" data-name="node js"><g class="cls-5"><path class="cls-4" d="M20.43,33.1a3.18,3.18,0,0,1-1.53-.4l-.66-.37a1,1,0,0,1,1-1.64l.65.36a1.21,1.21,0,0,0,1.66-.41,1.13,1.13,0,0,0,.17-.69V16.48a1,1,0,1,1,1.91,0V30A3.11,3.11,0,0,1,22,32.67,3.26,3.26,0,0,1,20.43,33.1Z"/><path class="cls-4" d="M26.91,37a2.22,2.22,0,0,1-1.13-.3l-3-1.76a1,1,0,0,1,1-1.62l3,1.75a.35.35,0,0,0,.37,0L38,28.69a.4.4,0,0,0,.21-.35V15.61a.39.39,0,0,0-.21-.34L27.1,8.89a.37.37,0,0,0-.38,0L15.81,15.31a.42.42,0,0,0-.19.35V28.38a.39.39,0,0,0,.19.34l3.37,2a1,1,0,0,1-.68,1.81h0a1.17,1.17,0,0,1-.28-.17l-3.37-2a2.27,2.27,0,0,1-1.11-2V15.61a2.24,2.24,0,0,1,1.11-2L25.77,7.26a2.25,2.25,0,0,1,2.27,0L39,13.64a2.27,2.27,0,0,1,1.12,2V28.39A2.28,2.28,0,0,1,39,30.3L28,36.74A2.22,2.22,0,0,1,26.91,37Z"/><path class="cls-4" d="M30,28.46c-2.86,0-5.82-1-5.82-3.7a1,1,0,0,1,1.91,0c0,1.43,2.47,1.81,3.94,1.81,2.62,0,4-.27,4-1.81,0-.77-1-1.08-3.27-1.62L29.77,23l-.95-.25c-2-.44-4.78-1-4.78-3.47,0-2.73,3-3.7,5.84-3.7s5.82,1,5.82,3.7a1,1,0,0,1-1.91,0c0-1.43-2.47-1.82-3.94-1.82s-3.9.39-3.9,1.82c0,.85,1.41,1.22,3.25,1.63l.95.21.9.22c2.42.58,4.71,1.12,4.71,3.46C35.8,28.46,31.85,28.46,30,28.46Z"/></g></g></g></g></svg>