<svg xmlns="http://www.w3.org/2000/svg" xmlns:xlink="http://www.w3.org/1999/xlink" viewBox="0 0 117 44"><defs><style>.cls-1{fill:none;}.cls-2{fill:#092f5c;}.cls-3{clip-path:url(#clip-path);}.cls-4{fill:#fff;}.cls-5{clip-path:url(#clip-path-2);}</style><clipPath id="clip-path"><rect class="cls-1" x="47.38" y="10" width="24" height="24"/></clipPath><clipPath id="clip-path-2"><rect class="cls-1" x="77.13" y="8.49" width="28.33" height="28.33"/></clipPath></defs><title>php-laravel</title><g id="Layer_2" data-name="Layer 2"><g id="bg-plus"><g id="Layer_3" data-name="Layer 3"><path class="cls-2" d="M22,0H95a22,22,0,0,1,22,22h0A22,22,0,0,1,95,44H22A22,22,0,0,1,0,22H0A22,22,0,0,1,22,0Z"/><g id="plus"><g class="cls-3"><path class="cls-4" d="M59.38,13a1,1,0,0,1,1,1v7h7a1,1,0,1,1,0,2h-7v7a1,1,0,1,1-2,0V23h-7a1,1,0,0,1,0-2h7V14A1,1,0,0,1,59.38,13Z"/></g></g></g></g><g id="php-laravel"><g id="laravel"><g class="cls-5"><path class="cls-4" d="M88.63,29.54l9.74-5.41L94,21.64,84.2,27.08Zm10.2-11.08L94.4,16v4.91l4.43,2.47Zm.44-5.71-4.43,2.48,4.43,2.48,4.43-2.48ZM85.62,25.31l2.58-1.44V13l-4.43,2.53V26.36ZM83.3,9.81,78.88,12.3l4.42,2.48,4.43-2.48ZM78.41,13V29.78l9.74,5.48v-5L83,27.48H83v0h0v-.05h0v-.05h0v0h0v-.07h0V15.57l-2.58-1.44ZM98.83,29.78V24.87l-9.74,5.42v5Zm5.31-8.85V16l-4.43,2.48v4.91Zm.88-5.78a.2.2,0,0,1,0,.11h0v5.92a.41.41,0,0,1-.22.37h0l-5.09,2.82V30a.4.4,0,0,1-.22.37h0l-10.62,6h-.39l-10.63-6a.42.42,0,0,1-.22-.38h0V12.31a.2.2,0,0,1,0-.11h0v-.07h0l0-.1h.08l5.32-3A.4.4,0,0,1,83.2,9a.43.43,0,0,1,.22.06h0l5.31,3h.1v.05h0v.06h0v.1h0V23.37l4.68-2.48V15.22h0V15.1h0V15h0v0h.1l5.31-3a.45.45,0,0,1,.45,0h0l5.31,3h0v0h0v.07h0Z"/></g></g><path id="php" class="cls-4" d="M19.88,19.68H18.67L18,23.1h1.08a2.67,2.67,0,0,0,1.61-.4,2.14,2.14,0,0,0,.71-1.36,1.45,1.45,0,0,0-.16-1.28A1.84,1.84,0,0,0,19.88,19.68Zm6.45-5.83c-8.56,0-15.5,3.65-15.5,8.15s6.94,8.15,15.5,8.15S41.83,26.5,41.83,22,34.89,13.85,26.33,13.85Zm-4.21,9.62a3,3,0,0,1-1.19.71,5.48,5.48,0,0,1-1.66.21H17.75l-.42,2.18H15.55l1.59-8.18h3.42a2.77,2.77,0,0,1,2.25.82,2.51,2.51,0,0,1,.43,2.26,3.67,3.67,0,0,1-1.12,2Zm5.2.92.7-3.61a1,1,0,0,0-.09-.84,1.22,1.22,0,0,0-.89-.23H25.63l-.91,4.69H23l1.58-8.18h1.77l-.42,2.18h1.57a3.14,3.14,0,0,1,2.05.51,1.71,1.71,0,0,1,.32,1.68l-.74,3.8Zm9.81-2.92a3.51,3.51,0,0,1-1.12,2,3.16,3.16,0,0,1-1.18.71,5.82,5.82,0,0,1-1.66.21H31.64l-.42,2.18H29.44L31,18.4h3.42a2.8,2.8,0,0,1,2.25.81A2.51,2.51,0,0,1,37.13,21.47Zm-3.3-1.79H32.56l-.67,3.42H33a2.63,2.63,0,0,0,1.6-.4,2.11,2.11,0,0,0,.71-1.36,1.45,1.45,0,0,0-.16-1.28A1.78,1.78,0,0,0,33.83,19.68Z"/></g></g></svg>