<svg xmlns="http://www.w3.org/2000/svg" xmlns:xlink="http://www.w3.org/1999/xlink" viewBox="0 0 117 44"><defs><style>.cls-1{fill:none;}.cls-2{fill:#092f5c;}.cls-3{clip-path:url(#clip-path);}.cls-4{fill:#fff;}</style><clipPath id="clip-path"><rect class="cls-1" x="47.38" y="10" width="24" height="24"/></clipPath></defs><title>python-django</title><g id="Layer_2" data-name="Layer 2"><g id="bg-plus"><g id="Layer_3" data-name="Layer 3"><path class="cls-2" d="M22,0H95a22,22,0,0,1,22,22h0A22,22,0,0,1,95,44H22A22,22,0,0,1,0,22H0A22,22,0,0,1,22,0Z"/><g id="plus"><g class="cls-3"><path class="cls-4" d="M59.38,13a1,1,0,0,1,1,1v7h7a1,1,0,1,1,0,2h-7v7a1,1,0,1,1-2,0V23h-7a1,1,0,0,1,0-2h7V14A1,1,0,0,1,59.38,13Z"/></g></g></g></g><g id="python-django"><g id="python"><g id="Dribbble-Light-Preview"><g id="icons"><path id="python-" class="cls-4" d="M30.14,34.11a1.26,1.26,0,1,1,1.26-1.26,1.26,1.26,0,0,1-1.26,1.26M26.3,36.32c7.3,0,6.84-3.18,6.84-3.18V29.9h-7v-1h9.73s4.66.54,4.66-6.86-4-7.14-4-7.14H34.09v3.44s.13,4.08-4,4.08H23.18s-3.87-.06-3.87,3.78v6.33s-.6,3.83,7.06,3.83M22.29,9.89a1.26,1.26,0,1,1-1.24,1.28h0a1.26,1.26,0,0,1,1.24-1.28h0m3.81-2.2c-7.27,0-6.81,3.21-6.81,3.21v3.29h7v1H16.53s-4.66-.57-4.66,6.8,4,7.14,4,7.14h2.43V25.73s-.13-4.08,4-4.08h6.91s3.89.06,3.89-3.78V11.48s.6-3.83-7.06-3.83"/></g></g></g><path id="django" class="cls-4" d="M89.94,7h4.91V29.68a32.59,32.59,0,0,1-6.38.67c-6,0-9.12-2.71-9.12-7.91,0-5,3.32-8.26,8.46-8.26a8.06,8.06,0,0,1,2.13.25Zm0,11.45a4.69,4.69,0,0,0-1.66-.26c-2.48,0-3.92,1.53-3.92,4.21s1.37,4.05,3.89,4.05a11.91,11.91,0,0,0,1.69-.13V18.42Zm12.73-3.86V26c0,3.92-.29,5.8-1.15,7.43a7.87,7.87,0,0,1-4,3.63L93,34.87c2.17-1,3.22-1.92,3.89-3.29s.93-3,.93-7.3V14.53ZM97.76,7h4.91v5H97.76Z"/></g></g></svg>