<?xml version="1.0" encoding="UTF-8"?>
<svg id="Layer_2" xmlns="http://www.w3.org/2000/svg" xmlns:xlink="http://www.w3.org/1999/xlink" viewBox="0 0 50 50">
  <defs>
    <style>
      .cls-1 {
        fill: none;
      }

      .cls-2 {
        clip-path: url(#clippath);
      }

      .cls-3 {
        fill: #f16027;
      }
    </style>
    <clipPath id="clippath">
      <rect class="cls-1" width="50" height="50"/>
    </clipPath>
  </defs>
  <g id="Layer_1-2" data-name="Layer_1">
    <g class="cls-2">
      <path class="cls-3" d="M48.02,29.73c-.18-.19-.45-.24-.68-.13l-18.03,8.73-3.3-1.51c.89-.28,1.74-.49,2.58-.69,2.19-.52,4.27-1.02,6.4-2.81,1.42-1.22,1.8-3.27.93-4.92-.46-.81-.99-.73-1.19-.66-2.56.9-6.06,2.12-13.42,1.8-3.84-.17-5.98-.03-8.97,1.93l-2.3,1.45c-.3-.44-.86-.64-1.37-.48l-1.76.54c-.41-.55-1.12-.78-1.77-.59l-3.12.95c-.82.27-1.29,1.13-1.09,1.97l2.78,13.48c.08.41.34.76.7.97.4.24.88.3,1.33.16l4.35-1.33c.66-.2,1.12-.8,1.14-1.49l1.75-.54c.31-.09.57-.31.72-.6.05-.09.08-.18.11-.28,2.41.14,4.8.48,7.16,1.02.93.19,1.73.35,2.42.44.61.08,1.23.12,1.85.12,2.89-.08,5.74-.75,8.36-1.98.03-.01.06-.03.09-.05l13.11-9.01c1.4-.96,2.17-2.08,2.31-3.32.08-1.16-.31-2.31-1.09-3.18ZM10.01,47.26c-.05.1-.15.18-.26.22l-4.34,1.33c-.13.04-.27.02-.39-.04-.08-.04-.13-.11-.15-.2l-2.78-13.48c-.08-.24.05-.51.28-.61l3.12-.95s.09-.02.13-.02c.2,0,.37.13.42.31l4.01,13.11c.03.11.02.23-.03.34ZM12.67,45.42s-.02.02-.03.03l-1.67.51-3.63-11.88,1.67-.51s.03,0,.04,0c.01,0,.02.02.03.03l3.56,11.64h0s.04.13.04.13c0,.01,0,.03,0,.04ZM47.94,32.79c-.1.89-.71,1.73-1.81,2.48l-13.07,8.98c-1.98.88-5.8,2.25-9.53,1.74-.65-.09-1.43-.25-2.34-.43-2.49-.56-5.02-.92-7.57-1.05l-3.2-10.45,2.53-1.6h0c2.73-1.79,4.53-1.91,8.28-1.74,7.36.32,10.99-.87,13.61-1.78.23.42.34.9.33,1.38.02.82-.34,1.59-.97,2.11-1.93,1.61-3.78,2.05-5.92,2.57-1.39.3-2.75.71-4.07,1.22-.15.06-.43.18-.73.32l-.84.36c-.3.12-.44.47-.31.77.12.3.47.44.77.31.17-.07.48-.21.82-.35l.04-.02.47-.21,4.61,2.12c.16.07.34.07.5,0l17.85-8.64c.39.56.57,1.24.53,1.92h0ZM7.44,45.44c.09.31-.08.64-.39.73,0,0,0,0,0,0-.06.02-.11.03-.17.03-.26,0-.48-.17-.56-.42l-.83-2.71c-.09-.31.08-.64.39-.73.31-.09.64.08.73.39h0l.83,2.71ZM15.42,18.93l.91,2.45c.1.27.39.43.67.37l1.4-.3c.31.4.67.77,1.06,1.1l-.38,1.3c-.08.28.05.58.32.7l2.38,1.09c.26.12.58.03.74-.22l.77-1.2c.51.06,1.02.07,1.53.03l.65,1.19c.14.26.45.37.72.27l2.45-.91c.27-.1.43-.39.37-.67l-.3-1.4c.4-.31.77-.67,1.1-1.06l1.3.38c.28.08.58-.05.7-.32l1.09-2.38c.12-.26.03-.58-.22-.74l-1.2-.77c.06-.51.07-1.02.03-1.53l1.19-.65c.26-.14.37-.45.27-.72l-.91-2.45c-.1-.27-.39-.43-.67-.37l-1.4.3c-.31-.4-.67-.77-1.06-1.1l.38-1.3c.08-.28-.05-.58-.32-.7l-2.38-1.09c-.26-.12-.58-.03-.74.22l-.77,1.2c-.51-.06-1.02-.07-1.53-.03l-.65-1.19c-.14-.26-.45-.37-.72-.27l-2.45.91c-.27.1-.43.39-.37.67l.3,1.4c-.4.31-.77.67-1.1,1.06l-1.3-.38c-.28-.08-.58.05-.7.32l-1.09,2.38c-.12.26-.03.58.22.74l1.2.77c-.06.51-.07,1.02-.03,1.53l-1.19.65c-.25.14-.37.44-.27.72ZM17.79,18.4c.21-.12.33-.36.3-.6-.09-.65-.08-1.31.03-1.95.04-.23-.06-.47-.26-.6l-1.09-.7.67-1.46,1.19.35c.23.07.49-.02.63-.21.39-.52.87-.98,1.41-1.35.19-.14.29-.37.24-.6l-.28-1.28,1.5-.56.6,1.1c.12.21.35.33.6.3.65-.09,1.31-.08,1.95.03.23.04.47-.06.6-.26l.7-1.1,1.46.67-.35,1.19c-.07.23.01.49.21.63.52.39.98.87,1.35,1.41.14.19.37.29.61.24l1.27-.28.56,1.5-1.09.6c-.21.12-.33.35-.3.6.09.65.08,1.31-.03,1.95-.04.23.06.47.26.6l1.09.7-.67,1.46-1.19-.35c-.23-.07-.49.01-.63.21-.39.52-.87.98-1.41,1.35-.19.13-.29.37-.24.6l.28,1.27-1.5.56-.6-1.09c-.1-.19-.3-.31-.51-.31-.03,0-.06,0-.08,0-.65.09-1.31.08-1.95-.04-.23-.04-.47.06-.6.26l-.7,1.09-1.46-.67.35-1.19c.07-.23-.01-.49-.21-.63-.52-.39-.98-.87-1.35-1.41-.14-.19-.37-.29-.61-.24l-1.27.28-.56-1.5,1.09-.6ZM22.59,20.43c1.92.88,4.2.04,5.08-1.89s.04-4.2-1.89-5.08c-1.92-.88-4.2-.04-5.08,1.89-.42.92-.46,1.98-.11,2.93.35.95,1.07,1.73,2,2.15ZM21.77,15.83c.61-1.34,2.18-1.92,3.52-1.32,0,0,0,0,0,0h0c1.34.61,1.92,2.19,1.31,3.53-.61,1.34-2.19,1.92-3.53,1.31-1.34-.61-1.92-2.19-1.31-3.53ZM30.2,8.26l.68,1.83c.1.27.39.43.67.37l.95-.21c.2.26.43.49.68.71l-.26.88c-.08.28.05.58.32.7l1.77.81c.26.12.58.03.74-.22l.53-.82c.32.03.65.04.98.02l.44.81c.14.26.45.37.72.27l1.83-.68c.27-.1.43-.39.37-.67l-.21-.95c.25-.21.49-.43.71-.68l.88.26c.28.08.58-.05.7-.32l.81-1.77c.12-.26.03-.58-.22-.74l-.82-.53c.04-.32.04-.65.02-.98l.81-.44c.26-.14.37-.45.27-.72l-.68-1.83c-.1-.28-.39-.43-.67-.37l-.95.21c-.2-.25-.43-.49-.68-.7l.26-.88c.08-.28-.05-.58-.32-.7l-1.77-.81c-.26-.12-.58-.03-.74.22l-.53.82c-.32-.03-.65-.04-.98-.02l-.44-.81c-.14-.26-.45-.37-.72-.27l-1.83.68c-.27.1-.43.39-.37.67l.21.95c-.25.2-.49.43-.71.68l-.88-.26c-.28-.08-.58.05-.7.32l-.81,1.77c-.12.26-.03.58.22.74l.82.53c-.03.32-.04.65-.02.98l-.81.44c-.25.14-.37.45-.27.72ZM32.48,7.34c-.07-.47-.06-.94.03-1.41.04-.23-.06-.47-.26-.6l-.71-.46.39-.85.77.23c.23.07.49-.02.63-.21.28-.38.63-.71,1.01-.98.19-.14.29-.37.24-.61l-.18-.82.88-.33.38.7c.12.21.36.33.6.3.47-.07.94-.06,1.41.03.23.04.47-.06.6-.26l.46-.71.85.39-.23.77c-.07.23.01.49.21.63.38.28.71.63.98,1.02.14.19.37.29.61.24l.82-.18.33.88-.7.38c-.21.12-.33.35-.3.6.07.47.06.94-.03,1.41-.04.23.06.47.26.6l.71.46-.39.85-.77-.23c-.23-.07-.49.01-.63.21-.28.38-.63.71-1.01.98-.19.13-.29.37-.24.6l.18.82-.88.33-.38-.7c-.1-.19-.3-.31-.51-.31-.03,0-.06,0-.08,0-.47.07-.94.06-1.41-.03-.23-.04-.47.06-.6.26l-.46.71-.85-.39.23-.77c.07-.23-.01-.49-.21-.63-.38-.28-.71-.63-.98-1.02-.14-.19-.37-.29-.6-.24l-.82.18-.33-.88.7-.38c.22-.12.34-.35.3-.6h0ZM35.72,9.26c1.39.68,3.06.1,3.74-1.29.68-1.39.1-3.06-1.29-3.74-.04-.02-.08-.04-.13-.06h0c-1.39-.68-3.06-.1-3.74,1.29-.68,1.39-.1,3.06,1.29,3.74.04.02.08.04.13.06ZM35.41,6.04c.37-.81,1.34-1.17,2.15-.8.81.37,1.17,1.34.8,2.15-.37.81-1.34,1.17-2.15.8-.39-.18-.69-.51-.84-.91-.15-.4-.13-.85.05-1.24h0ZM42.89,16.3l-.75.16c-.15-.19-.32-.36-.5-.53l.2-.69c.08-.28-.05-.58-.32-.7l-1.5-.69c-.26-.12-.58-.03-.74.22l-.42.65c-.24-.02-.49-.03-.73-.01l-.34-.63c-.14-.26-.45-.37-.72-.27l-1.55.58c-.27.1-.43.39-.37.67l.16.75c-.19.15-.36.32-.53.5l-.69-.2c-.28-.08-.58.05-.7.32l-.69,1.5c-.12.26-.03.58.22.74l.65.42c-.02.24-.03.49-.01.73l-.63.34c-.26.14-.37.45-.27.72l.58,1.55c.1.27.39.43.67.37l.75-.16c.15.19.32.36.5.53l-.2.69c-.08.28.05.58.32.7l1.5.69c.26.12.58.03.74-.22l.42-.65c.24.02.49.03.73.01l.34.63c.14.26.45.37.72.27l1.55-.58c.27-.1.43-.39.37-.67l-.16-.75c.19-.15.36-.32.53-.51l.69.2c.28.08.58-.05.7-.32l.69-1.5c.12-.26.03-.58-.22-.74l-.65-.42c.02-.24.03-.49.01-.73l.63-.34c.26-.14.37-.45.27-.72l-.58-1.55c-.1-.27-.39-.43-.67-.37ZM42.04,19.03c.05.39.05.78-.02,1.16-.04.23.06.47.26.6l.53.34-.26.58-.57-.17c-.23-.07-.49.01-.63.21-.23.31-.52.58-.84.81-.19.13-.29.37-.24.6l.13.62-.6.22-.29-.52c-.1-.19-.3-.31-.51-.31-.03,0-.06,0-.08,0-.39.06-.78.05-1.16-.02-.23-.04-.47.06-.6.26l-.34.53-.58-.26.17-.57c.07-.23-.01-.49-.21-.63-.31-.23-.58-.52-.81-.84-.14-.19-.37-.29-.6-.24l-.62.13-.22-.6.52-.29c.21-.12.33-.35.3-.6-.06-.39-.05-.78.02-1.16.04-.23-.06-.47-.26-.6l-.53-.34.26-.58.57.17c.23.07.49-.02.63-.21.23-.31.52-.58.84-.81.19-.14.29-.37.24-.61l-.13-.62.6-.22.29.52c.12.21.35.33.6.3.39-.05.78-.05,1.16.02.23.04.47-.06.6-.26l.34-.53.58.26-.17.57c-.07.23.02.49.21.63.31.23.58.52.81.84.13.19.37.29.6.24l.62-.13.22.6-.52.29c-.22.12-.34.36-.3.6ZM39.42,17.31c-1.23-.56-2.69-.02-3.25,1.21-.56,1.23-.02,2.69,1.21,3.25,1.23.56,2.69.02,3.25-1.21.57-1.22.04-2.67-1.18-3.24-.01,0-.02-.01-.03-.02ZM39.57,20.08c-.29.64-1.06.93-1.7.63-.64-.29-.93-1.06-.63-1.7.29-.64,1.06-.93,1.7-.63.31.14.55.4.67.72.12.32.11.67-.04.98h0Z"/>
    </g>
  </g>
</svg>