<?xml version="1.0" encoding="UTF-8"?>
<svg id="Layer_2" xmlns="http://www.w3.org/2000/svg" xmlns:xlink="http://www.w3.org/1999/xlink" viewBox="0 0 50 50">
  <defs>
    <style>
      .cls-1 {
        fill: #f2622a;
      }

      .cls-2 {
        fill: none;
      }

      .cls-3 {
        clip-path: url(#clippath);
      }
    </style>
    <clipPath id="clippath">
      <rect class="cls-2" width="50" height="50"/>
    </clipPath>
  </defs>
  <g id="Layer_1-2" data-name="Layer_1">
    <g class="cls-3">
      <g>
        <path class="cls-1" d="M43.66,23.93c-.3-6.11-4.06-11.54-9.52-13.65-6.49-2.52-14.19.13-18.22,6.15-3-1.85-6.93-.93-8.79,2.07-.67,1.08-1,2.34-.95,3.61C2.2,23.93-.31,27.83.03,31.84c.27,2.55,1.56,4.88,3.58,6.46,2.32,1.83,5.27,2.66,8.21,2.29h28.43c2.49.22,4.95-.59,6.82-2.24,1.72-1.48,2.78-3.59,2.92-5.85.16-3.81-2.52-7.38-6.33-8.56ZM46.01,37.13c-1.55,1.36-3.6,2.03-5.66,1.84H11.66c-2.51.35-5.06-.35-7.04-1.94-1.67-1.3-2.75-3.22-2.98-5.32-.29-3.43,2.09-6.93,5.69-8.31.35-.13.57-.47.53-.84-.21-1.82.61-3.61,2.13-4.65.78-.51,1.68-.77,2.61-.77,1.12,0,2.21.38,3.1,1.06.35.27.86.21,1.13-.15.02-.02.04-.05.05-.08,3.49-5.85,10.67-8.51,16.71-6.2,5.02,1.94,8.44,7.08,8.51,12.77,0,.37.26.69.62.78,3.39.8,5.85,3.83,5.69,7.07-.12,1.84-.99,3.55-2.4,4.74Z"/>
        <path class="cls-1" d="M34.69,14.96c-4.46-2.66-10.46-1.77-14.6,2.13l1.11,1.17c3.62-3.43,8.82-4.23,12.66-1.94,3.84,2.29,4.55,6.74,4.65,7.61l1.6-.19c-.12-.99-.94-6.1-5.43-8.78Z"/>
      </g>
    </g>
  </g>
</svg>