<?xml version="1.0" encoding="UTF-8"?>
<svg id="Layer_2" xmlns="http://www.w3.org/2000/svg" xmlns:xlink="http://www.w3.org/1999/xlink" viewBox="0 0 50 50">
  <defs>
    <style>
      .cls-1 {
        fill: none;
      }

      .cls-2 {
        clip-path: url(#clippath);
      }

      .cls-3 {
        fill: #f16027;
      }
    </style>
    <clipPath id="clippath">
      <rect class="cls-1" width="50" height="50"/>
    </clipPath>
  </defs>
  <g id="Layer_1-2" data-name="Layer_1">
    <g class="cls-2">
      <path class="cls-3" d="M4.14,11.42c-.15,0-.28.06-.38.16-.1.1-.16.23-.16.38v1.83h23.79v-1.83c0-.15-.06-.28-.16-.38-.1-.1-.23-.16-.38-.16H4.14h0ZM24.96,36.16c-.3,0-.54-.24-.54-.54s.24-.54.54-.54h19.09c.3,0,.54.24.54.54s-.24.54-.54.54h-19.09ZM24.96,33.92c-.3,0-.54-.24-.54-.54s.24-.54.54-.54h19.09c.3,0,.54.24.54.54s-.24.54-.54.54h-19.09ZM24.96,31.68c-.3,0-.54-.24-.54-.54s.24-.54.54-.54h19.09c.3,0,.54.24.54.54s-.24.54-.54.54h-19.09ZM24.96,29.43c-.3,0-.54-.24-.54-.54s.24-.54.54-.54h19.09c.3,0,.54.24.54.54s-.24.54-.54.54h-19.09ZM32.56,26.11c.3,0,.54.24.54.54s-.24.54-.54.54h-7.6c-.3,0-.54-.24-.54-.54s.24-.54.54-.54h7.6ZM31.64,22.74c-.3,0-.54-.24-.54-.54s.24-.54.54-.54h13.03c.3,0,.54.24.54.54s-.24.54-.54.54h-13.03ZM27.99,22.72c-.3,0-.54-.24-.54-.54s.24-.54.54-.54h1.31c.3,0,.54.24.54.54s-.24.54-.54.54h-1.31ZM24.34,22.72c-.3,0-.54-.24-.54-.54s.24-.54.54-.54h1.31c.3,0,.54.24.54.54s-.24.54-.54.54h-1.31ZM22.61,23.37h23.79v-1.83c0-.15-.06-.28-.16-.38-.1-.1-.23-.16-.38-.16h-22.71c-.15,0-.28.06-.38.16-.1.1-.16.23-.16.38v1.83h0ZM46.4,24.45h-23.79v13.39c0,.15.06.28.16.38.1.1.23.16.38.16h22.71c.15,0,.28-.06.38-.16.1-.1.16-.23.16-.38v-13.39h0ZM23.15,19.91h4.25v-5.03H3.6v13.39c0,.15.06.28.16.38.1.1.23.16.38.16h17.38v-7.28c0-.45.18-.85.48-1.15s.7-.48,1.15-.48h0ZM28.48,19.91h9.29V2.71c0-.45-.18-.85-.48-1.15-.29-.29-.7-.48-1.15-.48h-5.72l-.96,1.47c-.09.17-.27.28-.48.28h-8.27c-.18,0-.35-.09-.45-.25l-.98-1.51h-5.72c-.45,0-.85.18-1.15.48-.29.29-.48.7-.48,1.15v7.63h14.92c.45,0,.85.18,1.15.48.29.29.48.7.48,1.15v7.95h0ZM38.85,19.91h7.01c.45,0,.85.18,1.15.48s.48.7.48,1.15v16.31c0,.45-.18.85-.48,1.15s-.7.48-1.15.48h-7.01v7.82c0,.74-.3,1.42-.8,1.91-.49.49-1.17.8-1.91.8H13.56c-.74,0-1.42-.3-1.91-.8-.49-.49-.8-1.17-.8-1.91v-17.39h-6.71c-.45,0-.85-.18-1.15-.48-.29-.29-.48-.7-.48-1.15V11.96c0-.45.18-.85.48-1.15.29-.29.7-.48,1.15-.48h6.71V2.71c0-.74.3-1.42.8-1.91.49-.49,1.17-.8,1.91-.8h22.58c.74,0,1.42.3,1.91.8.49.49.8,1.17.8,1.91v17.2ZM37.77,39.47h-14.62c-.45,0-.85-.18-1.15-.48-.29-.29-.48-.7-.48-1.15v-7.95h-9.59v17.39c0,.45.18.85.48,1.15.29.29.7.48,1.15.48h22.58c.45,0,.85-.18,1.15-.48.29-.29.48-.7.48-1.15v-7.82h0ZM5.89,26.59c-.3,0-.54-.24-.54-.54s.24-.54.54-.54h13.84c.3,0,.54.24.54.54s-.24.54-.54.54H5.89ZM5.89,24.35c-.3,0-.54-.24-.54-.54s.24-.54.54-.54h13.84c.3,0,.54.24.54.54s-.24.54-.54.54H5.89ZM5.89,22.11c-.3,0-.54-.24-.54-.54s.24-.54.54-.54h13.84c.3,0,.54.24.54.54s-.24.54-.54.54H5.89ZM5.89,19.86c-.3,0-.54-.24-.54-.54s.24-.54.54-.54h13.84c.3,0,.54.24.54.54s-.24.54-.54.54H5.89ZM11.4,16.54c.3,0,.54.24.54.54s-.24.54-.54.54h-5.51c-.3,0-.54-.24-.54-.54s.24-.54.54-.54h5.51ZM12.64,13.17c-.3,0-.54-.24-.54-.54s.24-.54.54-.54h13.03c.3,0,.54.24.54.54s-.24.54-.54.54h-13.03ZM8.99,13.15c-.3,0-.54-.24-.54-.54s.24-.54.54-.54h1.31c.3,0,.54.24.54.54s-.24.54-.54.54h-1.31ZM5.34,13.15c-.3,0-.54-.24-.54-.54s.24-.54.54-.54h1.31c.3,0,.54.24.54.54s-.24.54-.54.54h-1.31ZM24.85,43.54c.52,0,.99.21,1.33.55.34.34.55.81.55,1.33s-.21.99-.55,1.33-.81.55-1.33.55-.99-.21-1.33-.55c-.34-.34-.55-.81-.55-1.33s.21-.99.55-1.33c.34-.34.81-.55,1.33-.55ZM25.42,44.86c-.14-.14-.34-.23-.57-.23s-.42.09-.57.23-.23.34-.23.57.09.42.23.57.34.23.57.23.42-.09.57-.23.23-.34.23-.57-.09-.42-.23-.57ZM29.13,1.08h-8.56l.44.67h7.69l.44-.67h0Z"/>
    </g>
  </g>
</svg>