<?xml version="1.0" encoding="UTF-8"?>
<svg id="Layer_2" xmlns="http://www.w3.org/2000/svg" xmlns:xlink="http://www.w3.org/1999/xlink" viewBox="0 0 50 50">
  <defs>
    <style>
      .cls-1 {
        fill: #f2622a;
      }

      .cls-2 {
        fill: none;
      }

      .cls-3 {
        clip-path: url(#clippath);
      }
    </style>
    <clipPath id="clippath">
      <rect class="cls-2" width="50" height="50"/>
    </clipPath>
  </defs>
  <g id="Layer_1-2" data-name="Layer_1">
    <g class="cls-3">
      <g>
        <path class="cls-1" d="M15.94,34.85l3.38,8.79c.29.74.69,1.41,1.2,1.99l1.44,1.47c.73.73,1.52,1.24,2.34,1.5.61.2,1.23.3,1.87.3h7.46c3.32,0,6.03-2.7,6.03-6.03v-10.31c0-.39-.08-.76-.22-1.08-.43-1.03-1.44-1.69-2.56-1.69-.51,0-1.01.14-1.43.4-.47-.89-1.4-1.49-2.47-1.49-.56,0-1.08.17-1.52.45-.36-.62-.95-1.09-1.66-1.27-.62-.16-1.26-.1-1.83.14v-6.26c0-1.54-1.25-2.79-2.79-2.79s-2.79,1.25-2.79,2.79v12.78l-1.2-2.2c-.51-.9-1.47-1.46-2.51-1.46-.62,0-1.24.2-1.73.55-1.06.77-1.49,2.17-1.03,3.41h0ZM17.94,32.79c.21-.15.48-.24.75-.24.45,0,.85.23,1.06.6l2.76,5.05c.18.34.57.5.94.41.37-.09.63-.43.63-.81v-16.04c0-.62.5-1.12,1.12-1.12s1.12.5,1.12,1.12v8.8h0v4.01c0,.46.37.83.83.83s.83-.37.83-.83v-4.01h0c0-.34.16-.66.43-.87.16-.13.51-.32.99-.2.47.12.81.6.81,1.15v1.16s0,.02,0,.03v2.74c0,.46.37.83.83.83s.83-.37.83-.83v-3.11c0-.61.5-1.1,1.11-1.1s1.12.5,1.12,1.1v.34s0,.07,0,.1v.65h0v2.02c0,.46.37.83.83.83s.83-.37.83-.83v-2.01h0c0-.16.03-.31.08-.43.18-.41.58-.68,1.03-.68s.85.26,1.03.68c.05.12.08.27.08.43v10.31c0,2.4-1.96,4.36-4.36,4.36h-7.46c-.46,0-.91-.07-1.35-.22-.57-.19-1.13-.56-1.68-1.1l-1.11-1.11-.27-.29c-.37-.43-.67-.93-.89-1.48l-3.38-8.77c-.2-.54-.02-1.14.44-1.47h0Z"/>
        <path class="cls-1" d="M.83,15.42h12.67c.46,0,.83-.37.83-.83V1.92c0-.46-.37-.83-.83-.83H.83c-.46,0-.83.37-.83.83v12.67c0,.46.37.83.83.83ZM1.67,2.76h11v11H1.67V2.76Z"/>
        <path class="cls-1" d="M9.67,5.9l-2.96,2.96-1.83-1.83c-.33-.33-.85-.33-1.18,0-.33.33-.33.85,0,1.18l2.42,2.42c.16.16.37.24.59.24s.43-.08.59-.24l3.55-3.55c.33-.33.33-.85,0-1.18-.33-.33-.85-.33-1.18,0h0Z"/>
        <path class="cls-1" d="M31.33,15.42c.46,0,.83-.37.83-.83V1.92c0-.46-.37-.83-.83-.83h-12.67c-.46,0-.83.37-.83.83v12.67c0,.46.37.83.83.83h12.67ZM19.5,2.76h11v11h-11V2.76Z"/>
        <path class="cls-1" d="M49.17,1.09h-12.67c-.46,0-.83.37-.83.83v12.67c0,.46.37.83.83.83h12.67c.46,0,.83-.37.83-.83V1.92c0-.46-.37-.83-.83-.83ZM48.33,13.76h-11V2.76h11v11Z"/>
      </g>
    </g>
  </g>
</svg>