<?xml version="1.0" encoding="UTF-8"?>
<svg id="Layer_2" xmlns="http://www.w3.org/2000/svg" xmlns:xlink="http://www.w3.org/1999/xlink" viewBox="0 0 50 50">
  <defs>
    <style>
      .cls-1 {
        fill: none;
      }

      .cls-2 {
        fill: #f26128;
        fill-rule: evenodd;
      }

      .cls-3 {
        clip-path: url(#clippath);
      }
    </style>
    <clipPath id="clippath">
      <rect class="cls-1" width="50" height="50"/>
    </clipPath>
  </defs>
  <g id="Layer_1-2" data-name="Layer_1">
    <g class="cls-3">
      <path class="cls-2" d="M1.52,26.57v8.04c2.22-.42,3.68-2.56,3.27-4.78-.31-1.66-1.61-2.95-3.27-3.27h0ZM1.52,19.96h.66v1.64c0,.37.27.69.64.75.41.1.8.23,1.19.39.01,0,.03.01.04.01.39.17.77.36,1.14.58.3.18.68.14.93-.11h0l1.16-1.16,2.01,2.01-1.16,1.16c-.26.26-.3.67-.08.97.45.74.78,1.54.98,2.38.08.34.39.58.73.58h0s1.64,0,1.64,0v2.84h-1.64c-.37,0-.69.27-.75.64-.1.41-.23.81-.39,1.19-.17.4-.37.8-.6,1.17-.18.3-.14.68.11.93h0l1.16,1.16-2.01,2.01-1.16-1.16c-.26-.26-.67-.3-.97-.08-.74.44-1.54.77-2.38.98-.34.08-.58.38-.58.73h0v1.64h-.66v-5.07c3.07-.43,5.21-3.26,4.78-6.33-.35-2.48-2.3-4.43-4.78-4.78v-5.07ZM50,45.35c0,.9-.73,1.62-1.62,1.62H1.62c-.9,0-1.62-.73-1.62-1.62V4.65c0-.9.73-1.62,1.62-1.62h46.75c.9,0,1.62.73,1.62,1.62v40.7ZM48.49,14.48v30.87s-.01.06-.03.08c-.02.02-.05.03-.08.03H1.62s-.06-.01-.08-.03c-.02-.02-.03-.05-.03-.08v-2.62h.71c.81,0,1.46-.66,1.46-1.46v-1.12c.31-.09.6-.2.89-.32s.58-.26.86-.4l.79.79c.57.57,1.5.57,2.07,0l2.08-2.08c.57-.57.57-1.5,0-2.07l-.79-.79c.15-.28.28-.57.41-.86.12-.29.23-.59.32-.89h1.12c.81,0,1.46-.66,1.46-1.46v-2.94c0-.81-.66-1.46-1.46-1.46h-1.12c-.09-.3-.2-.6-.32-.89-.12-.29-.26-.58-.41-.86l.79-.8c.57-.57.57-1.5,0-2.07l-2.08-2.08c-.57-.57-1.5-.57-2.07,0l-.79.79c-.27-.14-.54-.27-.82-.39l-.04-.02c-.29-.12-.59-.23-.89-.32v-1.12c0-.81-.66-1.46-1.46-1.46h-.71v-3.97h46.97ZM1.52,12.96h46.97V4.65s-.01-.06-.03-.08c-.02-.02-.05-.03-.08-.03H1.62s-.06.01-.08.03c-.02.02-.03.05-.03.08,0,0,0,8.31,0,8.31ZM4.94,9.65h.11c.42-.01.75-.36.74-.78-.01-.4-.33-.73-.74-.74h-.11c-.42-.01-.77.32-.78.74s.32.77.74.78c.01,0,.03,0,.04,0ZM16.43,9.65h28.62c.42.01.77-.32.78-.74.01-.42-.32-.77-.74-.78-.01,0-.03,0-.04,0h-28.62c-.42.01-.75.36-.74.78.01.4.33.73.74.74h0ZM8.44,9.65h.11c.42.01.77-.32.78-.74.01-.42-.32-.77-.74-.78-.01,0-.03,0-.04,0h-.11c-.42-.01-.77.32-.78.74-.01.42.32.77.74.78.01,0,.03,0,.04,0ZM11.94,9.65h.11c.42.01.77-.32.78-.74.01-.42-.32-.77-.74-.78-.01,0-.03,0-.04,0h-.11c-.42-.01-.77.32-.78.74-.01.42.32.77.74.78.01,0,.03,0,.04,0ZM19.38,18.78c-.23.23-.23.61,0,.85.23.23.61.23.85,0,.23-.23.23-.61,0-.85-.11-.11-.27-.18-.42-.18-.16,0-.31.06-.42.18ZM20.23,41.55c-.23-.24-.62-.24-.85,0-.24.23-.24.62,0,.85.23.24.62.24.85,0,.11-.11.18-.27.18-.43,0-.16-.06-.31-.18-.42ZM24.07,30.16c-.23-.23-.61-.23-.85,0-.23.23-.23.61,0,.85.23.23.61.23.85,0,.11-.11.18-.27.18-.42,0-.16-.06-.31-.18-.42ZM21.67,31.35c.42,1.09,1.64,1.64,2.73,1.22,1.09-.42,1.64-1.64,1.22-2.73s-1.64-1.64-2.73-1.22c-.56.21-1,.66-1.22,1.22h-6.58c-.42.01-.75.36-.74.78.01.4.33.73.74.74h6.58ZM17.83,19.96c.42,1.09,1.64,1.64,2.73,1.22,1.09-.42,1.64-1.64,1.22-2.73-.42-1.09-1.64-1.64-2.73-1.22-.56.21-1,.66-1.22,1.22h-5.11c-.17,0-.34.06-.48.17l-2.05,1.49c-.32.26-.37.74-.11,1.06.24.3.68.37,1,.16l1.89-1.37h4.87ZM17.83,42.73c.42,1.09,1.64,1.63,2.73,1.22s1.63-1.64,1.22-2.73-1.64-1.63-2.73-1.22c-.56.21-1,.66-1.22,1.22h-4.87l-1.89-1.37c-.35-.23-.82-.13-1.05.22-.21.32-.14.76.16,1l2.06,1.49c.13.11.3.17.48.17h5.11Z"/>
    </g>
  </g>
</svg>