<?xml version="1.0" encoding="UTF-8"?>
<svg id="Layer_2" xmlns="http://www.w3.org/2000/svg" xmlns:xlink="http://www.w3.org/1999/xlink" viewBox="0 0 50 50">
  <defs>
    <style>
      .cls-1 {
        fill: none;
      }

      .cls-2 {
        clip-path: url(#clippath);
      }

      .cls-3 {
        fill: #f16027;
      }
    </style>
    <clipPath id="clippath">
      <rect class="cls-1" width="50" height="50"/>
    </clipPath>
  </defs>
  <g id="Layer_1-2" data-name="Layer_1">
    <g class="cls-2">
      <path class="cls-3" d="M11.82,3.81c.09.29-.08.59-.37.68-1.84.54-3.18,2.12-3.41,4.02-.03.27-.27.48-.54.48-.02,0-.05,0-.07,0-.3-.04-.51-.31-.47-.6.29-2.33,1.93-4.27,4.19-4.93.29-.09.59.08.67.37h0ZM16.59,22.77h-7.57c-.3,0-.54.24-.54.54s.24.54.54.54h7.57c.3,0,.54-.24.54-.54s-.24-.54-.54-.54ZM15.12,24.86h-4.62c-.3,0-.54.24-.54.54s.24.54.54.54h4.62c.3,0,.54-.24.54-.54s-.24-.54-.54-.54ZM46.28,8.35v36c0,3.11-2.53,5.65-5.65,5.65h-16.9c-3.11,0-5.65-2.53-5.65-5.64v-25.32c-.38.4-.92.65-1.51.65h-7.54c-1.16,0-2.09-.94-2.09-2.09,0-.95-.31-1.76-.94-2.47-1.47-1.66-2.29-3.8-2.29-6.03C3.72,4.08,7.79,0,12.81,0c2.18,0,4.3.79,5.95,2.22.58.5,1.09,1.07,1.52,1.69.99-.78,2.2-1.2,3.47-1.2h16.9c3.12,0,5.65,2.53,5.65,5.65h0ZM17.58,17.68c-.08-.07-.16-.14-.22-.22-.43-.55-.78-1.16-1.04-1.8-.26-.64,0-1.36.59-1.7.35-.2.57-.58.57-.98s-.22-.78-.57-.98c-.6-.34-.85-1.06-.59-1.7.26-.65.61-1.25,1.04-1.8.43-.54,1.17-.68,1.77-.34.35.2.78.2,1.13,0,.18-.11.33-.26.43-.44-.66-3.78-4.02-6.62-7.88-6.62-4.41,0-8,3.59-8,8,0,1.96.71,3.84,2.01,5.31.8.91,1.21,1.98,1.21,3.19,0,.56.45,1.01,1.01,1.01h7.54c.53,0,.96-.4,1-.91h0ZM18.58,16.85c.34-.2.73-.3,1.11-.3s.77.1,1.11.3c.69.4,1.11,1.13,1.11,1.92,0,.15.1.26.25.29.58.08,1.19.08,1.77,0,.14-.02.25-.14.25-.29,0-.79.42-1.53,1.11-1.92.68-.39,1.53-.39,2.22,0,.13.07.28.04.37-.07.37-.47.67-.98.89-1.53.05-.14,0-.28-.12-.36-.69-.39-1.11-1.13-1.11-1.92s.43-1.53,1.11-1.92c.13-.07.18-.22.12-.36-.22-.55-.52-1.07-.89-1.53-.09-.12-.24-.14-.37-.07-.68.4-1.54.4-2.22,0-.68-.39-1.11-1.13-1.11-1.92,0-.15-.1-.26-.25-.29-.58-.08-1.19-.08-1.77,0-.15.02-.25.14-.25.29,0,.79-.42,1.53-1.11,1.92-.68.39-1.54.39-2.22,0-.13-.07-.28-.04-.37.07-.37.47-.67.98-.89,1.53-.05.14,0,.28.13.36.69.39,1.11,1.13,1.11,1.92s-.43,1.53-1.11,1.92c-.13.07-.18.22-.13.36.22.55.52,1.07.89,1.53.09.12.24.15.37.07ZM45.2,42.44h-26.02v1.92c0,2.51,2.05,4.56,4.56,4.56h16.9c2.51,0,4.56-2.05,4.56-4.56v-1.92ZM45.2,8.35c0-2.51-2.05-4.56-4.56-4.56h-16.9c-1.07,0-2.08.37-2.9,1.05.21.39.39.8.54,1.22.18-.13.39-.22.63-.26.68-.1,1.4-.1,2.08,0s1.18.67,1.18,1.36c0,.4.22.78.57.98.35.2.78.2,1.13,0,.6-.34,1.34-.2,1.77.34.43.55.78,1.16,1.04,1.8.26.64,0,1.36-.59,1.7-.35.2-.57.58-.57.98s.22.78.57.98c.6.34.85,1.06.59,1.7-.26.65-.61,1.25-1.04,1.8-.43.54-1.17.68-1.77.34-.35-.2-.78-.2-1.13,0-.35.2-.57.58-.57.98,0,.69-.5,1.27-1.18,1.36-.34.05-.69.07-1.04.07s-.7-.02-1.04-.07c-.68-.1-1.18-.67-1.18-1.36,0-.4-.22-.78-.57-.98-.33-.19-.74-.2-1.08-.02v23.58h26.02V8.35ZM16.59,20.68h-7.57c-.3,0-.54.24-.54.54s.24.54.54.54h7.57c.3,0,.54-.24.54-.54s-.24-.54-.54-.54ZM35.95,21.04c1.7,0,3.08,1.38,3.08,3.08s-1.38,3.08-3.08,3.08-3.08-1.38-3.08-3.08,1.38-3.08,3.08-3.08ZM33.96,24.12c0,1.1.89,1.99,1.99,1.99s1.99-.89,1.99-1.99-.89-1.99-1.99-1.99-1.99.89-1.99,1.99ZM25.02,25.83v-3.43c0-.94.76-1.7,1.7-1.7h3.43c.93,0,1.7.76,1.7,1.7v3.43c0,.94-.76,1.7-1.7,1.7h-3.43c-.93,0-1.7-.76-1.7-1.7ZM26.1,25.83c0,.34.27.61.61.61h3.43c.34,0,.61-.27.61-.61v-3.43c0-.34-.27-.61-.61-.61h-3.43c-.34,0-.61.27-.61.61v3.43ZM20.22,12.97c0-1.56,1.27-2.82,2.82-2.82s2.82,1.27,2.82,2.82-1.27,2.82-2.82,2.82-2.82-1.27-2.82-2.82ZM21.31,12.97c0,.96.78,1.74,1.74,1.74s1.74-.78,1.74-1.74-.78-1.74-1.74-1.74-1.74.78-1.74,1.74ZM31.68,32.92c.22.39.22.85,0,1.24-.22.39-.62.62-1.07.62h-4.36c-.45,0-.85-.23-1.07-.62-.22-.39-.22-.85,0-1.24l2.18-3.77c.22-.39.62-.62,1.07-.62s.85.23,1.07.62l2.18,3.77ZM30.73,33.46l-2.18-3.77c-.03-.05-.07-.08-.13-.08s-.1.02-.13.08l-2.18,3.77c-.03.05-.03.1,0,.15s.07.08.13.08h4.36c.06,0,.1-.02.13-.08.03-.05.03-.1,0-.15ZM35.1,7.17c0-.3-.24-.54-.54-.54h-4.74c-.3,0-.54.24-.54.54s.24.54.54.54h4.74c.3,0,.54-.24.54-.54ZM39.37,29.93v3.43c0,.94-.76,1.7-1.7,1.7h-3.43c-.94,0-1.7-.76-1.7-1.7v-3.43c0-.94.76-1.7,1.7-1.7h3.43c.94,0,1.7.76,1.7,1.7ZM38.28,29.93c0-.34-.27-.61-.61-.61h-3.43c-.34,0-.61.27-.61.61v3.43c0,.34.27.61.61.61h3.43c.34,0,.61-.27.61-.61v-3.43ZM29.82,46.02h4.74c.3,0,.54-.24.54-.54s-.24-.54-.54-.54h-4.74c-.3,0-.54.24-.54.54s.24.54.54.54Z"/>
    </g>
  </g>
</svg>