<svg id="Augmented_Reality_AR_Dating_Experiences" data-name="Augmented Reality (AR) Dating Experiences" xmlns="http://www.w3.org/2000/svg" xmlns:xlink="http://www.w3.org/1999/xlink" viewBox="0 0 196 105.01"><defs><style>.cls-1{fill:none;}.cls-2{clip-path:url(#clip-path);}.cls-3{fill:#ce3544;}</style><clipPath id="clip-path" transform="translate(0 -7.5)"><rect class="cls-1" width="196" height="120"/></clipPath></defs><g class="cls-2"><path class="cls-3" d="M146.18,112.5a33.63,33.63,0,0,1-16.62-4.42L108.83,96.24a21.9,21.9,0,0,0-21.66,0L66.44,108.09A33.49,33.49,0,0,1,16.33,79V41A33.53,33.53,0,0,1,49.82,7.5h96.36A33.53,33.53,0,0,1,179.67,41V79A33.54,33.54,0,0,1,146.18,112.5ZM98,81.71a33.53,33.53,0,0,1,16.62,4.4L135.35,98A21.83,21.83,0,0,0,168,79V41a21.86,21.86,0,0,0-21.82-21.83H49.82A21.86,21.86,0,0,0,28,41V79A21.82,21.82,0,0,0,60.65,98L81.39,86.11A33.47,33.47,0,0,1,98,81.71Z" transform="translate(0 -7.5)"/><path class="cls-3" d="M5.83,79.83A5.83,5.83,0,0,1,0,74V46a5.84,5.84,0,1,1,11.67,0V74A5.84,5.84,0,0,1,5.83,79.83Z" transform="translate(0 -7.5)"/><path class="cls-3" d="M190.17,79.83A5.83,5.83,0,0,1,184.33,74V46A5.84,5.84,0,1,1,196,46V74A5.83,5.83,0,0,1,190.17,79.83Z" transform="translate(0 -7.5)"/></g></svg>