<svg id="Guides_Tips" data-name="Guides &amp; Tips" xmlns="http://www.w3.org/2000/svg" xmlns:xlink="http://www.w3.org/1999/xlink" viewBox="0 0 101.8 120"><defs><style>.cls-1{fill:none;}.cls-2{clip-path:url(#clip-path);}.cls-3{fill:#ce3544;}</style><clipPath id="clip-path" transform="translate(-47.1)"><rect class="cls-1" width="196" height="120"/></clipPath></defs><g class="cls-2"><path class="cls-3" d="M84.5,86.81a24.84,24.84,0,0,0-2.75-4.89,38.34,38.34,0,0,0-6-6.54,27,27,0,0,1-8-10.52,34.38,34.38,0,0,1-3-14,33.21,33.21,0,0,1,66.42,0,34.38,34.38,0,0,1-3,14,27,27,0,0,1-8,10.53,39.13,39.13,0,0,0-6,6.53,25.3,25.3,0,0,0-2.74,4.89,7.63,7.63,0,0,1,1.37,1.09,7.44,7.44,0,0,1,0,10.56l-.2.2.2.2L113,99a7.48,7.48,0,0,1-3.74,12.45,11.68,11.68,0,0,1-22.5,0,7.47,7.47,0,0,1-3.63-12.57l.21-.2-.21-.2a7.47,7.47,0,0,1,0-10.57,8.07,8.07,0,0,1,1.38-1.09ZM49.1,52.9a2,2,0,0,1,0-4H60.56a2,2,0,0,1,0,4Zm86.34,0a2,2,0,0,1,0-4H146.9a2,2,0,0,1,0,4Zm-70.6,34A2,2,0,0,1,62,84.06l8.1-8.1a2,2,0,1,1,2.83,2.83Zm61.05-61A2,2,0,1,1,123.06,23l8.1-8.1A2,2,0,0,1,134,17.74ZM134,84.06a2,2,0,0,1-2.83,2.83l-8.1-8.1A2,2,0,1,1,125.89,76ZM72.94,23a2,2,0,1,1-2.83,2.83L62,17.74a2,2,0,1,1,2.83-2.83ZM100,13.46a2,2,0,1,1-4,0V2a2,2,0,0,1,4,0ZM94.2,85.71a51.06,51.06,0,0,0-3-13.27A70.91,70.91,0,0,0,83.94,58.3a2,2,0,0,1,3.13-2.45,6.34,6.34,0,0,0,2,1.45,6.26,6.26,0,0,0,2.44.5,6.07,6.07,0,0,0,2.71-.63,5.93,5.93,0,0,0,2.15-1.77,2,2,0,0,1,2.8-.38,1.94,1.94,0,0,1,.4.41,6.12,6.12,0,0,0,9.31.43,2,2,0,0,1,3.1,2.5,69.58,69.58,0,0,0-7.49,14.9,50,50,0,0,0-2.73,12.45h5.84a29.18,29.18,0,0,1,3.35-6.1,42.26,42.26,0,0,1,6.62-7.24,22.92,22.92,0,0,0,7-9.13,30.55,30.55,0,0,0,2.62-12.34,29.21,29.21,0,0,0-58.42,0,30.39,30.39,0,0,0,2.62,12.34,23.06,23.06,0,0,0,6.74,9A38.61,38.61,0,0,1,85,79.61a28.3,28.3,0,0,1,3.35,6.1H94.2Zm.72-14.65A55.62,55.62,0,0,1,98,83.64a55.11,55.11,0,0,1,2.76-11.7,68.88,68.88,0,0,1,4.58-10.18l-.89,0a10.14,10.14,0,0,1-4.48-1,10.56,10.56,0,0,1-2-1.28,10.56,10.56,0,0,1-2,1.28,10.14,10.14,0,0,1-4.48,1l-.89,0a70.22,70.22,0,0,1,4.26,9.3Zm10,40.57H91.06a7.7,7.7,0,0,0,13.88,0Zm2.69-11H88.41a3.49,3.49,0,0,0,0,7h19.18a3.5,3.5,0,0,0,2.46-1,3.43,3.43,0,0,0,1-2.45,3.47,3.47,0,0,0-1-2.46A3.53,3.53,0,0,0,107.63,100.66Zm0-11H88.41a3.48,3.48,0,0,0,0,7h19.27a3.48,3.48,0,0,0,2.42-1,3.46,3.46,0,0,0,0-4.91A3.49,3.49,0,0,0,107.59,89.71Z" transform="translate(-47.1)"/></g></svg>