<svg id="Social_Media_Integration" data-name="Social Media Integration" xmlns="http://www.w3.org/2000/svg" xmlns:xlink="http://www.w3.org/1999/xlink" viewBox="0 0 121.81 120"><defs><style>.cls-1{fill:none;}.cls-2{clip-path:url(#clip-path);}.cls-3{fill:#ce3544;fill-rule:evenodd;}</style><clipPath id="clip-path" transform="translate(-37.09)"><rect class="cls-1" width="196" height="120"/></clipPath></defs><g class="cls-2"><path class="cls-3" d="M149.93,77.37a5.72,5.72,0,1,0,4,1.68,5.71,5.71,0,0,0-4-1.68Zm-52,28a5.72,5.72,0,1,0,5.72,5.72,5.69,5.69,0,0,0-5.72-5.72Zm-1.62-3.09V88.69A31.43,31.43,0,0,1,67.88,66.43L53.54,78.19a8.95,8.95,0,1,1-2.23-2.35L67,62.94a31.47,31.47,0,0,1,11.48-30.3L69.46,21.88h0a9,9,0,1,1,2.39-2.17l9.31,11.06a31.43,31.43,0,0,1,38.7,4.06L137,13.72a8.94,8.94,0,1,1,2.21,2.4l-17.16,21.1a31.49,31.49,0,0,1,6.79,25.67l15.79,13a9,9,0,1,1-2.23,2.35L128,66.38h0A31.42,31.42,0,0,1,99.58,88.69v13.55a9,9,0,1,1-3.24,0Zm48.3-99a5.72,5.72,0,1,0,4,1.68,5.73,5.73,0,0,0-4-1.68ZM64.74,8.56a5.72,5.72,0,1,0,4,1.67,5.71,5.71,0,0,0-4-1.67ZM46,77.37a5.72,5.72,0,1,0,4,1.68,5.71,5.71,0,0,0-4-1.68Zm51.9-34.88a8.46,8.46,0,0,1,5.47,14.92,12.79,12.79,0,0,1,7.29,11.52v3a19.4,19.4,0,1,0-25.5,0v-3a12.78,12.78,0,0,1,7.28-11.52,8.46,8.46,0,0,1,5.46-14.92Zm0,3.24a5.22,5.22,0,1,0,3.7,1.53,5.22,5.22,0,0,0-3.7-1.53Zm9.51,28.5v-5.3a9.51,9.51,0,1,0-19,0v5.3a19.42,19.42,0,0,0,19,0ZM97.94,34.69a22.64,22.64,0,1,0,22.64,22.64h0A22.64,22.64,0,0,0,97.94,34.69Zm0-5.53a28.17,28.17,0,1,0,19.92,8.25A28.13,28.13,0,0,0,97.94,29.16Z" transform="translate(-37.09)"/></g></svg>