<svg id="Multi-Language" xmlns="http://www.w3.org/2000/svg" xmlns:xlink="http://www.w3.org/1999/xlink" viewBox="0 0 120 120"><defs><style>.cls-1{fill:none;}.cls-2{clip-path:url(#clip-path);}.cls-3{fill:#ce3544;}</style><clipPath id="clip-path" transform="translate(-38)"><rect class="cls-1" width="196" height="120"/></clipPath></defs><g class="cls-2"><path class="cls-3" d="M78.89,61.23a2.33,2.33,0,0,0-.17-.26l-.17-.18-.19-.18-.25-.17L78,60.32h0l-.27-.12-.22-.09h-.14L76.85,60h-.54a3.15,3.15,0,0,0-.42.09h-.12a1,1,0,0,0-.36.16h0l-.12.1a1.37,1.37,0,0,0-.29.2.81.81,0,0,0-.16.16l-.21.2-.16.25-.12.16-16,29.33a2.66,2.66,0,0,0,1,3.62h0a2.78,2.78,0,0,0,1.26.39A2.67,2.67,0,0,0,63,93.33L68.8,82.67H84.53l5.79,10.66a2.67,2.67,0,0,0,2.35,1.34A2.93,2.93,0,0,0,94,94.35a2.68,2.68,0,0,0,1.07-3.62h0l-16-29.33Zm-7.18,16.1,5-9.09,5,9.09Z" transform="translate(-38)"/><path class="cls-3" d="M150,0H88.67a8,8,0,0,0-8,8V46.67H46a8,8,0,0,0-8,8V100a8,8,0,0,0,8,8h6.67v9.33a2.67,2.67,0,0,0,4.52,1.92L68.83,108h38.5a8,8,0,0,0,8-8V61.33h11.84l11.64,11.26a2.67,2.67,0,0,0,4.52-1.92V61.33H150a8,8,0,0,0,8-8V8A8,8,0,0,0,150,0ZM110,100a2.67,2.67,0,0,1-2.67,2.67H67.75a2.68,2.68,0,0,0-1.86.74L58,111v-5.71a2.66,2.66,0,0,0-2.67-2.66H46A2.68,2.68,0,0,1,43.33,100V54.67A2.67,2.67,0,0,1,46,52H80.67v1.33a8,8,0,0,0,8,8H110Zm42.67-46.67A2.67,2.67,0,0,1,150,56h-9.33A2.66,2.66,0,0,0,138,58.67v5.7l-7.89-7.62a2.69,2.69,0,0,0-1.86-.75H88.67A2.66,2.66,0,0,1,86,53.33V8a2.67,2.67,0,0,1,2.67-2.67H150A2.68,2.68,0,0,1,152.67,8Z" transform="translate(-38)"/><path class="cls-3" d="M135.33,20H122V16a2.67,2.67,0,1,0-5.33,0v4H103.33a2.67,2.67,0,0,0,0,5.33h7.88a30.41,30.41,0,0,0,3,8A28.47,28.47,0,0,0,115.89,36a26.15,26.15,0,0,1-12,6.77,2.67,2.67,0,0,0,1.44,5.15,31.39,31.39,0,0,0,14-7.92,31.6,31.6,0,0,0,14,7.87,2.67,2.67,0,1,0,1.44-5.15h0a26.51,26.51,0,0,1-12-6.81,31.42,31.42,0,0,0,4.7-10.67h7.9a2.67,2.67,0,1,0,0-5.33Zm-16,11.55a25,25,0,0,1-2.66-6.22H122A24.65,24.65,0,0,1,119.33,31.55Z" transform="translate(-38)"/></g></svg>