<svg id="Search_Filters" data-name="Search Filters" xmlns="http://www.w3.org/2000/svg" xmlns:xlink="http://www.w3.org/1999/xlink" viewBox="0 0 109.37 120"><defs><style>.cls-1{fill:none;}.cls-2{clip-path:url(#clip-path);}.cls-3{fill:#ce3544;}</style><clipPath id="clip-path" transform="translate(-43.32 0)"><rect class="cls-1" width="196" height="120"/></clipPath></defs><g class="cls-2"><path class="cls-3" d="M150.12,0H45.88a2.56,2.56,0,0,0-1.71,4.47l39.6,35.3v77.67A2.56,2.56,0,0,0,88,119.35l23.11-20.57a2.55,2.55,0,0,0,.86-1.91V39.77L151.82,4.48A2.56,2.56,0,0,0,150.12,0ZM88.89,111.73V41.18h18V95.72Zm19.58-75.67H87.3L65.21,16.36H105a2.56,2.56,0,1,0,0-5.12H59.46L52.6,5.12h90.77Z" transform="translate(-43.32 0)"/><path class="cls-3" d="M114.24,15.93a3,3,0,0,0,.43.24,2.11,2.11,0,0,0,.49.14,2.41,2.41,0,0,0,1,0,2,2,0,0,0,.47-.14,3.21,3.21,0,0,0,.45-.24,2,2,0,0,0,.38-.32,2.37,2.37,0,0,0,.32-.39c.09-.14.17-.28.25-.43s.1-.32.14-.49a2.73,2.73,0,0,0,0-.5,2.59,2.59,0,0,0-.76-1.8,1.44,1.44,0,0,0-.38-.32,2.46,2.46,0,0,0-.45-.25,2.54,2.54,0,0,0-.47-.14,2.8,2.8,0,0,0-1,0,2.75,2.75,0,0,0-.49.14,2.3,2.3,0,0,0-.43.25,1.76,1.76,0,0,0-.4.32,2.57,2.57,0,0,0,0,3.61A2.08,2.08,0,0,0,114.24,15.93Z" transform="translate(-43.32 0)"/></g></svg>