<svg xmlns="http://www.w3.org/2000/svg" xmlns:xlink="http://www.w3.org/1999/xlink" viewBox="0 0 117 44"><defs><style>.cls-1{fill:none;}.cls-2{fill:#092f5c;}.cls-3{clip-path:url(#clip-path);}.cls-4{fill:#fff;}.cls-5{clip-path:url(#clip-path-2);}.cls-6{clip-path:url(#clip-path-3);}</style><clipPath id="clip-path"><rect class="cls-1" x="75" y="6" width="32" height="32"/></clipPath><clipPath id="clip-path-2"><rect class="cls-1" x="46.5" y="10" width="24" height="24"/></clipPath><clipPath id="clip-path-3"><rect class="cls-1" x="10" y="6" width="32" height="32"/></clipPath></defs><title>angular</title><g id="Layer_2" data-name="Layer 2"><g id="Layer_8" data-name="Layer 8"><g id="Layer_3" data-name="Layer 3"><path class="cls-2" d="M22,0H95a22,22,0,0,1,22,22h0A22,22,0,0,1,95,44H22A22,22,0,0,1,0,22H0A22,22,0,0,1,22,0Z"/></g><g id="layer"><g id="angular"><g class="cls-3"><path class="cls-4" d="M91.07,37.34h-.13c-.29-.18-.58-.39-.88-.55q-5.31-3-10.62-5.88a.89.89,0,0,1-.57-.78c-.24-2.32-.52-4.64-.79-6.95q-.63-5.41-1.28-10.82a.63.63,0,0,1,.43-.78l.08,0C79.7,10.74,82.08,9.88,84.5,9c2.17-.78,4.33-1.58,6.49-2.37h.13l.29.14,12.46,4.45c.45.17,1.11.21,1.3.53s0,1,0,1.47v.59c-.29,2.49-.59,5-.88,7.46q-.51,4.43-1,8.84a1.22,1.22,0,0,1-.5.73l-5.47,3ZM91,10,82,30.11h2.88a.65.65,0,0,0,.73-.5c.45-1.19.92-2.37,1.42-3.54.08-.19.34-.44.52-.44h7.17c.54,1.33,1.06,2.66,1.61,4,.07.18.23.47.36.47h3.22Z"/><path class="cls-4" d="M91,16.63l2.55,6.13H88.5Z"/></g></g><g id="plus"><g class="cls-5"><path class="cls-4" d="M58.5,13a1,1,0,0,0-1,1v7h-7a1,1,0,0,0,0,2h7v7a1,1,0,0,0,2,0V23h7a1,1,0,0,0,0-2h-7V14A1,1,0,0,0,58.5,13Z"/></g></g><g id="node_js" data-name="node js"><g class="cls-6"><path class="cls-4" d="M19.22,33.62a3.32,3.32,0,0,1-1.6-.42l-.69-.38a1,1,0,0,1,1-1.72l.68.38a1.27,1.27,0,0,0,1.92-1.16V16.22a1,1,0,0,1,2,0v14.1a3.26,3.26,0,0,1-1.63,2.85A3.3,3.3,0,0,1,19.22,33.62Z"/><path class="cls-4" d="M26,37.75a2.32,2.32,0,0,1-1.18-.32l-3.16-1.84a1,1,0,0,1,1-1.7l3.16,1.84a.37.37,0,0,0,.38,0L37.61,29a.41.41,0,0,0,.21-.36V15.31a.41.41,0,0,0-.21-.36L26.2,8.27a.39.39,0,0,0-.39,0L14.38,15a.43.43,0,0,0-.2.36V28.68a.43.43,0,0,0,.2.36l3.53,2.07A1,1,0,1,1,17.2,33a1.05,1.05,0,0,1-.29-.17l-3.53-2.07a2.38,2.38,0,0,1-1.17-2.06V15.31a2.36,2.36,0,0,1,1.17-2.06L24.81,6.57a2.36,2.36,0,0,1,2.38,0l11.42,6.68a2.38,2.38,0,0,1,1.17,2.06V28.69a2.39,2.39,0,0,1-1.17,2L27.19,37.43A2.36,2.36,0,0,1,26,37.75Z"/><path class="cls-4" d="M29.2,28.76c-2.95,0-6.1-1-6.1-3.87a1,1,0,0,1,2,0c0,1.5,2.59,1.9,4.13,1.9,2.74,0,4.14-.29,4.14-1.9,0-.81-1-1.13-3.42-1.7L29,23,28,22.74c-2.09-.46-5-1.09-5-3.63,0-2.86,3.16-3.87,6.11-3.87s6.1,1,6.1,3.87a1,1,0,0,1-2,0c0-1.5-2.59-1.91-4.13-1.91S25,17.61,25,19.11c0,.89,1.48,1.28,3.4,1.71l1,.22.94.23c2.53.6,4.93,1.17,4.93,3.62C35.31,28.76,31.18,28.76,29.2,28.76Z"/></g></g></g></g></g></svg>