<svg xmlns="http://www.w3.org/2000/svg" xmlns:xlink="http://www.w3.org/1999/xlink" viewBox="0 0 117 44"><defs><style>.cls-1{fill:none;}.cls-2{fill:#092f5c;}.cls-3{clip-path:url(#clip-path);}.cls-4{fill:#fff;}.cls-5{clip-path:url(#clip-path-2);}</style><clipPath id="clip-path"><rect class="cls-1" x="46.63" y="10" width="24" height="24"/></clipPath><clipPath id="clip-path-2"><rect class="cls-1" x="10.13" y="6" width="32" height="32"/></clipPath></defs><title>nest</title><g id="Layer_2" data-name="Layer 2"><g id="Layer_6" data-name="Layer 6"><g id="Layer_3" data-name="Layer 3"><path class="cls-2" d="M22,0H95a22,22,0,0,1,22,22h0A22,22,0,0,1,95,44H22A22,22,0,0,1,0,22H0A22,22,0,0,1,22,0Z"/></g><g id="layer"><g id="plus"><g class="cls-3"><path class="cls-4" d="M58.63,13a1,1,0,0,0-1,1v7h-7a1,1,0,1,0,0,2h7v7a1,1,0,0,0,2,0V23h7a1,1,0,0,0,0-2h-7V14A1,1,0,0,0,58.63,13Z"/></g></g><g id="node_js" data-name="node js"><g class="cls-5"><path class="cls-4" d="M19.34,33.62a3.32,3.32,0,0,1-1.6-.42l-.69-.38a1,1,0,0,1-.37-1.34A1,1,0,0,1,18,31.1l.68.38a1.28,1.28,0,0,0,1.93-1.16V16.22a1,1,0,0,1,2,0v14.1A3.3,3.3,0,0,1,21,33.17,3.36,3.36,0,0,1,19.34,33.62Z"/><path class="cls-4" d="M26.13,37.75a2.36,2.36,0,0,1-1.19-.32l-3.16-1.84a1,1,0,0,1,1-1.7l3.16,1.84a.37.37,0,0,0,.38,0L37.74,29a.38.38,0,0,0,.2-.36V15.31a.38.38,0,0,0-.2-.36L26.33,8.27a.39.39,0,0,0-.39,0L14.51,15a.41.41,0,0,0-.2.36V28.68a.39.39,0,0,0,.2.36L18,31.11A1,1,0,1,1,17.32,33a1.22,1.22,0,0,1-.29-.17l-3.52-2.07a2.36,2.36,0,0,1-1.17-2.06V15.31a2.36,2.36,0,0,1,1.17-2.06L24.93,6.57a2.36,2.36,0,0,1,2.38,0l11.43,6.68a2.37,2.37,0,0,1,1.16,2.06V28.69a2.36,2.36,0,0,1-1.16,2L27.32,37.43A2.41,2.41,0,0,1,26.13,37.75Z"/><path class="cls-4" d="M29.33,28.76c-2.95,0-6.1-1-6.1-3.87a1,1,0,0,1,2,0c0,1.5,2.59,1.9,4.12,1.9,2.74,0,4.14-.29,4.14-1.9,0-.81-1-1.13-3.42-1.7l-1-.24-.92-.21c-2.09-.46-4.95-1.09-4.95-3.63,0-2.86,3.16-3.87,6.11-3.87s6.1,1,6.1,3.87a1,1,0,0,1-2,0c0-1.5-2.59-1.91-4.13-1.91s-4.14.41-4.14,1.91c0,.89,1.48,1.28,3.4,1.71l1,.22.94.23c2.53.6,4.93,1.17,4.93,3.62C35.44,28.76,31.31,28.76,29.33,28.76Z"/></g></g><path class="cls-4" d="M106.88,23.22v.28a13.9,13.9,0,0,1-2.31,7.5l-.24.3h0a10.7,10.7,0,0,0-.23-3.78A12.13,12.13,0,0,1,98.56,36h.07c.22-.36.44-.71.65-1.07a10.12,10.12,0,0,0,1-2.1c.14-.47.23-.94.36-1.42a1.6,1.6,0,0,1,.11-.4h0l-.06.08A14.45,14.45,0,0,1,98.25,34a11.68,11.68,0,0,1-2.93,2.09,12.6,12.6,0,0,1-3.83,1.22c-.35.06-.71.09-1.06.14h0a13.42,13.42,0,0,0,2.7-1.72,17.17,17.17,0,0,0,2.2-2.31h0l-1.5.52A9.13,9.13,0,0,1,92,34.4h-.45a7.64,7.64,0,0,0,2.91-3.52,7.56,7.56,0,0,0,.39-4.53,7.88,7.88,0,0,1-.35,1.35,8.6,8.6,0,0,1-2.07,3.14,6,6,0,0,1-1.85,1.27,8.13,8.13,0,0,1-4.24.62,7,7,0,0,1-2.67-.91l-.2-.12a3.82,3.82,0,0,1,1.11-.31l-.08-.07A3.73,3.73,0,0,1,83,28a1.76,1.76,0,0,1,.13-.5,2.19,2.19,0,0,1,1.74-1.22,1.3,1.3,0,0,1,.68.09.6.6,0,0,1,.37.59,1.41,1.41,0,0,1-.12.49A1.19,1.19,0,0,0,86,28.74a2.21,2.21,0,0,0,1.75.73.06.06,0,0,0,.06,0A5.89,5.89,0,0,0,88.56,28c.08-.19.13-.38.2-.59A5.3,5.3,0,0,1,88.85,29s.08,0,.09-.07a5.44,5.44,0,0,0,.42-.41,6.18,6.18,0,0,0,.73-1.21.25.25,0,0,1,.28-.17h.16a1.87,1.87,0,0,1,1,.63,1.33,1.33,0,0,1,.27.46v-.5a8.49,8.49,0,0,0-.86-2.65,9.78,9.78,0,0,0-1.89-2.53A9,9,0,0,0,82.93,20a11.39,11.39,0,0,0-2.33.18.48.48,0,0,0-.32.2c-.17.26-.35.5-.53.75a.85.85,0,0,1-.16.17c-.1.1-.16.07-.19-.06V20l-.09.09c-.15.22-.29.44-.44.65a.53.53,0,0,1-.13.13h-.12a.33.33,0,0,1,0-.14v-.82l-.23-.08a2.31,2.31,0,0,1-1.28-1.51.15.15,0,0,0-.09-.1,5,5,0,0,1-.56-.38A1.44,1.44,0,0,1,76,16.05a2.31,2.31,0,0,1,.63-.82,2.27,2.27,0,0,1,1.27-.59c.21,0,.41,0,.62-.07a4.22,4.22,0,0,0,1.76-.87,15.54,15.54,0,0,0,1.44-1.37A5.89,5.89,0,0,1,83.56,11a10,10,0,0,1,3-.8,15.92,15.92,0,0,1,2.19-.09,16.24,16.24,0,0,1,3.25.41,10.44,10.44,0,0,1,2.28.79l.33.17v-.07a6.11,6.11,0,0,0-.13-.7,1.6,1.6,0,0,1,.21-1.07A2.26,2.26,0,0,1,95.32,9c.24-.18.48-.34.71-.53a1.61,1.61,0,0,0,.62-1,3.23,3.23,0,0,0,0-.44h.07c.25.11.51.2.76.33a5.27,5.27,0,0,1,2,1.84,5.45,5.45,0,0,1,.75,4.25,5.09,5.09,0,0,1-2,3,5.9,5.9,0,0,1-2.66,1.07h-.28a5.44,5.44,0,0,0,4-.33,5.56,5.56,0,0,0,3.11-4.54v.06c.47.55.92,1.12,1.33,1.71a18,18,0,0,1,2,3.88,14.75,14.75,0,0,1,.9,4.45C106.86,23,106.88,23.09,106.88,23.22Z"/><path class="cls-4" d="M94.22,6.57a1.59,1.59,0,0,1,.49.11,1.72,1.72,0,0,1,1,.77.83.83,0,0,1,.15.48.13.13,0,0,1,0,.12l-.42.4c-.25.2-.49.41-.73.63a1.93,1.93,0,0,0-.53,1.33v.5h0a1.87,1.87,0,0,1-.33-1.19,2.37,2.37,0,0,1,.26-.79,1.64,1.64,0,0,0,.2-1.08,1.68,1.68,0,0,0-.6-1l-.17-.14.4-.09Z"/></g></g></g></svg>