<svg xmlns="http://www.w3.org/2000/svg" xmlns:xlink="http://www.w3.org/1999/xlink" viewBox="0 0 117 44"><defs><style>.cls-1{fill:none;}.cls-2{fill:#092f5c;}.cls-3{clip-path:url(#clip-path);}.cls-4{fill:#fff;}.cls-5{clip-path:url(#clip-path-2);}</style><clipPath id="clip-path"><rect class="cls-1" x="46.64" y="10" width="24" height="24"/></clipPath><clipPath id="clip-path-2"><rect class="cls-1" x="10.14" y="6" width="32" height="32"/></clipPath></defs><title>react</title><g id="Layer_2" data-name="Layer 2"><g id="Layer_3" data-name="Layer 3"><g id="Layer_3-2" data-name="Layer 3"><path class="cls-2" d="M22,0H95a22,22,0,0,1,22,22h0A22,22,0,0,1,95,44H22A22,22,0,0,1,0,22H0A22,22,0,0,1,22,0Z"/></g><g id="layer"><g id="plus"><g class="cls-3"><path class="cls-4" d="M58.64,13a1,1,0,0,0-1,1v7h-7a1,1,0,0,0,0,2h7v7a1,1,0,0,0,2,0V23h7a1,1,0,0,0,0-2h-7V14A1,1,0,0,0,58.64,13Z"/></g></g><g id="node_js" data-name="node js"><g class="cls-5"><path class="cls-4" d="M19.36,33.62a3.32,3.32,0,0,1-1.6-.42l-.69-.38a1,1,0,0,1,1-1.72l.68.38a1.27,1.27,0,0,0,1.92-1.16V16.22a1,1,0,0,1,2,0v14.1A3.26,3.26,0,0,1,21,33.17,3.3,3.3,0,0,1,19.36,33.62Z"/><path class="cls-4" d="M26.14,37.75A2.32,2.32,0,0,1,25,37.43L21.8,35.59a1,1,0,0,1,1-1.7L26,35.73a.37.37,0,0,0,.38,0L37.75,29a.41.41,0,0,0,.21-.36V15.31a.41.41,0,0,0-.21-.36L26.34,8.27a.39.39,0,0,0-.39,0L14.52,15a.43.43,0,0,0-.2.36V28.68a.43.43,0,0,0,.2.36l3.53,2.07A1,1,0,1,1,17.34,33a1.05,1.05,0,0,1-.29-.17l-3.53-2.07a2.38,2.38,0,0,1-1.17-2.06V15.31a2.36,2.36,0,0,1,1.17-2.06L25,6.57a2.36,2.36,0,0,1,2.38,0l11.42,6.68a2.38,2.38,0,0,1,1.17,2.06V28.69a2.39,2.39,0,0,1-1.17,2L27.33,37.43A2.36,2.36,0,0,1,26.14,37.75Z"/><path class="cls-4" d="M29.34,28.76c-2.95,0-6.1-1-6.1-3.87a1,1,0,0,1,2,0c0,1.5,2.59,1.9,4.13,1.9,2.74,0,4.14-.29,4.14-1.9,0-.81-1-1.13-3.42-1.7l-1-.24-.92-.21c-2.09-.46-5-1.09-5-3.63,0-2.86,3.16-3.87,6.11-3.87s6.1,1,6.1,3.87a1,1,0,0,1-2,0c0-1.5-2.59-1.91-4.13-1.91s-4.14.41-4.14,1.91c0,.89,1.48,1.28,3.4,1.71l1,.22.94.23c2.53.6,4.93,1.17,4.93,3.62C35.45,28.76,31.32,28.76,29.34,28.76Z"/></g></g><g id="react"><path class="cls-4" d="M106.86,22c0-2.05-2.57-4-6.51-5.2.91-4,.5-7.22-1.28-8.24a2.77,2.77,0,0,0-1.43-.36V9.61a1.39,1.39,0,0,1,.72.17c.86.49,1.24,2.37,1,4.78-.07.59-.19,1.22-.33,1.86a30.13,30.13,0,0,0-4-.69,29.37,29.37,0,0,0-2.63-3.16c2.06-1.92,4-3,5.31-3V8.2c-1.74,0-4,1.24-6.31,3.38-2.3-2.13-4.58-3.36-6.31-3.36V9.63c1.3,0,3.24,1,5.3,2.95a30.29,30.29,0,0,0-2.61,3.15,30.13,30.13,0,0,0-4,.69c-.14-.6-.24-1.22-.32-1.83-.3-2.41.07-4.29.92-4.79a1.44,1.44,0,0,1,.73-.16V8.23a2.8,2.8,0,0,0-1.47.35c-1.78,1-2.18,4.22-1.26,8.22-4,1.2-6.52,3.2-6.52,5.2s2.57,4,6.52,5.21c-.91,4-.51,7.22,1.27,8.24a2.8,2.8,0,0,0,1.42.35c1.74,0,4-1.24,6.32-3.38,2.3,2.13,4.57,3.36,6.31,3.36a2.87,2.87,0,0,0,1.43-.36c1.77-1,2.17-4.21,1.25-8.22C104.3,26,106.86,24.05,106.86,22Zm-8.22-4.21c-.23.81-.52,1.65-.85,2.49-.26-.5-.53-1-.83-1.51s-.6-1-.91-1.48C96.94,17.42,97.81,17.59,98.64,17.79Zm-2.9,6.73c-.49.85-1,1.66-1.52,2.41-.94.08-1.9.13-2.86.13a22.25,22.25,0,0,1-2.84-.12c-.53-.75-1-1.56-1.53-2.4A27,27,0,0,1,85.64,22c.4-.84.84-1.69,1.31-2.52s1-1.66,1.52-2.41c1-.08,1.9-.13,2.86-.13s1.91,0,2.84.12c.53.75,1,1.56,1.53,2.4A24.94,24.94,0,0,1,97.05,22C96.64,22.84,96.21,23.69,95.74,24.52Zm2-.82c.34.84.63,1.69.87,2.51-.83.2-1.7.37-2.6.51.31-.49.62-1,.91-1.5s.6-1,.86-1.52Zm-6.41,6.74c-.58-.61-1.17-1.28-1.75-2h3.49a24.93,24.93,0,0,1-1.7,2Zm-4.69-3.72c-.9-.14-1.76-.3-2.59-.5.24-.82.53-1.66.85-2.5.26.51.54,1,.83,1.52S86.36,26.24,86.64,26.72Zm4.7-13.15a24,24,0,0,1,1.76,2H89.6A22.06,22.06,0,0,1,91.34,13.57Zm-4.7,3.72c-.31.49-.62,1-.91,1.5s-.57,1-.83,1.51c-.34-.84-.63-1.69-.87-2.51C84.89,17.59,85.76,17.42,86.64,17.29ZM81,25.2c-2.24-.95-3.69-2.2-3.69-3.2s1.45-2.25,3.69-3.19a15.23,15.23,0,0,1,1.75-.64A30.31,30.31,0,0,0,84.12,22a28.74,28.74,0,0,0-1.4,3.83A15.92,15.92,0,0,1,81,25.2Zm3.4,9c-.86-.49-1.24-2.37-.94-4.78a16.42,16.42,0,0,1,.32-1.86,30.13,30.13,0,0,0,4,.69,29.37,29.37,0,0,0,2.63,3.16c-2.06,1.91-4,3-5.31,3a1.46,1.46,0,0,1-.7-.18Zm15-4.81c.3,2.41-.06,4.29-.92,4.78a1.39,1.39,0,0,1-.72.17c-1.31,0-3.25-1-5.31-3A30.29,30.29,0,0,0,95,28.24a30.13,30.13,0,0,0,4-.69,17,17,0,0,1,.32,1.87Zm2.44-4.22c-.55.23-1.14.44-1.75.64A30.5,30.5,0,0,0,98.64,22a30.21,30.21,0,0,0,1.4-3.83c.62.2,1.22.41,1.77.65,2.24,1,3.69,2.2,3.69,3.19s-1.5,2.24-3.73,3.19Z"/><path class="cls-4" d="M91.35,24.89A2.89,2.89,0,1,0,88.47,22h0A2.9,2.9,0,0,0,91.35,24.89Z"/></g></g></g></g></svg>