<svg xmlns="http://www.w3.org/2000/svg" xmlns:xlink="http://www.w3.org/1999/xlink" viewBox="0 0 117 44"><defs><style>.cls-1{fill:none;}.cls-2{fill:#092f5c;}.cls-3{clip-path:url(#clip-path);}.cls-4{fill:#fff;}.cls-5{clip-path:url(#clip-path-2);}</style><clipPath id="clip-path"><rect class="cls-1" x="46.75" y="10" width="24" height="24"/></clipPath><clipPath id="clip-path-2"><rect class="cls-1" x="10.25" y="6" width="32" height="32"/></clipPath></defs><title>ts</title><g id="Layer_2" data-name="Layer 2"><g id="Layer_2-2" data-name="Layer 2"><g id="Layer_3" data-name="Layer 3"><path class="cls-2" d="M22,0H95a22,22,0,0,1,22,22h0A22,22,0,0,1,95,44H22A22,22,0,0,1,0,22H0A22,22,0,0,1,22,0Z"/></g><g id="layer"><g id="plus"><g class="cls-3"><path class="cls-4" d="M58.75,13a1,1,0,0,0-1,1v7h-7a1,1,0,0,0,0,2h7v7a1,1,0,0,0,2,0V23h7a1,1,0,0,0,0-2h-7V14A1,1,0,0,0,58.75,13Z"/></g></g><g id="node_js" data-name="node js"><g class="cls-5"><path class="cls-4" d="M19.47,33.62a3.32,3.32,0,0,1-1.6-.42l-.69-.38a1,1,0,0,1,1-1.72l.68.38a1.27,1.27,0,0,0,1.92-1.16V16.22a1,1,0,0,1,2,0v14.1a3.26,3.26,0,0,1-1.63,2.85A3.3,3.3,0,0,1,19.47,33.62Z"/><path class="cls-4" d="M26.25,37.75a2.32,2.32,0,0,1-1.18-.32l-3.16-1.84a1,1,0,0,1,1-1.7l3.16,1.84a.37.37,0,0,0,.38,0L37.86,29a.41.41,0,0,0,.21-.36V15.31a.41.41,0,0,0-.21-.36L26.45,8.27a.39.39,0,0,0-.39,0L14.63,15a.43.43,0,0,0-.2.36V28.68a.43.43,0,0,0,.2.36l3.53,2.07A1,1,0,1,1,17.45,33a1.05,1.05,0,0,1-.29-.17l-3.53-2.07a2.38,2.38,0,0,1-1.17-2.06V15.31a2.36,2.36,0,0,1,1.17-2.06L25.06,6.57a2.36,2.36,0,0,1,2.38,0l11.42,6.68A2.38,2.38,0,0,1,40,15.31V28.69a2.39,2.39,0,0,1-1.17,2L27.44,37.43A2.36,2.36,0,0,1,26.25,37.75Z"/><path class="cls-4" d="M29.45,28.76c-2.95,0-6.1-1-6.1-3.87a1,1,0,0,1,2,0c0,1.5,2.59,1.9,4.13,1.9,2.74,0,4.14-.29,4.14-1.9,0-.81-1-1.13-3.42-1.7l-1-.24-.92-.21c-2.09-.46-5-1.09-5-3.63,0-2.86,3.16-3.87,6.11-3.87s6.1,1,6.1,3.87a1,1,0,0,1-2,0c0-1.5-2.59-1.91-4.13-1.91s-4.14.41-4.14,1.91c0,.89,1.48,1.28,3.4,1.71l1,.22.94.23c2.53.6,4.93,1.17,4.93,3.62C35.56,28.76,31.43,28.76,29.45,28.76Z"/></g></g></g><g id="GUIDES"><path class="cls-4" d="M106.75,6.5h-31v31h31ZM88.31,33.37H85.75V23.13H82V21H92v2.14H88.31Zm14.9-3.69c0,2.45-1.9,4-5,4s-4.83-1.41-5-3.61v-.13h2.54V30c.1.93,1.1,1.55,2.55,1.55s2.33-.66,2.33-1.61h0c0-.81-.6-1.27-2.14-1.58l-1.3-.27c-2.58-.52-3.68-1.72-3.68-3.6h0c0-2.3,2-3.82,4.71-3.82,2.89,0,4.59,1.53,4.76,3.6v.11h-2.44v-.11c-.14-.88-1-1.5-2.31-1.5s-2.12.6-2.12,1.52h0c0,.81.6,1.29,2.06,1.59l1.31.26c2.61.54,3.75,1.59,3.75,3.52Z"/></g></g></g></svg>