<svg xmlns="http://www.w3.org/2000/svg" xmlns:xlink="http://www.w3.org/1999/xlink" viewBox="0 0 117 44"><defs><style>.cls-1{fill:none;}.cls-2{fill:#092f5c;}.cls-3{clip-path:url(#clip-path);}.cls-4{fill:#fff;}.cls-5{clip-path:url(#clip-path-2);}</style><clipPath id="clip-path"><rect class="cls-1" x="46" y="10" width="24" height="24"/></clipPath><clipPath id="clip-path-2"><rect class="cls-1" x="9.5" y="6" width="32" height="32"/></clipPath></defs><title>vue</title><g id="Layer_2" data-name="Layer 2"><g id="Layer_1-2" data-name="Layer 1"><g id="Layer_3" data-name="Layer 3"><path class="cls-2" d="M22,0H95a22,22,0,0,1,22,22h0A22,22,0,0,1,95,44H22A22,22,0,0,1,0,22H0A22,22,0,0,1,22,0Z"/></g><g id="layer"><g id="plus"><g class="cls-3"><path class="cls-4" d="M58,13a1,1,0,0,0-1,1v7H50a1,1,0,0,0,0,2h7v7a1,1,0,0,0,2,0V23h7a1,1,0,0,0,0-2H59V14A1,1,0,0,0,58,13Z"/></g></g><g id="node_js" data-name="node js"><g class="cls-5"><path class="cls-4" d="M18.72,33.62a3.32,3.32,0,0,1-1.6-.42l-.69-.38a1,1,0,0,1,1-1.72l.68.38A1.27,1.27,0,0,0,20,30.32V16.22a1,1,0,0,1,2,0v14.1a3.26,3.26,0,0,1-1.63,2.85A3.3,3.3,0,0,1,18.72,33.62Z"/><path class="cls-4" d="M25.5,37.75a2.32,2.32,0,0,1-1.18-.32l-3.16-1.84a1,1,0,0,1,1-1.7l3.16,1.84a.37.37,0,0,0,.38,0L37.11,29a.41.41,0,0,0,.21-.36V15.31a.41.41,0,0,0-.21-.36L25.7,8.27a.39.39,0,0,0-.39,0L13.88,15a.43.43,0,0,0-.2.36V28.68a.43.43,0,0,0,.2.36l3.53,2.07A1,1,0,1,1,16.7,33a1.05,1.05,0,0,1-.29-.17l-3.53-2.07a2.38,2.38,0,0,1-1.17-2.06V15.31a2.36,2.36,0,0,1,1.17-2.06L24.31,6.57a2.36,2.36,0,0,1,2.38,0l11.42,6.68a2.38,2.38,0,0,1,1.17,2.06V28.69a2.39,2.39,0,0,1-1.17,2L26.69,37.43A2.36,2.36,0,0,1,25.5,37.75Z"/><path class="cls-4" d="M28.7,28.76c-2.95,0-6.1-1-6.1-3.87a1,1,0,0,1,2,0c0,1.5,2.59,1.9,4.13,1.9,2.74,0,4.14-.29,4.14-1.9,0-.81-1-1.13-3.42-1.7l-1-.24-.92-.21c-2.09-.46-5-1.09-5-3.63,0-2.86,3.16-3.87,6.11-3.87s6.1,1,6.1,3.87a1,1,0,0,1-2,0c0-1.5-2.59-1.91-4.13-1.91s-4.14.41-4.14,1.91c0,.89,1.48,1.28,3.4,1.71l1,.22.94.23c2.53.6,4.93,1.17,4.93,3.62C34.81,28.76,30.68,28.76,28.7,28.76Z"/></g></g><path id="vue" class="cls-4" d="M97.77,8.58H95.18A1.45,1.45,0,0,0,94,9.25l-3.5,5.38L87,9.25a1.45,1.45,0,0,0-1.22-.67H76.45A1.45,1.45,0,0,0,75,10a1.47,1.47,0,0,0,.2.74l14,23.93a1.45,1.45,0,0,0,2,.52,1.52,1.52,0,0,0,.52-.52l14-23.93a1.45,1.45,0,0,0-1.25-2.19ZM82.38,11.49,90.5,25.4l8.12-13.91H102L90.5,31.1,79,11.49Z"/></g></g></g></svg>