<?xml version="1.0" encoding="UTF-8"?>
<svg id="Layer_2" xmlns="http://www.w3.org/2000/svg" xmlns:xlink="http://www.w3.org/1999/xlink" viewBox="0 0 30 30">
  <defs>
    <style>
      .cls-1 {
        fill: none;
      }

      .cls-2 {
        fill: #f15f26;
      }

      .cls-3 {
        clip-path: url(#clippath);
      }
    </style>
    <clipPath id="clippath">
      <rect class="cls-1" width="30" height="30"/>
    </clipPath>
  </defs>
  <g id="Layer_2-2" data-name="Layer_2">
    <g class="cls-3">
      <g>
        <path class="cls-2" d="M17.99,12.78h-5.98c-.48,0-.86.39-.86.87v15.71c0,.48.38.87.86.87h5.98c.47,0,.86-.39.86-.87v-15.71c0-.48-.39-.87-.86-.87ZM18.04,29.36s-.02.05-.04.05h-5.98s-.05-.02-.05-.05v-15.71s.03-.05.05-.05h5.98s.04.02.04.05v15.71Z"/>
        <path class="cls-2" d="M26.8,21.7h-5.98c-.47,0-.86.39-.86.86v6.8c0,.48.39.87.86.87h5.98c.48,0,.86-.39.86-.87v-6.8c0-.47-.38-.86-.86-.86ZM26.83,29.36s-.02.05-.04.05h-5.98s-.04-.02-.04-.05v-6.8s.02-.04.04-.04h5.98s.04.02.04.04v6.8Z"/>
        <path class="cls-2" d="M9.18,20.1H3.2c-.47,0-.86.39-.86.86v8.4c0,.48.39.87.86.87h5.98c.48,0,.87-.39.87-.87v-8.4c0-.47-.39-.86-.87-.86ZM9.24,29.36s-.02.05-.05.05H3.2s-.04-.02-.04-.05v-8.4s.02-.04.04-.04h5.98s.05.02.05.04v8.4Z"/>
        <path class="cls-2" d="M27.3,16.69c-.06-.17-.21-.28-.39-.28h-2.08l-.64-1.98c-.05-.17-.21-.28-.39-.28s-.34.11-.39.28l-.64,1.98h-2.08c-.18,0-.33.11-.39.28-.05.17.01.35.15.46l1.69,1.22-.65,1.97c-.05.17.01.36.15.46.14.1.34.1.48,0l1.68-1.23,1.68,1.23c.07.05.16.08.24.08.09,0,.17-.03.24-.08.15-.1.21-.29.15-.46l-.65-1.97,1.69-1.22c.14-.11.2-.29.15-.46ZM24.74,17.88c-.14.1-.2.29-.14.45l.34,1.06-.9-.65c-.14-.11-.33-.11-.48,0l-.89.65.34-1.05c.06-.17,0-.36-.15-.46l-.9-.65h1.11c.18,0,.34-.12.39-.29l.34-1.05.34,1.05c.06.17.22.29.39.29h1.11l-.9.65Z"/>
        <path class="cls-2" d="M15,1.73c-1.57,0-2.84,1.28-2.84,2.84s1.27,2.84,2.84,2.84,2.84-1.27,2.84-2.84-1.28-2.84-2.84-2.84ZM15,6.59c-1.12,0-2.02-.9-2.02-2.02s.9-2.02,2.02-2.02,2.02.91,2.02,2.02-.91,2.02-2.02,2.02ZM15,1.73c-1.57,0-2.84,1.28-2.84,2.84s1.27,2.84,2.84,2.84,2.84-1.27,2.84-2.84-1.28-2.84-2.84-2.84ZM15,6.59c-1.12,0-2.02-.9-2.02-2.02s.9-2.02,2.02-2.02,2.02.91,2.02,2.02-.91,2.02-2.02,2.02ZM19.5,5.29c.19-.2.3-.45.3-.72s-.11-.53-.3-.72l-.31-.3c-.05-.06-.07-.12-.05-.19l.11-.42c.15-.54-.17-1.1-.71-1.24l-.42-.12c-.08-.01-.12-.06-.14-.13l-.11-.42c-.07-.26-.24-.48-.48-.61-.23-.14-.51-.18-.77-.11l-.41.12c-.07.02-.14,0-.19-.05l-.31-.31c-.39-.39-1.04-.39-1.43,0l-.31.31s-.12.07-.19.05l-.41-.11c-.27-.07-.54-.04-.78.1-.23.14-.4.36-.47.62l-.11.41c-.02.08-.06.12-.14.14l-.41.11c-.54.15-.86.71-.72,1.25l.11.41c.02.08,0,.14-.05.19l-.3.31c-.4.39-.4,1.04,0,1.44l.3.3c.06.05.07.12.05.19l-.11.42c-.07.26-.03.53.11.77.13.23.35.4.61.47l.42.11c.07.02.12.07.14.14l.04.15-.99,2.75c-.05.15-.02.31.09.43.11.11.28.15.43.1l1-.35.55.9c.08.13.21.2.35.2h.04c.16-.02.29-.12.35-.27l.82-2.28c.1.03.2.04.3.04.11,0,.21-.01.3-.04l.82,2.28c.05.15.19.25.35.27h.04c.14,0,.27-.07.35-.2l.55-.9,1,.35c.15.05.31.01.42-.1.11-.12.15-.28.1-.43l-.99-2.74.05-.17c.02-.07.06-.12.14-.13l.41-.12c.26-.07.48-.24.62-.47.13-.24.17-.51.1-.77l-.11-.42c-.02-.07-.01-.13.05-.19l.3-.3ZM13.4,10.53l-.28-.46c-.09-.16-.3-.24-.48-.17l-.5.17.48-1.33c.23.13.5.16.76.1l.42-.12c.07-.02.13,0,.19.06l.03.03-.62,1.72ZM17.36,9.9c-.18-.07-.38,0-.48.17l-.28.46-.61-1.72.04-.04s.11-.07.19-.05l.41.11c.26.07.53.03.76-.1l.48,1.34-.51-.17ZM18.93,4.71l-.3.3c-.26.26-.36.63-.26.98l.11.42c.02.07-.01.12-.02.15-.02.02-.05.07-.12.09l-.41.11c-.36.09-.63.36-.73.72l-.07.28s0,.01-.01.02l-.03.12c-.02.06-.06.1-.09.12-.03.01-.08.03-.15.01l-.41-.1c-.36-.1-.72,0-.98.26l-.31.3c-.05.05-.11.06-.14.06s-.09,0-.14-.06l-.3-.3c-.2-.19-.45-.29-.72-.29-.08,0-.17.01-.27.03l-.41.11c-.07.02-.12,0-.15-.02-.03-.01-.07-.05-.09-.12l-.12-.41c-.09-.36-.36-.62-.71-.72l-.42-.11c-.07-.02-.1-.06-.12-.09,0-.03-.04-.08-.02-.15l.11-.41c.1-.36,0-.73-.26-.99l-.31-.3c-.07-.08-.07-.2,0-.28l.31-.3c.26-.26.35-.63.26-.99l-.11-.41c-.03-.11.03-.22.14-.24l.41-.11c.36-.1.62-.37.72-.73l.11-.41c.02-.07.07-.1.09-.12.03-.01.08-.04.15-.02l.42.11c.36.09.72-.01.98-.26l.3-.31c.08-.08.21-.08.28,0l.31.31c.26.26.63.35.98.26l.42-.12c.06-.01.12,0,.15.03.02.01.07.05.09.11l.11.42c.1.36.37.63.72.72l.41.11c.11.03.17.14.14.24l-.11.42c-.09.35,0,.72.27.98l.3.3c.05.05.06.11.06.14s-.01.09-.06.14ZM15,1.73c-1.57,0-2.84,1.28-2.84,2.84s1.27,2.84,2.84,2.84,2.84-1.27,2.84-2.84-1.28-2.84-2.84-2.84ZM15,6.59c-1.12,0-2.02-.9-2.02-2.02s.9-2.02,2.02-2.02,2.02.91,2.02,2.02-.91,2.02-2.02,2.02ZM15,1.73c-1.57,0-2.84,1.28-2.84,2.84s1.27,2.84,2.84,2.84,2.84-1.27,2.84-2.84-1.28-2.84-2.84-2.84ZM15,6.59c-1.12,0-2.02-.9-2.02-2.02s.9-2.02,2.02-2.02,2.02.91,2.02,2.02-.91,2.02-2.02,2.02ZM15,1.73c-1.57,0-2.84,1.28-2.84,2.84s1.27,2.84,2.84,2.84,2.84-1.27,2.84-2.84-1.28-2.84-2.84-2.84ZM15,6.59c-1.12,0-2.02-.9-2.02-2.02s.9-2.02,2.02-2.02,2.02.91,2.02,2.02-.91,2.02-2.02,2.02Z"/>
        <path class="cls-2" d="M9.69,15.09c-.05-.17-.21-.28-.39-.28h-2.08l-.64-1.98c-.05-.17-.21-.28-.39-.28s-.33.11-.39.28l-.64,1.98h-2.08c-.17,0-.33.11-.39.28-.05.17.01.35.15.46h.01l1.68,1.22-.65,1.97c-.05.17.01.36.15.46.14.1.34.1.48,0l1.68-1.22,1.68,1.22c.07.05.16.08.24.08.09,0,.17-.03.24-.08.15-.1.21-.29.15-.46l-.64-1.97,1.68-1.22c.14-.11.21-.29.15-.46ZM7.14,16.28c-.15.1-.21.29-.15.46l.34,1.05-.89-.65c-.15-.11-.34-.11-.49,0l-.89.65.34-1.06c.06-.16,0-.35-.15-.45l-.9-.65h1.11c.18,0,.34-.11.39-.28l.34-1.06.34,1.06c.06.16.22.28.39.28h1.11l-.89.65Z"/>
      </g>
    </g>
  </g>
</svg>