<?xml version="1.0" encoding="UTF-8"?>
<svg id="Layer_2" xmlns="http://www.w3.org/2000/svg" viewBox="0 0 29.99 30">
  <defs>
    <style>
      .cls-1 {
        fill: #f15f26;
        fill-rule: evenodd;
      }
    </style>
  </defs>
  <g id="Layer_2-2" data-name="Layer_2">
    <path class="cls-1" d="M9.05,25.66l-1.93-3.35-6.03,3.48c-.29.17-.39.55-.23.84l1.31,2.26h0c.1.15.19.25.39.31.15.04.3.03.44-.05h0s.05-.03.05-.03l6.01-3.47h0ZM10.88,6.49c1.45,0,2.18,1.76,1.16,2.79-.21.21-.47.36-.77.43v4.72h1.15l.71-1.72h0c.03-.07.08-.14.16-.18,2.56-1.56,3-5.12.87-7.25-1.81-1.81-4.75-1.81-6.57,0-1.47,1.47-1.79,3.74-.77,5.55.39.69.95,1.28,1.63,1.69.07.04.13.11.17.19l.71,1.72h1.15v-4.72c-1.23-.3-1.67-1.84-.77-2.74.3-.3.7-.48,1.16-.48h0ZM11.49,7.52c.33.33.33.88,0,1.21-.54.54-1.46.16-1.46-.61s.92-1.14,1.46-.61h0ZM22.94,13.16c0-.22.17-.39.39-.39s.39.17.39.39v5.86h.28c.22,0,.39.17.39.39s-.17.39-.39.39h-8.36c-.22,0-.39-.17-.39-.39s.17-.39.39-.39h.28v-1.7c0-.22.17-.39.39-.39s.39.17.39.39v1.7h1.34v-3.23c0-.22.17-.39.39-.39s.39.17.39.39v3.23h1.64v-4.68c0-.22.17-.39.39-.39s.39.17.39.39v4.68h1.72v-5.86h0ZM16.6,14.55c-.17.13-.41.1-.54-.07-.13-.17-.1-.41.07-.54l2.11-1.65c.16-.12.38-.11.51.03h0s.68.68.68.68l2.44-1.56c.18-.12.42-.06.54.12.12.18.06.42-.12.54l-2.67,1.7c-.15.12-.37.11-.51-.03l-.66-.66-1.84,1.43h0ZM9.85,1.69c.06.21-.07.42-.28.48s-.42-.07-.48-.28l-.38-1.4c-.06-.21.07-.42.28-.48s.42.07.48.28l.38,1.4h0ZM12.61,1.89c-.06.21-.27.33-.48.28-.21-.06-.33-.27-.28-.48l.38-1.4c.06-.21.27-.33.48-.28s.33.27.28.48l-.38,1.4h0ZM14.85,2.76c-.11.19-.35.25-.53.14-.19-.11-.25-.35-.14-.53l.73-1.26c.11-.19.35-.25.53-.14.19.11.25.35.14.53l-.73,1.26h0ZM7.38,2.37c.11.19.04.42-.14.53-.19.11-.42.04-.53-.14l-.73-1.26c-.11-.19-.04-.42.14-.53.19-.11.42-.04.53.14l.73,1.26h0ZM16.85,4.69c-.19.11-.42.04-.53-.14-.11-.19-.04-.42.14-.53l1.26-.73c.19-.11.42-.04.53.14.11.19.04.42-.14.53l-1.26.73h0ZM5.31,4.02c.19.11.25.35.14.53-.11.19-.35.25-.53.14l-1.26-.73c-.19-.11-.25-.35-.14-.53s.35-.25.53-.14l1.26.73h0ZM7.95,16.21h5.87v-.52c0-.26-.21-.47-.47-.47h-4.94c-.26,0-.47.21-.47.47v.52h0ZM13.81,16.99h-5.87v.52c0,.26.21.47.47.47h4.94c.26,0,.47-.21.47-.47v-.52h0ZM8.41,14.44h.08l-.54-1.3c-.75-.48-1.37-1.14-1.8-1.91-1.19-2.12-.82-4.77.9-6.49,2.12-2.12,5.55-2.12,7.67,0,.61.61,1.08,1.37,1.34,2.22,4.7-1.79,10.03.1,12.55,4.47,2.84,4.92,1.16,11.21-3.76,14.05-4.12,2.38-9.35,1.62-12.62-1.84l-2.59,1.49.28.48c.11.19.04.42-.14.53l-6.35,3.67h0s0,0,0,0h-.02s0,.01,0,.01c-.33.19-.72.23-1.06.14-.37-.1-.61-.3-.83-.63h0s-.01-.02-.01-.02l-1.32-2.29c-.19-.35-.24-.69-.14-1.06.09-.33.32-.67.65-.85l6.37-3.68c.19-.11.42-.04.53.14l.31.54,2.4-1.38c-.07-.15-.13-.3-.19-.46-.37,0-.66.02-.97-.29-.18-.18-.29-.42-.29-.69v-.54c-.51,0-.92.05-1.33-.37-.23-.23-.37-.54-.37-.88v-1.83c0-.69.56-1.24,1.24-1.24h0ZM13.27,14.44l.54-1.3c.75-.48,1.37-1.14,1.8-1.91.07-.13.14-.27.2-.4.8-.54,1.72-.92,2.69-1.09,2.87-.51,5.76.85,7.21,3.37h0c1.92,3.32.78,7.57-2.54,9.48h0c-3.81,2.2-8.68.34-10.06-3.83h.23c.69,0,1.24-.56,1.24-1.24v-1.83c0-.34-.14-.65-.37-.88-.27-.27-.57-.37-.96-.37h0ZM12.12,18.76h-2.48v.54c0,.11.09.2.2.2h2.07c.11,0,.2-.09.2-.2v-.54h0ZM16.24,7.72c4.36-1.72,9.35.02,11.7,4.1,2.62,4.54,1.07,10.36-3.48,12.98-4.95,2.86-11.27.73-13.5-4.52h.96c.33,0,.63-.16.81-.42.96,2.03,2.76,3.57,4.99,4.17,2.03.54,4.18.22,5.86-.77h0c1.71-.99,3.05-2.63,3.6-4.69.54-2.07.23-4.14-.77-5.86h0s0,0,0,0c-2.06-3.57-6.56-4.88-10.21-3.01.14-.65.16-1.32.05-1.98h0ZM10.65,21.44c.3.56.66,1.1,1.06,1.6l-2.46,1.42-.96-1.66,2.35-1.36Z"/>
  </g>
</svg>