<?xml version="1.0" encoding="UTF-8"?>
<svg id="Layer_2" xmlns="http://www.w3.org/2000/svg" viewBox="0 0 30 30">
  <defs>
    <style>
      .cls-1 {
        fill: #f15f26;
      }
    </style>
  </defs>
  <g id="Layer_2-2" data-name="Layer_2">
    <path class="cls-1" d="M9.05,11.73c0-.22.15-.4.35-.46l5.44-2.01c.11-.04.23-.04.33,0l5.47,2.02c.2.07.32.27.32.47v6.47c.02.21-.11.41-.31.49l-5.45,2.02c-.06.02-.12.04-.19.04s-.13-.01-.19-.04l-5.43-2.01c-.19-.06-.33-.24-.33-.46v-6.53h0ZM15,5.25c2.69,0,5.13,1.09,6.89,2.86,1.83,1.83,2.86,4.3,2.86,6.9s-1.09,5.13-2.86,6.9-4.2,2.86-6.9,2.86-5.13-1.09-6.89-2.86c-1.77-1.77-2.86-4.2-2.86-6.9s1.09-5.13,2.86-6.9c1.76-1.76,4.2-2.86,6.9-2.86h0ZM21.21,8.79c-1.59-1.59-3.79-2.57-6.21-2.57s-4.62.98-6.21,2.57c-1.59,1.59-2.57,3.79-2.57,6.21s.98,4.62,2.57,6.21c1.59,1.59,3.79,2.57,6.21,2.57s4.62-.98,6.21-2.57,2.57-3.79,2.57-6.21-.98-4.62-2.57-6.21ZM18.61,3.47c.35.11.68.23,1.01.37.34.14.66.29.98.46l.61-.61c.08-.08.17-.12.28-.14l2.41-.54c.17-.04.33.02.44.13l2.52,2.52c.13.13.17.32.12.49l-.54,2.41c-.02.09-.07.17-.13.24l-.61.61c.17.32.32.64.46.98.14.33.26.67.37,1.01h.87c.1,0,.2.03.28.09l2.1,1.33c.14.09.22.25.22.41v3.56c0,.18-.1.34-.25.42l-2.1,1.33c-.08.05-.17.07-.26.07h-.87c-.11.35-.23.69-.37,1.02-.14.34-.29.66-.46.98l.61.61c.07.07.12.16.13.26l.54,2.43c.04.17-.02.33-.13.44l-2.52,2.52c-.13.13-.32.17-.49.12l-2.41-.54c-.09-.02-.17-.07-.24-.13l-.61-.61c-.32.17-.64.32-.98.46-.33.14-.67.26-1.01.37v.87c0,.1-.03.2-.09.28l-1.33,2.1c-.09.14-.25.22-.41.22h-3.56c-.18,0-.34-.1-.42-.25l-1.33-2.1c-.05-.08-.07-.17-.07-.26v-.87c-.35-.11-.68-.23-1.01-.37-.34-.14-.66-.29-.98-.46l-.61.61c-.07.07-.16.12-.26.13l-2.43.54c-.17.04-.33-.02-.44-.13l-2.52-2.52c-.13-.13-.17-.32-.12-.49l.54-2.41c.02-.09.07-.17.13-.24l.61-.61c-.17-.32-.32-.64-.46-.98-.14-.33-.26-.67-.37-1.01h-.87c-.1,0-.2-.03-.28-.09l-2.1-1.33c-.14-.09-.22-.25-.22-.41v-3.56c0-.18.1-.34.25-.42l2.1-1.33c.08-.05.17-.07.26-.07h.87c.11-.35.23-.69.37-1.01.14-.34.29-.66.46-.98l-.61-.61c-.08-.08-.12-.17-.14-.28l-.54-2.41c-.04-.17.02-.33.13-.44l2.52-2.52c.13-.13.32-.17.49-.12l2.41.54c.09.02.17.07.24.13l.61.61c.32-.17.64-.32.98-.46.33-.14.67-.26,1.01-.37v-.87c0-.1.03-.2.09-.28L12.81.22c.09-.14.25-.22.41-.22h3.56c.18,0,.34.1.42.25l1.33,2.1c.05.08.07.17.07.26v.87s0,0,0,0ZM19.25,4.72c-.4-.16-.8-.31-1.22-.42-.22-.04-.39-.24-.39-.47v-1.09l-1.13-1.77h-3.04l-1.13,1.77v1.09c0,.21-.14.4-.35.46-.43.12-.85.26-1.25.43-.4.17-.8.36-1.18.57-.19.12-.44.1-.6-.07l-.77-.77-2.05-.46-2.15,2.15.46,2.05.77.77c.15.15.19.38.08.58-.22.39-.41.79-.59,1.2-.16.4-.31.8-.42,1.22-.04.22-.24.39-.47.39h-1.09l-1.77,1.13v3.04l1.77,1.13h1.09c.21,0,.4.14.46.35.12.43.26.85.43,1.25.17.4.36.8.57,1.18.12.19.1.44-.07.6l-.77.77-.46,2.05,2.15,2.15,2.05-.46.75-.75c.15-.16.39-.21.59-.1.39.22.79.41,1.2.58.39.16.8.31,1.22.42.22.04.39.24.39.47v1.09l1.13,1.77h3.04l1.13-1.77v-1.09c0-.21.14-.4.35-.46.43-.12.85-.26,1.25-.43.4-.17.8-.36,1.18-.57.19-.12.44-.1.6.07l.77.77,2.05.46,2.15-2.15-.46-2.05-.75-.75c-.16-.15-.21-.39-.1-.59.22-.39.41-.79.58-1.2.16-.4.31-.8.42-1.22.04-.22.24-.39.47-.39h1.09l1.77-1.13v-3.04l-1.77-1.13h-1.09c-.21,0-.4-.14-.46-.35-.12-.43-.26-.85-.43-1.25-.17-.4-.36-.8-.57-1.18-.12-.19-.1-.44.07-.6l.77-.77.46-2.05-2.15-2.15-2.05.46-.77.77c-.15.15-.38.19-.58.08-.39-.22-.79-.42-1.2-.59h0ZM10.02,12.42v5.5l4.5,1.67v-5.51l-4.5-1.66h0ZM15.48,14.09v5.51l4.5-1.67v-5.5s-4.5,1.66-4.5,1.66ZM15,10.23l-4.08,1.51,4.08,1.51,4.08-1.51-4.08-1.51h0Z"/>
  </g>
</svg>