<?xml version="1.0" encoding="UTF-8"?>
<svg id="Layer_2" xmlns="http://www.w3.org/2000/svg" viewBox="0 0 30 29.1">
  <defs>
    <style>
      .cls-1 {
        fill: #f15f26;
      }
    </style>
  </defs>
  <g id="Layer_2-2" data-name="Layer_2">
    <g>
      <path class="cls-1" d="M4.4,17.72c-.08-.08-.18-.12-.29-.12H.41c-.11,0-.21.04-.29.12-.08.07-.12.18-.12.29v4.34c0,.11.04.21.12.29s.18.12.29.12h3.7c.11,0,.21-.04.29-.12s.12-.18.12-.29v-4.34c0-.11-.04-.21-.12-.29ZM3.7,21.94H.81v-3.53h2.89v3.53Z"/>
      <path class="cls-1" d="M10.63,15.42h-3.7c-.11,0-.21.04-.29.12-.08.08-.12.18-.12.29v6.52c0,.23.18.41.41.41h3.7c.11,0,.21-.04.29-.12.08-.08.12-.18.12-.29v-6.52c0-.22-.18-.41-.41-.41ZM10.22,21.94h-2.89v-5.71h2.89v5.71Z"/>
      <path class="cls-1" d="M23.94.12c-.1-.1-.25-.14-.39-.11l-6.15,1.65c-.14.04-.25.15-.29.29-.04.14,0,.29.11.39l1.34,1.34-8.32,7.61h-5.01c-.11,0-.21.04-.29.12L.5,15.85c-.14.15-.16.38-.04.54.12.16.35.2.53.1l5-2.89,4.82.05c.09,0,.18-.03.26-.09l9.68-7.69.98.98c.1.1.25.14.39.1.14-.04.25-.15.29-.29l1.65-6.16s.01-.07.01-.11c0-.11-.04-.21-.12-.29ZM21.8,5.77l-.74-.73c-.08-.08-.18-.12-.29-.12-.09,0-.18.03-.25.09l-9.85,7.83-4.79-.05h0c-.07,0-.14.02-.2.05l-2.41,1.39,2.12-2.12h5.01c.1,0,.2-.04.27-.11L19.42,4c.08-.08.13-.18.13-.29,0-.11-.04-.22-.12-.3l-1.14-1.14,4.79-1.28-1.28,4.79Z"/>
      <path class="cls-1" d="M15.53.25c-.06-.15-.21-.25-.38-.25H.41C.3,0,.19.04.12.12c-.08.08-.12.18-.12.29v1.94c0,.11.04.21.12.29.08.08.18.12.29.12h12.8c.11,0,.21-.04.29-.12l1.94-1.94c.12-.12.15-.29.09-.45ZM13.04,1.94H.81V.81h13.36l-1.13,1.13Z"/>
      <path class="cls-1" d="M13.57,4.03c-.06-.15-.21-.25-.38-.25H.41c-.11,0-.21.04-.29.12s-.12.18-.12.29v1.94c0,.11.04.21.12.29s.18.12.29.12h10.85c.11,0,.21-.04.29-.12l1.94-1.94c.12-.11.15-.29.09-.44ZM11.09,5.72H.81v-1.13h11.4l-1.13,1.13Z"/>
      <path class="cls-1" d="M9.47,7.81c-.06-.15-.21-.25-.38-.25H.41c-.11,0-.21.04-.29.12-.08.07-.12.18-.12.29v1.94c0,.11.04.21.12.29.08.08.18.12.29.12h6.75c.11,0,.21-.04.29-.12l1.94-1.94c.12-.12.15-.29.09-.44ZM6.98,9.5H.81v-1.13h7.3l-1.13,1.13Z"/>
      <path class="cls-1" d="M28.67,21.34h0c-.84-.84-1.98-1.32-3.17-1.33v-4.05c0-.38-.27-.69-.72-.94v-6.52c0-.11-.04-.21-.12-.29-.08-.08-.18-.12-.29-.12h-3.7c-.11,0-.21.04-.29.12-.08.08-.12.18-.12.29v5.61c-.5-.03-.97-.04-1.4-.04-.19,0-.39,0-.6,0v-1.22c0-.11-.04-.21-.12-.29-.07-.08-.18-.12-.29-.12h-3.7c-.11,0-.21.04-.29.12s-.12.18-.12.29v1.82c-.9.29-1.53.71-1.53,1.28v11.24c0,1.5,4.17,1.9,6.64,1.9,1.54.02,3.08-.14,4.59-.47,1.99.98,4.41.38,5.7-1.43,1.3-1.81,1.09-4.29-.48-5.86ZM21.08,8.9h2.89v5.78c-.94-.27-1.91-.44-2.89-.51v-5.27ZM14.56,13.27h2.89v.84c-.97.04-1.94.16-2.89.36v-1.2ZM14.71,15.27c1.37-.28,2.76-.41,4.15-.39,1.39-.01,2.79.11,4.15.39,1.23.27,1.62.59,1.67.69-.05.1-.44.42-1.67.69-1.37.27-2.76.41-4.15.39-1.39.01-2.79-.12-4.15-.39-1.23-.27-1.62-.59-1.67-.69.05-.1.44-.42,1.67-.69ZM13.03,16.96c1.34.69,4.03.9,5.83.9s4.49-.21,5.83-.9v1.81c-.04.1-.41.42-1.66.7h0c-1.37.27-2.76.41-4.16.39-1.39.01-2.79-.11-4.16-.39-1.26-.28-1.63-.6-1.67-.7v-1.81ZM13.03,19.76c1.34.69,4.03.9,5.83.9s4.49-.21,5.83-.9v.31c-1.43.25-2.66,1.16-3.3,2.46-.84.09-1.68.13-2.53.13-1.4.01-2.79-.12-4.16-.39-1.26-.28-1.63-.6-1.67-.69v-1.82ZM13.03,22.58c1.34.69,4.03.9,5.83.9.77,0,1.5-.03,2.21-.09-.17.65-.2,1.33-.08,2-.68.06-1.39.09-2.13.09h-.21c-1.33,0-2.65-.13-3.95-.39-1.26-.28-1.63-.6-1.67-.7v-1.81ZM18.86,28.29c-1.4.01-2.79-.12-4.16-.39-1.26-.28-1.63-.6-1.67-.7v-1.81c1.34.69,4.03.9,5.83.9.82,0,1.61-.04,2.35-.11.23.59.57,1.13,1.02,1.58.08.08.17.16.25.23-1.2.19-2.42.29-3.63.29ZM28.1,27.19c-1.46,1.46-3.82,1.46-5.28,0s-1.46-3.82,0-5.28c1.46-1.46,3.82-1.46,5.27,0s1.46,3.82,0,5.28ZM25.49,24.15h-.04c-.09,0-.17-.04-.22-.11-.05-.07-.05-.16-.02-.24.03-.08.11-.14.19-.15.08-.02.17.01.23.07.15.16.41.17.57.01.16-.15.17-.41.01-.57-.1-.11-.23-.19-.36-.25v-.2c0-.22-.19-.4-.41-.4s-.4.18-.41.4v.2c-.46.19-.73.68-.65,1.17.09.49.51.86,1.01.88.01,0,.03,0,.04,0,.14,0,.26.11.26.26s-.11.26-.26.26c-.07,0-.14-.03-.18-.08-.15-.16-.41-.16-.57-.01-.16.16-.16.41-.01.57.1.11.23.19.36.25v.2c0,.22.19.4.41.4s.4-.17.41-.4v-.2c.4-.16.66-.56.66-.99,0-.57-.45-1.05-1.03-1.07Z"/>
    </g>
  </g>
</svg>