<svg xmlns="http://www.w3.org/2000/svg" xmlns:xlink="http://www.w3.org/1999/xlink" viewBox="0 0 40 35.18"><defs><style>.cls-1{fill:none;}.cls-2{clip-path:url(#clip-path);}</style><clipPath id="clip-path" transform="translate(0 -2.41)"><rect class="cls-1" width="40" height="40"/></clipPath></defs><title>dating-app-development</title><g id="Layer_2" data-name="Layer 2"><g id="Layer_6" data-name="Layer 6"><g class="cls-2"><path d="M8.33,17.26C8.8,12,12.55,8.2,17.23,8.2a8.53,8.53,0,0,1,7.14,3.93l.14-.19c0-.06,0-.12,0-.19a6.88,6.88,0,0,0,.21-2.55c-.36-3.94-3.12-6.79-6.57-6.79A6.5,6.5,0,0,0,12.6,5.64a.32.32,0,0,1-.27.15.3.3,0,0,1-.27-.16A6.32,6.32,0,0,0,6.61,2.41C3.16,2.41.4,5.26,0,9.18a7,7,0,0,0,.21,2.57,11.25,11.25,0,0,0,3.42,5.72l5.45,4.94a15.76,15.76,0,0,1-.52-1.69A9.28,9.28,0,0,1,8.33,17.26ZM5.18,5.48a7.91,7.91,0,0,0-2,4.52.32.32,0,0,1-.31.28h0a.31.31,0,0,1-.28-.35A8.57,8.57,0,0,1,4.72,5a.33.33,0,0,1,.45,0A.32.32,0,0,1,5.18,5.48Z" transform="translate(0 -2.41)"/><path d="M13.52,27.75l10.84,9.84,11-9.84a14.11,14.11,0,0,0,4.3-7.17A8.87,8.87,0,0,0,40,17.36C39.5,12.41,36,8.83,31.68,8.83a8.1,8.1,0,0,0-6.62,3.43l0,0c-.14.2-.28.4-.4.61a.31.31,0,0,1-.28.15h0a.33.33,0,0,1-.27-.15,7.93,7.93,0,0,0-6.86-4.06c-4.35,0-7.83,3.58-8.27,8.51a8.48,8.48,0,0,0,.26,3.24A14,14,0,0,0,13.52,27.75Zm-1-9.11a.31.31,0,0,1-.28-.35,10.54,10.54,0,0,1,2.7-6,.33.33,0,0,1,.45,0,.32.32,0,0,1,0,.45,9.91,9.91,0,0,0-2.53,5.68.32.32,0,0,1-.32.28Z" transform="translate(0 -2.41)"/></g></g></g></svg>