<svg xmlns="http://www.w3.org/2000/svg" xmlns:xlink="http://www.w3.org/1999/xlink" viewBox="0 0 36.31 40"><defs><style>.cls-1{fill:none;}.cls-2{clip-path:url(#clip-path);}</style><clipPath id="clip-path" transform="translate(-1.84)"><rect class="cls-1" width="40" height="40"/></clipPath></defs><title>doctor-app-development</title><g id="Layer_2" data-name="Layer 2"><g id="Layer_7" data-name="Layer 7"><g class="cls-2"><path d="M25.56,18.76A18,18,0,0,1,30,20.91V28a1.78,1.78,0,1,0,1.23,0v-6.2A18.19,18.19,0,0,1,38.16,36v2.2A1.77,1.77,0,0,1,36.41,40H3.59a1.77,1.77,0,0,1-1.75-1.76V36A18.19,18.19,0,0,1,8.78,21.78v3.79a6.39,6.39,0,0,0,.08,5.67A11.7,11.7,0,0,0,11,34.39a13.18,13.18,0,0,1-.57,1.52l-.17,0A1.13,1.13,0,0,0,10,38a1.12,1.12,0,0,0,1.27-.08,1.14,1.14,0,0,0,.4-1.2,1.08,1.08,0,0,0-.13-.29A10.8,10.8,0,0,0,12,35.34c.3.26.61.51.91.74h0a1.16,1.16,0,0,0,1,1.16,1.13,1.13,0,0,0,1.06-1.8,1.13,1.13,0,0,0-1.2-.41l-.16,0a10.92,10.92,0,0,1-1.23-1,11.49,11.49,0,0,0,.27-3.79A6.4,6.4,0,0,0,10,25.4V20.91a18.13,18.13,0,0,1,4.43-2.14.87.87,0,0,1,.88.21l4.06,3.94h0a.89.89,0,0,0,1.23,0L24.64,19h0a.87.87,0,0,1,.88-.21ZM20,0a8.5,8.5,0,1,1-6,2.49A8.54,8.54,0,0,1,20,0ZM10,30.74a9.81,9.81,0,0,0,1.37,2.17,9.89,9.89,0,0,0,.08-2.55,5.42,5.42,0,0,0-1.76-3.73A5.36,5.36,0,0,0,10,30.74Z" transform="translate(-1.84)"/></g></g></g></svg>