<svg xmlns="http://www.w3.org/2000/svg" viewBox="0 0 40 40"><title>fantasy-sports-app-development</title><g id="Layer_2" data-name="Layer 2"><g id="Layer_4" data-name="Layer 4"><path d="M36.74,32.14,23.69,20,36.74,7.87a1.36,1.36,0,0,0,0-2,22.72,22.72,0,0,0-30.44,0,19,19,0,0,0,0,28.3A22.27,22.27,0,0,0,21.52,40a22.3,22.3,0,0,0,15.22-5.85,1.35,1.35,0,0,0,0-2ZM18.44,14.29A4.47,4.47,0,0,1,13.83,10a4.47,4.47,0,0,1,4.61-4.29A4.48,4.48,0,0,1,23.06,10,4.48,4.48,0,0,1,18.44,14.29Z"/><path d="M20,10c0,1.9-3.07,1.9-3.07,0S20,8.09,20,10"/><path d="M32.3,18.57A1.43,1.43,0,1,0,33.85,20a1.48,1.48,0,0,0-1.55-1.43Z"/><path d="M38.46,21.43a1.43,1.43,0,1,0,0-2.86h0a1.43,1.43,0,1,0,0,2.86Z"/></g></g></svg>