<svg xmlns="http://www.w3.org/2000/svg" xmlns:xlink="http://www.w3.org/1999/xlink" viewBox="0 0 40 36.92"><defs><style>.cls-1{fill:none;}.cls-2{clip-path:url(#clip-path);}</style><clipPath id="clip-path" transform="translate(0 -1.54)"><rect class="cls-1" width="40" height="40"/></clipPath></defs><title>Asset 2</title><g id="Layer_2" data-name="Layer 2"><g id="Layer_2-2" data-name="Layer 2"><g class="cls-2"><path d="M40,12.3a4.62,4.62,0,0,0-4.62-4.61H23.71l3.53-3.53A1.53,1.53,0,0,0,25.07,2L20,7.05,14.93,2a1.53,1.53,0,0,0-2.17,2.17l3.53,3.53H4.62A4.62,4.62,0,0,0,0,12.3V33.84a4.62,4.62,0,0,0,4.62,4.62H35.38A4.62,4.62,0,0,0,40,33.84ZM29.52,21.11l-4.35,4.12a4.61,4.61,0,0,1-6.41-.07l-.93-.91a1.54,1.54,0,0,0-2.16,0l-3.05,3a1.54,1.54,0,1,1-2.17-2.19h0l3-3a4.64,4.64,0,0,1,6.48,0l.93.92a1.53,1.53,0,0,0,2.13,0l4.36-4.11a1.53,1.53,0,0,1,2.12,2.22Z" transform="translate(0 -1.54)"/></g></g></g></svg>