<svg xmlns="http://www.w3.org/2000/svg" viewBox="0 0 40 40"><title>medicine</title><g id="Layer_2" data-name="Layer 2"><g id="Layer_3" data-name="Layer 3"><path d="M17.72,3A10.38,10.38,0,0,0,3,17.72L22.28,37A10.38,10.38,0,0,0,37,22.28ZM35.59,35.59a8.44,8.44,0,0,1-12,0L14.7,26.66l12-12,8.94,8.94a8.44,8.44,0,0,1,0,12Z"/><path d="M38.24,1.76a6,6,0,0,0-7.74-.64l8.39,8.39a6,6,0,0,0-.65-7.75Z"/><path d="M29.73,10.28A6,6,0,0,0,34,12a5.9,5.9,0,0,0,3.48-1.12L29.09,2.53a6,6,0,0,0,.64,7.75Z"/></g></g></svg>