<svg xmlns="http://www.w3.org/2000/svg" xmlns:xlink="http://www.w3.org/1999/xlink" viewBox="0 0 28.23 40"><defs><style>.cls-1{fill:none;}.cls-2{clip-path:url(#clip-path);}</style><clipPath id="clip-path" transform="translate(-5.88)"><rect class="cls-1" width="40" height="40"/></clipPath></defs><title>Asset 1</title><g id="Layer_2" data-name="Layer 2"><g id="Layer_1-2" data-name="Layer 1"><g class="cls-2"><path d="M18.58,11.89a1.68,1.68,0,0,0-1.66,1.7V15h6.16V13.59a1.69,1.69,0,0,0-1.67-1.7ZM21.47.07h0a1.54,1.54,0,0,1,1.37,1.4L23,3.56a1.37,1.37,0,0,0,2.26.95l1.57-1.35a1.5,1.5,0,0,1,1.95,0,14.36,14.36,0,0,1,2.15,2.19,1.58,1.58,0,0,1,0,2L29.65,8.92a1.4,1.4,0,0,0-.21,1.43,1.43,1.43,0,0,0,1.16.87l2,.18h0A1.53,1.53,0,0,1,34,12.78a16.16,16.16,0,0,1,0,3.11,1.55,1.55,0,0,1-1.39,1.4l-2,.19h0a1.42,1.42,0,0,0-.93,2.31L31,21.39h0a1.58,1.58,0,0,1,0,2,15.41,15.41,0,0,1-2.15,2.2,1.5,1.5,0,0,1-1.95,0l-1.58-1.34h0a1.32,1.32,0,0,0-1.47-.19V19.49a6.48,6.48,0,0,0,2.46-5.1,6.34,6.34,0,0,0-12.68,0,6.48,6.48,0,0,0,2.46,5.1V24a1.33,1.33,0,0,0-1.39.24l-1.57,1.35a1.51,1.51,0,0,1-1.95,0,14.37,14.37,0,0,1-2.15-2.19,1.57,1.57,0,0,1,0-2l1.29-1.61a1.42,1.42,0,0,0,.22-1.43,1.4,1.4,0,0,0-1.16-.87l-2-.16A1.55,1.55,0,0,1,6,16a16.16,16.16,0,0,1,0-3.11,1.54,1.54,0,0,1,1.39-1.39l2-.2a1.38,1.38,0,0,0,1.15-.87A1.42,1.42,0,0,0,10.32,9L9,7.42a1.58,1.58,0,0,1,0-2,15,15,0,0,1,2.15-2.21,1.5,1.5,0,0,1,2,0l1.58,1.34h0a1.37,1.37,0,0,0,2.25-1l.18-2.08h0A1.55,1.55,0,0,1,18.43.08a14.14,14.14,0,0,1,3.05,0ZM16.92,15.79v1.62h6.16V15.79Zm0,2.46V34.32h1.64v-16Zm2.46,16.07h1.23v-16H19.38V34.32Zm-2.25.84,1.45,2.78h2.83l1.45-2.78ZM19,38.77l.48.91h0a.57.57,0,0,0,1,0l.48-.9Zm4.07-4.45v-16H21.43V34.32Z" transform="translate(-5.88)"/></g></g></g></svg>