<?xml version="1.0" encoding="UTF-8"?>
<svg id="Layer_2" data-name="Layer 2" xmlns="http://www.w3.org/2000/svg" viewBox="0 0 81.44 68.5">
  <defs>
    <style>
      .cls-1 {
        stroke-width: 0px;
      }
    </style>
  </defs>
  <g id="Layer_1-2" data-name="Layer 1">
    <g>
      <path class="cls-1" d="M32.6,49.7c-5.19-.11-9.49,4.01-9.6,9.2-.11,5.19,4.01,9.49,9.2,9.6,5.19.11,9.49-4.01,9.6-9.2,0-.1,0-.2,0-.3.06-5.08-4.02-9.24-9.1-9.3-.03,0-.07,0-.1,0Z"/>
      <path class="cls-1" d="M61.3,49.7c-5.19-.17-9.53,3.91-9.69,9.1-.17,5.19,3.91,9.53,9.1,9.69s9.53-3.91,9.69-9.1c0-.13,0-.26,0-.39.06-5.08-4.02-9.24-9.1-9.3,0,0,0,0,0,0Z"/>
      <path class="cls-1" d="M78.4,10.5H19.1l-2.6-8.3c-.35-1.27-1.49-2.16-2.8-2.2H0v6h11.4l11.9,38.2c.36,1.25,1.5,2.11,2.8,2.1h43.3c1.31-.01,2.48-.86,2.9-2.1l9-29.8c.5-1.58-.38-3.26-1.96-3.76-.3-.1-.62-.14-.94-.14Z"/>
    </g>
  </g>
</svg>