<svg xmlns="http://www.w3.org/2000/svg" xmlns:xlink="http://www.w3.org/1999/xlink" viewBox="0 0 69.23 60"><defs><style>.cls-1{fill:none;}.cls-2{clip-path:url(#clip-path);}</style><clipPath id="clip-path" transform="translate(-14.38)"><rect class="cls-1" width="98" height="60"/></clipPath></defs><title>blog-development</title><g id="Layer_2" data-name="Layer 2"><g id="Layer_3" data-name="Layer 3"><g class="cls-2"><path d="M62.85,42.69V40.81a1.16,1.16,0,0,0-2.31,0v1.88a1.16,1.16,0,0,1-1.16,1.16H28.23V11.54H60.54v7.84a1.16,1.16,0,0,0,2.31,0V3.46A3.47,3.47,0,0,0,59.38,0H17.85a3.47,3.47,0,0,0-3.47,3.46V42.69a3.47,3.47,0,0,0,3.47,3.46H59.38a3.47,3.47,0,0,0,3.47-3.46Zm-45-40.38H59.38a1.15,1.15,0,0,1,1.16,1.15V9.23H16.69V3.46A1.15,1.15,0,0,1,17.85,2.31ZM16.69,42.69V11.54h9.23V43.85H17.84a1.16,1.16,0,0,1-1.15-1.16Z" transform="translate(-14.38)"/><path d="M80.15,32.31H69.85a1.16,1.16,0,0,0,0,2.31h10.3c.72,0,1.16.37,1.16.54v22c0,.16-.44.54-1.16.54H45.54c-.72,0-1.16-.38-1.16-.54V49.62a1.15,1.15,0,1,0-2.3,0v7.53c0,1.6,1.52,2.85,3.46,2.85H80.15c1.95,0,3.47-1.25,3.47-2.85v-22c0-1.6-1.52-2.85-3.47-2.85Z" transform="translate(-14.38)"/><path d="M20.15,6.92A1.2,1.2,0,0,0,21,6.59,1.18,1.18,0,0,0,21,5a1.2,1.2,0,0,0-1.64,0,1.15,1.15,0,0,0,.82,2Z" transform="translate(-14.38)"/><path d="M20.15,17.31h2.31a1.16,1.16,0,1,0,0-2.31H20.15A1.16,1.16,0,0,0,20.15,17.31Z" transform="translate(-14.38)"/><path d="M22.46,20.77H20.15a1.16,1.16,0,0,0,0,2.31h2.31A1.16,1.16,0,0,0,22.46,20.77Z" transform="translate(-14.38)"/><path d="M22.46,26.54H20.15a1.16,1.16,0,0,0,0,2.31h2.31A1.16,1.16,0,0,0,22.46,26.54Z" transform="translate(-14.38)"/><path d="M22.46,32.31H20.15a1.16,1.16,0,0,0,0,2.31h2.31A1.16,1.16,0,0,0,22.46,32.31Z" transform="translate(-14.38)"/><path d="M42.08,34.62a1.16,1.16,0,0,0-1.16-1.16H34a1.16,1.16,0,0,0,0,2.31h6.92A1.16,1.16,0,0,0,42.08,34.62Z" transform="translate(-14.38)"/><path d="M34,38.08a1.15,1.15,0,0,0,0,2.3h3.46a1.15,1.15,0,1,0,0-2.3Z" transform="translate(-14.38)"/><path d="M75.54,41.54a1.16,1.16,0,0,0-1.15-1.16H67.46a1.16,1.16,0,0,0,0,2.31h6.93A1.15,1.15,0,0,0,75.54,41.54Z" transform="translate(-14.38)"/><path d="M67.46,45a1.16,1.16,0,0,0,0,2.31h3.46a1.16,1.16,0,1,0,0-2.31Z" transform="translate(-14.38)"/><path d="M22.46,38.08H20.15a1.15,1.15,0,0,0,0,2.3h2.31A1.15,1.15,0,0,0,22.46,38.08Z" transform="translate(-14.38)"/><path d="M27.08,6.92a1.15,1.15,0,0,0,.82-2,1.16,1.16,0,1,0-1.64,1.64A1.2,1.2,0,0,0,27.08,6.92Z" transform="translate(-14.38)"/><path d="M34,6.92l.23,0a.86.86,0,0,0,.21-.07,1,1,0,0,0,.21-.1l.17-.14a1.18,1.18,0,0,0,0-1.64l-.17-.14a.67.67,0,0,0-.21-.1.58.58,0,0,0-.21-.07,1,1,0,0,0-.67.07,1.17,1.17,0,0,0-.38.24,1.18,1.18,0,0,0,0,1.64,1.2,1.2,0,0,0,.82.33Z" transform="translate(-14.38)"/><path d="M57.08,20.77V18.46A3.46,3.46,0,0,0,53.62,15H35.15a3.46,3.46,0,0,0-3.46,3.46v2.31a3.46,3.46,0,0,0,3.46,3.46H53.62A3.46,3.46,0,0,0,57.08,20.77ZM34,20.77V18.46a1.15,1.15,0,0,1,1.15-1.15H53.62a1.15,1.15,0,0,1,1.15,1.15v2.31a1.15,1.15,0,0,1-1.15,1.15H35.15A1.15,1.15,0,0,1,34,20.77Z" transform="translate(-14.38)"/><path d="M50.58,34.55l-.11,4.59a1.17,1.17,0,0,0,1.14,1.18l4.93.06a1.11,1.11,0,0,0,.78-.29L77.43,22a2.2,2.2,0,0,0,.07-3.21l-3.21-3.11a2.36,2.36,0,0,0-3.22-.05L51,33.72a1.18,1.18,0,0,0-.38.83Zm22.1-17.24,3.12,3L74.17,21.8l-3.12-3ZM52.88,35.1,69.33,20.32l3.12,3L56.11,38.07l-3.3,0Z" transform="translate(-14.38)"/></g></g></g></svg>