<svg xmlns="http://www.w3.org/2000/svg" xmlns:xlink="http://www.w3.org/1999/xlink" viewBox="0 0 60 60"><defs><style>.cls-1{fill:none;}.cls-2{clip-path:url(#clip-path);}</style><clipPath id="clip-path" transform="translate(-19)"><rect class="cls-1" width="98" height="60"/></clipPath></defs><title>cms-template-design</title><g id="Layer_2" data-name="Layer 2"><g id="Layer_1-2" data-name="Layer 1"><g class="cls-2"><path d="M75.25,0H22.75A3.75,3.75,0,0,0,19,3.75v52.5A3.75,3.75,0,0,0,22.75,60h52.5A3.75,3.75,0,0,0,79,56.25V3.75A3.75,3.75,0,0,0,75.25,0ZM21.5,17.5h15v25h-15Zm55,38.75a1.26,1.26,0,0,1-1.25,1.25H22.75a1.26,1.26,0,0,1-1.25-1.25V45h55V56.25ZM39,42.5v-25H59v25H39Zm37.5,0h-15v-25h15Zm0-27.5h-55V3.75A1.26,1.26,0,0,1,22.75,2.5h52.5A1.26,1.26,0,0,1,76.5,3.75Z" transform="translate(-19)"/></g></g></g></svg>