<svg xmlns="http://www.w3.org/2000/svg" xmlns:xlink="http://www.w3.org/1999/xlink" viewBox="0 0 60 60"><defs><style>.cls-1{fill:none;}.cls-2{clip-path:url(#clip-path);}</style><clipPath id="clip-path" transform="translate(-19)"><rect class="cls-1" width="98" height="60"/></clipPath></defs><title>custom-wordPress-development</title><g id="Layer_2" data-name="Layer 2"><g id="Layer_5" data-name="Layer 5"><g class="cls-2"><path d="M55.9,51.3c.55-.18,1.1-.39,1.66-.62s1.12-.49,1.62-.74a4.29,4.29,0,0,1,2.13-.49,4.24,4.24,0,0,1,2.1.63l1.43.86a1.57,1.57,0,0,0,1,.22,1.52,1.52,0,0,0,.9-.45l3-3a1.49,1.49,0,0,0,.45-.9,1.54,1.54,0,0,0-.22-1l-.86-1.44h0a4.42,4.42,0,0,1-.63-2.1,4.34,4.34,0,0,1,.49-2.12q.39-.77.75-1.62c.23-.56.44-1.12.61-1.67A4.27,4.27,0,0,1,73.39,34l1.63-.4a1.6,1.6,0,0,0,.85-.55,1.56,1.56,0,0,0,.32-1V27.91a1.54,1.54,0,0,0-.32-1A1.56,1.56,0,0,0,75,26.4L73.39,26a4.32,4.32,0,0,1-3.1-2.89c-.17-.55-.38-1.11-.61-1.67s-.49-1.12-.75-1.62a4.26,4.26,0,0,1,.14-4.22l.87-1.44a1.54,1.54,0,0,0,.22-1,1.61,1.61,0,0,0-.45-.91l-3-3a1.52,1.52,0,0,0-.9-.45,1.64,1.64,0,0,0-1,.21l-1.43.87h0a4.21,4.21,0,0,1-2.1.63,4.4,4.4,0,0,1-2.13-.49c-.5-.26-1-.5-1.62-.74s-1.11-.44-1.66-.62A4.44,4.44,0,0,1,54,7.54a4.3,4.3,0,0,1-1-1.93L52.6,4a1.55,1.55,0,0,0-.54-.85,1.5,1.5,0,0,0-1-.32H46.9A1.51,1.51,0,0,0,45.4,4L45,5.61a4.27,4.27,0,0,1-2.89,3.1c-.55.18-1.1.38-1.66.61s-1.12.49-1.62.75a4.4,4.4,0,0,1-2.13.49,4.46,4.46,0,0,1-2.1-.63l-1.44-.87a1.59,1.59,0,0,0-1-.22,1.61,1.61,0,0,0-.9.45l-3,3a1.55,1.55,0,0,0-.45.9,1.57,1.57,0,0,0,.22,1l.87,1.44a4.32,4.32,0,0,1,.14,4.22c-.26.5-.51,1.05-.75,1.62s-.44,1.12-.61,1.67A4.32,4.32,0,0,1,24.61,26L23,26.4a1.53,1.53,0,0,0-1.17,1.51V32.1A1.53,1.53,0,0,0,23,33.61l1.63.4a4.27,4.27,0,0,1,3.1,2.89c.17.55.38,1.11.61,1.67s.49,1.11.75,1.62a4.22,4.22,0,0,1,.48,2.12,4.33,4.33,0,0,1-.62,2.1l-.87,1.44a1.51,1.51,0,0,0,.23,1.89l3,3a1.52,1.52,0,0,0,.9.45,1.54,1.54,0,0,0,1-.22l1.44-.86h0a4.21,4.21,0,0,1,2.1-.63,4.29,4.29,0,0,1,2.13.49c.5.25,1,.5,1.62.74s1.11.44,1.66.62A4.24,4.24,0,0,1,45,54.39L45.4,56a1.51,1.51,0,0,0,1.5,1.17h4.2A1.51,1.51,0,0,0,52.6,56l.4-1.63a4.47,4.47,0,0,1,1-1.93,4.33,4.33,0,0,1,1.85-1.16ZM48.36,26.24a1.41,1.41,0,0,1,2.75.58l-1.47,6.94a1.4,1.4,0,0,1-2.75-.57Zm-6.93-1a1.4,1.4,0,0,1,2,2L40.61,30l2.81,2.81a1.41,1.41,0,0,1-2,2L37.63,31a1.41,1.41,0,0,1,0-2l3.8-3.8Zm13.14,2a1.4,1.4,0,1,1,2-2l3.8,3.8a1.41,1.41,0,0,1,0,2l-3.8,3.8a1.41,1.41,0,1,1-2-2L57.38,30l-2.81-2.81ZM49,47.8a17.82,17.82,0,1,1,12.58-5.22A17.71,17.71,0,0,1,49,47.8ZM38.4,40.6A15,15,0,1,0,34,30,14.94,14.94,0,0,0,38.4,40.6ZM58.64,53.27c-.61.25-1.24.48-1.89.7a1.53,1.53,0,0,0-.66.4,1.63,1.63,0,0,0-.36.69l-.41,1.63A4.33,4.33,0,0,1,51.1,60H46.9a4.33,4.33,0,0,1-4.22-3.31l-.41-1.63a1.54,1.54,0,0,0-.37-.69,1.61,1.61,0,0,0-.65-.41q-1-.32-1.89-.69c-.59-.25-1.2-.53-1.82-.84a1.52,1.52,0,0,0-.76-.18,1.42,1.42,0,0,0-.74.23h0l-1.45.87a4.43,4.43,0,0,1-2.77.6,4.33,4.33,0,0,1-2.55-1.26l-3-3a4.33,4.33,0,0,1-.65-5.33L26.52,43a1.67,1.67,0,0,0,.23-.75,1.52,1.52,0,0,0-.18-.76c-.31-.62-.6-1.23-.84-1.82s-.48-1.23-.7-1.89a1.44,1.44,0,0,0-1.09-1l-1.63-.41A4.33,4.33,0,0,1,19,32.1V27.9a4.35,4.35,0,0,1,.92-2.68,4.4,4.4,0,0,1,2.39-1.55l1.63-.4a1.44,1.44,0,0,0,.69-.37,1.61,1.61,0,0,0,.41-.65q.32-1,.69-1.89c.25-.59.53-1.2.85-1.82a1.62,1.62,0,0,0,.17-.76,1.45,1.45,0,0,0-.23-.75l-.87-1.44a4.32,4.32,0,0,1,.65-5.32l3-3a4.35,4.35,0,0,1,2.55-1.25,4.29,4.29,0,0,1,2.77.6L36,7.52a1.67,1.67,0,0,0,.75.23,1.52,1.52,0,0,0,.76-.18c.62-.31,1.23-.6,1.82-.84s1.23-.48,1.89-.7a1.49,1.49,0,0,0,.65-.4,1.65,1.65,0,0,0,.37-.69l.41-1.63A4.33,4.33,0,0,1,46.9,0h4.2a4.33,4.33,0,0,1,4.22,3.31l.41,1.63a1.54,1.54,0,0,0,.37.69,1.61,1.61,0,0,0,.65.41q1,.32,1.89.69c.59.25,1.2.53,1.82.84a1.52,1.52,0,0,0,.76.18A1.42,1.42,0,0,0,62,7.52h0l1.45-.87a4.43,4.43,0,0,1,2.77-.6,4.33,4.33,0,0,1,2.55,1.26l3,3a4.33,4.33,0,0,1,.65,5.33L71.48,17a1.67,1.67,0,0,0-.23.75,1.52,1.52,0,0,0,.18.76c.31.62.6,1.23.84,1.82s.48,1.23.7,1.89a1.44,1.44,0,0,0,1.09,1l1.63.41A4.33,4.33,0,0,1,79,27.9v4.2a4.35,4.35,0,0,1-.92,2.68,4.4,4.4,0,0,1-2.39,1.55l-1.63.4a1.44,1.44,0,0,0-.69.37,1.61,1.61,0,0,0-.41.65q-.31,1-.69,1.89c-.25.59-.53,1.2-.85,1.82a1.62,1.62,0,0,0-.17.76,1.42,1.42,0,0,0,.23.74h0l.86,1.45a4.31,4.31,0,0,1,.6,2.77,4.26,4.26,0,0,1-1.25,2.55l-3,3A4.37,4.37,0,0,1,66.17,54a4.31,4.31,0,0,1-2.77-.6L62,52.48a1.67,1.67,0,0,0-.75-.23,1.52,1.52,0,0,0-.76.18c-.62.31-1.23.6-1.82.84Z" transform="translate(-19)"/></g></g></g></svg>