<svg xmlns="http://www.w3.org/2000/svg" xmlns:xlink="http://www.w3.org/1999/xlink" viewBox="0 0 60 60"><defs><style>.cls-1{fill:none;}.cls-2{clip-path:url(#clip-path);}</style><clipPath id="clip-path" transform="translate(-19)"><rect class="cls-1" width="98" height="60"/></clipPath></defs><title>landing-page-development</title><g id="Layer_2" data-name="Layer 2"><g id="Layer_4" data-name="Layer 4"><g class="cls-2"><path d="M68.38,42H55.46a4.16,4.16,0,0,0-4.16,4.16v3.23a4.17,4.17,0,0,0,4.16,4.16H68.38a4.17,4.17,0,0,0,4.16-4.16V46.15A4.16,4.16,0,0,0,68.38,42Zm2.3,7.39a2.3,2.3,0,0,1-2.3,2.3H55.46a2.3,2.3,0,0,1-2.3-2.3V46.15a2.3,2.3,0,0,1,2.3-2.3H68.38a2.3,2.3,0,0,1,2.3,2.3Z" transform="translate(-19)"/><path d="M42.54,22.61H29.62a4.17,4.17,0,0,0-4.16,4.16V39.69a4.17,4.17,0,0,0,4.16,4.16H42.54a4.16,4.16,0,0,0,4.16-4.16V26.77A4.16,4.16,0,0,0,42.54,22.61Zm2.3,17.08a2.3,2.3,0,0,1-2.3,2.3H29.62a2.3,2.3,0,0,1-2.3-2.3V26.77a2.3,2.3,0,0,1,2.3-2.3H42.54a2.3,2.3,0,0,1,2.3,2.3Z" transform="translate(-19)"/><path d="M32.85,48.45H26.39a.93.93,0,1,0,0,1.86h6.46a.93.93,0,0,0,0-1.86Z" transform="translate(-19)"/><path d="M45.77,48.45H39.31a.93.93,0,1,0,0,1.86h6.46a.93.93,0,0,0,0-1.86Z" transform="translate(-19)"/><path d="M71.61,22.61H52.23a.93.93,0,0,0,0,1.86H71.61a.93.93,0,0,0,0-1.86Z" transform="translate(-19)"/><path d="M52.23,30.93h6.46a.93.93,0,0,0,0-1.86H52.23a.93.93,0,0,0,0,1.86Z" transform="translate(-19)"/><path d="M52.23,37.39H65.15a.93.93,0,1,0,0-1.86H52.23a.93.93,0,0,0,0,1.86Z" transform="translate(-19)"/><path d="M74.84,0H23.16A4.17,4.17,0,0,0,19,4.16V55.84A4.17,4.17,0,0,0,23.16,60H74.84A4.17,4.17,0,0,0,79,55.84V4.16A4.17,4.17,0,0,0,74.84,0Zm2.3,55.84a2.31,2.31,0,0,1-2.3,2.3H23.16a2.31,2.31,0,0,1-2.3-2.3V14a4.06,4.06,0,0,0,2.3.76H74.84a4,4,0,0,0,2.3-.76Zm0-45.22a2.31,2.31,0,0,1-2.3,2.3H23.16a2.3,2.3,0,0,1-2.3-2.3V4.16a2.3,2.3,0,0,1,2.3-2.3H74.84a2.31,2.31,0,0,1,2.3,2.3Z" transform="translate(-19)"/><path d="M26.39,3.23a4.16,4.16,0,1,0,4.16,4.16A4.17,4.17,0,0,0,26.39,3.23Zm0,6.46a2.3,2.3,0,1,1,2.3-2.3A2.3,2.3,0,0,1,26.39,9.69Z" transform="translate(-19)"/><path d="M36.08,3.23a4.16,4.16,0,1,0,4.16,4.16A4.17,4.17,0,0,0,36.08,3.23Zm0,6.46a2.3,2.3,0,1,1,2.3-2.3A2.3,2.3,0,0,1,36.08,9.69Z" transform="translate(-19)"/><path d="M45.77,3.23a4.16,4.16,0,1,0,4.16,4.16A4.17,4.17,0,0,0,45.77,3.23Zm0,6.46a2.3,2.3,0,1,1,2.3-2.3A2.3,2.3,0,0,1,45.77,9.69Z" transform="translate(-19)"/></g></g></g></svg>