<svg xmlns="http://www.w3.org/2000/svg" xmlns:xlink="http://www.w3.org/1999/xlink" viewBox="0 0 72.63 60"><defs><style>.cls-1{fill:none;}.cls-2{clip-path:url(#clip-path);}</style><clipPath id="clip-path" transform="translate(-12.69)"><rect class="cls-1" width="98" height="60"/></clipPath></defs><title>plugin-theme-development</title><g id="Layer_2" data-name="Layer 2"><g id="Layer_6" data-name="Layer 6"><g class="cls-2"><path d="M84.32,0H13.68a1,1,0,0,0-1,1V59a1,1,0,0,0,1,1H84.32a1,1,0,0,0,1-1V1A1,1,0,0,0,84.32,0Zm-1,2v9.26H14.68V2Zm0,56H14.68V13.24H83.32Z" transform="translate(-12.69)"/><path d="M64.94,28.12a3.07,3.07,0,1,0-3.06-3.07A3.07,3.07,0,0,0,64.94,28.12Zm0-4.13a1.07,1.07,0,1,1-1.07,1.06A1.07,1.07,0,0,1,64.94,24Z" transform="translate(-12.69)"/><path d="M31,43.56v3.27a1,1,0,0,0,1,1H52.6a5.66,5.66,0,0,0,1.76,1.1,5.27,5.27,0,0,0,1.29.27,4.78,4.78,0,0,0,.53,0A8,8,0,0,0,61.46,47c.17-.15.35-.32.53-.51a1,1,0,0,0,.28-.95,1.71,1.71,0,0,0-1.22-1.12.16.16,0,0,1-.09,0,19.5,19.5,0,0,1-3.45-2.15l-.17-.12a3.37,3.37,0,0,0-2.61-.67,4.67,4.67,0,0,0-2.13,1.09H32A1,1,0,0,0,31,43.56Zm24.09-.13a1.48,1.48,0,0,1,1.08.34l.17.11A23.44,23.44,0,0,0,59.59,46a5.66,5.66,0,0,1-3.77,1.25,3.56,3.56,0,0,1-.79-.16A3.88,3.88,0,0,1,54,46.38V44A2.59,2.59,0,0,1,55.09,43.43ZM33,44.55H52v1.29H33Z" transform="translate(-12.69)"/><path d="M22.38,41.16h3.34V51.47a1,1,0,0,0,1,1H66.61a1,1,0,0,0,1-1V39.84h8a1,1,0,0,0,1-1V19.78a1,1,0,0,0-1-1H49.91a1,1,0,0,0-1,1v3.08H26.72a1,1,0,0,0-1,1v3.52H22.38a1,1,0,0,0-1,1v11.8A1,1,0,0,0,22.38,41.16ZM50.9,37.85V35.69l6.2-6.35,5,5.12-.64.66a1,1,0,0,0,1.43,1.39l5.74-5.89,6,6.16v1.07Zm0-17.07H74.63V33.92l-5.29-5.43a1,1,0,0,0-1.43,0L63.48,33l-5.67-5.82a1,1,0,0,0-1.42,0L50.9,32.84ZM27.72,24.85H48.91v14a1,1,0,0,0,1,1h15.7V50.47H27.72V41.16H46.05a1,1,0,0,0,1-1V28.36a1,1,0,0,0-1-1H27.72Zm-4.35,4.51H45.05v9.8H23.37Z" transform="translate(-12.69)"/><path d="M32.94,33.29h9.83a1,1,0,1,0,0-2H32.94a1,1,0,1,0,0,2Z" transform="translate(-12.69)"/><path d="M25.66,33.29h3.6a1,1,0,0,0,0-2h-3.6a1,1,0,1,0,0,2Z" transform="translate(-12.69)"/><path d="M42.77,35.23H39.08a1,1,0,0,0,0,2h3.69a1,1,0,1,0,0-2Z" transform="translate(-12.69)"/><path d="M36.81,36.23a1,1,0,0,0-1-1H25.66a1,1,0,1,0,0,2H35.81A1,1,0,0,0,36.81,36.23Z" transform="translate(-12.69)"/><circle cx="9.87" cy="6.62" r="1.66"/><path d="M29.11,8.28a1.66,1.66,0,1,0-1.66-1.66A1.66,1.66,0,0,0,29.11,8.28Z" transform="translate(-12.69)"/><path d="M35.66,8.28A1.66,1.66,0,1,0,34,6.62,1.66,1.66,0,0,0,35.66,8.28Z" transform="translate(-12.69)"/></g></g></g></svg>