<svg xmlns="http://www.w3.org/2000/svg" xmlns:xlink="http://www.w3.org/1999/xlink" viewBox="0 0 90 60"><defs><style>.cls-1{fill:none;}.cls-2{clip-path:url(#clip-path);}</style><clipPath id="clip-path" transform="translate(-4)"><rect class="cls-1" width="98" height="60"/></clipPath></defs><title>woo-commerce</title><g id="Layer_2" data-name="Layer 2"><g id="Layer_2-2" data-name="Layer 2"><g class="cls-2"><path d="M82.75,0H15.25A11.27,11.27,0,0,0,4,11.25v30A11.27,11.27,0,0,0,15.25,52.5H43.84L67.75,60,66,52.5H82.75A11.27,11.27,0,0,0,94,41.25v-30A11.27,11.27,0,0,0,82.75,0ZM90.5,41.25A7.76,7.76,0,0,1,82.75,49H61.57L63,54.82,44.39,49H15.25A7.76,7.76,0,0,1,7.5,41.25v-30A7.76,7.76,0,0,1,15.25,3.5h67.5a7.76,7.76,0,0,1,7.75,7.75Z" transform="translate(-4)"/><path d="M60.21,17a6.89,6.89,0,0,0-4.41-3.09,6.54,6.54,0,0,0-1.31-.13c-4.1,0-7.91,4-9.06,9.62A13.1,13.1,0,0,0,46.9,33a6.92,6.92,0,0,0,4.41,3.1,6.72,6.72,0,0,0,1.26.12c4.1,0,8-4,9.11-9.62A13.11,13.11,0,0,0,60.21,17ZM59.1,26.12c-.86,4.27-3.68,7.5-6.56,7.5a3.91,3.91,0,0,1-3.44-2A10.46,10.46,0,0,1,48,23.9c.88-4.29,3.69-7.52,6.55-7.52a3.37,3.37,0,0,1,.77.09,4.28,4.28,0,0,1,2.72,2A10.43,10.43,0,0,1,59.1,26.12Z" transform="translate(-4)"/><path d="M79,17a6.89,6.89,0,0,0-4.41-3.09,6.54,6.54,0,0,0-1.31-.13c-4.1,0-7.91,4-9.06,9.62A13.1,13.1,0,0,0,65.68,33a6.92,6.92,0,0,0,4.41,3.1,6.72,6.72,0,0,0,1.26.12c4.1,0,8-4,9.11-9.62A13.11,13.11,0,0,0,79,17Zm-1.11,9.15c-.86,4.27-3.68,7.5-6.56,7.5a3.91,3.91,0,0,1-3.44-2,10.46,10.46,0,0,1-1.09-7.7c.88-4.29,3.69-7.52,6.55-7.52a3.37,3.37,0,0,1,.77.09,4.28,4.28,0,0,1,2.72,2A10.43,10.43,0,0,1,77.88,26.12Z" transform="translate(-4)"/><path d="M45.07,13.5c-2.33,5.61-3.61,14-3.61,23.69a1.83,1.83,0,0,1-1.23,1.72,1.9,1.9,0,0,1-.58.09,1.76,1.76,0,0,1-1.42-.7c-2.23-2.82-4.36-7.37-6.18-13.18l-.82-2.65-6.31,15.4A1.83,1.83,0,0,1,23.25,39h-.1a1.82,1.82,0,0,1-1.65-1.3c0-.14-3.81-13.37-4.28-24.8A1.79,1.79,0,0,1,19,11h.17a1.81,1.81,0,0,1,1.72,1.74A99.33,99.33,0,0,0,23,28.25l.66,3.21L30,15.88a1.79,1.79,0,0,1,1.65-1.14h.19a1.82,1.82,0,0,1,1.6,1.45,90.76,90.76,0,0,0,2.39,8.86l.16.49c.14.42.28.84.43,1.26h.06A10.63,10.63,0,0,0,38,29.5s.13-1.31.31-2.91h0c.2-1.84.46-3.59.76-5.24a.31.31,0,0,0,0-.08,44.35,44.35,0,0,1,2.58-9.14,1.79,1.79,0,0,1,2.36-1,1.78,1.78,0,0,1,1,1A1.76,1.76,0,0,1,45.07,13.5Z" transform="translate(-4)"/></g></g></g></svg>