<svg xmlns="http://www.w3.org/2000/svg" viewBox="0 0 48 48"><defs><style>.cls-1{fill:#da3544;}.cls-2{fill:#fff;}</style></defs><g id="Layer_2" data-name="Layer 2"><g id="features_complexity" data-name="features complexity"><circle class="cls-1" cx="24" cy="24" r="24"/><path class="cls-2" d="M23.71,36a5,5,0,0,1-.64-.25,1.85,1.85,0,0,1-.91-1.25h-8c-.52,0-.6-.08-.6-.61V28.13a1.66,1.66,0,0,1-.32,0,.34.34,0,0,1-.23-.43h0a.19.19,0,0,1,0-.1c.18-.28.38-.54.58-.8a.37.37,0,0,1,.51-.08.28.28,0,0,1,.09.1c.17.2.31.4.47.62s.23.31.11.51a.39.39,0,0,1-.5.17v5.65h7.88a1.91,1.91,0,0,1,1.44-1.45V30.21a1,1,0,0,1-.35,0,1.27,1.27,0,0,1-1-.89.47.47,0,0,0-.2-.22.71.71,0,0,0-.74,0A1.13,1.13,0,0,1,20,28.78c-.27-.25-.53-.52-.8-.8A1.25,1.25,0,0,1,19,26.51a.66.66,0,0,0-.32-.77,1.33,1.33,0,0,1-.92-1.34H15.72a1.91,1.91,0,0,1-1,1.25,1.78,1.78,0,0,1-1.15.21,1.86,1.86,0,0,1-1.6-1.7,1.9,1.9,0,0,1,1.49-2v-8.1c0-.43.11-.54.54-.54h5.74v-.25a.37.37,0,0,1,.42-.31.56.56,0,0,1,.16.07c.27.18.52.38.77.58a.38.38,0,0,1,.08.51.48.48,0,0,1-.11.09l-.61.47c-.22.15-.31.22-.51.11a.39.39,0,0,1-.18-.5H14.27v7.88a1.92,1.92,0,0,1,1.45,1.44h2.09a1.71,1.71,0,0,1,0-.32,1.28,1.28,0,0,1,.9-1,.57.57,0,0,0,.22-.19.72.72,0,0,0,0-.75A1.12,1.12,0,0,1,19.21,20c.25-.28.52-.54.8-.8A1.24,1.24,0,0,1,21.48,19a.68.68,0,0,0,.77-.32,1.3,1.3,0,0,1,1.34-.92V15.74a1.91,1.91,0,0,1-1.22-.93,1.74,1.74,0,0,1-.23-1.14A1.87,1.87,0,0,1,23.78,12c.91-.12,1.6.4,2.08,1.49H34c.43,0,.53.11.53.54v6.22l.06-.06a1.47,1.47,0,0,1,.42.28.4.4,0,0,1,0,.38,4,4,0,0,1-.58.58.34.34,0,0,1-.49,0h0c-.14-.13-.27-.27-.4-.4a.45.45,0,0,1-.18-.51.4.4,0,0,1,.49-.22v-6H25.83a1.91,1.91,0,0,1-1.44,1.42v2.07l.4.05a1.25,1.25,0,0,1,1,.88.68.68,0,0,0,.77.32,1.26,1.26,0,0,1,1.49.21c.25.24.5.49.74.74A1.27,1.27,0,0,1,29,21.53a.74.74,0,0,0,.27.74,1.25,1.25,0,0,1,1,1.28v.08h2.08a.48.48,0,0,1,0-.14,1.87,1.87,0,0,1,3.62.14.54.54,0,0,0,.05.11v.56a2,2,0,0,1-.64,1.11c-.28.19-.57.36-.86.52v8c0,.49-.09.59-.59.59H27.72a.4.4,0,0,1-.72.32c-.13-.17-.28-.27-.4-.42a.55.55,0,0,1-.12-.24c0-.28.66-1,.94-.94s.32.18.33.51h6V25.86a2,2,0,0,1-1.49-1.45H30.19a1.34,1.34,0,0,1-.92,1.34.67.67,0,0,0-.33.77A1.25,1.25,0,0,1,28.76,28c-.26.27-.52.54-.8.8a1.15,1.15,0,0,1-1.29.24.71.71,0,0,0-.74,0,.47.47,0,0,0-.2.22,1.31,1.31,0,0,1-1,.9l-.37,0v2.05l.2.07a1.87,1.87,0,0,1-.09,3.59l-.2.06Zm3.4-7.59a2.3,2.3,0,0,0,.4-.23c.23-.21.45-.43.67-.66a.51.51,0,0,0,.09-.71l-.05-.06a.54.54,0,0,1-.07-.63c.11-.22.2-.45.29-.68a.52.52,0,0,1,.49-.4.52.52,0,0,0,.52-.52.13.13,0,0,0,0-.06v-.89c0-.37-.15-.54-.54-.6a.52.52,0,0,1-.45-.34c-.09-.25-.19-.5-.3-.74a.55.55,0,0,1,.07-.63.52.52,0,0,0,0-.72l-.06-.05c-.2-.2-.4-.39-.61-.61a.52.52,0,0,0-.73-.13.31.31,0,0,0-.09.07.53.53,0,0,1-.59.06c-.24-.1-.48-.21-.73-.3a.53.53,0,0,1-.38-.49.51.51,0,0,0-.51-.51h-1A.52.52,0,0,0,23,19v.07a.53.53,0,0,1-.38.48c-.24.09-.48.19-.71.3a.55.55,0,0,1-.63-.08.51.51,0,0,0-.72,0,.12.12,0,0,0-.05.05c-.22.21-.43.43-.64.64a.5.5,0,0,0-.09.72l.05.06a.56.56,0,0,1,.06.63,7.1,7.1,0,0,0-.28.69.58.58,0,0,1-.5.4.51.51,0,0,0-.52.5s0,.05,0,.07v.92A.51.51,0,0,0,19,25h.06a.53.53,0,0,1,.49.38c.08.24.19.47.29.7a.56.56,0,0,1-.07.64.5.5,0,0,0,0,.71l.06.05c.21.22.42.44.64.65a.52.52,0,0,0,.72.09l0-.05a.54.54,0,0,1,.63-.06c.23.1.46.2.69.28a.53.53,0,0,1,.4.5.51.51,0,0,0,.51.51h1A.51.51,0,0,0,25,29a.13.13,0,0,0,0-.06.53.53,0,0,1,.37-.48c.25-.09.48-.19.72-.3a.56.56,0,0,1,.63.07,1.62,1.62,0,0,0,.37.19ZM13.88,22.89A1.13,1.13,0,1,0,15,24a1.13,1.13,0,0,0-1.12-1.12h0Zm20.24,2.25A1.13,1.13,0,1,0,33,24a1.13,1.13,0,0,0,1.14,1.13h0Zm-9-11.24A1.13,1.13,0,1,0,24,15h0a1.13,1.13,0,0,0,1.15-1.1v0h0ZM24,33a1.11,1.11,0,0,0-1.12,1.12,1.12,1.12,0,0,0,2.24,0h0A1.12,1.12,0,0,0,24,33Z"/><path class="cls-2" d="M24,20.27A3.75,3.75,0,1,1,20.26,24,3.75,3.75,0,0,1,24,20.27ZM24,21a3,3,0,1,0,3,3h0A3,3,0,0,0,24,21Z"/><path class="cls-2" d="M23.62,25.14V24.6c0-.35.09-.45.44-.5a.75.75,0,1,0-.8-.8c0,.31-.18.46-.4.44a.42.42,0,0,1-.34-.51,1.5,1.5,0,1,1,2.08,1.51.27.27,0,0,0-.21.32q0,.35,0,.69a.4.4,0,0,1-.4.4.37.37,0,0,1-.37-.42Z"/></g></g></svg>