<svg xmlns="http://www.w3.org/2000/svg" viewBox="0 0 48 48"><defs><style>.cls-1{fill:#da3544;}.cls-2{fill:#fff;}</style></defs><g id="Layer_2" data-name="Layer 2"><g id="Layer_5" data-name="Layer 5"><circle class="cls-1" cx="24" cy="24" r="24"/><path class="cls-2" d="M26.33,24h-.8V17.05H22.46v7h-.8V15.14a.45.45,0,0,0-.19-.4L19.73,13.3l-.17.12c-.53.44-1,.89-1.6,1.32a.48.48,0,0,0-.19.43V24H17V18.59h-2.7V24h-.78V18.34c0-.42.12-.54.55-.54H17v-3a.58.58,0,0,1,.24-.5c.72-.59,1.42-1.2,2.13-1.77.28-.24.4-.24.68,0,.72.59,1.43,1.2,2.16,1.79a.52.52,0,0,1,.21.45v1.44h3.1v-3.7c0-.4.11-.54.52-.54h4.38c.4,0,.51.13.51.52v5.67h3c.33,0,.48.14.48.44V24h-.76V19H31v5h-.8V12.8H26.33Z"/><path class="cls-2" d="M29.65,33.74l1.87-1.34L31,31.73a.84.84,0,0,1,.06-1.2c.46-.58.9-1.18,1.3-1.8a.85.85,0,0,1,1.12-.42l.77.25.78-2.36.73.23-.27.83c-.16.48-.31,1-.47,1.45a.8.8,0,0,1-1,.6l-.13,0c-.23-.07-.44-.15-.67-.21a.24.24,0,0,0-.2,0c-.49.7-1,1.41-1.47,2.14.13.18.3.4.47.65A.77.77,0,0,1,32,33l-.12.09c-.59.44-1.2.87-1.8,1.3a.75.75,0,0,1-1.06-.1L29,34.18l-.42-.59a.19.19,0,0,0-.26-.09h0l-2.37.84v.75a.8.8,0,0,1-.7.89H22.93a.78.78,0,0,1-.87-.71.49.49,0,0,1,0-.17v-.78l-2.57-.83-.5.68a.77.77,0,0,1-1,.25l-.09-.07c-.61-.43-1.21-.87-1.8-1.31a.77.77,0,0,1-.18-1.16l.49-.68L14.76,29l-.8.25a.77.77,0,0,1-1-.42.56.56,0,0,1,0-.12c-.24-.71-.47-1.43-.71-2.15l0-.15.72-.24c.25.8.51,1.56.77,2.36l.86-.28a.75.75,0,0,1,.94.33,11.34,11.34,0,0,0,1.48,2,.73.73,0,0,1,0,1c-.17.25-.35.49-.54.76l1.87,1.36.48-.66a.83.83,0,0,1,1.13-.32h0c.71.27,1.43.5,2.15.7a.84.84,0,0,1,.72.89v.84h2.32v-.8c0-.56.21-.78.75-.93.71-.2,1.42-.43,2.11-.69a.83.83,0,0,1,1.13.29l0,0C29.32,33.3,29.47,33.51,29.65,33.74Z"/><path class="cls-2" d="M36,24.8v.74H12V24.8Z"/><path class="cls-2" d="M31,26.21l.69.22a8.11,8.11,0,0,1-15.48,0l.69-.22c1.27,3.25,3.6,5.12,7.1,5.11S29.78,29.43,31,26.21Z"/><path class="cls-2" d="M20.89,15.5v.74H18.6V15.5Z"/><path class="cls-2" d="M20.89,17.43v.74h-2.3v-.74Z"/><path class="cls-2" d="M27.11,13.94h.74v.75h-.74Z"/><path class="cls-2" d="M29.4,14.7h-.74V14h.74Z"/><path class="cls-2" d="M27.1,16.63v-.74h.75v.74Z"/><path class="cls-2" d="M28.66,15.88h.73v.75h-.73Z"/><path class="cls-2" d="M27.11,17.81h.74v.74h-.74Z"/><path class="cls-2" d="M29.4,17.82v.74h-.75v-.74Z"/></g></g></svg>