<svg xmlns="http://www.w3.org/2000/svg" viewBox="0 0 48 48"><defs><style>.cls-1{fill:#da3544;}.cls-2{fill:#fff;}</style></defs><g id="Layer_2" data-name="Layer 2"><g id="svg31911"><circle class="cls-1" cx="24" cy="24" r="24"/><path class="cls-2" d="M31,26.33v-1.7H17v1.69a4.85,4.85,0,0,1,4.52,5.16s0,.07,0,.1a4.83,4.83,0,1,1-5.11-5.26h0V24.49c0-.4.06-.45.44-.45h6.87V22.88c0-.21,0-.4.27-.4s.3.18.3.4V24h6.85c.4,0,.46.07.46.46V26.3a4.85,4.85,0,0,1,4.53,5.17,1.94,1.94,0,0,1,0,.24A4.83,4.83,0,1,1,31,26.33ZM18.76,30c.15.24.33.4.35.59a1.09,1.09,0,0,1-.49,1.15,1.58,1.58,0,0,0-.61.67.61.61,0,0,1-.12.16.39.39,0,0,0-.14.54l.06.08a1.67,1.67,0,0,0,.57.52,10.62,10.62,0,0,0,1.07.4.31.31,0,0,0,.4-.11,4.26,4.26,0,1,0-6.37,0c.09.1.16.22.34.15.4-.16.8-.28,1.2-.44a1,1,0,0,0,.6-.74.48.48,0,0,0,0-.26c-.15-.24-.31-.49-.48-.72a.3.3,0,0,0-.17-.12,1.26,1.26,0,0,1-.71-1.29.55.55,0,0,1,.21-.34.34.34,0,0,0,.16-.36A1.72,1.72,0,0,1,16,28a2.9,2.9,0,0,1,2.43.73,1.09,1.09,0,0,1,.3.65A2.91,2.91,0,0,1,18.76,30Zm14.65,0c.12.2.31.37.33.57a1.13,1.13,0,0,1-.54,1.16,1.26,1.26,0,0,0-.55.59.68.68,0,0,1-.17.21c-.21.18-.17.38-.08.6a.94.94,0,0,0,.57.55c.37.13.75.25,1.11.4a.29.29,0,0,0,.4-.1,4.26,4.26,0,0,0-2.08-7A4,4,0,0,0,28,28.54,4.22,4.22,0,0,0,28.17,34a.37.37,0,0,0,.3.1c.4-.12.8-.27,1.2-.42a1,1,0,0,0,.57-.66.4.4,0,0,0-.09-.45,4.8,4.8,0,0,1-.36-.52.61.61,0,0,0-.24-.21,1.3,1.3,0,0,1-.66-1.38.51.51,0,0,1,.18-.26c.18-.09.18-.21.16-.4a1.65,1.65,0,0,1,1.06-1.76,2.4,2.4,0,0,1,1.45-.12,2.85,2.85,0,0,1,.64.29,2.11,2.11,0,0,0,.33.18,1,1,0,0,1,.69.86V30Zm-18.58.64s0,.08,0,.12c0,.34.15.43.49.48.1,0,.21.15.27.25s.16.4.28.59a1,1,0,0,0,1.3.36,1,1,0,0,0,.36-.36,3.17,3.17,0,0,0,.28-.62c.06-.17.18-.29.37-.22s.24,0,.29-.15.08-.29.11-.44c-.55-.08-.57-.12-.44-.64a2,2,0,0,0,.09-.59c0-.13-.07-.34-.15-.36a3.38,3.38,0,0,1-.94-.54.15.15,0,0,0-.13,0,5.6,5.6,0,0,0-1,.06,1,1,0,0,0-.8,1,2.18,2.18,0,0,0,0,.57c.09.44.09.47-.38.55Zm14.62,0a.29.29,0,0,0,0,.13c.06.33.16.4.49.45a.45.45,0,0,1,.26.23c.09.16.13.36.22.52a1,1,0,0,0,1.29.49A.94.94,0,0,0,32.2,32a2.75,2.75,0,0,0,.2-.5.32.32,0,0,1,.37-.26h0a.25.25,0,0,0,.23-.1,4.42,4.42,0,0,0,.15-.48c-.56-.08-.58-.13-.45-.62a2.2,2.2,0,0,0,.08-.67.5.5,0,0,0-.26-.37,1.11,1.11,0,0,1-.62-.37.39.39,0,0,0-.25-.12,3.18,3.18,0,0,0-.62,0,1.2,1.2,0,0,0-1.24,1.6c.09.47.08.5-.4.58Zm4.32,3.93c-.8-.32-1.77-.45-2-1.48h-1c-.2,1-1.15,1.16-2,1.48a4.17,4.17,0,0,0,4.91,0Zm-19.54,0a4.19,4.19,0,0,0,4.91,0c-.4-.16-.83-.3-1.2-.49a1.5,1.5,0,0,1-.75-1h-1C16,34.15,15.06,34.29,14.23,34.6Z"/><path class="cls-2" d="M20,19.59a2.26,2.26,0,0,1,.11-.22,4.39,4.39,0,0,1,.33-.4.27.27,0,0,0,.06-.38l0,0a.86.86,0,0,1-.16-.38c0-.36-.27-.47-.6-.48a.7.7,0,0,1-.32-.05c-.1-.07-.24-.19-.25-.29,0-.4,0-.8,0-1.2a.26.26,0,0,1,.23-.3h.06a.91.91,0,0,0,1-.77.54.54,0,0,0-.08-.56c-.43-.54-.4-.54.08-1L21,13a.3.3,0,0,1,.41-.07l.05.05a.91.91,0,0,0,1.26.19h0c.22-.12.33-.2.37-.46.11-.7,0-.7.82-.7h.71c.24,0,.32.1.31.28a1,1,0,0,0,.8,1.06.52.52,0,0,0,.55-.06c.61-.48.55-.48,1.09.09l.47.47c.15.15.18.32,0,.46a.91.91,0,0,0-.21,1.27l0,0c.12.21.2.33.46.36.72.09.72,0,.7.8v.69c0,.23-.1.35-.31.34a.89.89,0,0,0-1,.73.62.62,0,0,0,.07.67c.4.51.4.52-.07,1L27,20.7a.28.28,0,0,1-.39.07l-.05,0a.91.91,0,0,0-1.3-.18c-.2.11-.31.17-.34.4-.1.77,0,.75-.84.73H23.4c-.22,0-.36-.08-.35-.3a.91.91,0,0,0-.78-1h0a.5.5,0,0,0-.57.07c-.6.48-.55.46-1.08-.09-.16-.16-.32-.32-.47-.49A1.15,1.15,0,0,1,20,19.59Zm1.2.47.47-.35a.39.39,0,0,1,.54,0,1.38,1.38,0,0,0,.54.27.83.83,0,0,1,.81.86.66.66,0,0,1,0,.14.22.22,0,0,0,.15.16h.58c0-.23.06-.44.09-.65a.4.4,0,0,1,.31-.36c.35-.12.7-.25,1-.4a.39.39,0,0,1,.45,0c.17.14.35.27.54.4a1.54,1.54,0,0,1,.26-.25l.29-.2-.43-.58a.37.37,0,0,1,0-.48A2,2,0,0,0,27.1,18a.81.81,0,0,1,.84-.81h.14a.21.21,0,0,0,.17-.14,3,3,0,0,0,0-.6,3.69,3.69,0,0,1-.65-.07.67.67,0,0,1-.31-.29,9.73,9.73,0,0,1-.42-1.06.56.56,0,0,1,0-.4,4.19,4.19,0,0,1,.4-.54l-.5-.5c-.13.1-.3.21-.44.33a.39.39,0,0,1-.56,0l0,0a1.5,1.5,0,0,0-.57-.27.79.79,0,0,1-.79-.8c0-.06,0-.11,0-.17a.22.22,0,0,0-.14-.17H23.7c0,.24-.07.45-.09.66a.41.41,0,0,1-.3.34,9.79,9.79,0,0,0-1.06.43.39.39,0,0,1-.45,0l-.52-.4-.47.5a5.25,5.25,0,0,0,.37.49.42.42,0,0,1,0,.51,8.24,8.24,0,0,0-.4,1c-.07.2-.16.32-.38.33s-.43.06-.65.09v.71l.62.09a.43.43,0,0,1,.4.32,6.85,6.85,0,0,0,.4,1,.39.39,0,0,1-.06.5c-.13.16-.27.32-.4.49Z"/><path class="cls-2" d="M18.13,15.41a5.86,5.86,0,0,0,1.28,5.44l.14.17c.13.14.19.3,0,.45s-.3.08-.43-.07-.29-.32-.42-.49a6.54,6.54,0,0,1-1.2-5.5l0-.25-.43.25a.27.27,0,0,1-.38-.06.1.1,0,0,1,0,0c-.09-.18,0-.3.14-.4l1.11-.66c.23-.13.4-.07.47.18s.25.75.37,1.12c.06.17.05.34-.15.4s-.33-.06-.4-.25Z"/><path class="cls-2" d="M29.56,19.37a6.18,6.18,0,0,0,.52-3.06,6,6,0,0,0-.63-2.2c-.09-.19-.11-.36.11-.46s.32,0,.4.21a6.59,6.59,0,0,1,.22,5.49l-.09.24v.07l.47-.23a.28.28,0,1,1,.3.47l0,0-1.11.59c-.24.12-.4,0-.48-.22s-.21-.72-.31-1.08c-.05-.18-.05-.37.16-.44s.34.08.4.28A.82.82,0,0,0,29.56,19.37Z"/><path class="cls-2" d="M20.54,22.57a6.11,6.11,0,0,1-.63-.51c-.05,0,0-.25.05-.31a.33.33,0,0,1,.32-.05,1.61,1.61,0,0,1,.48.34.35.35,0,0,1,.06.31C20.81,22.44,20.66,22.49,20.54,22.57Z"/><path class="cls-2" d="M29.43,12.94c-.06.26-.3.42-.46.3a2.15,2.15,0,0,1-.4-.5.27.27,0,0,1,.05-.26c.05-.06.21-.12.25-.08A4.73,4.73,0,0,1,29.43,12.94Z"/><path class="cls-2" d="M21.48,16.85A2.53,2.53,0,1,1,24,19.37h0A2.52,2.52,0,0,1,21.48,16.85ZM24,18.79a1.95,1.95,0,1,0-2-1.95h0A2,2,0,0,0,24,18.79Z"/></g></g></svg>