<svg xmlns="http://www.w3.org/2000/svg" viewBox="0 0 48 48"><defs><style>.cls-1{fill:#da3544;}.cls-2{fill:#fff;}</style></defs><g id="Layer_2" data-name="Layer 2"><g id="app_maintenance" data-name="app maintenance"><circle class="cls-1" cx="24" cy="24" r="24"/><path class="cls-2" d="M32.88,12a1.19,1.19,0,0,1,.86.9,1.66,1.66,0,0,1,0,.32v20.9a1.1,1.1,0,0,1-1.08,1.12h-8.3v-.75h8.06c.45,0,.56-.11.56-.57V30.73H25.68c-.45,0-.55-.11-.55-.56V24.29a.33.33,0,0,0-.21-.34,3.58,3.58,0,0,1-2-3.52,3.58,3.58,0,0,1,2.34-3.28c.42-.18.64,0,.64.43V21h1.51v-3.4c0-.45.22-.61.63-.44a3.74,3.74,0,0,1,.35,6.79.35.35,0,0,0-.22.37V30H33V15.76H31.53V15H33V13.25c0-.4-.12-.5-.51-.5H20.74c-.37,0-.49.12-.49.49V15h9v.75h-9v7.12h-.76V13.4A1.29,1.29,0,0,1,20.4,12Zm-5.5,18V24c0-.44,0-.46.4-.63a3,3,0,0,0,1.6-3.9l-.09-.21A2.94,2.94,0,0,0,28.11,18v3.26c0,.34-.13.47-.47.47h-2c-.37,0-.49-.13-.49-.49v-3.2l-.14.08-.16.1a3,3,0,0,0,.64,5.17c.36.15.4.2.4.57v6Z"/><path class="cls-2" d="M14.23,30.75v-.7a.4.4,0,0,1,.37-.43h.92a.49.49,0,0,0,.5-.31.51.51,0,0,0-.13-.58c-.21-.19-.4-.4-.6-.59a.4.4,0,0,1-.06-.56l.06-.07,1-1a.4.4,0,0,1,.56-.06l.06.06c.21.2.4.4.6.6a.51.51,0,0,0,.72,0,.52.52,0,0,0,.17-.39v-.87a.39.39,0,0,1,.35-.44h1.49a.4.4,0,0,1,.42.38v.89a.49.49,0,0,0,.47.53.46.46,0,0,0,.41-.17l.6-.59a.41.41,0,0,1,.56-.07l.07.07,1,1a.39.39,0,0,1,.07.56.23.23,0,0,1-.07.07c-.19.2-.4.4-.59.59a.51.51,0,0,0,0,.72.54.54,0,0,0,.4.17h.87a.37.37,0,0,1,.42.32.17.17,0,0,1,0,.1v1.4a.4.4,0,0,1-.37.43h-.95a.5.5,0,0,0-.51.49.48.48,0,0,0,.15.37c.21.2.4.4.61.61a.4.4,0,0,1,.07.57l-.07.06q-.48.49-1,1a.39.39,0,0,1-.56.07.23.23,0,0,1-.07-.07l-.6-.59a.5.5,0,0,0-.71,0,.52.52,0,0,0-.18.4v.87a.38.38,0,0,1-.34.44H18.8a.37.37,0,0,1-.42-.32.17.17,0,0,1,0-.1v-.87a.49.49,0,0,0-.32-.5.48.48,0,0,0-.57.14l-.59.59a.42.42,0,0,1-.57.07l-.06-.07c-.33-.31-.64-.63-1-1a.39.39,0,0,1-.07-.56.23.23,0,0,1,.07-.07c.19-.2.4-.4.59-.59A.52.52,0,0,0,16,32a.53.53,0,0,0-.41-.17h-.87a.4.4,0,0,1-.43-.37v-.05C14.23,31.22,14.23,31,14.23,30.75Zm.77.37h.55a1.21,1.21,0,0,1,1.16.76,1.17,1.17,0,0,1-.25,1.36c-.14.12-.28.24-.4.36l.56.59a4.91,4.91,0,0,1,.38-.4,1.17,1.17,0,0,1,1.36-.25,1.19,1.19,0,0,1,.77,1.15v.55h.75v-.53a1.25,1.25,0,0,1,2.16-.9,3.9,3.9,0,0,1,.31.4l.62-.57-.45-.4a1.25,1.25,0,0,1,.07-1.77,1.28,1.28,0,0,1,.82-.33H24v-.77h-.56a1.21,1.21,0,0,1-1.16-.76,1.16,1.16,0,0,1,.26-1.36c.13-.14.29-.25.4-.36l-.57-.6a2.16,2.16,0,0,1-.4.4,1.25,1.25,0,0,1-1.77,0,1.27,1.27,0,0,1-.36-.88v-.53h-.72v.53a1.25,1.25,0,0,1-2.16.9,3.9,3.9,0,0,1-.31-.4l-.62.57c.16.15.32.27.46.4a1.25,1.25,0,0,1-.88,2.1H15Z"/><path class="cls-2" d="M26.63,33.74a1.12,1.12,0,1,1,1.13-1.12h0A1.13,1.13,0,0,1,26.63,33.74ZM27,32.62a.41.41,0,0,0-.38-.37.37.37,0,0,0-.38.37.38.38,0,0,0,.38.38h0a.41.41,0,0,0,.37-.38Z"/><path class="cls-2" d="M25.9,13.5h1.46v.74H25.9Z"/><path class="cls-2" d="M30.74,15.75H30V15h.72Z"/><path class="cls-2" d="M19.5,23.63h.72v.72H19.5Z"/><path class="cls-2" d="M19.49,32.62a1.88,1.88,0,1,1,1.88-1.87h0a1.87,1.87,0,0,1-1.85,1.86h0Zm1.12-1.89a1.12,1.12,0,1,0-2.24,0,1.13,1.13,0,0,0,1.13,1.12h0A1.14,1.14,0,0,0,20.61,30.73Z"/></g></g></svg>