<svg xmlns="http://www.w3.org/2000/svg" viewBox="0 0 48 48"><defs><style>.cls-1{fill:#da3544;}.cls-2{fill:#fff;}</style></defs><g id="Layer_2" data-name="Layer 2"><g id="platform_choice" data-name="platform choice"><circle class="cls-1" cx="24" cy="24" r="24"/><path class="cls-2" d="M7.92,31.41a.68.68,0,0,1,.66-.32h1.85V15A2.83,2.83,0,0,1,12.83,12a3.77,3.77,0,0,1,.58,0H34.58a2.84,2.84,0,0,1,3,2.67,1.82,1.82,0,0,1,0,.33V31.1h1.87c.49,0,.64.15.65.63v1.76A2.41,2.41,0,0,1,37.8,36H10.57A2.42,2.42,0,0,1,8,34s0,0,0,0Zm28.7-.31V15a1.91,1.91,0,0,0-1.77-2H13.4a1.88,1.88,0,0,0-2,1.76,1.13,1.13,0,0,0,0,.26V31.1h7.44c.37,0,.53.11.6.4.15.72.34.87,1.09.87h7.19a.8.8,0,0,0,.8-.72c.09-.48.19-.57.69-.57h7.4Zm-27.76.95c0,.45,0,.88,0,1.29a1.58,1.58,0,0,0,1.72,1.73q13.41,0,26.84,0h.31a1.35,1.35,0,0,0,1.31-1,15.12,15.12,0,0,0,.13-2H29.66c-.1,0-.24.05-.27.12a1.86,1.86,0,0,1-1.95,1.17q-3.45,0-6.88,0a1.88,1.88,0,0,1-2-1.29Z"/><path class="cls-2" d="M34.27,15.31H13.73V25.77c0,.5-.16.74-.48.73s-.45-.23-.45-.74V15.09c0-.63.13-.75.77-.75H34.45c.65,0,.76.12.76.77v1.17c0,.38-.2.52-.48.52s-.45-.2-.45-.53S34.27,15.65,34.27,15.31Z"/><path class="cls-2" d="M13.73,29.2H34.27V18.74c0-.52.14-.73.47-.73s.46.22.46.72V29.46c0,.58-.13.7-.71.7h-21c-.55,0-.68-.13-.69-.68V28.32c0-.4.16-.61.47-.62s.48.21.48.64Z"/><path class="cls-2" d="M24.59,18.3v7.84l.24-.22c.63-.65,1.26-1.29,1.88-1.94a.82.82,0,0,1,.67-.28h2.88L30,23.43l-1.68-1.6a.75.75,0,0,1-.21-.46.47.47,0,0,1,.28-.36.59.59,0,0,1,.5.09c1,.89,1.93,1.8,2.87,2.73a.66.66,0,0,1,.12.53c0,.23-.26.29-.49.29H27.71a.7.7,0,0,0-.54.22c-.86.91-1.74,1.79-2.6,2.69-.18.18-.36.34-.63.22s-.31-.34-.31-.59V17.32c0-.25,0-.47.29-.58a.54.54,0,0,1,.62.18l2.7,2.58c.28.27.31.55.11.76s-.46.19-.75-.07l-1.75-1.66Z"/><path class="cls-2" d="M18.24,18.45l1.38-1.39a2.73,2.73,0,0,1,.25-.23.45.45,0,0,1,.63,0,.43.43,0,0,1,.08.59h0l0,0c-.65.67-1.3,1.33-2,2a.43.43,0,0,1-.6,0l0,0L16.8,18.3a.47.47,0,0,1,0-.65l0,0a.46.46,0,0,1,.65,0l0,0C17.73,17.9,18,18.17,18.24,18.45Z"/><path class="cls-2" d="M18.23,26.71l1.4-1.4a2.83,2.83,0,0,1,.25-.24.43.43,0,0,1,.61,0h0a.44.44,0,0,1,.07.61h0l0,0c-.64.69-1.3,1.33-2,2a.43.43,0,0,1-.6,0s0,0,0,0c-.38-.36-.75-.74-1.12-1.11a.46.46,0,0,1,0-.64s0,0,0,0a.47.47,0,0,1,.66,0h0C17.72,26.14,18,26.42,18.23,26.71Z"/><path class="cls-2" d="M18.24,22.57,19.6,21.2c.08-.07.14-.15.22-.22a.47.47,0,0,1,.66-.07l0,0a.47.47,0,0,1,0,.66l0,0c-.16.17-.33.33-.49.49-.46.45-.91.91-1.36,1.37a.47.47,0,0,1-.66.13.44.44,0,0,1-.14-.13l-1-1a.47.47,0,1,1,.57-.75l.09.09Z"/></g></g></svg>