<svg xmlns="http://www.w3.org/2000/svg" viewBox="0 0 48 48"><defs><style>.cls-1{fill:#da3544;}.cls-2{fill:#fff;}</style></defs><g id="Layer_2" data-name="Layer 2"><g id="scalability_req." data-name="scalability req."><circle class="cls-1" cx="24" cy="24" r="24"/><path class="cls-2" d="M30.75,28.78v2.36h2.13v-.4a.39.39,0,0,1,.3-.48.38.38,0,0,1,.34.08c1,.57,2,1.15,3,1.74a.39.39,0,0,1,.24.51.41.41,0,0,1-.24.24c-1,.58-2,1.16-3,1.73a.4.4,0,0,1-.56,0,.4.4,0,0,1-.09-.39v-.4H30.6c-.36,0-.51-.15-.51-.51V31.66c-.25-.12-.23,0-.23.18v3.08c0,.76-.33,1.08-1.09,1.08H12.28c-.78,0-1.08-.34-1.08-1.13V13.11c0-.79.3-1.11,1.07-1.11H26.15a1.23,1.23,0,0,1,1,.4c.79.8,1.58,1.59,2.38,2.37a1.22,1.22,0,0,1,.37.9V24.9a1.19,1.19,0,0,0,.14.56c.48.85,1,1.7,1.47,2.55.29.5.12.8-.46.8Zm-2.62,0h-.28c-.57,0-.74-.28-.46-.77.5-.87,1-1.74,1.51-2.62A1.06,1.06,0,0,0,29,25V15.71H26.9c-.54,0-.76-.23-.76-.77V12.86H12V35.14H28.81c.17,0,.21-.06.21-.21V31.78c0-.18-.07-.23-.24-.15v1.6c0,.4-.15.53-.54.53H26v.44a.4.4,0,0,1-.34.45.38.38,0,0,1-.29-.07c-1-.58-2-1.16-3-1.76a.4.4,0,0,1-.19-.53.44.44,0,0,1,.19-.19c1-.6,2-1.18,3.06-1.76a.4.4,0,0,1,.55.11.39.39,0,0,1,.07.26v.44h2.14Zm7.4,3.68-1.8-1c-.07.5-.17.58-.65.58H30.93v.9l.07,0h2.06c.51,0,.58.06.68.57Zm-6.09-6.31-1,1.8c.47.05.57.17.57.61v2.19h.93V28.59c0-.49.08-.58.58-.64Zm-4.3,7.35c.07-.5.15-.57.64-.57h2.16V32H25.82c-.51,0-.59-.06-.69-.57l-1.78,1.05ZM27,14.88h1.3L27,13.57Z"/><path class="cls-2" d="M17.42,30.24v1.68c0,.34-.15.49-.48.49H13.53a.4.4,0,0,1-.48-.3.54.54,0,0,1,0-.18V28.52a.43.43,0,0,1,.49-.49h3.38c.36,0,.5.15.5.51Zm-.84-1.37H13.9v2.71h2.68Z"/><path class="cls-2" d="M17.42,24.46v1.68a.43.43,0,0,1-.49.49H13.55c-.34,0-.5-.14-.5-.48V22.74c0-.34.15-.49.49-.49h3.39c.35,0,.49.15.49.5ZM13.9,23.09v2.69h2.68V23.09Z"/><path class="cls-2" d="M17.42,18.64v1.7c0,.36-.14.5-.5.5H13.56c-.36,0-.51-.14-.51-.49V17c0-.35.15-.5.51-.5h3.36c.37,0,.5.15.5.52ZM13.9,20h2.68V17.31H13.9Z"/><path class="cls-2" d="M22.71,18.1H18.86a.39.39,0,0,1-.36-.38.4.4,0,0,1,.32-.43h7.7a.42.42,0,0,1,.4.4.4.4,0,0,1-.4.4H22.71Z"/><path class="cls-2" d="M22.69,23.89H18.86a.41.41,0,0,1,0-.82.74.74,0,0,1,.21,0h7.45a.41.41,0,0,1,.41.41.42.42,0,0,1-.41.41H22.69Z"/><path class="cls-2" d="M22.7,25.81H19.1a1,1,0,0,1-.25,0,.38.38,0,0,1-.35-.36.36.36,0,0,1,.29-.43,1.24,1.24,0,0,1,.33,0h7.34a.43.43,0,0,1,.45.41v0a.4.4,0,0,1-.4.4H22.7Z"/><path class="cls-2" d="M22.68,28.84h3.86a.4.4,0,0,1,.34.37.37.37,0,0,1-.26.42,1.1,1.1,0,0,1-.31,0H19a.42.42,0,0,1-.48-.43c0-.25.18-.4.47-.4Z"/><path class="cls-2" d="M22.71,20H18.84a.4.4,0,0,1-.33-.46h0a.38.38,0,0,1,.29-.32.88.88,0,0,1,.28,0h7.49a.4.4,0,0,1,.39.41.41.41,0,0,1-.41.39H22.71Z"/><path class="cls-2" d="M20.1,31.58H19a.4.4,0,0,1-.47-.32v-.08a.42.42,0,0,1,.44-.4h2.31c.29,0,.46.16.46.4s-.17.4-.47.42Z"/></g></g></svg>