<svg xmlns="http://www.w3.org/2000/svg" viewBox="0 0 48 48"><defs><style>.cls-1{fill:#da3544;}.cls-2{fill:#fff;}</style></defs><g id="Layer_2" data-name="Layer 2"><g id="security_and_compliance" data-name="security and compliance"><circle class="cls-1" cx="24" cy="24" r="24"/><path class="cls-2" d="M19.66,13.72a2,2,0,0,1,.84-1.39A1.92,1.92,0,0,1,21.59,12c.91,0,1.47.51,1.89,1.72l1-.18a1.14,1.14,0,0,1,1.34.62.3.3,0,0,0,.24.12c.91,0,1.82,0,2.73,0a1.76,1.76,0,0,1,1.91,1.61,1.61,1.61,0,0,1,0,.31c0,2.29,0,4.58,0,6.87,0,.22.06.29.28.32a8.93,8.93,0,0,1,4.19,1.88.5.5,0,0,1,.16.27,8.92,8.92,0,0,1-5.64,10.4,1.85,1.85,0,0,1-.66.05h-15a1.64,1.64,0,0,1-1.66-1.63h0V16.08a2,2,0,0,1,.15-.8,1.53,1.53,0,0,1,1.46-1c1,0,2,0,3,0a.28.28,0,0,0,.31-.18,1,1,0,0,1,1.1-.6C18.83,13.56,19.24,13.64,19.66,13.72Zm4.06,15.85H21.05c-.23,0-.36-.13-.35-.33a.34.34,0,0,1,.34-.33h2.52V26.43H21.09c-.25,0-.4-.12-.4-.32s.14-.33.4-.34H23.7c0-.37.2-.53.44-.69l.86-.61H21.08c-.25,0-.4-.12-.4-.32s.14-.33.38-.34h4.38a4.2,4.2,0,0,0,1.72-.24.78.78,0,0,1,.25-.07l1.26-.24v-7H26c-.06.29-.26.34-.53.34H17.71c-.26,0-.48,0-.52-.33H14.44V34H26.2s0-.06-.06-.09a9.07,9.07,0,0,1-1.64-2.21.32.32,0,0,0-.26-.13H21a.32.32,0,0,1-.27-.36h0a.31.31,0,0,1,.23-.27.78.78,0,0,1,.26,0h2.92ZM17.19,14.94h-3a1,1,0,0,0-1.11.87.88.88,0,0,0,0,.23V34.22A1,1,0,0,0,14,35.31H28c-.27-.18-.52-.32-.75-.5a.8.8,0,0,0-.52-.16H14.24c-.37,0-.49-.1-.49-.45V16.07c0-.35.11-.45.46-.45h3ZM34.93,27.56c-.06-.55-.12-1.1-.2-1.65a.46.46,0,0,0-.17-.26,8.17,8.17,0,0,0-10.06,0,.55.55,0,0,0-.15.24,7.62,7.62,0,0,0-.11,2.65,8.1,8.1,0,0,0,5.16,6.67.39.39,0,0,0,.26,0A8.29,8.29,0,0,0,34.93,27.56ZM25.26,16V14.69c0-.4-.19-.56-.57-.5s-.8.13-1.2.2c-.62.11-.67.07-.7-.55a1.23,1.23,0,0,0-1.29-1.17,1.66,1.66,0,0,0-.22,0,1.25,1.25,0,0,0-1,1.3c0,.36-.12.47-.48.42l-.14,0c-.44-.08-.87-.16-1.31-.22a.4.4,0,0,0-.5.27s0,.05,0,.07c0,.47,0,.94,0,1.42Zm.68-.36h2.93c.4,0,.5.09.5.5v7.15H30V16a1,1,0,0,0-.91-1H26Z"/><path class="cls-2" d="M17.84,17.89h1.4a.68.68,0,0,1,.75.59v3a.67.67,0,0,1-.64.71H16.44a.68.68,0,0,1-.75-.62.28.28,0,0,1,0-.13v-2.8a.69.69,0,0,1,.62-.76h1.53Zm1.45.69H16.34v2.93h3Z"/><path class="cls-2" d="M17.8,27.28H16.39a.67.67,0,0,1-.72-.63V23.7A.67.67,0,0,1,16.3,23h3a.66.66,0,0,1,.72.6h0v2.95a.68.68,0,0,1-.63.72H17.8Zm1.49-.68V23.67H16.34V26.6Z"/><path class="cls-2" d="M17.83,32.37H16.39a.7.7,0,0,1-.74-.64V28.79a.66.66,0,0,1,.61-.72h3a.66.66,0,0,1,.72.59v3a.69.69,0,0,1-.67.7H17.83Zm1.45-.68,0-.12V28.91c0-.18-.1-.18-.23-.18H16.53a.65.65,0,0,0-.2,0v2.94Z"/><path class="cls-2" d="M23.94,21.36H21.19a1.22,1.22,0,0,1-.27,0,.31.31,0,0,1-.23-.38v0a.32.32,0,0,1,.27-.24h6a.33.33,0,0,1,0,.65h-3Z"/><path class="cls-2" d="M24,19.4H21.22c-.09,0-.2,0-.26,0a.64.64,0,0,1-.25-.29.27.27,0,0,1,.2-.33h0l.26,0h5.52a1,1,0,0,1,.24,0,.31.31,0,0,1,.28.33h0a.31.31,0,0,1-.28.31h-.24Z"/><path class="cls-2" d="M29.55,24.61A7.37,7.37,0,0,1,33.87,26a.58.58,0,0,1,.24.4,7.51,7.51,0,0,1-4.32,8,.57.57,0,0,1-.51,0,7.5,7.5,0,0,1-4.4-7.18,5.27,5.27,0,0,1,.1-.89.67.67,0,0,1,.24-.37A7.4,7.4,0,0,1,29.55,24.61Zm-4,3.15a6.78,6.78,0,0,0,3.8,5.95.38.38,0,0,0,.4,0,6.89,6.89,0,0,0,3.78-7,.47.47,0,0,0-.25-.37A6.67,6.67,0,0,0,26.55,26c-1.17.55-.94.3-1,1.76Z"/><path class="cls-2" d="M22,13.83a.49.49,0,1,1-1,0,.5.5,0,0,1,.48-.48h0a.48.48,0,0,1,.49.48Z"/><path class="cls-2" d="M17.49,20.13l.85-.87c.2-.2.4-.22.53-.07s.14.33-.06.53c-.36.37-.73.75-1.1,1.11s-.46.22-.64-.07-.24-.4-.35-.62a.34.34,0,0,1,.07-.47l0,0a.32.32,0,0,1,.44.12s0,0,0,0Z"/><path class="cls-2" d="M17.49,25.2l.88-.89a.34.34,0,0,1,.46-.09l0,0a.32.32,0,0,1,.08.44l-.06.06L17.65,26a.34.34,0,0,1-.46,0h0l-.08-.1q-.22-.37-.42-.75a.3.3,0,0,1,.09-.4h0a.32.32,0,0,1,.43.09h0A3.27,3.27,0,0,1,17.49,25.2Z"/><path class="cls-2" d="M17.49,30.29l.84-.86c.2-.19.4-.21.54-.07s.14.34-.06.54c-.36.37-.74.74-1.11,1.1s-.45.23-.63-.07-.24-.4-.35-.62a.33.33,0,0,1,.05-.47h0a.34.34,0,0,1,.47.12v0C17.35,30.07,17.41,30.18,17.49,30.29Z"/><path class="cls-2" d="M29.06,29.2l1.56-2,.19-.24a1,1,0,0,1,1.39-.26,1,1,0,0,1,.26,1.38.4.4,0,0,1-.1.12c-.61.78-1.23,1.54-1.84,2.31l-.68.85a1,1,0,0,1-1.38.23.92.92,0,0,1-.26-.26c-.38-.5-.75-1-1.11-1.51a1,1,0,1,1,1.57-1.22l0,0ZM32,27.6c-.08-.1-.14-.22-.22-.26a.57.57,0,0,0-.34,0c-.05,0-.1.1-.14.15L29.4,29.86c-.27.35-.45.34-.73,0s-.33-.46-.5-.68-.35-.28-.52-.15-.17.3,0,.52L28.71,31q.3.41.63,0l2.48-3.1A2.33,2.33,0,0,0,32,27.6Z"/></g></g></svg>