<?xml version="1.0" encoding="UTF-8"?>
<svg xmlns="http://www.w3.org/2000/svg" version="1.1" xmlns:xlink="http://www.w3.org/1999/xlink" viewBox="0 0 196 120">
  <defs>
    <style>
      .cls-1 {
        fill-rule: evenodd;
      }

      .cls-1, .cls-2 {
        fill: #f15e24;
      }

      .cls-3 {
        clip-path: url(#clippath-6);
      }

      .cls-4 {
        clip-path: url(#clippath-7);
      }

      .cls-5 {
        clip-path: url(#clippath-17);
      }

      .cls-6 {
        clip-path: url(#clippath-15);
      }

      .cls-7 {
        clip-path: url(#clippath-18);
      }

      .cls-8 {
        clip-path: url(#clippath-4);
      }

      .cls-9 {
        clip-path: url(#clippath-9);
      }

      .cls-10 {
        clip-path: url(#clippath-10);
      }

      .cls-11 {
        clip-path: url(#clippath-11);
      }

      .cls-12 {
        fill: none;
      }

      .cls-13 {
        clip-path: url(#clippath-1);
      }

      .cls-14 {
        clip-path: url(#clippath-5);
      }

      .cls-15 {
        clip-path: url(#clippath-8);
      }

      .cls-16 {
        clip-path: url(#clippath-3);
      }

      .cls-17 {
        clip-path: url(#clippath-12);
      }

      .cls-18 {
        clip-path: url(#clippath-14);
      }

      .cls-19 {
        display: none;
      }

      .cls-20 {
        clip-path: url(#clippath-16);
      }

      .cls-21 {
        clip-path: url(#clippath-2);
      }

      .cls-22 {
        clip-path: url(#clippath-13);
      }

      .cls-23 {
        clip-path: url(#clippath);
      }
    </style>
    <clipPath id="clippath">
      <rect class="cls-12" width="196" height="120"/>
    </clipPath>
    <clipPath id="clippath-1">
      <rect class="cls-12" width="196" height="120"/>
    </clipPath>
    <clipPath id="clippath-2">
      <rect class="cls-12" width="196" height="120"/>
    </clipPath>
    <clipPath id="clippath-3">
      <rect class="cls-12" width="196" height="120"/>
    </clipPath>
    <clipPath id="clippath-4">
      <rect class="cls-12" width="196" height="120"/>
    </clipPath>
    <clipPath id="clippath-5">
      <rect class="cls-12" width="196" height="120"/>
    </clipPath>
    <clipPath id="clippath-6">
      <rect class="cls-12" width="196" height="120"/>
    </clipPath>
    <clipPath id="clippath-7">
      <rect class="cls-12" width="196" height="120"/>
    </clipPath>
    <clipPath id="clippath-8">
      <rect class="cls-12" width="196" height="120"/>
    </clipPath>
    <clipPath id="clippath-9">
      <rect class="cls-12" width="196" height="120"/>
    </clipPath>
    <clipPath id="clippath-10">
      <rect class="cls-12" width="196" height="120"/>
    </clipPath>
    <clipPath id="clippath-11">
      <rect class="cls-12" width="196" height="120"/>
    </clipPath>
    <clipPath id="clippath-12">
      <rect class="cls-12" width="196" height="120"/>
    </clipPath>
    <clipPath id="clippath-13">
      <rect class="cls-12" width="196" height="120"/>
    </clipPath>
    <clipPath id="clippath-14">
      <rect class="cls-12" width="196" height="120"/>
    </clipPath>
    <clipPath id="clippath-15">
      <rect class="cls-12" width="196" height="120"/>
    </clipPath>
    <clipPath id="clippath-16">
      <rect class="cls-12" width="196" height="120"/>
    </clipPath>
    <clipPath id="clippath-17">
      <rect class="cls-12" width="196" height="120"/>
    </clipPath>
    <clipPath id="clippath-18">
      <rect class="cls-12" width="196" height="120"/>
    </clipPath>
  </defs>
  <!-- Generator: Adobe Illustrator 28.6.0, SVG Export Plug-In . SVG Version: 1.2.0 Build 709)  -->
  <g>
    <g id="Layer_1">
      <g class="cls-19">
        <g class="cls-23">
          <path class="cls-2" d="M124.9,49.3h13.7c7.4,0,13.4-6.1,13.4-13.4,0-6.9-5.2-12.7-12-13.4-.3-4-2-7.6-4.9-10.5-3.1-3.1-7.3-4.8-11.7-4.8h0c-3.2,0-6.3.9-9,2.6-2-3.6-5.1-6.5-9-8.2-9-3.9-19.3-.2-23.9,8.2-2.7-1.7-5.8-2.6-9-2.6-8.7,0-15.8,6.8-16.4,15.3-6.8.7-12.1,6.4-12.1,13.4s6,13.5,13.5,13.5h12.8c.2,0,.3,0,.5,0s.3,0,.5,0h10.2v18.7l-13.2,13.2c-1.6-1.2-3.7-1.9-5.9-1.9-5.4,0-9.9,4.4-9.9,9.9s4.4,9.9,9.9,9.9,9.9-4.4,9.9-9.9-.7-4.2-1.9-5.8l13.6-13.6c.3-.3.4-.6.4-1v-19.3h7.8v42.6c-7.1.7-12.6,6.7-12.6,14s6.3,14.1,14.1,14.1,14.1-6.3,14.1-14.1-5.5-13.3-12.6-14v-42.6h8.5v27c0,.4.2.8.4,1l5.9,5.9c-1.2,1.6-1.9,3.7-1.9,5.9,0,5.4,4.4,9.9,9.9,9.9s9.9-4.4,9.9-9.9-4.4-9.9-9.9-9.9-4.2.7-5.9,1.9l-5.5-5.5v-26.4h8.7v7.7c0,.4.2.8.4,1l8.9,8.9c-1.2,1.6-1.9,3.7-1.9,5.9,0,5.4,4.4,9.9,9.9,9.9s9.9-4.4,9.9-9.9-4.4-9.9-9.9-9.9-4.2.7-5.8,1.9l-8.4-8.4v-7.1h6.7,0ZM62.5,96c-3.8,0-6.9-3.1-6.9-6.9s3.1-6.9,6.9-6.9,6.9,3.1,6.9,6.9-3.1,6.9-6.9,6.9ZM113.1,84.2s0,0,0,0c0,0,0,0,0,0,1.2-1.2,3-2,4.9-2,3.8,0,6.9,3.1,6.9,6.9s-3.1,6.9-6.9,6.9-6.9-3.1-6.9-6.9.8-3.6,2-4.9h0ZM132.5,65.8c3.8,0,6.9,3.1,6.9,6.9s-3.1,6.9-6.9,6.9-6.9-3.1-6.9-6.9,3.1-6.9,6.9-6.9ZM61.3,40.4c.1,2.3,1.1,4.4,2.6,6h-6.5c-5.8,0-10.5-4.7-10.5-10.5s4.7-10.5,10.5-10.5.8-.2,1-.4.4-.6.4-1c0-7.5,6.1-13.7,13.6-13.7h0c3.1,0,6.1,1.1,8.6,3,.4.3.8.4,1.3.3.4-.1.8-.4,1-.8,3.5-8,12.8-11.7,20.8-8.3,3.7,1.6,6.7,4.5,8.3,8.3.2.4.6.7,1,.8.4.1.9,0,1.3-.3,2.4-1.9,5.4-3,8.5-3h.2c7.5,0,13.7,6.1,13.7,13.6h0c0,.9.6,1.6,1.5,1.6,5.8,0,10.5,4.8,10.5,10.6,0,5.8-4.7,10.5-10.5,10.5h-6.9c1.6-1.7,2.6-4,2.6-6.5h0c0-4.8-3.6-8.7-8.1-9.3-.7-5.7-5.6-10.2-11.4-10.2h0c-2,0-3.9.5-5.6,1.5-1.4-2.3-3.5-4.1-6-5.2-3.2-1.4-6.7-1.4-9.9-.1-2.7,1.1-4.9,2.9-6.3,5.4-1.7-1-3.6-1.5-5.6-1.5h0c-5.8,0-10.7,4.4-11.4,10-5,.5-8.8,4.9-8.5,9.9h0ZM104.9,105.9c0,6.2-5,11.2-11.2,11.2s-11.2-5-11.2-11.2,5-11.2,11.2-11.2,11.2,5,11.2,11.2ZM71.2,46.3h-.9c-3.2-.2-5.9-2.8-6.1-6.1-.2-3.6,2.5-6.7,6.1-6.9.1,0,.3,0,.4,0s.3,0,.4,0c.4,0,.8-.1,1.1-.4.3-.3.5-.7.5-1.1,0-4.7,3.9-8.6,8.6-8.6h0c1.9,0,3.8.7,5.3,1.8.4.3.8.4,1.3.3.4-.1.8-.4,1-.8,1.1-2.5,3-4.4,5.5-5.3,2.5-1,5.2-1,7.7.1,2.4,1,4.2,2.9,5.2,5.2.2.4.6.7,1,.8.4.1.9,0,1.3-.3,1.5-1.2,3.4-1.9,5.3-1.9h0c4.7,0,8.6,3.9,8.6,8.6s.2.8.4,1c.3.3.6.4,1,.4h0c3.6,0,6.5,2.9,6.5,6.4h0c0,3.6-2.9,6.5-6.4,6.6h-53.7ZM85.2,105.9c0,4.7,3.9,8.6,8.6,8.6s8.6-3.9,8.6-8.6-3.9-8.6-8.6-8.6-8.6,3.9-8.6,8.6ZM99.4,105.9c0,3.1-2.5,5.6-5.6,5.6s-5.7-2.5-5.7-5.6,2.5-5.7,5.7-5.7,5.6,2.5,5.6,5.7Z"/>
        </g>
      </g>
      <g class="cls-19">
        <g class="cls-13">
          <g>
            <path class="cls-2" d="M139.4,0h-70.2c-4.6,0-8.5,3.7-8.5,8.5v4.1h-4.6c-4.4,0-8.1,3.7-8.1,8.3v90.6c0,4.6,3.7,8.5,8.5,8.5h70c4.6,0,8.5-3.7,8.5-8.5v-4.1h4.6c4.6,0,8.5-3.7,8.5-8.5V8.5C147.7,3.7,144,0,139.4,0h0ZM131,111.5c0,2.6-2,4.8-4.8,4.8H56.3c-2.6,0-4.8-2-4.8-4.8V20.9c0-2.6,2-4.8,4.8-4.8h70.2c2.6,0,4.8,2,4.8,4.6v90.8h-.2ZM144,99.1c0,2.6-2,4.8-4.8,4.8h-4.4V20.9c0-4.6-3.7-8.5-8.5-8.5h-61.7v-3.9c0-2.6,2-4.8,4.8-4.8h70c2.6,0,4.8,2,4.8,4.8v90.6h-.2Z"/>
            <path class="cls-2" d="M119.2,21c-3.7,0-6.6,3-6.6,6.6s.4,2.2.9,3.1l-9.4,9.2c-.9-.6-2-.9-3.3-.9s-2.4.4-3.5.9l-8.5-7.8c.4-.9.7-1.8.7-3,0-3.7-3-6.6-6.6-6.6s-6.6,3-6.6,6.6.4,2.2.7,3.1l-10.2,9.6c-.9-.6-2-.9-3.3-.9-3.7,0-6.6,3-6.6,6.6s3,6.6,6.6,6.6,6.6-3,6.6-6.6-.4-2.2-.7-3.1l10-9.6c.9.6,2.2.9,3.3.9s2.6-.4,3.5-1.1l8.3,7.8c-.4.9-.7,1.8-.7,3,0,3.7,3,6.6,6.6,6.6s6.6-3,6.6-6.6-.4-2.2-.9-3.1l9.4-9.2c.9.6,2,.9,3.3.9,3.7,0,6.6-3,6.6-6.6.4-3.3-2.6-6.5-6.3-6.5h0ZM63.5,51.1c-1.7,0-3-1.3-3-3s1.3-3,3-3,3,1.3,3,3-1.3,3-3,3ZM79.7,29.7c0-1.7,1.3-3,3-3s3,1.3,3,3-1.3,3-3,3-3-1.3-3-3ZM100.8,48.9c-1.7,0-3-1.3-3-3s1.3-3,3-3,3,1.3,3,3-1.3,3-3,3ZM119.2,30.8c-1.7,0-3-1.3-3-3s1.3-3,3-3,3,1.3,3,3-1.3,3-3,3Z"/>
            <path class="cls-2" d="M122.4,64.4h-62c-1.1,0-1.8.7-1.8,1.8s.7,1.8,1.8,1.8h62c1.1,0,1.8-.7,1.8-1.8s-.9-1.8-1.8-1.8Z"/>
            <path class="cls-2" d="M122.4,77.5h-26.6c-1.1,0-1.8.7-1.8,1.8s.7,1.8,1.8,1.8h26.4c1.1,0,1.8-.7,1.8-1.8s-.7-1.8-1.7-1.8Z"/>
            <path class="cls-2" d="M122.4,90.5h-26.6c-1.1,0-1.8.7-1.8,1.8s.7,1.8,1.8,1.8h26.4c1.1,0,1.8-.7,1.8-1.8.2-.9-.7-1.8-1.7-1.8Z"/>
            <path class="cls-2" d="M122.4,103.6h-26.6c-1.1,0-1.8.7-1.8,1.8s.7,1.8,1.8,1.8h26.4c1.1,0,1.8-.7,1.8-1.8.2-.9-.7-1.8-1.7-1.8Z"/>
            <path class="cls-2" d="M74.2,76.8c-8.7,0-15.7,7-15.7,15.7s7,15.7,15.7,15.7,15.3-6.8,15.7-15.1c.6-8.1-6.5-16.2-15.7-16.2ZM86,90.8h-10v-10.3c5.2.9,9.2,5.2,10,10.3ZM72.3,80.5v11.4l-7.8,7.8c-1.5-2-2.4-4.6-2.4-7.2,0-6.1,4.4-11.1,10.2-12ZM74.2,104.3c-2.6,0-4.8-.7-6.8-2.2l7.6-7.6h10.9c-.9,5.5-5.9,9.8-11.6,9.8Z"/>
          </g>
        </g>
      </g>
      <g class="cls-19">
        <g class="cls-21">
          <path class="cls-2" d="M144.5,77.7l-12.7-60.8c0-3-2.6-5.4-5.6-5.4h-5.3V3.7c0-2-1.7-3.7-3.7-3.7h-4.1c-2,0-3.7,1.7-3.7,3.7v7.8h-11.3V3.7c0-2-1.7-3.7-3.7-3.7h-4.1c-2,0-3.7,1.7-3.7,3.7v7.8h-11.3V3.7c0-2-1.7-3.7-3.7-3.7h-4.1c-2,0-3.7,1.7-3.7,3.7v7.8h-5.3c-3.1,0-5.6,2.5-5.6,5.6v61.8c0,3.1,2.5,5.6,5.6,5.6h.1c0,.1,0,.3,0,.5,0,5.1,4.2,9.3,9.3,9.3s9.3-4.2,9.3-9.3,0-.3,0-.5h4.2c.7,5.4,5.4,9.6,11,9.6s10.2-4.2,11-9.6h4.2c0,.1,0,.3,0,.5,0,5.1,4.2,9.3,9.3,9.3s9.3-4.2,9.3-9.3,0-.3,0-.5h12.9c1.7,0,3.3-.7,4.4-2.1,1.1-1.3,1.5-3,1.2-4.7h0ZM112.5,3.7c0-.4.3-.7.7-.7h4.1c.4,0,.7.3.7.7v14.9c0,.4-.3.7-.7.7h-4.1c-.4,0-.7-.3-.7-.7V3.7ZM89.7,3.7c0-.4.3-.7.7-.7h4.1c.4,0,.7.3.7.7v14.9c0,.4-.3.7-.7.7h-4.1c-.4,0-.7-.3-.7-.7V3.7ZM66.9,3.7c0-.4.3-.7.7-.7h4.1c.4,0,.7.3.7.7v14.9c0,.4-.3.7-.7.7h-4.1c-.4,0-.7-.3-.7-.7V3.7ZM58.6,14.5h5.3v4.1c0,2,1.7,3.7,3.7,3.7h4.1c2,0,3.7-1.7,3.7-3.7v-4.1h11.3v4.1c0,2,1.7,3.7,3.7,3.7h4.1c2,0,3.7-1.7,3.7-3.7v-4.1h11.3v4.1c0,2,1.7,3.7,3.7,3.7h4.1c2,0,3.7-1.7,3.7-3.7v-4.1h5.3c1.4,0,2.6,1.2,2.6,2.6v10.1H56v-10.1c0-1.4,1.2-2.6,2.6-2.6h0ZM68,91.2c-3.5,0-6.3-2.8-6.3-6.3s2.8-6.3,6.3-6.3,6.3,2.8,6.3,6.3-2.8,6.3-6.3,6.3ZM92.5,91.1c-4.5,0-8.1-3.6-8.1-8.1s3.6-8.1,8.1-8.1,8.1,3.6,8.1,8.1c0,4.5-3.6,8.1-8.1,8.1h0ZM116.9,91.2c-3.5,0-6.3-2.8-6.3-6.3s2.8-6.3,6.3-6.3,6.3,2.8,6.3,6.3-2.8,6.3-6.3,6.3ZM125.5,81.5c-1.4-3.4-4.7-5.8-8.6-5.8s-7.2,2.4-8.6,5.8h-4.9c-.7-5.4-5.4-9.6-11-9.6s-10.2,4.2-11,9.6h-4.9c-1.4-3.4-4.7-5.8-8.6-5.8s-7.2,2.4-8.6,5.8h-.8c-1.4,0-2.6-1.2-2.6-2.6V30.3h72.8v48.6c0,1.4-1.2,2.6-2.6,2.6h-.8,0ZM141.1,80.5c-.5.6-1.2,1-2,1h-7.8c.4-.8.6-1.7.6-2.6V31.6l9.7,46.7c.2.8,0,1.6-.5,2.2ZM106.9,38.6c-1.6-1.4-4-1.5-5.7-.3-2.6-1.8-5.7-2.8-8.8-2.8-8.6,0-15.5,7-15.5,15.5s7,15.5,15.5,15.5,15.5-7,15.5-15.5-.3-3.7-1-5.4l.4-.5c1.7-1.9,1.5-4.9-.5-6.6h0ZM104.9,40.9c.7.6.8,1.6.2,2.3l-10.9,12.5c-.4.4-.8.6-1.4.6-.6,0-1-.2-1.4-.6l-4.2-4.6c-.3-.3-.4-.7-.4-1.2s.2-.8.5-1.1c.7-.6,1.8-.6,2.4.1l1.9,2.1c.3.3.7.5,1.1.5h0c.4,0,.8-.2,1.1-.5l8.7-10.1c.6-.7,1.6-.8,2.3-.2h0ZM104.9,51.1c0,6.9-5.6,12.5-12.5,12.5s-12.5-5.6-12.5-12.5,5.6-12.5,12.5-12.5,4.7.7,6.7,2l-6.4,7.4-.8-.8c-1.7-1.9-4.7-2-6.6-.3-.9.8-1.5,2-1.5,3.2s.4,2.4,1.2,3.3l4.2,4.6c.9,1,2.2,1.6,3.6,1.6h0c1.4,0,2.7-.6,3.6-1.7l8.1-9.4c.2.9.3,1.8.3,2.8h0ZM118.2,95.2h-2.5c-4,0-7.9,1.6-10.7,4.4-3.1-2.2-6.9-3.6-10.9-3.6h-3.1c-4.1,0-7.9,1.3-10.9,3.6-2.9-2.8-6.7-4.4-10.7-4.4h-2.5c-8.5,0-15.4,6.9-15.4,15.4v3.1c0,.8.7,1.5,1.5,1.5h19.4v3.3c0,.8.7,1.5,1.5,1.5h37.4c.8,0,1.5-.7,1.5-1.5v-3.3h19.4c.8,0,1.5-.7,1.5-1.5v-3.1c0-8.5-6.9-15.4-15.4-15.4h0ZM54.3,110.6c0-6.8,5.6-12.4,12.4-12.4h2.5c3.1,0,6.2,1.2,8.4,3.3-2.8,2.8-4.7,6.6-5.3,10.7h-18.1v-1.6ZM109.6,117h-34.4v-2.3c0-8.6,7-15.7,15.7-15.7h3.1c8.6,0,15.7,7,15.7,15.7v2.3h0ZM130.6,112.2h-18.1c-.5-4.1-2.4-7.9-5.3-10.7,2.3-2.1,5.3-3.3,8.4-3.3h2.5c6.8,0,12.4,5.6,12.4,12.4v1.6Z"/>
        </g>
      </g>
      <g class="cls-19">
        <g class="cls-16">
          <g>
            <path class="cls-2" d="M101.7,48.7c-6.3,0-11.3,5.1-11.3,11.3s5.1,11.3,11.3,11.3,11.3-5.1,11.3-11.3-5.1-11.3-11.3-11.3ZM101.7,68.3c-2.2,0-4.3-.9-5.9-2.4-3.2-3.2-3.2-8.5,0-11.7,1.6-1.6,3.7-2.4,5.9-2.4s4.3.9,5.9,2.4c3.2,3.2,3.2,8.5,0,11.7-1.6,1.6-3.7,2.4-5.9,2.4Z"/>
            <path class="cls-2" d="M100.9,89.2c-16.1,0-29.2-13.1-29.2-29.2s13.1-29.2,29.2-29.2,1.5-.7,1.5-1.5V1.5c0-.8-.7-1.5-1.5-1.5h-10.1s-.3,0-.3,0c-.8,0-1.4.6-1.5,1.4l-1.8,19c-1.6.5-3.1,1.2-4.6,1.9l-14.6-12c-.3-.3-.7-.4-1.1-.4s-.8.2-1.1.4l-14.7,14.7-.2.2h0c-.4.6-.3,1.3,0,1.8l12.1,14.7c-.7,1.5-1.4,3-1.9,4.6l-18.9,1.8c-.8,0-1.5.7-1.5,1.5v20.7c0,.8.6,1.4,1.4,1.5l19,1.8c.5,1.6,1.2,3.1,1.9,4.6l-12,14.6c-.6.6-.6,1.5,0,2.1l14.6,14.7.2.2h0c.2.1.5.2.8.2s.7-.1,1-.3l14.7-12.1c1.5.7,3,1.4,4.6,1.9l1.8,18.9c0,.8.7,1.5,1.5,1.5h10.5s0,0,0,0c.3,0,.6-.2.9-.4.3-.3.4-.7.4-1.1v-27.8c0-.8-.7-1.5-1.5-1.5ZM66.1,79.5c.4-.5.5-1.1.2-1.7-1-1.9-1.9-4-2.5-6-.2-.6-.7-1-1.3-1.1l-18.6-1.8v-18l18.6-1.8c.6,0,1.2-.5,1.3-1.1.5-1.8,1.6-4.3,2.5-5.9.3-.6.2-1.3-.2-1.7l-11.8-14.4,12.7-12.7,14.4,11.9c.3.2.6.3,1,.3s.5,0,.7-.2c1.9-1,4-1.9,6-2.5.6-.2,1-.7,1.1-1.3l1.8-18.6h7.5v24.8c-17.2.8-30.7,14.9-30.7,32.2s13.4,31.4,30.7,32.2v24.8h-7.5l-1.8-18.6c0-.6-.5-1.2-1.1-1.3-1.8-.5-4.3-1.6-5.9-2.5-.2-.1-.5-.2-.7-.2-.4,0-.7.1-1,.4l-14.4,11.8-12.7-12.7,11.9-14.4Z"/>
            <path class="cls-2" d="M148.1,81.6c-1.1,0-2.3.3-3.3.9l-6.2-7.1c-.3-.4-.7-.6-1.2-.6h-17.3c3.1-3.8,4.9-8.4,5.2-13.3h9.2c.7,3.2,3.5,5.5,6.8,5.5s5.3-1.7,6.4-4.3c1.1-2.7.5-5.6-1.5-7.6-1.3-1.3-3.1-2-4.9-2-3.3,0-6.2,2.3-6.9,5.5h-9.2c-.3-4.9-2.1-9.5-5.2-13.3h17.3c.5,0,.9-.2,1.2-.6l6.2-7.1c1,.6,2.2.8,3.3.8,1.9,0,3.6-.7,4.9-2,2-2,2.6-4.9,1.5-7.6-1.1-2.7-3.6-4.3-6.4-4.3s-5.1,1.5-6.3,3.9c-1.1,2.4-.9,5.1.7,7.2l-5.8,6.6h-19.6c-2.1-1.8-4.5-3.2-7-4.2v-10.6l9.9-5.7c1.3,1.3,3,1.9,4.8,1.9s3.6-.7,4.9-2c2-2,2.6-4.9,1.5-7.6-1.1-2.7-3.6-4.3-6.4-4.3s-4.5,1.2-5.8,3.1c-1.2,1.9-1.5,4.3-.7,6.4l-10.3,6c-.5.3-.9.8-.9,1.4v10.6c-1.8-.4-3.6-.6-5.4-.6-13,0-23.6,10.6-23.6,23.6s10.6,23.6,23.6,23.6,3.6-.2,5.4-.6v10.6c0,.6.3,1.1.9,1.4l10.4,6c-.3.8-.5,1.7-.5,2.5,0,1.9.7,3.6,2,4.9,1.3,1.3,3.1,2,4.9,2h0c1.8,0,3.6-.7,4.9-1.9,1.4-1.3,2.2-3.1,2.2-5.1,0-4.3-3.7-7-7-7s-3.4.7-4.8,1.9l-9.9-5.7v-10.6c2.6-1,4.9-2.4,7-4.2h19.6l5.8,6.6c-2,2.8-1.8,6.6.7,9.1,1.3,1.3,3.1,2,4.9,2,3.5,0,7-2.6,7-7s-3.1-7-7-7ZM150.9,91.4c-1,1-2,1.2-2.7,1.2-2,0-4-1.5-4-4s1.8-3.9,4-3.9,3,.9,3.6,2.4.3,3.2-.9,4.3ZM87.2,74.5c-3.9-3.9-6-9.1-6-14.5s2.1-10.7,6-14.5c3.9-3.9,9.1-6,14.5-6s10.7,2.1,14.5,6c3.9,3.9,6,9.1,6,14.5s-2.1,10.7-6,14.5c-3.9,3.9-9.1,6-14.5,6s-10.7-2.1-14.5-6ZM138.5,57.2c.7-.7,1.7-1.2,2.8-1.2s2,.4,2.8,1.2c1.1,1.1,1.5,2.8.8,4.3-.6,1.5-2,2.4-3.6,2.4-1.6,0-3-.9-3.6-2.4-.6-1.5-.3-3.1.9-4.3ZM151.8,29.9c.6,1.5.3,3.2-.9,4.3-1,1-2,1.2-2.8,1.2-2,0-4-1.5-4-4s1.8-3.9,4-3.9,3,.9,3.6,2.4ZM128.5,15.1c.6,1.5.3,3.2-.9,4.3-1,1-2,1.2-2.8,1.2-2,0-4-1.5-4-4s1.8-3.9,3.9-3.9,3,.9,3.6,2.4ZM128.5,104.9c-.6,1.5-2,2.4-3.6,2.4s-3-.9-3.6-2.4c-.6-1.5-.3-3.2.8-4.3.7-.7,1.7-1.2,2.8-1.2s2,.4,2.8,1.2c1.1,1.1,1.5,2.8.8,4.3Z"/>
          </g>
        </g>
      </g>
      <g class="cls-19">
        <g class="cls-8">
          <g>
            <path class="cls-2" d="M55.2,76.2c-6.6,0-12,5.8-12,13s5.4,13,12,13,12-5.8,12-13-5.4-13-12-13ZM55.2,97.8c-4.2,0-7.6-3.9-7.6-8.7s3.4-8.7,7.6-8.7,7.6,3.9,7.6,8.7-3.4,8.7-7.6,8.7Z"/>
            <path class="cls-2" d="M62.9,104.3h-15.5c-7.1,0-12.8,5.7-12.8,12.8v.7c0,1.2,1,2.2,2.2,2.2s2.2-1,2.2-2.2v-.7c0-4.7,3.8-8.5,8.5-8.5h15.5c4.7,0,8.5,3.8,8.5,8.5v.7c0,1.2,1,2.2,2.2,2.2s2.2-1,2.2-2.2v-.7c0-7.1-5.7-12.8-12.8-12.8Z"/>
            <path class="cls-2" d="M98,76.2c-6.6,0-12,5.8-12,13s5.4,13,12,13,12-5.8,12-13-5.4-13-12-13ZM98,97.8c-4.2,0-7.6-3.9-7.6-8.7s3.4-8.7,7.6-8.7,7.6,3.9,7.6,8.7-3.4,8.7-7.6,8.7Z"/>
            <path class="cls-2" d="M89.6,38.5c6.6,0,12-5.8,12-13s-5.4-13-12-13-12,5.8-12,13,5.4,13,12,13ZM89.6,16.8c4.2,0,7.6,3.9,7.6,8.7s-3.4,8.7-7.6,8.7-7.6-3.9-7.6-8.7,3.4-8.7,7.6-8.7Z"/>
            <path class="cls-2" d="M105.7,104.3h-15.5c-7.1,0-12.8,5.7-12.8,12.8v.7c0,1.2,1,2.2,2.2,2.2s2.2-1,2.2-2.2v-.7c0-4.7,3.8-8.5,8.5-8.5h15.5c4.7,0,8.5,3.8,8.5,8.5v.7c0,1.2,1,2.2,2.2,2.2s2.2-1,2.2-2.2v-.7c0-7.1-5.7-12.8-12.8-12.8Z"/>
            <path class="cls-2" d="M140.8,102.1c6.6,0,12-5.8,12-13s-5.4-13-12-13-12,5.8-12,13,5.4,13,12,13ZM140.8,80.5c4.2,0,7.6,3.9,7.6,8.7s-3.4,8.7-7.6,8.7-7.6-3.9-7.6-8.7,3.4-8.7,7.6-8.7Z"/>
            <path class="cls-2" d="M148.5,104.3h-15.5c-7.1,0-12.8,5.7-12.8,12.8v.7c0,1.2,1,2.2,2.2,2.2s2.2-1,2.2-2.2v-.7c0-4.7,3.8-8.5,8.5-8.5h15.5c4.7,0,8.5,3.8,8.5,8.5v.7c0,1.2,1,2.2,2.2,2.2s2.2-1,2.2-2.2v-.7c0-7.1-5.7-12.8-12.8-12.8Z"/>
            <path class="cls-2" d="M133.9,54.5c0-4.1-3.1-7.5-7.1-8l7.7-23.4c.4-1.1-.2-2.3-1.4-2.7-1.1-.4-2.3.2-2.7,1.4l-8.1,24.6h-44.3c-8.8,0-15.9,7.1-15.9,15.9v4.6c0,1.2,1,2.2,2.2,2.2s2.2-1,2.2-2.2v-4.6c0-6.4,5.2-11.6,11.6-11.6h45.8s0,0,0,0h0s2,0,2,0c2.1,0,3.8,1.7,3.8,3.8s-1.7,3.8-3.8,3.8h-16.8c-3.6,0-6.6,3-6.6,6.6v2.1c0,1.2,1,2.2,2.2,2.2h0c1.2,0,2.2-1,2.2-2.2v-2.1c0-1.3,1-2.3,2.3-2.3h16.8c4.5,0,8.1-3.6,8.1-8.1Z"/>
            <path class="cls-2" d="M75,59.6c-1.2,0-2.2,1-2.2,2.2v5.2c0,1.2,1,2.2,2.2,2.2s2.2-1,2.2-2.2v-5.2c0-1.2-1-2.2-2.2-2.2Z"/>
            <path class="cls-2" d="M40.5,69.1c1.2,0,2.2-1,2.2-2.2V9.7c0-3,2.4-5.4,5.4-5.4h100c3,0,5.4,2.4,5.4,5.4v57.2c0,1.2,1,2.2,2.2,2.2s2.2-1,2.2-2.2V9.7c0-5.4-4.4-9.7-9.7-9.7H48.1c-5.4,0-9.7,4.4-9.7,9.7v57.2c0,1.2,1,2.2,2.2,2.2Z"/>
          </g>
        </g>
      </g>
      <g class="cls-19">
        <g class="cls-14">
          <g>
            <path class="cls-1" d="M133.4,24.4h-.2c0,0,0-.3,0-.3.7-9.6-5.7-19.2-15.2-22.7-2.5-.9-5-1.4-7.5-1.4s-4.3.4-6.4,1c-4.6,1.5-8.5,4.6-11.8,9l-.2.2h-.2c-2.6-1.4-5.2-2.1-7.8-2.1s-5.1.7-7.6,1.9c-5.1,2.6-8.1,6.9-8.9,12.7v.2s-.3,0-.3,0c-4.1.5-7.7,2.4-10.1,5.4-2.8,3.4-3.8,7.8-2.9,12.2,1.4,6.3,6.3,10.7,13,11.5h.3v4.9c0,1,.8,1.7,1.7,1.7h5.2v13.5h-5.2c-1,0-1.7.8-1.7,1.7v17.9c0,1,.8,1.7,1.7,1.7h26.7v22.9h-12.9c-1,0-1.7.8-1.7,1.7s.8,1.7,1.7,1.7h29.4c1,0,1.7-.8,1.7-1.7s-.8-1.7-1.7-1.7h-13v-22.9h26.8c.9,0,1.7-.8,1.7-1.7v-17.9c0-1-.8-1.7-1.7-1.7h-5.2v-13.5h5.2c.9,0,1.7-.8,1.7-1.7v-4.8h.3c7.7-.9,13.3-6.6,13.6-14,.2-5.9-3.2-11.4-8.5-13.9ZM124.7,75.7v14.4h-26.7s0,0,0,0h0s.2-.3.2-.3h0s0,0,0,0c0,0,0,0-.1,0v.3h-26.6v-14.4h5.1s.2,0,.2,0h42.9s.2,0,.2,0h5.2ZM78.1,72.3v-13.5h39.6v13.5h-39.6ZM124.7,50.4h0c0,0,0,.2,0,.2l-.3-.2h0s0,0,0,0h0c0,.1,0,.2,0,.2h.3v4.6h-5.1s0,0,0,0h-.1s.2-.3.2-.3h0s0,0,0,0h0c0,0,0,0-.1,0v.3s-42.8,0-42.8,0h0s-.1,0-.1,0l.2-.3h0s0,0,0,0h0c0,0,0,0-.1,0v.3h-5.1v-14.4h53.5v9.5ZM128.5,48.7h-.3c0,0,0-9.5,0-9.5,0-1-.8-1.7-1.7-1.7h-57c-1,0-1.7.8-1.7,1.7v9.5h-.3c-4.9-.8-8.5-4.1-9.5-8.7-.7-3.4,0-6.7,2.2-9.3,2.2-2.7,5.6-4.3,9.2-4.3s1.6-.7,1.7-1.6c.3-5.5,2.7-9.3,7.2-11.7,2-1,4.1-1.6,6.1-1.6s5,.8,7.7,2.4c.3.2.6.3.9.3.6,0,1.1-.3,1.5-.8,4.3-6.5,10.1-10,16.4-10s4.2.4,6.3,1.1c7.3,2.7,14,10.4,12.9,20-.2,1.1.3,2,1.4,2.5,0,0,.1,0,.2.1,4.5,1.7,7.4,6.1,7.2,10.9-.2,5.5-4.2,9.8-10.1,10.6Z"/>
            <path class="cls-1" d="M133.4,24.4h-.2c0,0,0-.3,0-.3.7-9.6-5.7-19.2-15.2-22.7-2.5-.9-5-1.4-7.5-1.4s-4.3.4-6.4,1c-4.6,1.5-8.5,4.6-11.8,9l-.2.2h-.2c-2.6-1.4-5.2-2.1-7.8-2.1s-5.1.7-7.6,1.9c-5.1,2.6-8.1,6.9-8.9,12.7v.2s-.3,0-.3,0c-4.1.5-7.7,2.4-10.1,5.4-2.8,3.4-3.8,7.8-2.9,12.2,1.4,6.3,6.3,10.7,13,11.5h.3v4.9c0,1,.8,1.7,1.7,1.7h5.2v13.5h-5.2c-1,0-1.7.8-1.7,1.7v17.9c0,1,.8,1.7,1.7,1.7h26.7v22.9h-12.9c-1,0-1.7.8-1.7,1.7s.8,1.7,1.7,1.7h29.4c1,0,1.7-.8,1.7-1.7s-.8-1.7-1.7-1.7h-13v-22.9h26.8c.9,0,1.7-.8,1.7-1.7v-17.9c0-1-.8-1.7-1.7-1.7h-5.2v-13.5h5.2c.9,0,1.7-.8,1.7-1.7v-4.8h.3c7.7-.9,13.3-6.6,13.6-14,.2-5.9-3.2-11.4-8.5-13.9ZM124.7,75.7v14.4h-26.7s0,0,0,0h0s.2-.3.2-.3l-.2-.3v.3s0,.3,0,.3h-26.6v-14.4h5.1s.2,0,.2,0h42.9s.2,0,.2,0h5.2ZM78.1,72.3v-13.5h39.6v13.5h-39.6ZM124.7,50.4h0c0,0,0,.2,0,.2l-.3-.2h0s-.3.2-.3.2h.3s.3,0,.3,0v4.6h-5.1s0,0,0,0h-.1s.2-.3.2-.3h0s0,0,0,0h0c0,0,0,0-.1,0v.3s-42.8,0-42.8,0h0s-.1,0-.1,0l.2-.3h0s-.2-.3-.2-.3v.3s0,.3,0,.3h-5.1v-14.4h53.5v9.5ZM128.5,48.7h-.3c0,0,0-9.5,0-9.5,0-1-.8-1.7-1.7-1.7h-57c-1,0-1.7.8-1.7,1.7v9.5h-.3c-4.9-.8-8.5-4.1-9.5-8.7-.7-3.4,0-6.7,2.2-9.3,2.2-2.7,5.6-4.3,9.2-4.3s1.6-.7,1.7-1.6c.3-5.5,2.7-9.3,7.2-11.7,2-1,4.1-1.6,6.1-1.6s5,.8,7.7,2.4c.3.2.6.3.9.3.6,0,1.1-.3,1.5-.8,4.3-6.5,10.1-10,16.4-10s4.2.4,6.3,1.1c7.3,2.7,14,10.4,12.9,20-.2,1.1.3,2,1.4,2.5,0,0,.1,0,.2.1,4.5,1.7,7.4,6.1,7.2,10.9-.2,5.5-4.2,9.8-10.1,10.6Z"/>
            <path class="cls-1" d="M103.9,43.4c-2.6,0-4.6,2.1-4.6,4.6s2.1,4.6,4.6,4.6,4.6-2.1,4.6-4.6-2.1-4.6-4.6-4.6ZM103.9,49.3c-.6,0-1.2-.5-1.2-1.2s.5-1.2,1.2-1.2,1.2.5,1.2,1.2-.5,1.2-1.2,1.2Z"/>
            <path class="cls-1" d="M103.9,43.4c-2.6,0-4.6,2.1-4.6,4.6s2.1,4.6,4.6,4.6,4.6-2.1,4.6-4.6-2.1-4.6-4.6-4.6ZM103.9,49.3c-.6,0-1.2-.5-1.2-1.2s.5-1.2,1.2-1.2,1.2.5,1.2,1.2-.5,1.2-1.2,1.2Z"/>
            <path class="cls-1" d="M116.5,43.4c-2.5,0-4.6,2.1-4.6,4.6s2.1,4.6,4.6,4.6,4.6-2.1,4.6-4.6-2.1-4.6-4.6-4.6ZM116.5,49.3c-.6,0-1.2-.5-1.2-1.2s.5-1.2,1.2-1.2,1.2.5,1.2,1.2-.5,1.2-1.2,1.2Z"/>
            <path class="cls-1" d="M116.5,43.4c-2.5,0-4.6,2.1-4.6,4.6s2.1,4.6,4.6,4.6,4.6-2.1,4.6-4.6-2.1-4.6-4.6-4.6ZM116.5,49.3c-.6,0-1.2-.5-1.2-1.2s.5-1.2,1.2-1.2,1.2.5,1.2,1.2-.5,1.2-1.2,1.2Z"/>
            <path class="cls-1" d="M96.3,48.1c0,1-.8,1.7-1.7,1.7h-18.2c-1,0-1.7-.8-1.7-1.7s.8-1.7,1.7-1.7h18.2c1,0,1.7.8,1.7,1.7Z"/>
            <path class="cls-1" d="M96.3,48.1c0,1-.8,1.7-1.7,1.7h-18.2c-1,0-1.7-.8-1.7-1.7s.8-1.7,1.7-1.7h18.2c1,0,1.7.8,1.7,1.7Z"/>
            <path class="cls-1" d="M116.5,78.3c-2.5,0-4.6,2.1-4.6,4.6s2.1,4.6,4.6,4.6,4.6-2.1,4.6-4.6-2.1-4.6-4.6-4.6ZM116.5,84.1c-.6,0-1.2-.5-1.2-1.2s.5-1.2,1.2-1.2,1.2.5,1.2,1.2-.5,1.2-1.2,1.2Z"/>
            <path class="cls-1" d="M116.5,78.3c-2.5,0-4.6,2.1-4.6,4.6s2.1,4.6,4.6,4.6,4.6-2.1,4.6-4.6-2.1-4.6-4.6-4.6ZM116.5,84.1c-.6,0-1.2-.5-1.2-1.2s.5-1.2,1.2-1.2,1.2.5,1.2,1.2-.5,1.2-1.2,1.2Z"/>
            <path class="cls-1" d="M103.8,78.3c-2.6,0-4.6,2.1-4.6,4.6s2.1,4.6,4.6,4.6,4.6-2.1,4.6-4.6c0-2.5-2.1-4.6-4.6-4.6ZM103.8,84.1c-.6,0-1.2-.5-1.2-1.2s.5-1.2,1.2-1.2,1.1.5,1.2,1.2c0,.6-.5,1.2-1.2,1.2Z"/>
            <path class="cls-1" d="M103.8,78.3c-2.6,0-4.6,2.1-4.6,4.6s2.1,4.6,4.6,4.6,4.6-2.1,4.6-4.6c0-2.5-2.1-4.6-4.6-4.6ZM103.8,84.1c-.6,0-1.2-.5-1.2-1.2s.5-1.2,1.2-1.2,1.1.5,1.2,1.2c0,.6-.5,1.2-1.2,1.2Z"/>
            <path class="cls-1" d="M96.3,82.9c0,1-.8,1.7-1.7,1.7h-18.2c-1,0-1.7-.8-1.7-1.7s.8-1.7,1.7-1.7h18.2c1,0,1.7.8,1.7,1.7Z"/>
            <path class="cls-1" d="M96.3,82.9c0,1-.8,1.7-1.7,1.7h-18.2c-1,0-1.7-.8-1.7-1.7s.8-1.7,1.7-1.7h18.2c1,0,1.7.8,1.7,1.7Z"/>
          </g>
        </g>
      </g>
      <g class="cls-19">
        <g class="cls-3">
          <path class="cls-2" d="M49.6,23.2h.7l4.5,19.6h0c-3.8,1.6-6.5,5.1-7,9.2-.6,4.1,1.1,8.2,4.3,10.7,3.2,2.5,7.6,3.2,11.4,1.7,3.8-1.5,6.6-5,7.2-9,0-.6.1-1.2.1-1.8,0-6.4-5.2-11.6-11.6-11.6h-.7l-4.5-19.6c.8-.3,1.5-.8,2.2-1.3l21.1,21.2c-.3.5-.4,1.1-.4,1.7,0,.1,0,.3,0,.4v31.3c.2,2.1,1.4,3.9,3.2,4.9l-9.8,12c-5.6-3.5-12.9-2.8-17.8,1.7-4.9,4.5-6.2,11.7-3.2,17.6,3,5.9,9.5,9.1,16,7.9,6.5-1.3,11.4-6.7,12-13.3l23.8-1c1.1,3.9,4.9,6.3,8.9,5.8,4-.6,7-4,7-8,0-.7-.1-1.3-.3-1.9-.9-3.6-4.1-6.1-7.8-6.1h-.1l-2.9-11.2c6.2-1,11.3-3.1,12.8-6.3l17.2,11.3h0c-.6,1.4-1,3-1,4.6,0,1,.1,1.9.4,2.9,1.1,4.3,4.6,7.6,8.9,8.5,4.3.9,8.8-.8,11.5-4.3,2.7-3.5,3.2-8.3,1.2-12.2-2-4-6-6.5-10.4-6.5h-1.3l-4.4-15.5c3.6-2,5.1-6.5,3.6-10.3-1.6-3.8-5.7-5.9-9.8-4.9-4,1.1-6.6,4.9-6.1,9.1.5,4.1,4,7.2,8.2,7.2h.3l4.4,15.5c-1.3.6-2.5,1.5-3.5,2.6l-18.8-12.3v-26.7l8.4-7.1c5.8,5.6,14.7,6.6,21.7,2.5,7-4.1,10.4-12.3,8.3-20.2-2.1-7.8-9.1-13.3-17.2-13.5-8.1-.1-15.3,5.1-17.6,12.9l-19.5-3.6h0c0-4.5-2.6-8.4-6.7-10.1-4.1-1.7-8.7-.8-11.8,2.3-3.1,3.1-4,7.8-2.4,11.8,1.7,4.1,5.6,6.7,10,6.7.5,0,.9,0,1.4-.1,3.9-.5,7.3-3.2,8.7-6.9l19.5,3.7v1.4c0,3.6,1.1,7.1,3.1,10.1l-6.5,5.5c-2.4-4.4-11.4-6.6-20.5-6.6s-2.3,0-3.4.1c-5.8.4-11.2,1.7-14.5,3.9l-21.1-21.1c3.1-4.4,2.8-10.3-.7-14.3C54.9,0,49-1.2,44.3,1.3s-7.2,7.9-6,13.1c1.3,5.2,5.9,8.9,11.3,8.9h0ZM49.6,3.9c3.1,0,6,1.9,7.2,4.8,1.2,2.9.5,6.2-1.7,8.4-2.2,2.2-5.5,2.9-8.4,1.7-2.9-1.2-4.8-4-4.8-7.2s3.5-7.7,7.7-7.7ZM67,53.5c0,3.1-1.9,6-4.8,7.2-2.9,1.2-6.2.5-8.4-1.7-2.2-2.2-2.9-5.5-1.7-8.4,1.2-2.9,4-4.8,7.2-4.8s7.7,3.5,7.7,7.7ZM98,80.6c-11.1,0-17.2-3.3-17.2-5v-5.1c1.2.7,2.6,1.3,3.9,1.7,4.3,1.3,8.7,1.9,13.2,1.8,4.5,0,8.9-.6,13.2-1.8,1.4-.4,2.7-1,3.9-1.7v5.1c0,1.7-6.1,5-17.2,5h0ZM113.1,103.3c0,1.7-1,3.3-2.6,3.9-1.6.7-3.4.3-4.6-.9-1.2-1.2-1.6-3-.9-4.6.7-1.6,2.2-2.6,3.9-2.6s2.2.4,3,1.2c.8.8,1.2,1.9,1.2,3h0ZM100.9,101.7l-23.8.9c-.5-2.9-1.8-5.5-3.8-7.6l10.3-12.7c4.6,1.6,9.5,2.3,14.4,2.3,1.3,0,2.6,0,3.9-.1l3.2,11.8c-2.1,1.2-3.6,3.2-4.1,5.5h0ZM73.5,105.2c0,4.4-2.7,8.4-6.8,10.1-4.1,1.7-8.8.8-12-2.4-3.1-3.1-4.1-7.9-2.4-12,1.7-4.1,5.7-6.8,10.1-6.8,6.1,0,11,4.9,11,11h0ZM115.2,60.1v5c0,.7-1.4,2.2-5.2,3.4-3.9,1.2-7.9,1.7-12,1.7-4.1,0-8.1-.5-12-1.6-3.8-1.2-5.2-2.7-5.2-3.4v-5.1c1.2.7,2.6,1.3,3.9,1.7,4.3,1.3,8.8,1.9,13.3,1.8,4.5,0,8.9-.6,13.2-1.8,1.4-.4,2.7-1,3.9-1.7h0ZM80.8,54.8v-5.2c1.2.7,2.6,1.3,3.9,1.7,4.3,1.3,8.7,1.9,13.2,1.9,4.5,0,8.9-.6,13.2-1.8,1.4-.4,2.7-1,3.9-1.7v5.2c0,.7-1.4,2.2-5.2,3.4-3.9,1.1-7.9,1.7-12,1.6-4.1,0-8.1-.5-12-1.7-3.8-1.2-5.1-2.7-5.1-3.3ZM115.2,44.4c0,.7-1.4,2.2-5.2,3.4h0c-3.9,1.1-7.9,1.7-12,1.6-4.1,0-8.1-.5-12-1.7-3.8-1.2-5.2-2.7-5.2-3.4,0-1.7,6.1-5,17.2-5s17.2,3.3,17.2,5h0ZM146.4,85.8c3.1,0,6,1.9,7.2,4.8,1.2,2.9.5,6.2-1.7,8.4-2.2,2.2-5.5,2.9-8.4,1.7-2.9-1.2-4.8-4-4.8-7.2s3.5-7.7,7.7-7.7ZM132.3,59.4c0-1.8,1.1-3.4,2.7-4.1,1.6-.7,3.5-.3,4.8,1,1.3,1.3,1.6,3.2,1,4.8-.7,1.6-2.3,2.7-4.1,2.7s-4.4-2-4.4-4.4h0ZM139.9,12.3c5.7,0,10.9,3.5,13.1,8.8,2.2,5.3,1,11.4-3.1,15.5-4.1,4.1-10.2,5.3-15.5,3.1-5.3-2.2-8.8-7.4-8.8-13.1s6.4-14.2,14.2-14.2h0ZM85.3,17.6c0-2.8,1.7-5.4,4.3-6.5,2.6-1.1,5.6-.5,7.6,1.5,2,2,2.6,5,1.5,7.6-1.1,2.6-3.6,4.3-6.4,4.3-3.9,0-7-3.1-7-7h0Z"/>
        </g>
      </g>
      <g class="cls-19">
        <g class="cls-4">
          <g>
            <path class="cls-2" d="M98,27.4c18.1-.6,18.1-26.8,0-27.4-18.1.6-18.1,26.8,0,27.4ZM98,4.7c11.9.3,11.9,17.7,0,18-11.9-.3-11.9-17.7,0-18Z"/>
            <path class="cls-2" d="M79.8,46.7h36.4c1.3,0,2.4-1.1,2.3-2.4,0-.2,0-.4,0-.6-3.2-11.3-14.9-17.9-26.2-14.7-7.1,2-12.7,7.6-14.7,14.7-.3,1.3.4,2.6,1.7,2.9.2,0,.4,0,.6,0ZM98,32.9c6.2,0,12,3.5,14.8,9.1h-29.6c2.8-5.6,8.5-9.1,14.8-9.1Z"/>
            <path class="cls-2" d="M52.9,100.7c18.1-.6,18.1-26.8,0-27.4-18.1.6-18.1,26.8,0,27.4ZM52.9,78c11.9.3,11.9,17.7,0,18-11.9-.3-11.9-17.7,0-18h0Z"/>
            <path class="cls-2" d="M52.9,101.5c-9.5,0-17.9,6.3-20.5,15.5-.3,1.3.4,2.6,1.7,2.9.2,0,.4,0,.6,0h36.4c1.3,0,2.4-1.1,2.3-2.4,0-.2,0-.4,0-.6-2.6-9.2-10.9-15.5-20.5-15.5ZM38.1,115.3c4.2-8.2,14.3-11.4,22.4-7.1,3,1.6,5.5,4.1,7.1,7.1h-29.6Z"/>
            <path class="cls-2" d="M143.2,100.7c18.1-.6,18.1-26.8,0-27.4-18.1.6-18.1,26.8,0,27.4ZM143.2,78c11.9.3,11.9,17.7,0,18-11.9-.3-11.9-17.7,0-18h0Z"/>
            <path class="cls-2" d="M163.6,117c-3.2-11.3-14.9-17.9-26.2-14.7-7.1,2-12.7,7.6-14.7,14.7-.3,1.3.4,2.6,1.7,2.9.2,0,.4,0,.6,0h36.4c1.3,0,2.4-1.1,2.3-2.4,0-.2,0-.4,0-.6ZM128.4,115.3c4.2-8.2,14.3-11.4,22.4-7.1,3,1.6,5.5,4.1,7.1,7.1h-29.6Z"/>
            <path class="cls-2" d="M71.1,96.3c.4,0,.8-.1,1.1-.3l25.8-14.3,25.8,14.3c1.1.6,2.6.2,3.2-.9.6-1.1.2-2.6-.9-3.2h0l-25.7-14.2v-25.9c0-1.3-1.1-2.3-2.4-2.3-1.3,0-2.3,1-2.3,2.3v25.9l-25.7,14.2c-1.1.7-1.5,2.1-.9,3.2.4.7,1.2,1.2,2,1.2Z"/>
          </g>
        </g>
      </g>
      <g class="cls-19">
        <g class="cls-15">
          <path class="cls-2" d="M51,0c-.5,0-1,.2-1.3.6l-11,11c-.7.7-.8,1.7-.3,2.5l13.1,21.4c.3.6.9.9,1.6,1l10,.8,19.9,19.9-14.3,14.3-14.7-1.2c-.6,0-1.2.2-1.6.6l-13.7,13.7c-.4.4-.6,1-.6,1.6l1.3,15.7c0,1.1,1.1,2,2.2,1.9.5,0,.9-.3,1.3-.6l8.5-8.5c3.3-3.3,8.6-3.3,11.9,0,3.3,3.3,3.3,8.6,0,11.9l-8.5,8.5c-.8.8-.8,2.1,0,2.9.3.3.8.6,1.3.6l15.7,1.3c.6,0,1.2-.2,1.6-.6l13.7-13.7c.4-.4.6-1,.6-1.6l-1.2-14.7,12.5-12.5,7.6,8.4-2.1,2.1c-.8.8-.9,2.1-.1,2.9s2.1.9,2.9.1c0,0,0,0,.1-.1l2-2,25.1,27.6c5.2,5.7,14.2,5.4,19.5,0,5.4-5.4,5.4-14.1,0-19.5,0,0,0,0,0,0l-27.5-25.1,2-2c.8-.8.9-2.1,0-2.9-.4-.4-1-.7-1.6-.6-.5,0-1,.2-1.4.6l-2.1,2.1-8.4-7.6,12.4-12.4,14.7,1.3c.6,0,1.2-.2,1.6-.6l13.7-13.7c.4-.4.6-1,.6-1.6l-1.3-15.7c0-1.1-1.1-2-2.2-1.9-.5,0-.9.3-1.3.6l-8.5,8.5c-1.2,1.2-2.8,2-4.4,2.3-2.6.5-5.5-.3-7.6-2.3-1.7-1.7-2.5-3.8-2.5-6s0-1.1.2-1.6c.3-1.6,1.1-3.1,2.3-4.4l8.5-8.5c.8-.8.8-2.1,0-2.9-.3-.3-.8-.6-1.3-.6L124.2,0c0,0-.1,0-.2,0-.5,0-1,.2-1.4.6l-13.7,13.7c-.4.4-.6,1-.6,1.6l1.3,14.7-14.2,14.2-19.9-19.9-.8-10c0-.7-.4-1.3-1-1.6L52.2.3c-.4-.2-.8-.3-1.2-.3ZM124.8,4.2l10.3.9-5.4,5.4c-4.9,4.9-4.9,12.9,0,17.8,4.9,4.9,12.9,4.9,17.8,0l5.4-5.4.9,10.3-12.4,12.4-14.7-1.3c-.6,0-1.2.2-1.6.6l-42.2,42.2c-.4.4-.6,1-.6,1.6l1.3,14.7-12.3,12.3-10.3-.9,5.4-5.4c4.9-4.9,4.9-12.9,0-17.8-4.9-4.9-12.9-4.9-17.8,0l-5.4,5.4-.9-10.3,12.3-12.3,14.7,1.3c.6,0,1.2-.2,1.6-.6l42.2-42.2c.4-.4.6-1,.6-1.6l-1.3-14.7,12.4-12.3ZM51.4,4.7l19.2,11.7.7,9.7c0,.5.3,1,.6,1.3l20.5,20.5-6.5,6.5-20.5-20.5c-.4-.3-.8-.6-1.3-.6l-9.7-.8-11.7-19.2,8.7-8.7ZM112,63.8h0l8.4,7.6-10.9,10.9-7.6-8.4h0s10.1-10.1,10.1-10.1ZM123.4,74.2l27.6,25.2c3.8,3.8,3.8,9.8,0,13.6-3.8,3.8-10,3.9-13.5,0l-25.2-27.7,11.1-11.1Z"/>
        </g>
      </g>
      <g class="cls-19">
        <g class="cls-9">
          <g>
            <path class="cls-1" d="M158.6,27.8c-.6-1.5-2.2-2.2-3.7-1.6l-20.4,8.3c-1.4.6-2.1,2.3-1.6,3.7.6,1.5,2.2,2.2,3.7,1.6l20.4-8.3c1.4-.6,2.2-2.3,1.6-3.7h0Z"/>
            <path class="cls-1" d="M121.5,23.5c1.6,0,2.8-1.3,2.8-2.9s-1.3-2.9-2.8-2.9-2.8,1.3-2.8,2.9,1.3,2.9,2.8,2.9Z"/>
            <path class="cls-1" d="M131.1,15l10.3-10.1c1.1-1.1,1.1-2.9,0-4-1.1-1.1-2.9-1.2-4,0l-10.3,10.1c-1.1,1.1-1.1,2.9,0,4,1.1,1.1,2.9,1.2,4,0Z"/>
            <path class="cls-1" d="M163.6,56.3c-1.6,0-2.8,1.3-2.8,2.9s1.3,2.9,2.8,2.9,2.8-1.3,2.8-2.9-1.3-2.9-2.8-2.9Z"/>
            <path class="cls-1" d="M153,55.1l-14.2-1.1c-1.6-.1-2.9,1.1-3,2.6-.1,1.6,1.1,2.9,2.6,3.1l14.2,1.1c1.6.1,2.9-1.1,3-2.6.1-1.6-1.1-2.9-2.6-3.1Z"/>
            <path class="cls-1" d="M123.9,39.8c-4.3-8.6-9.4-16-14.2-20.9-2.4-2.4-4.8-4.4-7.2-5.5h0c-2.3-1.1-5.1-1.7-7.5-.4,0,0-.1,0-.2.1-.6.2-1.2.6-1.5,1.2-.8.8-1.4,1.8-1.8,2.9-13.6,21.8-28.6,33.2-39.1,38.5-2.7,1.4-5.5,2.5-8.1,3.6-1.4.6-2.8,1.2-4.2,1.8-1.9.8-3.7,1.7-5.2,2.7-1.5.9-2.9,2.2-3.8,3.8h0c-.7,1.5-1.4,3-1.5,4.9,0,1.8.5,3.7,1.4,6.1v.2c0,0,7.7,14.6,7.7,14.6,0,0,0,0,0,0,0,0,0,.1.1.2,0,.2.2.4.4.6.3.5.8,1.2,1.6,1.8,1.5,1.3,3.9,2.5,7.1,1.6,3.7-1.1,6.7-2.6,10-4.5.2-.1.5-.3.7-.4,1.6,4.7,3.9,10.6,6.8,15.6,1.7,3.1,3.8,5.9,6,8.1,2.2,2.1,5.1,3.7,8.3,3.4,9.2-.9,14.3-5.8,15.7-9.6.3-.9.5-1.9.4-2.9-.1-1.1-.5-2-1.1-2.7-.5-.7-1.2-1.2-1.7-1.5-.3-.2-.7-.5-1.1-.8-.2-.1-.3-.2-.5-.3-1.1-.7-3.7-3.1-6.4-6.8-2.4-3.2-4.7-7.2-6.1-11.7.3,0,.5-.1.8-.2,4.7-1.1,10.2-2.2,15.9-2.9,10.9-1.5,20.5-2.2,27.1-.8.3,0,.6.1.9.2,0,0,.2,0,.3,0,0,0,0,0,0,0,1.4.2,2.8,0,4.1-.6,2.5-1.3,3.7-3.8,4.2-6.4.5-2.6.4-5.7-.1-9.1-1-6.8-3.8-15.3-8.2-24ZM105.7,23c4.3,4.4,9,11.2,13.2,19.4,4.1,8.3,6.7,16.2,7.6,22.3.5,3.1.5,5.5.1,7.2-.3,1.8-.9,2.2-1.2,2.4-.1,0-.3.1-.6,0-.3,0-.7-.1-1-.2-.6-.2-1.4-.6-2.4-1.2-2.3-1.5-5.1-4.2-8-7.9-.5-.9-2-3.3-3.7-5.9-.3-.6-.7-1.1-1.1-1.7-1.1-1.7-2.2-3.5-3-4.9-.4-.7-.8-1.3-1.1-1.8-.1-.2-.3-.4-.3-.6,0,0,0-.1-.1-.2h0c0,0,0,0,0,0-4.1-8.3-6.7-16.2-7.6-22.3-.5-3.1-.5-5.5-.1-7.2,0-.2,0-.4.1-.5.4-.6.8-1.2,1.2-1.9.3-.1,1-.2,2.4.5,1.6.7,3.5,2.2,5.6,4.4ZM46.3,92.1c-.8.2-1.3,0-1.7-.4-.3-.2-.5-.5-.6-.7,0-.1-.1-.2-.1-.2,0,0,0,0,0,0h0s-7.6-14.4-7.6-14.4c-.9-2.3-1-3.2-1-3.7,0-.4.1-.8.9-2.5.1-.3.6-.8,1.7-1.5,1.1-.7,2.6-1.5,4.4-2.3,1.1-.5,2.4-1,3.8-1.6,1.4-.6,2.9-1.2,4.4-1.9,0,.3.2.6.3,1,.5,1.7,1.3,4,2.3,6.5,1.8,4.5,4.6,10.2,8.4,14.1-1.4.8-2.7,1.5-3.8,2.2-.9.5-1.7,1-2.5,1.4-3.2,1.8-5.8,3.1-8.8,4ZM80.5,98.8c3,4,6.1,6.9,7.8,8.1.3.2.5.3.7.4.3.2.6.4.8.6.2.1.3.2.3.3,0,0,0,0,0,.1-.5,1.3-3.4,5.2-10.9,5.8-.9,0-2.2-.3-3.9-1.9-1.7-1.6-3.3-3.9-5-6.7-2.9-5-5.2-11.1-6.7-15.6,1.7-1,3.5-2,5.7-3,1-.5,2.4-1.1,4.2-1.6,1.7,5.3,4.4,10,7,13.6ZM94.9,74.8c-5.9.8-11.6,1.9-16.5,3.1-4.8,1.2-9,2.5-11.7,3.9,0,0,0,0,0,0-.2-.3-.4-.6-.7-.9-3.2-3-5.9-8.1-7.8-12.8-.9-2.3-1.6-4.4-2.1-6-.2-.7-.3-1.2-.5-1.6,9.9-5.2,22.9-15,35.2-32.1,0,0,0,.1,0,.2,1,6.8,3.8,15.3,8.2,24,.3.5,1,1.7,1.8,3.1.9,1.4,2,3.2,3.1,4.9.4.6.7,1.2,1.1,1.7,1.8,2.9,3.3,5.3,3.6,5.8,0,.1.2.3.2.4,1.5,1.9,2.9,3.5,4.4,5-5.9,0-12.3.6-18.4,1.4Z"/>
          </g>
        </g>
      </g>
      <g class="cls-19">
        <g class="cls-10">
          <g>
            <path class="cls-2" d="M124,0h-52c-6.6,0-12,5.4-12,12v8c0,1.1.9,2,2,2s2-.9,2-2v-8c0-4.4,3.6-8,8-8h10.6l2.5,6.2c.9,2.3,3.1,3.8,5.6,3.8h14.6c2.5,0,4.7-1.5,5.6-3.8l2.5-6.2h10.6c4.4,0,8,3.6,8,8v8c0,1.1.9,2,2,2s2-.9,2-2v-8c0-6.6-5.4-12-12-12h0Z"/>
            <path class="cls-2" d="M134,102c-1.1,0-2,.9-2,2v4c0,4.4-3.6,8-8,8h-52c-4.4,0-8-3.6-8-8v-4c0-1.1-.9-2-2-2s-2,.9-2,2v4c0,6.6,5.4,12,12,12h52c6.6,0,12-5.4,12-12v-4c0-1.1-.9-2-2-2Z"/>
            <path class="cls-2" d="M90,90v-56c0-4.4-3.6-8-8-8h-36c-4.4,0-8,3.6-8,8v56c0,4.4,3.6,8,8,8h36c4.4,0,8-3.6,8-8ZM42,90v-56c0-2.2,1.8-4,4-4h36c2.2,0,4,1.8,4,4v56c0,2.2-1.8,4-4,4h-36c-2.2,0-4-1.8-4-4Z"/>
            <path class="cls-2" d="M150,26h-36c-4.4,0-8,3.6-8,8v56c0,4.4,3.6,8,8,8h36c4.4,0,8-3.6,8-8v-56c0-4.4-3.6-8-8-8ZM154,90c0,2.2-1.8,4-4,4h-36c-2.2,0-4-1.8-4-4v-56c0-2.2,1.8-4,4-4h36c2.2,0,4,1.8,4,4v56Z"/>
            <path class="cls-2" d="M78,70h-28c-1.1,0-2,.9-2,2s.9,2,2,2h28c1.1,0,2-.9,2-2s-.9-2-2-2Z"/>
            <path class="cls-2" d="M78,82h-28c-1.1,0-2,.9-2,2s.9,2,2,2h28c1.1,0,2-.9,2-2s-.9-2-2-2Z"/>
            <circle class="cls-2" cx="64" cy="50" r="10"/>
            <rect class="cls-2" x="116" y="36" width="12" height="12" rx="2" ry="2"/>
            <rect class="cls-2" x="136" y="36" width="12" height="12" rx="2" ry="2"/>
            <rect class="cls-2" x="116" y="56" width="12" height="12" rx="2" ry="2"/>
            <rect class="cls-2" x="136" y="56" width="12" height="12" rx="2" ry="2"/>
            <rect class="cls-2" x="116" y="76" width="12" height="12" rx="2" ry="2"/>
            <rect class="cls-2" x="136" y="76" width="12" height="12" rx="2" ry="2"/>
          </g>
        </g>
      </g>
      <g class="cls-19">
        <g class="cls-11">
          <path class="cls-2" d="M105.5,120c-2.3,0-4.1-1.9-4.1-4.1v-48.5c0-2.3,1.9-4.1,4.1-4.1h16.7c2.3,0,4.1,1.9,4.1,4.1v48.5c0,2.3-1.9,4.1-4.1,4.1h-16.7ZM105.5,66.7c-.4,0-.7.3-.7.7v48.5c0,.4.3.7.7.7h16.7c.4,0,.7-.3.7-.7v-48.5c0-.4-.3-.7-.7-.7h-16.7ZM137.1,120c-2.3,0-4.1-1.9-4.1-4.1V33.6c0-2.3,1.9-4.1,4.1-4.1h16.7c2.3,0,4.1,1.9,4.1,4.1v82.3c0,2.3-1.9,4.1-4.1,4.1h-16.7ZM137.1,32.8c-.4,0-.7.3-.7.7v82.3c0,.4.3.7.7.7h16.7c.4,0,.7-.3.7-.7V33.6c0-.4-.3-.7-.7-.7h-16.7ZM73.8,120c-2.3,0-4.1-1.9-4.1-4.1v-60.1c0-2.3,1.9-4.1,4.1-4.1h16.7c2.3,0,4.1,1.9,4.1,4.1v60.1c0,2.3-1.9,4.1-4.1,4.1h-16.7ZM73.8,55c-.4,0-.7.3-.7.7v60.1c0,.4.3.7.7.7h16.7c.4,0,.7-.3.7-.7v-60.1c0-.4-.3-.7-.7-.7h-16.7ZM42.2,120c-2.3,0-4.1-1.9-4.1-4.1v-30.3c0-2.3,1.9-4.1,4.1-4.1h16.7c2.3,0,4.1,1.9,4.1,4.1v30.3c0,2.3-1.9,4.1-4.1,4.1h-16.7ZM42.2,84.8c-.4,0-.7.3-.7.7v30.3c0,.4.3.7.7.7h16.7c.4,0,.7-.3.7-.7v-.5h0v-29.8c0-.4-.3-.7-.7-.7h-16.7ZM50.5,70.9c-5.1,0-9.3-4.2-9.3-9.3,0-5.1,4.2-9.3,9.3-9.3s3.6.6,5.2,1.6l18.8-19.2c-1.1-1.6-1.7-3.4-1.7-5.3,0-5.1,4.2-9.3,9.3-9.3s9.3,4.2,9.3,9.3,0,1-.1,1.6l14.5,5.3c1.7-2.8,4.7-4.5,8-4.5s3.7.6,5.3,1.6l18.8-18.7c-1.1-1.6-1.6-3.4-1.6-5.3,0-5.1,4.2-9.3,9.3-9.3s9.3,4.2,9.3,9.3-4.2,9.3-9.3,9.3-3.7-.6-5.3-1.6l-18.7,18.7c1.1,1.6,1.6,3.4,1.6,5.3,0,5.1-4.2,9.3-9.3,9.3s-9.3-4.2-9.3-9.3,0-1,.1-1.6l-14.5-5.3c-1.7,2.8-4.7,4.5-8,4.5s-3.6-.6-5.2-1.6l-18.9,19.2c1.1,1.6,1.7,3.4,1.7,5.3,0,5.1-4.2,9.3-9.3,9.3ZM50.5,55.7c-3.3,0-5.9,2.6-5.9,5.9s2.6,5.9,5.9,5.9,5.9-2.6,5.9-5.9-2.6-5.9-5.9-5.9ZM113.8,35.1c-3.2,0-5.9,2.6-5.9,5.9,0,3.2,2.6,5.9,5.9,5.9s5.9-2.6,5.9-5.9-2.6-5.9-5.9-5.9ZM82.2,23.4c-3.3,0-5.9,2.6-5.9,5.9s2.6,5.9,5.9,5.9,5.9-2.6,5.9-5.9-2.6-5.9-5.9-5.9ZM145.5,3.4c-3.2,0-5.9,2.6-5.9,5.9,0,3.2,2.6,5.9,5.9,5.9s5.9-2.6,5.9-5.9-2.6-5.9-5.9-5.9Z"/>
        </g>
      </g>
      <g class="cls-19">
        <g class="cls-17">
          <path class="cls-2" d="M98,64c-8.4,0-15.2,6.8-15.2,15.2s6.8,15.2,15.2,15.2,15.2-6.8,15.2-15.2-6.8-15.2-15.2-15.2ZM98,89.6c-5.7,0-10.4-4.7-10.4-10.4s4.7-10.4,10.4-10.4,10.4,4.7,10.4,10.4-4.7,10.4-10.4,10.4ZM164.4,55.2c0-14.6-11.8-26.4-26.4-26.4s-.7,0-1,0C131.8,11.7,116,0,98,0s-33.8,11.7-39,28.8c-.3,0-.7,0-1,0-14.6,0-26.4,11.8-26.4,26.4s11.4,25.9,25.6,26.4v1c0,2.9,2.1,5.4,5,5.9l5.7.9c.4,0,.8.4.9.8.2.7.5,1.3.8,2,.2.4.1.8-.1,1.2l-3.3,4.7c-1.7,2.4-1.4,5.7.6,7.7l4.7,4.7c2.1,2.1,5.3,2.4,7.7.6l4.7-3.3c.3-.2.8-.3,1.2-.1.6.3,1.3.6,2,.8.4.1.7.5.8.9l.9,5.7c.5,2.9,3,5,5.9,5h6.7c2.9,0,5.4-2.1,5.9-5l.9-5.7c0-.4.4-.8.8-.9.7-.2,1.3-.5,2-.8.4-.2.8-.1,1.2.1l4.7,3.3c2.4,1.7,5.7,1.4,7.7-.6l4.7-4.7c2.1-2.1,2.4-5.3.6-7.7l-3.3-4.7c-.2-.3-.3-.8-.1-1.2.3-.6.6-1.3.8-2,.1-.4.5-.7.9-.8l5.7-.9c2.9-.5,5-3,5-5.9v-1c14.2-.4,25.6-12.1,25.6-26.4h0ZM134,82.6c0,.6-.4,1.1-1,1.2l-5.7.9c-2.1.4-3.9,1.8-4.6,3.8-.2.6-.4,1.1-.7,1.7-.9,1.9-.6,4.2.6,5.9l3.3,4.7c.3.5.3,1.1-.1,1.6l-4.7,4.7c-.4.4-1.1.5-1.6.1l-4.7-3.3c-1.7-1.2-4-1.5-5.9-.6-.5.2-1.1.5-1.7.7-2,.7-3.5,2.5-3.8,4.6l-.9,5.7c0,.6-.6,1-1.2,1h-6.7c-.6,0-1.1-.4-1.2-1l-.9-5.7c-.4-2.1-1.8-3.9-3.8-4.6-.6-.2-1.1-.4-1.7-.7-.8-.4-1.6-.5-2.5-.5-1.2,0-2.5.4-3.5,1.1l-4.7,3.3c-.5.3-1.1.3-1.6-.1l-4.7-4.7c-.4-.4-.5-1.1-.1-1.6l3.3-4.7c1.2-1.7,1.5-4,.6-5.9-.2-.5-.5-1.1-.7-1.7-.7-2-2.5-3.5-4.6-3.8l-5.7-.9c-.6,0-1-.6-1-1.2v-6.7c0-.6.4-1.1,1-1.2l5.7-.9c2.1-.4,3.9-1.8,4.6-3.8.2-.6.4-1.1.7-1.7.9-1.9.6-4.2-.6-5.9l-3.3-4.7c-.3-.5-.3-1.1.1-1.6l4.7-4.7c.4-.4,1.1-.5,1.6-.1l4.7,3.3c1.7,1.2,4,1.5,5.9.6.5-.2,1.1-.5,1.7-.7,2-.7,3.5-2.5,3.8-4.6l.9-5.7c0-.6.6-1,1.2-1h6.7c.6,0,1.1.4,1.2,1l.9,5.7c.4,2.1,1.8,3.9,3.8,4.6.6.2,1.1.4,1.7.7,1.9.9,4.2.6,5.9-.6l4.7-3.3c.5-.4,1.1-.3,1.6.1l4.7,4.7c.4.4.5,1.1.1,1.6l-3.3,4.7c-1.2,1.7-1.5,4-.6,5.9.2.5.5,1.1.7,1.7.7,2,2.5,3.5,4.6,3.8l5.7.9c.6,0,1,.6,1,1.2v6.7s0,0,0,0ZM138.8,76.8v-.9c0-2.9-2.1-5.4-5-5.9l-5.7-.9c-.4,0-.8-.4-.9-.8-.2-.7-.5-1.3-.8-2-.2-.4-.1-.8.1-1.2l3.3-4.7c1.7-2.4,1.4-5.7-.6-7.7l-4.7-4.7c-2.1-2.1-5.3-2.4-7.7-.6l-4.7,3.3c-.3.2-.8.3-1.2.1-.6-.3-1.3-.6-2-.8-.4-.1-.7-.5-.8-.9l-.9-5.7c-.5-2.9-3-5-5.9-5h-6.7c-2.9,0-5.4,2.1-5.9,5l-.9,5.7c0,.4-.4.8-.8.9-.7.2-1.3.5-2,.8-.4.2-.8.1-1.2-.1l-4.7-3.3c-2.4-1.7-5.7-1.4-7.7.6l-4.7,4.7c-2.1,2.1-2.4,5.3-.6,7.7l3.3,4.7c.2.3.3.8.1,1.2-.3.6-.6,1.3-.8,2-.1.4-.5.7-.9.8l-5.7.9c-2.9.5-5,3-5,5.9v.9c-11.5-.4-20.8-9.9-20.8-21.6s9.7-21.6,21.6-21.6,1.7,0,2.5.1c1.2.1,2.3-.6,2.6-1.8,4-16,18.4-27.2,34.9-27.2s30.9,11.2,34.9,27.2c.3,1.2,1.4,1.9,2.6,1.8.8,0,1.6-.1,2.5-.1,11.9,0,21.6,9.7,21.6,21.6,0,11.7-9.3,21.1-20.8,21.6h0Z"/>
        </g>
      </g>
      <g class="cls-19">
        <g class="cls-22">
          <path class="cls-2" d="M90.8,40.4c.9,3.5,4.1,5.9,7.7,5.9h3v8.2c.1,1,1,1.9,2,1.8.4,0,.8-.1,1.1-.4l13.1-9.7h16.2c3.6,0,6.8-2.4,7.7-5.9l8.3-30.2c1.2-4.3-1.3-8.7-5.6-9.9C143.7,0,143,0,142.3,0h-52c-4.4,0-8,3.6-8,8,0,.7,0,1.4.3,2.1l8.3,30.2ZM86.8,5.4c.8-1.1,2.1-1.7,3.4-1.7h52c2.4,0,4.3,1.9,4.3,4.3,0,.4,0,.8-.2,1.1l-8.3,30.2c-.5,1.9-2.2,3.2-4.2,3.2h-16.8c-.4,0-.8.1-1.1.4l-10.7,7.9v-6.4c-.1-1-.9-1.8-2-1.8h-4.8c-1.9,0-3.7-1.3-4.2-3.2l-8.3-30.2c-.4-1.3-.1-2.7.7-3.7h0ZM99.2,17.4c0-1,.8-1.9,1.9-1.9h15.2c1,0,1.9.8,1.9,1.9,0,1-.8,1.9-1.9,1.9h-15.2c-1,0-1.9-.8-1.9-1.9h0ZM99.2,28c0-1,.8-1.9,1.9-1.9h30.3c1,0,1.9.8,1.9,1.9,0,1-.8,1.9-1.9,1.9h-30.3c-1,0-1.9-.8-1.9-1.9h0ZM164,116.3h-11.5c2.8-2.6,4.5-6.3,4.5-10.2v-12.9c0-6.5-4.5-12.1-10.8-13.6,6.6-5.3,7.7-14.9,2.4-21.5-5.3-6.6-14.9-7.7-21.5-2.4-6.6,5.3-7.7,14.9-2.4,21.5.7.9,1.5,1.7,2.4,2.4-5,1.2-9,5-10.3,10h-30c.1-.7.2-1.5.2-2.2v-14.7c0-7.4-5.3-13.8-12.6-15.3,7.6-5.7,9.1-16.4,3.4-24-5.7-7.6-16.4-9.1-24-3.4-7.6,5.7-9.1,16.4-3.4,24,1,1.3,2.1,2.5,3.4,3.4-7.3,1.4-12.6,7.8-12.6,15.3v14.7c0,.7,0,1.5.2,2.2h-9.4c-1,0-1.9.8-1.9,1.9h0v13.7c0,1,.8,1.9,1.9,1.9h84.4c.3,3.5,1.8,6.8,4.4,9.2h-11.5c-1,0-1.8.9-1.8,1.9,0,1,.8,1.8,1.8,1.8h54.9c1,0,1.9-.8,1.9-1.8,0-1-.8-1.9-1.8-1.9,0,0,0,0-.1,0ZM125,67.7c0-6.4,5.2-11.6,11.6-11.6s11.6,5.2,11.6,11.6c0,6.4-5.2,11.6-11.6,11.6-6.4,0-11.6-5.2-11.6-11.6ZM50.7,43.8c0-7.4,6-13.4,13.4-13.4s13.4,6,13.4,13.4c0,7.4-6,13.4-13.4,13.4-7.4,0-13.4-6-13.4-13.4ZM44.9,87.4v-14.7c0-6.5,5.3-11.8,11.8-11.8h14.7c6.5,0,11.8,5.3,11.8,11.8v14.7c0,.7,0,1.5-.2,2.2h-37.8c-.1-.7-.2-1.5-.2-2.2ZM116.2,103.3H33.8v-10h82.4v10ZM130.1,116.3c-5.6,0-10.2-4.6-10.2-10.2v-12.9c0-5.6,4.6-10.2,10.2-10.2h12.9c5.6,0,10.2,4.6,10.2,10.2v12.9c0,5.6-4.6,10.2-10.2,10.2h-12.9Z"/>
        </g>
      </g>
      <g class="cls-19">
        <g class="cls-18">
          <g>
            <path class="cls-2" d="M159.4,0c-6.9,0-12.5,5.6-12.5,12.5s1.6,7,4.2,9.3l-12.4,17.5c-4.6-3-9.9-4.6-15.4-4.6s-14.7,2.9-20,8.3c-.4.4-.8.9-1.2,1.4l-7.7-6.1c.8-1.6,1.3-3.5,1.3-5.4,0-6.9-5.6-12.5-12.5-12.5s-12.5,5.6-12.5,12.5.7,4.5,1.8,6.4l-8.2,6.9,3,3.5,8.3-7c2.1,1.7,4.8,2.7,7.7,2.7s6.3-1.3,8.5-3.4l7.7,6.1c-2.8,4.4-4.3,9.6-4.3,14.9s2.4,13.2,6.7,18.3l-4,4-5.8-5.8-25.6,25.6,14.8,14.8,25.6-25.6-5.8-5.8,4-4c5.1,4.4,11.5,6.7,18.3,6.7s14.7-2.9,20-8.3c11-11,11-29,0-40-.3-.3-.6-.6-.9-.9l12.7-18c1.4.5,2.8.8,4.4.8,6.9,0,12.5-5.6,12.5-12.5,0-6.9-5.6-12.5-12.5-12.5ZM83,40.7c-4.3,0-7.9-3.5-7.9-7.9s3.5-7.9,7.9-7.9,7.9,3.5,7.9,7.9-3.5,7.9-7.9,7.9ZM81,113.5l-8.2-8.2,19.1-19.1,8.2,8.2-19.1,19.1ZM106.5,46.3c4.5-4.5,10.4-6.9,16.7-6.9s9,1.3,12.8,3.7l-6.5,9.2c-1.8-1-3.9-1.6-6.1-1.6-3.4,0-6.5,1.4-8.8,3.6l-9-7.1c.3-.3.6-.7.9-1ZM123.3,55.3c4.3,0,7.9,3.5,7.9,7.9s-3.5,7.9-7.9,7.9-7.9-3.5-7.9-7.9c0-4.3,3.5-7.9,7.9-7.9ZM140,46.3c9.2,9.2,9.2,24.3,0,33.5-4.5,4.5-10.4,6.9-16.8,6.9s-12.3-2.5-16.7-6.9c-4.5-4.5-6.9-10.4-6.9-16.8s1.2-8.4,3.3-12.1l9.1,7.2c-.7,1.5-1.1,3.3-1.1,5.1,0,6.9,5.6,12.5,12.5,12.5s12.5-5.6,12.5-12.5-1.1-5.7-2.8-7.9l6.6-9.3c.1.1.2.2.4.3ZM159.4,20.4c-4.3,0-7.9-3.5-7.9-7.9s3.5-7.9,7.9-7.9,7.9,3.5,7.9,7.9-3.5,7.9-7.9,7.9Z"/>
            <rect class="cls-2" x="57" y="50.2" width="6.2" height="4.6" transform="translate(-19.7 51) rotate(-40.1)"/>
            <path class="cls-2" d="M51.5,56.7l-8.8,7.4c-1.8-1-3.9-1.6-6.1-1.6-6.9,0-12.5,5.6-12.5,12.5s5.6,12.5,12.5,12.5,12.5-5.6,12.5-12.5-1.1-5.7-2.8-7.9l8.2-6.9-3-3.5ZM36.6,82.9c-4.3,0-7.9-3.5-7.9-7.9s3.5-7.9,7.9-7.9,7.9,3.5,7.9,7.9-3.5,7.9-7.9,7.9Z"/>
          </g>
        </g>
      </g>
      <g class="cls-19">
        <g class="cls-6">
          <path class="cls-1" d="M49.5,36.9h-13.8c-1.3,0-2.3-1-2.3-2.3V2.3c0-1.3,1-2.3,2.3-2.3h124.6c1.3,0,2.3,1,2.3,2.3v32.3c0,1.3-1,2.3-2.3,2.3h-13.8v4.6h13.8c1.3,0,2.3,1,2.3,2.3v32.3c0,1.3-1,2.3-2.3,2.3h-1.4c2.4,4.1,3.7,8.8,3.7,13.8,0,15.3-12.4,27.7-27.7,27.7s-27.7-12.4-27.7-27.7,1.3-9.8,3.7-13.8H35.7c-1.3,0-2.3-1-2.3-2.3v-32.3c0-1.3,1-2.3,2.3-2.3h13.8v-4.6ZM144.2,32.3h13.8V4.6H38v27.7h106.2ZM141.8,41.5v-4.6H54.2v4.6h87.7ZM155.6,73.8h2.4v-27.7H38v27.7h76.3c5.1-5.7,12.4-9.2,20.6-9.2s15.6,3.6,20.6,9.2h0ZM116.5,78.5c-2.9,3.9-4.6,8.7-4.6,13.8,0,12.7,10.3,23.1,23.1,23.1s23.1-10.3,23.1-23.1-1.7-10-4.6-13.8c-1.3-1.7-2.9-3.3-4.6-4.6-3.9-2.9-8.6-4.6-13.8-4.6s-10,1.7-13.8,4.6c-1.7,1.3-3.3,2.9-4.6,4.6ZM121.1,20.8c-1.3,0-2.3-1-2.3-2.3s1-2.3,2.3-2.3h9.2c1.3,0,2.3,1,2.3,2.3s-1,2.3-2.3,2.3h-9.2ZM139.5,20.8c-1.3,0-2.3-1-2.3-2.3s1-2.3,2.3-2.3h9.2c1.3,0,2.3,1,2.3,2.3s-1,2.3-2.3,2.3h-9.2ZM102.6,20.8c-1.3,0-2.3-1-2.3-2.3s1-2.3,2.3-2.3h9.2c1.3,0,2.3,1,2.3,2.3s-1,2.3-2.3,2.3h-9.2ZM47.2,20.8c-1.3,0-2.3-1-2.3-2.3s1-2.3,2.3-2.3h39.2c1.3,0,2.3,1,2.3,2.3s-1,2.3-2.3,2.3h-39.2ZM121.8,92.8c-.9-.9-.9-2.4,0-3.3.9-.9,2.4-.9,3.3,0l6.6,6.6c2.9-7.2,7.8-11.6,14-14.1,1.2-.5,2.5.1,3,1.3.5,1.2-.1,2.5-1.3,3-5.9,2.3-10.3,6.9-12.5,14.6-.2.8-.9,1.4-1.7,1.6-.8.2-1.6,0-2.2-.6l-9.2-9.2ZM121.1,62.3c-1.3,0-2.3-1-2.3-2.3s1-2.3,2.3-2.3h9.2c1.3,0,2.3,1,2.3,2.3s-1,2.3-2.3,2.3h-9.2ZM102.6,62.3c-1.3,0-2.3-1-2.3-2.3s1-2.3,2.3-2.3h9.2c1.3,0,2.3,1,2.3,2.3s-1,2.3-2.3,2.3h-9.2ZM139.5,62.3c-1.3,0-2.3-1-2.3-2.3s1-2.3,2.3-2.3h9.2c1.3,0,2.3,1,2.3,2.3s-1,2.3-2.3,2.3h-9.2ZM47.2,62.3c-1.3,0-2.3-1-2.3-2.3s1-2.3,2.3-2.3h39.2c1.3,0,2.3,1,2.3,2.3s-1,2.3-2.3,2.3h-39.2Z"/>
        </g>
      </g>
      <g class="cls-19">
        <g class="cls-20">
          <g>
            <path class="cls-2" d="M94.6,91.2l-16.1-29.5-.2-.2s-.1-.2-.2-.2v-.2c-.1,0-.3-.1-.3-.1l-.3-.2h0c0,0-.3-.2-.3-.2h-.6c0-.1-.4-.1-.4-.1-.1,0-.2,0-.3,0h0s0,0,0,0h0s0,0-.1,0h-.2c0,.2-.2.2-.2.3,0,0,0,0-.1.1l-.2.2v.2c-.1,0-.2.1-.2.1l-16.1,29.6c-.3.5-.4,1.1-.2,1.7.2.6.5,1,1.1,1.3.3.2.7.3,1,.3.8,0,1.5-.4,1.9-1.1l6-11h16.5l6,11c.4.7,1.1,1.1,1.9,1.1h0c.4,0,.7,0,1.1-.3.5-.3.9-.7,1.1-1.3.2-.6.1-1.1-.2-1.7ZM70.6,78l5.9-10.7,5.8,10.7h-11.7Z"/>
            <path class="cls-2" d="M94.6,91.2l-16.1-29.5-.2-.2s-.1-.2-.2-.2v-.2c-.1,0-.3-.1-.3-.1l-.3-.2h0c0,0-.3-.2-.3-.2h-.6c0-.1-.4-.1-.4-.1-.1,0-.2,0-.3,0h0s0,0,0,0h0s0,0-.1,0h-.2c0,.2-.2.2-.2.3,0,0,0,0-.1.1l-.2.2v.2c-.1,0-.2.1-.2.1l-16.1,29.6c-.3.5-.4,1.1-.2,1.7.2.6.5,1,1.1,1.3.3.2.7.3,1,.3.8,0,1.5-.4,1.9-1.1l6-11h16.5l6,11c.4.7,1.1,1.1,1.9,1.1h0c.4,0,.7,0,1.1-.3.5-.3.9-.7,1.1-1.3.2-.6.1-1.1-.2-1.7ZM70.6,78l5.9-10.7,5.8,10.7h-11.7Z"/>
            <path class="cls-2" d="M150.4,0h-61.8c-4.2,0-7.6,3.4-7.6,7.6v39.5h-35.5c-4.2,0-7.6,3.4-7.6,7.6v45.7c0,4.2,3.4,7.6,7.6,7.6h7.2v9.9c0,.9.5,1.7,1.3,2,.3.1.6.2.8.2h0c.6,0,1.1-.2,1.5-.6l11.9-11.5h39c4.2,0,7.6-3.4,7.6-7.6v-39.5h12.7l11.9,11.5c.4.4.9.6,1.5.6s.6,0,.8-.2c.8-.3,1.3-1.1,1.3-2v-9.9h7.2c4.2,0,7.6-3.4,7.6-7.6V7.6c0-4.2-3.4-7.6-7.6-7.6ZM110.6,100.3c0,1.8-1.4,3.2-3.2,3.2h-39.9c-.6,0-1.1.2-1.5.6l-8.8,8.5v-6.9c0-1.2-1-2.2-2.2-2.2h-9.4c-1.8,0-3.2-1.4-3.2-3.2v-45.7c0-1.8,1.4-3.2,3.2-3.2h35.5v1.8c0,4.2,3.4,7.6,7.6,7.6h22v39.5ZM153.6,53.3c0,1.8-1.4,3.2-3.2,3.2h-9.4c-1.2,0-2.2,1-2.2,2.2v6.9l-8.8-8.5c-.4-.4-.9-.6-1.5-.6h-39.9c-1.8,0-3.2-1.4-3.2-3.2V7.6c0-1.8,1.4-3.2,3.2-3.2h61.8c1.8,0,3.2,1.4,3.2,3.2v45.7Z"/>
            <path class="cls-2" d="M150.4,0h-61.8c-4.2,0-7.6,3.4-7.6,7.6v39.5h-35.5c-4.2,0-7.6,3.4-7.6,7.6v45.7c0,4.2,3.4,7.6,7.6,7.6h7.2v9.9c0,.9.5,1.7,1.3,2,.3.1.6.2.8.2h0c.6,0,1.1-.2,1.5-.6l11.9-11.5h39c4.2,0,7.6-3.4,7.6-7.6v-39.5h12.7l11.9,11.5c.4.4.9.6,1.5.6s.6,0,.8-.2c.8-.3,1.3-1.1,1.3-2v-9.9h7.2c4.2,0,7.6-3.4,7.6-7.6V7.6c0-4.2-3.4-7.6-7.6-7.6ZM110.6,100.3c0,1.8-1.4,3.2-3.2,3.2h-39.9c-.6,0-1.1.2-1.5.6l-8.8,8.5v-6.9c0-1.2-1-2.2-2.2-2.2h-9.4c-1.8,0-3.2-1.4-3.2-3.2v-45.7c0-1.8,1.4-3.2,3.2-3.2h35.5v1.8c0,4.2,3.4,7.6,7.6,7.6h22v39.5ZM153.6,53.3c0,1.8-1.4,3.2-3.2,3.2h-9.4c-1.2,0-2.2,1-2.2,2.2v6.9l-8.8-8.5c-.4-.4-.9-.6-1.5-.6h-39.9c-1.8,0-3.2-1.4-3.2-3.2V7.6c0-1.8,1.4-3.2,3.2-3.2h61.8c1.8,0,3.2,1.4,3.2,3.2v45.7Z"/>
            <path class="cls-2" d="M127.2,24.8v-.4h8.5c1.2,0,2.2-1,2.2-2.2s-.7-1.9-1.7-2.1h0s-14.5,0-14.5,0v-4.5c0-1.2-1-2.2-2.2-2.2s-2.2,1-2.2,2.2v4.5h-14c-1.2,0-2.2,1-2.2,2.2s1,2.2,2.2,2.2h8.3v.4c.7,2.8,1.7,5.4,3.1,7.9.5.9,1.1,1.8,1.7,2.6l.3.4-.3.3c-3.4,3.4-7.7,5.8-12.3,6.9-.6.2-1,.5-1.3,1-.3.5-.4,1.1-.2,1.7.3.9,1.1,1.6,2.1,1.6s.4,0,.6,0c5.2-1.4,10-4.1,13.9-7.9l.4-.3.4.3c3.9,3.7,8.7,6.4,13.9,7.8.2,0,.4,0,.6,0,1,0,1.8-.7,2.1-1.6.3-1.2-.4-2.4-1.5-2.7-4.7-1.2-8.9-3.6-12.3-7l-.3-.3.2-.4c2.2-3.2,3.8-6.8,4.7-10.6ZM119.9,31.6l-.4.7-.4-.7c-1.2-2-2.1-4.1-2.7-6.4l-.2-.6h6.7l-.2.6c-.6,2.2-1.5,4.4-2.7,6.4Z"/>
            <path class="cls-2" d="M127.2,24.8v-.4h8.5c1.2,0,2.2-1,2.2-2.2s-.7-1.9-1.7-2.1h0s-14.5,0-14.5,0v-4.5c0-1.2-1-2.2-2.2-2.2s-2.2,1-2.2,2.2v4.5h-14c-1.2,0-2.2,1-2.2,2.2s1,2.2,2.2,2.2h8.3v.4c.7,2.8,1.7,5.4,3.1,7.9.5.9,1.1,1.8,1.7,2.6l.3.4-.3.3c-3.4,3.4-7.7,5.8-12.3,6.9-.6.2-1,.5-1.3,1-.3.5-.4,1.1-.2,1.7.3.9,1.1,1.6,2.1,1.6s.4,0,.6,0c5.2-1.4,10-4.1,13.9-7.9l.4-.3.4.3c3.9,3.7,8.7,6.4,13.9,7.8.2,0,.4,0,.6,0,1,0,1.8-.7,2.1-1.6.3-1.2-.4-2.4-1.5-2.7-4.7-1.2-8.9-3.6-12.3-7l-.3-.3.2-.4c2.2-3.2,3.8-6.8,4.7-10.6ZM119.9,31.6l-.4.7-.4-.7c-1.2-2-2.1-4.1-2.7-6.4l-.2-.6h6.7l-.2.6c-.6,2.2-1.5,4.4-2.7,6.4Z"/>
          </g>
        </g>
      </g>
      <g class="cls-19">
        <g class="cls-5">
          <g>
            <path class="cls-2" d="M114,64c-13.2,0-24-10.8-24-24s10.8-24,24-24,9.4,1.4,13.4,4.1c.9.6,1.2,1.9.5,2.8s-1.9,1.2-2.8.5c-3.3-2.2-7.1-3.4-11.1-3.4-11,0-20,9-20,20s9,20,20,20,20-9,20-20,0-1.9-.2-2.8c-.2-1.1.6-2.1,1.7-2.3,1.1-.2,2.1.6,2.3,1.7.2,1.1.2,2.3.2,3.4,0,13.2-10.8,24-24,24h0Z"/>
            <path class="cls-2" d="M120,70c-1.1,0-2,.9-2,2v38c0,3.3-2.7,6-6,6h-44c-3.3,0-6-2.7-6-6V10c0-3.3,2.7-6,6-6h44c3.3,0,6,2.7,6,6s.9,2,2,2,2-.9,2-2c0-5.5-4.5-10-10-10h-44c-5.5,0-10,4.5-10,10v100c0,5.5,4.5,10,10,10h44c5.5,0,10-4.5,10-10v-38c0-1.1-.9-2-2-2Z"/>
            <path class="cls-2" d="M98,10c0-1.1-.9-2-2-2h-12c-1.1,0-2,.9-2,2s.9,2,2,2h12c1.1,0,2-.9,2-2Z"/>
            <path class="cls-2" d="M137.4,23.3c-.8-.8-2-.8-2.8,0l-19.9,19.9-9.3-9.3c-.8-.8-2-.8-2.8,0s-.8,2,0,2.8l10.7,10.7c.4.4.9.6,1.4.6s1-.2,1.4-.6l21.3-21.3c.8-.8.8-2,0-2.8h0Z"/>
            <path class="cls-2" d="M78.9,68h10.3c2.1,0,3.9,1.7,3.9,3.9s.9,2,2,2,2-.9,2-2c0-4.3-3.5-7.9-7.9-7.9h-3.1v-2c0-1.1-.9-2-2-2s-2,.9-2,2v2h-3.1c-4.3,0-7.9,3.5-7.9,7.9s2.1,6.3,5.2,7.4l14.3,5.2c1.5.6,2.5,2,2.5,3.7s-1.7,3.9-3.9,3.9h-10.3c-2.1,0-3.9-1.7-3.9-3.9s-.9-2-2-2-2,.9-2,2c0,4.3,3.5,7.9,7.9,7.9h3.1v2c0,1.1.9,2,2,2s2-.9,2-2v-2h3.1c4.3,0,7.9-3.5,7.9-7.9s-2.1-6.3-5.2-7.4l-14.3-5.2c-1.5-.6-2.5-2-2.5-3.6s1.7-3.9,3.9-3.9h0Z"/>
          </g>
        </g>
      </g>
      <g class="cls-7">
        <g>
          <path class="cls-2" d="M148.5,0H47.5c-6.1,0-11,4.9-11,11v76.8c0,6.1,4.9,11,11,11h17.5c-1.1,2.3-.6,5,1.1,6.7l4.6,4.6c2.1,2.1,5.3,2.3,7.7.6l4.7-3.5c.4-.3,1-.4,1.5-.2,1.1.7,3.1.7,3.4,2.2l.9,5.7c.4,2.9,2.9,5,5.8,5h6.5c2.9,0,5.4-2.1,5.8-5l.9-5.8c.3-1.5,2.3-1.5,3.4-2.2.5-.2,1-.2,1.5.2l4.7,3.5c2.3,1.7,5.6,1.5,7.7-.6l4.6-4.6c1.8-1.8,2.2-4.5,1.1-6.7h17.5c6.1,0,11-4.9,11-11V11c0-6.1-4.9-11-11-11ZM155,11v9.9h-53.8c-1,0-1.8-.6-2.1-1.5l-4.8-14.9h54.2c3.6,0,6.6,2.9,6.6,6.6ZM126.7,102.4l-4.6,4.6c-.5.5-1.4.6-1.9.1l-4.7-3.5c-2.5-2-5.5-.9-8.1.3-2,.7-3.5,2.5-3.8,4.6l-.9,5.8c-.1.7-.7,1.3-1.5,1.3h-6.5c-.7,0-1.4-.5-1.5-1.3l-.9-5.7c-.3-2.1-1.8-3.9-3.8-4.6-2.6-1.2-5.6-2.3-8.1-.3l-4.7,3.5c-.6.4-1.4.4-1.9-.1l-4.6-4.6c-.5-.5-.6-1.4-.1-1.9l3.5-4.7c2-2.5.9-5.5-.3-8.1-.7-2-2.5-3.5-4.6-3.8l-5.8-.9c-.7-.1-1.3-.7-1.3-1.5v-6.5c0-.7.5-1.4,1.3-1.5l5.7-.9c3.2-.3,4.6-3.2,5.5-5.9.9-1.9.7-4.2-.6-5.9l-3.5-4.7c-.4-.6-.4-1.4.1-1.9l4.6-4.6c.5-.5,1.4-.6,1.9-.1l4.7,3.5c2.5,2,5.5.9,8.1-.3,2-.7,3.5-2.5,3.8-4.6l.9-5.8c.1-.7.7-1.3,1.5-1.3h6.5c.7,0,1.4.5,1.5,1.3l.9,5.7c.3,3.2,3.2,4.6,5.9,5.5,1.9.9,4.2.7,5.9-.6l4.7-3.5c.6-.4,1.4-.4,1.9.1l4.6,4.6c.5.5.6,1.4.1,1.9l-3.5,4.7c-2,2.5-.9,5.5.3,8.1.7,2,2.5,3.5,4.6,3.8l5.8.9c.7.1,1.3.7,1.3,1.5v6.5c0,.7-.5,1.4-1.3,1.5l-5.7.9c-3.2.3-4.6,3.2-5.5,5.9-.9,1.9-.7,4.2.6,5.9l3.5,4.7c.4.6.4,1.4-.1,1.9ZM148.5,94.3h-20.7l-.9-1.2c-.3-.4-.4-1-.2-1.5.7-1.1.6-3.1,2.2-3.4l5.7-.9c2.9-.4,5-2.9,5-5.8v-6.5c0-2.9-2.1-5.4-5-5.8l-5.8-.9c-.5,0-1-.4-1.2-.9-.2-1.3-1.7-2.7-.9-4l3.5-4.7c1.7-2.3,1.5-5.6-.6-7.7l-4.6-4.6c-2.1-2-5.3-2.3-7.7-.6l-4.7,3.5c-1.3.9-2.7-.6-4-.9-.5-.2-.9-.6-.9-1.2l-.9-5.7c-.4-2.9-2.9-5-5.8-5h-6.5c-2.9,0-5.4,2.1-5.8,5l-.9,5.8c0,.5-.4,1-.9,1.2-1.3.3-2.7,1.7-4,.9l-4.7-3.5c-2.3-1.7-5.6-1.5-7.7.6l-4.6,4.6c-2,2.1-2.3,5.3-.6,7.7l3.5,4.7c.3.4.4,1,.2,1.5-.7,1.1-.6,3.1-2.2,3.4l-5.7.9c-2.9.4-5,2.9-5,5.8v6.5c0,2.9,2.1,5.4,5,5.8l5.8.9c.5,0,1,.4,1.2.9.3,1.3,1.7,2.7.9,4l-.9,1.2h-20.7c-3.6,0-6.6-2.9-6.6-6.6V11c0-3.6,2.9-6.6,6.6-6.6h42.1l5.3,16.3c.9,2.7,3.4,4.6,6.3,4.6h53.8v62.5c0,3.6-2.9,6.6-6.6,6.6Z"/>
          <path class="cls-2" d="M57.4,12.1h-6.6c-1.2,0-2.2,1-2.2,2.2,0,1.2,1,2.1,2.2,2.2h6.6c1.2,0,2.2-1,2.2-2.2,0-1.2-1-2.1-2.2-2.2Z"/>
          <path class="cls-2" d="M71.7,12.1h-6.6c-1.2,0-2.2,1-2.2,2.2,0,1.2,1,2.1,2.2,2.2h6.6c1.2,0,2.2-1,2.2-2.2,0-1.2-1-2.1-2.2-2.2Z"/>
          <path class="cls-2" d="M85.9,12.1h-6.6c-1.2,0-2.2,1-2.2,2.2,0,1.2,1,2.1,2.2,2.2h6.6c1.2,0,2.2-1,2.2-2.2,0-1.2-1-2.1-2.2-2.2Z"/>
          <path class="cls-2" d="M139.2,14.8c1.2,0,2.2-1,2.2-2.2,0-1.2-1-2.1-2.2-2.2-1.2,0-2.2,1-2.2,2.2,0,1.2,1,2.1,2.2,2.2Z"/>
          <path class="cls-2" d="M130.4,14.8c1.2,0,2.2-1,2.2-2.2,0-1.2-1-2.1-2.2-2.2-1.2,0-2.2,1-2.2,2.2,0,1.2,1,2.1,2.2,2.2Z"/>
          <path class="cls-2" d="M121.7,14.8c1.2,0,2.2-1,2.2-2.2,0-1.2-1-2.1-2.2-2.2-1.2,0-2.2,1-2.2,2.2,0,1.2,1,2.1,2.2,2.2Z"/>
          <path class="cls-2" d="M112.9,14.8c1.2,0,2.2-1,2.2-2.2,0-1.2-1-2.1-2.2-2.2-1.2,0-2.2,1-2.2,2.2,0,1.2,1,2.1,2.2,2.2Z"/>
          <path class="cls-2" d="M112.1,68.7c-.9-.8-2.3-.8-3.1,0-.8.8-.8,2.2,0,3l6.5,6.5-6.5,6.5c-.9.9-.9,2.2,0,3.1.9.9,2.2.9,3.1,0l6.6-6.6c1.6-1.6,1.6-4.3,0-6l-6.6-6.6Z"/>
          <path class="cls-2" d="M87,68.7c-.9-.9-2.2-.9-3.1,0,0,0,0,0,0,0l-6.6,6.6c-1.6,1.6-1.6,4.3,0,6,0,0,0,0,0,0l6.6,6.6c.9.9,2.2.9,3.1,0,.9-.9.9-2.2,0-3.1l-6.5-6.5,6.5-6.5c.9-.9.9-2.2,0-3.1,0,0,0,0,0,0Z"/>
          <path class="cls-2" d="M103,66c-1.1-.5-2.4,0-2.9,1.2h0s-8.4,20.5-8.4,20.5c-.5,1.1,0,2.4,1.2,2.9,1.1.5,2.4,0,2.9-1.2,0,0,0,0,0,0l8.4-20.5c.5-1.1,0-2.4-1.2-2.9,0,0,0,0,0,0Z"/>
        </g>
      </g>
    </g>
  </g>
</svg>