<?xml version="1.0" encoding="UTF-8"?>
<svg id="Layer_2" xmlns="http://www.w3.org/2000/svg" xmlns:xlink="http://www.w3.org/1999/xlink" viewBox="0 0 40 40">
  <defs>
    <style>
      .cls-1 {
        fill: none;
      }

      .cls-2 {
        fill: #f2622a;
        fill-rule: evenodd;
      }

      .cls-3 {
        clip-path: url(#clippath);
      }
    </style>
    <clipPath id="clippath">
      <rect class="cls-1" width="40" height="40"/>
    </clipPath>
  </defs>
  <g id="Layer_1-2" data-name="Layer_1">
    <g class="cls-3">
      <path class="cls-2" d="M19.67,22.6s-.09-.06-.13-.09c-.34-.25-.62-.57-.83-.94-.22-.36-.28-.8-.15-1.21.03-.09.08-.17.13-.24l.27-.37h0s.02-.05.03-.08c0-.6-.23-1.18-.66-1.6-.02-.02-.05-.03-.08-.04l-.46-.07c-.45-.09-.82-.43-.95-.87-.11-.31-.17-.63-.17-.95,0-.33.05-.65.17-.95.13-.44.5-.78.95-.87l.46-.07s.05-.02.08-.04c.22-.2.39-.45.49-.73.13-.27.19-.57.17-.87,0-.03-.01-.06-.03-.08l-.27-.37c-.26-.39-.28-.88-.06-1.3.28-.59.75-1.07,1.35-1.35.41-.22.91-.19,1.3.06l.37.27h0s.05.02.08.02c.6,0,1.18-.23,1.59-.66.02-.02.03-.05.04-.08l.07-.46c.1-.45.43-.81.87-.94.62-.22,1.3-.22,1.91,0,.01,0,.03.01.04.02.42.14.74.49.83.93l.07.46h0s.02.05.04.08c.42.43.99.66,1.59.66.03,0,.06-.01.08-.03l.37-.27c.39-.26.88-.28,1.3-.06.59.28,1.07.75,1.35,1.35.22.41.2.91-.06,1.3l-.27.37s-.02.05-.03.08c-.02.3.04.59.17.87.1.28.27.53.49.73.02.02.05.03.08.04l.46.07c.45.09.82.43.95.87.22.62.22,1.29,0,1.91-.13.44-.5.78-.95.87l-.46.07s-.05.02-.08.04c-.43.42-.67,1-.66,1.6,0,.03.01.06.03.08l.27.37c.05.07.1.16.13.24.13.41.08.85-.15,1.21-.2.37-.49.69-.83.94-.04.03-.09.06-.13.09.32.75.48,1.55.48,2.36,0,.23-.19.42-.42.42h-11.31c-.23,0-.42-.19-.42-.42,0-.81.16-1.62.48-2.36h0ZM5.84,28.23c-.05-.22.08-.44.3-.5.22-.06.45.07.51.29l.99,3.7c.06.22-.07.46-.3.51-.22.06-.45-.07-.51-.3l-.99-3.7h0ZM3.98,25.56c-.49.13-.91.45-1.17.88,0,0-.01.02-.02.03h0c-.26.45-.33.98-.2,1.48l2.84,10.61h0c.28,1.04,1.35,1.66,2.39,1.38l2.96-.79h0c.49-.13.91-.45,1.17-.88,0,0,.01-.02.02-.03.26-.45.33-.98.2-1.48l-.15-.58c1.01-.15,2.04-.14,3.04.03,1.14.2,2.25.54,3.3,1.03.38.18.79.26,1.21.25.41-.01.82-.12,1.18-.32l14.07-7.74s.04-.02.05-.04c.46-.39.68-.99.58-1.58-.04-.35-.15-.69-.31-.99-.17-.32-.42-.59-.71-.8-.54-.38-1.24-.46-1.84-.2-.03,0-.05.02-.07.03l-6.04,3.32c0-.09-.01-.19-.03-.28h0c-.05-.35-.16-.68-.33-.99-.31-.63-.95-1.04-1.66-1.04-.03,0-.05,0-.08,0l-4.17.69c-.82.14-1.75-.42-2.68-.97-1.2-.72-2.4-1.44-3.7-1l-4.26,1.42-.23-.85c-.13-.5-.46-.92-.91-1.18-.45-.26-.98-.33-1.48-.2l-2.96.79h0ZM9.77,27.81l4.31-1.44c.94-.31,1.98.31,3.01.93,1.06.64,2.12,1.27,3.24,1.08l4.15-.69c.39.02.73.25.89.6.12.22.2.46.23.7.04.24.03.48-.02.71,0,.02-.01.05-.02.06,0,.01,0,.02-.01.03h0c-.07.29-.3.52-.59.6h-.04s-4.77,1.16-4.77,1.16c-.22.06-.36.28-.31.5.05.22.28.36.5.31l4.77-1.15h.03c.53-.13.96-.51,1.14-1.02l6.58-3.62c.35-.14.75-.1,1.06.11.19.14.34.31.45.52.11.21.19.44.22.68.06.29-.03.59-.23.81l-14.04,7.72c-.24.14-.52.21-.8.22-.29,0-.58-.06-.84-.18-1.12-.52-2.3-.89-3.52-1.1-1.12-.18-2.27-.19-3.39-.01l-2.02-7.55ZM7.13,25.58l-2.93.79c-.28.07-.52.25-.66.5v.02s-.01,0-.01,0c-.15.26-.19.56-.11.84l2.84,10.61c.16.59.77.94,1.36.79l2.96-.79c.28-.07.51-.25.66-.5v-.02c.16-.26.2-.56.12-.84l-2.84-10.58v-.04c-.09-.28-.27-.51-.53-.65-.25-.14-.54-.19-.82-.12h-.04s0,0,0,0ZM30.49,24.54c-.19-2.35-1.92-4.28-4.24-4.72-.64.17-1.32.17-1.96,0-2.32.44-4.05,2.37-4.24,4.72h10.44ZM30.49,21.84h.02s0-.01,0-.01c.24-.17.44-.39.58-.65.1-.15.14-.33.11-.51,0-.02-.02-.03-.03-.05l-.27-.37c-.09-.13-.15-.29-.17-.45-.05-.91.31-1.8,1-2.41.13-.1.28-.16.44-.19l.46-.07c.13-.02.23-.16.3-.35.14-.42.14-.88,0-1.3-.07-.19-.18-.33-.3-.35l-.46-.07c-.16-.03-.31-.09-.44-.19-.35-.29-.62-.67-.78-1.09-.19-.41-.26-.87-.22-1.32.02-.16.08-.31.17-.45l.27-.37c.07-.15.06-.32-.03-.46-.19-.4-.52-.72-.92-.92-.14-.09-.31-.1-.46-.03l-.37.27c-.13.09-.29.15-.45.17-.91.05-1.8-.31-2.41-1-.1-.13-.16-.28-.19-.44l-.07-.46c-.02-.11-.14-.21-.31-.28h-.03c-.43-.15-.89-.15-1.31,0-.19.07-.32.17-.34.29l-.07.46h0c-.03.16-.09.31-.19.44-.61.68-1.49,1.05-2.41,1-.16-.02-.31-.08-.45-.17l-.37-.27c-.15-.07-.32-.06-.46.03-.2.09-.38.22-.53.38-.16.15-.29.33-.38.53-.09.14-.1.31-.03.46l.27.37c.09.13.15.29.17.45.04.45-.04.91-.22,1.32-.16.42-.43.8-.78,1.09-.13.1-.28.16-.44.19l-.46.07c-.13.02-.23.16-.3.35-.07.21-.11.43-.11.65,0,.22.03.44.11.65.07.19.18.33.3.35l.46.07c.16.03.31.09.44.19.69.61,1.05,1.5,1,2.41-.02.16-.08.31-.17.45l-.27.37s-.02.03-.03.05c-.04.18,0,.36.11.51.14.26.34.48.58.65h.02s0,.01,0,.01c.7-1.18,1.78-2.08,3.06-2.57-1.38-.94-1.98-2.67-1.48-4.27s1.97-2.68,3.64-2.68,3.15,1.09,3.64,2.68-.11,3.32-1.48,4.27c1.28.49,2.36,1.39,3.06,2.57h0ZM34.15,1.87c-.07-.15-.22-.25-.38-.25s-.31.1-.38.25l-.89,1.92-2.04.26h0c-.17.01-.31.12-.36.28s-.01.33.11.45l1.52,1.45-.39,2.07c-.04.16.02.33.16.43.13.1.31.11.46.03l1.82-1.02,1.82,1.02h0c.14.08.32.07.45-.02.13-.1.2-.26.17-.42l-.39-2.09,1.52-1.45h0c.12-.11.16-.28.11-.43-.05-.15-.19-.27-.35-.29l-2.06-.26-.89-1.92ZM34.37,4.35l-.6-1.31-.6,1.31h0c-.06.13-.18.22-.33.24l-1.42.18,1.04,1c.11.1.15.25.13.39l-.27,1.43,1.24-.69h0c.13-.07.29-.07.42,0l1.24.7-.27-1.43h0c-.03-.14.02-.28.12-.38l1.05-1-1.4-.18c-.15,0-.29-.1-.36-.24h0ZM25.65.24l.89,1.92,2.06.26c.16.02.3.13.35.29.05.15,0,.32-.11.43l-1.52,1.45.39,2.09c.03.16-.03.32-.17.42-.13.1-.31.11-.45.03l-1.82-1.03-1.82,1.02c-.15.08-.33.07-.46-.03-.13-.1-.19-.27-.16-.43l.39-2.07-1.52-1.45c-.12-.11-.16-.29-.11-.44.06-.16.2-.27.36-.28l2.05-.26.89-1.92h0c.07-.15.22-.25.38-.25s.31.1.38.24h0ZM25.87,2.73l-.6-1.3-.6,1.31c-.06.13-.18.22-.33.24l-1.42.18,1.04,1h0c.11.1.15.25.13.39l-.27,1.43,1.24-.69c.13-.07.29-.07.42,0l1.24.7-.27-1.43h0c-.03-.14.02-.28.12-.38l1.05-1-1.4-.18c-.15,0-.29-.1-.36-.24h0ZM17.16,1.87c-.07-.15-.22-.25-.38-.25s-.31.1-.38.25l-.89,1.92-2.04.26h0c-.17.01-.31.12-.36.28-.06.16-.01.33.11.45l1.52,1.45-.39,2.07c-.04.16.02.33.16.43.13.1.31.11.46.03l1.82-1.02,1.82,1.02c.14.08.32.07.45-.02.13-.1.2-.26.17-.42l-.39-2.09,1.52-1.45h0c.12-.11.16-.28.11-.43-.05-.15-.18-.27-.35-.29l-2.06-.26-.89-1.92ZM17.38,4.35l-.6-1.31-.61,1.31c-.06.13-.18.22-.33.24l-1.42.18,1.04,1h0c.11.1.16.24.13.38l-.27,1.43,1.24-.69h0c.13-.07.29-.07.42,0l1.24.7-.27-1.43c-.03-.14.02-.28.12-.38l1.05-1-1.4-.18h0c-.15,0-.29-.1-.36-.24h0ZM27.37,14.03c-1-1-2.57-1.16-3.75-.37-1.18.79-1.63,2.29-1.09,3.6.54,1.31,1.93,2.05,3.32,1.78,1.39-.28,2.39-1.5,2.39-2.91,0-.79-.31-1.54-.87-2.1h0Z"/>
    </g>
  </g>
</svg>