<?xml version="1.0" encoding="UTF-8"?>
<svg id="Layer_2" xmlns="http://www.w3.org/2000/svg" xmlns:xlink="http://www.w3.org/1999/xlink" viewBox="0 0 40 40">
  <defs>
    <style>
      .cls-1 {
        fill: none;
      }

      .cls-2 {
        fill: #f26128;
      }

      .cls-3 {
        clip-path: url(#clippath);
      }
    </style>
    <clipPath id="clippath">
      <rect class="cls-1" width="40" height="40"/>
    </clipPath>
  </defs>
  <g id="Layer_1-2" data-name="Layer_1">
    <g class="cls-3">
      <path class="cls-2" d="M22.4,32.54s.01.07.01.1v.05c0,.19-.04.37-.13.54l-.18.36h0s-.03.09-.02.14c0,.05.03.09.07.12l.83.83h0s.07.05.12.06c.05,0,.09,0,.14-.03l.36-.18h0c.33-.17.73-.17,1.07,0,.14.07.29.15.46.21.15.06.31.12.47.17h0c.18.05.34.15.48.28.13.13.23.29.29.47l.12.38c.03.09.11.16.21.15h.11v-2.56c-1.57-.18-2.89-1.24-3.41-2.73s-.14-3.15.98-4.26c.06-.06.12-.12.18-.17,0,0,.01,0,.02-.01.03-.03.07-.06.1-.09,0,0,0,0,.01-.01h0c.61-.5,1.34-.81,2.12-.9v-2.56h-.11c-.09,0-.18.06-.21.15l-.12.38c-.11.36-.4.64-.76.75-.16.05-.32.11-.47.17-.16.07-.32.14-.46.21h0c-.16.09-.35.13-.53.13-.19,0-.37-.04-.54-.13l-.36-.18s-.09-.03-.14-.02c-.05,0-.09.03-.12.06l-.83.83h0s-.06.08-.07.12c0,.05,0,.09.03.13l.18.36h0c.09.16.13.35.13.53,0,.19-.05.37-.13.53,0,.02-.02.03-.02.05-.01.02-.02.05-.04.07-.05.1-.1.22-.15.33-.06.15-.12.31-.17.47h0c-.11.36-.39.65-.75.76l-.38.12h0s-.08.04-.11.08c-.03.04-.04.08-.04.13v1.17s.01.09.04.13c.03.04.07.06.11.08l.38.12c.36.11.64.4.75.76.05.16.11.32.17.47.07.16.14.32.21.46.06.12.1.25.12.38h0ZM31.57,36.81c.26.08.49.22.68.41.52.52.62,1.32.26,1.95-.36.64-1.1.95-1.81.78-.71-.18-1.21-.81-1.23-1.54-.02-.73.46-1.39,1.16-1.6v-1.24h-2.89v1.11c0,.26-.21.47-.48.47h-.58c-.5,0-.95-.32-1.11-.8l-.12-.38h0s-.03-.07-.05-.09c-.03-.02-.06-.04-.09-.05-.19-.06-.37-.12-.55-.2-.18-.08-.35-.15-.53-.25-.03-.02-.07-.03-.1-.03-.04,0-.07.01-.1.03l-.36.18c-.22.11-.47.15-.71.12-.24-.04-.46-.15-.63-.32-.26.22-.54.4-.85.54-1.06.48-2.28.41-3.28-.18-1-.59-1.64-1.63-1.74-2.78-1.13-.43-1.87-1.51-1.88-2.72v-.26h-1.06c-.99,0-1.8-.81-1.8-1.8s.8-1.8,1.8-1.8h1.06v-.16c0-.42-.08-.83-.25-1.21-.18-.38-.43-.71-.75-.98-2.58-2.2-3.87-5.56-3.41-8.91.46-3.36,2.6-6.25,5.68-7.67,3.08-1.42,6.67-1.18,9.52.65,2.86,1.83,4.58,4.98,4.58,8.37,0,2.27-.78,4.47-2.21,6.24v.88h2.89v-1.25h0c-.77-.23-1.25-1-1.13-1.79.12-.8.8-1.39,1.61-1.39s1.49.59,1.61,1.39c.12.8-.36,1.56-1.13,1.79v1.72c0,.26-.21.47-.47.47h-3.36v.98c.92.11,1.78.52,2.44,1.18.07.07.13.14.2.21h3.14v-1.25c-.26-.08-.49-.22-.68-.41-.47-.47-.61-1.17-.35-1.78.25-.61.85-1.01,1.51-1.01s1.26.4,1.51,1.01c.25.61.11,1.31-.35,1.78-.19.19-.42.33-.68.41v1.72c0,.26-.21.47-.47.47h-3c.19.4.31.83.36,1.28h3.12,0c.24-.77,1-1.26,1.8-1.14.8.12,1.39.8,1.39,1.61s-.59,1.49-1.39,1.61-1.56-.37-1.8-1.14h-3.12c-.05.42-.16.82-.33,1.21h3.02c.26,0,.47.21.47.47v1.72c.26.08.49.22.68.41.47.47.61,1.17.36,1.78-.25.61-.85,1.01-1.51,1.01s-1.25-.4-1.51-1.01c-.25-.61-.11-1.31.36-1.78.19-.19.42-.33.68-.41v-1.25h-3.14c-.08.1-.17.2-.26.28h0c-.65.66-1.51,1.07-2.44,1.18v.97h3.36c.26,0,.47.21.47.48v1.71ZM31.58,37.89c-.2-.2-.49-.25-.75-.15-.25.11-.42.35-.42.63s.17.53.42.63c.26.11.55.05.75-.15.13-.13.2-.3.2-.49s-.07-.36-.2-.49h0ZM34.51,34.51c-.23-.23-.59-.26-.86-.08-.27.18-.38.53-.25.83.12.3.45.47.77.41.32-.07.55-.35.55-.67,0-.18-.07-.36-.2-.48h0ZM36.51,29.08c-.13-.13-.3-.2-.48-.2s-.36.07-.48.2c-.2.2-.25.49-.15.75s.36.42.63.42.53-.17.63-.42c.11-.26.05-.55-.15-.75h0ZM34.46,23.57c-.23-.23-.59-.27-.86-.08-.27.18-.38.53-.25.83.13.3.45.47.77.41s.55-.34.55-.67c0-.18-.07-.36-.2-.49h0ZM29.77,27.64s0-.01-.01-.02h0c-.08-.1-.17-.2-.26-.3-1.1-1.1-2.84-1.24-4.1-.32-.06.15-.19.27-.35.3l-.03.03h0c-1.24,1.24-1.24,3.24,0,4.48,1.24,1.24,3.24,1.24,4.48,0,.12-.12.22-.24.32-.37h0s0,0,0,0c.4-.54.61-1.19.61-1.87v-.04c0-.68-.24-1.34-.65-1.89h0ZM31.58,20.26c-.13-.13-.3-.21-.49-.21-.18,0-.36.07-.49.2s-.2.31-.2.49c0,.18.08.36.21.49.13.13.3.21.49.21.18,0,.36-.07.49-.2.13-.13.2-.31.2-.49,0-.18-.08-.36-.21-.49ZM21.29,33.12h-3.86c.1.52.35,1,.72,1.38.94.95,2.45,1.03,3.49.19l-.16-.16h0c-.36-.36-.45-.9-.22-1.35l.03-.05ZM27.09,21.97c1.45-1.86,2.11-4.22,1.84-6.57-.27-2.35-1.46-4.49-3.3-5.97-1.84-1.48-4.19-2.17-6.54-1.93-2.35.24-4.51,1.4-6.02,3.22-1.5,1.82-2.23,4.16-2.02,6.52.21,2.35,1.33,4.53,3.13,6.06.86.72,1.36,1.78,1.35,2.91v.16h5.94s-.01-.03-.02-.04l-.18-.36h0c-.11-.22-.15-.47-.11-.71.04-.24.15-.47.33-.64l.83-.83c.17-.17.4-.29.64-.33.24-.04.49,0,.71.11l.36.18h0s.07.02.1.03c.04,0,.07,0,.1-.03.18-.09.36-.18.53-.25.17-.07.36-.14.55-.2.03,0,.07-.03.09-.05.02-.02.04-.06.05-.09l.12-.38c.15-.48.6-.81,1.11-.81h.42ZM21.1,27.3h-7.58c-.47,0-.85.38-.85.85s.38.85.85.85h6.15v-.02c0-.51.32-.95.81-1.11l.38-.12s.06-.03.09-.05c.02-.03.04-.06.05-.09.03-.1.06-.2.1-.3h0ZM19.67,29.95h-4.15v.26c0,1.08.88,1.96,1.96,1.96h3.75s-.03-.06-.04-.1c-.07-.18-.14-.36-.2-.55h0s-.03-.07-.05-.09c-.02-.02-.05-.04-.09-.05l-.38-.12h0c-.48-.16-.81-.6-.8-1.11v-.2ZM33.58,18.2c-.24-.02-.43-.23-.43-.47s.19-.45.43-.47h3.72c.13-.01.26.03.36.12.1.09.16.22.16.35s-.06.26-.16.35c-.1.09-.23.13-.36.12h-3.72ZM32,11.34c-.22.1-.49.02-.61-.19-.12-.21-.06-.48.14-.63l3.22-1.86h0c.22-.12.5-.04.63.18.13.22.06.5-.16.64l-3.22,1.86ZM27.2,6.2c-.13.22-.42.3-.64.17-.23-.13-.3-.42-.17-.64l1.86-3.22h0c.06-.11.16-.2.29-.23.12-.04.25-.02.37.04.11.06.19.17.22.29.03.12.01.25-.05.36l-1.86,3.22ZM6.42,17.25c.13-.01.27.03.37.12.1.09.16.22.16.35s-.06.26-.16.35c-.1.09-.23.13-.37.12h-3.72c-.13.01-.26-.03-.36-.12-.1-.09-.16-.22-.16-.35s.06-.26.16-.35.23-.13.36-.12h3.72ZM8.48,10.53c.11.06.2.16.23.29.04.12.02.25-.04.36-.06.11-.17.19-.29.22-.12.03-.25.01-.36-.05l-3.22-1.86c-.23-.13-.3-.42-.17-.64.13-.23.42-.3.64-.17l3.22,1.86ZM13.62,5.73h0c.13.23.05.52-.17.65-.23.13-.52.05-.65-.17l-1.86-3.22h0c-.13-.23-.05-.51.17-.64.22-.13.51-.05.64.17l1.86,3.22ZM20.47,4.14c.01.13-.03.27-.12.37-.09.1-.22.16-.35.16s-.26-.06-.35-.16-.13-.23-.12-.37V.43c.02-.24.23-.43.47-.43s.45.19.47.43v3.71ZM14.9,16.57c0,.26-.21.47-.48.47s-.47-.21-.47-.47c0-1.6.64-3.14,1.77-4.28,1.14-1.14,2.67-1.77,4.28-1.77.25.02.43.23.43.47s-.19.45-.43.47c-1.35,0-2.65.54-3.61,1.49-.96.96-1.49,2.25-1.49,3.61h0Z"/>
    </g>
  </g>
</svg>