<?xml version="1.0" encoding="UTF-8"?>
<svg id="Layer_2" xmlns="http://www.w3.org/2000/svg" xmlns:xlink="http://www.w3.org/1999/xlink" viewBox="0 0 40 40">
  <defs>
    <style>
      .cls-1 {
        fill: #f2622a;
      }

      .cls-2 {
        fill: none;
      }

      .cls-3 {
        clip-path: url(#clippath);
      }
    </style>
    <clipPath id="clippath">
      <rect class="cls-2" width="40" height="40"/>
    </clipPath>
  </defs>
  <g id="Layer_1-2" data-name="Layer_1">
    <g class="cls-3">
      <g>
        <path class="cls-1" d="M36.74,15.87C36.23,6.95,28.91,0,19.95,0S3.65,6.96,3.16,15.89c-1.38.45-2.38,1.74-2.38,3.27v5.35c0,1.66,1.19,3.05,2.76,3.37.84,6.69,4.72,10.08,11.59,10.08.4,0,.81-.01,1.22-.04.43,1.2,1.58,2.07,2.92,2.07,1.71,0,3.11-1.4,3.11-3.11s-1.4-3.11-3.11-3.11c-1.54,0-2.82,1.13-3.06,2.61-6.67.34-10.32-2.46-11.14-8.55,1.49-.38,2.59-1.73,2.59-3.33v-5.35c0-1.73-1.3-3.17-2.97-3.4C5.25,7.75,11.87,1.53,19.95,1.53s14.7,6.22,15.25,14.25c-1.62.27-2.87,1.69-2.87,3.39v5.35c0,1.9,1.54,3.44,3.44,3.44s3.44-1.54,3.44-3.44v-5.35c0-1.56-1.05-2.88-2.47-3.3ZM19.28,35.32c.87,0,1.58.71,1.58,1.58s-.71,1.58-1.58,1.58-1.58-.71-1.58-1.58.71-1.58,1.58-1.58ZM6.14,19.16v5.35c0,1.06-.86,1.91-1.91,1.91s-1.91-.86-1.91-1.91v-5.35c0-1.06.86-1.91,1.91-1.91s1.91.86,1.91,1.91ZM37.68,24.52c0,1.06-.86,1.91-1.91,1.91s-1.91-.86-1.91-1.91v-5.35c0-1.06.86-1.91,1.91-1.91s1.91.86,1.91,1.91v5.35Z"/>
        <path class="cls-1" d="M24.21,12.4h-8.52c-2.98,0-5.41,2.43-5.41,5.41v4.51c0,2.03,1.16,3.89,2.95,4.81l-.42,2.15c-.06.3.06.6.31.77.13.1.29.14.44.14.13,0,.27-.03.39-.11l4.01-2.36h6.24c2.98,0,5.41-2.43,5.41-5.41v-4.51c0-2.98-2.42-5.41-5.4-5.41ZM28.09,22.31c0,2.14-1.74,3.88-3.88,3.88h-6.45c-.14,0-.27.04-.39.11l-2.72,1.6.21-1.08c.07-.37-.13-.74-.49-.86-1.52-.56-2.55-2.03-2.55-3.64v-4.51c0-2.14,1.74-3.88,3.88-3.88h8.51c2.14,0,3.88,1.74,3.88,3.88v4.51Z"/>
        <circle class="cls-1" cx="15.48" cy="20.53" r=".96"/>
        <circle class="cls-1" cx="19.9" cy="20.53" r=".96"/>
        <circle class="cls-1" cx="24.32" cy="20.53" r=".96"/>
      </g>
    </g>
  </g>
</svg>