<?xml version="1.0" encoding="UTF-8"?>
<svg id="Layer_2" xmlns="http://www.w3.org/2000/svg" xmlns:xlink="http://www.w3.org/1999/xlink" viewBox="0 0 40 40">
  <defs>
    <style>
      .cls-1 {
        fill: none;
      }

      .cls-2 {
        fill: #f26128;
      }

      .cls-3 {
        clip-path: url(#clippath);
      }
    </style>
    <clipPath id="clippath">
      <rect class="cls-1" width="40" height="40"/>
    </clipPath>
  </defs>
  <g id="Layer_2-2" data-name="Layer_2">
    <g class="cls-3">
      <path class="cls-2" d="M20.47,40h-.94c-.13,0-.26-.01-.39-.04-9.43-1.77-16.28-10.04-16.28-19.66v-11.47c0-1.02.6-1.95,1.54-2.36L18.25.44s.04-.02.06-.02l.56-.25c.26-.11.53-.17.8-.17h.66c.28,0,.55.06.8.17l.57.25s.04.01.05.02l13.85,6.04c.94.41,1.54,1.33,1.54,2.36v11.47c0,9.61-6.85,17.88-16.28,19.66-.13.02-.26.04-.39.04h0ZM18.88,2.03l-13.8,6.02c-.31.14-.51.44-.51.79v11.47c0,8.79,6.26,16.35,14.88,17.97.03,0,.05,0,.07,0h.94s.05,0,.07,0c8.63-1.62,14.89-9.18,14.89-17.97v-11.47c0-.34-.2-.65-.51-.79l-13.8-6.02s-.04-.01-.06-.02l-.61-.27s-.08-.02-.11-.02h-.66s-.08,0-.12.02l-.61.27s-.04.02-.06.02h0ZM20.21,36h-.41c-.06,0-.12,0-.17-.02-7.4-1.52-12.77-8.11-12.77-15.68v-9.98c0-.34.2-.65.51-.79l12.29-5.36c.22-.1.47-.1.69,0l.51.22s.05.02.07.03l11.71,5.11c.31.14.51.44.51.79v9.98c0,7.56-5.37,14.16-12.76,15.68-.06.01-.11.02-.17.02h0ZM19.89,34.29h.23c6.56-1.39,11.31-7.25,11.31-13.98v-9.42l-11.13-4.86s-.05-.02-.07-.03l-.23-.1-11.43,4.99v9.42c0,6.72,4.75,12.59,11.31,13.98h0ZM19.35,24.23l7.54-7.54c.33-.33.33-.88,0-1.21-.33-.33-.88-.33-1.21,0l-7.54,7.54c-.22.22-.58.22-.8,0l-3.02-3.02c-.33-.33-.88-.33-1.21,0-.33.33-.33.88,0,1.21l3.02,3.02c.44.44,1.03.67,1.61.67s1.17-.22,1.61-.67Z"/>
    </g>
  </g>
</svg>