<svg xmlns="http://www.w3.org/2000/svg" width="41.02" height="42.503" viewBox="0 0 41.02 42.503">
  <g id="Group_98293" data-name="Group 98293" transform="translate(-2.167 -1.088)">
    <path id="Path_144937" data-name="Path 144937" d="M33.834,21.869V7.2a5.952,5.952,0,0,0-5.764-6.109H7.931A5.951,5.951,0,0,0,2.167,7.2V28.77a5.951,5.951,0,0,0,5.764,6.109H21.564a10.923,10.923,0,1,0,12.269-13.01ZM13.32,3.15h9.359V11.97L18.434,9.98a1.033,1.033,0,0,0-.876,0l-4.24,1.99V3.15ZM7.931,32.816a3.89,3.89,0,0,1-3.7-4.046v-1.2H18A1.031,1.031,0,1,0,18,25.5H4.229V7.2a3.891,3.891,0,0,1,3.7-4.047h3.326V13.592a1.031,1.031,0,0,0,1.469.934L18,12.052l5.275,2.473a1.031,1.031,0,0,0,1.468-.934V3.15h3.329a3.891,3.891,0,0,1,3.7,4.047v14.57a10.927,10.927,0,0,0-10.433,10.9c0,.05.007.1.008.15H7.931Zm24.33,8.712a8.861,8.861,0,1,1,8.862-8.861A8.871,8.871,0,0,1,32.261,41.527Z" fill="#fff"/>
    <path id="Path_144938" data-name="Path 144938" d="M49.281,42.351h-3.12a4,4,0,0,0-2.825-2.825v-3.12a1.031,1.031,0,1,0-2.062,0v3.12a4,4,0,0,0-2.825,2.825h-3.12a1.031,1.031,0,1,0,0,2.062h3.12a4,4,0,0,0,2.825,2.825v3.12a1.031,1.031,0,0,0,2.062,0v-3.12a4,4,0,0,0,2.825-2.825h3.12a1.031,1.031,0,0,0,0-2.062ZM42.3,45.316a1.934,1.934,0,1,1,1.934-1.934A1.936,1.936,0,0,1,42.3,45.316Z" transform="translate(-10.042 -10.716)" fill="#fff"/>
  </g>
</svg>
