<?xml version="1.0" encoding="UTF-8"?>
<svg id="Layer_2" xmlns="http://www.w3.org/2000/svg" viewBox="0 0 60 60">
  <defs>
    <style>
      .cls-1 {
        fill: #f55b14;
      }

      .cls-2 {
        fill: #fff;
      }
    </style>
  </defs>
  <g id="Layer_1-2" data-name="Layer_1">
    <circle class="cls-1" cx="30" cy="30" r="30"/>
    <g>
      <path class="cls-2" d="M46.05,16.78H13.95c-1.02,0-1.85.83-1.85,1.85v22.74c0,1.02.83,1.85,1.85,1.85h32.1c1.02,0,1.85-.83,1.85-1.85v-22.74c0-1.02-.83-1.85-1.85-1.85ZM46.95,41.37c0,.5-.4.9-.9.9H13.95c-.5,0-.9-.4-.9-.9v-1.47h.1v-.95h-.1v-20.32c0-.24.09-.46.26-.64.17-.16.4-.26.64-.26h32.1c.5,0,.9.41.9.9v20.32h-.1v.95h.1v1.47Z"/>
      <path class="cls-2" d="M46.05,16.78H13.95c-1.02,0-1.85.83-1.85,1.85v22.74c0,1.02.83,1.85,1.85,1.85h32.1c1.02,0,1.85-.83,1.85-1.85v-22.74c0-1.02-.83-1.85-1.85-1.85ZM46.95,41.37c0,.5-.4.9-.9.9H13.95c-.5,0-.9-.4-.9-.9v-22.74c0-.24.09-.46.26-.64.17-.16.4-.26.64-.26h32.1c.5,0,.9.41.9.9v22.74Z"/>
      <path class="cls-2" d="M47.9,39.11v.64c-.1.15-.28.25-.47.25h-.48v-.1H13.05v.1h-.48c-.19,0-.37-.1-.47-.25v-.64c.1-.16.28-.26.47-.26h.48v.1h33.9v-.1h.48c.19,0,.37.1.47.26Z"/>
      <path class="cls-2" d="M47.9,39.43c0,.26-.21.47-.47.47H12.57c-.26,0-.47-.21-.47-.47s.21-.48.47-.48h34.86c.26,0,.47.22.47.48Z"/>
      <path class="cls-2" d="M20.93,36.79c-.09.12-.23.2-.39.2-.2,0-.37-.12-.44-.31l-1.31-3.43s-.02-.1-.02-.15c0-.19.11-.37.3-.44.05-.02.11-.03.17-.03.19,0,.36.11.43.28l1.31,3.44c.06.14.04.31-.05.44Z"/>
      <path class="cls-2" d="M20.93,36.79c-.09.12-.23.2-.39.2-.2,0-.37-.12-.44-.31l-1.31-3.43s-.02-.1-.02-.15c0-.19.11-.37.3-.44.05-.02.11-.03.17-.03.19,0,.36.11.43.28l1.31,3.44c.06.14.04.31-.05.44Z"/>
      <path class="cls-2" d="M17.95,36.13c.17.12.24.33.18.53s-.24.33-.45.33c-.1,0-.2-.03-.28-.09l-2.42-1.72c-.12-.09-.2-.23-.2-.38,0-.16.08-.3.2-.39l2.46-1.74c.07-.05.15-.07.24-.07.15,0,.3.08.39.2.15.22.1.51-.12.66l-1.88,1.34,1.88,1.33Z"/>
      <path class="cls-2" d="M17.95,36.13c.17.12.24.33.18.53s-.24.33-.45.33c-.1,0-.2-.03-.28-.09l-2.42-1.72c-.12-.09-.2-.23-.2-.38,0-.16.08-.3.2-.39l2.46-1.74c.07-.05.15-.07.24-.07.15,0,.3.08.39.2.15.22.1.51-.12.66l-1.88,1.34,1.88,1.33Z"/>
      <path class="cls-2" d="M24.98,34.8c0,.15-.07.29-.19.38l-2.43,1.73c-.07.05-.17.08-.27.08-.21,0-.39-.13-.45-.33s.01-.41.18-.53l1.88-1.33-1.88-1.34c-.21-.15-.25-.44-.11-.65.09-.13.24-.2.39-.2.09,0,.19.03.27.08l2.42,1.72c.12.09.19.23.19.39Z"/>
      <path class="cls-2" d="M24.98,34.8c0,.15-.07.29-.19.38l-2.43,1.73c-.07.05-.17.08-.27.08-.21,0-.39-.13-.45-.33s.01-.41.18-.53l1.88-1.33-1.88-1.34c-.21-.15-.25-.44-.11-.65.09-.13.24-.2.39-.2.09,0,.19.03.27.08l2.42,1.72c.12.09.19.23.19.39Z"/>
      <path class="cls-2" d="M23.42,20.17c0,.26-.21.47-.47.47h-6.06c-.26,0-.47-.21-.47-.47s.21-.48.47-.48h6.06c.26,0,.47.22.47.48Z"/>
      <path class="cls-2" d="M23.42,20.17c0,.26-.21.47-.47.47h-6.06c-.26,0-.47-.21-.47-.47s.21-.48.47-.48h6.06c.26,0,.47.22.47.48Z"/>
      <path class="cls-2" d="M23.42,22.69c0,.26-.21.47-.47.47h-7.64c-.26,0-.47-.21-.47-.47s.21-.47.47-.47h7.64c.26,0,.47.21.47.47Z"/>
      <path class="cls-2" d="M23.42,22.69c0,.26-.21.47-.47.47h-7.64c-.26,0-.47-.21-.47-.47s.21-.47.47-.47h7.64c.26,0,.47.21.47.47Z"/>
      <path class="cls-2" d="M24.96,25.21c0,.26-.22.47-.48.47h-7.59c-.26,0-.47-.21-.47-.47s.21-.47.47-.47h7.59c.26,0,.48.21.48.47Z"/>
      <path class="cls-2" d="M24.96,25.21c0,.26-.22.47-.48.47h-7.59c-.26,0-.47-.21-.47-.47s.21-.47.47-.47h7.59c.26,0,.48.21.48.47Z"/>
      <path class="cls-2" d="M23.38,27.74c0,.26-.22.47-.48.47h-7.63c-.27,0-.48-.21-.48-.47s.21-.48.48-.48h7.63c.26,0,.48.21.48.48Z"/>
      <path class="cls-2" d="M23.38,27.74c0,.26-.22.47-.48.47h-7.63c-.27,0-.48-.21-.48-.47s.21-.48.48-.48h7.63c.26,0,.48.21.48.48Z"/>
      <path class="cls-2" d="M24.91,30.26c0,.26-.21.47-.47.47h-7.59c-.26,0-.47-.21-.47-.47s.21-.48.47-.48h7.59c.26,0,.47.22.47.48Z"/>
      <path class="cls-2" d="M24.91,30.26c0,.26-.21.47-.47.47h-7.59c-.26,0-.47-.21-.47-.47s.21-.48.47-.48h7.59c.26,0,.47.22.47.48Z"/>
      <path class="cls-2" d="M41.63,32.21c0,.26-.21.47-.47.47h-9.97c-.26,0-.47-.21-.47-.47s.21-.48.47-.48h9.97c.26,0,.47.22.47.48Z"/>
      <path class="cls-2" d="M41.63,32.21c0,.26-.21.47-.47.47h-9.97c-.26,0-.47-.21-.47-.47s.21-.48.47-.48h9.97c.26,0,.47.22.47.48Z"/>
      <path class="cls-2" d="M43.64,34.36c0,.26-.22.48-.47.48h-9.91c-.26,0-.48-.22-.48-.48s.22-.47.48-.47h9.91c.25,0,.47.21.47.47Z"/>
      <path class="cls-2" d="M43.64,34.36c0,.26-.22.48-.47.48h-9.91c-.26,0-.48-.22-.48-.48s.22-.47.48-.47h9.91c.25,0,.47.21.47.47Z"/>
      <path class="cls-2" d="M44.36,36.52c0,.26-.22.47-.48.47h-14.51c-.26,0-.47-.21-.47-.47s.21-.48.47-.48h14.51c.26,0,.48.22.48.48Z"/>
      <path class="cls-2" d="M44.36,36.52c0,.26-.22.47-.48.47h-14.51c-.26,0-.47-.21-.47-.47s.21-.48.47-.48h14.51c.26,0,.48.22.48.48Z"/>
      <path class="cls-2" d="M45.08,19.83c-.09-.09-.21-.14-.34-.14h-16.23c-.26,0-.47.22-.47.48v8.8c0,.26.21.48.47.48h16.23c.13,0,.25-.05.34-.14.09-.09.14-.21.14-.34v-8.8c0-.13-.05-.25-.14-.34ZM44.27,28.5h-15.29v-7.86h15.29v7.86Z"/>
      <path class="cls-2" d="M45.08,19.83c-.09-.09-.21-.14-.34-.14h-16.23c-.26,0-.47.22-.47.48v8.8c0,.26.21.48.47.48h16.23c.13,0,.25-.05.34-.14.09-.09.14-.21.14-.34v-8.8c0-.13-.05-.25-.14-.34ZM44.27,28.5h-15.29v-7.86h15.29v7.86Z"/>
      <path class="cls-2" d="M42.15,22.37c0,.26-.22.47-.48.47h-7.53c-.26,0-.48-.21-.48-.47s.22-.47.48-.47h7.53c.26,0,.48.21.48.47Z"/>
      <path class="cls-2" d="M42.15,22.37c0,.26-.22.47-.48.47h-7.53c-.26,0-.48-.21-.48-.47s.22-.47.48-.47h7.53c.26,0,.48.21.48.47Z"/>
      <path class="cls-2" d="M40.9,24.57c0,.26-.22.47-.48.47h-9.5c-.26,0-.48-.21-.48-.47s.22-.47.48-.47h9.5c.26,0,.48.21.48.47Z"/>
      <path class="cls-2" d="M40.9,24.57c0,.26-.22.47-.48.47h-9.5c-.26,0-.48-.21-.48-.47s.22-.47.48-.47h9.5c.26,0,.48.21.48.47Z"/>
      <path class="cls-2" d="M42.81,26.77c0,.26-.21.47-.48.47h-9.44c-.27,0-.48-.21-.48-.47s.21-.47.48-.47h9.44c.27,0,.48.21.48.47Z"/>
      <path class="cls-2" d="M42.81,26.77c0,.26-.21.47-.48.47h-9.44c-.27,0-.48-.21-.48-.47s.21-.47.48-.47h9.44c.27,0,.48.21.48.47Z"/>
    </g>
  </g>
</svg>