<?xml version="1.0" encoding="UTF-8"?>
<svg id="Layer_2" xmlns="http://www.w3.org/2000/svg" viewBox="0 0 60 60">
  <defs>
    <style>
      .cls-1 {
        fill: #f55b14;
      }

      .cls-2 {
        fill: #fff;
      }
    </style>
  </defs>
  <g id="Layer_1-2" data-name="Layer_1">
    <circle class="cls-1" cx="30" cy="30" r="30"/>
    <path class="cls-2" d="M30,31.2l7.05-3.03-7.05-3.03-7.05,3.03,7.05,3.03ZM38.07,28.49l-4.34,1.87,4.34,1.87c.27.12.29.52,0,.65l-4.47,1.92,4.47,1.92c.27.12.29.52,0,.65l-7.94,3.41c-.08.04-.18.04-.27,0l-7.94-3.41c-.27-.12-.29-.52,0-.65l4.47-1.92-4.47-1.92c-.27-.12-.29-.52,0-.65l4.34-1.87-4.34-1.87c-.27-.12-.29-.52,0-.65l7.94-3.41c.08-.04.18-.04.27,0l7.94,3.41c.27.13.28.53,0,.65h0ZM32.85,30.74l-2.71,1.16c-.08.04-.18.04-.27,0l-2.71-1.16-4.2,1.8,7.05,3.03,7.05-3.03-4.2-1.8ZM32.71,35.17l-2.58,1.11c-.08.04-.18.04-.27,0l-2.58-1.11-4.33,1.87,7.05,3.03,7.05-3.03-4.33-1.87ZM19.67,21.81h20.65c2.01,0,3.65,1.64,3.65,3.65v13.83c0,2.01-1.64,3.65-3.65,3.65h-20.65c-2.01,0-3.65-1.64-3.65-3.65v-13.83c0-2.01,1.65-3.65,3.65-3.65h0ZM40.32,22.5h-20.65c-1.62,0-2.95,1.33-2.95,2.95v13.83c0,1.62,1.33,2.95,2.95,2.95h20.65c1.62,0,2.94-1.33,2.94-2.95v-13.83c0-1.62-1.32-2.95-2.94-2.95h0ZM19.17,16.51c-.69,0-1.04.83-.55,1.33s1.33.14,1.33-.55c0-.43-.35-.78-.78-.78h0ZM18.13,16.24c.93-.93,2.52-.27,2.52,1.04s-1.59,1.97-2.52,1.04c-.57-.57-.57-1.51,0-2.09h0ZM22.81,16.51c-.69,0-1.03.83-.55,1.33s1.33.14,1.33-.55c0-.43-.35-.78-.78-.78h0ZM21.76,16.24c.93-.93,2.52-.27,2.52,1.04s-1.59,1.97-2.52,1.04c-.57-.57-.57-1.51,0-2.09h0ZM26.44,16.51c-.69,0-1.03.83-.55,1.33.48.48,1.33.14,1.33-.55,0-.43-.35-.78-.78-.78h0ZM25.39,16.24c.93-.93,2.52-.27,2.52,1.04s-1.59,1.97-2.52,1.04c-.57-.57-.57-1.51,0-2.09h0ZM14.57,19.59h30.85c0-2.69-2.21-4.89-4.89-4.89h-21.06c-2.69,0-4.89,2.19-4.89,4.89h0ZM45.43,20.29H14.57v20.12c0,2.69,2.2,4.89,4.89,4.89h21.06c2.69,0,4.89-2.2,4.89-4.89v-20.12h0ZM19.47,14h21.06c3.08,0,5.6,2.52,5.6,5.6v20.81c0,3.08-2.52,5.6-5.6,5.6h-21.06c-3.08,0-5.6-2.52-5.6-5.6v-20.81c0-3.08,2.52-5.6,5.6-5.6h0Z"/>
  </g>
</svg>