<?xml version="1.0" encoding="UTF-8"?>
<svg id="Layer_2" xmlns="http://www.w3.org/2000/svg" viewBox="0 0 60 60">
  <defs>
    <style>
      .cls-1 {
        fill: #f55b14;
      }

      .cls-2 {
        fill: #fff;
        fill-rule: evenodd;
      }
    </style>
  </defs>
  <g id="Layer_1-2" data-name="Layer_1">
    <circle class="cls-1" cx="30" cy="30" r="30"/>
    <path class="cls-2" d="M16.04,27.68h14.06c.61,0,1.16.25,1.57.65.4.4.65.96.65,1.57v14.06c0,.61-.25,1.16-.65,1.57-.4.4-.96.65-1.57.65h-14.06c-.61,0-1.16-.25-1.57-.65-.4-.4-.65-.96-.65-1.57v-14.06c0-.61.25-1.16.65-1.57.4-.4.96-.65,1.57-.65ZM26.53,28.73v6.56c0,.29-.23.52-.52.52-.16,0-.31-.07-.4-.19l-2.53-2.69-2.56,2.71c-.2.21-.53.22-.74.02-.11-.1-.16-.24-.16-.38h0v-6.56h-3.57c-.32,0-.61.13-.83.35-.21.21-.35.5-.35.83v14.06c0,.32.13.61.35.83.21.21.5.35.83.35h14.06c.32,0,.61-.13.83-.35.21-.21.35-.5.35-.83v-14.06c0-.32-.13-.61-.35-.83-.21-.21-.5-.35-.83-.35h-3.57ZM20.66,28.73v5.25l2.03-2.16s.01-.02.02-.02c.21-.2.54-.19.74.02l2.03,2.16v-5.25h-4.82ZM16.34,39.66c-.29,0-.52.23-.52.52v3.48c0,.29.23.52.52.52h7.31c.29,0,.52-.23.52-.52v-3.48c0-.29-.23-.52-.52-.52h-7.31ZM23.14,40.7h-6.27v2.43h6.27v-2.43ZM16.34,38.98h4.08c.29,0,.52-.23.52-.52s-.23-.52-.52-.52h-4.08c-.29,0-.52.23-.52.52s.23.52.52.52ZM32.51,13.82c.49,0,.93.2,1.25.52.32.32.52.76.52,1.25s-.2.93-.52,1.25c-.32.32-.76.52-1.25.52s-.93-.2-1.25-.52c-.2-.2-.36-.45-.44-.73h-6.44s-4.25,10.61-4.25,10.61c-.11.27-.41.4-.68.29s-.4-.41-.29-.68l4.37-10.9c.07-.21.26-.37.5-.37h6.79c.09-.28.24-.53.44-.73.32-.32.76-.52,1.25-.52h0ZM33.02,15.08c-.13-.13-.31-.21-.52-.21s-.38.08-.52.21c-.13.13-.21.31-.21.52s.08.38.21.52c.13.13.31.21.52.21s.39-.08.52-.21c.13-.13.21-.31.21-.52,0-.2-.08-.39-.21-.52ZM41.72,23.62c-.49,0-.93.2-1.25.52-.2.2-.36.45-.44.73h-3.88c-.15,0-.28.06-.38.16l-2.77,2.44c-.21.19-.23.52-.05.73.19.21.52.23.73.05l2.65-2.34h3.69c.09.28.24.53.44.73.32.32.76.52,1.25.52s.93-.2,1.25-.52c.32-.32.52-.76.52-1.25s-.2-.93-.52-1.25c-.32-.32-.76-.52-1.25-.52h0ZM42.23,24.88c.13.13.21.31.21.52s-.08.38-.21.52c-.13.13-.31.21-.52.21s-.39-.08-.52-.21c-.13-.13-.21-.31-.21-.52s.08-.38.21-.52c.13-.13.31-.21.52-.21s.39.08.52.21ZM36.52,16.43c-.29,0-.52-.23-.52-.52s.23-.52.52-.52h7.39c.29,0,.52.23.52.52s-.23.52-.52.52h-7.39ZM36.54,46.18c-.29,0-.52-.23-.52-.52s.23-.52.52-.52h7.39c.29,0,.52.23.52.52s-.23.52-.52.52h-7.39ZM36.54,43.71c-.29,0-.52-.23-.52-.52s.23-.52.52-.52h7.39c.29,0,.52.23.52.52s-.23.52-.52.52h-7.39ZM39.55,40.32h-5.65c-.29,0-.52-.23-.52-.52s.23-.52.52-.52h5.65c.09-.28.24-.53.44-.73.32-.32.76-.52,1.25-.52s.93.2,1.25.52.52.76.52,1.25-.2.93-.52,1.25c-.32.32-.76.52-1.25.52s-.93-.2-1.25-.52c-.2-.2-.35-.45-.44-.73h0ZM41.76,39.28c-.13-.13-.31-.21-.52-.21s-.38.08-.52.21c-.13.13-.21.31-.21.52s.08.38.21.52c.13.13.31.21.52.21s.38-.08.52-.21c.13-.13.21-.31.21-.52,0-.2-.08-.38-.21-.52ZM38.26,31.68c-.29,0-.52-.23-.52-.52s.23-.52.52-.52h7.39c.29,0,.52.23.52.52s-.23.52-.52.52h-7.39ZM38.26,29.22c-.29,0-.52-.23-.52-.52s.23-.52.52-.52h7.39c.29,0,.52.23.52.52s-.23.52-.52.52h-7.39ZM36.52,18.89c-.29,0-.52-.23-.52-.52s.23-.52.52-.52h7.39c.29,0,.52.23.52.52s-.23.52-.52.52h-7.39Z"/>
  </g>
</svg>