<?xml version="1.0" encoding="UTF-8"?>
<svg id="Layer_2" xmlns="http://www.w3.org/2000/svg" viewBox="0 0 60 60">
  <defs>
    <style>
      .cls-1 {
        fill: #f55b14;
      }

      .cls-2 {
        fill: #fff;
      }
    </style>
  </defs>
  <g id="Layer_1-2" data-name="Layer_1">
    <circle class="cls-1" cx="30" cy="30" r="30"/>
    <path class="cls-2" d="M21.41,21.84c-.12,0-.23.05-.31.15-.07.09-.1.22-.08.33.12.58.35,1.13.68,1.64.07.1.17.17.29.18.12.01.24-.03.32-.11.2-.19.54-.19.74,0l.04.04c.2.2.2.53,0,.73-.08.09-.13.2-.11.32s.08.23.18.29c.5.32,1.05.55,1.64.68.12.02.24,0,.33-.08s.15-.19.15-.31c0-.29.23-.52.52-.52h.06c.29,0,.52.23.52.52,0,.12.05.23.15.31.07.06.16.09.25.09.03,0,.06,0,.08,0,.58-.12,1.13-.35,1.64-.68.1-.07.17-.17.18-.29.01-.12-.03-.24-.11-.32-.2-.2-.2-.53,0-.73l.05-.05c.19-.19.54-.2.73,0,.09.08.2.12.32.11.12-.01.23-.08.29-.18.32-.5.55-1.05.68-1.64.02-.12,0-.24-.08-.33s-.19-.15-.31-.15c-.29,0-.52-.23-.52-.52v-.06c0-.29.23-.52.52-.52.12,0,.23-.05.31-.15s.1-.22.08-.33c-.12-.58-.35-1.13-.68-1.64-.07-.1-.17-.17-.29-.18-.12-.01-.24.03-.32.11-.2.19-.54.19-.73,0l-.05-.04c-.2-.2-.2-.53,0-.73.08-.09.13-.2.11-.32-.01-.12-.08-.23-.18-.29-.5-.32-1.05-.55-1.64-.68-.12-.02-.24,0-.33.08-.09.07-.15.19-.15.31,0,.29-.23.52-.52.52h-.06c-.29,0-.52-.23-.52-.52,0-.12-.05-.23-.15-.31s-.22-.1-.33-.08c-.58.12-1.13.35-1.64.68-.1.07-.17.17-.18.29-.01.12.03.24.11.32.2.2.2.53,0,.73l-.05.05c-.19.19-.54.2-.73,0-.09-.08-.2-.13-.32-.11-.12.01-.23.08-.29.18-.32.5-.55,1.05-.68,1.64-.02.12,0,.24.08.33s.19.15.31.15c.29,0,.52.23.52.52v.06c0,.28-.23.52-.52.52h0ZM21.9,20.04c.07-.22.16-.43.27-.64.16.07.33.1.51.1.35,0,.68-.14.93-.38l.05-.05c.39-.39.48-.96.28-1.44.21-.11.42-.2.64-.27.2.48.67.82,1.22.82h.06c.55,0,1.02-.34,1.22-.82.22.07.43.16.64.27-.2.48-.11,1.05.28,1.44l.05.05c.25.25.58.38.93.38.18,0,.35-.04.51-.1.11.21.2.42.27.64-.48.2-.82.67-.82,1.22v.06c0,.55.34,1.02.82,1.22-.07.22-.16.43-.27.64-.16-.07-.33-.1-.51-.1-.35,0-.68.14-.93.38l-.05.05c-.39.39-.48.97-.28,1.44-.21.11-.42.2-.64.27-.2-.48-.67-.82-1.22-.82h-.06c-.55,0-1.02.34-1.22.82-.22-.07-.44-.16-.64-.27.2-.48.11-1.05-.28-1.45l-.04-.04c-.25-.25-.58-.38-.93-.38-.18,0-.35.04-.51.1-.11-.21-.2-.42-.27-.64.48-.2.82-.67.82-1.22v-.06c0-.55-.34-1.02-.82-1.22ZM25.83,23.48c1.21,0,2.19-.98,2.19-2.19s-.98-2.19-2.19-2.19-2.19.98-2.19,2.19c0,1.21.98,2.19,2.19,2.19ZM25.83,19.89c.77,0,1.39.62,1.39,1.39s-.62,1.39-1.39,1.39-1.39-.62-1.39-1.39c0-.77.63-1.39,1.39-1.39ZM18.9,28.3c0-.22.18-.4.4-.4h13.07c.22,0,.4.18.4.4s-.18.4-.4.4h-13.07c-.22,0-.4-.18-.4-.4h0ZM19.76,37.98c0,.51.54.93,1.17.93h.89c1.08,0,1.97.77,1.97,1.73s-.88,1.73-1.97,1.73h-.04v.76c0,.22-.18.4-.4.4s-.4-.18-.4-.4v-.76h-.39s-.07,0-.1-.01c-.74-.19-1.18-.49-1.53-1.05-.12-.19-.06-.43.12-.55.19-.12.43-.06.55.12.23.37.5.55,1.01.69h1.18c.63,0,1.17-.43,1.17-.93s-.54-.93-1.17-.93h-.89c-1.08,0-1.97-.77-1.97-1.73s.88-1.73,1.97-1.73h.05v-.76c0-.22.18-.4.4-.4s.4.18.4.4v.76h.38s.07,0,.1.01c.74.19,1.18.49,1.53,1.05.12.19.06.43-.12.55-.19.12-.43.06-.55-.12-.23-.37-.5-.55-1.01-.69h-1.18c-.64,0-1.17.43-1.17.94h0ZM37.66,29.25v-9.6c0-.11-.04-.21-.12-.28l-5.26-5.26c-.07-.07-.17-.12-.28-.12h-15.12c-1.59,0-2.88,1.29-2.88,2.89v26.23c0,1.59,1.29,2.88,2.88,2.88h17.89c.36,0,.71-.07,1.05-.2.58.13,1.19.2,1.81.2,4.62,0,8.37-3.76,8.37-8.37s-3.74-8.35-8.34-8.37h0ZM32.4,15.36l3.9,3.9h-3.9s0-3.9,0-3.9ZM16.88,45.2c-1.15,0-2.09-.94-2.09-2.09v-26.23c0-1.15.94-2.09,2.09-2.09h14.72s0,4.86,0,4.86c0,.22.18.4.4.4h4.86v9.24c-1.82.17-3.46.92-4.76,2.06h-12.81c-.22,0-.4.18-.4.4s.18.4.4.4h12.01c-.67.77-1.2,1.67-1.55,2.65h-5.89c-.22,0-.4.18-.4.4s.18.4.4.4h5.65c-.16.65-.26,1.33-.26,2.03,0,.21.02.41.03.61h-3.77c-.22,0-.4.18-.4.4s.18.4.4.4h3.87c.16.95.48,1.84.93,2.65h-4.85c-.22,0-.4.18-.4.4s.18.4.4.4h5.36c.83,1.17,1.96,2.11,3.27,2.72h-17.2s0,0,0,0ZM37.63,45.2c-4.18,0-7.58-3.4-7.58-7.58s3.4-7.58,7.58-7.58c4.18,0,7.58,3.4,7.58,7.58s-3.4,7.58-7.58,7.58h0ZM43.97,38.45h-.94l-.48-.83.48-.83h.94c.3,0,.56-.17.67-.45.14-.33.05-.75-.19-1.01-.59-.7-1.46-.95-2.1-.95h-.01c-.94,0-1.95.64-2.57,1.61h-1.01v-1.41s.04-.08.05-.13l.35-1.72c.01-.05.01-.11,0-.16l-.35-1.72c-.04-.18-.2-.32-.39-.32h-1.57c-.19,0-.35.13-.39.32l-.35,1.72c-.01.05-.01.11,0,.16l.35,1.72s.03.09.05.13v1.41h-1.01c-.62-.97-1.63-1.61-2.57-1.61-.64,0-1.52.25-2.11.95-.25.26-.33.68-.19,1.01.11.28.37.45.67.45h.94l.48.83-.48.83h-.94c-.3,0-.56.17-.67.45-.14.33-.06.75.19,1.01.59.7,1.46.95,2.1.95h.01c.8,0,1.65-.47,2.27-1.2v3.72c0,.36.14.69.39.95.25.25.59.39.95.39h2.22c.74,0,1.34-.6,1.34-1.34v-3.72c.62.73,1.47,1.2,2.27,1.2h.01c.63,0,1.51-.25,2.1-.95.25-.26.33-.68.19-1.01-.12-.28-.37-.45-.67-.45h0ZM37.29,38.45v-3.67h.66v3.67h-.66ZM37.16,31.34h.93l.27,1.32-.27,1.32h-.93l-.27-1.32.27-1.32ZM34.91,38.66c-.46.82-1.29,1.4-2.01,1.41-.42,0-1.09-.17-1.5-.67,0,0-.02-.02-.02-.03-.02-.02-.04-.07-.04-.11h1.11c.14,0,.27-.07.35-.2l.71-1.22c.07-.12.07-.27,0-.4l-.71-1.22c-.07-.12-.2-.2-.35-.2h-1.11s.02-.09.04-.11c0,0,.02-.02.02-.03.41-.5,1.06-.67,1.49-.67h0c.72,0,1.54.58,2.01,1.41.07.12.2.2.35.2h1.24v1.65h-1.24c-.14,0-.28.08-.35.2h0ZM39.28,43.37c0,.3-.24.54-.54.54h-2.22c-.14,0-.28-.06-.38-.16-.1-.1-.16-.24-.16-.38v-3.94c0-.1.08-.18.18-.18h2.93c.1,0,.18.08.18.18v3.94ZM43.87,39.36s-.02.02-.02.03c-.41.5-1.07.68-1.5.67-.72,0-1.54-.58-2.01-1.41-.07-.12-.2-.2-.35-.2h-1.24v-1.65h1.24c.14,0,.28-.08.35-.2.46-.82,1.29-1.4,2.01-1.41h0c.44,0,1.08.18,1.49.67,0,0,.02.02.02.03.02.02.04.07.04.11h-1.11c-.14,0-.27.07-.34.2l-.71,1.22c-.07.12-.07.27,0,.4l.71,1.22c.07.12.2.2.34.2h1.11s-.01.09-.04.11h0Z"/>
  </g>
</svg>