<?xml version="1.0" encoding="UTF-8"?>
<svg id="Layer_2" xmlns="http://www.w3.org/2000/svg" xmlns:xlink="http://www.w3.org/1999/xlink" viewBox="0 0 50 50">
  <defs>
    <style>
      .cls-1 {
        fill: none;
      }

      .cls-2 {
        fill: #f26128;
      }

      .cls-3 {
        clip-path: url(#clippath);
      }
    </style>
    <clipPath id="clippath">
      <rect class="cls-1" width="50" height="50"/>
    </clipPath>
  </defs>
  <g id="Layer_1-2" data-name="Layer_1">
    <g class="cls-3">
      <g>
        <path class="cls-2" d="M8.85,14.07c1.74,0,3.16-1.42,3.16-3.16s-1.42-3.16-3.16-3.16-3.16,1.42-3.16,3.16,1.42,3.16,3.16,3.16ZM8.85,9.43c.82,0,1.49.67,1.49,1.49s-.67,1.49-1.49,1.49-1.49-.67-1.49-1.49.68-1.49,1.49-1.49Z"/>
        <path class="cls-2" d="M17.83,14.07c1.74,0,3.16-1.42,3.16-3.16s-1.42-3.16-3.16-3.16-3.16,1.42-3.16,3.16c0,1.74,1.42,3.16,3.16,3.16ZM17.83,9.43c.82,0,1.49.67,1.49,1.49s-.67,1.49-1.49,1.49-1.49-.67-1.49-1.49.67-1.49,1.49-1.49Z"/>
        <path class="cls-2" d="M44.17,4.17H5.83C2.62,4.17,0,6.78,0,10v30c0,3.22,2.62,5.83,5.83,5.83h38.33c3.22,0,5.83-2.62,5.83-5.83V10c0-3.22-2.62-5.83-5.83-5.83ZM5.83,5.83h38.33c2.3,0,4.17,1.87,4.17,4.17v5.99H1.67v-5.99c0-2.3,1.87-4.17,4.17-4.17ZM44.17,44.17H5.83c-2.3,0-4.17-1.87-4.17-4.17v-22.34h46.67v22.34c0,2.3-1.87,4.17-4.17,4.17Z"/>
        <path class="cls-2" d="M19.97,25.7c-.36-.29-.88-.23-1.17.13l-3.72,4.57c-.25.31-.25.74,0,1.05l3.72,4.57c.17.2.41.31.65.31.18,0,.37-.06.52-.18.36-.29.41-.82.12-1.17l-3.28-4.04,3.28-4.04c.28-.37.23-.89-.12-1.17Z"/>
        <path class="cls-2" d="M31.21,25.82c-.29-.36-.82-.41-1.17-.13-.36.29-.41.82-.13,1.17l3.28,4.04-3.28,4.04c-.29.36-.23.88.13,1.17.16.13.34.18.53.18.24,0,.48-.11.65-.31l3.72-4.57c.25-.31.25-.74,0-1.05l-3.72-4.57Z"/>
        <path class="cls-2" d="M27.67,22.97c-.43-.14-.91.09-1.06.52l-4.8,14.31c-.15.43.09.91.52,1.06.09.03.17.04.27.04.35,0,.67-.22.79-.57l4.8-14.31c.14-.43-.09-.91-.53-1.06Z"/>
      </g>
    </g>
  </g>
</svg>