<svg id="matchmaking_algo." data-name="matchmaking algo." xmlns="http://www.w3.org/2000/svg" xmlns:xlink="http://www.w3.org/1999/xlink" viewBox="0 0 120 120"><defs><style>.cls-1{fill:none;}.cls-2{clip-path:url(#clip-path);}.cls-3{fill:#ce3544;}</style><clipPath id="clip-path" transform="translate(-38)"><rect class="cls-1" width="196" height="120"/></clipPath></defs><g class="cls-2"><path class="cls-3" d="M98,43.9A16.1,16.1,0,1,0,114.1,60,16.12,16.12,0,0,0,98,43.9Zm0,29.27A13.17,13.17,0,1,1,111.17,60,13.19,13.19,0,0,1,98,73.17ZM158,60a1.46,1.46,0,0,1-1.46,1.46H144.83a1.46,1.46,0,0,1,0-2.92h11.71A1.46,1.46,0,0,1,158,60ZM137.51,42.44A1.46,1.46,0,0,1,139,41h10.24V30.73a1.47,1.47,0,0,1,2.93,0V42.44a1.46,1.46,0,0,1-1.47,1.46H139A1.46,1.46,0,0,1,137.51,42.44Zm14.64,35.12V89.27a1.47,1.47,0,0,1-2.93,0V79H139a1.46,1.46,0,1,1,0-2.92h11.7A1.46,1.46,0,0,1,152.15,77.56Zm-101-16.1H39.46a1.46,1.46,0,0,1,0-2.92H51.17a1.46,1.46,0,0,1,0,2.92Zm-7.32-19V30.73a1.47,1.47,0,0,1,2.93,0V41H57a1.46,1.46,0,1,1,0,2.92H45.32A1.46,1.46,0,0,1,43.85,42.44ZM58.49,77.56A1.46,1.46,0,0,1,57,79H46.78V89.27a1.47,1.47,0,0,1-2.93,0V77.56a1.46,1.46,0,0,1,1.47-1.46H57A1.46,1.46,0,0,1,58.49,77.56Zm41,29.27v11.71a1.46,1.46,0,1,1-2.92,0V106.83a1.46,1.46,0,1,1,2.92,0Zm29.27,5.85a1.47,1.47,0,0,1-1.46,1.47H115.56a1.46,1.46,0,0,1-1.46-1.47V101a1.46,1.46,0,1,1,2.92,0v10.24h10.25A1.47,1.47,0,0,1,128.73,112.68ZM81.9,101v11.7a1.46,1.46,0,0,1-1.46,1.47H68.73a1.47,1.47,0,0,1,0-2.93H79V101a1.46,1.46,0,1,1,2.92,0ZM96.54,13.17V1.46a1.46,1.46,0,1,1,2.92,0V13.17a1.46,1.46,0,1,1-2.92,0ZM114.1,19V7.32a1.46,1.46,0,0,1,1.46-1.47h11.71a1.47,1.47,0,0,1,0,2.93H117V19a1.46,1.46,0,1,1-2.92,0ZM67.27,7.32a1.47,1.47,0,0,1,1.46-1.47H80.44A1.46,1.46,0,0,1,81.9,7.32V19A1.46,1.46,0,1,1,79,19V8.78H68.73A1.47,1.47,0,0,1,67.27,7.32Zm70.24,49a4,4,0,0,0-3.4-4l-2.78-.42a1.06,1.06,0,0,1-.85-.81,34.61,34.61,0,0,0-3.26-7.87,1.12,1.12,0,0,1,.1-1.2l1.61-2.21a4,4,0,0,0-.41-5.23l-5.17-5.16a4,4,0,0,0-5.22-.41l-2.21,1.61a1.12,1.12,0,0,1-1.2.1,32.79,32.79,0,0,0-7.88-3.26,1.09,1.09,0,0,1-.8-.84l-.43-2.78a4,4,0,0,0-4-3.39H94.34a4,4,0,0,0-4,3.4l-.42,2.78a1.07,1.07,0,0,1-.81.85,34.61,34.61,0,0,0-7.87,3.26,1.12,1.12,0,0,1-1.2-.1l-2.21-1.61a4,4,0,0,0-5.23.41l-5.16,5.17a4,4,0,0,0-.41,5.22l1.61,2.21a1.12,1.12,0,0,1,.1,1.2,33.69,33.69,0,0,0-3.26,7.88,1,1,0,0,1-.85.8l-2.78.43a4,4,0,0,0-3.38,4v7.32a4,4,0,0,0,3.41,4l2.77.42a1.06,1.06,0,0,1,.84.79,32.23,32.23,0,0,0,3.26,7.87,1.12,1.12,0,0,1-.1,1.2l-1.61,2.2a4,4,0,0,0,.41,5.22l5.17,5.17a4,4,0,0,0,5.22.41l2.21-1.61a1.12,1.12,0,0,1,1.2-.1,34.13,34.13,0,0,0,7.88,3.26,1,1,0,0,1,.8.85l.42,2.77a4,4,0,0,0,4,3.42h7.32a4,4,0,0,0,4-3.41l.42-2.77a1.06,1.06,0,0,1,.79-.84,32.23,32.23,0,0,0,7.87-3.26,1.12,1.12,0,0,1,1.2.1l2.2,1.61a4,4,0,0,0,5.22-.41l5.17-5.17a4,4,0,0,0,.41-5.22l-1.61-2.21a1.12,1.12,0,0,1-.1-1.2,32.79,32.79,0,0,0,3.26-7.88,1.08,1.08,0,0,1,.83-.8l2.78-.42a4,4,0,0,0,3.43-4Zm-2.92,7.32a1.1,1.1,0,0,1-.94,1.08l-2.78.42a4,4,0,0,0-3.22,2.93,29.92,29.92,0,0,1-3,7.17,4,4,0,0,0,.28,4.39l1.61,2.21a1.08,1.08,0,0,1-.11,1.42l-5.17,5.16a1.06,1.06,0,0,1-1.42.11l-2.19-1.61a4,4,0,0,0-4.39-.28,30.5,30.5,0,0,1-7.17,3,4,4,0,0,0-2.93,3.22l-.42,2.77a1.15,1.15,0,0,1-1.11,1H94.34a1.1,1.1,0,0,1-1.08-.93l-.42-2.78a4,4,0,0,0-2.93-3.22,30.58,30.58,0,0,1-7.18-3,3.89,3.89,0,0,0-2-.52,4.19,4.19,0,0,0-2.43.79l-2.22,1.62a1.06,1.06,0,0,1-1.41-.12l-5.17-5.17a1.08,1.08,0,0,1-.1-1.41l1.61-2.2a4.07,4.07,0,0,0,.28-4.39,30.12,30.12,0,0,1-3-7.17,4,4,0,0,0-3.21-2.93l-2.78-.42a1.13,1.13,0,0,1-.94-1.1V56.34a1.1,1.1,0,0,1,.93-1.08l2.78-.42a4,4,0,0,0,3.22-2.93,30.4,30.4,0,0,1,3-7.18A4,4,0,0,0,71,40.35l-1.61-2.21a1.08,1.08,0,0,1,.11-1.42l5.17-5.17a1.11,1.11,0,0,1,1.42-.11l2.21,1.61a4,4,0,0,0,4.37.28,30.23,30.23,0,0,1,7.19-3,4,4,0,0,0,2.93-3.22l.42-2.78a1.12,1.12,0,0,1,1.09-.95h7.32a1.1,1.1,0,0,1,1.08.94l.42,2.78a4,4,0,0,0,2.93,3.22,29.75,29.75,0,0,1,7.17,3,4,4,0,0,0,4.39-.28l2.21-1.61a1.08,1.08,0,0,1,1.42.11l5.17,5.17a1.11,1.11,0,0,1,.11,1.42L125,40.34a4,4,0,0,0-.28,4.37,30.23,30.23,0,0,1,3,7.19,4,4,0,0,0,3.22,2.93l2.78.42a1.12,1.12,0,0,1,1,1.09Z" transform="translate(-38)"/></g></svg>