<svg id="Video_Calling" data-name="Video Calling" xmlns="http://www.w3.org/2000/svg" xmlns:xlink="http://www.w3.org/1999/xlink" viewBox="0 0 191.88 120"><defs><style>.cls-1{fill:none;}.cls-2{clip-path:url(#clip-path);}.cls-3{fill:#ce3544;}</style><clipPath id="clip-path" transform="translate(-2.06)"><rect class="cls-1" width="196" height="120"/></clipPath></defs><g class="cls-2"><path class="cls-3" d="M192.46,9.36a3.15,3.15,0,0,0-3.46,0L150.85,33,146,36.07V31.56A31.68,31.68,0,0,0,114.43,0H33.62A31.68,31.68,0,0,0,2.06,31.56V88.44A31.68,31.68,0,0,0,33.62,120h80.46a31.68,31.68,0,0,0,31.56-31.56v-5.2l43,27.05c.69.35,1,.69,1.73.69a3.2,3.2,0,0,0,1.74-.34,3.66,3.66,0,0,0,1.73-3.13v-95A2.81,2.81,0,0,0,192.46,9.36ZM138.71,88.44a24.72,24.72,0,0,1-24.63,24.62H33.62A24.71,24.71,0,0,1,9,88.44V31.56A24.71,24.71,0,0,1,33.62,6.94h80.46a24.72,24.72,0,0,1,24.63,24.62Zm48.55,12.83L154.31,80.46l-8.67-5.55V44.05l8.67-5.55L187.26,18Z" transform="translate(-2.06)"/></g></svg>