<svg id="activity_feed" data-name="activity feed" xmlns="http://www.w3.org/2000/svg" xmlns:xlink="http://www.w3.org/1999/xlink" viewBox="0 0 115.02 120"><defs><style>.cls-1{fill:none;}.cls-2{clip-path:url(#clip-path);}.cls-3{fill:#ce3544;}</style><clipPath id="clip-path" transform="translate(-40.49)"><rect class="cls-1" width="196" height="120"/></clipPath></defs><g class="cls-2"><path class="cls-3" d="M116.73,0h1.84C125,.13,128.48.89,132,2.8A19.74,19.74,0,0,1,140.26,11c2,3.73,2.74,7.32,2.8,14.37V71.56a4,4,0,0,1-8,0V26.33c0-6.47-.48-9-1.85-11.53a11.79,11.79,0,0,0-5-4.94C125.81,8.54,123.43,8,117.55,8H66.82c-6.47,0-9,.48-11.53,1.86a11.85,11.85,0,0,0-4.95,4.94l-.34.67c-1.06,2.25-1.47,4.71-1.51,10V93.67c0,6.47.48,9,1.85,11.53a11.85,11.85,0,0,0,4.95,4.94l.67.34c2.36,1.12,4.95,1.52,10.86,1.52H95a4,4,0,1,1,0,8H65c-6.47-.12-9.9-.88-13.47-2.79A19.86,19.86,0,0,1,43.29,109c-2.08-3.89-2.8-7.63-2.8-15.31V24.49c.11-6.46.88-9.9,2.79-13.46A19.82,19.82,0,0,1,51.51,2.8C55.4.72,59.14,0,66.82,0Zm37.5,78.23a4,4,0,0,1,.21,5.65l-32.36,34.84a4,4,0,0,1-5.75.11L98.9,101.41a4,4,0,0,1,5.66-5.66L119,110.24l29.54-31.81a4,4,0,0,1,5.65-.21ZM92.49,66.67a4,4,0,0,1,0,8H73.82a4,4,0,0,1,0-8ZM111.15,40a4,4,0,0,1,0,8H73.82a4,4,0,0,1,0-8Z" transform="translate(-40.49)"/></g></svg>