<svg id="Chat_Functionality" data-name="Chat Functionality" xmlns="http://www.w3.org/2000/svg" xmlns:xlink="http://www.w3.org/1999/xlink" viewBox="0 0 152.04 120"><defs><style>.cls-1{fill:none;}.cls-2{clip-path:url(#clip-path);}.cls-3{fill:#ce3544;}</style><clipPath id="clip-path" transform="translate(-21.98 0)"><rect class="cls-1" width="196" height="120"/></clipPath></defs><g class="cls-2"><path class="cls-3" d="M161.86,21.72h-15a2.72,2.72,0,1,0,0,5.43h15a6.75,6.75,0,0,1,6.73,6.76v58a6.75,6.75,0,0,1-6.73,6.73h-8.77a2.71,2.71,0,0,0-2.72,2.71v10.92l-20-13.18a2.67,2.67,0,0,0-1.5-.45H69.44a6.7,6.7,0,0,1-5.85-3.44,2.72,2.72,0,0,0-4.75,2.64A12.14,12.14,0,0,0,69.44,104h58.67l23.49,15.51h0a2.7,2.7,0,0,0,4.2-2.26V104h6.06A12.18,12.18,0,0,0,174,91.88v-58a12.18,12.18,0,0,0-12.16-12.19Z" transform="translate(-21.98 0)"/><path class="cls-3" d="M126.55,82.33a12.18,12.18,0,0,0,12.17-12.17v-58A12.19,12.19,0,0,0,126.55,0H34.15A12.19,12.19,0,0,0,22,12.18v58A12.18,12.18,0,0,0,34.15,82.33H40.2V95.56a2.71,2.71,0,0,0,4.2,2.27l23.5-15.5Zm-61-5-20,13.17V79.62a2.73,2.73,0,0,0-2.72-2.72H34.16a6.75,6.75,0,0,1-6.75-6.74v-58a6.76,6.76,0,0,1,6.75-6.75h92.39a6.75,6.75,0,0,1,6.74,6.75v58a6.74,6.74,0,0,1-6.74,6.74H67.09a2.75,2.75,0,0,0-1.5.45Z" transform="translate(-21.98 0)"/></g></svg>