<svg id="Layer_6" data-name="Layer 6" xmlns="http://www.w3.org/2000/svg" xmlns:xlink="http://www.w3.org/1999/xlink" viewBox="0 0 99.7 120"><defs><style>.cls-1{fill:none;}.cls-2{clip-path:url(#clip-path);}.cls-3{fill:#ce3544;}</style><clipPath id="clip-path" transform="translate(-48.15)"><rect class="cls-1" width="196" height="120"/></clipPath></defs><g class="cls-2"><path class="cls-3" d="M88.39,116.12A13.18,13.18,0,0,0,97.91,120a13.48,13.48,0,0,0,9.53-3.88c15-14.65,40.41-42.7,40.41-66.36a49.85,49.85,0,0,0-99.7,0c0,23.83,25.24,51.89,40.24,66.36ZM97.91,5.29a44.52,44.52,0,0,1,44.47,44.47c0,22.59-27,51.18-38.64,62.47a8.31,8.31,0,0,1-11.65,0C80.45,101.12,53.45,72.35,53.45,49.76A44.52,44.52,0,0,1,97.92,5.29Z" transform="translate(-48.15)"/><path class="cls-3" d="M126.5,48.18A28.59,28.59,0,1,0,97.91,76.76,28.7,28.7,0,0,0,126.5,48.18Zm-51.88,0A23.3,23.3,0,1,1,97.91,71.65,23.26,23.26,0,0,1,74.62,48.18Z" transform="translate(-48.15)"/></g></svg>