<svg id="profile_creation" data-name="profile creation" xmlns="http://www.w3.org/2000/svg" xmlns:xlink="http://www.w3.org/1999/xlink" viewBox="0 0 146.61 120"><defs><style>.cls-1{fill:none;}.cls-2{clip-path:url(#clip-path);}.cls-3{fill:#ce3544;}</style><clipPath id="clip-path" transform="translate(-24.69)"><rect class="cls-1" width="196" height="120"/></clipPath></defs><g class="cls-2"><path class="cls-3" d="M122.59,106.65a46.52,46.52,0,0,1-.62,7.27,5.22,5.22,0,1,0,10.31,1.7,55,55,0,0,0,.77-9A54.08,54.08,0,0,0,97,55.77a30.93,30.93,0,1,0-36.86,0A54.2,54.2,0,0,0,24.69,106.5a52.45,52.45,0,0,0,.83,9,5.15,5.15,0,0,0,5.15,4.28h.88a5.16,5.16,0,0,0,4.24-5.93v-.05a41.22,41.22,0,0,1-.67-7.27,43.82,43.82,0,1,1,87.63,0ZM78.51,10.51A20.62,20.62,0,1,1,57.89,31.13,20.62,20.62,0,0,1,78.51,10.51Z" transform="translate(-24.69)"/><path class="cls-3" d="M171.31,26a5.16,5.16,0,0,0-5.16-5.16H150.69V5.36a5.16,5.16,0,1,0-10.31,0V20.82H124.91a5.16,5.16,0,1,0,0,10.31h15.47V46.6a5.16,5.16,0,0,0,10.31,0V31.13h15.46A5.16,5.16,0,0,0,171.31,26Z" transform="translate(-24.69)"/></g></svg>