<svg id="User_Verification" data-name="User Verification" xmlns="http://www.w3.org/2000/svg" xmlns:xlink="http://www.w3.org/1999/xlink" viewBox="0 0 115.41 120"><defs><style>.cls-1{fill:none;}.cls-2{clip-path:url(#clip-path);}.cls-3{fill:#ce3544;}</style><clipPath id="clip-path" transform="translate(-40.29 0)"><rect class="cls-1" width="196" height="120"/></clipPath></defs><g class="cls-2"><path class="cls-3" d="M129.66,65.6l-.17-.14-.43-.36a54.54,54.54,0,0,0-16.37-9.24,31,31,0,1,0-36.92,0,54.31,54.31,0,0,0-35.48,50.82,52.58,52.58,0,0,0,.84,9A5.15,5.15,0,0,0,46.28,120h.89a5.17,5.17,0,0,0,4.24-5.94.09.09,0,0,1,0,0,41.33,41.33,0,0,1-.67-7.28,43.89,43.89,0,0,1,71.59-34c.31.25.62.52.93.78a5,5,0,0,0,2.78.83,5.11,5.11,0,0,0,3.63-8.7ZM94.2,51.84a20.66,20.66,0,1,1,20.66-20.66A20.66,20.66,0,0,1,94.2,51.84Z" transform="translate(-40.29 0)"/><path class="cls-3" d="M125,110.18a6.16,6.16,0,0,1-4.35-1.8L108.31,96.06A6.16,6.16,0,0,1,117,87.35l8,8L145.27,75A6.16,6.16,0,0,1,154,83.74l-24.64,24.64A6.19,6.19,0,0,1,125,110.18Z" transform="translate(-40.29 0)"/></g></svg>