<svg id="Layer_1" data-name="Layer 1" xmlns="http://www.w3.org/2000/svg" xmlns:xlink="http://www.w3.org/1999/xlink" viewBox="0 0 123.69 145"><defs><style>.cls-1{fill:none;}.cls-2{clip-path:url(#clip-path);}.cls-3{fill:url(#linear-gradient);}</style><clipPath id="clip-path" transform="translate(-10.66)"><rect class="cls-1" width="145" height="145"/></clipPath><linearGradient id="linear-gradient" x1="10.66" y1="72.5" x2="134.34" y2="72.5" gradientUnits="userSpaceOnUse"><stop offset="0" stop-color="#e63d76"/><stop offset="1" stop-color="#eb6860"/></linearGradient></defs><g class="cls-2"><path class="cls-3" d="M76.62,10c0-2.73,0-5.46,0-8.19,0-1.73.8-2.23,2.37-1.4,28,14.84,47.85,36.2,53.91,68.19,3.41,18,1,35.25-9.9,50.55S97.16,142.7,78.48,144.57c-11.32,1.13-22.32.19-32.67-4.63C26.1,130.76,14,115.45,11.2,93.77,8.22,70.62,17.71,52.34,35,37.6a1.49,1.49,0,0,1,.2-.15c4.35-3.13,5.19-2.77,6.29,2.35,1,4.82,2,9.68,3.41,14.4,1.21,4,2,4.19,5.93,2.51,14.26-6.12,22.36-17,24.75-32.21A122.77,122.77,0,0,0,76.62,10Z" transform="translate(-10.66)"/></g></svg>