<svg id="development" xmlns="http://www.w3.org/2000/svg" xmlns:xlink="http://www.w3.org/1999/xlink" viewBox="0 0 40 28.57"><defs><style>.cls-1{fill:none;}.cls-2{clip-path:url(#clip-path);}.cls-3{fill:#3b82f6;fill-rule:evenodd;}</style><clipPath id="clip-path" transform="translate(0 -5.71)"><rect class="cls-1" width="40" height="40"/></clipPath></defs><g class="cls-2"><path class="cls-3" d="M27.93,9.64a1.74,1.74,0,0,1,2.43,0l9.14,9.15a1.71,1.71,0,0,1,0,2.42l-9.14,9.15a1.74,1.74,0,0,1-2.43,0,1.72,1.72,0,0,1,0-2.43L35.86,20l-7.93-7.93A1.72,1.72,0,0,1,27.93,9.64Z" transform="translate(0 -5.71)"/><path class="cls-3" d="M12.07,9.64a1.74,1.74,0,0,0-2.43,0L.5,18.79a1.71,1.71,0,0,0,0,2.42l9.14,9.15a1.74,1.74,0,0,0,2.43,0,1.72,1.72,0,0,0,0-2.43L4.14,20l7.93-7.93A1.72,1.72,0,0,0,12.07,9.64Z" transform="translate(0 -5.71)"/><path class="cls-3" d="M22.67,5.76A1.72,1.72,0,0,1,24,7.81L18.24,33a1.71,1.71,0,1,1-3.34-.76L20.61,7.05A1.72,1.72,0,0,1,22.67,5.76Z" transform="translate(0 -5.71)"/></g></svg>