<svg id="third_party_integration" data-name="third party integration" xmlns="http://www.w3.org/2000/svg" xmlns:xlink="http://www.w3.org/1999/xlink" viewBox="0 0 40 34.55"><defs><style>.cls-1{fill:none;}.cls-2{clip-path:url(#clip-path);}.cls-3{fill:#3b82f6;}</style><clipPath id="clip-path" transform="translate(0 -2.72)"><rect class="cls-1" width="40" height="40"/></clipPath></defs><g class="cls-2"><path class="cls-3" d="M20,22.52a2.89,2.89,0,1,0,2.89,2.89h0A2.9,2.9,0,0,0,20,22.52Zm0,4.77a1.88,1.88,0,1,1,1.87-1.88h0A1.88,1.88,0,0,1,20,27.29Zm5.23,1.47-.7-.92a5.17,5.17,0,0,0,.39-.94l1.14-.16a.51.51,0,0,0,.44-.5V24.59a.52.52,0,0,0-.44-.51l-1.14-.15a5.27,5.27,0,0,0-.39-.95l.7-.91a.52.52,0,0,0-.05-.67L24,20.23a.5.5,0,0,0-.66-.05l-.92.7a5.48,5.48,0,0,0-.94-.39l-.16-1.14a.52.52,0,0,0-.51-.44H19.18a.52.52,0,0,0-.51.44l-.16,1.14a5.48,5.48,0,0,0-.94.39l-.92-.69a.49.49,0,0,0-.66,0L14.82,21.4a.52.52,0,0,0-.05.67l.7.92a5.17,5.17,0,0,0-.39.94l-1.14.15a.52.52,0,0,0-.44.51v1.65a.51.51,0,0,0,.44.5l1.14.16a5.48,5.48,0,0,0,.39.94l-.69.92a.49.49,0,0,0,0,.66L16,30.59a.52.52,0,0,0,.67.05l.91-.7a5.27,5.27,0,0,0,.95.39l.15,1.14a.51.51,0,0,0,.51.44h1.65a.5.5,0,0,0,.5-.44l.16-1.14a5.48,5.48,0,0,0,.94-.39l.92.7a.5.5,0,0,0,.66-.05l1.17-1.17A.5.5,0,0,0,25.23,28.76ZM24,26.33a4.09,4.09,0,0,1-.53,1.28.51.51,0,0,0,0,.57l.64.84-.54.54-.84-.63a.51.51,0,0,0-.58,0,3.94,3.94,0,0,1-1.27.53.51.51,0,0,0-.39.43l-.15,1h-.76l-.14-1a.53.53,0,0,0-.39-.43,3.9,3.9,0,0,1-1.28-.53.51.51,0,0,0-.58,0l-.83.63L15.86,29l.63-.84a.48.48,0,0,0,0-.57A4.62,4.62,0,0,1,16,26.33a.49.49,0,0,0-.42-.39l-1-.14V25l1-.14A.5.5,0,0,0,16,24.5a4.5,4.5,0,0,1,.53-1.28.5.5,0,0,0,0-.58l-.63-.83.54-.54.83.63a.51.51,0,0,0,.58,0,3.9,3.9,0,0,1,1.28-.53.53.53,0,0,0,.39-.43l.14-1h.76l.14,1a.52.52,0,0,0,.4.43,3.94,3.94,0,0,1,1.27.53.51.51,0,0,0,.58,0l.84-.63.54.54-.64.83a.5.5,0,0,0,0,.58A4.23,4.23,0,0,1,24,24.5a.5.5,0,0,0,.42.39l1,.14v.77l-1,.14A.49.49,0,0,0,24,26.33ZM14.6,14.85H25.88a.51.51,0,0,0,.51-.51h0a6.18,6.18,0,0,0-4.16-5.82A3.24,3.24,0,1,0,17.68,8a2.8,2.8,0,0,0,.57.57,6.16,6.16,0,0,0-4.16,5.82.51.51,0,0,0,.51.51ZM20.24,3.74A2.23,2.23,0,1,1,18,6h0A2.23,2.23,0,0,1,20.24,3.74Zm0,5.47a5.13,5.13,0,0,1,5.1,4.62H15.13A5.14,5.14,0,0,1,20.24,9.21ZM8.14,31a3.24,3.24,0,1,0-4.55-.56,3.35,3.35,0,0,0,.57.56A6.16,6.16,0,0,0,0,36.77a.51.51,0,0,0,.51.51H11.79a.51.51,0,0,0,.51-.51A6.18,6.18,0,0,0,8.14,31ZM3.92,28.4a2.23,2.23,0,1,1,2.23,2.22A2.22,2.22,0,0,1,3.92,28.4ZM1,36.26a5.13,5.13,0,0,1,10.21,0ZM35.84,31a3.24,3.24,0,1,0-4.55-.56,3.35,3.35,0,0,0,.57.56,6.18,6.18,0,0,0-4.16,5.82.51.51,0,0,0,.51.51H39.49a.51.51,0,0,0,.51-.51h0A6.16,6.16,0,0,0,35.84,31ZM31.63,28.4a2.22,2.22,0,1,1,2.22,2.22h0A2.21,2.21,0,0,1,31.63,28.4Zm-2.88,7.86a5.13,5.13,0,0,1,10.2,0ZM20,15.5a.51.51,0,0,1,.51.51h0v1.74a.51.51,0,0,1-1,0V16A.51.51,0,0,1,20,15.5Zm7.38,16.57a.52.52,0,0,1,0,.72.51.51,0,0,1-.72,0h0l-1.24-1.24a.51.51,0,0,1,.72-.72ZM14.47,30.94a.51.51,0,0,1,0,.72l-1.23,1.23a.51.51,0,0,1-.73-.7v0l1.24-1.23a.5.5,0,0,1,.71,0Z" transform="translate(0 -2.72)"/></g></svg>