<svg id="Layer_6" data-name="Layer 6" xmlns="http://www.w3.org/2000/svg" xmlns:xlink="http://www.w3.org/1999/xlink" viewBox="0 0 27.69 40"><defs><style>.cls-1{fill:none;}.cls-2{clip-path:url(#clip-path);}.cls-3{fill:#3b82f6;}</style><clipPath id="clip-path" transform="translate(-6.15)"><rect class="cls-1" width="40" height="40"/></clipPath></defs><g class="cls-2"><path class="cls-3" d="M14.9,13.92l.91-.95L11.17,8.55l4.66-4.86-.93-.9L9.8,8.12a.61.61,0,0,0-.18.46A.65.65,0,0,0,9.8,9Z" transform="translate(-6.15)"/><path class="cls-3" d="M24.21,13l.91.95L30.22,9a.65.65,0,0,0,0-.92L25.12,2.79l-.94.9,4.67,4.86Z" transform="translate(-6.15)"/><rect class="cls-3" x="11.49" y="7.69" width="17.03" height="1.31" transform="translate(0.08 25.08) rotate(-73.16)"/><path class="cls-3" d="M33.72,23.53,30.22,19a.65.65,0,0,0-.53-.27H10.33a.68.68,0,0,0-.52.26L6.3,23.53a.68.68,0,0,0,0,.83L19.49,39.77a.64.64,0,0,0,.92.07l.08-.07L33.68,24.36A.68.68,0,0,0,33.72,23.53ZM27.94,20l-3.6,3-2.82-3ZM20,20.35l2.76,2.93H17.29ZM18.51,20l-2.78,3-3.6-3Zm-8.09.28,3.56,3H8.15ZM8.23,24.58h7l2.65,11.31ZM20.27,38l-.27.32-.25-.3L16.61,24.58h6.85Zm1.87-2.16,2.67-11.28h7Zm4-12.58,3.52-2.93,2.26,2.93Z" transform="translate(-6.15)"/></g></svg>