<svg xmlns="http://www.w3.org/2000/svg" xmlns:xlink="http://www.w3.org/1999/xlink" viewBox="0 0 117 44"><defs><style>.cls-1{fill:none;}.cls-2{fill:#092f5c;}.cls-3{fill:#fff;}.cls-4{clip-path:url(#clip-path);}</style><clipPath id="clip-path"><rect class="cls-1" x="46.5" y="9.99" width="24" height="24"/></clipPath></defs><title>flask</title><g id="Layer_2" data-name="Layer 2"><g id="Layer_3" data-name="Layer 3"><g id="Layer_3-2" data-name="Layer 3"><path class="cls-2" d="M22,0H95a22,22,0,0,1,22,22h0A22,22,0,0,1,95,44H22A22,22,0,0,1,0,22H0A22,22,0,0,1,22,0Z"/></g><g id="layer"><g id="react_JS" data-name="react JS"><path class="cls-3" d="M40.5,22c0-1.92-2.41-3.74-6.09-4.87.85-3.76.47-6.75-1.2-7.71a2.64,2.64,0,0,0-1.32-.33h0c-1.62,0-3.75,1.16-5.9,3.17-2.15-2-4.28-3.15-5.91-3.15h0a2.6,2.6,0,0,0-1.33.33c-1.66,1-2,3.94-1.18,7.69-3.68,1.14-6.07,3-6.07,4.87s2.41,3.74,6.09,4.87c-.85,3.76-.47,6.75,1.2,7.71a2.55,2.55,0,0,0,1.33.33c1.62,0,3.75-1.16,5.9-3.17,2.16,2,4.28,3.15,5.91,3.15a2.72,2.72,0,0,0,1.34-.33c1.66-1,2-3.94,1.17-7.69C38.11,25.73,40.5,23.91,40.5,22ZM31.89,10.4h0a1.3,1.3,0,0,1,.67.16c.81.46,1.15,2.21.88,4.47a16.63,16.63,0,0,1-.3,1.74,28,28,0,0,0-3.75-.65,31.51,31.51,0,0,0-2.46-3C28.85,11.38,30.66,10.4,31.89,10.4ZM20.76,25c.28.47.56.93.85,1.38-.84-.12-1.65-.28-2.42-.46.22-.77.49-1.55.8-2.34C20.23,24.07,20.5,24.55,20.76,25Zm-1.59-7c.78-.18,1.59-.34,2.44-.47-.29.46-.58.93-.85,1.4s-.53,1-.77,1.42a20.1,20.1,0,0,1-.82-2.29Zm1.51,4c.37-.79.78-1.58,1.22-2.36s.94-1.55,1.43-2.26c.88-.07,1.77-.11,2.67-.11a21.28,21.28,0,0,1,2.66.11,23.79,23.79,0,0,1,1.43,2.24c.43.79.86,1.56,1.23,2.36-.37.79-.78,1.58-1.22,2.36s-.94,1.55-1.43,2.25q-1.32.12-2.67.12a21.36,21.36,0,0,1-2.66-.11,22.73,22.73,0,0,1-1.43-2.25C21.48,23.54,21.05,22.8,20.68,22Zm10.56,3c.27-.47.52-1,.77-1.42.31.79.59,1.58.81,2.35-.77.19-1.59.35-2.43.47A14,14,0,0,0,31.24,25Zm0-6c-.27-.48-.56-.94-.85-1.39.84.13,1.65.28,2.42.47-.21.76-.49,1.55-.79,2.33-.26-.49-.52-1-.79-1.41Zm-3.6-3H24.37A24.43,24.43,0,0,1,26,14.1c.55.59,1.09,1.22,1.64,1.89ZM19.4,10.58a1.33,1.33,0,0,1,.68-.15h0c1.23,0,3,1,5,2.75a27.48,27.48,0,0,0-2.44,2.95,28.15,28.15,0,0,0-3.76.65,17,17,0,0,1-.38-1.72C18.26,12.8,18.61,11.05,19.4,10.58Zm-1.49,15c-.58-.19-1.14-.39-1.65-.61-2.09-.89-3.45-2.06-3.45-3s1.36-2.1,3.45-3a16,16,0,0,1,1.64-.59A27.4,27.4,0,0,0,19.23,22a25.88,25.88,0,0,0-1.32,3.6Zm2.2,8a1.44,1.44,0,0,1-.67-.16c-.81-.46-1.15-2.22-.88-4.47a17.1,17.1,0,0,1,.3-1.74,28,28,0,0,0,3.75.64,28.22,28.22,0,0,0,2.46,3c-1.92,1.76-3.73,2.74-5,2.74ZM26,29.87A22.52,22.52,0,0,1,24.37,28h3.27A20.83,20.83,0,0,1,26,29.88ZM32.6,33.4a1.33,1.33,0,0,1-.68.15c-1.23,0-3-1-5-2.75a26.53,26.53,0,0,0,2.44-2.95,28.15,28.15,0,0,0,3.76-.65,17.23,17.23,0,0,1,.38,1.73c.24,2.25-.11,4.06-.9,4.48ZM35.74,25c-.51.22-1.07.42-1.64.6A28.76,28.76,0,0,0,32.77,22a28.38,28.38,0,0,0,1.31-3.58,16.44,16.44,0,0,1,1.66.6c2.09.89,3.45,2.06,3.45,3S37.83,24.1,35.74,25Z"/><path class="cls-3" d="M26,24.69a2.7,2.7,0,1,0-2.7-2.7,2.7,2.7,0,0,0,2.7,2.7Z"/></g><g id="plus"><g class="cls-4"><path class="cls-3" d="M58.5,13a1,1,0,0,0-1,1v7h-7a1,1,0,0,0,0,2h7v7a1,1,0,0,0,2,0V23h7a1,1,0,0,0,0-2h-7V14A1,1,0,0,0,58.5,13Z"/></g></g><g id="flask"><path class="cls-3" d="M84.76,14.53c-.1-.87.68-.5.58,0C85.19,14.69,84.92,14.57,84.76,14.53Zm.93-.17c.19,0,.38,0,.44-.21-.27-.16-.68.25-.51.45C85.71,14.59,85.63,14.41,85.69,14.36Zm-2.61.54c.17-.08.43-.05.51-.21-.48-.17-1.36,0-1.51.28C82.5,15,82.76,14.65,83.08,14.9ZM82,15a.1.1,0,0,0-.11.09.1.1,0,0,0,0,.07C82,15.15,82,15.08,82,15Zm-.26.47c0-.23-.55-.4-.6-.1S81.61,15.65,81.73,15.46Zm-.9-.21a.36.36,0,0,0-.24.11C80.68,15.41,80.86,15.4,80.83,15.25Zm-.28.63c.41,0,.53.34.88.3C81.5,15.77,80.66,15.21,80.55,15.88Zm5.53,2c-.12-.41.25-.76,0-1.07-.31,0-.59,1.49-.13,1.49s.43-.9.46-1.19c-.22.16-.11.63-.33.79Zm-3.88-.16c0-.07,0-.08-.1-.07s.06.13.1.09Zm1.14.67c0-.14,0-.28-.12-.3s-.08.07-.14.09a.25.25,0,0,0,.26.23Zm-1.12.74c.45.05.75.38,1.16.38A2.24,2.24,0,0,0,82.17,19c0,.08,0,.07,0,.11Zm3.51.35a.93.93,0,0,0-.18-.39.58.58,0,0,0,.18.41ZM83.17,20a2,2,0,0,0-1.27-.81C82,19.82,82.66,19.83,83.17,20Zm-.79.14a1.59,1.59,0,0,0-.95-.65c.23.31.44.74.95.67Zm-1.07-.32c.08.14.28.28.24.46-.21-.06-.31-.22-.52-.28.12.16.54.84.8.82s.23-.2.2-.49-.53-.33-.72-.49Zm1.19.6a.29.29,0,0,0,.26.33.48.48,0,0,0-.26-.31Zm-.16.07c-.09,0-.14,0-.14.1h0s.15,0,.14-.08Zm4,.54a1.1,1.1,0,0,0,0-.51c-.06.15-.17.48,0,.53Zm-1.62-.49c0,.14,0,.36.07.39s0-.31-.1-.37Zm1.09.53c-.07-.06-.17,0-.21,0s0-.37-.16-.44h0c-.19.4-.17,1.25.16,1.46.07.11.07.28.24.28a.75.75,0,0,0,.18-.53c-.37-.06-.1-.56-.24-.75Zm.7.26c0-.21.2-.51.07-.72a1.56,1.56,0,0,0-.08.74Zm-4.1.19a.37.37,0,0,0-.07-.35c-.08.12-.11.35,0,.37Zm.42.09c.1.06.1.21.23.23.14-.19-.17-.56-.26-.21Zm4,.46c0,.08-.09.17,0,.24s0-.16,0-.22ZM87,23v-.28c0-.05-.17.3-.05.3Zm-3,1c0,.09,0,.18.12.19A.12.12,0,0,0,84,24h0ZM85,24c0,.06.13.18.19.14s-.08-.19-.15-.12Zm2.21.26a.87.87,0,0,0,.25.69c0-.25,0-.63-.21-.67Zm.58,1.79v-.33s-.1.31,0,.35Zm1,1.11a.38.38,0,0,0-.3-.35c.13.19.14.4.39.37Zm.21.33v.28a.41.41,0,0,0,.09-.26Zm-7.68,0a.19.19,0,0,0,.1.17.19.19,0,0,0,0-.13Zm8.52,1.28a1.27,1.27,0,0,0-.59-.91,1.11,1.11,0,0,0,.68,1Zm3.74,2.3s-.11-.05-.12,0,.19.13.21,0Zm11.88,1.76v.26a1.28,1.28,0,0,0-.07.28c-.65.42-1.86.26-2.4.79-.93-.5-1.8.29-2.79.37h-.51c-.58,0-1.15.19-1.74.24s-1.22.08-1.86.11h-.7a23.17,23.17,0,0,1-7.86-1.49,14.43,14.43,0,0,1-2.93-1.74,12.24,12.24,0,0,1-2.4-2.26c-.66-.89-1.33-1.76-1.93-2.74a25.42,25.42,0,0,1-1.58-3.07,19.92,19.92,0,0,1-1.11-3.54,16.61,16.61,0,0,0-.79-2.69,2.81,2.81,0,0,1-.33-.89v-.21a2.22,2.22,0,0,1,1.77-1.81,2.85,2.85,0,0,0,.65-.26s.15,0,.09-.09c-.4-.09-.72.49-1.16.33s-.17-.75.25-.93c.2-.09.59-.11.77-.21a.87.87,0,0,0,.4-.89c0-.2-.24-.3-.24-.46s.42-.42.61-.56.51-.38.49-.65-.36-.37-.51-.58a.65.65,0,0,1,0-.93.27.27,0,0,1,.08-.07c.43-.2,1.22-.09,1.3.45s-.25.65-.11,1c.26.65,2.29-.38,1.79,1,.45.7,2.19.1,2.23,1.21.73,0,1.06.57,1.65.79.16.06.35.06.51.12,1,.34,2.23.7,2.63,1.65-.37.25-.87.08-1.3-.07s-.92-.39-1.3-.23-.36.8-.3,1.44c.14,1.71.22,3.47.46,5a11.41,11.41,0,0,0,2.09,5.19,14.47,14.47,0,0,0,3.68,3.6,14.22,14.22,0,0,0,4.53,1.84,3.13,3.13,0,0,0,.75.16c.22,0,.69-.68.86-.84.4-.37.94-.89,1.51-.44-.08.62-.63.76-.77,1.33.35.22.71,0,1.14,0s.88.32,1.3.26.41-.24.61-.37C103.5,32.92,105.23,32,105.5,32.87Zm-5-1.72v-.21S100.27,31.19,100.5,31.15ZM88.76,14.78a5.61,5.61,0,0,1,.62.47c.12-.36-.22-.58-.62-.56ZM95,31.92c.09,0,.15,0,.16-.07A.17.17,0,0,0,95,31.92ZM91.8,29.87c0,.11.22.12.26.1S91.91,29.8,91.8,29.87Zm-.56-.44h.21a.31.31,0,0,0,0-.19C91.28,29.26,91.25,29.33,91.24,29.43Zm-4.46-9.51c-.06-.05-.11,0-.14,0a3.79,3.79,0,0,0,0-2c-.06,0-.15,0-.18,0a4.11,4.11,0,0,0,.21-1.67.83.83,0,0,0-.21-.53c-.1-.06-.48.08-.65.14s-.23,0-.35,0a3.81,3.81,0,0,0-1.28.35c.16.11.39.15.46.35a5.52,5.52,0,0,1-1.14-.25c0,.53-.6.36-1,.4.14,0,.16.07.17.16,0,.31-1,.68-1.35.44-.5.41.22.82.18,1.33-.09.07-.14.2-.23.28-.49,0-1,.11-.93.63a.3.3,0,0,0-.26,0,.58.58,0,0,0,.35.74h0c.07,0,.09-.1.18-.1.65.13.88.56.84,1.38a.61.61,0,0,1-.09.41c-.37,0-.71-.93-.12-.95-.14-.21-.25-.52-.51-.51s-.44.48-.65.65c.31.17,1,.64.44.95a.88.88,0,0,1,.58.33c.2.27.2.68.35.91.31.45.47-.41.84,0,.08,0,0-.08,0-.09-.31-.34-.79-.62-1-1a.94.94,0,0,1,.47,0c0-.28-.14-.59-.07-.79s.14-.09.23-.14,0-.16.12-.12c0,.32-.2.86,0,1.09.32.06.41-.48.68-.48s.29.26.39.39.3.36.26.54c-.09.37-.72.08-.93-.07.13.52.94.6,1,1.27v.26a.46.46,0,0,0,.72.4c0,.12.06.3.19.34s.07-.34.14-.48a.9.9,0,0,1,.74.6c.06.16,0,.46.3.47,0-.4-.27-.65-.32-1,.21.34,1,.7.93,1.24,0,.35-.44.38-.84.44.38.13.54.55,1,.69a1,1,0,0,1,.38.05c.3.11.78.73.65,1.12-.65.32-1.15-.55-1.86-.54a2.74,2.74,0,0,0,1.21.7c.44.2.89.4,1.32.61a6.76,6.76,0,0,1,2.4,1.88c-.47.25-1.87-.17-1-.47-.29,0-.6-.19-.86-.09.14.89,1.31.74,2.19.88a4.38,4.38,0,0,1-.28.42.45.45,0,0,0,.28,0c-.06.09-.2.09-.21.23s.34.19.49.3c.6-.42.66.55,1,.56s.43-.5.8-.56c-.09.19-.27.29-.35.49.35-.08.45-.27.74-.35,1-.26,1.89.61,2.74.7a4.85,4.85,0,0,1,.89.26,1.25,1.25,0,0,0,.84-.19c-.42-.38-1.37-.23-1.7-.7,0-.08.07-.11.11-.16a2.13,2.13,0,0,1-2.23-1,4.39,4.39,0,0,1-3.09-2c0-.1.1-.05.07-.16a11.65,11.65,0,0,1-1.31-1.74,5.19,5.19,0,0,0-.37-.65c-.09-.11-.25-.17-.35-.28s-.17-.3-.28-.3,0,.29-.07.39c-.11-.45-.36-.87-.83-.88,0-.33.25-.38.39-.56a2.26,2.26,0,0,1-.32-.84c-.24-.81-.43-1.66-.63-2.41-.27.09-.34.39-.47.62,0-.33,0-.67.21-.83.09,0,.09.09.14.14,0-.16.2-.31.12-.52s-.24-.05-.28,0A1.71,1.71,0,0,0,86.78,19.92Zm9.35,13.79a.74.74,0,0,0,.46-.39C96.37,33.37,96.07,33.45,96.13,33.71Zm0-.46a1.05,1.05,0,0,0-.37.25c.21,0,.44-.18.39-.25Zm-.72.35a.32.32,0,0,0,.26-.28c0-.1-.37.12-.24.28Zm.09-.54a.3.3,0,0,0-.38.2.31.31,0,0,0,0,.1A.59.59,0,0,0,95.5,33.06Zm-.65,0a.48.48,0,0,0-.42.3c.27.15.4-.07.44-.25Zm-.32.6h.11s-.14,0-.09.05Zm.37-1c-.33,0-.72.19-.51.47a.83.83,0,0,0,.53-.42Zm-1.61.44c.21,0,.26-.2.4-.16s0,.23.16.23a.48.48,0,0,0,.3-.62.37.37,0,0,0-.07-.14c-.39.12-.76.34-.77.74Zm.1-.6a.69.69,0,0,0-.33.23c.17.05.44-.12.35-.18Zm-.65.12c0,.06-.1.11,0,.16s.13-.1,0-.11Zm-.42.55v.1h.1a.09.09,0,0,0-.08-.05ZM92,33.06c-.12,0-.16.08-.16.21s.21,0,.18-.16Zm-2.35-1.19c-.14,0-.19,0,0,.05a1.19,1.19,0,0,0,.53,0c-.12.07-.44,0-.51,0Zm.7-.37c-.12-.09-.37,0-.49,0,.09.27.44.18.51.05Zm-.75,1.74a3.83,3.83,0,0,0,2.21.54,8.68,8.68,0,0,0-2.19-.49ZM88.71,33c.06.07.19.07.28.11s-.18-.21-.26-.06ZM86.53,31.1c-.16,0-.33,0-.38.14.17.11.35.07.4-.09Zm-.45.61c.06.05.16.11.19,0s-.15,0-.17.05Zm.28-2a.09.09,0,0,0-.18,0,.25.25,0,0,0,.2.07Zm.31.79v-.07a.33.33,0,0,0-.33,0,.29.29,0,0,0,.35.14Zm0,1.49a.12.12,0,0,0,.14,0c0-.07,0-.09-.07-.12s0,.12,0,.19Zm.72-2.67c-.08-.22-.32-.16-.49-.24s-.49-.38-.84-.39h0a1.44,1.44,0,0,0,1.37.7Zm-1.21-.86a1.82,1.82,0,0,0-.77-.33.83.83,0,0,0,.81.4Zm.72,1.09a.85.85,0,0,0,.72.28.88.88,0,0,0-.68-.21Zm.89,1.05c-.24-.17-.62-.44-.93-.38a1,1,0,0,0,1,.45Zm-.89.88v.07c0,.07.14,0,0,0Zm.54.7c0,.09.1.11.18.14s.1-.08.07-.19-.19,0-.19.12Zm.44-1c-.07,0-.34-.09-.4,0,.16.09.38.21.44,0Zm.07-.79c0-.17-.17-.17-.26-.11s.2.12.3.15Zm.25-1.25c-.1-.16-.39-.13-.6-.19a1,1,0,0,0-.84-.21,2.13,2.13,0,0,0,1.48.44Zm0,2.23a1,1,0,0,0,.39.16.43.43,0,0,0,0-.16s-.34-.08-.39,0Zm-2-3.77c0-.11,0-.13-.14-.11s.1.13.16.15Zm.56.28c-.07,0,0-.12-.14-.11s.09.22.16.15ZM85.15,28c-.07-.17-.25-.24-.37-.37.23-.33-.28-.46-.37-.7a.13.13,0,0,1,.07-.14,1.23,1.23,0,0,1-.54-.39c.09-.07.33,0,.42,0-.14-.06-.29-.11-.35-.25s.42-.13.49-.33a4.77,4.77,0,0,0-1.23-.28c0,.17.15.19.21.3a1,1,0,0,0-.42-.13c0,.11.06.14,0,.25s-.19,0-.33,0c.1.21.34.28.42.51h-.26a3.58,3.58,0,0,1,.75.65c-.23,0-.36-.18-.58-.23.18.37.64.44,1,.63a3.52,3.52,0,0,0,1.11.52Zm-.51.28c.1.06.29.23.42.1-.09,0-.26-.12-.4-.06Zm-.14-.07a.49.49,0,0,0-.49-.1A.64.64,0,0,0,84.5,28.25Zm-.42.07v.09c0,.09.14,0,.14,0s-.09-.1-.16-.09Zm-.3-3.1a1.49,1.49,0,0,0-.33-.62c-.1-.1-.19-.09-.26-.21-.18-.32-.09-.77-.32-1.1h-.21s.36.52.12.7c-.54,0-.74-.4-1.26-.32-.12.3.29.45.19.67a16.86,16.86,0,0,0,2.05.88Zm-1.68.7a.93.93,0,0,0,.51.26c-.11-.1-.29-.34-.53-.26Zm-.25-.21a.44.44,0,0,0-.4-.35c0,.2.25.23.38.35Zm-.4.61c.12.08.25.29.37.3-.11-.12-.22-.34-.39-.3Zm.16-1.61v-.09a.15.15,0,0,0-.2,0l0,.05.21,0Zm3.61.93a.26.26,0,0,0-.27-.25.28.28,0,0,0-.13,0c0,.15.2.19.38.21Zm-2.19-3h-.14s.12.06.12,0Zm-.91-.1H82v.17c0,.07.13.08.16,0a.19.19,0,0,0-.09-.21Zm-1.74,0a.25.25,0,0,0,.34.1.24.24,0,0,0,.1-.1.72.72,0,0,0-.46-.06Zm.07-.65a.45.45,0,0,0-.23,0c0,.1.21.1.21-.06Zm.21-3.75c-.12.06-.37-.05-.49,0,.11.42.89.2.84-.14s-.79-.21-1-.18c.13.08.49.11.63.26Zm-.93.45c0,.06.16.05.23.09s.06-.07,0-.14-.25-.12-.25,0Zm1.19-.1s-.06.15,0,.17a.13.13,0,0,0,.11-.12.12.12,0,0,0-.13-.11h0Zm.65-1.39V17c0-.07-.16,0-.16.09s.09,0,.14,0Zm0-5.16c-.09.56.42,1.25,1,1,0-.21-.07-.3-.07-.49.15,0,.24.11.32.07-.24-.43-.85-.46-1.32-.64Zm-.25-.54c.2,0,.52,0,.6-.14-.2-.16-.67-.19-.65.08Zm-.56-1.63a.5.5,0,0,0-.48-.52.49.49,0,0,0-.36.13c-.2.19-.29.65,0,.81,0-.12-.15-.17-.12-.35.22-.2.7,0,.91-.13Zm-.16,1.49c.06,0,.14,0,.14-.14s-.24,0-.19.08ZM80.11,13c.29,0,.51-.16.79-.16s.48.07.77,0c-.26-.67-1.27-.14-1.61.05Zm-.49,1a8,8,0,0,1,2-.35,1.55,1.55,0,0,1,.68.3c-.08-.08-.18-.43,0-.48.38.07.39.79.86.69.24,0,.31-.51.18-.79.18.13.27.34.52.4a1.72,1.72,0,0,0-.33-.51c.07-.09.16-.15.14-.33a6.74,6.74,0,0,0-1.88.42c-.49.1-.85.19-1.28.3A2.21,2.21,0,0,0,79.62,14Zm-2,4.82v.13s.13-.16,0-.13ZM78.5,16c-1,.16.06,1.24.67,1,.08-.11,0-.22,0-.39a4.35,4.35,0,0,1,.93-.07c.05.11,0,.2-.07.3,1-.07,1.58-.89,2.72-1h.46a12.92,12.92,0,0,0,1.52-.21c.48-.09.93-.27,1.34-.37s1.32-.47,1.21-1.17a.7.7,0,0,0-.11-.23c-2.77-.27-4.85.82-7,1.26-.26.05-.58,0-.79.23.08.19.35.18.47.33-.06.07-.21,0-.23.16s.34.15.37.37c-.46.33-1.44-.09-1.21-.74-.7.15-1.72.3-1.72,1.09a1.12,1.12,0,0,0,.44.86C77.34,16.68,77.61,15.59,78.5,16Zm.86,4.35c0-.16-.24-.27-.33-.17a1.87,1.87,0,0,0,.31.17Zm-.82.3c.17.57.22,1.25.65,1.56a2.62,2.62,0,0,0-.69-1.56Zm1-.61c.07-.32-.41-.45-.44-.23s.24.14.4.23Zm.09-.62a.63.63,0,0,0-.56-.14c0,.16.43.41.52.14Zm-.28-1c.11-.06.22-.12.24-.28-.14-.1-.46-.11-.49.05s.1.14.21.2Zm.31.4a.31.31,0,0,0,0-.19.16.16,0,0,0-.18.14v0h.14ZM78,18.74c0-.06,0-.13-.07-.16s-.1.14,0,.13Zm.23-1.58a.27.27,0,0,0-.3.09.52.52,0,0,0,.18.1c0-.11.09-.11.08-.22Zm.26,3c-.06-.13-.07-.32-.19-.39-.36,0,0,.47.17.36ZM79,22.67a2.63,2.63,0,0,0,1,1.4,7.52,7.52,0,0,1-.7-1.56c-.08-.17-.22-.3-.3-.47-.19-.39-.27-.86-.65-1a12.86,12.86,0,0,0,.61,1.6Zm6.39,8.72a1.15,1.15,0,0,0-1-.81c-.13-.31-.51-.38-.58-.74,0-.08.14-.11.09-.14-.71.13-.73-.62-1.07-.93-.85,0-.69-1-1.16-1.59-.14-.15-.27-.19-.42-.34-.23-.72-.84-1.09-1.19-1.73s-.37-1.2-.88-1.6a13.77,13.77,0,0,0,2,3.67,19.1,19.1,0,0,0,1.75,2.54,8.27,8.27,0,0,0,.79.65c.44.37.82,1.11,1.63,1Zm-.09-1.58c0-.1-.2-.16-.3-.11a.79.79,0,0,0,.26.08Zm.86-.6a1.92,1.92,0,0,0-.79-.37,1.59,1.59,0,0,0-1.19-.12c0,.23.21.3.33.44.32.05.51.21.81.23s.66,0,.8-.21Zm11.09,5.3c-.7-.32-1.73,0-2.48-.14-.15,0-.27-.13-.4-.14a2.66,2.66,0,0,0-.39.07,8.12,8.12,0,0,1-1.84-.09A11.38,11.38,0,0,1,90.8,34c-.36-.1-.74-.32-1.11-.46l-1.14-.45a23.54,23.54,0,0,0-2.24-1c.51.54,1.38.72,2,1.17a18.52,18.52,0,0,1-2.23-1,8,8,0,0,0,2.23,1.18A10.75,10.75,0,0,0,91,34.2a18.4,18.4,0,0,0,6.19.28Zm.61-.07c-.12,0-.27,0-.28.09s.23,0,.24-.12Zm1.25-2.74a.15.15,0,0,0,.17.1.14.14,0,0,0,.09-.17h0a.35.35,0,0,0-.3,0ZM101,32.9c-.62,0-1.39-.23-2-.2-.25,0-.55.06-.63.32A1.34,1.34,0,0,0,99,33c.67,0,1.59.31,2-.15Zm.63,0c-.11,0-.14.07-.16.16s.1,0,.16,0,0-.16,0-.23Zm1.38-.09a.12.12,0,0,0-.14.1.19.19,0,0,0,0,.08H103s-.08-.18-.06-.25Zm1.93.13a6,6,0,0,0-1.47,0c.22.22,1.13.05,1.43-.07ZM82.5,18.74c.23.12.44.39.75.37-.08-.11-.2-.19-.28-.3.08,0,.16,0,.18-.1a2.93,2.93,0,0,1-.79-.7A.9.9,0,0,1,82.5,18.74Zm3,.18c0-.05,0-.17-.09-.21S85.5,19,85.5,18.92Zm-2.14,2c0,.39.28.56.3,1a4.77,4.77,0,0,1-.6-1.14,2.69,2.69,0,0,0,.25,1.12c.1.25.19.55.45.62.11,0,.11-.17.23-.18s.2.22.28.21a.67.67,0,0,1-.1-.31c0-.08.15-.07.19-.14a3,3,0,0,0-1-1.11Z"/></g></g></g></g></svg>