<svg xmlns="http://www.w3.org/2000/svg" xmlns:xlink="http://www.w3.org/1999/xlink" viewBox="0 0 117 44"><defs><style>.cls-1{fill:none;}.cls-2{fill:#092f5c;}.cls-3{fill:#fff;}.cls-4{clip-path:url(#clip-path);}</style><clipPath id="clip-path"><rect class="cls-1" x="46.47" y="10" width="24" height="24"/></clipPath></defs><title>golang</title><g id="Layer_2" data-name="Layer 2"><g id="Layer_6" data-name="Layer 6"><g id="Layer_3" data-name="Layer 3"><path class="cls-2" d="M22,0H95a22,22,0,0,1,22,22h0A22,22,0,0,1,95,44H22A22,22,0,0,1,0,22H0A22,22,0,0,1,22,0Z"/></g><g id="layer"><g id="react_JS" data-name="react JS"><path class="cls-3" d="M40.47,22c0-1.92-2.41-3.74-6.09-4.87.85-3.76.47-6.75-1.2-7.71a2.54,2.54,0,0,0-1.32-.33h0c-1.62,0-3.75,1.16-5.9,3.17-2.15-2-4.28-3.15-5.91-3.15h0a2.55,2.55,0,0,0-1.33.33c-1.66,1-2,3.94-1.18,7.69-3.68,1.14-6.07,3-6.07,4.87s2.41,3.74,6.09,4.87c-.85,3.76-.47,6.75,1.2,7.71a2.55,2.55,0,0,0,1.33.33c1.62,0,3.75-1.16,5.9-3.17,2.16,2,4.28,3.15,5.91,3.15a2.72,2.72,0,0,0,1.34-.33c1.66-1,2-3.94,1.17-7.69C38.08,25.74,40.47,23.92,40.47,22ZM31.86,10.41h0a1.3,1.3,0,0,1,.67.16c.81.46,1.15,2.21.88,4.47a17.1,17.1,0,0,1-.3,1.74,28,28,0,0,0-3.75-.65,30.27,30.27,0,0,0-2.46-2.95C28.82,11.39,30.63,10.41,31.86,10.41ZM20.73,25c.28.47.56.93.85,1.38-.84-.12-1.65-.28-2.42-.46.22-.77.49-1.55.8-2.34C20.2,24.08,20.47,24.56,20.73,25Zm-1.59-7c.78-.18,1.59-.34,2.44-.47-.29.46-.58.93-.85,1.4s-.53,1-.77,1.42a20.1,20.1,0,0,1-.82-2.29Zm1.51,4c.37-.79.78-1.58,1.22-2.36s.94-1.55,1.43-2.26c.88-.07,1.77-.11,2.67-.11a21.28,21.28,0,0,1,2.66.11,23.79,23.79,0,0,1,1.43,2.24c.43.79.86,1.56,1.23,2.36-.37.79-.78,1.58-1.22,2.36s-.94,1.55-1.43,2.25q-1.32.12-2.67.12a21.36,21.36,0,0,1-2.66-.11,22.73,22.73,0,0,1-1.43-2.25C21.45,23.55,21,22.81,20.65,22Zm10.56,3c.27-.47.52-1,.77-1.42.31.79.59,1.58.81,2.35-.77.19-1.59.35-2.43.47A14,14,0,0,0,31.21,25Zm0-6c-.27-.48-.56-.94-.85-1.39.84.13,1.65.28,2.42.47-.21.76-.49,1.55-.79,2.33-.26-.49-.52-1-.79-1.41Zm-3.6-3H24.34A24.43,24.43,0,0,1,26,14.11c.55.59,1.09,1.22,1.64,1.89Zm-8.24-5.41a1.33,1.33,0,0,1,.68-.15h0c1.23,0,3,1,5,2.75a26.53,26.53,0,0,0-2.44,3,28.15,28.15,0,0,0-3.76.65,17,17,0,0,1-.38-1.72C18.23,12.81,18.58,11.06,19.37,10.59Zm-1.49,15c-.58-.19-1.14-.39-1.65-.61-2.09-.89-3.45-2.06-3.45-3s1.36-2.1,3.45-3a16,16,0,0,1,1.64-.59A27.4,27.4,0,0,0,19.2,22a25.88,25.88,0,0,0-1.32,3.6Zm2.2,8a1.44,1.44,0,0,1-.67-.16c-.81-.46-1.15-2.22-.88-4.47a16.63,16.63,0,0,1,.3-1.74,29.67,29.67,0,0,0,3.75.64,28.22,28.22,0,0,0,2.46,3c-1.92,1.76-3.73,2.74-5,2.74ZM26,29.88A22.52,22.52,0,0,1,24.34,28h3.27A22.54,22.54,0,0,1,26,29.89Zm6.59,3.53a1.33,1.33,0,0,1-.68.15c-1.23,0-3-1-5-2.75a27.48,27.48,0,0,0,2.44-2.95,28.15,28.15,0,0,0,3.76-.65,17.23,17.23,0,0,1,.38,1.73c.24,2.25-.11,4.06-.9,4.48ZM35.71,25c-.51.22-1.07.42-1.64.6A28.76,28.76,0,0,0,32.74,22a28.38,28.38,0,0,0,1.31-3.58,16.44,16.44,0,0,1,1.66.6c2.09.89,3.45,2.06,3.45,3S37.8,24.11,35.71,25Z"/><path class="cls-3" d="M26,24.7a2.7,2.7,0,1,0-2.7-2.7A2.7,2.7,0,0,0,26,24.7Z"/></g><g id="plus"><g class="cls-4"><path class="cls-3" d="M58.47,13a1,1,0,0,0-1,1v7h-7a1,1,0,0,0,0,2h7v7a1,1,0,0,0,2,0V23h7a1,1,0,0,0,0-2h-7V14A1,1,0,0,0,58.47,13Z"/></g></g><path id="goLang" class="cls-3" d="M78.66,19.86c-.06,0-.07,0,0-.07l.29-.38a.24.24,0,0,1,.16-.07h5s.07,0,0,.09l-.24.36a.22.22,0,0,1-.14.09Zm-2.13,1.3c-.06,0-.07,0,0-.07l.3-.38a.24.24,0,0,1,.16-.07h6.38c.06,0,.09,0,.07.08l-.11.34a.12.12,0,0,1-.12.09Zm3.41,1.22.2-.36a.16.16,0,0,1,.14-.08H83.1c.06,0,.09,0,.09.1v.34a.13.13,0,0,1-.1.1ZM94.6,19.61c-.89.22-1.5.39-2.37.62-.21.06-.23.07-.41-.14a1.84,1.84,0,0,0-.67-.54,2.42,2.42,0,0,0-2.55.21,3,3,0,0,0-1.44,2.69,2.2,2.2,0,0,0,1.9,2.21,2.61,2.61,0,0,0,2.41-.93c.12-.15.23-.32.38-.52H89.12c-.29,0-.37-.19-.27-.42.19-.44.52-1.18.72-1.54a.39.39,0,0,1,.36-.23h5.13A10.92,10.92,0,0,1,95,22.16a6.09,6.09,0,0,1-1.16,2.77,5.84,5.84,0,0,1-4,2.4A5,5,0,0,1,86,26.4a4.45,4.45,0,0,1-1.79-3.13,5.48,5.48,0,0,1,1.2-4.14,6.25,6.25,0,0,1,4-2.44,4.84,4.84,0,0,1,3.74.69,4.34,4.34,0,0,1,1.64,2c.09.13,0,.2-.14.24m4.67,7.81a5.33,5.33,0,0,1-3.44-1.25,4.43,4.43,0,0,1-1.53-2.72,5.41,5.41,0,0,1,1.1-4.28,5.88,5.88,0,0,1,4-2.35,5.13,5.13,0,0,1,4,.72,4.4,4.4,0,0,1,2,3.15,5.5,5.5,0,0,1-1.63,4.78,6.43,6.43,0,0,1-3.39,1.81c-.38.07-.76.08-1.13.13Zm3.36-5.71a3.53,3.53,0,0,0,0-.46A2.32,2.32,0,0,0,100,19.33l-.22.05a3.08,3.08,0,0,0-2.47,2.46,2.33,2.33,0,0,0,1.3,2.67,2.62,2.62,0,0,0,2.3-.09,3.08,3.08,0,0,0,1.79-2.7Z"/></g></g></g></svg>