<svg xmlns="http://www.w3.org/2000/svg" xmlns:xlink="http://www.w3.org/1999/xlink" viewBox="0 0 117 44"><defs><style>.cls-1{fill:none;}.cls-2{fill:#092f5c;}.cls-3{fill:#fff;}.cls-4{clip-path:url(#clip-path);}</style><clipPath id="clip-path"><rect class="cls-1" x="46.5" y="9.98" width="24" height="24"/></clipPath></defs><title>native</title><g id="Layer_2" data-name="Layer 2"><g id="Layer_2-2" data-name="Layer 2"><g id="Layer_3" data-name="Layer 3"><path class="cls-2" d="M22,0H95a22,22,0,0,1,22,22h0A22,22,0,0,1,95,44H22A22,22,0,0,1,0,22H0A22,22,0,0,1,22,0Z"/></g><g id="layer"><g id="react_JS" data-name="react JS"><path class="cls-3" d="M40.5,22c0-1.92-2.41-3.74-6.09-4.87.85-3.76.47-6.75-1.2-7.71a2.75,2.75,0,0,0-1.32-.33h0c-1.62,0-3.75,1.16-5.9,3.17-2.15-2-4.28-3.15-5.91-3.15h0a2.7,2.7,0,0,0-1.33.33c-1.66,1-2,3.94-1.18,7.69-3.68,1.14-6.07,3-6.07,4.87s2.41,3.74,6.09,4.87c-.85,3.76-.47,6.75,1.2,7.71a2.38,2.38,0,0,0,1.33.33c1.62,0,3.75-1.16,5.9-3.17,2.16,2,4.28,3.15,5.91,3.15a2.61,2.61,0,0,0,1.34-.33c1.66-1,2-3.94,1.17-7.69C38.11,25.72,40.5,23.9,40.5,22ZM31.89,10.39h0a1.3,1.3,0,0,1,.67.16c.81.46,1.15,2.21.88,4.47a16.63,16.63,0,0,1-.3,1.74,31.6,31.6,0,0,0-3.75-.65,31.51,31.51,0,0,0-2.46-2.95C28.85,11.37,30.66,10.39,31.89,10.39ZM20.76,25c.28.47.56.93.85,1.38-.84-.12-1.65-.28-2.42-.46.22-.77.49-1.55.8-2.34C20.23,24.06,20.5,24.54,20.76,25Zm-1.59-7c.78-.18,1.59-.34,2.44-.47-.29.46-.58.93-.85,1.4s-.53,1-.77,1.42A20.1,20.1,0,0,1,19.17,18Zm1.51,4c.37-.79.78-1.58,1.22-2.36s.94-1.55,1.43-2.26c.88-.07,1.77-.11,2.67-.11a21.28,21.28,0,0,1,2.66.11,23.79,23.79,0,0,1,1.43,2.24c.43.79.86,1.56,1.23,2.36-.37.79-.78,1.58-1.22,2.36s-.94,1.55-1.43,2.25q-1.32.12-2.67.12a21.36,21.36,0,0,1-2.66-.11,22.73,22.73,0,0,1-1.43-2.25C21.48,23.53,21.05,22.79,20.68,22Zm10.56,3c.27-.47.52-1,.77-1.42.31.79.59,1.58.81,2.35-.77.19-1.59.35-2.43.47A14,14,0,0,0,31.24,25Zm0-6c-.27-.48-.56-.94-.85-1.39.84.13,1.65.28,2.42.47-.21.76-.49,1.55-.79,2.33-.26-.49-.52-1-.79-1.41Zm-3.6-3H24.37q.76-1,1.62-1.89c.55.6,1.09,1.23,1.64,1.89ZM19.4,10.57a1.33,1.33,0,0,1,.68-.15h0c1.23,0,3,1,5,2.75a28.5,28.5,0,0,0-2.44,3,31.77,31.77,0,0,0-3.76.65,16.45,16.45,0,0,1-.38-1.72C18.26,12.79,18.61,11,19.4,10.57Zm-1.49,15c-.58-.19-1.14-.39-1.65-.61-2.09-.89-3.45-2.06-3.45-3s1.36-2.1,3.45-3c.54-.22,1.08-.42,1.64-.59A26.89,26.89,0,0,0,19.23,22a25.88,25.88,0,0,0-1.32,3.6Zm2.2,8a1.33,1.33,0,0,1-.67-.16c-.81-.46-1.15-2.22-.88-4.47a17.59,17.59,0,0,1,.3-1.74,28,28,0,0,0,3.75.64,27.25,27.25,0,0,0,2.46,3c-1.92,1.76-3.73,2.74-5,2.74ZM26,29.86A21,21,0,0,1,24.37,28h3.27A18.42,18.42,0,0,1,26,29.87Zm6.59,3.53a1.33,1.33,0,0,1-.68.15c-1.23,0-3-1-5-2.75a26.53,26.53,0,0,0,2.44-2.95,28.15,28.15,0,0,0,3.76-.65,17.23,17.23,0,0,1,.38,1.73c.24,2.25-.11,4.06-.9,4.48ZM35.74,25c-.51.22-1.07.42-1.64.6A29.36,29.36,0,0,0,32.77,22a27.82,27.82,0,0,0,1.31-3.58c.56.18,1.12.38,1.66.6,2.09.89,3.45,2.06,3.45,3S37.83,24.09,35.74,25Z"/><path class="cls-3" d="M26,24.68a2.7,2.7,0,1,0-2.7-2.7,2.7,2.7,0,0,0,2.7,2.7Z"/></g><g id="plus"><g class="cls-4"><path class="cls-3" d="M58.5,13a1,1,0,0,0-1,1v7h-7a1,1,0,0,0,0,2h7v7a1,1,0,1,0,2,0V23h7a1,1,0,0,0,0-2h-7V14A1,1,0,0,0,58.5,13Z"/></g></g><g id="native"><path class="cls-3" d="M96.32,35.19a5.86,5.86,0,0,1-2.11-.4,14,14,0,0,1-4.45-2.89.8.8,0,0,1-.05-1.12.82.82,0,0,1,1.12-.05,12.37,12.37,0,0,0,3.92,2.58,4.6,4.6,0,0,0,1.55.31h0a2.35,2.35,0,0,0,1.22-.3,2.84,2.84,0,0,0,1.24-1.81A9.25,9.25,0,0,0,98.94,28a26.28,26.28,0,0,0-3.5-9.73A32.24,32.24,0,0,0,92.5,14a.79.79,0,0,1,.1-1.11.83.83,0,0,1,.5-.18.78.78,0,0,1,.61.28,34.3,34.3,0,0,1,3.14,4.54,27.94,27.94,0,0,1,3.65,10.34,10.63,10.63,0,0,1-.22,4.13,4.43,4.43,0,0,1-2,2.74A3.84,3.84,0,0,1,96.32,35.19Z"/><path class="cls-3" d="M82.82,15h0a.77.77,0,0,1-.76-.79v0c.06-1.64.5-3.8,2.28-4.83a4,4,0,0,1,2-.51,7.46,7.46,0,0,1,3.35,1,.77.77,0,0,1,.38.47.78.78,0,0,1-.06.6.75.75,0,0,1-.69.42.69.69,0,0,1-.37-.1,5.86,5.86,0,0,0-2.58-.77,2.52,2.52,0,0,0-1.23.3c-.63.36-1.41,1.27-1.49,3.52A.78.78,0,0,1,82.82,15Z"/><path class="cls-3" d="M92,29.18a27.72,27.72,0,0,1-10.8-2A10.54,10.54,0,0,1,77.72,25a4.4,4.4,0,0,1-1.39-3.07,4.87,4.87,0,0,1,2-3.6,14.27,14.27,0,0,1,4.72-2.41h.24a.78.78,0,0,1,.67.88.75.75,0,0,1-.46.61,12.66,12.66,0,0,0-4.19,2.12,3.24,3.24,0,0,0-1.4,2.39,2.88,2.88,0,0,0,1,2,9.27,9.27,0,0,0,2.93,1.89A26,26,0,0,0,92,27.62a30.61,30.61,0,0,0,5.24-.42h.13a.78.78,0,0,1,.17,1.53A32.22,32.22,0,0,1,92,29.18Z"/><path class="cls-3" d="M102,26.83a.75.75,0,0,1-.67-.37.78.78,0,0,1,.25-1.08h0c1.91-1.19,2.32-2.32,2.32-3.05s-.4-1.87-2.31-3.05a.79.79,0,0,1,.42-1.46.83.83,0,0,1,.46.17c1.39.87,3,2.33,3,4.39s-1.66,3.52-3.06,4.39A.65.65,0,0,1,102,26.83Z"/><path class="cls-3" d="M85.5,34.78a3.91,3.91,0,0,1-2-.52c-1.78-1-2.22-3.2-2.28-4.84a.77.77,0,0,1,.75-.8h0a.8.8,0,0,1,.79.76c.07,2.25.85,3.16,1.49,3.53a2.26,2.26,0,0,0,1.22.3,5.54,5.54,0,0,0,2.57-.77.78.78,0,0,1,.37-.09.79.79,0,0,1,.38,1.48h0A7.18,7.18,0,0,1,85.5,34.78Z"/><path class="cls-3" d="M82.62,25.22a.66.66,0,0,1-.28,0,.74.74,0,0,1-.44-.41.78.78,0,0,1,0-.6,32.13,32.13,0,0,1,2.36-5,27.77,27.77,0,0,1,7.11-8.37A10.61,10.61,0,0,1,95,9a6.18,6.18,0,0,1,1.36-.18,4,4,0,0,1,2,.51,4.85,4.85,0,0,1,2.14,3.46,13.91,13.91,0,0,1-.28,5.3.78.78,0,0,1-.76.62h-.17a.77.77,0,0,1-.6-.94A12.48,12.48,0,0,0,99,13.07a3.26,3.26,0,0,0-1.37-2.41,2.56,2.56,0,0,0-1.22-.3,4.81,4.81,0,0,0-1,.13,9.31,9.31,0,0,0-3.1,1.59A26.5,26.5,0,0,0,85.6,20a32.21,32.21,0,0,0-2.25,4.75A.78.78,0,0,1,82.62,25.22Z"/><path class="cls-3" d="M90.92,24.3A2.32,2.32,0,1,1,93.24,22h0A2.33,2.33,0,0,1,90.92,24.3Z"/></g></g></g></g></svg>