<svg xmlns="http://www.w3.org/2000/svg" xmlns:xlink="http://www.w3.org/1999/xlink" viewBox="0 0 117 44"><defs><style>.cls-1{fill:none;}.cls-2{fill:#092f5c;}.cls-3{fill:#fff;}.cls-4{clip-path:url(#clip-path);}</style><clipPath id="clip-path"><rect class="cls-1" x="46.5" y="10" width="24" height="24"/></clipPath></defs><title>next-js</title><g id="Layer_2" data-name="Layer 2"><g id="Layer_8" data-name="Layer 8"><g id="Layer_3" data-name="Layer 3"><path class="cls-2" d="M22,0H95a22,22,0,0,1,22,22h0A22,22,0,0,1,95,44H22A22,22,0,0,1,0,22H0A22,22,0,0,1,22,0Z"/></g><g id="layer"><g id="react_JS" data-name="react JS"><path class="cls-3" d="M40.5,22c0-1.92-2.41-3.74-6.09-4.87.85-3.76.47-6.75-1.2-7.71a2.64,2.64,0,0,0-1.32-.33h0c-1.62,0-3.75,1.16-5.9,3.17-2.15-2-4.28-3.15-5.91-3.15h0a2.6,2.6,0,0,0-1.33.33c-1.66,1-2,3.94-1.18,7.69-3.68,1.14-6.07,3-6.07,4.87s2.41,3.74,6.09,4.87c-.85,3.76-.47,6.75,1.2,7.71a2.55,2.55,0,0,0,1.33.33c1.62,0,3.75-1.16,5.9-3.17,2.16,2,4.28,3.15,5.91,3.15a2.72,2.72,0,0,0,1.34-.33c1.66-1,2-3.94,1.17-7.69C38.11,25.74,40.5,23.92,40.5,22ZM31.89,10.41h0a1.3,1.3,0,0,1,.67.16c.81.46,1.15,2.21.88,4.47a17.1,17.1,0,0,1-.3,1.74,28,28,0,0,0-3.75-.65,31.51,31.51,0,0,0-2.46-2.95C28.85,11.39,30.66,10.41,31.89,10.41ZM20.76,25c.28.47.56.93.85,1.38-.84-.12-1.65-.28-2.42-.46.22-.77.49-1.55.8-2.34C20.23,24.08,20.5,24.56,20.76,25Zm-1.59-7c.78-.18,1.59-.34,2.44-.47-.29.46-.58.93-.85,1.4s-.53,1-.77,1.42a20.1,20.1,0,0,1-.82-2.29Zm1.51,4c.37-.79.78-1.58,1.22-2.36s.94-1.55,1.43-2.26c.88-.07,1.77-.11,2.67-.11a21.28,21.28,0,0,1,2.66.11,23.79,23.79,0,0,1,1.43,2.24c.43.79.86,1.56,1.23,2.36-.37.79-.78,1.58-1.22,2.36s-.94,1.55-1.43,2.25q-1.32.12-2.67.12a21.36,21.36,0,0,1-2.66-.11,22.73,22.73,0,0,1-1.43-2.25C21.48,23.55,21.05,22.81,20.68,22Zm10.56,3c.27-.47.52-1,.77-1.42.31.79.59,1.58.81,2.35-.77.19-1.59.35-2.43.47A14,14,0,0,0,31.24,25Zm0-6c-.27-.48-.56-.94-.85-1.39.84.13,1.65.28,2.42.47-.21.76-.49,1.55-.79,2.33-.26-.49-.52-1-.79-1.41Zm-3.6-3H24.37A24.43,24.43,0,0,1,26,14.11c.55.59,1.09,1.22,1.64,1.89ZM19.4,10.59a1.33,1.33,0,0,1,.68-.15h0c1.23,0,3,1,5,2.75a27.48,27.48,0,0,0-2.44,3,28.15,28.15,0,0,0-3.76.65,17,17,0,0,1-.38-1.72C18.26,12.81,18.61,11.06,19.4,10.59Zm-1.49,15c-.58-.19-1.14-.39-1.65-.61-2.09-.89-3.45-2.06-3.45-3s1.36-2.1,3.45-3a16,16,0,0,1,1.64-.59A27.4,27.4,0,0,0,19.23,22a25.88,25.88,0,0,0-1.32,3.6Zm2.2,8a1.44,1.44,0,0,1-.67-.16c-.81-.46-1.15-2.22-.88-4.47a17.1,17.1,0,0,1,.3-1.74,28,28,0,0,0,3.75.64,28.22,28.22,0,0,0,2.46,3c-1.92,1.76-3.73,2.74-5,2.74ZM26,29.88A22.52,22.52,0,0,1,24.37,28h3.27A20.83,20.83,0,0,1,26,29.89Zm6.59,3.53a1.33,1.33,0,0,1-.68.15c-1.23,0-3-1-5-2.75a27.48,27.48,0,0,0,2.44-2.95,28.15,28.15,0,0,0,3.76-.65,17.23,17.23,0,0,1,.38,1.73c.24,2.25-.11,4.06-.9,4.48ZM35.74,25c-.51.22-1.07.42-1.64.6A28.76,28.76,0,0,0,32.77,22a28.38,28.38,0,0,0,1.31-3.58,16.44,16.44,0,0,1,1.66.6c2.09.89,3.45,2.06,3.45,3S37.83,24.11,35.74,25Z"/><path class="cls-3" d="M26,24.7a2.7,2.7,0,1,0-2.7-2.7A2.7,2.7,0,0,0,26,24.7Z"/></g><g id="plus"><g class="cls-4"><path class="cls-3" d="M58.5,13a1,1,0,0,0-1,1v7h-7a1,1,0,0,0,0,2h7v7a1,1,0,0,0,2,0V23h7a1,1,0,0,0,0-2h-7V14A1,1,0,0,0,58.5,13Z"/></g></g><g id="next.js"><path class="cls-3" d="M95.83,15.23v11.6h1.94V15.23Zm0,0v11.6h1.94V15.23Z"/><path class="cls-3" d="M91,7.5A14.5,14.5,0,1,0,105.5,22,14.5,14.5,0,0,0,91,7.5Zm7.08,24.88L86,15.63a1,1,0,0,0-1.41-.1,1,1,0,0,0-.34.67V30.7h1.94V19.19L96.4,33.35a12.63,12.63,0,1,1,1.68-1Z"/></g></g></g></g></svg>