<svg xmlns="http://www.w3.org/2000/svg" xmlns:xlink="http://www.w3.org/1999/xlink" viewBox="0 0 117 44"><defs><style>.cls-1{fill:none;}.cls-2{fill:#092f5c;}.cls-3{fill:#fff;}.cls-4{clip-path:url(#clip-path);}</style><clipPath id="clip-path"><rect class="cls-1" x="46.63" y="10.01" width="24" height="24"/></clipPath></defs><title>python</title><g id="Layer_2" data-name="Layer 2"><g id="Layer_7" data-name="Layer 7"><g id="Layer_3" data-name="Layer 3"><path class="cls-2" d="M22,0H95a22,22,0,0,1,22,22h0A22,22,0,0,1,95,44H22A22,22,0,0,1,0,22H0A22,22,0,0,1,22,0Z"/></g><g id="layer"><g id="react_JS" data-name="react JS"><path class="cls-3" d="M40.63,22c0-1.92-2.41-3.74-6.09-4.87.85-3.76.47-6.75-1.2-7.71A2.64,2.64,0,0,0,32,9.1h0c-1.62,0-3.75,1.16-5.9,3.17-2.15-2-4.28-3.15-5.91-3.15h0a2.6,2.6,0,0,0-1.33.33c-1.66,1-2,3.94-1.18,7.69-3.68,1.14-6.07,3-6.07,4.87s2.41,3.74,6.09,4.87c-.85,3.76-.47,6.75,1.2,7.71a2.55,2.55,0,0,0,1.33.33c1.62,0,3.75-1.16,5.9-3.17,2.16,2,4.28,3.15,5.91,3.15a2.72,2.72,0,0,0,1.34-.33c1.66-1,2-3.94,1.17-7.69C38.24,25.75,40.63,23.93,40.63,22ZM32,10.42h0a1.3,1.3,0,0,1,.67.16c.81.46,1.15,2.21.88,4.47a17.1,17.1,0,0,1-.3,1.74,28,28,0,0,0-3.75-.65,31.51,31.51,0,0,0-2.46-3C29,11.4,30.79,10.42,32,10.42ZM20.89,25c.28.47.56.93.85,1.38-.84-.12-1.65-.28-2.42-.46.22-.77.49-1.55.8-2.34C20.36,24.09,20.63,24.57,20.89,25ZM19.3,18c.78-.18,1.59-.34,2.44-.47-.29.46-.58.93-.85,1.4s-.53,1-.77,1.42a20.1,20.1,0,0,1-.82-2.29Zm1.51,4c.37-.79.78-1.58,1.22-2.36s.94-1.55,1.43-2.26c.88-.07,1.77-.11,2.67-.11a21.28,21.28,0,0,1,2.66.11,23.79,23.79,0,0,1,1.43,2.24c.43.79.86,1.56,1.23,2.36-.37.79-.78,1.58-1.22,2.36s-.94,1.55-1.43,2.25q-1.32.12-2.67.12a21.36,21.36,0,0,1-2.66-.11A22.73,22.73,0,0,1,22,24.36C21.61,23.56,21.18,22.82,20.81,22Zm10.56,3c.27-.47.52-1,.77-1.42.31.79.59,1.58.81,2.35-.77.19-1.59.35-2.43.47A14,14,0,0,0,31.37,25Zm0-6c-.27-.48-.56-.94-.85-1.39.84.13,1.65.28,2.42.47-.21.76-.49,1.55-.79,2.33-.26-.49-.52-1-.79-1.41Zm-3.6-3H24.5a24.43,24.43,0,0,1,1.62-1.89c.55.59,1.09,1.22,1.64,1.89ZM19.53,10.6a1.33,1.33,0,0,1,.68-.15h0c1.23,0,3,1,5,2.75a27.48,27.48,0,0,0-2.44,2.95A28.15,28.15,0,0,0,19,16.8a17,17,0,0,1-.38-1.72C18.39,12.82,18.74,11.07,19.53,10.6ZM18,25.6c-.58-.19-1.14-.39-1.65-.61-2.09-.89-3.45-2.06-3.45-3s1.36-2.1,3.45-3A16,16,0,0,1,18,18.4,27.4,27.4,0,0,0,19.36,22,25.88,25.88,0,0,0,18,25.61Zm2.2,8a1.44,1.44,0,0,1-.67-.16c-.81-.46-1.15-2.22-.88-4.47a17.1,17.1,0,0,1,.3-1.74,28,28,0,0,0,3.75.64,28.22,28.22,0,0,0,2.46,3c-1.92,1.76-3.73,2.74-5,2.74Zm5.9-3.71A22.52,22.52,0,0,1,24.5,28h3.27a20.83,20.83,0,0,1-1.63,1.89Zm6.59,3.53a1.33,1.33,0,0,1-.68.15c-1.23,0-3-1-5-2.75a27.48,27.48,0,0,0,2.44-2.95,28.15,28.15,0,0,0,3.76-.65A17.23,17.23,0,0,1,33.63,29c.24,2.25-.11,4.06-.9,4.48ZM35.87,25c-.51.22-1.07.42-1.64.6A28.76,28.76,0,0,0,32.9,22a28.38,28.38,0,0,0,1.31-3.58,16.44,16.44,0,0,1,1.66.6c2.09.89,3.45,2.06,3.45,3S38,24.12,35.87,25Z"/><path class="cls-3" d="M26.12,24.71a2.7,2.7,0,1,0-2.7-2.7,2.7,2.7,0,0,0,2.7,2.7Z"/></g><g id="plus"><g class="cls-4"><path class="cls-3" d="M58.63,13a1,1,0,0,0-1,1v7h-7a1,1,0,0,0,0,2h7v7a1,1,0,0,0,2,0V23h7a1,1,0,0,0,0-2h-7V14A1,1,0,0,0,58.63,13Z"/></g></g><g id="python"><g id="Dribbble-Light-Preview"><g id="icons"><path id="python-" class="cls-3" d="M95,34a1.25,1.25,0,1,1,1.25-1.25A1.25,1.25,0,0,1,95,34m-3.8,2.19c7.23,0,6.78-3.15,6.78-3.15V29.83h-6.9v-1h9.64s4.62.53,4.62-6.8-4-7.07-4-7.07H98.92v3.4s.13,4.05-4,4.05H88.11s-3.84-.06-3.84,3.74v6.27s-.59,3.8,7,3.8M87.23,10A1.25,1.25,0,1,1,86,11.27h0A1.25,1.25,0,0,1,87.23,10M91,7.82C83.8,7.82,84.25,11,84.25,11v3.26h6.9v1H81.52S76.9,14.7,76.9,22s4,7.07,4,7.07h2.4V25.7s-.13-4.05,4-4.05h6.84S98,21.71,98,17.91V11.58s.59-3.8-7-3.8"/></g></g></g></g></g></g></svg>