<svg xmlns="http://www.w3.org/2000/svg" xmlns:xlink="http://www.w3.org/1999/xlink" viewBox="0 0 117 44"><defs><style>.cls-1{fill:none;}.cls-2{fill:#092f5c;}.cls-3{fill:#fff;}.cls-4{clip-path:url(#clip-path);}</style><clipPath id="clip-path"><rect class="cls-1" x="47.59" y="10" width="24" height="24"/></clipPath></defs><title>redux</title><g id="Layer_2" data-name="Layer 2"><g id="Layer_5" data-name="Layer 5"><g id="Layer_3" data-name="Layer 3"><path class="cls-2" d="M22,0H95a22,22,0,0,1,22,22h0A22,22,0,0,1,95,44H22A22,22,0,0,1,0,22H0A22,22,0,0,1,22,0Z"/></g><g id="layer"><g id="react_JS" data-name="react JS"><path class="cls-3" d="M41.59,22c0-1.92-2.41-3.74-6.09-4.87.85-3.76.47-6.75-1.2-7.71A2.54,2.54,0,0,0,33,9.09h0c-1.62,0-3.75,1.16-5.9,3.17-2.15-2-4.28-3.15-5.91-3.15h0a2.6,2.6,0,0,0-1.33.33c-1.66,1-2,3.94-1.18,7.69-3.68,1.14-6.07,3-6.07,4.87s2.41,3.74,6.09,4.87c-.85,3.76-.47,6.75,1.2,7.71a2.55,2.55,0,0,0,1.33.33c1.62,0,3.75-1.16,5.9-3.17,2.16,2,4.28,3.15,5.91,3.15a2.72,2.72,0,0,0,1.34-.33c1.66-1,2-3.94,1.17-7.69C39.2,25.74,41.59,23.92,41.59,22ZM33,10.41h0a1.3,1.3,0,0,1,.67.16c.81.46,1.15,2.21.88,4.47a17.1,17.1,0,0,1-.3,1.74,28,28,0,0,0-3.75-.65A30.27,30.27,0,0,0,28,13.18C29.94,11.39,31.75,10.41,33,10.41ZM21.85,25c.28.47.56.93.85,1.38-.84-.12-1.65-.28-2.42-.46.22-.77.49-1.55.8-2.34C21.32,24.08,21.59,24.56,21.85,25Zm-1.59-7c.78-.18,1.59-.34,2.44-.47-.29.46-.58.93-.85,1.4s-.53,1-.77,1.42a20.1,20.1,0,0,1-.82-2.29Zm1.51,4c.37-.79.78-1.58,1.22-2.36s.94-1.55,1.43-2.26c.88-.07,1.77-.11,2.67-.11a21.28,21.28,0,0,1,2.66.11,23.79,23.79,0,0,1,1.43,2.24c.43.79.86,1.56,1.23,2.36-.37.79-.78,1.58-1.22,2.36s-.94,1.55-1.43,2.25q-1.32.12-2.67.12a21.36,21.36,0,0,1-2.66-.11A22.73,22.73,0,0,1,23,24.35C22.57,23.55,22.14,22.81,21.77,22Zm10.56,3c.27-.47.52-1,.77-1.42.31.79.59,1.58.81,2.35-.77.19-1.59.35-2.43.47A14,14,0,0,0,32.33,25Zm0-6c-.27-.48-.56-.94-.85-1.39.84.13,1.65.28,2.42.47-.21.76-.49,1.55-.79,2.33-.26-.49-.52-1-.79-1.41Zm-3.6-3H25.46a24.43,24.43,0,0,1,1.62-1.89c.55.59,1.09,1.22,1.64,1.89Zm-8.24-5.41a1.33,1.33,0,0,1,.68-.15h0c1.23,0,3,1,5,2.75a26.53,26.53,0,0,0-2.44,3,28.15,28.15,0,0,0-3.76.65,17,17,0,0,1-.38-1.72C19.35,12.81,19.7,11.06,20.49,10.59ZM19,25.59c-.58-.19-1.14-.39-1.65-.61-2.09-.89-3.45-2.06-3.45-3s1.36-2.1,3.45-3A16,16,0,0,1,19,18.39,27.4,27.4,0,0,0,20.32,22,25.88,25.88,0,0,0,19,25.6Zm2.2,8a1.44,1.44,0,0,1-.67-.16c-.81-.46-1.15-2.22-.88-4.47a16.63,16.63,0,0,1,.3-1.74,29.67,29.67,0,0,0,3.75.64,28.22,28.22,0,0,0,2.46,3c-1.92,1.76-3.73,2.74-5,2.74Zm5.9-3.71A22.52,22.52,0,0,1,25.46,28h3.27a20.83,20.83,0,0,1-1.63,1.89Zm6.59,3.53a1.33,1.33,0,0,1-.68.15c-1.23,0-3-1-5-2.75a27.48,27.48,0,0,0,2.44-2.95,28.15,28.15,0,0,0,3.76-.65,17.23,17.23,0,0,1,.38,1.73c.24,2.25-.11,4.06-.9,4.48ZM36.83,25c-.51.22-1.07.42-1.64.6A28.76,28.76,0,0,0,33.86,22a28.38,28.38,0,0,0,1.31-3.58,16.44,16.44,0,0,1,1.66.6c2.09.89,3.45,2.06,3.45,3S38.92,24.11,36.83,25Z"/><path class="cls-3" d="M27.08,24.7a2.7,2.7,0,1,0-2.7-2.7,2.7,2.7,0,0,0,2.7,2.7Z"/></g><g id="plus"><g class="cls-4"><path class="cls-3" d="M59.59,13a1,1,0,0,0-1,1v7h-7a1,1,0,0,0,0,2h7v7a1,1,0,0,0,2,0V23h7a1,1,0,0,0,0-2h-7V14A1,1,0,0,0,59.59,13Z"/></g></g><g id="REDUX"><path class="cls-3" d="M96.59,26.83a1.78,1.78,0,0,0,1.61-1.78v-.11h0a1.86,1.86,0,0,0-1.83-1.77H96.3A1.83,1.83,0,0,0,94.53,25v.07h0a2,2,0,0,0,.53,1.24h0a12,12,0,0,1-5.3,5.12h-.07a8.58,8.58,0,0,1-4.2,1.07,8.92,8.92,0,0,1-1.16-.07h0A4.63,4.63,0,0,1,81,30.51h0a4.78,4.78,0,0,1-.87-2.76,4.84,4.84,0,0,1,.61-2.35h0A7.79,7.79,0,0,1,83,22.79h0a10.44,10.44,0,0,1-.42-1.55v-.07c-4.77,3.42-4.28,8.08-2.83,10.29a6.84,6.84,0,0,0,5.4,2.64h.43a8.81,8.81,0,0,0,1.91-.22h0A12.67,12.67,0,0,0,96.59,27v-.17Z"/><path class="cls-3" d="M102.33,22.81a13.27,13.27,0,0,0-10-4.54h-.89a1.76,1.76,0,0,0-1.56-1h-.09A1.79,1.79,0,0,0,88,19.07h0v.08h0A1.86,1.86,0,0,0,89.85,21h.08a1.82,1.82,0,0,0,1.6-1.11h.59a12.47,12.47,0,0,1,7,2.17h0a9,9,0,0,1,3.47,4v.06a4.42,4.42,0,0,1,.42,1.89,4.5,4.5,0,0,1-.48,2h0a4.78,4.78,0,0,1-4.31,2.71H98A8.27,8.27,0,0,1,94.78,32h0a15.82,15.82,0,0,1-1.49,1.18,10,10,0,0,0,4.22,1h.21a7.19,7.19,0,0,0,6.14-3.44h0a7.47,7.47,0,0,0,.55-2.8,7.3,7.3,0,0,0-2.13-5.17h0Z"/><path class="cls-3" d="M85.69,27.41a1.84,1.84,0,0,0,1.84,1.77h.06a1.84,1.84,0,0,0,0-3.67h-.1a.81.81,0,0,0-.22,0h0a12,12,0,0,1-1.74-6.22v-1.1h0a8.81,8.81,0,0,1,1.94-5.1h0a5.77,5.77,0,0,1,4-1.84h0c3.47-.06,4.92,4.27,5,6l1.61.48c-.37-5.27-3.65-8-6.79-8A7.45,7.45,0,0,0,84.59,15v.05a13.15,13.15,0,0,0-.7,4.31,13.49,13.49,0,0,0,2,7.18v-.06a1.42,1.42,0,0,0-.23.78v.16h0Z"/></g></g></g></g></svg>