<?xml version="1.0" encoding="UTF-8"?>
<svg id="Layer_2" xmlns="http://www.w3.org/2000/svg" viewBox="0 0 35 35">
  <defs>
    <style>
      .cls-1 {
        fill: #010101;
      }
    </style>
  </defs>
  <g id="Layer_1-2" data-name="Layer_1">
    <path class="cls-1" d="M3.32,0C1.49,0,0,1.49,0,3.32v28.34c0,1.83,1.49,3.34,3.32,3.34h28.36c1.83,0,3.32-1.51,3.32-3.34V3.32c0-1.83-1.49-3.32-3.32-3.32H3.32ZM3.32,1.75h28.36c.89,0,1.57.68,1.57,1.57v28.34c0,.89-.68,1.59-1.57,1.59H3.32c-.89,0-1.57-.7-1.57-1.59V3.32c0-.89.68-1.57,1.57-1.57ZM23.35,9.6c-1.69,0-3.08,1.38-3.08,3.08s1.38,3.09,3.08,3.09,3.09-1.4,3.09-3.09-1.4-3.08-3.09-3.08ZM23.35,11.35c.75,0,1.34.58,1.34,1.33s-.59,1.34-1.34,1.34-1.33-.59-1.33-1.34.58-1.33,1.33-1.33ZM14.78,15.2c-.72,0-1.43.29-1.94.88l-6.82,7.88c-.32.37-.28.92.09,1.24.37.32.92.28,1.24-.09,0,0,0,0,0,0l6.82-7.88c.41-.47.85-.47,1.24-.01l5.96,6.88c1.01,1.17,2.87,1.15,3.88-.01l3.73-4.31c.32-.37.28-.92-.09-1.24s-.92-.28-1.24.09c0,0,0,0,0,0l-3.73,4.31c-.41.47-.85.47-1.24.01l-5.96-6.86c-.51-.58-1.22-.88-1.94-.88Z"/>
  </g>
</svg>