<?xml version="1.0" encoding="UTF-8"?>
<svg id="Layer_2" xmlns="http://www.w3.org/2000/svg" xmlns:xlink="http://www.w3.org/1999/xlink" viewBox="0 0 35 35">
  <defs>
    <style>
      .cls-1 {
        fill: none;
      }

      .cls-2 {
        fill: #010101;
      }

      .cls-3 {
        clip-path: url(#clippath);
      }
    </style>
    <clipPath id="clippath">
      <rect class="cls-1" width="35" height="35"/>
    </clipPath>
  </defs>
  <g id="Layer_1-2" data-name="Layer_1">
    <g class="cls-3">
      <path class="cls-2" d="M31.38,11.29h-.35v-7.27c0-.23-.19-.42-.42-.42h-2.93V.42c0-.23-.19-.42-.42-.42H4.39c-.23,0-.42.19-.42.42v7.76h-.35c-1.2,0-2.17.97-2.17,2.17v17.86c0,1.2.97,2.17,2.17,2.17h4.95c.06.17.15.33.28.47l1.94,1.94c.22.22.51.34.82.34s.6-.12.82-.34l.5-.5c.64.36,1.32.64,2.03.84v.71c0,.64.52,1.16,1.16,1.16h2.75c.64,0,1.16-.52,1.16-1.16v-.71c.71-.2,1.39-.48,2.03-.84l.5.5c.22.22.51.34.82.34s.6-.12.82-.34l.97-.97h0s.97-.97.97-.97c.13-.13.23-.29.28-.47h4.95c1.2,0,2.17-.97,2.17-2.17v-14.76c0-1.2-.97-2.17-2.17-2.17h0ZM30.19,11.29h-10.01c-.12-.21-.24-.43-.37-.67-.61-1.14-1.3-2.44-2.68-2.44h-8.98v-3.75h22.04v6.85ZM4.81.83h22.04v2.76H7.73c-.23,0-.42.19-.42.42v4.16h-2.51V.83ZM25.56,30.26l-1.94,1.94c-.06.06-.14.09-.23.09s-.17-.03-.23-.09l-.73-.73c-.14-.14-.35-.16-.51-.06-.74.45-1.55.79-2.4.99-.19.04-.32.21-.32.41v1.03c0,.18-.15.32-.32.32h-2.75c-.18,0-.32-.15-.32-.32v-1.03c0-.19-.13-.36-.32-.4-.85-.21-1.66-.54-2.4-.99-.07-.04-.14-.06-.22-.06-.11,0-.21.04-.3.12l-.73.73c-.06.06-.14.09-.23.09s-.17-.03-.23-.09l-1.94-1.94c-.06-.06-.09-.14-.09-.23s.03-.17.09-.23l.73-.73c.14-.14.16-.35.06-.51-.45-.75-.79-1.55-.99-2.4-.04-.19-.21-.32-.41-.32h-1.03c-.18,0-.32-.15-.32-.32v-2.75c0-.18.15-.32.32-.32h1.03c.19,0,.36-.13.4-.32.21-.85.54-1.66.99-2.4.1-.16.07-.38-.06-.51l-.73-.73c-.06-.06-.09-.14-.09-.23s.03-.17.09-.23l1.94-1.94c.06-.06.14-.09.23-.09s.17.03.23.09l.73.73c.14.14.35.16.51.06.74-.45,1.55-.79,2.4-.99.19-.04.32-.21.32-.4v-1.03c0-.18.15-.32.32-.32h2.75c.18,0,.32.15.32.32v1.03c0,.19.13.36.32.41.85.21,1.66.54,2.4.99.16.1.38.07.51-.06l.73-.73c.06-.06.14-.09.23-.09s.17.03.23.09l1.94,1.94c.06.06.09.14.09.23s-.03.17-.09.23l-.73.73c-.14.14-.16.35-.06.51.45.74.79,1.55.99,2.4.04.19.21.32.4.32h1.03c.18,0,.32.15.32.32v2.75c0,.18-.15.32-.32.32h-1.03c-.19,0-.36.13-.41.32-.21.85-.54,1.66-.99,2.4-.1.16-.07.38.06.51l.73.73c.06.06.09.14.09.23s-.03.17-.09.23h0ZM32.72,28.21c0,.74-.6,1.34-1.34,1.34h-5c-.06-.12-.13-.24-.23-.33l-.5-.5c.36-.64.64-1.33.84-2.03h.71c.64,0,1.16-.52,1.16-1.16v-2.75c0-.64-.52-1.16-1.16-1.16h-.71c-.2-.71-.48-1.39-.84-2.03l.5-.5c.22-.22.34-.51.34-.82s-.12-.6-.34-.82l-1.94-1.94c-.22-.22-.51-.34-.82-.34s-.6.12-.82.34l-.5.5c-.64-.36-1.33-.64-2.03-.84v-.71c0-.64-.52-1.16-1.16-1.16h-2.75c-.64,0-1.16.52-1.16,1.16v.71c-.71.2-1.39.48-2.03.84l-.5-.5c-.22-.22-.51-.34-.82-.34s-.6.12-.82.34l-1.94,1.94c-.22.22-.34.51-.34.82s.12.6.34.82l.5.5c-.36.64-.64,1.32-.84,2.03h-.71c-.64,0-1.16.52-1.16,1.16v2.75c0,.64.52,1.16,1.16,1.16h.71c.2.71.48,1.39.84,2.03l-.5.5c-.1.1-.18.21-.23.33H3.62c-.74,0-1.33-.6-1.33-1.34V10.35c0-.74.59-1.34,1.33-1.34h13.52c.89,0,1.4.97,1.95,1.99.16.31.33.63.51.91.08.12.21.2.35.2h11.43c.74,0,1.34.6,1.34,1.34v14.76ZM17.5,17.91c-3.44,0-6.23,2.79-6.23,6.23,0,1.34.43,2.59,1.15,3.6.01.02.03.05.05.07,1.14,1.55,2.97,2.56,5.03,2.56s3.71-.91,4.86-2.33c.03-.02.05-.05.06-.08.82-1.05,1.31-2.38,1.31-3.81,0-3.44-2.79-6.23-6.23-6.23h0ZM17.5,29.54c-1.73,0-3.26-.81-4.25-2.08.37-.94,1.46-1.63,2.98-1.87.36.16.75.25,1.17.25s.81-.09,1.17-.25c1.62.26,2.74,1.02,3.04,2.05-.99,1.17-2.47,1.91-4.11,1.91h0ZM17.4,25c-1.14,0-2.07-.93-2.07-2.07s.93-2.07,2.07-2.07,2.08.93,2.08,2.07-.93,2.07-2.08,2.07ZM22.17,26.83c-.48-.88-1.41-1.54-2.68-1.9.5-.52.81-1.23.81-2.01,0-1.6-1.3-2.91-2.91-2.91s-2.91,1.3-2.91,2.91c0,.78.31,1.49.81,2.01-1.17.33-2.07.93-2.57,1.72-.4-.75-.62-1.6-.62-2.51,0-2.97,2.42-5.4,5.4-5.4s5.39,2.42,5.39,5.4c0,.98-.26,1.89-.72,2.68h0Z"/>
    </g>
  </g>
</svg>