<?xml version="1.0" encoding="UTF-8"?>
<svg id="Layer_2" xmlns="http://www.w3.org/2000/svg" viewBox="0 0 34.72 35">
  <defs>
    <style>
      .cls-1 {
        fill: #010101;
      }
    </style>
  </defs>
  <g id="Layer_1-2" data-name="Layer_1">
    <path class="cls-1" d="M34.52,22.64l-5.07-8.85c-.2-.35-.53-.6-.92-.71s-.8-.05-1.15.15l-2.48,1.45c-.35.2-.6.53-.7.92-.11.39-.05.81.15,1.15l.26.46-.72.34c-.34.16-.75.22-1.2.16-.66-.08-1.27-.19-1.91-.32-.77-.15-1.57-.31-2.47-.38h-.01c-1.06-.09-1.53-.08-2.53.93l-.64.65c-2.47-.28-4.2-.95-5.03-1.35l.28-.48c.42-.73.17-1.66-.55-2.08l-2.48-1.45c-.35-.2-.75-.26-1.15-.15s-.72.36-.92.71L.2,22.64c-.42.73-.17,1.66.55,2.08l2.48,1.45c.24.14.5.2.75.2.52,0,1.03-.27,1.31-.76l.2-.35c.41.78,1.01,1.63,1.63,2.15l-.56.98c-.24.43-.31.92-.18,1.4.12.48.43.88.85,1.12.28.17.6.25.91.25.22,0,.43-.04.64-.12.01.06.01.12.03.18.12.48.43.88.85,1.12.28.17.6.25.91.25.22,0,.44-.04.64-.12.01.06.01.12.03.18.12.48.43.88.85,1.12.29.17.6.25.91.25.39,0,.78-.13,1.1-.37.15.38.41.71.78.92.29.17.6.25.91.25.63,0,1.25-.33,1.59-.92l.05-.09,1.62.94c.28.16.59.25.91.25.16,0,.32-.02.48-.07.47-.13.87-.43,1.11-.86.19-.34.27-.71.24-1.07.79.22,1.65-.11,2.07-.85.19-.34.27-.71.24-1.07.78.22,1.65-.11,2.07-.86.19-.34.27-.71.24-1.07.31.09.64.09.96,0,.47-.13.87-.43,1.11-.86.24-.43.31-.92.18-1.4-.04-.15-.1-.3-.17-.43.28-.3.58-.68.83-1.04l.11.19c.28.49.79.76,1.31.76.26,0,.52-.07.75-.2l2.48-1.45c.73-.42.97-1.34.55-2.07h0ZM4.57,25.18c-.18.32-.59.43-.91.24l-2.48-1.45c-.31-.19-.43-.59-.24-.91l5.07-8.85c.09-.16.23-.27.4-.31.06-.01.12-.02.17-.02.11,0,.23.03.33.09l2.48,1.45c.31.19.43.59.24.91l-5.07,8.85ZM7.65,30.18c-.23-.13-.39-.35-.46-.6-.07-.26-.03-.52.09-.75l1.41-2.47c.27-.47.87-.64,1.34-.36.46.27.63.87.36,1.34l-1.42,2.49c-.27.47-.87.63-1.34.36h0ZM10.08,31.61c-.23-.13-.39-.35-.46-.6-.07-.26-.03-.52.09-.75l1.94-3.38c.27-.47.87-.64,1.34-.36.46.27.63.87.36,1.34l-1.94,3.39c-.27.47-.87.63-1.34.36h0ZM12.51,33.04c-.23-.13-.39-.35-.46-.6-.07-.26-.03-.52.09-.75l2.19-3.83c.13-.23.34-.39.6-.46.26-.07.52-.03.74.1.47.27.63.88.36,1.36l-2.19,3.83c-.27.47-.87.63-1.34.36h0ZM15.3,33.84c-.46-.27-.63-.87-.36-1.34l1.42-2.49c.27-.47.87-.63,1.34-.35.23.13.39.35.46.6.07.26.03.52-.09.75l-1.41,2.47c-.27.47-.88.63-1.35.36h0ZM27.74,27.86c-.13.23-.34.39-.6.46-.26.07-.52.03-.74-.1l-3.44-2c-.2-.12-.46-.05-.58.16-.12.2-.05.47.16.58l2.57,1.49s0,0,.01.01c.43.28.58.88.32,1.33-.27.47-.87.64-1.34.36l-2.54-1.48c-.2-.12-.46-.05-.58.16-.12.2-.05.47.16.58l1.63.95h0c.47.28.63.89.36,1.36-.27.47-.87.64-1.34.36l-1.64-.95c-.2-.12-.46-.05-.58.16-.12.2-.05.47.16.58l.74.43s0,0,0,0c.46.28.62.88.35,1.35-.13.23-.34.39-.6.46s-.52.03-.74-.1l-1.62-.94.94-1.64c.24-.43.31-.92.18-1.4-.12-.48-.43-.88-.85-1.12-.36-.2-.75-.27-1.13-.22.14-.75-.19-1.54-.88-1.94-.42-.25-.91-.31-1.39-.18-.18.05-.34.13-.49.22-.14-.41-.41-.78-.81-1.01-.73-.43-1.64-.28-2.21.3-.15-.33-.4-.63-.74-.82-.87-.51-2-.2-2.5.68l-.42.73c-.61-.57-1.24-1.55-1.54-2.3l3.65-6.37c.8.39,2.39,1.03,4.7,1.37l-1.37,1.38c-.24.25-.36.57-.32.92.03.35.21.64.5.83,1.23.82,2.48.78,3.36-.1l1.18-1.19c.67.81,2.01,2.16,4.56,2.33l5.11,2.97c.08.05.16.11.22.18,0,0,0,.01.01.01.1.11.18.26.22.41.06.25.02.52-.11.75h0ZM27.91,25.83s-.07-.05-.1-.07l-5.2-3.02c-.06-.03-.12-.05-.19-.06-2.57-.14-3.76-1.65-4.27-2.3l-.07-.09c-.08-.09-.19-.15-.31-.16-.12,0-.24.04-.32.12l-1.51,1.53c-.82.82-1.88.27-2.29,0-.08-.05-.12-.12-.12-.21,0-.09.01-.16.08-.23l2.77-2.79c.76-.77.95-.75,1.86-.68h.01c.86.07,1.63.22,2.38.37.63.12,1.28.26,1.98.33.62.07,1.17-.01,1.65-.24l.78-.37,3.81,6.65c-.35.52-.67.95-.93,1.23h0ZM33.54,23.98l-2.48,1.45c-.31.18-.72.08-.91-.24l-5.07-8.85c-.09-.16-.11-.33-.07-.5.05-.17.16-.32.31-.41l2.48-1.45c.15-.09.33-.11.5-.07.17.05.31.16.4.31l5.07,8.85c.19.32.08.73-.24.91h0ZM23.48,5.27c1.42,0,2.57-1.16,2.57-2.59S24.89.09,23.48.09s-2.57,1.16-2.57,2.59,1.15,2.59,2.57,2.59ZM23.48.94c.95,0,1.72.78,1.72,1.73s-.77,1.73-1.72,1.73-1.72-.78-1.72-1.73.77-1.73,1.72-1.73ZM11.24,5.27c1.42,0,2.57-1.16,2.57-2.59S12.66.09,11.24.09s-2.57,1.16-2.57,2.59c0,1.43,1.15,2.59,2.57,2.59ZM11.24.94c.95,0,1.72.78,1.72,1.73s-.77,1.73-1.72,1.73-1.72-.78-1.72-1.73c0-.96.77-1.73,1.72-1.73ZM7.46,11.92h3.97c-.02.19-.03.38-.03.57v.25c0,.77.62,1.4,1.38,1.4h9.16c.76,0,1.38-.63,1.38-1.4v-.25c0-.19-.01-.38-.03-.57h3.97c.67,0,1.22-.55,1.22-1.23v-.2c0-2.78-2.24-5.04-5-5.04-1.38,0-2.68.58-3.63,1.59-.76-.35-1.6-.56-2.49-.56s-1.73.2-2.49.56c-.94-1.01-2.25-1.59-3.63-1.59-2.76,0-5,2.26-5,5.04v.2c-.01.68.54,1.23,1.21,1.23h0ZM23.48,6.3c2.29,0,4.15,1.88,4.15,4.19v.2c0,.2-.17.38-.37.38h-4.12c-.36-1.5-1.28-2.78-2.53-3.6.77-.75,1.79-1.17,2.86-1.17h0ZM22.48,12.49v.25c0,.3-.24.54-.54.54h-9.15c-.3,0-.54-.24-.54-.54v-.25c0-2.84,2.3-5.15,5.12-5.15,2.82,0,5.12,2.31,5.12,5.15h0ZM7.08,10.49c0-2.31,1.86-4.19,4.15-4.19,1.07,0,2.09.42,2.86,1.17-1.25.82-2.16,2.1-2.53,3.6h-4.11c-.2,0-.37-.17-.37-.38v-.2ZM17.36,6.09c1.66,0,3.02-1.37,3.02-3.04s-1.36-3.04-3.02-3.04-3.02,1.37-3.02,3.04,1.36,3.04,3.02,3.04ZM17.36.85c1.2,0,2.17.98,2.17,2.19s-.98,2.19-2.17,2.19-2.17-.98-2.17-2.19.98-2.19,2.17-2.19Z"/>
  </g>
</svg>