<?xml version="1.0" encoding="UTF-8"?>
<svg id="Layer_2" xmlns="http://www.w3.org/2000/svg" viewBox="0 0 34.8 35">
  <defs>
    <style>
      .cls-1 {
        fill: #010101;
        fill-rule: evenodd;
      }
    </style>
  </defs>
  <g id="Layer_1-2" data-name="Layer_1">
    <path class="cls-1" d="M15.35,8.5c-.2-.15-.24-.45-.09-.65.15-.2.45-.24.65-.09l1.15.87,1.73-2.16c.16-.2.45-.23.65-.07s.23.45.07.65l-2.02,2.51h0c-.16.19-.44.23-.64.08l-1.51-1.15h0ZM12.65,14.61l-1.75,3.76,1.85-.17c.17-.03.35.04.45.19l1.08,1.54,1.81-3.91c-.1-.06-.2-.1-.28-.12-.14-.03-.35,0-.55.04-.37.06-.73.12-1.1-.04-.38-.16-.58-.46-.79-.77-.11-.17-.23-.33-.34-.41-.09-.06-.23-.1-.39-.14h0ZM23.35,14.03c.21-.26.27-.58.34-.89.04-.2.09-.39.16-.5.07-.11.24-.22.41-.34.3-.21.61-.42.77-.79.16-.37.1-.73.04-1.1-.03-.21-.07-.41-.04-.55.03-.14.14-.31.25-.49.2-.33.4-.66.4-1.08s-.2-.75-.4-1.08c-.11-.18-.22-.36-.25-.49-.03-.14,0-.35.04-.55.06-.37.12-.73-.04-1.1-.16-.38-.46-.58-.77-.79-.17-.11-.33-.23-.41-.34-.08-.11-.12-.31-.16-.5-.08-.36-.16-.72-.44-1-.28-.28-.64-.36-1-.44-.2-.04-.39-.09-.5-.16-.11-.07-.22-.24-.34-.41-.21-.3-.42-.61-.79-.77-.37-.16-.73-.1-1.1-.04-.21.03-.41.07-.55.04-.14-.03-.31-.14-.49-.25-.33-.2-.66-.4-1.08-.4s-.75.2-1.08.4c-.18.11-.36.22-.49.25-.14.03-.35,0-.55-.04-.37-.06-.73-.12-1.1.04-.38.16-.58.46-.79.77-.11.17-.23.33-.34.41-.11.08-.31.12-.5.16-.36.08-.72.16-1,.44-.28.28-.36.64-.44,1-.04.2-.09.39-.16.5-.07.11-.24.22-.41.34-.3.21-.61.42-.77.79-.16.37-.1.73-.04,1.1.03.21.07.41.04.55-.03.14-.14.31-.25.49-.2.33-.4.66-.4,1.08s.2.75.4,1.08c.11.18.22.36.25.49.03.14,0,.35-.04.55-.06.37-.12.73.04,1.1.16.38.46.58.77.79.17.11.33.23.41.34.08.11.12.31.16.5.08.36.16.72.44,1,.07.07.14.13.22.18l-2.04,4.39h0c-.03.07-.05.15-.04.24.02.26.25.44.5.42l2.42-.22,1.39,1.99c.05.07.11.12.19.15.23.11.51,0,.62-.23l2.13-4.58c.15.05.3.09.47.09.32,0,.59-.12.84-.26l2.21,4.76c.11.23.38.33.62.23.08-.04.14-.09.19-.15l1.39-1.99,2.42.22c.26.02.48-.17.5-.42,0-.08,0-.16-.04-.23h0l-2.17-4.68h0ZM19.08,15.91c.13,0,.29.02.44.05.37.06.73.12,1.1-.04.38-.16.58-.46.79-.77.11-.17.23-.33.34-.41.11-.08.31-.12.5-.16.1-.02.2-.04.29-.07l1.79,3.86-1.85-.17c-.17-.03-.35.04-.45.19l-1.08,1.54-1.87-4.04h0ZM18.19,15.25s.03-.02.04-.02c.17-.1.35-.18.55-.22.31-.06.6-.02.89.03.24.04.47.08.59.02.12-.05.26-.25.39-.44.17-.24.33-.48.58-.65.25-.17.54-.23.82-.3.22-.05.45-.1.54-.19.09-.09.14-.32.19-.54.06-.29.13-.57.3-.82.17-.25.41-.42.65-.58.19-.13.39-.27.44-.39.05-.12.02-.36-.02-.59-.05-.29-.09-.58-.03-.89.06-.3.21-.55.37-.79.13-.21.26-.43.26-.59s-.13-.38-.26-.59c-.15-.25-.31-.5-.37-.79-.06-.31-.02-.6.03-.89.04-.24.08-.47.02-.59-.05-.12-.25-.26-.44-.39-.24-.17-.48-.33-.65-.58-.17-.25-.23-.54-.3-.82-.05-.22-.1-.45-.19-.54-.09-.09-.32-.14-.54-.19-.29-.06-.57-.13-.82-.3-.25-.17-.42-.41-.58-.65-.13-.19-.27-.39-.39-.44-.12-.05-.36-.02-.59.02-.29.05-.58.09-.89.03-.3-.06-.55-.21-.79-.37-.21-.13-.43-.26-.59-.26s-.38.13-.59.26c-.25.15-.5.31-.79.37-.31.06-.6.02-.89-.03-.24-.04-.47-.08-.59-.02-.12.05-.26.25-.39.44-.17.24-.33.48-.58.65s-.54.23-.82.3c-.22.05-.45.1-.54.19-.09.09-.14.32-.19.54-.06.29-.13.57-.3.82-.17.25-.41.42-.65.58-.19.13-.39.27-.44.39-.05.12-.02.36.02.59.05.29.09.58.03.89-.06.3-.21.55-.37.79-.13.21-.26.43-.26.59s.13.38.26.59c.15.25.31.5.37.79.06.31.02.6-.03.89-.04.24-.08.47-.02.59.05.12.25.26.44.39.24.17.48.33.65.58s.23.54.3.82c.05.22.1.45.19.54.06.06.16.1.29.13.02,0,.03,0,.05.01.07.02.14.03.2.05.29.06.57.13.82.3.25.17.42.41.58.65.13.19.27.39.39.44.12.05.36.02.59-.02.29-.05.58-.09.89-.03.3.06.55.21.79.37.04.02.07.05.11.07.02,0,.03.02.04.03.16.09.31.17.43.17.16,0,.38-.13.59-.26.07-.04.14-.08.2-.12h0ZM20.18,5.5c-.71-.71-1.7-1.15-2.78-1.15s-2.07.44-2.78,1.15-1.15,1.7-1.15,2.78.44,2.07,1.15,2.78c.71.71,1.7,1.15,2.78,1.15s2.07-.44,2.78-1.15c.71-.71,1.15-1.7,1.15-2.78s-.44-2.07-1.15-2.78ZM17.4,3.42c-1.34,0-2.56.55-3.44,1.42-.88.88-1.42,2.1-1.42,3.44s.55,2.56,1.42,3.44c.88.88,2.1,1.42,3.44,1.42s2.56-.55,3.44-1.42c.88-.88,1.42-2.1,1.42-3.44s-.55-2.56-1.42-3.44c-.88-.88-2.1-1.42-3.44-1.42ZM8.4,28.68c-.11-.32-.19-.59-.26-.81-.18-.59-.27-.91-.54-1.2-.3-.32-.68-.46-1.52-.77-.22-.08-.48-.18-.81-.3-.14-.05-.08-.03-.31-.12-1.46-.55-2.12-.8-2.51-1.86-.37-.99-.57-2.69-.95-5.81-.13-1.11-.29-2.41-.52-4.2h0s0-.08,0-.08c-.04-.29-.09-.69.06-.87.11-.13.24-.24.39-.3.07-.02.13-.03.2-.02h0c.07.01.15.05.22.11.18.15.37.43.54.9l2.18,5.77c-.09.1-.17.21-.24.33-.02.03-.04.07-.05.1-.23.47-.25.98-.09,1.44.16.46.49.87.95,1.12l2.84,1.56c.22.12.51.04.63-.18.12-.22.04-.51-.18-.63l-2.84-1.56c-.25-.14-.43-.36-.51-.6-.08-.24-.07-.5.05-.74,0-.02.02-.03.03-.05.06-.11.15-.21.24-.29.01,0,.03-.02.04-.03.09-.07.18-.12.28-.15.22-.08.46-.07.68.03.02,0,.03.02.04.02l6.41,3.63s.02.01.02.02c0,0,0,.01,0,.02l1.05,4.2-5.51,1.3h0ZM15.97,27.73l1.05,4.47c.05.22,0,.43-.1.61-.11.18-.29.31-.51.37l-7.64,1.8c-.22.05-.43,0-.61-.1-.18-.11-.31-.29-.37-.51l-1.05-4.47c-.05-.22,0-.43.1-.61.11-.18.29-.31.51-.37l.13-.03c-.1-.3-.17-.55-.24-.76-.14-.46-.21-.71-.33-.83-.14-.15-.46-.27-1.16-.52-.24-.09-.52-.19-.82-.31-.36-.14-.28-.11-.31-.12-1.73-.65-2.52-.95-3.05-2.4-.41-1.09-.62-2.83-1-6.02-.15-1.25-.33-2.72-.52-4.19v-.08c-.07-.47-.15-1.09.26-1.58.2-.24.47-.46.77-.57.21-.08.44-.11.67-.08.23.04.46.14.68.32.3.25.58.66.82,1.29l2.1,5.55h.04c.45-.17.94-.16,1.39.06.03.01.06.03.09.05l6.41,3.63c.12.07.22.16.3.26.08.11.14.23.17.36l1.05,4.21.19-.04c.22-.05.43,0,.61.1.18.11.31.29.37.51h0ZM16.09,32.29l-1-4.24-7.41,1.75,1,4.24,7.41-1.75ZM19.7,28.05l-1,4.24,7.41,1.75,1-4.24-7.41-1.75ZM20.89,27.38l1.05-4.2s0-.02,0-.02c0,0,.01-.01.02-.02l6.41-3.63s.02-.01.04-.02c.22-.11.46-.11.68-.03.1.03.2.09.28.15.01.01.02.02.04.03.1.08.18.17.24.29,0,.01.02.03.03.05.12.24.13.5.05.74-.08.25-.26.46-.51.6l-2.84,1.56c-.22.12-.31.41-.18.63.12.22.41.31.63.18l2.84-1.56c.46-.25.79-.66.95-1.12.15-.46.14-.97-.09-1.44-.02-.03-.03-.06-.05-.1-.07-.12-.15-.23-.24-.33l2.18-5.77c.18-.47.36-.75.54-.9.08-.07.15-.1.22-.11.07-.01.14,0,.2.02.14.05.28.17.39.3.15.18.1.58.06.87v.07s-.01.01-.01.01c-.23,1.79-.39,3.09-.52,4.2-.38,3.11-.58,4.81-.95,5.81-.39,1.06-1.05,1.3-2.51,1.86-.23.09-.17.06-.31.12-.33.12-.59.22-.81.3-.83.31-1.22.45-1.52.77-.27.29-.36.6-.54,1.2-.07.22-.15.49-.26.81l-5.51-1.3h0ZM17.77,32.2l1.05-4.47c.05-.22.19-.39.37-.51.18-.11.4-.15.61-.1l.19.04,1.05-4.21c.03-.14.09-.26.17-.36.08-.11.18-.19.3-.26l6.41-3.63s.06-.03.09-.05c.45-.22.95-.23,1.39-.08h.04s2.1-5.54,2.1-5.54c.24-.63.52-1.04.82-1.29.22-.18.45-.28.68-.32.23-.04.46,0,.67.08.3.11.57.33.77.57.41.5.33,1.12.27,1.58v.08c-.2,1.46-.38,2.93-.53,4.19-.38,3.19-.59,4.93-1,6.02-.54,1.45-1.32,1.75-3.05,2.4-.03.01.05-.02-.31.12-.3.11-.58.22-.82.31-.7.26-1.02.38-1.16.52-.11.12-.19.37-.33.83-.06.21-.14.46-.24.76l.13.03c.22.05.39.19.51.37.11.18.15.4.1.61l-1.05,4.47c-.05.22-.19.39-.37.51-.18.11-.4.15-.61.1l-7.64-1.8c-.22-.05-.39-.19-.51-.37-.11-.18-.15-.4-.1-.61h0Z"/>
  </g>
</svg>