<?xml version="1.0" encoding="UTF-8"?>
<svg id="Layer_2" xmlns="http://www.w3.org/2000/svg" xmlns:xlink="http://www.w3.org/1999/xlink" viewBox="0 0 35 35">
  <defs>
    <style>
      .cls-1 {
        fill: none;
      }

      .cls-2 {
        fill: #010101;
      }

      .cls-3 {
        clip-path: url(#clippath);
      }
    </style>
    <clipPath id="clippath">
      <rect class="cls-1" width="35" height="35"/>
    </clipPath>
  </defs>
  <g id="Layer_1-2" data-name="Layer_1">
    <g class="cls-3">
      <path class="cls-2" d="M9.59,9.02c-1.15,0-2.07.93-2.07,2.07s.93,2.07,2.07,2.07,2.07-.93,2.07-2.07-.93-2.07-2.07-2.07ZM9.59,12.32c-.67,0-1.22-.55-1.22-1.22s.55-1.22,1.22-1.22,1.22.55,1.22,1.22-.55,1.22-1.22,1.22ZM19.55,12.17c0,.24-.19.43-.43.43h-5.2c-.24,0-.43-.19-.43-.43s.19-.43.43-.43h5.2c.24,0,.43.19.43.43ZM13.5,10.02c0-.24.19-.43.43-.43h8.82c.24,0,.43.19.43.43s-.19.43-.43.43h-8.82c-.24,0-.43-.19-.43-.43ZM9.59,16.89c-1.15,0-2.07.93-2.07,2.07s.93,2.07,2.07,2.07,2.07-.93,2.07-2.07-.93-2.07-2.07-2.07ZM9.59,20.18c-.67,0-1.22-.55-1.22-1.22s.55-1.22,1.22-1.22,1.22.55,1.22,1.22-.55,1.22-1.22,1.22ZM13.5,20.03c0-.24.19-.43.43-.43h5.2c.24,0,.43.19.43.43s-.19.43-.43.43h-5.2c-.24,0-.43-.19-.43-.43ZM9.59,24.76c-1.15,0-2.07.93-2.07,2.07s.93,2.07,2.07,2.07,2.07-.93,2.07-2.07-.93-2.07-2.07-2.07ZM9.59,28.05c-.67,0-1.22-.55-1.22-1.22s.55-1.22,1.22-1.22,1.22.55,1.22,1.22-.55,1.22-1.22,1.22ZM19.55,27.9c0,.24-.19.43-.43.43h-5.2c-.24,0-.43-.19-.43-.43s.19-.43.43-.43h5.2c.24,0,.43.19.43.43ZM13.92,25.33h8.82c.24,0,.43.19.43.43s-.19.43-.43.43h-8.82c-.24,0-.43-.19-.43-.43s.19-.43.43-.43h0ZM32.15,18.96c0-2.64-1.85-4.85-4.32-5.41V5.27c0-1.29-1.05-2.34-2.34-2.34h-4.63c-.29-.39-.75-.66-1.28-.66h-1.36c-.19,0-.34-.15-.34-.34v-.36c0-.87-.71-1.57-1.57-1.57h-1.95c-.87,0-1.57.71-1.57,1.57v.36c0,.19-.15.34-.34.34h-1.36c-.52,0-.99.26-1.28.66h-4.63c-1.29,0-2.34,1.05-2.34,2.34v27.39c0,1.29,1.05,2.34,2.34,2.34h20.31c1.29,0,2.34-1.05,2.34-2.34v-8.28c2.47-.57,4.32-2.78,4.32-5.42h0ZM25.49,3.78c.82,0,1.49.67,1.49,1.49v8.16c-.13,0-.25-.02-.38-.02-.31,0-.61.03-.9.08v-7.99c0-.24-.19-.43-.43-.43h-4.11s0-.04,0-.06v-1.16s0-.04,0-.06h4.34ZM21.25,17.47h-7.33c-.24,0-.43.19-.43.43s.19.43.43.43h7.16c-.03.21-.04.43-.04.64,0,2.45,1.59,4.53,3.8,5.27v7.77H5.84V5.92h3.98c.29.39.75.66,1.28.66h8.49c.52,0,.99-.26,1.28-.66h3.98v7.77c-1.74.58-3.09,1.99-3.59,3.77h0ZM10.38,3.85c0-.4.32-.72.72-.72h1.36c.66,0,1.19-.53,1.19-1.19v-.36c0-.4.32-.72.72-.72h1.95c.4,0,.72.32.72.72v.36c0,.66.53,1.19,1.19,1.19h1.36c.4,0,.72.32.72.72v1.16c0,.4-.32.72-.72.72h-8.48c-.4,0-.72-.32-.72-.72v-1.16h0ZM26.98,32.66c0,.82-.67,1.49-1.49,1.49H5.19c-.82,0-1.49-.67-1.49-1.49V5.27c0-.82.67-1.49,1.49-1.49h4.34s0,.04,0,.06v1.16s0,.04,0,.06h-4.12c-.24,0-.43.19-.43.43v26.93c0,.24.19.43.43.43h19.85c.24,0,.43-.19.43-.43v-7.99c.3.05.59.08.9.08.13,0,.26-.01.38-.02v8.16ZM26.6,23.67c-2.59,0-4.7-2.11-4.7-4.7s2.11-4.7,4.7-4.7,4.7,2.11,4.7,4.7-2.11,4.7-4.7,4.7ZM29.7,16.7c.17.17.17.44,0,.6l-3.92,3.92c-.08.08-.19.13-.3.13s-.22-.04-.3-.13l-1.68-1.68c-.17-.17-.17-.44,0-.6.17-.17.44-.17.6,0l1.38,1.37,3.62-3.62c.17-.17.44-.17.6,0h0Z"/>
    </g>
  </g>
</svg>