<?xml version="1.0" encoding="UTF-8"?>
<svg id="Layer_2" xmlns="http://www.w3.org/2000/svg" viewBox="0 0 35 34.97">
  <defs>
    <style>
      .cls-1 {
        fill: #010101;
      }
    </style>
  </defs>
  <g id="Layer_1-2" data-name="Layer_1">
    <path class="cls-1" d="M17.81,13.82c0-4.92-3.98-8.91-8.89-8.92C4,4.9,0,8.88,0,13.8c0,4.38,3.17,8.11,7.5,8.81v2.81c-.43.1-.73.48-.73.92v7.69c0,.52.43.95.95.95h2.5c.52,0,.95-.42.95-.95v-7.69c0-.44-.3-.82-.73-.92v-2.82c4.26-.75,7.37-4.44,7.37-8.77ZM1.03,13.82c0-4.35,3.53-7.88,7.88-7.88s7.88,3.53,7.88,7.88-3.53,7.88-7.88,7.88c-4.35,0-7.87-3.53-7.88-7.88ZM10.14,33.94h-2.34v-7.54h2.34v7.54ZM9.41,25.38h-.88v-2.67c.13,0,.25.02.38.02.17,0,.33-.02.5-.03v2.68ZM5.22,18.92c.08.06.16.11.24.16.1.06.2.12.3.18.09.05.18.1.28.15s.19.1.29.14c.11.05.22.09.33.13.09.03.18.07.28.1.13.04.26.08.39.11.08.02.16.05.25.06.15.03.31.06.46.08.07,0,.13.02.2.03.22.02.45.04.68.04h0c.23,0,.45-.01.68-.04.07,0,.13-.02.19-.03.16-.02.31-.04.47-.08.08-.02.16-.04.24-.06.13-.03.27-.07.4-.11.09-.03.18-.07.27-.1.11-.04.23-.09.33-.13.1-.04.19-.09.29-.14s.19-.1.28-.15c.1-.06.2-.12.3-.18.08-.05.16-.11.24-.16.1-.07.2-.14.29-.22.07-.06.14-.12.21-.18.1-.08.19-.16.28-.25.07-.07.13-.14.19-.2.07-.08.15-.15.21-.23l.28-.33-.02-.02c2.09-2.84,1.48-6.84-1.36-8.93s-6.84-1.48-8.93,1.36c-1.66,2.25-1.66,5.32,0,7.57l-.02.02.28.33c.07.08.14.15.22.23.06.07.12.13.19.2.09.09.19.17.28.25.07.06.14.12.21.18.1.08.2.15.3.22h0ZM11.49,18.41s-.02.01-.03.02c-.11.06-.23.11-.34.17-.04.02-.09.04-.13.06-.1.04-.19.07-.29.1-.07.02-.14.05-.21.08-.08.03-.17.04-.25.07s-.17.05-.26.07-.18.03-.28.04c-.08.01-.17.03-.25.04-.17.02-.35.03-.53.03h-.01c-.18,0-.36,0-.54-.03-.08,0-.16-.02-.23-.03-.1-.01-.2-.03-.29-.04-.08-.02-.16-.04-.24-.06-.09-.02-.18-.04-.27-.07-.07-.02-.13-.05-.2-.07-.1-.04-.2-.07-.3-.11-.04-.02-.08-.04-.12-.06-.12-.05-.24-.11-.36-.17h-.02c-.45-.26-.86-.56-1.22-.93,2.09-2.09,5.48-2.09,7.58,0-.36.36-.77.66-1.21.91h0ZM8.91,8.36c2.96,0,5.36,2.4,5.36,5.35,0,1.07-.32,2.11-.92,3-2.47-2.4-6.41-2.4-8.89,0-1.65-2.46-1-5.79,1.45-7.44.88-.6,1.93-.91,2.99-.91ZM8.91,14.25c1.32,0,2.39-1.07,2.39-2.39,0-1.32-1.07-2.39-2.39-2.39-1.32,0-2.39,1.07-2.39,2.39,0,1.32,1.07,2.39,2.39,2.39ZM8.91,10.49c.75,0,1.36.61,1.36,1.36s-.61,1.36-1.36,1.36c-.75,0-1.36-.61-1.36-1.36,0-.75.61-1.36,1.36-1.36ZM35,24.53c.01-4.91-3.96-8.9-8.87-8.91-4.91-.01-8.9,3.96-8.91,8.87,0,1.96.64,3.87,1.83,5.43l-.02.02.28.33c.1.12.21.22.31.33.08.09.16.18.25.26.13.13.26.24.4.36.1.08.19.16.28.24.14.11.28.21.42.31.11.08.22.15.33.22.14.09.28.17.42.26.13.07.26.14.39.21s.27.14.41.2c.15.07.3.13.46.18.13.05.25.1.38.14.18.06.36.11.54.15.11.03.22.06.34.09.21.05.43.08.65.11.09.01.18.03.27.04.63.07,1.26.07,1.89,0,.09,0,.18-.03.28-.04.22-.03.43-.06.64-.11.12-.02.23-.06.34-.09.18-.05.36-.1.54-.15.13-.04.26-.09.38-.14.15-.06.31-.12.46-.18.14-.06.28-.13.41-.2s.26-.13.38-.2c.14-.08.28-.17.42-.26.11-.07.22-.14.32-.22.14-.1.28-.2.42-.31.1-.08.19-.16.28-.24.14-.12.27-.24.4-.36.08-.08.16-.17.24-.26.11-.11.22-.22.32-.33l.28-.33-.02-.02c1.19-1.54,1.83-3.44,1.83-5.38ZM26.11,16.67c4.33,0,7.86,3.5,7.86,7.83,0,1.67-.52,3.29-1.51,4.64-3.4-3.51-9-3.6-12.51-.2-.07.07-.13.13-.2.2-2.55-3.5-1.79-8.41,1.72-10.97,1.35-.98,2.97-1.51,4.64-1.51ZM31.71,30.04c-.06.06-.11.11-.17.16-.13.12-.26.25-.4.36-.05.05-.11.09-.17.13-.14.11-.29.23-.44.33-.06.04-.12.08-.18.11-.15.1-.31.2-.47.29-.08.04-.16.08-.24.12-.15.08-.3.15-.45.22-.12.05-.24.09-.35.13s-.24.1-.37.14c-.18.06-.36.1-.55.14-.07.02-.14.04-.21.05-.24.05-.48.09-.73.11-.02,0-.04,0-.06,0-.27.03-.54.04-.81.04-.27,0-.54-.01-.81-.04-.01,0-.03,0-.04,0-.25-.03-.5-.06-.75-.12-.06-.01-.12-.03-.19-.05-.19-.04-.38-.09-.57-.15-.12-.04-.23-.09-.35-.13-.13-.05-.25-.09-.38-.14-.15-.06-.29-.14-.44-.21-.08-.04-.17-.08-.25-.12-.16-.09-.31-.18-.46-.28-.07-.04-.13-.08-.2-.12-.15-.1-.29-.21-.43-.33-.06-.05-.12-.09-.18-.14-.14-.11-.26-.23-.39-.36-.06-.06-.12-.11-.18-.17-.04-.04-.07-.08-.1-.11,2.99-3.15,7.96-3.28,11.11-.3.1.1.2.19.3.3-.04.04-.07.08-.11.11h0ZM26.11,25.07c1.76,0,3.19-1.43,3.19-3.19s-1.43-3.19-3.19-3.19-3.19,1.43-3.19,3.19h0c0,1.76,1.43,3.19,3.19,3.19h0ZM26.11,19.71c1.19,0,2.16.97,2.16,2.16s-.97,2.16-2.16,2.16-2.16-.97-2.16-2.16c0-1.19.97-2.16,2.16-2.16h0ZM20.5,11.16l.28.33c.07.08.15.16.22.24s.14.16.22.24c.1.1.2.18.3.27.08.07.15.14.23.2.1.08.21.16.32.24.09.06.17.12.26.18.11.07.21.13.32.2.1.06.2.11.31.16s.21.11.32.15c.12.05.24.1.36.14.1.04.2.08.3.11.14.05.28.08.43.12.09.02.18.05.27.07.17.04.33.06.51.08.07.01.14.03.22.03.49.05.99.05,1.48,0,.07,0,.14-.02.21-.03.17-.02.34-.05.51-.08.09-.02.18-.05.27-.07.14-.04.29-.07.43-.12.1-.03.2-.07.3-.11.12-.05.25-.1.37-.15.11-.05.21-.1.32-.15s.21-.11.31-.17c.11-.06.22-.13.32-.2.09-.06.18-.12.27-.18.11-.08.21-.15.32-.24.08-.06.16-.13.24-.2.1-.09.2-.18.3-.27.08-.08.15-.16.22-.23s.15-.15.22-.24l.28-.33-.02-.02c2.3-3.09,1.66-7.46-1.43-9.76-3.09-2.3-7.46-1.66-9.76,1.43-1.84,2.47-1.84,5.86,0,8.33l-.02.02ZM28.05,12.61c-.06.02-.12.05-.18.06-.09.03-.18.05-.27.07-.1.03-.2.06-.3.08-.09.02-.18.03-.26.04-.11.02-.21.04-.32.05-.2.02-.4.03-.6.03s-.4-.01-.6-.03c-.11-.01-.21-.03-.32-.05-.09-.01-.18-.02-.27-.04-.1-.02-.2-.05-.29-.07s-.19-.04-.28-.07c-.06-.02-.11-.04-.17-.06-.84-.29-1.61-.77-2.25-1.39,0,0-.02-.02-.03-.03s-.02-.03-.03-.04c2.3-2.34,6.07-2.37,8.41-.07.02.02.05.05.07.07-.64.66-1.43,1.15-2.3,1.45ZM26.11,1.05c3.28,0,5.94,2.65,5.95,5.93,0,1.21-.37,2.39-1.05,3.39-2.71-2.68-7.08-2.68-9.78,0-1.87-2.7-1.19-6.4,1.51-8.27.99-.69,2.18-1.06,3.39-1.05ZM26.11,7.53c1.42,0,2.58-1.16,2.58-2.58,0-1.42-1.16-2.58-2.58-2.58-1.42,0-2.58,1.15-2.58,2.58,0,1.42,1.16,2.58,2.58,2.58ZM26.11,3.4c.86,0,1.55.69,1.55,1.55s-.69,1.55-1.55,1.55c-.86,0-1.55-.69-1.55-1.55h0c0-.86.69-1.55,1.55-1.55Z"/>
  </g>
</svg>