<?xml version="1.0" encoding="UTF-8"?>
<svg id="Layer_2" xmlns="http://www.w3.org/2000/svg" xmlns:xlink="http://www.w3.org/1999/xlink" viewBox="0 0 40 40">
  <defs>
    <style>
      .cls-1 {
        fill: none;
      }

      .cls-2 {
        fill: #f15f26;
      }

      .cls-3 {
        clip-path: url(#clippath);
      }
    </style>
    <clipPath id="clippath">
      <rect class="cls-1" width="40" height="40"/>
    </clipPath>
  </defs>
  <g id="Layer_1-2" data-name="Layer_1">
    <g class="cls-3">
      <g>
        <path class="cls-2" d="M19.38,16.26v.62c-1.03,0-1.87.85-1.87,1.87s.84,1.87,1.87,1.87h.62c.35,0,.62.27.62.63s-.27.63-.62.63h-1.86c-.35,0-.63.27-.63.62s.27.63.62.63h.63v.62c0,.35.27.63.62.63.35,0,.63-.27.63-.62h0v-.63c1.03,0,1.87-.85,1.87-1.87s-.84-1.87-1.87-1.87h-.62c-.35,0-.62-.27-.62-.63s.27-.63.62-.63h.61s0,0,0,0,0,0,0,0h1.25c.35,0,.63-.27.63-.62s-.27-.63-.62-.63h-.63v-.62c0-.35-.27-.63-.62-.63,0,0-.01,0-.02,0-.34,0-.62.29-.62.63Z"/>
        <path class="cls-2" d="M13.13,20c0,3.79,3.09,6.87,6.87,6.87s6.87-3.09,6.87-6.87-3.09-6.87-6.87-6.87-6.87,3.09-6.87,6.87ZM25.62,20c0,3.11-2.51,5.62-5.62,5.62s-5.62-2.51-5.62-5.62,2.51-5.62,5.62-5.62,5.62,2.51,5.62,5.62Z"/>
        <path class="cls-2" d="M7.5,15c1.25,0,.5,0,1.24,0,.75,0,1.32-.41,1.71-.82,1.19-1.25,3.11-3.11,3.11-3.11.26-.23.28-.63.05-.88s-.63-.28-.88-.05c-.01.01-.02.02-.04.03,0,0-1.92,1.86-3.14,3.14-.27.29-.51.44-.79.43-.74,0-.01,0-1.26,0-.68,0-1.25-.57-1.25-1.25,0-.37.18-.7.36-.87,2.57-2.63,5.17-5.25,7.76-7.88,1.85-1.88,4.37-2.5,6.25-2.5h13.76c.35,0,.63-.27.63-.62s-.27-.63-.62-.63h-13.78c-2.15,0-4.99.69-7.14,2.87-2.58,2.62-5.18,5.25-7.76,7.88-.39.4-.69,1-.71,1.72h0v.03c0,1.37,1.13,2.5,2.5,2.5Z"/>
        <path class="cls-2" d="M31.36,10c1.05-.65,1.76-1.26,3-1.25.35,0,.63-.27.64-.61,0-.35-.27-.63-.61-.64,0,0-.01,0-.02,0h0c-1.67,0-2.71.85-3.66,1.44-.99.61-1.78,1.06-3.01,1.06-1.15,0-1.98-.19-2.87-.46-1.83-.56-3.91-.79-7.32-.79,0,0,0,0,0,0h0c-.7,0-1.25-.55-1.25-1.25s.55-1.25,1.25-1.25h6.87c.35,0,.63-.27.63-.62,0-.35-.27-.63-.62-.63h-6.88c-1.37,0-2.5,1.13-2.5,2.5s1.12,2.5,2.5,2.5c0,0,0,0,0,0h0c3.34,0,5.28.23,6.95.74.95.29,1.95.51,3.24.51,1.55,0,2.65-.63,3.67-1.25Z"/>
        <path class="cls-2" d="M32.5,25c-1.25,0-.5,0-1.24,0-.75,0-1.32.41-1.71.82-1.19,1.25-3.11,3.11-3.11,3.11-.26.23-.28.63-.05.88.23.26.63.28.88.05.01-.01.02-.02.04-.03,0,0,1.92-1.86,3.14-3.14.27-.29.51-.44.79-.43.74,0,.01,0,1.26,0,.68,0,1.25.57,1.25,1.25,0,.37-.18.7-.36.87-2.57,2.63-5.17,5.25-7.75,7.88-1.85,1.88-4.37,2.5-6.25,2.5H5.63c-.35,0-.63.27-.63.62,0,.35.27.63.62.63h13.78c2.15,0,4.99-.69,7.14-2.87,2.58-2.62,5.18-5.25,7.76-7.88.39-.4.69-1,.71-1.72h0s0-.02,0-.03c0-1.37-1.13-2.5-2.5-2.5Z"/>
        <path class="cls-2" d="M5.61,32.5s.01,0,.02,0h0c1.67,0,2.71-.85,3.66-1.44.99-.61,1.78-1.06,3.01-1.06,1.15,0,1.98.19,2.87.46,1.83.56,3.91.79,7.32.79,0,0,0,0,0,0h0c.7,0,1.25.55,1.25,1.25s-.55,1.25-1.25,1.25h-6.87c-.35,0-.63.27-.63.62s.27.63.62.63h6.88c1.37,0,2.5-1.13,2.5-2.5s-1.12-2.5-2.5-2.5c0,0,0,0,0,0h0c-3.34,0-5.28-.23-6.95-.74-.95-.29-1.95-.51-3.24-.51-1.55,0-2.65.63-3.67,1.25-1.05.65-1.76,1.26-3,1.25-.35,0-.63.27-.64.61,0,.35.27.63.61.64Z"/>
      </g>
    </g>
  </g>
</svg>