<svg xmlns="http://www.w3.org/2000/svg" xmlns:xlink="http://www.w3.org/1999/xlink" viewBox="0 0 117 44"><defs><style>.cls-1{fill:none;}.cls-2{fill:#092f5c;}.cls-3{clip-path:url(#clip-path);}.cls-4{fill:#fff;}.cls-5{clip-path:url(#clip-path-2);}</style><clipPath id="clip-path"><rect class="cls-1" x="46.5" y="10" width="24" height="24"/></clipPath><clipPath id="clip-path-2"><rect class="cls-1" x="9.88" y="6" width="32" height="32"/></clipPath></defs><title>angular-python</title><g id="Layer_2" data-name="Layer 2"><g id="bg-plus"><g id="Layer_3" data-name="Layer 3"><path class="cls-2" d="M22,0H95a22,22,0,0,1,22,22h0A22,22,0,0,1,95,44H22A22,22,0,0,1,0,22H0A22,22,0,0,1,22,0Z"/></g><g id="plus"><g class="cls-3"><path class="cls-4" d="M58.5,13a1,1,0,0,0-1,1v7h-7a1,1,0,0,0,0,2h7v7a1,1,0,0,0,2,0V23h7a1,1,0,0,0,0-2h-7V14A1,1,0,0,0,58.5,13Z"/></g></g></g><g id="angular-python"><g id="angular"><g class="cls-5"><path class="cls-4" d="M25.94,37.34h-.12c-.29-.18-.58-.39-.88-.55q-5.31-3-10.62-5.88a.89.89,0,0,1-.57-.78c-.24-2.32-.52-4.64-.79-6.95q-.63-5.41-1.28-10.82a.63.63,0,0,1,.42-.78l.09,0C14.57,10.74,17,9.88,19.38,9l6.48-2.37H26l.29.14,12.46,4.45c.45.17,1.11.21,1.3.53s0,1,0,1.47v.59l-.87,7.46q-.51,4.43-1,8.84a1.22,1.22,0,0,1-.5.73l-5.48,3ZM25.88,10l-9,20.11h2.87a.66.66,0,0,0,.74-.5q.66-1.78,1.41-3.54c.09-.19.34-.44.52-.44h7.17c.54,1.33,1.06,2.66,1.61,4,.07.18.23.47.36.47h3.22Z"/><path class="cls-4" d="M25.89,16.63l2.55,6.13H23.38Z"/></g></g><g id="python"><g id="Dribbble-Light-Preview"><g id="icons"><path id="python-" class="cls-4" d="M95.14,34.11a1.26,1.26,0,1,1,1.26-1.26,1.26,1.26,0,0,1-1.26,1.26M91.3,36.32c7.3,0,6.84-3.18,6.84-3.18V29.9h-7v-1h9.73s4.66.54,4.66-6.86-4-7.14-4-7.14H99.09v3.44s.13,4.08-4,4.08H88.18s-3.87-.06-3.87,3.78v6.33s-.6,3.83,7.06,3.83M87.29,9.89a1.26,1.26,0,1,1-1.24,1.28h0a1.26,1.26,0,0,1,1.24-1.28h0m3.81-2.2c-7.27,0-6.81,3.21-6.81,3.21v3.29h7v1H81.53s-4.66-.57-4.66,6.8,4,7.14,4,7.14h2.43V25.73s-.13-4.08,4-4.08h6.91s3.89.06,3.89-3.78V11.48s.6-3.83-7.06-3.83"/></g></g></g></g></g></svg>