<svg xmlns="http://www.w3.org/2000/svg" xmlns:xlink="http://www.w3.org/1999/xlink" viewBox="0 0 117 44"><defs><style>.cls-1{fill:none;}.cls-2{fill:#092f5c;}.cls-3{clip-path:url(#clip-path);}.cls-4{fill:#fff;}.cls-5{clip-path:url(#clip-path-2);}.cls-6{clip-path:url(#clip-path-3);}</style><clipPath id="clip-path"><rect class="cls-1" x="46.5" y="10" width="24" height="24"/></clipPath><clipPath id="clip-path-2"><rect class="cls-1" x="9.88" y="6" width="32" height="32"/></clipPath><clipPath id="clip-path-3"><rect class="cls-1" x="75.69" y="6.72" width="30.56" height="30.56"/></clipPath></defs><title>angular-nodejs</title><g id="Layer_2" data-name="Layer 2"><g id="bg-plus"><g id="Layer_3" data-name="Layer 3"><path class="cls-2" d="M22,0H95a22,22,0,0,1,22,22h0A22,22,0,0,1,95,44H22A22,22,0,0,1,0,22H0A22,22,0,0,1,22,0Z"/></g><g id="plus"><g class="cls-3"><path class="cls-4" d="M58.5,13a1,1,0,0,0-1,1v7h-7a1,1,0,0,0,0,2h7v7a1,1,0,0,0,2,0V23h7a1,1,0,0,0,0-2h-7V14A1,1,0,0,0,58.5,13Z"/></g></g></g><g id="angular-nodejs"><g id="angular"><g class="cls-5"><path class="cls-4" d="M25.94,37.34h-.12c-.29-.18-.58-.39-.88-.55q-5.31-3-10.62-5.88a.89.89,0,0,1-.57-.78c-.24-2.32-.52-4.64-.79-6.95q-.63-5.41-1.28-10.82a.63.63,0,0,1,.42-.78l.09,0C14.57,10.74,17,9.88,19.38,9l6.48-2.37H26l.29.14,12.46,4.45c.45.17,1.11.21,1.3.53s0,1,0,1.47v.59l-.87,7.46q-.51,4.43-1,8.84a1.22,1.22,0,0,1-.5.73l-5.48,3ZM25.88,10l-9,20.11h2.87a.66.66,0,0,0,.74-.5q.66-1.78,1.41-3.54c.09-.19.34-.44.52-.44h7.17c.54,1.33,1.06,2.66,1.61,4,.07.18.23.47.36.47h3.22Z"/><path class="cls-4" d="M25.89,16.63l2.55,6.13H23.38Z"/></g></g><g id="node_js" data-name="node js"><g class="cls-6"><path class="cls-4" d="M84.49,33.1A3.11,3.11,0,0,1,83,32.7l-.66-.37a1,1,0,0,1,1-1.64l.65.36a1.2,1.2,0,0,0,1.66-.41,1.13,1.13,0,0,0,.17-.69V16.48a1,1,0,1,1,1.91,0V30a3.11,3.11,0,0,1-1.55,2.72A3.23,3.23,0,0,1,84.49,33.1Z"/><path class="cls-4" d="M91,37a2.22,2.22,0,0,1-1.13-.3l-3-1.76a1,1,0,0,1-.11-1.35.94.94,0,0,1,1.07-.27l3,1.75a.33.33,0,0,0,.36,0l10.9-6.42a.42.42,0,0,0,.2-.35V15.61a.4.4,0,0,0-.2-.34L91.16,8.89a.35.35,0,0,0-.37,0L79.87,15.31a.42.42,0,0,0-.19.35V28.38a.39.39,0,0,0,.19.34l3.37,2a1,1,0,0,1,.57,1.24,1,1,0,0,1-1.25.57h0a1,1,0,0,1-.27-.17l-3.37-2a2.25,2.25,0,0,1-1.12-2V15.61a2.25,2.25,0,0,1,1.12-2L89.83,7.26a2.27,2.27,0,0,1,2.28,0L103,13.64a2.27,2.27,0,0,1,1.12,2V28.39A2.28,2.28,0,0,1,103,30.3l-10.9,6.44A2.29,2.29,0,0,1,91,37Z"/><path class="cls-4" d="M94,28.46c-2.86,0-5.82-1-5.82-3.7a1,1,0,0,1,1.91,0c0,1.43,2.47,1.81,3.94,1.81,2.62,0,4-.27,4-1.81,0-.77-1-1.08-3.27-1.62L93.83,23l-1-.25c-2-.44-4.78-1-4.78-3.47,0-2.73,3-3.7,5.84-3.7s5.83,1,5.83,3.7a1,1,0,0,1-1.92,0c0-1.43-2.47-1.82-3.94-1.82s-3.9.39-3.9,1.82c0,.85,1.42,1.22,3.25,1.63l1,.21.89.22c2.42.58,4.71,1.12,4.71,3.46C99.86,28.46,95.92,28.46,94,28.46Z"/></g></g></g></g></svg>