<svg xmlns="http://www.w3.org/2000/svg" xmlns:xlink="http://www.w3.org/1999/xlink" viewBox="0 0 117 44"><defs><style>.cls-1{fill:none;}.cls-2{fill:#092f5c;}.cls-3{clip-path:url(#clip-path);}.cls-4{fill:#fff;}</style><clipPath id="clip-path"><rect class="cls-1" x="46.5" y="10" width="24" height="24"/></clipPath></defs><title>java-wordpress</title><g id="Layer_2" data-name="Layer 2"><g id="bg-plus"><g id="Layer_3" data-name="Layer 3"><path class="cls-2" d="M22,0H95a22,22,0,0,1,22,22h0A22,22,0,0,1,95,44H22A22,22,0,0,1,0,22H0A22,22,0,0,1,22,0Z"/></g><g id="plus"><g class="cls-3"><path class="cls-4" d="M58.5,13a1,1,0,0,0-1,1v7h-7a1,1,0,0,0,0,2h7v7a1,1,0,0,0,2,0V23h7a1,1,0,0,0,0-2h-7V14A1,1,0,0,0,58.5,13Z"/></g></g></g><g id="java-wordpress"><g id="Page-1"><g id="Dribbble-Light-Preview"><g id="icons"><path id="wordpress-_139_" data-name="wordpress-[#139]" class="cls-4" d="M103.09,15.41a10.45,10.45,0,0,1,.09,1.41c0,2.42-.22,2.55-5.24,17a13.74,13.74,0,0,0,5.15-18.46ZM91.28,23.2l-4.12,12A13.75,13.75,0,0,0,95.6,35a1.14,1.14,0,0,1-.1-.19Zm9-1.89a7.24,7.24,0,0,0-1.13-3.79,6.4,6.4,0,0,1-1.35-3.22,2.38,2.38,0,0,1,2.31-2.44h.17a13.73,13.73,0,0,0-20.74,2.59,36.93,36.93,0,0,0,4.54-.16.57.57,0,0,1,.09,1.13s-.74.09-1.57.13l5,14.87,3-9-2.14-5.86c-.73,0-1.43-.13-1.43-.13a.57.57,0,0,1,.08-1.13,39.33,39.33,0,0,0,7.28,0,.57.57,0,0,1,.09,1.13s-.75.09-1.58.13l5,14.76c1.95-6.55,2.41-7.64,2.41-9Zm-23,.69a13.75,13.75,0,0,0,7.74,12.36L78.5,16.41A13.73,13.73,0,0,0,77.31,22Z"/></g></g></g><g id="_5151e0c8492e5103c096af88a51e8d81" data-name="5151e0c8492e5103c096af88a51e8d81"><path class="cls-4" d="M22.17,19.05A2.81,2.81,0,0,1,22,17a4.82,4.82,0,0,1,1.21-1.78c1.39-1.38,3.1-2.4,4.45-3.81a5.7,5.7,0,0,0,1.59-2.77,5.64,5.64,0,0,0-.07-2.35,3.59,3.59,0,0,1,.75,3,6.86,6.86,0,0,1-1.65,3.14,15.5,15.5,0,0,1-2.08,2,8.87,8.87,0,0,0-2.26,2.43,3.14,3.14,0,0,0-.25,2.64c.51,1.49,1.71,2.59,2.36,4-.72-.64-1.43-1.29-2.09-2A9.6,9.6,0,0,1,22.17,19.05Zm3.9-1.16a4.55,4.55,0,0,0,1.26,3.27,2.32,2.32,0,0,1,.7,1.47,2.65,2.65,0,0,1-1,2c.13,0,.22-.13.33-.19a5.13,5.13,0,0,0,2-2.11,2.13,2.13,0,0,0-.14-1.93,17.4,17.4,0,0,1-1.28-2A1.88,1.88,0,0,1,27.91,17a3.77,3.77,0,0,1,1-1.49A26.05,26.05,0,0,1,33,12.69,15.48,15.48,0,0,0,28,15,4.38,4.38,0,0,0,26.07,17.89Zm8.37,5.76a2,2,0,0,1,1.81,1.5,2.51,2.51,0,0,1-.66,2,9.22,9.22,0,0,1-2.76,2.07,1.09,1.09,0,0,0-.26.22,9.77,9.77,0,0,0,3.75-1.71,3.33,3.33,0,0,0,1.24-1.95A2.1,2.1,0,0,0,36.88,24a2.85,2.85,0,0,0-2.29-.66,1.94,1.94,0,0,0-1.31.55A3.86,3.86,0,0,1,34.44,23.65ZM17.82,25.84a15.75,15.75,0,0,0,3.06.41c.92.06,1.84.08,2.76.07a35.66,35.66,0,0,0,7.14-.72,1.84,1.84,0,0,0,.67-.23,11.23,11.23,0,0,1,1.24-.65c-1.91.31-3.82.57-5.75.69a46.16,46.16,0,0,1-5.88.07,5.79,5.79,0,0,1-1.66-.3c-.12-.05-.29-.16-.23-.32a1.2,1.2,0,0,1,.54-.41,18.06,18.06,0,0,1,2.66-.89,11,11,0,0,0-4.48,1,3.15,3.15,0,0,0-.92.53.27.27,0,0,0,0,.39A2.17,2.17,0,0,0,17.82,25.84Zm12.4,2.1a32.61,32.61,0,0,1-4,.53,26.3,26.3,0,0,1-4.44-.13,2.49,2.49,0,0,1-.82-.22.46.46,0,0,1-.26-.36c0-.25.23-.43.39-.61a4.46,4.46,0,0,0-1.35.66.59.59,0,0,0-.29.56,1,1,0,0,0,.56.55,6.07,6.07,0,0,0,1.82.54,21,21,0,0,0,4.75.15,23.7,23.7,0,0,0,4.94-.88A4.38,4.38,0,0,1,30.22,27.94Zm-8.41,2.65a3.39,3.39,0,0,0-1.22.56.52.52,0,0,0-.23.59,1.27,1.27,0,0,0,.63.6,6.88,6.88,0,0,0,2.12.66,15.13,15.13,0,0,0,5-.07,12.31,12.31,0,0,0,2.85-.85,15.05,15.05,0,0,1-1.71-.84,25.77,25.77,0,0,1-2.91.4,18.79,18.79,0,0,1-3.89-.17,1.39,1.39,0,0,1-.9-.36C21.42,30.89,21.67,30.72,21.81,30.59Zm10.47,4.93a12.63,12.63,0,0,0,3.13-1c.31-.18.68-.37.78-.74s-.31-.54-.57-.68a.53.53,0,0,1,.11.66,2.17,2.17,0,0,1-1.14.64,23.23,23.23,0,0,1-3.89.65,59.57,59.57,0,0,1-10.43.1,13.75,13.75,0,0,1-3.47-.67c-.17-.07-.44-.15-.44-.39a.9.9,0,0,1,.44-.42A6.81,6.81,0,0,1,19.38,33a1.62,1.62,0,0,0-.87-.16,7.7,7.7,0,0,0-2.17.45,5,5,0,0,0-1.71.91c-.19.17-.37.49-.17.72a2.29,2.29,0,0,0,1.2.52,55.18,55.18,0,0,0,7.14.72A43,43,0,0,0,32.28,35.52Zm3.14.41a26.7,26.7,0,0,1-4.42.92,51.18,51.18,0,0,1-7.73.35,38.74,38.74,0,0,1-4.69-.43,4,4,0,0,0,1.22.43,29.33,29.33,0,0,0,5.29.49,43.62,43.62,0,0,0,7.75-.46,11.76,11.76,0,0,0,3.51-1,2.13,2.13,0,0,0,1.25-1.42A5.29,5.29,0,0,1,35.42,35.93Z"/></g></g></g></svg>