<svg xmlns="http://www.w3.org/2000/svg" xmlns:xlink="http://www.w3.org/1999/xlink" viewBox="0 0 117 44"><defs><style>.cls-1{fill:none;}.cls-2{fill:#092f5c;}.cls-3{clip-path:url(#clip-path);}.cls-4{fill:#fff;}.cls-5{fill:#fefefe;}</style><clipPath id="clip-path"><rect class="cls-1" x="46.5" y="10" width="24" height="24"/></clipPath></defs><title>react-js</title><g id="Layer_2" data-name="Layer 2"><g id="bg-plus"><g id="Layer_3" data-name="Layer 3"><path class="cls-2" d="M22,0H95a22,22,0,0,1,22,22h0A22,22,0,0,1,95,44H22A22,22,0,0,1,0,22H0A22,22,0,0,1,22,0Z"/></g><g id="plus"><g class="cls-3"><path class="cls-4" d="M58.5,13a1,1,0,0,0-1,1v7h-7a1,1,0,0,0,0,2h7v7a1,1,0,0,0,2,0V23h7a1,1,0,0,0,0-2h-7V14A1,1,0,0,0,58.5,13Z"/></g></g></g><g id="react-js"><path class="cls-4" d="M25.88,25.06a3,3,0,1,0-3-3v0h0A3,3,0,0,0,25.88,25.06Z"/><path id="react" class="cls-4" d="M40.13,22c0-1.89-2.37-3.64-6-4.79.84-3.69.47-6.64-1.17-7.58a2.46,2.46,0,0,0-1.3-.34h0c-1.59,0-3.68,1.13-5.8,3.11-2.08-2-4.2-3.11-5.8-3.11h0a2.53,2.53,0,0,0-1.32.32c-1.63.91-2,3.87-1.15,7.56-3.63,1.11-6,2.89-6,4.78s2.36,3.68,6,4.79c-.84,3.69-.46,6.63,1.18,7.58a2.69,2.69,0,0,0,1.31.31c1.59,0,3.68-1.13,5.8-3.11,2.11,2,4.2,3.1,5.8,3.1A2.57,2.57,0,0,0,33,34.33c1.63-.91,2-3.88,1.15-7.56C37.77,25.67,40.13,23.85,40.13,22ZM31.66,10.61h0a1.32,1.32,0,0,1,.67.15c.79.45,1.12,2.18.9,4.39a16.2,16.2,0,0,1-.3,1.71,28.58,28.58,0,0,0-3.68-.63,30.6,30.6,0,0,0-2.42-2.91C28.68,11.58,30.46,10.61,31.66,10.61ZM20.72,25c.27.47.56.92.85,1.36-.83-.12-1.63-.27-2.39-.45a24.09,24.09,0,0,1,.79-2.3C20.2,24.05,20.45,24.52,20.72,25Zm-1.56-6.85c.76-.18,1.56-.33,2.4-.46-.28.45-.57.91-.84,1.38s-.52.91-.75,1.4C19.65,19.67,19.39,18.89,19.16,18.13ZM20.64,22c.36-.78.77-1.57,1.21-2.33a25.9,25.9,0,0,1,1.4-2.21c.9-.08,1.74-.12,2.62-.12s1.76,0,2.62.11c.48.69.9,1.43,1.4,2.2A18.62,18.62,0,0,1,31.1,22c-.36.78-.76,1.56-1.2,2.31a26.27,26.27,0,0,1-1.4,2.23c-.9.07-1.74.11-2.63.11s-1.75-.09-2.61-.09c-.49-.7-.91-1.43-1.4-2.21S21.06,22.8,20.64,22ZM31.05,25c.27-.46.51-.91.75-1.4.32.78.58,1.56.81,2.32-.77.18-1.56.34-2.4.46C30.47,25.9,30.76,25.43,31.05,25Zm0-5.93-.84-1.36c.82.13,1.62.28,2.38.46a24.09,24.09,0,0,1-.79,2.3C31.54,20,31.29,19.49,31.05,19ZM27.5,16.11H24.28c.5-.63,1-1.24,1.6-1.82a23,23,0,0,1,1.59,1.82Zm-8.08-5.32a1.27,1.27,0,0,1,.67-.15h0c1.2,0,3,1,4.87,2.73a27.56,27.56,0,0,0-2.39,2.89,27.28,27.28,0,0,0-3.7.65,12.21,12.21,0,0,1-.3-1.69c-.3-2.26,0-4,.82-4.43ZM17.93,25.54c-.58-.18-1.13-.38-1.63-.59-2.06-.88-3.41-2-3.41-2.91s1.32-2.07,3.38-2.95c.5-.21,1.05-.4,1.61-.59A31.52,31.52,0,0,0,19.24,22,25.37,25.37,0,0,0,17.93,25.54Zm2.15,7.86a1.26,1.26,0,0,1-.66-.15c-.79-.45-1.13-2.18-.9-4.39a15.84,15.84,0,0,1,.29-1.72,25.63,25.63,0,0,0,3.69.63,25.93,25.93,0,0,0,2.42,2.91C23.06,32.44,21.29,33.4,20.08,33.4Zm5.81-3.63a24,24,0,0,1-1.62-1.86c.52,0,1.06.05,1.6.05s1.08,0,1.62-.05c-.51.63-1,1.24-1.6,1.82Zm6.46,3.46a1.37,1.37,0,0,1-.66.16c-1.21,0-3-.91-4.88-2.73a27.84,27.84,0,0,0,2.42-2.89,25.79,25.79,0,0,0,3.7-.64c.12.59.23,1.15.29,1.69.26,2.22-.08,4-.9,4.4ZM35.44,25c-.5.21-1,.4-1.61.58a26.68,26.68,0,0,0-1.3-3.5,29.76,29.76,0,0,0,1.28-3.53c.58.19,1.13.38,1.64.59,2,.91,3.39,2,3.39,2.95s-1.34,2-3.4,2.9Z"/><g id="java_script" data-name="java script"><path class="cls-5" d="M92.23,20.89H89.61v7.64a10.26,10.26,0,0,1-.19,2.21v-.06c-.37.78-1.35.68-1.78.54a2.26,2.26,0,0,1-1-1h0a1.14,1.14,0,0,0-.15-.23h0l-2.09,1.24A4.07,4.07,0,0,0,86,33h0a5.08,5.08,0,0,0,2.42.61,4.83,4.83,0,0,0,1.25-.17h0a3.18,3.18,0,0,0,2.06-1.59h0A7.94,7.94,0,0,0,92.23,29,6.19,6.19,0,0,0,92.15,28h0V20.91Zm10.27,8.28c-.2-1.25-1-2.3-3.43-3.29-.85-.38-1.78-.66-2.06-1.25a1.32,1.32,0,0,1-.09-.48,1.93,1.93,0,0,1,0-.34h0a1.35,1.35,0,0,1,1.76-.75h0a1.88,1.88,0,0,1,1.11,1h0c1.19-.77,1.19-.77,2-1.25a4.83,4.83,0,0,0-.67-.89h0a3.79,3.79,0,0,0-2.8-1.25h-.46l-.8.1a3.75,3.75,0,0,0-2,1.15h0a3.58,3.58,0,0,0,.58,5l0,0h0c1.56,1.16,3.84,1.43,4.14,2.5.28,1.34-1,1.76-2.25,1.61a3,3,0,0,1-2-1.51h0l-2.15,1.27a4.76,4.76,0,0,0,.92,1.25h0c2,2,7,1.91,7.87-1.15a4.14,4.14,0,0,0,.16-1.11,3.57,3.57,0,0,0-.09-.8h0ZM81.92,8.27H100a4.68,4.68,0,0,1,4.68,4.67V31.05A4.67,4.67,0,0,1,100,35.73H81.92a4.68,4.68,0,0,1-4.67-4.68V12.94A4.68,4.68,0,0,1,81.92,8.27Z"/></g></g></g></svg>