<svg xmlns="http://www.w3.org/2000/svg" xmlns:xlink="http://www.w3.org/1999/xlink" viewBox="0 0 117 44"><defs><style>.cls-1{fill:none;}.cls-2{fill:#092f5c;}.cls-3{clip-path:url(#clip-path);}.cls-4{fill:#fff;}.cls-5{clip-path:url(#clip-path-2);}</style><clipPath id="clip-path"><rect class="cls-1" x="46.5" y="10" width="24" height="24"/></clipPath><clipPath id="clip-path-2"><rect class="cls-1" x="76.68" y="7.75" width="28.65" height="28.65"/></clipPath></defs><title>vue-laravel</title><g id="Layer_2" data-name="Layer 2"><g id="bg-plus"><g id="Layer_3" data-name="Layer 3"><path class="cls-2" d="M22,0H95a22,22,0,0,1,22,22h0A22,22,0,0,1,95,44H22A22,22,0,0,1,0,22H0A22,22,0,0,1,22,0Z"/></g><g id="plus"><g class="cls-3"><path class="cls-4" d="M58.5,13a1,1,0,0,0-1,1v7h-7a1,1,0,0,0,0,2h7v7a1,1,0,0,0,2,0V23h7a1,1,0,0,0,0-2h-7V14A1,1,0,0,0,58.5,13Z"/></g></g></g><g id="vue-laravel"><path class="cls-4" d="M32.55,9.72H30.18a1.33,1.33,0,0,0-1.11.6l-3.17,4.9-3.17-4.9a1.36,1.36,0,0,0-1.12-.6H13a1.32,1.32,0,0,0-1.33,1.33,1.29,1.29,0,0,0,.18.67L24.75,33.63a1.34,1.34,0,0,0,1.82.47,1.32,1.32,0,0,0,.47-.47L39.9,11.72a1.33,1.33,0,0,0-.47-1.82,1.36,1.36,0,0,0-.68-.18ZM18.47,12.38,25.9,25.1l7.42-12.72h3.11L25.9,30.32,15.36,12.38Z"/><g id="laravel"><g class="cls-5"><path class="cls-4" d="M88.31,29l9.84-5.47L93.68,21l-9.86,5.51Zm10.3-11.2-4.48-2.51v5l4.48,2.51Zm.45-5.77-4.48,2.5,4.48,2.51,4.47-2.51ZM85.25,24.76l2.62-1.46v-11l-4.48,2.56V25.82ZM82.92,9.08,78.44,11.6l4.48,2.51,4.47-2.51Zm-5,3.27V29.28l9.84,5.53v-5L82.65,27h-.09v0h0v-.05h0v-.05h0v0h0a.06.06,0,0,1,0-.06h0V14.91L80,13.45ZM98.61,29.28v-5l-9.85,5.48v5Zm5.37-9v-5L99.5,17.83v5Zm.9-5.85v.12h0v6a.41.41,0,0,1-.23.37h0L99.5,23.81v5.72a.43.43,0,0,1-.22.38h0l-10.74,6h-.4l-10.74-6a.44.44,0,0,1-.22-.39h0V11.62a.24.24,0,0,1,0-.12h0v-.07h0l-.06-.1h.09l5.38-3a.51.51,0,0,1,.22-.05.54.54,0,0,1,.22.05h0l5.37,3h.1v.05h0v.06h0a.2.2,0,0,1,0,.11h0V22.8l4.74-2.52V14.55h0a.21.21,0,0,1,0-.11h0v-.07h0v0h.1l5.37-3a.51.51,0,0,1,.45,0h0l5.37,3h0v0h0v.07h0Z"/></g></g></g></g></svg>