<svg xmlns="http://www.w3.org/2000/svg" xmlns:xlink="http://www.w3.org/1999/xlink" viewBox="0 0 117 44"><defs><style>.cls-1{fill:none;}.cls-2{fill:#092f5c;}.cls-3{clip-path:url(#clip-path);}.cls-4{fill:#fff;}</style><clipPath id="clip-path"><rect class="cls-1" x="46.5" y="10" width="24" height="24"/></clipPath></defs><title>vue-php</title><g id="Layer_2" data-name="Layer 2"><g id="bg-plus"><g id="Layer_3" data-name="Layer 3"><path class="cls-2" d="M22,0H95a22,22,0,0,1,22,22h0A22,22,0,0,1,95,44H22A22,22,0,0,1,0,22H0A22,22,0,0,1,22,0Z"/></g><g id="plus"><g class="cls-3"><path class="cls-4" d="M58.5,13a1,1,0,0,0-1,1v7h-7a1,1,0,0,0,0,2h7v7a1,1,0,0,0,2,0V23h7a1,1,0,0,0,0-2h-7V14A1,1,0,0,0,58.5,13Z"/></g></g></g><g id="vue-php"><path id="php" class="cls-4" d="M84.52,19.68H83.31l-.67,3.42h1.08a2.69,2.69,0,0,0,1.61-.4A2.23,2.23,0,0,0,86,21.34a1.52,1.52,0,0,0-.16-1.28A1.86,1.86,0,0,0,84.52,19.68ZM91,13.85c-8.56,0-15.5,3.65-15.5,8.15s6.94,8.15,15.5,8.15,15.5-3.65,15.5-8.15S99.53,13.85,91,13.85Zm-4.21,9.62a3.15,3.15,0,0,1-1.19.71,5.48,5.48,0,0,1-1.66.21H82.39L82,26.57H80.19l1.59-8.18H85.2a2.79,2.79,0,0,1,2.25.82,2.57,2.57,0,0,1,.43,2.26,3.86,3.86,0,0,1-.4,1.09A3.53,3.53,0,0,1,86.76,23.47Zm5.2.92.7-3.61a1,1,0,0,0-.09-.84,1.24,1.24,0,0,0-.89-.23H90.27l-.91,4.69H87.6l1.58-8.18H91l-.42,2.18H92.1a3.17,3.17,0,0,1,2.05.51,1.71,1.71,0,0,1,.32,1.68l-.74,3.8Zm9.81-2.92a3.56,3.56,0,0,1-.39,1.09,3.79,3.79,0,0,1-.73.91,3.24,3.24,0,0,1-1.18.71,5.82,5.82,0,0,1-1.66.21H96.28l-.42,2.18H94.08l1.59-8.17h3.42a2.82,2.82,0,0,1,2.25.81A2.57,2.57,0,0,1,101.77,21.47Zm-3.3-1.79H97.2l-.67,3.42h1.09a2.66,2.66,0,0,0,1.6-.4,2.16,2.16,0,0,0,.71-1.36,1.52,1.52,0,0,0-.16-1.28A1.81,1.81,0,0,0,98.47,19.68Z"/><path class="cls-4" d="M32.55,9.72H30.18a1.33,1.33,0,0,0-1.11.6l-3.17,4.9-3.17-4.9a1.36,1.36,0,0,0-1.12-.6H13a1.32,1.32,0,0,0-1.33,1.33,1.29,1.29,0,0,0,.18.67L24.75,33.63a1.34,1.34,0,0,0,1.82.47,1.32,1.32,0,0,0,.47-.47L39.9,11.72a1.33,1.33,0,0,0-.47-1.82,1.36,1.36,0,0,0-.68-.18ZM18.47,12.38,25.9,25.1l7.42-12.72h3.11L25.9,30.32,15.36,12.38Z"/></g></g></svg>