<?xml version="1.0" encoding="UTF-8"?>
<svg id="Layer_2" xmlns="http://www.w3.org/2000/svg" xmlns:xlink="http://www.w3.org/1999/xlink" viewBox="0 0 40 40">
  <defs>
    <style>
      .cls-1 {
        fill: none;
      }

      .cls-2 {
        fill: #f26128;
      }

      .cls-3 {
        clip-path: url(#clippath);
      }
    </style>
    <clipPath id="clippath">
      <rect class="cls-1" width="40" height="40"/>
    </clipPath>
  </defs>
  <g id="Layer_1-2" data-name="Layer_1">
    <g class="cls-3">
      <path class="cls-2" d="M39.9,29.57c-.15-.44-.46-.81-.87-1.04l-9.69-5.59c.24-.65-.02-1.37-.61-1.72l-.4-.23.97-1.69c.16.05.33.08.5.08.92,0,1.66-.74,1.66-1.66,0-.59-.32-1.14-.83-1.44l-2.64-1.52V2.48c0-.26-.21-.48-.48-.48H5.47c-.13,0-.25.05-.34.14L.14,7.13C.05,7.22,0,7.34,0,7.47v30.04c0,.26.21.48.48.48h27.05c.26,0,.48-.21.48-.48h0v-11.51l9.37,5.41c.3.17.63.27.98.27.12,0,.24-.01.36-.03.85-.15,1.42-.95,1.27-1.8-.02-.09-.04-.19-.07-.28ZM28.26,22.05c.22.13.29.4.17.62l-1.43,2.48c-.13.22-.4.29-.62.17l-.4-.23,1.89-3.27.39.23ZM18.47,25.17l5.29,3.05c.34.19.45.63.26.96-.19.34-.63.45-.96.26l-5.29-3.05c-.34-.19-.45-.63-.26-.96.19-.34.63-.45.96-.26h0ZM23.71,27.09l-4.24-2.45,4.76-8.23,4.24,2.45-4.76,8.23ZM30.43,18.07c-.2.34-.63.45-.96.26l-5.29-3.05c-.34-.2-.45-.63-.26-.96.2-.34.63-.45.96-.26l5.28,3.05c.34.2.45.63.26.96ZM4.99,3.64v3.36H1.63l3.36-3.36ZM.96,37.04V7.95h4.51c.26,0,.48-.21.48-.48h0V2.96h21.11v11.24l-1.69-.98c-.8-.46-1.81-.18-2.27.61-.39.67-.25,1.53.32,2.05l-4.79,8.31c-.87-.28-1.81.19-2.09,1.07-.24.75.07,1.56.76,1.95l5.29,3.05c.79.46,1.81.19,2.27-.61.39-.68.26-1.53-.32-2.06l.97-1.69.4.23c.35.2.78.24,1.16.11v8.14c-.3-.18-.63-.27-.98-.27h-.42v-.98c0-1.07-.87-1.93-1.93-1.93h-7.49c-1.07,0-1.93.87-1.93,1.93v.98h-.42c-1.07,0-1.93.86-1.93,1.93v.98H.96ZM24.7,34.13h-9.44v-.98c0-.54.44-.98.98-.98h7.49c.54,0,.98.44.98.98v.98ZM12.91,36.06c0-.54.44-.98.98-.98h12.19c.54,0,.98.44.98.98v.98h-14.14v-.98ZM38.96,30.41c-.1.16-.26.27-.44.29-.23.04-.47,0-.67-.12l-9.67-5.58.7-1.22,9.67,5.58c.2.11.36.3.44.52.07.17.05.37-.03.53ZM9.83,7.36h13.62c.26,0,.48-.21.48-.48h0v-2.18c0-.26-.21-.48-.48-.48h-13.62c-.26,0-.48.21-.48.48h0v2.18c0,.26.21.48.48.48ZM10.3,5.18h12.67v1.22h-12.67v-1.22ZM3.54,11.1c0-.26.21-.48.48-.48h19.98c.26,0,.48.2.49.46,0,.26-.2.48-.46.49,0,0-.02,0-.03,0H4.01c-.26,0-.48-.21-.48-.48h0ZM3.54,15.11c0-.26.21-.48.48-.48h15.05c.26,0,.48.2.49.46s-.2.48-.46.49c0,0-.02,0-.03,0H4.01c-.26,0-.48-.21-.48-.48,0,0,0,0,0,0h0ZM3.54,19.13c0-.26.21-.48.48-.48h13.33c.26,0,.48.21.48.48s-.21.48-.48.48H4.01c-.26,0-.48-.21-.48-.48ZM3.54,23.14c0-.26.21-.48.48-.48h9.99c.26,0,.48.2.49.46s-.2.48-.46.49c0,0-.02,0-.03,0H4.01c-.26,0-.48-.21-.48-.48,0,0,0,0,0,0ZM3.54,27.16c0-.26.21-.48.48-.48h9.99c.26,0,.48.2.49.46,0,.26-.2.48-.46.49,0,0-.02,0-.03,0H4.01c-.26,0-.48-.21-.48-.48h0ZM11.7,31.18c0,.26-.21.48-.48.48h-7.21c-.26,0-.48-.21-.48-.48s.21-.48.48-.48h7.21c.26,0,.48.21.48.48h0Z"/>
    </g>
  </g>
</svg>