<?xml version="1.0" encoding="UTF-8"?>
<svg id="Layer_2" xmlns="http://www.w3.org/2000/svg" xmlns:xlink="http://www.w3.org/1999/xlink" viewBox="0 0 40 40">
  <defs>
    <style>
      .cls-1 {
        fill: none;
      }

      .cls-2 {
        fill: #f26128;
      }

      .cls-3 {
        clip-path: url(#clippath);
      }
    </style>
    <clipPath id="clippath">
      <rect class="cls-1" width="40" height="40"/>
    </clipPath>
  </defs>
  <g id="Layer_1-2" data-name="Layer_1">
    <g class="cls-3">
      <g>
        <path class="cls-2" d="M1.01,13.96l17.9,9.23c.34.17.71.26,1.09.26s.75-.09,1.09-.26l14.25-7.35c.1-.02.19-.07.27-.14l3.38-1.74c.63-.33,1.01-.9,1.01-1.54s-.38-1.22-1.01-1.54L21.09,1.64c-.67-.35-1.51-.35-2.18,0L1.01,10.87c-.63.33-1.01.9-1.01,1.54s.38,1.22,1.01,1.54ZM19.54,2.86c.27-.14.64-.14.92,0l17.9,9.23c.17.09.26.2.26.32s-.1.23-.26.32l-3.21,1.65L16.2,4.58l3.34-1.72ZM1.64,12.1l13.09-6.75s.07.07.12.1l18.79,9.72-13.19,6.8c-.27.14-.64.14-.92,0L1.64,12.73c-.17-.09-.26-.2-.26-.32s.1-.23.26-.32Z"/>
        <path class="cls-2" d="M38.99,18.46l-2.54-1.31c-.34-.18-.75-.04-.93.3-.17.34-.04.75.3.93l2.54,1.31c.17.09.27.21.27.32s-.1.23-.27.32l-3.2,1.65-4.02-2.08c-.34-.18-.75-.04-.93.3-.17.34-.04.75.3.93l3.15,1.63-13.19,6.81c-.27.14-.64.14-.91,0L1.65,20.32c-.17-.09-.27-.21-.27-.32s.1-.23.27-.32l2.54-1.31c.34-.17.47-.59.3-.93-.18-.34-.59-.47-.93-.3l-2.54,1.31c-.64.33-1.01.9-1.01,1.54s.38,1.22,1.01,1.54l17.9,9.23c.34.17.71.26,1.09.26s.75-.09,1.09-.26l14.29-7.37c.06-.02.13-.05.18-.09l3.43-1.77c.64-.33,1.01-.91,1.01-1.54s-.38-1.22-1.01-1.54Z"/>
        <path class="cls-2" d="M38.99,26.04l-2.54-1.31c-.34-.17-.75-.04-.93.3-.17.34-.04.75.3.93l2.54,1.31c.17.09.27.21.27.32s-.1.23-.27.32l-3.2,1.65-4.02-2.08c-.34-.18-.75-.04-.93.3-.17.34-.04.75.3.93l3.15,1.63-13.19,6.81c-.27.14-.64.14-.91,0L1.65,27.9c-.17-.09-.27-.21-.27-.32s.1-.23.27-.32l2.54-1.31c.34-.17.47-.59.3-.93-.18-.34-.59-.47-.93-.3l-2.54,1.31c-.64.33-1.01.9-1.01,1.54s.38,1.22,1.01,1.54l17.9,9.23c.34.17.71.26,1.09.26s.75-.09,1.09-.26l14.28-7.37c.06-.02.13-.05.18-.09l3.43-1.77c.64-.33,1.01-.91,1.01-1.54s-.38-1.22-1.01-1.54Z"/>
        <path class="cls-2" d="M20.2,5.32s.07.06.1.08c.04.03.08.05.12.06.04.02.08.03.13.04.04,0,.09.01.13.01.18,0,.36-.08.49-.2.06-.07.11-.14.14-.23s.06-.17.06-.26c0-.18-.08-.36-.2-.49-.26-.26-.72-.26-.98,0-.03.03-.06.07-.08.1-.03.04-.05.08-.06.12-.02.04-.03.08-.04.12,0,.05-.01.09-.01.14,0,.09.01.18.06.26.03.08.08.16.14.23Z"/>
        <path class="cls-2" d="M23.06,6.78s.08.05.12.06c.04.02.08.03.12.04.05,0,.09.01.14.01.04,0,.09,0,.13-.01.05,0,.09-.02.13-.04.04-.01.08-.03.12-.06.04-.03.08-.05.11-.08.12-.13.2-.31.2-.49,0-.09-.02-.18-.06-.26-.03-.09-.08-.16-.14-.23-.03-.03-.07-.06-.11-.08-.03-.03-.08-.05-.12-.06-.04-.02-.08-.03-.13-.04-.08-.02-.18-.02-.27,0-.04,0-.08.02-.12.04-.04.01-.08.03-.12.06-.03.02-.07.06-.1.08-.06.07-.11.14-.14.23-.03.08-.06.17-.06.26,0,.19.08.36.2.49.03.03.07.06.1.08Z"/>
        <path class="cls-2" d="M10.09,13.74c.08.03.17.05.26.05.27,0,.53-.16.64-.43l1.21-3.01h3.67c.38,0,.69-.31.69-.69s-.31-.69-.69-.69h-4.14c-.28,0-.54.17-.64.43l-1.38,3.45c-.14.35.03.75.38.9Z"/>
        <path class="cls-2" d="M15.18,15.76c-.05.38.21.73.59.78l4.83.69s.07,0,.1,0c.17,0,.33-.06.45-.17.15-.13.24-.32.24-.52v-3.45c0-.38-.31-.69-.69-.69s-.69.31-.69.69v2.65l-4.04-.58c-.38-.05-.73.21-.78.58Z"/>
        <path class="cls-2" d="M12.45,14.01c.1.29.37.47.65.47.07,0,.15-.01.22-.04l4.14-1.38c.36-.12.56-.51.44-.87-.12-.36-.51-.56-.87-.44l-4.14,1.38c-.36.12-.56.51-.44.87Z"/>
      </g>
    </g>
  </g>
</svg>