<svg id="Advertisement_Management" data-name="Advertisement Management" xmlns="http://www.w3.org/2000/svg" xmlns:xlink="http://www.w3.org/1999/xlink" viewBox="0 0 120.01 120"><defs><style>.cls-1{fill:none;}.cls-2{clip-path:url(#clip-path);}.cls-3{fill:#ce3544;}</style><clipPath id="clip-path" transform="translate(-38)"><rect class="cls-1" width="196" height="120"/></clipPath></defs><g class="cls-2"><path class="cls-3" d="M88,98a2,2,0,0,1-2,2H83a6,6,0,0,1-5.76-4.35l-1.59-5.53a42.13,42.13,0,0,1-7.32-3l-5,2.79a6,6,0,0,1-7.15-1l-7.05-7a6,6,0,0,1-1-7.15l2.78-5a42.19,42.19,0,0,1-3-7.33l-5.53-1.58A6,6,0,0,1,38,55V45a6,6,0,0,1,4.35-5.77l5.53-1.58a42.19,42.19,0,0,1,3-7.33l-2.78-5a6,6,0,0,1,1-7.16l7.05-7.05a6,6,0,0,1,7.15-1l5,2.79a42.13,42.13,0,0,1,7.32-3l1.59-5.53A6,6,0,0,1,83,0H93a6,6,0,0,1,5.77,4.35l1.58,5.53a42.13,42.13,0,0,1,7.32,3l5-2.79a6,6,0,0,1,7.16,1l7,7.05a6,6,0,0,1,1,7.15l-2.79,5a41.42,41.42,0,0,1,3,7.33l5.54,1.58A6,6,0,0,1,138,45v1a2,2,0,0,1-4,0V45a2,2,0,0,0-1.45-1.93L126,41.21a2,2,0,0,1-1.37-1.39,38,38,0,0,0-3.51-8.5,2,2,0,0,1,0-2l3.32-6a2,2,0,0,0-.33-2.38l-7-7a2,2,0,0,0-2.39-.33l-6,3.32a2,2,0,0,1-1.95,0,38,38,0,0,0-8.5-3.51A2,2,0,0,1,96.79,12L94.9,5.45A2,2,0,0,0,93,4H83a2,2,0,0,0-1.92,1.45L79.21,12a2,2,0,0,1-1.39,1.38,37.8,37.8,0,0,0-8.5,3.51,2,2,0,0,1-2,0l-6-3.32A2,2,0,0,0,59,14L52,21a2,2,0,0,0-.34,2.38l3.33,6a2,2,0,0,1,0,2,38,38,0,0,0-3.51,8.5A2,2,0,0,1,50,41.21l-6.59,1.88A2,2,0,0,0,42,45V55a2,2,0,0,0,1.45,1.93L50,58.79a2,2,0,0,1,1.38,1.39,38,38,0,0,0,3.51,8.5,2,2,0,0,1,0,2l-3.33,6A2,2,0,0,0,52,79l7,7a2,2,0,0,0,2.39.33l6-3.32a2,2,0,0,1,2,0,37.8,37.8,0,0,0,8.5,3.51A2,2,0,0,1,79.21,88l1.88,6.59A2,2,0,0,0,83,96h3A2,2,0,0,1,88,98Zm22-38.18a2,2,0,0,0,2.55-1.22h0A26,26,0,1,0,76.8,73.44a2,2,0,0,0,1.72-3.61,22,22,0,1,1,30.22-12.56A2,2,0,0,0,110,59.82ZM142,80a8,8,0,0,1-8,8v18a2,2,0,0,1-3.79.89C130,106.46,124.47,96,108.89,96H108v16a8,8,0,0,1-16,0V94.82A16,16,0,0,1,98,64h10.89c15.58,0,21.09-10.46,21.32-10.9A2,2,0,0,1,134,54V72A8,8,0,0,1,142,80ZM98,92h6V68H98a12,12,0,0,0,0,24Zm6,4H98a14.83,14.83,0,0,1-2-.14V112a4,4,0,0,0,8,0Zm26-36.13A28.77,28.77,0,0,1,108.89,68H108V92h.89A28.77,28.77,0,0,1,130,100.13ZM138,80a4,4,0,0,0-4-4v8A4,4,0,0,0,138,80Zm10,2h8a2,2,0,0,0,0-4h-8a2,2,0,0,0,0,4Zm0-10a2,2,0,0,0,.89-.21l8-4a2,2,0,0,0-1.79-3.58l-8,4A2,2,0,0,0,148,72Zm8.89,20.21-8-4a2,2,0,0,0-1.79,3.58l8,4a2,2,0,1,0,1.8-3.57Z" transform="translate(-38)"/></g></svg>