<svg id="Analytics_Dashboard" data-name="Analytics Dashboard" xmlns="http://www.w3.org/2000/svg" xmlns:xlink="http://www.w3.org/1999/xlink" viewBox="0 0 120 120"><defs><style>.cls-1{fill:none;}.cls-2{clip-path:url(#clip-path);}.cls-3{fill:#ce3544;}</style><clipPath id="clip-path" transform="translate(-38)"><rect class="cls-1" width="196" height="120"/></clipPath></defs><g class="cls-2"><path class="cls-3" d="M158,117a3,3,0,0,1-3,3H41a3,3,0,0,1-3-3V3a3,3,0,0,1,6,0V114H155A3,3,0,0,1,158,117Zm-3-88.5H137a3,3,0,0,0,0,6h10.75L113,69.25,92.61,48.89a3,3,0,0,0-4.22,0L50.89,86.38a3,3,0,0,0,3.9,4.56,2.5,2.5,0,0,0,.32-.33L90.5,55.25l20.39,20.36a3,3,0,0,0,4.22,0L152,38.75V49.5a3,3,0,0,0,6,0v-18A3,3,0,0,0,155,28.5Z" transform="translate(-38)"/></g></svg>