<svg id="Event_Management" data-name="Event Management" xmlns="http://www.w3.org/2000/svg" xmlns:xlink="http://www.w3.org/1999/xlink" viewBox="0 0 115.24 120"><defs><style>.cls-1{fill:none;}.cls-2{clip-path:url(#clip-path);}.cls-3{fill:#ce3544;}</style><clipPath id="clip-path" transform="translate(-40.38)"><rect class="cls-1" width="196" height="120"/></clipPath></defs><g class="cls-2"><path class="cls-3" d="M49.92,120h96.16a9.56,9.56,0,0,0,9.54-9.53V18a9.54,9.54,0,0,0-9.54-9.51H133.64v-3a5.51,5.51,0,1,0-11,0v3H103.41v-3a5.5,5.5,0,1,0-11,0v3H73.21v-3a5.51,5.51,0,0,0-11,0v3H49.94A9.55,9.55,0,0,0,40.38,18v92.46A9.56,9.56,0,0,0,49.92,120ZM125.1,5.51a3.06,3.06,0,1,1,6.12,0V23.39a3.06,3.06,0,0,1-6.12,0Zm-30.23,0a3.06,3.06,0,0,1,5.21-2.17A3.09,3.09,0,0,1,101,5.51V23.39a3.06,3.06,0,1,1-6.12,0V5.51Zm-30.23,0a3.06,3.06,0,0,1,5.2-2.17,3.16,3.16,0,0,1,.91,2.17V23.39a3.07,3.07,0,0,1-6.13,0V5.51ZM49.94,11H62.19V23.39a5.51,5.51,0,0,0,11,0V11H92.42V23.39a5.51,5.51,0,1,0,11,0h0V11h19.21V23.39a5.51,5.51,0,1,0,11,0h0V11h12.41A7.08,7.08,0,0,1,153.17,18V34.85H42.83V18A7.08,7.08,0,0,1,49.92,11ZM42.83,37.29H153.17v73.18a7.1,7.1,0,0,1-7.09,7.08H49.92a7.1,7.1,0,0,1-7.09-7.08Zm30.61,26,2.19,4.39a1.68,1.68,0,0,1-.89,2.15l-4.66,1.52a4,4,0,0,0-2.69,3.76V81.2A4,4,0,0,0,70.1,85l4.64,1.59a1.57,1.57,0,0,1,.92,2.09l-2.23,4.42a4,4,0,0,0,.74,4.58L78.52,102a4,4,0,0,0,4.58.74l4.39-2.2a1.47,1.47,0,0,1,1.23,0,1.53,1.53,0,0,1,.86.92l1.55,4.67a4,4,0,0,0,3.76,2.7H101a4,4,0,0,0,3.76-2.7l1.56-4.67a1.55,1.55,0,0,1,2.08-.92l4.38,2.2a4,4,0,0,0,4.59-.74l4.35-4.36a4,4,0,0,0,.73-4.58l-2.19-4.39a1.47,1.47,0,0,1,0-1.23,1.58,1.58,0,0,1,.92-.87L125.85,85a3.94,3.94,0,0,0,2.76-3.78V75.11a3.94,3.94,0,0,0-2.72-3.75l-4.63-1.56a1.48,1.48,0,0,1-.92-.86,1.52,1.52,0,0,1,0-1.22l2.2-4.38a4,4,0,0,0-.74-4.58l-4.36-4.36a3.94,3.94,0,0,0-4.56-.74l-4.4,2.2a1.56,1.56,0,0,1-2.08-.92l-1.56-4.73a4,4,0,0,0-3.75-2.7H95a4,4,0,0,0-3.8,2.7L89.6,54.88a1.46,1.46,0,0,1-.86.91,1.38,1.38,0,0,1-1.22,0l-4.4-2.19a4,4,0,0,0-4.58.74L74.19,58.7a4,4,0,0,0-.76,4.56Zm2.45-2.84,4.34-4.36A1.54,1.54,0,0,1,82,55.78L86.38,58a4,4,0,0,0,5.3-1.8c.07-.15.14-.32.2-.49L93.43,51a1.53,1.53,0,0,1,1.44-1H101a1.52,1.52,0,0,1,1.43,1l1.7,4.66a4,4,0,0,0,2.25,2.45,3.94,3.94,0,0,0,3.29-.12l4.39-2.19a1.5,1.5,0,0,1,1.75.28l4.35,4.35a1.5,1.5,0,0,1,.28,1.75l-2.19,4.39A4,4,0,0,0,120,71.91a4.4,4.4,0,0,0,.5.21l4.66,1.55a1.54,1.54,0,0,1,1,1.41V81.2a1.51,1.51,0,0,1-1,1.44l-4.67,1.56a4,4,0,0,0-2.51,5,3.54,3.54,0,0,0,.23.53l2.19,4.4a1.52,1.52,0,0,1-.28,1.75l-4.33,4.38a1.47,1.47,0,0,1-1.75.28l-4.39-2.19a4,4,0,0,0-5.54,2.33l-1.55,4.63a1.54,1.54,0,0,1-1.43,1H95a1.53,1.53,0,0,1-1.48-1l-1.6-4.67a4,4,0,0,0-2.24-2.45A4.12,4.12,0,0,0,88.21,98a3.92,3.92,0,0,0-1.78.42L82,100.57a1.49,1.49,0,0,1-1.75-.28L76,95.9a1.49,1.49,0,0,1-.28-1.73l2.2-4.4a4,4,0,0,0-2.33-5.53l-4.68-1.56a1.52,1.52,0,0,1-1-1.44V75.11a1.52,1.52,0,0,1,1-1.44l4.66-1.55A3.91,3.91,0,0,0,78,69.87a4,4,0,0,0-.12-3.28L75.67,62.2A1.5,1.5,0,0,1,76,60.42ZM98,91.74A13.59,13.59,0,1,0,84.41,78.15h0A13.58,13.58,0,0,0,98,91.74ZM98,67A11.15,11.15,0,1,1,86.86,78.16h0A11.14,11.14,0,0,1,98,67ZM50,44.63a1.23,1.23,0,0,1,1.22-1.23H73.51a1.23,1.23,0,1,1,0,2.45H51.24A1.22,1.22,0,0,1,50,44.63Zm16.49,8.74h-3a1.23,1.23,0,0,1,0-2.45h3a1.23,1.23,0,0,1,0,2.45ZM50,52.15a1.23,1.23,0,0,1,1.22-1.23h7.15a1.23,1.23,0,1,1,0,2.45H51.24A1.22,1.22,0,0,1,50,52.15Z" transform="translate(-40.38)"/></g></svg>