<svg id="Content_Moderation" data-name="Content Moderation" xmlns="http://www.w3.org/2000/svg" xmlns:xlink="http://www.w3.org/1999/xlink" viewBox="0 0 87.35 120"><defs><style>.cls-1{fill:none;}.cls-2{clip-path:url(#clip-path);}.cls-3{fill:#ce3544;}</style><clipPath id="clip-path" transform="translate(-54.33)"><rect class="cls-1" width="196" height="120"/></clipPath></defs><g class="cls-2"><path class="cls-3" d="M138.54,32.4,109.24,3.11A10.49,10.49,0,0,0,101.75,0H63.5a9.18,9.18,0,0,0-9.17,9.18V110.82A9.18,9.18,0,0,0,63.5,120h69a9.18,9.18,0,0,0,9.17-9.18V40a10.63,10.63,0,0,0-3.13-7.58Zm-4.31,1.87H112.38a5,5,0,0,1-5-5V7.45Zm3.08,76.55a4.81,4.81,0,0,1-4.81,4.81h-69a4.81,4.81,0,0,1-4.81-4.81V9.18A4.81,4.81,0,0,1,63.5,4.37h38.25a5.75,5.75,0,0,1,1.3.14V29.3a9.33,9.33,0,0,0,9.33,9.33h24.78a6.21,6.21,0,0,1,.15,1.35Z" transform="translate(-54.33)"/><path class="cls-3" d="M129.35,50.08H69.92a2.19,2.19,0,0,0,0,4.37h59.43a2.19,2.19,0,1,0,0-4.37Z" transform="translate(-54.33)"/><path class="cls-3" d="M129.35,70.79H69.92a2.19,2.19,0,0,0,0,4.37h59.43a2.19,2.19,0,0,0,0-4.37Z" transform="translate(-54.33)"/><path class="cls-3" d="M129.35,91.37H69.92a2.19,2.19,0,0,0,0,4.37h59.43a2.19,2.19,0,1,0,0-4.37Z" transform="translate(-54.33)"/></g></svg>