<svg id="Push_Notifications" data-name="Push Notifications" xmlns="http://www.w3.org/2000/svg" xmlns:xlink="http://www.w3.org/1999/xlink" viewBox="0 0 112.96 120"><defs><style>.cls-1{fill:none;}.cls-2{clip-path:url(#clip-path);}.cls-3{fill:#ce3544;}</style><clipPath id="clip-path" transform="translate(-41.52 0)"><rect class="cls-1" width="196" height="120"/></clipPath></defs><g class="cls-2"><path class="cls-3" d="M111.39,15.52l-1.79,4.36a1.58,1.58,0,0,0,.83,2,35.44,35.44,0,0,1,20.48,30.36,1.57,1.57,0,0,0,1.57,1.52l4.72,0a1.58,1.58,0,0,0,1.57-1.62,43.32,43.32,0,0,0-25.29-37.48A1.57,1.57,0,0,0,111.39,15.52Z" transform="translate(-41.52 0)"/><path class="cls-3" d="M117.35,1l-1.78,4.35a1.57,1.57,0,0,0,.83,2,51.2,51.2,0,0,1,30.23,44.81,1.57,1.57,0,0,0,1.57,1.53l4.7,0a1.58,1.58,0,0,0,1.58-1.61,59.06,59.06,0,0,0-35-51.94A1.59,1.59,0,0,0,117.35,1Z" transform="translate(-41.52 0)"/><path class="cls-3" d="M132.88,85l-8.29-8.52V60.73A36.89,36.89,0,0,0,101.33,26a13.84,13.84,0,0,0-27.1,0A36.89,36.89,0,0,0,51,60.73V76.52L42.67,85a4,4,0,0,0-1.15,2.82v12a3.91,3.91,0,0,0,3.91,3.91h26.1a16.25,16.25,0,0,0,32.49,0h26.1A3.91,3.91,0,0,0,134,99.87v-12A4,4,0,0,0,132.88,85Zm-45.1,27.15c-4.63,0-8.41-4.36-8.43-8.4H96.2C96.18,107.82,92.4,112.18,87.78,112.18ZM126.21,96H49.34V89.39l9.44-9.7v-19c0-14.26,9.44-26,22.93-28.83V29.13a6.07,6.07,0,1,1,12.13,0V31.9c13.49,2.86,22.93,14.57,22.93,28.83v19l9.44,9.69Z" transform="translate(-41.52 0)"/></g></svg>