<svg id="Security_Management" data-name="Security Management" xmlns="http://www.w3.org/2000/svg" xmlns:xlink="http://www.w3.org/1999/xlink" viewBox="0 0 120.06 120"><defs><style>.cls-1{fill:none;}.cls-2{clip-path:url(#clip-path);}.cls-3{fill:#ce3544;}</style><clipPath id="clip-path" transform="translate(-37.97)"><rect class="cls-1" width="196" height="120"/></clipPath></defs><g class="cls-2"><path class="cls-3" d="M98,21.26A38.75,38.75,0,1,0,136.79,60,38.79,38.79,0,0,0,98,21.26Zm0,73.86A35.12,35.12,0,1,1,133.15,60,35.14,35.14,0,0,1,98,95.12Z" transform="translate(-37.97)"/><path class="cls-3" d="M112.57,56.37h-3.64V49.1a10.91,10.91,0,0,0-21.82,0v7.27c-1.58.24-5.46-.91-5.46,1.82V80a1.83,1.83,0,0,0,1.82,1.82c26.55-.69,30.92,1.6,30.92-1.82V58.19A1.81,1.81,0,0,0,112.57,56.37ZM90.75,49.1a7.27,7.27,0,1,1,14.54,0v7.27H90.75Zm20,29.09H85.29V60h25.46Z" transform="translate(-37.97)"/><path class="cls-3" d="M98,65.54c-2.69,0-1.58,3.74-1.82,5.33a1.82,1.82,0,0,0,3.64,0V67.36A1.8,1.8,0,0,0,98,65.54Z" transform="translate(-37.97)"/><path class="cls-3" d="M147.26,46.17,142.63,35c3.31-7.78,5.58-9.66,4-11.24L134.3,11.4a1.83,1.83,0,0,0-2.07-.36l-9.17,4.36-11.2-4.63C108.69,2.93,109,0,106.75,0H89.31c-2.24,0-1.8,2.55-5.11,10.77L73,15.4c-7.78-3.31-9.66-5.58-11.24-4-11.42,12-13.67,12.31-12.69,14.4L53.43,35l-4.64,11.2-9.56,3.4c-2.16.76-.78,2.4-1.22,19.15a1.83,1.83,0,0,0,1.22,1.71l9.56,3.4L53.43,85c-3.31,7.78-5.58,9.66-4,11.24,12.09,11.49,12.31,13.67,14.4,12.69L73,104.6l11.2,4.63c3.16,7.84,2.87,10.77,5.11,10.77h17.44c2.24,0,1.8-2.55,5.11-10.77l11.2-4.63c7.89,3.34,9.66,5.56,11.24,4C145.72,96.58,148,96.29,147,94.2L142.63,85l4.63-11.2C155.1,70.67,158,71,158,68.72V51.28C158,49,155.5,49.5,147.26,46.17Zm7.13,21.28c-8.91,3.36-9.64,2.94-10.18,4.25-7.31,18.4-6.49,9.73-1.07,22.91l-10.51,10.52c-13.12-5.37-4.41-6.28-22.92,1.07-1.31.54-.89,1.31-4.25,10.18H90.58c-5.53-14.6.09-7.22-17-15.44-1.3-.54-1.54.29-10.22,4.19L52.9,94.61c3.91-8.67,4.73-8.91,4.19-10.22-7.84-18.16-2.28-11.47-15.44-16.94V52.57c8.89-3.36,9.64-2.94,10.18-4.25,5.15-13,5.84-12.88,5.22-14.17L52.9,25.42,63.41,14.91c14.24,6.42,5,5.17,22.92-1.07,1.31-.55.89-1.31,4.25-10.18h14.88c5.53,14.6-.09,7.21,17,15.43,1.3.55,1.5-.27,10.22-4.18l10.51,10.51c-6.41,14.22-5.2,5,1.07,22.91a1.82,1.82,0,0,0,1.07,1l9.11,3.24Z" transform="translate(-37.97)"/></g></svg>