<svg id="Subscription_Management" data-name="Subscription Management" xmlns="http://www.w3.org/2000/svg" xmlns:xlink="http://www.w3.org/1999/xlink" viewBox="0 0 83.95 120"><defs><style>.cls-1{fill:none;}.cls-2{clip-path:url(#clip-path);}.cls-3{fill:#ce3544;}</style><clipPath id="clip-path" transform="translate(-56.03 0)"><rect class="cls-1" width="196" height="120"/></clipPath></defs><g class="cls-2"><path class="cls-3" d="M97.94,116.08,76.19,89.67a8.17,8.17,0,0,1-1.83-5.9,8,8,0,0,1,2.94-5.55,8.1,8.1,0,0,1,5.81-1.79,7.9,7.9,0,0,1,5.42,2.79l8.08,10V68.3c-1,.28-2,.52-3,.71a31.4,31.4,0,0,1-5.91.56H84.89l2.75,2.75a2,2,0,0,1-2.81,2.83L78.66,69a2,2,0,0,1,0-2.82L84.82,60a2,2,0,0,1,2.83,2.82L84.9,65.57h2.83a28.19,28.19,0,0,0,5.18-.48,28.72,28.72,0,0,0,3.7-1V53a8.09,8.09,0,0,1,15.78-2.51,28.08,28.08,0,0,0,1.46-3.37A27.67,27.67,0,0,0,104,15.4a2,2,0,0,1,2.33-3.24,31.71,31.71,0,0,1,11.33,36.3,31.45,31.45,0,0,1-4.82,8.81V81.83l18.56,2.69a9.71,9.71,0,0,1,6.85,4.27,10,10,0,0,1,1.61,3.83,9.75,9.75,0,0,1-.13,4.12L136,111.68a10.83,10.83,0,0,1-10.6,8.32H106.32a11,11,0,0,1-4.66-1,10.7,10.7,0,0,1-3.72-2.92ZM90.63,15.74a2,2,0,0,1-2.83-2.83l2.76-2.75H87.73A27.7,27.7,0,0,0,71.51,60.33a2,2,0,1,1-2.34,3.24A31.71,31.71,0,0,1,87.73,6.16h2.84L87.8,3.4A2,2,0,1,1,90.63.59L96.8,6.75a2,2,0,0,1,0,2.83l-6.17,6.16Zm4.18,17a2,2,0,1,1-4,0,1.39,1.39,0,0,0-.67-1A4.05,4.05,0,0,0,87.73,31a4.12,4.12,0,0,0-2.41.7,1.4,1.4,0,0,0-.67,1.05,2.13,2.13,0,0,0,.83,1.35,13.1,13.1,0,0,0,3.11,2,16.91,16.91,0,0,1,4.08,2.6A5.81,5.81,0,0,1,94.81,43a5.29,5.29,0,0,1-2.31,4.26,7.65,7.65,0,0,1-2.77,1.26v1.25a2,2,0,1,1-4,0V48.47A7.47,7.47,0,0,1,83,47.22,5.29,5.29,0,0,1,80.65,43a2,2,0,0,1,4,0,1.38,1.38,0,0,0,.66,1,4.11,4.11,0,0,0,2.42.71A4.05,4.05,0,0,0,90.14,44a1.39,1.39,0,0,0,.67-1A2.11,2.11,0,0,0,90,41.61a13.23,13.23,0,0,0-3.1-2,16.79,16.79,0,0,1-4.09-2.6,5.82,5.82,0,0,1-2.13-4.29A5.29,5.29,0,0,1,83,28.51a7.78,7.78,0,0,1,2.78-1.26V26a2,2,0,0,1,4,0v1.25a7.65,7.65,0,0,1,2.77,1.26,5.27,5.27,0,0,1,2.31,4.26ZM79.27,87.14,101,113.54a6.58,6.58,0,0,0,2.33,1.83,6.9,6.9,0,0,0,3,.63h19.09a6.83,6.83,0,0,0,6.73-5.27l3.67-14.94a5.77,5.77,0,0,0,.08-2.44,6.07,6.07,0,0,0-1-2.31,5.94,5.94,0,0,0-1.77-1.73,5.84,5.84,0,0,0-2.34-.83l-20.17-2.93a2,2,0,0,1-1.83-2V53a4.09,4.09,0,0,0-8.18,0V94.83a2,2,0,0,1-.74,1.54,2,2,0,0,1-2.81-.29L85.47,81.79a3.92,3.92,0,0,0-2.69-1.38,4.21,4.21,0,0,0-3,.89,4,4,0,0,0-1.49,2.81,4.19,4.19,0,0,0,.93,3Z" transform="translate(-56.03 0)"/></g></svg>