<svg id="User_Management" data-name="User Management" xmlns="http://www.w3.org/2000/svg" xmlns:xlink="http://www.w3.org/1999/xlink" viewBox="0 0 119.98 120"><defs><style>.cls-1{fill:none;}.cls-2{clip-path:url(#clip-path);}.cls-3{fill:#ce3544;}</style><clipPath id="clip-path" transform="translate(-38.01)"><rect class="cls-1" width="196" height="120"/></clipPath></defs><g class="cls-2"><path class="cls-3" d="M153.7,50.63V69.41c0,.1-.11.67,0,.19a2.49,2.49,0,0,1-.16.55c.16-.45-.07.1-.11.15-.21.46.26-.2-.11.16l-.26.26c-.36.35.3-.12-.16.1-.05,0-.61.27-.15.11l-.54.16c.38-.09-.09,0-.26,0-1.54,0-3.08,0-4.62,0a9.24,9.24,0,0,0-7.19,3.36,9.67,9.67,0,0,0-1.95,8.08,11.17,11.17,0,0,0,3.5,5.49l2.05,2c.08.08.16.15.23.23s.33.37.19.17c.08.12.17.27.24.4-.16-.3.1.34.1.34.14.49.07-.17,0,.32,0,.08-.09.62,0,.28A1.89,1.89,0,0,1,143.8,93l-1.07,1.06L139,97.82l-7.69,7.7c-.17.17-.37.34-.53.52s-.38.36-.15.15-.18.1-.22.12c-.27.2-.14.1,0,0-.17.07-.37.11-.56.17-.5.15.33,0-.18,0-.07,0-.69-.07-.19,0l-.37-.09a1.82,1.82,0,0,1-.37-.13c.21.09.21.07,0,0-.05,0-.52-.41-.22-.13l-.15-.14-.17-.17-.9-.9-2-2a9.62,9.62,0,0,0-6.66-3,9.46,9.46,0,0,0-7.26,3.18,10,10,0,0,0-2.3,6.75V114c0,.1-.12.67,0,.2a4.26,4.26,0,0,1-.16.54c.16-.44-.07.1-.11.16-.22.46.25-.2-.1.16-.13.12-.26.27-.4.38.1-.07.3-.16,0,0,0,0-.59.27-.15.11-.19.07-.36.11-.54.16.44-.12-.1,0-.22,0H88.6c-.1,0-.67-.12-.21,0l-.37-.1c-.23-.09-.24-.09,0,0l-.32-.17c-.46-.21.2.26-.16-.11l-.26-.26c-.35-.36.12.3-.11-.16,0-.05-.27-.61-.12-.15,0-.16-.08-.3-.12-.46-.09-.33,0,.49,0-.1v-3c0-2.25,0-4.4-1.14-6.45a9.38,9.38,0,0,0-14.56-2.33c-1.18,1.09-2.26,2.27-3.4,3.39l-.17.18s-.31.28,0,0c-.1.09-.23.14-.33.22-.44.29.32-.05-.2.1a5.54,5.54,0,0,1-.55.14c.42-.07,0,0-.1,0h-.29c.26,0,.26,0,0,0a3.92,3.92,0,0,1-.55-.18c.37.16,0,0-.1-.08s-.39-.33-.13-.09-.11-.1-.16-.14a1.53,1.53,0,0,0-.18-.18l-2.65-2.65-8.48-8.48c-.65-.65-1.29-1.31-1.95-2-.11-.12-.23-.26-.11-.1a2.17,2.17,0,0,1-.33-.57c.14.36-.06-.3-.06-.3.1.41,0-.73,0-.37a3.08,3.08,0,0,1,.18-.66c-.15.37.37-.49.17-.24.43-.51,1-1,1.43-1.44,1.44-1.44,3.06-2.82,3.92-4.7a9.52,9.52,0,0,0-.19-8.27,9.17,9.17,0,0,0-6.32-4.83,31.24,31.24,0,0,0-5.8-.2H44c-.13,0-.7-.12-.26,0a3.81,3.81,0,0,1-.45-.13c-.14-.06-.12,0,.07,0L43,70.8c-.45-.21.2.26-.15-.1a3.68,3.68,0,0,1-.39-.4c.34.43-.28-.7-.1-.17-.07-.18-.1-.37-.16-.54.1.34,0,.13,0,0v-.25c0-1,0-2,0-3v-12c0-1.16,0-2.32,0-3.49V50.6c0-.1.12-.67,0-.2,0-.13.08-.24.1-.37.12-.5-.2.24.08-.17a3.14,3.14,0,0,1,.18-.31c-.16.18-.16.18,0,0l.26-.26c.36-.35-.3.12.16-.11,0,0,.61-.27.15-.12l.46-.12c.33-.09-.48,0,.1,0h.51c1.68,0,3.41.13,5.07,0a9.36,9.36,0,0,0,8.22-12.16c-.72-2.18-2.23-3.69-3.81-5.27-.59-.59-1.17-1.16-1.76-1.76-.07-.07-.34-.37-.11-.08a3,3,0,0,1-.21-.33c-.3-.44,0,.32-.1-.2-.06-.18-.1-.37-.15-.55.07.41,0,.1,0,0s.07-.69,0-.19a4.07,4.07,0,0,1,.2-.74c-.15.37,0,0,.09-.1s.33-.38.08-.13l.17-.17.23-.23,1.1-1.09,8.32-8.32,3.13-3.14c.17-.17.34-.32.5-.49s.3-.28,0-.06a2.94,2.94,0,0,1,.5-.31c-.37.21.13-.05.21-.08s.6-.1.27-.07.3,0,.29,0c.51,0-.32-.13.18,0a3,3,0,0,1,.56.17c-.41-.17.14.11.18.14.46.29-.18-.24.19.17l0,0a1.89,1.89,0,0,0,.2.2l.94.94,2,2a9.33,9.33,0,0,0,13.92-.38,10.13,10.13,0,0,0,2.21-6.79V5.73c0-.53-.14.3,0-.2,0-.13.07-.24.11-.36-.1.23-.1.23,0,0,0,0,.31-.49.14-.24s.2-.2.19-.2.51-.37.14-.12A4.62,4.62,0,0,1,88,4.33c-.48.25.76-.12.2-.07h19.38c.54,0-.3-.14.2,0,0,0,.62.26.19,0,.18.09.33.18.49.28-.39-.25.07.07.13.12s.37.52.13.13c.08.13.15.26.22.4.16.29-.08-.44,0,.1,0,.07.13.67.07.19a2.55,2.55,0,0,1,0,.39V9c0,2.23.08,4.39,1.25,6.38a9.39,9.39,0,0,0,14.63,1.94c1.11-1.07,2.18-2.2,3.29-3.29l.1-.1c.37-.42-.27.1.19-.17,0,0,.61-.32.18-.15l.37-.12c.1,0,.66-.08.19-.06a2.71,2.71,0,0,1,.57,0c-.47,0,.15,0,.27.08s.45.23.11,0a3.76,3.76,0,0,1,.5.31c-.26-.2,0,0,0,.07l.22.22,7.12,7.12c2,2,3.87,4.06,5.94,5.94,0,0,.37.38.14.15s.1.18.13.22c.33.44,0-.19.07.1s.09.3.14.45c.16.5.06-.32,0,.19,0,.07-.07.68,0,.18,0,.13-.06.26-.08.37a2.32,2.32,0,0,1-.13.37c.08-.21.07-.21,0,0,0,0-.42.51-.13.21.07-.07-.1.12-.15.16l-.17.17-.89.9A20.51,20.51,0,0,0,139,35.15a9.46,9.46,0,0,0,5.9,13.44,23.34,23.34,0,0,0,5.67.29h1.58c.54,0-.3-.14.2,0,0,0,.57.2.27.07s.26.14.24.14c.46.22-.2-.25.16.12a4.75,4.75,0,0,1,.38.4c-.34-.43.29.7.1.18a3,3,0,0,1,.16.54c-.11-.41,0,.16,0,.26a2.14,2.14,0,1,0,4.27,0,6.09,6.09,0,0,0-6.29-6c-1.7,0-3.39.06-5.07,0-.57,0,.42.12-.12,0l-.48-.11-.78-.26c.51.17,0,0-.08,0l-.41-.23a2.37,2.37,0,0,1-.33-.22c-.11-.07-.54-.44-.12-.08a7.94,7.94,0,0,1-.67-.63c-.12-.11-.57-.75-.26-.27-.17-.25-.34-.5-.49-.77l-.14-.27c0-.08-.08-.18-.13-.27.12.29.13.31.05.09a8.75,8.75,0,0,1-.27-.87c0-.17-.15-1-.09-.33a5.59,5.59,0,0,1,0-.91c0-.1,0-.2,0-.32s.14-.79,0-.19a6,6,0,0,1,.2-.84l.12-.38c.16-.51-.21.4,0-.08.16-.3.3-.58.49-.87,0-.1.13-.18.18-.28-.28.42.14-.16.22-.25,1.09-1.19,2.29-2.29,3.43-3.44a6.09,6.09,0,0,0,.13-8.59c-2-2.1-4.12-4.12-6.19-6.19-2.32-2.32-4.62-4.64-6.95-6.95a6,6,0,0,0-7.85-.74,38,38,0,0,0-3.87,3.75c-.23.23-.46.44-.7.65-.41.37.36-.2-.11.09l-.43.27-.28.16c-.12.05-.76.3-.23.11a7.29,7.29,0,0,1-.83.26l-.38.08c-.52.13.48,0-.05,0a7.79,7.79,0,0,1-.84,0H118l-.3,0c.31,0,.36,0,.11,0s-.49-.1-.74-.17l-.44-.15c-.11,0-.55-.25-.06,0-.25-.13-.49-.24-.74-.39s-.21-.12-.32-.2l-.26-.17c.23.19.26.2.07.06l-.57-.51c-.11-.12-.2-.23-.31-.34-.36-.37.24.37-.05-.06-.14-.21-.28-.43-.41-.66l-.21-.42c-.1-.22-.09-.2,0,.07-.05-.1-.07-.2-.12-.3-.08-.26-.15-.53-.21-.8,0-.1-.09-.65,0-.1,0-.17,0-.34,0-.53s0-.57,0-.84V7.25a10.48,10.48,0,0,0-.2-2.79A6,6,0,0,0,109.46.39,10.28,10.28,0,0,0,105.71,0H89.37A6.46,6.46,0,0,0,84,2.17a6.19,6.19,0,0,0-1.38,4.06V9c0,.73,0,1.47,0,2.18,0,.1-.1.66,0,.11,0,.12,0,.23,0,.33-.08.33-.18.63-.27,1-.16.51.21-.39,0,.08,0,.1-.09.19-.15.29a8.87,8.87,0,0,1-.58.92c.34-.47-.16.16-.27.27a6.67,6.67,0,0,1-.68.62c.45-.37-.19.11-.32.18a2.6,2.6,0,0,1-.4.23c-.11.06-.74.31-.18.1a9.15,9.15,0,0,1-1.61.44c.61-.11-.2,0-.34,0a8,8,0,0,1-1.09,0c.63.07-.21,0-.35-.1l-.46-.13c-.1,0-.58-.24-.08,0a7.14,7.14,0,0,1-.73-.37c-.14-.09-.28-.19-.43-.27s-.18-.13,0,0a3,3,0,0,1-.27-.23c-.54-.47-1-1-1.56-1.54-1.65-1.65-3.14-3.5-5.61-3.83a6.45,6.45,0,0,0-5.53,2.22L58.4,14.73l-8.32,8.32a9.51,9.51,0,0,0-2.56,3.42,5.94,5.94,0,0,0,.68,5.3,15.3,15.3,0,0,0,1.8,2l2,2,.6.61s.35.46.16.19.12.2.12.2a5.44,5.44,0,0,1,.54,1c-.24-.5.08.24.12.38s.21,1.13.14.5c0,.26,0,.51.06.77a3.46,3.46,0,0,1,0,.46c0,.14-.12.81,0,.18a10.93,10.93,0,0,1-.44,1.61c.2-.54-.1.17-.17.31l-.23.4c0,.1-.48.64-.11.19-.16.2-.33.38-.51.57l-.33.31c-.09.07-.5.39,0,.06-.22.15-.43.3-.66.43l-.41.22-.29.13c.25-.1.29-.13.15-.07-.29,0-.57.2-.87.26l-.5.1c.48-.09.1,0,0,0l-1,0a32.44,32.44,0,0,0-5.49.11A6,6,0,0,0,38,50.77V66.59c0,.92,0,1.85,0,2.77a6.09,6.09,0,0,0,6.15,6c1.63,0,3.25-.08,4.86,0l.36,0c.56,0-.43-.12.11,0,.33.07.64.15,1,.24.1,0,.2.08.3.12-.51-.17,0,0,.07,0a9.94,9.94,0,0,1,.89.53c.11.07.37.31,0,0,.11.1.24.2.34.3a6.76,6.76,0,0,1,.58.62c.1.1.27.39,0,0l.26.39a7.59,7.59,0,0,1,.44.79c.24.46-.14-.44,0,.06,0,.14.1.29.14.43a8,8,0,0,1,.2.81c0,.14.06.5,0,0,0,.15,0,.3,0,.45a5.76,5.76,0,0,1,0,.93c0,.14-.13.61,0,0,0,.16-.06.32-.1.46a7.16,7.16,0,0,1-.23.75c-.15.52.22-.38,0,.09-.07.14-.14.3-.22.44l-.26.43c0,.05-.37.51-.06.11A43.46,43.46,0,0,1,49.21,87a6.49,6.49,0,0,0-2,4,6,6,0,0,0,1.73,4.72c.69.71,1.4,1.39,2.1,2.09l8.57,8.58,2.5,2.49a6.07,6.07,0,0,0,8.39.24c1.15-1,2.22-2.22,3.33-3.32a10.22,10.22,0,0,1,.78-.71c-.4.31.06,0,.12-.06l.42-.25c.15-.09.29-.15.45-.23.42-.21-.35.1.08,0s.6-.2.91-.26c.12,0,.64-.08,0,0a1.55,1.55,0,0,1,.31,0,7.18,7.18,0,0,1,.93,0l.45,0c-.58,0-.1,0,0,0a8.1,8.1,0,0,1,.88.23l.43.15c-.06,0-.43-.21-.09,0a6.83,6.83,0,0,1,.8.44l.39.25c-.29-.18-.15-.11,0,0a5.62,5.62,0,0,1,.65.64s.35.41.13.14.1.14.12.16a5.36,5.36,0,0,1,.47.81c0,.1.22.58,0,.07.06.16.11.3.16.46a6.35,6.35,0,0,1,.22,1c-.1-.54,0,.33,0,.47v3.74a9.77,9.77,0,0,0,.24,2.85,6.12,6.12,0,0,0,3.83,4,11.25,11.25,0,0,0,3.71.31h17.08a6.08,6.08,0,0,0,4.81-2.59c1.35-1.9,1.06-4.35,1.06-6.56,0-.74,0-1.48,0-2.22,0-.57-.11.43,0-.11,0-.16.07-.33.11-.49a7.92,7.92,0,0,1,.26-.78c-.17.51,0,0,0-.07a2.71,2.71,0,0,1,.23-.41q.1-.18.21-.33c.07-.12.44-.54.09-.13.2-.23.4-.46.62-.67s.75-.57.28-.26a7.48,7.48,0,0,1,.76-.48l.35-.17c.48-.26-.29.08.11-.06a8.75,8.75,0,0,1,.87-.27c.16,0,1-.14.33-.08a7,7,0,0,1,.91,0,1.67,1.67,0,0,1,.31,0c.14,0,.8.14.2,0,.31.07.61.13.91.22.1,0,.2.07.3.09.52.16-.38-.21.09,0,.3.16.58.3.87.49.1,0,.18.13.28.18-.43-.28.16.15.24.22.53.48,1,1,1.53,1.51l1.92,1.92a6.17,6.17,0,0,0,4.08,1.87,6.71,6.71,0,0,0,5.14-2.37l7.85-7.85,3.7-3.7a8.74,8.74,0,0,0,2.64-3.73,6.15,6.15,0,0,0-1.54-5.82c-.5-.52-1-1-1.56-1.55s-1.15-1.14-1.72-1.72a5.49,5.49,0,0,1-.4-.43l-.23-.27c.32.4,0-.06,0-.11a8.14,8.14,0,0,1-.49-.87c-.17-.34,0,0,0,.07-.07-.2-.14-.4-.2-.6s-.21-1.13-.14-.5c0-.26,0-.51-.06-.77a9.08,9.08,0,0,1,.05-.91c0,.06-.09.48,0,.11l.13-.59c.07-.27.18-.53.26-.8s-.23.45,0,0c.07-.13.12-.27.21-.41s.33-.47.44-.71-.33.37,0,0c.14-.16.27-.31.41-.45a3.31,3.31,0,0,1,.33-.32s.41-.34.14-.13.14-.1.16-.11a4.64,4.64,0,0,1,.4-.26l.41-.22s.5-.22.18-.09.17-.06.2-.06l.63-.18.5-.1c-.44.1-.17,0-.06,0l.73,0h.87c2.08,0,4.43.3,6.36-.59A6.15,6.15,0,0,0,158,69V50.62a2.16,2.16,0,0,0-2.14-2.14A2.19,2.19,0,0,0,153.7,50.63Z" transform="translate(-38.01)"/><path class="cls-3" d="M109.58,46.2c0,.33,0,.66,0,1s0,.38-.06.58c0-.43,0,0,0,.1a14.57,14.57,0,0,1-.47,1.95,4.88,4.88,0,0,1-.18.54l-.1.27c.11-.28-.13.28-.11.26-.08.14-.13.29-.2.43a17.33,17.33,0,0,1-1.06,1.75c0,.09-.31.41,0,.09l-.3.35c-.2.24-.4.47-.62.69l-.72.71a3.36,3.36,0,0,1-.29.24s-.54.44-.35.3-.25.17-.23.16l-.39.25c-.28.19-.58.36-.88.53s-.56.28-.84.43l-.34.15c.43-.18-.2.08-.29.1a13.62,13.62,0,0,1-1.92.54l-.38.08c-.06,0-.7.08-.2,0a11.91,11.91,0,0,1-1.19.09,14.66,14.66,0,0,1-2-.09c.09,0,.42.08,0,0a3.57,3.57,0,0,1-.57-.1c-.37-.07-.76-.17-1.11-.27s-.6-.18-.9-.29a3.82,3.82,0,0,0-.36-.13c.45.17-.12-.06-.18-.09a13.13,13.13,0,0,1-1.8-1c-.12-.08-.79-.57-.47-.31a7.79,7.79,0,0,1-.71-.6,13,13,0,0,1-1.41-1.46l-.23-.29c.29.37-.07-.11-.11-.17-.17-.26-.34-.51-.51-.78s-.32-.55-.46-.82L87.35,51c0-.09-.29-.7-.13-.27a15.21,15.21,0,0,1-.58-1.81c-.08-.32-.15-.63-.2-.94,0,0-.09-.62,0-.3s0-.43,0-.5a16.35,16.35,0,0,1,0-2c0-.16,0-.33,0-.49,0-.37-.1.5,0-.11.07-.38.14-.75.23-1.14a15.21,15.21,0,0,1,.58-1.81l0-.1.2-.42c.17-.33.34-.67.54-1s.33-.52.52-.78c0,0,.34-.49.15-.23s.19-.23.19-.21a14,14,0,0,1,1.41-1.47c.23-.2.47-.41.71-.6-.34.27.36-.24.47-.31a12.15,12.15,0,0,1,1.8-1s.62-.26.18-.08a3,3,0,0,1,.36-.13,7.76,7.76,0,0,1,.89-.3c.3-.09.62-.17.93-.23l.57-.11c.06,0,.68-.09.2,0a16.22,16.22,0,0,1,2-.09c.33,0,.65,0,1,.06.64,0-.41-.09.2,0l.57.1a15.37,15.37,0,0,1,2.2.64c.56.2-.23-.12.09,0s.4.18.6.28.67.34,1,.54l.92.62c.06,0,.33.24,0,0a4.83,4.83,0,0,1,.49.41,13.36,13.36,0,0,1,1.5,1.51l.36.43c-.29-.37.08.12.11.17.21.3.41.61.6.94s.37.65.53,1c.07.15.12.29.2.43s0,.12,0-.07l.13.36a14.91,14.91,0,0,1,.61,2.2c0,.13,0,.26.07.39s0,.26,0,0l0,.39c0,.38,0,.78,0,1.18a2.14,2.14,0,1,0,4.28,0,16.11,16.11,0,0,0-10.59-15A15.91,15.91,0,0,0,84.33,54.39a15.9,15.9,0,0,0,29.54-8.19,2.15,2.15,0,0,0-2.13-2.14A2.21,2.21,0,0,0,109.58,46.2Z" transform="translate(-38.01)"/><path class="cls-3" d="M76.64,87.6v-5c0-.41,0-.81,0-1.22,0-.14.08-.84,0-.41,0-.29.08-.57.14-.87.1-.5.23-1,.38-1.5.08-.24.16-.48.25-.72l.12-.36c.09-.23-.12.27.05-.1a19,19,0,0,1,1.59-2.76c.23-.33.06-.09,0,0a3.45,3.45,0,0,1,.23-.28c.16-.19.31-.39.48-.57a15,15,0,0,1,1.2-1.19c.19-.17.39-.32.57-.48s.07-.06,0,0l.29-.22A16.23,16.23,0,0,1,83.46,71a6,6,0,0,1,.75-.39c.1,0,.84-.36.45-.2.57-.21,1.12-.41,1.71-.57a15.35,15.35,0,0,1,1.79-.37c-.41.06-.07,0,0,0s.4,0,.59,0,.67,0,1,0c-.5-.21-1-.41-1.51-.63,2.37,2.85,4.77,5.7,7.15,8.55.34.41.68.83,1,1.24a2.14,2.14,0,0,0,3,0L106.61,70l1-1.24c-.5.22-1,.42-1.51.63.52,0,1,0,1.58.09s.1,0,0,0l.39,0,.95.19a12.9,12.9,0,0,1,1.47.42l.71.28c-.37-.15-.06,0,0,0s.34.15.51.24a12,12,0,0,1,1.31.72c.21.13.43.27.63.42L114,72c.33.23-.1-.08.09.06a14.75,14.75,0,0,1,2.26,2.21l.25.28c.2.26-.19-.26,0,0s.28.4.42.62a13.41,13.41,0,0,1,.82,1.37c.12.25.25.49.37.75,0,.06.17.41.08.19s0,.12.07.18c.19.51.36,1,.5,1.54s.23,1,.32,1.51,0,.1,0,0l0,.39c0,.33,0,.65.06,1s0,.92,0,1.39v4a2.15,2.15,0,0,0,2.13,2.13,2.17,2.17,0,0,0,2.14-2.13,56,56,0,0,0-.13-7,17.44,17.44,0,0,0-5.94-11.23,18.59,18.59,0,0,0-5.73-3.29,15.25,15.25,0,0,0-2.89-.71c-1.28-.19-3.25-.63-4.24.4-.43.44-.8.95-1.2,1.42-.85,1-1.72,2-2.58,3.08-1.47,1.75-2.93,3.52-4.41,5.27h3l-3.69-4.4c-1.46-1.74-2.85-3.59-4.4-5.26A2.83,2.83,0,0,0,89,65.15a17.23,17.23,0,0,0-3.36.48,16.77,16.77,0,0,0-5.73,2.58,17.57,17.57,0,0,0-7.09,10.44c-.65,2.91-.45,5.94-.45,8.89a2.18,2.18,0,0,0,2.14,2.14,2.09,2.09,0,0,0,2.17-2.08Z" transform="translate(-38.01)"/></g></svg>