<?xml version="1.0" encoding="UTF-8"?>
<svg id="Layer_2" xmlns="http://www.w3.org/2000/svg" xmlns:xlink="http://www.w3.org/1999/xlink" viewBox="0 0 40 40">
  <defs>
    <style>
      .cls-1 {
        fill: none;
      }

      .cls-2 {
        fill: #f26128;
      }

      .cls-3 {
        clip-path: url(#clippath);
      }
    </style>
    <clipPath id="clippath">
      <rect class="cls-1" width="40" height="40"/>
    </clipPath>
  </defs>
  <g id="Layer_2-2" data-name="Layer_2">
    <g class="cls-3">
      <path class="cls-2" d="M20,6.09c-6.94,0-12.58,5.64-12.58,12.58,0,2.02.47,3.96,1.39,5.74.88,1.7,2.15,3.21,3.7,4.36,1.14.85,1.95,1.96,2.38,3.23-.83.22-1.45.97-1.45,1.87,0,1.03.81,1.87,1.83,1.93.29,2.36,2.31,4.2,4.74,4.2s4.46-1.85,4.74-4.21c.95-.13,1.68-.94,1.68-1.92,0-.85-.55-1.57-1.31-1.83.42-1.29,1.24-2.41,2.39-3.27,1.54-1.15,2.82-2.65,3.7-4.36.92-1.79,1.39-3.72,1.39-5.74,0-6.94-5.64-12.58-12.58-12.58ZM20,38.9c-1.82,0-3.35-1.34-3.63-3.09h7.26c-.28,1.75-1.81,3.09-3.63,3.09ZM24.49,34.71h-9.12c-.46,0-.84-.37-.84-.84s.37-.84.84-.84h9.12c.46,0,.84.37.84.84s-.37.84-.83.84ZM26.84,27.89c-1.41,1.05-2.39,2.44-2.85,4.05h-7.98c-.46-1.61-1.44-3-2.85-4.05-2.95-2.19-4.64-5.55-4.64-9.22,0-6.33,5.15-11.48,11.48-11.48s11.48,5.15,11.48,11.48c0,3.67-1.69,7.03-4.64,9.22ZM27.12,5.23l1.46-2.53c.15-.26.49-.35.75-.2s.35.49.2.75l-1.46,2.53c-.1.18-.29.28-.48.28-.09,0-.19-.02-.27-.07-.26-.15-.35-.49-.2-.75ZM7.31,25.99c.15.26.06.6-.2.75l-2.53,1.46c-.09.05-.18.07-.27.07-.19,0-.38-.1-.48-.28-.15-.26-.06-.6.2-.75l2.53-1.46c.26-.15.6-.06.75.2ZM4.8,19.22H1.88c-.3,0-.55-.25-.55-.55s.25-.55.55-.55h2.92c.3,0,.55.25.55.55,0,.3-.25.55-.55.55ZM32.69,11.34c-.15-.26-.06-.6.2-.75l2.53-1.46c.26-.15.6-.06.75.2.15.26.06.6-.2.75l-2.53,1.46c-.09.05-.18.07-.27.07-.19,0-.38-.1-.48-.28ZM10.46,3.25c-.15-.26-.06-.6.2-.75.26-.15.6-.06.75.2l1.46,2.53c.15.26.06.6-.2.75-.09.05-.18.07-.27.07-.19,0-.38-.1-.48-.28l-1.46-2.53ZM19.45,3.47V.55c0-.3.25-.55.55-.55s.55.25.55.55v2.92c0,.3-.25.55-.55.55s-.55-.25-.55-.55ZM36.17,28c-.1.18-.29.28-.48.28-.09,0-.19-.02-.27-.07l-2.53-1.46c-.26-.15-.35-.49-.2-.75s.49-.35.75-.2l2.53,1.46c.26.15.35.49.2.75ZM38.67,18.67c0,.3-.25.55-.55.55h-2.92c-.3,0-.55-.25-.55-.55s.25-.55.55-.55h2.92c.3,0,.55.25.55.55ZM7.31,11.34c-.1.18-.29.28-.48.28-.09,0-.19-.02-.27-.07l-2.53-1.46c-.26-.15-.35-.49-.2-.75.15-.26.49-.35.75-.2l2.53,1.46c.26.15.35.49.2.75ZM27.11,14.84l.48-.61c.39-.5.35-1.21-.1-1.66l-1.39-1.39c-.45-.45-1.16-.49-1.66-.1l-.61.48c-.48-.26-.99-.47-1.51-.62l-.09-.77c-.08-.63-.61-1.1-1.25-1.1h-1.96c-.63,0-1.17.47-1.25,1.1l-.09.77c-.52.16-1.03.37-1.51.62l-.61-.48c-.5-.39-1.21-.35-1.66.1l-1.39,1.39c-.45.45-.49,1.16-.1,1.66l.48.61c-.26.48-.47.99-.62,1.51l-.77.09c-.63.08-1.1.61-1.1,1.25v1.96c0,.63.47,1.17,1.1,1.25l.77.09c.16.52.37,1.03.62,1.51l-.48.61c-.39.5-.35,1.21.1,1.66l1.39,1.39c.45.45,1.16.49,1.66.1l.61-.48c.48.26.99.47,1.51.62l.09.77c.08.63.61,1.1,1.25,1.1h1.96c.63,0,1.17-.47,1.25-1.1l.09-.77c.52-.16,1.03-.37,1.51-.62l.61.48c.5.39,1.21.35,1.66-.1l1.39-1.39c.45-.45.49-1.16.1-1.66l-.48-.61c.26-.48.47-.99.62-1.51l.77-.09c.63-.08,1.1-.61,1.1-1.25v-1.96c0-.63-.47-1.17-1.1-1.25l-.77-.09c-.16-.52-.37-1.03-.62-1.51ZM28.5,17.69v1.96c0,.08-.06.14-.14.15l-1.13.14c-.23.03-.41.19-.47.41-.17.67-.43,1.31-.79,1.91-.12.2-.1.44.04.62l.7.9c.05.06.04.15-.01.21l-1.39,1.39c-.06.06-.14.06-.21.01l-.9-.7c-.18-.14-.43-.16-.62-.04-.59.36-1.23.62-1.91.79-.22.05-.39.24-.41.47l-.14,1.13c0,.08-.07.14-.15.14h-1.96c-.08,0-.14-.06-.15-.14l-.14-1.13c-.03-.23-.19-.41-.41-.47-.67-.17-1.31-.43-1.91-.79-.09-.05-.19-.08-.28-.08-.12,0-.24.04-.34.12l-.9.7c-.06.05-.15.04-.21-.01l-1.39-1.39c-.06-.06-.06-.14-.01-.21l.7-.9c.14-.18.16-.43.04-.62-.36-.59-.62-1.23-.79-1.91-.05-.22-.24-.39-.47-.41l-1.13-.14c-.08,0-.14-.07-.14-.15v-1.96c0-.08.06-.14.14-.15l1.13-.14c.23-.03.41-.19.47-.41.17-.67.43-1.31.79-1.91.12-.2.1-.44-.04-.62l-.7-.9c-.05-.06-.04-.15.01-.21l1.39-1.39c.06-.06.14-.06.21-.01l.9.7c.18.14.43.16.62.04.59-.36,1.23-.62,1.91-.79.22-.05.39-.24.41-.47l.14-1.13c0-.08.07-.14.15-.14h1.96c.08,0,.14.06.15.14l.14,1.13c.03.23.19.41.41.47.67.17,1.31.43,1.91.79.2.12.44.1.62-.04l.9-.7c.06-.05.15-.04.21.01l1.39,1.39c.06.06.06.14.01.21l-.7.9c-.14.18-.16.43-.04.62.36.59.62,1.23.79,1.91.05.22.24.39.47.41l1.13.14c.08,0,.14.07.14.15ZM20,13.57c-2.81,0-5.1,2.29-5.1,5.1s2.29,5.1,5.1,5.1,5.1-2.29,5.1-5.1-2.29-5.1-5.1-5.1ZM20,22.67c-2.2,0-4-1.79-4-4s1.79-4,4-4,4,1.79,4,4-1.79,4-4,4ZM22.16,17.06c.22.21.22.56.01.78l-2.37,2.44c-.11.11-.25.17-.39.17s-.27-.05-.38-.15l-1.19-1.14c-.22-.21-.23-.56-.02-.78s.56-.23.78-.02l.79.76,1.99-2.04c.21-.22.56-.22.78-.01Z"/>
    </g>
  </g>
</svg>