<?xml version="1.0" encoding="UTF-8"?>
<svg id="Layer_2" xmlns="http://www.w3.org/2000/svg" xmlns:xlink="http://www.w3.org/1999/xlink" viewBox="0 0 40 40">
  <defs>
    <style>
      .cls-1 {
        fill: none;
      }

      .cls-2 {
        fill: #f26128;
      }

      .cls-3 {
        clip-path: url(#clippath);
      }
    </style>
    <clipPath id="clippath">
      <rect class="cls-1" width="40" height="40"/>
    </clipPath>
  </defs>
  <g id="Layer_2-2" data-name="Layer_2">
    <g class="cls-3">
      <path class="cls-2" d="M38.12,15.22c1.04,0,1.88-.84,1.88-1.88,0-1.04-.84-1.88-1.88-1.88-.9,0-1.65.63-1.83,1.47h-3.29c-.14-1.43-.51-2.82-1.1-4.12h1.67c.53,0,.96-.43.96-.96v-2.17c0-.07.06-.12.12-.12h1.63c.19.84.94,1.46,1.83,1.46,1.04,0,1.88-.84,1.88-1.88,0-1.04-.84-1.88-1.88-1.88-.9,0-1.64.63-1.83,1.47h-1.63c-.53,0-.96.43-.96.96v2.17c0,.07-.06.12-.12.12h-2.08c-.33-.61-.71-1.2-1.14-1.76C25.94.49,17.75-.57,12.04,3.83c-1.5,1.15-2.67,2.57-3.51,4.14h-2.1c-.07,0-.12-.06-.12-.12v-2.17c0-.53-.43-.96-.96-.96h-1.63c-.19-.84-.94-1.47-1.83-1.47-1.04,0-1.88.84-1.88,1.88s.84,1.88,1.88,1.88c.9,0,1.64-.63,1.83-1.46h1.63c.07,0,.12.06.12.12v2.17c0,.53.43.96.96.96h1.67c-.59,1.31-.95,2.7-1.08,4.12h-3.31c-.19-.84-.94-1.47-1.83-1.47-1.04,0-1.88.84-1.88,1.88s.84,1.88,1.88,1.88c.89,0,1.64-.63,1.83-1.46h3.24c-.04,1.38.14,2.77.54,4.11h-1.07c-.53,0-.96.43-.96.96v2.17c0,.07-.06.12-.12.12h-1.63c-.19-.84-.94-1.47-1.83-1.47-1.04,0-1.88.84-1.88,1.88s.84,1.88,1.88,1.88c.9,0,1.64-.63,1.83-1.47h1.63c.53,0,.96-.43.96-.96v-2.17c0-.07.06-.12.12-.12h1.33c.45,1.2,1.08,2.36,1.9,3.43,1.25,1.65,2.24,3.48,2.94,5.42l.54,1.48c.33.88,1.04,1.55,1.91,1.87v1.09h-1.34c-.23,0-.42.19-.42.42s.19.42.42.42h1.34v1.09h-1.34c-.23,0-.42.19-.42.42s.19.42.42.42h1.34v.4c0,.84.68,1.52,1.52,1.53h.73c.22,1.27,1.33,2.23,2.67,2.21,1.31,0,2.4-.95,2.63-2.21h.73c.84,0,1.52-.68,1.52-1.53v-.4h1.34c.23,0,.42-.19.42-.42s-.19-.42-.42-.42h-1.34v-1.09h1.34c.23,0,.42-.19.42-.42s-.19-.42-.42-.42h-1.34v-1.06c.92-.3,1.67-.98,2.01-1.9l.53-1.42c.25-.67.52-1.33.81-1.95.58-1.25,1.29-2.43,2.13-3.52.82-1.05,1.46-2.22,1.91-3.45h1.33c.07,0,.12.06.12.12v2.17c0,.53.43.96.96.96h1.63c.19.84.94,1.47,1.83,1.47,1.04,0,1.88-.84,1.88-1.88h0c0-1.04-.84-1.89-1.88-1.89-.9,0-1.64.63-1.83,1.47h-1.63c-.07,0-.12-.06-.12-.12v-2.17c0-.53-.43-.96-.96-.96h-1.05c.35-1.2.55-2.44.54-3.7,0-.14-.01-.27-.02-.41h3.25c.19.84.94,1.46,1.83,1.46ZM38.12,4.08h0c.58,0,1.05.47,1.05,1.05,0,.58-.47,1.05-1.05,1.05s-1.05-.47-1.05-1.05.47-1.05,1.05-1.05ZM1.88,6.18c-.58,0-1.05-.47-1.05-1.05s.47-1.05,1.05-1.05h0c.58,0,1.05.47,1.05,1.05,0,.58-.47,1.05-1.05,1.05ZM1.88,22.59c-.58,0-1.05-.47-1.05-1.05s.47-1.05,1.05-1.05c.58,0,1.05.47,1.05,1.05,0,.58-.47,1.05-1.05,1.05ZM20.44,37.99c-1,.27-2.02-.32-2.29-1.32h3.61c-.17.64-.67,1.14-1.32,1.32ZM38.12,20.49c.58,0,1.05.47,1.05,1.05,0,.58-.47,1.05-1.05,1.05s-1.05-.47-1.05-1.05.47-1.05,1.05-1.05ZM2.93,13.33c0,.58-.47,1.05-1.05,1.05s-1.05-.47-1.05-1.05.47-1.05,1.05-1.05c.58,0,1.05.47,1.05,1.05h0ZM17.5,22h-1.5c-.83,0-1.5-.67-1.5-1.5s.67-1.5,1.5-1.5h0c.83,0,1.5.67,1.5,1.5v1.5ZM18.34,22.83h3.33v7.45h-3.33v-7.45ZM22.5,22v-1.5s0,0,0,0c0-.83.67-1.5,1.5-1.49.83,0,1.5.67,1.49,1.5,0,.83-.67,1.5-1.5,1.49h-1.5ZM24.01,35.15c0,.38-.31.69-.69.69h-1.09s0,0,0,0h-4.56s0,0,0,0c0,0,0,0,0,0h-1.08c-.38,0-.69-.31-.69-.69v-.4h8.12v.4ZM24.01,33.92h-8.12v-1.09h8.12v1.09ZM15.89,32v-.89c.08,0,.16,0,.24,0,0,0,0,0,0,0h7.73s0,0,.01,0c.04,0,.09,0,.13,0v.88h-8.12ZM29.67,21.64c-.87,1.14-1.62,2.37-2.22,3.68-.3.64-.58,1.32-.84,2.01l-.53,1.42c-.29.78-.97,1.34-1.77,1.49-.14.03-.29.05-.43.04h-1.37v-7.45h1.5c1.29,0,2.33-1.04,2.33-2.33s-1.04-2.33-2.33-2.33-2.33,1.04-2.33,2.33v1.5h-3.33v-1.5c0-1.28-1.04-2.33-2.33-2.33-1.29,0-2.33,1.04-2.33,2.33s1.04,2.33,2.33,2.33h1.5v7.45h-1.37c-.19,0-.38-.02-.56-.07,0,0,0,0,0,0-.75-.19-1.37-.74-1.64-1.47l-.52-1.42-.39.15.37-.2c-.73-2.03-1.76-3.94-3.06-5.66-1.8-2.33-2.7-5.23-2.53-8.17.42-6.14,5.29-11.04,11.44-11.49,2.96-.18,5.89.71,8.23,2.53,5.34,4.13,6.32,11.8,2.2,17.14ZM38.12,12.28c.58,0,1.05.47,1.05,1.05h0c0,.58-.47,1.05-1.05,1.05s-1.05-.47-1.05-1.05.47-1.05,1.05-1.05Z"/>
    </g>
  </g>
</svg>