<?xml version="1.0" encoding="UTF-8"?>
<svg id="Layer_2" xmlns="http://www.w3.org/2000/svg" xmlns:xlink="http://www.w3.org/1999/xlink" viewBox="0 0 40 40">
  <defs>
    <style>
      .cls-1 {
        fill: none;
      }

      .cls-2 {
        fill: #f26128;
      }

      .cls-3 {
        clip-path: url(#clippath);
      }
    </style>
    <clipPath id="clippath">
      <rect class="cls-1" width="40" height="40"/>
    </clipPath>
  </defs>
  <g id="Layer_2-2" data-name="Layer_2">
    <g id="Layer_1-2">
      <g class="cls-3">
        <path class="cls-2" d="M.94,2.72c-.52,0-.94-.42-.94-.94s.42-.94.94-.94h38.12c.52,0,.94.42.94.94s-.42.94-.94.94c0,0-38.12,0-38.12,0ZM6.69,10.55h15.23c1.84,0,3.51.75,4.72,1.96s1.96,2.88,1.96,4.72v15.23c0,1.84-.75,3.51-1.96,4.72-1.21,1.21-2.88,1.96-4.72,1.96H6.69c-1.84,0-3.51-.75-4.72-1.96C.76,35.97.01,34.3.01,32.46v-15.23c0-1.84.75-3.51,1.96-4.72,1.21-1.21,2.88-1.96,4.72-1.96h0ZM21.92,12.42H6.69c-1.32,0-2.53.54-3.4,1.41s-1.41,2.08-1.41,3.4v15.23c0,1.32.54,2.53,1.41,3.4.87.87,2.08,1.41,3.4,1.41h15.23c1.32,0,2.53-.54,3.4-1.42.87-.87,1.41-2.08,1.41-3.4v-15.23c0-1.32-.54-2.53-1.41-3.4-.87-.87-2.08-1.41-3.4-1.41h0ZM13.37,15.88c0-.52.42-.94.94-.94s.94.42.94.94v8.97c0,.52-.42.94-.94.94h-4.23c-.52,0-.94-.42-.94-.94s.42-.94.94-.94h3.29v-8.03h0ZM33.31,39.15c-.52,0-.94-.42-.94-.94s.42-.94.94-.94h5.75c.52,0,.94.42.94.94s-.42.94-.94.94h-5.75ZM33.31,25.79c-.52,0-.94-.42-.94-.94s.42-.94.94-.94h5.75c.52,0,.94.42.94.94s-.42.94-.94.94h-5.75ZM33.31,12.42c-.52,0-.94-.42-.94-.94s.42-.94.94-.94h5.75c.52,0,.94.42.94.94s-.42.94-.94.94h-5.75Z"/>
      </g>
    </g>
  </g>
</svg>