<?xml version="1.0" encoding="UTF-8"?>
<svg id="Layer_2" xmlns="http://www.w3.org/2000/svg" xmlns:xlink="http://www.w3.org/1999/xlink" viewBox="0 0 40 40">
  <defs>
    <style>
      .cls-1 {
        fill: none;
      }

      .cls-2 {
        fill: #f26128;
      }

      .cls-3 {
        clip-path: url(#clippath);
      }
    </style>
    <clipPath id="clippath">
      <rect class="cls-1" width="40" height="40"/>
    </clipPath>
  </defs>
  <g id="Layer_2-2" data-name="Layer_2">
    <g class="cls-3">
      <path class="cls-2" d="M27.97,0h-15.95c-2.19,0-3.96,1.78-3.96,3.96v32.07c0,2.19,1.78,3.96,3.96,3.96h15.95c2.19,0,3.96-1.78,3.96-3.96V3.96c-.05-2.23-1.78-3.96-3.96-3.96ZM30.62,35.99c0,1.46-1.18,2.64-2.64,2.64h-15.95c-1.46,0-2.64-1.18-2.64-2.64V3.92c0-1.46,1.18-2.64,2.64-2.64h15.95c1.46,0,2.64,1.18,2.64,2.64v32.07ZM28.88,6.2H11.16c-.36,0-.64.27-.64.64v26.2c0,.36.27.64.64.64h17.72c.36,0,.64-.27.64-.64V6.83c0-.32-.27-.64-.64-.64ZM28.2,32.39H11.8V7.52h16.45v24.87h-.05ZM17.54,4.05c0-.36.27-.64.64-.64h3.46c.36,0,.64.27.64.64s-.27.64-.64.64h-3.46c-.32.05-.64-.27-.64-.64ZM19.95,34.12c-1.14,0-2.1.96-2.1,2.1s.96,2.1,2.1,2.1,2.1-.96,2.1-2.1-.96-2.1-2.1-2.1ZM19.95,36.99c-.46,0-.77-.36-.77-.77,0-.46.36-.77.77-.77.46,0,.77.36.77.77,0,.46-.36.77-.77.77ZM13.8,21.73c.23,1.05.77,1.96,1.64,2.87,1.09,1.09,2.46,1.96,4.19,2.6.09.05.23.05.36.05s.27-.05.41-.09c.09-.05.18-.09.32-.14.41-.18.87-.36,1.28-.59,1.41-.73,2.46-1.59,3.23-2.69.68-.91,1.05-1.91,1.09-2.92v-5.19c0-.55-.32-.91-.87-.96-.09,0-.23-.05-.32-.05-.32-.05-.64-.09-.96-.14-1.18-.27-2.32-.77-3.55-1.69-.5-.36-.82-.36-1.32,0-1.69,1.14-3.19,1.73-4.78,1.87-.64.05-.96.36-.96,1v4.69c.05.5.14.96.23,1.37ZM14.94,16.99v-.96c1.69-.14,3.33-.77,5.06-2,1.37.91,2.64,1.5,3.96,1.82.36.09.73.14,1.09.18h.05v2.28h0v2.51c-.05.73-.32,1.46-.87,2.19-.68.91-1.59,1.64-2.78,2.28-.36.18-.77.36-1.18.55-.09.05-.14.05-.23.09-1.5-.59-2.69-1.32-3.6-2.28-.68-.68-1.14-1.41-1.32-2.23-.09-.36-.14-.68-.14-1-.05-1.14-.05-2.28-.05-3.42ZM17.4,20.64c-.27-.27-.27-.68,0-.91.27-.27.68-.27.91,0l.82.82,2.55-2.55c.27-.27.68-.27.91,0,.27.27.27.68,0,.91l-3.01,3.01c-.14.14-.27.18-.46.18s-.32-.05-.46-.18l-1.28-1.28Z"/>
    </g>
  </g>
</svg>