<?xml version="1.0" encoding="UTF-8"?>
<svg id="Layer_2" xmlns="http://www.w3.org/2000/svg" viewBox="0 0 39.41 40">
  <defs>
    <style>
      .cls-1 {
        fill: #f26128;
      }
    </style>
  </defs>
  <g id="Layer_2-2" data-name="Layer_2">
    <g>
      <path class="cls-1" d="M17.63,16.39h12.9c1.1,0,1.99-.89,1.99-1.99V1.99c0-1.1-.89-1.99-1.99-1.99h-12.9c-1.1,0-1.99.89-1.99,1.99v12.41c0,1.1.89,1.99,1.99,1.99ZM22.23,1.18h3.71v3.47l-1.49-1.34c-.23-.2-.57-.2-.79,0l-1.43,1.32V1.18ZM16.82,1.99c0-.45.36-.81.81-.81h3.42v4.8c0,.23.14.44.35.54.08.03.16.05.24.05.14,0,.29-.05.4-.15l2.02-1.87,2.07,1.87c.17.15.42.2.63.1.21-.09.35-.31.35-.54V1.18s3.42,0,3.42,0c.45,0,.81.36.81.81v12.41c0,.45-.36.81-.81.81h-12.9c-.45,0-.81-.36-.81-.81V1.99Z"/>
      <path class="cls-1" d="M20.79,10.63h6.59c.32,0,.59-.26.59-.59s-.26-.59-.59-.59h-6.59c-.32,0-.59.26-.59.59,0,.32.26.59.59.59Z"/>
      <path class="cls-1" d="M39.28,16.58c-.28-.79-.97-1.37-1.81-1.49-.68-.1-1.36.11-1.87.57l-5.23,4.78c-.48.44-1.01.81-1.57,1.13.04-.2.07-.4.07-.6,0-1.6-1.3-2.9-2.9-2.9h-7.57c-.7,0-1.4-.16-1.99-.32-.17-.04-.33-.08-.5-.11-1.96-.32-3.98.53-5.27,2.21l-4.06,5.29-.73-.67c-.3-.27-.68-.41-1.08-.4-.4.02-.77.19-1.05.48l-3.33,3.6c-.56.61-.53,1.57.08,2.13l10.08,9.32c.28.26.64.4,1.02.4.02,0,.04,0,.06,0,.4-.02.77-.19,1.05-.48l3.33-3.6c.56-.61.53-1.57-.08-2.13l-.78-.72,1.2-1.17c1.01-.99,2.35-1.6,3.76-1.72l3.26-.26c3.7-.3,7.12-1.97,9.62-4.7l5.82-6.34c.57-.62.75-1.5.47-2.29h0ZM15.16,35.12l-3.33,3.6c-.06.07-.14.1-.23.11-.09,0-.17-.03-.24-.09L1.28,29.42c-.13-.12-.14-.33-.02-.47l3.33-3.6c.06-.07.14-.1.23-.11h.01c.08,0,.16.03.22.09l10.08,9.32c.14.12.14.33.02.47ZM37.95,18.08l-5.82,6.34c-2.31,2.51-5.45,4.05-8.85,4.32l-3.26.26c-1.69.14-3.28.86-4.49,2.05l-1.24,1.21-6.84-6.33,4.13-5.37c1.03-1.34,2.62-2.02,4.15-1.77.13.02.25.05.38.08.67.18,1.46.36,2.29.36h7.57c.95,0,1.73.78,1.73,1.73,0,.57-.28,1.08-.71,1.4-.72.22-1.46.35-2.21.38l-2.87.12h-.33s-.74.04-.74.04c-.32.01-.58.29-.56.61.01.32.3.58.61.56l1.19-.05,4.02-.17c.5-.02.96-.18,1.36-.42,1.37-.44,2.64-1.17,3.72-2.15l5.23-4.78c.25-.22.58-.32.9-.27.41.06.74.33.87.72.14.39.06.8-.22,1.11h0Z"/>
    </g>
  </g>
</svg>