<?xml version="1.0" encoding="UTF-8"?>
<svg id="Layer_2" xmlns="http://www.w3.org/2000/svg" viewBox="0 0 40 40">
  <defs>
    <style>
      .cls-1 {
        fill: #f26128;
      }
    </style>
  </defs>
  <g id="Layer_2-2" data-name="Layer_2">
    <g>
      <path class="cls-1" d="M20,8.75c-6.2,0-11.25,5.05-11.25,11.25s5.05,11.25,11.25,11.25,11.25-5.05,11.25-11.25-5.05-11.25-11.25-11.25ZM15,28.66v-2.41c0-2.76,2.24-5,5-5,1.34,0,2.59.52,3.54,1.46.94.94,1.46,2.2,1.46,3.54v2.41c-1.47.85-3.18,1.34-5,1.34s-3.53-.49-5-1.34ZM17.5,17.5c0-1.38,1.12-2.5,2.5-2.5s2.5,1.12,2.5,2.5-1.12,2.5-2.5,2.5-2.5-1.12-2.5-2.5ZM26.25,27.8v-1.55c0-1.67-.65-3.24-1.83-4.42-.61-.61-1.32-1.08-2.1-1.39.87-.69,1.43-1.75,1.43-2.94,0-2.07-1.68-3.75-3.75-3.75s-3.75,1.68-3.75,3.75c0,1.19.56,2.26,1.43,2.95-2.3.92-3.93,3.18-3.93,5.8v1.55c-2.28-1.83-3.75-4.65-3.75-7.8,0-5.51,4.49-10,10-10s10,4.49,10,10c0,3.15-1.47,5.97-3.75,7.8Z"/>
      <path class="cls-1" d="M20.44,32.68s-.01-.01-.02-.02c0,0-.02-.02-.02-.02,0,0-.02-.01-.03-.02,0,0-.01-.01-.02-.02,0,0-.02-.01-.03-.02,0,0-.02,0-.02-.01,0,0-.02,0-.03-.01,0,0-.02,0-.03-.01,0,0-.02,0-.03,0-.01,0-.02,0-.03-.01,0,0-.02,0-.02,0-.01,0-.02,0-.04,0,0,0-.02,0-.02,0-.01,0-.02,0-.04,0-.01,0-.02,0-.03,0,0,0-.02,0-.03,0-.01,0-.02,0-.03,0,0,0-.02,0-.03,0-.01,0-.03,0-.04,0,0,0-.01,0-.02,0-.01,0-.03,0-.04,0,0,0-.01,0-.02,0-.01,0-.02,0-.04.01,0,0-.01,0-.02,0-.01,0-.02,0-.03.01,0,0-.02,0-.02.01-.01,0-.02.01-.03.02,0,0-.02,0-.02.01-.01,0-.02.02-.03.02,0,0-.01,0-.02.01-.02.01-.03.03-.05.04l-1.87,1.87c-.24.24-.24.64,0,.88.24.24.64.24.88,0l.81-.81v4.74c0,.35.28.62.62.62s.62-.28.62-.62v-4.74l.81.81c.12.12.28.18.44.18s.32-.06.44-.18c.24-.24.24-.64,0-.88l-1.88-1.88Z"/>
      <path class="cls-1" d="M30.81,29.92h1.15c.35,0,.62-.28.62-.62s-.28-.62-.62-.62h-2.53c-.2-.05-.42,0-.58.17-.16.16-.21.38-.17.58v2.53c0,.35.28.62.62.62s.62-.28.62-.62v-1.15l3.34,3.34c.12.12.28.18.44.18s.32-.06.44-.18c.24-.24.24-.64,0-.88l-3.34-3.34Z"/>
      <path class="cls-1" d="M39.38,19.38h-4.72l.81-.81c.24-.24.24-.64,0-.88-.24-.24-.64-.24-.88,0l-1.79,1.79c-.18.11-.29.31-.29.53s.12.42.29.53l1.79,1.79c.12.12.28.18.44.18s.32-.06.44-.18c.24-.24.24-.64,0-.88l-.81-.81h4.72c.35,0,.62-.28.62-.62s-.28-.62-.62-.62Z"/>
      <path class="cls-1" d="M28.84,11.16c.12.12.28.18.44.18.05,0,.09,0,.14-.02h2.53c.35,0,.62-.28.62-.62s-.28-.62-.62-.62h-1.15l3.34-3.34c.24-.24.24-.64,0-.88-.24-.24-.64-.24-.88,0l-3.34,3.34v-1.15c0-.35-.28-.62-.62-.62s-.62.28-.62.62v2.53c-.05.2,0,.42.17.58Z"/>
      <path class="cls-1" d="M19.47,7.21c.11.18.31.29.53.29s.42-.12.53-.29l1.79-1.79c.24-.24.24-.64,0-.88-.24-.24-.64-.24-.88,0l-.81.81V.62c0-.35-.28-.62-.62-.62s-.62.28-.62.62v4.72l-.81-.81c-.24-.24-.64-.24-.88,0-.24.24-.24.64,0,.88l1.79,1.79Z"/>
      <path class="cls-1" d="M9.19,10.08h-1.15c-.35,0-.62.28-.62.62s.28.62.62.62h2.53s.09.02.14.02c.16,0,.32-.06.44-.18.16-.16.21-.38.17-.58v-2.53c0-.35-.28-.62-.62-.62s-.62.28-.62.62v1.15l-3.34-3.34c-.24-.24-.64-.24-.88,0-.24.24-.24.64,0,.88l3.34,3.34Z"/>
      <path class="cls-1" d="M7.5,20c0-.22-.12-.42-.29-.53l-1.79-1.79c-.24-.24-.64-.24-.88,0-.24.24-.24.64,0,.88l.81.81H.62c-.35,0-.62.28-.62.62s.28.62.62.62h4.72l-.81.81c-.24.24-.24.64,0,.88.12.12.28.18.44.18s.32-.06.44-.18l1.79-1.79c.18-.11.29-.31.29-.53Z"/>
      <path class="cls-1" d="M11.16,28.84c-.16-.16-.38-.21-.58-.17h-2.53c-.35,0-.62.28-.62.62s.28.62.62.62h1.15l-3.34,3.34c-.24.24-.24.64,0,.88.12.12.28.18.44.18s.32-.06.44-.18l3.34-3.34v1.15c0,.35.28.62.62.62s.62-.28.62-.62v-2.53c.05-.2,0-.42-.17-.58Z"/>
    </g>
  </g>
</svg>