<?xml version="1.0" encoding="UTF-8"?>
<svg id="Layer_2" xmlns="http://www.w3.org/2000/svg" xmlns:xlink="http://www.w3.org/1999/xlink" viewBox="0 0 50 50">
  <defs>
    <style>
      .cls-1 {
        fill: none;
      }

      .cls-2 {
        clip-path: url(#clippath);
      }

      .cls-3 {
        fill: #f16027;
      }
    </style>
    <clipPath id="clippath">
      <rect class="cls-1" width="50" height="50"/>
    </clipPath>
  </defs>
  <g id="Layer_1-2" data-name="Layer_1">
    <g class="cls-2">
      <g>
        <path class="cls-3" d="M38.41,19.68c-2.96,0-5.35-2.4-5.35-5.36,0-.05,0-.1,0-.15.01-.47.41-.84.88-.83.47.01.84.41.83.88h0c-.06,2.01,1.52,3.69,3.53,3.75.69.02,1.37-.16,1.97-.51.4-.24.93-.11,1.17.3s.11.93-.3,1.17c-.83.49-1.77.75-2.73.75Z"/>
        <path class="cls-3" d="M32.51,27.44c-.47,0-.85-.38-.85-.85,0-.08.01-.17.04-.25.77-2.5,3.25-4.08,5.84-3.72.47.06.8.48.74.95s-.48.8-.95.74c0,0-.02,0-.03,0-1.77-.24-3.45.83-3.98,2.53-.11.36-.44.6-.81.6Z"/>
        <path class="cls-3" d="M36.47,38.08c-2.96,0-5.35-2.4-5.35-5.36,0-.11,0-.23.01-.34.03-.47.44-.83.91-.8s.83.44.8.91h0c-.13,2.01,1.39,3.74,3.4,3.87.69.05,1.38-.11,1.98-.44.41-.23.93-.07,1.16.34.23.41.07.93-.34,1.16h0c-.79.43-1.67.66-2.57.66Z"/>
        <path class="cls-3" d="M47.71,25.22c0-1.42-.56-2.79-1.57-3.79.04-.04.08-.08.11-.13,2.18-2.54,1.88-6.36-.65-8.54-.53-.46-1.15-.82-1.8-1.07.78-2.85-.91-5.79-3.76-6.56-.45-.12-.91-.18-1.37-.19-.61-3.29-3.77-5.46-7.06-4.84-2.87.53-4.95,3.04-4.95,5.95l-.02,38.6c0,2.95,2.4,5.34,5.35,5.34,2.81,0,5.14-2.18,5.33-4.99.14.02.28.03.42.04.12,0,.24.01.36.01,3.34,0,6.05-2.71,6.05-6.06,0-.57-.08-1.14-.24-1.69,2.65-1.31,3.72-4.52,2.41-7.17-.14-.29-.31-.57-.51-.83,1.21-1.02,1.91-2.51,1.91-4.09ZM44.56,28.13c-.14-.1-.29-.19-.44-.27-2.58-1.44-5.83-.51-7.27,2.07-.01.03-.03.05-.04.08-.22.42-.07.93.35,1.15s.93.07,1.15-.35h0c.95-1.77,3.15-2.44,4.93-1.49,1.77.95,2.44,3.15,1.49,4.93-.47.87-1.26,1.52-2.21,1.79-.45.13-.72.6-.59,1.05.04.13.11.26.21.36.87,2.24-.25,4.76-2.49,5.63-.58.22-1.2.32-1.82.29-.13,0-.26-.02-.39-.04-.1-.01-.19-.01-.29,0-.15-.59-.4-1.14-.74-1.64-.26-.39-.79-.5-1.18-.24-.39.26-.5.79-.24,1.18,0,0,0,.01.01.02,1.12,1.67.68,3.93-.98,5.05s-3.93.68-5.05-.98c-.4-.6-.62-1.31-.62-2.03l.02-38.6c0-2.4,1.95-4.35,4.35-4.35,2.08,0,3.86,1.47,4.27,3.5-2.2.72-3.68,2.77-3.69,5.08,0,.47.38.85.85.85s.85-.38.85-.85c0-2.01,1.63-3.64,3.64-3.64s3.64,1.63,3.64,3.64c0,.55-.12,1.1-.37,1.59h0s-.02.05-.02.07,0,.02-.01.03-.01.03-.02.05,0,.03-.01.04,0,.02,0,.02c0,0,0,.01,0,.02,0,.02,0,.03,0,.04s0,.03,0,.04v.12s0,.03,0,.05c0,0,0,.02,0,.03s0,.04.01.05,0,.02,0,.03,0,.03.02.05v.03s.02.03.03.05,0,.02.02.03.01.03.02.04.01.02.02.03.01.02.02.03l.03.04.02.03s.02.02.03.03.02.02.03.03l.03.03.03.03.03.02.04.03.03.02s.03.02.05.03h.01s.02.01.02.01l.06.02h.04s.03.02.05.03h.05s0,.01,0,.01c2.36.47,3.88,2.76,3.41,5.12-.36,1.78-1.77,3.14-3.56,3.44-.46.08-.78.51-.71.98.08.46.51.78.98.71h0c.77-.13,1.51-.4,2.18-.81,1.49,1.35,1.6,3.65.24,5.14-.15.17-.32.32-.5.45h0Z"/>
        <path class="cls-3" d="M23.49,11.05h-3.39c-1.32,0-2.42-.39-3.35-1.18-.61-.52-1.15-.99-1.53-1.32.82-1.43.32-3.25-1.11-4.07-1.43-.82-3.25-.32-4.07,1.11-.82,1.43-.32,3.25,1.11,4.07.87.5,1.94.53,2.83.07.39.34.98.86,1.66,1.44,1.25,1.07,2.71,1.58,4.45,1.58h3.39c.47,0,.85-.38.85-.85s-.38-.85-.85-.85h0ZM11.37,7.07c0-.71.57-1.28,1.28-1.28.71,0,1.28.57,1.28,1.28,0,.71-.57,1.28-1.28,1.28h0c-.71,0-1.28-.57-1.28-1.28h0Z"/>
        <path class="cls-3" d="M23.49,44.78h-6.81c-1.32,0-2.42-.39-3.35-1.18-.61-.52-1.15-.99-1.53-1.32.82-1.43.33-3.25-1.1-4.07-1.43-.82-3.25-.33-4.07,1.1s-.33,3.25,1.1,4.07c.87.5,1.94.53,2.83.08.39.34.98.86,1.66,1.44,1.25,1.07,2.71,1.58,4.45,1.58h6.81c.47,0,.85-.38.85-.85s-.38-.85-.85-.85h0ZM7.94,40.8c0-.71.57-1.28,1.28-1.28.71,0,1.28.57,1.28,1.28,0,.71-.57,1.28-1.28,1.28h0c-.71,0-1.28-.57-1.28-1.28Z"/>
        <path class="cls-3" d="M23.49,24.54h-10.75c-1.75,0-3.21.52-4.45,1.58-.68.58-1.27,1.1-1.66,1.44-1.47-.74-3.27-.15-4.01,1.32-.74,1.47-.15,3.27,1.32,4.01s3.27.15,4.01-1.32c.45-.9.42-1.96-.08-2.83.38-.33.92-.8,1.53-1.32.93-.79,2.03-1.18,3.35-1.18h10.75c.47,0,.85-.38.85-.85s-.38-.85-.85-.85h0ZM5.28,31.5c-.71,0-1.28-.57-1.28-1.28,0-.71.57-1.28,1.28-1.28.71,0,1.28.57,1.28,1.28h0c0,.71-.57,1.28-1.28,1.28Z"/>
        <path class="cls-3" d="M23.49,6h-4.44c-.47,0-.85-.38-.85-.85s.38-.85.85-.85h4.44c.47,0,.85.38.85.85s-.38.85-.85.85Z"/>
        <path class="cls-3" d="M23.49,17.79h-13.23c-.47-1.58-2.13-2.48-3.71-2.01-1.58.47-2.48,2.13-2.01,3.71s2.13,2.48,3.71,2.01c.96-.29,1.72-1.04,2.01-2.01h13.23c.47,0,.85-.38.85-.85s-.38-.85-.85-.85ZM7.41,19.92c-.71,0-1.28-.57-1.28-1.28,0-.71.57-1.28,1.28-1.28.67,0,1.22.51,1.28,1.18,0,.03,0,.07,0,.1,0,.03,0,.07,0,.1-.05.66-.61,1.18-1.27,1.18Z"/>
        <path class="cls-3" d="M23.49,31.29h-5.32c-.47-1.58-2.13-2.48-3.71-2.01-1.58.47-2.48,2.13-2.01,3.71.47,1.58,2.13,2.48,3.71,2.01.96-.29,1.72-1.04,2.01-2.01h5.32c.47,0,.85-.38.85-.85s-.38-.85-.85-.85ZM15.31,33.42c-.71,0-1.28-.57-1.28-1.28s.57-1.28,1.28-1.28c.67,0,1.22.51,1.27,1.18,0,.07,0,.14,0,.2-.05.66-.61,1.17-1.27,1.17h0Z"/>
        <path class="cls-3" d="M23.49,39.74h-7.38c-.47,0-.85-.38-.85-.85s.38-.85.85-.85h7.38c.47,0,.85.38.85.85s-.38.85-.85.85Z"/>
      </g>
    </g>
  </g>
</svg>