<?xml version="1.0" encoding="UTF-8"?>
<svg id="Layer_2" xmlns="http://www.w3.org/2000/svg" xmlns:xlink="http://www.w3.org/1999/xlink" viewBox="0 0 50 50">
  <defs>
    <style>
      .cls-1 {
        fill: #f16027;
        fill-rule: evenodd;
      }

      .cls-2 {
        fill: none;
      }

      .cls-3 {
        clip-path: url(#clippath);
      }
    </style>
    <clipPath id="clippath">
      <rect class="cls-2" width="50" height="50"/>
    </clipPath>
  </defs>
  <g id="Layer_1-2" data-name="Layer_1">
    <g class="cls-3">
      <g>
        <path class="cls-1" d="M11.55,1.14c-1.14,0-2.06.93-2.06,2.06v16.35c0,1.14.93,2.06,2.06,2.06h26.9c1.14,0,2.06-.93,2.06-2.06V3.21c0-1.14-.93-2.06-2.06-2.06H11.55ZM38.45,22.77H11.55c-1.77,0-3.21-1.44-3.21-3.21V3.21c0-1.77,1.44-3.21,3.21-3.21h26.9c1.77,0,3.21,1.44,3.21,3.21v16.35c0,1.77-1.44,3.21-3.21,3.21Z"/>
        <path class="cls-1" d="M24.9,12.05c.12,0,.24.04.35.12l1.85,1.41V1.15h-4.2v12.38l1.64-1.34c.1-.09.23-.13.36-.13h0ZM22.33,15.31c-.08,0-.17-.02-.24-.05-.2-.1-.33-.3-.33-.52V.57c0-.32.26-.57.57-.57h5.34c.32,0,.57.26.57.57v14.16c0,.22-.12.42-.32.51-.19.1-.43.07-.6-.06l-2.41-1.84-2.22,1.82c-.1.08-.23.13-.36.13h0Z"/>
        <path class="cls-1" d="M12.78,6.77h5.68v-2.15h-5.68v2.15ZM19.03,7.92h-6.82c-.32,0-.57-.26-.57-.57v-3.3c0-.32.26-.57.57-.57h6.82c.32,0,.57.26.57.57v3.3c0,.32-.26.57-.57.57Z"/>
        <path class="cls-1" d="M12.78,12.44h5.68v-2.15h-5.68v2.15ZM19.03,13.59h-6.82c-.32,0-.57-.26-.57-.57v-3.3c0-.32.26-.57.57-.57h6.82c.32,0,.57.26.57.57v3.3c0,.32-.26.57-.57.57Z"/>
        <path class="cls-1" d="M31.54,6.77h5.68v-2.15h-5.68v2.15ZM37.79,7.92h-6.82c-.32,0-.57-.26-.57-.57v-3.3c0-.32.25-.57.57-.57h6.82c.32,0,.57.26.57.57v3.3c0,.32-.26.57-.57.57Z"/>
        <path class="cls-1" d="M31.54,12.44h5.68v-2.15h-5.68v2.15ZM37.79,13.59h-6.82c-.32,0-.57-.26-.57-.57v-3.3c0-.32.25-.57.57-.57h6.82c.32,0,.57.26.57.57v3.3c0,.32-.26.57-.57.57Z"/>
        <path class="cls-1" d="M13.23,19.89c-.32,0-.57-.26-.57-.57v-1.71c0-.32.26-.57.57-.57s.57.26.57.57v1.71c0,.32-.26.57-.57.57Z"/>
        <path class="cls-1" d="M16.59,19.89c-.32,0-.57-.26-.57-.57v-1.71c0-.32.25-.57.57-.57s.57.26.57.57v1.71c0,.32-.25.57-.57.57Z"/>
        <path class="cls-1" d="M19.96,19.89c-.32,0-.57-.26-.57-.57v-1.71c0-.32.26-.57.57-.57s.57.26.57.57v1.71c0,.32-.26.57-.57.57Z"/>
        <path class="cls-1" d="M23.32,19.89c-.32,0-.57-.26-.57-.57v-1.71c0-.32.26-.57.57-.57s.57.26.57.57v1.71c0,.32-.26.57-.57.57Z"/>
        <path class="cls-1" d="M26.68,19.89c-.32,0-.57-.26-.57-.57v-1.71c0-.32.25-.57.57-.57s.57.26.57.57v1.71c0,.32-.25.57-.57.57Z"/>
        <path class="cls-1" d="M30.04,19.89c-.32,0-.57-.26-.57-.57v-1.71c0-.32.26-.57.57-.57s.57.26.57.57v1.71c0,.32-.26.57-.57.57Z"/>
        <path class="cls-1" d="M33.41,19.89c-.32,0-.57-.26-.57-.57v-1.71c0-.32.26-.57.57-.57s.57.26.57.57v1.71c0,.32-.26.57-.57.57Z"/>
        <path class="cls-1" d="M36.77,19.89c-.32,0-.57-.26-.57-.57v-1.71c0-.32.26-.57.57-.57s.57.26.57.57v1.71c0,.32-.25.57-.57.57Z"/>
        <path class="cls-1" d="M39.13,41h3.72v-12.06h-3.72v12.06ZM43.41,42.15h-4.86c-.32,0-.57-.26-.57-.57v-13.21c0-.32.26-.57.57-.57h4.86c.32,0,.57.26.57.57v13.21c0,.32-.25.57-.57.57Z"/>
        <path class="cls-1" d="M37.68,30.95c-2.9,0-4.63-.67-6.31-1.32-.31-.12-.63-.25-.95-.36-.3-.11-.45-.44-.34-.73.11-.3.44-.45.73-.34.33.12.66.25.98.37,1.73.67,3.52,1.37,6.74,1.23.32-.02.58.23.6.55.01.32-.23.58-.55.6-.31.01-.61.02-.9.02h0ZM17.53,37.02c-.83,0-1.29-.36-1.54-.7-1.05-1.43.25-4.38,2.84-6.45.25-.2.61-.16.81.09.2.25.16.61-.09.81-2.36,1.88-3.15,4.18-2.63,4.88.27.37,1.45.52,4.13-1.31.26-.18.62-.11.8.15.18.26.11.62-.15.79-1.94,1.32-3.26,1.74-4.16,1.74h0ZM32.86,40.22c-.31,0-.57-.25-.57-.57,0-.32.25-.57.57-.58l5.7-.05h0c.31,0,.57.25.57.57,0,.32-.25.57-.57.58l-5.7.05h0Z"/>
        <path class="cls-1" d="M19.15,30.9h-7.7c-.32,0-.57-.26-.57-.57s.26-.57.57-.57h7.7c.32,0,.57.26.57.57s-.25.57-.57.57ZM23.49,49.99c-.62,0-1.24-.21-1.71-.62l-7.75-6.8h-2.58c-.32,0-.57-.26-.57-.57s.26-.57.57-.57h2.8c.14,0,.27.05.38.14l7.92,6.95c.52.45,1.39.45,1.91,0,.23-.2.35-.46.35-.74s-.13-.54-.35-.74c-.13-.11-.2-.27-.2-.43,0-.13.05-.27.14-.38.21-.24.57-.26.81-.05.52.45,1.39.45,1.91,0,.23-.2.35-.46.35-.74s-.13-.54-.35-.74c-.13-.11-.2-.27-.2-.43,0-.13.05-.27.14-.38.21-.24.57-.26.81-.05.52.45,1.39.45,1.91,0,.23-.2.35-.46.35-.74s-.13-.54-.35-.74c-.13-.11-.2-.27-.2-.43,0-.13.05-.27.14-.38.21-.24.57-.26.81-.05.52.45,1.39.45,1.91,0,.22-.2.35-.45.35-.72,0-.27-.11-.52-.32-.72l-4.92-4.35c-.24-.21-.26-.57-.05-.81.21-.24.57-.26.81-.05l4.93,4.35h.01c.45.44.69,1,.68,1.59-.01.6-.28,1.15-.74,1.56-.52.46-1.23.67-1.92.61,0,.04,0,.08,0,.13,0,.61-.26,1.18-.74,1.6-.53.46-1.23.67-1.92.61,0,.04,0,.08,0,.13,0,.61-.27,1.18-.74,1.6-.52.46-1.23.67-1.92.61,0,.04,0,.08,0,.13,0,.61-.26,1.18-.74,1.6-.47.41-1.09.62-1.71.62h0Z"/>
        <path class="cls-1" d="M24.82,47.18c-.13,0-.27-.05-.38-.14l-3.92-3.44c-.24-.21-.26-.57-.05-.81.21-.24.57-.26.81-.05l3.92,3.44c.24.21.26.57.05.81-.11.13-.27.2-.43.19h0Z"/>
        <path class="cls-1" d="M27.48,44.84c-.13,0-.27-.05-.38-.14l-3.92-3.44c-.24-.21-.26-.57-.05-.81.21-.24.57-.26.81-.05l3.92,3.44c.24.21.26.57.05.81-.11.13-.27.2-.43.2h0Z"/>
        <path class="cls-1" d="M30.15,42.51c-.13,0-.27-.05-.38-.14l-3.92-3.44c-.24-.21-.26-.57-.05-.81.21-.24.57-.26.81-.05l3.92,3.44c.24.21.26.57.05.81-.11.13-.27.2-.43.2h0Z"/>
        <path class="cls-1" d="M7.16,42.88h3.72v-13.43h-3.72v13.43ZM11.45,44.02h-4.86c-.32,0-.57-.26-.57-.57v-14.57c0-.32.26-.57.57-.57h4.86c.32,0,.57.26.57.57v14.57c0,.32-.26.57-.57.57Z"/>
        <path class="cls-1" d="M25,25.01c-2.89,0-5.25,2.35-5.25,5.25s2.35,5.25,5.25,5.25,5.25-2.35,5.25-5.25-2.35-5.25-5.25-5.25ZM25,36.65c-3.52,0-6.39-2.87-6.39-6.39s2.87-6.39,6.39-6.39,6.39,2.87,6.39,6.39-2.87,6.39-6.39,6.39Z"/>
        <path class="cls-1" d="M22.81,31.99l.46.46,1.33-1.33c.11-.11.25-.17.4-.17s.3.06.4.17l1.33,1.33.46-.46-1.33-1.33c-.22-.22-.22-.59,0-.81l1.33-1.33-.46-.46-1.33,1.33c-.22.22-.59.22-.81,0l-1.33-1.33-.46.46,1.33,1.33c.22.22.22.59,0,.81l-1.33,1.33ZM26.73,33.83c-.15,0-.3-.06-.4-.17l-1.33-1.33-1.33,1.33c-.11.11-.25.17-.4.17s-.3-.06-.4-.17l-1.27-1.27c-.22-.22-.22-.59,0-.81l1.33-1.33-1.33-1.33c-.22-.22-.22-.59,0-.81l1.27-1.27c.11-.11.25-.17.4-.17s.3.06.4.17l1.33,1.33,1.33-1.33c.11-.11.25-.17.4-.17s.3.06.4.17l1.27,1.27c.22.22.22.59,0,.81l-1.33,1.33,1.33,1.33c.22.22.22.59,0,.81l-1.27,1.27c-.11.11-.25.17-.4.17Z"/>
      </g>
    </g>
  </g>
</svg>