<?xml version="1.0" encoding="UTF-8"?>
<svg id="Layer_2" xmlns="http://www.w3.org/2000/svg" viewBox="0 0 49.93 50">
  <defs>
    <style>
      .cls-1 {
        fill: #f16027;
        fill-rule: evenodd;
      }
    </style>
  </defs>
  <g id="Layer_1-2" data-name="Layer_1">
    <path class="cls-1" d="M24.96,35.58c-5.91,0-10.72-4.81-10.72-10.72s4.81-10.72,10.72-10.72,10.72,4.81,10.72,10.72-4.81,10.72-10.72,10.72ZM24.96,12.62c-6.74,0-12.24,5.49-12.24,12.24s5.49,12.24,12.24,12.24,12.24-5.49,12.24-12.24-5.49-12.24-12.24-12.24ZM41.14,34.13l6.42-.89-6.86-6.86c-.41,4.26-2.52,8.04-5.64,10.64l4.56,4.56.88-6.79c.04-.34.31-.61.64-.65h0ZM24.96,39.15c7.88,0,14.29-6.41,14.29-14.29s-6.41-14.29-14.29-14.29-14.29,6.41-14.29,14.29c0,7.88,6.41,14.29,14.29,14.29ZM30.72,47.43l-5.17-3.91c-.27-.21-.65-.2-.92,0l-5.42,4.18v-8.13c1.78.7,3.73,1.08,5.75,1.08s3.97-.38,5.76-1.08v7.85ZM10.71,41.48l4.33-4.33c-3.15-2.54-5.3-6.27-5.78-10.49l-6.88,6.88,6.79.88c.34.04.61.31.65.64l.89,6.42ZM9.4,5.96l3.47,8.73c2.9-3.45,7.25-5.64,12.1-5.64s9.2,2.2,12.1,5.64l3.47-8.73c-.98-.61-2-1.17-3.05-1.66-.84,2.15-2.27,4.56-5.1,4.56s-5.27-2.36-5.27-5.27v-1.99c-1.44-.1-2.85-.1-4.29,0v1.99c0,2.91-2.37,5.27-5.27,5.27s-4.26-2.41-5.1-4.56c-1.05.49-2.07,1.05-3.05,1.66h0ZM49.7,33.25l-8.95-8.95c-.1-3.02-1.06-5.83-2.64-8.19l4.04-10.17c.13-.33.01-.71-.29-.91-1.44-.94-2.96-1.76-4.52-2.45-.19-.09-.41-.09-.61,0-.19.09-.34.25-.41.45-1.03,2.99-2.24,4.32-3.95,4.32-2.07,0-3.76-1.69-3.76-3.76V.9c0-.39-.3-.72-.69-.75-2-.19-3.95-.19-5.95,0-.39.04-.68.36-.68.75v2.69c0,2.07-1.69,3.76-3.76,3.76-1.71,0-2.93-1.33-3.95-4.32-.07-.2-.22-.36-.41-.45-.19-.09-.41-.09-.61,0-1.57.68-3.09,1.51-4.52,2.45-.3.2-.42.58-.29.91l4.04,10.17c-1.63,2.44-2.6,5.37-2.64,8.5L.22,33.55c-.2.2-.28.51-.18.78.09.27.33.47.62.51l7.74,1.01,1.02,7.35c.04.28.24.52.51.61.08.03.16.04.24.04.2,0,.39-.08.54-.22l5.57-5.57c.46.3.93.58,1.42.83v10.35c0,.29.16.55.42.68.11.05.22.08.33.08.16,0,.33-.05.46-.16l6.18-4.76,5.92,4.48c.23.17.54.2.8.07.26-.13.42-.39.42-.68v-10.06c.55-.29,1.09-.61,1.6-.96l5.8,5.8c.14.14.34.22.53.22.08,0,.16-.01.25-.04.27-.09.47-.33.51-.62l1.01-7.74,7.35-1.02c.28-.04.52-.24.61-.51.09-.27.02-.57-.18-.77h0ZM27.26,25.86l2.57-1.86h-3.17c-.33,0-.62-.21-.72-.52l-.97-3.01-.97,3.01c-.1.31-.39.52-.72.52h-3.17s2.57,1.85,2.57,1.85c.27.19.38.54.28.85l-.98,3.01,2.56-1.87c.13-.1.29-.15.45-.15s.31.05.45.15l2.56,1.87-.98-3.01c-.1-.31,0-.65.28-.85h0ZM32.89,23.01c-.1-.31-.39-.52-.72-.52h-4.96s-1.52-4.71-1.52-4.71c-.1-.31-.39-.52-.72-.52s-.62.21-.72.52l-1.52,4.72h-4.96s0,0,0,0c-.33,0-.62.21-.72.52s0,.65.28.85l4.02,2.91-1.54,4.71c-.1.31,0,.65.28.85.27.19.62.19.89,0l4.01-2.92,4.01,2.92c.13.1.29.15.45.15s.31-.05.44-.14c.27-.19.38-.54.28-.85l-1.54-4.71,4.02-2.91c.26-.19.38-.54.28-.85h0Z"/>
  </g>
</svg>