<?xml version="1.0" encoding="UTF-8"?>
<svg xmlns="http://www.w3.org/2000/svg" version="1.1" xmlns:xlink="http://www.w3.org/1999/xlink" viewBox="0 0 98 60">
  <defs>
    <style>
      .cls-1 {
        clip-path: url(#clippath-4);
      }

      .cls-2 {
        fill: none;
      }

      .cls-3 {
        clip-path: url(#clippath-1);
      }

      .cls-4, .cls-5 {
        fill: #f15d22;
      }

      .cls-5 {
        fill-rule: evenodd;
      }

      .cls-6 {
        clip-path: url(#clippath-3);
      }

      .cls-7 {
        display: none;
      }

      .cls-8 {
        clip-path: url(#clippath-2);
      }

      .cls-9 {
        clip-path: url(#clippath);
      }
    </style>
    <clipPath id="clippath">
      <rect class="cls-2" width="98" height="60"/>
    </clipPath>
    <clipPath id="clippath-1">
      <rect class="cls-2" width="98" height="60"/>
    </clipPath>
    <clipPath id="clippath-2">
      <rect class="cls-2" width="98" height="60"/>
    </clipPath>
    <clipPath id="clippath-3">
      <rect class="cls-2" width="98" height="60"/>
    </clipPath>
    <clipPath id="clippath-4">
      <rect class="cls-2" width="98" height="60"/>
    </clipPath>
  </defs>
  <!-- Generator: Adobe Illustrator 28.6.0, SVG Export Plug-In . SVG Version: 1.2.0 Build 709)  -->
  <g>
    <g id="Layer_1">
      <g id="talent" class="cls-7">
        <g class="cls-9">
          <g>
            <path class="cls-4" d="M49,15.1c-7,0-12.6,5.7-12.6,12.6s5.7,12.6,12.6,12.6,12.6-5.7,12.6-12.6-5.7-12.6-12.6-12.6ZM49,39.3c-6.4,0-11.6-5.2-11.6-11.6s5.2-11.6,11.6-11.6,11.6,5.2,11.6,11.6-5.2,11.6-11.6,11.6Z"/>
            <path class="cls-4" d="M49,15.1c-7,0-12.6,5.7-12.6,12.6s5.7,12.6,12.6,12.6,12.6-5.7,12.6-12.6-5.7-12.6-12.6-12.6ZM49,39.3c-6.4,0-11.6-5.2-11.6-11.6s5.2-11.6,11.6-11.6,11.6,5.2,11.6,11.6-5.2,11.6-11.6,11.6Z"/>
            <path class="cls-4" d="M49,42.6c-9.7,0-17.9,7.2-19.1,16.8,0,.2,0,.3.1.4.1.1.3.2.4.2h37.2c.2,0,.3,0,.4-.2.1-.1.2-.3.1-.4-1.2-9.6-9.5-16.8-19.1-16.8ZM31,58.9v-.4c1.7-8.6,9.2-14.9,18-14.9s16.3,6.3,17.9,14.9v.4c0,0-35.9,0-35.9,0Z"/>
            <path class="cls-4" d="M49,42.6c-9.7,0-17.9,7.2-19.1,16.8,0,.2,0,.3.1.4.1.1.3.2.4.2h37.2c.2,0,.3,0,.4-.2.1-.1.2-.3.1-.4-1.2-9.6-9.5-16.8-19.1-16.8ZM31,58.9v-.4c1.7-8.6,9.2-14.9,18-14.9s16.3,6.3,17.9,14.9v.4c0,0-35.9,0-35.9,0Z"/>
            <path class="cls-4" d="M39.4,4c0-.1-.1-.2-.3-.2l-3.4-.5-1.5-3.1c0-.1-.2-.2-.3-.2s-.2,0-.3.2l-1.5,3.1-3.4.5c-.1,0-.2.1-.3.2,0,.1,0,.3,0,.3l2.5,2.4-.6,3.4c0,.1,0,.3.1.3,0,0,.1,0,.2,0s.1,0,.2,0l3.1-1.6,3.1,1.6c0,0,.1,0,.2,0s.1,0,.2,0c.1,0,.2-.2.1-.3l-.6-3.4,2.5-2.4c.1,0,.1-.2,0-.3ZM36.3,6.4c0,0-.1.2-.1.3l.5,2.9-2.6-1.4s0,0-.1,0-.1,0-.2,0l-2.6,1.4.5-2.9c0-.1,0-.2,0-.3l-2.1-2.1,2.9-.4c.1,0,.2,0,.3-.2l1.3-2.7,1.3,2.7c0,0,.2.2.3.2l2.9.4-2.1,2.1Z"/>
            <path class="cls-4" d="M39.4,4c0-.1-.1-.2-.3-.2l-3.4-.5-1.5-3.1c0-.1-.2-.2-.3-.2s-.2,0-.3.2l-1.5,3.1-3.4.5c-.1,0-.2.1-.3.2,0,.1,0,.3,0,.3l2.5,2.4-.6,3.4c0,.1,0,.3.1.3,0,0,.1,0,.2,0s.1,0,.2,0l3.1-1.6,3.1,1.6c0,0,.1,0,.2,0s.1,0,.2,0c.1,0,.2-.2.1-.3l-.6-3.4,2.5-2.4c.1,0,.1-.2,0-.3ZM36.3,6.4c0,0-.1.2-.1.3l.5,2.9-2.6-1.4s0,0-.1,0-.1,0-.2,0l-2.6,1.4.5-2.9c0-.1,0-.2,0-.3l-2.1-2.1,2.9-.4c.1,0,.2,0,.3-.2l1.3-2.7,1.3,2.7c0,0,.2.2.3.2l2.9.4-2.1,2.1Z"/>
            <path class="cls-4" d="M39.4,4c0-.1-.1-.2-.3-.2l-3.4-.5-1.5-3.1c0-.1-.2-.2-.3-.2s-.2,0-.3.2l-1.5,3.1-3.4.5c-.1,0-.2.1-.3.2,0,.1,0,.3,0,.3l2.5,2.4-.6,3.4c0,.1,0,.3.1.3,0,0,.1,0,.2,0s.1,0,.2,0l3.1-1.6,3.1,1.6c0,0,.1,0,.2,0s.1,0,.2,0c.1,0,.2-.2.1-.3l-.6-3.4,2.5-2.4c.1,0,.1-.2,0-.3ZM36.3,6.4c0,0-.1.2-.1.3l.5,2.9-2.6-1.4s0,0-.1,0-.1,0-.2,0l-2.6,1.4.5-2.9c0-.1,0-.2,0-.3l-2.1-2.1,2.9-.4c.1,0,.2,0,.3-.2l1.3-2.7,1.3,2.7c0,0,.2.2.3.2l2.9.4-2.1,2.1Z"/>
            <path class="cls-4" d="M39.4,4c0-.1-.1-.2-.3-.2l-3.4-.5-1.5-3.1c0-.1-.2-.2-.3-.2s-.2,0-.3.2l-1.5,3.1-3.4.5c-.1,0-.2.1-.3.2,0,.1,0,.3,0,.3l2.5,2.4-.6,3.4c0,.1,0,.3.1.3,0,0,.1,0,.2,0s.1,0,.2,0l3.1-1.6,3.1,1.6c0,0,.1,0,.2,0s.1,0,.2,0c.1,0,.2-.2.1-.3l-.6-3.4,2.5-2.4c.1,0,.1-.2,0-.3ZM36.3,6.4c0,0-.1.2-.1.3l.5,2.9-2.6-1.4s0,0-.1,0-.1,0-.2,0l-2.6,1.4.5-2.9c0-.1,0-.2,0-.3l-2.1-2.1,2.9-.4c.1,0,.2,0,.3-.2l1.3-2.7,1.3,2.7c0,0,.2.2.3.2l2.9.4-2.1,2.1Z"/>
            <path class="cls-4" d="M54.5,4c0-.1-.2-.2-.3-.2l-3.4-.5-1.5-3.1c0-.1-.2-.2-.3-.2s-.2,0-.3.2l-1.5,3.1-3.4.5c-.1,0-.2.1-.3.2,0,.1,0,.3,0,.3l2.5,2.4-.6,3.4c0,.1,0,.3.1.3,0,0,.1,0,.2,0s.1,0,.2,0l3.1-1.6,3.1,1.6c0,0,.1,0,.2,0s.1,0,.2,0c.1,0,.2-.2.1-.3l-.6-3.4,2.5-2.4c.1,0,.1-.2,0-.3ZM51.4,6.4c0,0-.1.2,0,.3l.5,2.9-2.6-1.4s0,0-.2,0-.1,0-.2,0l-2.6,1.4.5-2.9c0-.1,0-.2-.1-.3l-2.1-2.1,2.9-.4c.1,0,.2,0,.3-.2l1.3-2.7,1.3,2.7c0,0,.1.2.2.2l2.9.4-2.1,2.1Z"/>
            <path class="cls-4" d="M54.5,4c0-.1-.2-.2-.3-.2l-3.4-.5-1.5-3.1c0-.1-.2-.2-.3-.2s-.2,0-.3.2l-1.5,3.1-3.4.5c-.1,0-.2.1-.3.2,0,.1,0,.3,0,.3l2.5,2.4-.6,3.4c0,.1,0,.3.1.3,0,0,.1,0,.2,0s.1,0,.2,0l3.1-1.6,3.1,1.6c0,0,.1,0,.2,0s.1,0,.2,0c.1,0,.2-.2.1-.3l-.6-3.4,2.5-2.4c.1,0,.1-.2,0-.3ZM51.4,6.4c0,0-.1.2,0,.3l.5,2.9-2.6-1.4s0,0-.2,0-.1,0-.2,0l-2.6,1.4.5-2.9c0-.1,0-.2-.1-.3l-2.1-2.1,2.9-.4c.1,0,.2,0,.3-.2l1.3-2.7,1.3,2.7c0,0,.1.2.2.2l2.9.4-2.1,2.1Z"/>
            <path class="cls-4" d="M54.5,4c0-.1-.2-.2-.3-.2l-3.4-.5-1.5-3.1c0-.1-.2-.2-.3-.2s-.2,0-.3.2l-1.5,3.1-3.4.5c-.1,0-.2.1-.3.2,0,.1,0,.3,0,.3l2.5,2.4-.6,3.4c0,.1,0,.3.1.3,0,0,.1,0,.2,0s.1,0,.2,0l3.1-1.6,3.1,1.6c0,0,.1,0,.2,0s.1,0,.2,0c.1,0,.2-.2.1-.3l-.6-3.4,2.5-2.4c.1,0,.1-.2,0-.3ZM51.4,6.4c0,0-.1.2,0,.3l.5,2.9-2.6-1.4s0,0-.2,0-.1,0-.2,0l-2.6,1.4.5-2.9c0-.1,0-.2-.1-.3l-2.1-2.1,2.9-.4c.1,0,.2,0,.3-.2l1.3-2.7,1.3,2.7c0,0,.1.2.2.2l2.9.4-2.1,2.1Z"/>
            <path class="cls-4" d="M54.5,4c0-.1-.2-.2-.3-.2l-3.4-.5-1.5-3.1c0-.1-.2-.2-.3-.2s-.2,0-.3.2l-1.5,3.1-3.4.5c-.1,0-.2.1-.3.2,0,.1,0,.3,0,.3l2.5,2.4-.6,3.4c0,.1,0,.3.1.3,0,0,.1,0,.2,0s.1,0,.2,0l3.1-1.6,3.1,1.6c0,0,.1,0,.2,0s.1,0,.2,0c.1,0,.2-.2.1-.3l-.6-3.4,2.5-2.4c.1,0,.1-.2,0-.3ZM51.4,6.4c0,0-.1.2,0,.3l.5,2.9-2.6-1.4s0,0-.2,0-.1,0-.2,0l-2.6,1.4.5-2.9c0-.1,0-.2-.1-.3l-2.1-2.1,2.9-.4c.1,0,.2,0,.3-.2l1.3-2.7,1.3,2.7c0,0,.1.2.2.2l2.9.4-2.1,2.1Z"/>
            <path class="cls-4" d="M69.6,4c0-.1-.1-.2-.3-.2l-3.4-.5-1.5-3.1c0-.1-.2-.2-.3-.2s-.2,0-.3.2l-1.5,3.1-3.4.5c-.1,0-.2.1-.3.2,0,.1,0,.3,0,.4l2.5,2.4-.6,3.4c0,.1,0,.3.1.3,0,0,.1,0,.2,0s.1,0,.2,0l3.1-1.6,3.1,1.6s0,0,.2,0,.1,0,.2,0c.1,0,.2-.2.1-.3l-.6-3.4,2.5-2.4c0,0,.1-.2,0-.4ZM66.5,6.4c0,0-.1.2,0,.3l.5,2.9-2.6-1.4c0,0-.1,0-.2,0s-.1,0-.2,0l-2.6,1.4.5-2.9c0-.1,0-.2,0-.3l-2.1-2.1,2.9-.4c.1,0,.2,0,.3-.2l1.3-2.7,1.3,2.7c0,0,.2.2.3.2l2.9.4-2.1,2.1Z"/>
            <path class="cls-4" d="M69.6,4c0-.1-.1-.2-.3-.2l-3.4-.5-1.5-3.1c0-.1-.2-.2-.3-.2s-.2,0-.3.2l-1.5,3.1-3.4.5c-.1,0-.2.1-.3.2,0,.1,0,.3,0,.4l2.5,2.4-.6,3.4c0,.1,0,.3.1.3,0,0,.1,0,.2,0s.1,0,.2,0l3.1-1.6,3.1,1.6s0,0,.2,0,.1,0,.2,0c.1,0,.2-.2.1-.3l-.6-3.4,2.5-2.4c0,0,.1-.2,0-.4ZM66.5,6.4c0,0-.1.2,0,.3l.5,2.9-2.6-1.4c0,0-.1,0-.2,0s-.1,0-.2,0l-2.6,1.4.5-2.9c0-.1,0-.2,0-.3l-2.1-2.1,2.9-.4c.1,0,.2,0,.3-.2l1.3-2.7,1.3,2.7c0,0,.2.2.3.2l2.9.4-2.1,2.1Z"/>
            <path class="cls-4" d="M69.6,4c0-.1-.1-.2-.3-.2l-3.4-.5-1.5-3.1c0-.1-.2-.2-.3-.2s-.2,0-.3.2l-1.5,3.1-3.4.5c-.1,0-.2.1-.3.2,0,.1,0,.3,0,.4l2.5,2.4-.6,3.4c0,.1,0,.3.1.3,0,0,.1,0,.2,0s.1,0,.2,0l3.1-1.6,3.1,1.6s0,0,.2,0,.1,0,.2,0c.1,0,.2-.2.1-.3l-.6-3.4,2.5-2.4c0,0,.1-.2,0-.4ZM66.5,6.4c0,0-.1.2,0,.3l.5,2.9-2.6-1.4c0,0-.1,0-.2,0s-.1,0-.2,0l-2.6,1.4.5-2.9c0-.1,0-.2,0-.3l-2.1-2.1,2.9-.4c.1,0,.2,0,.3-.2l1.3-2.7,1.3,2.7c0,0,.2.2.3.2l2.9.4-2.1,2.1Z"/>
            <path class="cls-4" d="M69.6,4c0-.1-.1-.2-.3-.2l-3.4-.5-1.5-3.1c0-.1-.2-.2-.3-.2s-.2,0-.3.2l-1.5,3.1-3.4.5c-.1,0-.2.1-.3.2,0,.1,0,.3,0,.4l2.5,2.4-.6,3.4c0,.1,0,.3.1.3,0,0,.1,0,.2,0s.1,0,.2,0l3.1-1.6,3.1,1.6s0,0,.2,0,.1,0,.2,0c.1,0,.2-.2.1-.3l-.6-3.4,2.5-2.4c0,0,.1-.2,0-.4ZM66.5,6.4c0,0-.1.2,0,.3l.5,2.9-2.6-1.4c0,0-.1,0-.2,0s-.1,0-.2,0l-2.6,1.4.5-2.9c0-.1,0-.2,0-.3l-2.1-2.1,2.9-.4c.1,0,.2,0,.3-.2l1.3-2.7,1.3,2.7c0,0,.2.2.3.2l2.9.4-2.1,2.1Z"/>
          </g>
        </g>
      </g>
      <g id="selection" class="cls-7">
        <g class="cls-3">
          <path class="cls-5" d="M35.9,60c-.3,0-.5-.2-.5-.5v-6.6c0-.2,0-.3.3-.4h.1c0,0-2-7.5-2-7.5-.5-2.1-.8-4.2-.8-6.4v-2.8c0-.7.3-1.4.8-2,.5-.5,1.2-.8,1.9-.8s1,.1,1.5.4l.3.2v-.3c0-.6.3-1.3.8-1.7.5-.5,1.2-.8,1.9-.8s1,.1,1.5.4l.3.2v-.3c0-.6.4-1.2.8-1.7.5-.5,1.2-.8,1.9-.8s1,.1,1.4.4l.3.2v-4h-.1c0-.1-19-.1-19-.1-.7,0-1.4-.4-1.9-1-.5-.6-.7-1.4-.5-2.2.7-3.4,3.1-6.2,6.3-7.4.3-.1.5-.2.8-.3h.1v-.3h0c-2.1-1.3-3.1-3.9-2.4-6.3.7-2.4,2.8-4,5.3-4,2.5,0,4.6,1.6,5.3,4,.7,2.4-.3,4.9-2.4,6.2l-.4.2h.4c.9.4,1.7.8,2.4,1.2h.1c0,0,.1,0,.1,0,.3-.3.5-.5.8-.7,1.3-1,2.7-1.8,4.3-2.2h.5c0-.1-.4-.4-.4-.4-2.5-1.5-3.7-4.5-2.9-7.2.8-2.8,3.3-4.8,6.2-4.8s5.5,2,6.2,4.8c.8,2.8-.5,5.8-2.9,7.2l-.4.2h.5c1.6.6,3.1,1.3,4.3,2.4.3.2.6.5.9.8h.1c0,.1.1,0,.1,0,.8-.5,1.6-.9,2.5-1.1h.4c0-.1-.4-.4-.4-.4-2.1-1.3-3.1-3.8-2.4-6.2.7-2.4,2.9-4,5.3-4s4.6,1.7,5.3,4c.7,2.4-.3,4.9-2.4,6.2l-.4.2h.4c.3.2.5.3.8.4h0c3.2,1.3,5.6,4,6.3,7.4,0,.2,0,.4,0,.5,0,.6-.2,1.2-.6,1.6-.4.5-.9.8-1.4.9-.2,0-.4,0-.6,0h-18.8v13.4l2.6-2.7c.5-.5,1.1-.8,1.8-.9,0,0,.2,0,.2,0,.6,0,1.2.2,1.6.6.6.5.9,1.1,1.1,1.8.1.7,0,1.4-.4,2l-5.6,8.3-2.7,5h.1c0,.2.1.3.1.4v6.6c0,.1,0,.3-.1.3,0,0-.2.1-.3.1h-14.5ZM36.4,59h13.5v-5.6h-13.5v5.6ZM35.6,34c-.4,0-.9.2-1.2.5-.3.4-.5.8-.5,1.3v2.8c0,2.1.3,4.1.8,6.1l2.1,7.7h12.8l2.9-5.4,5.7-8.4h0c.2-.4.3-.8.2-1.2,0-.5-.3-.9-.7-1.2-.3-.2-.7-.4-1.1-.4s0,0-.1,0c-.5,0-.9.3-1.2.6l-3.5,3.6c0,0-.2.2-.4.2s-.1,0-.2,0c-.2,0-.3-.3-.3-.5v-20.6c0-.5-.2-1-.6-1.4-.3-.4-.8-.6-1.3-.6s-1,.2-1.3.6c-.4.4-.5.9-.5,1.4v16.2c0,.3-.2.5-.5.5s-.5-.2-.5-.5v-4c0-1-.8-1.7-1.7-1.7-.5,0-.9.2-1.2.5-.3.3-.5.8-.5,1.3v5.1h-1v-2.9c0-.5-.2-.9-.5-1.3-.3-.3-.8-.5-1.2-.5h0c-.4,0-.9.2-1.2.5-.3.4-.5.8-.5,1.3v5.3c0,.3-.2.5-.5.5s-.5-.2-.5-.5v-3c0-1-.8-1.7-1.7-1.7ZM58.4,16.4c1.2,1.5,2,3.2,2.4,5.1.2.8,0,1.6-.4,2.3l-.2.3h10.5c.1,0,.2,0,.3,0,.4,0,.7-.3.9-.6.2-.3.4-.6.4-1s0-.2,0-.3c-.6-2.9-2.6-5.4-5.4-6.6-1.2-.5-2.5-.8-3.8-.8s-3.3.4-4.7,1.3l-.3.2.3.2ZM49,16.2c.8,0,1.5.3,2,.9.5.5.8,1.3.8,2.1v5h6.1c.6,0,1.2-.3,1.5-.7.4-.5.5-1.1.4-1.6-.4-1.9-1.4-3.7-2.7-5.2,0,0,0,0-.1-.1-2.1-2.2-5.1-3.5-8.2-3.5-3.1,0-6.1,1.3-8.2,3.5-1.4,1.5-2.4,3.3-2.8,5.3,0,.1,0,.2,0,.4,0,.5.2.9.5,1.3.3.4.7.6,1.2.7.1,0,.3,0,.4,0h6.2v-5c0-.8.3-1.5.8-2.1.5-.5,1.2-.9,2-.9h0ZM34.8,14.8c-4.4,0-8.2,3.1-9.2,7.4,0,.1,0,.2,0,.3,0,.7.5,1.4,1.2,1.5.1,0,.2,0,.3,0h10.6l-.2-.3c-.4-.5-.6-1.1-.6-1.7,0-.2,0-.4,0-.6.4-1.9,1.2-3.6,2.4-5.1h.4c0,0-.5-.4-.5-.4-1.1-.6-2.3-1-3.5-1.2-.4,0-.7,0-1.1,0ZM34.8,4.7c-1.8,0-3.5,1.1-4.2,2.8-.8,2-.1,4.3,1.7,5.5.7.5,1.6.8,2.5.8s2.4-.5,3.2-1.3c.8-.8,1.3-2,1.3-3.2,0-2.2-1.5-4-3.7-4.5-.3,0-.6,0-.9,0ZM63.2,4.7c-1.8,0-3.5,1.1-4.2,2.8-.8,2-.1,4.3,1.7,5.5.8.5,1.6.8,2.5.8h0c1.2,0,2.4-.5,3.2-1.3.8-.8,1.3-2,1.3-3.2,0-2.2-1.5-4-3.7-4.5-.3,0-.6,0-.9,0ZM48.9,1c-2.2,0-4.2,1.3-5,3.4-1,2.4-.1,5.2,2,6.6.9.6,2,.9,3,.9s2.8-.6,3.9-1.6c1-1,1.6-2.4,1.6-3.9,0-2.6-1.9-4.9-4.4-5.4-.4,0-.7-.1-1.1-.1Z"/>
        </g>
      </g>
      <g id="screening" class="cls-7">
        <g class="cls-8">
          <path class="cls-4" d="M44.4,60c-.1,0-.2,0-.3,0-.2-.1-.2-.3-.2-.5v-7.8l-13.6-12.7h-2.5c-.3,0-.5-.3-.5-.6v-4.7c0-.3.2-.5.5-.5h42.6c.3,0,.5.2.5.5v4.7c0,.3-.2.5-.5.5h-2.4l-13.7,12.6v4.1c0,.2-.2.4-.4.5l-9.2,3.9c0,0-.1,0-.2,0ZM44.8,50.9c.1.1.2.3.2.4v7.3l8.1-3.4v-3.9c0-.2,0-.3.2-.4l12.9-12H31.8l13,12ZM28.3,37.8h41.5v-3.6s-41.5,0-41.5,0v3.6ZM21.6,29.8c-.3,0-.5-.2-.5-.5v-4.8c0-4.1,2.9-7.7,6.9-8.5l.8-.2-.6-.5c-1.3-1.2-2-2.9-2-4.6,0-3.4,2.8-6.2,6.2-6.2s6.1,2.8,6.1,6.2-.7,3.3-1.8,4.4l-.7.7h2.6c1.6-1.7,3.6-2.7,5.7-2.9h.9c0,0-.7-.7-.7-.7-1.5-1.3-2.3-3.2-2.3-5.2,0-3.8,3.1-7,6.9-7s6.9,3.1,6.9,7-.8,3.9-2.3,5.2l-.7.6h.9c2.2.2,4.2,1.2,5.7,2.8h.2c0,.1,2.4.1,2.4.1l-.7-.7c-1.2-1.2-1.8-2.8-1.8-4.4,0-3.4,2.8-6.2,6.1-6.2s6.2,2.8,6.2,6.2-.7,3.4-2,4.6l-.6.5.8.2c4,.8,6.9,4.4,6.9,8.5v4.8c0,.3-.2.5-.5.5H21.6ZM70.3,24.7c.3,0,.5.2.5.5v3.5h5v-4.3c0-4.2-3.3-7.6-7.4-7.6h-7.9l.3.6c.7,1.3,1,2.7,1,4.1v7.2h7.9v-3.5c0-.3.2-.5.5-.5ZM27.7,24.9c.3,0,.5.2.5.5v3.3h8v-7.2c0-1.4.4-2.9,1-4.1l.3-.6h-8c-4.1,0-7.4,3.4-7.4,7.6v4.3h5v-3.3c0-.3.2-.5.5-.5ZM55.4,23.2c.3,0,.5.2.5.5v5h4.8v-7.2c0-4.2-3.3-7.6-7.4-7.6h-8.5c-4.1,0-7.4,3.4-7.4,7.6v7.2h4.8v-5c0-.3.2-.5.5-.5s.5.2.5.5v5h11.6v-5c0-.3.2-.5.5-.5ZM65.7,5.5c-2.8,0-5.1,2.3-5.1,5.1s2.3,5.1,5.1,5.1,5.1-2.3,5.1-5.1-2.3-5.1-5.1-5.1ZM32.3,5.5c-2.8,0-5.1,2.3-5.1,5.1s2.3,5.1,5.1,5.1,5.1-2.3,5.1-5.1-2.3-5.1-5.1-5.1ZM49.1,1.1c-3.2,0-5.8,2.6-5.8,5.9s2.6,5.9,5.8,5.9,5.8-2.6,5.8-5.9-2.6-5.9-5.8-5.9Z"/>
        </g>
      </g>
      <g id="interview" class="cls-7">
        <g class="cls-6">
          <path class="cls-5" d="M48.5,60c-.4,0-.6-.3-.6-.6v-5.3c0-4.5,2.7-8.5,6.9-10.3l.7-.3-.7-.4c-2.4-1.5-3.8-4-3.8-6.8,0-4.4,3.6-8,7.9-8s7.9,3.6,7.9,8-1.4,5.3-3.8,6.8l-.7.4.7.3c4.2,1.7,6.9,5.7,6.9,10.3v5.3c0,.4-.3.6-.6.6h-20.9ZM59,44.2c-5.4,0-9.8,4.4-9.8,9.8v4.7h19.6v-4.7c0-5.4-4.4-9.8-9.8-9.8ZM59.2,42.9c3.6-.1,6.4-3.1,6.4-6.7s-3-6.7-6.6-6.7-6.6,3-6.6,6.7,2.8,6.6,6.4,6.7h.3s.2,0,.2,0ZM20.8,39.9c-.2,0-.3,0-.5-.2-.1-.1-.2-.3-.2-.5v-5.3c0-4.5,2.7-8.5,6.9-10.3l.7-.3-.7-.4c-2.4-1.5-3.8-4-3.8-6.8,0-4.4,3.6-8,7.9-8s7.9,3.6,7.9,8-1.4,5.3-3.8,6.8l-.7.4.7.3c4.2,1.7,6.9,5.7,6.9,10.3v5.3c0,.2,0,.3-.2.5-.1.1-.3.2-.5.2h0-20.9ZM31,24.1c-5.3.1-9.5,4.4-9.5,9.8v4.7h19.6v-4.7c0-5.3-4.2-9.6-9.5-9.8h-.3s-.3,0-.3,0h0ZM31.3,9.4c-3.7,0-6.6,3-6.6,6.7s2.8,6.6,6.4,6.7h.3s.2,0,.2,0c3.6-.1,6.4-3.1,6.4-6.7s-3-6.7-6.6-6.7ZM45.8,22c-.2,0-.3,0-.4-.2-.3-.2-.3-.6,0-.9l4.8-5.6V3.8c0-2.1,1.7-3.8,3.8-3.8h20.1c2.1,0,3.8,1.7,3.8,3.8v14.4c0,2.1-1.7,3.8-3.8,3.8h-28.2ZM53.9,1.3c-1.4,0-2.5,1.1-2.5,2.5v11.7c0,.2,0,.3-.2.4l-4.1,4.8h26.8c1.4,0,2.5-1.1,2.5-2.5V3.8c0-1.4-1.1-2.5-2.5-2.5h-20.1ZM58.9,15c-.4,0-.6-.3-.6-.6,0-.4.3-.6.6-.6h10.5c.2,0,.3,0,.5.2.1.1.2.3.2.5,0,.4-.3.6-.6.6h-10.5ZM58.9,8.3c-.4,0-.6-.3-.6-.6,0-.4.3-.6.6-.6h10.5c.4,0,.6.3.6.6,0,.2,0,.3-.2.5s-.3.2-.5.2h-10.5Z"/>
        </g>
      </g>
      <g class="cls-1">
        <path class="cls-5" d="M41.4,60c-.7,0-1.4-.3-2-.8-.6-.5-.9-1.3-.9-2.1,0-1.3.9-2.5,2.2-2.8h0v-7.2c0-.3.3-.6.6-.6h9.7v-5.4h0c-2-.5-3.8-1.6-5.3-3h-14.4s0,6.6,0,6.6h0c1,.3,1.8,1,2.1,2,.3,1,0,2-.7,2.8-.5.5-1.2.8-2,.8s-1.4-.3-2-.8c-.6-.5-.9-1.3-.9-2.1,0-1.3.9-2.5,2.2-2.8h0v-7.2c0-.3.3-.6.6-.6h13.9v-.2c-1.5-1.8-2.2-4-2.4-6.2h0c0,0-14.8,0-14.8,0h0c-.3,1.4-1.4,2.3-2.8,2.3s-1.5-.3-2-.8c-.8-.8-1.1-2-.6-3.1s1.4-1.8,2.6-1.8,2.5.9,2.8,2.2h0c0,0,14.8,0,14.8,0h0c.1-2.4.9-4.5,2.3-6.3v-.2c.1,0-13.8,0-13.8,0-.3,0-.6-.3-.6-.6v-7.2h0c-1-.3-1.8-1-2.1-2-.3-1,0-2,.7-2.8.5-.5,1.2-.8,2-.8,1.4,0,2.9,1.1,2.9,2.8s-.9,2.5-2.2,2.8h0v6.6h14.3c1.5-1.5,3.4-2.5,5.4-3h0v-5.5h-9.7c-.3,0-.6-.3-.6-.6v-7.2h0c-1-.3-1.8-1-2.1-2-.3-1,0-2,.7-2.8.5-.5,1.2-.8,2-.8,1.4,0,2.9,1.1,2.9,2.8s-.9,2.5-2.2,2.8h0v6.6h9.1v-5.7h6.3c1.2,0,2.2,1,2.2,2.2v4.8c0,.4.2.8.6,1,1.4.6,2.8,1.4,4,2.3.2.1.4.2.6.2h0c.3,0,.4,0,.5-.1l4.2-2.4c.3-.2.7-.3,1.1-.3.8,0,1.5.4,1.9,1.1l3.5,6.1c.6,1,.2,2.4-.8,3l-4.2,2.4c-.4.2-.6.6-.5,1,.1.8.2,1.5.2,2.3h0c0,.8,0,1.6-.2,2.3,0,.2,0,.4,0,.6,0,.1.3.4.4.4l4.1,2.4c1,.6,1.4,1.9.8,3l-3.5,6.1c-.4.7-1.1,1.1-1.9,1.1s-.7,0-1-.3l-4.2-2.4c-.2,0-.3-.1-.5-.1s-.4,0-.6.2c-1.2.9-2.6,1.7-4,2.3-.4.2-.6.5-.6,1v4.8c0,1.2-1,2.2-2.2,2.2h-6.3v-5.8h-9.1v6.6h0c1,.3,1.8,1,2.1,2,.3,1,0,2-.7,2.8-.5.5-1.2.8-2,.8ZM41.3,55.5c-.8,0-1.7.6-1.7,1.7s.9,1.7,1.7,1.7.9-.2,1.2-.5c.7-.7.7-1.7,0-2.4-.3-.3-.7-.5-1.2-.5ZM52.2,52.4h5.1c.6,0,1-.5,1-1v-4.8c0-.9.5-1.7,1.4-2,1.3-.5,2.6-1.3,3.7-2.2.4-.3.8-.5,1.3-.5s.8.1,1.1.3l4.2,2.4c.2,0,.3.1.5.1.4,0,.7-.2.9-.5l3.5-6.1c.1-.2.2-.5,0-.8,0-.3-.2-.5-.5-.6l-4.2-2.4c-.8-.5-1.2-1.3-1.1-2.2,0-.7.1-1.4.1-2.2,0-.7,0-1.4-.1-2.2-.1-.9.3-1.7,1.1-2.2l4.2-2.4c.5-.3.7-.9.4-1.4l-3.5-6.1c-.1-.2-.4-.4-.6-.5,0,0-.2,0-.3,0-.2,0-.3,0-.4.1l-4.3,2.4c-.3.2-.7.3-1.1.3-.5,0-.9-.2-1.3-.5-1.1-.9-2.4-1.6-3.7-2.2-.8-.3-1.4-1.1-1.4-2v-4.8c0-.6-.5-1-1-1h-5.1v11h.1c.5,0,1-.1,1.5-.1,6.4,0,11.5,5.2,11.5,11.5s-5.2,11.5-11.5,11.5-1,0-1.5,0h-.1s0,11,0,11ZM30.7,45.9c-.8,0-1.7.6-1.7,1.7s.9,1.7,1.7,1.7.9-.2,1.2-.5c.7-.7.7-1.7,0-2.4-.3-.3-.7-.5-1.2-.5ZM53.8,19.6c-2.8,0-5.4,1.1-7.4,3-4,4-4.1,10.3-.2,14.5,0,0,.1.1.2.1,0,0,0,0,0,0,2,2,4.6,3,7.3,3s5.4-1.1,7.4-3c2-2,3-4.6,3-7.4s-1.1-5.4-3-7.4c-2-2-4.6-3-7.4-3ZM24.6,28.3c-.8,0-1.7.6-1.7,1.7s.9,1.7,1.7,1.7.9-.2,1.2-.5c.3-.3.5-.7.5-1.2s-.2-.9-.5-1.2c-.3-.3-.7-.5-1.2-.5ZM30.7,10.8c-.8,0-1.7.6-1.7,1.7s.8,1.7,1.7,1.7,1.3-.4,1.6-1c.3-.6.1-1.3-.4-1.8-.3-.3-.7-.5-1.2-.5ZM41.3,1.1c-.8,0-1.7.6-1.7,1.7s.8,1.7,1.7,1.7,1.3-.4,1.6-1c.3-.6.1-1.3-.4-1.8-.3-.3-.7-.5-1.2-.5ZM53.9,37.6c-.1,0-.3,0-.4-.2-.1-.1-.2-.3-.2-.4v-3.6h-5.6c-.3,0-.6-.3-.6-.6v-5.5c0-.3.3-.6.6-.6h5.6v-3.6c0-.4.3-.6.6-.6s.3,0,.4.2l7,7c.2.2.2.6,0,.8l-7,7c-.1.1-.3.2-.4.2ZM48.3,32.2h5.6c.3,0,.6.3.6.6v2.8l5.6-5.6-5.6-5.6v2.8c0,.3-.3.6-.6.6h-5.6v4.4Z"/>
      </g>
    </g>
  </g>
</svg>