<?xml version="1.0" encoding="UTF-8"?>
<svg xmlns="http://www.w3.org/2000/svg" version="1.1" xmlns:xlink="http://www.w3.org/1999/xlink" viewBox="0 0 98 60">
  <defs>
    <style>
      .cls-1 {
        fill: none;
      }

      .cls-2 {
        fill: #f15d22;
      }

      .cls-3 {
        clip-path: url(#clippath);
      }
    </style>
    <clipPath id="clippath">
      <rect class="cls-1" width="98" height="60"/>
    </clipPath>
  </defs>
  <!-- Generator: Adobe Illustrator 28.6.0, SVG Export Plug-In . SVG Version: 1.2.0 Build 709)  -->
  <g>
    <g id="Layer_1">
      <g class="cls-3">
        <g>
          <path class="cls-2" d="M49,15.1c-7,0-12.6,5.7-12.6,12.6s5.7,12.6,12.6,12.6,12.6-5.7,12.6-12.6-5.7-12.6-12.6-12.6ZM49,39.3c-6.4,0-11.6-5.2-11.6-11.6s5.2-11.6,11.6-11.6,11.6,5.2,11.6,11.6-5.2,11.6-11.6,11.6Z"/>
          <path class="cls-2" d="M49,15.1c-7,0-12.6,5.7-12.6,12.6s5.7,12.6,12.6,12.6,12.6-5.7,12.6-12.6-5.7-12.6-12.6-12.6ZM49,39.3c-6.4,0-11.6-5.2-11.6-11.6s5.2-11.6,11.6-11.6,11.6,5.2,11.6,11.6-5.2,11.6-11.6,11.6Z"/>
          <path class="cls-2" d="M49,42.6c-9.7,0-17.9,7.2-19.1,16.8,0,.2,0,.3.1.4.1.1.3.2.4.2h37.2c.2,0,.3,0,.4-.2.1-.1.2-.3.1-.4-1.2-9.6-9.5-16.8-19.1-16.8ZM31,58.9v-.4c1.7-8.6,9.2-14.9,18-14.9s16.3,6.3,17.9,14.9v.4c0,0-35.9,0-35.9,0Z"/>
          <path class="cls-2" d="M49,42.6c-9.7,0-17.9,7.2-19.1,16.8,0,.2,0,.3.1.4.1.1.3.2.4.2h37.2c.2,0,.3,0,.4-.2.1-.1.2-.3.1-.4-1.2-9.6-9.5-16.8-19.1-16.8ZM31,58.9v-.4c1.7-8.6,9.2-14.9,18-14.9s16.3,6.3,17.9,14.9v.4c0,0-35.9,0-35.9,0Z"/>
          <path class="cls-2" d="M39.4,4c0-.1-.1-.2-.3-.2l-3.4-.5-1.5-3.1c0-.1-.2-.2-.3-.2s-.2,0-.3.2l-1.5,3.1-3.4.5c-.1,0-.2.1-.3.2,0,.1,0,.3,0,.3l2.5,2.4-.6,3.4c0,.1,0,.3.1.3,0,0,.1,0,.2,0s.1,0,.2,0l3.1-1.6,3.1,1.6c0,0,.1,0,.2,0s.1,0,.2,0c.1,0,.2-.2.1-.3l-.6-3.4,2.5-2.4c.1,0,.1-.2,0-.3ZM36.3,6.4c0,0-.1.2-.1.3l.5,2.9-2.6-1.4s0,0-.1,0-.1,0-.2,0l-2.6,1.4.5-2.9c0-.1,0-.2,0-.3l-2.1-2.1,2.9-.4c.1,0,.2,0,.3-.2l1.3-2.7,1.3,2.7c0,0,.2.2.3.2l2.9.4-2.1,2.1Z"/>
          <path class="cls-2" d="M39.4,4c0-.1-.1-.2-.3-.2l-3.4-.5-1.5-3.1c0-.1-.2-.2-.3-.2s-.2,0-.3.2l-1.5,3.1-3.4.5c-.1,0-.2.1-.3.2,0,.1,0,.3,0,.3l2.5,2.4-.6,3.4c0,.1,0,.3.1.3,0,0,.1,0,.2,0s.1,0,.2,0l3.1-1.6,3.1,1.6c0,0,.1,0,.2,0s.1,0,.2,0c.1,0,.2-.2.1-.3l-.6-3.4,2.5-2.4c.1,0,.1-.2,0-.3ZM36.3,6.4c0,0-.1.2-.1.3l.5,2.9-2.6-1.4s0,0-.1,0-.1,0-.2,0l-2.6,1.4.5-2.9c0-.1,0-.2,0-.3l-2.1-2.1,2.9-.4c.1,0,.2,0,.3-.2l1.3-2.7,1.3,2.7c0,0,.2.2.3.2l2.9.4-2.1,2.1Z"/>
          <path class="cls-2" d="M39.4,4c0-.1-.1-.2-.3-.2l-3.4-.5-1.5-3.1c0-.1-.2-.2-.3-.2s-.2,0-.3.2l-1.5,3.1-3.4.5c-.1,0-.2.1-.3.2,0,.1,0,.3,0,.3l2.5,2.4-.6,3.4c0,.1,0,.3.1.3,0,0,.1,0,.2,0s.1,0,.2,0l3.1-1.6,3.1,1.6c0,0,.1,0,.2,0s.1,0,.2,0c.1,0,.2-.2.1-.3l-.6-3.4,2.5-2.4c.1,0,.1-.2,0-.3ZM36.3,6.4c0,0-.1.2-.1.3l.5,2.9-2.6-1.4s0,0-.1,0-.1,0-.2,0l-2.6,1.4.5-2.9c0-.1,0-.2,0-.3l-2.1-2.1,2.9-.4c.1,0,.2,0,.3-.2l1.3-2.7,1.3,2.7c0,0,.2.2.3.2l2.9.4-2.1,2.1Z"/>
          <path class="cls-2" d="M39.4,4c0-.1-.1-.2-.3-.2l-3.4-.5-1.5-3.1c0-.1-.2-.2-.3-.2s-.2,0-.3.2l-1.5,3.1-3.4.5c-.1,0-.2.1-.3.2,0,.1,0,.3,0,.3l2.5,2.4-.6,3.4c0,.1,0,.3.1.3,0,0,.1,0,.2,0s.1,0,.2,0l3.1-1.6,3.1,1.6c0,0,.1,0,.2,0s.1,0,.2,0c.1,0,.2-.2.1-.3l-.6-3.4,2.5-2.4c.1,0,.1-.2,0-.3ZM36.3,6.4c0,0-.1.2-.1.3l.5,2.9-2.6-1.4s0,0-.1,0-.1,0-.2,0l-2.6,1.4.5-2.9c0-.1,0-.2,0-.3l-2.1-2.1,2.9-.4c.1,0,.2,0,.3-.2l1.3-2.7,1.3,2.7c0,0,.2.2.3.2l2.9.4-2.1,2.1Z"/>
          <path class="cls-2" d="M54.5,4c0-.1-.2-.2-.3-.2l-3.4-.5-1.5-3.1c0-.1-.2-.2-.3-.2s-.2,0-.3.2l-1.5,3.1-3.4.5c-.1,0-.2.1-.3.2,0,.1,0,.3,0,.3l2.5,2.4-.6,3.4c0,.1,0,.3.1.3,0,0,.1,0,.2,0s.1,0,.2,0l3.1-1.6,3.1,1.6c0,0,.1,0,.2,0s.1,0,.2,0c.1,0,.2-.2.1-.3l-.6-3.4,2.5-2.4c.1,0,.1-.2,0-.3ZM51.4,6.4c0,0-.1.2,0,.3l.5,2.9-2.6-1.4s0,0-.2,0-.1,0-.2,0l-2.6,1.4.5-2.9c0-.1,0-.2-.1-.3l-2.1-2.1,2.9-.4c.1,0,.2,0,.3-.2l1.3-2.7,1.3,2.7c0,0,.1.2.2.2l2.9.4-2.1,2.1Z"/>
          <path class="cls-2" d="M54.5,4c0-.1-.2-.2-.3-.2l-3.4-.5-1.5-3.1c0-.1-.2-.2-.3-.2s-.2,0-.3.2l-1.5,3.1-3.4.5c-.1,0-.2.1-.3.2,0,.1,0,.3,0,.3l2.5,2.4-.6,3.4c0,.1,0,.3.1.3,0,0,.1,0,.2,0s.1,0,.2,0l3.1-1.6,3.1,1.6c0,0,.1,0,.2,0s.1,0,.2,0c.1,0,.2-.2.1-.3l-.6-3.4,2.5-2.4c.1,0,.1-.2,0-.3ZM51.4,6.4c0,0-.1.2,0,.3l.5,2.9-2.6-1.4s0,0-.2,0-.1,0-.2,0l-2.6,1.4.5-2.9c0-.1,0-.2-.1-.3l-2.1-2.1,2.9-.4c.1,0,.2,0,.3-.2l1.3-2.7,1.3,2.7c0,0,.1.2.2.2l2.9.4-2.1,2.1Z"/>
          <path class="cls-2" d="M54.5,4c0-.1-.2-.2-.3-.2l-3.4-.5-1.5-3.1c0-.1-.2-.2-.3-.2s-.2,0-.3.2l-1.5,3.1-3.4.5c-.1,0-.2.1-.3.2,0,.1,0,.3,0,.3l2.5,2.4-.6,3.4c0,.1,0,.3.1.3,0,0,.1,0,.2,0s.1,0,.2,0l3.1-1.6,3.1,1.6c0,0,.1,0,.2,0s.1,0,.2,0c.1,0,.2-.2.1-.3l-.6-3.4,2.5-2.4c.1,0,.1-.2,0-.3ZM51.4,6.4c0,0-.1.2,0,.3l.5,2.9-2.6-1.4s0,0-.2,0-.1,0-.2,0l-2.6,1.4.5-2.9c0-.1,0-.2-.1-.3l-2.1-2.1,2.9-.4c.1,0,.2,0,.3-.2l1.3-2.7,1.3,2.7c0,0,.1.2.2.2l2.9.4-2.1,2.1Z"/>
          <path class="cls-2" d="M54.5,4c0-.1-.2-.2-.3-.2l-3.4-.5-1.5-3.1c0-.1-.2-.2-.3-.2s-.2,0-.3.2l-1.5,3.1-3.4.5c-.1,0-.2.1-.3.2,0,.1,0,.3,0,.3l2.5,2.4-.6,3.4c0,.1,0,.3.1.3,0,0,.1,0,.2,0s.1,0,.2,0l3.1-1.6,3.1,1.6c0,0,.1,0,.2,0s.1,0,.2,0c.1,0,.2-.2.1-.3l-.6-3.4,2.5-2.4c.1,0,.1-.2,0-.3ZM51.4,6.4c0,0-.1.2,0,.3l.5,2.9-2.6-1.4s0,0-.2,0-.1,0-.2,0l-2.6,1.4.5-2.9c0-.1,0-.2-.1-.3l-2.1-2.1,2.9-.4c.1,0,.2,0,.3-.2l1.3-2.7,1.3,2.7c0,0,.1.2.2.2l2.9.4-2.1,2.1Z"/>
          <path class="cls-2" d="M69.6,4c0-.1-.1-.2-.3-.2l-3.4-.5-1.5-3.1c0-.1-.2-.2-.3-.2s-.2,0-.3.2l-1.5,3.1-3.4.5c-.1,0-.2.1-.3.2,0,.1,0,.3,0,.4l2.5,2.4-.6,3.4c0,.1,0,.3.1.3,0,0,.1,0,.2,0s.1,0,.2,0l3.1-1.6,3.1,1.6s0,0,.2,0,.1,0,.2,0c.1,0,.2-.2.1-.3l-.6-3.4,2.5-2.4c0,0,.1-.2,0-.4ZM66.5,6.4c0,0-.1.2,0,.3l.5,2.9-2.6-1.4c0,0-.1,0-.2,0s-.1,0-.2,0l-2.6,1.4.5-2.9c0-.1,0-.2,0-.3l-2.1-2.1,2.9-.4c.1,0,.2,0,.3-.2l1.3-2.7,1.3,2.7c0,0,.2.2.3.2l2.9.4-2.1,2.1Z"/>
          <path class="cls-2" d="M69.6,4c0-.1-.1-.2-.3-.2l-3.4-.5-1.5-3.1c0-.1-.2-.2-.3-.2s-.2,0-.3.2l-1.5,3.1-3.4.5c-.1,0-.2.1-.3.2,0,.1,0,.3,0,.4l2.5,2.4-.6,3.4c0,.1,0,.3.1.3,0,0,.1,0,.2,0s.1,0,.2,0l3.1-1.6,3.1,1.6s0,0,.2,0,.1,0,.2,0c.1,0,.2-.2.1-.3l-.6-3.4,2.5-2.4c0,0,.1-.2,0-.4ZM66.5,6.4c0,0-.1.2,0,.3l.5,2.9-2.6-1.4c0,0-.1,0-.2,0s-.1,0-.2,0l-2.6,1.4.5-2.9c0-.1,0-.2,0-.3l-2.1-2.1,2.9-.4c.1,0,.2,0,.3-.2l1.3-2.7,1.3,2.7c0,0,.2.2.3.2l2.9.4-2.1,2.1Z"/>
          <path class="cls-2" d="M69.6,4c0-.1-.1-.2-.3-.2l-3.4-.5-1.5-3.1c0-.1-.2-.2-.3-.2s-.2,0-.3.2l-1.5,3.1-3.4.5c-.1,0-.2.1-.3.2,0,.1,0,.3,0,.4l2.5,2.4-.6,3.4c0,.1,0,.3.1.3,0,0,.1,0,.2,0s.1,0,.2,0l3.1-1.6,3.1,1.6s0,0,.2,0,.1,0,.2,0c.1,0,.2-.2.1-.3l-.6-3.4,2.5-2.4c0,0,.1-.2,0-.4ZM66.5,6.4c0,0-.1.2,0,.3l.5,2.9-2.6-1.4c0,0-.1,0-.2,0s-.1,0-.2,0l-2.6,1.4.5-2.9c0-.1,0-.2,0-.3l-2.1-2.1,2.9-.4c.1,0,.2,0,.3-.2l1.3-2.7,1.3,2.7c0,0,.2.2.3.2l2.9.4-2.1,2.1Z"/>
          <path class="cls-2" d="M69.6,4c0-.1-.1-.2-.3-.2l-3.4-.5-1.5-3.1c0-.1-.2-.2-.3-.2s-.2,0-.3.2l-1.5,3.1-3.4.5c-.1,0-.2.1-.3.2,0,.1,0,.3,0,.4l2.5,2.4-.6,3.4c0,.1,0,.3.1.3,0,0,.1,0,.2,0s.1,0,.2,0l3.1-1.6,3.1,1.6s0,0,.2,0,.1,0,.2,0c.1,0,.2-.2.1-.3l-.6-3.4,2.5-2.4c0,0,.1-.2,0-.4ZM66.5,6.4c0,0-.1.2,0,.3l.5,2.9-2.6-1.4c0,0-.1,0-.2,0s-.1,0-.2,0l-2.6,1.4.5-2.9c0-.1,0-.2,0-.3l-2.1-2.1,2.9-.4c.1,0,.2,0,.3-.2l1.3-2.7,1.3,2.7c0,0,.2.2.3.2l2.9.4-2.1,2.1Z"/>
        </g>
      </g>
    </g>
  </g>
</svg>