<?xml version="1.0" encoding="UTF-8"?>
<svg xmlns="http://www.w3.org/2000/svg" version="1.1" xmlns:xlink="http://www.w3.org/1999/xlink" viewBox="0 0 98 60">
  <defs>
    <style>
      .cls-1 {
        fill: none;
      }

      .cls-2 {
        fill: #f15e22;
      }

      .cls-3 {
        clip-path: url(#clippath);
      }
    </style>
    <clipPath id="clippath">
      <rect class="cls-1" width="98" height="60"/>
    </clipPath>
  </defs>
  <!-- Generator: Adobe Illustrator 28.6.0, SVG Export Plug-In . SVG Version: 1.2.0 Build 709)  -->
  <g>
    <g id="Layer_1">
      <g class="cls-3">
        <path class="cls-2" d="M37,18c0-.4.3-.7.7-.7h5.2c.4,0,.7.3.7.7s-.3.7-.7.7h-5.2c-.4,0-.7-.3-.7-.7ZM49.3,23.9h-11.6c-.4,0-.7.3-.7.7s.3.7.7.7h11.6c.4,0,.7-.3.7-.7s-.3-.7-.7-.7ZM49.3,29.3h-11.6c-.4,0-.7.3-.7.7s.3.7.7.7h11.6c.4,0,.7-.3.7-.7s-.3-.7-.7-.7ZM49.3,34.7h-11.6c-.4,0-.7.3-.7.7s.3.7.7.7h11.6c.4,0,.7-.3.7-.7s-.3-.7-.7-.7ZM49.3,40h-11.6c-.4,0-.7.3-.7.7s.3.7.7.7h11.6c.4,0,.7-.3.7-.7s-.3-.7-.7-.7ZM65.8,30.7h-5.7v16.4c0,1.5,1.2,2.8,2.7,2.8h5.3c-1.1-.9-1.8-2.3-1.8-3.8,0-2.7,2.2-4.9,4.9-4.9s4.9,2.2,4.9,4.9-.8,3.1-2.1,4c2.8.7,5,3.1,5.3,6.1.1,1-.2,1.9-.8,2.7s-1.5,1.1-2.5,1.1h-9.4c-1,0-1.9-.4-2.5-1.1s-1-1.7-.8-2.7c.2-2,1.2-3.7,2.7-4.9h-3c-2.3,0-4.2-1.9-4.2-4.2v-16.4h-3.1v14.6c0,1.1-.9,2-2,2h-18.4c-1.1,0-2-.9-2-2h0c0-.1-1-.1-1-.1-.8,0-1.5-.6-1.5-1.4v-2.1c0,0-.1,0-.1,0-.9-.3-1.8-.6-2.6-1.1,0,0,0,0,0,0l-1.5,1.4c-.6.5-1.5.5-2.1,0l-2.4-2.4c-.6-.6-.6-1.5,0-2.1l1.4-1.5s0,0,0,0c-.5-.8-.8-1.7-1.1-2.6,0,0,0,0,0,0h-2.1c-.8-.1-1.4-.8-1.4-1.6v-3.4c0-.8.6-1.5,1.4-1.5h2.1c0,0,0-.1,0-.1.3-.9.6-1.8,1.1-2.6,0,0,0,0,0,0l-1.4-1.5c-.5-.6-.5-1.5,0-2.1l2.4-2.4c.6-.6,1.5-.6,2.1,0l1.5,1.4s0,0,0,0c.8-.5,1.7-.8,2.6-1.1,0,0,0,0,0,0v-2.1c.1-.8.8-1.4,1.6-1.4h1c0-1.1.9-1.9,2-1.9h11.7c.2,0,.4,0,.5.2l7.9,7.9c.1.1.2.3.2.5h0v7.9h3.1V12.9c0-2.3,1.9-4.2,4.2-4.2h5.3c-1.1-.9-1.8-2.3-1.8-3.8,0-2.7,2.2-4.9,4.9-4.9s4.9,2.2,4.9,4.9-.8,3.1-2.1,4c2.8.7,5,3.1,5.3,6.1.1,1-.2,1.9-.8,2.7s-1.5,1.1-2.5,1.1h-9.4c-1,0-1.9-.4-2.5-1.1s-1-1.7-.8-2.7c.2-2,1.2-3.7,2.7-4.9h-3c-1.5,0-2.7,1.2-2.7,2.8v16.4h8c-1.1-.9-1.8-2.3-1.8-3.8,0-2.7,2.2-4.9,4.9-4.9s4.9,2.2,4.9,4.9-.8,3.1-2.1,4c2.8.7,5,3.1,5.3,6.1.1,1-.2,1.9-.8,2.7s-1.5,1.1-2.5,1.1h-9.4c-1,0-1.9-.4-2.5-1.1s-1-1.7-.8-2.7c.2-2,1.3-3.7,2.7-4.9h0ZM72.1,10.1h-1.9c-2.9,0-5.3,2.2-5.6,5,0,.6,0,1.1.5,1.5s.9.6,1.4.6h9.4c.6,0,1.1-.2,1.4-.6.4-.4.5-.9.5-1.5-.3-2.9-2.7-5-5.6-5h0ZM67.8,4.9c0,1.9,1.5,3.4,3.4,3.4s3.4-1.5,3.4-3.4-1.5-3.4-3.4-3.4-3.4,1.5-3.4,3.4ZM47.7,20.3c0,.2.1.3.3.3h5.1l-5.4-5.4v5.1ZM33.3,43.7v-7.7c-3-.4-5.4-3-5.4-6.1s2.4-5.7,5.4-6.1v-7.7h-1s0,0,0,0v2.1c-.1.7-.6,1.2-1.2,1.4-.8.2-1.5.5-2.2.9-.6.3-1.3.2-1.8-.2l-1.5-1.4s0,0,0,0l-2.4,2.4s0,0,0,0l1.4,1.5c.4.5.5,1.2.2,1.8-.4.7-.7,1.5-.9,2.2-.2.6-.7,1.1-1.4,1.1h-2.1c0,0,0,.1,0,.1v3.4s0,0,0,0h2.1c.7.1,1.2.6,1.4,1.2.2.8.5,1.5.9,2.2.3.6.2,1.3-.2,1.8l-1.4,1.5s0,0,0,0l2.4,2.4s0,0,0,0l1.5-1.4c.5-.4,1.2-.5,1.8-.2.7.4,1.5.7,2.2.9.6.2,1.1.7,1.1,1.4v2.1c0,0,.1,0,.1,0h1ZM29.3,29.9c0,2.3,1.7,4.3,3.9,4.6v-9.2c-2.2.4-3.9,2.3-3.9,4.6h0ZM54.1,45.3v-23.3h-6.1c-1,0-1.8-.8-1.8-1.8v-6.1h-11c-.3,0-.5.2-.5.5v30.7c0,.3.2.5.5.5h18.4c.3,0,.5-.2.5-.5h0ZM72.1,51.3h-1.9s-.4,0-.4,0c-2.7.2-4.9,2.3-5.2,5,0,.6,0,1.1.5,1.5.4.4.9.6,1.4.6h9.4c.6,0,1.1-.2,1.4-.6.4-.4.5-.9.5-1.5-.3-2.9-2.7-5-5.6-5h0ZM67.8,46.1c0,1.9,1.5,3.4,3.4,3.4s3.4-1.5,3.4-3.4-1.5-3.4-3.4-3.4-3.4,1.5-3.4,3.4ZM67.8,25.5c0,1.9,1.5,3.4,3.4,3.4s3.4-1.5,3.4-3.4-1.5-3.4-3.4-3.4-3.4,1.5-3.4,3.4ZM69.8,30.7c-2.7.2-4.9,2.3-5.2,5,0,.6,0,1.1.5,1.5.4.4.9.6,1.4.6h9.4c.6,0,1.1-.2,1.4-.6.4-.4.5-.9.5-1.5-.3-2.9-2.7-5-5.6-5h-1.9s-.4,0-.4,0Z"/>
      </g>
    </g>
  </g>
</svg>