<svg xmlns="http://www.w3.org/2000/svg" xmlns:xlink="http://www.w3.org/1999/xlink" viewBox="0 0 75.23 60"><defs><style>.cls-1{fill:none;}.cls-2{clip-path:url(#clip-path);}</style><clipPath id="clip-path" transform="translate(-11.39)"><rect class="cls-1" width="98" height="60"/></clipPath></defs><title>integration and api</title><g id="Layer_2" data-name="Layer 2"><g id="Layer_3" data-name="Layer 3"><g class="cls-2"><path d="M82.3,20.53a13.65,13.65,0,0,0-9.52-3.82h0a20.18,20.18,0,0,0-38.83-3.44A9.74,9.74,0,0,0,21.88,24a10.2,10.2,0,1,0-.3,20.39H32.65a11.13,11.13,0,0,0,.09,1.15,2.1,2.1,0,0,0,1.69,1.83,2.73,2.73,0,0,1,2.13,1.43,2.69,2.69,0,0,1-.5,2.51,2.1,2.1,0,0,0,.09,2.49,15.45,15.45,0,0,0,2.68,2.68,2.12,2.12,0,0,0,2.49.1,2.74,2.74,0,0,1,2.52-.5,2.71,2.71,0,0,1,1.43,2.14,2.09,2.09,0,0,0,1.83,1.69,16.46,16.46,0,0,0,3.8,0,2.1,2.1,0,0,0,1.83-1.69,2.31,2.31,0,0,1,3.94-1.64,2.12,2.12,0,0,0,2.5-.1,16.57,16.57,0,0,0,2.68-2.68,2.1,2.1,0,0,0,.09-2.49,2.31,2.31,0,0,1,1.63-3.94,2.12,2.12,0,0,0,1.69-1.83c0-.38.06-.77.09-1.15h7.43A13.86,13.86,0,0,0,86.61,30.53a13.69,13.69,0,0,0-4.31-10ZM63.72,45.34a.56.56,0,0,1-.45.5,3.81,3.81,0,0,0-2.6,6.31.56.56,0,0,1,0,.68,14.7,14.7,0,0,1-2.43,2.43.53.53,0,0,1-.67,0,3.83,3.83,0,0,0-6.32,2.63.54.54,0,0,1-.5.45,15.13,15.13,0,0,1-3.43,0,.55.55,0,0,1-.5-.45,4.16,4.16,0,0,0-2.35-3.27,3.32,3.32,0,0,0-1.32-.27,4.82,4.82,0,0,0-2.65.9.54.54,0,0,1-.67,0,14.38,14.38,0,0,1-2.43-2.44.57.57,0,0,1,0-.68,3.81,3.81,0,0,0-2.6-6.31.53.53,0,0,1-.45-.5,14.87,14.87,0,0,1,0-3.4.56.56,0,0,1,.45-.5A4.16,4.16,0,0,0,38,39.09a4.16,4.16,0,0,0-.65-4,.56.56,0,0,1,0-.68A15.1,15.1,0,0,1,39.8,32a.53.53,0,0,1,.67,0,3.82,3.82,0,0,0,6.32-2.62.54.54,0,0,1,.5-.46,15.13,15.13,0,0,1,3.43,0,.55.55,0,0,1,.5.46A3.82,3.82,0,0,0,57.54,32a.54.54,0,0,1,.68,0,14.27,14.27,0,0,1,2.42,2.43.54.54,0,0,1,0,.68,3.82,3.82,0,0,0,2.6,6.31.56.56,0,0,1,.46.5,15.55,15.55,0,0,1,0,3.41Zm9-2.51H65.32c0-.35,0-.71-.08-1.06a2.11,2.11,0,0,0-1.69-1.83,2.75,2.75,0,0,1-2.13-1.43,2.71,2.71,0,0,1,.5-2.52,2.1,2.1,0,0,0-.09-2.48,16.24,16.24,0,0,0-2.68-2.69,2.13,2.13,0,0,0-2.5-.1,2.31,2.31,0,0,1-3.94-1.63,2.11,2.11,0,0,0-1.83-1.7,16.1,16.1,0,0,0-3.8,0,2.12,2.12,0,0,0-1.83,1.7,2.68,2.68,0,0,1-1.43,2.13,2.66,2.66,0,0,1-2.51-.5,2.12,2.12,0,0,0-2.5.1,17,17,0,0,0-2.68,2.69A2.09,2.09,0,0,0,36,36a2.74,2.74,0,0,1,.5,2.52,2.74,2.74,0,0,1-2.13,1.43,2.09,2.09,0,0,0-1.69,1.83c0,.35-.06.71-.08,1.06H21.58a8.66,8.66,0,1,1,1.14-17.25.77.77,0,0,0,.67-.25.73.73,0,0,0,.17-.69,8.21,8.21,0,0,1,10.62-9.7.75.75,0,0,0,.59,0,.71.71,0,0,0,.38-.45,18.64,18.64,0,0,1,36.2,3.14.77.77,0,0,0,.8.66,12.3,12.3,0,1,1,.61,24.58ZM49,36.35a7.3,7.3,0,1,0,7.3,7.3A7.31,7.31,0,0,0,49,36.35Zm0,13a5.77,5.77,0,1,1,5.77-5.76A5.76,5.76,0,0,1,49,49.4Z" transform="translate(-11.39)"/></g></g></g></svg>