<svg xmlns="http://www.w3.org/2000/svg" xmlns:xlink="http://www.w3.org/1999/xlink" viewBox="0 0 95.49 60"><defs><style>.cls-1{fill:none;}.cls-2{clip-path:url(#clip-path);}</style><clipPath id="clip-path" transform="translate(-1.26)"><rect class="cls-1" width="98" height="60"/></clipPath></defs><title>landing page design</title><g id="Layer_2" data-name="Layer 2"><g id="landing_page_design" data-name="landing page design"><g class="cls-2"><path d="M80.29,3.08a1.54,1.54,0,0,1,0-3.08h4.65a3.52,3.52,0,0,1,3.51,3.5V48.16H95.2a1.54,1.54,0,0,1,1.54,1.54V50a10,10,0,0,1-10,10H11.29a10,10,0,0,1-10-10V49.7A1.54,1.54,0,0,1,2.8,48.16H9.55V3.5A3.52,3.52,0,0,1,13.05,0H68.76a1.54,1.54,0,0,1,0,3.08H13.05a.47.47,0,0,0-.3.12.42.42,0,0,0-.12.3V8.64H63.17a1.54,1.54,0,0,1,0,3.08H12.63V48.16H85.37V11.72H68.48a1.54,1.54,0,0,1,0-3.08H85.37V3.5a.47.47,0,0,0-.12-.3.47.47,0,0,0-.3-.12ZM46.93,29.83l8.25-8.24L40.63,27.45l6.3,2.38ZM60.93,16A1.54,1.54,0,0,1,63,18L52.88,43.1A1.56,1.56,0,0,1,52,44a1.52,1.52,0,0,1-2-.9L46.13,32.81,35.86,28.94a1.55,1.55,0,0,1-.89-.87,1.54,1.54,0,0,1,.86-2L60.92,16Zm-3.58,7.81L49.11,32l2.38,6.31,5.86-14.55ZM22.3,7.4a1.54,1.54,0,1,1,0-3.08h0a1.54,1.54,0,0,1,0,3.08Zm-6.16,0a1.54,1.54,0,0,1,0-3.08h0a1.54,1.54,0,0,1,0,3.08ZM87,51.25H4.45a7,7,0,0,0,6.84,5.67H86.71a6.93,6.93,0,0,0,4.91-2,7,7,0,0,0,1.93-3.63ZM74.7,3.08A1.54,1.54,0,0,1,74.7,0H75a1.54,1.54,0,0,1,0,3.08Z" transform="translate(-1.26)"/></g></g></g></svg>