<svg xmlns="http://www.w3.org/2000/svg" xmlns:xlink="http://www.w3.org/1999/xlink" viewBox="0 0 79.1 60"><defs><style>.cls-1{fill:none;}.cls-2{clip-path:url(#clip-path);}</style><clipPath id="clip-path" transform="translate(-9.45)"><rect class="cls-1" width="98" height="60"/></clipPath></defs><title>responsive design</title><g id="Layer_2" data-name="Layer 2"><g id="Layer_1-2" data-name="Layer 1"><g class="cls-2"><path d="M83.93,22.79H79.68V7.9A7.9,7.9,0,0,0,71.79,0H24.3a7.9,7.9,0,0,0-7.89,7.9v27a7.91,7.91,0,0,0,7.89,7.9H68.66v2.63H14.89a5.44,5.44,0,1,0,0,10.88H68.76A4.63,4.63,0,0,0,73.29,60H83.93a4.63,4.63,0,0,0,4.62-4.62v-28a4.62,4.62,0,0,0-4.62-4.62ZM24.3,40.11a5.21,5.21,0,0,1-5.2-5.2V7.9a5.22,5.22,0,0,1,5.21-5.21H71.79A5.22,5.22,0,0,1,77,7.9V22.79h-3.7a4.62,4.62,0,0,0-4.62,4.62v12.7ZM12.14,50.87a2.75,2.75,0,0,1,2.75-2.74H68.67v5.49H14.89a2.75,2.75,0,0,1-2.75-2.75Zm73.72,4.51a1.93,1.93,0,0,1-1.93,1.92H73.29a1.93,1.93,0,0,1-1.93-1.92v-28a1.94,1.94,0,0,1,1.93-1.93H83.93a1.94,1.94,0,0,1,1.93,1.93Z" transform="translate(-9.45)"/><path d="M79.72,52.72H78.33a1.35,1.35,0,0,0,0,2.69h1.39a1.35,1.35,0,1,0,0-2.69Z" transform="translate(-9.45)"/><path d="M78.61,29.24a1.37,1.37,0,0,0,1-.39,1.35,1.35,0,0,0,.4-1,1.37,1.37,0,0,0-.4-.95,1.39,1.39,0,0,0-1.9,0,1.33,1.33,0,0,0,0,1.9A1.34,1.34,0,0,0,78.61,29.24Z" transform="translate(-9.45)"/></g></g></g></svg>