<svg xmlns="http://www.w3.org/2000/svg" xmlns:xlink="http://www.w3.org/1999/xlink" viewBox="0 0 78.03 60"><defs><style>.cls-1{fill:none;}.cls-2{clip-path:url(#clip-path);}</style><clipPath id="clip-path" transform="translate(-9.98)"><rect class="cls-1" width="98" height="60"/></clipPath></defs><title>Website Redesign</title><g id="Layer_2" data-name="Layer 2"><g id="Website_Redesign" data-name="Website Redesign"><g class="cls-2"><path d="M85.31,0H12.94a3,3,0,0,0-3,3V57.3h2.3V3a.66.66,0,0,1,.66-.65H85.31Z" transform="translate(-9.98)"/><path d="M85.06,3.61H16.54a3,3,0,0,0-2.95,2.95V57.05a3,3,0,0,0,2.95,3H85.06a3,3,0,0,0,3-3V6.56A3,3,0,0,0,85.06,3.61Zm.66,11.31V57.05a.66.66,0,0,1-.66.65H16.54a.65.65,0,0,1-.65-.65V14.92Zm0-8.36v6.06H15.89V6.56a.65.65,0,0,1,.65-.65H85.06A.66.66,0,0,1,85.72,6.56Z" transform="translate(-9.98)"/><path d="M40.23,43.65a12.87,12.87,0,1,0,3.94-18.37,12.74,12.74,0,0,0-5.25,6.09,1.15,1.15,0,0,0,2.12.88,10.58,10.58,0,1,1,5.71,13.82A10.6,10.6,0,0,1,41.88,42h4.66v-2.3H37.93v8.61h2.3Z" transform="translate(-9.98)"/><rect x="8.11" y="8.11" width="2.3" height="2.3"/><rect x="12.62" y="8.11" width="2.3" height="2.3"/><rect x="17.13" y="8.11" width="2.3" height="2.3"/><rect x="62.21" y="8.11" width="11.31" height="2.3"/></g></g></g></svg>