<?xml version="1.0" encoding="UTF-8"?>
<svg id="Layer_2" xmlns="http://www.w3.org/2000/svg" xmlns:xlink="http://www.w3.org/1999/xlink" viewBox="0 0 50 31">
  <defs>
    <style>
      .cls-1 {
        fill: #fff;
        fill-rule: evenodd;
      }

      .cls-2 {
        fill: none;
      }

      .cls-3 {
        clip-path: url(#clippath);
      }
    </style>
    <clipPath id="clippath">
      <rect class="cls-2" width="50" height="31"/>
    </clipPath>
  </defs>
  <g id="Layer_1-2" data-name="Layer_1">
    <g class="cls-3">
      <path class="cls-1" d="M16.98,30.9c-.12,0-.22-.05-.3-.13l-6.96-7.25c-.09-.09-.13-.21-.12-.33.01-.12.08-.23.18-.3l3.44-2.45c.07-.05.16-.08.24-.08.19.03.29.09.35.19l.6.83,3.98-2.86c.59-.44,1.32-.68,2.05-.68.2,0,.4.02.6.05l7.26,1.19c.65.11,1.2.5,1.54,1.1.37.64.44,1.43.19,2.06l-.08.21.21-.08c.46-.17.95-.44,1.48-.82l4.53-3.26c.45-.32,1-.49,1.59-.49,1.24,0,2.38.73,2.6,1.66.14.6-.11,1.14-.72,1.58l-8.91,6.41c-.59.44-1.32.68-2.05.68-.2,0-.4-.02-.6-.05l-6.58-1.08c-.15-.03-.31-.04-.46-.04-.56,0-1.11.18-1.56.52l-.45.32.61.85c.07.09.09.21.07.32-.02.11-.08.21-.17.27l-2.31,1.6c-.07.05-.15.08-.24.08ZM10.66,23.29l6.38,6.64,1.67-1.15-5.33-7.42-2.71,1.93ZM28.21,27.24c.15.03.31.04.46.04.56,0,1.12-.18,1.57-.52l8.91-6.41c.25-.18.38-.36.4-.55.02-.17-.05-.35-.22-.54-.35-.39-.95-.64-1.56-.64-.42,0-.8.12-1.1.34l-4.53,3.26c-1.16.83-2.15,1.21-3.2,1.21-.23,0-.47-.02-.72-.06l-3.51-.58c-.11-.02-.21-.08-.28-.17-.07-.09-.09-.21-.08-.32.02-.11.08-.21.17-.27.07-.05.16-.08.24-.08l3.55.58c.41-.01.72-.18.88-.47.21-.37.2-.91-.03-1.37-.21-.43-.57-.72-1-.79l-7.26-1.19c-.15-.03-.31-.04-.46-.04-.56,0-1.11.18-1.56.52l-3.98,2.86,3.63,5.05.08-.06c.61-.44.96-.69,1.63-.85.26-.06.52-.09.79-.09.2,0,.4.02.6.05l6.58,1.08h0ZM25.23,17.73c-2.25,0-4.17-1.61-4.57-3.82-.4-2.21.85-4.39,2.96-5.17l.08-.03v-.08c-.35-2.13.26-4.3,1.66-5.95C26.75,1.04,28.79.1,30.95.1c1.97,0,3.82.77,5.21,2.16s2.16,3.24,2.16,5.21c0,4.06-3.3,7.37-7.36,7.37-.43,0-.87-.04-1.31-.12h-.08s-.03.06-.03.06c-.7,1.79-2.4,2.95-4.32,2.95ZM25.23,9.29c-.5,0-.99.1-1.45.29-1.42.59-2.34,1.97-2.34,3.51,0,1.01.39,1.97,1.11,2.69.71.71,1.68,1.11,2.68,1.11,1.54,0,2.92-.92,3.51-2.34s.27-3.05-.82-4.14c-.72-.72-1.67-1.11-2.69-1.11ZM25.24,8.45c1.35,0,2.63.59,3.51,1.62.88,1.03,1.27,2.38,1.07,3.72l-.02.1.1.02c.35.06.71.09,1.06.09,3.6,0,6.52-2.93,6.52-6.53,0-1.72-.69-3.4-1.91-4.62-1.23-1.23-2.87-1.91-4.61-1.91-1.89,0-3.69.82-4.93,2.25-1.24,1.43-1.8,3.34-1.53,5.22v.1s.11-.01.11-.01c.21-.03.42-.04.63-.04ZM24.54,14.88c-.11,0-.22-.04-.3-.12l-1.37-1.37c-.08-.08-.13-.19-.13-.3s.04-.22.12-.3c.08-.08.19-.12.3-.12s.22.05.3.13l1.08,1.08,2.47-2.47c.08-.06.17-.09.27-.09.11,0,.22.04.3.12.16.16.16.43,0,.59l-2.75,2.75c-.08.08-.19.12-.3.12ZM30.95,13.32c-.23,0-.42-.19-.42-.42v-.5c0-.23.19-.42.42-.42s.42.19.42.42v.5c0,.23-.19.42-.42.42ZM34.79,11.72c-.11,0-.21-.04-.29-.12l-.36-.36c-.08-.08-.12-.19-.12-.3s.04-.22.12-.3.18-.12.3-.12.22.04.3.12l.36.36c.16.16.15.43,0,.59-.08.08-.19.12-.3.12ZM28.74,9.17c-.15,0-.29-.08-.36-.21-.12-.2-.05-.46.15-.57l2.01-1.16v-3.22c.02-.21.2-.38.42-.38.23,0,.42.19.42.42v3.42c0,.16-.09.31-.24.38l-2.19,1.27c-.06.04-.14.06-.21.06ZM35.88,7.89c-.23,0-.42-.19-.42-.42s.19-.42.42-.42h.5c.23,0,.42.19.42.42s-.19.42-.42.42h-.5ZM25.52,7.89c-.23,0-.42-.19-.42-.42s.19-.42.42-.42h.5c.23,0,.42.19.42.42s-.19.42-.42.42h-.5ZM27.47,4.41c-.11,0-.22-.04-.3-.13l-.36-.36c-.16-.16-.16-.43,0-.59.08-.08.19-.12.3-.12s.21.04.29.12l.36.36c.08.08.13.19.13.3,0,.11-.04.22-.12.3-.08.08-.18.12-.3.12h0ZM34.43,4.41c-.11,0-.22-.04-.3-.12s-.12-.19-.12-.3c0-.11.05-.22.13-.3l.36-.36c.08-.07.18-.12.29-.12s.22.04.3.12c.16.16.16.43,0,.59l-.35.35c-.08.08-.19.13-.3.13h0ZM30.95,2.96c-.23,0-.42-.19-.42-.42v-.5c0-.23.19-.42.42-.42s.42.19.42.42v.5c0,.23-.19.42-.42.42Z"/>
    </g>
  </g>
</svg>