<?xml version="1.0" encoding="UTF-8"?>
<svg id="Layer_2" xmlns="http://www.w3.org/2000/svg" xmlns:xlink="http://www.w3.org/1999/xlink" viewBox="0 0 50 31">
  <defs>
    <style>
      .cls-1 {
        fill: #fff;
      }

      .cls-2 {
        fill: none;
      }

      .cls-3 {
        clip-path: url(#clippath);
      }
    </style>
    <clipPath id="clippath">
      <rect class="cls-2" width="50" height="31"/>
    </clipPath>
  </defs>
  <g id="Layer_1-2" data-name="Layer_1">
    <g class="cls-3">
      <g>
        <path class="cls-1" d="M39.31,0h-21.06C16.49,0,15.07,1.43,15.07,3.18v3.18h-4.37c-1.75,0-3.18,1.43-3.18,3.18v13.51c0,1.75,1.43,3.18,3.18,3.18h1.91l-.72,4.31c-.03.16.05.33.19.41s.32.07.45-.03l5.85-4.68h13.37c1.75,0,3.18-1.43,3.18-3.18v-1.33l3.72,3.22c.26.24.72,0,.65-.36l-.72-4.71h.73c1.75,0,3.18-1.43,3.18-3.18V3.18c0-1.75-1.42-3.18-3.18-3.18h0ZM34.14,23.05c0,1.32-1.07,2.38-2.38,2.38h-13.51c-.09,0-.18.03-.25.09l-5.15,4.12.62-3.74c.04-.23-.15-.47-.39-.46h-2.38c-1.32,0-2.38-1.07-2.38-2.38v-13.51c0-1.32,1.07-2.38,2.38-2.38h21.06c1.32,0,2.38,1.07,2.38,2.38v13.51h0ZM41.69,16.69c0,1.32-1.07,2.38-2.38,2.38h-1.19c-.11,0-.23.05-.3.14-.08.09-.11.2-.09.32l.63,4.1-3.42-2.96v-11.13c0-1.75-1.43-3.18-3.18-3.18h-15.9s0-3.18,0-3.18c0-1.32,1.07-2.38,2.38-2.38h21.06c1.32,0,2.38,1.07,2.38,2.38v13.51h0Z"/>
        <path class="cls-1" d="M23.21,15.3c-2.1.07-2.1,3.11,0,3.18,2.1-.07,2.1-3.11,0-3.18ZM23.21,17.68c-1.05-.03-1.05-1.56,0-1.59,1.05.03,1.05,1.56,0,1.59Z"/>
        <path class="cls-1" d="M17.65,15.3c-2.1.07-2.1,3.11,0,3.18,2.1-.07,2.1-3.11,0-3.18ZM17.65,17.68c-1.05-.03-1.05-1.56,0-1.59,1.05.03,1.05,1.56,0,1.59Z"/>
        <path class="cls-1" d="M12.08,15.3c-2.1.07-2.1,3.11,0,3.18,2.1-.07,2.1-3.11,0-3.18ZM12.08,17.68c-1.05-.03-1.05-1.56,0-1.59,1.05.03,1.05,1.56,0,1.59Z"/>
        <path class="cls-1" d="M28.39,9.2c-1.98,0-3.6,1.61-3.6,3.6,0,.66.54,1.19,1.19,1.19s1.19-.54,1.19-1.19.54-1.22,1.22-1.22c.31,0,.61.13.85.37.58.54.44,1.51-.23,1.89-1.13.68-1.81,1.84-1.81,3.12v.7c.04,1.57,2.34,1.57,2.38,0v-.7c0-.42.24-.83.65-1.07,3.12-1.88,1.78-6.66-1.84-6.69h0ZM29.82,15.21c-.65.39-1.04,1.04-1.04,1.75v.7c0,.52-.79.52-.79,0v-.7c0-.99.53-1.9,1.42-2.43,1.75-1.04.98-3.72-1.03-3.74-1.11,0-2.01.9-2.01,2.01,0,.52-.79.52-.79,0-.03-2.46,3.06-3.76,4.78-1.97,1.31,1.23,1,3.51-.54,4.38h0Z"/>
        <path class="cls-1" d="M28.39,19.41c-1.57.04-1.57,2.34,0,2.38,1.57-.04,1.57-2.34,0-2.38ZM28.39,21c-.52,0-.52-.79,0-.79.52,0,.52.79,0,.79Z"/>
      </g>
    </g>
  </g>
</svg>