<?xml version="1.0" encoding="UTF-8"?>
<svg id="Layer_2" xmlns="http://www.w3.org/2000/svg" xmlns:xlink="http://www.w3.org/1999/xlink" viewBox="0 0 50 31">
  <defs>
    <style>
      .cls-1 {
        fill: #fff;
        fill-rule: evenodd;
      }

      .cls-2 {
        fill: none;
      }

      .cls-3 {
        clip-path: url(#clippath);
      }
    </style>
    <clipPath id="clippath">
      <rect class="cls-2" width="50" height="31"/>
    </clipPath>
  </defs>
  <g id="Layer_1-2" data-name="Layer_1">
    <g class="cls-3">
      <g>
        <path class="cls-1" d="M18.22,6.65l-3.1,3.1c-.12.11-.29.18-.45.18s-.32-.07-.45-.19l-3.1-3.09c-.24-.25-.24-.65,0-.9.12-.12.28-.19.45-.19s.32.07.45.19l2.02,2.02V1.03c0-.35.28-.63.63-.63s.63.28.63.63v6.74l2.02-2.02c.13-.12.28-.19.45-.19s.33.07.45.19c.24.25.24.65,0,.9Z"/>
        <path class="cls-1" d="M18.22,6.65l-3.1,3.1c-.12.11-.29.18-.45.18s-.32-.07-.45-.19l-3.1-3.09c-.24-.25-.24-.65,0-.9.12-.12.28-.19.45-.19s.32.07.45.19l2.02,2.02V1.03c0-.35.28-.63.63-.63s.63.28.63.63v6.74l2.02-2.02c.13-.12.28-.19.45-.19s.33.07.45.19c.24.25.24.65,0,.9Z"/>
        <path class="cls-1" d="M18.22,6.65l-3.1,3.1c-.12.11-.29.18-.45.18s-.32-.07-.45-.19l-3.1-3.09c-.24-.25-.24-.65,0-.9.12-.12.28-.19.45-.19s.32.07.45.19l2.02,2.02V1.03c0-.35.28-.63.63-.63s.63.28.63.63v6.74l2.02-2.02c.13-.12.28-.19.45-.19s.33.07.45.19c.24.25.24.65,0,.9Z"/>
        <path class="cls-1" d="M18.22,6.65l-3.1,3.1c-.12.11-.29.18-.45.18s-.32-.07-.45-.19l-3.1-3.09c-.24-.25-.24-.65,0-.9.12-.12.28-.19.45-.19s.32.07.45.19l2.02,2.02V1.03c0-.35.28-.63.63-.63s.63.28.63.63v6.74l2.02-2.02c.13-.12.28-.19.45-.19s.33.07.45.19c.24.25.24.65,0,.9Z"/>
        <path class="cls-1" d="M45.21,17.24l-1.16-1.16-3.79-3.9c-.9-.92-2.14-1.45-3.42-1.45h-7.07v-5.57c0-1.49-1.21-2.7-2.7-2.7h-5.8v1.27h5.8c.79,0,1.43.64,1.43,1.43v20.04h-9.1l-.06-.32c-.45-2.21-2.41-3.82-4.67-3.82s-4.22,1.61-4.67,3.82l-.06.32h-3.54c-.79,0-1.43-.65-1.43-1.44V5.16c0-.79.64-1.43,1.43-1.43h1.67v-1.27h-1.67c-1.49,0-2.7,1.21-2.7,2.7v18.6c0,1.49,1.21,2.7,2.7,2.7h3.54l.06.32c.45,2.21,2.41,3.82,4.67,3.82s4.22-1.61,4.67-3.82l.06-.32h12.24l.06.32c.45,2.21,2.41,3.82,4.67,3.82s4.22-1.61,4.67-3.82l.06-.32h1.47c2.06,0,3.73-1.67,3.73-3.73v-2.85c0-1-.39-1.93-1.09-2.64ZM14.67,29.33c-1.93,0-3.5-1.57-3.5-3.5s1.57-3.5,3.5-3.5,3.5,1.57,3.5,3.5-1.57,3.5-3.5,3.5ZM29.77,12h7.07c.95,0,1.86.39,2.5,1.06l2.76,2.84h-12.33v-3.9ZM36.37,29.33c-1.93,0-3.5-1.57-3.5-3.5s1.57-3.5,3.5-3.5,3.5,1.57,3.5,3.5-1.57,3.5-3.5,3.5ZM45.04,22.73c0,1.36-1.11,2.47-2.47,2.47h-1.47l-.06-.32c-.45-2.21-2.41-3.82-4.67-3.82s-4.22,1.61-4.67,3.82l-.06.32h-1.87v-8.04h13.57l.97.98c.47.47.73,1.09.73,1.74v2.85Z"/>
        <path class="cls-1" d="M45.21,17.24l-1.16-1.16-3.79-3.9c-.9-.92-2.14-1.45-3.42-1.45h-7.07v-5.57c0-1.49-1.21-2.7-2.7-2.7h-5.8v1.27h5.8c.79,0,1.43.64,1.43,1.43v20.04h-9.1l-.06-.32c-.45-2.21-2.41-3.82-4.67-3.82s-4.22,1.61-4.67,3.82l-.06.32h-3.54c-.79,0-1.43-.65-1.43-1.44V5.16c0-.79.64-1.43,1.43-1.43h1.67v-1.27h-1.67c-1.49,0-2.7,1.21-2.7,2.7v18.6c0,1.49,1.21,2.7,2.7,2.7h3.54l.06.32c.45,2.21,2.41,3.82,4.67,3.82s4.22-1.61,4.67-3.82l.06-.32h12.24l.06.32c.45,2.21,2.41,3.82,4.67,3.82s4.22-1.61,4.67-3.82l.06-.32h1.47c2.06,0,3.73-1.67,3.73-3.73v-2.85c0-1-.39-1.93-1.09-2.64ZM14.67,29.33c-1.93,0-3.5-1.57-3.5-3.5s1.57-3.5,3.5-3.5,3.5,1.57,3.5,3.5-1.57,3.5-3.5,3.5ZM29.77,12h7.07c.95,0,1.86.39,2.5,1.06l2.76,2.84h-12.33v-3.9ZM36.37,29.33c-1.93,0-3.5-1.57-3.5-3.5s1.57-3.5,3.5-3.5,3.5,1.57,3.5,3.5-1.57,3.5-3.5,3.5ZM45.04,22.73c0,1.36-1.11,2.47-2.47,2.47h-1.47l-.06-.32c-.45-2.21-2.41-3.82-4.67-3.82s-4.22,1.61-4.67,3.82l-.06.32h-1.87v-8.04h13.57l.97.98c.47.47.73,1.09.73,1.74v2.85Z"/>
        <path class="cls-1" d="M45.21,17.24l-1.16-1.16-3.79-3.9c-.9-.92-2.14-1.45-3.42-1.45h-7.07v-5.57c0-1.49-1.21-2.7-2.7-2.7h-5.8v1.27h5.8c.79,0,1.43.64,1.43,1.43v20.04h-9.1l-.06-.32c-.45-2.21-2.41-3.82-4.67-3.82s-4.22,1.61-4.67,3.82l-.06.32h-3.54c-.79,0-1.43-.65-1.43-1.44V5.16c0-.79.64-1.43,1.43-1.43h1.67v-1.27h-1.67c-1.49,0-2.7,1.21-2.7,2.7v18.6c0,1.49,1.21,2.7,2.7,2.7h3.54l.06.32c.45,2.21,2.41,3.82,4.67,3.82s4.22-1.61,4.67-3.82l.06-.32h12.24l.06.32c.45,2.21,2.41,3.82,4.67,3.82s4.22-1.61,4.67-3.82l.06-.32h1.47c2.06,0,3.73-1.67,3.73-3.73v-2.85c0-1-.39-1.93-1.09-2.64ZM14.67,29.33c-1.93,0-3.5-1.57-3.5-3.5s1.57-3.5,3.5-3.5,3.5,1.57,3.5,3.5-1.57,3.5-3.5,3.5ZM29.77,12h7.07c.95,0,1.86.39,2.5,1.06l2.76,2.84h-12.33v-3.9ZM36.37,29.33c-1.93,0-3.5-1.57-3.5-3.5s1.57-3.5,3.5-3.5,3.5,1.57,3.5,3.5-1.57,3.5-3.5,3.5ZM45.04,22.73c0,1.36-1.11,2.47-2.47,2.47h-1.47l-.06-.32c-.45-2.21-2.41-3.82-4.67-3.82s-4.22,1.61-4.67,3.82l-.06.32h-1.87v-8.04h13.57l.97.98c.47.47.73,1.09.73,1.74v2.85Z"/>
        <path class="cls-1" d="M45.21,17.24l-1.16-1.16-3.79-3.9c-.9-.92-2.14-1.45-3.42-1.45h-7.07v-5.57c0-1.49-1.21-2.7-2.7-2.7h-5.8v1.27h5.8c.79,0,1.43.64,1.43,1.43v20.04h-9.1l-.06-.32c-.45-2.21-2.41-3.82-4.67-3.82s-4.22,1.61-4.67,3.82l-.06.32h-3.54c-.79,0-1.43-.65-1.43-1.44V5.16c0-.79.64-1.43,1.43-1.43h1.67v-1.27h-1.67c-1.49,0-2.7,1.21-2.7,2.7v18.6c0,1.49,1.21,2.7,2.7,2.7h3.54l.06.32c.45,2.21,2.41,3.82,4.67,3.82s4.22-1.61,4.67-3.82l.06-.32h12.24l.06.32c.45,2.21,2.41,3.82,4.67,3.82s4.22-1.61,4.67-3.82l.06-.32h1.47c2.06,0,3.73-1.67,3.73-3.73v-2.85c0-1-.39-1.93-1.09-2.64ZM14.67,29.33c-1.93,0-3.5-1.57-3.5-3.5s1.57-3.5,3.5-3.5,3.5,1.57,3.5,3.5-1.57,3.5-3.5,3.5ZM29.77,12h7.07c.95,0,1.86.39,2.5,1.06l2.76,2.84h-12.33v-3.9ZM36.37,29.33c-1.93,0-3.5-1.57-3.5-3.5s1.57-3.5,3.5-3.5,3.5,1.57,3.5,3.5-1.57,3.5-3.5,3.5ZM45.04,22.73c0,1.36-1.11,2.47-2.47,2.47h-1.47l-.06-.32c-.45-2.21-2.41-3.82-4.67-3.82s-4.22,1.61-4.67,3.82l-.06.32h-1.87v-8.04h13.57l.97.98c.47.47.73,1.09.73,1.74v2.85Z"/>
      </g>
    </g>
  </g>
</svg>