<?xml version="1.0" encoding="UTF-8"?>
<svg id="Layer_2" xmlns="http://www.w3.org/2000/svg" xmlns:xlink="http://www.w3.org/1999/xlink" viewBox="0 0 50 31">
  <defs>
    <style>
      .cls-1 {
        fill: #fff;
      }

      .cls-2 {
        fill: none;
      }

      .cls-3 {
        clip-path: url(#clippath);
      }
    </style>
    <clipPath id="clippath">
      <rect class="cls-2" width="50" height="31"/>
    </clipPath>
  </defs>
  <g id="Layer_1-2" data-name="Layer_1">
    <g class="cls-3">
      <path class="cls-1" d="M25,0c-8.56,0-15.5,6.94-15.5,15.5s6.94,15.5,15.5,15.5,15.5-6.94,15.5-15.5c0-8.56-6.94-15.49-15.5-15.5ZM25,30.14c-8.08,0-14.64-6.55-14.64-14.64S16.92.86,25,.86s14.64,6.55,14.64,14.64h0c0,8.08-6.56,14.63-14.64,14.64ZM25,1.85c-7.54,0-13.65,6.11-13.65,13.65s6.11,13.65,13.65,13.65,13.65-6.11,13.65-13.65h0c0-7.54-6.12-13.65-13.65-13.65ZM25,28.29c-7.07,0-12.79-5.73-12.79-12.79,0-7.07,5.73-12.79,12.79-12.79s12.79,5.73,12.79,12.79c0,7.06-5.73,12.79-12.79,12.79ZM25,5.08c-.81,0-1.58.34-2.13.94-.48.51-.73,1.2-.67,1.9l1.13,12.97c.05.6.55,1.06,1.15,1.05h1.05c.6,0,1.1-.46,1.15-1.05l1.13-12.97c.06-.7-.19-1.39-.67-1.9-.55-.6-1.32-.94-2.13-.94ZM26.94,7.85l-1.13,12.97c-.01.15-.14.27-.29.27h-1.05c-.15,0-.28-.12-.29-.27l-1.13-12.97c-.03-.46.13-.91.45-1.24.76-.83,2.04-.88,2.87-.13.04.04.09.08.13.13.32.33.48.78.45,1.24ZM25.5,22.46h-1.01c-.68,0-1.22.55-1.23,1.23v1.01c0,.68.55,1.22,1.23,1.23h1.01c.68,0,1.22-.55,1.23-1.23v-1.01c0-.68-.55-1.22-1.23-1.23ZM25.87,24.69c0,.2-.16.36-.36.36h-1.01c-.2,0-.36-.16-.36-.37v-1.01c0-.2.16-.36.36-.36h1.01c.2,0,.36.16.36.36v1.01Z"/>
    </g>
  </g>
</svg>