<?xml version="1.0" encoding="UTF-8"?>
<svg id="Layer_2" xmlns="http://www.w3.org/2000/svg" xmlns:xlink="http://www.w3.org/1999/xlink" viewBox="0 0 50 31">
  <defs>
    <style>
      .cls-1 {
        fill: #fff;
      }

      .cls-2 {
        fill: none;
      }

      .cls-3 {
        clip-path: url(#clippath);
      }
    </style>
    <clipPath id="clippath">
      <rect class="cls-2" width="50" height="31"/>
    </clipPath>
  </defs>
  <g id="Layer_1-2" data-name="Layer_1">
    <g class="cls-3">
      <g>
        <path class="cls-1" d="M15.14,30.8c-1.83,0-3.32-1.49-3.32-3.32V3.52c0-1.83,1.49-3.32,3.32-3.32h12.24c.89,0,1.73.35,2.35.98l4.67,4.68c.62.63.96,1.46.96,2.34v8c0,.28-.23.5-.5.5s-.5-.23-.5-.5v-8c0-.16-.02-.33-.06-.5l-.04-.16h-4.33c-1.06,0-1.91-.86-1.91-1.91V1.29l-.16-.03c-.16-.03-.33-.05-.48-.05h-12.24c-1.28,0-2.31,1.04-2.31,2.31v23.95c0,1.28,1.04,2.31,2.31,2.31h8c.28,0,.5.23.5.5s-.23.5-.5.5h-8ZM29.03,5.64c0,.5.41.9.9.9h3.72l-4.62-4.64v3.74Z"/>
        <path class="cls-1" d="M16.55,6.14c-.28,0-.5-.23-.5-.5s.23-.5.5-.5h7.75c.28,0,.5.23.5.5s-.23.5-.5.5h-7.75Z"/>
        <path class="cls-1" d="M22.18,11.07c-.28,0-.5-.23-.5-.5s.23-.5.5-.5h8.45c.28,0,.5.23.5.5s-.23.5-.5.5h-8.45Z"/>
        <path class="cls-1" d="M17.48,11.66c-.13,0-.26-.05-.36-.15l-.94-.94c-.2-.2-.2-.52,0-.71.1-.1.22-.15.36-.15s.26.05.36.15l.58.58,1.52-1.52c.1-.1.22-.15.36-.15.12,0,.23.04.32.12l.03.03c.2.2.2.52,0,.71l-1.88,1.88c-.09.09-.22.15-.36.15Z"/>
        <path class="cls-1" d="M22.18,16c-.28,0-.5-.23-.5-.5s.23-.5.5-.5h8.45c.28,0,.5.23.5.5s-.23.5-.5.5h-8.45Z"/>
        <path class="cls-1" d="M17.48,16.59c-.13,0-.26-.05-.36-.15l-.94-.94c-.2-.2-.2-.52,0-.71.1-.1.22-.15.36-.15s.26.05.36.15l.58.58,1.52-1.52c.1-.1.22-.15.36-.15s.26.05.35.15h0c.2.2.2.52,0,.71l-1.88,1.88c-.09.09-.22.15-.36.15Z"/>
        <path class="cls-1" d="M22.18,20.94c-.28,0-.5-.23-.5-.5s.23-.5.5-.5h.7c.28,0,.5.23.5.5s-.23.5-.5.5h-.7Z"/>
        <path class="cls-1" d="M17.48,21.52c-.13,0-.26-.05-.36-.15l-.94-.94c-.2-.2-.2-.52,0-.71.09-.1.22-.15.36-.15h0c.14,0,.26.05.36.15l.58.58,1.52-1.52c.1-.1.22-.15.36-.15s.26.05.35.14h0c.2.2.2.52,0,.71l-1.88,1.88c-.09.1-.22.15-.36.15Z"/>
        <path class="cls-1" d="M22.18,25.87c-.28,0-.5-.23-.5-.5s.23-.5.5-.5h.7c.28,0,.5.23.5.5s-.23.5-.5.5h-.7Z"/>
        <path class="cls-1" d="M17.48,26.46c-.13,0-.26-.05-.36-.15l-.94-.94c-.2-.2-.2-.52,0-.71.09-.1.22-.15.36-.15s.26.05.36.15l.58.58,1.56-1.56c.09-.07.2-.11.32-.11.13,0,.26.05.36.15.2.2.2.52,0,.71l-1.88,1.88c-.09.1-.22.15-.36.15Z"/>
        <path class="cls-1" d="M27.11,30.8c-1.06,0-1.91-.86-1.91-1.91v-8.45c0-1.06.86-1.91,1.91-1.91h9.16c1.06,0,1.91.86,1.91,1.91v8.45c0,1.06-.86,1.91-1.91,1.91h-9.16ZM27.11,19.53c-.5,0-.9.41-.9.9v8.45c0,.5.41.9.9.9h9.16c.5,0,.9-.41.9-.9v-8.45c0-.5-.41-.9-.9-.9h-2.31v1.96c0,.47-.38.86-.86.86h-2.82c-.47,0-.86-.38-.86-.86v-1.96h-2.31ZM30.44,21.34h2.51v-1.81h-2.51v1.81Z"/>
        <path class="cls-1" d="M28.52,27.98c-.28,0-.5-.23-.5-.5s.23-.5.5-.5h2.11c.28,0,.5.23.5.5s-.23.5-.5.5h-2.11Z"/>
      </g>
    </g>
  </g>
</svg>