<?xml version="1.0" encoding="UTF-8"?>
<svg id="Layer_2" xmlns="http://www.w3.org/2000/svg" viewBox="0 0 40 40">
  <defs>
    <style>
      .cls-1 {
        fill: #f26128;
      }
    </style>
  </defs>
  <g id="Layer_1-2" data-name="Layer_1">
    <g>
      <path class="cls-1" d="M20,31.64c-.53,0-.96-.43-.96-.96v-1.68l-.24-.05c-2.03-.42-3.5-2.16-3.56-4.24,0-.52.43-.95.96-.95s.96.43.96.96c.12,1.42,1.27,2.47,2.67,2.47.06,0,.13,0,.2,0,.02,0,.09,0,.15,0,1.4,0,2.54-1.05,2.67-2.44,0-2-1.25-2.71-3.14-3.8l-.44-.25c-1.89-1.08-4.03-2.3-4.03-5.39.07-2.07,1.53-3.81,3.56-4.23l.24-.05v-1.68c0-.53.43-.96.96-.96s.96.43.96.96v1.68l.24.05c2.03.42,3.5,2.16,3.56,4.24,0,.52-.43.95-.96.95s-.96-.43-.96-.96c-.12-1.42-1.27-2.47-2.67-2.47-.06,0-.13,0-.2,0-.02,0-.09,0-.15,0-1.4,0-2.54,1.05-2.67,2.44,0,2.06,1.38,2.82,3.29,3.87l.12.07c1.87,1.03,4.2,2.3,4.2,5.5-.07,2.07-1.53,3.81-3.56,4.23l-.24.05v1.68c0,.53-.43.96-.96.96Z"/>
      <path class="cls-1" d="M20,40c-5.34,0-10.36-2.08-14.14-5.86C2.08,30.36,0,25.34,0,20S2.08,9.64,5.86,5.86C9.64,2.08,14.66,0,20,0s10.36,2.08,14.14,5.86c3.78,3.78,5.86,8.8,5.86,14.14s-2.08,10.36-5.86,14.14c-3.78,3.78-8.8,5.86-14.14,5.86ZM20,1.93c-4.83,0-9.36,1.88-12.78,5.29-3.41,3.42-5.29,7.95-5.29,12.78s1.88,9.36,5.29,12.78c3.41,3.41,7.95,5.29,12.78,5.29s9.36-1.88,12.78-5.29c3.41-3.41,5.29-7.95,5.29-12.78s-1.88-9.36-5.29-12.78c-3.42-3.41-7.95-5.29-12.78-5.29Z"/>
    </g>
  </g>
</svg>