<?xml version="1.0" encoding="UTF-8"?>
<svg id="Layer_2" xmlns="http://www.w3.org/2000/svg" xmlns:xlink="http://www.w3.org/1999/xlink" viewBox="0 0 40 40">
  <defs>
    <style>
      .cls-1 {
        fill: none;
      }

      .cls-2 {
        fill: #f26128;
      }

      .cls-3 {
        clip-path: url(#clippath);
      }
    </style>
    <clipPath id="clippath">
      <rect class="cls-1" width="40" height="40"/>
    </clipPath>
  </defs>
  <g id="Layer_1-2" data-name="Layer_1">
    <g class="cls-3">
      <path class="cls-2" d="M2.76,38.27c-1.52,0-2.76-1.24-2.76-2.76V4.49C0,2.97,1.24,1.73,2.76,1.73h34.47c1.52,0,2.76,1.24,2.76,2.76v7.66c0,.43-.35.79-.79.79H12.26v23.76h24.98c.66,0,1.19-.53,1.19-1.19V15.88c0-.43.35-.79.79-.79s.79.35.79.79v19.62c0,1.52-1.24,2.76-2.76,2.76H2.76ZM1.57,35.51c0,.66.53,1.19,1.19,1.19h7.93V12.94H1.57v22.57ZM2.76,3.3c-.66,0-1.19.53-1.19,1.19v6.87h36.86v-6.87c0-.66-.53-1.19-1.19-1.19H2.76ZM34.58,8.57c-.71,0-1.28-.57-1.28-1.28s.57-1.28,1.28-1.28,1.28.57,1.28,1.28-.57,1.28-1.28,1.28ZM29.64,8.57c-.71,0-1.28-.57-1.28-1.28s.57-1.28,1.28-1.28,1.28.57,1.28,1.28-.57,1.28-1.28,1.28ZM24.7,8.57c-.71,0-1.28-.57-1.28-1.28s.57-1.28,1.28-1.28,1.28.57,1.28,1.28-.57,1.28-1.28,1.28Z"/>
    </g>
  </g>
</svg>