<svg xmlns="http://www.w3.org/2000/svg" xmlns:xlink="http://www.w3.org/1999/xlink" viewBox="0 0 117 44"><defs><style>.cls-1{fill:none;}.cls-2{fill:#092f5c;}.cls-3{clip-path:url(#clip-path);}.cls-4{fill:#fff;}.cls-5{clip-path:url(#clip-path-2);}.cls-6{clip-path:url(#clip-path-3);}</style><clipPath id="clip-path"><rect class="cls-1" x="10" y="6" width="32" height="32"/></clipPath><clipPath id="clip-path-2"><rect class="cls-1" x="46.5" y="10" width="24" height="24"/></clipPath><clipPath id="clip-path-3"><rect class="cls-1" x="75" y="6" width="32" height="32"/></clipPath></defs><title>d3</title><g id="Layer_2" data-name="Layer 2"><g id="Layer_3" data-name="Layer 3"><g id="Layer_3-2" data-name="Layer 3"><path class="cls-2" d="M22,0H95a22,22,0,0,1,22,22h0A22,22,0,0,1,95,44H22A22,22,0,0,1,0,22H0A22,22,0,0,1,22,0Z"/></g><g id="layer"><g id="angular"><g class="cls-3"><path class="cls-4" d="M26.07,37.34h-.13c-.29-.18-.58-.39-.88-.55q-5.31-3-10.62-5.88a.89.89,0,0,1-.57-.78c-.24-2.32-.52-4.64-.79-6.95q-.59-5.41-1.28-10.82a.63.63,0,0,1,.43-.78l.08,0C14.7,10.74,17.08,9.88,19.5,9c2.17-.78,4.33-1.58,6.49-2.37h.13l.29.14,12.46,4.45c.45.17,1.11.21,1.3.53s0,1,0,1.47a2.35,2.35,0,0,1-.05.59c-.29,2.49-.58,5-.88,7.46q-.51,4.43-1,8.84a1.22,1.22,0,0,1-.5.73l-5.47,3ZM26,10,17,30.11h2.88a.65.65,0,0,0,.73-.5c.45-1.19.92-2.37,1.42-3.54.08-.19.34-.44.52-.44h7.17c.54,1.33,1.06,2.66,1.61,4,.07.18.23.47.36.47h3.22Z"/><path class="cls-4" d="M26,16.63l2.55,6.13H23.5Z"/></g></g><g id="plus"><g class="cls-5"><path class="cls-4" d="M58.5,13a1,1,0,0,0-1,1v7h-7a1,1,0,0,0,0,2h7v7a1,1,0,0,0,2,0V23h7a1,1,0,0,0,0-2h-7V14A1,1,0,0,0,58.5,13Z"/></g></g><g class="cls-6"><path class="cls-4" d="M75,34V30.83l1.83-.06a9.38,9.38,0,0,0,4.3-.85,8.84,8.84,0,0,0,4.88-6A8.26,8.26,0,0,0,86.17,22,8.57,8.57,0,0,0,86,20.11a8.84,8.84,0,0,0-4.88-6,9.38,9.38,0,0,0-4.3-.85L75,13.2V6.83h2.32a15.93,15.93,0,0,1,3.23.25,15.29,15.29,0,0,1,12,12.81,22.88,22.88,0,0,1,0,4.22,14.93,14.93,0,0,1-15.24,13H75V34Zm12.71,3.12.72-.56a17,17,0,0,0,4.17-4.42,14.36,14.36,0,0,0,.78-1.24,17.51,17.51,0,0,1,2.51-.12c2.47,0,2.53,0,3.06-.29a2.71,2.71,0,0,0,1.64-2.29,2.5,2.5,0,0,0-.81-2.2c-.7-.69-1.14-.82-3-.82H95.41L95.5,25c0-.12.11-.85.17-1.62a12.92,12.92,0,0,0,0-2.78c-.06-.77-.14-1.5-.17-1.62l-.06-.21h1.41c1.82,0,2.26-.13,3-.82a2.52,2.52,0,0,0,.81-2.16A2.71,2.71,0,0,0,99,13.5c-.53-.25-.59-.26-3.06-.29a21,21,0,0,1-2.51-.12,14.36,14.36,0,0,0-.78-1.24A17.4,17.4,0,0,0,88.5,7.42l-.72-.55H99.55l.86.27a9.24,9.24,0,0,1,5.84,5,8.19,8.19,0,0,1,.82,3.89,8.54,8.54,0,0,1-1.57,5.08l-.59.9.59.89A8.57,8.57,0,0,1,107,28a8.15,8.15,0,0,1-.82,3.88,9.24,9.24,0,0,1-5.84,5l-.86.27H87.71Z"/></g></g></g></g></svg>