<svg xmlns="http://www.w3.org/2000/svg" xmlns:xlink="http://www.w3.org/1999/xlink" viewBox="0 0 117 44"><defs><style>.cls-1{fill:none;}.cls-2{fill:#092f5c;}.cls-3{clip-path:url(#clip-path);}.cls-4{fill:#fff;}.cls-5{clip-path:url(#clip-path-2);}</style><clipPath id="clip-path"><rect class="cls-1" x="9.5" y="6" width="32" height="32"/></clipPath><clipPath id="clip-path-2"><rect class="cls-1" x="46" y="10" width="24" height="24"/></clipPath></defs><title>django</title><g id="Layer_2" data-name="Layer 2"><g id="Layer_5" data-name="Layer 5"><g id="Layer_3" data-name="Layer 3"><path class="cls-2" d="M22,0H95a22,22,0,0,1,22,22h0A22,22,0,0,1,95,44H22A22,22,0,0,1,0,22H0A22,22,0,0,1,22,0Z"/></g><g id="layer"><g id="angular"><g class="cls-3"><path class="cls-4" d="M25.57,37.34h-.13c-.29-.18-.58-.39-.88-.55q-5.31-3-10.62-5.88a.89.89,0,0,1-.57-.78c-.24-2.32-.52-4.64-.79-6.95Q12,17.77,11.3,12.36a.63.63,0,0,1,.43-.78l.08,0C14.2,10.74,16.58,9.88,19,9c2.17-.78,4.33-1.58,6.49-2.37h.13l.29.14,12.46,4.45c.45.17,1.11.21,1.3.53s0,1,0,1.47a2.35,2.35,0,0,1-.05.59c-.29,2.49-.58,5-.88,7.46q-.51,4.43-1,8.84a1.22,1.22,0,0,1-.5.73l-5.47,3ZM25.5,10l-9,20.11h2.88a.65.65,0,0,0,.73-.5c.45-1.19.92-2.37,1.42-3.54.08-.19.34-.44.52-.44h7.17c.54,1.33,1.06,2.66,1.61,4,.07.18.23.47.36.47h3.22Z"/><path class="cls-4" d="M25.51,16.63l2.55,6.13H23Z"/></g></g><g id="plus"><g class="cls-5"><path class="cls-4" d="M58,13a1,1,0,0,0-1,1v7H50a1,1,0,0,0,0,2h7v7a1,1,0,0,0,2,0V23h7a1,1,0,0,0,0-2H59V14A1,1,0,0,0,58,13Z"/></g></g><g id="django"><path class="cls-4" d="M89.36,6v8a8.73,8.73,0,0,0-2.28-.27c-5.47,0-9,3.47-9,8.8,0,5.54,3.33,8.43,9.72,8.43a34.4,34.4,0,0,0,6.79-.71V6Zm0,20.59a12.11,12.11,0,0,1-1.8.13c-2.69,0-4.15-1.52-4.15-4.31s1.53-4.49,4.18-4.49a5.09,5.09,0,0,1,1.77.28Z"/><path class="cls-4" d="M102.92,14.08V26.21c0,4.18-.31,6.19-1.23,7.92A8.34,8.34,0,0,1,97.41,38l-4.85-2.31c2.31-1.09,3.43-2,4.14-3.5s1-3.23,1-7.78V14.08Z"/><rect class="cls-4" x="97.69" y="6.03" width="5.23" height="5.37"/></g></g></g></g></svg>