<svg xmlns="http://www.w3.org/2000/svg" xmlns:xlink="http://www.w3.org/1999/xlink" viewBox="0 0 117 44"><defs><style>.cls-1{fill:none;}.cls-2{fill:#092f5c;}.cls-3{clip-path:url(#clip-path);}.cls-4{fill:#fff;}.cls-5{clip-path:url(#clip-path-2);}.cls-6{clip-path:url(#clip-path-3);}</style><clipPath id="clip-path"><rect class="cls-1" x="10" y="6" width="32" height="32"/></clipPath><clipPath id="clip-path-2"><rect class="cls-1" x="46.5" y="10" width="24" height="24"/></clipPath><clipPath id="clip-path-3"><rect class="cls-1" x="75" y="6" width="32" height="32"/></clipPath></defs><title>golang</title><g id="Layer_2" data-name="Layer 2"><g id="Layer_8" data-name="Layer 8"><g id="Layer_3" data-name="Layer 3"><path class="cls-2" d="M22,0H95a22,22,0,0,1,22,22h0A22,22,0,0,1,95,44H22A22,22,0,0,1,0,22H0A22,22,0,0,1,22,0Z"/></g><g id="layer"><g id="angular"><g class="cls-3"><path class="cls-4" d="M26.07,37.34h-.13c-.29-.18-.58-.39-.88-.55q-5.31-3-10.62-5.88a.89.89,0,0,1-.57-.78c-.24-2.32-.52-4.64-.79-6.95q-.59-5.41-1.28-10.82a.63.63,0,0,1,.43-.78l.08,0C14.7,10.74,17.08,9.88,19.5,9c2.17-.78,4.33-1.58,6.49-2.37h.13l.29.14,12.46,4.45c.45.17,1.11.21,1.3.53s0,1,0,1.47a2.35,2.35,0,0,1-.05.59c-.29,2.49-.58,5-.88,7.46q-.51,4.43-1,8.84a1.22,1.22,0,0,1-.5.73l-5.47,3ZM26,10,17,30.11h2.88a.65.65,0,0,0,.73-.5c.45-1.19.92-2.37,1.42-3.54.08-.19.34-.44.52-.44h7.17c.54,1.33,1.06,2.66,1.61,4,.07.18.23.47.36.47h3.22Z"/><path class="cls-4" d="M26,16.63l2.55,6.13H23.5Z"/></g></g><g id="plus"><g class="cls-5"><path class="cls-4" d="M58.5,13a1,1,0,0,0-1,1v7h-7a1,1,0,0,0,0,2h7v7a1,1,0,0,0,2,0V23h7a1,1,0,0,0,0-2h-7V14A1,1,0,0,0,58.5,13Z"/></g></g><g id="go_lang" data-name="go lang"><g class="cls-6"><path class="cls-4" d="M77.41,19.64c-.06,0-.07,0,0-.08l.33-.42a.22.22,0,0,1,.17-.07h5.56c.06,0,.08,0,0,.09l-.27.4a.25.25,0,0,1-.16.1Zm-2.35,1.43c-.06,0-.08,0,0-.07l.32-.42a.2.2,0,0,1,.12-.08h7.11a.09.09,0,0,1,.08.08h0l-.13.38c0,.06-.08.09-.14.09Zm3.77,1.44c-.06,0-.08-.05,0-.1L79,22a.2.2,0,0,1,.16-.1h3.12c.06,0,.09.05.09.11v.37a.11.11,0,0,1-.11.11h0ZM95,19.36c-1,.25-1.66.44-2.62.69-.24.06-.25.07-.46-.16a2,2,0,0,0-.73-.59,2.73,2.73,0,0,0-2.82.23,3.31,3.31,0,0,0-1.59,3A2.45,2.45,0,0,0,88.9,25a2.85,2.85,0,0,0,2.65-1c.14-.17.26-.36.42-.58H89c-.33,0-.41-.2-.3-.46.21-.49.58-1.3.8-1.7a.4.4,0,0,1,.39-.25H95.5a5.94,5.94,0,0,1-.09,1.26,6.83,6.83,0,0,1-1.28,3.05A6.5,6.5,0,0,1,89.69,28a5.5,5.5,0,0,1-4.19-1,4.87,4.87,0,0,1-2-3.46,6.13,6.13,0,0,1,1.32-4.57,6.88,6.88,0,0,1,4.37-2.69,5.31,5.31,0,0,1,4.12.76,4.87,4.87,0,0,1,1.81,2.2c.09.14,0,.21-.15.26M100.16,28a5.85,5.85,0,0,1-3.8-1.37,4.86,4.86,0,0,1-1.68-3,6,6,0,0,1,1.26-4.71,6.58,6.58,0,0,1,4.36-2.6,5.75,5.75,0,0,1,4.44.8,4.83,4.83,0,0,1,2.2,3.47,6,6,0,0,1-1.79,5.28,7.14,7.14,0,0,1-3.74,2c-.42.08-.84.09-1.25.14Zm3.71-6.3a1.61,1.61,0,0,0-.05-.51,2.54,2.54,0,0,0-2.91-2.12l-.26.05a3.4,3.4,0,0,0-2.73,2.71,2.56,2.56,0,0,0,1.43,2.94,2.84,2.84,0,0,0,2.54-.09,3.42,3.42,0,0,0,2-3Z"/></g></g></g></g></g></svg>