<svg xmlns="http://www.w3.org/2000/svg" xmlns:xlink="http://www.w3.org/1999/xlink" viewBox="0 0 117 44"><defs><style>.cls-1{fill:none;}.cls-2{fill:#092f5c;}.cls-3{clip-path:url(#clip-path);}.cls-4{fill:#fff;}.cls-5{clip-path:url(#clip-path-2);}.cls-6{clip-path:url(#clip-path-3);}</style><clipPath id="clip-path"><rect class="cls-1" x="9.5" y="6" width="32" height="32"/></clipPath><clipPath id="clip-path-2"><rect class="cls-1" x="46" y="10" width="24" height="24"/></clipPath><clipPath id="clip-path-3"><rect class="cls-1" x="74.5" y="6" width="32" height="32"/></clipPath></defs><title>ngrx</title><g id="Layer_2" data-name="Layer 2"><g id="ngrx"><g id="Layer_3" data-name="Layer 3"><path class="cls-2" d="M22,0H95a22,22,0,0,1,22,22h0A22,22,0,0,1,95,44H22A22,22,0,0,1,0,22H0A22,22,0,0,1,22,0Z"/></g><g id="layer"><g id="angular"><g class="cls-3"><path class="cls-4" d="M25.57,37.34h-.13c-.29-.18-.58-.39-.88-.55q-5.31-3-10.62-5.88a.89.89,0,0,1-.57-.78c-.24-2.32-.52-4.64-.79-6.95Q12,17.77,11.3,12.36a.63.63,0,0,1,.43-.78l.08,0C14.2,10.74,16.58,9.88,19,9c2.17-.78,4.33-1.58,6.49-2.37h.13l.29.14,12.46,4.45c.45.17,1.11.21,1.3.53s0,1,0,1.47a2.35,2.35,0,0,1-.05.59c-.29,2.49-.58,5-.88,7.46q-.51,4.43-1,8.84a1.22,1.22,0,0,1-.5.73l-5.47,3ZM25.5,10l-9,20.11h2.88a.65.65,0,0,0,.73-.5c.45-1.19.92-2.37,1.42-3.54.08-.19.34-.44.52-.44h7.17c.54,1.33,1.06,2.66,1.61,4,.07.18.23.47.36.47h3.22Z"/><path class="cls-4" d="M25.51,16.63l2.55,6.13H23Z"/></g></g><g id="plus"><g class="cls-5"><path class="cls-4" d="M58,13a1,1,0,0,0-1,1v7H50a1,1,0,0,0,0,2h7v7a1,1,0,0,0,2,0V23h7a1,1,0,0,0,0-2H59V14A1,1,0,0,0,58,13Z"/></g></g><g id="ngrx-2" data-name="ngrx"><g class="cls-6"><path class="cls-4" d="M90.56,37.34h-.12L89.93,37,78.8,31c-.3-.16-.56-.28-.61-.72q-.75-7.28-1.55-14.5c-.13-1.25-.31-2.49-.46-3.73v-.36c.16-.07.32-.16.48-.22,3.14-1.09,6.28-2.17,9.41-3.27,1.42-.5,2.83-1,4.25-1.54h.36l.47.23,8.68,3c1.67.58,3.33,1.19,5,1.78V12a2.07,2.07,0,0,0-.1.33q-1,8.87-1.91,17.73a.91.91,0,0,1-.55.82c-1.22.64-2.42,1.31-3.63,2ZM99.25,25l-1.39.85a13.64,13.64,0,0,1-1.33.59c2.35-2,3.4-4.11,2.82-5.9-.23.38-.43.75-.65,1.09s-.46.62-.69.94c.88-2.39.83-4.11-.29-5.16.71,3.15-.61,5.44-2.92,7.35l.1.19,2.1-.44a7.22,7.22,0,0,1-4.45,2,4.17,4.17,0,0,0,2.16,1.26,10,10,0,0,1-2.56-.17A7.73,7.73,0,0,1,88.23,25c-.1.61-.1.61,1,2.23a5,5,0,0,1-2.91-4.84,4.44,4.44,0,0,1,3.51-4.11,1.52,1.52,0,0,1,.63.1c1.31.4,2.61.86,4,1.19a4.58,4.58,0,0,0,2,0,1.21,1.21,0,0,0,1.11-1.3,1.19,1.19,0,0,0-.11-.42,4.46,4.46,0,0,0-.77-1.4,8.82,8.82,0,0,0-6.13-3.13,1.89,1.89,0,0,1-.86-.3,2.12,2.12,0,0,0-2.94.27,3.5,3.5,0,0,1-2,1.2c-1.22.18-1.49.49-1.41,1.74a1.62,1.62,0,0,1-.6,1.42c-1,.89-1,1.17-.62,2.46A1.79,1.79,0,0,1,82,21.36a1.26,1.26,0,0,0,.09,1.54,7.92,7.92,0,0,1,.86,1.35,9.68,9.68,0,0,0,4.64,5,8.69,8.69,0,0,0,10-1.4A7.88,7.88,0,0,0,99.25,25Z"/><path class="cls-4" d="M92.62,17c-.18-.23-.38-.36-.38-.5s.2-.28.31-.42c.14.12.36.23.41.39S92.79,16.71,92.62,17Z"/></g></g></g></g></g></svg>