<svg xmlns="http://www.w3.org/2000/svg" xmlns:xlink="http://www.w3.org/1999/xlink" viewBox="0 0 117 44"><defs><style>.cls-1{fill:none;}.cls-2{fill:#092f5c;}.cls-3{clip-path:url(#clip-path);}.cls-4{fill:#fff;}.cls-5{clip-path:url(#clip-path-2);}.cls-6{clip-path:url(#clip-path-3);}</style><clipPath id="clip-path"><rect class="cls-1" x="10" y="6" width="32" height="32"/></clipPath><clipPath id="clip-path-2"><rect class="cls-1" x="46.5" y="10" width="24" height="24"/></clipPath><clipPath id="clip-path-3"><rect class="cls-1" x="75" y="6" width="32" height="32"/></clipPath></defs><title>php</title><g id="Layer_2" data-name="Layer 2"><g id="Layer_6" data-name="Layer 6"><g id="Layer_3" data-name="Layer 3"><path class="cls-2" d="M22,0H95a22,22,0,0,1,22,22h0A22,22,0,0,1,95,44H22A22,22,0,0,1,0,22H0A22,22,0,0,1,22,0Z"/></g><g id="layer"><g id="angular"><g class="cls-3"><path class="cls-4" d="M26.07,37.34h-.13c-.29-.18-.58-.39-.88-.55q-5.31-3-10.62-5.88a.89.89,0,0,1-.57-.78c-.24-2.32-.52-4.64-.79-6.95q-.59-5.41-1.28-10.82a.63.63,0,0,1,.43-.78l.08,0C14.7,10.74,17.08,9.88,19.5,9c2.17-.78,4.33-1.58,6.49-2.37h.13l.29.14,12.46,4.45c.45.17,1.11.21,1.3.53s0,1,0,1.47a2.35,2.35,0,0,1-.05.59c-.29,2.49-.58,5-.88,7.46q-.51,4.43-1,8.84a1.22,1.22,0,0,1-.5.73l-5.47,3ZM26,10,17,30.11h2.88a.65.65,0,0,0,.73-.5c.45-1.19.92-2.37,1.42-3.54.08-.19.34-.44.52-.44h7.17c.54,1.33,1.06,2.66,1.61,4,.07.18.23.47.36.47h3.22Z"/><path class="cls-4" d="M26,16.63l2.55,6.13H23.5Z"/></g></g><g id="plus"><g class="cls-5"><path class="cls-4" d="M58.5,13a1,1,0,0,0-1,1v7h-7a1,1,0,0,0,0,2h7v7a1,1,0,0,0,2,0V23h7a1,1,0,0,0,0-2h-7V14A1,1,0,0,0,58.5,13Z"/></g></g><g id="php"><g class="cls-6"><path class="cls-4" d="M84.35,19.61H83.09l-.69,3.53h1.1a2.67,2.67,0,0,0,1.65-.42,2.2,2.2,0,0,0,.74-1.4A1.54,1.54,0,0,0,85.74,20,1.87,1.87,0,0,0,84.35,19.61Zm6.65-6c-8.84,0-16,3.77-16,8.42s7.16,8.42,16,8.42,16-3.77,16-8.42-7.16-8.45-16-8.45Zm-4.35,9.94a3.23,3.23,0,0,1-1.22.73,5.47,5.47,0,0,1-1.71.22H82.14l-.43,2.24H79.87l1.63-8.46H85a2.92,2.92,0,0,1,2.33.84,2.63,2.63,0,0,1,.44,2.33,3.48,3.48,0,0,1-.41,1.13,3.79,3.79,0,0,1-.75.94ZM92,24.5l.72-3.73a1,1,0,0,0-.09-.87,1.28,1.28,0,0,0-.91-.23H90.28l-.94,4.83H87.5L89.16,16H91l-.48,2.28h1.63a3.16,3.16,0,0,1,2.11.53,1.78,1.78,0,0,1,.35,1.74l-.76,3.92Zm10.13-3a3.48,3.48,0,0,1-.41,1.13,3.79,3.79,0,0,1-.75.94,3.23,3.23,0,0,1-1.22.73,5.47,5.47,0,0,1-1.71.22H96.5l-.43,2.24H94.21l1.64-8.43h3.53a3,3,0,0,1,2.33.84A2.63,2.63,0,0,1,102.15,21.5Zm-3.46-1.84H97.43l-.69,3.53h1.12a2.73,2.73,0,0,0,1.64-.47,2.23,2.23,0,0,0,.73-1.4,1.5,1.5,0,0,0-.15-1.32,1.87,1.87,0,0,0-1.39-.39Z"/></g></g></g></g></g></svg>