<?xml version="1.0" encoding="UTF-8"?>
<svg xmlns="http://www.w3.org/2000/svg" version="1.1" viewBox="0 0 40 40">
  <defs>
    <style>
      .cls-1 {
        fill-rule: evenodd;
      }

      .cls-1, .cls-2 {
        fill: #1a315b;
      }

      .cls-1, .cls-3 {
        display: none;
      }
    </style>
  </defs>
  <!-- Generator: Adobe Illustrator 28.6.0, SVG Export Plug-In . SVG Version: 1.2.0 Build 709)  -->
  <g>
    <g id="Layer_1">
      <g id="web-app" class="cls-3">
        <path class="cls-2" d="M35.78,0H4.22C1.89,0,0,1.89,0,4.22v27.19c0,2.33,1.89,4.22,4.22,4.22h5.7v2.03c0,1.29,1.05,2.34,2.34,2.34h15.47c1.29,0,2.34-1.05,2.34-2.34h0v-2.03h5.7c2.33,0,4.22-1.89,4.22-4.22V4.22c0-2.33-1.89-4.22-4.22-4.22ZM29.84,3.91h5c.52,0,.94.42.94.94s-.42.94-.94.94h-5c-.52,0-.94-.42-.94-.94s.42-.94.94-.94ZM14.84,3.91c.52,0,.94.42.94.94s-.42.94-.94.94-.94-.42-.94-.94.42-.94.94-.94ZM9.84,3.91c.52,0,.94.42.94.94s-.42.94-.94.94-.94-.42-.94-.94.42-.94.94-.94ZM4.84,3.91c.52,0,.94.42.94.94s-.42.94-.94.94-.94-.42-.94-.94.42-.94.94-.94ZM16.27,28.42c.33.42.27,1.03-.15,1.37s-1.03.27-1.37-.15l-2.22-2.78c-.28-.35-.28-.86,0-1.21l2.22-2.78c.33-.42.94-.49,1.37-.16s.49.94.16,1.37c0,0,0,0,0,0l-1.73,2.17,1.73,2.17ZM21.59,23.69l-1.27,5.56c-.1.44-.49.76-.95.76-.54,0-.98-.45-.97-.99,0-.07,0-.14.02-.2l1.27-5.56c.13-.52.66-.84,1.18-.71.51.13.82.63.72,1.14h0ZM22.19,13.29h-4.27c-.5-.04-.94-.36-1.12-.83l-.51-1.05h7.53l-.51,1.05c-.19.47-.62.79-1.12.83ZM27.46,26.86l-2.22,2.78c-.34.42-.95.49-1.37.15s-.49-.95-.15-1.37l1.74-2.17-1.74-2.17c-.33-.42-.26-1.03.16-1.37.42-.33,1.02-.26,1.36.15l2.22,2.78c.29.35.29.86,0,1.21ZM39.06,31.41c0,1.81-1.47,3.28-3.28,3.28h-5.7V12.81c0-1.29-1.05-2.34-2.34-2.34h-15.47c-1.29,0-2.34,1.05-2.34,2.34h0v21.88h-5.7c-1.81,0-3.28-1.47-3.28-3.28V9.38h38.12v22.03Z"/>
      </g>
      <path id="app" class="cls-1" d="M4.72,0h15.86c2.01,0,3.63,1.63,3.64,3.64v.68c-.58,0-1.17.03-1.75.09-1.23.13-2.2,1.12-2.3,2.36l-.19,2.12c-.04.25-.27.42-.51.38-.07-.01-.14-.04-.2-.08l-1.63-1.35c-.96-.79-2.34-.79-3.29,0-.88.71-1.67,1.52-2.38,2.4-.78.97-.76,2.35.04,3.29l1.37,1.62c.15.2.11.48-.09.63-.06.04-.13.07-.2.09l-2.11.17c-1.23.11-2.22,1.08-2.34,2.32-.12,1.12-.12,2.25,0,3.38.13,1.23,1.12,2.2,2.36,2.3l2.12.18c.25.03.42.26.39.5,0,.08-.04.15-.09.22l-1.35,1.64c-.79.96-.79,2.34,0,3.29.71.88,1.52,1.67,2.4,2.38.97.78,2.35.76,3.29-.04l1.62-1.35c.2-.15.48-.11.63.09.04.06.07.13.09.2l.2,2.12c.11,1.23,1.08,2.21,2.31,2.34.54.05,1.08.08,1.63.08v.68c0,2.01-1.63,3.63-3.64,3.64H4.72c-2.01,0-3.63-1.65-3.62-3.66,0,0,0,0,0,0V3.64C1.1,1.63,2.73,0,4.74,0h-.01ZM28.53,15.68c-2.38-2.38-6.23-2.37-8.6,0s-2.37,6.23,0,8.6c2.38,2.37,6.23,2.37,8.6,0,2.38-2.38,2.38-6.23,0-8.6,0,0,0,0,0,0ZM21.93,21.33c.19.19.19.51,0,.71s-.51.19-.71,0l-1.69-1.7c-.19-.2-.19-.51,0-.71l1.71-1.7c.17-.22.48-.25.7-.08s.25.48.08.7c-.03.04-.06.07-.1.09l-1.35,1.35,1.35,1.35ZM25.83,15.83l-2.29,8.54c-.09.26-.37.4-.63.31-.24-.08-.38-.32-.33-.57l2.29-8.54c.09-.26.37-.4.63-.31.24.08.38.32.33.57ZM27.18,22.04c-.19.19-.5.2-.7,0,0,0,0,0,0,0-.19-.2-.19-.51,0-.71l1.35-1.35-1.35-1.35c-.19-.2-.19-.51,0-.71.19-.19.5-.2.7,0,0,0,0,0,0,0l1.71,1.7c.19.2.19.51,0,.71l-1.71,1.7ZM38.76,18.34c-.08-.76-.69-1.35-1.45-1.41l-2.12-.18c-.79-.06-1.37-.75-1.31-1.54.02-.29.14-.57.33-.8l1.35-1.64c.49-.59.49-1.44,0-2.02-.67-.83-1.42-1.58-2.25-2.25-.59-.48-1.44-.47-2.02.03l-1.63,1.38c-.61.51-1.51.43-2.02-.17-.19-.22-.3-.5-.33-.79l-.13-2.1c-.06-.76-.66-1.37-1.42-1.44-1.05-.11-2.1-.11-3.15,0-.76.08-1.35.69-1.41,1.45l-.18,2.12c-.04.79-.71,1.4-1.5,1.36-.33-.02-.64-.14-.88-.36l-1.64-1.35c-.59-.49-1.44-.49-2.02,0-.83.67-1.58,1.42-2.25,2.25-.46.6-.43,1.44.06,2l1.35,1.63c.51.61.43,1.51-.18,2.02-.22.18-.49.3-.77.33l-2.12.2c-.76.07-1.36.67-1.43,1.43-.11,1.05-.11,2.1,0,3.15.08.76.69,1.35,1.45,1.41l2.12.18c.79.07,1.38.76,1.31,1.55-.02.29-.14.57-.32.79l-1.35,1.64c-.49.59-.49,1.44,0,2.02.67.83,1.42,1.58,2.25,2.25.59.48,1.44.47,2.02-.03l1.63-1.38c.61-.51,1.51-.43,2.02.17.19.22.3.5.33.79l.2,2.12c.06.75.64,1.35,1.39,1.44,1.05.11,2.1.11,3.15,0,.76-.08,1.35-.69,1.41-1.45l.18-2.12c.06-.79.75-1.37,1.54-1.31.29.02.57.14.8.33l1.64,1.35c.59.49,1.44.49,2.02,0,.83-.67,1.58-1.42,2.25-2.25.48-.59.47-1.44-.03-2.02l-1.35-1.63c-.51-.61-.43-1.51.18-2.01.23-.19.5-.3.8-.33l2.12-.2c.76-.07,1.36-.66,1.44-1.42.1-1.06.09-2.12-.04-3.17h-.04ZM24.22,27.07c-3.91,0-7.08-3.17-7.08-7.08s3.17-7.08,7.08-7.08,7.08,3.17,7.08,7.08-3.17,7.08-7.08,7.08ZM14.67,36.38h-3.45c-.28,0-.5.22-.5.5s.22.5.5.5h3.45c.28,0,.5-.22.5-.5s-.22-.5-.5-.5Z"/>
      <g id="website">
        <path class="cls-2" d="M35.33,3.33H4.67C2.09,3.33,0,5.43,0,8v24c0,2.57,2.09,4.67,4.67,4.67h30.67c2.57,0,4.67-2.09,4.67-4.67V8c0-2.57-2.09-4.67-4.67-4.67ZM16.79,8.73c0,1.39-1.13,2.53-2.53,2.53s-2.53-1.13-2.53-2.53,1.13-2.53,2.53-2.53c1.39,0,2.53,1.13,2.53,2.53ZM7.08,6.21c1.39,0,2.53,1.13,2.53,2.53s-1.13,2.53-2.53,2.53-2.53-1.13-2.53-2.53,1.13-2.53,2.53-2.53ZM35.33,35.33H4.67c-1.84,0-3.33-1.49-3.33-3.33V14.13h37.33v17.87c0,1.84-1.49,3.33-3.33,3.33Z"/>
        <path class="cls-2" d="M15.97,20.56c-.29-.23-.71-.19-.94.1l-2.97,3.65c-.2.25-.2.59,0,.84l2.97,3.65c.13.16.33.25.52.25.15,0,.29-.05.42-.15.29-.23.33-.65.1-.94l-2.63-3.23,2.63-3.23c.23-.29.18-.71-.1-.94Z"/>
        <path class="cls-2" d="M24.97,20.65c-.23-.29-.65-.33-.94-.1-.29.23-.33.65-.1.94l2.63,3.23-2.63,3.23c-.23.29-.19.71.1.94.13.1.27.15.42.15.19,0,.39-.09.52-.25l2.97-3.65c.2-.25.2-.59,0-.84l-2.97-3.65Z"/>
        <path class="cls-2" d="M22.13,18.37c-.35-.11-.73.07-.85.42l-3.84,11.45c-.12.35.07.73.42.85.07.03.14.03.21.03.28,0,.54-.17.63-.45l3.84-11.45c.11-.35-.07-.73-.42-.85Z"/>
      </g>
    </g>
  </g>
</svg>