<?xml version="1.0" encoding="UTF-8"?>
<svg id="Layer_2" xmlns="http://www.w3.org/2000/svg" xmlns:xlink="http://www.w3.org/1999/xlink" viewBox="0 0 30 30">
  <defs>
    <style>
      .cls-1 {
        fill: #f16129;
      }

      .cls-2 {
        fill: none;
      }

      .cls-3 {
        clip-path: url(#clippath);
      }
    </style>
    <clipPath id="clippath">
      <rect class="cls-2" width="30" height="30"/>
    </clipPath>
  </defs>
  <g id="Layer_1-2" data-name="Layer_1">
    <g class="cls-3">
      <path class="cls-1" d="M9.42,4.4c0-.17.14-.31.31-.31h10.62c.17,0,.31.14.31.31s-.14.31-.31.31h-10.62c-.17,0-.31-.14-.31-.31ZM4.06,10.91v8.18c0,.17.14.31.31.31s.31-.14.31-.31v-8.18c0-.17-.14-.31-.31-.31s-.31.14-.31.31ZM25.94,19.17v-8.18c0-.17-.14-.31-.31-.31s-.31.14-.31.31v8.18c0,.17.14.31.31.31s.31-.14.31-.31ZM20.35,25.36h-10.77c-.17,0-.31.14-.31.31s.14.31.31.31h10.77c.17,0,.31-.14.31-.31,0-.17-.14-.31-.31-.31ZM21.11,19.01c.2.29.17.68-.09.93l-1.1,1.1c-.25.25-.64.28-.93.09l-.74-.51s-.08-.03-.12,0c-.44.25-.92.45-1.41.58-.05.01-.08.04-.08.09l-.16.88c-.06.35-.37.6-.72.6h-1.55c-.35,0-.65-.25-.72-.6l-.16-.88s-.04-.08-.08-.09c-.49-.14-.97-.33-1.41-.58-.04-.02-.08-.02-.12,0l-.74.51c-.29.2-.68.17-.93-.09l-1.1-1.1c-.25-.25-.28-.64-.09-.93l.51-.74s.03-.08,0-.12c-.25-.44-.45-.92-.58-1.41-.01-.05-.04-.08-.09-.08l-.89-.16c-.35-.06-.6-.37-.6-.72v-1.55c0-.35.25-.65.6-.72l.88-.16s.08-.04.09-.08c.14-.49.33-.97.58-1.41.02-.04.02-.08,0-.12l-.51-.74c-.2-.29-.17-.68.09-.93l1.1-1.1c.25-.25.64-.28.93-.09l.74.51s.08.03.12,0c.44-.25.92-.45,1.41-.58.05-.01.08-.04.08-.09l.16-.89c.06-.35.37-.6.72-.6h1.55c.35,0,.65.25.72.6l.16.89s.04.08.08.09c.49.14.97.33,1.41.58.04.02.08.02.12,0l.74-.51c.29-.2.68-.17.93.09l1.1,1.1c.25.25.28.64.09.93l-.51.74s-.03.08,0,.12c.25.44.45.92.58,1.41.01.05.04.08.09.08l.89.16c.35.06.6.37.6.72v1.55c0,.35-.25.65-.6.72l-.88.16s-.08.04-.09.08c-.14.49-.33.97-.58,1.41-.02.04-.02.08,0,.12l.51.74ZM20.61,19.36l-.51-.74c-.16-.23-.17-.53-.04-.77.23-.4.4-.83.53-1.28.08-.27.29-.47.57-.52l.88-.16c.06-.01.09-.06.09-.11v-1.55c0-.06-.04-.1-.09-.11l-.89-.16c-.28-.05-.5-.25-.57-.52-.12-.44-.3-.87-.53-1.28-.14-.24-.12-.54.04-.77l.51-.74s.03-.11-.01-.15l-1.1-1.1s-.1-.05-.15-.01l-.74.51c-.23.16-.53.17-.77.04-.4-.23-.83-.4-1.28-.53-.27-.08-.47-.29-.52-.57l-.16-.89c-.01-.06-.06-.09-.11-.09h-1.55c-.06,0-.1.04-.11.09l-.16.89c-.05.28-.25.5-.52.57-.44.12-.87.3-1.28.53-.24.14-.54.12-.77-.04l-.74-.51s-.11-.03-.15.01l-1.1,1.1s-.05.1-.01.15l.51.74c.16.23.17.53.04.77-.23.4-.4.83-.53,1.28-.08.27-.29.47-.57.52l-.88.16c-.06.01-.09.06-.09.11v1.55c0,.06.04.1.09.11l.89.16c.28.05.5.25.57.52.12.44.3.87.53,1.28.14.24.12.54-.04.77l-.51.74s-.03.11.01.15l1.1,1.1s.1.05.15.01l.74-.51c.12-.09.27-.13.41-.13.12,0,.24.03.36.09.4.23.83.4,1.28.53.27.08.47.29.52.57l.16.88c.01.06.06.09.11.09h1.55c.06,0,.1-.04.11-.09l.16-.89c.05-.28.25-.5.52-.57.44-.12.87-.3,1.28-.53.24-.14.54-.12.77.04l.74.51s.11.03.15-.01l1.1-1.1s.04-.1,0-.14h0ZM19.1,15.04c0,2.26-1.84,4.1-4.1,4.1s-4.1-1.84-4.1-4.1,1.84-4.1,4.1-4.1c2.26,0,4.1,1.84,4.1,4.1ZM18.48,15.04c0-1.92-1.56-3.48-3.48-3.48s-3.48,1.56-3.48,3.48,1.56,3.48,3.48,3.48,3.48-1.56,3.48-3.48ZM0,7.34V2.65C0,2.54.06,2.44.15,2.39L4.21.04c.09-.06.21-.06.31,0l4.06,2.34c.09.06.15.16.15.26v4.69c0,.11-.06.21-.15.26l-4.06,2.34s-.1.04-.15.04-.1-.01-.15-.04L.15,7.6c-.09-.05-.15-.15-.15-.26h0ZM.61,7.16l3.45,1.99v-3.98L.61,3.18v3.98ZM8.12,7.16v-3.98l-3.45,1.99v3.98l3.45-1.99ZM.92,2.65l3.45,1.99,3.45-1.99-3.45-1.99L.92,2.65ZM8.73,22.66v4.69c0,.11-.06.21-.15.26l-4.06,2.34s-.1.04-.15.04-.1-.01-.15-.04L.15,27.61c-.09-.06-.15-.16-.15-.26v-4.69c0-.11.06-.21.15-.26l4.06-2.34c.09-.06.21-.06.31,0l4.06,2.34c.09.05.15.15.15.26ZM.92,22.66l3.45,1.99,3.45-1.99-3.45-1.99-3.45,1.99ZM.61,27.17l3.45,1.99v-3.98l-3.45-1.99v3.98ZM8.12,27.17v-3.98l-3.45,1.99v3.98l3.45-1.99ZM30,22.66v4.69c0,.11-.06.21-.15.26l-4.06,2.34s-.1.04-.15.04-.1-.01-.15-.04l-4.06-2.34c-.09-.06-.15-.16-.15-.26v-4.69c0-.11.06-.21.15-.26l4.06-2.34c.09-.06.21-.06.31,0l4.06,2.34c.09.05.15.15.15.26ZM22.19,22.66l3.45,1.99,3.45-1.99-3.45-1.99-3.45,1.99ZM21.88,27.17l3.45,1.99v-3.98l-3.45-1.99v3.98ZM29.39,27.17v-3.98l-3.45,1.99v3.98l3.45-1.99ZM30,2.65v4.69c0,.11-.06.21-.15.26l-4.06,2.34s-.1.04-.15.04-.1-.01-.15-.04l-4.06-2.34c-.09-.06-.15-.16-.15-.26V2.65c0-.11.06-.21.15-.26L25.48.04c.09-.06.21-.06.31,0l4.06,2.34c.09.06.15.16.15.26ZM22.19,2.65l3.45,1.99,3.45-1.99-3.45-1.99-3.45,1.99ZM21.88,7.16l3.45,1.99v-3.98l-3.45-1.99v3.98ZM29.39,7.16v-3.98l-3.45,1.99v3.98l3.45-1.99Z"/>
    </g>
  </g>
</svg>