<?xml version="1.0" encoding="UTF-8"?>
<svg id="Layer_2" xmlns="http://www.w3.org/2000/svg" xmlns:xlink="http://www.w3.org/1999/xlink" viewBox="0 0 30 30">
  <defs>
    <style>
      .cls-1 {
        fill: #f16129;
      }

      .cls-2 {
        fill: none;
      }

      .cls-3 {
        clip-path: url(#clippath);
      }
    </style>
    <clipPath id="clippath">
      <rect class="cls-2" width="30" height="30"/>
    </clipPath>
  </defs>
  <g id="Layer_1-2" data-name="Layer_1">
    <g class="cls-3">
      <path class="cls-1" d="M23.4,18.58c-.55-.31-1.22-.3-1.76.03l-4,2.37c.04-.22.05-.45.01-.67-.16-1.03-1.07-1.77-2.11-1.71-.03,0-.07.01-.1.02-1.93.82-3.48.77-4.74-.15-1.23-1.55-3.4-1.59-6.45-.11l-.16-.58c-.09-.34-.44-.54-.78-.45l-2.84.76c-.34.09-.54.44-.45.78l2.45,9.15c.08.28.33.47.62.47.06,0,.11,0,.17-.02l2.84-.76c.34-.09.54-.44.45-.78l-.15-.55c1.22-.49,2.58-.41,4.26.26h0c.45.24.96.36,1.47.34,2.58,0,6.3-2.32,9.15-4.1.83-.52,1.55-.97,2.11-1.27h0c.55-.31.89-.89.89-1.52,0-.63-.34-1.21-.89-1.52h0ZM5.97,27.13s-.01.02-.02.02l-2.84.76s-.04,0-.05-.03L.6,18.73s0-.04.03-.05l2.84-.76s.04,0,.05.03l2.45,9.15h0s0,.02,0,.03ZM23.1,21.09c-.57.31-1.3.77-2.14,1.29-3.15,1.97-7.91,4.94-10.03,3.74h0s-.02-.01-.04-.02c-1.81-.72-3.3-.82-4.65-.29l-1.84-6.85c1.42-.7,2.64-1.06,3.61-1.08.87-.06,1.7.31,2.24,1,.02.02.04.04.06.06,1.42,1.05,3.21,1.14,5.31.26.56-.02,1.07.29,1.31.79.24.5.16,1.1-.2,1.52l-.82.49c-1.91.87-3.39.94-4.38.23h0c-.06-.05-.15-.07-.22-.05-.08.01-.15.06-.2.12-.1.13-.07.32.07.42.58.41,1.27.62,1.98.6,1.04-.04,2.06-.3,2.99-.76.37-.09.71-.29.97-.57l4.82-2.87h0c.26-.16.58-.21.88-.13.3.07.55.27.71.53.16.27.2.58.12.88-.08.3-.28.55-.55.7h0ZM12.44,10.17c0,.47.49.85,1.09.85.93,0,1.69.65,1.69,1.45h0c-.05.75-.64,1.36-1.39,1.43v.22c0,.17-.13.3-.3.3s-.3-.13-.3-.3v-.22c-.75-.07-1.34-.68-1.39-1.43,0-.17.13-.3.3-.3s.3.13.3.3c0,.47.49.85,1.09.85s1.09-.38,1.09-.85-.49-.85-1.09-.85c-.93,0-1.69-.65-1.69-1.45h0c.05-.75.64-1.36,1.39-1.43v-.22c0-.17.13-.3.3-.3s.3.13.3.3v.22c.75.07,1.34.68,1.39,1.43,0,.17-.13.3-.3.3s-.3-.13-.3-.3c0-.47-.49-.85-1.09-.85s-1.09.38-1.09.85h0ZM29.64,3.44c-.01-.34-.3-.6-.63-.58l-2.67.11c-.33.01-.59.29-.58.62-2.57.17-3.62-.57-4.55-1.23-.5-.42-1.1-.71-1.74-.84-.55-.08-1.12.07-1.55.43h0s-2.6,2.29-2.6,2.29c-.2-.02-.4-.03-.6-.03-1.21,0-2.4.34-3.44.98-.02.01-.04.03-.05.04-1.73.65-3.1,2.01-3.77,3.73-.67,1.72-.58,3.65.25,5.3.83,1.65,2.32,2.87,4.1,3.36,1.78.49,3.69.2,5.24-.8,1.84-.7,3.25-2.19,3.87-4.06.45.03.88.04,1.28.04,1.79,0,3.04-.29,3.91-.9v.29s.01,0,.01,0c.01.33.28.58.61.58h.02l2.67-.11h0c.34-.01.6-.3.58-.63l-.36-8.59ZM18.48,6.16l-.56.34h0c-1.04-.95-2.36-1.53-3.76-1.66.19-.02.37-.03.56-.03h0c1.37,0,2.7.48,3.76,1.35h0ZM7.61,11.32c0-1.52.58-2.98,1.63-4.07,1.04-1.1,2.47-1.76,3.98-1.84,1.51-.08,3,.43,4.15,1.41l-.73.44c-1.94-1.49-4.66-1.39-6.49.23-1.83,1.62-2.26,4.31-1.02,6.42,1.24,2.11,3.8,3.04,6.11,2.22,2.3-.82,3.71-3.15,3.35-5.57l.75-.38c.32,1.64-.07,3.34-1.07,4.67-1,1.34-2.51,2.19-4.17,2.35-1.66.16-3.31-.39-4.55-1.51-1.23-1.12-1.94-2.71-1.94-4.38h0ZM15.86,9.93h0c.43.76,1.32,1.13,2.16.91.02.16.03.32.03.48,0,2.08-1.42,3.89-3.44,4.38-2.02.5-4.11-.45-5.07-2.3-.96-1.84-.54-4.1,1.02-5.48,1.56-1.37,3.86-1.5,5.56-.31-.58.62-.69,1.56-.26,2.3h0ZM19.14,14.64c.6-1,.91-2.15.91-3.32,0-.48-.05-.95-.16-1.42l.63-.32h0c.35,1.81-.16,3.68-1.38,5.05h0ZM21.07,12.16c.21-.94.21-1.91,0-2.85l2.52-1.28c.15-.08.21-.26.13-.41-.08-.15-.26-.21-.41-.13l-2.73,1.38-1.18.6-1.53.77c-.59.16-1.21-.1-1.51-.63-.3-.53-.22-1.19.21-1.62l3.75-2.27c.14-.09.18-.27.1-.41-.08-.14-.26-.19-.41-.11l-1.01.61c-.83-.74-1.84-1.25-2.93-1.48l2.22-1.95h0c.3-.25.69-.36,1.07-.3.55.12,1.06.38,1.49.74.96.68,2.15,1.52,4.92,1.34l.29,6.96c-.88.83-2.48,1.16-5,1.01h0ZM29.39,12.06l-2.67.11s0,0,0,0l-.35-8.59h0s0,0,0,0l2.67-.11h0s0,0,0,0l.35,8.59h0s0,0,0,0ZM27.88,6.84c-.39,0-.75.24-.9.6-.15.36-.07.78.21,1.06.28.28.7.36,1.06.21.36-.15.6-.51.6-.9,0-.54-.44-.98-.97-.98ZM27.88,8.19c-.15,0-.29-.09-.35-.23-.06-.14-.02-.3.08-.41s.27-.14.41-.08c.14.06.23.19.23.35,0,.21-.17.37-.37.37h0Z"/>
    </g>
  </g>
</svg>