<?xml version="1.0" encoding="UTF-8"?>
<svg id="Layer_2" xmlns="http://www.w3.org/2000/svg" xmlns:xlink="http://www.w3.org/1999/xlink" viewBox="0 0 30 30">
  <defs>
    <style>
      .cls-1 {
        fill: #f16129;
      }

      .cls-2 {
        fill: none;
      }

      .cls-3 {
        clip-path: url(#clippath);
      }
    </style>
    <clipPath id="clippath">
      <rect class="cls-2" width="30" height="30"/>
    </clipPath>
  </defs>
  <g id="Layer_1-2" data-name="Layer_1">
    <g class="cls-3">
      <path class="cls-1" d="M15.01,11.58c1.95,0,3.53-1.58,3.53-3.53-.18-4.66-6.85-4.66-7.03,0-.03,1.95,1.55,3.53,3.5,3.53ZM15.01,5.16c1.61,0,2.92,1.31,2.92,2.92-.18,3.83-5.66,3.83-5.84-.03,0-1.61,1.31-2.89,2.92-2.89ZM8.77,9.66h.85c.12.37.24.73.46,1.06l-.61.61c-.24.24-.24.67,0,.91l1.37,1.34c.24.24.67.24.91,0l.61-.61c.33.18.7.33,1.06.46v.85c0,.37.3.64.64.64h1.92c.37,0,.64-.3.64-.64v-.85c.37-.12.73-.24,1.06-.46l.61.61c.24.24.67.24.91,0l1.34-1.34c.24-.24.24-.67,0-.91l-.61-.61c.18-.33.33-.7.46-1.06h.85c.37,0,.64-.3.64-.64v-1.92c0-.37-.3-.64-.64-.64h-.85c-.12-.37-.24-.73-.46-1.06l.61-.61c.24-.24.24-.67,0-.91l-1.37-1.37c-.24-.24-.67-.24-.91,0l-.61.61c-.33-.18-.7-.33-1.06-.46v-.85c0-.37-.3-.64-.64-.64h-1.92c-.37,0-.64.3-.64.64v.85c-.37.12-.73.27-1.06.46l-.61-.61c-.24-.24-.67-.24-.91,0l-1.37,1.37c-.24.24-.24.67,0,.91l.61.61c-.18.33-.33.7-.46,1.06h-.85c-.37,0-.64.3-.64.64v1.92c0,.33.3.64.67.64ZM8.71,7.1s.03-.03.03-.03h1.1c.15,0,.27-.09.3-.24.12-.49.3-.91.55-1.34.06-.12.06-.27-.06-.37l-.73-.79s-.03-.03,0-.06l1.37-1.37h.06l.76.76c.09.09.24.12.37.06.43-.24.88-.43,1.34-.55.12-.03.24-.15.24-.3v-1.06s.03-.03.03-.03h1.92s.03.03.03.03v1.1c0,.15.09.27.24.3.49.12.91.3,1.34.55.12.06.27.06.37-.06l.76-.76h.06l1.34,1.37v.06l-.76.76c-.09.09-.12.24-.06.37.24.43.43.88.55,1.34.03.12.15.24.3.24h1.1s.03.03.03.03v1.92s-.03.03-.03.03h-1.1c-.15,0-.27.09-.3.24-.12.46-.3.91-.55,1.34-.06.12-.06.27.06.37l.76.76v.06l-1.34,1.34.21.21c-.18-.12-.88-.82-1.03-.97-.09-.09-.24-.12-.37-.06-.43.24-.88.43-1.34.55-.12.03-.24.15-.24.3v1.1s-.03.03-.03.03h-1.92s-.03-.03-.03-.03v-1.1c0-.15-.09-.27-.24-.3-.46-.12-.91-.3-1.34-.55-.12-.06-.27-.06-.37.06l-.76.76.21.21c-.15-.09-1.46-1.4-1.61-1.58,0-.03-.03-.03,0-.06l.76-.76c.09-.09.12-.24.06-.37-.24-.43-.43-.88-.55-1.34-.03-.12-.15-.24-.3-.24h-1.1s-.03-.03-.03-.03v-1.89h-.06ZM29.95,20.31c-.09-.4-.3-.73-.58-.97.37-.24.58-.67.58-1.16.03-.24-.15-.52-.4-.52-.43.03-1.4-.09-1.76.15l-.94-1.89c-.33-.64-.94-1.03-1.64-1.03h-5.54c-.79,0-1.46.55-1.76,1.28h-5.54c-.09,0-.18,0-.24.03-.3-.76-.97-1.31-1.76-1.31h-5.51c-.67,0-1.31.4-1.64,1.03l-.97,1.89c-.37-.27-1.34-.12-1.76-.15-.27,0-.43.24-.4.52,0,.49.24.91.58,1.16-.27.21-.49.55-.58.91-.21.58.15,1.89.24,2.46v2.59c0,.46.37.82.79.82h1.37c.4,0,.7-.3.76-.67h4.05v2.46c0,.49.4.91.85.91h1.55c.43,0,.76-.33.85-.76h9.95c.06.43.43.76.85.76h1.55c.46,0,.85-.4.85-.91v-2.46h3.07c.06.4.4.67.76.67h1.37c.43,0,.79-.37.79-.82v-2.59c.06-.58.4-1.89.21-2.4ZM28.39,18.27h.94c-.03.37-.3.64-.64.64h-.37l-.27-.55c.09-.06.21-.09.33-.09ZM19.66,15.5h5.51c.46,0,.85.27,1.1.7,0,0,1.1,2.19,1.13,2.19.03.06.21.43.24.49h-6.39l-.79-1.55c-.33-.67-1.06-1.16-1.86-1.16.24-.4.64-.67,1.06-.67ZM12.36,16.78h6.27c.52,0,1,.3,1.28.82.4.79,1.19,2.34,1.58,3.1h-11.99c.18-.33.52-1.03.7-1.37.58-.91.85-2.5,2.16-2.56ZM20.12,22.29c-.37.15-.67.49-.79.85t.03-.06c-.03.06-.06.15-.06.24,0-.06.03-.12.03-.15-.03.06-.03.12-.03.15h-7.61c-.3-1.43-2.22-1.49-2.56-.06-.58-.15-1.1-.52-1.49-1,.18-.58.76-.94,1.37-.91h-.03,12.87c.64-.06,1.31.27,1.49.91-.43.43-.85.82-1.49.97-.12-.76-1-1.22-1.73-.94ZM21.3,23.6c-.03,1.06-1.4,1.06-1.43,0,.03-1.06,1.4-1.06,1.43,0ZM11.11,23.6c-.03,1.06-1.4,1.06-1.43,0,.03-1.06,1.4-1.06,1.43,0ZM2.62,18.42s1.13-2.19,1.13-2.22c.21-.46.64-.7,1.1-.7h5.51c.52,0,.97.37,1.19.88-.97.52-1.28,1.61-1.76,2.53H2.38l.24-.49ZM1.62,18.27c.12,0,.24.03.33.09l-.27.55h-.37c-.33,0-.58-.27-.64-.64h.94ZM2.44,25.51h-1.37c-.21,0-.15-.4-.18-.55.18.21.43.4.73.43.18.06.76.03.94.03-.03.06-.06.09-.12.09ZM1.89,24.81c-.4,0-.67-.37-.73-.73l-.24-1.49v-.06l-.24-1.46c.37.3.79.52,1.28.64.24,1.34,2.04,1.37,2.34.06h2.92c-.06.12-.12.24-.15.37h-.4c-.7,0-1.31.37-1.52.88l-.37.85c-.03.09-.03.21.03.27.06.09.15.15.24.15h2.16l.09.49H1.89v.03ZM2.5,21.5c0-.49.46-.85.85-.61.49.3.37,1.28-.27,1.28-.3,0-.58-.3-.58-.67ZM4.26,21.34c.03.15,0,.3-.03.46.06-.15.06-.3.03-.46ZM6.94,22.96h0c0,.15.09.61.12.79h-1.58l.18-.46c.12-.3.52-.52.97-.52h.3c0,.06,0,.12,0,.18ZM4.26,21.19c0,.06.03.09.03.15-.15-1.37-1.95-1.52-2.34-.21-.49-.15-.94-.46-1.25-.85.15-.43.52-.73.91-.76h7.82c-.12.3-.61.94-.79,1.22-.37.03-.73.18-1,.43h-3.38v.03ZM9.68,28.22h-1.55c-.33,0-.21-.55-.24-.76.46.67,1.31.64,2.01.61-.06.06-.12.15-.21.15ZM23.1,27.92c0,.15-.12.3-.24.3h-1.55c-.09,0-.18-.06-.21-.15.03.03.4,0,.46,0,.58.06,1.22-.09,1.55-.61v.46ZM23.4,23.11c-.09.61-.21,1.19-.3,1.8l-.3,1.7c-.09.49-.46.85-.85.85h-12.9c-.43,0-.79-.37-.88-.85-.09-.58-.33-2.04-.46-2.59l-.15-.91c.43.4.97.67,1.52.79.27,1.49,2.28,1.55,2.59.06h7.61v-.37c.03,1.7,2.28,1.95,2.62.27.58-.12,1.1-.4,1.52-.76h0ZM23.31,21.19c-.3-.3-.73-.4-1.16-.46l-.61-1.22h6.85c.4.03.76.33.91.76-.33.37-.76.73-1.25.82-.03-.12-.09-.27-.18-.4h0c-.58-.91-1.95-.61-2.13.43,0,.06-2.43.06-2.43.06ZM27.97,20.86s-.03-.06-.06-.09c.03.03.06.06.06.09ZM27.51,21.5c0,.88-1.16.88-1.19,0,.03-.88,1.16-.94,1.19,0ZM29.09,25.27c0,.12-.09.21-.18.21h-1.37c-.06,0-.09-.03-.12-.06.21,0,.79.03.97-.03.27-.06.52-.21.7-.43v.3ZM29.12,22.56v.06l-.24,1.49c-.06.43-.37.73-.73.73h-4.41l.09-.49h1.19c.21,0,.37-.24.27-.43l-.37-.85c-.15-.37-.49-.64-.91-.79h0c-.03-.15-.09-.33-.18-.46h1.95c.3,1.34,2.07,1.28,2.34-.06.46-.12.91-.33,1.28-.64l-.27,1.43ZM23.92,23.72c.03-.15.12-.61.12-.76.27.15.37.52.49.76h-.61ZM26.26,20.4l-.03.03.03-.03h0ZM1.01,21.37c.06.03.09.06.12.09-.06-.06-.12-.09-.18-.12.03,0,.06,0,.06.03ZM18.26,25.39c-.24-.58-.91-.97-1.67-.97h-2.19c-.76,0-1.43.4-1.7.97l-.43.97c-.09.18.06.43.27.43h5.81c.21,0,.37-.24.27-.43.06.03-.37-.97-.37-.97ZM13.06,26.18l.24-.55c.15-.37.61-.61,1.13-.61h2.16c.52,0,.97.24,1.13.61l.24.55h-4.9Z"/>
    </g>
  </g>
</svg>