<?xml version="1.0" encoding="UTF-8"?>
<svg id="Layer_2" xmlns="http://www.w3.org/2000/svg" xmlns:xlink="http://www.w3.org/1999/xlink" viewBox="0 0 30 30">
  <defs>
    <style>
      .cls-1 {
        fill: none;
      }

      .cls-2 {
        fill: #f16129;
        fill-rule: evenodd;
      }

      .cls-3 {
        clip-path: url(#clippath);
      }
    </style>
    <clipPath id="clippath">
      <rect class="cls-1" width="30" height="30"/>
    </clipPath>
  </defs>
  <g id="Layer_1-2" data-name="Layer_1">
    <g class="cls-3">
      <path class="cls-2" d="M9.31,18.65h-1.36v3.18c0,.11-.06.2-.14.26l-2.45,1.8c.11.23.17.48.17.75,0,.47-.19.9-.5,1.21-.31.31-.74.5-1.21.5s-.9-.19-1.21-.5-.5-.74-.5-1.21.19-.9.5-1.21.74-.5,1.21-.5.87.18,1.18.47l2.34-1.72v-3.03h-3.08c-1.17,0-2.23-.45-3-1.18-.78-.73-1.26-1.75-1.26-2.86,0-1.01.4-1.94,1.05-2.65.6-.66,1.42-1.13,2.35-1.31.06-.81.43-1.54,1-2.08.62-.58,1.47-.94,2.41-.94.27,0,.53.03.78.09.16.04.31.08.46.13.59-1.22,1.53-2.26,2.7-3,1.22-.77,2.68-1.22,4.25-1.22,1.15,0,2.24.24,3.22.67.95.42,1.8,1.02,2.49,1.76.23-.07.46-.12.71-.16.3-.05.61-.08.93-.08,1.47,0,2.8.56,3.77,1.48.97.92,1.57,2.18,1.57,3.58,0,.04,0,.08,0,.14.66.33,1.23.81,1.63,1.4.43.63.68,1.38.68,2.19,0,1.12-.48,2.13-1.26,2.86-.77.73-1.84,1.18-3,1.18h-3.08v3.03l2.34,1.72c.31-.29.72-.47,1.18-.47s.9.19,1.21.5c.31.31.5.74.5,1.21s-.19.9-.5,1.21c-.31.31-.74.5-1.21.5s-.9-.19-1.21-.5c-.31-.31-.5-.74-.5-1.21,0-.27.06-.53.17-.75l-2.45-1.8c-.09-.05-.14-.15-.14-.26v-3.18h-1.65v.24c.16,0,.3.14.3.31v1.93c0,.17-.13.3-.3.31v1.61c0,.29-.1.55-.26.74-.18.21-.42.34-.69.34h-8.88c-.35,0-.67-.16-.9-.42-.22-.25-.36-.59-.36-.96v-4.08h0ZM4.6,23.87c-.2-.2-.48-.32-.78-.32s-.58.12-.78.32c-.2.2-.32.48-.32.78s.12.58.32.78c.2.2.48.32.78.32s.58-.12.78-.32c.2-.2.32-.48.32-.78s-.12-.58-.32-.78ZM26.96,23.87c-.2-.2-.48-.32-.78-.32s-.58.12-.78.32c-.2.2-.32.48-.32.78s.12.58.32.78c.2.2.48.32.78.32s.58-.12.78-.32c.2-.2.32-.48.32-.78,0-.31-.12-.58-.32-.78ZM9.92,18.32h1.67l.32-.23h0c0-.31.24-.55.54-.55s.54.24.54.54-.24.54-.54.54c-.07,0-.13-.01-.19-.04h0s-.39.28-.39.28c-.05.04-.12.06-.19.06h-1.77v.49h1.93l.48-.33c.05-.04.12-.06.19-.06h1.01c.1-.14.26-.24.45-.24.3,0,.54.24.54.54s-.24.54-.54.54c-.19,0-.35-.09-.45-.24h-.92l-.48.33c-.05.04-.12.06-.19.06h-2.03v.38h2.7c.1-.14.26-.24.45-.24.3,0,.54.24.54.54s-.24.54-.54.54c-.19,0-.35-.09-.45-.24h-2.7v.39h1.69c.07,0,.13.02.19.06l.39.27h0c.06-.02.13-.03.19-.03.3,0,.54.24.54.54s-.24.54-.54.54-.54-.24-.54-.54h0s0-.01,0-.01l-.32-.23h-1.6v.71c0,.22.08.42.2.56.12.13.27.21.44.21h8.88c.08,0,.16-.05.22-.12.07-.09.12-.21.12-.35v-1.61h-1.66c-.35,0-.67-.14-.9-.37-.23-.23-.37-.55-.37-.9s.14-.67.37-.9c.23-.23.55-.37.9-.37h1.66v-1.61c0-.14-.05-.26-.12-.35h0c-.06-.07-.14-.12-.23-.12h-8.75c-.28,0-.55-.08-.77-.23v1.74ZM18.14,19.83c-.17,0-.31.15-.31.33s.14.33.31.33.31-.15.31-.33c0-.18-.14-.33-.31-.33ZM20.08,19.5h-1.96c-.18,0-.35.07-.47.19-.12.12-.19.29-.19.47s.07.35.19.47.28.19.47.19h1.96v-1.32ZM20.4,18.04h5.34c1.01,0,1.92-.39,2.58-1.01.66-.62,1.07-1.48,1.07-2.42,0-.68-.21-1.31-.58-1.84-.38-.55-.92-1-1.56-1.28-.12-.05-.19-.17-.18-.3,0-.06,0-.12,0-.16,0-.04,0-.09,0-.16,0-1.23-.53-2.33-1.38-3.14-.86-.81-2.04-1.31-3.35-1.31-.29,0-.56.02-.83.07-.27.05-.54.11-.8.2-.11.04-.24,0-.33-.09-.66-.74-1.48-1.34-2.42-1.75-.9-.4-1.91-.62-2.97-.62-1.45,0-2.8.42-3.93,1.13-1.15.73-2.06,1.77-2.59,2.99v.03c-.08.15-.27.22-.42.15-.19-.09-.4-.16-.61-.21-.21-.05-.42-.07-.65-.07-.78,0-1.48.3-1.99.78-.5.48-.81,1.13-.81,1.85v.03c0,.15-.11.29-.26.31-.89.12-1.68.55-2.24,1.16-.55.6-.89,1.38-.89,2.23,0,.94.41,1.8,1.07,2.42.66.63,1.58,1.01,2.58,1.01h5.05v-2.61c0-.38.16-.73.41-.98s.6-.41.98-.41h7.56c.38,0,.73.16.98.41s.41.6.41.98v.79c.2.04.37.16.51.32h0s0,0,0,0c.16.19.26.46.26.74v.76s0,0,0,0ZM18.24,14.67h-7.56c-.21,0-.4.09-.54.23s-.23.33-.23.54.09.4.23.54.33.23.54.23h8.32v-.77c0-.21-.09-.4-.23-.54-.14-.14-.33-.23-.54-.23h0ZM4,10.9h0s0,0,0,0Z"/>
    </g>
  </g>
</svg>