<?xml version="1.0" encoding="UTF-8"?>
<svg id="Layer_2" xmlns="http://www.w3.org/2000/svg" xmlns:xlink="http://www.w3.org/1999/xlink" viewBox="0 0 30 30">
  <defs>
    <style>
      .cls-1 {
        fill: none;
      }

      .cls-2 {
        fill: #f16129;
        fill-rule: evenodd;
      }

      .cls-3 {
        clip-path: url(#clippath);
      }
    </style>
    <clipPath id="clippath">
      <rect class="cls-1" width="30" height="30"/>
    </clipPath>
  </defs>
  <g id="Layer_1-2" data-name="Layer_1">
    <g class="cls-3">
      <path class="cls-2" d="M5.32,25.22h1.48c.15,0,.28-.06.37-.16.1-.1.16-.23.16-.37v-4.09c0-.15-.06-.28-.16-.37-.1-.1-.23-.16-.37-.16h-1.48c-.15,0-.28.06-.37.15s-.16.23-.16.37v4.09c0,.15.06.28.16.37.1.1.23.16.37.16h0ZM28.2,27.44l-1.45-.96c-.19-.13-.24-.38-.12-.58.13-.19.38-.24.58-.12l2.58,1.71c.13.07.21.21.21.36s-.08.29-.21.36l-2.58,1.71c-.19.13-.45.07-.58-.12-.13-.19-.07-.45.12-.58l1.45-.96H3.39c-.46,0-.88-.19-1.18-.49-.3-.3-.49-.72-.49-1.18V1.8l-.96,1.45c-.13.19-.38.24-.58.12s-.24-.38-.12-.58L1.78.21c.07-.13.21-.21.36-.21s.29.08.36.21l1.71,2.58c.13.19.07.45-.12.58s-.45.07-.58-.12l-.96-1.45v24.81c0,.23.09.44.24.59.15.15.36.24.59.24h24.81ZM4.42,15.9c3.85-.41,7.44-1.5,10.73-3.31,3.25-1.78,6.21-4.26,8.86-7.44.15-.18.12-.44-.05-.58-.11-.09-.26-.12-.39-.08h0s-4.39,1.37-4.39,1.37c-.22.07-.34.3-.27.52s.3.34.52.27l2.99-.93c-2.33,2.58-4.89,4.62-7.67,6.15-3.19,1.75-6.68,2.82-10.42,3.21-.23.02-.39.23-.37.46.02.23.22.4.45.37h0ZM22.18,25.22h1.51c.14,0,.27-.06.36-.15s.15-.22.15-.36v-13.08c0-.14-.06-.27-.15-.36-.09-.09-.22-.15-.36-.15h-1.51c-.14,0-.27.06-.36.15-.09.09-.15.22-.15.36v13.08c0,.14.06.27.15.36.1.09.22.15.36.15ZM23.69,26.05c.37,0,.71-.15.95-.39.24-.24.39-.58.39-.95v-13.08c0-.37-.15-.71-.39-.95-.24-.24-.58-.39-.95-.39h-1.51c-.37,0-.71.15-.95.39-.24.24-.39.58-.39.95v13.08c0,.37.15.71.39.95.24.24.58.39.95.39h1.51ZM16.53,25.22h1.57c.13,0,.25-.06.34-.14.09-.09.14-.21.14-.34v-10.33c0-.13-.06-.25-.14-.34-.09-.09-.21-.14-.34-.14h-1.57c-.13,0-.25.06-.34.14-.09.09-.14.21-.14.34v10.33c0,.13.06.25.14.34.09.09.21.14.34.14ZM18.09,26.05c.36,0,.69-.15.93-.39.24-.24.39-.57.39-.93v-10.33c0-.36-.15-.69-.39-.93-.24-.24-.57-.39-.93-.39h-1.57c-.36,0-.69.15-.93.39-.24.24-.39.57-.39.93v10.33c0,.36.15.69.39.93s.57.39.93.39h1.57ZM10.92,25.22h1.53c.14,0,.27-.06.36-.15s.15-.22.15-.36v-7.15c0-.14-.06-.27-.15-.36s-.22-.15-.36-.15h-1.53c-.14,0-.27.06-.36.15-.09.09-.15.22-.15.36v7.15c0,.14.06.27.15.36.09.09.22.15.36.15ZM12.45,26.05c.37,0,.7-.15.95-.39s.39-.58.39-.95v-7.15c0-.37-.15-.7-.39-.95s-.58-.39-.95-.39h-1.53c-.37,0-.7.15-.95.39s-.39.58-.39.95v7.15c0,.37.15.7.39.95s.58.39.95.39h1.53ZM6.8,26.05h-1.48c-.38,0-.72-.15-.96-.4s-.4-.59-.4-.96v-4.09c0-.38.15-.72.4-.96.25-.25.59-.4.96-.4h1.48c.38,0,.72.15.96.4.25.25.4.59.4.96v4.09c0,.38-.15.72-.4.96-.25.25-.59.4-.96.4h0Z"/>
    </g>
  </g>
</svg>