<?xml version="1.0" encoding="UTF-8"?>
<svg id="Layer_2" xmlns="http://www.w3.org/2000/svg" xmlns:xlink="http://www.w3.org/1999/xlink" viewBox="0 0 50 31">
  <defs>
    <style>
      .cls-1 {
        fill: #fff;
      }

      .cls-2 {
        fill: none;
      }

      .cls-3 {
        clip-path: url(#clippath);
      }
    </style>
    <clipPath id="clippath">
      <rect class="cls-2" width="50" height="31"/>
    </clipPath>
  </defs>
  <g id="Layer_1-2" data-name="Layer_1">
    <g class="cls-3">
      <g>
        <polygon class="cls-1" points="17.58 22.29 17.58 22.29 17.58 22.29 17.58 22.29"/>
        <polygon class="cls-1" points="17.58 22.29 17.58 22.29 17.58 22.29 17.58 22.29"/>
        <path class="cls-1" d="M34.66,12.84c-1.61,0-3.12-.62-4.25-1.76-1.12-1.12-1.75-2.61-1.76-4.2v-.05c0-1.61.63-3.11,1.76-4.24,1.12-1.12,2.67-1.76,4.25-1.76,1.61,0,3.12.62,4.25,1.76,1.12,1.12,1.76,2.67,1.76,4.25,0,1.61-.63,3.12-1.76,4.25s-2.64,1.76-4.25,1.76h0ZM29.36,7.38c.13,1.24.67,2.39,1.51,3.23.85.84,1.99,1.38,3.23,1.51l.22.02v-1.38c0-.18.15-.33.33-.33s.33.15.33.33v1.38l.22-.02c1.24-.13,2.38-.67,3.23-1.52.85-.85,1.38-1.99,1.51-3.23l.02-.22h-1.38c-.18,0-.33-.15-.33-.33s.15-.33.33-.33h1.38l-.02-.22c-.13-1.23-.67-2.38-1.51-3.22-.85-.84-1.99-1.38-3.22-1.51l-.22-.02v1.38c0,.09-.04.17-.1.23-.06.06-.14.1-.23.1-.18,0-.33-.15-.33-.33v-1.38l-.22.02c-1.24.13-2.38.67-3.23,1.51-.84.84-1.38,1.99-1.51,3.22l-.02.22h1.38c.18,0,.33.15.33.33s-.15.33-.33.33h-1.38l.02.22Z"/>
        <path class="cls-1" d="M34.84,7.28c-.18,0-.33-.15-.33-.33v-1.56c0-.18.15-.33.33-.33s.33.15.33.33v1.22h.99c.18,0,.33.15.33.33s-.15.33-.33.33h-1.32Z"/>
        <path class="cls-1" d="M9.66,31c-.18,0-.33-.15-.33-.33v-6.47c0-1.89.74-3.66,2.07-5,.72-.72,1.59-1.27,2.57-1.63l.1-.03c.76-.27,1.55-.4,2.33-.41h.78l.04-.15c.16-.63.21-1.27.15-1.92v-.12s-.12-.05-.12-.05c-.65-.3-1.23-.69-1.72-1.16-1.07-1.03-1.74-2.42-1.87-3.92v-.07s-.07-.07-.07-.07l-.96-2.75c-.1-.27-.15-.55-.16-.83-.02-.6.1-2.1,1.59-3.03l.1-.07v-.12c-.08-.91.16-1.61.72-2.08.61-.52,1.58-.78,2.89-.78.69,0,1.48.07,2.34.22,1.36.24,2.72.58,4.04,1.01.06.02.12.04.18.07.83.41,1.53,1.03,2.02,1.8.81,1.25,1.03,2.78.62,4.21-.25.84-.58,1.7-.99,2.54-.18,1.58-.88,2.97-1.99,3.98-.44.4-.96.74-1.6,1.03l-.11.05v.12c-.08.65-.03,1.31.14,1.94l.04.15h.78c.8,0,1.58.14,2.35.41.45.17.78.32,1.09.5l.3.17v-2.71c0-.74.61-1.35,1.35-1.35h11c.74,0,1.35.61,1.35,1.35v11.89c0,.74-.61,1.35-1.35,1.35h-9.02v1.94c0,.09-.03.17-.1.23-.06.06-.15.1-.23.1H9.66ZM13.9,18.3c-.76.33-1.45.79-2.03,1.37-1.21,1.21-1.88,2.82-1.88,4.53v6.14h19.65v-1.61h-1.33c-.74,0-1.35-.61-1.35-1.35v-8.37l-.09-.06c-.35-.24-.74-.46-1.16-.63l-.13-.06-3.29,3.72c-.06.07-.15.11-.24.11h0c-.1,0-.18-.04-.24-.1l-2-2.01-2,2.01c-.06.06-.15.1-.23.1-.1,0-.19-.04-.25-.11l-3.3-3.73-.13.06ZM28.32,14.8c-.38,0-.69.31-.69.69v11.89c0,.38.31.69.69.69h11c.38,0,.69-.31.69-.69v-11.89c0-.38-.31-.69-.69-.69h-2.97v5.2c0,.09-.04.17-.1.23s-.15.1-.23.1c-.08,0-.16-.03-.22-.08l-1.98-1.69-1.99,1.69c-.06.05-.14.08-.21.08-.05,0-.09-.01-.14-.03-.12-.06-.19-.17-.19-.3v-5.2h-2.97ZM20.3,19.53l1.74,1.75,2.88-3.26-.34-.07c-.5-.11-.92-.16-1.33-.16h-.93l-2.02,1.74ZM16.4,17.79c-.44,0-.9.05-1.35.15l-.34.07,2.89,3.26,1.73-1.74-2.02-1.75h-.91ZM33.82,17.8c.08,0,.16.03.22.08l1.65,1.41v-4.49h-3.74v4.49l1.66-1.41c.06-.05.14-.08.21-.08h0ZM18.06,15.46c.01.58-.06,1.17-.22,1.76l-.03.12,2.01,1.74,2.01-1.73-.03-.12c-.16-.6-.24-1.2-.22-1.78v-.27s-.25.06-.25.06c-.55.14-1.01.2-1.45.21h-.06c-.49,0-.99-.07-1.5-.19l-.26-.06v.27ZM15.51,4.95c-.17.3-.33.54-.51.73-.04.04-.08.08-.12.11-.13.19-.35.7-.28,2.33.01.37-.04.74-.17,1.09l-.1.27c.1,1.94,1.12,3.61,2.72,4.54.19.11.4.21.6.3.13.02.18.04.22.07.67.26,1.32.37,1.97.37.87,0,1.73-.21,2.51-.6,1.57-.8,2.66-2.33,2.93-4.09v-.07s-.02-.06-.02-.06c-.44-.85-.31-2.5-.23-3.17.02-.16.02-.33,0-.5-.15-.85-.89-1.31-2.1-1.31-.29,0-.5.03-.53.03-1.27.15-2.42.22-3.44.22-1.67,0-2.66-.2-3.2-.37l-.16-.05-.08.14ZM22.88,4.31c.74,0,2.49.18,2.78,1.86.04.23.04.46.01.69-.05.41-.07.82-.08,1.23l.39.07c.12-.32.24-.67.34-1.03.6-2.07-.36-4.28-2.3-5.24-1.73-.59-4.34-1.23-6.3-1.23-1.12,0-1.94.21-2.42.62-.43.37-.6.94-.5,1.69v.05s.85,1.1.85,1.1l.05.02c.31.13,1.26.42,3.26.42.99,0,2.1-.07,3.32-.22.2-.03.4-.05.6-.05ZM14.25,3.7c-.96.68-1.14,1.66-1.12,2.37,0,.22.05.43.12.63l.29.81.39-.07c.01-1.38.26-1.9.46-2.09l.13-.12c.19-.21.35-.44.48-.69l.06-.11-.65-.84-.16.11Z"/>
      </g>
    </g>
  </g>
</svg>