<?xml version="1.0" encoding="UTF-8"?>
<svg id="Layer_2" xmlns="http://www.w3.org/2000/svg" xmlns:xlink="http://www.w3.org/1999/xlink" viewBox="0 0 50 31">
  <defs>
    <style>
      .cls-1 {
        fill: #fff;
      }

      .cls-2 {
        fill: none;
      }

      .cls-3 {
        clip-path: url(#clippath);
      }
    </style>
    <clipPath id="clippath">
      <rect class="cls-2" width="50" height="31"/>
    </clipPath>
  </defs>
  <g id="Layer_1-2" data-name="Layer_1">
    <g class="cls-3">
      <g>
        <path class="cls-1" d="M39.19,22.18c-.02-.06-.05-.12-.08-.18-.01-.02-.02-.04-.03-.06-.02-.04-.05-.08-.08-.12-.01-.02-.02-.02-.02-.04l.12-.12c.28-.29.43-.67.43-1.07s-.15-.77-.41-1.06c-.5-.54-1.29-.66-1.92-.29l-.8.47c-.95-.54-2.12-.55-3.08-.03t-.01,0l-.05.03c-.87-.53-1.92-.61-2.87-.22l-4.78,1.98c-.25-.21-.52-.44-.84-.72-2.24-2.01-4.58-2.63-6.22-2.77v-.81c0-.52-.42-.94-.94-.94h-1.06v-.02c0-.52-.42-.94-.94-.94h-4.81c-.16,0-.3.14-.3.3v13.15c0,.16.13.3.3.3h4.8c.52,0,.94-.42.94-.94v-.02h1.06c.52,0,.94-.42.94-.94v-.28l3.97,2.81c1.22,1.02,2.46,1.36,3.55,1.36,1.95,0,3.44-1.07,3.59-1.18l1.65-1.06,1.92.37c.11.02.21.03.3.03.75,0,1.4-.53,1.56-1.26.11-.5.04-1.01-.19-1.46l3.69-2.39c.45-.29.71-.78.71-1.31,0-.2-.03-.39-.09-.56h0ZM15.93,28.06c0,.19-.16.35-.35.35h-4.5v-12.56h4.5c.19,0,.35.16.35.35v11.87ZM17.93,27.1c0,.19-.16.35-.35.35h-1.06v-10.64h1.06c.19,0,.35.16.35.35v9.94ZM34.49,27.76c-.1.46-.51.79-.98.79-.06,0-.12,0-.19-.02l-2.03-.39h0l-5.3-1.03c-.16-.03-.31.07-.35.24-.03.16.07.31.24.35l4.58.89-1.14.74s-.02.01-.02.02c-.13.1-3.27,2.48-6.42-.16,0,0-.02-.01-.02-.02l-4.32-3.06v-7.54c1.55.15,3.73.74,5.83,2.62.38.34.7.61.99.85.59.48,1.15.89,1.7,1.24.99.63,1.88,1.07,2.64,1.29l3.78,1.34c.31.11.58.31.77.59.26.36.35.82.26,1.26h0ZM38.25,23.54l-3.71,2.4c-.24-.26-.54-.46-.88-.58l-3.79-1.35c-.72-.22-1.56-.63-2.5-1.23-.41-.26-.83-.56-1.26-.89l4.48-1.85c.65-.27,1.38-.26,2.01.02l-4.29,2.32c-.14.08-.2.26-.12.4.05.1.16.16.26.16.05,0,.1-.01.14-.03l4.76-2.58.21-.11c.67-.36,1.47-.4,2.18-.13l-5.02,2.91c-.14.08-.19.27-.11.4.05.09.15.15.26.15.05,0,.1-.02.15-.04l6.45-3.74h0c.39-.23.88-.15,1.18.18.17.18.26.41.26.65s-.1.49-.27.66l-.13.14c-.08-.05-.17-.09-.27-.13-.43-.16-.91-.11-1.31.11l-3.96,2.27c-.14.08-.19.26-.11.4.05.09.15.15.26.15.05,0,.1-.02.15-.04l3.96-2.27c.25-.14.54-.17.81-.07.13.05.25.12.35.22h.01c.04.05.09.11.12.16,0,0,0,.01.01.02.03.05.06.11.08.17,0,0,0,0,0,0h0c.04.11.06.23.06.34,0,.33-.16.64-.44.82h0Z"/>
        <path class="cls-1" d="M14.13,25.64c-.62,0-1.12.5-1.12,1.12s.5,1.12,1.12,1.12,1.12-.5,1.12-1.12-.5-1.12-1.12-1.12ZM14.13,27.29c-.29,0-.53-.24-.53-.53s.24-.53.53-.53.53.24.53.53-.24.53-.53.53Z"/>
        <path class="cls-1" d="M22.41,8.57c-.13.83.35,1.65,1.13,1.95.31.12.57.37.69.69.18.47.55.82.99,1.01v5.66c0,.42.24.78.62.95s.81.1,1.12-.18l1.01-.92c.17-.16.42-.16.6,0l1.01.92c.2.18.44.28.69.28.14,0,.29-.03.42-.09.38-.17.62-.53.62-.95v-5.66c.44-.19.81-.54.99-1.01.12-.31.37-.57.69-.69.78-.3,1.26-1.13,1.13-1.96-.05-.33.04-.67.25-.94.53-.66.53-1.59,0-2.26-.21-.27-.3-.61-.25-.94.13-.83-.35-1.65-1.13-1.95-.31-.12-.57-.37-.69-.69-.3-.78-1.12-1.25-1.96-1.13-.33.05-.67-.04-.95-.26-.66-.53-1.59-.53-2.26,0-.27.21-.61.3-.94.25-.83-.13-1.65.35-1.95,1.13-.12.31-.37.57-.69.69-.78.3-1.26,1.13-1.13,1.95h0c.05.34-.04.68-.26.95-.53.66-.53,1.59,0,2.26.22.27.31.61.26.94h0ZM30.7,17.88c0,.18-.1.33-.26.4-.16.07-.35.04-.47-.08l-1.01-.92c-.4-.36-1-.36-1.4,0l-1.01.92c-.13.12-.31.15-.47.08-.16-.07-.26-.22-.26-.4v-5.52c.12,0,.25,0,.37-.02.33-.05.68.04.95.26.33.27.73.4,1.13.4s.8-.13,1.13-.4c.27-.21.61-.3.94-.25.12.02.25.02.37.02v5.52s-.01,0-.01,0ZM22.62,5.74c.31-.39.45-.91.37-1.4h0c-.08-.57.24-1.11.76-1.31.47-.18.85-.56,1.03-1.03.2-.53.75-.84,1.31-.76.5.08,1.01-.06,1.41-.38.44-.36,1.07-.36,1.52,0,.39.31.91.45,1.4.37.56-.08,1.11.23,1.31.76.18.47.56.85,1.03,1.03.53.2.84.75.76,1.31-.08.5.06,1.01.38,1.41.36.44.36,1.07,0,1.51h0c-.31.4-.45.91-.37,1.41.08.56-.23,1.11-.76,1.31-.47.18-.85.56-1.03,1.03-.2.53-.75.84-1.31.76-.5-.08-1.01.06-1.41.38-.44.36-1.07.35-1.52,0-.32-.26-.72-.39-1.13-.39-.09,0-.18,0-.28.02-.56.08-1.11-.23-1.31-.76-.18-.47-.56-.85-1.03-1.03-.53-.2-.84-.75-.76-1.31.08-.5-.06-1.01-.38-1.41-.35-.44-.35-1.06.01-1.51h0Z"/>
        <path class="cls-1" d="M26.55,7.1s.07.12.06.19l-.09.51c-.05.3.07.61.32.79.14.1.3.15.47.15.13,0,.26-.03.37-.09l.46-.24c.06-.03.14-.03.2,0l.46.24c.28.14.6.12.85-.06.25-.18.37-.48.32-.79l-.09-.51c-.01-.07.01-.14.06-.19l.37-.36c.22-.22.3-.53.2-.83-.09-.3-.35-.51-.65-.55l-.52-.07c-.07-.01-.13-.05-.16-.12l-.23-.47c-.14-.28-.41-.45-.72-.45s-.59.17-.72.45l-.23.47c-.03.06-.09.11-.16.12l-.5.07c-.3.04-.56.26-.65.55-.09.3-.02.61.2.83l.37.36ZM26.54,6.09s.05-.13.17-.14l.52-.07c.26-.04.49-.2.61-.44l.23-.47c.05-.11.15-.12.19-.12s.14.01.19.12l.23.47c.12.24.35.4.61.44l.52.07c.12.02.16.11.17.14.01.04.03.13-.05.22l-.37.36c-.19.19-.28.45-.23.71l.09.51c.02.12-.05.19-.08.21-.03.02-.12.07-.23.02l-.46-.24c-.24-.12-.52-.12-.75,0l-.46.24c-.1.05-.19,0-.23-.02-.03-.02-.1-.09-.08-.21l.09-.51c.04-.26-.04-.53-.23-.71l-.37-.36c-.08-.09-.06-.18-.05-.22h0Z"/>
        <path class="cls-1" d="M28.26,10.29c2.09,0,3.79-1.7,3.79-3.79s-1.7-3.79-3.79-3.79-3.79,1.7-3.79,3.79,1.7,3.79,3.79,3.79ZM28.26,3.3c1.76,0,3.19,1.43,3.19,3.19s-1.43,3.19-3.19,3.19-3.19-1.43-3.19-3.19c0-1.76,1.43-3.19,3.19-3.19Z"/>
      </g>
    </g>
  </g>
</svg>