<svg id="Community_Guidelines_Enforcement" data-name="Community Guidelines Enforcement" xmlns="http://www.w3.org/2000/svg" xmlns:xlink="http://www.w3.org/1999/xlink" viewBox="0 0 196 89.99"><defs><style>.cls-1{fill:none;}.cls-2{clip-path:url(#clip-path);}.cls-3{fill:#ce3544;}</style><clipPath id="clip-path" transform="translate(0 -15)"><rect class="cls-1" width="196" height="120"/></clipPath></defs><g class="cls-2"><path class="cls-3" d="M195.79,85.78a41.79,41.79,0,0,0-27-27.64,23.62,23.62,0,1,0-26.52,0,41.69,41.69,0,0,0-19.87,14,47.42,47.42,0,0,0-10.81-4.73,26.3,26.3,0,1,0-27.2,0,46.64,46.64,0,0,0-10.81,4.74,41.76,41.76,0,0,0-19.87-14,23.6,23.6,0,1,0-26.52,0,41.79,41.79,0,0,0-27,27.64,4.67,4.67,0,1,0,8.92,2.74,32.77,32.77,0,0,1,57-10.81A47.34,47.34,0,0,0,52.66,99a4.66,4.66,0,1,0,8.92,2.73,38.1,38.1,0,0,1,72.84,0,4.67,4.67,0,0,0,4.46,3.31,4.59,4.59,0,0,0,1.36-.21,4.67,4.67,0,0,0,3.1-5.83A47.51,47.51,0,0,0,129.91,77.7a32.78,32.78,0,0,1,57,10.82,4.67,4.67,0,1,0,8.92-2.74ZM40.47,52.89A14.28,14.28,0,1,1,54.74,38.61,14.29,14.29,0,0,1,40.47,52.89Zm57.53,9a17,17,0,1,1,17-17A17,17,0,0,1,98,61.87Zm57.53-9a14.28,14.28,0,1,1,14.28-14.28A14.29,14.29,0,0,1,155.53,52.89Z" transform="translate(0 -15)"/></g></svg>