<svg id="location_sharing" data-name="location sharing" xmlns="http://www.w3.org/2000/svg" xmlns:xlink="http://www.w3.org/1999/xlink" viewBox="0 0 128.23 120"><defs><style>.cls-1{fill:none;}.cls-2{clip-path:url(#clip-path);}.cls-3{fill:#ce3544;}</style><clipPath id="clip-path" transform="translate(-33.89)"><rect class="cls-1" width="196" height="120"/></clipPath></defs><g class="cls-2"><path class="cls-3" d="M39.67,71.12a49.62,49.62,0,0,0,8.26,11.15l32.4,32.41a2.25,2.25,0,0,0,3.17,0h0L99.24,98.94a32.47,32.47,0,1,0,30.42-43.88,48.18,48.18,0,0,0-81.73-41A47.58,47.58,0,0,0,34.32,41.51a49,49,0,0,0,5.34,29.58Zm118,16.4a28,28,0,0,1-55.12,6.84,3.18,3.18,0,0,0-.08-.33,28,28,0,1,1,55.2-6.51ZM38.76,42.12A43.12,43.12,0,0,1,51.1,17.26a43.66,43.66,0,0,1,74,38.12,32.36,32.36,0,0,0-17,7.91A31,31,0,1,0,102.31,70a32.42,32.42,0,0,0-4.49,24l-15.9,15.9L51.1,79.11A45.21,45.21,0,0,1,43.6,69,44.42,44.42,0,0,1,38.76,42.12ZM81.92,73.23a26.44,26.44,0,1,1,26.43-26.44h0A26.46,26.46,0,0,1,81.92,73.23Z" transform="translate(-33.89)"/><path class="cls-3" d="M116.47,94.73A7.21,7.21,0,0,0,121.1,93l10.08,4.63a7.22,7.22,0,1,0,2-4l-9.67-4.43a7.33,7.33,0,0,0,.12-2.76l9.87-4.74a7.2,7.2,0,1,0-2.21-3.91l-9.68,4.65a7.2,7.2,0,1,0-5.11,12.28Zm21.85,1.2a2.73,2.73,0,1,1-2.72,2.73,2.73,2.73,0,0,1,2.72-2.73Zm0-22.26a2.72,2.72,0,1,1-2.72,2.72,2.72,2.72,0,0,1,2.72-2.72ZM116.47,84.8a2.73,2.73,0,1,1-2.72,2.72h0a2.72,2.72,0,0,1,2.72-2.72Z" transform="translate(-33.89)"/></g></svg>