<svg id="user_report" data-name="user report" xmlns="http://www.w3.org/2000/svg" xmlns:xlink="http://www.w3.org/1999/xlink" viewBox="0 0 95.63 120"><defs><style>.cls-1{fill:none;}.cls-2{clip-path:url(#clip-path);}.cls-3{fill:#ce3544;}</style><clipPath id="clip-path" transform="translate(-50.19)"><rect class="cls-1" width="196" height="120"/></clipPath></defs><g class="cls-2"><path class="cls-3" d="M90.11,5.77H105.9l1.16,2.47a2.88,2.88,0,0,0,2.61,1.66l9.67,0h0v10.8H76.65V9.88h0l9.67,0A2.91,2.91,0,0,0,89,8.24L90.1,5.77ZM107.74,0H88.24a2.85,2.85,0,0,0-2.58,1.65L84.51,4.11H73.77A2.89,2.89,0,0,0,70.88,7V23.57a2.89,2.89,0,0,0,2.89,2.88h48.46a2.89,2.89,0,0,0,2.89-2.88V7a2.9,2.9,0,0,0-2.89-2.89H111.49l-1.15-2.45A2.88,2.88,0,0,0,107.74,0ZM67.56,43.88a2.9,2.9,0,0,0-2.74,3.82,2.93,2.93,0,0,0,2.83,1.95h60.7a2.93,2.93,0,0,0,2.83-1.95,2.9,2.9,0,0,0-2.74-3.82Zm0,15.65a2.89,2.89,0,1,0,.08,5.77h60.72a2.89,2.89,0,1,0,.08-5.77Zm0,15.65A2.89,2.89,0,0,0,64.82,79a2.93,2.93,0,0,0,2.83,1.94h60.7A2.93,2.93,0,0,0,131.18,79a2.89,2.89,0,0,0-2.74-3.82Zm0,15.64a2.89,2.89,0,1,0,.08,5.78h36.53a2.93,2.93,0,0,0,2.83-2,2.9,2.9,0,0,0-2.74-3.82ZM64.69,12.19H59.94a9.75,9.75,0,0,0-9.75,9.65v88.5A9.77,9.77,0,0,0,59.94,120h76.13a9.77,9.77,0,0,0,9.74-9.65V21.85a9.77,9.77,0,0,0-9.75-9.66h-4.75a2.8,2.8,0,0,0-2.57,1.55A2.9,2.9,0,0,0,131.32,18h4.73a4,4,0,0,1,4,4v88.27a4,4,0,0,1-4,4H60a4,4,0,0,1-4-4V22a4,4,0,0,1,4-4h4.63A2.93,2.93,0,0,0,67.42,16a2.89,2.89,0,0,0-2.73-3.82Z" transform="translate(-50.19)"/></g></svg>