<svg id="Layer_5" data-name="Layer 5" xmlns="http://www.w3.org/2000/svg" xmlns:xlink="http://www.w3.org/1999/xlink" viewBox="0 0 132.7 120"><defs><style>.cls-1{fill:none;}.cls-2{clip-path:url(#clip-path);}.cls-3{fill:#ce3544;}</style><clipPath id="clip-path" transform="translate(-31.65 0)"><rect class="cls-1" width="196" height="120"/></clipPath></defs><g class="cls-2"><path class="cls-3" d="M161.41,25a40,40,0,0,0-37-25h-.07A39.87,39.87,0,0,0,98,9.85,40.06,40.06,0,0,0,37.59,61.06a12,12,0,0,0,.15,16.76h0a11.94,11.94,0,0,0,8.46,3.49c.25,0,.49,0,.74,0,0,.25,0,.49,0,.74a11.88,11.88,0,0,0,3.51,8.46h0A11.87,11.87,0,0,0,58.88,94l.73,0c0,.24,0,.49,0,.74a11.89,11.89,0,0,0,3.5,8.46h0a11.92,11.92,0,0,0,8.46,3.49c.25,0,.5,0,.74,0a12,12,0,0,0,20.4,9.2l.48-.48a3,3,0,0,0,.77,1.33,11.28,11.28,0,0,0,19.11-6.1,11.28,11.28,0,0,0,15.15-11h.45a11.28,11.28,0,0,0,11.29-11.27c0-.15,0-.31,0-.47h.45a11.28,11.28,0,0,0,9.79-16.9l2.46-2.54A40.09,40.09,0,0,0,161.41,25ZM42,73.57h0a6,6,0,0,1,0-8.43h0l9.64-9.64a6,6,0,0,1,8.43,8.43l-9.64,9.64A6,6,0,0,1,42,73.57ZM54.66,86.25h0a6,6,0,0,1,0-8.43h0l9.64-9.64a6,6,0,0,1,8.43,8.43l-9.64,9.64A6,6,0,0,1,54.66,86.25ZM67.34,98.92h0a6,6,0,0,1,0-8.43h0L77,80.85a6,6,0,0,1,8.43,8.43l-9.64,9.64A6,6,0,0,1,67.34,98.92Zm21.1,12.68a6,6,0,0,1-8.43,0h0a6,6,0,0,1,0-8.43l9.64-9.65A6,6,0,1,1,98.08,102Zm17.22.85a5.3,5.3,0,0,1-7.48,0,3,3,0,0,0-1.33-.78l5.47-5.47a11.69,11.69,0,0,0,1.86-2.4l2,1.72a5.3,5.3,0,0,1-.47,6.93Zm38.45-32.18a5.28,5.28,0,0,1-7.48,0L120.78,64.42a3,3,0,1,0-4.24,4.24l7.92,7.93,7.93,7.92h0A5.29,5.29,0,0,1,124.91,92h0L117,84.07l-7.92-7.93a3,3,0,1,0-4.24,4.24l7.92,7.93,7.93,7.93h0a5.29,5.29,0,1,1-7.48,7.47h0l-.15-.13-2.56-2.24c-.18-.21-.37-.42-.57-.62a2.84,2.84,0,0,0-.77-.55l-3.32-2.91A12,12,0,0,0,93.4,85.79l-.27,0c0-.25,0-.5,0-.74a12,12,0,0,0-12-12l-.75,0c0-.24,0-.49,0-.74a12,12,0,0,0-12-12q-.37,0-.75,0c0-.25,0-.5,0-.74a12,12,0,0,0-20.43-8.46L42,56.67A34.05,34.05,0,0,1,71.71,6a33.79,33.79,0,0,1,21.71,7.81L69.87,33.19l-.06.06A7.19,7.19,0,0,0,69.1,43.4a7.07,7.07,0,0,0,2.33,1.77,24.14,24.14,0,0,0,10.23,2.09A29.52,29.52,0,0,0,85.3,47a31.63,31.63,0,0,0,8.91-2.46,37.38,37.38,0,0,0,9.24-5.87,1.18,1.18,0,0,1,1.23-.21,40,40,0,0,0,7.43,2.17l32,32.13a5.28,5.28,0,0,1,0,7.48Zm4.26-16.12,0,0-2.13,2.21L121,41.12a27.34,27.34,0,0,0,6.63-1.43A26.55,26.55,0,0,0,137,34a3,3,0,1,0-4.08-4.4c-9.35,8.69-21.29,5.22-26,3.32a7.19,7.19,0,0,0-7.38,1.22,28.54,28.54,0,0,1-15,6.93A20.08,20.08,0,0,1,74,39.75a1.2,1.2,0,0,1-.28-2L99.9,16.27l.07-.06c.11-.09.22-.2.33-.31a34.05,34.05,0,0,1,48.07,48.24Z" transform="translate(-31.65 0)"/></g></svg>