<svg id="content_review" data-name="content review" xmlns="http://www.w3.org/2000/svg" xmlns:xlink="http://www.w3.org/1999/xlink" viewBox="0 0 196.03 79.11"><defs><style>.cls-1{fill:none;}.cls-2{clip-path:url(#clip-path);}.cls-3{fill:#ce3544;fill-rule:evenodd;}</style><clipPath id="clip-path" transform="translate(-0.02 -20.47)"><rect class="cls-1" width="196" height="120"/></clipPath></defs><g class="cls-2"><path class="cls-3" d="M72.88,39.07c-5.38.74-4.26,4.72-2.94,6L81.83,56.18c-.53,2.77-3.61,16.11-2.91,17.9A3.41,3.41,0,0,0,83.36,76l.36-.17L98,67.93c2.47,1.36,14.19,8.41,16.12,8.29a3.39,3.39,0,0,0,3.18-3.59,2.87,2.87,0,0,0,0-.41l-3.07-16c2.08-2,12.37-10.87,12.86-12.78a3.37,3.37,0,0,0-2.4-4.12,3.55,3.55,0,0,0-.47-.09l-16.18-2C106.8,34.62,101.44,22,99.83,21a3.4,3.4,0,0,0-4.68,1.05,3.72,3.72,0,0,0-.21.39L88,37.15Z" transform="translate(-0.02 -20.47)"/><path class="cls-3" d="M34.34,53.28l-12.05-11a3.37,3.37,0,0,0-4.76.18,3.47,3.47,0,0,0-.3.37C16.13,44.38,16,58.1,15.89,60.9L1.73,69A3.36,3.36,0,0,0,.46,73.59,2.9,2.9,0,0,0,.73,74c1.18,1.58,14.12,5.87,16.78,6.88l3.31,16a3.39,3.39,0,0,0,4,2.63,2.75,2.75,0,0,0,.41-.11c1.83-.63,10-11.63,11.71-13.83l16.21,1.79a3.39,3.39,0,0,0,3.71-3,2.82,2.82,0,0,0,0-.41c0-1.92-8-13.06-9.55-15.42,1.17-2.6,7.25-14.78,7-16.73-.62-4.36-5.37-2.47-6.93-2h0Z" transform="translate(-0.02 -20.47)"/><path class="cls-3" d="M148.61,49.7h0c-1.56-.43-6.31-2.32-6.93,2-.27,2,5.81,14.13,7,16.73-1.55,2.36-9.52,13.5-9.55,15.42a3.4,3.4,0,0,0,3.35,3.45,3,3,0,0,0,.42,0l16.21-1.79c1.76,2.2,9.88,13.2,11.71,13.83a3.4,3.4,0,0,0,4.32-2.11c0-.14.08-.27.11-.41l3.31-16c2.66-1,15.6-5.3,16.78-6.88a3.37,3.37,0,0,0-.59-4.73,3.62,3.62,0,0,0-.41-.27l-14.16-8.08c-.13-2.8-.24-16.52-1.34-18.07a3.37,3.37,0,0,0-4.69-.85,3.47,3.47,0,0,0-.37.3l-12.05,11Z" transform="translate(-0.02 -20.47)"/></g></svg>