<svg id="Transportation_Integration" data-name="Transportation Integration" xmlns="http://www.w3.org/2000/svg" xmlns:xlink="http://www.w3.org/1999/xlink" viewBox="0 0 122.55 120"><defs><style>.cls-1{fill:none;}.cls-2{clip-path:url(#clip-path);}.cls-3{fill:#ce3544;}</style><clipPath id="clip-path" transform="translate(-36.72)"><rect class="cls-1" width="196" height="120"/></clipPath></defs><g class="cls-2"><path class="cls-3" d="M64.81,97A10.21,10.21,0,1,0,54.6,86.81,10.21,10.21,0,0,0,64.81,97Zm0-15.32a5.11,5.11,0,1,1-5.11,5.11A5.1,5.1,0,0,1,64.81,81.7Z" transform="translate(-36.72)"/><path class="cls-3" d="M131.19,76.6A10.21,10.21,0,1,0,141.4,86.81,10.21,10.21,0,0,0,131.19,76.6Zm0,15.31a5.11,5.11,0,1,1,5.11-5.1A5.1,5.1,0,0,1,131.19,91.91Z" transform="translate(-36.72)"/><path class="cls-3" d="M156.72,40.85h-5.1V15.11A15.12,15.12,0,0,0,136.5,0h-77A15.12,15.12,0,0,0,44.38,15.11V40.85h-5.1a2.56,2.56,0,0,0-2.56,2.55V53.62a2.56,2.56,0,0,0,5.11,0V46h2.55v58.72a2.56,2.56,0,0,0,2.56,2.55H52v4.68a8.1,8.1,0,0,0,8.1,8.09H72.06a8.09,8.09,0,0,0,8.07-8.09v-4.68h35.74v4.68A8.1,8.1,0,0,0,124,120h11.92a8.09,8.09,0,0,0,8.07-8.09v-4.68h5.1a2.56,2.56,0,0,0,2.56-2.55V46h2.55v7.66a2.56,2.56,0,0,0,5.11,0V43.4A2.56,2.56,0,0,0,156.72,40.85ZM146.51,15.11V40.85h-46V5.11h36A10,10,0,0,1,146.51,15.11Zm-97,0a10,10,0,0,1,10-10h36V40.85h-46Zm0,41.19a48.5,48.5,0,0,1,45.83,45.83H49.49ZM75,111.91a3,3,0,0,1-3,3H60.14a3,3,0,0,1-3-3v-4.68H75Zm63.83,0a3,3,0,0,1-3,3H124a3,3,0,0,1-3-3v-4.68h17.87Zm2.55-9.78H100.68A48.5,48.5,0,0,1,146.51,56.3v45.83Zm5.11-50.94A53.61,53.61,0,0,0,98,88.37,53.61,53.61,0,0,0,49.49,51.19V46h97Z" transform="translate(-36.72)"/></g></svg>