<svg id="Venue_recommendation" data-name="Venue recommendation" xmlns="http://www.w3.org/2000/svg" xmlns:xlink="http://www.w3.org/1999/xlink" viewBox="0 0 91.03 120"><defs><style>.cls-1{fill:none;}.cls-2{clip-path:url(#clip-path);}.cls-3{fill:#ce3544;}</style><clipPath id="clip-path" transform="translate(-52.48)"><rect class="cls-1" width="196" height="120"/></clipPath></defs><g class="cls-2"><path class="cls-3" d="M98,0A45.57,45.57,0,0,0,52.48,45.52c0,33.64,42.33,72.31,44.13,73.94a2.06,2.06,0,0,0,2.78,0c1.8-1.63,44.13-40.3,44.13-73.94A45.57,45.57,0,0,0,98,0Zm0,115.1c-7.37-7-41.38-41.07-41.38-69.58a41.38,41.38,0,1,1,82.76,0C139.38,74,105.36,108.06,98,115.1Z" transform="translate(-52.48)"/><path class="cls-3" d="M98,16.55a29,29,0,1,0,29,29A29,29,0,0,0,98,16.55Zm0,53.8a24.83,24.83,0,1,1,24.83-24.83A24.85,24.85,0,0,1,98,70.35Z" transform="translate(-52.48)"/><path class="cls-3" d="M108.2,31.16c-3.81-.58-7.45,1-10.2,4.28-2.75-3.29-6.39-4.86-10.2-4.28a10,10,0,0,0-8.19,8C78.84,42.93,79,52.84,96.9,63.85a2,2,0,0,0,1.08.31,2,2,0,0,0,1.07-.31c17.9-11,18.07-20.92,17.3-24.66a10,10,0,0,0-8.19-8ZM98,59.63C83,50,83.23,42.19,83.66,40a5.77,5.77,0,0,1,4.76-4.76,6.44,6.44,0,0,1,.89-.06c2.63,0,5.13,1.78,6.89,4.95a2.15,2.15,0,0,0,3.62,0c2-3.5,4.86-5.32,7.76-4.86A5.75,5.75,0,0,1,112.34,40c.45,2.22.68,10-14.34,19.64Z" transform="translate(-52.48)"/></g></svg>