<?xml version="1.0" encoding="UTF-8"?>
<svg id="Layer_2" xmlns="http://www.w3.org/2000/svg" xmlns:xlink="http://www.w3.org/1999/xlink" viewBox="0 0 30 30">
  <defs>
    <style>
      .cls-1 {
        fill: #f55b14;
        fill-rule: evenodd;
      }

      .cls-2 {
        fill: none;
      }

      .cls-3 {
        clip-path: url(#clippath);
      }
    </style>
    <clipPath id="clippath">
      <rect class="cls-2" width="30" height="30"/>
    </clipPath>
  </defs>
  <g id="Layer_1-2" data-name="Layer_1">
    <g class="cls-3">
      <path class="cls-1" d="M17.22,1.85l-2.22-1.01-2.22,1.01s-.1.03-.16.04l-2.36.05-1.45,1.8s-.08.09-.14.11l-2.08,1.02-.55,2.26c-.01.06-.04.11-.07.15l-1.46,1.86.48,2.38c.01.05.01.11,0,.16l-.48,2.39,1.45,1.85s.07.1.08.16l.55,2.26,2.07,1.02c.13.09.23.2.32.33l1.28,1.59,2.32.05c.07,0,.13,0,.19.03l2.22,1.01,2.22-1.01s.1-.03.16-.03l2.36-.05,1.45-1.8s.08-.09.14-.11l2.08-1.02.55-2.26c.01-.06.04-.11.07-.15l1.46-1.86-.48-2.38c-.01-.05-.01-.11,0-.16l.48-2.39-1.45-1.85s-.07-.1-.08-.16l-.55-2.26-2.07-1.02c-.05-.03-.1-.06-.14-.11l-1.46-1.81-2.32-.05c-.07,0-.13,0-.19-.04h0ZM13.18,22.43l-1.62,6.06-1.35-2.71c-.1-.2-.34-.28-.54-.18-.01,0-.03.01-.04.02l-2.52,1.67,1.74-6.5.92,1.14c.07.09.18.15.3.15l2.46.05c.22.1.44.2.66.3h0ZM21.16,20.79l1.74,6.5-2.52-1.67c-.18-.12-.43-.07-.55.12,0,.01-.02.03-.02.04l-1.35,2.71-1.62-6.06.66-.3,2.44-.05c.12,0,.24-.05.32-.15l.92-1.14h0ZM15.17.04c.77.35,1.54.7,2.31,1.05l2.46.05c.12,0,.23.06.3.15l1.52,1.89,2.16,1.06c.11.05.19.16.21.28l.57,2.34,1.52,1.94c.07.09.1.21.08.32l-.5,2.49.5,2.49c.02.13-.01.26-.1.35l-1.5,1.91-.57,2.35c-.03.11-.1.21-.21.26l-2.14,1.06,2.16,8.07c.06.21-.07.43-.29.49-.11.03-.23,0-.33-.06l-3.01-1.99-1.62,3.24c-.1.2-.34.28-.54.18-.1-.05-.18-.15-.21-.26l-1.86-6.93-.92.42c-.11.05-.23.05-.33,0-.31-.14-.62-.28-.92-.42l-1.86,6.93c-.05.21-.27.35-.48.29-.11-.03-.21-.1-.26-.21l-1.62-3.24-3.01,1.99c-.18.13-.43.08-.56-.1-.07-.1-.09-.22-.06-.33l2.16-8.07-2.14-1.06c-.11-.05-.19-.16-.21-.28l-.57-2.34-1.52-1.94c-.07-.09-.1-.21-.08-.32l.5-2.49-.5-2.49c-.02-.13.01-.26.1-.35l1.5-1.91.57-2.35c.03-.11.1-.21.21-.26l2.16-1.07,1.52-1.89c.08-.1.2-.15.32-.15l2.44-.05L14.83.04c.11-.05.23-.05.33,0h0ZM21.13,14.56c.11-.19.36-.25.55-.14.17.1.24.3.17.48-1.82,3.78-6.36,5.38-10.15,3.56-3.78-1.82-5.38-6.36-3.56-10.15.44-.91,1.06-1.73,1.82-2.4.16-.15.42-.13.56.03.15.16.13.42-.03.56h0c-2.82,2.49-3.08,6.79-.59,9.61,2.49,2.82,6.79,3.08,9.61.59.68-.6,1.23-1.33,1.62-2.15ZM12.56,5.25c-.21.06-.43-.06-.5-.27-.06-.19.03-.39.21-.48,3.92-1.5,8.32.46,9.82,4.38.33.87.5,1.79.5,2.72,0,.22-.18.4-.4.4s-.4-.18-.4-.4c0-3.76-3.04-6.8-6.8-6.81-.83,0-1.66.15-2.44.45ZM11.71,11.51c-.16-.16-.15-.41,0-.56s.41-.15.56,0c0,0,0,0,.01.01l1.69,1.78,3.77-3.11c.17-.14.42-.1.56.07.13.17.11.41-.05.55l-4.04,3.33c-.16.14-.41.14-.56-.02l-1.95-2.05h0ZM18.57,8.04c1.97,1.97,1.97,5.17,0,7.14-1.97,1.97-5.17,1.97-7.14,0-1.97-1.97-1.97-5.17,0-7.14,1.96-1.97,5.14-1.98,7.11-.02,0,0,.02.02.02.02ZM15,5.76c3.23,0,5.84,2.62,5.84,5.84s-2.62,5.84-5.84,5.84-5.84-2.62-5.84-5.84h0c0-3.23,2.62-5.84,5.84-5.84Z"/>
    </g>
  </g>
</svg>