<?xml version="1.0" encoding="UTF-8"?>
<svg id="Layer_2" xmlns="http://www.w3.org/2000/svg" xmlns:xlink="http://www.w3.org/1999/xlink" viewBox="0 0 30 30">
  <defs>
    <style>
      .cls-1 {
        fill: #f55b14;
      }

      .cls-2 {
        fill: none;
      }

      .cls-3 {
        clip-path: url(#clippath);
      }
    </style>
    <clipPath id="clippath">
      <rect class="cls-2" width="30" height="30"/>
    </clipPath>
  </defs>
  <g id="Layer_1-2" data-name="Layer_1">
    <g class="cls-3">
      <path class="cls-1" d="M16.15,14.19c.25.07.49.16.73.26.24.1.47.21.7.34.06.04.14.05.21.04.07,0,.13-.04.18-.09l.21-.21c.19-.19.44-.29.69-.29s.5.1.69.29l.35.35.9-.9c.06-.06.15-.1.23-.1h.48c-.97-1.59-2.24-3.02-3.78-4.17h-6.96c-1.73,1.3-3.13,2.93-4.13,4.77-1.03,1.89-1.64,3.99-1.78,6.16-.03.42.03.82.16,1.18.13.36.34.7.63,1.01.29.31.61.54.97.69.35.15.75.23,1.17.23h.28c-.06-.12-.11-.24-.16-.36-.1-.24-.19-.49-.26-.73-.02-.07-.06-.13-.12-.17s-.12-.06-.2-.06h-.3c-.27,0-.51-.11-.69-.29s-.29-.42-.29-.69v-1.35c0-.27.11-.51.29-.69s.42-.29.69-.29h.3c.08,0,.14-.02.2-.06.05-.04.1-.1.12-.17.07-.25.16-.49.26-.74.1-.24.21-.47.34-.7.04-.06.05-.14.04-.21,0-.07-.04-.13-.1-.18l-.21-.21c-.19-.19-.29-.44-.29-.69s.1-.5.29-.69l.95-.95c.19-.19.44-.29.69-.29s.5.1.69.29l.21.21c.05.05.12.09.18.1.07,0,.14,0,.21-.04.23-.13.46-.24.7-.34.24-.1.48-.19.74-.26.07-.02.13-.06.17-.12.04-.05.06-.12.06-.2v-.3c0-.27.11-.51.29-.69.18-.18.42-.29.69-.29h1.35c.27,0,.51.11.69.29.18.18.29.42.29.69v.3c0,.08.02.14.06.2.04.05.1.1.17.12h0ZM13.94,18.55c0-.18.15-.33.33-.33s.33.15.33.33v.25c.18.05.35.15.48.28.21.21.33.49.33.8,0,.18-.15.33-.33.33s-.33-.15-.33-.33c0-.13-.05-.25-.14-.34-.09-.09-.21-.14-.34-.14s-.25.05-.34.14c-.09.09-.14.21-.14.34,0,.36.3.47.6.58.51.19,1.02.38,1.02,1.19,0,.31-.13.6-.33.8-.13.13-.29.23-.48.28v.25c0,.18-.15.33-.33.33s-.33-.15-.33-.33v-.25c-.18-.05-.35-.15-.48-.28-.21-.21-.33-.49-.33-.8,0-.18.15-.33.33-.33s.33.15.33.33c0,.13.05.25.14.34s.21.14.34.14.25-.05.34-.14.14-.21.14-.34c0-.36-.3-.47-.6-.58-.51-.19-1.02-.38-1.02-1.19,0-.31.13-.6.33-.8.13-.13.29-.23.48-.28v-.25h0ZM.33,27.53c-.18,0-.33-.15-.33-.33s.15-.33.33-.33h5.03c.18,0,.33.15.33.33s-.15.33-.33.33H.33ZM.33,26.37c-.18,0-.33-.15-.33-.33s.15-.33.33-.33h5.03c.18,0,.33.15.33.33s-.15.33-.33.33H.33ZM.33,25.21c-.18,0-.33-.15-.33-.33s.15-.33.33-.33h2.94c.18,0,.33.15.33.33s-.15.33-.33.33H.33ZM25.8,16.85c-.18,0-.33-.15-.33-.33s.15-.33.33-.33h3.87c.18,0,.33.15.33.33s-.15.33-.33.33h-3.87ZM10.83,24.67l-1.66,1.66.25.24c.06.06.15.09.23.09s.17-.03.23-.09l.21-.21c.16-.16.35-.25.56-.28.2-.03.42.01.61.12.2.11.41.22.64.31.21.09.43.17.66.23.21.06.39.19.51.35.12.16.2.37.2.59v.3c0,.09.04.17.1.23.06.06.14.1.23.1h1.35c.09,0,.17-.04.23-.1.06-.06.1-.14.1-.23v-.3c0-.22.07-.42.2-.59.12-.17.3-.29.51-.35.23-.06.45-.14.66-.23.22-.09.43-.19.64-.31.19-.11.41-.14.61-.12.21.03.4.12.56.28l.21.21c.06.06.15.09.23.09s.17-.03.23-.09l.95-.95c.06-.06.09-.15.09-.23s-.03-.17-.09-.23l-.21-.21c-.16-.16-.25-.35-.28-.56-.03-.21.01-.42.12-.61.11-.2.22-.41.31-.64.09-.21.17-.43.23-.66.06-.21.19-.39.35-.51.16-.12.37-.2.59-.2h.3c.09,0,.17-.04.23-.1.06-.06.1-.14.1-.23v-1.35c0-.09-.04-.17-.1-.23-.06-.06-.14-.1-.23-.1h-.3c-.22,0-.42-.07-.59-.2-.17-.12-.29-.3-.35-.51-.06-.23-.14-.45-.23-.66-.09-.22-.19-.43-.31-.64-.11-.19-.14-.41-.12-.61.03-.21.12-.4.28-.56l.21-.21c.06-.06.09-.15.09-.23s-.03-.17-.09-.23l-.14-.14-1.67,1.67c.12.14.23.29.33.44.55.82.87,1.82.87,2.88,0,1.43-.58,2.73-1.52,3.67-.94.94-2.24,1.52-3.67,1.52-1.32,0-2.52-.49-3.43-1.3h0ZM8.71,26.79l-1.98,1.98c-.06.06-.15.1-.23.1h-3.26c-.18,0-.33-.15-.33-.33s.15-.33.33-.33h3.13l1.89-1.89-.24-.24c-.19-.19-.29-.44-.29-.69s.1-.5.29-.69l.21-.21s.05-.05.06-.08h-.47c-.51,0-.99-.1-1.43-.29-.44-.19-.84-.47-1.19-.84-.35-.37-.61-.79-.77-1.24-.16-.45-.23-.93-.19-1.44.14-2.26.78-4.46,1.86-6.43.97-1.77,2.28-3.37,3.91-4.67-.07-.05-.14-.1-.2-.16-.23-.23-.38-.55-.38-.9s.14-.67.38-.9c.23-.23.55-.38.9-.38h7.14c.35,0,.67.14.9.38.23.23.38.55.38.9s-.14.67-.38.9c-.06.06-.13.12-.2.17,1.54,1.23,2.8,2.73,3.75,4.38h2.03c.18,0,.33.15.33.33s-.15.33-.33.33h-1.68c.96,1.88,1.53,3.94,1.66,6.06.03.51-.03.99-.19,1.44-.16.45-.42.87-.77,1.24-.35.37-.75.65-1.19.84-.44.19-.92.29-1.43.29h-.47s.04.06.06.08l.21.21c.19.19.29.44.29.69s-.1.5-.29.69l-.95.95c-.19.19-.44.29-.69.29s-.5-.1-.69-.29l-.21-.21c-.05-.05-.12-.09-.18-.1-.07,0-.14,0-.21.04-.23.13-.46.24-.7.34-.24.1-.49.19-.73.26-.07.02-.13.06-.17.12s-.06.12-.06.2v.3c0,.27-.11.51-.29.69s-.42.29-.69.29h-1.35c-.27,0-.51-.11-.69-.29s-.29-.42-.29-.69v-.3c0-.08-.02-.15-.06-.2-.04-.05-.1-.1-.17-.12-.25-.07-.49-.16-.73-.26-.24-.1-.47-.21-.7-.34-.06-.04-.14-.05-.21-.04-.07,0-.13.04-.18.1l-.21.21c-.19.19-.44.29-.69.29s-.5-.1-.69-.29l-.25-.24h0ZM8.71,25.87l1.66-1.66c-.81-.91-1.3-2.12-1.3-3.43,0-1.43.58-2.73,1.52-3.67.94-.94,2.24-1.52,3.67-1.52.18,0,.33.15.33.33v1.22c.82.07,1.56.42,2.14.94l.62-.62c-.39-.36-.85-.66-1.35-.86-.17-.07-.24-.26-.18-.43.07-.17.26-.24.43-.18.58.24,1.1.58,1.56,1l1.65-1.65-.35-.35c-.06-.06-.15-.09-.23-.09s-.17.03-.23.09l-.21.21c-.16.16-.35.25-.56.28-.2.03-.42,0-.61-.12-.2-.11-.42-.22-.64-.31-.21-.09-.43-.17-.66-.23-.21-.06-.39-.19-.51-.35-.12-.17-.2-.37-.2-.59v-.3c0-.09-.04-.17-.1-.23-.06-.06-.14-.1-.23-.1h-1.35c-.09,0-.17.04-.23.1-.06.06-.1.14-.1.23v.3c0,.22-.07.42-.2.59-.12.16-.3.29-.51.35-.23.06-.45.14-.66.23-.22.09-.43.19-.64.31-.19.11-.41.14-.61.12-.21-.03-.4-.12-.56-.28l-.21-.21c-.06-.06-.15-.1-.23-.1s-.17.03-.23.09l-.95.95c-.06.06-.09.15-.09.23s.03.17.09.23l.21.21c.16.16.25.35.28.56.03.2-.01.42-.12.61-.11.2-.22.41-.31.63-.09.21-.17.43-.23.66-.06.21-.19.39-.35.51-.16.12-.37.2-.59.2h-.3c-.09,0-.17.04-.23.1-.06.06-.1.14-.1.23v1.35c0,.09.04.17.1.23.06.06.14.1.23.1h.3c.22,0,.42.07.59.2.17.12.29.3.35.51.06.23.14.45.23.66.09.22.19.43.31.64.1.19.15.4.12.61-.03.21-.12.4-.28.56l-.21.21c-.06.06-.09.15-.09.23s.03.17.09.23l.24.24ZM25.8,15.69c-.18,0-.33-.15-.33-.33s.15-.33.33-.33h3.87c.18,0,.33.15.33.33s-.15.33-.33.33h-3.87ZM25.8,14.53c-.18,0-.33-.15-.33-.33s.15-.33.33-.33h2.26c.18,0,.33.15.33.33s-.15.33-.33.33h-2.26ZM20.38,15.33l.14.14c.19.19.29.44.29.69s-.1.5-.29.69l-.21.21c-.05.05-.09.12-.1.18,0,.07,0,.14.04.21.13.23.24.46.34.7.1.24.19.49.26.73.02.07.06.13.12.17s.12.06.2.06h.3c.27,0,.51.11.69.29.18.18.29.42.29.69v1.35c0,.27-.11.51-.29.69-.18.18-.42.29-.69.29h-.3c-.08,0-.15.02-.2.06-.05.04-.1.1-.12.17-.07.25-.16.49-.26.73-.05.12-.1.24-.16.36h.28c.42,0,.82-.08,1.17-.23.36-.15.68-.39.97-.69.29-.31.5-.65.63-1.01s.18-.76.16-1.18c-.14-2.15-.74-4.23-1.75-6.1h-.71l-.8.8ZM17.79,17.92l-.62.62c.41.54.68,1.19.74,1.91h.88c-.06-.81-.32-1.56-.75-2.19-.08-.12-.16-.23-.25-.34h0ZM15.19,16.33c-.18-.04-.29-.21-.25-.39s.21-.29.39-.25h0c.18.04.29.21.25.39-.04.18-.21.29-.39.25h0ZM10.18,22.76l.76-.44c-.22-.47-.34-.99-.34-1.54,0-1.01.41-1.93,1.07-2.59.59-.59,1.38-.98,2.27-1.06v-.88c-1.12.08-2.14.57-2.89,1.32-.82.82-1.33,1.96-1.33,3.21,0,.71.16,1.38.45,1.98h0ZM11.26,22.88l-.76.44c.16.24.35.46.55.66.82.82,1.96,1.33,3.21,1.33s2.39-.51,3.21-1.33c.75-.75,1.24-1.76,1.32-2.89h-.88c-.08.88-.47,1.67-1.06,2.27-.66.66-1.58,1.07-2.59,1.07s-1.93-.41-2.59-1.07c-.15-.15-.29-.31-.41-.48h0ZM16.39,18.65c-.55-.55-1.3-.88-2.13-.88s-1.59.34-2.13.88-.88,1.3-.88,2.13.34,1.59.88,2.13c.55.55,1.3.88,2.13.88s1.59-.34,2.13-.88c.55-.55.88-1.3.88-2.13s-.34-1.59-.88-2.13ZM11.01,6.27c.05.17-.06.35-.23.4-.17.05-.35-.06-.4-.23l-1.18-4.47c-.05-.17.06-.35.23-.4.05-.01.1-.01.15,0l2.58.41,1.96-.89c.09-.04.19-.04.27,0l1.96.89,2.6-.41c.18-.03.34.09.37.27,0,.05,0,.09,0,.13l-1.18,4.47c-.05.17-.22.28-.4.23s-.28-.22-.23-.4l1.06-3.99-2.2.35c-.06.01-.13,0-.19-.02l-1.92-.87-1.92.87c-.06.03-.12.04-.18.03l-2.21-.35,1.06,3.99h0ZM17.83,7.79h-7.14c-.17,0-.33.07-.44.18-.11.11-.18.27-.18.44s.07.33.18.44c.11.11.27.18.44.18h7.14c.17,0,.33-.07.44-.18.11-.11.18-.27.18-.44s-.07-.33-.18-.44c-.11-.11-.27-.18-.44-.18Z"/>
    </g>
  </g>
</svg>