<?xml version="1.0" encoding="UTF-8"?>
<svg id="Layer_2" xmlns="http://www.w3.org/2000/svg" xmlns:xlink="http://www.w3.org/1999/xlink" viewBox="0 0 30 30">
  <defs>
    <style>
      .cls-1 {
        fill: #f55b14;
        fill-rule: evenodd;
      }

      .cls-2 {
        fill: none;
      }

      .cls-3 {
        clip-path: url(#clippath);
      }
    </style>
    <clipPath id="clippath">
      <rect class="cls-2" width="30" height="30"/>
    </clipPath>
  </defs>
  <g id="Layer_1-2" data-name="Layer_1">
    <g class="cls-3">
      <path class="cls-1" d="M13.89,6.45c.73.2,1.43.49,2.08.86l1.85-1.85c.16-.16.41-.16.56,0l2.72,2.72c.16.16.16.41,0,.56l-1.85,1.85c.37.65.66,1.35.86,2.08h2.62c.22,0,.4.18.4.4v3.85c0,.22-.18.4-.4.4h-2.62c-.2.73-.49,1.43-.86,2.08l1.85,1.85c.16.16.16.41,0,.56l-2.72,2.72c-.16.16-.41.16-.56,0l-1.85-1.85c-.65.37-1.35.66-2.08.86v2.62c0,.22-.18.4-.4.4h-3.85c-.22,0-.4-.18-.4-.4v-2.62c-.73-.2-1.43-.49-2.08-.86l-1.85,1.85c-.16.16-.41.16-.56,0l-2.72-2.72c-.16-.16-.16-.41,0-.56l1.85-1.85c-.37-.65-.66-1.35-.86-2.08H.4c-.22,0-.4-.18-.4-.4v-3.85c0-.22.18-.4.4-.4h2.62c.2-.73.49-1.43.86-2.08l-1.85-1.85c-.16-.16-.16-.41,0-.56l2.72-2.72c.16-.16.41-.16.56,0l1.85,1.85c.65-.37,1.35-.66,2.08-.86v-2.62c0-.22.18-.4.4-.4h3.85c.22,0,.4.18.4.4v2.62h0ZM11.17,11.34v.26c-.37.08-.7.26-.96.52h0c-1.16,1.06-.44,3.28,1.36,3.28.62,0,1.12.5,1.12,1.12,0,1-1.21,1.5-1.91.79-.53-.53-.13-1.19-.73-1.19-.83,0-.34,1.97,1.12,2.28,0,.22-.04.66.4.66s.4-.44.4-.66c.36-.08.68-.25.93-.5,1.23-1.16.41-3.3-1.33-3.3-1,0-1.49-1.21-.79-1.92h0c.44-.44,1.15-.44,1.59,0,.53.53.12,1.19.73,1.19.82,0,.37-1.96-1.12-2.28v-.26c0-.53-.8-.53-.8,0h0ZM11.57,8.53c-3.57,0-6.47,2.9-6.47,6.47,0,5.74,6.98,8.64,11.04,4.57,4.07-4.07,1.17-11.04-4.57-11.04h0ZM15.58,10.99c-3.56-3.56-9.68-1.03-9.68,4.01s6.12,7.57,9.68,4.01c2.21-2.21,2.21-5.8,0-8.02h0ZM27.86,8.58h-2.01v13.9c0,.49-.58.4-.95.4l1.95,2.62,1.95-2.62c-.37,0-.95.09-.95-.4v-13.9h0ZM25.45,7.79h2.81c.22,0,.4.18.4.4v13.9h.94c.32,0,.52.37.32.64l-2.83,3.77c-.18.13-.43.09-.56-.08l-2.73-3.66c-.24-.29-.02-.66.3-.66h.94v-13.9c0-.22.18-.4.4-.4h0ZM13.43,7.15c-.19-.03-.34-.2-.34-.39v-2.53h-3.05v2.53c0,.18-.13.35-.31.39-.77.18-1.75.56-2.4.99-.16.11-.37.09-.51-.04l-1.79-1.79-2.16,2.16,1.79,1.79c.13.13.16.33.06.49-.42.67-.84,1.62-1,2.4-.03.19-.2.33-.39.33H.8v3.05h2.53c.18,0,.35.13.39.31.18.77.56,1.75.99,2.4.11.16.09.37-.04.51l-1.79,1.79,2.16,2.16,1.79-1.79c.13-.13.33-.16.49-.06.67.42,1.62.84,2.4,1,.19.03.33.2.33.39v2.53h3.05v-2.53c0-.18.13-.35.31-.39.77-.18,1.75-.56,2.4-.99.16-.11.37-.09.51.04l1.79,1.79,2.16-2.16-1.79-1.79c-.13-.13-.16-.33-.06-.49.42-.67.84-1.62,1-2.4.03-.19.2-.33.39-.33h2.53v-3.05h-2.53c-.18,0-.35-.12-.39-.31-.18-.78-.56-1.75-.99-2.4-.11-.16-.09-.37.04-.51l1.79-1.79-2.16-2.16-1.79,1.79c-.13.13-.33.16-.49.06-.74-.46-1.55-.8-2.39-1Z"/>
    </g>
  </g>
</svg>