<?xml version="1.0" encoding="UTF-8"?>
<svg id="Layer_2" xmlns="http://www.w3.org/2000/svg" xmlns:xlink="http://www.w3.org/1999/xlink" viewBox="0 0 30 30">
  <defs>
    <style>
      .cls-1 {
        fill: #f55b14;
      }

      .cls-2 {
        fill: none;
      }

      .cls-3 {
        clip-path: url(#clippath);
      }
    </style>
    <clipPath id="clippath">
      <rect class="cls-2" width="30" height="30"/>
    </clipPath>
  </defs>
  <g id="Layer_1-2" data-name="Layer_1">
    <g class="cls-3">
      <path class="cls-1" d="M2.96,30c.4,0,.79-.16,1.07-.44s.44-.67.44-1.07v-.83l9.21,2.09c.78.22,1.59.29,2.39.2.85-.1,2.06-.26,3.27-.42h0c2.8-.33,5.34-1.81,7-4.09l.73-1.04c.71-1.01,1.38-1.98,2.09-2.96h0c.26-.36.36-.81.28-1.24-.09-.46-.38-.87-.78-1.11-.76-.47-1.74-.4-2.42.19l-5.03,4.6c-.27-.52-.81-.84-1.39-.83h-4.32s-1.69-.24-4.54-1.99c-2.48-1.51-5.36.36-6.48,1.23v-1.55c0-.4-.16-.79-.44-1.07s-.67-.44-1.07-.44H.81c-.16,0-.28.13-.28.28s.13.28.28.28h2.15c.25,0,.5.1.67.28.18.18.28.42.28.68v7.73c0,.25-.1.5-.28.68-.18.18-.42.28-.67.28H.81c-.16,0-.28.13-.28.28s.13.28.28.28h2.15ZM10.66,21.54c2.97,1.83,4.69,2.06,4.8,2.07h4.36c.56,0,1.01.45,1.01,1.01s-.45,1.01-1.01,1.01h-4.63c-.77,0-1.5.3-2.06.83-.11.11-.11.29,0,.4.06.06.13.09.21.09.07,0,.14-.03.19-.08.45-.43,1.05-.67,1.67-.67h4.62c.8,0,1.47-.59,1.57-1.39.02-.12.02-.25,0-.38.04-.01.08-.03.1-.06l5.13-4.68c.49-.41,1.19-.47,1.73-.13.27.17.47.44.53.76.05.28-.01.57-.18.8-.71.99-1.39,1.96-2.09,2.97l-.73,1.04c-1.57,2.15-3.97,3.55-6.62,3.86-1.21.16-2.41.31-3.26.42-.73.08-1.47.02-2.18-.19l-9.34-2.14v-4.06c.57-.49,3.69-3.01,6.18-1.49h0ZM11.28,19.92c1.14,0,2.25-.36,3.18-1.03.93-.67,1.62-1.61,1.98-2.69.45,1.34,1.4,2.46,2.65,3.12,1.26.65,2.72.8,4.07.39,1.36-.4,2.5-1.32,3.2-2.55s.88-2.69.52-4.06c-.36-1.37-1.24-2.54-2.45-3.28-1.21-.73-2.66-.97-4.04-.65.97-1.04,1.5-2.42,1.47-3.84-.03-1.42-.62-2.78-1.63-3.77-1.02-1-2.38-1.55-3.81-1.55s-2.79.56-3.81,1.55c-1.02,1-1.6,2.35-1.63,3.77-.03,1.42.5,2.8,1.47,3.84-1.51-.35-3.1-.03-4.37.87-1.26.9-2.09,2.3-2.25,3.84-.17,1.54.33,3.08,1.37,4.24,1.04,1.15,2.52,1.81,4.07,1.8h0ZM26.48,14.48c0,1.97-1.19,3.75-3.01,4.5-1.82.75-3.92.34-5.31-1.06-1.39-1.39-1.81-3.49-1.06-5.31.75-1.82,2.53-3.01,4.5-3.01,2.69,0,4.87,2.19,4.88,4.88h0ZM16.44,12.76c-.25-.75-.66-1.43-1.2-2,.79.18,1.61.18,2.4,0-.54.57-.95,1.25-1.2,2ZM16.44.58c1.97,0,3.75,1.19,4.5,3.01.76,1.82.34,3.92-1.06,5.31-1.39,1.39-3.49,1.81-5.31,1.06-1.82-.75-3.01-2.53-3.01-4.5,0-2.69,2.18-4.87,4.88-4.88h0ZM11.28,9.6c1.97,0,3.75,1.19,4.5,3.01.76,1.82.34,3.92-1.06,5.31-1.39,1.39-3.49,1.81-5.31,1.06-1.82-.75-3.01-2.53-3.01-4.5,0-2.69,2.18-4.87,4.88-4.88h0ZM8.79,15.27c.12.11.17.28.14.44l-.14.81c-.05.31.03.62.23.86.2.24.5.38.81.38.17,0,.34-.03.5-.11l.72-.38h0c.14-.08.32-.08.46,0l.71.38c.36.19.8.16,1.13-.08.33-.24.49-.65.42-1.05l-.14-.8c-.03-.16.02-.32.14-.44l.58-.57c.29-.28.39-.7.27-1.09-.13-.38-.46-.66-.86-.72l-.8-.11c-.16-.02-.3-.12-.38-.27l-.36-.73c-.18-.35-.55-.58-.94-.58s-.76.22-.95.58l-.38.73c-.07.15-.21.25-.38.27l-.81.11c-.4.06-.73.34-.85.73-.12.38-.02.8.27,1.09l.59.56ZM8.48,13.79h0c.06-.18.21-.31.4-.34l.8-.12h0c.34-.05.63-.27.79-.57l.38-.73c.08-.17.25-.28.44-.28s.36.11.44.28l.38.73h0c.15.31.45.53.8.58l.81.12c.18.03.33.16.38.34.06.18.01.38-.12.51l-.58.57c-.25.24-.36.59-.3.94l.14.8c.03.18-.04.37-.2.48-.15.11-.36.13-.52.04l-.72-.38h0c-.31-.16-.68-.16-.99,0l-.72.38h0c-.17.09-.37.08-.52-.04-.15-.11-.23-.3-.2-.48l.14-.8c.06-.34-.06-.69-.31-.94l-.58-.57c-.14-.13-.19-.33-.13-.51h0ZM19.11,15.27h0c.11.11.17.28.14.44l-.14.81c-.08.41.08.82.42,1.06.33.24.78.27,1.14.07l.72-.38c.14-.08.32-.08.46,0l.71.38c.15.08.32.12.5.12.31,0,.6-.15.8-.4.2-.24.28-.56.22-.86l-.14-.8c-.03-.16.03-.32.14-.44l.58-.57h0c.29-.28.39-.7.27-1.09-.12-.38-.46-.66-.85-.72l-.8-.11c-.16-.02-.3-.12-.38-.27l-.33-.73c-.18-.35-.55-.58-.94-.58s-.76.22-.95.58l-.38.73c-.07.15-.21.25-.38.27l-.8.11h0c-.4.06-.73.34-.86.72-.13.38-.02.81.27,1.09l.59.56ZM18.8,13.79h0c.05-.18.21-.31.4-.34l.8-.12h0c.35-.05.65-.27.8-.58l.38-.73h0c.08-.17.25-.28.44-.28s.36.11.44.28l.38.73c.15.31.46.53.8.58l.8.12h0c.18.03.34.16.4.34.06.18,0,.37-.12.51l-.62.57c-.25.24-.37.59-.31.94l.14.8c.03.19-.05.38-.21.48-.15.11-.36.13-.52.04l-.71-.38h0c-.31-.16-.68-.16-.99,0l-.71.38h0c-.17.09-.37.08-.52-.04-.15-.11-.23-.3-.2-.48l.14-.8c.06-.34-.06-.7-.31-.94l-.58-.57c-.13-.13-.17-.33-.11-.51h0ZM13.95,6.23h0c.12.12.18.29.14.45l-.14.8h0c-.07.4.09.81.41,1.05.33.24.77.27,1.13.09l.72-.38h0c.14-.08.32-.08.46,0l.72.38h0c.36.19.8.16,1.13-.09.33-.24.49-.65.41-1.05l-.15-.8c-.03-.16.02-.32.14-.44l.58-.57c.29-.28.39-.7.27-1.09-.13-.38-.46-.66-.86-.72l-.8-.12c-.16-.02-.3-.12-.38-.27l-.38-.73c-.18-.35-.55-.58-.94-.58s-.76.22-.95.58l-.36.73c-.07.15-.22.25-.38.27l-.8.12c-.4.06-.73.34-.86.72s-.02.81.27,1.09l.61.55ZM13.64,4.76h0c.05-.18.21-.31.4-.34l.8-.12h0c.35-.05.65-.27.8-.58l.38-.73h0c.08-.17.25-.28.44-.28s.36.11.44.28l.38.73c.14.31.42.53.74.6l.81.12c.19.03.34.16.4.34.06.18,0,.37-.12.5l-.58.56h0c-.25.24-.37.6-.31.94l.14.8h0c.03.18-.05.36-.19.47-.15.11-.35.13-.51.05l-.72-.38h0c-.31-.16-.68-.16-.99,0l-.71.38h0c-.17.09-.37.07-.52-.04-.15-.11-.23-.3-.2-.48l.14-.8h0c.06-.34-.06-.7-.31-.94l-.58-.56h0c-.14-.13-.18-.33-.12-.51v-.02Z"/>
    </g>
  </g>
</svg>