<?xml version="1.0" encoding="UTF-8"?>
<svg id="Layer_2" xmlns="http://www.w3.org/2000/svg" xmlns:xlink="http://www.w3.org/1999/xlink" viewBox="0 0 30 30">
  <defs>
    <style>
      .cls-1 {
        fill: #f55b14;
      }

      .cls-2 {
        fill: none;
      }

      .cls-3 {
        clip-path: url(#clippath);
      }
    </style>
    <clipPath id="clippath">
      <rect class="cls-2" width="30" height="30"/>
    </clipPath>
  </defs>
  <g id="Layer_1-2" data-name="Layer_1">
    <g class="cls-3">
      <path class="cls-1" d="M14.8,29.8c-.11,0-.16,0-.24-.04l-1.5-.64c-5.83-2.57-9.6-8.34-9.6-14.69v-7.69c0-.25.13-.46.35-.58L14.53.28c.11-.05.24-.08.35-.08.1,0,.19.02.27.07l11.07,5.88c.21.12.34.35.32.56v7.56c0,6.44-3.85,12.23-9.81,14.75l-1.67.73c-.08.03-.18.04-.25.04ZM4.86,7.19v7.25c0,5.81,3.44,11.07,8.75,13.39l1.22.51,1.43-.6c5.43-2.29,8.94-7.57,8.94-13.45v-7.1L14.86,1.69,4.86,7.19ZM13.29,18.47c-.12,0-.34-.03-.47-.22l-2.92-3.41c-.11-.13-.16-.29-.16-.51.02-.17.09-.31.23-.42.12-.1.28-.16.44-.16.19,0,.37.08.49.23l2.49,2.91,6.27-5.06c.12-.1.25-.15.39-.15.22.02.41.08.54.24.12.14.16.3.14.48-.02.13-.07.31-.23.45l-6.78,5.48c-.12.09-.25.14-.42.14Z"/>
    </g>
  </g>
</svg>