<?xml version="1.0" encoding="UTF-8"?>
<svg id="Layer_2" xmlns="http://www.w3.org/2000/svg" xmlns:xlink="http://www.w3.org/1999/xlink" viewBox="0 0 30 30">
  <defs>
    <style>
      .cls-1 {
        fill: #f55b14;
      }

      .cls-2 {
        fill: none;
      }

      .cls-3 {
        clip-path: url(#clippath);
      }
    </style>
    <clipPath id="clippath">
      <rect class="cls-2" width="30" height="30"/>
    </clipPath>
  </defs>
  <g id="Layer_1-2" data-name="Layer_1">
    <g class="cls-3">
      <g>
        <path class="cls-1" d="M11.07,11.12c0,2.15,1.76,3.91,3.93,3.91s3.93-1.75,3.93-3.91-1.76-3.91-3.93-3.91-3.93,1.75-3.93,3.91ZM15,14.21c-1.72,0-3.11-1.39-3.11-3.09s1.4-3.09,3.11-3.09,3.11,1.39,3.11,3.09-1.4,3.09-3.11,3.09Z"/>
        <path class="cls-1" d="M21.73,8.21c0,1.83,1.5,3.32,3.34,3.32s3.34-1.49,3.34-3.32-1.5-3.32-3.34-3.32-3.34,1.49-3.34,3.32ZM27.59,8.21c0,1.38-1.13,2.5-2.52,2.5s-2.52-1.12-2.52-2.5,1.13-2.5,2.52-2.5,2.52,1.12,2.52,2.5Z"/>
        <path class="cls-1" d="M4.93,11.53c1.84,0,3.34-1.49,3.34-3.32s-1.5-3.32-3.34-3.32-3.34,1.49-3.34,3.32,1.5,3.32,3.34,3.32ZM4.93,5.71c1.39,0,2.52,1.12,2.52,2.5s-1.13,2.5-2.52,2.5-2.52-1.12-2.52-2.5,1.13-2.5,2.52-2.5Z"/>
        <path class="cls-1" d="M26.78,12.35h-3.42c-1.78,0-3.22,1.44-3.22,3.2v.75c-.42-.2-.88-.31-1.37-.31-8.06,0-8.02-.11-8.9.31v-.75c0-1.77-1.45-3.2-3.22-3.2h-3.42c-1.78,0-3.22,1.44-3.22,3.2v4.57c0,.74.6,1.34,1.35,1.34h6.67v2.3c0,.74.6,1.34,1.34,1.34h11.27c.74,0,1.34-.6,1.34-1.34v-2.3h6.67c.74,0,1.35-.6,1.35-1.34v-4.57c0-1.77-1.45-3.2-3.22-3.2h0ZM29.18,20.13c0,.29-.24.52-.53.52h-6.67c0-1.41.17-2.56-.9-3.67-.17-.17-.13.07-.13-1.43,0-1.32,1.08-2.39,2.4-2.39h3.42c1.33,0,2.4,1.07,2.4,2.39,0,0,0,4.57,0,4.57ZM.82,20.13v-4.57c0-1.32,1.08-2.39,2.4-2.39h3.42c1.33,0,2.4,1.07,2.4,2.39,0,2.04.09.84-.6,2.06-.53.92-.42,1.63-.42,3.04H1.34c-.29,0-.53-.23-.53-.52ZM8.84,23.77c0-5.1-.04-4.81.11-5.29.31-.97,1.23-1.67,2.28-1.67h7.53c1.17,0,2.17.86,2.36,1.99.05.31.04.07.04,4.97,0,.29-.24.53-.53.53h-11.27c-.29,0-.53-.23-.53-.53h0Z"/>
      </g>
    </g>
  </g>
</svg>