<?xml version="1.0" encoding="UTF-8"?>
<svg id="Layer_2" xmlns="http://www.w3.org/2000/svg" xmlns:xlink="http://www.w3.org/1999/xlink" viewBox="0 0 40 40">
  <defs>
    <style>
      .cls-1 {
        fill: none;
      }

      .cls-2 {
        fill: #f26229;
        fill-rule: evenodd;
      }

      .cls-3 {
        clip-path: url(#clippath);
      }
    </style>
    <clipPath id="clippath">
      <rect class="cls-1" width="40" height="40"/>
    </clipPath>
  </defs>
  <g id="Layer_1-2" data-name="Layer_1">
    <g class="cls-3">
      <g>
        <path class="cls-2" d="M36.88,16.79l-.19-.04.03-.18c.21-1.71-.42-3.4-1.72-4.53-.93-.82-2.12-1.26-3.36-1.26-.45,0-.91.06-1.34.17l-.22.06-.03-.22c-.48-3.75-3.56-6.72-7.32-7.05-.24-.02-.48-.03-.73-.03-3.56,0-6.66,2.28-7.73,5.67l-.08.24-.22-.13c-1.08-.65-2.32-.99-3.59-.99s-2.4.31-3.45.91c-2.19,1.24-3.55,3.58-3.55,6.09,0,.3.02.62.06.93l.04.3-.19.03C1.25,17.1-.15,18.9.01,20.95c.17,2.02,1.89,3.61,3.91,3.62h32.16c2.02-.01,3.7-1.53,3.9-3.54.2-2.01-1.13-3.84-3.1-4.24ZM36.08,23.57H3.92c-1.6-.02-2.89-1.33-2.89-2.93s1.29-2.92,2.89-2.94h.17c.16,0,.3-.08.4-.21.09-.12.11-.28.07-.45-.14-.48-.2-1.01-.2-1.54-.02-1.59.61-3.15,1.73-4.28,1.14-1.15,2.66-1.79,4.27-1.79s3.15.66,4.27,1.79c1.11,1.13,1.75,2.69,1.74,4.27,0,.27.22.48.48.48.28,0,.49-.21.51-.47,0-.93-.18-1.83-.54-2.68-.35-.86-.86-1.63-1.5-2.26l-.29-.27.03-.11c.76-3.23,3.61-5.49,6.92-5.49.2,0,.39.01.6.02,3.54.29,6.28,3.07,6.52,6.62l-.03.12-.07.07c-1.54.92-2.48,2.61-2.48,4.39-.01.17.07.29.13.36.09.1.22.15.36.15.13,0,.26-.05.35-.15.09-.1.14-.22.14-.37,0-1.19.53-2.32,1.42-3.11.76-.65,1.71-1.01,2.71-1.01.19,0,.39.02.6.05,1.18.17,2.23.85,2.88,1.85.66,1,.84,2.24.49,3.39-.04.15-.01.31.09.43.08.12.22.19.38.2,1.6.02,2.9,1.33,2.9,2.94s-1.3,2.91-2.9,2.93Z"/>
        <path class="cls-2" d="M36.88,16.79l-.19-.04.03-.18c.21-1.71-.42-3.4-1.72-4.53-.93-.82-2.12-1.26-3.36-1.26-.45,0-.91.06-1.34.17l-.22.06-.03-.22c-.48-3.75-3.56-6.72-7.32-7.05-.24-.02-.48-.03-.73-.03-3.56,0-6.66,2.28-7.73,5.67l-.08.24-.22-.13c-1.08-.65-2.32-.99-3.59-.99s-2.4.31-3.45.91c-2.19,1.24-3.55,3.58-3.55,6.09,0,.3.02.62.06.93l.04.3-.19.03C1.25,17.1-.15,18.9.01,20.95c.17,2.02,1.89,3.61,3.91,3.62h32.16c2.02-.01,3.7-1.53,3.9-3.54.2-2.01-1.13-3.84-3.1-4.24ZM36.08,23.57H3.92c-1.6-.02-2.89-1.33-2.89-2.93s1.29-2.92,2.89-2.94h.17c.16,0,.3-.08.4-.21.09-.12.11-.28.07-.45-.14-.48-.2-1.01-.2-1.54-.02-1.59.61-3.15,1.73-4.28,1.14-1.15,2.66-1.79,4.27-1.79s3.15.66,4.27,1.79c1.11,1.13,1.75,2.69,1.74,4.27,0,.27.22.48.48.48.28,0,.49-.21.51-.47,0-.93-.18-1.83-.54-2.68-.35-.86-.86-1.63-1.5-2.26l-.29-.27.03-.11c.76-3.23,3.61-5.49,6.92-5.49.2,0,.39.01.6.02,3.54.29,6.28,3.07,6.52,6.62l-.03.12-.07.07c-1.54.92-2.48,2.61-2.48,4.39-.01.17.07.29.13.36.09.1.22.15.36.15.13,0,.26-.05.35-.15.09-.1.14-.22.14-.37,0-1.19.53-2.32,1.42-3.11.76-.65,1.71-1.01,2.71-1.01.19,0,.39.02.6.05,1.18.17,2.23.85,2.88,1.85.66,1,.84,2.24.49,3.39-.04.15-.01.31.09.43.08.12.22.19.38.2,1.6.02,2.9,1.33,2.9,2.94s-1.3,2.91-2.9,2.93Z"/>
        <path class="cls-2" d="M36.9,31.08c-.39-.8-1.2-1.29-2.09-1.29h-.14c-.98.05-1.84.74-2.12,1.7l-.04.14h-4.95v-5.84c0-.27-.22-.49-.49-.49s-.49.22-.49.49v5.67c0,.28.11.57.34.82.22.22.52.34.83.34h4.77l.04.15c.24.86.94,1.49,1.83,1.67.14.03.28.04.42.04.74,0,1.43-.34,1.88-.94.55-.71.63-1.65.22-2.45ZM35.07,33.45c-.09.01-.18.02-.26.02-.56,0-1.04-.32-1.25-.84-.24-.59-.04-1.28.49-1.65.22-.14.48-.22.76-.22.36,0,.7.14.95.39.26.25.4.6.4.96,0,.65-.45,1.2-1.09,1.33Z"/>
        <path class="cls-2" d="M36.9,31.08c-.39-.8-1.2-1.29-2.09-1.29h-.14c-.98.05-1.84.74-2.12,1.7l-.04.14h-4.95v-5.84c0-.27-.22-.49-.49-.49s-.49.22-.49.49v5.67c0,.28.11.57.34.82.22.22.52.34.83.34h4.77l.04.15c.24.86.94,1.49,1.83,1.67.14.03.28.04.42.04.74,0,1.43-.34,1.88-.94.55-.71.63-1.65.22-2.45ZM35.07,33.45c-.09.01-.18.02-.26.02-.56,0-1.04-.32-1.25-.84-.24-.59-.04-1.28.49-1.65.22-.14.48-.22.76-.22.36,0,.7.14.95.39.26.25.4.6.4.96,0,.65-.45,1.2-1.09,1.33Z"/>
        <path class="cls-2" d="M24.03,25.79v4.87c0,.27-.22.49-.49.49s-.49-.22-.49-.49v-4.87c0-.27.22-.49.49-.49s.49.22.49.49Z"/>
        <path class="cls-2" d="M24.03,25.79v4.87c0,.27-.22.49-.49.49s-.49-.22-.49-.49v-4.87c0-.27.22-.49.49-.49s.49.22.49.49Z"/>
        <path class="cls-2" d="M16.97,25.79v4.87c0,.27-.22.49-.49.49s-.49-.22-.49-.49v-4.87c0-.27.22-.49.49-.49s.49.22.49.49Z"/>
        <path class="cls-2" d="M16.97,25.79v4.87c0,.27-.22.49-.49.49s-.49-.22-.49-.49v-4.87c0-.27.22-.49.49-.49s.49.22.49.49Z"/>
        <path class="cls-2" d="M20.65,31.69l-.14-.04v-5.86c0-.27-.22-.49-.49-.49s-.51.22-.51.49v5.79s-.1.1-.1.1h-.04c-1.12.33-1.84,1.44-1.68,2.6.16,1.15,1.15,2.02,2.32,2.02s2.16-.87,2.31-2.02c.16-1.15-.56-2.26-1.68-2.59ZM21.13,34.71c-.25.37-.68.6-1.12.6-.18,0-.36-.04-.53-.1-.6-.24-.94-.88-.81-1.52.12-.64.68-1.09,1.32-1.09.36,0,.72.14.96.39.45.45.53,1.18.17,1.72Z"/>
        <path class="cls-2" d="M20.65,31.69l-.14-.04v-5.86c0-.27-.22-.49-.49-.49s-.51.22-.51.49v5.79s-.1.1-.1.1h-.04c-1.12.33-1.84,1.44-1.68,2.6.16,1.15,1.15,2.02,2.32,2.02s2.16-.87,2.31-2.02c.16-1.15-.56-2.26-1.68-2.59ZM21.13,34.71c-.25.37-.68.6-1.12.6-.18,0-.36-.04-.53-.1-.6-.24-.94-.88-.81-1.52.12-.64.68-1.09,1.32-1.09.36,0,.72.14.96.39.45.45.53,1.18.17,1.72Z"/>
        <path class="cls-2" d="M13.29,25.42c-.09-.09-.22-.15-.35-.15s-.26.06-.35.14c-.1.1-.15.23-.14.37v5.84h-4.94l-.05-.14c-.29-1-1.22-1.7-2.25-1.7-.1,0-.21,0-.32.02-1.15.16-2.02,1.16-2.02,2.32s.87,2.15,2.02,2.31c.11.02.22.02.32.02,1.04,0,1.97-.7,2.25-1.7l.04-.15h4.77c.31,0,.61-.12.82-.34l.05-.04c.19-.22.3-.49.3-.78v-5.67c0-.14-.05-.27-.14-.36ZM6.33,32.88c-.25.37-.68.61-1.13.61-.17,0-.34-.04-.52-.11-.6-.24-.93-.89-.81-1.52.12-.64.69-1.09,1.32-1.09h.2v.02c.28.04.56.17.76.37.46.46.54,1.18.17,1.72Z"/>
        <path class="cls-2" d="M13.29,25.42c-.09-.09-.22-.15-.35-.15s-.26.06-.35.14c-.1.1-.15.23-.14.37v5.84h-4.94l-.05-.14c-.29-1-1.22-1.7-2.25-1.7-.1,0-.21,0-.32.02-1.15.16-2.02,1.16-2.02,2.32s.87,2.15,2.02,2.31c.11.02.22.02.32.02,1.04,0,1.97-.7,2.25-1.7l.04-.15h4.77c.31,0,.61-.12.82-.34l.05-.04c.19-.22.3-.49.3-.78v-5.67c0-.14-.05-.27-.14-.36ZM6.33,32.88c-.25.37-.68.61-1.13.61-.17,0-.34-.04-.52-.11-.6-.24-.93-.89-.81-1.52.12-.64.69-1.09,1.32-1.09h.2v.02c.28.04.56.17.76.37.46.46.54,1.18.17,1.72Z"/>
      </g>
    </g>
  </g>
</svg>