<?xml version="1.0" encoding="UTF-8"?>
<svg id="Layer_2" xmlns="http://www.w3.org/2000/svg" xmlns:xlink="http://www.w3.org/1999/xlink" viewBox="0 0 40 40">
  <defs>
    <style>
      .cls-1 {
        fill: none;
      }

      .cls-2 {
        fill: #f26229;
      }

      .cls-3 {
        clip-path: url(#clippath);
      }
    </style>
    <clipPath id="clippath">
      <rect class="cls-1" width="40" height="40"/>
    </clipPath>
  </defs>
  <g id="Layer_1-2" data-name="Layer_1">
    <g class="cls-3">
      <g>
        <path class="cls-2" d="M5.58,25.01c-.39,0-.7.31-.7.7v.47c0,.39.31.7.7.7s.7-.31.7-.7v-.47c0-.39-.31-.7-.7-.7Z"/>
        <path class="cls-2" d="M5.58,19.43c-.39,0-.7.31-.7.7v.47c0,.39.31.7.7.7s.7-.31.7-.7v-.47c0-.39-.31-.7-.7-.7Z"/>
        <path class="cls-2" d="M5.58,22.22c-.39,0-.7.31-.7.7v.47c0,.39.31.7.7.7s.7-.31.7-.7v-.47c0-.39-.31-.7-.7-.7Z"/>
        <path class="cls-2" d="M32.36,28.85h2.08c.05,0,.11,0,.16,0,3.05-.22,5.41-2.75,5.4-5.81v-.6c0-2.43-1.52-4.59-3.79-5.44-.21-8.95-7.65-16.04-16.6-15.82-8.65.21-15.61,7.17-15.82,15.82C1.51,17.84,0,20.01,0,22.44v.6c0,3.2,2.6,5.8,5.8,5.8h1.13v2.59c0,2.95,2.4,5.35,5.35,5.35h5.07c.39,1.46,1.88,2.33,3.34,1.95s2.33-1.88,1.95-3.34-1.88-2.33-3.34-1.95c-.95.25-1.7.99-1.95,1.95h-5.07c-2.18,0-3.95-1.77-3.95-3.95v-14.11c0-6.44,5.22-11.66,11.66-11.66s11.66,5.22,11.66,11.66v10.81c0,.38.31.7.69.7ZM20,34.76c.74,0,1.34.6,1.34,1.33s-.6,1.34-1.33,1.34c-.74,0-1.34-.6-1.34-1.33,0,0,0,0,0,0,0-.74.6-1.34,1.33-1.34ZM38.6,22.43v.6c0,2.1-1.49,3.91-3.55,4.33-.17-.34-.59-.48-.93-.31-.16.08-.29.22-.34.39h-.73v-9.42h1.13c2.44,0,4.41,1.97,4.41,4.41ZM6.94,27.46h-1.14c-2.43,0-4.41-1.98-4.41-4.41v-.6c0-2.1,1.49-3.91,3.55-4.33.17.34.59.48.93.31.16-.08.29-.22.34-.39h.73v9.42ZM20,4.28c-6.93.02-12.65,5.44-13.02,12.36h-1.42c-.05,0-.11,0-.16,0h-.2c.36-8.18,7.27-14.52,15.45-14.16,7.68.33,13.83,6.48,14.16,14.16-.2-.02-.41-.03-.61-.03h-1.17c-.39-6.91-6.1-12.31-13.02-12.33Z"/>
        <path class="cls-2" d="M33.74,19.31v.47c0,.39.31.7.7.7s.7-.31.7-.7v-.47c0-.39-.31-.7-.7-.7s-.7.31-.7.7Z"/>
        <path class="cls-2" d="M34.42,21.41c-.39,0-.7.31-.7.7h0v.47c0,.39.31.7.7.7s.7-.31.7-.7v-.47c0-.39-.31-.7-.7-.7h0Z"/>
        <path class="cls-2" d="M34.42,24.2c-.39,0-.7.31-.7.7v.47c0,.39.31.7.7.7s.7-.31.7-.7v-.47c0-.39-.31-.7-.7-.7Z"/>
      </g>
    </g>
  </g>
</svg>