<?xml version="1.0" encoding="UTF-8"?>
<svg id="Layer_2" xmlns="http://www.w3.org/2000/svg" xmlns:xlink="http://www.w3.org/1999/xlink" viewBox="0 0 40 40">
  <defs>
    <style>
      .cls-1 {
        fill: none;
      }

      .cls-2 {
        fill: #f26229;
      }

      .cls-3 {
        clip-path: url(#clippath);
      }
    </style>
    <clipPath id="clippath">
      <rect class="cls-1" width="40" height="40"/>
    </clipPath>
  </defs>
  <g id="Layer_1-2" data-name="Layer_1">
    <g class="cls-3">
      <g>
        <path class="cls-2" d="M13.51,19.03h18.27c.31,0,.56-.25.56-.56V4.4c0-.18-.08-.34-.22-.44l-4.09-3.12c-.1-.07-.22-.11-.34-.11h-10.1c-.12,0-.24.04-.34.11l-4.09,3.12c-.14.11-.22.27-.22.44v14.07c0,.31.25.56.56.56ZM19.98,1.78h.74l-.68,2.07h-4.89l2.63-2.01,2.2-.06ZM24.16,3.85l-2.26.06h-.75l.73-2.07,1.5-.04.6,1.53.18.52ZM25.3,3.89l-.72-2.05h2.91s2.65,2.01,2.65,2.01l-4.84.04ZM24.33,4.9v3.25l-1.36-1c-.1-.07-.21-.11-.33-.11s-.23.04-.33.11l-1.36,1-.06-3.19,3.43-.06h.01ZM19.84,4.9v4.35c0,.21.12.4.31.49.08.04.16.06.25.06.12,0,.23-.04.33-.11l1.88-1.44,1.95,1.43c.09.07.21.11.33.11.09,0,.18-.02.25-.06.19-.1.31-.29.31-.49l-.06-4.28,5.81-.06h.02l.06,13.01-17.22.06V4.96l5.75-.06h.02Z"/>
        <path class="cls-2" d="M39.59,22.45c-.44-.85-1.2-1.48-2.12-1.78-.36-.11-.73-.17-1.09-.17-.57,0-1.15.14-1.67.41l-9.57,4.98c.02-.11.03-.23.03-.34.04-.96-.3-1.89-.95-2.6-.65-.71-1.55-1.13-2.51-1.17l-8.62-.37c-.56,0-1.06.12-1.57.39l-5.54,2.95-.03.02-.63-1.21c-.23-.44-.68-.72-1.18-.72-.22,0-.42.05-.62.15l-2.8,1.46c-.65.34-.9,1.15-.56,1.8l6.42,12.31c.23.44.68.72,1.18.72.21,0,.42-.05.61-.15l2.8-1.46c.32-.17.55-.44.65-.78.11-.34.08-.7-.09-1.01l-.65-1.12h0s.59-.31.59-.31c.11-.06.22-.08.36-.08.12,0,.27.02.48.07l6.26,1.34c.48.11,1.05.21,1.66.21.69,0,1.29-.14,1.86-.44l15.77-8.22c.85-.44,1.48-1.2,1.78-2.12.3-.92.21-1.9-.23-2.75ZM38.77,24.87c-.2.64-.64,1.16-1.23,1.47l-15.77,8.22c-.41.21-.83.31-1.34.31-.39,0-.83-.06-1.43-.19l-6.26-1.34c-.19-.04-.45-.09-.72-.09-.32,0-.6.07-.87.21l-.51.33-4.27-8.06h0s5.65-2.95,5.65-2.95c.34-.18.67-.26,1.04-.26l8.59.37c.67.03,1.29.32,1.74.81.46.49.69,1.13.66,1.8-.03.67-.32,1.29-.81,1.74-.46.43-1.06.66-1.69.66l-5.83-.25c-.29,0-.54.24-.55.53-.01.31.22.57.53.58l5.69.24c.05,0,.11,0,.16,0,.9,0,1.77-.34,2.44-.95.2-.18.38-.39.52-.59l10.7-5.58c.35-.18.75-.28,1.15-.28.26,0,.52.04.77.12.64.2,1.16.64,1.47,1.23.31.58.37,1.26.17,1.91ZM7.56,38.05L1.14,25.74c-.03-.05-.03-.11-.01-.17.02-.06.06-.1.11-.13l2.8-1.46s.06-.02.1-.02h.07c.07.03.11.08.13.12l6.42,12.31c.03.05.03.11.02.17-.02.05-.05.1-.11.13l-2.8,1.46s-.06.02-.1.02c-.08,0-.16-.05-.2-.12Z"/>
      </g>
    </g>
  </g>
</svg>