<?xml version="1.0" encoding="UTF-8"?>
<svg id="Layer_2" xmlns="http://www.w3.org/2000/svg" xmlns:xlink="http://www.w3.org/1999/xlink" viewBox="0 0 40 40">
  <defs>
    <style>
      .cls-1 {
        fill: none;
      }

      .cls-2 {
        fill: #f26229;
      }

      .cls-3 {
        clip-path: url(#clippath);
      }
    </style>
    <clipPath id="clippath">
      <rect class="cls-1" width="40" height="40"/>
    </clipPath>
  </defs>
  <g id="Layer_1-2" data-name="Layer_1">
    <g class="cls-3">
      <g>
        <path class="cls-2" d="M39.98,35.27l-3.87-4.93c.1-.3.2-.6.27-.9.15-.58.25-1.17.29-1.71.38-.46.72-.95,1.02-1.47.33-.56.61-1.14.84-1.74.05-.14.05-.28,0-.42-.23-.6-.51-1.19-.84-1.74-.3-.51-.65-1.01-1-1.42-.06-.59-.17-1.19-.32-1.76-.16-.62-.37-1.23-.64-1.83-.06-.13-.16-.24-.3-.3-.59-.26-1.2-.48-1.82-.64-.58-.15-1.17-.25-1.71-.29-.46-.38-.96-.72-1.47-1.02-.55-.33-1.14-.61-1.74-.84-.07-.03-.14-.04-.21-.04s-.14.01-.21.04c-.61.23-1.19.52-1.74.84-.51.3-1,.65-1.41,1-.5.05-1,.13-1.41.28-1.82-1.78-4.47-3.15-7.32-3.77,1.73-.93,2.96-2.54,3.39-4.47.45-2.02-.02-4.1-1.32-5.71C17.18.83,15.26-.1,13.19-.1s-3.99.93-5.29,2.54c-1.29,1.61-1.77,3.7-1.32,5.71.43,1.92,1.66,3.54,3.39,4.47C5.07,13.71-.1,17.23-.1,22.53c0,1.93,1.44,3.71,4.05,5.01s5.76,1.92,9.24,1.92c2.57,0,5.06-.38,7.2-1.08.11.67.28,1.32.51,1.87l-3.88,5.02c-.13.17-.16.4-.07.6.09.2.28.33.5.34l4.01.2,2.26,3.42c.11.16.29.26.49.26h.07c.22-.03.41-.18.48-.39l2.4-5.86c.36.19.74.35,1.13.5.07.03.14.04.21.04s.14-.01.21-.04c.38-.15.76-.32,1.13-.5l2.4,5.86c.08.21.26.36.55.39.2,0,.38-.1.49-.26l2.18-3.37,4.09-.25c.21-.01.41-.15.5-.34.09-.2.07-.43-.07-.6ZM34.69,35.57l-1.78,2.69-2.05-5c.36-.23.71-.49,1-.75.59-.06,1.19-.17,1.76-.32.62-.16,1.23-.37,1.83-.64.04-.02.08-.04.12-.07l2.8,3.62-3.22.2c-.19,0-.36.11-.46.27ZM21.43,31.49s.08.05.12.07c.59.26,1.21.48,1.83.64.59.15,1.18.26,1.71.29.34.28.69.54,1.06.77l-2.05,5-1.78-2.69c-.1-.16-.28-.26-.46-.26l-3.22-.2,2.8-3.62ZM25.39,31.36c-.58-.05-1.16-.15-1.72-.29-.5-.13-1-.3-1.42-.45-.06-.14-.11-.27-.16-.41-.37-1.05-.54-1.81-.63-2.79-.01-.13-.07-.25-.15-.35-.37-.44-.7-.91-1-1.41-.26-.45-.49-.91-.69-1.32.19-.48.43-.95.69-1.39.3-.5.64-.98,1.01-1.43.08-.09.12-.21.14-.33.05-.58.15-1.17.29-1.73.13-.5.3-.99.45-1.41.46-.2.94-.36,1.48-.5.56-.14,1.14-.24,1.71-.29.13-.01.26-.07.35-.15.45-.38.93-.71,1.41-.99.42-.25.88-.48,1.35-.67.47.19.92.42,1.35.67.51.3.99.64,1.43,1.01.09.08.21.12.33.13.58.05,1.16.15,1.73.29.49.13.99.29,1.41.44.2.47.37.97.5,1.47.14.56.24,1.15.29,1.73,0,.13.06.25.15.35.37.44.7.91,1,1.41.26.45.5.92.69,1.32-.19.47-.42.94-.69,1.39-.3.5-.64.98-1.01,1.43-.08.09-.13.21-.14.33-.08.94-.32,1.99-.61,2.75l-.12.39c-1.02.43-2.09.7-3.19.79-.13.01-.26.07-.35.15-.44.37-.92.7-1.41,1-.45.26-.92.5-1.32.69-.48-.19-.95-.42-1.39-.69-.5-.3-.98-.64-1.43-1.01-.09-.08-.21-.12-.33-.14ZM4.47,26.49c-2.19-1.09-3.39-2.5-3.39-3.97,0-2.95,1.86-4.98,3.42-6.17,2.37-1.81,5.7-2.93,8.7-2.93,3.23,0,6.81,1.3,9.18,3.31-.27.1-.55.21-.81.33-.13.06-.24.17-.3.3-.26.58-.48,1.2-.64,1.82-.15.58-.26,1.18-.29,1.71-.38.46-.72.96-1.02,1.47-.33.55-.61,1.14-.84,1.74-.05.13-.05.28,0,.42.38.98.88,1.91,1.51,2.76-2.01.66-4.35,1.01-6.79,1.01-3.3,0-6.4-.64-8.72-1.8ZM13.19,1.07h0c1.49,0,2.9.58,3.95,1.64,1.06,1.06,1.64,2.46,1.64,3.95,0,2.27-1.36,4.29-3.45,5.16-.68.28-1.4.43-2.14.43-1.49,0-2.9-.58-3.96-1.64-1.6-1.6-2.08-4-1.21-6.09.87-2.1,2.89-3.45,5.16-3.45Z"/>
        <path class="cls-2" d="M32.82,28.63c1.15-1.15,1.79-2.69,1.79-4.32s-.65-3.18-1.79-4.32c-1.14-1.14-2.71-1.79-4.32-1.79s-3.16.64-4.32,1.79c-1.14,1.14-1.79,2.71-1.79,4.32s.63,3.16,1.79,4.32c1.15,1.15,2.69,1.79,4.32,1.79s3.18-.65,4.32-1.79ZM30.39,28.87c-.6.25-1.24.38-1.89.38-1.32,0-2.56-.51-3.49-1.44-1.42-1.42-1.83-3.53-1.07-5.38.77-1.85,2.55-3.04,4.55-3.04,1.3,0,2.57.53,3.49,1.44.92.92,1.44,2.19,1.44,3.49,0,2-1.19,3.79-3.04,4.55Z"/>
        <path class="cls-2" d="M31.14,21.97c-.16,0-.31.07-.42.18l-3.1,3.1-1.34-1.34c-.11-.11-.25-.16-.41-.16s-.3.06-.42.17c-.22.22-.23.59,0,.83l1.76,1.76c.11.11.26.17.42.17s.3-.06.42-.17l3.51-3.51c.12-.11.18-.26.18-.42,0-.16-.06-.31-.17-.42-.11-.11-.26-.17-.42-.17Z"/>
      </g>
    </g>
  </g>
</svg>