<?xml version="1.0" encoding="UTF-8"?>
<svg id="Layer_2" xmlns="http://www.w3.org/2000/svg" viewBox="0 0 40 39.31">
  <defs>
    <style>
      .cls-1 {
        fill: #f26229;
        fill-rule: evenodd;
      }
    </style>
  </defs>
  <g id="Layer_1-2" data-name="Layer_1">
    <path class="cls-1" d="M5.57,6.41c-.24-.23-.24-.62,0-.85.23-.23.61-.23.85,0l1.74,1.74c.23.23.23.61,0,.85-.12.12-.27.18-.42.18s-.31-.06-.42-.18l-1.74-1.74ZM3.67,18.99c0,.33-.27.6-.6.6H.6c-.33,0-.6-.27-.6-.6s.27-.6.6-.6h2.46c.33,0,.6.27.6.6ZM18.4,3.06V.6c0-.33.27-.6.6-.6s.6.27.6.6v2.46c0,.33-.27.6-.6.6s-.6-.27-.6-.6ZM25.39,25.38c-1.77,1.76-4.08,2.64-6.39,2.64-2.31,0-4.63-.88-6.39-2.64-3.52-3.52-3.52-9.25,0-12.77,1.71-1.71,3.98-2.64,6.39-2.64,2.12,0,4.13.73,5.74,2.06-2.55,2-4.87,4.38-6.89,7.09l-4.11-3.42c-.16-.13-.37-.17-.57-.11-.19.06-.34.22-.39.42l-.83,3.05c-.06.23.01.48.21.63l6.03,4.82c.11.09.24.13.37.13.03,0,.06,0,.09,0,.16-.02.31-.11.4-.25,2.52-3.56,5.21-6.73,8.02-9.43,1.69,3.38,1.13,7.61-1.69,10.43h0ZM25.63,12.87c-2.69,2.08-5.1,4.59-7.19,7.47-.1.13-.25.22-.41.24-.17.02-.33-.03-.46-.13l-3.88-3.23-.48,1.77,5.23,4.18c2.52-3.5,5.21-6.61,8-9.27-.24-.36-.52-.7-.82-1.03h0ZM27.72,13.64c-.41-.67-.9-1.3-1.49-1.88-.04-.05-.09-.1-.14-.14,0,0,0,0,0,0-1.92-1.84-4.42-2.85-7.08-2.85s-5.3,1.06-7.24,3c-3.98,3.99-3.98,10.48,0,14.47,2,2,4.62,2.99,7.24,2.99s5.24-1,7.23-2.99c3.39-3.39,3.9-8.59,1.53-12.52,0-.03-.02-.05-.04-.07h0ZM29.83,10.93c-.15-.2-.31-.4-.47-.59,1.31-.77,2.69-1.47,4.14-2.08-1.25.82-2.47,1.71-3.66,2.67h0ZM27.7,27.69c2.32-2.32,3.6-5.41,3.6-8.7,0-2.47-.73-4.84-2.08-6.85,0,0,0-.02-.01-.02-.44-.65-.94-1.26-1.51-1.83-2.33-2.32-5.41-3.6-8.7-3.6s-6.37,1.28-8.7,3.6c-4.79,4.79-4.79,12.6,0,17.39,2.33,2.32,5.41,3.6,8.7,3.6,3.29,0,6.37-1.28,8.7-3.6h0ZM33.37,31.43c.16,0,.31.06.42.17l4.14,4.14c.23.23.23.61,0,.85l-1.34,1.35c-.23.23-.61.23-.85,0l-4.14-4.14c-.23-.23-.23-.61,0-.85l1.34-1.35c.12-.12.27-.18.42-.18h0ZM39.96,5.45c-.1-.29-.42-.46-.71-.38-3.9.99-7.5,2.46-10.72,4.37-2.55-2.54-5.93-3.94-9.53-3.94s-6.99,1.4-9.55,3.95c-5.26,5.26-5.26,13.83,0,19.09,2.55,2.55,5.94,3.95,9.55,3.95,3.4,0,6.61-1.25,9.11-3.54l2.9,2.9-.25.25c-.34.34-.53.79-.53,1.27s.19.93.53,1.27l4.14,4.14c.34.34.79.53,1.27.53s.93-.19,1.28-.53l1.34-1.34c.34-.34.53-.79.53-1.27s-.19-.93-.53-1.27l-4.14-4.14c-.34-.34-.79-.53-1.28-.53s-.93.19-1.27.53l-.25.25-2.9-2.9c2.29-2.49,3.54-5.71,3.54-9.11,0-2.53-.69-4.96-1.99-7.07,2.9-2.33,5.97-4.26,9.15-5.73.29-.13.42-.45.32-.75h0Z"/>
  </g>
</svg>